<svg width="86" height="87" viewBox="0 0 86 87" fill="none" xmlns="http://www.w3.org/2000/svg">
<g clip-path="url(#clip0_233_7691)">
<path d="M40.4123 18.6027C39.8291 18.1383 38.8328 18.0649 38.128 17.9916C35.7466 17.796 33.4137 18.5538 31.0565 18.7738C31.0079 18.7738 30.9836 18.7983 30.9593 18.8227C30.935 18.8227 30.8864 18.8227 30.8621 18.8472C29.5742 19.7761 31.8585 20.9983 32.5146 21.3406C34.1913 22.1717 36.0382 22.5873 37.8607 22.9295C38.3953 23.0273 39.0758 23.3206 39.4889 22.8073C39.7562 22.465 39.8777 21.9517 40.0478 21.5606C40.2422 21.1206 40.4366 20.6805 40.6067 20.2405C40.8011 19.6783 40.9226 19.0183 40.4123 18.6027Z" fill="#FAE1D2"/>
<path d="M58.9051 23.7361C58.8565 23.7117 58.8079 23.7117 58.7593 23.7117C56.8882 22.8561 54.9198 22.245 52.8786 21.9761C52.3926 21.9027 51.8822 21.8539 51.3719 21.8294C51.1046 21.805 50.7644 21.7561 50.5457 21.9027C50.3513 22.0494 50.327 22.2939 50.3027 22.5139C50.2541 23.0761 50.3027 23.6383 50.3027 24.2006C50.1812 24.1517 50.0354 24.0784 49.9139 24.0295C49.7681 23.9561 49.6466 24.1761 49.7924 24.2495C51.785 25.1295 53.8992 25.9362 56.1105 25.7651C56.9854 25.6917 58.0303 25.5206 58.7593 24.9584C59.1481 24.665 59.3425 24.0784 58.9051 23.7361Z" fill="#FAE1D2"/>
<path d="M59.9015 38.1832C59.7071 36.7165 59.2453 35.3476 58.6378 34.0031C58.1275 32.4142 56.8639 31.143 55.9162 29.7986C54.6525 27.9652 53.8263 26.034 53.073 23.9317C52.4655 22.245 51.8337 20.5339 50.7401 19.1405C48.3344 16.0604 43.7901 15.1315 40.4366 17.2093C38.7113 18.2849 37.7879 20.265 37.2533 22.1717C36.67 24.3229 36.6214 27.2318 37.1561 29.383C37.4963 30.6786 37.6664 31.8519 38.201 33.1475C38.7599 34.4676 38.5898 35.3965 38.5169 36.8387C38.4683 36.8876 38.444 36.9365 38.444 37.0099C38.3468 39.3566 39.0272 41.2877 41.6517 41.3611C43.1583 41.41 44.6407 40.8966 46.123 40.6522C48.1157 40.3099 50.084 40.3833 52.0767 40.7744C54.1179 41.1655 57.5443 43.0967 59.3669 41.2144C60.1202 40.4077 60.0473 39.2099 59.9015 38.1832Z" fill="#913939"/>
<path d="M53.1701 87C54.6038 86.8778 56.0132 86.7067 57.447 86.5356C60.8248 86.1444 64.2269 85.8266 67.6046 86.12C67.6046 86.0955 67.6046 86.0466 67.6046 86.0222C66.0008 80.3998 64.4942 71.9907 61.2865 65.0972C61.2136 64.9506 61.0921 64.9261 60.9706 64.9506C60.922 64.9017 60.8734 64.8772 60.8248 64.8772C56.4506 64.3394 52.0765 64.7794 47.7024 65.1217C45.7098 65.2683 43.3526 65.6839 41.4085 65.1461C40.3393 64.8283 38.6383 64.095 38.4925 65.5372C38.2009 68.2018 38.1523 71.2818 38.128 73.9463C38.1037 76.5864 38.9542 86.5111 38.9542 86.78C38.9299 86.7311 45.8313 87 53.1701 87Z" fill="#FAE1D2"/>
<path d="M31.4454 28.2829C29.9145 26.4495 28.3592 24.6406 26.8769 22.7583C25.6862 21.2427 21.6037 15.9382 19.5624 13.7381C18.0315 14.6181 17.1323 14.4714 16.3061 16.0115C16.1846 16.207 15.9902 16.5982 16.136 16.7693C17.4968 18.4316 19.9512 22.8072 21.3363 25.0073C23.1103 27.8429 29.064 35.9831 30.0846 37.1565C30.5463 37.6698 30.4248 38.0365 31.0809 37.7676C32.5632 37.132 33.511 34.8586 33.754 33.1964C33.8755 33.2208 33.997 33.1475 34.0213 33.0008C34.1914 31.0697 32.5875 29.6518 31.4454 28.2829Z" fill="#EB8B65"/>
<path d="M41.384 29.1874C41.6027 30.8008 42.0158 32.8053 42.0158 34.4431C42.0158 34.7365 41.9429 35.0053 41.8214 35.2498C43.7655 36.5698 46.2198 35.5676 48.2368 34.272C48.2125 34.2476 48.2125 34.1987 48.1882 34.1742C47.5321 32.3408 47.3376 27.9896 47.4834 26.1073C47.4834 25.9851 47.4592 25.9118 47.4106 25.8384C47.605 25.4229 46.9731 24.9095 46.5357 25.2762C45.5637 26.1073 44.4216 26.6451 43.2794 27.134C42.4775 27.4763 41.5784 27.6963 41.2625 28.6007C41.1896 28.8207 41.2625 28.9919 41.384 29.0896C41.3597 29.1141 41.3597 29.163 41.384 29.1874Z" fill="#EB8B65"/>
<path d="M51.2744 36.8632C49.3304 35.9587 48.6743 35.5431 48.2855 34.8342C45.5152 35.2742 43.8141 36.1543 41.5056 35.7143C40.8981 36.3743 39.7802 36.9121 38.0549 37.401C37.5446 37.5476 37.6175 38.2076 38.0063 38.3543C38.2493 39.1366 39.0269 39.4299 39.8288 39.7477C41.4327 40.3833 43.0122 40.7744 44.7376 40.6766C46.2442 40.5788 47.8481 40.2855 49.2818 39.7966C50.351 39.4299 51.2258 38.7454 51.4203 37.5721V37.5476C51.5661 37.3521 51.5904 37.0098 51.2744 36.8632Z" fill="#D1D5E3"/>
<path d="M32.4659 28.503C32.15 28.4052 31.907 28.4052 31.7126 28.5763C31.6154 28.6496 31.5668 28.7719 31.5182 28.8696C30.0359 31.7786 27.8002 35.9831 27.46 39.1121C27.3871 39.7721 27.8731 40.5299 28.1404 41.1655C29.7929 45.0278 35.4792 53.828 35.5764 53.7547C37.1317 53.8769 37.2775 48.7924 37.7392 47.5701C38.9056 44.5389 39.8047 41.4588 40.4851 38.281C40.4851 38.2565 40.4851 38.2076 40.4851 38.1832C40.5094 38.1099 42.4292 36.1298 42.3806 36.0565C40.7768 33.5386 33.8511 28.9674 32.4659 28.503Z" fill="#D1D5E3"/>
<path d="M65.8308 33.9053C65.2233 32.9031 64.4699 31.4119 63.3764 30.703C63.2792 30.6541 62.5745 32.3164 62.5259 32.4142C62.1128 33.3186 63.2549 34.8831 63.7409 35.5187C64.2026 36.1054 64.7373 36.6432 65.2719 37.181C65.6121 37.5232 65.9037 37.9388 66.3897 37.8165C66.4383 37.8165 66.5841 38.2321 66.6084 38.2077C66.6813 37.9632 66.6813 37.7921 66.7056 37.6699C66.9 36.5454 66.9486 35.7876 65.8308 33.9053Z" fill="#D1D5E3"/>
<path d="M77.2277 14.007C77.5193 13.7137 77.738 13.3226 77.3978 13.0781C76.207 12.1492 74.5546 10.3403 73.7527 11.2203C66.9485 18.6271 60.1929 26.8162 55.0169 35.3476C54.8711 35.592 55.0655 35.8365 55.2842 35.8854C55.43 36.6921 55.8917 37.2543 56.4992 37.8899C57.7385 39.161 58.6863 40.261 59.0508 42.0455C59.1237 42.3878 59.5854 42.3878 59.7312 42.0944C62.3314 36.9121 65.2231 31.8519 68.4065 26.9629C69.7917 24.8362 75.2107 15.9137 77.2277 14.007Z" fill="#EB8B65"/>
<path d="M48.8932 24.7139C49.3306 23.1495 49.4764 21.5116 48.8446 19.996C47.9454 17.8693 46.0743 17.136 43.7171 17.2826C42.2105 17.3804 40.8739 18.1382 39.9748 19.3116C38.3467 21.5116 38.2009 24.5917 38.3467 27.2073C38.4196 28.3318 38.3953 29.3341 39.3187 30.1407C40.4365 31.143 42.6236 31.4119 44.033 31.3141C46.2444 31.1919 47.2164 28.8207 48.0669 26.914C48.3585 26.2295 48.6501 25.4962 48.8932 24.7139Z" fill="#EB8B65"/>
<path d="M43.2554 70.6951C43.2797 74.3619 44.3489 77.9309 46.3173 81.0354C46.3902 81.1332 46.536 81.0354 46.4631 80.9376C44.519 77.882 43.4498 74.3374 43.4255 70.6951C43.4498 70.5729 43.2554 70.5729 43.2554 70.6951Z" fill="#2B0303"/>
<path d="M59.707 75.4131C60.9464 77.1487 61.9427 79.0065 62.696 80.9865C62.7446 81.0843 62.9147 81.0599 62.8661 80.9376C62.1128 78.9332 61.0922 77.0509 59.8529 75.3153C59.8043 75.2175 59.6584 75.3153 59.707 75.4131Z" fill="#2B0303"/>
<path d="M64.6398 65.1706C64.1538 62.4327 63.8136 59.0349 63.6192 56.2726C63.2789 52.0925 62.5013 49.3302 62.4041 46.1034C62.3069 42.7544 60.7031 39.1121 58.0786 37.3276C56.9365 36.5454 53.9718 33.0009 53.0484 34.1742C51.5417 36.0565 50.7641 35.6165 49.379 35.5676C49.3061 35.5676 49.1846 35.6409 49.1846 35.6409C49.1117 35.4943 48.4799 38.4032 45.5638 38.8188C42.2103 39.3077 41.1411 35.9098 41.0439 35.9098C40.9952 35.8854 40.971 35.8854 40.898 35.8854C39.0755 36.0809 36.5239 36.2765 34.6771 36.4965C34.507 36.5209 34.4098 36.6676 34.4341 36.7898L34.4098 36.8143C34.0696 37.7188 34.3369 38.9166 34.3855 39.8699C34.4341 40.5788 33.9238 41.0188 33.9967 41.7277C31.6395 52.9969 37.8848 70.1329 38.0792 70.5729C38.3222 71.1352 38.3951 71.0618 39.1241 71.1841C40.3391 71.3796 41.5299 71.5507 42.7449 71.6974C45.1264 71.9663 47.5078 72.113 49.9136 72.1374C53.9475 72.1863 58.1758 72.2352 62.1611 71.7218C62.9144 71.6241 64.8585 70.964 65.1987 70.2551C65.2473 70.1574 65.2716 70.0351 65.2473 69.9129C65.0772 69.204 64.7856 66.0261 64.6398 65.1706Z" fill="#D1D5E3"/>
<path d="M66.5838 37.3276C66.0734 36.3743 64.8827 35.6654 64.1051 34.932C62.1367 33.0986 60.3142 30.7519 59.6824 28.3807C59.6338 28.1607 59.1721 28.2585 58.8562 28.503C55.284 31.5097 51.0556 32.8542 48.4069 36.032C48.3826 36.0565 51.5903 37.1565 51.5903 37.181C51.5417 37.2787 51.5174 37.3765 51.6146 37.4743C55.4298 41.85 56.6934 47.7168 59.4637 52.728C59.5609 52.8747 59.731 52.8747 59.8282 52.7769C59.8039 52.8258 59.7796 52.8747 59.7553 52.8991C59.6095 53.1925 61.0189 51.9458 61.1161 51.628C62.7443 45.9812 64.6883 43.7811 66.3894 39.1121C66.6567 38.5254 66.924 37.9632 66.5838 37.3276Z" fill="#D1D5E3"/>
<path d="M48.9415 23.8828C48.0423 24.054 47.4834 25.0562 47.289 25.9118C47.2647 25.9362 47.2647 25.9362 47.2404 25.9607C46.9488 26.6451 46.7301 28.2096 47.9937 28.1118C49.9135 27.9407 51.1042 23.4673 48.9415 23.8828Z" fill="#EB8B65"/>
<path d="M63.9354 34.6387C64.713 35.2498 65.4663 35.9098 66.3897 36.3009C66.4869 36.3498 66.5841 36.1787 66.4869 36.1543C65.5878 35.7631 64.8345 35.1276 64.0812 34.5164C63.984 34.4187 63.8382 34.5653 63.9354 34.6387Z" fill="#2B0303"/>
<path d="M32.952 42.1433C32.8305 44.9056 33.0006 47.6434 33.4623 50.3568C33.4866 50.4791 33.6567 50.4302 33.6324 50.308C33.1707 47.619 33.0006 44.8812 33.1464 42.1433C33.1221 42.0211 32.952 42.0211 32.952 42.1433Z" fill="#2B0303"/>
<path d="M45.248 36.9121C45.5154 45.9812 45.8313 55.1236 48.0426 63.9728C48.6744 66.4906 49.4764 68.984 50.4484 71.4041C50.497 71.5018 50.6671 71.4529 50.6185 71.3552C47.1921 62.8727 46.1472 53.7058 45.7098 44.6367C45.5883 42.07 45.4911 39.5032 45.4182 36.9365C45.4425 36.7898 45.248 36.7898 45.248 36.9121Z" fill="#2B0303"/>
<path d="M50.2056 34.8831C50.0841 34.1987 49.671 33.5875 49.2093 33.0742C48.869 32.6831 48.4802 32.292 48.0185 32.0231C47.7026 31.8519 47.6783 31.9497 47.4839 32.2186C47.3138 32.4386 47.1437 32.6586 46.9493 32.8542C46.2689 33.6364 45.467 34.3453 44.4949 34.7853C43.4257 35.2743 42.0892 33.7587 41.8705 32.8786C41.8219 32.7075 41.7976 32.5364 41.5789 32.6342C41.5302 32.6586 41.5059 32.7075 41.4816 32.732C40.8984 33.4653 40.4367 34.272 40.0722 35.152C40.0479 35.2009 40.0479 35.2742 40.0479 35.2987C40.0479 35.3476 40.0236 35.372 40.0479 35.4209C40.3638 36.9121 41.1657 38.2321 42.3565 39.161C42.5752 39.3321 42.8425 39.1366 42.8425 38.941C43.2556 37.8165 43.693 36.7165 44.1547 35.6165C44.179 35.5676 44.2519 35.5676 44.2519 35.6409C44.3491 36.2765 44.9566 37.401 45.1267 37.7432C45.4427 38.3543 45.8072 39.381 46.6577 39.2832C48.4316 39.0632 49.7439 36.7165 50.2056 35.1765C50.2542 35.1031 50.2056 35.0054 50.2056 34.8831Z" fill="#D1D5E3"/>
<path d="M50.0354 35.1765C49.6709 36.5943 48.9662 38.0365 47.6539 38.7943C47.3623 38.9654 46.852 39.2099 46.4875 39.1855C45.9286 39.1366 45.5398 38.3054 45.2968 37.8899C44.8837 37.1565 44.5435 36.3987 44.2519 35.6165C44.2276 35.5431 44.1303 35.5187 44.0817 35.592C43.6929 36.252 43.4013 36.9365 43.1583 37.6699C43.0368 38.061 42.9396 38.4765 42.7938 38.8677C42.7209 39.1121 42.7452 39.2588 42.4779 39.2099C42.3321 39.1855 42.2106 38.9899 42.0891 38.9166C40.947 37.8654 39.9506 36.1298 40.4853 34.5898C40.5339 34.4676 40.3394 34.4187 40.3151 34.5409C39.7562 36.2032 40.8498 38.1588 42.162 39.2099C42.4536 39.4543 42.7452 39.6499 42.891 39.2343C43.1097 38.6966 43.2069 38.1099 43.4013 37.5721C43.62 36.9365 43.9116 36.3254 44.2519 35.7387C44.2033 35.7387 44.1303 35.7143 44.0817 35.7143C44.4463 36.7165 44.908 37.6699 45.4669 38.5743C45.9529 39.3321 46.3417 39.601 47.2165 39.2588C48.869 38.6232 49.7924 36.9365 50.2055 35.2987C50.2541 35.1031 50.0597 35.0542 50.0354 35.1765Z" fill="#2B0303"/>
<path d="M42.891 51.5058C45.2482 55.8325 47.9212 59.9638 50.9102 63.875C50.9831 63.9727 51.1289 63.875 51.056 63.7772C48.067 59.866 45.3697 55.7348 43.0368 51.408C43.0125 51.3102 42.8424 51.3835 42.891 51.5058Z" fill="#2B0303"/>
<path d="M56.6692 41.5321C57.4468 41.2144 58.2487 41.141 58.7591 40.3588C58.9049 40.1388 59.0021 39.8699 59.075 39.601C59.0264 37.4254 57.2281 35.5187 55.8916 34.0275C52.368 30.1163 53.2671 24.2984 50.3753 20.0694C50.1566 19.6049 49.8893 19.1649 49.5734 18.7493C48.0182 16.6959 45.4423 16.0115 43.3524 17.7226C43.1823 17.8693 43.3038 18.0649 43.4496 18.1138L43.4739 18.1382C47.921 20.7538 48.5771 26.7673 49.0874 31.3874C49.3304 33.5386 49.865 35.1764 50.9342 37.0342C51.4689 37.9387 51.9306 38.8921 52.368 39.8699C52.7325 40.701 52.9026 42.2899 53.8746 42.6566C54.8953 42.9988 55.8187 41.8988 56.6692 41.5321Z" fill="#913939"/>
<path d="M40.4367 17.6004C38.5655 19.2871 37.5449 21.7317 37.3991 24.2006C37.3748 24.2739 37.3505 24.3473 37.3262 24.3962C37.2776 24.5184 37.3262 24.6162 37.4234 24.6651C37.5449 24.8362 37.8851 24.7873 37.8851 24.5184C37.8851 24.4451 37.8851 24.3717 37.9094 24.2739C38.8571 21.4383 40.8012 17.8204 44.2276 18.236C44.422 18.2605 44.4949 18.0893 44.4463 17.9427C44.5921 18.016 44.8108 17.9427 44.7865 17.7227C44.6164 15.3026 41.4816 16.6471 40.4367 17.6004Z" fill="#913939"/>
<path d="M30.6676 39.0877C30.8134 41.3611 31.2265 43.61 31.907 45.7856C31.9313 45.9079 32.1257 45.859 32.0771 45.7367C31.3966 43.5856 30.9835 41.3611 30.8377 39.0877C30.8377 38.9899 30.6433 38.9899 30.6676 39.0877Z" fill="#2B0303"/>
<path d="M48.5527 28.1118C48.7228 29.5296 48.6985 31.1919 49.4519 32.4386C49.5248 32.5364 49.6706 32.4386 49.5977 32.3408C48.8443 31.1186 48.8686 29.5052 48.7228 28.1118C48.7228 28.014 48.5527 27.9896 48.5527 28.1118Z" fill="#631F1F"/>
<path d="M48.48 18.3093C52.4167 21.4872 50.8858 27.5251 53.9962 31.2652C54.0691 31.363 54.1907 31.2163 54.1177 31.143C51.0073 27.4029 52.5625 21.3894 48.6015 18.1871C48.5286 18.1138 48.4071 18.236 48.48 18.3093Z" fill="#631F1F"/>
<path d="M52.4653 24.9828C52.7326 26.1807 52.9756 27.4029 53.17 28.6252C53.1943 28.7474 53.3644 28.6985 53.3401 28.5763C53.1457 27.354 52.927 26.1318 52.6354 24.934C52.6111 24.8117 52.441 24.8606 52.4653 24.9828Z" fill="#631F1F"/>
<path d="M38.4439 19.9227C38.0065 20.7538 37.8121 21.6339 37.9093 22.5872C37.9093 22.7094 38.1037 22.7094 38.1037 22.5872C38.0308 21.6827 38.2009 20.8272 38.614 20.0205C38.6626 19.9227 38.4925 19.8249 38.4439 19.9227Z" fill="#631F1F"/>
<path d="M44.7375 39.7721C44.2272 38.5499 43.4982 37.352 42.8907 36.1542C42.2346 34.8342 41.8943 33.4653 41.7485 31.9741C41.7242 31.6564 39.9746 31.2652 38.8082 30.7519C38.711 30.703 38.6381 30.8008 38.5895 30.8741C38.4437 30.8008 37.4473 30.5074 37.4716 30.7274C37.9819 33.3186 39.8045 37.9387 40.169 41.7766C40.2176 42.2166 40.169 42.73 40.3391 43.1455C40.412 43.3411 40.5578 43.4878 40.7522 43.5367C40.8737 43.5611 40.9952 43.5367 41.1167 43.5367C42.0402 43.4389 42.9636 43.8789 43.7412 44.3189C43.9356 44.4411 44.1543 44.5389 44.373 44.4656C44.4702 44.4167 44.5431 44.3189 44.616 44.2456C45.6123 42.9011 45.3693 41.3122 44.7375 39.7721Z" fill="#913939"/>
<path d="M54.0447 36.0809C55.1868 37.4009 55.9158 38.9899 56.1103 40.7255C56.1346 40.8477 56.3047 40.8477 56.3047 40.7255C56.1103 38.941 55.3812 37.3032 54.1905 35.9342C54.0933 35.8609 53.9718 35.9831 54.0447 36.0809Z" fill="#631F1F"/>
<path d="M41.5301 22.5139C40.8253 23.0517 41.2384 23.9562 41.7731 24.4451C41.8703 24.5184 41.9918 24.3962 41.8946 24.3228C41.4572 23.9317 40.9954 23.1739 41.6273 22.685C41.7245 22.5872 41.6273 22.4406 41.5301 22.5139Z" fill="#C45547"/>
<path d="M42.4779 23.9561C42.7209 23.8584 43.0125 23.9317 43.1583 24.1761C43.2312 24.2739 43.377 24.1761 43.3041 24.0784C43.1097 23.785 42.7452 23.6628 42.4293 23.785C42.3078 23.8339 42.3564 24.005 42.4779 23.9561Z" fill="#C45547"/>
<path d="M46.1956 22.8317C45.661 23.0028 45.1021 23.1739 44.5918 22.8317C44.2758 22.6361 44.0328 23.0273 44.3001 23.2473C44.8834 23.7362 45.661 23.5406 46.3414 23.3206C46.6573 23.2228 46.5115 22.7339 46.1956 22.8317Z" fill="#170301"/>
<path d="M40.5822 22.8073C40.242 22.9539 39.8532 23.1739 39.513 22.8561C39.2943 22.6117 38.9055 23.0517 39.1485 23.2717C39.4887 23.6384 40.0962 23.5895 40.5336 23.3939C40.6794 23.3206 40.971 23.2228 40.971 23.0273C40.971 22.8561 40.7523 22.7339 40.5822 22.8073Z" fill="#170301"/>
<path d="M42.5022 25.105C41.9919 25.0806 41.3115 25.0317 40.947 25.1784C40.5339 25.3251 40.8741 25.6673 41.0685 25.8628C41.3844 26.1806 41.8218 26.3517 42.2835 26.3517C42.7695 26.3517 43.5471 26.034 43.6686 25.5451C43.8144 25.0317 42.7938 25.1295 42.5022 25.105Z" fill="white"/>
<path d="M47.1437 20.9005C47.0707 20.8028 46.9735 20.7294 46.8763 20.6805C46.2931 20.2894 45.5884 20.1183 44.8837 20.1916C44.3248 20.2405 43.6201 20.8028 44.1061 21.4139C44.3005 21.6828 44.665 21.7317 44.9566 21.7317C45.1996 21.7317 45.4669 21.6583 45.7099 21.6828C45.9529 21.6828 46.1473 21.805 46.366 21.8783C46.852 22.0739 47.5325 21.4872 47.168 20.9739C47.168 20.925 47.168 20.9005 47.1437 20.9005Z" fill="#913939"/>
<path d="M39.8778 20.2161C39.2946 20.3138 38.7356 20.6805 38.5169 21.3161C38.3954 21.6583 38.4926 22.1961 38.8814 22.1228C39.2946 22.0494 39.6348 21.7317 40.0722 21.6828C40.4367 21.6339 41.1657 21.6339 41.2872 21.0961C41.3844 20.6561 40.8741 20.3139 40.5582 20.2405C40.3395 20.1916 40.0965 20.1916 39.8778 20.2161Z" fill="#913939"/>
<path d="M41.8944 31.2897C43.4011 31.3874 45.0535 31.2163 46.1228 30.0185C46.1957 29.9207 46.0742 29.7985 46.0013 29.8963C44.9806 31.0697 43.3768 31.2163 41.9188 31.1186C41.7729 31.0941 41.7729 31.2652 41.8944 31.2897Z" fill="#C45547"/>
<path d="M42.575 39.7232C43.1096 40.6032 43.2069 41.6055 42.8423 42.5833C42.7937 42.7055 42.9881 42.73 43.0124 42.6322C43.4013 41.6299 43.2798 40.5543 42.7208 39.6499C42.6722 39.5276 42.5021 39.6254 42.575 39.7232Z" fill="#631F1F"/>
<path d="M61.894 44.1478C61.8697 46.1034 61.6996 48.0346 61.4323 49.9413C61.408 50.0635 61.6024 50.1124 61.6024 49.9902C61.894 48.059 62.0641 46.1034 62.0884 44.1478C62.0884 44.0256 61.894 44.0256 61.894 44.1478Z" fill="#2B0303"/>
<path d="M84.6877 6.0868C85.1738 5.67123 85.8056 4.79121 85.2224 4.27786C84.785 3.88674 84.1531 4.30231 83.7157 4.62009C83.1568 5.03566 81.8689 5.84235 81.2857 6.20902C80.7996 6.52681 79.8033 7.35794 79.3659 7.43127C79.3416 7.43127 79.3659 7.40683 79.3416 7.40683C79.0986 7.33349 80.3622 5.8179 80.7267 5.42678C81.31 4.86454 81.9418 4.20453 82.1848 3.76451C82.4035 3.39784 82.5007 2.93338 82.1119 2.71338C81.6259 2.46893 81.1642 2.76227 80.7996 3.05561C79.6818 3.98452 78.1752 5.62234 77.1302 6.62459C76.9358 6.82015 75.9395 7.57795 75.9152 7.08904C75.9881 6.96682 76.061 6.84459 76.1339 6.72237C76.4498 6.23347 76.8872 5.69567 76.9844 5.10899C77.0816 4.37564 76.2797 3.86229 75.818 4.44898L75.7937 4.47342C74.846 5.59789 73.9469 6.86904 73.3879 8.26241C72.9019 9.43577 73.1206 10.6825 73.1935 11.9292C73.1935 12.1247 73.315 12.2225 73.4608 12.2714C74.0441 13.0781 74.6273 13.9337 75.2834 14.667C75.5993 15.0092 75.7937 15.2293 76.2797 15.2537C77.8593 15.3515 79.0986 13.9826 80.2893 13.2003C80.6295 12.9803 83.8372 12.2225 84.5176 12.0025C84.8092 11.9047 85.028 11.7581 85.0766 11.4403C85.1495 11.0003 84.9551 10.6825 84.4933 10.658C84.2017 10.6336 81.3343 11.1714 81.3343 11.0003C81.3343 10.9269 81.4801 10.8536 81.5287 10.8291C82.0876 10.4869 86.2187 9.24021 85.9757 8.0424C85.9028 7.65128 85.2224 7.52905 84.7364 7.70017C84.2503 7.87129 81.7717 9.16687 81.553 9.21576C81.4558 9.26466 81.3829 9.2891 81.2857 9.33799C81.067 9.26466 81.0184 8.94687 81.1399 8.84909C81.8203 8.36019 82.4521 7.79795 83.1082 7.26016C83.4727 6.96682 84.1531 6.55125 84.6877 6.0868Z" fill="#EB8B65"/>
<path d="M76.8875 9.28911C77.0576 10.3891 76.4258 11.2692 75.6968 12.0025C75.6239 12.0758 75.7454 12.2225 75.8183 12.1247C76.5959 11.3425 77.2277 10.3891 77.0576 9.21577C77.0576 9.11799 76.8875 9.16688 76.8875 9.28911Z" fill="#C45547"/>
<path d="M10.5224 8.48243C11.1056 9.09356 11.6888 9.70468 12.2963 10.2914C12.4178 10.3891 12.3449 10.7314 12.1019 10.7803C12.0047 10.7314 11.9318 10.6825 11.8346 10.6336C11.6402 10.5603 9.30735 9.02022 8.84563 8.80022C8.35962 8.58021 7.6792 8.6291 7.5577 8.99578C7.19319 10.1447 11.1785 11.8558 11.6888 12.247C11.7374 12.2959 11.8832 12.3692 11.8589 12.4425C11.8589 12.6136 9.04004 11.7581 8.74843 11.7581C8.28672 11.7336 8.04371 12.027 8.06801 12.467C8.09231 12.7848 8.28672 12.9559 8.57833 13.1025C9.23444 13.3959 12.3449 14.4959 12.6608 14.7404C13.7787 15.6204 14.8722 17.136 16.4274 17.2093C16.9134 17.2338 17.1322 17.0382 17.4724 16.7449C18.2014 16.0848 18.8818 15.2782 19.5379 14.5693C19.6837 14.5448 19.8052 14.447 19.8538 14.2515C20.0482 13.0292 20.3884 11.807 20.0482 10.5847C19.6351 9.14245 18.9061 7.79797 18.0556 6.55127C18.0556 6.52682 18.0313 6.52682 18.0313 6.52682C17.6182 5.9157 16.7676 6.33126 16.7919 7.06462C16.8162 7.6513 17.1808 8.23798 17.4481 8.75133C17.521 8.87355 17.5696 8.99578 17.6425 9.14245C17.5696 9.63135 16.6704 8.75133 16.476 8.55576C15.5526 7.45574 14.2161 5.6468 13.2198 4.62011C12.8795 4.27788 12.4421 3.93565 11.9561 4.13121C11.5187 4.27788 11.5916 4.76678 11.7617 5.1579C11.9561 5.62236 12.515 6.35571 13.0496 6.99128C13.3899 7.40685 14.4834 9.04467 14.2161 9.09356C14.1918 9.09356 14.2161 9.118 14.1918 9.118C13.7787 8.99578 12.8795 8.06686 12.4178 7.70019C11.8832 7.26018 10.6925 6.33126 10.1579 5.84236C9.76906 5.47569 9.18584 4.98678 8.69983 5.32902C8.09231 5.76903 8.62693 6.72238 9.04004 7.18684C9.55035 7.67574 10.1822 8.1402 10.5224 8.48243Z" fill="#EB8B65"/>
<path d="M59.0507 23.7362C58.8563 23.5162 58.6376 23.2962 58.5404 23.2228C57.7871 22.5628 56.4506 22.025 55.5757 21.5606C55.0411 21.2672 53.7775 20.5339 53.2186 20.265C52.9999 20.1672 52.8784 19.9472 52.8784 19.7272C52.9027 18.3827 52.7326 17.3071 52.0764 16.2071C51.2016 14.7404 49.8165 14.4959 48.2855 14.1048C46.5602 13.6648 45.3452 13.3226 43.5712 13.7381C41.9917 14.1048 40.6794 15.2048 39.6588 16.4026C39.5616 16.5249 39.4158 16.5982 39.27 16.5982C36.4997 16.8915 33.1219 17.2582 30.7162 18.8227C30.4489 18.9938 30.4975 19.3361 30.6676 19.5072C30.7162 19.7272 35.3333 18.1871 46.0013 20.6561C48.4556 21.2183 50.7399 22.2695 53.0242 23.2962C54.8467 24.1273 56.6207 24.8362 58.6376 24.3962C59.075 24.3473 59.318 24.054 59.0507 23.7362Z" fill="#FAE1D2"/>
<path d="M38.1763 19.4583C35.9893 19.2871 33.8265 19.3116 31.6395 19.4827C31.518 19.4827 31.518 19.6783 31.6395 19.6783C33.8022 19.4827 35.9893 19.4827 38.1763 19.6538C38.2978 19.6538 38.2978 19.4583 38.1763 19.4583Z" fill="#2B0303"/>
<path d="M53.3643 23.3695C54.6522 23.6384 55.8672 24.1028 57.0094 24.7629C57.1066 24.8117 57.2038 24.6651 57.1066 24.6162C55.9644 23.9562 54.7251 23.4673 53.4372 23.1984C53.2914 23.1739 53.2428 23.345 53.3643 23.3695Z" fill="#2B0303"/>
<path d="M61.481 56.737C61.9427 57.6904 62.4044 58.6437 62.8661 59.5971C62.9147 59.6949 63.0848 59.6215 63.0119 59.4993C62.5502 58.546 62.0885 57.5926 61.6268 56.6392C61.5782 56.5415 61.4324 56.6148 61.481 56.737Z" fill="#2B0303"/>
<path d="M41.0682 16.5249C44.7619 16.2804 48.4313 17.136 51.639 18.9694C51.7362 19.0183 51.8334 18.8716 51.7362 18.8227C48.5042 16.9649 44.7862 16.0849 41.0682 16.3538C40.9467 16.3538 40.9467 16.5249 41.0682 16.5249Z" fill="#2B0303"/>
<path d="M17.5698 10.438C17.5698 11.807 16.7921 13.1514 17.3024 14.5204C17.351 14.6182 17.5212 14.5937 17.4726 14.4715C16.9622 13.127 17.7399 11.807 17.7399 10.438C17.7399 10.3158 17.5698 10.3158 17.5698 10.438Z" fill="#C45547"/>
<path d="M38.0551 1.88226C38.371 3.81342 38.7841 5.72014 39.3187 7.57796C39.343 7.70019 39.5374 7.6513 39.4888 7.52907C38.9542 5.6468 38.5411 3.74009 38.2252 1.83337C38.2009 1.71115 38.0308 1.76004 38.0551 1.88226Z" fill="#2B0303"/>
<path d="M47.4838 0.0977725C47.338 2.29783 47.1922 4.49788 47.0464 6.6735C47.0464 6.79572 47.2165 6.79572 47.2408 6.6735C47.3866 4.47344 47.5324 2.27338 47.6782 0.0977725C47.6782 -0.0244528 47.4838 -0.0244528 47.4838 0.0977725Z" fill="#2B0303"/>
<path d="M59.9013 3.86231C58.6863 5.69569 57.3741 7.45573 55.916 9.09355C55.8431 9.19133 55.9646 9.31356 56.0375 9.21578C57.4956 7.55351 58.8321 5.79347 60.0471 3.93564C60.12 3.86231 59.9499 3.76453 59.9013 3.86231Z" fill="#2B0303"/>
<path d="M57.4714 52.3125C58.0789 51.0658 58.2733 49.5257 58.1518 48.1568C58.1275 47.839 58.0789 47.4968 58.0303 47.179C57.9817 46.9101 58.006 46.4457 57.8602 46.2256C57.6901 45.9323 57.3256 46.0545 57.0583 46.079C55.1142 46.2745 53.1459 46.3234 51.2018 46.519C50.7887 46.5679 49.9139 46.519 49.5494 46.7879C49.1849 47.0568 49.4036 48.1324 49.4522 48.5235C49.5251 49.6968 49.7195 50.8947 50.1083 52.0191C50.3999 52.8991 50.9345 53.5103 51.6635 54.0725C52.4655 54.7081 53.4618 55.197 54.5067 55.0503C56.0377 54.8303 56.8153 53.6325 57.4714 52.3125C57.52 52.2147 57.3742 52.1169 57.3256 52.2147C56.7424 53.3636 56.062 54.5125 54.7254 54.8059C53.7048 55.0259 52.7814 54.6347 51.9552 54.0481C51.2747 53.5592 50.6429 52.9236 50.3513 52.1169C49.9868 51.1147 49.7924 50.0635 49.6952 48.9879C49.6466 48.5724 49.6223 48.1324 49.6223 47.7168C49.6223 47.4968 49.5251 47.0323 49.7195 46.8857C49.8167 46.8123 50.084 46.7879 50.2055 46.7879C50.5214 46.739 50.8616 46.7145 51.1775 46.6657C52.7571 46.519 54.3366 46.4456 55.9162 46.3234C56.305 46.299 56.6938 46.2745 57.0826 46.2256C57.3985 46.2012 57.6415 46.2012 57.7873 46.4945C57.9331 46.7634 57.9088 47.3501 57.9574 47.6679C58.1275 49.1835 58.0303 50.8458 57.3499 52.2147C57.2527 52.3369 57.4228 52.4102 57.4714 52.3125Z" fill="#2B0303"/>
</g>
<defs>
<clipPath id="clip0_233_7691">
<rect width="86" height="87" fill="white"/>
</clipPath>
</defs>
</svg>
