<svg width="46" height="77" viewBox="0 0 46 77" fill="none" xmlns="http://www.w3.org/2000/svg">
<path d="M29.584 4.93788C29.513 3.82967 28.9032 3.05812 28.0381 2.31464C27.5275 1.87977 26.9603 1.43087 26.3362 1.13628C25.23 0.617241 24.2656 1.05211 23.1169 1.01003C21.4576 0.98197 19.9401 0.280567 18.2524 0.743493C16.5789 1.20642 15.1181 2.34269 14.9763 3.998C14.9338 4.04009 14.9054 4.11023 14.9338 4.18037C15.26 5.61123 15.8982 6.97195 16.8909 8.12225C17.9404 9.32866 19.2735 10.0581 20.8477 10.5631C21.8263 10.8858 22.7907 11.2084 23.5424 11.8958C24.1805 12.4709 24.4784 13.3126 25.1591 13.8457C25.4853 14.1122 25.769 14.6734 26.2086 14.5331C26.7333 14.3647 27.0595 13.1443 27.173 12.7094C27.5417 11.1804 28.2083 10.016 28.733 8.52906C29.1301 7.39279 29.669 6.17235 29.584 4.93788Z" fill="#664348"/>
<path d="M38.2208 76.4389C38.4619 74.1523 38.0365 71.3747 37.8947 69.0741C37.7387 66.3667 37.5401 63.6733 37.2848 60.98C36.7601 55.7054 35.9659 50.4309 34.5193 45.3106C34.4768 45.1703 34.3633 45.1283 34.2498 45.1563C34.2215 45.0441 34.1222 44.9459 33.9662 44.988C27.0028 47.008 19.8549 48.3547 12.7497 49.8417C12.6646 49.7154 12.4519 49.6593 12.3384 49.8277C12.31 49.8697 12.2959 49.8978 12.2817 49.9399C12.154 49.982 12.1257 50.0802 12.1399 50.1924C11.3173 51.7495 11.1471 53.517 10.9486 55.2425C10.6791 57.6132 10.4096 59.984 10.1969 62.3547C9.92744 65.2866 9.85653 68.2465 9.81398 71.1924C9.7998 72.6934 9.78562 74.1944 9.75725 75.6954C9.72889 77.0842 9.82816 76.9018 11.0904 76.9158C18.7204 77.0421 26.3362 77 33.9662 76.7896C35.3702 76.7475 36.7743 76.7335 38.1783 76.5932C38.2067 76.5511 38.2208 76.495 38.2208 76.4389Z" fill="#D69847"/>
<path d="M16.6498 53.9098C16.6072 53.8537 16.5363 53.8257 16.4512 53.8116C14.7352 53.6994 13.0475 53.8678 11.3882 54.3447C11.2464 54.3868 11.1613 54.499 11.1471 54.6253C10.126 55.5932 8.29646 57.8658 8.29646 57.9078C8.04118 58.3848 8.11209 58.3006 8.52337 58.5251C9.38849 59.002 10.8209 59.0862 11.2889 59.0301C12.5653 58.9038 13.0617 58.1323 13.8417 57.2625C14.7352 56.2666 15.6712 55.2846 16.7065 54.4148C16.9192 54.2605 16.8199 54.008 16.6498 53.9098Z" fill="#664348"/>
<path d="M32.86 55.7335C33.4699 57.5291 34.1364 59.3106 34.8597 61.0782C34.8881 61.1623 35.0299 61.1202 35.0015 61.0361C34.2782 59.2826 33.5975 57.501 33.0018 55.6914C32.9593 55.6072 32.8317 55.6493 32.86 55.7335Z" fill="#331C1C"/>
<path d="M34.9444 47.1904C34.8734 47.1483 34.7884 47.1202 34.6891 47.1623C31.569 48.1864 28.5482 49.4629 25.4707 50.6132C23.9815 51.1744 22.4782 51.7074 20.9607 52.1563C20.1665 52.3948 14.9617 53.5872 15.0042 53.7836C14.9475 53.994 22.2088 56.996 32.817 56.3227C35.9087 56.1263 35.6677 49.0561 35.6677 47.1904C35.6677 47.022 35.0862 47.2044 34.9444 47.1904Z" fill="#F7E2D2"/>
<path d="M39.3836 25.0541C39.0007 23.7074 38.1781 22.3467 37.3272 21.2946C36.5188 20.2986 35.4552 19.5551 34.3064 18.98C32.5762 18.1243 30.7183 17.5211 28.8321 17.0301C27.7401 16.7495 26.7048 16.4549 25.5844 16.4269C21.741 16.3427 17.9402 16.3427 14.2386 17.493C12.5368 18.0261 10.7356 18.6713 9.27488 19.6954C7.70066 20.8036 6.56609 22.4309 5.72934 24.1142C5.50243 24.5631 3.63038 28.3788 3.99912 28.6593C5.87116 30.1323 8.01267 31.1984 10.0974 32.3768C10.2251 34.3968 10.4095 36.4168 10.6222 38.4228C10.5796 38.4649 9.77126 44.511 9.58689 47.499C9.48761 49.014 9.44507 50.5291 9.47343 52.0301C9.48761 52.9699 9.34579 53.9239 9.53016 54.8497C9.71453 55.8176 10.5655 55.5511 11.4022 55.4669C13.3168 55.2986 15.6001 55.4249 17.4722 54.99C19.8831 54.4429 28.6052 52.5912 30.6899 51.6232C32.2925 50.8798 34.9304 50.6974 35.8948 49.1263C36.5188 48.1162 36.6181 46.8818 36.7457 45.7315C36.7457 44.02 36.8734 41.7194 37.157 40.0361C37.4548 38.1703 37.7527 36.3186 38.0647 34.4529C38.0788 34.3968 38.0647 34.3547 38.0505 34.3126C38.4618 32.994 38.8447 31.6613 39.1709 30.3146C39.5254 28.8277 39.8233 27.2004 39.5396 25.6573C39.4971 25.4469 39.4403 25.2505 39.3836 25.0541Z" fill="#4E5896"/>
<path d="M26.5347 11.3347C26.5631 11.0822 26.322 10.998 26.1234 11.0682C26.0383 10.956 25.8823 10.9139 25.7405 10.998C24.535 11.7415 23.2586 12.3447 21.9255 12.8077C20.7484 13.2005 19.4011 13.3267 18.3232 13.958C18.1105 14.0842 18.1389 14.3227 18.2807 14.4489C18.4509 15.6273 18.6352 16.8197 18.7771 17.998C18.8338 18.5031 18.8905 19.0081 18.8622 19.499C19.2167 19.8638 19.7273 20.1303 20.2378 20.2986C20.2946 19.6534 20.72 19.1063 21.5 19.1624C22.3368 19.2325 23.131 19.6814 23.599 20.3407C24.6343 19.962 25.4852 19.2465 26.166 18.4049C26.1518 17.6894 26.1234 16.988 26.1376 16.2726C26.1801 14.6173 26.3078 12.976 26.5347 11.3347Z" fill="#FFA582"/>
<path d="M16.6921 10.3527C16.607 10.465 16.5078 10.6614 16.3943 10.7455C16.3518 10.8157 16.295 10.8297 16.1816 10.7876C16.0539 10.8437 15.9972 10.8157 15.9972 10.7175C15.9547 10.6614 15.9405 10.5211 15.9121 10.4509C15.8128 10.0862 15.7136 9.72147 15.6285 9.35674C15.4583 8.61326 15.3448 7.85574 15.2739 7.0842C15.2881 7.0842 15.2881 7.0842 15.3023 7.0842C16.1249 6.92989 16.8481 7.42087 17.0325 8.15033C17.2452 8.96396 17.1743 9.66536 16.6921 10.3527Z" fill="#664348"/>
<path d="M28.0802 3.57719C26.9031 0.519077 23.3718 0.434909 20.6062 1.71146C16.8763 3.43691 15.7276 6.34072 16.2807 10.0582C16.536 11.7696 16.7061 13.5231 17.4011 15.1363C17.8691 16.2305 18.6916 17.2686 19.9113 17.7175C22.0528 18.489 24.8751 16.8337 25.8111 15.0662C26.3216 14.0982 26.3358 12.962 26.5202 11.9239C26.7046 10.8998 26.8748 9.87579 27.0591 8.85174C27.3569 8.4309 27.6406 7.982 27.8675 7.51908C28.4773 6.29864 28.5624 4.85375 28.0802 3.57719Z" fill="#FFA582"/>
<path d="M10.7925 38.4509C10.9769 40.8357 11.3031 43.1924 11.7711 45.5351C11.7853 45.6193 11.9271 45.5912 11.9129 45.493C11.4449 43.1644 11.1187 40.8076 10.9343 38.4369C10.9201 38.3527 10.7783 38.3527 10.7925 38.4509Z" fill="#111424"/>
<path d="M31.4984 44.5251C29.3285 45.7175 27.1019 46.7836 24.8044 47.7235C22.5352 48.6494 20.1526 49.6313 17.6708 49.7576C17.5857 49.7576 17.5857 49.8979 17.6708 49.8979C20.1668 49.7716 22.5494 48.8037 24.8469 47.8638C27.1444 46.9239 29.3852 45.8437 31.5693 44.6514C31.6402 44.5952 31.5693 44.483 31.4984 44.5251Z" fill="#111424"/>
<path d="M28.8889 3.82968C28.1939 2.07618 26.3361 0.939905 24.3506 0.75754C24.0669 0.729484 23.9818 0.996017 24.0811 1.17838C23.9109 1.15033 23.684 1.23449 23.6556 1.44491C23.5705 2.17437 23.4854 2.8898 23.4004 3.61926C23.1451 4.22247 23.06 4.86776 23.3578 5.49902C23.8258 6.49501 24.776 6.4389 25.7404 6.77558C27.2721 7.29461 26.1233 10.0301 26.9317 10.998C27.4281 11.5872 27.5415 10.5632 27.8536 10.0862C28.4492 9.17437 28.5343 8.08018 28.7045 7.05614C28.8889 5.94792 29.3285 4.92387 28.8889 3.82968Z" fill="#664348"/>
<path d="M20.3935 62.6212C21.0884 63.1403 21.7975 63.6453 22.3223 64.3467C22.9179 65.1463 23.3434 66.0862 23.5561 67.0541C23.7972 68.1062 23.8965 69.1864 23.9958 70.2665C24.0951 71.3046 24.1943 72.3427 24.2652 73.3808C24.3503 74.517 24.4212 75.6533 24.4922 76.7896C24.4922 76.8738 24.634 76.8738 24.634 76.7896C24.5063 74.6293 24.3503 72.4689 24.1376 70.3226C23.9249 68.2605 23.7547 66.1283 22.5067 64.3747C21.9677 63.6172 21.2019 63.0561 20.4502 62.509C20.3935 62.4389 20.3226 62.5651 20.3935 62.6212Z" fill="#331C1C"/>
<path d="M25.8397 1.30464C25.8255 1.27658 25.8113 1.26255 25.7971 1.26255C25.5702 1.03811 25.4993 0.729488 25.2156 0.519067C24.9462 0.322674 24.6058 0.182394 24.2796 0.0982253C22.8047 -0.29456 21.9537 0.589207 20.7057 1.03811C19.3726 1.52909 18.0253 0.701432 16.7347 1.47297C16.1958 1.79562 15.8554 2.27257 15.7136 2.79161C14.3096 3.11426 13.1041 3.68941 12.5084 4.99402C11.9979 6.10223 11.6149 8.62728 14.1252 8.54312C14.5223 8.52909 14.8627 8.26255 15.2598 8.19241C16.1249 8.06616 16.6212 8.85173 17.4296 8.94993C18.8762 9.13229 19.869 8.19241 20.4646 7.15434C21.2163 7.21045 21.8261 7.02808 22.4218 6.42488C22.833 6.00404 23.1309 5.54111 23.3861 5.0361C23.6698 4.47498 24.1236 3.32468 25.1164 3.73149C25.1589 3.74552 25.1873 3.75955 25.2298 3.74552C25.3007 3.75955 25.3716 3.74552 25.4284 3.68941C26.18 3.0862 26.336 2.09021 25.8397 1.30464Z" fill="#664348"/>
<path d="M27.7399 10.3527C26.9315 9.9459 26.2082 11.2505 25.9671 11.7695C25.8253 12.0782 25.7544 12.4008 25.7402 12.7235C25.726 13.1864 26.0239 14.014 26.7046 13.7615C27.1726 13.5932 27.4988 13.018 27.669 12.6253C27.9101 12.1343 28.4916 10.7315 27.7399 10.3527Z" fill="#FFA582"/>
<path d="M15.6287 12.3728C15.8131 12.8357 16.1534 13.481 16.6498 13.6774C17.3731 13.958 17.6993 13.0321 17.6851 12.499C17.6709 12.1203 17.6 11.7556 17.444 11.4049C17.1887 10.8157 16.4229 9.32871 15.572 9.80566C14.7778 10.2265 15.3876 11.8117 15.6287 12.3728Z" fill="#FFA582"/>
<path d="M20.167 12.2185C20.0252 12.6393 19.8833 13.1023 20.0819 13.5231C20.2521 13.8598 20.5783 13.986 20.9186 14.0982C21.0037 14.1263 21.0463 13.986 20.9612 13.958C20.5924 13.8457 20.2521 13.6914 20.1528 13.2706C20.0677 12.9199 20.1953 12.5692 20.3088 12.2465C20.3372 12.1624 20.1953 12.1203 20.167 12.2185Z" fill="#C75C4C"/>
<path d="M21.2161 13.7335C21.3863 13.5932 21.599 13.5371 21.8259 13.5511C21.911 13.5511 21.911 13.4109 21.8259 13.4109C21.5706 13.3968 21.3153 13.467 21.1168 13.6353C21.0317 13.6774 21.1452 13.7896 21.2161 13.7335Z" fill="#C75C4C"/>
<path d="M25.2296 10.3668C24.9885 10.2405 24.6481 10.1984 24.4496 10.1704C24.0099 10.0862 23.5845 10.002 23.159 9.90385C22.8045 9.81968 22.379 9.90385 22.3223 10.2826C22.2372 10.7736 22.6485 11.1243 23.1165 11.2786C23.5278 11.4049 24.0667 11.461 24.4921 11.3768C24.8041 11.3207 25.5842 10.97 25.4707 10.6053C25.4282 10.5071 25.3431 10.4229 25.2296 10.3668Z" fill="#664348"/>
<path d="M19.5142 9.80561C19.2447 9.6513 18.9611 9.67936 18.6775 9.7495C18.1811 9.86172 17.6705 10.002 17.2025 10.1984C17.0323 10.2685 16.848 10.3808 16.848 10.5631C16.8338 10.9138 17.316 11.1383 17.5854 11.2084C18.1244 11.3347 19.0462 11.3487 19.5284 10.998C19.9539 10.6894 19.968 10.0862 19.5142 9.80561Z" fill="#664348"/>
<path d="M27.5416 10.9559C26.8892 11.2926 26.7332 12.1764 26.6056 12.8217C26.5914 12.9058 26.719 12.9479 26.7474 12.8637C26.8609 12.2605 27.0027 11.4048 27.6125 11.0822C27.6834 11.0401 27.6125 10.9138 27.5416 10.9559Z" fill="#C75C4C"/>
<path d="M25.4426 1.20645C25.6695 1.44493 25.7404 1.79563 25.5844 2.09022C25.5135 2.21647 25.4142 2.3287 25.2724 2.41287C25.1448 2.49704 25.0029 2.52509 24.8611 2.5812C24.7335 2.62329 24.6058 2.6794 24.5208 2.79162C24.4215 2.90385 24.3931 3.05816 24.3931 3.19844C24.3789 3.35275 24.3789 3.49303 24.3506 3.63331C24.3222 3.77359 24.2655 3.91387 24.1804 4.04012C24.0102 4.33471 23.7266 4.57319 23.4145 4.69944C23.3295 4.7275 23.372 4.86778 23.4571 4.83972C24.0386 4.60124 24.4924 4.06818 24.5349 3.43691C24.5491 3.26858 24.5208 3.05816 24.6342 2.91788C24.7335 2.79162 24.9037 2.74954 25.0455 2.70746C25.3433 2.60926 25.6128 2.45495 25.7546 2.14633C25.9106 1.80966 25.8255 1.40285 25.5702 1.13631C25.4851 1.05215 25.3859 1.15034 25.4426 1.20645Z" fill="#2B222E"/>
<path d="M22.4357 2.497C22.2655 2.17436 21.9251 1.96393 21.5706 1.90782C21.1451 1.82365 20.7055 1.92185 20.3084 2.09019C19.5993 2.3988 19.0036 2.97395 18.6916 3.67536C18.6065 3.87175 18.5356 4.08217 18.4505 4.29259C18.408 4.39079 18.3654 4.50301 18.3229 4.60121C18.2803 4.69941 18.2236 4.7976 18.1527 4.86774C17.9825 5.00802 17.7414 4.95191 17.5428 4.90983C17.3443 4.86774 17.1599 4.82566 16.9614 4.82566C16.1672 4.86774 15.5148 5.54109 15.2737 6.25652C15.1461 6.66333 15.1461 7.0982 15.3304 7.49099C15.5006 7.86975 15.7984 8.17836 16.1814 8.33267C16.2664 8.37476 16.3374 8.2485 16.2523 8.20642C15.5715 7.91183 15.2028 7.16834 15.3588 6.45291C15.5148 5.73748 16.1388 5.02205 16.9046 4.95191C17.1032 4.93788 17.2876 4.97997 17.4861 5.02205C17.6563 5.06414 17.8548 5.10622 18.025 5.06413C18.1952 5.02205 18.3087 4.8958 18.3938 4.75552C18.493 4.57315 18.564 4.39079 18.6349 4.20842C18.7767 3.82967 18.9327 3.46494 19.1738 3.14229C19.4007 2.86173 19.6702 2.60923 19.9822 2.41283C20.3651 2.17436 20.8189 2.00602 21.2727 2.00602C21.684 2.00602 22.1237 2.18838 22.308 2.56714C22.3506 2.63728 22.464 2.56714 22.4357 2.497Z" fill="#2B222E"/>
<path d="M16.8623 3.88582C15.8696 3.74554 14.8343 4.1243 14.2528 4.93793C14.0968 5.14835 13.9833 5.38683 13.9124 5.63933C13.8841 5.7235 14.0259 5.76558 14.0542 5.68142C14.4088 4.51709 15.6568 3.85777 16.8339 4.0261C16.9049 4.04013 16.9474 3.89985 16.8623 3.88582Z" fill="#2B222E"/>
<path d="M26.4352 7.39279C26.6337 7.6453 26.9316 7.91183 27.2861 7.82766C27.6407 7.75752 27.825 7.37876 27.8959 7.05612C27.9669 6.73347 27.9669 6.38277 28.1229 6.07415C28.1938 5.93387 28.293 5.79359 28.449 5.72345C28.6051 5.63929 28.7894 5.62526 28.9312 5.52706C29.2716 5.31664 29.2007 4.8958 29.1014 4.57315C29.0731 4.48898 28.9312 4.51704 28.9596 4.61524C29.0447 4.88177 29.1298 5.26053 28.832 5.41484C28.6901 5.499 28.52 5.51303 28.3781 5.5972C28.2505 5.66734 28.1512 5.76554 28.0661 5.87776C27.8959 6.11624 27.8534 6.41083 27.7967 6.70542C27.7541 7.01403 27.6974 7.36474 27.4421 7.57516C27.1017 7.86975 26.733 7.56113 26.5061 7.2946C26.4777 7.21043 26.3785 7.32265 26.4352 7.39279Z" fill="#2B222E"/>
<path d="M26.2933 3.56313C26.506 3.57716 26.7188 3.68938 26.9031 3.78758C27.0875 3.88578 27.2577 3.98397 27.4137 4.11023C27.6973 4.3487 27.9384 4.74149 27.7541 5.10622C27.7115 5.19039 27.8392 5.26053 27.8817 5.17636C28.0803 4.76955 27.8817 4.32065 27.5555 4.04009C27.3853 3.88578 27.1726 3.77355 26.9741 3.66133C26.7613 3.5491 26.5344 3.42285 26.2933 3.42285C26.2082 3.42285 26.2082 3.56313 26.2933 3.56313Z" fill="#2B222E"/>
<path d="M25.5985 15.1223C25.244 15.8237 24.7476 16.469 24.1661 17.0161C23.6698 17.479 23.0174 17.6754 22.3508 17.7595C21.1595 17.8998 19.7129 17.8577 18.8195 16.9599C18.7486 16.8898 18.6493 16.988 18.7202 17.0581C19.6562 18.012 21.1879 18.0541 22.4359 17.8858C23.0458 17.8016 23.6556 17.6193 24.1378 17.2265C24.7902 16.6794 25.3149 15.9499 25.6978 15.2064C25.7545 15.1082 25.6411 15.0381 25.5985 15.1223Z" fill="#C75C4C"/>
<path d="M26.9317 17.6473C26.9175 17.1002 26.7047 15.978 26.3786 15.6834C26.1658 15.501 26.18 15.5712 26.1091 15.7255C25.4993 16.9459 23.9109 18.4329 22.5777 18.8397C21.3864 19.2044 19.798 18.7696 19.0747 17.7595C18.9755 17.6193 18.6493 16.8617 18.6493 16.8617C18.5216 16.8337 17.9402 18.8257 17.926 18.994C17.8693 20.2285 18.7344 21.3648 19.6704 22.1082C20.6348 22.8798 21.0744 21.6453 21.2446 20.8597C21.3013 20.5932 21.429 20.3407 21.5141 20.0742C21.5424 20.004 21.5992 19.8778 21.6559 19.7515C21.6984 19.6533 21.8403 19.6674 21.8544 19.7656C22.0388 20.6213 22.2515 21.4489 22.7479 22.2205C22.7905 22.2906 23.0883 22.487 23.1592 22.487C23.2443 22.487 23.3152 22.4449 23.4003 22.4169C24.7192 21.8277 25.7829 20.8036 26.3927 19.5131C26.5629 19.1483 26.7047 18.7696 26.804 18.3768C26.8466 18.2084 26.9033 18.0261 26.9175 17.8437C26.9317 17.8016 26.9317 17.7315 26.9317 17.6473Z" fill="#F7E2D2"/>
<path d="M22.8756 14.8558C22.4926 14.6313 21.9963 14.6453 21.5708 14.6874C21.0886 14.7435 20.6064 14.7856 20.11 14.8137C19.8689 14.8277 19.5853 14.8698 19.4576 15.0942C19.3158 15.3187 19.4435 15.501 19.6846 15.5712C20.2093 15.7255 20.9893 15.487 21.5424 15.473C21.9253 15.473 22.5777 15.6554 22.9181 15.501C23.301 15.3608 23.1592 15.0241 22.8756 14.8558Z" fill="white"/>
<path d="M24.6909 12.3587C24.3647 12.2465 24.0244 12.2185 23.6982 12.2746C23.4996 12.3026 23.2869 12.3307 23.1025 12.4149C23.0316 12.4429 22.9182 12.485 22.8898 12.5692C22.8473 12.6393 22.8614 12.7375 22.9607 12.7375C23.528 12.7094 23.996 12.5832 24.5917 12.6253C24.7618 12.6253 24.8611 12.4149 24.6909 12.3587Z" fill="#210A08"/>
<path d="M19.3301 12.4008C18.9188 12.1764 18.3515 12.0361 17.8268 12.2605C17.6141 12.3447 17.6424 12.5131 17.8693 12.499C18.3374 12.4569 18.7912 12.499 19.245 12.6393C19.4577 12.6954 19.5287 12.5131 19.3301 12.4008Z" fill="#210A08"/>
<path d="M23.3717 11.5592C23.1306 11.7696 22.9604 12.0221 22.8612 12.3167C22.8328 12.4009 22.9746 12.4429 23.003 12.3588C23.0881 12.0782 23.2583 11.8538 23.471 11.6574C23.5419 11.6013 23.4284 11.5031 23.3717 11.5592Z" fill="#C75C4C"/>
<path d="M17.7415 12.1764C17.8408 11.994 17.9684 11.8397 18.1244 11.7135C18.1953 11.6573 18.0961 11.5592 18.0252 11.6153C17.855 11.7415 17.7131 11.9099 17.6139 12.1062C17.5855 12.1904 17.699 12.2606 17.7415 12.1764Z" fill="#C75C4C"/>
<path d="M21.7553 9.73552C21.5993 10.2405 21.7128 10.7455 22.0532 11.1383C22.1099 11.2085 22.2092 11.1103 22.1524 11.0401C21.8404 10.6754 21.7553 10.2125 21.8972 9.76357C21.9255 9.67941 21.7837 9.63732 21.7553 9.73552Z" fill="#C75C4C"/>
<path d="M20.5636 16.1323C20.9607 15.978 21.372 15.978 21.7691 16.1323C21.8542 16.1603 21.8968 16.0341 21.8117 15.992C21.3862 15.8377 20.9465 15.8377 20.5353 15.992C20.4502 16.0201 20.4785 16.1603 20.5636 16.1323Z" fill="#C75C4C"/>
<path d="M19.6987 17.479C19.6703 17.479 19.6419 17.465 19.6278 17.465C19.571 17.465 19.5143 17.5211 19.5568 17.5772C19.6845 17.8016 19.8547 18.0822 20.0816 18.2225C20.2376 18.3207 20.4787 18.3768 20.6347 18.2505C20.9892 17.9559 20.039 17.5491 19.6987 17.479Z" fill="#E0EEFF"/>
<path d="M18.6917 12.4008C18.564 12.3587 18.2804 12.3447 18.2095 12.3307C17.9542 12.3026 17.5855 12.2605 17.5146 12.5832C17.472 12.8076 17.628 13.004 17.6989 13.2004C17.7415 13.3126 17.7982 13.4249 17.9117 13.481C18.096 13.5792 18.2946 13.4529 18.3088 13.2706C18.3229 13.1864 18.2804 13.1022 18.252 13.0181C18.1669 12.7656 18.1669 12.5551 18.5073 12.5271C18.564 12.5271 18.6775 12.5411 18.7342 12.499C18.791 12.471 18.7626 12.4289 18.6917 12.4008Z" fill="#E0EEFF"/>
<path d="M14.3235 55.6212C13.8697 55.9719 13.6003 56.4629 13.2599 56.9118C12.8628 57.4309 12.409 57.8938 11.9126 58.3287C11.8417 58.3848 11.9409 58.483 12.0119 58.4269C12.494 58.006 12.9337 57.5571 13.3308 57.0521C13.6853 56.6032 13.969 56.0842 14.4228 55.7194C14.4937 55.6633 14.3945 55.5651 14.3235 55.6212Z" fill="#331C1C"/>
<path d="M25.3009 12.3447C25.1023 12.1484 24.7052 12.2325 24.4783 12.3167C24.2656 12.3868 24.0812 12.5131 23.982 12.7095C23.6841 13.2566 24.4925 13.0742 24.7478 12.99C25.0031 12.9059 25.6554 12.6814 25.3009 12.3447Z" fill="#E0EEFF"/>
<path d="M30.6617 19.6814C30.3922 19.5692 29.9951 19.8497 29.8108 20.0041C29.4988 20.2425 29.286 20.6493 29.0875 20.958C28.6762 21.6032 28.1515 22.7395 28.5344 23.2165C28.5911 23.2866 28.7188 23.2305 28.7471 23.1604C29.0875 23.1043 29.3002 22.8377 29.4988 22.5852C29.7824 22.2345 30.0377 21.8417 30.2788 21.4489C30.4632 21.1544 31.2999 19.9339 30.6617 19.6814Z" fill="#111424"/>
<path d="M9.18994 58.2165C9.91323 58.4129 10.6365 58.5672 11.374 58.6794C11.4591 58.6934 11.5016 58.5532 11.4165 58.5391C10.6791 58.4409 9.94159 58.2866 9.23248 58.0762C9.14739 58.0481 9.10484 58.1884 9.18994 58.2165Z" fill="#331C1C"/>
<path d="M14.1111 57.9359C13.0616 59.9559 12.0121 61.976 10.9627 63.996C10.9201 64.0802 11.0478 64.1503 11.0903 64.0661C12.1398 62.0461 13.1893 60.0261 14.2387 58.006C14.2813 57.9219 14.1537 57.8517 14.1111 57.9359Z" fill="#331C1C"/>
<path d="M36.2211 21.7435C35.7531 20.8457 31.5978 17.0722 30.7185 16.2585C29.8392 15.4309 28.9741 14.5892 27.9529 13.9018C27.1304 13.3547 25.3151 12.2465 24.8754 12.499C23.9394 13.0321 22.6205 14.2806 22.5779 15.0381C22.5212 15.3327 23.5707 15.1363 23.5281 15.4449C23.5281 15.487 23.5281 15.5291 23.5423 15.5712C23.3721 15.7816 23.2445 16.0201 23.1736 16.2726C23.0034 16.8898 23.3296 17.4649 23.755 17.8998C23.9678 18.1243 24.2089 18.3207 24.4499 18.517C24.7052 18.6994 24.9038 18.8116 25.1023 19.0501C25.8256 19.9199 27.2013 19.8918 28.194 19.3447C28.5486 19.1483 31.7112 23.7776 32.1509 23.6794C33.0727 23.4689 36.2779 21.8417 36.2211 21.7435Z" fill="#FFA582"/>
<path d="M27.1445 13.4249C26.6197 12.962 25.7546 12.457 25.0171 12.4289C24.5917 12.4149 24.3506 12.7936 24.0811 13.0742C23.6982 13.481 23.3153 13.8878 22.9324 14.3087C22.7622 14.477 22.4927 14.7155 22.5069 14.982C22.5211 15.2485 22.8331 15.3608 23.06 15.3748C23.4004 15.3888 23.7124 15.2065 23.9535 14.982C24.0953 14.8558 24.1946 14.7015 24.3222 14.5471C24.4357 14.4209 24.5633 14.3087 24.7335 14.2806C24.9746 14.2385 25.2866 14.3648 25.244 14.6594C25.2299 14.7435 25.3717 14.7435 25.3859 14.6594C25.4426 14.1824 24.8186 14.0141 24.464 14.2105C24.2087 14.3508 24.0811 14.6313 23.8826 14.8277C23.6982 14.996 23.4855 15.1503 23.2302 15.1924C23.1167 15.2205 22.8614 15.2205 22.7763 15.1363C22.5353 14.9259 22.7054 14.7435 22.8189 14.5892C23.0884 14.2806 23.3862 13.986 23.6556 13.6914C23.9535 13.3688 24.2371 13.0181 24.5633 12.7235C24.9462 12.3728 25.5844 12.6674 25.9957 12.8497C26.3644 13.0181 26.719 13.2145 27.0168 13.495C27.1161 13.5792 27.2154 13.481 27.1445 13.4249Z" fill="#C75C4C"/>
<path d="M24.3221 15.3748C24.0385 15.3748 23.7548 15.2906 23.4712 15.2906C23.1166 15.3046 22.7195 15.4309 22.4926 15.7114C22.3082 15.9499 22.3224 16.2164 22.5777 16.3988C22.9464 16.6513 23.5421 16.4689 23.9675 16.5251C23.9817 16.4689 23.9959 16.4269 24.0101 16.3707C23.7832 16.3287 23.5563 16.3287 23.3152 16.3427C22.989 16.3707 22.294 16.3287 22.6202 15.7956C22.9606 15.2625 23.7548 15.487 24.2512 15.515C24.2937 15.515 24.3363 15.515 24.3788 15.515C24.4497 15.4449 24.5206 15.3748 24.5916 15.3186C24.4923 15.3607 24.393 15.3748 24.3221 15.3748Z" fill="#C45854"/>
<path d="M27.5129 14.1964C26.7613 14.1543 25.6409 14.1263 25.102 14.7856C25.0594 14.8417 25.0311 14.9118 24.9885 14.968C24.8325 15.1924 24.5631 15.2485 24.3929 15.4449C23.939 15.978 23.783 16.8477 23.6554 17.507C23.6412 17.5912 23.7689 17.6333 23.7972 17.5491C23.8681 17.1984 23.939 16.8617 24.0525 16.5251C24.166 16.1744 24.2936 15.7255 24.5772 15.473C24.7191 15.3467 24.9318 15.3046 25.0452 15.1503C25.102 15.0802 25.1162 15.01 25.1729 14.9399C25.6409 14.2806 26.8038 14.3367 27.4988 14.3648C27.598 14.3367 27.598 14.1964 27.5129 14.1964Z" fill="#C75C4C"/>
<path d="M23.7124 17.6193C23.6841 18.1804 24.2514 18.4329 24.7194 18.503C24.8045 18.5171 24.847 18.3768 24.7619 18.3628C24.3506 18.2926 23.8401 18.1103 23.8543 17.6193C23.8543 17.5351 23.7124 17.5351 23.7124 17.6193Z" fill="#C75C4C"/>
<path d="M27.1304 15.3187C26.6482 15.4169 26.166 15.5291 25.7689 15.8377C25.4143 16.1183 25.1732 16.497 24.9889 16.8898C24.7336 17.4229 24.1379 18.7275 25.1165 18.9099C25.2016 18.9239 25.2441 18.7976 25.1591 18.7696C24.223 18.5872 25.0314 17.0441 25.3151 16.5812C25.7547 15.8658 26.3645 15.5992 27.1729 15.4449C27.2438 15.4449 27.2155 15.3046 27.1304 15.3187Z" fill="#C75C4C"/>
<path d="M27.5274 16.2445C26.9743 16.4129 26.6623 16.8758 26.4354 17.3668C26.1801 17.9419 25.9816 18.5311 25.9107 19.1624C25.8965 19.2465 26.0383 19.2465 26.0525 19.1624C26.1234 18.6013 26.2794 18.0682 26.5063 17.5492C26.719 17.0441 26.9885 16.5391 27.5558 16.3708C27.6551 16.3568 27.6125 16.2165 27.5274 16.2445Z" fill="#C75C4C"/>
<path d="M14.8626 20.8878C13.4444 18.8818 8.23956 20.5652 8.12611 20.6634C7.13335 21.5611 6.67952 22.3467 6.05551 23.497C5.31804 24.8437 4.77912 26.0782 4.05582 27.4108C2.63761 30.0341 1.43212 32.1664 0.411009 34.972C-0.354828 37.1042 -0.170459 40.0782 2.09869 41.4389C4.19765 42.6874 6.04133 42.1403 7.8141 40.7515C7.87083 40.7094 7.88501 40.6674 7.89919 40.6112C8.40975 40.1343 8.83521 39.503 9.21813 39.0261C10.0832 37.9459 10.8633 36.8237 11.6007 35.6593C13.1182 33.2746 14.4655 30.9319 15.0186 28.1543C15.2739 26.8497 15.4725 25.5171 15.5576 24.1984C15.6427 23.0621 15.5434 21.8557 14.8626 20.8878Z" fill="#4E5896"/>
<path d="M27.6835 18.1103C27.6552 18.0401 27.6552 18.0261 27.6694 18.0541C27.6694 18.0682 27.6694 18.0682 27.6835 18.0682C27.6977 18.0682 27.7119 18.0962 27.7261 18.0962C27.8112 18.1243 27.8963 18.1243 27.9814 18.1523C28.3926 18.2926 28.265 18.7415 28.1374 19.0501C28.0948 19.1343 28.2225 19.2044 28.265 19.1203C28.3785 18.8678 28.4919 18.5872 28.3785 18.3207C28.3359 18.2225 28.265 18.1523 28.1799 18.0962C28.1515 18.0822 27.8112 17.97 27.8254 17.998C27.8254 17.97 27.797 17.9559 27.7828 17.9559C27.7403 17.9419 27.6835 17.97 27.6552 17.998C27.5275 18.0261 27.6126 18.1383 27.6835 18.1103Z" fill="#C75C4C"/>
<path d="M27.953 17.4229C27.8112 17.7596 27.641 18.0682 27.4424 18.3628C27.3857 18.4329 27.5133 18.5031 27.5701 18.4329C27.7828 18.1243 27.953 17.8016 28.0948 17.4509C28.1374 17.3668 27.9955 17.3387 27.953 17.4229Z" fill="#C75C4C"/>
<path d="M17.9262 14.3647C17.912 14.2946 17.912 14.2385 17.912 14.1683C17.8695 13.481 18.0964 12.8076 18.3659 12.1764C18.607 11.6293 18.9899 11.1102 19.0324 10.493C19.0466 10.1984 18.5786 9.9459 18.3517 10.1703C18.5928 9.72145 19.231 8.78157 18.7062 8.41684C18.2099 8.08017 17.6 8.8938 17.3306 9.20241C16.9051 9.67937 16.5789 10.2124 16.3095 10.7736C16.4796 10.1844 16.6924 9.5952 16.976 9.03408C17.1746 8.64129 17.4015 8.2485 17.6426 7.88378C17.8128 7.63127 18.0255 7.36474 18.0964 7.07015C18.139 6.87376 18.0964 6.69139 17.912 6.59319C17.6993 6.495 17.3873 6.69139 17.2029 6.80362C16.976 6.9439 16.7775 7.11223 16.5931 7.30862C16.2385 7.70141 15.9833 8.16434 15.7564 8.62726C15.2883 9.58117 14.7778 10.5772 14.5509 11.6012C14.4232 11.6433 14.4941 11.6152 14.3665 11.6714C14.4516 10.9559 14.636 10.2685 14.9054 9.58117C15.1182 9.06213 16.0258 7.85572 15.6571 7.2946C15.5862 7.18237 15.4443 7.12626 15.3025 7.15432C14.5225 7.33668 13.941 8.29059 13.6574 8.94991C12.9057 10.6473 12.4803 12.9058 13.1468 14.6734C13.4872 15.5571 13.8701 16.483 13.6148 17.4369C13.3737 18.3347 12.8065 19.1202 12.2959 19.9058C11.8704 20.5511 11.4592 21.2104 11.0337 21.8557C11.9555 22.1082 12.8348 22.6413 13.5865 23.1463C14.1821 23.5391 14.7636 23.988 15.2883 24.4649C16.2385 22.6273 17.2738 20.7896 18.0113 18.8677C18.3517 17.9699 18.607 17.0301 18.4226 16.0762C18.2808 15.487 18.0113 14.9539 17.9262 14.3647Z" fill="#FFA582"/>
<path d="M18.1955 10.2545C17.5148 11.0682 17.2453 12.0922 17.1177 13.1163C17.1035 13.2004 17.2453 13.2004 17.2595 13.1163C17.3872 12.1203 17.6424 11.1383 18.2948 10.3527C18.3515 10.2826 18.2523 10.1844 18.1955 10.2545Z" fill="#C75C4C"/>
<path d="M18.72 11.2365C18.2662 12.0361 17.7981 12.8778 17.8123 13.8177C17.8265 14.2525 17.9683 14.6313 18.096 15.0381C18.2662 15.5571 18.3654 16.1042 18.3938 16.6513C18.3938 16.7355 18.5356 16.7355 18.5356 16.6513C18.5214 16.2305 18.4647 15.8237 18.3654 15.4309C18.252 15.0101 18.0676 14.6173 17.9967 14.1824C17.8123 13.1443 18.3512 12.1764 18.8476 11.2926C18.8902 11.2365 18.7625 11.1664 18.72 11.2365Z" fill="#C75C4C"/>
<path d="M17.4155 8.97799C16.5503 9.86175 16.0114 10.998 15.898 12.2325C15.8838 12.3167 16.0256 12.3167 16.0398 12.2325C16.1532 11.0401 16.678 9.94592 17.5147 9.07618C17.5856 9.00604 17.4864 8.90785 17.4155 8.97799Z" fill="#C75C4C"/>
<path d="M16.9192 8.93588C16.6781 9.3988 16.4937 9.87576 16.3519 10.3808C16.3235 10.4649 16.4653 10.507 16.4937 10.4229C16.6355 9.93187 16.8057 9.46894 17.0468 9.02005C17.0893 8.93588 16.9617 8.86574 16.9192 8.93588Z" fill="#C75C4C"/>
<path d="M30.6047 24.7315C30.5905 24.7315 30.5763 24.7175 30.5621 24.7175C30.5054 24.6894 30.4487 24.7034 30.3919 24.7455C29.8814 25.1944 29.0588 26.1904 29.3283 26.7235C29.2574 26.7936 30.4345 26.3167 30.6898 26.0081C31.0159 25.6433 31.1578 24.984 30.6047 24.7315Z" fill="#111424"/>
<path d="M44.9996 34.1022C45.028 31.9279 43.7374 29.7395 42.8156 28.4068C40.7024 25.3627 38.9013 22.3467 35.9656 19.99C35.767 19.8216 35.2848 19.8637 35.3416 20.0601C35.3274 20.0882 35.3274 20.1022 35.3274 20.1303C35.2423 21.2385 35.2281 22.3748 35.0154 23.4689C34.831 24.4088 34.3346 25.2926 34.3063 26.2605C34.2354 28.1683 35.6536 29.8657 36.7172 31.3527C37.8944 32.98 39.1566 34.5792 40.6315 35.982C41.0428 36.3748 41.6101 36.992 42.2625 36.8657C42.5177 36.8237 42.6879 36.6834 42.8014 36.515C43.8934 35.5331 44.9854 35.6313 44.9996 34.1022Z" fill="#4E5896"/>
<path d="M38.1355 24.0301C37.4689 22.7535 33.9234 18.7415 32.803 17.7736C32.5477 17.5491 32.2215 17.2966 32.0939 17.5211C32.1081 17.479 31.2997 19.4148 30.7608 20.2425C30.2502 21.0281 29.6546 21.7435 28.9738 22.4028L28.9596 22.4168C28.7895 22.5852 28.5909 22.8237 28.4916 22.8798C28.2222 23.0201 28.7611 23.5672 28.9313 23.7916C29.0873 23.988 29.2291 24.1844 29.3709 24.3808C29.6687 24.7736 29.9524 25.1663 30.236 25.5732C30.5197 25.98 30.7891 26.3868 31.0586 26.7936C31.1862 27.004 31.3281 27.2004 31.4557 27.4108C31.5266 27.509 31.5833 27.6213 31.6543 27.7195C31.6826 27.7615 31.867 27.986 31.8528 28.0281C31.7961 28.2385 31.9095 28.5331 32.2074 28.5752C33.4128 28.7295 34.6467 27.8738 35.5402 27.1864C36.5046 26.4569 37.2988 25.5732 37.9511 24.5772C38.1213 24.479 38.249 24.2686 38.1355 24.0301Z" fill="#F7E2D2"/>
<path d="M33.4698 19.0221C33.0869 20.7616 32.0799 22.3046 30.6475 23.3848C30.5766 23.4409 30.6475 23.5672 30.7184 23.5111C32.1792 22.4028 33.2145 20.8457 33.6116 19.0642C33.6258 18.966 33.4982 18.9239 33.4698 19.0221Z" fill="#331C1C"/>
<path d="M44.1063 30.9599C42.4612 28.3928 35.909 20.3547 34.6185 19.2185C34.5759 19.1764 34.5334 19.1343 34.4908 19.1062C34.3774 19.0501 34.2497 19.1203 34.2355 19.2325C34.1221 22.2345 31.8387 24.7034 29.4561 26.4149C29.286 26.5411 29.286 26.7375 29.3852 26.8778C29.3852 26.9058 29.3994 26.9199 29.4136 26.9479C30.6333 29.6413 32.1508 32.2084 33.9519 34.5932C35.5687 36.7255 37.9087 39.966 41.199 39.1664C42.8583 38.7595 44.3049 37.469 44.7445 35.9399C45.2267 34.2425 45.0423 32.4189 44.1063 30.9599Z" fill="#4E5896"/>
<path d="M17.7416 23.5672C17.7558 23.5251 17.7558 23.483 17.7416 23.4409C17.1885 22.2766 16.4085 21.2105 15.4866 20.2986C15.0186 19.8357 14.4939 19.4149 13.9408 19.0361C13.7706 18.9239 13.3168 18.5171 13.104 18.5311C12.8204 18.5451 11.6291 20.1864 11.2178 20.7055C10.7214 21.3508 10.2676 22.0381 9.84215 22.7255C9.78542 22.7255 9.72869 22.7676 9.71451 22.8377C9.58687 23.3007 9.82796 23.5952 10.2251 23.8477C11.0902 24.4089 11.9837 24.8578 12.8062 25.5031C13.8132 26.2886 14.9761 27.2285 16.3092 26.5692C16.3801 26.5411 16.3943 26.485 16.3801 26.4289C17.0183 25.6153 17.5005 24.7035 17.7842 23.7215C17.8125 23.6654 17.7842 23.6093 17.7416 23.5672Z" fill="#F7E2D2"/>
<path d="M17.7698 27.1162C16.9472 24.1283 14.0399 21.4349 11.7424 20.5371C11.5722 20.4669 11.4304 20.509 11.3453 20.6072C11.3311 20.6213 11.3169 20.6353 11.2885 20.6493C9.50159 22.501 8.18265 23.8617 6.5517 25.8537C5.09094 27.6493 3.54508 29.473 2.55233 31.5631C1.71558 33.3166 1.3043 35.2665 1.74395 37.1744C2.21196 39.2084 3.63017 40.4289 5.38876 41.509C5.40295 41.5231 5.43131 41.5371 5.44549 41.5371C5.50222 41.6493 5.64404 41.9299 5.80005 41.8878C9.44486 40.8217 12.7068 35.3647 14.1533 33.4008C15.6425 31.3667 16.7912 29.7255 17.7272 27.3968C17.7414 27.3407 17.7556 27.2986 17.7414 27.2565C17.784 27.2285 17.784 27.1724 17.7698 27.1162Z" fill="#4E5896"/>
<path d="M29.513 27.2285C30.5341 29.4169 31.7396 31.5211 33.1011 33.5131C33.7535 34.467 34.4342 35.3928 35.1575 36.2906C35.7957 37.0902 36.4764 37.9038 37.4834 38.2686C37.5685 38.2966 37.611 38.1704 37.5259 38.1283C36.4764 37.7495 35.7673 36.8377 35.1008 35.996C34.3633 35.0702 33.6684 34.1163 33.0018 33.1343C31.7254 31.2265 30.605 29.2345 29.6265 27.1724C29.5981 27.0742 29.4705 27.1443 29.513 27.2285Z" fill="#331C1C"/>
<path d="M35.1717 19.8918C36.6041 21.2806 37.7103 22.964 39.0435 24.4369C40.3482 25.8678 41.7239 27.2425 42.7166 28.9119C42.7592 28.996 42.8868 28.9259 42.8443 28.8417C41.8799 27.2004 40.5184 25.8257 39.2278 24.4369C37.8522 22.9359 36.7318 21.2245 35.271 19.8077C35.2143 19.7375 35.115 19.8357 35.1717 19.8918Z" fill="#331C1C"/>
<path d="M17.8978 21.8838C18.224 22.7676 19.1033 23.1604 19.9684 23.3708C21.0179 23.6233 22.1099 23.6934 23.1735 23.469C23.2586 23.455 23.2303 23.3147 23.131 23.3287C22.1808 23.5391 21.2022 23.497 20.252 23.3006C19.3585 23.1042 18.3658 22.7676 18.0254 21.8558C18.0112 21.7716 17.8694 21.7996 17.8978 21.8838Z" fill="#111424"/>
<path d="M21.7695 19.0922C21.727 19.2605 21.7554 19.4149 21.8405 19.5692C21.883 19.6533 22.0106 19.5832 21.9681 19.499C21.9114 19.3868 21.883 19.2605 21.9114 19.1343C21.9256 19.0361 21.7837 18.994 21.7695 19.0922Z" fill="#111424"/>
<path d="M11.0616 20.5932C9.24626 22.5852 7.45931 24.6052 5.7149 26.6533C4.08395 28.5471 2.28282 30.3708 1.47443 32.7696C1.44607 32.8537 1.58789 32.8958 1.61625 32.8117C2.43882 30.3568 4.32505 28.477 5.99854 26.5411C7.7004 24.5772 9.43063 22.6273 11.175 20.6914C11.2318 20.6353 11.1325 20.5231 11.0616 20.5932Z" fill="#111424"/>
<path d="M17.1176 25.6994C17.5006 26.0361 17.7417 26.5692 17.7417 27.0742C17.7417 27.3407 17.614 27.5792 17.5148 27.8317C17.3871 28.1263 17.2595 28.4068 17.1318 28.7014C16.6071 29.8377 16.0114 30.9459 15.3449 32.012C14.0118 34.1724 12.4234 36.1784 10.6222 37.9599C10.5513 38.0301 10.6648 38.1283 10.7215 38.0581C13.6997 35.1122 16.1249 31.5632 17.7133 27.7054C17.8693 27.3407 17.9119 27.0461 17.8268 26.6533C17.7275 26.2605 17.5289 25.8818 17.2169 25.6012C17.146 25.5451 17.0467 25.6433 17.1176 25.6994Z" fill="#111424"/>
<path d="M27.2153 53.503C29.1583 54.2746 31.2998 54.4008 33.3137 53.8818C33.3988 53.8537 33.3704 53.7275 33.2711 53.7415C31.2714 54.2606 29.1583 54.1203 27.2579 53.3628C27.1728 53.3347 27.1302 53.475 27.2153 53.503Z" fill="#331C1C"/>
</svg>
