<svg width="68" height="83" viewBox="0 0 68 83" fill="none" xmlns="http://www.w3.org/2000/svg">
<path d="M45.3099 33.4847C45.1869 32.1643 44.1727 30.8753 43.1893 30.1207C41.5911 28.8946 39.6856 28.1715 38.7636 26.2222C38.0567 24.776 37.6572 23.3298 36.182 22.5123C34.9526 21.7892 33.5081 21.7264 32.1558 22.0408C31.9407 22.1036 31.6948 22.0722 31.5104 21.9779C30.0045 21.2862 28.0683 21.6006 26.6852 22.418C25.9476 22.8582 25.3637 23.5498 24.6876 24.0529C23.4889 24.9961 22.1059 25.4362 20.8151 26.1908C19.7394 26.851 18.6945 27.7313 18.172 28.926C17.8954 29.5862 17.6803 30.1207 17.1271 30.5923C16.789 30.8753 16.3894 31.1582 16.1436 31.5355C15.3138 32.7931 16.1743 34.8681 17.7725 34.5851C18.633 34.4279 19.5243 34.4908 20.3234 34.8366C20.6614 34.9938 20.9688 35.0881 21.3683 35.0881C21.4298 35.0881 21.522 35.0881 21.5834 35.0881C22.5055 35.2453 23.366 35.5597 24.1958 36.0313C24.288 36.0942 24.3802 36.0313 24.411 35.937C24.749 36.22 25.0564 36.5344 25.333 36.9431C25.6096 37.3204 25.9169 37.6976 26.3472 37.8548C27.054 38.1063 27.9146 38.1378 28.6522 38.2007C29.6971 38.3264 30.7421 38.4522 31.787 38.4522C33.754 38.4522 35.721 39.7726 37.565 38.4207C38.3641 37.8234 39.1017 37.3518 40.1773 37.3203C41.1608 37.2889 42.175 37.7291 43.1278 37.4147C44.0498 37.1003 44.8181 35.6855 45.1562 34.8052C45.3099 34.3965 45.3406 33.9249 45.3099 33.4847Z" fill="#964939"/>
<path d="M53.7926 58.8562C53.516 58.1016 52.9936 57.4728 52.256 57.1899C51.3032 56.7812 50.1353 57.0956 49.1518 57.2527C48.5986 57.3156 47.3693 57.2527 46.9698 57.7243C46.7854 57.9444 46.7854 58.1959 46.8468 58.416C46.8161 58.4789 46.7854 58.5732 46.8468 58.6361C48.1991 60.0823 51.3954 62.3145 53.516 61.9687C55.3908 61.6543 54.3151 60.3338 53.7926 58.8562Z" fill="#F59E73"/>
<path d="M42.144 43.4511C42.1133 43.4511 42.1133 43.4511 42.0825 43.4196C42.1133 43.3253 42.0825 43.1681 41.9289 43.1681C40.8532 43.231 39.7775 43.231 38.7018 43.1681C37.7184 43.1052 35.9358 43.2624 35.3211 42.3193C34.8294 41.5333 34.7679 40.2443 34.645 39.3639C34.4913 38.295 34.3991 37.1946 34.3684 36.1257C34.4606 36.0942 34.5221 35.9999 34.4299 35.9056C34.3991 35.8742 34.3684 35.8427 34.3377 35.8113C34.3377 35.8113 34.3377 35.8113 34.3377 35.7798C34.3377 35.6855 34.2762 35.6226 34.184 35.6226C33.3542 34.648 32.2478 33.9563 30.9569 33.6734C29.912 33.4533 28.2216 33.3276 27.5148 34.3022C27.4533 34.3651 27.484 34.4594 27.5455 34.4908C27.5148 34.5223 27.484 34.5537 27.5148 34.6166C27.6377 35.717 28.4368 40.5901 27.2996 41.0617C26.3776 41.439 25.0561 41.2818 24.0726 41.3132L20.7226 41.4704C20.5997 41.4704 20.5689 41.5647 20.5689 41.6276C20.5382 41.659 20.5382 41.7219 20.5689 41.7848C21.0607 42.6651 22.29 42.948 23.1198 43.4511C24.1341 44.0799 25.0561 44.8659 26.0088 45.5575C28.0987 47.0666 30.4652 47.8212 33.0161 48.1041C34.3377 48.2613 35.6592 48.1984 36.9808 48.0098C38.3945 47.8212 39.9927 47.664 41.2835 47.0666C42.6972 46.4693 43.9266 44.3943 42.144 43.4511Z" fill="#F59E73"/>
<path d="M46.6927 82.436C46.6927 79.5436 46.8771 76.2739 44.9716 71.1807C45.0023 71.0864 44.234 70.9606 44.0803 70.992C40.7611 71.3064 37.3189 71.8723 33.9689 71.6837C32.3401 71.5894 30.7726 71.4951 29.1437 71.5894C27.4534 71.6837 25.7938 71.4636 24.1341 71.2121C24.0727 71.1492 23.9497 71.1178 23.8575 71.1807C23.7346 71.1807 22.1672 71.2436 22.9355 71.4322C22.1672 75.2678 21.5832 78.789 21.2759 82.6247C21.2452 82.8447 42.4514 83.3163 46.5698 82.6247C46.662 82.6247 46.6927 82.5303 46.6927 82.436Z" fill="#59242E"/>
<path d="M49.8585 45.7774C48.7828 44.8342 47.615 43.6395 46.2627 43.105C46.2012 43.0736 42.6976 43.8596 42.1136 45.2429C41.4068 46.9407 42.4824 48.6698 42.7898 50.3047C43.1586 52.3482 42.4824 53.7316 43.0664 55.7123C43.2815 56.4354 43.6196 57.1271 44.1113 57.693C44.726 58.3846 45.5558 58.8562 45.9861 59.7365C46.0783 59.9252 46.3856 59.768 46.2627 59.5793C46.2627 59.5793 46.2627 59.5793 46.2627 59.5479C46.2934 59.5793 46.3241 59.6108 46.3856 59.6108C48.414 59.8308 50.1966 58.7305 51.5796 57.3157C52.3787 56.4668 53.147 55.5865 53.8232 54.6433C54.1613 54.1717 54.4686 53.6687 54.7759 53.1657C55.0525 52.6626 55.6979 52.1596 55.5443 51.5623C55.2062 50.2104 51.0879 46.8463 49.8585 45.7774Z" fill="#FAE7DC"/>
<path d="M36.7661 31.7555C36.7661 30.2464 36.8275 28.6116 36.428 27.1654C35.7826 24.9017 33.7849 23.5184 31.5721 23.4241C28.9597 22.3551 25.9171 24.0214 24.6877 26.568C24.1653 27.637 24.3189 28.6116 25.0258 29.5548C25.8249 30.6237 26.1322 31.4097 26.3166 32.7302C26.3474 32.8874 26.3781 33.0446 26.4088 33.2018C26.2551 33.2646 26.1629 33.3904 26.2244 33.579C27.1464 35.9056 28.4065 37.3832 30.9574 37.5404C32.7707 37.6347 35.6597 37.3518 36.4895 35.3396C36.9197 34.2393 36.7661 32.8874 36.7661 31.7555Z" fill="#F59E73"/>
<path d="M14.6991 52.9458C13.439 51.3424 11.0725 49.7704 10.4578 51.814C10.3964 52.034 8.46013 58.0075 9.93535 60.9314C10.3964 61.8117 11.8408 63.5409 14.1766 63.5409C15.1293 63.5409 15.6211 57.4731 15.6826 56.7814C15.744 55.5238 15.4981 53.9833 14.6991 52.9458Z" fill="#F59E73"/>
<path d="M29.9431 25.2789C29.2669 25.1531 28.5601 25.4046 28.0068 25.8762C27.6688 26.1906 26.839 27.6683 27.8532 27.5425C28.0683 27.5111 28.2835 27.3539 28.4679 27.2595C28.8674 27.0709 29.2362 26.9766 29.6665 26.9766C30.066 26.9451 30.6499 27.0709 30.9573 26.6308C31.449 25.9076 30.4041 25.3732 29.9431 25.2789Z" fill="#964939"/>
<path d="M33.7847 26.725C34.0613 27.1338 34.6145 27.0394 34.9834 27.0709C35.3829 27.1023 35.7517 27.1652 36.1205 27.3538C36.3049 27.4482 36.4893 27.6054 36.7044 27.6368C37.6572 27.7626 36.8888 26.2535 36.5508 25.9705C36.0283 25.4989 35.3829 25.2474 34.7375 25.3732C34.3379 25.436 33.3237 26.0019 33.7847 26.725Z" fill="#964939"/>
<path d="M50.965 48.7329C50.965 48.7015 50.965 48.67 50.9342 48.67C50.2888 47.6325 49.582 46.595 48.8136 45.6519C48.076 44.7087 47.2769 43.7026 46.232 43.1053C44.2343 41.9734 41.0072 42.0992 38.9481 42.7909C38.8559 42.8223 38.2105 42.8223 38.2105 42.9166C36.766 44.7401 34.6761 45.7462 32.0023 45.306C30.7422 45.0859 29.5128 44.5829 28.345 43.9856C27.0849 43.3253 26.1936 42.4765 25.4253 41.2818C25.3945 41.2503 25.3945 41.2503 25.3638 41.2189C25.3638 41.1874 25.3331 41.156 25.3023 41.156C23.4583 40.3071 20.8459 39.3954 18.8175 40.0871C16.6969 40.7787 15.0987 43.1053 13.7772 44.8344C13.6542 44.9916 13.8694 49.8647 18.5716 52.3485C18.756 52.4428 18.9097 54.0462 18.9404 54.2977C19.0941 55.0208 19.217 55.7439 19.34 56.4356C19.7088 58.5421 19.7702 60.7114 20.0776 62.8493C20.3235 64.5784 21.5528 71.4637 22.0138 73.2243C22.0138 73.2243 32.8321 74.1989 37.1041 73.8531C39.3784 73.6645 44.8797 74.4819 47.7379 74.1046C48.2297 74.0417 48.5985 73.5701 48.537 73.0671C48.1989 69.9546 47.0003 59.1708 46.1398 55.5867C46.0168 55.1151 46.2934 54.6436 46.7545 54.4549C47.4306 54.172 48.1067 53.8261 48.7214 53.4174C49.8893 52.5685 52.4402 50.1791 50.965 48.7329Z" fill="#FAE7DC"/>
<path d="M32.9243 23.6754C30.6807 20.1228 25.7941 23.141 24.2266 25.7819C23.6427 26.7565 23.1817 27.8255 22.3519 28.58C21.5528 29.3031 20.5693 29.7747 19.7702 30.4978C18.6331 31.5353 15.9285 36.1255 19.0941 36.0312C19.7088 35.9997 20.3542 35.874 20.9689 36.1255C21.5835 36.3456 22.0138 36.9115 22.5977 37.163C22.9358 37.3202 23.3046 37.3831 23.6427 37.4774C24.073 37.6031 24.3803 37.666 24.6876 37.2887C25.4252 36.3456 25.8248 35.2137 26.5624 34.2706C27.3615 33.233 27.8839 32.1641 28.0991 30.8436C28.3449 29.366 28.2835 27.8255 29.144 26.5364C30.0046 25.216 31.4491 24.43 32.8628 23.9898C33.0165 23.927 33.0165 23.7383 32.9243 23.6754Z" fill="#964939"/>
<path d="M37.1964 24.4928C36.5817 23.644 35.9055 22.7637 34.7991 22.7008C33.9079 22.6379 32.6478 22.858 32.2175 23.7697C32.156 23.9269 32.3097 24.1784 32.3404 24.147C33.1395 23.8326 34.2152 24.3356 34.4303 25.4046C34.5225 25.8762 34.584 26.3478 34.8913 26.7565C35.2601 27.2281 35.8441 27.4481 36.2436 27.8883C36.7354 28.3913 37.012 29.083 37.1349 29.8061C37.2886 30.5607 36.9812 32.0383 37.7803 32.5099C38.4872 32.9186 38.733 32.1326 38.7638 31.5667C38.9789 29.1773 38.6408 26.4106 37.1964 24.4928Z" fill="#964939"/>
<path d="M20.1698 44.1111C20.0469 42.9478 18.9712 39.9925 18.8483 40.0239C17.6497 40.4012 16.4818 41.4073 15.6827 42.2247C14.2997 43.6395 13.1011 45.2743 11.9639 46.9092C11.0726 48.1982 10.2428 49.5187 9.53596 50.9334C9.13642 51.688 7.32313 54.6747 8.49101 55.1149C8.73688 55.2092 13.1011 54.8319 14.5148 55.335C15.8671 55.838 16.2052 57.63 17.5267 58.196C18.1721 58.4475 18.8483 58.699 19.4322 59.0448C19.6166 59.1391 20.9382 60.0194 20.9074 60.0823C21.0304 59.7365 20.1084 52.5054 20.0469 50.619C20.0162 48.4497 20.385 46.2804 20.1698 44.1111Z" fill="#FAE7DC"/>
<path d="M43.2511 42.0362C43.0974 41.7218 43.0052 41.3759 43.0359 41.0301C43.1589 39.4896 43.8965 37.6346 43.9579 36.1884C44.0194 35.1195 43.9272 33.7361 43.4047 32.793C43.1896 32.4157 42.913 32.2585 42.6979 32.2899C42.5135 31.8812 41.9295 30.6236 41.4685 30.9695C41.2841 30.5607 41.0075 30.1835 40.6387 30.3407C40.2084 30.5293 40.2392 31.1267 40.3928 31.5982C40.3621 31.5982 40.3314 31.5668 40.2699 31.5982C39.5015 32.007 39.8396 32.8873 40.024 33.5475C40.2699 34.5536 40.0548 35.5911 39.7782 36.5657C39.7167 36.7543 39.6552 36.943 39.6245 37.1316C39.5015 37.3517 39.3479 37.4774 39.1942 37.163C39.0713 36.9115 39.2864 36.5343 39.3479 36.3142C39.5015 35.7483 39.7167 34.585 39.2249 34.1134C39.0098 33.9248 38.7025 33.9877 38.5181 34.2077C38.3644 34.3964 38.3644 34.6793 38.3337 34.8994C38.2415 35.4339 38.1493 35.9369 37.9956 36.4714C37.5653 38.0119 37.0429 39.5839 37.3195 41.2187C37.5653 42.7278 38.1493 44.174 39.0098 45.4002C39.1327 45.5888 41.5607 45.2744 42.0217 45.0544C42.6364 44.7714 43.8043 44.3312 44.3267 43.7968C43.9579 43.3566 43.5277 42.5392 43.2511 42.0362Z" fill="#F59E73"/>
<path d="M24.8414 38.295C24.7185 37.9806 24.657 37.6662 24.657 37.3204C24.6263 36.5344 24.9336 35.7484 24.7799 34.9939C24.657 34.3651 24.2575 34.3651 23.9809 34.648C24.0116 34.5537 24.0116 34.4594 24.0423 34.3651C24.1653 33.8935 24.4726 33.1704 24.2575 32.6988C24.0423 32.1643 23.5813 32.3844 23.2433 32.7302C23.4584 32.2586 23.6735 31.7556 23.7043 31.2525C23.8272 30.1522 22.9359 30.4666 22.3827 30.9382C22.4442 30.4666 22.352 29.9321 21.8295 30.215C20.8768 30.7495 20.1699 32.3215 19.7089 33.2961C19.3401 34.145 19.0635 35.0882 19.0635 36.0314C19.0635 36.9431 19.4937 37.7605 19.8318 38.6094C20.508 40.2442 21.2456 41.8477 21.5836 43.5768C21.5836 43.5768 21.5529 43.6083 21.5529 43.6397C21.4607 45.306 24.6877 45.2431 25.7327 45.2746C25.7942 45.306 25.8556 45.306 25.9171 45.2117C27.1157 42.9166 25.9171 40.4329 24.8414 38.295Z" fill="#F59E73"/>
<path d="M21.5219 43.2624C21.5219 43.2624 21.5834 43.5454 21.4297 43.8598C19.8316 47.5068 17.3729 50.4306 14.5761 53.1973C13.439 54.3291 11.1032 56.1212 10.6422 57.756C10.1812 59.4538 11.5949 60.8371 11.9638 62.5034C11.9638 62.5348 11.9945 62.5663 12.0252 62.5977C11.9945 62.6606 11.9945 62.7235 12.056 62.7549C13.6234 64.1068 15.6518 63.5409 17.25 62.5348C19.1862 61.3087 21.0609 57.9447 22.1059 55.9325C24.5031 51.3424 26.4701 46.878 26.4086 42.5708C26.4701 41.7848 22.5669 42.8537 21.5219 43.2624Z" fill="#F59E73"/>
<path d="M56.6505 57.5673C56.6505 57.473 56.6198 57.3787 56.589 57.2844C56.128 55.2723 54.4991 53.7946 52.9624 52.5685C51.2414 51.1851 49.3051 50.0533 47.8606 48.3241C45.863 45.9347 44.7565 44.7086 43.1891 42.0362C43.0662 41.8476 38.1181 43.954 38.2103 44.1741C40.3309 48.7957 43.0662 53.1344 46.3854 56.97C47.7684 58.5734 49.3051 60.6484 51.3336 61.3715C52.4707 61.7802 53.6386 62.2518 54.8065 61.7174C56.3432 60.9942 56.8964 59.1393 56.6505 57.5673Z" fill="#F59E73"/>
<path d="M28.4371 45.6831C30.7729 48.3869 34.4917 47.8839 37.5036 47.035C37.6572 47.0036 37.5958 46.752 37.4421 46.8149C34.4917 47.6638 30.8651 48.1668 28.5908 45.5259C28.4986 45.4002 28.3449 45.5573 28.4371 45.6831Z" fill="#2E0C12"/>
<path d="M22.1057 31.1895C21.2452 32.6043 20.4461 34.0505 20.7227 35.7797C20.7535 35.9369 20.9686 35.874 20.9379 35.7168C20.6612 34.0819 21.4911 32.6672 22.2901 31.3153C22.3823 31.1581 22.1672 31.0637 22.1057 31.1895Z" fill="#C45547"/>
<path d="M22.8746 32.8874C22.3522 33.7677 22.0448 34.7423 21.9526 35.7798C21.9526 35.937 22.1678 35.937 22.1985 35.7798C22.2907 34.7738 22.598 33.862 23.0898 33.0131C23.1513 32.8559 22.9361 32.7616 22.8746 32.8874Z" fill="#C45547"/>
<path d="M23.4889 34.8366C23.2738 35.2138 23.1509 35.6226 23.1509 36.0627C23.1509 36.2199 23.3967 36.2199 23.3967 36.0627C23.3967 35.654 23.4889 35.3082 23.7041 34.9623C23.7656 34.8366 23.5812 34.7108 23.4889 34.8366Z" fill="#C45547"/>
<path d="M42.5439 32.7928C41.9292 33.3273 42.5131 34.3019 42.6361 34.9307C42.8819 36.2826 42.2365 37.6345 41.837 38.9235C41.8062 39.0807 42.0214 39.1436 42.0521 38.9864C42.3595 38.0432 42.8205 37.0057 42.9127 36.0311C42.9434 35.7481 42.9434 35.4652 42.8819 35.1508C42.8205 34.6477 42.2672 33.3587 42.6975 32.9814C42.8512 32.8557 42.6668 32.6985 42.5439 32.7928Z" fill="#C45547"/>
<path d="M41.3454 31.7869C40.9151 32.6672 41.622 33.7676 41.7449 34.6479C41.9293 35.9998 41.3454 37.2888 40.9459 38.5464C40.8844 38.7036 41.1303 38.7665 41.161 38.6093C41.4683 37.6347 41.9293 36.6286 41.9908 35.5911C42.0215 35.1195 41.9908 34.6479 41.8986 34.1763C41.7757 33.5161 41.2532 32.51 41.5605 31.8812C41.622 31.7555 41.4376 31.6297 41.3454 31.7869Z" fill="#C45547"/>
<path d="M40.4538 32.5099C40.546 33.4217 40.7304 34.3334 40.7304 35.2451C40.7612 36.2512 40.3616 37.1944 39.9621 38.1061C39.9006 38.2319 40.085 38.3577 40.1465 38.2319C40.4846 37.4459 40.8534 36.6599 40.9456 35.7796C41.0685 34.7107 40.7919 33.5788 40.669 32.5099C40.669 32.3841 40.4231 32.3841 40.4538 32.5099Z" fill="#C45547"/>
<path d="M28.1297 36.5029C29.7586 37.6976 31.8178 38.0434 33.754 37.4775C33.9077 37.4461 33.8462 37.1946 33.6925 37.2575C31.8178 37.7919 29.8508 37.4461 28.2527 36.2828C28.099 36.22 28.0068 36.4086 28.1297 36.5029Z" fill="#C45547"/>
<path d="M11.687 56.5299C11.9636 55.964 12.3939 55.5239 12.9164 55.178C13.0393 55.0837 12.9164 54.8951 12.7934 54.9894C12.2402 55.3352 11.8099 55.8383 11.5026 56.4042C11.4411 56.5299 11.6255 56.6557 11.687 56.5299Z" fill="#C45547"/>
<path d="M33.1702 23.7697C32.955 23.0152 32.4325 22.4492 31.7257 22.1977C31.572 22.1349 31.5105 22.3864 31.6642 22.4178C32.3096 22.6379 32.7706 23.1724 32.955 23.8326C32.9858 23.9583 33.2009 23.8955 33.1702 23.7697Z" fill="#66281B"/>
<path d="M26.1627 23.6439C24.0728 24.7757 23.9192 27.6367 21.8293 28.8C20.7229 29.4288 19.5857 29.7746 18.7866 30.8436C18.0798 31.7867 17.7417 32.9186 17.7724 34.1133C17.7724 34.2705 18.0183 34.2705 18.0183 34.1133C17.9568 32.7614 18.4486 31.4409 19.4013 30.4977C20.3233 29.586 21.6141 29.3659 22.5976 28.5799C24.165 27.2909 24.4416 24.8701 26.2549 23.864C26.4086 23.7697 26.3164 23.581 26.1627 23.6439Z" fill="#66281B"/>
<path d="M37.1348 28.6428C38.3641 29.1144 38.2412 30.5921 38.5792 31.661C38.8251 32.447 39.3783 33.0758 39.7164 33.8618C39.7779 33.9876 39.9623 33.8932 39.9008 33.736C39.6857 33.2016 39.3476 32.7614 39.071 32.2584C38.7329 31.5982 38.6714 30.9379 38.487 30.2148C38.3026 29.4288 37.9646 28.7057 37.1655 28.4228C37.0733 28.3599 37.0118 28.6114 37.1348 28.6428Z" fill="#66281B"/>
<path d="M25.8249 34.5851C25.3946 34.9938 25.0873 35.4654 24.9029 36.0313C24.8414 36.1885 25.0873 36.2513 25.118 36.0941C25.3024 35.5597 25.579 35.1195 25.9786 34.7422C26.1015 34.6479 25.9171 34.4907 25.8249 34.5851Z" fill="#66281B"/>
<path d="M29.9123 23.2982C29.1132 23.5497 28.5292 24.1471 27.976 24.7759C27.4536 25.4046 26.9004 26.0334 26.6852 26.8509C26.0706 28.8315 27.4228 31.0952 26.132 32.9187C26.0398 33.0444 26.255 33.1702 26.3164 33.0444C27.2692 31.6611 26.8082 29.9948 26.7467 28.4543C26.6852 27.2596 27.0233 26.3478 27.7302 25.4361C28.3448 24.6815 29.021 23.8327 29.9737 23.5183C30.1274 23.4868 30.0659 23.2353 29.9123 23.2982Z" fill="#66281B"/>
<path d="M34.1537 23.5496C35.7518 22.9209 36.8275 24.5557 37.4729 25.7819C37.5344 25.9076 37.7495 25.7819 37.6573 25.6561C36.9505 24.3356 35.7826 22.6379 34.0615 23.2981C33.9386 23.3924 34 23.6125 34.1537 23.5496Z" fill="#66281B"/>
<path d="M34.8912 27.9827C33.877 27.9827 34.3072 30.6551 35.1678 30.0263C35.3829 29.8691 35.4751 29.5547 35.5058 29.2717C35.5673 28.8002 35.4444 27.9827 34.8912 27.9827Z" fill="#1A0504"/>
<path d="M29.6667 27.8571C30.7424 27.7628 30.5272 30.4666 29.5437 29.9321C29.2979 29.8063 29.1749 29.4919 29.1135 29.209C28.9905 28.7374 29.0827 27.92 29.6667 27.8571Z" fill="#1A0504"/>
<path d="M33.2007 29.4605C33.4159 29.6806 33.631 29.9321 33.6618 30.2465C33.6925 30.6238 33.3851 31.0325 33.0778 31.1582C32.9549 31.2211 32.9856 31.4412 33.1393 31.3783C33.5081 31.2211 33.8154 30.8753 33.9076 30.4666C33.9998 29.995 33.6617 29.6177 33.3851 29.2719C33.2622 29.1776 33.1085 29.3348 33.2007 29.4605Z" fill="#C45547"/>
<path d="M31.9099 30.9694C32.0943 30.7808 32.3402 30.7179 32.6168 30.7493C32.7705 30.7808 32.8319 30.5607 32.6783 30.5292C32.3402 30.4664 32.0021 30.5607 31.7563 30.8122C31.6333 30.9065 31.8177 31.0952 31.9099 30.9694Z" fill="#C45547"/>
<path d="M34.6761 32.3215C34.6147 32.2272 34.5225 32.1643 34.3688 32.1643C33.5082 32.1329 32.617 32.1329 31.7257 32.1643C31.3876 32.1958 30.5578 32.1014 30.3119 32.4158C30.0968 32.7302 30.4349 33.2961 30.6193 33.5477C30.9266 33.9878 31.5413 34.2393 32.0945 34.3337C32.7706 34.428 33.6004 34.3336 34.1536 33.9249C34.461 33.7049 34.6147 33.359 34.6454 32.9818C34.6761 32.7931 34.7683 32.5102 34.6761 32.3215Z" fill="#B84A3D"/>
<path d="M33.4468 33.2333C33.9386 33.2018 34.123 32.573 34.123 32.1643C33.3239 32.1329 32.4941 32.1329 31.695 32.1643C31.3569 32.1958 30.5271 32.1014 30.2812 32.4158C30.1583 32.573 30.2198 32.7931 30.312 33.0132C30.9881 33.359 32.7399 33.3276 33.4468 33.2333Z" fill="white"/>
<path d="M21.0919 59.2022C21.6143 61.4659 22.3519 63.6666 23.3662 65.7416C23.4276 65.8674 23.6428 65.7731 23.5506 65.6159C22.5671 63.5409 21.8295 61.3715 21.307 59.1393C21.2763 58.9821 21.0611 59.045 21.0919 59.2022Z" fill="#2E0C12"/>
<path d="M45.1869 75.2362C45.1255 77.6885 44.7259 80.0779 43.9576 82.373C43.8961 82.5302 44.142 82.5931 44.1727 82.4359C44.9411 80.1094 45.3406 77.6885 45.4021 75.2362C45.4328 75.079 45.1869 75.079 45.1869 75.2362Z" fill="#2E0C12"/>
<path d="M36.8889 60.3655C36.9503 63.698 36.7659 67.0306 36.3357 70.3318C36.3049 70.489 36.5508 70.5519 36.5508 70.3947C36.9811 67.0621 37.1962 63.7295 37.1347 60.3655C37.104 60.2083 36.8889 60.2083 36.8889 60.3655Z" fill="#2E0C12"/>
<path d="M67.1926 1.79356C64.8261 3.08258 62.644 4.71743 60.7385 6.66668C58.7408 8.71025 57.3578 11.3512 55.1143 13.1432C51.3033 16.2243 45.2795 17.2932 43.5584 22.5436C43.4969 22.7323 43.8042 22.8266 43.8657 22.6379C45.5868 17.3247 51.8565 16.35 55.606 13.1432C57.6344 11.3826 58.9867 8.93032 60.8307 7.01251C62.7362 5.03182 64.9183 3.39697 67.3155 2.10795C67.5307 1.98219 67.377 1.69924 67.1926 1.79356Z" fill="#FFC04F"/>
<path d="M0.100515 13.2376C6.37019 15.2497 9.81237 21.6005 14.9449 25.3418C15.0986 25.4675 15.2522 25.1846 15.0986 25.0588C9.93531 21.2861 6.52386 14.9668 0.192716 12.9232C0.00831377 12.8603 -0.0838874 13.1747 0.100515 13.2376Z" fill="#FFC04F"/>
<path d="M24.749 0.661803C25.2407 2.73681 25.7632 4.81182 26.2549 6.88682C26.3164 7.07546 26.593 7.01258 26.5622 6.7925C26.0705 4.7175 25.548 2.64249 25.0563 0.567484C24.9948 0.378847 24.7182 0.473166 24.749 0.661803Z" fill="#FFC04F"/>
<path d="M46.8465 0.787517C46.2011 2.64245 45.1869 4.2773 43.8346 5.66064C43.681 5.81784 43.9268 6.03791 44.0498 5.88071C45.4328 4.4345 46.4777 2.7682 47.1539 0.850395C47.2153 0.693197 46.9387 0.59888 46.8465 0.787517Z" fill="#FFC04F"/>
<path d="M46.7854 10.5965C46.3244 9.96775 45.6482 9.55904 44.9413 9.46472C44.2345 9.33897 43.4661 9.5276 42.8514 9.99919L41.9602 10.6909L41.284 9.77912C40.823 9.15033 40.1469 8.74162 39.44 8.6473C38.7331 8.52154 37.9648 8.71017 37.3501 9.18177C36.6125 9.74768 36.1822 10.6594 36.213 11.6026C36.2437 13.1431 40.5772 18.3307 40.9767 18.3935C41.3762 18.4564 46.3244 15.3753 47.062 13.6462C47.4922 12.6087 47.4308 11.4769 46.7854 10.5965Z" fill="#E8674A"/>
<path d="M22.7515 11.1312C22.1061 10.6911 21.3377 10.5653 20.6309 10.6911C19.924 10.8483 19.2786 11.257 18.8483 11.9172L18.2336 12.8604L17.3116 12.2316C16.6662 11.7914 15.8979 11.6657 15.191 11.7914C14.4841 11.9172 13.8387 12.3573 13.4084 13.0176C12.886 13.8036 12.7938 14.8096 13.1318 15.6899C13.685 17.1362 19.463 20.5002 19.8625 20.4373C20.2621 20.3744 23.8886 15.7528 24.0116 13.8664C24.0423 12.7975 23.612 11.7286 22.7515 11.1312Z" fill="#E8674A"/>
</svg>
