<svg width="42" height="77" viewBox="0 0 42 77" fill="none" xmlns="http://www.w3.org/2000/svg">
<path d="M27.2303 20.6254C27.2303 19.4107 27.2066 18.1961 27.1592 16.9814C27.0407 14.5997 26.78 12.218 26.2586 9.90777C25.7373 7.66898 25.05 5.19203 23.5332 3.38195C22.2297 1.85766 20.1205 0.881172 18.1297 1.59568C18.2008 1.50041 18.0823 1.35751 17.9638 1.42896C14.0297 3.40576 13.0581 8.07387 12.9396 12.0989C12.8685 14.6473 12.9396 17.2196 13.1055 19.768C13.2003 21.1017 13.2951 22.4355 13.4373 23.7454C13.532 24.579 13.6742 25.1506 14.5985 25.3411C15.1199 25.4364 15.6413 25.3888 16.1627 25.3411C16.8737 25.2697 17.5373 25.2458 18.2719 25.3649C19.4332 25.5317 20.5234 25.6507 21.7083 25.5317C22.8459 25.4126 23.9835 25.1744 25.1211 24.96C25.7372 24.841 26.9933 24.9362 27.1355 24.1265C27.2303 23.6501 27.1592 23.0785 27.1829 22.5784C27.2303 21.9353 27.2303 21.2922 27.2303 20.6254Z" fill="#913939"/>
<path d="M6.30389 76.7856C6.56458 76.7856 6.84897 76.7856 7.10967 76.7856C10.5935 76.8094 14.101 76.9047 17.5848 77H35.549C35.786 71.0457 35.0987 64.5675 34.2929 60.7807C34.2692 60.6616 7.10967 61.5666 7.37036 61.7571C7.37036 61.7571 7.39406 61.7571 7.39406 61.781C6.23279 66.3776 6.06689 71.7602 6.30389 76.7856Z" fill="#59242E"/>
<path d="M7.13314 70.9743C8.03372 71.665 10.0482 71.4745 11.1383 71.4983C14.9066 71.6412 18.817 71.6412 22.5852 71.4506C24.884 71.3316 27.2302 70.9981 29.5054 70.617C30.7378 70.4265 31.9464 70.3312 33.0366 69.7596C33.2736 69.6406 33.4869 69.4977 33.6291 69.3071C34.0794 68.7117 34.0794 63.3767 33.9846 63.4005C25.5713 64.9486 16.5655 65.0677 7.63083 64.4008C7.60713 64.377 7.55973 64.377 7.53603 64.377C7.51233 64.377 7.46493 64.377 7.44123 64.377C7.37014 64.377 7.32274 64.377 7.25164 64.3532C7.22794 64.3532 7.22794 64.3532 7.20424 64.3532C7.18054 64.3532 6.77765 66.4967 6.80135 67.6399C6.82505 68.5212 6.32736 70.3312 7.13314 70.9743Z" fill="#FAE1D2"/>
<path d="M26.0928 22.6974C25.8321 22.364 23.6281 21.459 23.5096 20.5063C23.3674 19.3631 23.5333 16.9576 23.5333 15.8144C23.5333 15.6953 23.4622 15.6238 23.3911 15.6C23.4622 15.4333 23.3437 15.1951 23.1067 15.2428C21.0449 15.6715 18.983 16.1954 16.8738 16.1954C16.7553 16.1954 16.542 16.124 16.5657 16.2431C16.6842 17.0528 16.779 20.2919 16.4946 20.9826C16.1628 21.84 14.1246 22.626 13.0581 23.1738C12.7738 23.3167 13.0344 23.7454 13.2951 23.6025C13.3188 23.6263 13.3188 23.6263 13.3425 23.6501C14.8593 24.7933 17.0871 25.1268 18.9356 25.2697C20.7605 25.4126 23.083 25.3887 24.742 24.4837C25.4766 24.1026 26.7564 23.531 26.0928 22.6974Z" fill="#EB8B65"/>
<path d="M23.0593 2.90562C22.8223 2.76272 22.5616 2.64364 22.2773 2.54837C20.168 1.78623 17.3478 2.00058 15.7362 3.66776C13.7929 5.6922 13.7218 8.50259 14.1247 11.051C14.4327 12.9325 14.8356 14.957 15.9021 16.5527C16.8975 18.0532 18.8171 18.6248 20.5472 18.4104C21.4004 18.3151 22.372 17.9103 23.1067 17.4577C25.2871 16.1002 24.9316 12.48 25.1923 10.265C25.4767 7.74045 25.5715 4.38227 23.0593 2.90562Z" fill="#EB8B65"/>
<path d="M26.3532 22.6498C26.0451 22.3164 25.737 21.9829 25.3104 21.7924C25.2394 21.7686 25.192 21.7924 25.1446 21.8162C25.1209 21.7924 25.0735 21.7924 25.0261 21.8162C24.4099 22.1973 23.7463 22.5307 23.0827 22.7927C23.059 22.7689 23.0116 22.7689 22.9642 22.7927C21.5896 23.4596 20.3099 24.1503 18.7457 23.7692C18.1058 23.6263 17.5133 23.3405 16.9446 23.0309C16.3758 22.6974 15.6411 21.7686 15.5226 21.8162C14.6931 22.2449 13.7925 22.7213 12.9157 23.1738C12.8209 23.2214 13.7925 24.4599 14.1954 24.7933C14.7879 25.2935 15.4752 25.6507 16.1862 25.9604C16.992 26.3176 17.774 26.6987 18.6035 26.9607C19.1012 27.1274 19.5752 27.2703 20.0492 27.4608C20.2625 27.5561 20.4758 27.6275 20.6891 27.6514C20.7128 27.6752 20.7365 27.6752 20.7602 27.6752C21.3289 27.7228 22.0399 27.5561 22.585 27.3894C23.2012 27.2226 23.7226 26.8654 24.1966 26.4367C25.1446 25.5316 26.0451 24.1265 26.3295 22.8403C26.3769 22.8165 26.4243 22.7213 26.3532 22.6498Z" fill="#FAE1D2"/>
<path d="M25.0026 8.57401C24.8841 7.97859 24.102 7.64515 23.5095 7.54988C22.7511 7.4308 21.5662 7.64515 21.5425 8.55019C21.5425 8.81218 21.7084 9.09798 21.9928 9.14562C22.4668 9.2647 22.9644 8.95508 23.4621 9.02653C23.8413 9.09798 24.1731 9.31233 24.576 9.19325C24.8841 9.1218 25.0737 8.85981 25.0026 8.57401Z" fill="#913939"/>
<path d="M15.0725 8.57401C15.191 7.97859 15.9731 7.64515 16.5656 7.54988C17.324 7.4308 18.509 7.64515 18.5327 8.55019C18.5327 8.81218 18.3668 9.09798 18.0824 9.14562C17.6084 9.2647 17.1107 8.95508 16.613 9.02653C16.2338 9.09798 15.902 9.31233 15.4991 9.19325C15.191 9.1218 15.0014 8.85981 15.0725 8.57401Z" fill="#913939"/>
<path d="M38.2978 34.1772C38.1082 32.1289 37.2076 29.0565 35.5723 27.3894C33.6053 25.3887 28.7706 23.4119 26.0215 22.1258C25.8319 22.0306 25.5001 21.6733 25.3105 21.7686C20.8313 23.9835 20.3336 24.2217 15.5463 21.8162C15.2619 21.6733 13.5319 22.2211 13.2475 22.3402C10.9012 23.2452 7.82031 25.1982 6.16135 26.389C3.74401 28.1277 2.70123 30.8428 2.29834 33.677C2.25094 33.939 5.63996 37.4401 6.96713 39.0596C6.75384 43.2276 6.20875 45.3711 5.71106 49.5629C5.42667 52.0398 5.04748 65.3773 6.44574 65.6155C10.8538 66.3538 33.8897 66.7825 34.9088 64.4961C36.9943 59.8518 37.3261 42.1558 37.4446 40.6554C38.2741 38.7262 38.4637 36.2492 38.2978 34.1772Z" fill="#FFC04F"/>
<path d="M23.9597 19.8394C23.8649 19.7918 23.7227 19.7918 23.6754 19.9108C22.9881 21.7686 21.258 22.888 20.4285 23.1738C20.2389 23.2452 20.073 23.2452 19.8834 23.1738C18.9829 22.7927 17.1343 21.6018 16.5418 19.9108C16.4944 19.7918 16.3522 19.7918 16.2574 19.8394C16.1863 19.7918 14.6222 21.6495 14.6933 22.0544C15.3332 25.6031 18.2008 26.5081 18.2245 26.5081C18.2956 26.5558 18.4141 26.5319 18.4852 26.4367C18.7933 26.0794 19.5517 25.1267 20.0256 24.317C20.0967 24.2217 20.2389 24.2217 20.31 24.317C20.7603 25.1267 21.4476 26.0794 21.7557 26.4367C21.8268 26.5319 21.9216 26.5319 22.0164 26.5081C22.0401 26.5081 24.8129 25.4602 25.4765 21.9115C25.5239 21.5066 24.0545 19.8156 23.9597 19.8394Z" fill="#FAE1D2"/>
<path d="M30.6193 27.4846C30.5482 27.0559 30.4298 26.6272 30.3824 26.2462C30.2402 25.3411 30.1217 24.4361 29.9795 23.531C29.387 17.5292 28.913 12.3133 28.913 10.9081C28.9367 8.50258 28.5575 5.95417 27.4436 3.76302C25.5477 0.0952143 21.1159 -0.524025 17.3951 0.3572C14.7881 0.976439 12.4893 2.97706 11.6835 6.83539C10.7355 11.3844 10.2378 15.6476 10.2378 20.2681C10.2378 23.6263 9.83495 27.3894 10.3089 30.7476C10.38 31.2953 11.3991 31.7717 11.9916 31.724C12.3708 31.6764 13.2714 31.7717 13.6506 31.7002C15.7598 31.2715 16.2101 30.6761 16.0916 28.6278C16.0679 27.5561 15.9494 26.4605 15.8783 25.3888C15.7124 23.1976 13.6506 13.3374 14.0535 9.59815C14.1956 8.33586 15.4517 6.23997 16.3049 5.38256C17.2055 4.47752 17.9876 3.76302 19.2436 3.33431C19.3147 3.31049 19.3621 3.35813 19.3858 3.40576C19.8361 4.52516 20.5708 5.47783 21.4477 6.33524C22.2061 7.07356 23.3199 7.93097 24.2679 8.55021C24.5286 8.71693 24.6945 8.9551 24.7893 9.26472C25.2159 10.9557 25.1922 12.1466 24.8841 14.8617C24.5997 17.4577 24.5997 20.5539 24.4338 23.15C24.3153 25.0315 24.0546 26.9368 24.102 28.8184C24.102 29.0089 24.1257 29.2233 24.2442 29.39C24.7419 30.1045 26.6615 29.4376 27.3962 29.5329C27.9176 29.6043 28.439 29.7949 28.9841 29.7234C29.6951 29.6282 30.6193 29.128 30.6904 28.342C30.7141 28.1039 30.6904 27.7943 30.6193 27.4846Z" fill="#913939"/>
<path d="M30.8561 43.2991C30.311 42.6322 29.7185 41.5366 29.1734 40.7983C29.0786 40.6554 29.0075 40.4887 28.9601 40.322C28.4861 37.6783 27.1827 35.7729 25.0497 34.0343C25.0023 33.9867 24.9312 33.9867 24.8838 33.9867C24.8601 33.9867 24.8601 33.9628 24.8364 33.9628C24.1254 33.296 23.059 34.3439 23.7699 35.0346C23.9358 35.2013 24.1254 35.368 24.2676 35.5109C24.4572 35.7253 24.6705 35.9158 24.8364 36.154C25.0023 36.3922 24.7179 36.2731 24.5994 36.2254C24.4572 36.154 24.315 36.0587 24.1728 35.9873C23.9358 35.8682 23.7225 35.7253 23.5092 35.5824C23.059 35.2966 22.6324 34.9631 22.2295 34.6297C21.7318 34.2248 20.0965 32.2242 19.4329 33.2722C19.1486 33.7009 19.4566 34.4392 19.741 34.7488C20.0965 35.1061 20.5468 35.7015 20.2861 35.5824C19.9069 35.3442 19.5514 34.9393 19.196 34.6297C18.7931 34.2725 18.1058 33.7485 17.7503 34.463C17.5607 34.8441 17.6318 35.2966 17.7977 35.7253C17.8214 35.8206 17.774 35.9158 17.7029 35.9158C17.3711 35.9635 17.1578 36.3207 17.2526 37.0114C17.3237 37.5354 17.537 38.0117 17.7977 38.4404C17.8214 38.4642 17.7977 38.488 17.7977 38.5119C17.1578 39.2264 19.4329 41.5128 19.741 41.751C21.2104 43.0133 22.6324 44.5375 24.5283 44.7519C24.7653 44.7757 24.9786 44.8948 25.1445 45.0853C25.6185 45.6569 26.0451 46.2524 26.4717 46.8478C26.5665 46.9669 30.3584 45.0853 30.7613 43.7516C30.7613 43.7516 30.7613 43.7278 30.785 43.7278C30.9035 43.6087 30.9509 43.442 30.8561 43.2991Z" fill="#EB8B65"/>
<path d="M26.6614 39.3454V39.3216C27.6805 38.8215 28.7943 38.5595 29.9082 38.2499C30.477 38.107 31.3302 37.9879 31.188 37.2019C30.8799 35.6062 27.2539 36.7732 25.7134 37.2972C25.7134 37.2972 25.7134 37.2734 25.6897 37.2734C26.8036 36.6779 28.036 36.3683 29.2209 35.892C29.6949 35.7014 30.5718 35.5109 30.2637 34.844C29.9082 34.0819 28.6521 34.3439 28.036 34.5106C26.9695 34.7726 25.9267 35.106 24.9076 35.5347C24.7417 35.6062 24.718 35.5585 24.8602 35.4633C25.2394 35.1537 25.9504 34.6297 26.0215 34.2962C26.377 32.5814 22.7273 34.7964 22.2296 35.106C20.4048 36.273 19.2198 37.6306 18.9591 39.7265C18.9117 40.0361 16.4943 42.5607 16.5891 42.7512C17.0157 43.7039 17.7267 44.7757 18.4614 45.4902C18.9591 45.9665 19.8597 46.8716 20.5943 46.8239C20.8787 46.8001 21.2105 46.2523 21.3764 46.0618C21.7082 45.7045 22.0637 45.3473 22.4429 45.0377C23.3198 44.3232 24.3389 43.8945 25.2868 43.299C25.3342 43.2752 25.3816 43.2276 25.4527 43.2038H25.4764C26.1163 42.8227 26.7562 42.4654 27.4198 42.1558C28.036 41.87 28.7469 41.6795 29.3631 41.3699C29.8134 41.1317 30.1689 40.6792 29.8608 40.2267C30.3822 40.0838 31.0221 39.8694 31.0458 39.3454C31.0458 37.9879 27.9412 38.9167 26.6614 39.3454Z" fill="#EB8B65"/>
<path d="M17.9403 40.8459C17.5612 41.0602 16.5184 41.9891 16.4473 42.4893C16.3762 43.0132 16.9687 43.6087 17.2294 43.9897C18.1062 45.3235 19.0305 46.8478 20.3577 47.7528C20.4999 47.8481 20.6421 47.6575 20.5473 47.5623C21.0213 47.0145 21.5664 46.2761 21.8745 45.6331C22.1588 45.0853 18.4143 40.5839 17.9403 40.8459Z" fill="#FAE1D2"/>
<path d="M39.1276 37.2257C38.8195 35.8205 38.5114 34.4153 38.1796 33.0101C37.8952 31.7717 37.3028 29.4614 36.4496 28.5088C36.3311 28.3897 31.7808 36.8447 31.9941 38.7738C32.2785 41.2984 32.1126 41.4175 32.1837 43.9659C32.2548 46.2762 32.16 48.6102 32.2785 50.9204C32.3496 52.278 32.6103 56.7556 34.2455 57.5177C35.8571 58.2799 38.1796 57.9226 39.412 56.7556C41.4739 54.8264 40.9999 52.5638 40.9288 49.9678C40.8577 46.4191 40.1704 42.2987 39.4594 38.8215C39.3646 38.2737 39.2461 37.7497 39.1276 37.2257Z" fill="#FFC04F"/>
<path d="M31.7094 44.1564C31.7331 44.1326 31.7331 44.085 31.7094 44.0373C31.4961 43.7039 30.4534 42.0844 30.169 42.0605C30.0742 42.0605 29.9557 42.0844 29.8609 42.1082C28.4863 42.6083 25.6187 45.7522 25.8083 46.2761C25.9742 46.7048 26.306 47.3003 26.543 47.6813C26.5904 47.7528 27.2776 48.8484 27.325 48.8245C29.0314 47.8957 30.8326 46.0142 31.8279 44.3232C31.8753 44.2517 31.8042 44.1802 31.7094 44.1564Z" fill="#FAE1D2"/>
<path d="M23.2723 17.1957C21.7082 18.8391 18.5087 19.0296 16.8498 17.4339C16.7787 17.3625 16.6365 17.4815 16.7313 17.553C18.4613 19.2202 21.7793 19.0296 23.3908 17.3148C23.4856 17.2434 23.3671 17.1243 23.2723 17.1957Z" fill="#C45547"/>
<path d="M5.40315 27.4847C2.96211 29.4376 2.20373 33.4151 1.39795 38.2023C0.829161 41.5843 0.521068 45.2997 0.141878 48.6817C-0.35581 53.0164 0.236676 59.5898 6.06673 59.1611C7.91529 59.0182 9.28986 58.5895 9.45575 56.5651C9.69275 53.8023 9.71644 51.0157 9.83494 48.2292C9.95344 45.7522 9.50315 43.3705 9.33725 40.8697C9.17136 38.3452 5.59274 27.3418 5.40315 27.4847Z" fill="#FFC04F"/>
<path d="M6.13789 35.106C7.65466 38.7024 9.14772 42.3702 9.59801 46.2762C9.62171 46.3952 9.78761 46.3952 9.78761 46.2762C9.33732 42.3226 7.84425 38.6309 6.30379 35.0108C6.23269 34.9155 6.0905 35.0108 6.13789 35.106Z" fill="#2B0303"/>
<path d="M21.0921 47.2764C21.0684 47.1335 21.021 47.0145 20.9025 46.9192C18.8881 45.3711 16.921 42.656 17.0158 41.6795C17.0395 41.4889 16.7314 41.4651 16.5892 41.5842C15.2858 42.6083 9.95339 45.9189 8.57883 47.2764C6.11409 48.5864 4.31293 48.2529 3.72044 51.5397C3.22276 54.1357 5.5927 59.304 5.7112 59.1849C5.7586 59.1134 6.37478 59.1372 6.46958 59.1372C6.77767 59.0896 7.10946 59.042 7.41755 58.9705C8.19964 58.8038 8.95802 58.5418 9.6927 58.256C11.6361 57.4939 13.4609 56.3983 15.0725 55.0884C17.1343 53.4212 18.9118 51.3729 20.2863 49.0865C20.4522 48.7293 21.1632 47.848 21.0921 47.2764Z" fill="#FFC04F"/>
<path d="M31.733 43.3943C31.5908 43.2991 31.4012 43.2991 31.2827 43.442C29.9319 45.2759 28.3677 46.6811 26.4718 47.8005C26.2111 47.9672 26.2585 48.2768 26.4244 48.4435C26.4244 48.4673 26.5666 49.0151 26.5666 49.0628C27.7278 51.0396 32.9417 59.1611 36.1648 57.8274C36.3307 57.7559 39.7908 54.493 39.0088 49.8011C38.9377 49.3962 38.7244 49.0151 38.3926 48.777C36.9469 47.6337 33.4157 44.5852 31.733 43.3943Z" fill="#FFC04F"/>
<path d="M31.4251 43.3943C31.8754 43.4181 32.3494 43.7516 32.7286 43.9897C33.3921 44.3708 34.032 44.7995 34.6482 45.252C35.9991 46.2047 37.3262 47.2288 38.5112 48.4197C38.5823 48.4911 38.7245 48.372 38.6297 48.3006C37.421 47.0859 36.0228 46.0142 34.6008 45.0139C33.9609 44.5613 33.2973 44.1088 32.6101 43.7278C32.2546 43.5372 31.828 43.2514 31.4014 43.2276C31.3066 43.2276 31.3066 43.3943 31.4251 43.3943Z" fill="#2B0303"/>
<path d="M35.0037 44.99C36.2835 45.3949 37.4684 45.9903 38.5349 46.8001C38.6297 46.8716 38.7245 46.7048 38.6297 46.6572C37.5395 45.8474 36.3309 45.252 35.0511 44.8471C34.9326 44.7757 34.8852 44.9662 35.0037 44.99Z" fill="#2B0303"/>
<path d="M34.3162 35.0346C33.6289 37.9403 33.1312 40.8697 32.752 43.823C32.7283 43.9421 32.9179 43.9421 32.9416 43.823C33.3208 40.8697 33.8185 37.9641 34.5058 35.0822C34.5295 34.987 34.3399 34.9393 34.3162 35.0346Z" fill="#2B0303"/>
<path d="M15.8308 42.132C11.8256 44.3231 8.24703 47.0859 4.97651 50.2535C4.90541 50.325 5.02391 50.4679 5.09501 50.3726C8.36553 47.205 11.9204 44.4422 15.9256 42.2749C16.0204 42.2273 15.9256 42.0605 15.8308 42.132Z" fill="#2B0303"/>
<path d="M20.8786 47.4908C20.2624 49.3247 19.2433 51.0872 17.9399 52.5162C16.6127 53.969 14.9301 55.2075 13.2711 56.2554C10.9959 57.7083 8.38901 58.8991 5.66358 59.0897C5.54508 59.0897 5.54508 59.2802 5.66358 59.2802C8.48381 59.1135 11.1855 57.8512 13.5081 56.3269C15.1907 55.2313 16.9208 53.9928 18.2243 52.4447C19.4566 51.0157 20.4046 49.3247 21.0208 47.5385C21.0919 47.4432 20.926 47.3956 20.8786 47.4908Z" fill="#2B0303"/>
<path d="M26.4007 47.729C26.0926 47.991 26.2822 48.515 26.377 48.8246C26.6614 49.6105 27.1591 50.325 27.6331 51.0157C28.9603 52.9211 30.5718 54.7074 32.3967 56.1602C33.2499 56.8509 34.1741 57.5178 35.2406 57.8988C35.3591 57.9465 35.3828 57.7559 35.288 57.7321C32.8707 56.8509 30.8325 54.6597 29.221 52.7306C28.4152 51.8017 27.6568 50.8014 27.0643 49.7296C26.8747 49.3962 26.1163 48.2053 26.5666 47.8243C26.614 47.7766 26.4955 47.6576 26.4007 47.729Z" fill="#2B0303"/>
<path d="M19.2672 72.2842C20.8788 73.0463 21.1869 74.9279 20.9262 76.5236C20.9025 76.6427 21.0684 76.6903 21.0921 76.5712C21.3528 74.904 21.021 72.9272 19.3383 72.1175C19.2435 72.0936 19.1487 72.2366 19.2672 72.2842Z" fill="#2B0303"/>
<path d="M15.2385 12.4562C14.9067 11.1701 13.9114 9.59815 13.3426 9.9554C13.0819 10.1221 13.1767 10.6699 13.2004 10.8843C13.2715 11.4559 13.4137 12.0037 13.627 12.5276C13.7692 12.8611 14.575 14.5521 15.1674 13.8852C15.4044 13.5994 15.4044 13.0516 15.2385 12.4562Z" fill="#EB8B65"/>
<path d="M29.7186 40.1076C28.7232 40.1791 27.7753 40.4887 26.9221 41.0126C26.8273 41.0841 26.9221 41.227 27.0169 41.1556C27.8464 40.6554 28.7469 40.3458 29.7186 40.2743C29.8134 40.2743 29.8134 40.1076 29.7186 40.1076Z" fill="#C45547"/>
<path d="M29.4581 41.2508C29.0078 41.6557 28.3679 41.7271 27.8229 41.9415C27.3726 42.1082 26.9223 42.2987 26.4957 42.5369C25.524 43.037 24.6234 43.6801 23.7229 44.2993C23.6281 44.3708 23.7229 44.5137 23.8177 44.4422C24.7656 43.7754 25.7373 43.1085 26.7801 42.5845C27.3252 42.3225 27.8703 42.0844 28.4627 41.9177C28.8893 41.7986 29.2685 41.6795 29.6003 41.3699C29.6714 41.2984 29.5529 41.1555 29.4581 41.2508Z" fill="#C45547"/>
<path d="M28.1785 38.6786C27.6097 38.7977 27.0646 38.9882 26.5195 39.2502C26.4247 39.2978 26.4958 39.4407 26.6143 39.3931C27.1357 39.1549 27.6571 38.9644 28.2259 38.8453C28.3444 38.8215 28.297 38.6548 28.1785 38.6786Z" fill="#C45547"/>
<path d="M27.3727 36.5589C26.7328 36.7732 26.1167 37.0352 25.5005 37.321C25.4057 37.3686 25.4768 37.5353 25.5953 37.4639C26.1878 37.1781 26.7802 36.9161 27.4201 36.7018C27.5386 36.7018 27.4912 36.5112 27.3727 36.5589Z" fill="#C45547"/>
<path d="M25.6896 34.582C25.4289 34.8678 25.1445 35.1298 24.8127 35.3204C24.7179 35.3918 24.8127 35.5347 24.9075 35.4633C25.2393 35.2489 25.5474 34.9869 25.8318 34.6773C25.9029 34.6297 25.7844 34.5106 25.6896 34.582Z" fill="#C45547"/>
<path d="M26.0451 34.9869C25.6185 35.0584 25.2393 35.2013 24.8364 35.3918C24.7416 35.4395 24.8127 35.6062 24.9312 35.5347C25.3104 35.3442 25.6896 35.2251 26.0925 35.1537C26.211 35.1298 26.1636 34.9631 26.0451 34.9869Z" fill="#C45547"/>
<path d="M22.1824 34.9869C21.3055 35.4871 20.5234 36.1778 19.9309 37.0352C19.6466 37.4401 19.4096 37.845 19.2437 38.2975C19.0067 38.8929 18.9119 39.5598 18.6038 40.1076C18.5564 40.2028 18.6986 40.2981 18.746 40.2028C18.983 39.798 19.0541 39.3692 19.1963 38.9405C19.3622 38.4166 19.5992 37.9164 19.8835 37.4401C20.476 36.4874 21.3055 35.7253 22.2535 35.1775C22.372 35.0822 22.2772 34.9393 22.1824 34.9869Z" fill="#C45547"/>
<path d="M20.4287 35.7491C20.5709 35.8682 20.7131 35.9873 20.879 36.0825C20.9738 36.154 21.0686 35.9873 20.9738 35.9396C20.8316 35.8444 20.6894 35.7491 20.5709 35.63C20.4761 35.5586 20.3339 35.6776 20.4287 35.7491Z" fill="#C45547"/>
<path d="M18.0825 36.0349C18.5565 36.6065 18.983 37.2019 19.694 37.4639C19.8125 37.5116 19.8362 37.321 19.7414 37.2972C19.0541 37.0352 18.6513 36.4398 18.201 35.9158C18.1299 35.8206 18.0114 35.9396 18.0825 36.0349Z" fill="#C45547"/>
<path d="M17.9877 38.6786C18.2247 38.9644 18.5328 39.2026 18.8883 39.3693C18.9831 39.4169 19.0779 39.2502 18.9831 39.2264C18.6513 39.0835 18.3669 38.8453 18.1062 38.5833C18.0351 38.4642 17.9166 38.5833 17.9877 38.6786Z" fill="#C45547"/>
<path d="M23.6515 3.73921C24.3625 5.04914 24.3862 6.57342 24.3625 8.02625C24.3625 8.14533 24.5284 8.14533 24.5521 8.02625C24.5758 6.52578 24.5521 5.0015 23.8174 3.64394C23.77 3.54867 23.6041 3.62012 23.6515 3.73921Z" fill="#631F1F"/>
<path d="M24.6944 15.8144C24.647 17.029 24.5759 18.2437 24.4337 19.4345C24.41 19.5536 24.5996 19.5536 24.6233 19.4345C24.7418 18.2199 24.8366 17.029 24.884 15.8144C24.8603 15.7191 24.6944 15.7191 24.6944 15.8144Z" fill="#631F1F"/>
<path d="M14.2432 14.3615C14.5039 16.6003 14.7646 18.8391 15.0252 21.0779C15.0489 21.197 15.2148 21.197 15.2148 21.0779C14.9541 18.8391 14.6935 16.6003 14.4328 14.3615C14.4091 14.2424 14.2432 14.2424 14.2432 14.3615Z" fill="#631F1F"/>
<path d="M19.2198 10.4794C19.1013 10.8604 18.9117 11.2415 18.9828 11.6702C19.0539 12.0275 19.2909 12.2656 19.599 12.4562C19.6938 12.5038 19.7886 12.3609 19.6938 12.3133C19.362 12.1227 19.1487 11.8369 19.1487 11.4559C19.1487 11.1462 19.3146 10.8366 19.4094 10.5508C19.4331 10.4079 19.2672 10.3603 19.2198 10.4794Z" fill="#C45547"/>
<path d="M20.3814 12.218C20.5473 12.0751 20.7843 12.0513 20.9739 12.1465C21.0687 12.1942 21.1635 12.0513 21.0687 12.0036C20.808 11.8607 20.4762 11.8846 20.2629 12.0989C20.1681 12.1704 20.2866 12.2894 20.3814 12.218Z" fill="#C45547"/>
<path d="M14.9067 4.97769C14.3853 6.14472 14.1009 7.35938 14.0298 8.64549C14.0298 8.76458 14.1957 8.76458 14.2194 8.64549C14.2905 7.40702 14.5749 6.21617 15.0726 5.07296C15.12 4.97769 14.9541 4.88243 14.9067 4.97769Z" fill="#631F1F"/>
<path d="M12.8449 27.0083C13.0819 28.342 13.0345 29.6758 12.7738 31.0095C12.7501 31.1286 12.916 31.1762 12.9397 31.0571C13.2241 29.6996 13.2478 28.342 13.0108 26.9606C13.0108 26.8416 12.8449 26.8892 12.8449 27.0083Z" fill="#631F1F"/>
<path d="M26.8512 16.9575C26.7328 18.6247 26.6854 20.3157 26.709 22.0067C26.7327 23.531 26.8512 25.0553 27.3726 26.4843C27.42 26.6034 27.5859 26.5557 27.5385 26.4367C27.0171 24.9362 26.8986 23.3643 26.8749 21.7924C26.8512 20.1728 26.9223 18.5771 27.0171 16.9575C27.0408 16.8385 26.8512 16.8385 26.8512 16.9575Z" fill="#631F1F"/>
<path d="M24.1731 10.4794C23.6517 10.7176 22.9881 10.8128 22.206 10.6223C22.0164 10.5747 22.0638 10.7652 22.1112 10.8366C22.2297 11.0748 22.7037 11.0986 22.917 11.1463C23.3199 11.1939 24.2679 11.2177 24.339 10.6223C24.3627 10.4794 24.339 10.4079 24.1731 10.4794Z" fill="#170301"/>
<path d="M15.9968 10.4794C16.5182 10.7176 17.1818 10.8128 17.9638 10.6223C18.1534 10.5747 18.106 10.7652 18.0586 10.8366C17.9401 11.0748 17.4662 11.0986 17.2529 11.1463C16.85 11.1939 15.902 11.2177 15.8309 10.6223C15.7835 10.4794 15.8309 10.4079 15.9968 10.4794Z" fill="#170301"/>
<path d="M21.4714 13.3374C20.5471 13.647 19.6228 13.6708 18.6985 13.4089C18.5563 13.3612 18.6037 13.6947 18.6748 13.7423C18.817 13.909 19.1251 13.9805 19.3384 14.0281C19.5754 14.0995 19.8361 14.1234 20.0731 14.0995C20.5708 14.0757 21.0448 13.9328 21.4714 13.6708C21.4951 13.647 21.5188 13.647 21.5188 13.6232C21.5662 13.5756 21.5662 13.3136 21.4714 13.3374Z" fill="#C45547"/>
<path d="M14.0533 10.7414C14.1007 11.5988 14.2666 12.4324 14.551 13.266C14.5984 13.385 14.7643 13.3374 14.7169 13.2183C14.4562 12.4086 14.2903 11.5988 14.2429 10.7414C14.2192 10.6461 14.0296 10.6461 14.0533 10.7414Z" fill="#C45547"/>
<path d="M23.0354 12.6705C22.5851 12.6705 22.1112 12.5514 21.732 12.3371C21.0684 11.956 20.7129 11.313 20.7129 10.5032C20.7129 9.31234 21.732 8.33585 23.0117 8.33585C23.6753 8.31203 24.3152 8.57402 24.7418 9.00272C25.1447 9.40761 25.358 9.93158 25.358 10.5032C25.358 11.2891 25.0025 11.956 24.3389 12.3371C23.936 12.5753 23.4857 12.6705 23.0354 12.6705ZM23.0354 8.50257C23.0117 8.50257 23.0117 8.50257 22.988 8.50257C21.8031 8.52638 20.8551 9.40761 20.8551 10.5032C20.8551 11.2415 21.1869 11.8369 21.7794 12.1704C22.4903 12.5753 23.4857 12.5753 24.2204 12.1704C24.8366 11.8131 25.1684 11.2177 25.1684 10.5032C25.1684 9.97921 24.9788 9.50288 24.5996 9.12181C24.2204 8.74073 23.6516 8.50257 23.0354 8.50257Z" fill="#2B0303"/>
<path d="M16.8736 12.4562C15.7597 12.4562 14.5273 11.7655 14.5273 10.2888C14.5273 9.71722 14.7406 9.19325 15.1435 8.78837C15.5938 8.35966 16.2337 8.09768 16.8736 8.12149C18.1534 8.14531 19.1724 9.09799 19.1724 10.2888C19.1724 10.9557 18.9117 11.5273 18.4377 11.9084C18.0349 12.2656 17.4661 12.4562 16.8736 12.4562ZM16.8499 8.28821C16.2574 8.28821 15.6649 8.50256 15.262 8.90745C14.8828 9.2647 14.6932 9.74104 14.6932 10.2888C14.6932 11.6464 15.8071 12.2894 16.8499 12.2894C17.4187 12.2894 17.9401 12.1227 18.343 11.7893C18.7695 11.432 19.0065 10.9081 19.0065 10.2888C19.0065 9.19325 18.0823 8.31203 16.8736 8.28821C16.8736 8.28821 16.8736 8.28821 16.8499 8.28821Z" fill="#2B0303"/>
<path d="M20.8315 10.0983C20.3338 9.81248 19.7413 9.74103 19.1962 9.95538C19.1014 10.003 19.1251 10.1697 19.2436 10.1221C19.7413 9.93157 20.2627 9.9792 20.7367 10.2412C20.8551 10.3126 20.9499 10.1459 20.8315 10.0983Z" fill="#2B0303"/>
<path d="M14.6223 10.003C14.3379 9.5743 13.8876 9.31232 13.3662 9.31232C13.2477 9.31232 13.2477 9.47904 13.3662 9.50285C13.8165 9.50285 14.2194 9.74102 14.4564 10.1221C14.5275 10.1697 14.6934 10.0983 14.6223 10.003Z" fill="#2B0303"/>
<path d="M8.46031 46.4191C6.54066 46.5858 4.6921 47.1812 3.05684 48.2053C2.96205 48.2768 3.05684 48.4197 3.15164 48.3482C4.7632 47.3479 6.56436 46.7287 8.46031 46.5858C8.57881 46.5858 8.57881 46.4191 8.46031 46.4191Z" fill="#2B0303"/>
<path d="M31.0695 59.6374C29.0788 61.4237 26.5193 62.2811 24.0071 63.0909C23.8886 63.1147 23.936 63.3053 24.0545 63.2576C26.5904 62.424 29.1736 61.5666 31.188 59.7565C31.2828 59.6851 31.1406 59.566 31.0695 59.6374Z" fill="#2B0303"/>
</svg>
