<svg width="84" height="85" viewBox="0 0 84 85" fill="none" xmlns="http://www.w3.org/2000/svg">
<path d="M83.6905 71.4223C83.999 69.2052 84.0183 66.7761 82.8805 64.829C82.8291 64.739 82.7198 64.694 82.6169 64.7133C82.5526 64.7262 82.4884 64.739 82.4241 64.7519C80.5406 65.1631 78.6957 65.7029 76.8829 66.3648C76.87 66.3713 76.8572 66.3713 76.8443 66.3777C76.7479 66.397 74.7937 67.0075 74.6908 67.001C70.3903 66.699 68.4682 66.5769 66.7454 67.046C66.0448 67.2388 65.5112 67.6886 65.4534 68.4469C65.3762 69.3659 65.7619 70.3877 66.0448 71.2423C66.6426 73.0353 67.2533 74.931 68.3461 76.4926C68.7768 77.1095 69.2846 77.8228 70.1332 77.6814C70.956 77.5465 71.7467 76.8331 72.3895 76.3383C73.9451 75.1495 75.3144 73.7421 76.4779 72.1677C76.5036 72.1356 76.5358 72.1035 76.5743 72.0906C77.0114 71.9042 77.4036 71.66 77.77 71.3644C77.8471 71.3066 77.9436 71.2873 78.0336 71.3259C78.535 71.5572 79.1264 71.6215 79.6663 71.7114C80.457 71.8464 81.2541 71.9107 82.0577 71.8464C82.5398 71.8078 83.0155 71.7307 83.4847 71.6279C83.594 71.6086 83.6776 71.5251 83.6905 71.4223Z" fill="#FFE4D9"/>
<path d="M78.3996 65.2337C77.564 64.4433 76.9404 64.3983 75.9505 63.82C75.944 63.8071 75.944 63.8007 75.9376 63.7878C75.2883 62.464 74.5748 61.1724 73.7841 59.9257C73.6555 59.72 73.4627 59.6622 73.2827 59.6943C73.167 59.6751 73.0384 59.6943 72.9099 59.7715C72.4277 60.0606 71.9328 60.3305 71.4249 60.5683C71.3285 60.6133 71.2449 60.684 71.1807 60.7611C70.9042 60.896 70.7242 61.2238 70.9621 61.5451C71.3478 62.072 71.9713 63.3958 72.2863 64.0706C72.6077 64.7646 72.6399 64.6939 71.9906 65.2594C71.6435 65.5615 71.5728 66.172 71.6563 66.6154C71.6949 66.8082 71.5149 66.8403 72.222 66.8853C72.7042 66.9174 72.7556 67.0267 73.1156 67.1102C73.887 67.2837 74.4591 67.8556 75.1212 68.2476C75.5905 68.524 76.1562 68.2733 76.6126 68.0806C77.3518 67.7657 78.0589 67.3737 78.7082 66.9046C79.486 66.3391 78.9396 65.7478 78.3996 65.2337Z" fill="#FAC1A2"/>
<path d="M9.27644 41.3476C8.96146 40.6857 8.65933 40.0173 8.37005 39.3426C8.10006 38.7128 7.88793 38.0252 7.54723 37.4276C7.26438 36.9199 6.82083 36.65 6.31299 36.4058C5.70873 36.1166 5.2459 35.7953 4.93091 35.1848C4.89877 35.1206 4.85377 35.082 4.80877 35.0499C4.64806 34.9085 4.32022 34.9213 4.21094 35.1912C3.75453 36.3351 4.58378 37.2027 5.47731 37.7617C6.4737 38.3851 6.50584 40.178 6.69226 41.3283C6.57655 41.4504 6.83369 41.354 7.00725 41.4889C7.57937 41.9323 8.23506 42.1701 8.96146 42.1573C9.2443 42.1508 9.34715 41.8617 9.26359 41.6624C9.31501 41.5725 9.32787 41.4568 9.27644 41.3476Z" fill="#D4735D"/>
<path d="M13.3261 46.2379C13.3004 45.5888 13.2682 44.9269 13.1139 44.2907C12.9597 43.6545 12.0275 42.7291 12.0083 42.7741C11.3269 44.1044 10.8447 45.351 10.459 46.7969C10.2662 47.5103 10.0991 48.2428 10.0026 48.9754C9.92549 49.6052 10.0412 50.1771 10.414 50.6977C10.8126 51.2503 11.3461 51.9701 11.899 52.3556C11.9504 52.3942 12.9918 51.3146 13.0304 51.0832C13.1589 50.2864 13.2425 49.4895 13.2939 48.6863C13.3518 47.8701 13.3582 47.054 13.3261 46.2379Z" fill="#A14F40"/>
<path d="M13.564 46.5142C12.6897 45.5438 11.7962 44.5992 10.877 43.6738C10.427 43.2176 10.0734 42.6842 9.73915 42.1444C9.44345 41.6753 9.19274 41.0519 8.75562 40.7049C8.39563 40.4221 7.95851 40.2615 7.61138 39.9595C7.61138 39.6639 8.11922 38.6485 8.26707 38.5264C8.59491 38.2629 9.77129 37.6589 9.17989 37.2155C8.92275 37.0227 8.51777 37.2926 8.2735 37.4018C7.90708 37.5689 7.5471 37.7681 7.23854 38.0252C6.7757 38.4172 6.525 38.9441 6.36429 39.5032C6.345 39.3747 6.33215 39.2462 6.31286 39.1241C6.24215 38.4557 6.49285 38.0766 6.98141 37.6653C7.32853 37.3761 7.69495 37.0934 7.90708 36.6885C8.05493 36.4122 8.18993 35.9174 7.94565 35.6539C7.67566 35.3583 7.32211 35.6153 7.07783 35.7953C6.58928 36.1551 6.0943 36.5022 5.61218 36.8685C5.35504 37.0612 5.1172 38.0894 4.92435 38.5136C4.91149 38.5457 4.86007 38.5328 4.86007 38.5007C4.88578 37.9995 4.24938 36.7978 4.6865 36.5022C4.93078 36.3351 5.97859 36.0459 6.21644 35.8595C6.57642 35.5768 6.78213 35.5511 6.91069 35.1012C7.01355 34.7221 6.80141 34.5036 6.38357 34.5165C6.08144 34.5229 5.81145 34.6835 5.54789 34.7992C4.80221 35.1205 3.9151 35.3326 3.34941 35.9624C2.69373 36.6949 2.92515 37.781 3.15656 38.7321C3.00229 38.6549 2.85443 38.5778 2.70658 38.4943C2.44945 38.3529 2.0509 38.1794 1.89662 37.9095C1.53663 37.2862 2.76444 35.8467 3.08585 35.3968C3.31727 35.0691 3.25942 33.4176 2.50088 34.0409C2.12804 34.3558 1.80019 34.8442 1.48521 35.2041C1.11236 35.6346 0.765235 36.0845 0.456677 36.5536C0.109548 37.0869 -0.154012 37.5818 0.10312 38.1794C0.308826 38.6549 0.733094 39.0148 1.15093 39.304C1.72948 39.696 2.37231 39.9852 2.96372 40.3707C3.61297 40.7949 4.21081 41.2897 4.80221 41.7909C5.44504 42.3307 6.02359 42.9541 6.6857 43.4682C7.03926 43.7445 7.39925 44.0208 7.77852 44.2715C8.08707 44.4771 8.61419 44.6635 8.85847 44.9269C10.022 46.2122 10.9991 47.6645 12.214 48.9048C12.2205 49.014 12.2912 49.1104 12.4262 49.1168C12.4712 49.1618 12.5162 49.2068 12.5612 49.2518C12.7733 49.4574 13.0883 49.1811 12.9662 48.9562C13.4868 48.6156 13.6733 47.401 13.6026 46.7905C13.6411 46.707 13.6411 46.6042 13.564 46.5142Z" fill="#FAC1A2"/>
<path d="M64.8744 57.9143C64.2637 55.9478 63.653 53.9878 63.0359 52.0214C61.8274 48.1464 60.606 44.2714 59.3525 40.4092C58.2725 37.0869 57.064 33.7388 55.2062 30.7571C54.3705 29.414 53.3741 28.1416 52.172 27.107C50.9507 26.0595 49.53 25.3205 48.0129 24.8C44.5802 23.624 40.7875 23.2062 37.1812 23.1741C35.5935 23.1613 33.9542 23.2448 32.4757 23.881C31.0679 24.4851 30.0265 25.5968 29.268 26.9078C28.4002 28.4115 27.8345 30.0887 27.3652 31.7467C26.8574 33.5203 26.4331 35.3261 26.0089 37.119C25.1282 40.8012 24.3375 44.5027 23.7139 48.2364C23.1033 51.925 22.6404 55.6522 22.4604 59.3923C22.2997 62.6183 22.3897 65.9727 23.5211 69.0381C23.7975 69.7899 24.1382 70.5097 24.5303 71.2037C24.6525 71.4157 25.0125 71.3836 25.0703 71.133C26.446 64.9574 33.5878 62.6825 39.1226 62.117C45.0623 61.5129 51.1885 62.7275 56.4083 65.6386C57.0961 66.0242 57.784 66.5318 58.5939 66.6154C59.391 66.6989 60.1303 66.3262 60.8245 65.992C61.6924 65.5743 62.5345 65.1181 63.3637 64.6297C64.1287 64.1927 65.2215 59.026 64.8744 57.9143Z" fill="#A14F40"/>
<path d="M27.5201 63.7172C27.6036 63.2288 27.6936 62.734 27.7708 62.2456C27.8608 61.6737 27.9058 61.1017 27.9701 60.5234C28.105 59.4181 28.2658 58.3128 28.465 57.2139C28.6579 56.1535 28.8764 55.0996 29.1271 54.0522C29.3779 53.0176 29.6414 51.9572 29.5836 50.884C29.5386 49.9587 29.14 49.0719 28.7157 48.2621C28.285 47.4524 27.7836 46.6813 27.2694 45.923C26.4465 44.6892 25.5016 43.5325 24.8523 42.2086C24.4281 44.2072 24.0424 46.2186 23.7081 48.2364C23.0974 51.9251 22.6346 55.6523 22.4546 59.3924C22.2939 62.6183 22.3839 65.9728 23.5152 69.0381C23.7917 69.79 24.1324 70.5097 24.5245 71.2038C24.6466 71.4158 25.0066 71.3837 25.0645 71.1331C25.3987 69.6358 26.0737 68.3634 26.9801 67.2902C27.1022 66.0949 27.3208 64.8932 27.5201 63.7172Z" fill="#1A1524"/>
<path d="M13.3329 45.1583C13.3522 45.0619 13.3265 44.9591 13.2365 44.8691C12.5422 44.2072 11.8672 43.5196 11.2308 42.7999C11.1023 42.652 10.8709 42.6585 10.7487 42.8127C10.2409 43.4618 9.76519 44.1301 9.3152 44.8177C8.94879 45.3639 8.60166 45.923 8.26096 46.4885C8.15811 46.6556 8.19025 46.8741 8.33167 47.0026C8.3831 47.0476 8.4281 47.0926 8.4731 47.1311C8.83308 47.4974 9.19307 47.8573 9.55305 48.2172C10.273 48.9369 10.9994 49.6566 11.7258 50.3699C11.9187 50.5563 12.3558 50.4406 12.3172 50.1257C12.0987 48.4485 13.0372 46.9319 13.3586 45.3254C13.3522 45.2675 13.3458 45.2097 13.3329 45.1583Z" fill="#FFE4D9"/>
<path d="M40.4666 18.8621C41.1415 18.6115 42.6715 18.6629 43.3207 18.3416C42.5686 17.9882 41.013 17.307 40.2094 17.0756C40.0616 17.0371 39.9523 17.1013 39.8944 17.1977C39.7594 17.2684 39.6759 17.4226 39.7916 17.5833C40.068 17.9625 40.2416 18.4508 40.4666 18.8621Z" fill="#A14F40"/>
<path d="M24.3058 47.4396C23.0715 46.9127 21.7087 46.4693 20.3652 46.3407C19.9474 46.3022 19.5231 46.3022 19.1053 46.3472C18.7581 46.3857 18.3917 46.5399 18.0382 46.5399C17.3246 46.5335 16.4761 45.8202 15.9425 45.4025C14.8304 44.5221 12.4841 42.5621 12.4005 42.6392C12.0791 42.4593 11.7898 42.9605 12.1113 43.1533C12.722 43.5196 12.8184 44.2329 12.7927 44.8884C12.7605 45.6081 12.6577 46.3279 12.5291 47.0348C12.272 48.455 11.8734 49.8366 11.3142 51.1604C11.0827 51.7066 11.8991 52.3171 12.2205 52.7027C12.7155 53.2939 13.2169 53.8851 13.7376 54.457C14.734 55.5366 16.5532 56.9697 17.8003 57.7665C19.7417 59.0004 21.9337 59.2253 23.6629 57.2524C24.4665 56.3399 24.7365 55.1254 24.9679 53.9622C25.2314 52.6577 25.5978 51.3275 25.72 49.9972C25.8293 48.8213 25.3986 47.9023 24.3058 47.4396Z" fill="#A14F40"/>
<path d="M29.7311 25.3205C29.6154 24.0417 29.2489 22.7693 28.3811 21.7925C27.6226 20.9314 25.2055 20.0446 24.627 20.4559C20.7122 23.232 20.2236 29.414 19.1565 33.9124C18.5201 36.5985 17.8644 39.2847 17.2794 41.9901C16.9966 43.2882 16.7138 44.5992 16.5016 45.9101C16.4116 46.4692 16.3923 46.9962 16.598 47.536C16.8423 48.185 17.1959 48.8084 17.498 49.4317C18.0573 50.582 18.5458 51.8223 19.2529 52.8954C19.8443 53.7951 20.6929 54.5341 21.7985 54.6691C22.9364 54.804 23.8106 54.155 24.357 53.2039C24.942 52.1693 25.3855 51.019 25.8419 49.9201C26.864 47.4653 27.5647 44.9783 27.8219 42.3307C28.0919 39.5867 28.3168 36.8492 28.7283 34.118C29.1654 31.2326 30.0011 28.2444 29.7311 25.3205Z" fill="#A14F40"/>
<path d="M34.3209 17.2685C33.6395 17.6476 32.6624 18.1617 32.0518 18.6694C32.3732 20.1024 32.9132 21.362 33.2989 22.7757C33.7745 21.2399 34.3402 19.7297 35.0409 18.2774C35.0602 18.2324 35.0795 18.1874 35.0859 18.1424C35.4459 17.7055 34.9124 16.9407 34.3209 17.2685Z" fill="#A14F40"/>
<path d="M56.4921 83.2207C56.2735 79.23 55.9071 73.53 55.4571 70.6318C55.1807 68.8517 54.8722 67.0716 54.5443 65.298C54.2165 63.5308 53.9336 61.7314 53.4515 59.9964C52.9051 58.0299 52.1337 56.1213 51.4459 54.2063C51.3816 54.0264 51.2595 53.9107 51.118 53.8529C51.0473 53.7565 50.9445 53.6858 50.7902 53.6537C49.3117 53.3388 47.801 53.1717 46.2904 53.191C44.7219 53.2103 43.1662 53.4416 41.5977 53.3709C40.0871 53.3002 38.5828 53.1139 37.0658 53.0882C35.4973 53.056 33.9288 53.1203 32.3731 53.2681C31.8524 53.3195 31.6917 53.9043 31.891 54.232C31.9296 54.2963 31.9296 54.3734 31.9038 54.4441C31.2417 56.025 31.3381 57.7472 31.2096 59.4373C31.0553 61.4808 30.2775 63.4215 29.7246 65.3751C29.3197 66.8017 26.6069 78.4653 26.4526 83.9019C30.3032 84.5895 34.173 84.9429 38.0557 84.9944C38.8014 82.154 39.9521 77.27 40.2478 75.9719C40.5821 74.4939 40.8585 72.791 41.5656 71.3965C41.6684 71.1908 41.9706 71.2294 42.022 71.4543C42.2984 72.7524 42.5877 74.0441 42.922 75.3293C43.3462 76.9487 44.4583 81.9033 45.3583 84.763C46.5025 84.6795 47.6468 84.5702 48.7846 84.4353C51.3623 84.1268 53.9401 83.7155 56.4921 83.2207Z" fill="#68668C"/>
<path d="M55.4572 70.6318C55.1808 68.8517 54.8722 67.0716 54.5444 65.298C54.2165 63.5308 53.9337 61.7314 53.4516 59.9964C53.2009 59.0903 52.8987 58.197 52.5838 57.3102C52.1531 57.5416 51.7031 57.6958 51.2402 57.8243C51.7545 57.6058 52.2302 57.3937 52.5516 57.2202C52.1916 56.2113 51.8124 55.2153 51.4524 54.2128C51.3881 54.0328 51.266 53.9172 51.1245 53.8593C51.0538 53.7629 50.951 53.6922 50.7967 53.6601C49.3182 53.3452 47.8075 53.1781 46.2969 53.1974C44.7284 53.2167 43.1727 53.4481 41.6042 53.3774C40.0936 53.3067 38.5893 53.1203 37.0723 53.0946C35.5038 53.0625 33.9352 53.1267 32.3796 53.2745C31.8589 53.326 31.6982 53.9107 31.8975 54.2385C31.936 54.3027 31.936 54.3799 31.9103 54.4505C31.4925 55.453 31.3768 56.5069 31.3125 57.5737C32.161 57.7408 36.7316 57.8179 37.9079 56.7833C38.1586 56.5648 39.5922 59.0581 39.9457 59.4823C40.3314 59.945 40.7685 60.4012 41.3599 60.5747C42.0799 60.7932 42.9156 60.594 43.6227 60.4141C44.4134 60.2084 45.1848 59.9321 45.9562 59.6751C46.7919 59.3987 47.6468 59.1738 48.4889 58.8975C48.5532 58.8782 48.8232 58.7754 49.2025 58.634C49.4596 59.6558 49.7617 60.941 49.9803 61.9242C50.2953 63.338 52.5002 71.9941 53.4773 72.7203C54.2101 73.2665 55.0587 73.6778 55.9329 73.9863C55.7915 72.8681 55.6308 71.7499 55.4572 70.6318Z" fill="#1A1524"/>
<path d="M52.1855 55.7486C52.3591 54.8939 52.1212 53.84 52.1469 53.0175C52.1919 51.6037 52.2241 50.1835 52.2498 48.7697C52.2948 45.9872 52.3076 43.2111 52.2819 40.4285C52.2369 35.5831 52.3719 30.5771 51.7226 25.7703C51.5684 24.62 51.247 23.4633 50.6684 22.4479C50.2184 21.6575 49.5113 20.3658 48.4956 20.2759C48.1485 20.2437 47.795 20.3209 47.4478 20.3915C43.0702 21.2976 38.4225 21.5868 34.0062 20.745C32.9199 20.5394 31.8528 20.353 30.7407 20.4558C28.0665 20.7064 26.6908 21.9017 25.9644 24.4786C25.0002 27.8974 24.8845 31.6246 24.9359 35.159C25.0259 41.3475 25.9837 48.1014 28.8443 53.6794C29.41 54.7718 30.5478 56.7061 31.9942 56.8282C33.5691 56.9632 36.7511 54.1099 38.0368 55.2345C38.2425 55.4145 38.3646 55.6651 38.4932 55.9093C39.1875 57.2716 41.3024 59.9706 41.5531 59.8807C44.3622 58.8589 48.2835 58.544 51.3241 56.931C51.8448 56.6676 52.0826 56.2434 52.1855 55.7486Z" fill="#FFE4D9"/>
<path d="M47.6533 4.51242C47.4733 3.97905 47.1391 3.50993 46.6312 3.10508C45.9627 2.5717 45.1977 2.14757 44.3877 1.86482C43.6099 1.58849 42.6971 1.80056 41.9707 1.44712C41.6686 1.29931 41.4693 0.990855 41.1929 0.804494C40.8715 0.579576 40.4986 0.418921 40.1193 0.309675C38.9815 -0.0244883 37.593 -0.159439 36.4681 0.271118C35.6195 0.598855 34.7839 0.952297 33.9289 1.28003C33.1125 1.58849 32.2447 1.79413 31.5118 2.28895C30.6312 2.88659 29.9241 3.7477 29.6155 4.76947C29.1205 6.40816 29.6348 8.40029 30.4769 9.82048C30.9526 10.6173 33.1318 15.6105 33.4468 15.8997C33.4211 15.919 32.9004 9.1136 33.5111 8.46455C34.0896 7.84763 34.7517 7.29498 35.4781 6.86442C36.2302 6.42101 37.053 6.11255 37.9209 5.98403C38.943 5.83623 39.9844 5.93262 41 6.08685C41.81 6.20895 42.8899 6.25393 43.5006 6.87085C43.8092 7.18573 43.9313 7.61629 44.0085 8.03399C44.0728 8.40029 44.0856 8.81799 44.2335 9.15858C44.3685 9.46061 44.6834 9.44133 44.9663 9.4092C45.307 9.36422 45.6413 9.25497 45.9434 9.08789C47.0619 8.47097 47.7047 7.12789 47.8012 5.88121C47.8397 5.37996 47.7947 4.9237 47.6533 4.51242Z" fill="#703831"/>
<path d="M40.4664 18.8622C40.3442 18.104 40.2285 17.3521 40.1064 16.5938C40.0935 16.5038 40.0614 16.4396 40.0164 16.3882C39.9907 16.3367 39.9585 16.2853 39.9007 16.2339C39.2836 15.6877 38.6922 15.1093 38.1522 14.486C37.6379 13.8948 37.1944 13.2329 36.6415 12.6738C36.1273 12.1533 35.5294 11.7163 34.9123 11.3179C34.3016 10.9194 33.6524 10.4118 32.8874 10.431C32.5917 10.4375 32.4503 10.6881 32.4631 10.9194C32.3924 11.0094 32.3539 11.1315 32.3796 11.2729C32.9774 14.8009 33.6395 18.3096 34.3723 21.8119C34.3916 21.9083 35.1759 23.6948 35.7737 24.3053C36.6801 25.2306 37.8243 24.7615 38.6407 23.9711C39.0586 23.5662 39.4057 23.0843 39.74 22.6152C40.0935 22.1139 40.6657 21.4713 40.7364 20.8415C40.8071 20.2246 40.5628 19.4727 40.4664 18.8622Z" fill="#FAC1A2"/>
<path d="M33.9805 13.4577C34.3212 14.5437 34.7069 15.6426 35.4012 16.5615C36.6419 18.2002 38.5511 19.2348 40.576 19.4019C40.5374 19.2156 40.4988 19.0356 40.4731 18.8685C40.351 18.1102 40.2353 17.3584 40.1131 16.6001C40.1003 16.5101 40.0681 16.4459 40.0232 16.3944C39.9974 16.343 39.9653 16.2916 39.9074 16.2402C39.2903 15.694 38.6989 15.1156 38.1589 14.4923C37.6447 13.9011 37.2011 13.2392 36.6483 12.6801C36.134 12.1596 35.5362 11.7226 34.9191 11.3242C34.3984 10.9836 33.852 10.5659 33.2349 10.463C33.4341 11.472 33.672 12.4745 33.9805 13.4577Z" fill="#D4735D"/>
<path d="M44.349 6.73584C44.2333 5.71408 43.7062 4.82726 43.0505 4.04969C42.4205 3.30424 41.6748 2.52667 40.8134 2.03828C40.8006 2.019 40.7813 1.99972 40.762 1.98044C38.4607 -0.127358 34.4944 0.875132 32.6945 3.13716C31.7945 4.26818 31.2867 5.71408 31.3188 7.1664C31.3381 8.03394 31.5695 8.87578 31.8138 9.70476C32.1995 11.035 32.6495 12.4038 33.1637 13.7147C33.4787 14.5244 33.723 15.3534 34.3851 15.9575C36.0436 17.4612 38.7049 18.9457 40.9806 18.091C41.9191 17.7375 42.3241 17.0821 42.6841 16.1888C43.5069 14.126 43.9697 12.1339 44.0661 9.91682C44.0983 8.85007 44.4711 7.8026 44.349 6.73584Z" fill="#FAC1A2"/>
<path d="M44.1756 3.97267C43.5585 2.59745 42.3821 1.63995 40.9743 1.1387C39.4958 0.618178 37.8115 0.508933 36.2623 0.746703C34.6295 0.997325 33.2089 1.74919 32.1739 3.04086C31.2033 4.24257 30.3033 5.77201 30.5219 7.37856C30.6247 8.11115 30.9268 8.81161 31.409 9.37712C31.8139 9.85908 32.4761 10.3796 33.1382 10.0904C33.781 9.80767 34.2953 8.7345 34.4431 6.83876C34.5781 5.11653 34.7452 3.02801 36.2816 2.68742C37.1044 2.50106 37.9851 2.53319 38.7822 2.83522C39.1615 2.9766 40.7364 3.16296 41.1414 3.11155C42.4914 2.93804 44.2141 5.31575 44.4134 6.9223C44.452 7.23076 44.4648 7.54564 44.4584 7.86053C44.4391 7.9505 44.4134 8.04046 44.3941 8.13043C44.3813 8.16899 44.4134 8.18827 44.4456 8.18827C44.4456 8.20112 44.4456 8.21397 44.4456 8.2204C44.4391 8.28466 44.542 8.28466 44.542 8.2204C44.5484 8.10473 44.5548 7.98905 44.5613 7.87338C44.8377 6.56886 44.722 5.18722 44.1756 3.97267Z" fill="#703831"/>
<path d="M42.1313 8.64453L41.8677 7.36571C41.8549 7.30145 41.7584 7.32716 41.7713 7.39142C41.9127 8.07902 42.1184 8.77948 42.1763 9.47994C42.202 9.82696 42.157 10.1933 41.9256 10.4696C41.7199 10.7202 41.4113 10.8744 41.122 11.0158C41.0642 11.0415 41.1156 11.1315 41.1735 11.0993C41.7713 10.7973 42.2599 10.4374 42.2791 9.71129C42.2856 9.35784 42.202 8.99797 42.1313 8.64453Z" fill="#D4735D"/>
<path d="M40.9746 10.0261C40.7303 10.0839 40.4989 10.1546 40.2675 10.2446C40.2096 10.2703 40.2353 10.3603 40.2932 10.341C40.5246 10.251 40.7625 10.1803 41.0003 10.1225C41.0582 10.1097 41.0324 10.0133 40.9746 10.0261Z" fill="#D4735D"/>
<path d="M38.1712 7.72559C38.4446 7.72559 38.6662 7.37171 38.6662 6.93517C38.6662 6.49863 38.4446 6.14474 38.1712 6.14474C37.8979 6.14474 37.6763 6.49863 37.6763 6.93517C37.6763 7.37171 37.8979 7.72559 38.1712 7.72559Z" fill="black"/>
<path d="M43.6165 8.25898C43.5458 8.67026 43.2951 8.97229 43.0572 8.93373C42.8194 8.89517 42.6844 8.52245 42.7551 8.11118C42.8258 7.6999 43.0765 7.39787 43.3144 7.43642C43.5522 7.48141 43.6872 7.8477 43.6165 8.25898Z" fill="black"/>
<path d="M41.3215 12.7509C40.9101 12.4874 40.4344 12.2561 39.9587 12.1275C39.1552 11.9091 38.2102 12.0954 37.5867 12.6673C37.4967 12.7509 37.7088 12.7959 37.8053 12.7316C38.4545 12.6481 39.0909 12.6802 39.7338 12.8023C40.2544 12.9051 41.2058 13.0272 41.5594 13.4449C41.6301 13.5285 41.778 13.4706 41.7908 13.3742C41.8358 13.1043 41.5144 12.873 41.3215 12.7509Z" fill="#D4735D"/>
<path d="M41.7649 13.3548C41.7521 13.3291 41.7392 13.3098 41.7135 13.2906C41.6171 13.1813 41.4049 13.0978 41.2764 13.0207C41.1157 12.9243 40.9614 12.8279 40.8007 12.7379C40.1707 12.3845 39.4379 12.0824 38.6729 12.211C38.2551 12.2817 37.8372 12.4744 37.5351 12.7508C37.3423 12.9307 37.1623 13.207 37.1365 13.4577C37.0787 14.0296 37.9465 13.8946 38.3065 13.8304C39.0008 13.7083 39.56 13.6055 40.2607 13.7854C40.6143 13.8754 41 14.0039 41.3728 13.9139C41.6171 13.8561 41.8935 13.5926 41.7649 13.3548Z" fill="white"/>
<path d="M40.5498 14.4859C39.9905 14.5373 39.4249 14.5502 38.8656 14.5373C38.8013 14.5373 38.8013 14.6337 38.8656 14.6337C39.4313 14.653 39.9905 14.6337 40.5498 14.5823C40.6141 14.5759 40.6141 14.4795 40.5498 14.4859Z" fill="#D4735D"/>
<path d="M42.8448 6.26675C42.7291 6.30531 42.6327 6.34386 42.5684 6.38242C42.292 6.53665 42.0606 6.86439 42.202 7.17285C42.247 7.26924 42.3627 7.34635 42.472 7.34635C42.7484 7.35278 42.9541 7.15999 43.1919 7.05717C43.4619 6.93508 44.0726 6.89652 43.9826 6.45311C43.8798 5.97757 43.1469 6.17036 42.8448 6.26675Z" fill="#703831"/>
<path d="M37.4259 54.2449C35.7481 50.7491 35.2596 46.8162 34.7968 43.0055C34.5525 40.9748 34.3532 38.9441 34.1925 36.907C34.0382 34.902 33.8325 32.8906 34.2953 30.9113C34.546 29.8317 34.9125 28.7778 35.2853 27.7368C35.671 26.6636 36.1017 25.6097 36.5645 24.5686C36.5902 24.5108 36.5067 24.4594 36.481 24.5172C35.671 26.3359 34.951 28.2059 34.4046 30.1145C34.1346 31.0527 33.9482 32.0038 33.9096 32.9806C33.8711 34.0152 33.9611 35.0498 34.0318 36.078C34.1796 38.1472 34.3725 40.2165 34.6103 42.2729C34.8353 44.2393 35.0796 46.2057 35.446 48.1529C35.8381 50.2607 36.4038 52.3492 37.3359 54.2899C37.3681 54.3542 37.4516 54.3028 37.4259 54.2449Z" fill="#1A1524"/>
<path d="M39.3607 5.08438C38.9878 4.84019 38.5057 4.68596 38.1714 4.60242C37.8179 4.51245 37.3293 4.4032 36.9693 4.46747C36.8408 4.49317 36.7186 4.57029 36.68 4.69881C36.6286 4.87232 36.7636 5.04583 36.9243 5.12937C37.6829 5.54707 38.525 5.79127 39.2771 6.22825C39.3607 6.27323 39.4442 6.31822 39.5342 6.3375C39.7014 6.36963 39.9199 6.28609 39.9456 6.0933C40.0035 5.66274 39.7335 5.32858 39.3607 5.08438Z" fill="#703831"/>
<path d="M40.5432 4.82727C40.4983 4.78229 40.434 4.84655 40.4725 4.89796C41.0189 5.51488 40.5947 6.32458 40.1126 6.82583C40.0676 6.87081 40.1383 6.9415 40.1833 6.89652C40.704 6.35029 41.1218 5.48275 40.5432 4.82727Z" fill="#D4735D"/>
<path d="M42.1573 21.0921C42.1637 19.5306 40.4602 18.2068 40.4473 18.7466C40.4216 19.9868 39.5988 21.3106 38.7503 22.1139C37.9403 22.885 37.0982 23.6305 36.1339 24.2024C36.0632 24.241 36.0439 24.3309 36.0825 24.4016C36.3782 24.935 36.6739 25.4748 36.9696 26.0082C37.1625 26.3552 37.291 26.7536 37.5482 27.0621C37.9082 27.4862 38.4931 26.9207 38.8467 26.6701C39.9716 25.8797 40.833 24.7615 41.4437 23.5405C41.8101 22.8079 42.1508 21.9404 42.1573 21.0921Z" fill="#FFFBF7"/>
<path d="M66.1475 61.1596C65.4404 55.8708 63.3833 50.9226 61.6669 45.9037C60.7284 43.1533 59.8349 40.4029 59.1278 37.5818C58.4464 34.8699 57.855 32.1324 57.1478 29.4269C56.7364 27.8653 56.2093 26.3359 55.6179 24.8322C55.3222 24.0674 55.0265 23.3027 54.7115 22.5509C54.4287 21.889 54.1587 20.9957 53.683 20.4495C52.9309 19.5819 51.4074 19.6076 50.366 19.5562C48.6303 19.4663 46.8947 19.3377 45.1591 19.4534C44.4648 19.1064 43.9055 18.6501 43.2241 18.2903C43.057 18.2067 42.6906 18.0654 42.5234 17.9818C41.8549 18.316 41.1606 18.361 40.46 18.618C41.2699 20.141 41.8613 22.0817 42.2535 23.7397C42.832 26.1752 43.5263 28.5786 44.0855 31.0206C45.1719 35.7439 45.9176 40.5314 46.9204 45.274C47.4154 47.6195 47.9939 49.9523 48.6882 52.2464C49.3824 54.5534 50.1667 56.8283 50.8288 59.1418C51.4974 61.468 51.9988 63.8393 52.468 66.217C52.7059 67.4059 52.918 68.6012 53.1816 69.7836C53.368 70.6318 53.908 71.0881 54.7951 70.9339C55.8429 70.7539 56.9164 70.1306 57.8421 69.6422C58.8835 69.1024 59.8863 68.4919 60.8441 67.8172C62.1555 66.8982 63.4026 65.8829 64.5275 64.7454C65.5046 63.7558 66.3725 63.1196 66.1925 61.6094C66.186 61.4616 66.1667 61.3138 66.1475 61.1596Z" fill="#A14F40"/>
<path d="M33.6009 10.7394C33.5302 9.98757 33.2538 9.24213 32.8424 8.64449C32.3924 7.98902 31.4025 7.68699 30.7146 8.13682C29.8982 8.6702 30.2582 10.2768 30.5732 11.0736C30.8496 11.7741 31.4217 12.6159 32.1417 12.9115C32.971 13.2521 33.4274 12.5388 33.5624 11.8126C33.6267 11.4656 33.6395 11.0993 33.6009 10.7394Z" fill="#FAC1A2"/>
<path d="M32.8551 11.6392C32.5466 11.3693 32.3537 10.9965 32.3345 10.5853C32.3152 10.2061 32.4437 9.82696 32.3023 9.46066C32.2895 9.43496 32.283 9.40925 32.2702 9.38355C32.2702 9.3707 32.2637 9.35784 32.2573 9.35142C32.013 8.86302 31.4602 8.63168 30.9267 8.77948C30.8688 8.79876 30.8945 8.88873 30.9524 8.87588C31.3316 8.77306 31.7302 8.86303 32.0066 9.15221C32.0452 9.19719 32.0837 9.24217 32.1159 9.29358C31.3445 9.08152 30.7724 10.3154 31.2738 10.8873C31.3188 10.9323 31.3831 10.868 31.3445 10.8166C30.8945 10.3025 31.4602 9.09437 32.1866 9.42211C32.2959 9.6663 32.2895 9.94263 32.2637 10.2254C32.2123 10.8037 32.3473 11.3243 32.7973 11.7163C32.8359 11.7484 32.9001 11.6841 32.8551 11.6392Z" fill="#D4735D"/>
<path d="M36.0825 23.9324C35.8832 23.5918 35.684 23.2577 35.4911 22.9107C34.7004 21.484 33.8905 19.9674 33.6655 18.3352C33.659 18.2709 31.6855 18.9907 31.6855 21.4455C31.6855 22.9685 33.0869 26.6893 33.8133 27.062C33.8326 27.0748 35.8704 25.5904 36.2239 24.755C36.3589 24.4144 36.2625 24.2345 36.0825 23.9324Z" fill="#FFFBF7"/>
<path d="M32.8552 18.1552C32.3602 18.4765 31.2353 19.1834 30.7596 19.524C29.1011 19.3505 27.3076 19.4083 25.7327 19.9417C25.032 20.1795 24.3441 20.5394 23.862 21.1177C23.3285 21.7603 23.1228 22.5443 23.0006 23.354C22.7049 25.2626 22.5956 27.1905 22.6856 29.1184C22.7756 31.0848 23.1099 33.0191 23.3285 34.9726C24.1384 42.2407 22.165 49.3031 20.7764 56.372C20.1529 59.5658 19.4843 67.3608 19.5872 67.997C19.7993 69.2758 24.8777 73.3565 25.3084 71.5057C26.0798 68.1769 27.584 52.9596 28.0597 49.5088C29.0111 42.5684 30.3482 35.6795 31.7945 28.8292C32.2124 26.8563 33.4016 21.6254 33.993 19.6975C33.5752 18.2452 33.813 17.6283 32.8552 18.1552Z" fill="#A14F40"/>
<path d="M24.4087 29.0606C24.023 30.8535 23.798 32.6849 23.7402 34.5164C23.7145 35.4482 23.7273 36.38 23.7852 37.3054C23.843 38.2501 23.9652 39.1947 24.0359 40.1394C24.113 41.129 24.1002 42.1058 23.9587 43.089C23.8238 44.0015 23.618 44.9076 23.4252 45.8073C23.0202 47.7094 22.6088 49.618 22.2038 51.5202C21.7474 53.6473 21.2974 55.7744 20.841 57.9079C20.8282 57.9721 20.9246 57.9978 20.9374 57.9336C21.7474 54.1549 22.5509 50.3828 23.3609 46.6041C23.7466 44.7984 24.2287 42.9733 24.1902 41.1097C24.1709 40.1394 24.0423 39.1754 23.9587 38.2115C23.8752 37.2797 23.8302 36.3479 23.8302 35.4161C23.8302 33.289 24.0616 31.1684 24.5052 29.0863C24.5116 29.0284 24.4216 29.0027 24.4087 29.0606Z" fill="#1A1524"/>
<path d="M75.4558 60.2214C75.3144 59.7844 75.1537 59.3603 74.9673 58.9426C74.7037 58.3385 74.3051 57.1111 73.4952 57.1368C73.0452 57.1497 72.5695 57.3746 72.1452 57.5031C71.6503 57.6509 71.1617 57.7987 70.6667 57.9529C69.6832 58.2485 68.6997 58.5506 67.7161 58.8462C67.2919 58.9747 67.1954 59.3988 67.3176 59.7202C67.3047 59.8358 67.3176 59.9579 67.3819 60.0864C67.8318 61.0311 68.2625 61.9886 68.7254 62.9268C68.9182 63.3124 69.1625 63.6401 69.6318 63.6401C70.0239 63.6401 70.4546 63.4923 70.8339 63.4088C71.8174 63.1903 75.6487 62.2778 75.7065 61.4167C75.7451 61.0247 75.5779 60.5941 75.4558 60.2214Z" fill="#FFE4D9"/>
<path d="M21.6446 50.3956C21.1047 49.4766 20.3975 48.6605 19.5554 47.9986C19.1569 47.6837 18.7262 47.4138 18.2762 47.1761C17.7619 46.9062 17.2284 46.6555 16.8234 46.225C16.7784 46.18 16.7077 46.2507 16.7527 46.2957C17.1062 46.6748 17.5562 46.919 18.0126 47.1504C18.4883 47.3946 18.9447 47.6645 19.3754 47.9793C20.2625 48.6477 21.0082 49.4895 21.5675 50.4406C21.5932 50.4984 21.6768 50.447 21.6446 50.3956Z" fill="#1A1524"/>
<path d="M21.2073 47.973C20.3652 47.491 19.4781 47.1054 18.5588 46.8034C18.501 46.7841 18.4752 46.8805 18.5331 46.8998C19.4459 47.1954 20.3202 47.5809 21.1558 48.0565C21.2137 48.095 21.2651 48.0051 21.2073 47.973Z" fill="#1A1524"/>
<path d="M74.6584 57.8437C73.9577 55.0804 68.7315 44.882 67.6387 42.1508C65.5109 36.8685 62.5603 31.6697 59.3397 26.9978C58.4333 25.6804 57.5398 24.3438 56.5241 23.1035C55.502 21.8568 54.6406 21.105 53.3421 20.1475C53.1814 20.0318 52.4036 19.9483 52.3586 20.0832C50.5201 25.4234 50.5651 31.3677 52.5193 36.6693C53.49 39.2912 54.8592 41.7396 56.3184 44.1173C57.8741 46.6492 64.7845 57.5288 66.8287 60.1828C66.938 60.3306 67.1115 60.3499 67.2465 60.3049C67.3044 60.3242 67.3687 60.3306 67.4394 60.3113C69.4707 59.7972 74.7034 58.0236 74.6584 57.8437Z" fill="#A14F40"/>
<path d="M80.193 67.8686C80.0773 66.9946 79.3638 66.217 78.7659 65.613C78.7338 65.5808 78.7017 65.5616 78.6695 65.5551C78.5924 65.4716 78.4702 65.433 78.3417 65.5037C77.1524 66.1785 74.7032 67.9907 74.774 68.0549C75.0761 68.3313 75.3847 68.6076 75.6868 68.8839C76.0468 69.2117 76.2846 69.4558 76.2075 69.9828C76.1368 70.4326 76.0596 70.8825 75.9953 71.3323C75.9568 71.5958 75.7189 72.3669 75.9953 72.5533C76.0789 72.6111 76.1818 72.624 76.2782 72.624C76.4646 72.624 76.6639 72.5854 76.8117 72.4698C77.0303 72.3027 77.1139 72.0135 77.1846 71.7436C77.2746 71.3901 77.3646 71.0367 77.4546 70.6833C77.4546 71.0496 77.4546 71.4223 77.461 71.7886C77.461 71.8914 77.461 72.0006 77.5124 72.0906C77.6796 72.3798 78.4381 72.142 78.6824 72.0585C79.8652 71.6408 79.8459 70.4969 80.0259 69.443C80.1159 68.9289 80.2637 68.3891 80.193 67.8686Z" fill="#FAC1A2"/>
<path d="M65.4531 57.7472C62.5604 53.6023 59.6612 49.4574 57.0578 45.1262C55.7785 42.9927 54.5507 40.8206 53.4643 38.5843C52.9115 37.4404 52.423 36.2644 52.1658 35.0177C51.9087 33.7646 51.8637 32.4665 51.9601 31.1941C52.1787 28.283 53.1494 25.5005 54.12 22.7693C54.1393 22.7115 54.0493 22.6858 54.0236 22.7436C53.1622 25.1663 52.3008 27.6211 51.9601 30.1852C51.793 31.464 51.748 32.7557 51.9023 34.0409C52.0437 35.2362 52.378 36.3801 52.8408 37.4854C53.3358 38.6485 53.9272 39.7731 54.525 40.8913C55.1228 42.0159 55.7528 43.134 56.4021 44.2329C57.6942 46.4371 59.0763 48.5899 60.4905 50.717C62.0783 53.1011 63.7239 55.4531 65.3631 57.8051C65.4081 57.8436 65.4917 57.7987 65.4531 57.7472Z" fill="#1A1524"/>
<path d="M77.4614 67.9328C77.1785 67.303 76.5293 66.9946 76.0921 66.4933C76.0536 66.4483 75.9828 66.5126 76.0214 66.564C76.42 67.0203 77.0049 67.3094 77.3071 67.8493C77.6413 68.4533 77.5578 69.1859 77.4614 69.8414C77.4549 69.9056 77.5449 69.9313 77.5578 69.8671C77.6478 69.2309 77.7249 68.5433 77.4614 67.9328Z" fill="#D4735D"/>
<path d="M78.8817 68.087C78.6117 67.2259 77.9881 66.5319 77.3131 65.9535C77.2682 65.915 77.1974 65.9792 77.2424 66.0242C77.8981 66.5897 78.5152 67.2645 78.7852 68.1127C79.1002 69.1088 78.8559 70.1627 78.6181 71.1523C78.6052 71.2166 78.6952 71.2423 78.7145 71.1781C78.9524 70.1756 79.2031 69.1024 78.8817 68.087Z" fill="#D4735D"/>
<path d="M51.1567 30.1724C51.0924 29.8511 50.7967 29.639 50.4753 29.6776C49.7939 29.7611 48.5918 29.9154 47.499 30.1081C47.4926 30.9757 47.4733 31.8368 47.4219 32.6979C47.9104 32.6272 48.3733 32.5501 48.6368 32.4987C49.2732 32.383 49.9225 32.2866 50.5589 32.1517C50.726 32.1131 51.176 32.0296 51.2531 31.8625C51.3817 31.5348 51.266 30.7251 51.1567 30.1724Z" fill="#FFFBF7"/>
<path d="M79.5507 67.6951C79.3065 66.9239 78.7601 66.2813 78.0529 65.9021C77.9951 65.87 77.9501 65.96 78.0015 65.9857C78.7086 66.3648 79.2486 67.0203 79.48 67.7915C79.7629 68.7554 79.5122 69.7707 79.2743 70.7154C79.2615 70.7796 79.3515 70.8054 79.3707 70.7411C79.6086 69.7579 79.8657 68.6975 79.5507 67.6951Z" fill="#D4735D"/>
<path d="M30.9396 26.4065C29.9754 26.2266 29.0047 26.0467 28.0405 25.8667C27.6419 25.7896 26.9926 25.7703 26.9734 25.237C26.9541 24.8193 27.2626 24.4208 27.4748 24.0867C28.4197 22.5894 29.5061 21.1949 30.7211 19.9096C30.7661 19.8646 30.6953 19.7939 30.6503 19.8389C29.6154 20.9378 28.6704 22.1202 27.8283 23.3734C27.6162 23.6947 27.4041 24.016 27.2048 24.3437C27.0634 24.5751 26.9219 24.8321 26.8834 25.1084C26.7998 25.8153 27.5519 25.8796 28.0662 25.976C29.0176 26.1559 29.9689 26.3294 30.9203 26.5093C30.9718 26.5093 30.9975 26.413 30.9396 26.4065Z" fill="#1A1524"/>
<path d="M30.9782 26.5287C29.6989 26.6958 28.4261 26.8886 27.1662 27.1263C27.0183 27.152 26.8255 27.1777 26.7355 27.3255C26.6326 27.5055 26.7419 27.8268 26.7741 28.0067C26.8705 28.6493 26.9605 29.292 27.0569 29.9346C27.4298 32.6015 27.7576 35.2748 28.0404 37.9481C28.1947 39.4325 28.3361 40.9234 28.4647 42.4079C28.4711 42.4721 28.5676 42.4721 28.5611 42.4079C28.349 39.9145 28.0983 37.4276 27.8026 34.9406C27.6547 33.7132 27.5005 32.4794 27.3333 31.252C27.2498 30.6415 27.1662 30.031 27.0762 29.4205C27.0376 29.1313 26.9926 28.8421 26.9476 28.5529C26.9219 28.3923 26.9026 28.2316 26.8769 28.071C26.8512 27.9039 26.7869 27.7047 26.7998 27.5376C26.8191 27.1585 27.4812 27.1649 27.7576 27.1135C28.1047 27.0492 28.4519 26.9914 28.799 26.94C29.5254 26.8243 30.2518 26.7215 30.9782 26.6251C31.036 26.6187 31.036 26.5223 30.9782 26.5287Z" fill="#1A1524"/>
<path d="M47.6471 22.8786C47.4414 22.5252 47.2229 22.1782 46.9914 21.8376C46.535 21.1693 46.0272 20.5331 45.4872 19.9354C45.4422 19.8904 45.3779 19.9611 45.4165 20.0061C45.9051 20.5459 46.3615 21.1114 46.7793 21.7091C46.9786 21.9982 47.1779 22.2874 47.3578 22.5895C47.5378 22.8786 47.8978 23.322 47.8657 23.6755C47.8271 24.0482 47.3707 24.241 47.0814 24.4016C46.7664 24.5752 46.445 24.7422 46.1172 24.8965C45.4294 25.2242 44.7158 25.507 43.9894 25.7447C43.9573 25.7576 43.938 25.8026 43.9701 25.8283C44.3108 26.1753 44.838 26.2138 45.2879 26.2974C45.9115 26.4066 46.5479 26.503 47.165 26.6315C47.3257 26.6637 47.5121 26.7151 47.5764 26.895C47.6278 27.03 47.5893 27.2163 47.5828 27.3513C47.5636 27.679 47.5443 28.0003 47.5314 28.3281C47.4928 28.9771 47.4607 29.6326 47.4221 30.2816C47.2807 32.8778 47.1071 35.4805 47.0107 38.0766C46.9593 39.5225 46.9593 40.9749 47.1329 42.4208C47.1393 42.485 47.2421 42.485 47.2293 42.4208C46.9079 39.7732 47.1457 37.087 47.2936 34.433C47.3643 33.0963 47.4414 31.7597 47.5121 30.4294C47.5507 29.7611 47.5828 29.0928 47.6214 28.4245C47.6407 28.0967 47.66 27.7754 47.6728 27.4477C47.6857 27.2356 47.75 26.9593 47.6214 26.7665C47.5121 26.6058 47.3064 26.5609 47.1264 26.5223C46.76 26.4516 46.3936 26.3938 46.0272 26.3231C45.6608 26.2588 45.2944 26.1946 44.9279 26.1239C44.6258 26.066 44.3301 26.0082 44.0923 25.8026C44.838 25.5519 45.5708 25.2628 46.2779 24.9157C46.6572 24.7294 47.03 24.5366 47.3964 24.3245C47.6278 24.1896 47.8914 24.0161 47.9492 23.7269C48.0135 23.4249 47.7885 23.1228 47.6471 22.8786Z" fill="#1A1524"/>
<path d="M41.6945 67.6693C41.6302 67.1295 41.5531 66.6218 41.0838 66.2813C40.8331 66.0949 40.5439 65.9664 40.2739 65.8121C39.9717 65.6386 39.6696 65.4523 39.3803 65.2531C38.7761 64.8418 38.2104 64.3855 37.6833 63.8843C37.6383 63.8393 37.5676 63.91 37.6126 63.955C38.5447 64.8354 39.586 65.5422 40.7046 66.1656C41.0067 66.3327 41.2831 66.519 41.4245 66.8468C41.5595 67.1488 41.5724 67.4958 41.611 67.8236L41.8617 70.0213C41.8681 70.0856 41.9645 70.0856 41.9581 70.0213C41.8745 69.2309 41.7845 68.4533 41.6945 67.6693Z" fill="#1A1524"/>
<path d="M35.941 54.0007C34.7196 54.0135 33.5496 53.4609 32.7718 52.5162C32.7332 52.4648 32.6625 52.5355 32.7011 52.5869C33.4918 53.5509 34.6939 54.1099 35.941 54.1035C35.9988 54.1035 35.9988 54.0007 35.941 54.0007Z" fill="#1A1524"/>
<path d="M43.5969 56.8476C42.1312 55.4338 40.7684 53.9172 39.5213 52.3107C39.4828 52.2593 39.412 52.3299 39.4506 52.3814C40.6977 53.9879 42.0605 55.5045 43.5262 56.9183C43.5712 56.9632 43.6419 56.8926 43.5969 56.8476Z" fill="#1A1524"/>
<path d="M45.3132 55.3759C44.0661 55.0096 42.864 54.502 41.7326 53.8722C41.6748 53.8401 41.6298 53.9236 41.6812 53.9557C42.8254 54.5919 44.034 55.0996 45.2875 55.4723C45.3453 55.4916 45.3711 55.3952 45.3132 55.3759Z" fill="#1A1524"/>
<path d="M36.7187 33.7196C36.783 34.0216 36.6673 34.3044 36.4552 34.3558C36.243 34.4008 36.018 34.1887 35.9538 33.8867C35.8895 33.5846 36.0052 33.3019 36.2173 33.2505C36.4295 33.2055 36.6544 33.4176 36.7187 33.7196Z" fill="#1A1524"/>
<path d="M36.4935 41.0777C36.4099 40.7757 36.5128 40.4865 36.7185 40.4286C36.9242 40.3708 37.162 40.5636 37.2456 40.8656C37.3292 41.1676 37.2263 41.4568 37.0206 41.5147C36.8149 41.5725 36.577 41.3733 36.4935 41.0777Z" fill="#1A1524"/>
<path d="M9.61701 46.9126C9.53344 46.6106 9.63629 46.3214 9.842 46.2636C10.0477 46.2058 10.2856 46.3985 10.3691 46.7006C10.4527 47.0026 10.3498 47.2918 10.1441 47.3496C9.93199 47.4075 9.70057 47.2083 9.61701 46.9126Z" fill="#1A1524"/>
<path d="M70.0623 61.6608C69.9788 61.3587 70.0816 61.0695 70.2873 61.0117C70.493 60.9539 70.7309 61.1467 70.8144 61.4487C70.898 61.7507 70.7951 62.0399 70.5894 62.0977C70.3837 62.1556 70.1459 61.9564 70.0623 61.6608Z" fill="#1A1524"/>
<path d="M37.6317 48.5384C37.5481 48.2364 37.6509 47.9472 37.8566 47.8894C38.0624 47.8315 38.3002 48.0243 38.3838 48.3263C38.4673 48.6284 38.3645 48.9176 38.1588 48.9754C37.9531 49.0332 37.7152 48.834 37.6317 48.5384Z" fill="#1A1524"/>
<path d="M75.2691 69.1602C74.7484 69.1153 74.3177 68.7939 73.8678 68.5562C73.4563 68.3441 73.0514 68.2477 72.5949 68.357C72.2864 68.4341 71.9971 68.5498 71.6886 68.5883C71.3929 68.6204 71.0907 68.6076 70.7886 68.5755C70.2101 68.524 69.6379 68.4405 69.0658 68.5755C69.008 68.5883 69.0337 68.6783 69.0915 68.6654C69.6958 68.524 70.3065 68.6333 70.9107 68.6783C71.1936 68.6976 71.4829 68.7104 71.7657 68.6654C72.0357 68.6269 72.2864 68.5305 72.5435 68.4598C73.1092 68.3056 73.5592 68.4791 74.0478 68.7554C74.4335 68.9739 74.8127 69.2052 75.2627 69.2438C75.327 69.2566 75.327 69.1667 75.2691 69.1602Z" fill="#1A1524"/>
<path d="M75.3205 70.0728C74.2726 70.6126 73.2698 71.2359 72.3184 71.9364C72.2734 71.9685 72.3184 72.0521 72.3634 72.0135C73.3148 71.3195 74.3176 70.6961 75.3655 70.1499C75.4233 70.1242 75.3783 70.0471 75.3205 70.0728Z" fill="#1A1524"/>
<path d="M75.308 71.0945L74.633 72.7204C74.6073 72.7782 74.6973 72.7975 74.723 72.746L75.398 71.1202C75.4237 71.0624 75.3337 71.0431 75.308 71.0945Z" fill="#1A1524"/>
<path d="M44.8634 7.62269C44.8506 7.62269 44.8377 7.61627 44.8249 7.60984C44.7992 7.59056 44.7992 7.54558 44.8184 7.5263C44.8313 7.51345 45.9948 6.17679 45.6348 4.66021C45.3584 3.49063 44.2656 2.51385 42.395 1.76841C42.3628 1.75555 42.35 1.717 42.3628 1.69129C42.3757 1.65916 42.4143 1.64631 42.44 1.65916C44.3492 2.42388 45.4677 3.42637 45.7506 4.6345C46.1234 6.21535 44.9213 7.59699 44.9084 7.60984C44.8956 7.61627 44.8827 7.62269 44.8634 7.62269Z" fill="#380F0A"/>
<path d="M31.5247 3.11154C31.5055 3.11154 31.4926 3.10511 31.4797 3.09226C31.454 3.06655 31.4605 3.028 31.4862 3.00872C32.6433 1.94197 33.6911 1.46 34.6039 1.57567C35.4653 1.68492 35.8703 2.29541 35.8896 2.32111C35.9088 2.34682 35.9024 2.38537 35.8703 2.40465C35.8446 2.42393 35.806 2.41751 35.7867 2.38537C35.7803 2.37895 35.3946 1.80059 34.5846 1.69777C33.7104 1.58852 32.6947 2.05764 31.5633 3.09869C31.5569 3.11154 31.5376 3.11154 31.5247 3.11154Z" fill="#380F0A"/>
<path d="M30.4833 7.29493C30.4641 7.29493 30.4383 7.28207 30.4319 7.2628C30.4126 7.23066 30.4255 7.19853 30.4576 7.17926C30.4833 7.1664 31.1455 6.80653 32.5404 7.13427C32.8811 7.21139 33.1704 7.1664 33.4082 6.99932C33.9353 6.62017 34.0189 5.74621 34.0189 5.73978C34.0189 5.70765 34.051 5.68195 34.0832 5.68195C34.1153 5.68195 34.141 5.71408 34.141 5.74621C34.1346 5.78477 34.051 6.68444 33.4789 7.09571C33.2154 7.2885 32.8875 7.33991 32.5147 7.24994C31.1712 6.93506 30.5219 7.28207 30.5155 7.28207C30.5091 7.2885 30.4962 7.29493 30.4833 7.29493Z" fill="#380F0A"/>
<path d="M41.3475 2.92517C41.3218 2.92517 41.3089 2.92517 41.3025 2.92517C41.2703 2.92517 41.2446 2.89304 41.2446 2.86091C41.2446 2.82878 41.2768 2.80307 41.3089 2.80307C41.3089 2.80307 41.6303 2.82878 41.8232 2.60386C41.9839 2.42393 42.0225 2.12832 41.9325 1.72347C41.926 1.69134 41.9453 1.65921 41.9775 1.65278C42.0096 1.64636 42.0417 1.66563 42.0482 1.69777C42.1446 2.14117 42.0996 2.47534 41.9132 2.6874C41.7332 2.89947 41.4568 2.92517 41.3475 2.92517Z" fill="#380F0A"/>
</svg>
