<svg width="54" height="69" viewBox="0 0 54 69" fill="none" xmlns="http://www.w3.org/2000/svg">
<g clip-path="url(#clip0_233_8074)">
<path d="M47.1541 25.3131C46.8867 25.099 44.8989 27.4894 44.6137 28.1762C43.7579 30.2633 42.5813 32.1899 41.2353 33.9827C38.4899 37.6396 35.0848 40.7078 31.956 44.008C31.0557 44.9535 30.1643 45.9167 29.3443 46.9335C28.5777 47.8879 27.6685 49.2347 28.3281 50.4745C28.6668 51.1078 29.2462 51.5627 29.8434 51.9373C31.7064 53.1325 34.336 54.1136 36.4843 53.2128C38.1244 52.526 39.4526 51.197 40.6024 49.8591C42.4298 47.7452 43.7847 45.2478 44.9167 42.6879C46.1201 39.9408 47.0471 37.0688 47.6533 34.1165C48.2505 31.2534 48.723 27.9889 47.1541 25.3131Z" fill="#FFE4D9"/>
<path d="M51.112 9.52587C51.005 8.26824 50.7108 6.90358 50.2027 5.74407C49.2222 3.50532 46.8511 2.97907 44.6583 2.64014C43.4015 2.44391 42.1268 2.33688 40.9324 2.84528C39.7557 3.34477 38.7752 4.16535 37.5451 4.56672C36.1456 5.03052 34.969 5.47649 33.8904 6.51113C32.7406 7.61713 31.6441 8.78556 30.5567 9.954C29.4959 11.0957 28.4619 12.273 27.5081 13.5217C26.7594 14.5029 25.6541 15.4572 25.7699 16.7327C25.4669 17.2768 25.449 18.0617 26.073 18.1598C26.697 18.2579 28.0073 18.0171 28.6402 18.133C29.3266 18.2579 29.897 18.6147 30.3695 19.1231C31.0647 19.8723 31.5996 20.8267 32.589 21.228C33.7211 21.6829 34.8888 21.2102 36.0387 21.1388C38.2404 21.0051 39.4705 23.5738 41.6633 23.3687C42.7686 23.2617 43.5352 22.4322 44.4355 21.8792C45.5676 21.1834 46.9849 21.2191 48.0634 20.4253C50.2117 18.8466 50.0423 15.8943 50.5326 13.5574C50.8089 12.2017 51.2278 10.9084 51.112 9.52587Z" fill="#703831"/>
<path d="M25.4492 56.0848C25.4225 54.6666 25.2977 52.7133 25.271 51.2951C26.7952 49.9483 25.271 51.2951 24.9679 51.3665C17.4268 53.1593 9.64501 53.7212 1.92563 53.0433C1.56907 53.0076 1.50668 53.4625 1.73844 53.6409C1.70278 53.6855 1.68495 53.7479 1.67604 53.8193C1.65821 54.1315 1.63147 54.4436 1.5869 54.7558C1.70278 54.8004 1.78301 54.9164 1.75626 55.068C1.07881 58.2254 0.249826 61.365 0.0626356 64.6028C0.000238739 65.6731 0.00915257 66.7434 0.0537217 67.8137C2.50503 69.6422 9.52913 68.8484 11.6328 68.6165C15.9649 68.1348 20.8586 66.9307 24.5668 64.5403C27.4727 62.694 25.5116 59.153 25.4492 56.0848Z" fill="#68668C"/>
<path d="M1.73823 53.6498C1.70258 53.6944 1.68475 53.7569 1.67583 53.8282C1.55995 55.9243 1.21231 57.9757 0.695312 60.0093C2.22849 60.045 3.57448 59.9915 5.09875 59.8309C10.4381 59.2869 12.0783 57.8508 17.0344 56.4862C18.8795 55.9778 20.7693 55.7816 22.6412 55.3802C23.6217 55.1661 24.5398 54.8629 25.3955 54.4258C25.351 53.3555 25.2886 52.2138 25.2708 51.304C26.795 49.9572 25.2708 51.304 24.9677 51.3754C17.4266 53.1682 9.6448 53.7301 1.92542 53.0522C1.57778 53.0166 1.51539 53.4625 1.73823 53.6498Z" fill="#1A1524"/>
<path d="M41.4318 21.0853C41.1465 20.9426 40.8613 20.7999 40.5939 20.6572C36.2885 18.4452 32.197 15.5464 27.1875 15.3591C22.4186 15.1807 18.2469 17.696 14.9131 20.9158C10.3849 25.2863 6.37366 30.9501 3.92235 36.7655C1.36408 42.8396 -0.463251 51.3665 0.107234 58.4127C0.249855 60.1698 13.9326 55.9064 17.9973 55.1929C20.5377 54.7469 25.4314 55.7726 26.0643 54.5596C27.7045 51.42 31.475 45.5956 34.2472 43.4639C37.0818 41.2965 39.9432 39.2272 42.5549 36.7833C44.8814 34.607 47.9121 31.8955 48.0637 28.4705C48.233 24.6798 44.4536 22.6284 41.4318 21.0853Z" fill="#FFE4D9"/>
<path d="M29.6297 51.3754L17.9437 41.9566C17.8367 41.8674 17.8367 41.7247 17.9348 41.6355L33.0259 28.3992C33.1329 28.31 33.3022 28.3011 33.4092 28.3903L45.0952 37.8091C45.2022 37.8983 45.2022 38.041 45.1041 38.1302L30.013 51.3665C29.906 51.4557 29.7367 51.4646 29.6297 51.3754Z" fill="#FFFBF7"/>
<path d="M27.8382 51.3754L16.1522 41.9566C16.0452 41.8674 16.0452 41.7247 16.1433 41.6355L31.2344 28.3992C31.3413 28.31 31.5107 28.3011 31.6177 28.3903L43.3037 37.8091C43.4107 37.8983 43.4107 38.041 43.3126 38.1302L28.2215 51.3665C28.1145 51.4557 27.9452 51.4646 27.8382 51.3754Z" fill="#FFFBF7"/>
<path d="M27.9808 32.0918C27.5886 31.1463 27.9273 29.7282 27.2231 28.9789C26.4298 28.1405 25.7345 27.2753 24.7985 26.6242C24.3172 27.4894 23.8269 28.7827 23.8358 29.7817C23.8358 30.7361 24.2191 31.6726 23.9785 32.6359C23.8893 33.0105 23.6843 33.3405 23.4971 33.6705C23.2119 34.1789 23.0692 34.6249 23.0514 35.2136C23.0158 36.2125 23.1762 37.2026 23.3277 38.1837C25.4136 39.0935 28.2036 37.934 30.2003 37.0331C29.8616 35.1957 28.7028 33.8311 27.9808 32.0918Z" fill="#1A1524"/>
<path d="M29.9861 46.1487C29.5315 45.1943 28.9789 44.2756 28.551 43.3034C28.3995 42.9555 28.3014 42.5898 28.1321 42.2509C27.9092 41.8228 27.6953 41.7871 27.2407 41.8228C26.5365 41.8674 25.8055 42.0458 25.1459 42.2687C24.7091 42.4204 24.5665 42.5185 24.6557 42.9823C24.7448 43.455 24.8339 43.9277 24.9409 44.4005C25.2083 45.5421 25.6362 46.6392 26.1264 47.7095C26.6791 48.9137 27.3298 50.0642 28.0251 51.1881C28.8184 49.9394 29.7098 48.6193 30.6279 47.3974C30.3962 46.996 30.1911 46.5679 29.9861 46.1487Z" fill="#1A1524"/>
<path d="M29.6031 39.0935C23.3724 41.1627 17.4803 44.1864 11.0891 45.774C8.60215 46.3895 5.77646 47.0317 3.9937 44.668C3.07557 43.455 2.67445 41.8317 2.64771 40.1995C2.01483 42.126 1.46217 44.1953 1.02539 46.3092C1.6761 47.3974 2.62097 48.2804 3.80651 48.7977C5.24163 49.4221 6.86395 49.5291 8.41496 49.4667C12.0251 49.3239 15.7154 48.3874 19.0581 47.0763C21.2152 46.2379 23.31 45.221 25.4136 44.2488C26.2426 43.8653 27.2231 43.571 27.9006 42.9377C28.4354 42.4471 28.8187 41.8406 29.1842 41.2252C29.7101 40.3422 30.2271 39.4502 30.8956 38.6743C30.4678 38.817 30.031 38.9508 29.6031 39.0935Z" fill="#1A1524"/>
<path d="M43.375 18.463C42.9115 17.7406 42.1449 17.3392 41.3605 16.9913C40.2285 16.4829 39.0251 15.7962 37.8128 15.4929C36.7253 15.2253 36.2351 15.8675 35.6557 16.6703C34.8534 17.7941 34.0423 18.909 33.24 20.0328C32.9904 20.3807 32.6963 20.7196 32.7408 21.1745C32.7854 21.6562 32.9904 22.7889 33.2044 23.2081C33.6946 24.1803 34.2651 25.215 35.1119 25.9285C35.6289 26.3656 37.9109 25.7858 38.9538 24.7155C40.7811 23.0743 42.1449 20.8802 43.5979 18.9358C43.7494 18.7217 43.589 18.5076 43.375 18.463Z" fill="#A86959"/>
<path d="M43.3746 18.463C42.9111 17.7406 42.1445 17.3392 41.3601 16.9913C40.228 16.4829 39.0247 15.7961 37.8124 15.4929C37.0636 15.3056 36.6001 15.5553 36.199 15.9924C36.0831 17.5533 36.404 19.2212 37.0993 20.5769C37.5806 21.5134 38.1065 22.2091 38.989 22.6373C39.2475 22.7621 39.7021 22.8424 40.0676 22.8513C40.2815 22.8513 40.54 22.8157 40.8074 22.7354C41.7969 21.5045 42.6793 20.1755 43.5975 18.9447C43.749 18.7217 43.5886 18.5076 43.3746 18.463Z" fill="#804132"/>
<path d="M46.8513 4.26344C44.7476 2.60445 42.2963 1.9355 39.9252 3.21096C37.7057 4.40615 36.3151 6.85005 35.7268 9.24935C35.2633 11.1581 35.0583 13.1471 35.1296 15.1361C35.183 16.7059 35.3702 18.463 36.4132 19.7742C37.4204 21.0318 39.0517 21.5134 40.567 21.2905C42.3052 21.0407 43.7671 19.9347 44.9348 18.7217C46.2095 17.4016 47.2167 15.8229 48.0903 14.2085C49.9176 10.8192 50.1137 6.83221 46.8513 4.26344Z" fill="#A86959"/>
<path d="M41.4138 9.98966C41.084 10.7389 40.7185 11.4881 40.4154 12.2552C40.148 12.942 39.9965 13.6912 40.2728 14.3958C40.2995 14.4761 40.4332 14.4404 40.4065 14.3601C40.1213 13.6109 40.3174 12.8438 40.6115 12.1303C40.9057 11.4257 41.2266 10.7389 41.5296 10.0521C41.5653 9.98074 41.4494 9.90938 41.4138 9.98966Z" fill="#804132"/>
<path d="M41.913 14.3155C41.7347 14.0926 41.5565 13.8607 41.3782 13.6377C41.3247 13.5663 41.2266 13.6644 41.2801 13.7358C41.4584 13.9588 41.6367 14.1907 41.815 14.4137C41.8684 14.485 41.9665 14.3869 41.913 14.3155Z" fill="#804132"/>
<path d="M30.2002 15.9478C28.3639 14.485 25.3511 15.4037 23.4168 16.1708C20.7248 17.2411 18.2913 18.8109 16.0539 20.6304C14.084 22.2359 12.1229 23.9484 10.5274 25.9285C8.98527 27.8373 7.74625 29.9511 6.62311 32.1275C4.80469 35.6328 2.44252 39.4859 2.60297 43.5799C2.65645 44.8643 3.01301 46.2111 3.94896 47.0852C5.49105 48.5212 7.72842 47.995 9.20812 46.7641C10.4382 45.7384 11.3029 44.347 12.2121 43.0447C13.665 40.9576 15.1358 38.8883 16.6868 36.8815C18.9509 33.9381 21.3755 31.1107 24.0764 28.5597C26.5188 26.2585 29.8704 24.2249 31.1718 20.9961C31.8314 19.355 31.5729 17.0449 30.2002 15.9478Z" fill="#FFE4D9"/>
<path d="M46.1648 12.0679C46.0489 12.5852 45.7012 12.9509 45.3714 12.8795C45.0416 12.8082 44.8723 12.3354 44.9792 11.8181C45.0951 11.3008 45.4427 10.9351 45.7725 11.0065C46.1024 11.0778 46.2717 11.5505 46.1648 12.0679Z" fill="black"/>
<path d="M39.6399 10.391C39.524 10.9084 39.1763 11.2741 38.8465 11.2027C38.5167 11.1313 38.3473 10.6586 38.4543 10.1413C38.5702 9.62398 38.9178 9.25828 39.2476 9.32964C39.5775 9.39207 39.7557 9.87372 39.6399 10.391Z" fill="black"/>
<path d="M47.6358 9.75777C47.0297 9.40991 44.9171 7.89363 44.6051 8.91043C44.5338 9.1245 44.6497 9.39207 44.8547 9.59722C45.2825 10.0253 47.2614 10.8638 47.7071 10.4356C47.8854 10.2573 47.9656 9.95399 47.6358 9.75777Z" fill="#703831"/>
<path d="M41.2357 7.52793C41.1911 7.42089 41.0842 7.32278 40.9148 7.25143C40.5137 7.08196 39.9432 7.18007 39.5242 7.22467C38.8914 7.29602 38.0089 7.36738 37.6256 7.84902C37.2601 8.30391 38.1961 8.47337 38.5705 8.52689C39.3549 8.625 40.1839 8.7142 40.8613 8.37526C41.1911 8.21471 41.3337 7.75983 41.2357 7.52793Z" fill="#703831"/>
<path d="M44.5694 7.6974C44.1058 8.05418 43.8563 8.60718 43.9276 9.18693C43.9365 9.26721 44.0702 9.27613 44.0613 9.18693C43.99 8.65177 44.2039 8.13445 44.6318 7.81335C44.7031 7.75984 44.6407 7.64389 44.5694 7.6974Z" fill="#804132"/>
<path d="M42.0647 16.4473C41.7438 15.93 41.0931 15.7783 40.5315 15.6535C40.0413 15.5464 39.3103 15.3324 38.8647 15.6624C38.8201 15.6891 38.8023 15.7337 38.7844 15.7694C38.6864 15.8586 38.6686 16.0102 38.8112 16.0727C39.7828 16.4919 40.8079 16.483 41.8062 16.804C41.931 16.8486 42.0202 16.7595 42.0469 16.6613C42.1004 16.6167 42.1182 16.5365 42.0647 16.4473Z" fill="#804132"/>
<path d="M41.7166 16.1975C41.4314 16.0637 41.1105 16.1083 40.8074 16.144C40.1389 16.2243 39.5417 16.251 38.9266 15.921C38.5522 15.7248 38.6592 16.2778 38.7305 16.4294C39.0246 17.027 39.6486 17.2143 40.228 17.4373C40.8074 17.6603 41.6186 18.0527 42.0732 17.4195C42.3673 17.0003 42.1801 16.4027 41.7166 16.1975Z" fill="white"/>
<path d="M42.0287 21.0229C41.2354 22.2359 40.237 23.2973 39.0693 24.1536C37.9373 24.9741 36.6715 25.6431 35.0849 25.4469C35.0759 25.3577 35.0403 25.2596 34.9868 25.1258C34.8174 24.662 34.6837 24.1892 34.5857 23.7076C34.345 22.557 34.2915 21.3618 34.4163 20.1934C34.4787 19.6047 34.5857 19.0249 34.7461 18.463C34.7729 18.3649 35.0938 17.1876 35.1116 17.1876C35.0759 17.1876 32.4018 17.6246 31.4658 21.1745C30.9132 23.2884 31.1984 25.5271 32.0007 27.5072C32.0185 27.5429 32.0631 27.5697 32.0987 27.5518C32.7851 27.1148 34.4965 26.0266 34.6659 25.9196C34.8442 25.8036 34.862 25.7501 35.0046 25.8839C35.272 26.1337 35.7445 27.9889 35.9584 28.4973C36.0565 28.747 37.1083 28.2832 37.7144 27.9354C39.2476 27.0613 40.344 25.5896 41.1641 24.0555C41.6454 23.1457 42.1892 22.1289 42.1535 21.0675C42.1535 20.9872 42.0644 20.9694 42.0287 21.0229Z" fill="#FFFBF7"/>
<path d="M40.5404 18.2133C40.0947 18.133 39.6669 17.9992 39.2568 17.803C39.1766 17.7673 39.1142 17.8833 39.1855 17.919C39.6045 18.1152 40.0412 18.2579 40.5048 18.3382C40.5939 18.3649 40.6296 18.2311 40.5404 18.2133Z" fill="#804132"/>
<path d="M47.8316 2.49743C47.8227 2.46175 47.8049 2.43499 47.7871 2.39931C47.8316 2.23876 47.7425 2.11389 47.6177 2.05146C46.6283 0.258672 44.4355 -0.187295 42.4744 0.0624464C42.305 0.0892044 42.1357 0.115962 41.9574 0.14272C41.7613 0.160559 41.5741 0.178398 41.378 0.205156C38.8732 0.544091 36.3773 1.33791 34.2291 2.69365C33.8191 2.95231 33.418 3.24665 33.1149 3.6391C32.794 4.04047 32.687 4.50428 32.4998 4.96808C32.0541 6.11868 30.4764 6.16327 29.5137 6.73411C28.6312 7.25143 27.7488 8.02742 27.3298 8.98178C26.8217 10.1502 27.4368 11.4078 27.0178 12.5674C26.5543 13.8607 25.1459 14.5831 24.8607 15.9835C24.6913 16.8308 25.0657 17.803 25.9036 18.1241C25.9571 18.1419 26.0106 18.1598 26.064 18.1598C26.1354 18.1509 26.2067 18.1063 26.2691 18.0706C27.4457 17.3392 28.8273 18.3293 30.0753 18.0795C30.7884 17.9368 31.3589 17.4462 31.9828 17.1162C32.2948 16.9468 32.6425 16.8308 32.999 16.813C33.3021 16.7951 33.721 16.9468 33.9706 16.7238C34.0865 16.6257 34.1311 16.4651 34.1667 16.3135C34.452 15.1183 34.8174 13.9231 34.9957 12.7011C35.1562 11.6308 35.1205 10.5694 35.1383 9.49019C35.1472 8.74096 35.2542 7.79551 35.9673 7.3763C36.4576 7.09088 37.0637 7.19792 37.5985 7.05521C37.9729 6.95709 38.3116 6.74303 38.6058 6.50221C39.3635 5.89569 39.8983 5.03052 40.8877 4.75402C41.9931 4.44184 42.9914 4.977 44.0789 5.03052C45.5675 5.10187 46.9402 4.20102 47.591 2.8988C47.7603 2.87204 47.9118 2.72041 47.8316 2.49743Z" fill="#703831"/>
<path d="M53.8577 11.39C53.7507 11.1581 53.5992 10.9886 53.412 10.8192C52.9306 10.3643 52.8772 9.98966 53.0465 9.37422C53.3763 8.19687 53.7685 6.95708 53.002 5.84217C52.6365 5.31593 52.0927 5.14646 51.5936 4.78968C50.8716 4.28128 50.7022 3.30907 50.3011 2.56877C49.686 1.40926 47.4397 0.0802743 46.0313 0.660031C45.1043 1.04356 45.5946 2.212 45.7639 3.14853C45.4341 4.59346 45.8709 6.05623 46.9049 7.14439C47.4754 7.74199 48.2776 8.31282 48.4559 9.16908C48.6966 10.2929 47.8319 11.3186 47.3862 12.2641C47.0029 13.0847 46.9584 13.8517 46.9405 14.7437C46.9138 15.8586 46.4146 16.4562 45.4698 16.9557C44.7923 17.3124 44.0881 17.6246 43.5533 18.1954C43.0006 18.7752 42.653 19.5155 42.3321 20.2469C42.3321 20.2469 41.6368 20.3183 41.5655 20.345C41.2981 20.4253 41.0396 20.5591 40.8167 20.7375C40.068 21.3261 39.649 22.6462 40.585 23.2438C41.5923 23.886 42.2964 23.8681 43.1878 23.4846C43.8564 23.1992 44.6319 22.664 45.3093 22.887C46.0224 23.1189 46.6642 23.44 47.4041 23.11C47.8676 22.9049 48.5361 21.8791 48.8927 21.5313C49.1066 21.3261 49.3295 21.1032 49.579 20.9337C49.8999 20.7107 50.2387 20.675 50.5952 20.5323C51.968 20.0061 51.7808 18.3292 52.0838 17.1697C52.4582 15.707 53.3853 14.4672 53.822 13.0312C53.9914 12.5138 54.0984 11.9162 53.8577 11.39Z" fill="#703831"/>
<path d="M35.9585 7.57252C35.4949 7.83118 35.0403 8.10768 34.5946 8.40202C34.247 8.63392 33.8726 8.86583 33.623 9.20476C33.3556 9.57937 33.4002 10.0075 33.4269 10.4445C33.4537 10.8994 33.4091 11.3989 33.1506 11.7914C32.8119 12.2998 32.2325 12.3444 31.6798 12.3711C31.2074 12.3979 30.7528 12.4603 30.316 12.6476C29.9951 12.7814 29.6742 12.9687 29.5762 13.3344C29.4603 13.7625 29.6831 14.2353 29.4335 14.6277C29.0235 15.261 28.0252 15.1094 27.6419 15.8051C27.5973 15.8764 27.7132 15.9478 27.7577 15.8764C28.0876 15.2788 28.8987 15.3145 29.3801 14.8953C29.6029 14.6991 29.692 14.4493 29.701 14.155C29.7099 13.9231 29.6653 13.6912 29.701 13.4593C29.7544 13.1293 29.9862 12.9509 30.2714 12.8171C30.7884 12.5763 31.3322 12.5317 31.8938 12.496C32.2681 12.4692 32.6603 12.4157 32.9723 12.1838C33.6052 11.7022 33.5785 10.8548 33.5428 10.1413C33.5072 9.40991 33.8994 9.03529 34.4609 8.65176C34.969 8.30391 35.486 7.98281 36.0209 7.67955C36.1011 7.6528 36.0298 7.53684 35.9585 7.57252Z" fill="#380F0A"/>
<path d="M50.3987 6.53788C50.3364 6.47544 50.2472 6.57356 50.3007 6.63599C51.1208 7.48333 51.4149 8.76771 50.996 9.88263C50.6216 10.8638 49.7391 11.7289 49.8907 12.8439C49.9709 13.4593 50.2561 14.0034 50.2205 14.6456C50.1848 15.3234 49.9263 16.0102 49.3291 16.3848C48.8923 16.6524 48.3664 16.7684 47.9385 17.0538C47.5552 17.3035 47.3324 17.6871 47.1452 18.0973C46.9313 18.5879 46.7708 19.1498 46.3697 19.5244C45.8794 19.9704 45.1574 19.9258 44.5869 20.2201C44.5067 20.2647 44.578 20.3807 44.6582 20.3361C45.1931 20.0507 45.8616 20.0774 46.3519 19.7117C46.6906 19.4531 46.8867 19.0695 47.0471 18.686C47.2878 18.133 47.4839 17.5265 48.0098 17.1697C48.4644 16.8665 49.026 16.7594 49.4806 16.4473C50.479 15.7694 50.4611 14.4137 50.1581 13.379C49.9352 12.6298 50.0244 12.0322 50.3809 11.3454C50.6394 10.8548 50.9514 10.391 51.1475 9.86479C51.5575 8.72312 51.2366 7.40305 50.3987 6.53788Z" fill="#380F0A"/>
<path d="M51.9143 13.4236C51.9054 13.3344 51.7717 13.3344 51.7806 13.4236C51.8519 14.1372 51.843 14.8864 51.4864 15.5286C51.326 15.8318 51.0942 16.0994 50.7912 16.2778C50.5148 16.4473 50.1939 16.5008 49.8998 16.6167C49.4184 16.813 49.2669 17.1787 49.0619 17.6246C48.7677 18.249 48.1883 18.4274 47.5554 18.5522C47.4663 18.5701 47.5109 18.6949 47.5911 18.686C48.0903 18.5879 48.6608 18.463 48.9906 18.026C49.1867 17.7673 49.258 17.4462 49.4273 17.1787C49.6591 16.813 50.0424 16.7238 50.4257 16.59C51.7806 16.1262 52.0391 14.6723 51.9143 13.4236Z" fill="#380F0A"/>
<path d="M30.5922 22.2181C30.3694 22.1467 30.1198 22.2002 29.9682 22.4767C29.6741 23.0297 29.6652 23.6095 29.4958 24.2071C29.478 24.2606 29.4691 24.3052 29.4512 24.3498C29.478 23.886 29.4602 23.4133 29.3888 22.9316C29.3888 22.9227 29.3888 22.9227 29.3888 22.9138C29.3978 22.1467 29.3086 21.3886 29.0055 20.6661C28.542 19.6047 27.6417 18.8644 26.7325 18.2044C26.2066 17.8208 25.5737 18.6682 26.0462 19.0963C26.2244 19.2568 26.3849 19.4263 26.5453 19.6047C26.6523 19.7296 26.4829 19.8901 26.3581 19.7831C26.3403 19.7742 26.3314 19.7563 26.3136 19.7474C25.5559 19.123 24.6289 19.7831 24.0495 20.345C23.9068 20.4788 23.9336 20.6661 23.8355 20.8088C23.6038 21.1388 23.0333 21.3261 22.9531 21.7453C22.9352 21.8434 22.9531 21.9505 22.9352 22.0486C22.8996 22.3429 22.5698 22.5659 22.5163 22.887C22.4539 23.2527 22.5876 23.6273 22.7213 23.9573C22.8194 24.1892 23.0065 24.6441 23.2561 24.7601C23.5503 24.8939 23.8623 24.5282 23.889 24.216C23.8979 24.1268 23.8979 24.0287 23.9068 23.9217C23.9247 23.7968 24.0762 23.7611 24.1475 23.8592C24.2456 24.0108 24.3258 24.2071 24.3971 24.3587C24.406 24.3855 24.4149 24.4211 24.406 24.4479C24.2901 24.9028 24.2277 25.3844 24.1564 25.759C23.791 27.6053 23.6038 29.5408 24.5486 31.2534C24.5665 31.2801 24.5843 31.3069 24.6021 31.3336C24.7358 32.2345 24.9498 33.1264 25.1459 34.0094C25.1369 34.0094 25.1369 34.0094 25.128 34.0183C24.7804 34.17 28.8897 33.7597 28.8005 33.3762C28.542 32.2969 28.2568 31.2266 27.9448 30.1563C27.9359 30.1295 27.9359 30.1028 27.9448 30.0671C28.4707 28.7292 29.2284 27.5875 30.1376 26.4815C30.5031 26.0445 30.8061 25.5896 30.9042 25.0098C31.029 24.3052 30.6546 23.4935 30.8507 22.7978C30.9577 22.441 30.9042 22.2627 30.5922 22.2181Z" fill="#A86959"/>
<path d="M26.6971 20.1042C26.6258 20.0774 26.5901 20.1934 26.6614 20.2291C27.8915 20.7285 27.9896 22.3608 28.2124 23.4846C28.2303 23.5649 28.3461 23.5292 28.3372 23.4489C28.1055 22.2627 27.9896 20.6304 26.6971 20.1042Z" fill="#804132"/>
<path d="M27.1783 23.5381C27 23.1279 26.8217 22.7176 26.6434 22.2984C26.4919 21.9505 26.3582 21.558 26.1354 21.2459C25.7342 20.7018 25.039 20.568 24.4061 20.461C24.3258 20.452 24.2902 20.568 24.3704 20.5858C25.0657 20.7018 25.7788 20.8534 26.1532 21.5135C26.5276 22.1646 26.7772 22.9138 27.0713 23.6006C27.107 23.6809 27.2139 23.6095 27.1783 23.5381Z" fill="#804132"/>
<path d="M25.1638 22.7443C25.0301 22.5213 24.8519 22.3251 24.6201 22.2002C24.3259 22.0397 23.9783 22.0129 23.6663 21.8881C23.595 21.8613 23.5594 21.9773 23.6307 22.0129C23.9159 22.1289 24.2279 22.1556 24.5042 22.2894C24.7716 22.4232 24.9588 22.6462 25.1014 22.896C25.4134 23.449 25.5739 24.0911 25.6541 24.7155C25.663 24.7958 25.7878 24.7958 25.7789 24.7155C25.7076 24.0465 25.5293 23.333 25.1638 22.7443Z" fill="#804132"/>
<path d="M27.8556 24.6887C27.8289 25.0544 27.7219 25.3934 27.5258 25.7056C27.4812 25.7769 27.5882 25.8393 27.6328 25.768C27.8378 25.438 27.9536 25.0812 27.9804 24.6887C27.9893 24.6085 27.8645 24.6085 27.8556 24.6887Z" fill="#804132"/>
<path d="M29.4157 24.653C29.4157 24.9474 29.389 25.2328 29.3177 25.5182C29.2998 25.5985 29.4246 25.6342 29.4424 25.5539C29.5138 25.2596 29.5494 24.9563 29.5494 24.653C29.5405 24.5728 29.4157 24.5728 29.4157 24.653Z" fill="#804132"/>
<path d="M44.9524 1.22195C44.6493 1.08816 44.3106 1.05248 43.9986 1.17735C43.5618 1.34682 43.2588 1.81062 42.7507 1.73927C42.3317 1.67683 41.9573 1.49844 41.5295 1.47169C41.1462 1.44493 40.754 1.48953 40.3796 1.58764C39.613 1.78386 38.9266 2.22091 38.4364 2.84526C38.3829 2.91662 38.4809 3.00581 38.5344 2.94338C39.0069 2.3547 39.6487 1.93549 40.3707 1.73035C41.1284 1.5252 41.8236 1.60548 42.5546 1.83738C43.3122 2.06928 43.6688 1.26654 44.373 1.23978C45.4248 1.20411 45.8081 2.34578 45.6922 3.21096C45.6833 3.30015 45.817 3.29123 45.8259 3.21096C45.924 2.43498 45.7101 1.5698 44.9524 1.22195Z" fill="#380F0A"/>
<path d="M44.8278 3.21097C44.1949 2.88095 43.4818 2.75608 42.7687 2.87203C42.4033 2.93447 42.0556 3.05042 41.7258 3.22881C41.3158 3.45179 40.9592 3.75505 40.469 3.74613C40.0233 3.73721 39.6043 3.53206 39.1497 3.52315C38.7932 3.51423 38.4455 3.5945 38.1246 3.73721C37.3759 4.04939 36.7965 4.64698 36.2884 5.26242C36.2349 5.32485 36.324 5.42296 36.3864 5.36053C36.8856 4.75401 37.4472 4.16534 38.187 3.86208C38.5971 3.69261 39.0427 3.62126 39.4884 3.70153C39.8539 3.76397 40.2194 3.90668 40.5938 3.88884C41.2534 3.85316 41.7615 3.29124 42.3765 3.11286C43.1699 2.87203 44.0256 2.96123 44.7565 3.34476C44.8367 3.3626 44.908 3.24665 44.8278 3.21097Z" fill="#380F0A"/>
<path d="M36.9835 48.3517C36.9389 47.5044 36.5645 46.7284 36.1723 45.9881C35.691 45.0694 35.174 44.1597 34.657 43.2499C33.623 41.4393 32.5444 39.6376 31.5371 37.8091C30.8775 36.6139 30.2446 35.4009 29.6741 34.17C29.3978 33.5635 28.5688 30.9323 27.9983 30.9947C27.8557 31.0126 27.7309 31.0839 27.6061 31.1553C26.8217 31.6012 26.0908 32.1186 25.3777 32.6715C24.825 33.0997 24.1119 33.5635 23.8891 34.2592C23.7643 34.6695 23.8891 35.1244 23.9604 35.5347C24.0495 36.0698 24.1476 36.605 24.2456 37.1401C24.4328 38.1659 24.62 39.1916 24.8339 40.2173C25.2529 42.2598 25.8858 44.2489 26.4028 46.2646C28.2569 53.409 32.6959 53.7479 35.6821 53.4714C37.34 53.3198 37.0905 50.2426 36.9835 48.3517Z" fill="#FFE4D9"/>
<path d="M42.1356 34.5535C41.5651 33.6348 41.0125 32.172 39.8537 31.8866C39.2743 31.7439 38.6147 31.7885 38.0263 31.7707C37.5985 31.7528 37.1617 31.735 36.7338 31.7172C37.2063 31.4139 37.6698 31.1196 38.1422 30.8163C38.6236 30.5041 38.7127 30.6468 39.1673 30.9769C39.5595 31.2712 39.5595 31.2712 39.9517 31.5655C40.2637 31.7974 40.9679 31.9491 41.1194 31.6815C41.2888 31.4674 41.3334 31.1463 41.0838 30.8966C40.5846 30.3971 40.0943 29.8887 39.5952 29.3892C39.2119 29.0146 38.8197 28.7559 38.2581 28.8451C37.6787 28.9432 37.1884 29.3357 36.716 29.6568C35.0313 30.8074 33.4625 32.065 32.1076 33.5991C31.7064 34.054 31.3677 34.6873 30.8953 35.053C30.6546 35.2403 30.298 35.3384 30.0217 35.4722C29.6741 35.6506 29.3443 35.8557 29.0234 36.0698C28.8273 36.2036 28.747 36.3909 28.747 36.5782C28.4351 37.1401 28.2122 37.7377 27.9983 38.3442C27.7665 38.9953 27.4634 39.6375 27.4724 40.3422C27.4724 40.8416 27.9626 41.02 28.3192 40.8773C28.3548 40.8684 28.3905 40.8506 28.4351 40.8327C29.1214 40.4581 29.8078 40.0835 30.4941 39.7178C30.8329 39.5305 31.1805 39.3343 31.5282 39.1559C31.8847 38.9686 32.1432 39.0132 32.5354 38.9329C36.3505 38.1926 37.6074 36.596 37.6163 36.5425C38.1422 36.7031 38.7127 36.9082 38.9801 37.2204C39.1851 37.4612 39.2832 37.8091 39.4615 38.0677C39.6397 38.3353 39.8448 38.594 40.0676 38.8259C40.549 39.3521 41.3245 38.6832 41.0214 38.0945C40.5935 37.2739 40.1835 36.2393 39.4793 35.6238C38.9623 35.1689 38.3027 34.9727 37.643 34.8389C37.643 34.8211 37.643 34.7943 37.6341 34.7765C38.2403 34.7676 38.8464 34.8389 39.3188 35.2135C39.8982 35.6773 40.2191 36.3285 40.9233 36.6496C41.0481 36.712 41.1818 36.7209 41.2977 36.7031C41.7434 36.7209 42.1802 36.2839 41.8593 35.829C41.7701 35.7041 41.681 35.5703 41.5919 35.4365C41.6008 35.4365 41.6097 35.4365 41.6186 35.4365C42.0019 35.4454 42.4209 35.0173 42.1356 34.5535Z" fill="#A86959"/>
<path d="M32.7584 6.636C32.1344 6.93034 31.4748 7.24251 31.038 7.79551C30.8597 8.0185 30.726 8.27716 30.6636 8.54474C30.5834 8.88367 30.6725 9.24044 30.6012 9.5883C30.4497 10.3286 29.5405 10.2662 29.0057 10.5605C28.4887 10.837 28.1321 11.3276 27.9806 11.8895C27.9538 11.9698 28.0875 12.0054 28.1143 11.9252C28.3015 11.2295 28.8185 10.7121 29.5048 10.507C29.9327 10.3732 30.4675 10.2929 30.6725 9.82912C30.7706 9.61506 30.7617 9.36532 30.7617 9.13341C30.7617 8.74988 30.8063 8.41095 31.0113 8.08093C31.4213 7.41198 32.1522 7.06413 32.8386 6.74303C32.901 6.71627 32.8297 6.60032 32.7584 6.636Z" fill="#380F0A"/>
<path d="M34.5945 11.5595C34.5767 12.2641 34.1667 12.7011 33.5962 13.0312C33.2574 13.2363 32.892 13.4325 32.678 13.7893C32.4552 14.1639 32.6067 14.5385 32.5978 14.9488C32.58 15.5197 32.3304 16.0548 31.9204 16.4473C31.858 16.5097 31.956 16.5989 32.0184 16.5454C32.3482 16.2243 32.58 15.8229 32.678 15.3769C32.8028 14.8239 32.5176 14.1818 32.9009 13.709C33.2574 13.2809 33.8279 13.1382 34.2201 12.7636C34.55 12.4514 34.7193 12.0144 34.7282 11.5684C34.7282 11.4703 34.5945 11.4703 34.5945 11.5595Z" fill="#380F0A"/>
<path d="M13.683 38.5851C11.1426 39.2897 8.6913 40.5206 6.60546 42.135C5.34861 43.1072 2.46944 45.4708 3.95805 47.0941C5.46449 48.7442 9.19047 48.0306 11.0713 47.7006C13.7098 47.2457 16.2948 46.5411 18.8352 45.7116C20.4576 45.1854 27.4995 42.7147 27.9095 42.0904C28.4265 41.2965 30.2628 36.6942 30.2628 35.3652C30.2628 35.1779 25.7256 35.9449 24.3172 36.1858C20.9211 36.7744 17.7299 37.8804 14.3783 38.6921C14.1911 38.7545 13.8702 38.5316 13.683 38.5851Z" fill="#FFE4D9"/>
<path d="M41.4138 34.9906C41.0929 34.5535 40.7898 34.0986 40.4511 33.6705C40.2104 33.3583 39.9341 33.0997 39.5597 32.9659C39.1229 32.8142 38.6237 32.8232 38.1691 32.8321C37.6343 32.8499 37.0995 32.9124 36.5735 33.0283C36.4933 33.0461 36.529 33.1799 36.6092 33.1621C37.4738 32.9837 38.5435 32.8232 39.4171 33.064C39.8806 33.1978 40.1747 33.5278 40.46 33.9024C40.7452 34.2859 41.0126 34.6695 41.289 35.053C41.3514 35.1333 41.4672 35.0619 41.4138 34.9906Z" fill="#804132"/>
<path d="M35.8695 31.842C35.4951 31.9402 35.1564 32.1453 34.8979 32.4307C34.8355 32.4932 34.9336 32.5913 34.996 32.5288C35.2456 32.2523 35.5575 32.065 35.9141 31.9758C35.9943 31.9491 35.9587 31.8242 35.8695 31.842Z" fill="#804132"/>
<path d="M36.7965 34.5C36.636 34.5 36.4934 34.5535 36.3775 34.6605C36.3151 34.723 36.4043 34.8122 36.4756 34.7587C36.5647 34.6784 36.6717 34.6338 36.7965 34.6427C36.8856 34.6427 36.8856 34.5 36.7965 34.5Z" fill="#804132"/>
<path d="M35.923 33.2067C35.6912 33.3048 35.504 33.4653 35.3614 33.6616C35.3079 33.7329 35.4238 33.7954 35.4773 33.7329C35.611 33.5545 35.7893 33.4118 35.9943 33.3226C36.0745 33.287 36.0032 33.171 35.923 33.2067Z" fill="#804132"/>
<path d="M30.2802 35.16C27.5793 35.606 24.8963 36.1055 22.2132 36.6763C19.9847 37.149 17.7385 37.6307 15.5278 38.2283C18.2198 35.16 21.0455 32.2256 23.8979 29.3179C23.889 29.2554 23.889 29.193 23.889 29.1306C20.992 32.0829 18.1217 35.0619 15.3941 38.1748C15.3674 38.2015 15.3763 38.2372 15.3941 38.264C15.0465 38.3621 14.6899 38.4602 14.3423 38.5583C12.9696 38.9597 11.6325 39.4859 10.3667 40.1459C10.2865 40.1816 10.3578 40.2976 10.438 40.2619C12.7913 39.0399 15.3228 38.4067 17.89 37.7912C20.5107 37.1669 23.1402 36.596 25.7876 36.0966C27.2941 35.8111 28.8005 35.5436 30.3159 35.2938C30.405 35.2671 30.3694 35.1422 30.2802 35.16Z" fill="#1A1524"/>
<path d="M14.3249 37.2561C12.4886 37.4345 10.7148 37.925 9.04787 38.7099C8.96764 38.7456 9.03895 38.8616 9.11918 38.8259C10.7593 38.0499 12.5243 37.5593 14.3338 37.3899C14.4051 37.3899 14.4051 37.2561 14.3249 37.2561Z" fill="#1A1524"/>
</g>
<defs>
<clipPath id="clip0_233_8074">
<rect width="54" height="69" fill="white"/>
</clipPath>
</defs>
</svg>
