<svg width="89" height="79" viewBox="0 0 89 79" xmlns="http://www.w3.org/2000/svg">
<path d="M67.1917 24.3778C65.5791 23.4543 63.5057 23.4543 61.6628 24.3778L48.762 31.9966L40.0079 36.845L27.3375 44.4639C25.7249 45.3873 23.6515 45.3873 21.8086 44.4639L11.9026 38.4611C10.29 37.5376 9.13814 35.6906 9.13814 33.6127V22.069C9.13814 20.222 10.0596 18.375 11.9026 17.2206L21.8086 11.4488C23.4212 10.5253 25.4945 10.5253 27.3375 11.4488L37.2434 17.4515C38.856 18.375 40.0079 20.222 40.0079 22.2999V29.9187L48.762 24.8395V16.9898C48.762 15.1428 47.8405 13.2958 45.9975 12.1414L27.5678 1.29028C25.9552 0.366782 23.8819 0.366782 22.0389 1.29028L3.14849 12.3723C1.30552 13.2958 0.384033 15.1428 0.384033 16.9898V38.692C0.384033 40.539 1.30552 42.386 3.14849 43.5404L21.8086 54.3915C23.4212 55.315 25.4945 55.315 27.3375 54.3915L40.0079 47.0035L48.762 41.9242L61.4324 34.5362C63.045 33.6127 65.1183 33.6127 66.9613 34.5362L76.8673 40.3081C78.4799 41.2316 79.6317 43.0786 79.6317 45.1565V56.7002C79.6317 58.5472 78.7102 60.3942 76.8673 61.5486L67.1917 67.3204C65.5791 68.2439 63.5057 68.2439 61.6628 67.3204L51.7568 61.5486C50.1442 60.6251 48.9924 58.7781 48.9924 56.7002V49.3122L40.2382 54.3915V62.0103C40.2382 63.8573 41.1597 65.7043 43.0027 66.8587L61.6628 77.7098C63.2754 78.6333 65.3487 78.6333 67.1917 77.7098L85.8517 66.8587C87.4643 65.9352 88.6162 64.0882 88.6162 62.0103V40.0772C88.6162 38.2302 87.6947 36.3832 85.8517 35.2289L67.1917 24.3778Z" />
</svg>
