<svg width="110" height="100" viewBox="0 0 110 100" fill="none" xmlns="http://www.w3.org/2000/svg">
<mask id="mask0_385_11912" style="mask-type:alpha" maskUnits="userSpaceOnUse" x="0" y="0" width="110" height="100">
<rect width="110" height="100" fill="#D9D9D9"/>
</mask>
<g mask="url(#mask0_385_11912)">
<path d="M63.4813 44.3012C62.8987 43.7115 62.1329 43.2041 61.3177 43.0115C60.4204 42.8001 59.9012 43.3874 59.0743 43.5988C58.8183 43.6646 53.7489 42.9528 53.9768 42.9669C54.1459 44.1931 52.3488 47.8272 52.518 49.0558C52.6096 49.7112 59.6099 49.9108 60.216 50.3008C60.7492 50.6461 61.5902 50.0823 62.0671 49.8639C62.8564 49.5021 64.0756 49.1074 64.6464 48.4168C65.6002 47.2657 64.3293 45.1586 63.4813 44.3012Z" fill="#522727"/>
<path d="M51.3834 48.7879C51.3834 48.7879 55.7433 47.3855 57.1833 47.4231C58.6233 47.4607 63.0608 47.9164 64.7662 48.3721C66.4717 48.8279 67.3832 50.9891 67.3832 50.9891L66.2462 56.3732L57.639 60.1647L51.7616 57.0944L51.3834 48.7903V48.7879Z" fill="#3D1B21"/>
<path d="M73.9793 89.742C73.977 89.9205 73.7632 89.547 73.6434 89.6198C67.834 90.3152 61.9988 90.7521 56.159 91.1068C53.2672 91.283 50.3567 91.5367 47.4602 91.572C45.6796 91.5931 43.2858 90.8649 41.8129 92.1757C41.7378 92.1874 41.6696 92.2344 41.6461 92.3331C41.6438 92.3448 41.6414 92.3542 41.6391 92.366C41.6203 92.4012 41.6767 88.793 41.679 88.8305C41.7425 89.5541 40.1122 95.9624 40.333 102.634C40.3518 103.193 53.8239 104.205 57.9208 104.072C63.2697 103.895 69.112 103.099 74.2095 101.159C75.1233 100.811 74.6958 93.0754 74.3998 89.8923C74.2025 87.7593 74.0193 87.6184 73.9817 89.7467L73.9793 89.742Z" fill="#F2ECDB"/>
<path d="M61.6374 43.7656C61.6632 43.6247 61.4659 43.5659 61.433 43.6998C61.3719 43.6575 61.2944 43.6294 61.2357 43.6505C59.2389 44.3576 57.1506 44.6019 55.0552 44.3787C54.9166 44.3646 54.9189 44.5925 55.0552 44.6066C55.0646 44.6066 55.0763 44.6066 55.0857 44.6089C55.0739 44.6254 55.0669 44.6465 55.0693 44.6747C55.1421 45.7436 55.2055 46.3872 55.2619 47.4584C55.3183 48.5273 55.276 49.5538 54.8155 50.9915C54.7991 51.0432 54.7921 51.0807 54.8202 51.1113C54.8015 51.1583 54.8108 51.2099 54.8672 51.2381C55.9596 51.7667 56.9744 51.9687 58.1771 51.9546C59.2107 51.9429 60.336 51.7737 61.1276 51.0126C61.1628 50.9797 61.1863 50.9093 61.2004 50.8364C61.2756 50.8646 61.3743 50.8059 61.3414 50.7049C61.0055 49.6501 61.137 48.3464 61.2028 47.2493C61.2709 46.0795 61.4213 44.919 61.6421 43.7703L61.6374 43.7656Z" fill="#944B3C"/>
<path d="M65.1655 101.951C65.1655 101.951 65.1585 101.951 65.1538 101.951C65.0904 101.943 65.0434 101.887 65.0481 101.821C65.337 98.9695 65.0481 92.237 65.0481 92.1688C65.0457 92.1031 65.0951 92.049 65.1608 92.0467C65.2219 92.042 65.2806 92.0937 65.283 92.1594C65.2853 92.2276 65.5743 98.9766 65.283 101.845C65.2759 101.906 65.2266 101.951 65.1655 101.951Z" fill="#3D1B21"/>
<path d="M49.4969 101.608C49.4288 101.608 49.3795 101.554 49.3795 101.488C49.464 97.039 50.3661 91.124 50.3755 91.0652C50.3849 91.0018 50.446 90.9572 50.5094 90.9666C50.5728 90.976 50.6174 91.0371 50.608 91.1005C50.5986 91.1592 49.6989 97.0602 49.6144 101.493C49.6144 101.556 49.5603 101.608 49.4969 101.608Z" fill="#3D1B21"/>
<path d="M68.5929 99.0495C68.5318 99.0495 68.4801 99.0025 68.4754 98.9414C68.3086 96.8155 66.8451 91.1706 66.8287 91.1142C66.8122 91.0508 66.8498 90.9873 66.9133 90.9709C66.9767 90.9545 67.0401 90.992 67.0566 91.0555C67.0706 91.1119 68.5388 96.7779 68.7103 98.925C68.715 98.9908 68.668 99.0472 68.6023 99.0518C68.5999 99.0518 68.5952 99.0518 68.5929 99.0518V99.0495Z" fill="#3D1B21"/>
<path d="M61.5951 34.5759C60.8457 33.4859 59.6171 32.901 58.3016 32.908C57.0495 32.9151 55.9008 33.4624 54.9494 34.24C54.9118 34.2235 54.8696 34.2282 54.8367 34.2682C54.7803 34.3386 54.7263 34.4091 54.6699 34.4796C54.6441 34.5031 54.6159 34.5266 54.59 34.5524C54.5665 34.5759 54.5571 34.6017 54.5548 34.6276C53.7819 35.64 53.1759 36.7183 52.9691 38.0056C52.6567 39.9671 53.1148 41.9404 53.7655 43.7821C54.2165 45.06 54.8484 46.352 55.8538 47.1201C56.9814 47.9776 59.4621 47.9141 60.4417 46.8171C61.3719 45.7741 61.9169 44.3811 62.4126 42.8612C63.1596 40.5661 63.2089 37.7425 62.1495 35.5367C61.9897 35.2031 61.8018 34.8813 61.5927 34.5759H61.5951Z" fill="#944B3C"/>
<path d="M61.7077 50.5339C61.6724 49.7798 61.6372 49.0258 61.6043 48.2741C61.5855 47.8653 61.71 47.0079 61.4187 46.9257C61.1956 46.8622 61.1439 47.1136 61.104 47.2005C60.9254 47.5646 60.4345 47.816 60.0774 47.9663C58.5246 48.617 56.7651 48.3375 55.3933 47.4072C55.358 47.3837 55.2923 47.325 55.2312 47.2639C55.1419 47.1794 54.9963 47.2099 54.9493 47.3227C54.806 47.6656 54.8577 48.065 54.8295 48.4268C54.7778 49.0845 54.6392 49.7305 54.51 50.3765C54.4912 50.4681 54.3268 50.945 54.4278 51.0272C55.5765 51.9739 56.7205 52.9394 58.2991 52.8877C59.6663 52.8407 61.0264 51.9269 61.5973 50.7077C61.6067 50.6866 61.609 50.6655 61.6067 50.6443C61.663 50.6443 61.7171 50.6067 61.7147 50.5339H61.7077Z" fill="#3D1B21"/>
<path d="M81.2571 59.3826C81.0973 57.6349 80.7262 55.9059 80.1671 54.2451C79.1851 51.3299 77.8086 48.4898 74.649 47.5854C71.4495 46.6692 67.7638 47.132 64.482 47.1461C64.3787 47.1461 64.3129 47.2048 64.2824 47.28C64.2448 47.2988 64.2049 47.3223 64.1884 47.374C63.6646 49.063 63.6552 51.0409 62.746 52.5937C61.9098 54.0243 60.1738 54.7643 58.5623 54.7807C56.831 54.7995 55.2547 53.9021 54.1882 52.5726C53.0372 51.1372 52.9996 49.5821 52.4217 47.9354C52.168 47.2166 51.8227 47.1438 51.1226 47.132C50.1572 47.1179 49.194 47.0639 48.2285 47.0357C46.1919 46.9817 43.1897 47.2025 41.2211 47.7898C37.9065 48.7764 36.4806 52.8873 35.0641 60.9002C35.8182 62.6855 37.6129 60.4327 38.6207 62.0888C38.8791 62.2885 39.0694 62.5892 39.1163 62.9838C39.1586 63.1342 39.1704 63.2798 39.1516 63.4161C39.5791 68.9529 38.2307 72.2135 38.4492 77.7574C38.5455 80.1958 39.121 84.4383 39.3959 86.8649C39.4992 87.7857 39.9996 94.6992 40.7231 94.8965C43.7652 95.7187 50.6552 95.9113 52.7059 95.9184C65.4452 95.963 75.1235 91.9413 75.2833 90.9735C76.9488 80.9804 77.6488 73.1766 78.0951 63.0801C78.72 62.7301 79.3613 62.3942 80.0191 62.0677C81.2124 61.4757 81.3651 60.6371 81.25 59.385L81.2571 59.3826Z" fill="#E1A557"/>
<path d="M80.3456 54.7995C80.3104 54.6985 80.1765 54.8864 80.0567 54.8042C80.0637 54.6679 79.9486 54.5129 79.7724 54.5434C78.2526 54.8112 76.6951 55.0039 75.1987 55.375C74.2332 55.6146 73.2208 56.0163 72.6593 56.8879C71.9381 58.006 72.0838 59.5471 72.0415 60.8109L71.8583 66.343C71.7385 69.963 70.3901 73.6347 69.5796 77.1842C68.7833 80.6726 66.9862 82.0421 65.9009 85.4507C65.8234 85.6927 65.7576 86.7169 67.3785 87.4404C72.8378 89.0331 74.1369 89.3761 76.1689 87.034C78.4287 84.4288 79.2204 83.6466 79.9322 80.7619C82.4316 70.6137 82.7558 61.821 80.3433 54.7971L80.3456 54.7995Z" fill="#E1A557"/>
<path d="M58.0101 47.6487C56.8849 47.6487 55.7385 47.1741 55.1677 46.1523C55.1371 46.0959 55.1559 46.0231 55.2123 45.9925C55.2687 45.962 55.3392 45.9808 55.3721 46.0372C56.1496 47.4302 58.1041 47.7191 59.4407 47.1177C60.0891 46.8241 60.6411 46.2909 61.0804 45.5321C61.1133 45.4757 61.1838 45.4569 61.2401 45.4898C61.2965 45.5227 61.3153 45.5932 61.2824 45.6496C60.8196 46.453 60.2324 47.0191 59.537 47.3339C59.0766 47.5429 58.5434 47.6487 58.0078 47.6487H58.0101Z" fill="#6F2E17"/>
<path d="M36.7225 53.794L36.302 55.3162C34.566 62.3636 34.1808 65.3469 34.707 71.0365C34.9748 73.9212 36.0789 83.2166 39.0458 86.1342C40.8217 87.8796 43.4222 89.0495 45.9381 89.0495L49.598 86.3245L48.6889 76.9962L50.1477 76.2938L42.6211 55.6099L36.7202 53.7893L36.7225 53.794Z" fill="#E1A557"/>
<path d="M46.5111 66.9157C46.4594 66.9157 46.4101 66.8805 46.396 66.8264C45.609 63.681 44.62 60.5543 44.6083 60.5214C44.5895 60.4603 44.6224 60.3946 44.6858 60.3734C44.7492 60.3546 44.8127 60.3875 44.8338 60.4509C44.8432 60.4815 45.8369 63.6175 46.6238 66.7701C46.6403 66.8335 46.6003 66.8969 46.5393 66.9133C46.5299 66.9157 46.5205 66.918 46.5111 66.918V66.9157Z" fill="#3D1B21"/>
<path d="M45.1231 68.798C45.0903 68.798 45.055 68.7839 45.0339 68.7557C44.9986 68.7134 41.576 64.6095 39.4806 63.3175C37.9513 62.3732 35.5435 62.1993 35.52 62.197C35.4542 62.1923 35.4072 62.1359 35.4119 62.0725C35.4166 62.0067 35.473 61.9597 35.5364 61.9644C35.6374 61.9715 38.0241 62.143 39.6051 63.1202C41.731 64.4334 45.0738 68.4386 45.2148 68.6077C45.257 68.6571 45.25 68.7322 45.1983 68.7722C45.1772 68.791 45.149 68.8003 45.1231 68.8003V68.798Z" fill="#3D1B21"/>
<path d="M51.468 76.6555C51.468 76.6555 51.4633 76.6579 51.4633 76.6672C51.482 76.6718 51.4867 76.6672 51.468 76.6555Z" fill="#944B3C"/>
<path d="M51.4631 76.6673C51.4631 76.6673 51.4537 76.6673 51.4467 76.6626C51.4514 76.7213 51.4537 76.7824 51.4584 76.8411C51.4725 76.8505 51.4584 76.7096 51.4631 76.6673Z" fill="#944B3C"/>
<path d="M53.9016 72.3284C52.8915 71.673 50.8196 70.677 49.7907 70.0521C49.3913 69.8101 49.0977 69.7914 48.898 69.3685C48.4259 68.3654 47.754 67.0405 47.3594 66.7375C46.7439 66.263 42.539 63.6108 42.539 63.6108C41.7802 63.5169 41.9235 64.7408 42.2712 65.2341C42.6048 65.7086 43.2249 65.9083 43.6595 66.2489C43.8052 66.364 44.1834 66.8174 44.1364 66.9983C44.1246 67.0405 44.1035 67.0758 44.0777 67.111C44.0612 67.1063 44.0424 67.0969 44.026 67.0946C42.7575 66.3734 41.4607 65.6193 40.1147 65.1072C38.677 64.5575 36.0437 65.9553 36.0343 66.014C35.9474 66.0304 35.8746 66.0938 35.8746 66.2113C35.8746 66.8597 36.3326 67.2473 36.9857 67.2167C37.2347 67.205 37.4532 67.0993 37.6881 67.0358C38.5384 66.808 39.2737 66.6013 40.0842 66.9842C40.4177 67.1416 41.0426 67.4916 41.1929 67.6725C41.2235 67.71 41.1836 67.7664 41.1366 67.7547C40.0936 67.4892 38.9942 67.2473 38.0475 67.4C37.0209 67.5667 35.8605 69.3756 35.5692 69.8548C35.5198 69.9346 35.5128 70.0333 35.5433 70.1202C35.8299 70.926 36.5981 70.8015 37.2605 70.3434C37.4367 70.2212 37.627 70.0404 37.7961 69.9112C38.5361 69.3403 39.1093 69.3779 40.0066 69.6058C40.2932 69.6786 40.5798 69.7608 40.8641 69.8454C41.0097 69.89 41.1554 69.9346 41.301 69.9816C41.3738 70.0051 41.449 70.0239 41.5195 70.0521C41.5829 70.0779 41.6322 70.1414 41.5899 70.2095C41.5571 70.2635 41.4819 70.2588 41.4255 70.2612C41.294 70.2682 41.1624 70.2447 41.0309 70.2471C40.8265 70.2518 40.6198 70.2612 40.4154 70.2776C40.0254 70.3105 39.6355 70.3763 39.2667 70.5125C38.2707 70.8837 36.9575 72.864 37.075 72.9133C37.0679 72.9673 37.0843 73.0261 37.1313 73.0801C37.6646 73.6697 38.1344 73.4889 38.7663 73.0989C39.417 72.6996 39.7341 72.0817 40.5375 71.9079C40.7255 71.868 41.6816 71.8327 41.9705 71.8891C42.041 71.9032 42.0574 71.9948 41.9987 72.0348C41.7873 72.1804 41.1389 72.2838 40.8053 72.5304C40.0795 73.0684 39.8798 73.3409 39.3019 74.0221C39.0576 74.311 39.5274 74.7456 39.7717 74.8325C40.1382 74.9641 40.5047 74.7268 40.8194 74.5624C41.2634 74.3298 41.5594 74.1184 41.9916 73.8694C42.0151 73.8577 42.0363 73.8436 42.0621 73.8295C42.5249 73.5617 43.1004 73.5452 43.5655 73.8107C44.3102 74.2335 45.8136 74.7668 46.9553 74.6869C47.1926 74.6705 47.4275 74.7127 47.6366 74.8255C48.9709 75.549 51.1532 76.5732 51.4445 76.6672C51.3928 75.8732 51.4468 75.004 51.8532 74.4238C52.2455 73.86 52.659 73.3761 52.8704 72.7113C52.8727 72.7019 52.8704 72.6925 52.8727 72.6831C52.9878 72.6009 54.0543 72.4341 53.9016 72.3331V72.3284Z" fill="#944B3C"/>
<path d="M55.9455 39.7484C55.5485 39.8141 53.9957 40.2863 53.9839 40.7843C53.9652 41.4961 55.3958 41.1132 55.7293 40.9769C56.0629 40.8407 56.5539 40.6128 56.5586 40.1383C56.5609 39.7672 56.2978 39.6896 55.9455 39.7484Z" fill="#522727"/>
<path d="M59.7887 39.7245C60.4112 39.7762 61.3509 40.2554 61.6022 40.347C61.7643 40.4058 61.8912 40.5162 61.8559 40.7393C61.8818 40.8662 61.8489 41.0048 61.7197 41.0588C61.2076 41.2702 60.6767 41.2491 60.1458 41.0682C59.7958 40.9484 59.2766 40.7487 59.2202 40.2202C59.1756 39.8091 59.4293 39.6963 59.7911 39.7269L59.7887 39.7245Z" fill="#522727"/>
<path d="M71.4776 67.2001C71.4142 67.2001 71.3602 67.1484 71.3602 67.085C71.2897 63.1901 71.9286 60.4863 71.9357 60.4605C71.9521 60.397 72.0132 60.3595 72.0766 60.3736C72.1401 60.3877 72.1777 60.4511 72.1636 60.5145C72.1565 60.5403 71.5246 63.2183 71.5951 67.0803C71.5951 67.146 71.5457 67.1977 71.48 67.2001H71.4776Z" fill="#3D1B21"/>
<path d="M67.6158 38.4424C67.3128 38.0477 67.2869 37.5145 67.2329 37.0376C67.0285 35.2217 66.6574 33.5985 65.4006 32.2055C64.2284 30.9088 62.6075 30.1946 60.895 30.049C60.6554 30.0279 60.4275 29.9456 60.2091 29.8446C58.2358 28.9144 53.8077 29.746 51.8016 31.5149C50.6129 32.5626 49.7579 33.9368 49.2364 35.4238C48.8816 36.4339 48.5739 37.6296 48.5951 38.7642C48.6021 39.1119 48.4165 39.4384 48.1182 39.6169C45.9429 40.9277 45.3063 43.6739 46.2577 45.9478C46.8003 47.2445 48.1934 47.8764 49.0437 48.9476C50.0304 50.1903 50.5542 51.7501 52.5721 51.736C53.7349 51.7266 54.0027 50.5121 54.1014 49.7205C54.193 48.9922 54.6816 48.701 55.0504 48.1254C55.7904 46.9673 55.485 45.6048 54.9071 44.3387C54.2024 42.7953 53.4295 41.5338 53.904 39.7837C54.3645 38.0877 56.2132 36.6218 57.7237 35.8795C57.9187 35.7832 58.1442 35.9124 58.1794 36.1285C58.3697 37.296 59.2154 38.3179 60.2349 39.2223C60.6906 39.6263 61.2943 40.0703 61.5715 40.6247C62.0555 41.5949 61.3084 42.5745 61.0641 43.4648C60.8175 44.3645 60.9514 45.0645 61.5457 45.781C62.1212 46.4716 62.5676 46.9039 62.5511 47.8976C62.5394 48.5201 62.382 49.1379 62.4783 49.7628C62.631 50.7494 63.5354 51.5739 64.562 51.5739C65.7013 51.5739 66.8547 50.4675 67.2775 49.4738C67.5641 48.7973 67.6816 48.0855 68.0551 47.4418C68.4662 46.7324 68.8585 46.0159 69.4011 45.3911C71.4637 43.0232 69.091 40.3687 67.6205 38.4424H67.6158Z" fill="#522727"/>
<path d="M55.5976 41.7201C55.5577 41.5862 55.4825 41.4194 55.3463 41.3606C55.1278 41.2643 54.9563 41.4734 54.9164 41.6684C54.8647 41.9221 54.9446 42.413 55.2617 42.4412C55.6611 42.4765 55.6775 41.9879 55.5976 41.7201Z" fill="#301212"/>
<path d="M59.9907 41.7201C60.0306 41.5862 60.1058 41.4194 60.242 41.3606C60.4605 41.2643 60.632 41.4734 60.6719 41.6684C60.7236 41.9221 60.6437 42.413 60.3266 42.4412C59.9272 42.4765 59.9108 41.9879 59.9907 41.7201Z" fill="#301212"/>
<path d="M62.2083 40.7962C62.1895 40.7962 62.1707 40.7915 62.1519 40.7821C62.0956 40.7515 62.0744 40.6787 62.1049 40.6223C63.1808 38.6467 61.6187 35.5436 61.6046 35.513C61.5741 35.4543 61.5975 35.3838 61.6563 35.3556C61.715 35.3274 61.7855 35.3486 61.8137 35.4073C61.8818 35.5389 63.4486 38.6514 62.3117 40.7351C62.2905 40.775 62.2506 40.7962 62.2083 40.7962Z" fill="#301616"/>
<path d="M57.773 35.1795C57.7236 35.1795 57.6767 35.1466 57.6602 35.0973C57.1998 33.6174 57.6391 31.9448 57.6602 31.8743C57.6767 31.8109 57.7401 31.7757 57.8035 31.7921C57.8669 31.8086 57.9022 31.8743 57.8857 31.9354C57.881 31.9518 57.4441 33.6127 57.8857 35.0268C57.9045 35.0879 57.8693 35.1537 57.8082 35.1748C57.7965 35.1795 57.7847 35.1795 57.773 35.1795Z" fill="#301616"/>
<path d="M62.6028 47.9075C62.5464 47.9075 62.4971 47.8675 62.4877 47.8088C62.2692 46.5051 61.44 45.9789 61.4306 45.9742C61.3765 45.9413 61.3577 45.8684 61.393 45.8121C61.4259 45.758 61.4987 45.7392 61.5551 45.7721C61.5927 45.7956 62.483 46.3524 62.7202 47.7689C62.732 47.8323 62.6873 47.8934 62.6239 47.9051C62.6169 47.9051 62.6098 47.9051 62.6051 47.9051L62.6028 47.9075Z" fill="#301616"/>
<path d="M48.3768 45.72C48.3181 45.72 48.2664 45.6754 48.2593 45.6167C48.1912 45.0176 48.4214 44.4539 48.9664 43.8901C49.1261 43.7256 49.3023 43.5847 49.4715 43.4484C49.8403 43.1524 50.1879 42.8729 50.3242 42.3796C50.4581 41.8839 50.2749 41.4024 50.0799 40.895C49.993 40.6647 49.9014 40.4275 49.845 40.1902C49.5584 38.9922 49.892 37.8998 50.2561 36.885C50.2772 36.8239 50.3453 36.7934 50.4064 36.8145C50.4675 36.8357 50.498 36.9038 50.4769 36.9649C50.1245 37.9468 49.8027 39.0016 50.0728 40.1362C50.1269 40.357 50.2091 40.5778 50.2984 40.8104C50.498 41.3319 50.7047 41.8698 50.5497 42.4407C50.3947 43.0068 50 43.3239 49.6195 43.6317C49.455 43.7632 49.2859 43.8995 49.1355 44.0545C48.6422 44.5643 48.4308 45.0646 48.4919 45.5885C48.4989 45.6519 48.452 45.7106 48.3885 45.7177C48.3838 45.7177 48.3791 45.7177 48.3744 45.7177L48.3768 45.72Z" fill="#301616"/>
<path d="M67.3056 47.8342C67.3056 47.8342 67.2915 47.8342 67.2845 47.8342C67.2211 47.8224 67.1788 47.7613 67.1882 47.6979C67.5899 45.3488 66.3542 44.6582 65.2643 44.0474C64.7709 43.7702 64.3035 43.5094 64.0897 43.1148C63.4413 41.9214 64.1484 39.5841 64.179 39.4854C64.1978 39.4243 64.2635 39.3891 64.3246 39.4079C64.3857 39.4267 64.4209 39.4925 64.4021 39.5535C64.3951 39.577 63.695 41.8956 64.2964 43.002C64.4797 43.338 64.8954 43.5705 65.3794 43.8407C66.4811 44.4561 67.8506 45.2219 67.4207 47.7355C67.4113 47.7919 67.362 47.8342 67.3056 47.8342Z" fill="#301616"/>
<path d="M72.3328 68.7978C72.314 68.7978 72.2975 68.7931 72.2787 68.7861C72.22 68.7579 72.1965 68.685 72.2271 68.6287C72.2952 68.4924 73.9255 65.2906 75.389 64.2053C76.9582 63.0401 80.7426 62.4998 80.9023 62.4763C80.9658 62.4669 81.0268 62.5116 81.0339 62.5774C81.0433 62.6408 80.9986 62.7019 80.9329 62.7089C80.8953 62.7136 77.0474 63.2633 75.5276 64.3932C74.1087 65.4456 72.4502 68.7015 72.4338 68.7344C72.4126 68.7743 72.3727 68.7978 72.3281 68.7978H72.3328Z" fill="#3D1B21"/>
<path d="M68.8234 45.1251C68.7576 45.1251 68.7059 45.0711 68.7059 45.0053C68.727 43.5794 68.276 43.18 67.7052 42.6773C67.4468 42.4494 67.1555 42.191 66.8924 41.8128C66.0538 40.6077 66.5753 38.9704 66.5964 38.8999C66.6175 38.8389 66.681 38.8036 66.7444 38.8248C66.8055 38.8459 66.8407 38.9117 66.8196 38.9728C66.8149 38.9892 66.3122 40.5678 67.085 41.6789C67.3317 42.0337 67.6018 42.2709 67.8602 42.5011C68.4522 43.025 68.9643 43.476 68.9408 45.01C68.9408 45.0734 68.8868 45.1251 68.8234 45.1251Z" fill="#301616"/>
<path d="M50.9463 50.7325C50.897 50.7325 50.85 50.702 50.8336 50.6527C50.8101 50.5798 50.258 48.865 50.7231 47.6998C50.9886 47.0374 51.3785 46.4924 51.792 45.9145L51.8601 45.8182C52.5414 44.8621 52.6776 43.6711 52.2313 42.5506C52.2078 42.4895 52.236 42.4214 52.297 42.3979C52.3581 42.3744 52.4262 42.4026 52.4497 42.4637C52.9266 43.6594 52.781 44.9326 52.0527 45.9544L51.9846 46.0508C51.5806 46.6169 51.1977 47.1501 50.9416 47.7868C50.507 48.872 51.052 50.5611 51.0591 50.5798C51.0802 50.6409 51.045 50.709 50.9839 50.7278C50.9722 50.7325 50.9604 50.7325 50.9463 50.7325Z" fill="#301616"/>
<path d="M79.6338 70.1154C79.3778 69.0865 78.9173 68.114 77.8696 67.6442C77.327 67.3999 75.1776 67.2284 74.703 67.1532C74.5621 67.1297 74.4987 66.9606 74.595 66.8549C75.2974 66.0632 77.3998 66.5307 78.2361 66.4391C79.1217 66.3428 79.8123 66.1595 79.5939 65.18C79.5727 65.0836 79.5093 65.0367 79.4365 65.0249C79.4013 64.9873 79.3543 64.9615 79.2908 64.9544C77.9706 64.7923 76.4155 64.487 75.2504 64.541C74.104 64.595 72.1308 65.3373 71.2451 66.0397C68.9336 67.8744 66.5352 70.3245 64.4727 72.4622C63.9934 72.6948 64.1931 72.6948 64.1555 72.7323C63.5142 73.3713 63.23 73.5968 62.6897 74.3227C62.5017 74.5764 62.4172 74.6962 62.537 75.0204C62.6967 75.4526 63.4461 75.8849 63.7961 76.155C64.5032 76.7023 65.2549 77.1792 66.0395 77.6068C66.1593 77.6725 66.2697 77.6208 66.3308 77.5339C66.406 77.6749 66.5986 77.7383 66.7607 77.4564C67.6839 76.8315 68.4544 76.3124 69.3776 75.6875C70.3901 75.5936 71.3438 75.1261 72.1871 74.5834C72.6429 74.2898 73.0751 73.9609 73.4862 73.6086C73.6741 73.4465 73.8574 73.2773 74.0382 73.1059C74.4564 72.7089 75.0249 73.3079 75.3655 73.6015C75.6709 73.8646 75.7601 74.4143 76.1407 74.5694C76.6669 74.7831 77.3458 74.7855 77.3059 74.0103C77.2683 73.2585 76.6833 72.3189 76.1078 71.8702C75.7648 71.6048 75.3749 71.4521 74.9661 71.3652C74.8722 71.3464 74.8158 71.2524 74.8416 71.1608C74.8769 71.041 74.9732 70.9588 75.0883 70.9517C75.1658 70.947 75.241 70.9447 75.3185 70.9447C76.0632 70.9564 76.4978 71.3158 77.0568 71.7434C77.381 71.9924 77.8555 72.481 78.3183 72.3659C78.9197 72.2155 78.8351 71.5226 78.6167 70.8836C78.673 71.0527 79.1006 70.9 79.1851 70.8507C79.3754 70.7379 79.6996 70.3621 79.6385 70.1154H79.6338Z" fill="#944B3C"/>
<path d="M64.313 72.3287C64.313 72.3287 55.6377 74.8164 50.6576 75.6691C48.7995 75.9862 45.1466 75.897 43.5539 77.8867C41.9612 79.8764 42.1562 88.1264 42.1562 88.1264C48.5387 90.4896 55.3136 88.5375 61.4119 86.2824C62.2951 85.9559 63.223 85.7444 63.8667 85.0256C64.3905 84.443 64.8063 83.8205 65.403 83.2943C66.2111 82.5802 66.8829 81.7509 67.3857 80.7949C69.0347 77.6541 64.8885 72.1948 64.3154 72.3263L64.313 72.3287Z" fill="#E1A557"/>
<path d="M75.1212 78.514C68.7692 73.6373 54.1718 70.6093 52.0294 70.1864C51.8697 70.1559 51.7099 70.2311 51.6324 70.3743C51.1156 71.3516 49.2645 75.2417 49.5205 80.4685C49.5299 80.64 49.638 80.7927 49.7954 80.8561C50.6528 81.2038 53.3637 82.3337 53.9157 82.8364C57.0307 85.6812 69.4293 92.6181 76.1712 87.0366C79.4529 84.321 75.1188 78.514 75.1188 78.514H75.1212Z" fill="#E1A557"/>
<path d="M57.674 43.4109C57.1994 43.0703 57.338 42.436 57.4555 41.9545C57.4907 41.8112 57.2699 41.7525 57.237 41.8934C57.089 42.4948 56.988 43.1972 57.5589 43.6083C57.6787 43.6928 57.7914 43.4978 57.674 43.4109Z" fill="#6F2E17"/>
<path d="M58.5106 42.9578C58.3556 42.9601 58.2146 42.9954 58.0713 43.0564C57.9374 43.1152 58.0525 43.3101 58.1864 43.2538C58.2898 43.2091 58.3979 43.188 58.5106 43.1856C58.6563 43.1833 58.6563 42.9554 58.5106 42.9578Z" fill="#6F2E17"/>
<path d="M58.1791 44.4137C57.9325 44.4043 57.6694 44.3902 57.4321 44.4747C57.2747 44.5311 57.0116 44.7026 57.0163 44.9093C57.0257 45.2452 57.3875 45.0972 57.566 45.0761C57.9113 45.0338 58.2566 45.109 58.5996 45.1489C58.7241 45.163 58.9449 45.2147 58.9942 45.0338C59.107 44.6321 58.4164 44.4254 58.1791 44.416V44.4137Z" fill="white"/>
<path d="M58.4545 52.6055C57.9377 52.6055 57.3433 52.535 56.6621 52.3729C56.5987 52.3588 56.5611 52.2954 56.5752 52.232C56.5916 52.1686 56.6527 52.1286 56.7161 52.1451C59.6972 52.8639 60.9163 51.7081 61.3791 50.9541C61.5177 50.7262 61.5858 50.4608 61.5717 50.1859L61.5295 49.251C61.5154 48.9432 61.4848 47.9778 61.4848 47.9778L61.7197 47.9707C61.7197 47.9707 61.7479 48.9338 61.762 49.2392L61.8043 50.1742C61.8184 50.496 61.7409 50.8084 61.5764 51.0762C61.1888 51.7081 60.3103 52.6055 58.4498 52.6055H58.4545Z" fill="#3D1B21"/>
<path d="M69.7253 89.2506C67.0145 89.2506 63.9841 88.5083 60.6766 87.0331C59.6359 86.568 58.4355 86.0112 57.3831 85.2806C57.0284 85.034 56.6807 84.7709 56.3425 84.5172C55.7364 84.0591 55.1068 83.5846 54.4326 83.204C54.0427 82.9856 53.3849 82.7131 52.6896 82.4265C50.8173 81.656 49.4877 81.0663 49.4032 80.4838C49.2834 79.6451 49.6757 76.0557 49.6921 75.9053C49.6992 75.8396 49.7579 75.7926 49.8213 75.802C49.8847 75.809 49.9317 75.8678 49.9247 75.9312C49.92 75.9688 49.5206 79.6428 49.6357 80.4532C49.7062 80.9465 51.4821 81.6771 52.7789 82.2127C53.4836 82.5016 54.1484 82.7765 54.5501 83.002C55.2384 83.3896 55.8726 83.8688 56.4858 84.3339C56.8217 84.5877 57.1693 84.8508 57.5194 85.0927C58.553 85.8115 59.7416 86.3612 60.7729 86.8217C65.2973 88.8419 69.2884 89.4738 72.6406 88.6986C73.6202 88.4731 74.6608 88.1466 75.6404 87.3009C75.6897 87.2586 75.7626 87.2633 75.8072 87.3126C75.8495 87.362 75.8448 87.4348 75.7955 87.4794C74.7783 88.358 73.7047 88.6939 72.6946 88.9288C71.755 89.1449 70.7637 89.2553 69.7277 89.2553L69.7253 89.2506Z" fill="#3D1B21"/>
<path d="M65.6518 73.9898C65.6306 73.9898 65.6118 73.9851 65.593 73.9733C64.7826 73.4965 63.8242 73.1606 62.9926 72.8951C62.7553 72.8199 62.518 72.7448 62.2831 72.6743C62.0388 72.5991 61.7969 72.5239 61.5596 72.4488C59.8048 71.885 55.6046 70.9806 53.3471 70.4967C52.8679 70.3933 52.4826 70.3111 52.2313 70.2547C51.8719 70.1748 51.5876 70.7292 51.5853 70.7339C51.5571 70.7926 51.4866 70.8161 51.4279 70.7879C51.3692 70.7598 51.3457 70.6893 51.3739 70.6306C51.388 70.6 51.7403 69.9047 52.2806 70.0268C52.532 70.0832 52.9172 70.1654 53.3964 70.2688C55.6563 70.7551 59.8659 71.6618 61.6324 72.228C61.8673 72.3031 62.1093 72.3783 62.3536 72.4535C62.5885 72.5263 62.8281 72.5991 63.0654 72.6766C63.9087 72.9468 64.8836 73.2874 65.7128 73.776C65.7692 73.8089 65.788 73.8817 65.7551 73.9358C65.734 73.9733 65.694 73.9945 65.6541 73.9945L65.6518 73.9898Z" fill="#3D1B21"/>
<path d="M76.8995 78.7089C76.8713 78.7089 76.8454 78.6995 76.8219 78.6807C74.7289 76.8813 70.4206 75.9041 70.376 75.8947C70.3125 75.8806 70.2726 75.8171 70.2867 75.7537C70.3008 75.6903 70.3619 75.6504 70.4277 75.6645C70.6062 75.7044 74.8369 76.6652 76.9746 78.5022C77.024 78.5445 77.0287 78.6196 76.9864 78.6666C76.9629 78.6948 76.93 78.7066 76.8971 78.7066L76.8995 78.7089Z" fill="#3D1B21"/>
<path d="M41.6769 78.0631C41.6417 78.0631 41.6065 78.0467 41.583 78.0162C41.543 77.9645 41.5548 77.8917 41.6065 77.8517C45.0526 75.2747 48.5528 75.7962 48.588 75.8009C48.6515 75.8103 48.6961 75.8714 48.6843 75.9348C48.6749 75.9983 48.6162 76.0429 48.5504 76.0312C48.5176 76.0265 45.109 75.5214 41.7451 78.0373C41.7239 78.0537 41.6981 78.0608 41.6746 78.0608L41.6769 78.0631Z" fill="#3D1B21"/>
<path d="M48.1088 89.3851C44.5687 89.3851 41.7192 88.4807 39.4664 86.6554C39.4171 86.6155 39.4077 86.5403 39.4499 86.491C39.4899 86.4417 39.565 86.4323 39.6144 86.4746C42.6682 88.9482 46.8543 89.6975 52.41 88.7626C54.8766 88.3492 57.4629 87.6186 60.0986 86.5944C60.1597 86.5709 60.2278 86.6014 60.2513 86.6601C60.2748 86.7212 60.2443 86.7893 60.1855 86.8128C57.5357 87.8441 54.9329 88.577 52.4523 88.9952C50.9019 89.2559 49.4572 89.3851 48.1111 89.3851H48.1088Z" fill="#3D1B21"/>
<path d="M63.1265 72.9299C63.0913 72.9299 63.0584 72.9158 63.0349 72.8853C62.995 72.8336 63.002 72.7608 63.0537 72.7208C63.0725 72.7067 63.5165 72.352 63.7115 72.2275C63.944 72.0795 64.3105 72.204 64.3528 72.2181C64.4138 72.2393 64.4444 72.3074 64.4232 72.3685C64.4021 72.4295 64.334 72.4624 64.2729 72.4389C64.1977 72.4108 63.9534 72.352 63.8383 72.4248C63.6551 72.5423 63.2064 72.8994 63.2017 72.9041C63.1806 72.9205 63.1547 72.9299 63.1289 72.9299H63.1265Z" fill="#3D1B21"/>
<path d="M46.5113 68.2625C46.4925 68.2625 46.4738 68.2578 46.4573 68.2484C45.8418 67.9313 44.2069 67.236 44.1904 67.2289C44.1317 67.2031 44.1035 67.1349 44.1293 67.0739C44.1552 67.0151 44.2233 66.987 44.2844 67.0128C44.3525 67.041 45.9452 67.7199 46.5677 68.0394C46.6264 68.0699 46.6476 68.1404 46.617 68.1967C46.5959 68.2367 46.556 68.2602 46.5137 68.2602L46.5113 68.2625Z" fill="#6F2E17"/>
<path d="M78.4335 70.7355C78.3936 70.7355 78.3537 70.7143 78.3302 70.6744C78.3255 70.665 77.757 69.6572 77.0687 69.2696C76.5167 68.9595 75.0391 68.6917 74.2239 68.835C74.1605 68.8444 74.0994 68.8045 74.0877 68.7387C74.0759 68.6753 74.1182 68.6142 74.184 68.6025C74.9921 68.4615 76.5355 68.6988 77.1838 69.0652C77.9308 69.4857 78.5111 70.517 78.5345 70.5593C78.5651 70.6156 78.5463 70.6885 78.4899 70.719C78.4711 70.7284 78.4523 70.7331 78.4335 70.7331V70.7355Z" fill="#6F2E17"/>
<path d="M103.273 48.8205C103.108 48.5081 102.927 48.2004 102.737 47.8973C101.41 45.7855 100.348 43.7488 100.146 41.2141C99.9042 38.1649 99.1407 35.2638 97.0265 32.7643C94.17 29.3863 89.911 27.6292 85.6075 27.0419C81.8113 26.5228 76.7654 26.215 74.5854 30.0723C72.6921 33.4268 73.2535 37.9441 76.2533 40.4131C77.9635 41.8202 80.1622 42.7575 81.4331 44.6415C82.8825 46.7932 81.2546 49.0977 82.0908 51.3505C82.805 53.2768 84.8581 54.254 85.9857 55.896C87.5079 58.1113 87.5972 60.6131 87.1297 63.1783C86.7468 65.276 86.0726 67.5476 86.6763 69.6712C87.2025 71.527 88.7623 72.5606 90.604 72.8637C92.3095 73.1456 94.1888 72.8496 95.6429 71.8794C97.2849 70.78 97.9356 68.8138 98.4548 67.005C99.0702 64.8626 99.7256 63.1595 101.159 61.3977C103.249 58.8277 104.746 56.0252 104.445 52.6049C104.325 51.2542 103.898 49.9998 103.275 48.8205H103.273Z" fill="#93A4E0"/>
<path d="M92.8194 15.6932C92.6831 11.8806 90.9847 8.40625 87.2755 6.73368C84.0408 5.27723 80.5218 5.38999 77.0428 5.67423C75.6333 5.78934 74.2238 5.40408 73.0845 4.56545C71.0314 3.05732 68.6705 1.93914 66.0184 2.00257C64.4421 2.04015 62.8565 2.48179 61.6091 3.43318C60.0728 4.60304 59.1096 6.4048 57.8435 7.82132C55.6823 10.2386 52.9526 13.2807 54.2846 16.708C54.8202 18.0846 55.936 19.0148 57.4065 19.3954C59.4056 19.9122 61.3624 19.7759 62.5652 21.6975C64.0498 24.0654 63.6552 28.2727 67.5711 28.3173C71.4942 28.3619 73.4345 24.1523 76.7961 22.8838C80.4983 21.4861 84.2005 23.6449 87.9661 22.6466C91.323 21.7539 92.9345 18.9115 92.8194 15.6955V15.6932Z" fill="#93A4E0"/>
<path d="M108.735 29.2828C108.612 29.015 108.443 28.759 108.218 28.5217C107.229 27.481 106.176 27.3002 105.646 25.8531C104.464 22.6395 100.783 20.5653 97.4542 21.9348C95.5302 22.7264 93.7003 26.2243 95.6641 27.8616C96.7894 28.7989 98.4737 28.5311 99.6858 29.412C101.246 30.5443 101.497 32.494 102.568 33.9787C103.282 34.97 104.473 35.8204 105.754 35.6419C107.09 35.4563 107.889 34.2911 108.382 33.1377C108.899 31.9326 109.28 30.4785 108.732 29.2805L108.735 29.2828Z" fill="#93A4E0"/>
<path d="M105.672 74.9186C105.646 73.1685 105.136 71.4865 103.929 70.3825C103.066 69.5955 102.15 69.861 101.3 70.467C100.567 70.9909 100.107 71.8272 99.7941 72.6541C99.3947 73.7112 99.1175 74.78 98.2061 75.5317C96.7214 76.7556 94.5109 76.6147 92.7045 76.6875C90.4564 76.7767 87.8723 77.2536 86.9163 79.5769C86.1434 81.4562 86.9444 83.5445 88.7204 84.4959C90.4258 85.4097 92.244 84.9423 93.9495 84.3244C95.0512 83.9274 96.0684 83.8429 97.2335 83.8969C98.199 83.9392 99.1551 83.965 100.085 83.662C103.708 82.4851 105.726 78.5503 105.674 74.921L105.672 74.9186Z" fill="#93A4E0"/>
<path d="M50.0632 25.4959C49.4478 22.684 46.2624 21.4155 45.715 18.606C45.3721 16.8441 45.3744 14.9836 44.6955 13.3017C43.3401 9.9401 38.8063 8.31686 35.4565 8.63869C30.6102 9.10616 26.1869 12.1342 23.5253 16.1488C22.1182 18.2724 21.1433 20.6426 20.1943 22.9988C19.4332 24.8875 18.968 27.0416 17.4975 28.5404C15.9142 30.1542 13.3043 30.1706 11.4274 31.4627C9.01955 33.1211 7.66646 35.9448 7.78392 38.8577C7.89668 41.6813 9.40715 44.223 11.4814 46.0624C12.5291 46.9903 13.7225 47.7561 14.9957 48.3316C16.2736 48.9095 17.615 49.0152 18.4747 50.2415C18.9798 50.9626 19.3345 51.7778 19.7597 52.5506C21.0494 54.881 23.6945 56.3351 26.3536 56.2199C28.4678 56.126 29.5813 54.5615 30.8287 52.8537C31.8764 51.416 32.1372 49.5696 32.6305 47.9017C33.6359 44.4979 36.7579 43.4854 39.6167 42.0924C41.496 41.1762 42.8327 39.9195 43.0652 37.7442C43.225 36.2501 42.8679 34.8571 43.5867 33.4453C44.2821 32.0828 45.4848 31.4814 46.7322 30.7391C48.6068 29.6233 50.5965 27.9366 50.0609 25.4936L50.0632 25.4959Z" fill="#93A4E0"/>
<path d="M49.786 16.2497C48.4846 16.9991 48.8463 19.6301 49.9575 20.4241C50.5072 20.8164 50.8407 21.1688 51.1579 21.7561C51.6089 22.5923 52.5274 22.8672 53.2439 22.0802C54.4161 20.7929 53.4154 18.3898 52.5109 17.2458C52.027 16.6326 51.3411 16.0148 50.5072 16.0524C50.2253 16.0665 49.988 16.137 49.7883 16.2521L49.786 16.2497Z" fill="#93A4E0"/>
<path d="M12.2425 51.5923C11.7092 50.6409 10.6827 50.1076 9.73598 49.464C8.09396 48.3435 7.34459 46.7085 7.00397 44.7798C6.81604 43.711 6.46837 42.13 5.0636 42.4354C3.3605 42.8066 2.01445 44.7916 1.39664 46.2856C0.205639 49.1797 1.96982 52.001 3.09974 54.632C4.22027 57.2395 6.44958 58.7571 9.28496 57.5849C11.2065 56.7909 12.8814 54.7847 12.5761 52.6071C12.522 52.2171 12.4046 51.8859 12.2378 51.5923H12.2425Z" fill="#93A4E0"/>
<path d="M29.2407 76.3167C28.9235 75.0412 28.4749 73.782 28.1272 72.5159C27.7678 71.2098 27.6221 70.0939 27.9322 68.7573C28.2399 67.4371 28.7849 66.1827 28.8836 64.8155C29.0245 62.8634 27.8523 61.32 26.1023 60.5612C24.2042 59.7367 22.292 60.1501 20.2999 60.0797C18.4113 60.0139 17.2602 58.3789 15.5054 58.1933C13.114 57.942 11.5566 60.2629 10.9646 62.2573C10.2716 64.597 10.2927 67.3431 11.2676 69.6077C12.1838 71.7313 14.0959 73.2676 15.6792 74.8767C17.434 76.6597 19.4261 78.1279 20.9084 80.1834C22.2286 82.0157 23.3303 85.3702 26.208 84.7665C29.9078 83.9889 29.9571 79.1733 29.2454 76.3214L29.2407 76.3167Z" fill="#93A4E0"/>
</g>
</svg>
