<svg width="111" height="91" viewBox="0 0 111 91" fill="none" xmlns="http://www.w3.org/2000/svg">
<path d="M111 31.1493C111 39.7509 107.586 47.5382 102.066 53.1756C99.9446 55.3424 97.5133 57.1903 94.8438 58.6461C90.5683 60.978 85.6869 62.2987 80.5016 62.2987H30.4984C22.7654 62.2987 15.7041 59.359 10.3275 54.5132C3.99403 48.8064 0 40.4544 0 31.1493C0 22.5478 3.41435 14.7605 8.93358 9.12306C14.4528 3.48563 22.0769 0 30.4984 0H80.5016C97.3464 0 111 13.9463 111 31.1493Z" fill="#5C3243"/>
<path d="M109.141 30.9167C109.141 32.7195 108.98 34.4867 108.668 36.1995C107.578 42.2347 104.654 47.632 100.493 51.793C98.4383 53.8472 96.0839 55.5994 93.5006 56.9783C89.3621 59.1882 84.6364 60.4414 79.6162 60.4414H31.2132C24.0299 60.4414 17.447 57.8769 12.3274 53.6108C12.1116 53.4326 11.8977 53.2487 11.6876 53.063C9.19253 50.8606 7.07076 48.2417 5.433 45.317C4.38618 43.4466 3.53635 41.4505 2.91351 39.3569C2.11621 36.6835 1.68848 33.8508 1.68848 30.9186C1.68848 25.9152 2.93415 21.2027 5.13096 17.0736C5.17411 16.9948 5.21538 16.9141 5.25853 16.8353C6.62052 14.3308 8.33519 12.044 10.335 10.0441C15.6798 4.69563 23.06 1.39197 31.2132 1.39197H79.6162C82.2239 1.39197 84.7528 1.72965 87.1597 2.36374C90.6828 3.29237 93.949 4.85697 96.8268 6.92433C102.273 10.8377 106.331 16.5595 108.124 23.21C108.582 24.9097 108.893 26.6731 109.042 28.4797C109.107 29.2827 109.141 30.095 109.141 30.9167Z" fill="white"/>
<path d="M74.4632 22.9119C74.27 22.0395 74.0805 21.1653 73.9529 20.2798C73.8272 19.4037 73.786 18.537 73.8104 17.6534C73.8291 17.0118 73.7297 16.3646 73.0675 16.1001C72.7166 15.9594 72.2833 15.9463 71.9062 15.8337C71.9175 15.5879 71.9137 15.3403 71.8912 15.0927C71.8874 15.0589 71.8574 15.042 71.8274 15.057C71.7411 15.0964 71.6942 15.1808 71.6379 15.2559C71.5535 15.3684 71.4691 15.4829 71.394 15.6011C71.2477 15.8262 71.137 16.0644 71.062 16.3215C70.9363 16.7586 70.8012 17.3176 70.9007 17.7791C70.9007 17.7885 70.9007 17.796 70.9007 17.8054C70.9288 18.1449 71.092 18.4113 71.2421 18.7077C71.4691 19.158 71.3959 19.5801 71.2946 20.0547C71.1558 20.717 71.1971 21.3642 71.6548 21.9007C71.91 22.199 72.2908 22.3585 72.5215 22.6774C72.7373 22.9738 72.8179 23.3415 72.9624 23.6736C73.1575 24.1257 73.7147 24.7016 74.2381 24.3414C74.6808 24.0375 74.5589 23.3546 74.4613 22.9138L74.4632 22.9119Z" fill="#1F2144"/>
<path d="M84.543 16.9779C84.4736 16.7697 84.3517 16.599 84.2147 16.4376C84.1941 16.357 84.1585 16.2801 84.1078 16.2107C83.9465 15.9855 83.6613 15.9574 83.6482 15.6347C83.6407 15.4302 83.6651 15.2351 83.5938 15.0363C83.4681 14.6798 83.1098 14.541 82.7571 14.6498C82.517 14.723 82.3275 14.8937 82.1605 15.0888C81.9973 14.9368 81.8547 14.768 81.7365 14.5879C81.0649 14.1452 80.3389 13.7906 79.6542 13.3666C79.1082 13.0289 78.7086 12.5393 78.4873 11.9859C78.0746 11.9784 77.6618 11.9971 77.251 12.0403C76.1835 12.2129 75.1311 12.4811 74.1218 12.8713C73.6303 13.1002 73.1556 13.3629 72.7092 13.6705C72.6135 13.7549 72.5197 13.8394 72.4278 13.9294C72.2889 14.2652 72.1257 14.586 71.9043 14.8749C71.8893 14.9293 71.8725 14.9837 71.8537 15.0381C71.9043 15.1901 71.8743 15.3664 71.7317 15.4602C71.6511 15.7492 71.5667 16.0381 71.5254 16.3345C71.5404 16.3345 71.5554 16.3345 71.5685 16.3345C71.6304 16.4864 71.7111 16.6309 71.818 16.7566C72.2139 17.2274 72.8123 17.2124 73.3507 17.038C74.0074 16.8241 74.6077 16.4902 75.3224 16.5859C75.6751 16.6328 76.0053 16.7716 76.2717 17.0117C76.5156 17.2312 76.6994 17.507 76.8927 17.7715C77.236 18.2424 77.6149 18.5894 78.1759 18.7714C78.7949 18.974 79.4703 18.9984 80.0575 19.2948C80.6635 19.6006 80.9749 20.1991 81.0499 20.8594C81.1306 21.5535 80.958 22.2327 80.8135 22.9061C80.6935 23.4689 80.2732 24.4201 80.2451 25.1236C80.5228 25.0279 80.8117 24.9454 81.0762 24.8141C81.5564 24.5758 81.8041 24.1574 81.9992 23.6678C82.1718 23.2382 82.3312 22.8686 82.6464 22.5234C82.8678 22.2796 83.1435 22.0788 83.3105 21.7899C83.4812 21.4935 83.5431 21.1389 83.5844 20.8031C83.6426 20.336 83.6463 19.8257 83.8452 19.3924C83.9521 19.1579 84.1041 18.9553 84.2429 18.7433C84.498 18.1655 84.74 17.5764 84.5393 16.9761L84.543 16.9779Z" fill="#1F2144"/>
<path d="M84.2664 38.2088C83.4972 39.6533 83.3509 41.3005 83.1895 42.9007C83.1032 43.7449 83.0132 44.591 82.8181 45.4183C82.7224 45.8235 82.6024 46.2231 82.4466 46.6077C82.2628 47.0636 82.0339 47.4801 81.5537 47.6695C80.8239 47.9584 80.0172 48.0916 79.2574 48.2774C78.5201 48.4593 77.7829 48.6601 77.0887 48.9696C76.374 49.2904 75.7662 49.735 75.2334 50.3072C74.9388 50.6243 74.6537 50.9582 74.3029 51.2152C73.9539 51.4722 73.5468 51.6223 73.1304 51.7236C72.667 51.8362 72.1942 51.8962 71.729 52.005C71.2637 52.1119 70.8078 52.2583 70.367 52.4402C69.5096 52.7948 68.7142 53.2807 68.0051 53.8791C67.9638 53.9148 68.0238 53.9729 68.0651 53.9392C68.7386 53.3707 69.4909 52.9036 70.3013 52.5584C71.123 52.2076 71.9691 52.0482 72.8396 51.8737C73.2354 51.7949 73.6294 51.6917 73.9914 51.5079C74.346 51.3259 74.6424 51.0595 74.9163 50.7743C75.2033 50.4761 75.4679 50.1571 75.7812 49.8851C76.087 49.6187 76.4265 49.3973 76.7848 49.2097C78.205 48.4706 79.8296 48.2961 81.3435 47.8271C81.6812 47.7221 81.972 47.5795 82.1878 47.2887C82.4147 46.981 82.5517 46.5965 82.6736 46.2363C82.9363 45.4615 83.0732 44.6529 83.1727 43.8425C83.4053 41.9533 83.4278 39.9666 84.3414 38.2482C84.3677 38.1994 84.2945 38.1581 84.2682 38.205L84.2664 38.2088Z" fill="#5C3243"/>
<path d="M92.3397 44.865C92.2946 45.1427 92.2458 45.4203 92.199 45.6961C92.092 46.3058 91.9832 46.9136 91.8913 47.5252C91.7562 48.4332 91.683 49.3506 91.5686 50.2623C91.3435 52.0445 90.9477 53.8005 90.1747 55.4307C89.5782 56.6895 88.9891 57.9577 88.5013 59.2634C85.753 60.1095 82.8339 60.5654 79.8079 60.5654H56.1626C56.2114 60.3684 56.2677 60.1733 56.3277 59.9801C56.5153 59.3816 56.7273 58.7907 56.9374 58.1997C57.3501 57.0328 57.7872 55.8753 58.2469 54.7253C58.9072 53.0707 59.6163 51.4367 60.3705 49.8214C60.1942 48.2343 60.0047 46.6491 59.8021 45.0657C59.4212 45.7167 59.0291 46.3564 58.607 46.983C58.577 47.0281 58.5057 46.983 58.5358 46.938C58.9766 46.2833 59.3875 45.6117 59.7852 44.9288C59.6858 44.1615 59.5863 43.3942 59.4813 42.6269C59.4738 42.5744 59.5563 42.5538 59.5638 42.6082C59.6632 43.3417 59.7608 44.0752 59.8546 44.8087C60.2917 44.0527 60.7119 43.2892 61.1359 42.5275C62.5767 39.9405 64.1131 37.299 66.4807 35.4474C67.3905 34.7345 69.7487 33.1362 72.604 32.0256C72.6303 32.0143 72.6584 32.0049 72.6847 31.9937C74.1967 31.4121 75.8457 30.9675 77.4891 30.8662C78.9787 30.7743 80.7346 31.1438 82.4005 31.6935C82.4268 31.7029 82.4531 31.7104 82.4793 31.7198C84.875 32.5171 87.0718 33.6783 88.0042 34.3575C89.5538 35.4849 90.8989 36.907 91.7337 38.646C92.0658 39.3364 92.3115 40.0549 92.4954 40.7903C92.6736 42.1392 92.561 43.5012 92.3397 44.8631V44.865Z" fill="#B25A5C"/>
<path d="M79.7364 30.9484C79.1248 30.5282 78.2243 30.6558 77.5452 30.7927C76.791 30.9428 75.6673 31.4756 75.0426 30.7908C75.1007 30.7533 75.1589 30.7139 75.2152 30.6783C75.2602 30.6483 75.2189 30.5751 75.172 30.6051C75.1101 30.6445 75.0482 30.6839 74.9863 30.7252C74.9732 30.7083 74.9619 30.6933 74.9488 30.6764C74.9169 30.6314 74.8437 30.6745 74.8756 30.7195C74.8888 30.7383 74.9019 30.7552 74.9169 30.7721C74.4854 31.061 74.0596 31.3987 73.8119 31.8564C73.4836 32.4642 73.675 33.0758 73.9564 33.6611C74.2697 34.3102 74.6749 34.9143 75.157 35.449C75.4047 35.7248 75.6711 35.9818 75.9562 36.2181C76.2113 36.4301 76.4852 36.6609 76.8004 36.7809C77.4589 37.0323 78.0836 36.5314 78.5489 36.1187C79.0573 35.6666 79.4869 35.1226 79.7964 34.5166C80.0928 33.9388 80.2785 33.2991 80.3048 32.6481C80.3273 32.0571 80.2654 31.3142 79.7345 30.9484H79.7364Z" fill="#EB8773"/>
<path d="M86.6119 46.5722C86.5706 46.2702 86.5425 45.925 86.3793 45.6586C86.2236 45.4072 85.9666 45.2121 85.7414 45.0264C85.5144 44.8388 85.2874 44.6455 85.0361 44.4917C84.5464 44.1915 84.0399 44.1484 83.5165 44.3904C83.2144 44.5311 82.9368 44.7243 82.6573 44.9044C82.3946 45.0733 82.1301 45.244 81.8675 45.4128C81.5335 45.5423 81.2015 45.6811 80.8694 45.8143C80.453 45.9813 80.0365 46.1501 79.6181 46.3171C79.2842 46.4521 78.8865 46.5572 78.6032 46.7898C78.3255 47.0187 78.1492 47.377 77.9879 47.6903C77.8096 48.0355 77.6596 48.3957 77.5357 48.7653C77.532 48.7784 77.5339 48.7896 77.5395 48.799C77.5357 48.8028 77.5301 48.8065 77.5264 48.8103C77.5601 48.8028 77.5939 48.7971 77.6295 48.7953C77.6483 48.7953 77.6596 48.7953 77.6652 48.7953C77.6783 48.7934 77.6933 48.7896 77.7065 48.7878C77.7177 48.7859 77.729 48.7821 77.7421 48.7784C78.183 48.5664 79.1923 48.3394 79.4643 48.2531C80.1059 48.0449 80.7175 47.8629 81.3853 47.7672C82.0682 47.6697 82.7417 47.5177 83.4189 47.6565C84.0568 47.7879 84.6421 48.1049 85.2893 48.1949C85.3081 48.1968 85.3268 48.1949 85.3362 48.1762C85.4732 47.9304 85.2818 47.6884 85.0886 47.5383C84.7697 47.2926 84.3851 47.1144 84.008 46.9793C83.5896 46.8292 83.1525 46.741 82.7135 46.7148C83.1094 46.6791 83.5033 46.6435 83.8992 46.6135C84.2462 46.5872 84.6008 46.5797 84.9272 46.7185C85.203 46.8348 85.4319 47.0337 85.6345 47.2513C85.8202 47.4502 85.9703 47.6884 86.1654 47.8779C86.2817 47.9923 86.4412 48.0261 86.5556 47.8929C86.6213 47.816 86.64 47.7241 86.6344 47.6284C86.6588 47.634 86.6869 47.6209 86.6869 47.589C86.6832 47.2513 86.6588 46.9136 86.6138 46.5778L86.6119 46.5722ZM83.8485 45.2215C84.0136 45.122 84.1881 45.0226 84.3626 44.9888C84.6571 44.9307 85.0342 45.1877 85.2424 45.3809C85.4188 45.546 85.5144 45.7636 85.6064 45.985C85.0417 45.6811 84.4601 45.4147 83.8485 45.2215Z" fill="#EB8773"/>
<path d="M89.6112 51.6656C89.2303 52.8062 88.7294 53.9243 87.9115 54.8191C87.0992 55.7084 86.0561 56.2299 84.8517 56.3049C84.2045 56.3462 83.5554 56.2843 82.91 56.2243C82.3135 56.168 81.6662 56.0573 81.0697 56.168C80.5012 56.273 80.0866 56.7008 79.5876 56.9578C79.0586 57.2298 78.4714 57.3686 77.8823 57.4362C75.8131 57.6726 73.273 57.0028 71.5677 58.5486C70.9823 59.0796 70.624 59.8056 70.4458 60.5691H79.809C82.835 60.5691 85.7541 60.1132 88.5024 59.2672C88.9902 57.9615 89.5793 56.6933 90.1758 55.4345C90.9488 53.8042 91.3446 52.0483 91.5697 50.266C91.6842 49.3543 91.7573 48.4369 91.8924 47.5289C91.9843 46.9174 92.0931 46.3077 92.2001 45.6998C90.6974 47.3245 90.2959 49.6263 89.613 51.6674L89.6112 51.6656Z" fill="#5C3243"/>
<path d="M87.3566 36.2126C86.3305 36.9274 85.308 37.7191 84.6327 38.7921C84.2612 39.3793 84.0567 40.0378 83.8129 40.6832C83.5502 41.3773 83.2125 42.0376 82.8448 42.6811C82.4359 43.3959 81.9931 44.09 81.5766 44.7991C81.5485 44.846 81.6217 44.8892 81.6498 44.8423C82.3571 43.636 83.1469 42.471 83.7022 41.1822C83.9854 40.5275 84.1693 39.8277 84.4995 39.1936C84.7959 38.6233 85.2049 38.1205 85.6626 37.6722C86.1935 37.1544 86.792 36.7079 87.3998 36.2839C87.4448 36.2539 87.4017 36.1789 87.3566 36.2107V36.2126Z" fill="#5C3243"/>
<path d="M68.5815 50.57C68.3845 49.647 68.1875 48.7258 67.9905 47.8028C67.7954 46.8892 67.5572 45.9719 67.4371 45.0451C67.3151 44.1108 67.4483 43.1935 67.544 42.263C67.6266 41.4732 67.6397 40.6777 67.499 39.8936C67.3527 39.0794 67.0394 38.3046 66.5197 37.6574C66.4859 37.6142 66.4259 37.6742 66.4597 37.7174C67.4896 38.995 67.6209 40.6909 67.4596 42.263C67.3658 43.1653 67.2345 44.0602 67.3433 44.9682C67.4483 45.848 67.6716 46.7166 67.8573 47.5815C68.0712 48.5851 68.2869 49.5888 68.5008 50.5925C68.512 50.645 68.5927 50.6225 68.5815 50.57Z" fill="#5C3243"/>
<path d="M79.2692 32.1137C78.9296 32.14 79.0084 32.1493 79.136 32.1343C79.0515 32.1493 78.9671 32.1643 78.8846 32.1756C78.6238 32.2094 78.3631 32.2338 78.1023 32.2469C77.8396 32.2619 77.5789 32.2657 77.32 32.26C77.2299 32.26 77.1418 32.2544 77.0517 32.2506C77.0161 32.2469 76.9786 32.245 76.9429 32.2413C76.427 32.1887 75.9224 32.1006 75.4346 31.9786C75.1982 31.9205 74.9712 31.8492 74.7405 31.7779C74.7311 31.7741 74.7217 31.7704 74.7104 31.7648C74.8099 29.8175 74.9675 27.2135 74.8906 26.2718C75.7179 26.2549 76.5489 26.2174 77.3838 26.1442C78.4362 26.0504 79.2054 25.2081 80.2616 25.0468C80.4248 25.0224 80.5861 24.998 80.7493 24.9755C80.725 25.0524 80.7024 25.1274 80.6837 25.2062C80.5974 25.5495 80.2391 29.3091 80.0008 31.8886C79.7588 31.973 79.5168 32.0555 79.271 32.1118L79.2692 32.1137Z" fill="#EB8773"/>
<path d="M72.0614 18.336C72.022 18.5667 71.962 19.0245 71.9188 19.6436C71.8982 19.9362 71.8813 20.2645 71.87 20.6228C71.8363 21.7203 71.8625 23.0917 72.0445 24.5456C72.2696 26.3334 73.4797 27.4628 74.1775 28.1869C75.0574 29.0987 75.7421 29.0124 76.954 28.6541C77.7551 28.4177 79.7099 26.9713 80.2577 26.1777C81.4002 24.5193 81.6403 21.6753 81.7529 20.848C81.9555 19.3528 82.1074 17.8538 82.2144 16.3549C81.569 15.522 80.7061 14.8804 79.7005 14.4751C78.4717 13.9799 77.0441 13.7191 75.6708 14.0005C74.4702 14.2481 73.2827 14.9704 72.688 16.081C72.309 16.7864 72.1965 17.5799 72.0633 18.3397L72.0614 18.336Z" fill="#EB8773"/>
<path d="M82.5279 32.1288C82.4885 31.868 82.2896 31.6841 82.0683 31.5472C81.8938 31.4384 81.7006 31.3502 81.558 31.1983C81.4135 31.0425 81.3254 30.8512 81.2184 30.6692C81.0815 30.4366 80.8864 30.2021 80.605 30.1533C80.3461 30.1083 80.1529 30.2696 80.0534 30.4966C79.9034 30.8399 79.8414 31.2395 79.7458 31.5997C79.637 32.0049 79.5225 32.4102 79.3931 32.8097C79.1361 33.5996 78.8171 34.3725 78.3669 35.0741C77.9317 35.7513 77.3764 36.3498 76.6954 36.7813C76.5359 35.9783 76.2039 35.2167 75.7236 34.5319C75.5379 34.2674 75.3428 34.0029 75.2058 33.7084C75.0501 33.3726 74.9657 33.0067 74.9094 32.6428C74.8006 31.943 74.7312 30.5023 74.7143 30.4666C74.598 30.2302 74.2903 30.2152 74.084 30.3409C73.9245 30.4385 73.8194 30.5942 73.7012 30.7349C73.5587 30.9056 73.3955 31.0519 73.2154 31.1814C72.8739 31.429 72.495 31.6185 72.1573 31.8717C71.9003 32.0668 71.6114 32.3239 71.5645 32.6634C71.5119 33.0424 71.8552 33.29 72.0916 33.5283C72.4124 33.8509 72.7295 34.1867 72.9696 34.5751C73.0934 34.7758 73.1928 34.9878 73.2623 35.2129C73.3279 35.4287 73.3654 35.6538 73.4499 35.8639C73.5737 36.1716 73.8026 36.3929 74.1046 36.5261C74.8644 36.8601 75.7649 36.5805 76.5209 36.8694C76.519 36.8807 76.5209 36.892 76.5265 36.9013C76.519 36.9332 76.5509 36.9708 76.5884 36.9501C76.6053 36.9407 76.6203 36.9295 76.6372 36.9201H76.641C76.6991 37.2672 76.7254 37.618 76.7179 37.9707C76.701 37.9482 76.6822 37.9256 76.6654 37.905C76.6578 37.8506 76.5753 37.875 76.5847 37.9275C76.6016 38.0326 76.6503 38.0832 76.7479 38.1189C76.7742 38.1283 76.8004 38.1039 76.8004 38.0776C76.8136 37.7005 76.7892 37.3291 76.7291 36.967C76.7704 36.9895 76.8117 37.0158 76.8511 37.0439C76.8961 37.0758 76.9374 37.0026 76.8942 36.9708C76.868 36.952 76.8417 36.9351 76.8136 36.9201C77.8566 36.8995 78.9428 36.7794 79.667 35.9389C80.0272 35.5206 80.2767 35.0234 80.6275 34.5976C80.8263 34.3556 81.0552 34.1624 81.3235 34.001C81.573 33.8509 81.8188 33.7084 82.0289 33.5058C82.2409 33.3013 82.5054 33.0499 82.6179 32.7722C82.7099 32.5434 82.6405 32.3295 82.5298 32.1306L82.5279 32.1288Z" fill="#B25A5C"/>
<path d="M78.0384 22.0468C78.0196 22.4314 78.151 22.7222 78.3311 22.6978C78.5112 22.6734 78.6725 22.3414 78.6894 21.9587C78.7063 21.576 78.5768 21.2833 78.3967 21.3077C78.2166 21.3321 78.0553 21.6641 78.0384 22.0468Z" fill="#1F2144"/>
<path d="M73.5413 21.681C73.5076 22.0637 73.6276 22.362 73.8077 22.3433C73.9878 22.3264 74.1623 22.0018 74.1961 21.6191C74.2298 21.2364 74.1098 20.9381 73.9297 20.9569C73.7496 20.9738 73.5751 21.2983 73.5413 21.681Z" fill="#1F2144"/>
<path d="M76.9261 20.0078C76.8736 20.2535 77.0236 20.443 77.2263 20.5312C77.4795 20.6419 77.7853 20.5968 78.078 20.5349C78.4776 20.4486 78.8678 20.3717 79.2636 20.3605C79.5994 20.3511 80.4436 20.5049 80.4868 19.9158C80.5299 19.3437 79.6407 19.2968 79.2111 19.2742C78.6051 19.2423 77.9748 19.3455 77.3613 19.5613C77.3613 19.5613 77.3613 19.5613 77.3595 19.5613C77.3088 19.5706 77.2619 19.5894 77.2188 19.6138C77.215 19.6138 77.2112 19.6157 77.2075 19.6176C77.2 19.6213 77.1925 19.6251 77.1887 19.6307C77.0555 19.7151 76.9599 19.8577 76.928 20.0096L76.9261 20.0078Z" fill="#1F2144"/>
<path d="M72.0598 19.3961C71.9528 19.6231 72.0523 19.8407 72.2286 19.9739C72.45 20.1408 72.7558 20.169 73.0559 20.1765C73.4649 20.1859 73.8607 20.2027 74.2491 20.2853C74.5774 20.3547 75.3615 20.7018 75.5435 20.139C75.7199 19.593 74.8663 19.3398 74.4536 19.216C73.872 19.0434 73.2342 18.9946 72.5869 19.064C72.5869 19.064 72.5869 19.064 72.5851 19.064C72.5344 19.0621 72.4837 19.0678 72.4368 19.0809C72.4331 19.0809 72.4293 19.0809 72.4256 19.0809C72.4162 19.0809 72.4106 19.0846 72.405 19.0903C72.2549 19.1409 72.1292 19.2572 72.0616 19.3979L72.0598 19.3961Z" fill="#1F2144"/>
<path d="M75.0364 22.9906C75.1959 22.621 75.3985 22.2589 75.5823 21.895C75.6067 21.8443 75.6911 21.8574 75.6649 21.9081C75.5279 22.182 75.3891 22.454 75.2521 22.7279C75.1077 23.0168 74.9539 23.3245 74.9989 23.6228C75.0889 24.2212 75.7493 24.4276 76.3515 24.4238C76.4078 24.4238 76.4021 24.5045 76.3459 24.5064C75.7512 24.5101 75.1358 24.3357 74.9501 23.7991C74.86 23.5421 74.9182 23.2682 75.0383 22.9943L75.0364 22.9906Z" fill="#CC6C59"/>
<path d="M77.0928 25.6714C76.6332 25.3431 75.9034 25.3599 75.2993 25.5344C75.0704 25.6001 74.804 25.7164 74.6352 25.9246C74.4832 26.1104 74.6014 26.2323 74.7797 26.2304C74.9466 26.2304 75.1248 26.1948 75.2956 26.1835C75.4982 26.1723 75.6989 26.1685 75.8978 26.1741C76.3161 26.1835 76.7232 26.2323 77.1209 26.313C77.2204 26.3636 77.346 26.373 77.4155 26.2229C77.5149 26.0034 77.2241 25.7633 77.0965 25.6714H77.0928Z" fill="#CC6C59"/>
<path d="M80.6221 23.7579C80.6221 24.0393 80.7609 24.2682 81.0554 24.3001C81.3781 24.3339 81.6858 24.1369 81.924 23.9437C82.5075 23.469 83.0102 22.7805 82.9052 21.987C82.8677 21.6943 82.7307 21.4129 82.4681 21.261C82.1717 21.0902 81.8283 21.1259 81.5151 21.2216C81.4944 21.199 81.4531 21.1934 81.4344 21.2291C81.4306 21.2366 81.4269 21.2441 81.4231 21.2516C81.3894 21.2628 81.3575 21.2741 81.3256 21.2872C81.2655 21.3097 81.2918 21.4092 81.3537 21.3848C81.1624 21.7525 80.9992 22.1333 80.8753 22.5291C80.7553 22.9156 80.6221 23.3527 80.6239 23.7598L80.6221 23.7579Z" fill="#EB8773"/>
<path d="M80.7155 23.0994C81.6892 23.5666 81.3215 21.6962 82.2389 21.7243C82.3045 21.7262 82.3064 21.8275 82.2389 21.8256C81.6048 21.8069 81.6836 22.6867 81.4078 23.0619C81.2108 23.3302 80.9444 23.3227 80.6649 23.1876C80.6067 23.1595 80.6574 23.0713 80.7155 23.0994Z" fill="#CC6C59"/>
<path d="M80.7006 23.9079C80.8 24.0561 80.9332 24.1874 81.1264 24.1649C81.1921 24.1574 81.1921 24.2587 81.1264 24.2662C80.8975 24.2924 80.7287 24.1367 80.6105 23.9585C80.5749 23.9041 80.6612 23.8516 80.6987 23.906L80.7006 23.9079Z" fill="#CC6C59"/>
<path d="M82.974 20.1991C82.8989 19.6813 82.7001 19.1917 82.6081 18.6852C82.655 18.355 82.6382 18.3494 82.6382 18.0286C82.64 17.4639 82.5837 16.8954 82.4337 16.3514C82.1466 15.3083 81.505 14.4285 80.5764 13.8694C79.6497 13.3123 78.5409 13.0853 77.4679 13.1528C76.2466 13.2297 75.0741 13.6481 73.9897 14.2015C73.622 14.3891 73.2224 14.5842 72.8697 14.8262C72.8566 14.8074 72.8416 14.7906 72.8228 14.7774C72.7722 14.7437 72.699 14.7437 72.6615 14.7943C72.654 14.8056 72.6503 14.8168 72.6521 14.8281C72.0799 15.0213 71.6541 15.556 71.5303 16.145C71.6391 16.3702 71.8079 16.5746 72.0218 16.706C72.6277 17.0812 73.2037 16.6309 73.7721 16.4227C74.2505 16.2463 74.8077 16.2463 75.3123 16.2689C75.3799 16.2726 75.4474 16.2764 75.5112 16.2857C75.5131 16.2857 75.5149 16.2857 75.5187 16.2857C76.0965 16.2276 76.4848 16.7547 77.0251 16.8467C77.5523 16.9367 77.8937 16.4377 78.3871 16.4133C78.7154 16.3983 78.8411 16.7153 79.0625 16.8936C79.2407 17.038 79.4658 17.0924 79.6872 17.1299C79.9667 17.1768 80.2669 17.1881 80.5201 17.3288C80.7922 17.4789 80.916 17.7528 80.9497 18.0511C81.0004 18.4976 80.9047 18.6064 80.976 19.0472C80.9723 19.2573 80.9873 19.4693 81.0492 19.6607C81.1092 19.8483 81.2368 20.0059 81.2762 20.201C81.3156 20.4055 81.2724 20.6118 81.2311 20.8126C81.188 21.0152 81.1523 21.2984 81.3643 21.4279C81.612 21.5799 81.9103 21.3078 82.1523 21.2722C82.4393 21.2309 82.6663 21.2834 82.852 21.0152C83.0171 20.7769 83.019 20.4693 82.9777 20.1954L82.974 20.1991Z" fill="#1F2144"/>
<path d="M86.4208 46.8458C86.3608 46.6826 86.2801 46.5325 86.1713 46.3955C86.0775 46.2773 85.9349 46.1066 85.7773 46.0841C85.7248 46.0766 85.7004 46.1573 85.7548 46.1648C85.8937 46.1854 86.0269 46.3486 86.1113 46.4556C86.2107 46.5794 86.2839 46.7201 86.3383 46.8683C86.357 46.9189 86.4377 46.8964 86.4189 46.8458H86.4208Z" fill="#CC6C59"/>
<path d="M84.8389 45.773C84.1073 45.6773 83.3738 45.6811 82.644 45.7824C82.5896 45.7899 82.614 45.8705 82.6665 45.863C83.3888 45.7636 84.1167 45.7617 84.8389 45.8574C84.8933 45.8649 84.8915 45.7805 84.8389 45.773Z" fill="#CC6C59"/>
<path d="M72.3372 49.7069C71.887 49.7613 71.4799 49.9508 71.0709 50.1346C70.5775 50.3579 70.101 50.4854 69.5664 50.5586C68.5646 50.6974 67.6266 51.0126 66.7767 51.5641C66.7317 51.5942 66.773 51.6673 66.8199 51.6373C67.666 51.0914 68.5965 50.7781 69.5907 50.6411C70.056 50.5774 70.4912 50.4817 70.9246 50.2941C71.3861 50.0933 71.8345 49.8532 72.341 49.7913C72.3935 49.7857 72.3954 49.6994 72.341 49.7069H72.3372Z" fill="#5C3243"/>
<path d="M77.0423 48.8757C76.6746 49.0352 76.2938 49.1477 75.8998 49.2153C75.8454 49.2246 75.8698 49.3053 75.9224 49.2959C76.3238 49.2265 76.7103 49.1102 77.0855 48.9489C77.1361 48.9282 77.093 48.8551 77.0423 48.8757Z" fill="#5C3243"/>
<path d="M75.9881 41.171C75.7817 42.0828 75.6317 43.0039 75.5379 43.9344C75.5322 43.9888 75.6167 43.9888 75.6223 43.9344C75.7161 43.0114 75.8662 42.0978 76.0707 41.1935C76.0819 41.141 76.0012 41.1185 75.99 41.171H75.9881Z" fill="#CC6C59"/>
<path d="M83.3604 16.7958C83.0564 17.4431 82.4036 17.8126 81.6907 17.7414C81.6363 17.7357 81.6363 17.8201 81.6907 17.8258C82.4299 17.8989 83.1165 17.5106 83.4335 16.839C83.456 16.7902 83.3829 16.7471 83.3604 16.7958Z" fill="#5D5F7A"/>
<path d="M83.1939 15.4585C83.1696 15.3009 83.0589 15.1902 82.9013 15.1602C82.8094 15.1433 82.7231 15.1565 82.6424 15.1884C82.8638 14.9314 83.0214 14.6237 83.0964 14.2898C83.1902 13.8827 83.1921 13.3405 82.9426 12.9841C82.678 12.607 82.1734 12.7102 81.8526 12.9447C81.7794 12.9991 81.7119 13.0572 81.6462 13.121C81.6762 12.894 81.6425 12.6708 81.5093 12.4832C81.3367 12.2449 81.0703 12.3087 80.8546 12.4494C80.8002 12.485 80.7476 12.5188 80.6951 12.5507C80.8921 12.3274 81.0647 12.0854 81.2035 11.8228C81.3705 11.5058 81.4549 11.1062 81.1435 10.8491C80.5375 10.3464 79.5864 10.8004 79.1024 11.2788C78.9767 10.8885 79.3162 10.4777 79.0611 10.0912C78.8416 9.76106 78.4326 9.66726 78.0593 9.70478C77.2188 9.79108 76.3971 10.2826 75.8287 10.8904C75.5192 11.2206 75.3203 11.6558 74.9826 11.956C74.5774 12.3181 74.0315 12.2336 73.54 12.3481C72.6901 12.5469 72.2174 13.4943 71.9716 14.2541C71.8253 14.71 71.7371 15.2371 71.8534 15.7099C71.921 15.9819 72.0654 16.2521 72.3037 16.3909H72.2999C72.2493 16.4115 72.2718 16.4922 72.3224 16.4716C72.3506 16.4603 72.3787 16.449 72.4069 16.4378C72.4519 16.4547 72.5007 16.4678 72.5532 16.4753C72.6057 16.4828 72.6301 16.4021 72.5757 16.3946C72.5626 16.3946 72.5494 16.389 72.5363 16.3871C72.9434 16.2202 73.3524 16.0457 73.7801 15.9519C74.0259 15.8994 74.2791 15.875 74.523 15.815C74.7669 15.7549 74.9976 15.6536 75.2228 15.5429C75.6918 15.3122 76.1458 15.0758 76.6542 14.9351C77.1551 14.7963 77.6803 14.7344 78.2 14.7813C78.6953 14.8244 79.183 14.9707 79.6145 15.2146C80.0329 15.451 80.3368 15.7756 80.6388 16.1414C80.8752 16.4303 81.1472 16.6836 81.5412 16.6873C81.9201 16.6911 82.3404 16.5485 82.6574 16.344C82.9369 16.1639 83.2484 15.8187 83.1921 15.4566L83.1939 15.4585Z" fill="#1F2144"/>
<path d="M74.4892 13.6029C73.3917 13.5523 72.4143 14.2539 72.1142 15.3101C72.0991 15.3626 72.1798 15.3851 72.1948 15.3326C72.4856 14.312 73.4292 13.6386 74.4892 13.6873C74.5436 13.6892 74.5436 13.6048 74.4892 13.6029Z" fill="#5D5F7A"/>
<path d="M74.2583 14.6725C73.8437 14.9295 73.5323 15.2991 73.3447 15.7493C73.324 15.8 73.4047 15.8206 73.4253 15.7718C73.6036 15.3441 73.9056 14.9914 74.2995 14.7456C74.3464 14.7175 74.3033 14.6443 74.2564 14.6725H74.2583Z" fill="#5D5F7A"/>
<path d="M45.8912 15.4676C46.4146 14.9555 46.2795 14.1225 45.8593 13.5841C45.6191 13.2783 45.304 13.0889 44.9288 12.9988C44.6567 12.9332 44.3678 12.9013 44.1183 12.7662C43.8632 12.6274 43.7056 12.3891 43.5724 12.1377C43.3379 11.6969 43.124 11.2935 42.7226 10.9802C42.368 10.7044 41.9403 10.5244 41.4938 10.4718C40.4019 10.3443 39.432 10.9971 38.3965 11.2128C37.7661 11.3442 37.1902 11.196 36.5674 11.1228C36.089 11.0665 35.6087 11.1266 35.1585 11.2973C34.3105 11.6181 33.6089 12.2934 33.305 13.1508C33.1099 13.6986 33.0292 14.2745 32.5677 14.6741C32.2075 14.9874 31.7441 15.19 31.4965 15.6196C30.9844 16.5107 31.6034 17.6044 31.6203 18.5387C31.6335 19.214 31.3277 19.8444 31.2451 20.5066C31.172 21.0976 31.2226 21.7054 31.3858 22.2776C31.5453 22.8329 31.8117 23.3544 32.17 23.8084C32.3689 24.0598 32.624 24.3299 32.7966 24.6263C32.9636 24.5757 33.138 24.5494 33.3144 24.5494C33.4382 24.5494 33.5582 24.5626 33.6746 24.5832C34.0366 23.9341 34.0985 23.0786 34.0873 22.3545C34.076 21.6454 34.0385 20.9268 34.2599 20.2421C34.47 19.593 34.9034 19.0527 35.5806 18.8689C36.2353 18.6906 36.9276 18.8051 37.5936 18.7282C38.1995 18.6587 38.6535 18.3867 39.0962 17.9834C39.3439 17.7564 39.5859 17.5163 39.8785 17.3455C40.1975 17.1598 40.5614 17.0866 40.9272 17.111C41.672 17.1636 42.2123 17.6232 42.8351 17.9721C43.3454 18.2573 43.9495 18.3961 44.4448 18.004C44.578 17.899 44.6886 17.7695 44.7824 17.6288C45.259 17.7658 45.8142 17.6419 46.1294 17.2349C46.5459 16.6983 46.4146 15.8747 45.893 15.462L45.8912 15.4676Z" fill="#1F2144"/>
<path d="M49.1402 58.8205C49.1065 59.3852 49.0464 59.9799 48.9339 60.5671H31.4025C27.7949 60.5671 24.3393 59.9199 21.1426 58.7342C21.0788 58.7098 21.0131 58.6854 20.9494 58.6611C20.925 58.6517 20.9006 58.6442 20.8781 58.6348C18.4111 57.693 16.1036 56.4286 14.0044 54.8959C13.269 54.3594 12.5579 53.7872 11.877 53.1869C12.0026 52.8417 12.1321 52.5002 12.2672 52.1588C12.9125 50.5342 13.6348 48.9396 14.3533 47.3449C15.6965 44.3602 17.1298 40.7301 18.9233 37.9874C20.6548 35.3385 22.7428 33.5694 25.3317 31.7234C26.2153 31.093 28.3652 30.1363 29.8979 29.4872C29.9242 29.4759 29.9505 29.4647 29.9767 29.4534C30.7103 29.1439 31.2899 28.9094 31.5019 28.8212C31.5451 28.8099 31.5864 28.7987 31.6295 28.7874C32.5469 28.5454 33.5806 28.5079 34.5242 28.5698C35.4528 28.6298 36.4021 28.8812 37.2913 29.1495C37.6009 29.2433 38.6646 29.8399 38.9328 30.0256C38.9535 30.0406 38.976 30.0556 38.9966 30.0706C39.2255 30.2301 39.4694 30.3933 39.7189 30.5621C39.7433 30.579 39.7677 30.5959 39.792 30.6128C41.4392 31.7252 43.3902 32.9841 44.2888 33.7438C45.0693 34.4023 45.8009 35.1208 46.4162 35.9388C47.0804 36.8224 47.5925 37.8092 47.9696 38.8447C48.7575 41.0059 48.9733 43.334 49.0277 45.6171C49.0896 48.2736 49.0014 50.9375 48.9339 53.5921C48.9207 54.1324 48.9245 54.6764 48.8832 55.2167C49.1252 56.4005 49.2134 57.6142 49.1421 58.8186L49.1402 58.8205Z" fill="#B25A5C"/>
<path d="M23.06 50.2078C23.0206 49.2379 22.8893 48.2736 22.6698 47.3281C22.6642 47.3019 22.6304 47.2869 22.6079 47.3019C21.85 47.8271 21.0508 48.3205 20.3304 48.8983C20.0284 49.1404 19.777 49.4218 19.5781 49.7538C19.3793 50.0877 19.2273 50.4498 19.0341 50.7875C18.8183 51.1665 18.5463 51.4835 18.1786 51.7218C17.8184 51.9581 17.4151 52.1176 17.0192 52.2827C16.3645 52.5547 15.7285 52.8774 15.1732 53.3257C14.6536 53.746 14.2258 54.2713 14.0063 54.8978C16.1037 56.4305 18.4112 57.695 20.8801 58.6349C20.9045 58.6442 20.927 58.6536 20.9514 58.6611C21.0151 58.6855 21.0808 58.7099 21.1446 58.7343C21.2628 58.4304 21.3828 58.1283 21.501 57.8263C21.8331 56.9765 22.1689 56.1266 22.4315 55.2524C22.9193 53.6222 23.1313 51.9075 23.0619 50.2078H23.06Z" fill="#5C3243"/>
<path d="M24.0315 42.3381C23.752 43.1485 23.3449 43.9083 23.0785 44.7225C22.8027 45.5704 22.7127 46.4597 22.7127 47.347C22.7127 49.1142 23.0447 50.8833 22.8384 52.6505C22.5926 54.7479 21.5852 56.6652 20.9492 58.6631C20.9248 58.6538 20.9004 58.6463 20.8779 58.6369C21.0768 58.0103 21.3113 57.3931 21.5458 56.7815C22.1236 55.2713 22.7033 53.7424 22.8027 52.1121C22.9078 50.3674 22.5757 48.6321 22.6376 46.8874C22.6676 46.0563 22.799 45.2346 23.0841 44.4505C23.3768 43.6456 23.782 42.884 24.0334 42.0642C24.5193 40.4771 24.2979 38.723 23.4518 37.2953C23.4237 37.2484 23.4968 37.2072 23.525 37.2522C24.433 38.7849 24.6131 40.6553 24.0334 42.3362L24.0315 42.3381Z" fill="#5C3243"/>
<path d="M109.169 28.6636C106.989 29.1533 104.839 29.8605 102.727 30.4796C98.3932 31.7497 94.0614 33.0216 89.7278 34.2879C87.5911 34.9107 85.4449 35.5186 83.2518 35.9088C80.9518 36.3159 78.6462 36.3778 76.3162 36.3159C74.1475 36.2596 71.9751 36.1527 69.8083 36.329C68.013 36.4753 66.2364 36.7886 64.4861 37.2107C57.194 38.9742 50.5004 42.5705 43.2252 44.3865C39.3118 45.362 35.3666 45.6622 31.3669 45.0919C27.2359 44.5028 23.1988 43.3359 19.0096 43.1746C14.4303 42.9982 9.8209 43.8124 5.55859 45.499C7.19635 48.4256 9.31625 51.0426 11.8132 53.245C12.0233 53.4308 12.2372 53.6146 12.4529 53.7928C13.9669 53.5715 15.5052 53.5095 17.0323 53.6109C18.1166 53.684 19.1953 53.8379 20.2553 54.0761C21.2346 54.2956 22.1782 54.6802 23.1612 54.8678C24.0373 55.0347 24.769 54.8378 25.5475 54.4325C26.4837 53.9448 27.4217 53.4645 28.3841 53.0274C30.3389 52.1419 32.3537 51.3953 34.4023 50.7556C42.7093 48.1667 51.4534 47.3037 60.0455 46.1837C64.7187 45.574 69.3918 44.9662 74.0631 44.3565C78.4549 43.7843 82.9836 43.4485 87.2721 42.2985C89.2626 41.7638 91.1198 40.959 92.9358 39.9891C94.7649 39.0136 96.5565 37.9405 98.5038 37.2032C100.579 36.4191 102.729 36.2221 104.933 36.2558C106.222 36.2765 107.511 36.3234 108.798 36.3815C109.109 34.6669 109.27 32.9015 109.27 31.0987C109.27 30.2789 109.237 29.4666 109.171 28.6617L109.169 28.6636Z" fill="#EBF2F7"/>
<path d="M32.4794 29.2566C32.7983 29.3504 32.7195 29.3429 32.5994 29.3035C32.6763 29.3335 32.7514 29.3672 32.8264 29.3935C33.0665 29.4779 33.3104 29.553 33.5581 29.6186C33.8076 29.6843 34.059 29.7406 34.3122 29.7875C34.4004 29.8044 34.4886 29.8175 34.5767 29.8306C34.6143 29.8344 34.6499 29.8381 34.6874 29.8419C35.209 29.8925 35.7324 29.9057 36.2558 29.8831C36.5072 29.8719 36.7567 29.8475 37.0081 29.8231C37.0193 29.8231 37.0306 29.8194 37.0418 29.8175C37.7134 27.8964 38.5858 25.3226 39.0304 24.4183C38.235 24.2382 37.4414 24.0394 36.661 23.8011C35.6761 23.5028 35.2615 22.5273 34.301 22.1596C34.1528 22.1033 34.0046 22.047 33.8545 21.9945C33.847 22.0733 33.8395 22.1521 33.8282 22.2328C33.7757 22.5855 32.6426 26.3262 31.8584 28.8945C32.0591 29.0239 32.2617 29.1534 32.4794 29.2566Z" fill="#EB8773"/>
<path d="M44.3942 15.8337C44.0284 14.6124 42.8727 13.7044 41.567 13.286C40.0756 12.8077 38.3665 12.8789 36.8207 13.2147C35.5544 13.4905 34.3856 14.0308 33.4101 14.7962C33.1062 16.3496 32.8567 17.9085 32.6653 19.4713C32.5603 20.3361 32.4665 21.2028 32.4027 22.0695C32.3427 22.8893 32.3277 23.7504 32.686 24.5102C33.0105 25.1987 33.9767 25.7428 34.5789 26.238C35.0685 26.6395 36.0159 27.3224 36.5637 27.6638C37.7343 28.3936 38.541 28.7969 39.8054 27.9827C40.8091 27.3374 41.9685 26.4163 42.732 24.6134C43.353 23.1464 43.7713 21.7412 44.0434 20.6119C44.1315 20.2423 44.2047 19.9046 44.2647 19.6007C44.3904 18.9591 44.4523 18.4826 44.4711 18.2406C44.5349 17.4414 44.6287 16.6122 44.3961 15.8355L44.3942 15.8337Z" fill="#EB8773"/>
<path d="M38.4879 21.6286C38.3978 22.0113 38.1877 22.2908 38.0189 22.2495C37.85 22.2102 37.7844 21.8668 37.8744 21.4841C37.9645 21.1014 38.1746 20.8219 38.3434 20.8632C38.5123 20.9044 38.5779 21.2459 38.4879 21.6286Z" fill="#1F2144"/>
<path d="M42.6827 21.8332C42.5926 22.2159 42.3825 22.4954 42.2137 22.4541C42.0449 22.4147 41.9792 22.0714 42.0692 21.6887C42.1593 21.306 42.3694 21.0265 42.5382 21.0678C42.7071 21.1072 42.7727 21.4505 42.6827 21.8332Z" fill="#1F2144"/>
<path d="M39.9047 19.2967C39.9047 19.2967 39.8972 19.2855 39.8897 19.2817C39.886 19.2817 39.8822 19.278 39.8785 19.278C39.841 19.2536 39.7978 19.2329 39.7509 19.2217C39.7509 19.2217 39.7509 19.2217 39.749 19.2217C39.1919 18.9815 38.5897 18.8559 37.9818 18.8652C37.5503 18.8709 36.6574 18.884 36.5673 19.4562C36.4754 20.0452 37.3459 19.9252 37.6779 19.9458C38.07 19.9721 38.4377 20.0621 38.8148 20.1634C39.0905 20.2385 39.3832 20.2929 39.659 20.1935C39.8803 20.1128 40.0717 19.9308 40.0773 19.6851C40.0811 19.5331 40.0192 19.3868 39.9066 19.2986L39.9047 19.2967Z" fill="#1F2144"/>
<path d="M43.6415 19.4391C43.0449 19.3172 42.4315 19.3303 41.8387 19.4635C41.8387 19.4635 41.8387 19.4635 41.8368 19.4635C41.788 19.4654 41.743 19.4785 41.7017 19.4954C41.6979 19.4954 41.6942 19.4954 41.6904 19.4991C41.6811 19.4991 41.6773 19.5048 41.6736 19.5104C41.546 19.5761 41.4578 19.7074 41.4334 19.8593C41.394 20.1032 41.5479 20.3171 41.7505 20.4371C42.0037 20.5872 42.302 20.5872 42.5872 20.5647C42.9755 20.5347 43.3545 20.5141 43.7428 20.561C43.8216 20.5703 43.9285 20.5947 44.0448 20.6154C44.133 20.2458 44.2062 19.9081 44.2662 19.6042C44.0448 19.5235 43.8103 19.4766 43.6453 19.4429L43.6415 19.4391Z" fill="#1F2144"/>
<path d="M40.9513 22.8347C40.9269 22.4464 40.8575 22.058 40.8068 21.6716C40.7993 21.619 40.7149 21.6172 40.7224 21.6716C40.7599 21.9624 40.7974 22.2513 40.8349 22.542C40.8743 22.8497 40.9137 23.1743 40.7674 23.4613C40.4748 24.0372 39.7712 24.1385 39.1953 24.041C39.1428 24.0316 39.1184 24.1141 39.1728 24.1216C39.7412 24.2173 40.3903 24.1385 40.7562 23.6395C40.9306 23.4013 40.97 23.1217 40.9513 22.8328V22.8347Z" fill="#CC6C59"/>
<path d="M40.4639 25.4517C40.4489 25.2923 40.3251 25.2848 40.2125 25.3204C39.8036 25.341 39.3965 25.3279 38.9912 25.2754C38.798 25.251 38.6067 25.2172 38.4172 25.1759C38.2577 25.1403 38.0983 25.0803 37.9388 25.054C37.7681 25.0277 37.6142 25.129 37.6968 25.3354C37.7887 25.5643 38.0063 25.72 38.2033 25.8175C38.7248 26.0783 39.419 26.204 39.9724 25.9489C40.1243 25.8776 40.4864 25.6843 40.4658 25.4536L40.4639 25.4517Z" fill="white"/>
<path d="M44.9791 15.5671C44.7765 14.8899 44.3469 14.2877 43.8104 13.8318C42.5947 12.7963 40.8744 12.4436 39.3154 12.4192C37.6777 12.3948 35.9986 12.7775 34.5616 13.5711C33.9181 13.9256 33.3309 14.3984 32.9783 15.055C32.6312 15.7041 32.5224 16.447 32.4942 17.173C32.4624 18.021 32.5205 18.8689 32.5168 19.7169C32.5168 20.0808 32.5055 20.4448 32.4942 20.8106C32.3817 20.8275 32.2748 20.8838 32.1903 20.9701C31.9858 21.1802 31.9202 21.5254 31.8845 21.8049C31.8189 22.3189 31.9483 22.8723 32.3292 23.2138C32.3085 23.4108 32.2879 23.6096 32.2635 23.8066C32.119 23.5252 31.9802 23.2419 31.8489 22.9549C31.8264 22.9061 31.7532 22.9493 31.7757 22.998C31.9615 23.4032 32.1584 23.801 32.3723 24.1931C32.4792 24.3882 32.588 24.5814 32.7025 24.7727C32.7569 24.8647 32.8357 25.0598 32.9614 25.086C33.2053 25.1348 33.2747 24.7221 33.2878 24.5589C33.3009 24.3807 33.284 24.2024 33.3047 24.0242C33.3328 23.7747 33.4717 23.6077 33.5973 23.4032C34.0101 22.7335 33.6968 21.9643 33.6199 21.2515C33.5823 20.91 33.5936 20.5348 33.7455 20.2197C33.9425 19.8107 34.3121 19.7582 34.7004 19.6175C35.4096 19.3586 35.5446 18.5744 35.7623 17.9459C35.9105 17.5144 36.16 17.1786 36.5108 16.8879C36.8428 16.614 37.2181 16.3307 37.6308 16.1937C37.8428 16.1243 38.0735 16.0962 38.2874 16.1731C38.5031 16.25 38.6532 16.4264 38.7977 16.5952C39.0078 16.8372 39.2366 17.0398 39.5593 17.1073C39.8295 17.1655 40.1071 17.1167 40.321 16.9366C40.4767 16.8072 40.5968 16.6233 40.8087 16.5821C41.0564 16.5333 41.3003 16.6796 41.4935 16.8184C41.7749 17.0192 42.03 17.2874 42.3883 17.3381C42.5065 17.355 42.6228 17.3437 42.7298 17.2912C42.8236 17.2443 42.8742 17.1655 42.9849 17.1674C43.1237 17.1674 43.1781 17.2781 43.2682 17.37C43.6584 17.779 44.3582 17.794 44.7502 17.3812C45.1986 16.9085 45.1536 16.1487 44.981 15.569L44.9791 15.5671Z" fill="#1F2144"/>
<path d="M34.603 21.1969C34.6461 20.7842 34.648 20.3696 34.618 19.9569C34.6649 20.0019 34.7287 19.9231 34.6818 19.8781C34.6574 19.8537 34.6311 19.8312 34.6067 19.8068C34.6067 19.7974 34.6067 19.7899 34.6049 19.7805C34.6011 19.7411 34.5617 19.7299 34.5336 19.7411C34.2841 19.5273 33.9839 19.3603 33.6425 19.3997C33.3404 19.4335 33.104 19.6398 32.954 19.8931C32.5431 20.5797 32.7307 21.4127 33.0797 22.0787C33.2222 22.3507 33.4248 22.6546 33.7344 22.7503C34.0177 22.8384 34.2353 22.6827 34.3478 22.4257C34.511 22.0524 34.5636 21.5984 34.6049 21.1969H34.603Z" fill="#EB8773"/>
<path d="M34.5184 21.7842C33.4378 21.8274 34.5184 20.2553 33.6667 19.9176C33.6066 19.8932 33.5635 19.987 33.6254 20.0095C34.2163 20.244 33.7942 21.0207 33.8993 21.4747C33.9743 21.7992 34.222 21.8968 34.5315 21.8855C34.5972 21.8837 34.5859 21.7823 34.5203 21.7842H34.5184Z" fill="#CC6C59"/>
<path d="M34.2129 22.5327C34.0628 22.6302 33.8883 22.6978 33.7195 22.6002C33.6632 22.5683 33.6219 22.6602 33.6782 22.6921C33.877 22.8066 34.0947 22.7297 34.2729 22.6152C34.3273 22.5796 34.2673 22.497 34.2129 22.5327Z" fill="#CC6C59"/>
<path d="M42.4299 36.785C42.4206 36.7325 42.338 36.755 42.3493 36.8075C42.732 38.8167 42.64 40.8935 42.0829 42.8614C42.0679 42.914 42.1504 42.9365 42.1635 42.8839C42.7245 40.901 42.8164 38.8092 42.4299 36.785Z" fill="#5C3243"/>
<path d="M60.6138 81.8994C60.3831 79.3837 60.3231 76.8548 60.0604 74.3428C59.916 72.9621 59.689 71.587 59.2912 70.2475C59.2856 70.2306 59.2669 70.2137 59.2481 70.2156C54.136 70.7578 49.0144 71.2305 43.8873 71.6282C42.726 71.7183 41.5648 71.8046 40.4035 71.8871C40.4467 71.8196 40.4917 71.7539 40.5386 71.6883C40.5705 71.6432 40.4917 71.6001 40.4598 71.6451C40.4017 71.7277 40.3473 71.8102 40.2928 71.8946C40.0508 71.9115 39.8088 71.9303 39.5668 71.9472C39.5087 71.9509 39.5087 72.0353 39.5668 72.0316C39.7901 72.0166 40.0133 71.9997 40.2366 71.9828C39.0791 73.8588 39.004 76.1007 38.7508 78.2055C38.6007 79.4643 38.3437 80.6763 37.8878 81.8732C37.642 82.5185 37.3738 83.1563 37.1618 83.8111C36.9517 84.4602 36.7997 85.1262 36.6909 85.7959C36.4489 87.3061 36.4283 88.8369 36.4526 90.3621C36.4526 90.3884 36.4808 90.4128 36.5108 90.4034C38.0097 89.9194 39.6044 89.9494 41.1652 90.0544C42.7767 90.1633 44.3676 90.3021 45.9809 90.1576C47.6318 90.0094 49.2621 89.7036 50.9111 89.5404C52.5564 89.3772 54.211 89.3022 55.8656 89.3172C57.7679 89.3322 59.6664 89.4673 61.55 89.7149C61.5856 89.7205 61.6119 89.6961 61.6063 89.6624C61.1823 87.0847 60.8502 84.4958 60.6101 81.8975L60.6138 81.8994Z" fill="#1F2144"/>
<path d="M60.7213 75.174C60.6594 74.7557 60.5694 74.3411 60.4531 73.934C60.3874 73.7032 60.3443 73.3843 60.0422 73.3974C59.8565 73.4049 59.6689 73.4612 59.4832 73.4837C59.2543 73.51 59.0236 73.5231 58.7928 73.525C58.3707 73.5306 57.9467 73.5062 57.5246 73.4762C56.6504 73.4124 55.7743 73.343 54.8982 73.2905C53.1385 73.1836 51.3769 73.1141 49.6153 73.0804C47.8838 73.0485 46.1485 73.041 44.4188 73.1404C43.4864 73.1948 42.5559 73.2792 41.631 73.4087C41.1433 73.4762 40.6574 73.5588 40.1752 73.6526C39.7081 73.7445 39.2466 73.8645 38.772 73.9096C38.7795 73.8833 38.787 73.857 38.7945 73.8289C38.8095 73.7764 38.7288 73.7539 38.7138 73.8064C38.4568 74.66 38.2692 75.5305 38.1566 76.4141C38.0985 76.8662 38.0553 77.322 38.0403 77.7779C38.0328 78.0312 38.0403 78.3445 38.2486 78.5246C38.5018 78.7422 38.9671 78.6653 39.271 78.6709C39.7494 78.6803 40.2278 78.6878 40.7062 78.6972C41.6629 78.714 42.6197 78.7309 43.5765 78.7478C45.4694 78.7816 47.3641 78.8679 49.2458 78.6146C51.0467 78.3726 52.8102 77.9186 54.598 77.6091C56.6185 77.2601 58.714 77.1007 60.7176 77.6372C60.7457 77.6447 60.7682 77.6241 60.7701 77.5959C60.8508 76.7874 60.8358 75.9732 60.7157 75.1703L60.7213 75.174Z" fill="#F5DFD5"/>
<path d="M75.7643 47.8834L73.6237 47.2212C73.6012 47.2137 73.5787 47.2287 73.5712 47.2512C72.9202 49.161 72.1004 51.0126 71.123 52.7779C70.6428 53.6447 70.1231 54.4926 69.5678 55.3143C69.0087 56.1416 68.4309 56.9915 67.7556 57.7287C67.4029 58.1152 66.9827 58.4679 66.4724 58.618C65.964 58.7662 65.3899 58.7118 64.9828 58.3497C64.9659 58.3347 64.9416 58.3328 64.9228 58.3497C63.8929 59.2727 62.7447 60.0531 61.5103 60.676C61.4822 60.4433 61.4559 60.2107 61.4334 59.9781C61.4278 59.9237 61.3434 59.9237 61.349 59.9781C61.3715 60.2257 61.3996 60.4715 61.4297 60.7172C61.2608 60.8017 61.0901 60.8823 60.9194 60.9592C60.8706 60.9818 60.9137 61.0549 60.9625 61.0324C61.1239 60.9592 61.2833 60.8842 61.4409 60.8054C61.5591 61.7415 61.7298 62.6702 61.9531 63.5875C62.2138 64.6587 62.5177 65.7562 63.1124 66.6961C63.6302 67.5159 64.3994 68.1969 65.3486 68.4539C66.2754 68.7034 67.1834 68.4352 67.915 67.8367C68.7067 67.1914 69.2958 66.2927 69.8286 65.4317C70.412 64.488 70.9129 63.4937 71.3538 62.4769C72.243 60.4189 72.8921 58.269 73.5262 56.1229C74.3291 53.4083 75.1321 50.6918 75.7943 47.9378C75.7999 47.9153 75.7868 47.8928 75.7643 47.8853V47.8834Z" fill="#EB8773"/>
<path d="M38.0135 67.6565C39.1953 66.8198 39.957 65.2646 40.4692 64.3285C40.9232 63.4993 41.3734 62.6682 41.7917 61.8202C41.4878 61.1224 41.2308 60.4038 41.032 59.6666C41.0263 59.6441 41.0057 59.6309 40.9813 59.6347C40.4429 59.7172 39.9326 59.4508 39.5856 59.0494C39.2385 58.646 39.079 58.1207 38.9909 57.6048C38.8258 56.618 38.4262 57.4566 38.4055 56.4567C38.3868 55.4643 38.6363 49.3335 38.8839 48.024C38.5444 47.9828 38.6888 47.5625 38.3511 47.5156C37.8352 47.4425 37.325 47.3524 36.8222 47.2305C36.1881 49.1815 35.6047 51.1495 35.0231 53.1155C34.3871 55.2617 33.7624 57.4191 33.391 59.629C33.2071 60.7228 33.087 61.8296 33.0627 62.9383C33.042 63.9495 33.0476 65.0245 33.3609 65.9981C33.6498 66.8967 34.2652 67.6171 35.1788 67.9116C36.1168 68.2137 37.2199 68.2137 38.0116 67.6528L38.0135 67.6565Z" fill="#EB8773"/>
<path d="M62.3565 29.6392C62.3434 28.5286 62.3284 27.4198 62.3152 26.3092C62.3152 26.2548 62.2308 26.2548 62.2308 26.3092C62.2308 26.3843 62.2327 26.4612 62.2345 26.5362C62.2289 26.5156 62.2102 26.4987 62.1839 26.5025C61.4447 26.6375 60.6606 26.7914 60.0884 27.3148C59.5012 27.8532 59.1917 28.6561 58.8521 29.3596C58.1054 30.9111 57.3944 32.5414 57.2631 34.2785C57.2125 34.9408 57.1168 35.8506 57.7828 36.2409C58.3831 36.5917 59.1804 36.5335 59.8089 36.2953C61.2872 35.7306 62.0226 34.1997 62.2496 32.7215C62.4053 31.7028 62.3677 30.6653 62.3565 29.6392Z" fill="#EB8773"/>
<path d="M59.0735 34.001C57.2913 33.8434 55.511 33.6839 53.7287 33.5264C53.7569 33.4025 53.7831 33.2806 53.8132 33.1568C53.8263 33.1043 53.7438 33.0817 53.7325 33.1343C53.7025 33.2618 53.6743 33.3913 53.6443 33.5189C53.6031 33.5151 53.5637 33.5113 53.5224 33.5076C53.468 33.502 53.468 33.5864 53.5224 33.592C53.5561 33.5958 53.5899 33.5976 53.6256 33.6014C53.1622 35.6425 52.7982 37.7042 52.5375 39.7791C52.5337 39.8035 52.56 39.8204 52.5806 39.8223C53.3367 39.8673 54.0946 39.9123 54.8506 39.9555L55.9856 40.023L56.5315 40.0549C56.7135 40.0661 56.9123 40.1018 57.0943 40.0868C57.3194 40.068 57.3476 39.8354 57.4114 39.6534C57.5333 39.3026 57.6534 38.9518 57.7697 38.5991C58.0023 37.8956 58.2255 37.1865 58.4375 36.4754C58.6777 35.6725 58.9028 34.864 59.1148 34.0535C59.1223 34.0254 59.1016 34.0029 59.0735 34.001Z" fill="#EB8773"/>
<path d="M61.5218 28.8964C61.0134 28.1534 59.9891 27.9959 59.1617 28.0728C57.8935 28.1872 56.7323 28.7669 55.5204 29.1083C54.9032 29.2809 54.2972 29.341 53.6613 29.3897C53.3536 29.4141 53.0422 29.4498 52.7514 29.5586C52.4775 29.6599 52.1773 29.8869 51.8772 29.8475C51.8772 29.8025 51.8134 29.795 51.7984 29.8306C51.7721 29.8212 51.7458 29.8137 51.7196 29.8006C51.6708 29.7762 51.6427 29.8569 51.6914 29.8794C51.7252 29.8963 51.7571 29.9056 51.789 29.915C51.7496 30.4685 51.7102 31.0238 51.6708 31.5791C51.6671 31.6241 51.6633 31.671 51.6614 31.716C51.6577 31.7667 51.6539 31.8173 51.6502 31.868C51.6333 32.2657 51.6802 32.6578 51.864 33.018C52.0423 33.3613 52.3518 33.5864 52.5488 33.9109C52.6951 34.1529 52.7401 34.4287 52.7833 34.7026C52.8433 35.0947 52.9934 35.3198 53.2823 35.5712C53.4099 35.6819 53.5093 35.7982 53.5862 35.9258C53.8357 35.9727 54.0834 36.0271 54.316 36.1321C54.7869 36.3441 55.1771 36.7099 55.6667 36.8807C56.252 37.0852 56.6816 36.8394 57.0925 36.5167C57.4114 36.2672 57.7172 35.9708 58.0755 35.802C58.5239 35.59 59.0342 35.5168 59.4525 35.2373C59.8277 34.9859 60.0266 34.5919 60.1185 34.1604C60.2254 33.6633 60.216 33.1493 60.3117 32.6503C60.3624 32.3895 60.4562 32.1531 60.5744 31.928C60.6757 31.7329 60.7957 31.549 60.9214 31.3652C60.9514 31.3239 60.9796 31.2826 61.0096 31.2414C61.0696 31.1569 61.1297 31.0706 61.1916 30.9825C61.6174 30.354 62.0076 29.6092 61.5218 28.8982V28.8964Z" fill="#1F2144"/>
<path d="M63.8485 25.118C63.7453 24.8741 63.5596 24.6809 63.3701 24.5027C63.2575 24.3958 63.1393 24.2851 63.0624 24.1481C62.9498 23.9455 63.0155 23.771 63.1431 23.6003C63.2744 23.4259 63.3663 23.2589 63.3363 23.0338C63.31 22.8424 63.205 22.6642 63.068 22.5291C62.8373 22.3002 62.5409 22.229 62.2332 22.229C62.2163 21.7037 61.9387 21.1709 61.4228 20.9476C61.0813 20.7976 60.693 20.7976 60.3253 20.8294C60.1621 20.8445 59.997 20.8688 59.8338 20.8557C59.725 20.8463 59.6012 20.8219 59.5167 20.7507C59.4211 20.6681 59.4192 20.5462 59.3779 20.4392C59.1716 19.9046 58.3667 20.0321 57.9315 20.1597C57.5469 20.2723 57.1867 20.4486 56.8678 20.6756C55.6559 20.8069 54.3877 21.0433 53.476 21.8706C53.0764 22.2327 52.7612 22.6942 52.6412 23.212C52.5699 23.5178 52.6411 23.9192 52.4085 24.165C52.2134 24.3714 51.9039 24.4952 51.6769 24.6753C50.7876 25.3769 50.1404 26.5232 50.208 27.645C50.2248 27.9114 50.2868 28.1778 50.4275 28.4104C50.5025 28.5342 50.6188 28.6374 50.677 28.7687C50.767 28.9751 50.6563 29.1833 50.5944 29.3803C50.4462 29.8493 50.3824 30.3859 50.5531 30.8567C50.6676 31.17 50.8833 31.3989 51.1572 31.5452C51.3092 31.6278 51.4799 31.6841 51.66 31.716C51.7238 31.7272 51.7876 31.7366 51.8532 31.7422C52.1309 31.7666 52.4085 31.7479 52.6843 31.7197C52.7462 31.8454 52.8269 31.9636 52.9226 32.0686C53.1946 32.3688 53.5735 32.5489 53.9694 32.6652C54.1588 32.7215 54.354 32.7609 54.5453 32.7947C55.5002 32.9598 56.7534 32.9992 57.3893 32.17C57.9953 32.669 58.8695 32.8453 59.6274 32.577C60.0008 32.4457 60.3253 32.215 60.5711 31.9261C60.7155 31.7572 60.8337 31.5659 60.9181 31.3633C60.9763 31.2282 61.0194 31.0875 61.0457 30.9449C61.0926 30.9618 61.1395 30.9731 61.1864 30.9806C61.6123 31.0537 62.0512 30.8192 62.2951 30.4815C62.6853 29.9375 62.5972 29.2246 62.5671 28.6055C62.5484 28.2266 62.5446 27.8382 62.6741 27.4743C62.7585 27.236 62.8992 27.024 63.0118 26.797C63.1581 26.662 63.31 26.5363 63.4526 26.3975C63.7978 26.0598 64.0511 25.5983 63.8447 25.1161L63.8485 25.118Z" fill="#1F2144"/>
<path d="M68.0166 62.4788C67.9641 61.8991 67.9003 61.3213 67.8384 60.7416C67.7202 59.601 67.5926 58.4623 67.4463 57.3235C67.1537 55.0667 66.7803 52.8155 66.21 50.6093C65.9267 49.5099 65.6003 48.4162 65.2007 47.3525C64.8424 46.4014 64.4034 45.469 63.7768 44.6623C63.1221 43.8144 62.2948 43.0996 61.5069 42.3773C60.7489 41.6813 59.9685 41.006 59.1356 40.4C58.5953 40.0079 58.0325 39.6459 57.4434 39.3307C57.3102 39.3513 57.1751 39.3682 57.0363 39.3832C56.1452 39.477 55.256 39.4132 54.3649 39.4226C53.7402 39.4282 53.0348 39.4564 52.35 39.3982C50.4628 39.961 48.6243 40.6908 46.889 41.6251C44.5327 42.8951 42.3659 44.5535 40.6793 46.6434C38.7227 49.0653 37.5689 52.0201 36.4583 54.8979C35.8505 56.4681 35.2877 58.0552 34.7643 59.6573C34.5185 60.4115 34.2446 61.1694 34.0683 61.9423C33.9351 62.5239 33.8713 63.188 34.1902 63.7245C34.5279 64.2911 35.2089 64.5274 35.7923 64.7526C36.5221 65.0358 37.2725 65.2666 38.0342 65.4429C38.4975 65.5499 38.9647 65.638 39.4355 65.7056C39.3811 65.8256 39.3286 65.9457 39.2798 66.0639C39.0528 66.6023 38.8427 67.1576 38.7658 67.7411C38.672 68.4558 38.8953 69.0993 39.0041 69.7972C39.2273 71.2436 38.2086 72.553 38.4394 73.9901C38.4807 74.2489 38.5576 74.551 38.7958 74.6992C39.0772 74.8737 39.4862 74.8042 39.7995 74.8005C40.6718 74.7892 41.5442 74.778 42.4165 74.7667C45.8778 74.7217 49.339 74.6767 52.7984 74.6317C54.5431 74.6091 56.2878 74.5866 58.0325 74.5641C58.4546 74.5585 58.8767 74.5529 59.2988 74.5472C59.5858 74.5435 59.9742 74.6054 60.2387 74.4609C60.4807 74.3277 60.4769 74.037 60.4844 73.7949C60.4882 73.658 60.4882 73.5229 60.4844 73.386C60.4807 73.1233 60.4694 72.8607 60.4563 72.5999C60.4169 71.8064 60.3681 70.9959 60.5538 70.2155C60.7414 69.4332 61.2048 68.7804 61.5688 68.0769C62.0847 67.0769 62.4186 66.0039 62.6756 64.9101C62.7056 64.9139 62.7356 64.9176 62.7638 64.9195C63.6436 65.0171 64.5329 65.1146 65.4146 65.0152C66.255 64.9214 67.3112 64.6156 67.8009 63.8615C68.071 63.4469 68.0598 62.9441 68.0166 62.4694V62.4788Z" fill="#5C3243"/>
<path d="M77.9224 41.0624C77.7011 41.0662 77.6298 41.4245 77.5735 41.5746C77.4384 41.9273 77.3127 42.2818 77.1927 42.6401C77.0501 43.066 76.9188 43.4975 76.7987 43.9308C76.7349 43.9308 76.6749 43.9346 76.6224 43.9327C76.491 43.929 76.3597 43.9271 76.2284 43.9271C76.3128 43.0078 76.5361 42.1074 76.7743 41.2144C76.8419 40.9592 76.9225 40.706 76.9769 40.4471C77.0088 40.2951 77.0163 40.1225 76.9038 40.0006C76.8156 39.9049 76.7274 39.888 76.6468 39.9162C76.7105 39.7567 76.9075 39.3233 76.7012 39.2089C76.5136 39.1057 76.2828 39.3083 76.1796 39.4453C75.9958 39.691 75.9039 40.0137 75.7988 40.2989C75.6543 40.691 75.5155 41.0868 75.3842 41.4826C75.1122 42.2987 74.8627 43.1223 74.6169 43.9458C74.4968 43.9496 74.3636 43.9458 74.2305 43.9458C74.3524 43.4487 74.4743 42.9516 74.6075 42.4563C74.8289 41.6308 75.1159 40.8467 75.4292 40.0531C75.4968 39.8843 75.6694 39.5485 75.3579 39.5372C75.1103 39.5297 74.9227 39.7361 74.7951 39.9255C74.3749 40.554 74.101 41.3138 73.8796 42.0323C73.6245 42.8596 73.45 43.7095 73.2812 44.5574C73.2362 44.7038 73.2005 44.8538 73.1649 45.0039C73.0842 44.4411 73.0054 43.8783 72.9116 43.3174C72.8854 43.1654 72.8309 42.9609 72.6396 42.9572C72.4576 42.9534 72.3957 43.1861 72.3563 43.3268C72.2775 43.6119 72.2775 43.914 72.2644 44.2066C72.2475 44.5574 72.2269 44.9082 72.2156 45.2591C72.1987 45.88 72.3057 46.4691 72.4726 47.0657C72.5739 47.4259 72.6846 47.7823 72.7728 48.1444C72.7953 48.6321 72.846 49.118 72.8985 49.6039C72.8835 49.6189 72.8778 49.6433 72.8985 49.6621C72.9022 49.6658 72.9041 49.6696 72.9079 49.6733L72.8047 49.6658C72.7503 49.6621 72.7503 49.7465 72.8047 49.7502L73.8102 49.8159C73.9772 49.8271 74.146 49.8384 74.313 49.8478C74.4499 49.8572 74.6225 49.8984 74.7557 49.8478C74.9396 49.7802 75.0803 49.542 75.2041 49.4032C75.4367 49.1405 75.6694 48.8798 75.902 48.6171C76.2565 48.2175 76.6411 47.8198 76.8512 47.3208C77.0614 46.818 77.1383 46.2515 77.2133 45.7074C77.4591 44.67 77.6936 43.6307 77.9093 42.5876C77.9506 42.385 78.3502 41.0512 77.9224 41.0587V41.0624Z" fill="#EB8773"/>
<path d="M36.8697 41.8184C36.6427 42.9027 36.0686 46.4184 36.0573 46.9493C36.0461 47.4783 36.0892 47.7147 36.2543 48.1537C36.3631 48.4407 36.4701 48.7296 36.5789 49.0166C36.6352 49.1686 36.6689 49.4237 36.8115 49.5082C36.9147 49.5701 37.0929 49.5438 37.2223 49.5457C37.3818 49.5494 37.5413 49.5532 37.7007 49.5569L38.6594 49.5794C38.71 49.5794 38.7457 49.495 38.6931 49.4932H38.5956C38.5956 49.4932 38.6031 49.4838 38.6087 49.48C38.635 49.4613 38.6387 49.4369 38.6312 49.42C38.8789 48.9285 39.8263 47.2232 40.0664 46.8649C40.466 46.2702 40.8055 45.6773 41.0457 45.0414C41.1807 44.6812 41.3046 44.321 41.434 43.9608C41.5409 43.6606 41.6666 43.3511 41.7098 43.0547C41.7304 42.9083 41.7698 42.6645 41.5991 42.6532C41.4209 42.6401 41.2858 42.8446 41.1995 42.9984C40.8825 43.5631 40.5785 44.1315 40.2727 44.6999C40.3028 44.5442 40.3309 44.3866 40.3478 44.2347C40.5391 43.353 40.7249 42.4712 40.8299 41.6026C40.92 40.8485 40.9781 40.0493 40.8468 39.3702C40.8074 39.1657 40.7192 38.9387 40.4866 38.9237C40.194 38.9068 40.2165 39.2651 40.209 39.4433C40.1752 40.28 40.1189 41.1074 39.9838 41.9703C39.9032 42.4862 39.8131 43.0059 39.7212 43.5237C39.5974 43.5105 39.3329 43.4805 39.2241 43.4655C39.3329 42.6026 39.4417 41.7396 39.5242 40.8822C39.5655 40.4658 39.5993 40.0493 39.6255 39.6366C39.6443 39.3364 39.6931 38.9987 39.6236 38.7323C39.5843 38.5841 39.4529 38.3553 39.2372 38.4453C38.9989 38.5447 39.0027 39.0025 38.9971 39.1713C38.9333 39.1357 38.8451 39.1451 38.7232 39.2351C38.5693 39.3514 38.5055 39.5278 38.4718 39.6853C38.4155 39.9536 38.3855 40.22 38.3442 40.4864C38.1979 41.4188 38.0365 42.3587 37.7364 43.3061C37.6144 43.2967 37.6332 43.3098 37.5094 43.3004C37.4587 43.2967 37.4043 43.2892 37.3462 43.2835C37.4118 42.8295 37.4681 42.3793 37.5113 41.9309C37.5469 41.5557 37.575 41.1805 37.5957 40.8091C37.6051 40.6496 37.6857 40.2782 37.4831 40.2557C37.0892 40.2106 36.9109 41.6083 36.8678 41.8184H36.8697Z" fill="#EB8773"/>
<path d="M62.2963 63.9553C61.8798 62.8522 61.696 61.6797 61.5421 60.5147C61.3733 59.2333 61.2364 57.9408 60.8874 56.6913C60.878 56.6595 60.8255 56.6463 60.8105 56.682C60.5685 57.2429 60.1651 57.6988 59.7787 58.164C59.4166 58.5993 59.0921 59.0532 58.8688 59.5767C58.6381 60.1151 58.5068 60.6966 58.4805 61.282C58.4523 61.9179 58.5799 62.522 58.7337 63.1336C58.9045 63.8127 59.0527 64.4881 58.927 65.1878C58.8144 65.8182 58.5537 66.4072 58.3623 67.0151C58.0265 68.0938 58.0565 69.2137 58.4205 70.2831C58.8107 71.4274 59.5217 72.4461 60.4015 73.2697C60.3959 73.326 60.4259 73.3785 60.4822 73.3916C60.4784 73.129 60.4672 72.8663 60.4541 72.6056C60.4147 71.812 60.3659 71.0016 60.5516 70.2212C60.7392 69.4389 61.2026 68.786 61.5665 68.0825C62.0824 67.0826 62.4164 66.0095 62.6734 64.9158C62.7034 64.9195 62.7334 64.9233 62.7615 64.9252C62.5871 64.6138 62.4257 64.2967 62.2963 63.9553Z" fill="#1F2144"/>
<path d="M63.4318 44.4653C62.2049 45.2026 61.417 46.5552 61.3813 47.9866C61.3813 48.041 61.4639 48.041 61.4658 47.9866C61.5014 46.5852 62.2725 45.2607 63.475 44.5385C63.5219 44.5103 63.4787 44.4372 63.4318 44.4653Z" fill="#1F2144"/>
<path d="M42.9998 50.0634C42.9286 48.8177 42.6003 47.5945 42.0374 46.4802C42.0131 46.4314 41.9399 46.4745 41.9643 46.5233C42.9998 48.5701 43.2156 50.9939 42.5402 53.1869C42.2044 54.2769 41.6829 55.2974 41.3114 56.3724C40.9569 57.3967 40.8499 58.4229 40.8087 59.4997C40.7636 60.6872 40.7261 61.9291 40.0676 62.9628C40.0376 63.0097 40.1108 63.051 40.1408 63.006C40.7036 62.1224 40.8218 61.0774 40.8706 60.055C40.925 58.9069 40.9475 57.785 41.2983 56.6801C41.6547 55.5582 42.1988 54.5076 42.5646 53.3895C42.9154 52.3183 43.0636 51.1908 42.9998 50.0652V50.0634Z" fill="#1F2144"/>
<path d="M51.179 71.0597C48.138 70.9978 45.0951 71.0204 42.0559 71.1235C42.0015 71.1235 42.0015 71.2098 42.0559 71.208C45.0951 71.1048 48.138 71.0823 51.179 71.1442C51.2334 71.1442 51.2334 71.0616 51.179 71.0597Z" fill="#1F2144"/>
<path d="M56.4115 35.9484C56.1301 35.6782 56.1395 35.3105 55.9575 34.9897C55.83 34.7609 55.6048 34.6296 55.3666 34.5339C55.0627 34.4119 54.7156 34.3425 54.4642 34.1193C54.1847 33.8698 54.0965 33.4833 54.044 33.1269C54.0215 32.9787 54.0009 32.8211 53.9727 32.6654C53.877 32.1326 53.6969 31.6073 53.0966 31.4722C52.7195 31.3878 52.3387 31.4797 51.9673 31.5416C51.8659 31.5585 51.7684 31.5698 51.6708 31.5754C51.4926 31.5867 51.3219 31.5792 51.1587 31.5416C51.2713 31.6017 51.3913 31.6486 51.5208 31.6823C51.562 31.6655 51.6146 31.6748 51.6408 31.7086C51.6483 31.7086 51.6558 31.7124 51.6633 31.7142C51.6596 31.7649 51.6558 31.8155 51.6521 31.8662C51.6352 32.2639 51.6821 32.656 51.8659 33.0162C52.0442 33.3595 52.3537 33.5846 52.5507 33.9092C52.697 34.1512 52.742 34.4269 52.7852 34.7008C52.8452 35.0929 52.9953 35.3181 53.2842 35.5694C53.4118 35.6801 53.5112 35.7964 53.5881 35.924C53.8376 35.9709 54.0853 36.0253 54.3179 36.1304C54.7888 36.3424 55.179 36.7082 55.6686 36.8789C56.2539 37.0834 56.6836 36.8376 57.0944 36.5149C56.9049 36.2955 56.6029 36.1304 56.4115 35.9484Z" fill="#5D5F7A"/>
<path d="M58.0567 28.1271C58.0455 28.0745 57.9648 28.0971 57.9761 28.1496C58.0511 28.521 58.0755 28.9075 58.0211 29.2827C57.9648 29.6616 57.7303 30.1269 57.2707 30.0368C57.2181 30.0256 57.1956 30.1081 57.2482 30.1175C57.6102 30.1888 57.9066 29.9355 58.0286 29.6091C58.2012 29.1495 58.1524 28.5961 58.0567 28.1252V28.1271Z" fill="#5D5F7A"/>
<path d="M59.3663 30.1776C59.0061 31.0143 58.1394 31.881 57.1564 31.4232C57.1076 31.4007 57.0645 31.4739 57.1132 31.4964C58.1375 31.9748 59.0587 31.1081 59.4395 30.2207C59.4601 30.1719 59.3888 30.1288 59.3663 30.1776Z" fill="#5D5F7A"/>
<path d="M55.6127 22.668C54.7928 22.7224 54.1719 23.3865 54.1813 24.2101C54.1813 24.2645 54.2657 24.2645 54.2657 24.2101C54.2563 23.4353 54.8379 22.803 55.6127 22.7524C55.6671 22.7486 55.6671 22.6642 55.6127 22.668Z" fill="#5D5F7A"/>
<path d="M57.8354 22.9851C57.3345 22.6118 56.8073 23.0864 56.509 23.4766C56.4753 23.5198 56.5503 23.5611 56.5822 23.5198C56.8542 23.1634 57.3326 22.715 57.7941 23.0583C57.8373 23.0902 57.8804 23.017 57.8373 22.9851H57.8354Z" fill="#5D5F7A"/>
<path d="M61.3587 31.2357C61.3587 31.2357 61.3587 31.2339 61.3568 31.232C61.2442 31.0838 61.0979 30.9018 60.8934 30.8924C60.6758 30.883 60.5295 31.0707 60.4451 31.2489C60.2143 31.7291 60.1693 32.4289 60.3625 32.926C60.4282 33.0967 60.5445 33.2712 60.7377 33.3069C60.9553 33.3481 61.0998 33.183 61.1823 33.0048C61.4356 32.4683 61.4318 31.8248 61.4412 31.2451C61.4412 31.1926 61.3662 31.1907 61.3587 31.2376V31.2357Z" fill="#EB8773"/>
<path d="M38.9311 40.4281C38.8767 41.4768 38.6985 42.5124 38.3983 43.5198C38.3833 43.5723 38.464 43.5948 38.479 43.5423C38.781 42.5274 38.9593 41.4843 39.0137 40.4281C39.0155 40.3737 38.9311 40.3737 38.9292 40.4281H38.9311Z" fill="#CC6C59"/>
<path d="M42.6904 12.5619C42.6397 12.5412 42.6191 12.6238 42.6679 12.6425C43.664 13.0496 44.148 14.1584 43.7897 15.1695C43.771 15.2202 43.8535 15.2427 43.8704 15.1921C44.2456 14.134 43.7259 12.984 42.6904 12.56V12.5619Z" fill="#5D5F7A"/>
<path d="M42.5892 13.5824C42.5592 13.5374 42.4841 13.5805 42.516 13.6255C42.8462 14.0983 42.8612 14.723 42.5536 15.2108C42.5235 15.2577 42.5967 15.299 42.6267 15.2539C42.9513 14.7418 42.9363 14.0795 42.5892 13.5824Z" fill="#5D5F7A"/>
<path d="M35.6854 16.1151C35.1019 15.8937 34.3703 15.5711 34.3515 14.8432C34.3515 14.7888 34.2652 14.7888 34.2671 14.8432C34.2859 15.6123 35.0419 15.9613 35.6629 16.1958C35.7135 16.2145 35.736 16.1339 35.6854 16.1151Z" fill="#5D5F7A"/>
<path d="M79.639 1.50461H31.234C23.0809 1.50461 15.7006 4.80827 10.3577 10.1512C8.35604 12.1529 6.64136 14.4378 5.28125 16.9423C5.40882 16.9873 5.53451 17.0305 5.65833 17.0718C8.35791 17.9479 11.3033 17.8428 14.0366 17.175C17.1583 16.4114 19.8523 14.8131 22.5556 13.1284C24.0245 12.2129 25.5066 11.3049 27.088 10.5901C28.7033 9.8585 30.403 9.32196 32.1345 8.94863C35.5489 8.21136 39.0758 8.10067 42.552 8.32392C46.139 8.55467 49.694 9.0368 53.2078 8.01062C56.3126 7.10451 59.1679 5.46112 62.344 4.78388C65.824 4.04098 69.2083 5.01088 72.6077 5.70125C74.2135 6.02768 75.8513 6.28657 77.4965 6.21715C79.1155 6.14962 80.6614 5.70313 82.1397 5.0559C83.7887 4.33364 85.3645 3.43878 86.9535 2.59457C87.0304 2.5533 87.1055 2.5139 87.1824 2.47263C84.7736 1.83854 82.2466 1.50085 79.639 1.50085V1.50461Z" fill="#EBF2F7"/>
<path d="M34.7945 29.4553C34.7494 29.324 34.6425 29.234 34.5356 29.1533C34.3461 29.007 33.7139 28.6712 33.5225 28.5305C33.1361 28.2491 32.2018 27.6769 32.1549 27.7031C31.5621 28.0371 31.2957 28.3879 30.9674 28.9901C30.8117 29.2752 30.9242 29.4478 31.1287 29.6655C31.3501 29.9018 32.577 30.988 32.9053 31.1363C33.1267 31.2376 33.6257 31.4814 33.879 31.3764C34.1266 31.2732 34.4605 30.6973 34.5562 30.474C34.6763 30.1945 34.9033 29.7668 34.7945 29.4553Z" fill="#F5DFD5"/>
<path d="M34.8078 30.8246C34.8622 31.061 34.9072 31.4493 35.1324 31.5938C35.3631 31.742 35.8978 31.59 36.1342 31.53C36.4831 31.4418 38.0252 30.5207 38.2841 30.3275C38.5242 30.1492 38.6649 29.9991 38.5636 29.6915C38.3478 29.0405 38.149 28.6484 37.6237 28.2132C37.5824 28.1775 36.5619 28.5753 36.1304 28.7835C35.9165 28.8867 35.2337 29.1062 35.0217 29.215C34.9035 29.2769 34.7815 29.3463 34.714 29.4664C34.5508 29.7534 34.7403 30.5263 34.8078 30.8227V30.8246Z" fill="#F5DFD5"/>
<path d="M72.9944 35.01C72.5666 34.466 72.4503 33.7606 72.0995 33.1734C72.0714 33.1265 71.9982 33.1697 72.0263 33.2166C72.3828 33.8113 72.501 34.5204 72.9362 35.0701C72.97 35.1132 73.03 35.0532 72.9963 35.01H72.9944Z" fill="#5C3243"/>
<path d="M82.1037 32.1531C81.8298 33.5 81.1188 34.7251 80.0832 35.6293C80.0419 35.665 80.102 35.725 80.1432 35.6894C81.1882 34.7757 81.9086 33.5357 82.1843 32.1756C82.1956 32.123 82.1131 32.1005 82.1037 32.1531Z" fill="#5C3243"/>
<path d="M39.7926 30.6146C39.6744 30.7122 39.5544 30.806 39.4305 30.8941C37.8247 32.0573 35.7723 32.4569 33.8344 32.0629C32.8664 31.8678 31.9002 31.4888 31.1123 30.8866C30.6133 30.5058 30.2043 30.0293 29.9004 29.4871C29.9267 29.4759 29.9529 29.4646 29.9792 29.4534C30.3506 30.1062 30.8778 30.6578 31.5213 31.0667C33.1722 32.1173 35.3352 32.3968 37.2112 31.8716C38.0667 31.6314 38.8734 31.2262 39.5731 30.6803C39.6219 30.6428 39.6707 30.6034 39.7176 30.564C39.742 30.5809 39.7663 30.5977 39.7907 30.6146H39.7926Z" fill="#5C3243"/>
</svg>
