<svg width="131" height="78" viewBox="0 0 131 78" fill="none" xmlns="http://www.w3.org/2000/svg">
<path d="M122.067 25.9313C122.012 23.2337 116.904 17.1867 116.101 16.4389C112.892 13.4541 109.044 10.9274 105.231 8.78132C97.8155 4.60666 89.5726 1.75144 81.0602 1.08638C76.904 0.761864 72.7038 1.00091 68.6197 1.8476C64.1114 2.78242 59.7724 4.80698 55.1226 4.96056C50.6156 5.1088 46.2099 3.85079 41.6895 4.32621C38.0231 4.71216 34.474 5.8206 31.2118 7.53533C24.7221 10.9448 19.4492 16.7367 16.9688 23.6691C16.8874 23.8974 16.8101 24.1271 16.734 24.3582C16.0095 24.4209 15.4024 25.3691 16.0722 26.0408C16.1189 26.0876 16.1669 26.1343 16.215 26.1811C16.2083 26.2091 16.2003 26.2372 16.1936 26.2652C15.9775 27.1533 16.8994 27.6741 17.5479 27.4377C22.3578 31.7473 28.1924 34.708 34.2112 36.9903C37.7269 38.3244 41.328 39.4956 44.9624 40.4625C48.825 41.4908 52.8624 42.1879 56.8665 41.7499C64.2875 40.9379 70.6758 36.8501 77.5778 34.3661C85.0108 31.6912 93.0042 31.3119 100.804 32.1412C105.219 32.6113 109.876 34.0603 114.301 32.9919C117.242 32.2828 120 30.1087 120.767 27.16C120.918 27.1893 121.071 27.188 121.207 27.1519C121.829 26.9877 122.08 26.547 122.067 25.9327V25.9313Z" fill="#6B7BE8"/>
<path d="M2.34551 55.5479C4.66308 66.1502 12.4283 72.0422 22.7059 74.179C41.7055 78.1293 61.6109 78.4992 80.9427 77.5817C92.772 77.0209 105.857 77.0035 116.507 70.8577C127.406 64.5677 131.985 51.9943 127.792 40.0138C126.624 36.6778 124.707 33.5702 121.968 31.3013C120.475 30.0646 117.015 27.5793 114.919 27.3122C99.7567 25.3758 92.0208 32.4177 76.7959 33.1415C61.5776 33.8654 46.2966 34.7748 31.0809 33.5088C26.9075 33.1616 22.7793 32.5873 18.6459 31.9249C15.5144 31.4241 12.0427 31.0395 9.13277 32.4765C9.74518 31.9263 10.1401 31.5523 8.96999 32.5579C8.96599 32.5593 8.96199 32.5619 8.95932 32.5633C8.90328 32.614 8.84591 32.6621 8.78987 32.7129C2.46426 38.1629 0.542962 47.3055 2.34418 55.5479H2.34551Z" fill="#6B7BE8"/>
<path d="M130.228 39.4596C129.261 37.6847 127.253 36.6671 125.527 35.8458C124.357 35.2876 123.151 34.8188 121.92 34.4395C121.265 34.2379 121.044 33.4152 121.494 32.8877C121.962 32.3375 122.359 31.7246 122.648 31.0328C123.495 29.0069 123.167 26.8741 121.716 25.2395C119.135 22.3349 114.912 21.1771 111.1 21.539C110.551 21.5911 110.06 21.1584 110.062 20.5935C110.065 19.9898 109.901 19.3769 109.602 18.8173C108.826 17.3697 107.309 16.7193 105.749 16.6672C103.944 16.6084 102.132 17.2308 100.495 17.9546C99.2644 18.4981 98.1036 19.1765 97.0135 19.9645C96.6613 20.2195 96.1903 20.1968 95.8608 19.9124C93.6286 17.9826 90.2797 17.3443 87.3577 17.5326C83.2416 17.797 79.2789 19.4049 76.0767 22.0384C75.7258 22.3269 75.2281 22.3216 74.8812 22.0251C73.0013 20.4199 70.7651 19.266 68.3568 18.7025C64.7798 17.8665 61.0119 18.438 57.7804 20.2008C57.7457 20.2195 57.7096 20.2396 57.675 20.2583C57.2733 20.4813 56.773 20.3144 56.5795 19.891C55.1639 16.8008 52.4781 14.417 49.38 13.1055C47.2733 12.2134 44.9624 11.746 42.6835 11.7367C40.5047 11.7273 38.2432 12.1907 36.4246 13.4768C36.0857 13.7158 35.7641 13.9829 35.4653 14.2714C34.9503 14.6386 34.5126 15.1541 34.1871 15.8512L34.1804 15.8646C33.9096 16.4428 33.1691 16.6031 32.7034 16.1744C31.1517 14.7468 29.205 13.7893 27.2571 13C24.195 11.7594 20.8287 10.9087 17.5345 11.543C14.7713 12.0745 12.1295 13.6851 10.8086 16.2933C9.43034 19.015 9.60646 22.204 10.1388 25.1287C10.2496 25.739 10.3656 26.3587 10.5004 26.9756C10.6231 27.5365 10.2389 28.0747 9.68117 28.1362C7.10877 28.4179 4.59907 29.3287 2.7138 31.1824C0.337523 33.5181 -0.821928 37.3963 0.657739 40.5413C2.13207 43.6743 5.66246 45.0605 8.83794 45.4384C11.1622 45.7149 13.5078 45.5372 15.84 45.592C16.9688 45.6187 18.1482 45.6508 19.249 45.9245C20.5579 46.249 20.5725 47.3001 20.8674 48.4232C21.3504 50.2568 22.678 51.8486 24.3631 52.6379C25.0689 52.9678 25.7987 53.14 26.5392 53.2041C26.654 53.2135 26.7661 53.2455 26.8715 53.2963C27.7988 53.7463 28.8448 54.0067 29.8201 54.139C30.115 54.179 30.4099 54.2097 30.7074 54.2365C30.7501 54.2405 30.7901 54.2565 30.8248 54.2819C33.1717 56.0634 36.0723 57.0756 38.9289 57.7314C43.9003 58.8732 49.0571 59.0882 54.1166 58.5286C56.6449 58.2482 59.152 57.7915 61.619 57.1584C64.0766 56.5281 66.573 55.3769 69.1307 55.3128C71.6417 55.2501 73.7245 56.7778 76.038 57.531C78.2289 58.2442 80.5704 58.3537 82.8386 58.0398C85.4604 57.6779 88.0021 56.7658 90.329 55.4838C91.3951 54.8962 92.4184 54.1964 93.2737 53.3377C93.3364 53.2749 93.4258 53.2522 93.5085 53.2789C97.3284 54.5116 101.314 55.1873 105.322 55.2781C107.889 55.3369 110.456 55.1472 112.991 54.7306C115.059 54.39 117.254 53.9573 119.106 52.8876L119.128 52.8756C120.339 52.3842 121.401 51.639 122.121 50.4972C122.58 49.7707 122.752 48.8505 122.671 47.9584C122.671 47.9424 122.671 47.9277 122.671 47.9117C122.694 47.7354 122.707 47.5565 122.712 47.3775C122.712 47.3388 122.722 47.3001 122.74 47.268C122.854 47.073 123.055 46.9368 123.298 46.9301C123.63 46.9194 123.962 46.9021 124.293 46.874C126.304 46.7098 128.295 46.0527 129.609 44.4048C130.736 42.9919 131.121 41.0942 130.225 39.4529L130.228 39.4596Z" fill="#FFE8DB"/>
<path d="M59.5683 32.451C60.7892 29.9403 63.2495 28.2029 65.9607 27.6527C68.7812 27.0798 71.7019 27.9425 73.9354 29.7147C75.1762 30.6989 76.1956 31.9409 76.9201 33.3498C76.9988 33.502 77.2296 33.3671 77.1509 33.2149C75.818 30.6228 73.4657 28.5648 70.6839 27.6701C67.9327 26.7847 64.8959 27.2133 62.4796 28.7959C61.1441 29.6706 60.038 30.8752 59.3375 32.3148C59.2628 32.4684 59.4923 32.6046 59.5683 32.4497V32.451Z" fill="#261422"/>
<path d="M108.473 21.4308C107.09 20.3825 105.169 20.1421 103.582 20.8606C102.839 21.1971 102.195 21.738 101.71 22.3923C101.457 22.7329 101.25 23.1068 101.092 23.5008C100.987 23.7665 100.879 24.1044 100.52 23.9214C100.285 23.8013 100.072 23.6223 99.845 23.4861C96.6295 21.5737 92.4133 21.3787 89.3806 23.7692C88.033 24.8309 86.524 26.8942 87.6181 28.6276C87.7101 28.7732 87.9409 28.6383 87.8489 28.4927C86.8228 26.8688 88.3172 24.9364 89.5687 23.9575C90.9496 22.8771 92.7042 22.2922 94.452 22.2561C96.3773 22.2174 98.2799 22.8224 99.9077 23.8346C100.165 23.9949 100.439 24.278 100.767 24.242C101.106 24.2059 101.21 23.9415 101.315 23.6624C101.609 22.8811 102.125 22.1813 102.779 21.6632C104.391 20.3811 106.718 20.4292 108.341 21.6592C108.479 21.7633 108.611 21.531 108.476 21.4281L108.473 21.4308Z" fill="#261422"/>
<path d="M11.6332 27.1216C12.0935 25.5351 13.1088 24.1609 14.5818 23.3837C16.0682 22.5997 17.8627 22.5009 19.4571 22.9977C21.1796 23.5346 22.6246 24.7498 23.6613 26.2042C23.9095 26.5514 24.1363 26.9146 24.3404 27.2899C24.5059 27.593 24.6446 27.9549 24.9808 28.1059C25.1183 28.1673 25.2464 28.1686 25.3931 28.1553C25.7 28.1272 26.0002 28.0832 26.3097 28.0751C26.8795 28.0618 27.4492 28.1112 28.0109 28.2087C30.4499 28.6307 32.7795 29.7939 34.9062 31.0212C35.0557 31.1066 35.1904 30.8769 35.041 30.7901C33.0943 29.667 30.9942 28.624 28.7968 28.0992C27.728 27.8441 26.6286 27.7346 25.5359 27.8681C25.233 27.9055 25.0075 27.8855 24.8234 27.6171C24.6887 27.4208 24.5939 27.1911 24.4765 26.9841C24.2564 26.5981 24.0135 26.2255 23.748 25.8703C22.6926 24.46 21.269 23.2955 19.5772 22.7547C17.9988 22.2498 16.2309 22.318 14.7219 23.0191C13.0528 23.7936 11.8867 25.3 11.3783 27.0508C11.3303 27.2164 11.5878 27.2872 11.6358 27.1216H11.6332Z" fill="#261422"/>
<path d="M120.907 35.4732C117.388 34.7734 113.63 36.0421 111.121 38.5834C110.488 39.2245 109.936 39.947 109.494 40.7309C109.253 41.1609 109.079 41.874 108.532 41.9742C107.963 42.0784 107.279 41.862 106.722 41.7472C105.561 41.5081 104.412 41.201 103.235 41.0474C102.148 40.9045 101.046 40.8831 99.9544 40.9833C97.5154 41.205 95.1485 42.0116 93.0885 43.3364C92.9444 43.4285 93.0778 43.6609 93.2232 43.5674C95.0831 42.3722 97.1979 41.5963 99.3914 41.3131C100.479 41.1729 101.581 41.1515 102.672 41.253C103.873 41.3652 105.042 41.659 106.217 41.9154C106.779 42.0383 107.345 42.1545 107.916 42.2293C108.321 42.2827 108.775 42.3014 109.089 41.9915C109.386 41.6977 109.522 41.2277 109.725 40.8684C109.952 40.4651 110.208 40.0792 110.491 39.7119C111.597 38.275 113.091 37.1492 114.752 36.4307C116.658 35.6067 118.795 35.3276 120.838 35.7336C121.006 35.767 121.078 35.5092 120.909 35.4758L120.907 35.4732Z" fill="#261422"/>
<path d="M94.1689 10.2649C94.1755 10.2302 94.1809 10.1955 94.1862 10.1607C94.2756 9.39553 93.7232 8.7505 93.0855 8.40595C92.2676 7.96525 91.2149 7.89714 90.3543 8.24836C89.7299 8.50344 89.399 8.90274 88.6491 8.74249C88.1088 8.62764 87.5591 8.56754 87.0067 8.57555C85.9753 8.59024 84.9586 8.82662 84.022 9.25397C83.3709 9.55178 82.1941 10.0806 82.1741 10.9326C82.1541 11.8194 83.1427 12.2962 83.8792 12.4284C85.0667 12.642 86.3556 12.4537 87.5497 12.3562C88.1635 12.3055 88.7786 12.2427 89.3896 12.1546C89.5084 12.1679 89.6258 12.1813 89.7445 12.196C90.8613 12.3322 92.0408 12.5713 93.1669 12.4457C93.8006 12.3749 94.5478 12.1239 94.796 11.4668C94.9921 10.9473 94.6132 10.5587 94.1715 10.2649H94.1689Z" fill="#FFE8DB"/>
<path d="M108.577 61.3786C107.884 59.5944 106.321 58.2323 104.4 57.9652C103.21 57.7996 101.977 58.064 100.943 58.6756C100.744 58.7932 100.559 58.9321 100.376 59.0736C99.9997 59.3634 99.6995 59.4983 99.1938 59.3581C98.8976 59.2766 98.6054 59.1164 98.3145 59.0109C96.2278 58.2563 93.9009 57.8944 91.7141 58.4139C90.8081 58.6289 89.7101 58.9868 89.055 59.6879C88.7668 59.9964 88.6053 60.4064 88.624 60.8004C88.1397 60.8658 87.6647 60.9767 87.2524 61.1743C86.7094 61.4334 86.3078 62.0784 86.74 62.6206C87.2084 63.2069 88.3451 63.3671 89.0256 63.4673C90.0009 63.6115 90.9963 63.6075 91.9836 63.6048C93.087 63.6022 94.8909 63.5848 95.993 63.5447C97.0884 63.5047 98.2999 63.5781 99.3779 63.3471C100.332 63.1441 100.735 62.1559 101.744 62.0691C102.847 61.9742 103.961 62.3936 105.031 62.6059C105.95 62.7889 107.247 63.0346 108.09 62.4737C108.407 62.2627 108.584 61.9141 108.576 61.5696C108.602 61.5175 108.608 61.4534 108.579 61.3786H108.577Z" fill="#FFE8DB"/>
<path d="M31.1743 60.4978C30.9608 60.236 30.5686 60.0678 30.1603 59.9596C30.0175 59.9222 29.9228 59.8033 29.9228 59.6711C29.9375 57.9791 26.7833 56.7718 25.253 57.7227C25.0875 57.8255 24.8594 57.7814 24.758 57.6265C23.888 56.2977 21.9868 55.6647 20.3003 55.4871C19.3343 55.3856 18.2776 55.4965 17.5357 56.0988C17.0941 56.4567 16.8046 56.9535 16.7819 57.4676C16.7739 57.6506 16.5871 57.7855 16.3816 57.7547C15.0674 57.5584 13.6932 57.5477 12.4657 58.0485C11.9226 58.2702 11.3329 58.6201 11.1514 59.1516C11.1247 59.2278 11.1087 59.3065 11.1021 59.3853C11.0927 59.5015 11.0113 59.6057 10.8859 59.6471C10.4043 59.8033 9.98798 60.0784 9.82654 60.4978C9.31553 61.8306 11.7252 62.087 12.6885 62.1591C14.483 62.2953 16.1441 62.1311 17.8333 61.5835C18.6592 61.3164 19.453 61.2082 20.3336 61.2537C22.1068 61.3431 23.8694 61.5341 25.6466 61.5822C26.5258 61.6062 27.4051 61.6062 28.2844 61.5702C29.0502 61.5394 29.9228 61.5501 30.666 61.3685C31.0876 61.2657 31.4785 60.873 31.173 60.4978H31.1743Z" fill="#FFE8DB"/>
<path d="M26.5807 39.8405C25.173 39.954 23.8828 40.4775 22.7688 41.3389C22.5126 41.5365 22.2898 41.5793 22.0376 41.3736C21.8908 41.2547 21.7467 41.1319 21.5986 41.013C21.3224 40.7927 21.0423 40.5803 20.7541 40.376C20.1523 39.9487 19.5239 39.5587 18.8688 39.2182C16.255 37.864 13.0862 37.3298 10.2843 38.4382C9.01946 38.939 7.81465 39.8271 7.41704 41.1853C7.36901 41.3509 7.62652 41.4217 7.67455 41.2561C8.06148 39.9326 9.28364 39.0913 10.5205 38.6332C11.9214 38.1151 13.4491 37.9989 14.9248 38.2019C16.3898 38.4035 17.7934 38.9217 19.0836 39.6362C19.68 39.966 20.2537 40.3373 20.8048 40.7392C21.101 40.9556 21.3918 41.1826 21.6747 41.4163C21.8641 41.5726 22.0643 41.7916 22.3258 41.813C22.638 41.8397 22.8808 41.5793 23.109 41.4083C23.4399 41.1613 23.7935 40.9449 24.1644 40.7633C24.9209 40.392 25.7428 40.173 26.5807 40.1062C26.7501 40.0929 26.7528 39.8258 26.5807 39.8391V39.8405Z" fill="#261422"/>
<path d="M116.177 57.0905C116.072 57.0959 115.984 57.176 115.984 57.2842V57.3483C115.984 57.4498 116.073 57.5473 116.177 57.5419C116.282 57.5366 116.371 57.4565 116.371 57.3483V57.2842C116.371 57.1827 116.281 57.0852 116.177 57.0905Z" fill="#FFE8DB"/>
<path d="M117.246 57.2168H117.182C117.099 57.2168 117.099 57.345 117.182 57.345H117.246C117.329 57.345 117.329 57.2168 117.246 57.2168Z" fill="#FFE8DB"/>
<path d="M106.579 66.9956H106.514C106.432 66.9956 106.432 67.1238 106.514 67.1238H106.579C106.661 67.1238 106.661 66.9956 106.579 66.9956Z" fill="#FFE8DB"/>
<path d="M108.179 66.2585C108.073 66.2639 107.985 66.344 107.985 66.4522V66.5163C107.985 66.6178 108.074 66.7152 108.179 66.7099C108.284 66.7046 108.372 66.6244 108.372 66.5163V66.4522C108.372 66.3507 108.283 66.2532 108.179 66.2585Z" fill="#FFE8DB"/>
<path d="M93.794 71.8096H93.73C93.6286 71.8096 93.5312 71.899 93.5365 72.0032C93.5405 72.1087 93.6219 72.1969 93.73 72.1969H93.794C93.8954 72.1969 93.9928 72.1074 93.9875 72.0032C93.9835 71.8977 93.9021 71.8096 93.794 71.8096Z" fill="#FFE8DB"/>
<path d="M79.0092 70.4033H78.9452C78.8625 70.4033 78.8625 70.5315 78.9452 70.5315H79.0092C79.092 70.5315 79.092 70.4033 79.0092 70.4033Z" fill="#FFE8DB"/>
<path d="M85.4355 72.0112C85.3521 72.0112 85.3521 72.1404 85.4355 72.1404C85.5188 72.1404 85.5188 72.0112 85.4355 72.0112Z" fill="#FFE8DB"/>
<path d="M81.9652 68.2815C81.8818 68.2815 81.8818 68.4107 81.9652 68.4107C82.0486 68.4107 82.0486 68.2815 81.9652 68.2815Z" fill="#FFE8DB"/>
<path d="M77.2098 60.7559C77.1265 60.7559 77.1265 60.885 77.2098 60.885C77.2932 60.885 77.2932 60.7559 77.2098 60.7559Z" fill="#FFE8DB"/>
<path d="M85.5444 60.0673C85.523 60.0459 85.5017 60.0245 85.4803 60.0031C85.4216 59.9444 85.3309 60.0352 85.3896 60.094C85.411 60.1153 85.4323 60.1367 85.4536 60.1581C85.5124 60.2168 85.6031 60.126 85.5444 60.0673Z" fill="#FFE8DB"/>
<path d="M58.2515 73.0413H58.1874C58.1047 73.0413 58.1047 73.1695 58.1874 73.1695H58.2515C58.3342 73.1695 58.3342 73.0413 58.2515 73.0413Z" fill="#FFE8DB"/>
<path d="M57.228 75.1607L57.164 75.0966C57.0906 75.0231 56.9638 75.0231 56.8904 75.0966C56.8157 75.1714 56.8157 75.2969 56.8904 75.3704L56.9545 75.4345C57.0279 75.5079 57.1546 75.5079 57.228 75.4345C57.3027 75.3597 57.3027 75.2342 57.228 75.1607Z" fill="#FFE8DB"/>
<path d="M59.3442 74.0068H59.2802C59.1974 74.0068 59.1974 74.135 59.2802 74.135H59.3442C59.4269 74.135 59.4269 74.0068 59.3442 74.0068Z" fill="#FFE8DB"/>
<path d="M40.4632 61.7472C40.4351 61.7192 40.4058 61.6898 40.3778 61.6618C40.2577 61.5416 40.0389 61.5336 39.9215 61.6618C39.8027 61.79 39.7934 61.9903 39.9215 62.1185C39.9495 62.1465 39.9788 62.1759 40.0068 62.204C40.1269 62.3242 40.3457 62.3322 40.4632 62.204C40.5819 62.0744 40.5912 61.8754 40.4632 61.7472Z" fill="#FFE8DB"/>
<path d="M38.3434 64.1057H38.258C38.1566 64.1057 38.0592 64.1952 38.0645 64.2994C38.0699 64.4049 38.1499 64.493 38.258 64.493H38.3434C38.4448 64.493 38.5422 64.4035 38.5369 64.2994C38.5315 64.1939 38.4515 64.1057 38.3434 64.1057Z" fill="#FFE8DB"/>
<path d="M42.4714 65.999H42.386C42.2846 65.999 42.1872 66.0885 42.1925 66.1927C42.1979 66.2982 42.2779 66.3863 42.386 66.3863H42.4714C42.5728 66.3863 42.6702 66.2968 42.6648 66.1927C42.6595 66.0872 42.5795 65.999 42.4714 65.999Z" fill="#FFE8DB"/>
<path d="M13.9175 50.8711H13.8321C13.6973 50.8711 13.5679 50.99 13.5746 51.1288C13.5812 51.2691 13.688 51.3866 13.8321 51.3866H13.9175C14.0522 51.3866 14.1816 51.2677 14.175 51.1288C14.1683 50.9886 14.0616 50.8711 13.9175 50.8711Z" fill="#FFE8DB"/>
<path d="M10.9661 53.0197C10.9661 53.1118 11.0448 53.1519 11.1168 53.1412C11.1328 53.1479 11.1489 53.1519 11.1662 53.1519C11.2396 53.1519 11.2903 53.0931 11.2956 53.0223C11.3103 52.8153 10.9674 52.81 10.9674 53.0197H10.9661Z" fill="#FFE8DB"/>
<path d="M18.562 68.0439H18.4766C18.3111 68.0439 18.3098 68.3017 18.4766 68.3017H18.562C18.7274 68.3017 18.7287 68.0439 18.562 68.0439Z" fill="#FFE8DB"/>
<path d="M25.3558 65.2034H25.1837C25.0182 65.2034 25.0169 65.4611 25.1837 65.4611H25.3558C25.5212 65.4611 25.5226 65.2034 25.3558 65.2034Z" fill="#FFE8DB"/>
<path d="M8.8006 50.6122V50.6977C8.8006 50.8633 9.05811 50.8646 9.05811 50.6977V50.6122C9.05811 50.4467 8.8006 50.4453 8.8006 50.6122Z" fill="#FFE8DB"/>
<path d="M25.6147 67.0972H25.4426C25.2771 67.0972 25.2758 67.3549 25.4426 67.3549H25.6147C25.7801 67.3549 25.7815 67.0972 25.6147 67.0972Z" fill="#FFE8DB"/>
<path d="M64.37 10.8739C64.3273 10.8311 64.2846 10.7884 64.2406 10.7443C64.1445 10.6482 63.9697 10.6415 63.8763 10.7443C63.7816 10.8471 63.7749 11.0074 63.8763 11.1089C63.919 11.1516 63.9617 11.1944 64.0057 11.2384C64.1018 11.3346 64.2766 11.3413 64.37 11.2384C64.4647 11.1356 64.4714 10.9754 64.37 10.8739Z" fill="#FFE8DB"/>
<path d="M66.7744 7.82123C66.6997 7.74644 66.5743 7.74644 66.5009 7.82123L66.3715 7.95077C66.2981 8.02422 66.2981 8.15109 66.3715 8.22454C66.4462 8.29932 66.5716 8.29932 66.645 8.22454L66.7744 8.095C66.8478 8.02155 66.8478 7.89468 66.7744 7.82123Z" fill="#FFE8DB"/>
<path d="M68.7025 10.3464H68.5731C68.4717 10.3464 68.3743 10.4359 68.3796 10.5401C68.3836 10.6456 68.465 10.7337 68.5731 10.7337H68.7025C68.8039 10.7337 68.9013 10.6442 68.896 10.5401C68.892 10.4346 68.8106 10.3464 68.7025 10.3464Z" fill="#FFE8DB"/>
<path d="M40.4498 7.1189C40.2003 7.1189 40.2003 7.50618 40.4498 7.50618C40.6993 7.50618 40.6993 7.1189 40.4498 7.1189Z" fill="#FFE8DB"/>
<path d="M46.1258 8.02271C45.8763 8.02271 45.8763 8.40999 46.1258 8.40999C46.3753 8.40999 46.3753 8.02271 46.1258 8.02271Z" fill="#FFE8DB"/>
<path d="M48.4488 6.21481C48.3434 6.22015 48.2553 6.30028 48.2553 6.40845V6.53799C48.2553 6.63949 48.3447 6.73698 48.4488 6.73163C48.5542 6.72629 48.6423 6.64616 48.6423 6.53799V6.40845C48.6423 6.30696 48.5529 6.20947 48.4488 6.21481Z" fill="#FFE8DB"/>
<path d="M99.4446 9.68237H99.1871C99.0857 9.68237 98.9896 9.77051 98.995 9.87468C98.999 9.97885 99.0804 10.067 99.1871 10.067H99.4446C99.546 10.067 99.6421 9.97885 99.6367 9.87468C99.6327 9.77051 99.5527 9.68237 99.4446 9.68237Z" fill="#FFE8DB"/>
<path d="M99.4527 14.7575C99.3793 14.684 99.2538 14.684 99.1805 14.7575L99.0524 14.8857C98.979 14.9591 98.979 15.0847 99.0524 15.1581C99.1258 15.2316 99.2512 15.2316 99.3246 15.1581L99.4527 15.0299C99.526 14.9565 99.526 14.8309 99.4527 14.7575Z" fill="#FFE8DB"/>
<path d="M105.486 12.6421H105.358C105.256 12.6421 105.16 12.7302 105.166 12.8344C105.17 12.9386 105.251 13.0267 105.358 13.0267H105.486C105.587 13.0267 105.683 12.9386 105.678 12.8344C105.674 12.7302 105.594 12.6421 105.486 12.6421Z" fill="#FFE8DB"/>
<path d="M58.1234 16.0291C57.8739 16.0291 57.8739 16.4163 58.1234 16.4163C58.3729 16.4163 58.3729 16.0291 58.1234 16.0291Z" fill="#FFE8DB"/>
<path d="M126.82 56.8552C126.767 57.0021 126.715 57.149 126.663 57.2973C126.722 57.1651 126.807 56.9073 126.82 56.8552Z" fill="#BBC8F0"/>
<path d="M74.0008 69.9334C73.9021 69.9574 73.8034 69.9788 73.7033 69.9975C71.9781 70.346 70.0034 70.2125 68.5224 69.6957C68.4237 69.6623 68.3276 69.6249 68.2329 69.5875C68.0902 69.5301 67.9527 69.47 67.8206 69.4032C67.0134 69.0026 66.1609 68.6033 65.2456 68.5685C64.5398 68.5418 63.898 68.7769 63.2802 69.0787C63.1922 69.1214 63.1054 69.1641 63.0174 69.2096C62.7412 69.3511 62.4677 69.502 62.1955 69.6423C60.9186 70.298 59.5684 70.728 58.1728 70.9176C58.0821 70.9296 57.9887 70.9417 57.8966 70.951C57.1841 71.0325 56.4583 71.0512 55.7271 71.0044C55.0814 70.963 54.4303 70.8749 53.8338 70.6251C51.535 69.6663 51.4496 66.7082 50.8291 64.665C50.5823 63.8517 50.2221 63.0865 49.7431 62.3827C49.0706 61.3958 48.1407 60.6172 47.667 59.4967C45.8284 55.1458 48.0579 50.2353 46.2527 48.6007C44.6783 47.1771 40.4795 44.7839 38.4701 44.4768C34.7996 43.9172 24.3646 42.1691 26.0417 35.8804C26.889 32.7033 32.5128 30.202 34.282 29.5984C34.1846 29.6304 34.2299 30.3115 34.2566 30.6414C34.2619 30.7215 34.2673 30.7803 34.2686 30.8043C34.2726 30.8511 34.278 30.9005 34.294 30.9445C34.3033 30.9739 34.3167 31.002 34.3367 31.026C34.39 31.0914 34.4781 31.1168 34.5608 31.1395C38.6583 32.2306 42.2006 34.0348 45.735 36.3625C47.6563 37.6285 49.5496 38.94 51.539 40.0991C53.4442 41.2102 55.4669 42.1918 57.7045 42.3147C57.9566 42.3294 58.042 42.5524 57.9927 42.7434C60.4183 43.1013 63.0107 44.4835 64.9894 45.8617C66.4504 46.8779 67.6632 47.9757 68.1409 49.7332C68.6105 51.4653 68.5998 53.2989 69.2109 54.9976C69.303 55.258 69.4964 55.4663 69.6605 55.68C72.0288 58.7809 75.742 60.8963 77.2003 64.689C78.3558 67.6951 76.4972 69.3404 74.0035 69.9334H74.0008Z" fill="#63323C"/>
<path d="M52.4288 47.953C53.7004 48.6421 54.7824 49.645 55.5616 50.8656C56.4022 52.1824 56.7331 53.6367 56.9919 55.1565C57.2494 56.6682 57.5643 58.1252 58.4769 59.3899C59.3549 60.6051 60.493 61.6147 61.1641 62.9756C61.958 64.5875 62.1487 66.4638 61.7138 68.2053C61.6724 68.3722 61.9299 68.443 61.9713 68.276C62.3449 66.7817 62.2782 65.1951 61.7712 63.7395C61.2521 62.2504 60.2501 61.1447 59.2588 59.9574C58.7078 59.2977 58.2101 58.5993 57.8965 57.7927C57.6083 57.0501 57.4536 56.2649 57.3175 55.4823C57.0493 53.9492 56.7891 52.4481 56.0046 51.0806C55.1934 49.669 53.9939 48.4992 52.5636 47.7233C52.4128 47.6418 52.2781 47.8715 52.4288 47.9543V47.953Z" fill="#261422"/>
<path d="M45.1906 45.9001C43.8737 45.2217 42.4688 44.6835 41.1385 44.1881C38.9757 43.3801 36.8143 42.5722 34.6515 41.7642C32.7742 41.0618 30.506 40.4715 29.2692 38.7621C28.6288 37.8793 28.4206 36.8056 28.7582 35.76C29.0731 34.7877 29.7629 33.9664 30.5314 33.3134C31.6681 32.3479 33.0397 31.7335 34.2939 30.9443C34.8556 30.5904 35.3933 30.2031 35.875 29.733C36.0044 29.6062 35.8043 29.4085 35.6762 29.534C35.2399 29.9587 34.7582 30.3166 34.2552 30.6411C33.1225 31.3756 31.8776 31.9459 30.7889 32.7525C29.476 33.7247 28.2271 35.2178 28.3112 36.9499C28.4019 38.8075 29.9577 40.0989 31.5187 40.8361C32.466 41.2821 33.4667 41.62 34.4474 41.9872C35.5281 42.3919 36.6088 42.7952 37.6909 43.1998C39.8016 43.9878 41.9564 44.7102 44.0138 45.6344C44.3487 45.784 44.6809 45.9429 45.0078 46.1111C45.0652 46.039 45.1252 45.9682 45.1893 45.9015L45.1906 45.9001Z" fill="#261422"/>
<path d="M53.0292 48.1562C53.0719 48.1254 53.1119 48.0947 53.1573 48.0653C53.1933 48.0426 53.232 48.0239 53.2694 48.0026C53.228 47.9572 53.1867 47.9118 53.1426 47.8664C51.9191 46.6284 50.2727 45.8338 48.7063 45.1287C45.2199 43.5595 41.5028 42.5886 38.0017 41.0568C36.1698 40.2529 33.935 39.3087 32.973 37.4297C32.4873 36.4829 32.4286 35.3945 32.9476 34.4503C33.42 33.5903 34.2072 32.9492 34.9557 32.3403C35.0958 32.2267 34.897 32.0278 34.7569 32.1413C33.5334 33.1349 32.1831 34.3461 32.2992 36.0742C32.4153 37.837 33.7789 39.1244 35.2078 39.9738C38.4834 41.9235 42.2566 42.9265 45.8043 44.2499C47.6069 44.923 49.4081 45.6628 51.0679 46.6497C51.779 47.0718 52.4595 47.5565 53.0305 48.1562H53.0292Z" fill="#261422"/>
<path d="M57.2253 47.7991C59.9458 49.3322 61.703 52.0352 62.19 55.0974C62.4488 56.7213 62.6009 58.3399 63.5936 59.7127C64.4955 60.9614 65.7564 61.8708 66.8731 62.9112C68.1793 64.1291 69.4709 65.8452 69.108 67.7402C69.076 67.9085 69.3335 67.9806 69.3655 67.811C69.6684 66.2325 68.9025 64.7581 67.8992 63.5896C66.8384 62.3529 65.4575 61.4448 64.3634 60.2389C63.7884 59.6046 63.3161 58.8914 63.0372 58.0781C62.745 57.2248 62.6383 56.3233 62.5075 55.4352C62.2767 53.8594 61.8351 52.3784 60.9798 51.0229C60.0779 49.5926 58.8304 48.3974 57.3574 47.568C57.2079 47.4839 57.0732 47.7136 57.2226 47.7991H57.2253Z" fill="#261422"/>
<path d="M63.0825 47.5351C64.5182 48.6195 65.6069 50.1446 66.1513 51.862C66.6263 53.3631 66.5796 55.1673 67.5442 56.4787C68.0646 57.1865 68.8278 57.6953 69.5336 58.2002C70.4662 58.8652 71.3975 59.5343 72.1994 60.3583C73.3348 61.5241 74.1047 62.9424 74.4649 64.5302C74.5023 64.6972 74.7598 64.6264 74.7224 64.4595C74.4062 63.0639 73.7804 61.7779 72.8558 60.6841C72.0913 59.78 71.1613 59.0428 70.2047 58.3537C69.4148 57.7848 68.5436 57.252 67.9045 56.5068C66.8411 55.2661 66.8931 53.3885 66.4395 51.8941C65.8844 50.0645 64.7383 48.4566 63.216 47.3068C63.0785 47.2026 62.9465 47.435 63.0812 47.5378L63.0825 47.5351Z" fill="#261422"/>
<path d="M36.7183 33.9466C35.1492 35.1138 35.1345 37.5189 36.7836 38.6327C37.6776 39.2364 38.8277 39.3779 39.8324 39.7158C41.0172 40.1151 42.1553 40.6386 43.2373 41.2649C43.3868 41.3517 43.5202 41.1207 43.3721 41.0339C42.4822 40.5184 41.5535 40.071 40.5929 39.7051C39.6643 39.3512 38.6929 39.1495 37.7616 38.8143C36.8197 38.4765 36.0578 37.8034 35.843 36.7925C35.6322 35.8042 36.0498 34.7759 36.8544 34.1776C36.9905 34.0761 36.857 33.8438 36.7196 33.9466H36.7183Z" fill="#261422"/>
<path d="M64.7692 34.6266C64.7839 34.5331 63.1561 35.0486 62.5998 35.4185C61.9486 35.8526 61.3229 36.3253 60.7252 36.8301C59.4576 37.8998 58.3249 39.1204 57.3402 40.4546C56.3782 41.7593 55.5723 43.1776 54.9412 44.6706C54.2408 46.3293 53.7338 48.1308 54.5143 49.8522C54.553 49.939 54.5637 50.1166 54.633 50.1073C55.6951 50.7189 56.6064 49.7921 57.2308 49.2339C58.1447 48.4166 58.9773 47.4658 59.97 46.7259C62.1434 45.1073 63.8353 41.2518 64.6171 39.9217C65.2149 38.9054 66.9093 35.5374 64.7692 34.6253V34.6266Z" fill="white"/>
<path d="M54.174 29.5237C53.3468 26.5991 52.1126 23.7893 50.5249 21.1971C49.4535 19.4463 48.2086 17.7717 46.8851 16.2025C45.9017 15.0366 44.829 14.3969 43.3547 14.7135C42.3367 14.9325 41.5148 15.8045 41.0745 16.75C40.8703 17.1881 42.1192 19.9952 42.5955 20.3544C43.1732 21.8836 43.775 23.4033 44.4061 24.9124C45.1079 26.5911 45.7403 28.4247 46.7743 29.9337C47.5735 31.0996 48.8344 32.0758 50.3127 32.0251C51.0679 31.9997 51.7404 31.6498 52.3314 31.2011C52.8371 30.8165 53.3975 30.4118 53.6069 29.7922C53.619 29.7574 53.6443 29.7307 53.6563 29.7441C53.7791 30.0446 54.2674 29.8603 54.1727 29.5251L54.174 29.5237Z" fill="white"/>
<path d="M45.5348 18.4982C45.7136 19.6413 45.7162 20.8005 45.5401 21.9437C45.5148 22.1119 45.7709 22.184 45.7976 22.0144C45.9804 20.8205 45.9791 19.6213 45.7923 18.4274C45.7656 18.2578 45.5081 18.3299 45.5348 18.4982Z" fill="#261422"/>
<path d="M41.7468 16.9725C41.4693 16.6507 40.6327 16.1579 39.8122 16.2581C39.7721 16.2634 39.7348 16.2768 39.6988 16.2941C35.9229 18.2319 31.0916 21.7709 30.3591 22.6843C29.6319 23.5924 29.0542 24.6007 29.0969 25.8213C29.1023 25.9629 31.3424 27.3664 32.3511 27.5815C33.0676 27.7337 33.8521 27.918 34.582 27.7537C35.2744 27.5988 35.7134 27.0726 36.175 26.5745C38.4686 24.0972 40.7488 21.6039 42.8075 18.9277C42.5674 18.2199 42.2685 17.5802 41.7441 16.9725H41.7468Z" fill="white"/>
<path d="M69.0094 37.1397C68.992 37.0796 68.9493 37.0262 68.8733 37.0008C67.5551 36.5561 66.1168 36.8993 64.8012 36.4947C63.4416 36.0754 62.1247 34.9295 60.9213 34.1723C60.7144 34.0415 60.5237 34.3232 60.6544 34.4862C57.615 37.4602 55.2081 41.0032 53.5496 44.9161C53.5229 44.9001 53.4962 44.8854 53.4709 44.8694C53.2401 44.7265 53.0279 45.0911 53.2587 45.2326C53.3001 45.258 53.3428 45.2821 53.3855 45.3074C53.3788 45.3235 53.3721 45.3381 53.3655 45.3542C53.2721 45.5839 53.6056 45.6947 53.7404 45.5198C56.8198 47.32 60.2728 48.3643 63.8392 48.5753C63.994 48.5847 64.0594 48.4511 64.0367 48.3322C65.0907 46.723 65.4897 44.8307 66.1421 43.0452C66.8733 41.046 67.8459 39.1496 69.0614 37.4015C69.1348 37.296 69.0921 37.1945 69.0107 37.1397H69.0094Z" fill="#FFAB6E"/>
<path d="M65.2657 35.0672C65.2897 34.9831 65.2737 34.8856 65.187 34.8202C64.0662 33.9708 62.8587 33.2777 61.5685 32.7328C59.6432 30.5827 56.9321 29.1899 54.0221 28.9228C54.0114 28.9148 53.9981 28.9067 53.9847 28.9014C53.3643 28.6169 49.0107 28.7852 48.1221 29.083C46.3756 29.6693 45.9139 31.2585 44.2862 32.1252C43.4176 32.5873 42.629 33.1722 41.595 33.1175C40.7398 33.072 39.8779 32.7836 39.0466 32.5365C38.6477 33.1335 36.589 35.0405 36.17 35.6375C38.2087 37.9679 40.7865 40.7082 43.0693 42.7849C46.5397 45.9432 50.449 48.6836 54.952 50.1272C55.0188 50.1486 55.0761 50.1366 55.1188 50.1072C55.2349 50.1326 55.387 50.0685 55.407 49.9136C56.2236 43.7651 60.7666 39.1724 65.3217 35.3944C65.4525 35.2862 65.3844 35.1313 65.2657 35.0699V35.0672Z" fill="white"/>
<path d="M108.615 33.2925C108.364 32.5379 105.035 33.6784 103.114 33.6303C102.963 33.6263 102.812 33.6357 102.688 33.5502C101.747 32.8998 100.728 32.3563 99.9395 31.515C99.7994 31.3654 99.6112 31.4295 99.5205 31.5617C99.5098 31.5644 97.8194 32.7623 98.0155 33.8373C98.0408 33.9762 98.1383 34.0363 98.245 34.0377C99.1336 34.9698 102.106 36.8541 102.643 36.8501C103.669 36.8421 104.544 36.4362 105.404 36.105C106.46 35.699 107.437 35.6148 108.284 34.9725C108.724 34.6386 108.978 34.0283 108.803 33.4874C108.803 33.4848 108.617 33.2951 108.616 33.2925H108.615Z" fill="#FFAB6E"/>
<path d="M52.5917 25.5436C52.0407 25.3179 51.4643 25.1536 50.8786 25.0481C50.3022 24.9453 49.6804 24.9907 49.1147 24.8492C47.9833 24.5647 48.0687 22.9728 47.6003 22.1034C46.6891 20.4101 44.9132 19.5394 43.0226 19.6168C40.8571 19.705 39.4375 20.8201 37.9325 22.2276C37.1093 22.9982 36.0018 22.5682 35.3707 23.686C34.6609 24.9426 35.6269 26.6066 36.4208 27.5668C37.5429 28.9237 39.0039 30.1349 40.4208 31.1699C40.8705 31.4984 41.7431 32.0219 42.2861 31.5705C42.5276 31.3702 42.5863 30.9936 42.585 30.6037C42.9852 30.7386 43.3535 30.9536 43.7417 31.1419C44.2394 31.3822 44.7571 31.5719 45.2975 31.6974C45.9726 31.8537 47.0493 31.9792 47.7311 31.6293C48.8759 31.8403 49.9993 31.4958 51.0413 31.0324C51.958 30.6237 52.8546 30.2498 53.483 29.4405C54.545 28.0716 54.2368 26.2207 52.5931 25.5449L52.5917 25.5436Z" fill="#63323C"/>
<path d="M107.581 49.7386C107.238 49.6465 103.123 49.4261 102.001 48.5768C101.566 48.2456 99.6515 45.7135 98.8816 44.7881C98.7162 44.5891 98.404 44.8041 98.5014 45.0097C98.4573 45.0204 98.416 45.0471 98.3826 45.0952C97.9717 45.7028 97.2071 46.1168 96.6188 46.5495C96.5214 46.6216 96.5147 46.7245 96.5574 46.8059C96.54 46.8634 96.5467 46.9288 96.5947 46.9902C97.2752 47.861 97.9837 48.709 98.7135 49.5383C99.2939 50.0378 99.5954 51.1502 99.8983 51.6109C100.08 51.8874 100.239 52.1892 100.56 52.3267C101.323 52.6526 101.542 52.4456 102.292 52.2346C102.787 52.0944 103.279 51.9248 103.785 51.8233C104.81 51.6189 106.732 51.8593 107.776 51.3585C107.97 51.265 108.165 51.1449 108.273 50.9606C108.699 50.2407 108.179 49.9002 107.577 49.7386H107.581Z" fill="#FFAB6E"/>
<path d="M46.8743 26.9929C48.1738 27.0931 49.2946 28.0786 49.3866 29.4128C49.4747 30.6962 48.5167 31.846 47.2225 31.9315C47.0517 31.9421 47.0504 32.2092 47.2225 32.1986C48.6581 32.1037 49.7455 30.8484 49.6535 29.4128C49.5574 27.9264 48.3219 26.838 46.8743 26.7258C46.7035 26.7125 46.7035 26.9796 46.8743 26.9929Z" fill="#261422"/>
<path d="M83.4099 47.2785C84.8055 47.6831 86.0157 48.5672 86.8216 49.7784C86.8683 49.8479 86.9683 49.8706 87.031 49.8052C89.0898 47.6417 92.4814 46.9513 95.2153 48.1639C95.3714 48.2333 95.5075 48.0023 95.35 47.9328C92.5068 46.6722 88.9897 47.3586 86.8416 49.6155C86.911 49.6249 86.9817 49.6329 87.0511 49.6422C86.2065 48.3722 84.9443 47.4427 83.4806 47.0194C83.3152 46.9713 83.2445 47.229 83.4099 47.2771V47.2785Z" fill="#261422"/>
<path d="M102.001 32.3893C102.001 32.2758 101.953 32.1983 101.878 32.1569C101.865 32.1316 101.846 32.1062 101.821 32.0835C99.7436 30.1564 97.6648 28.224 95.4193 26.4919C92.8469 24.5074 89.8089 22.392 86.4066 22.5096C84.608 22.5723 82.4279 23.3896 80.9682 24.4967C80.8201 24.6089 81.3565 24.9802 81.4992 25.0843C82.6027 25.8829 83.7087 26.6816 84.7174 27.599C85.6087 28.4096 86.3879 29.3311 87.2498 30.1711C88.9723 31.8525 97.0844 37.834 97.6662 37.7058C99.1925 37.3693 102.002 35.0816 102 32.3893H102.001Z" fill="#B06B3C"/>
<path d="M47.3386 30.9924C47.1798 30.951 47.0437 30.8548 46.9477 30.7213C46.5981 30.2352 46.027 29.2843 45.911 29.2456C45.8869 29.2376 40.6287 27.7939 40.1097 28.4964C40.0523 28.5592 40.0243 28.642 40.0497 28.7288C40.0603 28.7929 40.0937 28.8449 40.1404 28.885C40.7195 29.3898 41.2011 30.2766 41.7255 30.8802C42.3112 31.5533 42.953 32.1569 43.3012 32.9622C43.4306 33.2613 43.524 33.6686 43.7668 33.909C44.2191 34.3577 45.2852 34.0145 45.8282 33.9491C45.8696 33.9437 45.9056 33.9317 45.9376 33.9157C46.5674 33.8877 47.2238 33.7114 47.8056 33.5404C48.394 33.3682 49.1732 33.1705 49.4867 32.6243C50.1031 31.5493 48.398 31.2715 47.3386 30.9924Z" fill="#FFAB6E"/>
<path d="M100.785 45.0069C100.488 44.3311 100.18 43.6594 99.8608 42.993C99.2377 41.6936 98.5732 40.4142 97.8647 39.1602C96.5345 36.8031 95.0962 34.422 93.3817 32.3226C91.8193 30.4103 89.8487 29.2631 87.3216 29.5876C84.6678 29.9282 82.2529 31.2569 80.2061 32.9263C77.6097 35.0443 75.1654 37.3774 72.7344 39.6837C72.7144 39.7024 72.6904 39.7144 72.6664 39.7251C72.5796 39.7625 72.5156 39.844 72.5209 39.9695C72.6343 42.4588 72.9719 44.9361 73.5536 47.36C73.7605 48.224 68.4222 50.1511 69.4255 50.2873C70.3608 50.4142 76.8639 50.1497 78.8292 48.9198C82.1982 46.8124 85.2536 44.856 88.1702 41.9019C88.2823 41.7884 88.4691 41.8098 88.5531 41.946C90.1956 44.6423 92.0581 47.2959 94.6292 49.1855C94.9494 49.4219 95.6192 50.0669 96.0315 49.9708C97.0669 49.7291 98.0862 49.4406 99.0322 48.9438C99.5072 48.6941 99.9568 48.3989 100.373 48.0611C100.679 47.8127 101.363 47.5149 101.424 47.1102C101.43 47.0768 100.955 45.3928 100.785 45.0055V45.0069Z" fill="#B06B3C"/>
<path d="M50.7064 32.1233C50.5663 31.8322 50.3288 31.6399 50.058 31.493C49.4309 31.4957 48.8211 31.2353 48.1927 31.1738C48.5209 31.4823 48.8051 31.8616 48.5463 32.297C48.2928 32.723 47.8191 32.97 47.3535 33.0835C46.3635 33.3239 45.2814 33.137 44.2901 33.0007C44.202 32.9887 44.1633 33.1236 44.2527 33.1356C44.2527 33.141 44.2487 33.1463 44.2447 33.153C44.178 33.1156 44.0939 33.2051 44.158 33.2598C44.5716 33.611 44.9745 34.0117 45.4295 34.3095C45.8791 34.6046 46.4409 34.7382 46.9639 34.8277C48.0099 35.0066 49.0039 34.626 49.8845 34.0785C50.5596 33.6591 51.0987 32.9353 50.7077 32.1247L50.7064 32.1233Z" fill="white"/>
<path d="M47.7708 27.6231C47.5439 26.6028 47.1397 25.5798 46.7701 24.6036C46.4272 23.6981 46.0656 22.7326 45.5012 21.942C43.3438 18.9225 38.0415 21.5467 37.9334 24.8333C37.8547 27.2091 40.171 28.9812 41.704 30.4663C41.9508 30.7053 42.1963 30.9858 42.5286 31.1046C43.173 31.3356 43.9589 31.1754 44.606 31.0365C46.2431 30.6853 48.2177 29.6303 47.7708 27.6217V27.6231Z" fill="#FFAB6E"/>
<path d="M90.712 26.2957C90.1142 24.4288 88.6519 23.5447 86.7359 23.3297C84.4597 23.0746 82.2369 23.5487 80.4624 24.8347C76.3996 27.7781 67.519 36.5414 67.5069 36.5681C67.4469 36.695 65.579 36.1621 65.3268 36.2529C63.4322 36.93 61.1306 40.4369 60.5196 42.2158C59.647 44.7532 60.2407 48.7275 60.3955 48.7796C61.4001 49.1148 68.8025 50.9324 71.587 50.0376C74.4196 49.1268 75.8579 47.0288 77.7992 44.8466C80.0834 42.2799 90.3918 30.1926 90.7026 29.6798C91.2256 28.8198 90.9401 27.0115 90.7106 26.2971L90.712 26.2957Z" fill="#B06B3C"/>
<path d="M42.0539 29.0548C41.5442 28.4044 40.7357 27.7767 39.9018 27.6993C39.6789 27.6792 39.5068 27.4909 39.4935 27.2679C39.4641 26.7711 39.5389 26.281 39.787 25.9164C40.1286 25.4156 40.5982 25.015 40.9158 24.4955C41.4535 23.6141 41.4441 22.5497 40.9958 21.6456C41.1213 21.5294 41.1639 21.3692 41.0559 21.1916C40.8851 20.9124 40.5502 21.0033 40.2887 21.078C39.2613 21.3692 38.3474 21.8646 37.8257 22.8315C36.8704 24.6063 37.5642 26.5655 38.8437 27.9423C38.817 27.9584 38.7903 27.9744 38.765 27.9917C38.6903 28.0425 38.761 28.164 38.8357 28.1133C38.8717 28.0892 38.9078 28.0679 38.9424 28.0465C38.6756 28.9613 39.831 29.4728 40.3821 29.9509C41.1706 30.6346 41.8164 31.4613 42.3034 32.3841C42.3261 32.4255 42.3834 32.4362 42.4155 32.4014C43.2987 31.4866 42.725 29.9108 42.0552 29.0548H42.0539Z" fill="#63323C"/>
<path d="M44.9011 45.6708C46.2833 46.5375 47.6896 47.4443 48.7637 48.6916C49.3027 49.3179 49.7417 50.0364 49.9912 50.827C50.2767 51.7311 50.2994 52.686 50.4288 53.6195C50.677 55.401 51.4855 57.0075 52.749 58.2842C54.0246 59.573 55.5056 60.5906 56.4142 62.2052C57.4002 63.956 57.7871 65.9672 58.1607 67.9196C58.1927 68.0879 58.4502 68.0171 58.4182 67.8488C58.086 66.1141 57.7404 64.3566 56.9906 62.7447C56.6317 61.9741 56.1754 61.2516 55.6096 60.6146C54.9732 59.8975 54.2247 59.2939 53.5189 58.6502C52.1113 57.3654 51.0786 55.8217 50.7437 53.9173C50.5649 52.8997 50.5729 51.85 50.278 50.8524C50.0605 50.1179 49.6896 49.4395 49.2227 48.8345C48.1152 47.3989 46.5528 46.3906 45.0372 45.4398C44.8917 45.3476 44.757 45.5787 44.9024 45.6708H44.9011Z" fill="#261422"/>
<path d="M76.6305 47.2346C79.7552 44.601 82.357 41.3879 84.7746 38.1094C85.858 36.6417 86.9014 35.1446 87.9474 33.6503C88.3824 33.0279 88.8187 32.4056 89.2643 31.79C89.4725 31.5028 89.6433 31.1997 89.9808 31.0568C90.4425 30.8618 90.9962 30.8538 91.4778 30.9686C92.736 31.2678 93.4552 32.439 94.1209 33.4459C94.9162 34.6492 95.7114 35.8524 96.5066 37.0557C96.6013 37.1986 96.8321 37.065 96.7374 36.9208C96.0022 35.8084 95.2684 34.6973 94.5332 33.5848C93.9582 32.7154 93.4018 31.7539 92.5265 31.1503C91.774 30.6308 90.7173 30.4491 89.8607 30.8191C89.5525 30.9526 89.3924 31.165 89.199 31.428C88.9828 31.7232 88.7693 32.021 88.5585 32.3201C86.273 35.5399 84.0595 38.8118 81.5218 41.8433C79.9647 43.7036 78.2982 45.4825 76.4423 47.0463C76.3102 47.1571 76.501 47.3454 76.6305 47.2346Z" fill="#261422"/>
<path d="M37.9578 22.7859C37.4067 23.065 36.7009 23.3361 36.3567 23.8837C35.9924 24.4633 36.0872 25.1737 36.2006 25.8121C36.2313 25.9804 36.4874 25.9096 36.4581 25.7413C36.3487 25.127 36.2459 24.3925 36.6942 23.8783C37.0425 23.4777 37.6322 23.252 38.0939 23.017C38.2473 22.9395 38.1125 22.7085 37.9591 22.7859H37.9578Z" fill="#261422"/>
<path d="M46.6584 22.6179C46.1407 21.8474 45.4442 21.1917 44.6076 20.7803C43.0666 20.0231 41.1239 20.2141 39.9752 21.5456C39.8364 21.5402 39.6977 21.5563 39.5589 21.591C39.4708 21.6137 39.5082 21.7486 39.5962 21.7259C39.683 21.7032 39.7697 21.6938 39.8564 21.6898C39.8244 21.7579 39.9111 21.8407 39.9632 21.7739C39.9845 21.7459 40.0099 21.7219 40.0312 21.6938C40.2967 21.7219 40.5462 21.8394 40.745 22.0437C40.8931 22.1959 41.0185 22.3776 41.24 22.4176C41.4335 22.4523 41.6723 22.3802 41.8631 22.3669C42.0646 22.3522 42.2674 22.3522 42.4702 22.3629C42.8905 22.3856 43.3054 22.463 43.7084 22.5819C45.2587 23.04 46.5169 24.1097 47.5496 25.3196C47.591 25.369 47.667 25.3263 47.6697 25.2702C47.7044 24.3727 47.1467 23.3418 46.6597 22.6166L46.6584 22.6179Z" fill="#63323C"/>
<path d="M39.8537 21.8633C38.833 22.3854 38.1752 23.4257 37.9778 24.5395C37.7363 25.9017 38.1552 27.2705 38.7783 28.4725C38.857 28.6247 39.0878 28.4898 39.0091 28.3376C38.4221 27.2051 38.0085 25.8964 38.2353 24.6103C38.4207 23.558 39.0238 22.5871 39.9898 22.093C40.1432 22.0142 40.0085 21.7845 39.855 21.8619L39.8537 21.8633Z" fill="#261422"/>
<path d="M46.8212 34.0173C47.6912 34.4968 48.7572 34.2577 49.6471 33.9546C50.4317 33.6875 51.2656 33.0411 51.0027 32.1063C50.956 31.9407 50.6985 32.0115 50.7452 32.1771C51.0067 33.1065 49.9847 33.5873 49.2669 33.7903C48.5184 34.0026 47.6738 34.1816 46.9547 33.785C46.8039 33.7022 46.6691 33.9332 46.8199 34.016L46.8212 34.0173Z" fill="#261422"/>
<path d="M55.7378 47.543C55.559 48.0331 55.4709 48.5379 55.4683 49.0588C55.4683 49.231 55.7351 49.231 55.7351 49.0588C55.7364 48.5593 55.8245 48.0812 55.994 47.6138C56.0527 47.4522 55.7951 47.3828 55.7364 47.543H55.7378Z" fill="#261422"/>
<path d="M41.24 21.5042C42.3221 20.954 43.643 20.9246 44.7264 21.4922C45.7004 22.0023 46.3502 22.8837 46.6584 23.9267C46.7905 24.3714 46.9719 24.7334 47.3508 25.0151C47.7338 25.2996 48.1967 25.4518 48.6424 25.6054C49.7551 25.99 51.0093 26.4614 51.5924 27.5699C52.2528 28.8252 51.6484 30.341 50.3822 30.9019C50.2261 30.9713 50.3609 31.201 50.517 31.1329C51.5457 30.6775 52.2128 29.6212 52.1247 28.4887C52.0313 27.2801 51.1454 26.4134 50.1087 25.9006C49.503 25.6014 48.8559 25.4198 48.2288 25.1754C47.5576 24.9136 47.1267 24.5611 46.9159 23.8546C46.5997 22.7956 45.9606 21.8875 44.9906 21.3306C43.7991 20.6468 42.3208 20.6535 41.1066 21.2718C40.9532 21.3493 41.0879 21.5803 41.2414 21.5029L41.24 21.5042Z" fill="#261422"/>
<path d="M44.1205 25.583C44.334 25.6725 44.6195 25.7673 44.6875 26.017C44.7449 26.228 44.6689 26.4657 44.5448 26.638C44.4434 26.7769 44.6755 26.9105 44.7756 26.7729C44.9531 26.5285 45.0318 26.1773 44.9277 25.8888C44.813 25.5697 44.4794 25.4468 44.1925 25.3279C44.0338 25.2625 43.9657 25.5202 44.1218 25.5857L44.1205 25.583Z" fill="#CF694C"/>
<path d="M44.0578 26.3172C43.8684 26.3493 43.7056 26.4908 43.6549 26.6765C43.6095 26.8421 43.867 26.9128 43.9124 26.7472C43.9404 26.6458 44.0298 26.591 44.1286 26.575C44.1993 26.563 44.2393 26.4748 44.222 26.4107C44.2006 26.3359 44.1286 26.3052 44.0578 26.3172Z" fill="#CF694C"/>
<path d="M62.4823 47.7462C62.2248 43.9588 63.7831 40.1568 66.6224 37.6394C66.7518 37.5259 66.5624 37.3376 66.4343 37.4511C63.547 40.0099 61.9539 43.8947 62.2154 47.7462C62.2274 47.9171 62.4943 47.9185 62.4823 47.7462Z" fill="#261422"/>
<path d="M85.862 37.873C86.3864 39.0722 87.0682 40.1874 87.8901 41.205C87.9981 41.3385 88.1863 41.1489 88.0782 41.0167C87.271 40.0178 86.6065 38.916 86.0915 37.7395C86.0221 37.5819 85.7927 37.7181 85.8607 37.8743L85.862 37.873Z" fill="#261422"/>
<path d="M85.1549 39.6037C85.5699 39.8375 85.9835 40.0712 86.3985 40.3049C86.5479 40.389 86.6826 40.1593 86.5332 40.0738C86.1183 39.8401 85.7047 39.6064 85.2897 39.3727C85.1403 39.2886 85.0055 39.5183 85.1549 39.6037Z" fill="#261422"/>
<path d="M42.9971 42.348C40.5848 41.3651 38.0924 41.942 35.7481 42.7767C35.2718 42.9463 34.8195 43.0919 34.3659 42.774C34.1244 42.6044 33.9683 42.328 33.7895 42.105C33.4626 41.699 33.081 41.3438 32.6434 41.0406C31.8055 40.461 30.8075 40.0964 29.7681 39.9909C27.3611 39.7479 25.0262 41.0673 24.0202 43.0839C23.8748 43.375 24.3418 43.6301 24.4872 43.3376C24.7474 42.8168 25.101 42.344 25.5252 41.9394C25.2304 42.7954 26.1363 43.8144 26.8168 44.4233C28.2778 45.7308 29.7761 46.7177 31.7454 47.2452C33.6561 47.7567 35.6387 47.9904 37.5574 48.4765C38.5474 48.7275 39.5227 49.0427 40.4273 49.4941C40.6274 49.5943 40.8356 49.7038 41.0397 49.8266C41.0571 49.8146 41.0731 49.8026 41.0904 49.7919C42.2432 49.016 43.8923 48.3857 45.1785 49.2444C45.2879 49.3178 45.3867 49.4006 45.4774 49.4901C45.9217 48.7743 46.2006 47.9703 46.2446 47.1103C46.3527 45.0109 45.0518 43.1854 42.9971 42.348Z" fill="#FFE8DB"/>
<path d="M82.4105 49.7118C82.4932 48.9119 82.4999 47.6459 83.0883 46.9608C82.9655 46.918 82.8428 46.878 82.7214 46.8419C80.5412 46.2062 78.0702 46.6135 76.4785 48.1734C76.3477 47.5804 76.0929 47.0249 75.6326 46.6015C74.784 45.8216 73.5658 45.7936 72.5331 46.1889C70.2636 47.0583 68.9801 49.6157 69.0708 51.9554C69.0961 52.5951 69.9834 52.6685 70.1609 52.1691C71.6832 53.5406 73.9167 53.7022 75.9034 53.4458C78.0475 53.1693 80.1943 52.7553 82.3171 52.2986C82.185 51.4399 82.3318 50.4704 82.4105 49.7105V49.7118Z" fill="#FFE8DB"/>
<path d="M46.3914 30.249C45.767 30.7017 44.9851 30.902 44.246 31.0837C43.3814 31.2973 42.5568 31.2346 41.8217 30.6977C41.6829 30.5962 41.5495 30.8273 41.6869 30.9288C42.3954 31.4469 43.2253 31.5711 44.0765 31.3975C44.9078 31.2279 45.831 30.9848 46.5262 30.48C46.6636 30.3799 46.5302 30.1488 46.3914 30.249Z" fill="#CF694C"/>
<path d="M47.4201 35.1926C45.8884 33.4285 44.5074 32.5965 43.3493 31.7859C41.4734 30.4731 38.3539 27.6606 36.8116 25.9686C33.0103 21.8006 32.7168 20.5506 30.965 22.0477C29.9883 22.881 29.0437 23.9908 28.8142 25.2942C28.4686 27.2506 30.2618 30.2261 31.3612 31.6697C34.2712 35.4878 37.2425 37.5618 40.8783 40.6867C40.8863 40.7362 41.8376 38.4018 43.0638 37.5751C44.2273 36.7912 47.8697 35.7121 47.4187 35.1926H47.4201Z" fill="white"/>
<path d="M41.5387 30.7549C43.0171 32.507 44.41 34.3299 45.7122 36.2169C45.8096 36.3571 46.0404 36.2236 45.943 36.082C44.6275 34.1763 43.2212 32.3361 41.7269 30.5666C41.6161 30.4357 41.428 30.6253 41.5387 30.7549Z" fill="#261422"/>
<path d="M32.5446 22.9384C33.1584 23.0519 33.7107 23.3056 34.1884 23.7103C34.3191 23.8211 34.5086 23.6328 34.3765 23.522C33.8655 23.0893 33.2744 22.8035 32.6153 22.682C32.4472 22.6513 32.3752 22.909 32.5446 22.9397V22.9384Z" fill="#261422"/>
<path d="M40.8915 16.9502C39.9042 18.2162 39.105 19.6064 38.5085 21.0981C38.4445 21.257 38.7033 21.3265 38.7661 21.1689C39.3438 19.7239 40.123 18.3658 41.0796 17.1385C41.1837 17.0049 40.9969 16.814 40.8915 16.9502Z" fill="#261422"/>
<path d="M65.1922 35.314L64.6745 35.6372C64.529 35.728 64.6625 35.959 64.8092 35.8682C64.9813 35.76 65.1535 35.6532 65.3269 35.545C65.4723 35.4542 65.3389 35.2232 65.1922 35.314Z" fill="#261422"/>
<path d="M45.9442 24.6266C45.6414 24.9472 45.3131 25.1181 44.8808 25.1835C44.8128 25.1942 44.7754 25.2249 44.7648 25.2837C44.7261 25.3585 44.7327 25.4907 44.8301 25.5147C45.1851 25.6042 45.5747 25.4573 45.8428 25.2049C45.9442 25.1101 46.0937 24.9298 46.1297 24.7776C46.1577 24.656 46.0977 24.4637 45.9442 24.6266Z" fill="#1C0F10"/>
<path d="M41.6656 26.3315C41.691 26.3315 42.4822 26.1779 42.8571 25.8961C42.9158 25.852 42.9678 25.8507 43.0119 25.8841C43.0892 25.9081 43.152 25.9989 43.0999 26.0911C42.9585 26.3408 42.6823 26.4784 42.4141 26.5612C42.1913 26.6293 41.811 26.7107 41.5856 26.5585C41.5269 26.5184 41.4908 26.441 41.5522 26.3649C41.5776 26.3341 41.6229 26.3301 41.6656 26.3301V26.3315Z" fill="#1C0F10"/>
<path d="M41.8577 24.4194C41.6162 24.4888 41.3987 24.6304 41.2159 24.808C41.0932 24.9269 40.9718 25.0564 40.8824 25.2046C40.8157 25.3141 40.7409 25.4784 40.7823 25.6093C40.8183 25.7241 40.913 25.7896 41.0265 25.8003C41.2426 25.8216 41.4094 25.7041 41.5882 25.5973C41.775 25.4851 41.9644 25.3742 42.1606 25.2808C42.358 25.1873 42.6356 25.0751 42.7183 24.8387C42.8544 24.4501 42.4741 24.3539 42.1859 24.366C42.0752 24.37 41.9644 24.3887 41.8577 24.4194Z" fill="#63323C"/>
<path d="M44.2101 23.6194C44.0126 23.7956 43.8178 24.1121 44.13 24.3231C44.3195 24.4513 44.5663 24.3605 44.7504 24.3058C44.9332 24.2524 45.1227 24.2163 45.3095 24.1829C45.4896 24.1509 45.6657 24.1348 45.7965 23.9799C45.8645 23.8985 45.8899 23.7876 45.8485 23.6768C45.8005 23.5499 45.6577 23.4725 45.551 23.4297C45.4069 23.3736 45.2521 23.3509 45.1027 23.3376C44.8812 23.3189 44.6557 23.3483 44.4569 23.4484C44.3689 23.4925 44.2848 23.5499 44.2087 23.6167L44.2101 23.6194Z" fill="#63323C"/>
<path d="M45.5962 26.7941C45.5655 26.7113 45.5082 26.6512 45.4348 26.7714C45.1066 27.3042 44.4528 27.4485 43.8804 27.538C43.8764 27.538 43.8737 27.5406 43.8697 27.542C43.8644 27.542 43.8591 27.5433 43.8524 27.5433C43.4895 27.5633 43.8564 27.8157 44.0138 27.8464C44.5729 27.9519 45.7777 27.6288 45.6162 26.8595C45.6122 26.8382 45.6056 26.8155 45.5976 26.7941H45.5962Z" fill="#C75842"/>
<path d="M79.4739 72.5854H79.4098C79.3084 72.5854 79.211 72.6749 79.2164 72.7791C79.2204 72.8846 79.3018 72.9727 79.4098 72.9727H79.4739C79.5753 72.9727 79.6727 72.8833 79.6673 72.7791C79.6633 72.6736 79.582 72.5854 79.4739 72.5854Z" fill="#FFE8DB"/>
<path d="M80.4491 67.9499C80.3744 67.8751 80.249 67.8751 80.1756 67.9499C80.1476 67.9779 80.1182 68.0073 80.0902 68.0354C80.0168 68.1088 80.0168 68.2357 80.0902 68.3091C80.1649 68.3839 80.2903 68.3839 80.3637 68.3091C80.3917 68.2811 80.4211 68.2517 80.4491 68.2237C80.5225 68.1502 80.5225 68.0233 80.4491 67.9499Z" fill="#FFE8DB"/>
<path d="M91.2191 15.0862C90.9709 15.0862 90.9709 15.4721 91.2191 15.4721C91.4673 15.4721 91.4673 15.0862 91.2191 15.0862Z" fill="#FFE8DB"/>
<path d="M78.5159 14.7645V14.85C78.5159 14.9328 78.644 14.9328 78.644 14.85V14.7645C78.644 14.6817 78.5159 14.6817 78.5159 14.7645Z" fill="#FFE8DB"/>
<path d="M78.2809 14.0793V14.1647C78.2809 14.3303 78.5385 14.3303 78.5385 14.1647V14.0793C78.5385 13.9137 78.2809 13.9137 78.2809 14.0793Z" fill="#FFE8DB"/>
<path d="M79.5229 4.85864C79.3575 4.85864 79.3575 5.11639 79.5229 5.11639C79.6884 5.11639 79.6884 4.85864 79.5229 4.85864Z" fill="#FFE8DB"/>
<path d="M107.199 12.5781H107.114C106.948 12.5781 106.948 12.8359 107.114 12.8359H107.199C107.365 12.8359 107.365 12.5781 107.199 12.5781Z" fill="#FFE8DB"/>
<path d="M107.542 13.4353H107.457C107.291 13.4353 107.291 13.693 107.457 13.693H107.542C107.708 13.693 107.708 13.4353 107.542 13.4353Z" fill="#FFE8DB"/>
<path d="M105.742 14.0364C105.577 14.0364 105.577 14.2941 105.742 14.2941C105.908 14.2941 105.908 14.0364 105.742 14.0364Z" fill="#FFE8DB"/>
<path d="M34.6516 10.102V10.2956C34.6516 10.4612 34.9092 10.4626 34.9092 10.2956V10.102C34.9092 9.9364 34.6516 9.93506 34.6516 10.102Z" fill="#FFE8DB"/>
<path d="M45.6056 48.2828C44.9599 46.711 42.8051 46.3491 41.3041 46.4706C39.6109 46.6082 37.9925 47.3867 36.8717 48.6701C36.7597 48.7997 36.9478 48.9893 37.0599 48.8584C38.0912 47.6779 39.5549 46.9327 41.1106 46.7564C42.5075 46.5975 44.7317 46.8512 45.3495 48.3536C45.4135 48.5099 45.6724 48.4418 45.607 48.2828H45.6056Z" fill="#261422"/>
</svg>
