<svg width="88" height="100" viewBox="0 0 88 100" fill="none" xmlns="http://www.w3.org/2000/svg">
<mask id="mask0_385_14042" style="mask-type:alpha" maskUnits="userSpaceOnUse" x="0" y="0" width="88" height="100">
<rect width="88" height="100" fill="#D9D9D9"/>
</mask>
<g mask="url(#mask0_385_14042)">
<path d="M46.2863 96.3542C46.1141 94.6745 45.8814 93.0009 45.6247 91.3333C45.241 88.8229 44.7607 84.959 41.8907 84.1434C41.9119 83.95 41.6249 83.8141 41.5131 84.0165C41.5071 84.0286 41.501 84.0437 41.492 84.0588C41.4406 84.0497 41.3953 84.0346 41.3409 84.0256C41.0841 83.9923 40.9724 84.382 41.2322 84.4183C41.2563 84.4213 41.2805 84.4273 41.3047 84.4304C39.8334 87.2882 39.1326 90.4451 38.3653 93.5477C37.9302 95.3059 37.4952 97.0641 37.0602 98.8193C36.8729 99.5775 36.3956 100.84 37.4197 101.218C38.0632 101.457 39.0117 101.263 39.6764 101.245C40.6219 101.218 41.5645 101.185 42.507 101.145C43.4012 101.106 44.3559 101.136 45.241 100.994C45.5975 100.937 45.9237 100.822 46.1412 100.514C46.4192 100.121 46.4131 99.5534 46.4252 99.0972C46.4494 98.1819 46.3739 97.2665 46.2802 96.3542H46.2863Z" fill="#93A4E0"/>
<path d="M29.6799 80.527C29.701 80.4968 29.7191 80.4605 29.7222 80.4152C29.9397 76.6631 29.4503 69.2436 25.1333 67.6576C22.8947 66.8359 22.5624 69.4883 22.9642 71.0199C23.6651 73.6724 25.0819 76.0922 26.68 78.2945C27.1483 78.941 27.6377 79.5754 28.1392 80.1977C28.3567 80.4665 28.7041 81.11 29.1089 81.1765C29.5107 81.2429 29.6496 80.9348 29.6768 80.527H29.6799Z" fill="#93A4E0"/>
<path d="M37.0752 96.1063C37.1689 96.0097 37.2655 95.9311 37.3652 95.8616C35.2234 90.0432 29.2871 79.1707 26.2269 75.4459C24.1182 72.881 21.7075 70.567 19.0128 68.6245C16.8045 67.0324 13.856 64.8785 11.0042 65.0054C3.86259 65.3195 8.72334 74.6211 10.5299 77.7116C12.7684 81.5422 15.5689 84.9861 18.5748 88.2397C18.6956 88.3696 18.5294 88.5629 18.3814 88.4663C14.9737 86.2519 11.1945 84.6055 7.02857 85.264C5.35797 85.5269 2.93213 86.1975 2.21918 87.9376C1.50925 89.6656 2.6542 91.5567 3.7931 92.7863C7.42432 96.7105 12.7745 99.7496 18.0189 100.704C21.6531 101.366 30.7644 101.242 33.6343 101.318C34.3654 99.3327 35.598 97.6168 37.0752 96.1124V96.1063Z" fill="#93A4E0"/>
<path d="M39.4709 100.254C40.4044 101.559 55.8295 101.04 56.1437 100.994C62.5512 100.076 68.3998 97.6712 73.2545 93.9856C77.3268 90.8921 80.6771 86.9467 83.0788 82.3428C84.547 79.5272 88.5649 71.9385 83.5712 68.7786C81.1514 67.247 78.354 68.4765 76.3692 69.2589C73.753 70.2891 71.3392 71.6697 69.1098 73.2708C66.7594 74.9595 64.6176 76.8869 62.5814 78.9261C62.3156 79.1919 61.793 78.8233 61.8987 78.4427C62.4153 76.5606 62.5361 74.5517 62.0225 72.5397C60.7598 67.5853 55.8749 65.4736 51.8721 66.8029C47.1321 68.3768 44.8664 73.0563 43.4617 77.6542C41.7457 83.2823 39.4709 100.251 39.4709 100.251V100.254Z" fill="#93A4E0"/>
<path d="M61.6357 79.512C58.3821 85.1551 55.9774 91.2485 54.5001 97.5895C54.4669 97.7315 54.6844 97.7919 54.7177 97.6499C56.1919 91.324 58.5875 85.2518 61.8321 79.6268C61.9046 79.4999 61.7082 79.3851 61.6357 79.512Z" fill="#2B0303"/>
<path d="M19.1366 89.874C21.5987 92.1699 23.5411 94.9462 24.8462 98.0518C24.9006 98.1847 25.1211 98.1273 25.0637 97.9913C23.7436 94.8495 21.789 92.04 19.2937 89.7139C19.1879 89.6142 19.0278 89.7743 19.1335 89.874H19.1366Z" fill="#2B0303"/>
<path d="M41.3137 94.0974C41.7668 96.1426 41.9934 98.2181 41.9934 100.312C41.9934 100.457 42.22 100.457 42.22 100.312C42.22 98.1969 41.9904 96.1003 41.5312 94.037C41.501 93.895 41.2805 93.9555 41.3137 94.0974Z" fill="#2B0303"/>
<path d="M23.9612 73.5185C25.3479 74.9746 26.3418 76.6996 26.9097 78.627C26.952 78.7659 27.1695 78.7085 27.1272 78.5666C26.5502 76.6029 25.5321 74.8387 24.1213 73.3584C24.0217 73.2527 23.8615 73.4128 23.9612 73.5185Z" fill="#2B0303"/>
<path d="M58.379 88.3378C57.0351 84.994 58.9353 89.5946 58.8019 89.8391C58.7877 89.8334 58.775 89.8277 58.7594 89.8234C53.5553 88.4586 48.1439 88.1317 42.8178 88.8397C42.8788 90.9977 42.1167 91.592 42.3991 93.733C42.6418 95.5741 43.1783 98.3392 43.8964 100.065C44.2951 101.022 45.2957 100.904 46.2039 101.025C47.4287 101.188 48.669 101.222 49.9037 101.167C52.4355 101.053 55.017 100.914 57.4821 100.349C57.8894 100.256 58.3038 100.158 58.6614 99.9415C59.4704 99.4524 59.3923 98.6534 59.4008 97.826C59.4562 92.0924 59.2405 90.4803 58.379 88.3392V88.3378Z" fill="#AD6553"/>
<path d="M39.5906 87.809C39.5338 87.728 39.4415 87.6725 39.3124 87.6782C36.8657 87.7791 34.4248 87.6085 31.9852 87.4436C29.6265 87.283 27.0663 87.3782 24.8113 86.575C24.4764 86.4556 24.289 86.8437 24.4125 87.1024C24.6594 87.6185 24.0847 89.4268 24.0194 90.0367C23.8973 91.1684 23.8093 92.3029 23.7568 93.4388C23.6589 95.5173 23.7157 97.5958 23.6816 99.6671C23.6476 101.757 26.1723 101.838 27.6922 101.78C30.7335 101.663 33.7748 101.498 36.8146 101.359C37.5555 101.325 39.0825 101.349 39.1776 100.325C39.5125 96.7456 40.1781 91.5977 40.2547 87.9966C40.2632 87.5957 39.7552 87.5346 39.5891 87.8104L39.5906 87.809Z" fill="#AD6553"/>
<path d="M47.0993 8.54538C46.3912 7.14504 45.3495 5.88971 43.7572 6.0077C42.4884 6.10153 41.0395 6.92468 40.5498 8.26958C40.0673 9.59173 40.6222 11.8806 41.8555 12.5332C41.9364 12.5758 42.013 12.5673 42.0769 12.5317C42.0811 12.5317 42.0854 12.5332 42.0911 12.5332C43.1327 12.5559 44.1673 12.6597 45.1905 12.8701C45.8263 13.0009 46.2478 13.0805 46.7431 12.5588C47.7905 11.457 47.7621 9.85616 47.0993 8.5468V8.54538Z" fill="#66362D"/>
<path d="M50.3238 14.1993C49.3119 12.8985 48.2419 11.5251 46.7219 11.2109C43.9276 10.6323 41.5135 10.0437 38.7802 11.2678C36.6869 12.2061 34.7583 14.0173 34.3425 16.5294C34.0813 18.1146 34.3496 19.8262 35.1883 21.1683C36.396 23.1032 38.6525 25.1447 40.6351 25.9536C46.7205 28.4373 55.3973 20.7176 50.3224 14.1979L50.3238 14.1993Z" fill="#66362D"/>
<path d="M60.688 93.0666C60.6894 93.3452 60.7731 93.6921 60.6354 93.9395C59.4022 96.153 52.2637 96.598 52.1062 96.6193C47.5904 97.225 41.5433 95.5303 41.4936 95.3313C41.2382 94.3049 41.1601 93.2343 41.2651 92.1823C41.1232 91.8198 41.0168 91.443 40.9515 91.0578C40.9274 90.9199 40.7287 90.9156 40.7032 91.0549C40.4662 92.3515 40.7202 93.7547 40.3044 95.0171C40.1866 95.3782 40.0376 95.5972 39.6515 95.6554C30.5915 97.0373 23.8533 94.9503 23.5453 94.8053C22.9124 94.5039 22.9947 93.5229 22.9379 92.9273C22.8627 92.134 22.6811 91.1999 23.1011 90.4763C23.209 90.2901 23.3523 90.1337 23.517 90.0143C23.2487 83.7689 24.4948 78.9494 28.0498 71.7017C28.3776 71.0321 28.5266 70.2872 28.6004 69.5408C28.6969 68.5727 28.836 67.6102 29.0191 66.6534C28.8005 66.4558 28.8729 65.9838 29.2376 65.9966C33.3802 66.1217 37.5242 66.2482 41.6668 66.3733C43.7388 66.4373 45.8093 66.4999 47.8828 66.5624C49.7688 66.6207 51.9061 66.969 53.7127 66.2696C53.8546 66.2141 53.9682 66.2568 54.0448 66.3406C54.3159 66.2895 54.6252 66.5212 54.3187 67.0373C54.2619 68.1789 54.2137 69.1356 54.1555 70.2772C59.0346 76.6932 59.6846 84.6077 59.7144 89.3774C60.3743 89.72 60.661 90.7976 60.678 91.5653C60.688 92.0643 60.6865 92.5662 60.6908 93.068L60.688 93.0666Z" fill="#C3D4EB"/>
<path d="M41.3801 72.6639C41.3901 72.4848 41.1119 72.4848 41.102 72.6639C40.9586 75.1476 40.8806 77.6355 40.865 80.122C40.1454 79.8917 39.4288 79.6159 39.0186 78.9363C38.6085 78.2553 38.6312 77.3298 38.5971 76.5607C38.529 74.9798 38.5787 73.3975 38.7291 71.8223C38.7461 71.6432 38.4666 71.6446 38.4509 71.8223C38.265 73.7814 38.1671 75.82 38.4027 77.7791C38.5886 79.3188 39.4756 79.9656 40.8635 80.4134C40.855 82.2986 40.8806 84.1851 40.9459 86.0703C40.9515 86.2494 41.2311 86.2508 41.224 86.0703C41.0707 81.6005 41.1218 77.128 41.3801 72.6639Z" fill="#4F3333"/>
<path d="M54.5727 67.5913C54.2435 67.4505 53.8774 67.4178 53.5268 67.5415C46.5388 70.0095 38.9547 69.9854 31.6914 69.4338H31.673C30.8796 69.3712 30.1459 69.2532 29.4732 68.7556C29.4065 68.7059 29.3356 68.6632 29.2632 68.6291C28.8857 68.4471 28.4358 68.6575 28.3138 69.0584C28.0725 69.8517 27.8256 70.6436 27.5772 71.434C27.5219 71.6103 27.5786 71.8065 27.7262 71.9174C27.7333 71.9231 27.7404 71.9274 27.7475 71.933C28.6501 72.6012 29.9572 72.7747 31.0074 72.9794C32.6366 73.2979 34.2899 73.4798 35.9362 73.6675C44.5321 74.6442 51.9884 72.6709 54.4379 71.8051C54.489 71.7866 54.5401 71.7667 54.5884 71.744C54.8495 71.6245 55.0013 71.3459 54.9644 71.0601C54.8466 70.1403 54.7374 68.504 54.5742 67.5913H54.5727Z" fill="#4F3333"/>
<path d="M43.2549 74.5946H43.245L38.4127 74.5335C38.187 74.5306 37.977 74.4382 37.8209 74.2733C37.6662 74.1084 37.5867 73.8923 37.5967 73.6662L37.7854 69.7837C37.8067 69.3387 38.1856 68.9861 38.6312 68.9961L43.2748 69.1141C43.7261 69.1254 44.0809 69.4894 44.0809 69.9415V73.7658C44.0809 73.989 43.9929 74.1979 43.8353 74.3543C43.6792 74.5079 43.4735 74.5932 43.2549 74.5932V74.5946ZM38.4496 73.6819L43.2294 73.7416V69.9671L38.6355 69.8505L38.4496 73.6819Z" fill="#F5E8DC"/>
<path d="M31.1224 68.2228C30.5774 70.2359 30.3248 72.3243 30.3858 74.4099C30.4412 76.2936 33.3689 76.3007 33.3136 74.4099C33.2596 72.5688 33.4654 70.7804 33.9465 69.0019C34.4404 67.1779 31.6162 66.4002 31.1238 68.2228H31.1224Z" fill="#C3D4EB"/>
<path d="M52.0168 68.6422C51.5883 66.8054 48.7655 67.583 49.1941 69.4213C49.5517 70.9524 49.7235 72.4878 49.7277 74.0616C49.7334 75.9481 52.6611 75.9524 52.6555 74.0616C52.6498 72.2376 52.4312 70.4179 52.0168 68.6422Z" fill="#C3D4EB"/>
<path d="M70.7557 64.5208C72.0812 54.1781 67.8094 41.8295 62.7558 36.6347C59.9628 33.7644 57.1174 32.4437 53.2643 31.5224C53.2019 31.6987 53.033 31.8508 52.8003 31.8181C49.5546 31.3689 46.3728 30.5088 43.0818 30.4505C41.3873 30.4206 39.6899 30.4235 37.9997 30.5571C36.5082 30.6751 34.8108 30.6907 33.4243 31.3049C33.1007 31.4485 32.8084 31.1528 32.8268 30.894C29.8182 31.4371 25.9523 32.1195 23.605 34.1326C13.7162 42.61 9.52824 60.9467 11.4583 65.9453C11.7947 67.5205 11.5548 63.7502 12.9981 64.5748C14.7551 65.5785 17.0059 63.9478 18.4861 62.6442C20.419 60.941 21.9943 58.7616 23.6888 56.8239C23.8434 56.6461 23.9981 56.4542 24.1557 56.2637C24.4892 55.8628 24.1727 56.3575 24.228 56.8779C24.4906 59.353 24.6964 61.9945 25.176 64.4994C25.5436 66.4173 26.6066 68.4105 28.0059 69.7753C30.8485 72.5504 35.1642 70.7235 38.4354 70.0681C40.2789 69.6985 41.5051 69.9089 43.2464 70.5032C47.4457 71.9362 50.978 71.6519 54.9546 69.6828C57.9178 68.2157 59.4448 61.15 59.943 54.9757C59.9799 54.5122 56.642 59.1099 57.5233 59.7937C59.371 61.2268 65.6211 70.4847 67.7768 69.4227C70.0432 68.3052 70.4605 66.8452 70.7585 64.5208H70.7557Z" fill="#FAAF5F"/>
<path d="M32.6692 31.3842C32.0901 34.5631 31.6828 37.776 31.4856 41.0018C31.3891 42.5728 31.3436 44.148 31.3564 45.7217C31.3664 46.9174 31.4387 48.1101 31.4387 49.3058C31.4402 51.3373 31.3578 53.44 31.9113 55.4161C32.1682 56.3317 32.5854 57.2302 33.295 57.8827C34.1437 58.6618 35.3855 58.9902 36.4754 59.266C39.0114 59.9086 41.6639 60.0593 44.2695 60.1062C45.3324 60.1247 46.3968 60.146 47.4598 60.1631C48.4305 60.1787 49.6936 60.2228 50.4117 59.4522C51.0404 58.7769 51.3199 57.7832 51.5442 56.9117C51.8081 55.8867 51.9756 54.8389 52.1317 53.794C52.4851 51.407 52.8768 49.03 53.1379 46.6302C53.6786 41.6572 53.8986 36.6373 53.7212 31.6359C53.4558 31.569 53.189 31.5036 52.9236 31.4425C47.8302 30.2725 42.5608 29.9313 37.3553 30.3364C35.8254 30.4559 34.2813 30.6293 32.76 30.9065C32.7302 31.0658 32.699 31.225 32.6692 31.3856V31.3842Z" fill="#F5E8DC"/>
<path d="M37.3979 35.5014C38.2778 37.1534 40.6904 37.4662 42.1607 37.5017C44.1106 37.55 46.8553 34.3058 48.3838 33.0775C47.6117 32.5699 46.8411 32.0155 46.3884 31.2009C45.9399 30.3976 45.8236 29.3015 45.8293 28.403C45.842 26.5236 46.2479 24.8986 46.3728 23.0249C46.3884 22.7832 45.6334 22.887 45.4546 22.9637C45.3921 22.8756 45.2857 22.8145 45.1509 22.8344C43.2946 23.1016 41.4369 22.9154 39.6672 22.3126C39.311 22.1918 39.1577 22.7434 39.5111 22.8642C39.5693 22.8841 39.6289 22.9026 39.6871 22.9211C39.6871 22.9211 39.3791 22.4548 39.3791 22.4562C39.5026 24.7792 39.3351 26.7397 39.1222 29.0613C39.0541 29.8105 38.9832 30.6649 38.3601 31.0871C37.95 31.3658 37.8194 32.078 37.3681 32.2885C37.0148 32.4534 36.6515 32.5927 36.2825 32.7107C36.7934 33.1528 37.073 34.8972 37.3951 35.5028L37.3979 35.5014Z" fill="#AD6553"/>
<path d="M39.1222 24.5959C39.1804 24.6158 39.3578 24.6073 39.4174 24.6272C39.4174 24.6272 39.3195 24.768 39.3195 24.7694C39.4131 26.5294 39.1832 27.3355 39.1179 29.1097C40.4874 29.7523 43.9431 30.0025 45.8562 27.6568C45.9257 26.737 46.1145 25.6309 46.1755 24.7154C46.1911 24.4737 45.2445 24.6187 45.0657 24.6969C45.0032 24.6087 44.8968 24.5476 44.762 24.5675C42.9057 24.8348 41.048 24.6485 39.2783 24.0458C38.9221 23.9249 38.7688 24.4765 39.1222 24.5974V24.5959Z" fill="#8A4230"/>
<path d="M48.1992 19.8193C48.1609 19.8691 48.1438 19.9217 48.141 19.9743C48.08 19.9985 48.0289 20.0511 48.0119 20.1392C47.8416 20.9965 47.6713 21.8552 47.501 22.7124C47.4626 22.9029 47.6216 23.0266 47.7706 23.028C47.86 23.1219 48.0161 23.1645 48.1453 23.0621C48.9216 22.4409 49.668 21.4102 49.6865 20.3709C49.7035 19.4341 48.7697 19.09 48.1992 19.8193Z" fill="#AD6553"/>
<path d="M37.9528 19.2932C37.95 19.2832 37.9457 19.2747 37.9415 19.2661C37.9755 19.1823 37.967 19.0827 37.879 18.9989C37.212 18.3605 36.2739 18.8638 36.2612 19.677C36.2455 20.7205 37.0417 21.7071 37.9131 22.2943C37.9457 22.3156 37.9769 22.3284 38.0082 22.3369C38.1799 22.4805 38.5191 22.4237 38.4935 22.1592C38.3984 21.1897 38.2196 20.2357 37.9528 19.2946V19.2932Z" fill="#AD6553"/>
<path d="M59.1581 52.593C59.1581 52.593 59.1539 52.593 59.151 52.593C59.073 52.5887 59.012 52.5219 59.0162 52.4437C59.1212 50.3069 58.7381 47.5276 58.7338 47.5005C58.7225 47.4223 58.7764 47.3513 58.8544 47.3399C58.9311 47.3285 59.0034 47.3825 59.0148 47.4607C59.0191 47.4892 59.4065 50.2941 59.3001 52.4579C59.2958 52.5332 59.2334 52.593 59.1581 52.593Z" fill="#4F3333"/>
<path d="M47.7977 14.8362C47.4897 14.2505 47.0412 13.723 46.4097 13.2795C45.229 12.4506 43.6083 12.2331 42.2217 12.5857C41.1219 12.8643 40.0646 13.3633 39.2287 14.141C37.7755 15.4944 37.4916 17.3611 37.6023 19.2647C37.7187 21.2536 37.9614 23.5524 38.9491 25.3224C40.2022 27.5672 43.6366 27.8302 45.6987 26.6502C47.7622 25.4688 49.0692 17.2516 47.7977 14.8362Z" fill="#AD6553"/>
<path d="M46.4721 19.2092C46.4153 19.0756 46.3117 18.9889 46.1414 19.0216C45.7724 19.0926 45.7057 19.5888 45.7611 19.893C45.8519 20.3878 46.3131 20.4262 46.4778 19.9613C46.5388 19.7893 46.5828 19.4225 46.4721 19.2078V19.2092Z" fill="#2B141B"/>
<path d="M39.7084 18.7969C39.7665 18.6647 39.8701 18.5779 40.0404 18.6135C40.408 18.6888 40.4719 19.185 40.4123 19.4892C40.3172 19.9825 39.8559 20.0181 39.6942 19.5518C39.6346 19.3783 39.5934 19.0115 39.7069 18.7983L39.7084 18.7969Z" fill="#2B141B"/>
<path d="M48.2135 17.418C47.8445 16.8508 47.1576 16.602 46.5091 16.5636C46.0209 16.5337 45.1041 16.6816 45.4575 17.428C45.5369 17.5972 45.7115 17.708 45.8931 17.7592C46.2281 17.8531 46.5786 17.8445 46.922 17.8502C47.2286 17.8559 47.599 17.9568 47.897 17.9113C48.1241 17.8758 48.3668 17.654 48.2135 17.4194V17.418Z" fill="#66362D"/>
<path d="M25.1476 51.585C25.0681 51.585 25.0057 51.521 25.0057 51.4414C25.0298 47.6072 25.6415 44.7439 25.6471 44.7155C25.6642 44.6387 25.7394 44.5904 25.816 44.6074C25.8927 44.6245 25.9409 44.6998 25.9253 44.7766C25.9196 44.805 25.3136 47.6413 25.2895 51.4442C25.2895 51.5224 25.2256 51.585 25.1476 51.585Z" fill="#4F3333"/>
<path d="M38.8952 16.7496C39.2542 16.1426 39.9213 15.8782 40.5514 15.8355C40.8593 15.8156 41.322 15.8455 41.5391 16.1227C41.8967 16.5776 41.4015 17.0596 40.9998 17.1548C40.7245 17.2202 40.4307 17.206 40.1497 17.2117C39.8517 17.2174 39.4912 17.3268 39.2017 17.2756C38.9803 17.2373 38.7462 17.0013 38.8952 16.7496Z" fill="#66362D"/>
<path d="M48.9557 15.4519C48.8223 14.8107 48.6605 14.1184 48.2447 13.5952C47.7735 12.9995 47.0072 12.6526 46.343 12.2901C46.3714 12.1934 46.3444 12.0868 46.2238 12.0313C45.0998 11.5039 43.8651 11.3433 42.6446 11.5807C41.3404 11.8337 40.32 12.5431 39.4032 13.4758C38.4722 14.4212 37.3327 15.3495 36.9381 16.6703C36.6969 17.4763 36.6472 17.8957 37.3781 18.7303C40.1767 19.5321 43.9346 17.927 45.4574 15.4178C45.5553 15.2557 45.7923 15.2514 45.8889 15.4149C46.4693 16.3873 46.79 17.5034 47.0909 18.6051C47.2186 19.0729 47.3818 19.525 47.7125 19.8903C47.7948 19.9813 47.887 20.068 48.0006 20.1178C49.0025 20.5614 49.5517 18.9734 49.5475 18.281C49.5404 17.3086 49.1529 16.3944 48.9571 15.4547L48.9557 15.4519Z" fill="#66362D"/>
<path d="M52.217 54.522C52.4483 54.0671 52.7875 53.7174 53.1849 53.4643C53.666 52.5203 54.1925 51.6232 54.7857 50.756C54.1329 50.4234 53.4872 50.075 52.8556 49.7011C51.9601 49.1709 50.8972 48.6178 50.2954 47.7407C50.0414 47.3696 49.8569 46.9545 49.671 46.5479C48.7883 44.6229 47.2187 42.7108 45.5625 41.3844C45.0331 40.9607 42.9172 38.9875 42.7866 40.8072C42.7809 40.8953 42.7838 40.9835 42.7937 41.0688L41.9337 40.2883C41.2142 39.6357 39.8517 38.5524 38.979 39.3542C38.8612 39.2533 38.7448 39.1509 38.627 39.05C38.2821 38.7515 37.9089 38.325 37.4704 38.1657C36.8899 37.9553 36.3691 38.2795 36.213 38.8609C36.098 39.2903 36.213 39.6386 36.3904 39.9712C36.0966 39.8689 35.7887 39.8447 35.4764 39.9542C34.51 40.2954 35.0436 41.7057 35.3771 42.2743C35.3132 42.2971 35.2678 42.3554 35.204 42.4151C34.6576 42.9184 34.7541 44.0955 35.3771 44.9485C38.2396 48.8695 41.9039 52.1862 46.0422 54.7111C47.5749 55.6466 49.1885 56.4697 50.8418 57.226C51.2477 56.2963 51.77 55.402 52.217 54.522Z" fill="#AD6553"/>
<path d="M49.7433 32.9768C49.0479 32.2119 47.5535 30.631 47.0909 31.6432C44.8372 36.5821 38.986 34.7027 38.2026 30.9623C38.17 30.8087 37.7272 31.2821 37.6037 31.2892C36.9566 30.8841 37.4306 31.4712 37.3823 31.4755C36.6387 31.5451 36.6259 31.511 35.8879 31.6191C35.4423 31.6845 35.0847 31.8352 34.9257 32.2873C34.605 33.1943 34.869 34.6686 35.3231 35.4889C35.966 36.6504 37.4433 37.2503 38.5773 37.8062C39.7821 38.3962 41.0622 38.8468 42.419 38.8397C45.0671 38.8255 47.5706 37.32 49.4212 35.5173C50.1875 34.7695 50.5452 33.8582 49.7447 32.9782L49.7433 32.9768Z" fill="#F5E8DC"/>
<path d="M47.5976 40.4634C47.4088 39.6431 46.4864 39.7355 45.8491 39.899C45.4944 39.9899 45.1424 40.1065 44.7919 40.2359C44.8288 40.0738 44.8146 39.9061 44.7266 39.7369C44.2994 38.9166 42.7028 39.4952 42.0898 39.6999C40.9686 40.0752 39.9 40.6226 38.8398 41.1529C39.0825 40.6866 39.0925 40.2842 38.566 40.1435C37.9727 39.9843 37.1042 40.5714 36.6032 40.8159C35.8255 41.1955 35.0734 41.6277 34.3538 42.1082C31.5141 44.0062 29.1001 46.4216 27.187 49.2066C27.1459 49.2663 27.6653 49.9217 27.6766 49.9487C28.0768 50.9738 28.7651 52.1154 29.5755 52.8916C30.0793 53.3735 31.6035 54.3758 32.1924 53.9792C36.4712 51.0974 38.2438 49.4995 42.866 47.1722C45.0913 46.0519 45.5923 44.4995 45.527 44.0872C46.1018 43.6607 46.7645 43.1503 46.9433 42.4253C46.9944 42.2163 46.9859 41.986 46.9079 41.8026C47.3577 41.4898 47.7352 41.059 47.5961 40.4619L47.5976 40.4634Z" fill="#AD6553"/>
<path d="M33.6996 53.0662C33.6513 52.9383 29.5684 51.8237 28.3564 48.2525C27.9874 47.1663 27.5021 48.1245 26.08 48.6591C25.0582 49.0429 23.2062 50.0551 22.42 50.8143C20.8901 52.29 20.6616 53.8894 19.1332 55.3651C17.8559 56.5977 16.6198 57.7577 15.4717 59.1154C15.4334 59.1595 15.3923 59.2078 15.3355 59.2206C15.2688 59.2363 15.2035 59.2007 15.1439 59.1666C14.765 58.9463 14.4002 58.7472 14.0824 58.4416C13.9021 58.2653 13.1571 55.6721 13.008 55.4546L11.1234 60.3267C10.6877 66.319 11.7549 67.6554 13.4551 69.6315C17.9922 74.9102 24.1826 66.9119 28.118 62.2019C29.9899 59.9613 32.4692 55.9551 33.0042 55.0765C33.1972 54.758 33.8912 53.5667 33.6996 53.0662Z" fill="#FAAF5F"/>
<path d="M70.7158 62.1394C70.4434 57.9242 67.693 58.1076 65.0434 55.8485C61.4231 52.7607 53.7837 48.9421 52.1034 48.3293C51.7202 48.19 51.2987 48.099 51.0291 48.4075C47.4953 52.4507 44.6016 54.07 45.5269 55.1732C48.2631 58.4331 51.4676 60.3993 54.2222 63.6464C56.0359 65.7831 58.1746 68.1147 60.5886 69.569C66.051 72.8588 71.2665 70.6979 70.7144 62.1394H70.7158Z" fill="#FAAF5F"/>
<path d="M38.6198 90.9013C33.9451 91.2454 29.1681 91.3506 24.6623 89.8635C24.492 89.8067 24.4182 90.0768 24.5885 90.1322C29.1171 91.6264 33.9224 91.5255 38.6213 91.18C38.7987 91.1672 38.8001 90.8871 38.6213 90.9013H38.6198Z" fill="#4F3333"/>
<path d="M58.0796 90.0867C53.4332 92.0458 48.3157 91.7557 43.3968 91.433C43.218 91.4217 43.218 91.7003 43.3968 91.7117C48.3384 92.0358 53.4871 92.323 58.1548 90.3554C58.318 90.2872 58.2456 90.0156 58.081 90.0867H58.0796Z" fill="#4F3333"/>
<path d="M25.7507 65.4688C25.7167 65.4688 25.6826 65.456 25.6556 65.4319C25.5974 65.3793 25.5932 65.2883 25.6471 65.2314C29.828 60.6536 31.6857 56.9146 31.883 56.5038C31.917 56.4327 32.0022 56.4028 32.0717 56.437C32.1427 56.4711 32.1725 56.5564 32.1384 56.626C31.9383 57.0412 30.0636 60.8143 25.8557 65.4219C25.8273 65.4532 25.789 65.4688 25.7507 65.4688Z" fill="#4F3333"/>
<path d="M13.5416 56.8366C13.5033 56.8366 13.465 56.821 13.4366 56.7897C13.3841 56.7314 13.3884 56.6419 13.4466 56.5893C17.1151 53.2768 24.14 49.1866 27.5943 47.6271C27.9292 47.4749 28.1307 47.5531 28.152 47.5631C28.2244 47.5944 28.257 47.6782 28.2258 47.7493C28.196 47.8204 28.1137 47.8531 28.0442 47.8261C28.0357 47.8233 27.9207 47.792 27.7107 47.8872C24.2734 49.4411 17.284 53.5085 13.6367 56.8025C13.6098 56.8267 13.5757 56.8395 13.5416 56.8395V56.8366Z" fill="#4F3333"/>
<path d="M40.9828 68.9719C40.97 68.9719 40.9558 68.9705 40.943 68.9662C38.2367 68.1644 35.4494 66.457 35.421 66.4399C35.3543 66.3987 35.3331 66.3105 35.3742 66.2437C35.4154 66.1769 35.5019 66.1556 35.5701 66.1968C35.597 66.2139 38.3545 67.9028 41.0225 68.6933C41.0977 68.716 41.1403 68.7942 41.119 68.8696C41.1006 68.9321 41.0438 68.9719 40.9828 68.9719Z" fill="#4F3333"/>
<path d="M45.6249 63.9719C45.5866 63.9719 45.5497 63.9563 45.5213 63.9264C40.5443 58.5795 39.2287 51.2437 39.2159 51.1698C39.2032 51.093 39.2543 51.0191 39.3309 51.0049C39.4075 50.9921 39.4813 51.0433 39.4955 51.12C39.5083 51.1925 40.8111 58.4487 45.73 63.7317C45.7839 63.7885 45.7796 63.8795 45.7229 63.9321C45.6959 63.9577 45.6604 63.9705 45.6264 63.9705L45.6249 63.9719Z" fill="#4F3333"/>
<path d="M56.8491 66.0859C56.8179 66.0859 56.7866 66.0759 56.7611 66.0546C55.0893 64.7168 52.4979 62.1692 50.6175 60.2684C50.5622 60.213 50.5622 60.122 50.6175 60.068C50.6728 60.0125 50.7637 60.0125 50.8176 60.068C52.6923 61.963 55.2766 64.5021 56.9371 65.8328C56.9981 65.8812 57.008 65.9707 56.9598 66.0333C56.9314 66.0688 56.8902 66.0873 56.8491 66.0873V66.0859Z" fill="#4F3333"/>
<path d="M68.3416 59.3414C68.3033 59.3414 68.265 59.3258 68.2366 59.2945C64.1891 54.8632 58.2626 51.6929 53.023 49.0685C52.9535 49.0329 52.9251 48.9476 52.9592 48.878C52.9946 48.8083 53.0798 48.7799 53.1493 48.814C58.4102 51.4498 64.3651 54.6343 68.4452 59.1026C68.4977 59.1609 68.4934 59.2505 68.4367 59.3031C68.4097 59.3272 68.3756 59.34 68.3416 59.34V59.3414Z" fill="#4F3333"/>
<path d="M37.5697 19.4126C37.5427 19.2321 37.2688 19.3089 37.2957 19.488C37.3781 20.0495 37.4618 20.6111 37.5441 21.1727C37.5711 21.3532 37.845 21.2764 37.818 21.0973C37.7357 20.5358 37.652 19.9742 37.5697 19.4126Z" fill="#8A4230"/>
<path d="M48.3242 20.6082C48.1908 21.0276 48.0588 21.4455 47.9254 21.8649C47.8701 22.0398 48.144 22.1151 48.1993 21.9403C48.3327 21.5209 48.4647 21.1029 48.5981 20.6835C48.6535 20.5087 48.3796 20.4333 48.3242 20.6082Z" fill="#8A4230"/>
<path d="M42.6929 21.2593C42.2572 20.911 42.2387 20.3239 42.6659 19.9571C42.805 19.8377 42.6035 19.6372 42.4658 19.7566C41.9336 20.2144 41.9421 21.0205 42.4928 21.4612C42.6347 21.5735 42.8362 21.3745 42.6929 21.2607V21.2593Z" fill="#8A4230"/>
<path d="M43.6323 21.1498C43.523 21.0559 43.4038 20.9749 43.2719 20.9123C43.2023 20.8796 43.1186 20.8924 43.0774 20.9635C43.0419 21.0246 43.059 21.1256 43.1285 21.1583C43.2378 21.2095 43.34 21.272 43.4308 21.3502C43.489 21.4 43.5741 21.4071 43.6309 21.3502C43.682 21.299 43.6891 21.1995 43.6309 21.1498H43.6323Z" fill="#8A4230"/>
<path d="M44.2184 22.4322C43.919 22.2986 43.4195 22.4876 43.1016 22.4976C42.5254 22.5161 41.9591 22.4549 41.3985 22.3398C41.2822 22.3156 41.0977 22.3839 41.1133 22.509C41.1701 23.0009 41.8158 23.4899 42.3139 23.6221C42.9171 23.7799 43.5316 23.5752 43.963 23.1899C44.1361 23.035 44.6144 22.6085 44.2184 22.4308V22.4322Z" fill="white"/>
<path d="M38.2253 24.3983C37.713 24.6485 37.4348 24.6059 37.3922 24.2718C37.3482 24.1055 37.3241 23.9363 37.3184 23.7643C37.3071 23.5795 37.3142 23.3946 37.3312 23.2098C37.3738 22.7364 37.4816 22.2715 37.5909 21.8095C37.6335 21.6318 37.3596 21.555 37.317 21.7341C37.1141 22.59 36.7777 23.7913 37.2091 24.6329C37.5256 25.2513 38.1529 25.021 38.4722 24.5405C38.5744 24.3884 38.3275 24.2448 38.2267 24.3969L38.2253 24.3983Z" fill="#F5E8DC"/>
<path d="M48.327 22.7008C48.2703 22.5274 47.9964 22.6013 48.0531 22.7762C48.1908 23.1956 48.2831 23.6221 48.3086 24.0642C48.32 24.2561 48.3214 24.4537 48.3029 24.6442L48.2561 24.9542C47.9666 25.5541 47.6274 25.5257 47.24 24.8703C47.2215 24.6897 46.9377 24.6883 46.9561 24.8703C47.0186 25.5015 47.6927 25.9564 48.249 25.4944C48.9444 24.9172 48.5598 23.4102 48.327 22.6994V22.7008Z" fill="#F5E8DC"/>
<path d="M47.1094 11.0872C46.0663 10.8029 45.2035 10.1233 44.1178 9.95981C43.8283 9.91573 43.5402 9.90294 43.2535 9.91431C43.2535 9.88304 43.2436 9.85176 43.218 9.8219C42.5752 9.09543 42.138 7.98653 43.3131 7.50032C43.7857 7.30555 44.3704 7.30981 44.7734 7.66239C45.1765 8.01496 45.2389 8.59074 44.8742 8.99876C44.7522 9.13524 44.9523 9.33711 45.0743 9.19921C45.9954 8.16708 44.8288 6.93307 43.6651 7.10652C43.0534 7.1975 42.4148 7.58988 42.28 8.2339C42.1423 8.88787 42.5354 9.46649 42.9413 9.93848C42.3381 10.0053 41.752 10.1915 41.2028 10.4787C41.041 10.564 41.1844 10.8085 41.3461 10.7247C42.3282 10.21 43.4394 10.0536 44.5194 10.3309C45.4021 10.5583 46.15 11.1213 47.0314 11.3616C47.2073 11.4099 47.2825 11.1355 47.1066 11.0872H47.1094Z" fill="#44221D"/>
<path d="M44.7095 8.7417C44.6357 8.38344 44.3675 8.0465 43.9843 8.00812C43.6338 7.97258 43.2861 8.21284 43.2293 8.56683C43.2009 8.74596 43.4748 8.82273 43.5032 8.64218C43.5401 8.40761 43.7615 8.24838 43.9985 8.29814C44.2468 8.35074 44.3873 8.58532 44.4356 8.81705C44.4725 8.99618 44.7464 8.92083 44.7095 8.7417Z" fill="#44221D"/>
<path d="M41.0423 12.7548C39.0711 13.632 37.5128 15.2641 36.7309 17.2743C36.6642 17.4449 36.9395 17.5188 37.0048 17.3497C37.6349 15.7275 38.7986 14.3684 40.2845 13.4685C40.9685 13.0548 41.7164 12.7434 42.4941 12.5586C43.5017 12.3184 45.6234 12.0283 45.6972 13.5723C45.7057 13.7543 45.9896 13.7557 45.981 13.5723C45.8703 11.2393 42.321 12.1847 41.0423 12.7534V12.7548Z" fill="#44221D"/>
<path d="M37.0133 14.1436C36.8161 14.4862 36.6429 14.8388 36.4911 15.2028C36.4201 15.3719 36.6954 15.4444 36.765 15.2781C36.9069 14.9369 37.0729 14.6071 37.2589 14.2858C37.3511 14.1266 37.1056 13.9844 37.0133 14.1422V14.1436Z" fill="#44221D"/>
<path d="M49.9945 17.3198C49.9661 16.727 49.7007 16.1981 49.5489 15.6323C49.502 15.456 49.2281 15.5299 49.275 15.7077C49.4112 16.2152 49.6496 16.6915 49.6965 17.2203C49.7532 17.8501 49.563 18.4515 49.3743 19.0443C49.3189 19.2192 49.5928 19.2945 49.6482 19.1197C49.8327 18.5396 50.0229 17.9354 49.9945 17.3198Z" fill="#44221D"/>
<path d="M39.3123 49.2789C39.2655 49.2789 39.2215 49.2561 39.1931 49.2149C39.1505 49.1495 39.1675 49.0614 39.2328 49.0173C40.8975 47.9169 42.0428 47.29 42.8773 46.8336C43.6025 46.437 44.0821 46.174 44.4894 45.8356C45.331 45.1333 45.3835 44.0941 45.3849 44.0827C45.3864 44.0372 45.4105 43.996 45.4474 43.9704C46.5033 43.2638 46.6395 42.8117 46.6409 42.8074C46.6622 42.7335 46.7388 42.688 46.8126 42.7065C46.8879 42.7264 46.9333 42.8003 46.9162 42.8757C46.9035 42.9297 46.7615 43.4202 45.6617 44.1694C45.6347 44.4395 45.4857 45.375 44.6697 46.056C44.2411 46.4128 43.7259 46.6957 43.0121 47.0852C42.1805 47.5402 41.0423 48.1629 39.3875 49.2576C39.3634 49.2732 39.3364 49.2803 39.3095 49.2803L39.3123 49.2789Z" fill="#8A4230"/>
<path d="M39.3549 42.7435C39.3052 42.7435 39.2556 42.7165 39.23 42.6696C39.1917 42.6014 39.2173 42.5147 39.2854 42.4763C41.2296 41.4058 44.5221 40.2855 44.5548 40.2741C44.63 40.2485 44.7095 40.2883 44.735 40.3637C44.7605 40.4376 44.7208 40.5186 44.6456 40.5442C44.613 40.5556 41.3446 41.6688 39.4216 42.7265C39.4003 42.7379 39.3762 42.7435 39.3535 42.7435H39.3549Z" fill="#8A4230"/>
<path d="M41.1602 43.9974C41.1134 43.9974 41.0665 43.9746 41.0396 43.932C40.997 43.8652 41.0169 43.7785 41.0836 43.7358C42.5397 42.8117 46.387 41.7384 46.5502 41.6929C46.6255 41.6715 46.7035 41.7156 46.7248 41.7924C46.7461 41.8677 46.7007 41.9459 46.6255 41.9672C46.5857 41.9786 42.656 43.0733 41.2354 43.9761C41.2113 43.9903 41.1858 43.9988 41.1602 43.9988V43.9974Z" fill="#8A4230"/>
<path d="M41.979 46.012C41.935 46.012 41.8924 45.9921 41.8641 45.9537C41.8172 45.8898 41.8314 45.8016 41.8953 45.7547C43.6707 44.451 45.4177 43.9719 45.4915 43.952C45.5667 43.9321 45.6447 43.9762 45.666 44.053C45.6859 44.1283 45.6419 44.2065 45.5653 44.2278C45.5482 44.2321 43.7941 44.7155 42.0627 45.985C42.0372 46.0035 42.0088 46.012 41.979 46.012Z" fill="#8A4230"/>
<path d="M35.3174 41.6461C35.2649 41.6461 35.2152 41.6176 35.1896 41.5665C35.1542 41.4954 35.184 41.4101 35.2535 41.376C35.4777 41.2651 35.6991 41.1485 35.9219 41.0305C36.7436 40.5983 37.5923 40.1519 38.5431 40.0012C38.8199 39.9571 39.0157 40.014 39.1222 40.169C39.2456 40.3467 39.2073 40.6068 39.1364 40.8272C40.1965 40.2685 41.4326 39.7865 41.4454 39.7808C41.5177 39.7524 41.6001 39.7894 41.6284 39.8619C41.6568 39.9344 41.6199 40.0168 41.5475 40.0453C41.5319 40.051 40.0077 40.6466 38.9079 41.275C38.8525 41.3063 38.783 41.2978 38.7376 41.2523C38.6922 41.2068 38.6822 41.1371 38.7135 41.0817C38.8383 40.8585 38.9803 40.4647 38.888 40.331C38.8355 40.2557 38.6766 40.2685 38.5857 40.2827C37.6803 40.4249 36.8529 40.8613 36.0525 41.2821C35.8283 41.4001 35.604 41.5181 35.3784 41.6304C35.3585 41.6404 35.3372 41.6447 35.3159 41.6447L35.3174 41.6461Z" fill="#8A4230"/>
<path d="M34.7839 43.5354C34.7399 43.5354 34.6959 43.5155 34.6689 43.4757C34.6235 43.4117 34.6377 43.3236 34.7016 43.2767C36.1974 42.1976 40.8338 40.041 41.0311 39.95C41.102 39.9173 41.1872 39.9486 41.2198 40.0196C41.2525 40.0907 41.2212 40.176 41.1503 40.2087C41.102 40.2315 36.3407 42.445 34.8676 43.5084C34.8421 43.5269 34.8137 43.5354 34.7853 43.5354H34.7839Z" fill="#8A4230"/>
<path d="M40.2022 40.5498C40.1682 40.5498 40.1341 40.537 40.1057 40.5129C39.4259 39.8873 39.0002 39.5447 38.9959 39.5419C38.9349 39.4921 38.925 39.404 38.9732 39.3414C39.0215 39.2803 39.1123 39.2703 39.1733 39.3187C39.1776 39.3215 39.6104 39.6698 40.2987 40.3025C40.3569 40.3551 40.3598 40.4461 40.3072 40.5029C40.2789 40.5328 40.2405 40.5484 40.2022 40.5484V40.5498Z" fill="#8A4230"/>
<path d="M36.9509 40.7744C36.9069 40.7744 36.8629 40.7545 36.8359 40.7161C36.7011 40.5299 36.4428 40.2541 36.44 40.2512C36.386 40.1944 36.3889 40.1048 36.4457 40.0508C36.5024 39.9967 36.5918 39.9996 36.6458 40.0565C36.6571 40.0678 36.9197 40.3479 37.0658 40.5498C37.1112 40.6137 37.0971 40.7019 37.0346 40.7488C37.0091 40.7673 36.9807 40.7758 36.9509 40.7758V40.7744Z" fill="#8A4230"/>
</g>
</svg>
