<svg width="115" height="84" viewBox="0 0 115 84" fill="none" xmlns="http://www.w3.org/2000/svg">
<path d="M106.378 6.52921H54.2326C52.8591 6.52921 51.7456 7.64269 51.7456 9.01624V27.0693C51.7456 28.4429 52.8591 29.5564 54.2326 29.5564H106.378C107.752 29.5564 108.865 28.4429 108.865 27.0693V9.01624C108.865 7.64269 107.752 6.52921 106.378 6.52921Z" fill="#DCDAE0"/>
<path d="M86.2011 16.3772C88.0267 16.3772 89.5067 14.8972 89.5067 13.0716C89.5067 11.246 88.0267 9.76602 86.2011 9.76602C84.3755 9.76602 82.8955 11.246 82.8955 13.0716C82.8955 14.8972 84.3755 16.3772 86.2011 16.3772Z" fill="#F3F3F5"/>
<path d="M86.2011 25.0789C88.0267 25.0789 89.5067 23.5989 89.5067 21.7733C89.5067 19.9477 88.0267 18.4677 86.2011 18.4677C84.3755 18.4677 82.8955 19.9477 82.8955 21.7733C82.8955 23.5989 84.3755 25.0789 86.2011 25.0789Z" fill="#F3F3F5"/>
<path d="M82.8975 21.7831C82.9014 23.6047 84.3795 25.0788 86.2011 25.0788C88.0227 25.0788 89.5008 23.6047 89.5047 21.7831H82.8955H82.8975Z" fill="#D9924E"/>
<path d="M88.2186 10.457C87.6591 10.0251 86.9603 9.76404 86.2007 9.76404V13.0696L88.2186 10.457Z" fill="#2C294C"/>
<path d="M88.8251 23.7949C89.255 23.2335 89.5102 22.5327 89.5063 21.7731L86.2007 21.7907L88.8251 23.7949Z" fill="#2C294C"/>
<path d="M89.3904 12.2157C89.2079 11.5326 88.8094 10.9025 88.2048 10.4412L86.2026 13.0695L89.3924 12.2137L89.3904 12.2157Z" fill="#D9924E"/>
<path d="M94.787 13.1775H93.4346V16.1847H94.787V13.1775Z" fill="#2C294C"/>
<g style="mix-blend-mode:multiply">
<path d="M96.1391 11.9585H94.7866V16.1867H96.1391V11.9585Z" fill="#C2C2ED"/>
</g>
<path d="M98.8461 13.1775H97.4937V16.1847H98.8461V13.1775Z" fill="#2C294C"/>
<g style="mix-blend-mode:multiply">
<path d="M100.199 11.9585H98.8462V16.1867H100.199V11.9585Z" fill="#C2C2ED"/>
</g>
<path d="M102.906 13.1775H101.553V16.1847H102.906V13.1775Z" fill="#2C294C"/>
<g style="mix-blend-mode:multiply">
<path d="M104.258 11.9585H102.906V16.1867H104.258V11.9585Z" fill="#C2C2ED"/>
</g>
<path d="M107.522 16.1847H91.228V16.3829H107.522V16.1847Z" fill="#2C294C"/>
<path d="M94.414 21.7928H93.0615V24.8001H94.414V21.7928Z" fill="#2C294C"/>
<g style="mix-blend-mode:multiply">
<path d="M95.7665 18.3734H94.4141V24.8001H95.7665V18.3734Z" fill="#C2C2ED"/>
</g>
<path d="M98.4736 21.7928H97.1211V24.8001H98.4736V21.7928Z" fill="#2C294C"/>
<g style="mix-blend-mode:multiply">
<path d="M99.8256 18.3734H98.4731V24.8001H99.8256V18.3734Z" fill="#C2C2ED"/>
</g>
<path d="M102.53 21.7928H101.178V24.8001H102.53V21.7928Z" fill="#2C294C"/>
<g style="mix-blend-mode:multiply">
<path d="M103.885 18.3734H102.533V24.8001H103.885V18.3734Z" fill="#C2C2ED"/>
</g>
<path d="M107.149 24.8H90.855V24.9983H107.149V24.8Z" fill="#2C294C"/>
<g style="mix-blend-mode:multiply" opacity="0.51">
<path d="M113.67 25.9817C113.715 26.0328 113.643 25.6009 113.6 25.4615C113.609 25.2692 113.617 24.9531 113.623 24.8059C113.627 24.7824 113.633 24.7608 113.639 24.7333C113.684 24.5174 113.727 24.3015 113.776 24.0875C114.184 22.2914 114.709 20.5365 114.75 18.6777C114.793 16.7697 114.379 14.8597 114.016 12.995C113.935 12.5847 113.857 12.1764 113.788 11.7642C113.762 11.6111 113.737 11.4599 113.713 11.3068C113.709 11.2558 113.706 11.1969 113.7 11.1243C113.643 10.3764 113.639 9.62853 113.592 8.88065C113.454 6.73909 112.934 4.78597 111.483 3.15477C108.879 0.224111 104.666 0.198592 101.135 0.917026C100.375 1.0721 99.6215 1.25858 98.8599 1.40776C98.6361 1.45094 98.4143 1.49217 98.1905 1.53142C97.6939 1.56872 97.2012 1.60994 96.7026 1.61583C95.831 1.62761 94.9595 1.57657 94.0939 1.4902C93.8485 1.46468 93.6051 1.4372 93.3597 1.40776C92.8631 1.33709 92.3665 1.25465 91.8698 1.17221C88.0912 0.544069 84.3381 -0.0565889 80.4947 0.004262C76.7356 0.06315 73.0826 0.78551 69.3805 1.35476C69.2549 1.37439 69.1273 1.39206 69.0017 1.41169C68.9114 1.42346 68.7151 1.44702 68.6719 1.45094C68.242 1.49413 67.8141 1.53731 67.3842 1.56479C66.4616 1.62172 65.5449 1.61387 64.6224 1.5432C64.6165 1.5432 64.4948 1.5275 64.3927 1.51572C64.2514 1.49217 64.0021 1.45094 63.9569 1.44113C63.5428 1.36654 63.1305 1.28017 62.7203 1.19576C61.8978 1.02695 61.0793 0.867953 60.247 0.750177C58.1565 0.455737 56.0954 0.422367 54.1207 1.25661C53.4179 1.55302 52.7996 1.96327 52.2657 2.45793C51.9673 2.58356 51.669 2.72881 51.3745 2.89959C47.7078 5.02152 47.6469 9.30464 47.2465 13.0264C46.8676 16.5577 46.3475 20.1067 46.1374 23.6537C45.9176 27.3519 46.9854 31.1501 50.3361 33.1582C53.2747 34.919 56.7903 34.599 60.0585 34.4753C61.7683 34.4106 63.4819 34.3988 65.1897 34.5166C65.6137 34.546 66.0376 34.6029 66.4616 34.6284C66.5048 34.6304 66.5362 34.6324 66.5637 34.6343C66.7561 34.6618 66.9484 34.6932 67.1408 34.7266C68.0379 34.8797 68.9251 35.0819 69.7986 35.341C71.7164 35.9122 73.4713 36.6542 75.5068 36.7386C77.4246 36.8191 79.3483 36.3185 81.2013 35.8906C82.0552 35.6924 82.9149 35.5157 83.7786 35.3704C84.026 35.3292 84.2733 35.29 84.5226 35.2527C84.5206 35.2527 84.6855 35.2311 84.7954 35.2154C84.9073 35.2016 85.0722 35.182 85.0683 35.184C85.3804 35.1506 85.6925 35.1172 86.0046 35.0878C87.8164 34.9229 89.64 34.8758 91.4596 34.9445C92.337 34.9779 93.2145 35.0367 94.0899 35.1251C94.4177 35.1584 94.7436 35.1957 95.0694 35.235C95.1676 35.2487 95.3344 35.2703 95.3737 35.2762C95.6799 35.3233 95.9842 35.3685 96.2904 35.4175C98.1846 35.7159 100.089 36.0476 102.006 36.1438C105.626 36.3244 109.291 35.4431 112.088 33.066C113.837 31.58 114.909 29.4031 114.165 27.1026C114.041 26.7178 113.825 26.3606 113.67 25.9857V25.9817Z" fill="#E6E1FF"/>
</g>
<path d="M33.9121 65.8882C33.9593 61.9054 34.0083 57.9207 34.0515 53.9379C34.0535 53.6847 33.6609 53.6827 33.657 53.9379C33.6138 57.4064 33.5745 60.8768 33.5333 64.3453C33.5137 66.0158 33.494 67.6863 33.4744 69.3567C33.4646 70.2557 33.4528 71.1548 33.443 72.0557C33.4391 72.413 33.4862 72.8586 33.4293 73.2119C33.5235 73.6104 33.3488 73.8774 32.9071 74.0128C32.7756 74.0579 32.6441 74.1011 32.5126 74.1463C32.3222 71.0291 32.4203 67.9041 32.438 64.7831C32.4557 61.4775 32.4301 58.1739 32.3536 54.8703C32.3477 54.619 31.9571 54.617 31.963 54.8703C32.0297 58.1739 32.0611 61.4795 32.0434 64.7831C32.0258 67.9944 31.9198 71.2097 32.1337 74.4172C32.1416 74.5369 32.2554 74.6507 32.385 74.6076C32.8659 74.4446 33.5412 74.372 33.7846 73.8832C34.0476 73.3533 33.8415 72.2599 33.8474 71.671C33.8709 69.7434 33.8925 67.8158 33.9161 65.8882H33.9121Z" fill="#D9924E"/>
<path d="M45.333 65.8882C45.3802 61.9054 45.4292 57.9207 45.4724 53.9379C45.4744 53.6847 45.0818 53.6827 45.0779 53.9379C45.0347 57.4064 44.9954 60.8768 44.9542 64.3453C44.9346 66.0158 44.9149 67.6863 44.8953 69.3567C44.8855 70.2557 44.8737 71.1548 44.8639 72.0557C44.86 72.413 44.9071 72.8586 44.8502 73.2119C44.9444 73.6104 44.7697 73.8774 44.328 74.0128C44.1965 74.0579 44.065 74.1011 43.9335 74.1463C43.7431 71.0291 43.8412 67.9041 43.8589 64.7831C43.8766 61.4775 43.851 58.1739 43.7745 54.8703C43.7686 54.619 43.378 54.617 43.3839 54.8703C43.4506 58.1739 43.482 61.4795 43.4643 64.7831C43.4467 67.9944 43.3407 71.2097 43.5546 74.4172C43.5625 74.5369 43.6763 74.6507 43.8059 74.6076C44.2868 74.4446 44.9621 74.372 45.2055 73.8832C45.4685 73.3533 45.2624 72.2599 45.2683 71.671C45.2918 69.7434 45.3134 67.8158 45.337 65.8882H45.333Z" fill="#D9924E"/>
<path d="M30.0746 57.1119C30.1296 58.0954 30.7361 58.6941 32.0002 58.6941C35.5688 58.6941 37.836 58.8688 41.4027 58.6764C42.2919 58.6293 46.31 58.6195 47.4701 58.4958C48.3201 58.4055 48.5929 58.3348 48.64 57.0589C48.6714 56.2051 48.6675 54.7819 48.5399 53.9516C48.4889 53.6179 48.4025 53.2823 48.1493 53.082C47.7744 52.7856 47.0599 52.8131 46.6398 52.766C46.1667 52.713 45.6917 52.6816 45.2186 52.6659C45.2147 52.234 45.2127 51.8611 45.2147 51.5981C45.303 50.1514 44.7573 49.6567 44.5159 49.4997C41.4027 47.4739 37.8714 47.2541 34.2478 47.8135C33.4273 47.9392 32.5989 48.0981 31.8059 48.4593C31.2484 48.7145 30.4397 49.0364 30.2022 49.9256C29.9176 50.9876 29.9921 55.6496 30.0746 57.1119Z" fill="#636375"/>
<path d="M76.3903 50.8208H85.2372C85.6784 50.8208 86.0361 50.4631 86.0361 50.0219V43.4676C86.0361 43.0264 85.6784 42.6687 85.2372 42.6687H76.3903C75.9491 42.6687 75.5914 43.0264 75.5914 43.4676V50.0219C75.5914 50.4631 75.9491 50.8208 76.3903 50.8208Z" fill="#9393AB"/>
<path d="M76.6788 49.6861H85.0526C85.4939 49.6861 85.8516 49.3284 85.8516 48.8872V43.7031C85.8516 43.2619 85.4939 42.9042 85.0526 42.9042H76.6788C76.2375 42.9042 75.8799 43.2619 75.8799 43.7031V48.8872C75.8799 49.3284 76.2375 49.6861 76.6788 49.6861Z" fill="#DADAEA"/>
<path d="M90.3154 50.9698H76.3157V49.9099H90.3154C90.4822 49.9099 90.6177 50.0453 90.6177 50.2122V50.6656C90.6177 50.8324 90.4822 50.9679 90.3154 50.9679V50.9698Z" fill="#9393AB"/>
<path d="M85.0529 49.686C85.4946 49.686 85.8518 49.3287 85.8518 48.8871V43.703C85.8518 43.2613 85.4946 42.9041 85.0529 42.9041H82.2125C82.1635 42.961 82.1144 43.0179 82.0692 43.0788C81.3901 44.0151 81.3685 45.2341 80.6128 46.1409C80.0926 46.7651 79.4232 47.2519 78.9521 47.9174C78.5615 48.469 78.4162 49.0618 78.373 49.684H85.0509L85.0529 49.686Z" fill="#B8B8C9"/>
<path d="M72.001 76.9749C72.0128 77.0436 73.4732 77.02 73.4713 76.9709C73.4438 76.441 73.3397 74.0089 73.275 73.3376C73.2651 73.2453 73.2023 73.2159 73.1395 73.2296C73.1199 73.1962 73.0865 73.1707 73.0433 73.1648C72.6684 73.1059 71.7792 72.8311 71.7242 73.4593C71.6752 74.005 71.9186 76.4508 72.003 76.9768L72.001 76.9749Z" fill="#DE614B"/>
<path d="M71.7574 75.9384C71.7574 75.9227 71.7613 75.9109 71.7652 75.8972C71.7495 75.7912 71.8065 75.6655 71.9458 75.6538C72.4346 75.6145 72.9253 75.591 73.418 75.6008C73.4357 75.6008 73.4514 75.6067 73.4671 75.6106C73.5437 75.6106 73.6163 75.6498 73.6398 75.746C73.7694 76.278 73.63 76.8531 73.8774 77.3576C74.0108 77.6324 74.2621 77.8444 74.2915 78.1683C74.3328 78.6315 73.7871 79.4128 73.4573 79.7956C73.0784 80.2333 72.625 79.6974 72.4326 79.4108C72.1853 79.0418 71.9026 78.6669 71.8281 78.2213C71.7044 77.493 71.779 76.6745 71.7613 75.9364L71.7574 75.9384Z" fill="#543237"/>
<path d="M73.0986 75.9324C72.8532 75.9284 72.6078 75.9324 72.3625 75.95C72.2368 75.9579 72.2388 76.1522 72.3644 76.1463C72.6098 76.1326 72.8552 76.1267 73.1005 76.1287C73.2262 76.1287 73.2242 75.9363 73.0986 75.9343V75.9324ZM73.0652 76.3838C72.8336 76.4211 72.602 76.4466 72.3684 76.4663C72.2447 76.4761 72.2447 76.6704 72.3703 76.6606C72.6216 76.6429 72.8709 76.6115 73.1182 76.5703C73.2419 76.5507 73.1869 76.3622 73.0632 76.3819L73.0652 76.3838ZM72.3134 77.2397C72.5843 77.2475 72.8493 77.2161 73.1084 77.1356C73.2262 77.1003 73.1948 76.9099 73.0731 76.9452C72.8297 77.0139 72.5843 77.0512 72.3291 77.0453C72.2035 77.0434 72.1858 77.2357 72.3114 77.2397H72.3134Z" fill="#2C294C"/>
<path d="M62.257 76.4429C62.2609 76.5116 63.7174 76.6352 63.7194 76.5862C63.7449 76.0562 63.8863 73.6261 63.8882 72.9508C63.8882 72.8586 63.8274 72.8232 63.7645 72.8291C63.7469 72.7938 63.7174 72.7663 63.6762 72.7545C63.3092 72.6583 62.4533 72.2952 62.3336 72.9155C62.2295 73.4553 62.2276 75.9109 62.259 76.4429H62.257Z" fill="#DE614B"/>
<path d="M59.0281 78.241C59.5973 78.2547 60.0272 78.2351 60.5886 78.1899C61.1225 78.1467 61.4935 77.9132 62.1001 77.8405C62.5712 77.7856 62.6144 78.0545 62.7223 78.0486C63.1581 78.025 63.5939 78.0015 64.0336 77.974C64.065 77.974 64.2573 77.9681 64.2377 77.6226C64.2161 77.0671 64.1788 76.5136 64.116 75.962C64.0669 75.6872 63.8196 75.7363 63.6449 75.7402C63.2366 75.748 62.8067 75.8285 62.3886 75.8344C61.894 75.8423 62.1393 75.7952 61.7526 76.0817C61.0872 76.5744 60.0743 77.0082 59.2774 77.2477C59.0242 77.3243 58.3685 77.4813 58.1919 77.7286C57.7345 78.3744 58.5589 78.2312 59.03 78.2429L59.0281 78.241Z" fill="#543237"/>
<path d="M61.2934 76.382C61.2365 76.4153 61.1816 76.4487 61.1227 76.4801C61.2444 76.6391 61.3739 76.7942 61.5172 76.9355C61.6056 77.0239 61.7528 76.8963 61.6644 76.806C61.5329 76.6705 61.4112 76.5292 61.2954 76.382H61.2934ZM60.7104 76.6921C60.8263 76.859 60.9539 77.018 61.0932 77.1652C61.1796 77.2555 61.3268 77.1279 61.2404 77.0356C61.1129 76.8982 60.999 76.753 60.891 76.6038C60.8322 76.6332 60.7693 76.6627 60.7104 76.6921ZM61.7115 76.1111C61.6585 76.1484 61.6036 76.1857 61.5486 76.223C61.6703 76.3525 61.7959 76.4801 61.9294 76.5979C62.0217 76.6803 62.1689 76.5547 62.0766 76.4683C61.951 76.3525 61.8313 76.2328 61.7135 76.1111H61.7115Z" fill="#2C294C"/>
<path d="M68.1417 42.3291C68.1417 42.3291 68.1417 42.3212 68.1417 42.3173C68.2123 41.8207 67.49 41.6381 67.3722 42.1406C67.331 42.3193 67.2898 42.4998 67.2505 42.6785C67.2544 42.6333 67.2564 42.5882 67.2603 42.543C67.2937 42.0955 66.5713 42.0444 66.483 42.4704C66.4575 42.5921 66.4359 42.7158 66.4104 42.8375C66.2141 42.6117 65.7901 42.6098 65.7351 42.9808C65.6998 43.2202 65.6664 43.4597 65.633 43.6992C65.4269 43.6168 65.1659 43.6835 65.1227 43.9662C65.0167 44.6532 64.9107 45.3422 64.8066 46.0292C64.8322 45.5071 64.8596 44.9849 64.8852 44.4628C64.8969 44.2312 64.6967 44.1016 64.4965 44.0957C64.5004 44.0427 64.5024 43.9917 64.5063 43.9387C64.5279 43.5814 64.0607 43.4715 63.837 43.6678C63.676 43.4048 63.1637 43.4146 63.1067 43.7836C63.0125 44.396 62.9261 45.0104 62.8496 45.6248C62.8555 45.4914 62.8614 45.3579 62.8673 45.2244C62.8928 44.7219 62.1155 44.7611 62.088 45.2578C61.5894 54.4286 60.9711 74.531 61.4186 75.059C61.8819 75.6028 63.1421 75.3692 63.7349 75.326C64.2197 75.2906 64.681 75.2848 64.9205 74.798C65.0952 74.4427 65.0932 73.9127 65.1502 73.5319C65.2463 72.8978 65.3406 72.2618 65.4328 71.6278C66.0963 67.0542 66.6557 62.4648 67.1092 57.8657C67.6117 52.7837 67.9846 47.6898 68.2359 42.5901C68.2418 42.4763 68.2045 42.3899 68.1456 42.331L68.1417 42.3291Z" fill="#DADAEA"/>
<path d="M66.589 42.3485C66.589 42.3485 66.589 42.3407 66.589 42.3368C66.5046 41.8421 67.223 41.6419 67.3525 42.1405C67.3997 42.3191 67.4428 42.4977 67.488 42.6744C67.4841 42.6292 67.4782 42.5841 67.4742 42.5389C67.4291 42.0914 68.1495 42.0227 68.2496 42.4467C68.279 42.5684 68.3046 42.6901 68.332 42.8118C68.5224 42.5821 68.9464 42.5684 69.0112 42.9374C69.0524 43.1749 69.0917 43.4144 69.1329 43.6539C69.3371 43.5656 69.6001 43.6264 69.6511 43.9071C69.7748 44.5922 69.8985 45.2772 70.0202 45.9623C69.9809 45.4402 69.9397 44.92 69.9004 44.3978C69.8828 44.1662 70.0791 44.0327 70.2793 44.021C70.2754 43.968 70.2695 43.9169 70.2655 43.8659C70.2341 43.5106 70.6993 43.3869 70.929 43.5773C71.0841 43.3104 71.5964 43.3065 71.6631 43.6735C71.7731 44.284 71.8751 44.8945 71.9674 45.5069C71.9576 45.3734 71.9497 45.2399 71.9399 45.1065C71.9026 44.6059 72.6799 44.6236 72.7192 45.1202C73.4553 54.2753 74.5958 74.3542 74.16 74.894C73.7124 75.4495 72.4464 75.2493 71.8516 75.2218C71.3648 75.1982 70.9035 75.2041 70.6522 74.7232C70.4677 74.3718 68.599 62.4392 68.0258 57.8518C67.3918 52.7855 66.8854 47.7015 66.5046 42.6096C66.4967 42.4958 66.5301 42.4094 66.589 42.3485Z" fill="#DADAEA"/>
<path d="M50.0888 67.7136C49.7728 67.166 49.0818 67.7902 48.7678 68.0022C48.7305 68.0277 48.7128 68.063 48.7089 68.1023C48.6461 68.118 48.6009 68.171 48.6323 68.2574C48.8561 68.8934 49.7846 71.1429 49.9828 71.6356C50.0005 71.6807 51.3372 71.0879 51.3176 71.0212C51.1723 70.5089 50.3656 68.1887 50.0908 67.7136H50.0888Z" fill="#DE614B"/>
<path d="M55.503 70.3126C55.238 70.1673 54.5785 70.3126 54.3174 70.3558C53.4969 70.4912 52.3957 70.5462 51.5811 70.3931C51.106 70.3047 51.3475 70.2399 50.8999 70.45C50.5211 70.6286 50.101 70.7444 49.7281 70.9172C49.5691 70.9918 49.3257 71.0546 49.4022 71.3235C49.5887 71.8456 49.7968 72.3619 50.0205 72.8683C50.156 73.1883 50.3307 73.1078 50.3582 73.096C50.7645 72.9272 51.1669 72.7584 51.5693 72.5876C51.6694 72.5464 51.5909 72.2853 52.0384 72.1283C52.6155 71.9261 53.0533 71.9752 53.5499 71.7789C54.074 71.5728 54.4686 71.402 54.975 71.1409C55.3931 70.925 56.1979 70.6914 55.503 70.3126Z" fill="#543237"/>
<path d="M42.4455 73.1391C42.3807 72.511 41.4955 72.7976 41.1225 72.8604C41.0793 72.8683 41.0479 72.8938 41.0263 72.9271C40.9635 72.9154 40.9007 72.9468 40.8928 73.0371C40.8359 73.7084 40.7652 76.1405 40.7437 76.6724C40.7417 76.7215 42.2021 76.7274 42.2139 76.6587C42.2904 76.1326 42.5044 73.6848 42.4475 73.1391H42.4455Z" fill="#DE614B"/>
<path d="M44.8202 59.6285C44.83 59.5166 44.8418 59.4047 44.8516 59.2909C44.883 58.9179 44.3413 58.7844 44.145 59.0278C43.9487 58.9807 43.7072 59.0632 43.6405 59.2909C43.615 59.3772 43.5914 59.4656 43.5679 59.5539C43.5404 59.23 43.1282 59.1417 42.9083 59.3301C42.9083 59.3203 42.9083 59.3085 42.9103 59.2987C42.9417 58.8433 42.2566 58.7766 42.133 59.1927C42.1035 59.2928 42.0741 59.3929 42.0446 59.4931C41.9033 59.3576 41.6462 59.3498 41.4852 59.4852C41.4852 59.4656 41.4872 59.4479 41.4891 59.4283C41.5107 59.0161 40.8708 58.8944 40.7334 59.2516C40.5214 59.2222 40.2702 59.3458 40.2446 59.6226C40.1622 60.5275 40.0424 61.9703 39.9207 63.6034C39.589 68.02 39.5085 73.6281 39.7421 74.0089C40.1151 74.6194 40.6843 74.5291 41.5421 74.5311C42.3489 74.5311 43.1616 74.7823 43.456 74.4329C43.8132 74.0089 43.933 70.9252 44.0194 70.0262C44.3393 66.6813 45.2697 63.3463 45.3267 59.9857C45.3326 59.6638 45.0519 59.5519 44.8222 59.6305L44.8202 59.6285Z" fill="#3F3E66"/>
<path d="M45.2831 61.1987C45.0829 59.5008 43.4046 59.6245 42.0855 59.9091C41.4829 60.0386 40.6015 60.1368 40.1697 60.6373C40.1658 60.6413 40.1638 60.6452 40.1599 60.6491C40.0774 61.5599 39.9989 62.4687 39.9224 63.3796C39.9498 63.3874 39.9773 63.3953 40.0068 63.4011C40.1461 63.4325 40.2953 63.4404 40.4524 63.4188C40.7978 63.3717 41.0864 63.1558 41.3671 62.9673C41.8951 62.612 42.4133 62.6749 43.012 62.7809C44.125 62.9791 45.4519 62.6219 45.2831 61.1968V61.1987Z" fill="#2C294C"/>
<path d="M44.3967 49.1953C44.2573 49.688 44.1219 50.1788 43.9904 50.6715C43.9962 50.3652 44.0041 50.059 44.01 49.7508C44.0218 49.2287 43.2798 49.2601 43.2189 49.7508C43.16 50.2318 43.1011 50.7127 43.0403 51.1956C43.0207 50.9247 43.001 50.6538 42.9814 50.3809C42.9461 49.902 42.3179 49.8745 42.206 50.2907C42.0431 50.3162 41.9077 50.4379 41.9155 50.6656C41.9234 50.9188 41.9332 51.17 41.9411 51.4233C41.8311 51.0287 41.7114 50.6381 41.5759 50.2475C41.4287 49.8215 40.8281 49.9 40.7986 50.3535C40.781 50.6185 40.7711 50.8835 40.7633 51.1485C40.6239 50.8815 40.4787 50.6185 40.3216 50.3574C40.1195 50.0237 39.5836 50.1611 39.5836 50.5576C39.5836 50.591 39.5836 50.6243 39.5855 50.6597C39.5168 50.6008 39.4462 50.5458 39.3716 50.4948C39.3323 50.4673 39.2911 50.4516 39.2479 50.4418C39.1969 50.01 38.4902 50.0355 38.4667 50.5144C38.4392 51.0582 38.5216 51.5881 38.6728 52.1083C39.0339 53.3548 39.7877 54.5345 40.357 55.6514C41.0538 57.0196 41.572 58.584 43.3171 58.7725C44.8128 58.9354 44.5635 57.0039 44.642 56.0185C44.8187 53.7788 44.9954 51.5391 45.172 49.2994C45.2074 48.8459 44.5145 48.7753 44.3967 49.1934V49.1953Z" fill="#2C294C"/>
<path d="M51.5179 67.8885C51.1803 66.3613 49.5786 59.4498 49.0721 57.903C48.9131 57.4162 48.4028 56.4072 48.0102 56.0578C47.2859 55.412 46.165 55.3198 45.2365 55.1785C44.9853 55.1412 40.3017 55.0999 40.0505 55.0725C40.1015 54.0988 39.1515 52.026 38.4801 51.3841C37.3397 50.2927 35.4022 52.291 33.9673 52.6404C33.7534 52.6914 33.616 52.8975 33.6081 53.1076C33.5708 53.1763 33.5512 53.2626 33.563 53.3686C33.7416 54.9311 33.932 56.5152 34.2755 58.0522C34.5503 59.279 35.1883 60.1368 36.4249 60.4862C37.8461 60.8886 42.936 60.5746 44.3611 60.4646C45.4446 63.2402 48.2575 70.1203 48.6206 70.2204C49.025 70.3323 49.3332 70.1262 49.6649 69.9633C50.4246 69.5884 50.1831 69.8004 50.9389 69.4235C52.0499 68.868 51.7692 69.0328 51.5179 67.8904V67.8885Z" fill="#3F3E66"/>
<path d="M38.4231 50.6498C38.4054 50.4712 38.2916 50.3573 38.1581 50.3043C38.1699 50.0806 38.1817 49.8588 38.1934 49.635C38.217 49.1855 37.5339 49.107 37.4181 49.531C37.4024 49.5859 37.3886 49.6409 37.3729 49.6958C37.3023 49.7587 37.2512 49.8529 37.2453 49.9785C37.2414 50.0629 37.2336 50.1453 37.2277 50.2298C37.2022 50.3201 37.1786 50.4123 37.1551 50.5026C37.1668 50.2886 37.1766 50.0766 37.1884 49.8627C37.2022 49.58 36.9156 49.4367 36.684 49.4858C36.6859 49.421 36.6898 49.3562 36.6918 49.2915C36.7075 48.8498 36.0146 48.7497 35.9145 49.1855C35.8163 49.6212 35.7221 50.059 35.6299 50.4947C35.6102 50.2886 35.5906 50.0845 35.567 49.8784C35.5199 49.4564 34.9212 49.315 34.7897 49.7724C34.7348 49.9648 34.6857 50.1571 34.6346 50.3495C34.6131 50.1925 34.5934 50.0354 34.5699 49.8804C34.5129 49.5015 33.8652 49.5035 33.8063 49.8804C33.7965 49.9412 33.7886 50.004 33.7808 50.0649C33.7101 49.7842 33.4392 49.688 33.2351 49.7802C33.0898 49.476 32.605 49.4838 32.5049 49.8136C32.285 49.7685 32.0239 49.8902 32.022 50.1807C32.0043 52.1652 32.0004 54.1753 32.4106 56.1264C32.6305 57.1766 33.0839 59.7519 34.6405 59.4477C35.3413 59.3103 36.2148 58.8961 36.8351 58.529C37.4573 58.162 37.8166 57.5986 38.0325 56.9214C38.6587 54.9624 38.6312 52.6677 38.4251 50.6479L38.4231 50.6498Z" fill="#2C294C"/>
<path d="M91.5129 27.4637C91.087 27.6718 90.7238 27.9093 90.3234 28.0545C90.4471 27.9623 90.5648 27.8602 90.661 27.7346C90.7925 27.5638 91.0968 27.1339 91.0301 26.8964C91.0104 26.8257 90.9182 26.8002 90.8652 26.8532C90.6414 27.079 90.5001 27.3656 90.2626 27.5893C90.1291 27.7169 89.9877 27.8268 89.8346 27.9191C89.9917 27.7738 90.1526 27.5933 90.1409 27.3891C90.135 27.3027 90.0368 27.2596 89.972 27.3204C89.7208 27.554 89.3125 27.9112 88.9278 28.0153C89.0004 27.9152 89.0907 27.6737 88.9454 27.5893C88.8041 27.5069 88.6098 27.7444 88.5077 27.8072C88.4076 27.8681 88.1583 27.978 88.1426 27.9917C88.0405 28.0447 86.8706 29.2402 86.7744 29.3049C86.0658 29.5876 86.6351 29.2755 86.1679 29.8173C86.0403 29.9645 86.2876 30.1392 86.4132 29.9939C86.48 29.9174 86.5467 29.833 86.6154 29.7486C86.5879 29.833 86.6468 29.9213 86.7234 29.9448C86.7018 29.9959 86.6763 30.045 86.6566 30.098C86.6076 30.2412 86.7705 30.359 86.8902 30.2727C86.8843 30.3904 87.0453 30.5004 87.1395 30.4002C87.4948 30.0234 87.8383 29.5719 88.2486 29.2559C88.7629 28.8613 89.2929 28.9065 89.8955 28.8397C90.6728 28.7533 91.2381 28.3038 91.6975 27.6934C91.7897 27.5717 91.6445 27.3989 91.509 27.4657L91.5129 27.4637Z" fill="#DE614B"/>
<path d="M45.8921 41.7892C45.5977 39.5299 43.4385 38.5975 41.7189 37.4413C41.3067 37.1645 40.9181 37.5021 40.871 37.8869C40.4705 37.8358 40.0642 37.8182 39.6598 37.826C39.652 37.4747 39.3791 37.139 38.9512 37.2882C37.3377 37.8555 35.4807 38.4287 34.1361 39.5259C32.7739 40.6389 31.9475 42.5646 31.2644 44.1447C30.7226 45.3951 29.7392 47.3639 30.1533 48.7596C30.5734 50.1788 32.3891 51.1033 33.6788 51.5253C33.9968 51.6294 38.4055 51.6255 40.0289 51.5646C41.4952 51.5096 43.1499 51.5371 44.5573 51.0621C45.5506 50.7264 45.9314 50.116 45.9216 49.2425C45.9216 49.2326 45.9255 49.2228 45.9275 49.213C46.2121 46.7829 46.2082 44.2193 45.8921 41.7892Z" fill="#3F3E66"/>
<path d="M50.8484 28.5493C51.1645 28.6926 51.4746 28.8497 51.7808 29.0106C51.7278 29.0656 51.6788 29.1225 51.6336 29.1814C51.1448 28.9262 50.6384 28.7201 50.1045 28.565C50.0142 28.5395 49.9239 28.6023 49.9357 28.7025C49.9494 28.8104 50.4009 29.0754 50.6364 29.1873C50.9112 29.3169 52.2932 30.367 52.5699 30.5103C52.833 30.6477 53.0371 30.7675 53.3139 30.8578C53.6594 30.9716 55.0472 32.1925 55.3514 32.3849C55.4554 32.4497 56.4526 31.8235 56.4232 31.7548C56.4369 31.7332 54.8077 30.0961 54.8057 30.0667C54.7822 29.5426 54.417 29.099 54.1265 28.6867C53.9165 28.3884 53.6986 28.092 53.467 27.8093C53.363 27.6837 53.2982 27.5718 53.1294 27.5738C53.0587 27.5738 53.0037 27.613 52.992 27.6857C52.9507 27.9448 53.1176 28.1391 53.255 28.3491C53.3041 28.4237 53.359 28.4905 53.4101 28.5611C53.3904 28.5454 53.3708 28.5297 53.3531 28.512C52.6327 27.9114 51.8888 27.3716 50.978 27.1125C50.8229 27.0673 50.7444 27.2734 50.8877 27.3461C51.4864 27.6464 52.0439 28.0017 52.5621 28.4119C52.5542 28.408 52.5464 28.4061 52.5385 28.4021C52.5248 28.3962 52.513 28.3962 52.4993 28.3943C51.7985 27.9703 50.9819 27.405 50.181 27.3618C50.0574 27.3559 49.9769 27.5424 50.0947 27.5875C50.5776 27.772 50.9309 27.9801 51.347 28.1725C51.6493 28.3118 51.9516 28.463 52.2362 28.6396C52.2029 28.6632 52.1695 28.6867 52.1342 28.7103C51.4982 28.3354 50.7601 27.8977 50.0319 27.8839C49.9298 27.8819 49.8179 28.0351 49.9219 28.0881C50.1634 28.2078 50.5501 28.4178 50.8465 28.5513L50.8484 28.5493Z" fill="#DE614B"/>
<path d="M38.5132 46.1195C38.6231 46.3491 38.9627 46.1489 38.8547 45.9193C38.8528 45.9153 38.8488 45.9114 38.8469 45.9055C38.9058 45.8506 38.9313 45.7661 38.8685 45.6798C38.8528 45.6562 38.8351 45.6327 38.8194 45.6111C38.839 45.564 38.8371 45.507 38.8017 45.4482C38.6781 45.242 38.5524 45.0359 38.4288 44.8298C38.3071 44.2763 38.0715 43.285 37.7437 42.6902C37.6475 42.2152 37.569 41.7362 37.4925 41.2553C37.5827 40.9727 37.6907 40.6939 37.7516 40.4819C37.9164 39.893 38.0853 39.3061 38.256 38.7192C38.2678 38.676 38.2619 38.6368 38.2462 38.6014C38.3306 38.3718 38.4052 38.1421 38.468 37.9105C38.5151 37.7986 38.5662 37.6867 38.6231 37.5689C38.6545 37.5061 38.6486 37.4472 38.6251 37.3982C38.1304 37.5709 37.6181 37.7456 37.1097 37.938C36.4207 39.206 35.6826 40.4859 36.1577 41.9286C36.4285 42.7472 36.6641 43.6854 37.0783 44.4431C37.4434 45.1086 38.1854 45.4344 38.5112 46.1195H38.5132Z" fill="#2C294C"/>
<path d="M42.6903 38.7193C42.653 38.4857 42.3213 38.5662 42.3135 38.7821C42.2448 38.6741 42.0916 38.6545 42.0092 38.731C42.0092 38.7271 42.0072 38.7232 42.0053 38.7193C41.9935 38.6349 41.9837 38.5505 41.968 38.466C41.9523 38.3738 41.8816 38.3306 41.8051 38.3267C41.7952 38.2776 41.7894 38.2285 41.7776 38.1795C41.7324 37.9635 41.3732 38.0087 41.3909 38.2325C41.4576 39.0804 41.5244 39.9284 41.5931 40.7784C41.6068 41.4419 41.6284 42.1073 41.6598 42.7708C41.6618 42.8198 41.6814 42.8571 41.7049 42.8866C41.6775 43.0181 41.6539 43.1496 41.6362 43.2831C41.5931 43.4362 41.5459 43.5873 41.4929 43.7365C41.175 44.1998 40.8844 44.6768 40.6194 45.1714C40.378 45.4796 40.1267 45.7662 39.8971 45.9919C39.7283 46.1568 39.9422 46.3943 40.1366 46.3021C40.592 46.0881 41.0964 45.933 41.4184 45.5306C41.9111 44.9123 42.2605 44.0683 42.6452 43.3773C43.4323 41.9699 42.9337 40.2425 42.6884 38.7212L42.6903 38.7193Z" fill="#2C294C"/>
<path d="M17.3393 48.4456C17.3315 48.4063 17.2844 48.371 17.2451 48.373C16.3009 48.4358 15.3627 48.5359 14.4263 48.6674C14.3733 48.6753 14.3537 48.7126 14.3557 48.7538C14.3478 48.7656 14.3419 48.7813 14.34 48.797C14.3086 49.1012 14.0828 49.7647 14.4028 49.9669C14.76 50.1907 15.5138 49.9296 15.8828 49.857C16.2028 49.7941 16.5208 49.7333 16.8407 49.6685C16.9978 49.6371 17.2216 49.6234 17.3295 49.4801C17.5199 49.2288 17.3904 48.7283 17.3393 48.4456ZM17.09 49.3407C16.9055 49.5213 16.5581 49.5233 16.3088 49.5723C16.0222 49.6292 15.7356 49.6901 15.4471 49.7411C15.2822 49.7706 15.0957 49.8295 14.9289 49.8216C14.7934 49.8157 14.5166 49.802 14.4499 49.6489C14.3851 49.4977 14.495 49.062 14.5265 48.85C15.0878 48.7714 15.6512 48.7027 16.2146 48.6497C16.3736 48.634 16.9055 48.5045 17.0547 48.581C17.3001 48.7067 17.2216 49.2092 17.0881 49.3387L17.09 49.3407Z" fill="#585866"/>
<path d="M42.0353 37.6494C42.0177 37.6749 42 37.7043 41.9882 37.7396L41.9843 37.7495C41.892 37.6062 41.684 37.5551 41.5524 37.6552C41.5524 37.6513 41.5524 37.6474 41.5524 37.6415C41.5662 37.4609 41.4268 37.3647 41.2796 37.3569C41.0597 37.4217 40.8968 37.6435 40.8674 37.8849C40.4669 37.8339 40.0606 37.8162 39.6562 37.8241C39.6484 37.4727 39.3755 37.137 38.9476 37.2862C38.4549 37.4589 38.8338 37.987 38.3175 38.1754C37.5108 39.6672 37.2575 40.633 37.5755 42.0169C37.923 43.5283 38.3548 45.1733 38.7592 46.7417C39.0144 46.51 39.3638 46.3628 39.8094 46.3628C39.9978 46.3628 40.1686 46.3903 40.3236 46.4374C40.4336 46.2019 40.5356 45.9781 40.6122 45.8053C40.9891 44.9652 41.366 44.127 41.682 43.2633C42.2827 41.6302 41.6624 40.8116 41.4602 38.6583C41.1559 38.4659 42.3278 37.8398 42.0294 37.6474L42.0353 37.6494Z" fill="white"/>
<path d="M43.1106 34.5283C42.5924 34.0612 42.0663 33.6038 41.5285 33.1602C41.4814 33.1209 41.4303 33.0934 41.3813 33.0699C41.0711 32.8893 40.5882 32.9541 40.4469 33.4016C39.9248 35.0544 39.0375 36.5345 38.3367 38.1303C38.0227 38.8448 41.0574 39.3905 41.2124 39.1177C41.8013 38.0754 42.7082 36.348 43.2186 35.2644C43.3304 35.025 43.3206 34.7168 43.1126 34.5283H43.1106Z" fill="#A04B40"/>
<path d="M44.9875 31.0146C44.2809 29.725 42.4691 29.3972 41.5013 30.3021C40.9066 30.6829 40.4904 31.1874 40.2922 31.8999C39.929 33.2112 39.7288 34.5675 40.1057 36.1752C40.2843 36.9348 40.8654 37.934 41.6898 38.1322C42.9677 38.4404 43.8569 37.0821 44.3064 36.291C45.2486 34.6402 45.9494 32.7734 44.9856 31.0146H44.9875Z" fill="#DE614B"/>
<path d="M45.8827 32.0549C45.8827 32.0549 45.8866 32.0412 45.8866 32.0333C45.8827 30.9734 45.494 29.7249 44.6048 29.0673C44.2809 28.8298 43.8864 28.6787 43.484 28.663C42.8676 28.6414 42.5476 29.0948 41.9921 29.1792C41.5328 29.0124 41.1147 28.8338 40.7064 29.3186C40.4453 29.6287 40.408 30.0213 40.3413 30.4061C40.2687 30.8261 40.0528 31.2069 39.9703 31.6152C39.882 31.8488 39.8133 32.0883 39.7917 32.3867C39.7622 32.8185 39.5581 33.4761 39.8898 33.8216C39.9546 33.8903 40.0508 33.8903 40.1293 33.853C40.3629 33.745 40.3825 33.5546 40.4159 33.3053C40.4571 32.9932 40.4689 32.6752 40.5376 32.3749C40.6534 32.3886 40.7771 32.3847 40.8968 32.3611C41.1343 32.316 41.2698 32.208 41.419 32.0314C41.7154 31.68 41.9293 31.5563 42.4004 31.6741C42.4279 31.682 42.4534 31.6898 42.4789 31.6996C42.6497 31.9529 42.7871 32.2178 43.1189 32.3474C43.4526 32.477 43.8236 32.4338 44.171 32.475C44.4183 32.8322 44.4772 33.3132 44.8384 33.6312C44.8384 33.8176 44.8148 33.9963 44.7402 34.1886C44.6617 34.3889 44.5361 34.6558 44.5616 34.8757C44.5754 34.9895 44.6421 35.0621 44.7599 35.0739C45.0347 35.1014 45.1485 34.6676 45.2172 34.4733C45.284 34.2868 45.3645 34.0885 45.4253 33.8863C45.6962 33.9001 45.9553 33.7843 46.0849 33.5075C46.3204 33.0011 46.0731 32.526 45.8827 32.0549Z" fill="#543237"/>
<path d="M40.7961 34.8406C40.4918 34.8033 40.2151 34.6305 40.06 34.3636C40.0462 34.34 40.0364 34.3165 40.0246 34.291C40.1385 34.3165 40.2661 34.2595 40.2543 34.1104C40.2366 33.8768 40.1738 33.4076 39.8853 33.3409C39.5339 33.2604 39.4868 33.6609 39.5202 33.8984C39.6183 34.6109 40.0541 35.1546 40.7961 35.2312C41.0493 35.2567 41.0434 34.8681 40.7961 34.8386V34.8406Z" fill="#DE614B"/>
<path d="M44.9796 34.6324C44.744 34.5381 44.4515 34.7482 44.2788 34.8856C44.108 35.023 44.3396 35.3292 44.5163 35.1938C44.5713 35.1525 44.6262 35.1152 44.6851 35.0819C44.6616 35.1113 44.64 35.1408 44.6164 35.1682C44.5693 35.2252 44.5202 35.2782 44.4672 35.3292C44.2121 35.5765 43.8999 35.71 43.5427 35.6904C43.2895 35.6766 43.2914 36.0673 43.5427 36.0849C44.1649 36.1281 44.7852 35.7316 45.0875 35.1918C45.1916 35.0073 45.2112 34.7246 44.9796 34.6324Z" fill="#DE614B"/>
<path d="M41.7049 34.0966C41.6853 34.2262 41.6009 34.3204 41.5184 34.3067C41.436 34.2929 41.385 34.1791 41.4046 34.0495C41.4242 33.92 41.5086 33.8258 41.5911 33.8395C41.6735 33.8532 41.7246 33.9671 41.7049 34.0966Z" fill="#2C294C"/>
<path d="M44.055 34.5224C44.0354 34.6519 43.951 34.7461 43.8685 34.7324C43.7861 34.7187 43.7351 34.6048 43.7547 34.4753C43.7743 34.3457 43.8587 34.2515 43.9412 34.2652C44.0236 34.279 44.0746 34.3928 44.055 34.5224Z" fill="#2C294C"/>
<path d="M42.2827 33.2367C42 33.0149 41.7291 32.9443 41.366 32.9659C41.156 32.9776 40.9538 32.9659 40.9243 33.2112C40.9184 33.2564 40.9656 33.2897 41.0048 33.2917C41.2659 33.3054 41.4838 33.3211 41.7389 33.3702C41.9549 33.4114 42.1394 33.4664 42.3003 33.3977C42.3514 33.3761 42.3632 33.3015 42.2827 33.2367Z" fill="#543237"/>
<path d="M43.4152 33.4036C43.7548 33.2858 44.0336 33.3074 44.3692 33.4487C44.5636 33.5292 44.7598 33.5842 44.7068 33.8236C44.697 33.8668 44.6421 33.8845 44.6048 33.8727C44.3535 33.8001 44.1435 33.7431 43.8863 33.7059C43.6685 33.6744 43.4761 33.6666 43.3465 33.5488C43.3053 33.5115 43.3191 33.4369 43.4172 33.4036H43.4152Z" fill="#543237"/>
<path d="M43.0597 36.0438C42.459 35.9693 42.0841 35.8475 41.6621 35.7101C41.5659 35.6787 41.5227 35.7906 41.5875 35.8633C41.9153 36.2225 42.5886 36.3579 43.044 36.1911C43.1323 36.1597 43.1617 36.0576 43.0597 36.0438Z" fill="white"/>
<path d="M42.9712 34.8993C42.9281 35.0956 42.773 35.2271 42.5688 35.2232C42.4412 35.2212 42.4412 35.4195 42.5688 35.4195C42.8535 35.4215 43.1008 35.233 43.1597 34.9504C43.1852 34.8267 42.9968 34.7737 42.9712 34.8974V34.8993Z" fill="#A04B40"/>
<path d="M43.666 36.0379C43.2753 35.8141 42.9888 35.4392 42.5039 35.4392C42.5 35.4392 42.4961 35.4411 42.4921 35.4411C42.4882 35.4392 42.4862 35.4353 42.4804 35.4313C42.0387 35.2291 41.6225 35.451 41.173 35.4922C41.1083 35.4981 41.0631 35.5491 41.0788 35.6158C41.1691 36.0006 42.0308 36.1439 42.3901 35.9044C42.6158 36.2715 43.4599 36.5011 43.7033 36.189C43.7445 36.1341 43.7249 36.0693 43.6679 36.0359L43.666 36.0379Z" fill="#543237"/>
<path d="M41.4636 38.6349C41.4577 38.5662 41.4047 38.5269 41.3379 38.5387C40.9983 38.5976 40.6587 38.6839 40.3408 38.8214C40.1916 38.8861 40.0659 38.9705 39.9953 39.102C40.0149 38.9293 40.0012 38.7605 39.9187 38.6231C39.8206 38.4621 39.6361 38.3365 39.4987 38.2089C39.2788 38.0028 39.0884 37.7928 38.9255 37.5376C38.4995 36.8722 38.1874 38.3424 38.0952 38.6152C38.0539 38.735 38.2443 38.786 38.2856 38.6682C38.3032 38.6152 38.3209 38.5583 38.3366 38.4975C38.3229 38.5642 38.3111 38.6309 38.3013 38.6977C38.2934 38.7526 38.3268 38.7939 38.368 38.8115C38.3366 38.945 38.5133 38.9902 38.5564 38.8724C38.582 38.8056 38.6055 38.7409 38.631 38.6741C38.6173 38.8253 38.6153 38.9725 38.635 39.1119C38.6487 39.208 38.8097 39.2041 38.8254 39.1119L38.8862 38.7782C38.9019 38.8743 38.9196 38.9725 38.9412 39.0687C38.9647 39.1766 39.1414 39.155 39.1355 39.0432C39.1316 38.9745 39.1257 38.9058 39.1198 38.8371C39.1885 38.9568 39.2611 39.0726 39.3436 39.1865C39.3848 39.2453 39.4712 39.2395 39.5104 39.1943C39.5399 39.2277 39.5713 39.2591 39.6047 39.2885C39.6105 39.3003 39.6164 39.3121 39.6223 39.3239C39.6439 39.371 39.695 39.3808 39.7381 39.3651C39.7126 39.475 39.6773 39.5869 39.642 39.6988C39.6027 39.8205 39.7931 39.8715 39.8324 39.7518C39.8736 39.6262 39.9246 39.475 39.9619 39.318C39.9972 39.3769 40.0915 39.3926 40.1248 39.3297C40.1484 39.3631 40.1876 39.3827 40.2308 39.371C40.3015 39.3494 40.3722 39.3219 40.4389 39.2944C40.4664 39.314 40.4998 39.3199 40.5351 39.2944C40.5429 39.2885 40.5508 39.2826 40.5606 39.2767C40.5861 39.3376 40.696 39.3513 40.7432 39.2885C40.7608 39.265 40.7805 39.2434 40.7981 39.2198C40.802 39.2552 40.806 39.2925 40.8119 39.3297C40.8079 39.3415 40.806 39.3513 40.802 39.3631C40.7863 39.4043 40.802 39.4377 40.8256 39.4593C40.8315 39.5103 40.8374 39.5614 40.8413 39.6124C40.8531 39.738 41.0454 39.742 41.0396 39.6124C41.0396 39.583 41.0376 39.5535 41.0356 39.5241C41.0847 39.5457 41.1456 39.5319 41.1652 39.4632C41.177 39.424 41.1887 39.3847 41.2005 39.3455C41.2005 39.4181 41.2005 39.4887 41.2064 39.5614C41.2103 39.6674 41.3752 39.7007 41.4007 39.5869C41.4714 39.2709 41.493 38.9568 41.4675 38.6329L41.4636 38.6349Z" fill="white"/>
<path d="M44.214 36.1025C43.6291 36.5756 42.7261 37.5139 42.0116 37.3863C40.4786 37.1115 40.6807 35.3252 39.8504 34.7815C39.6836 34.6716 39.6502 34.8836 39.6561 34.9503C39.6679 35.9239 39.3283 37.0133 39.7837 37.9281C40.1763 38.7191 40.8751 38.7957 41.6642 38.9076C42.2923 38.9959 43.1874 39.4101 43.7311 38.8644C44.3024 38.2893 44.4201 37.033 44.534 36.2694C44.5556 36.1281 44.4947 35.8748 44.214 36.1025Z" fill="#543237"/>
<path d="M40.0092 39.0725C39.9621 39.0607 39.8601 39.1176 39.8542 39.1215C39.6932 39.204 39.4439 39.3335 39.3144 39.4572C39.2398 39.5279 39.2476 39.5514 39.2888 39.6398C39.2928 39.6456 39.5519 40.0166 39.6598 40.1697C39.4125 40.7959 39.173 41.4299 39.0435 42.0915C38.9041 42.8099 38.9198 43.5381 38.9257 44.2664C38.9316 45.0143 38.8649 45.7307 38.7687 46.4708C38.7608 46.5375 38.753 46.6062 38.7451 46.6729C38.8668 47.148 38.9866 47.6151 39.1024 48.0705C39.1299 48.1785 39.4125 48.2904 39.5735 47.9999C39.705 47.7624 40.0446 47.0518 40.3292 46.4394C40.2782 45.7504 40.1859 45.0594 40.1447 44.3979C40.0564 43.0042 40.0112 41.6105 40.076 40.2149C40.1997 40.1324 40.3312 40.0166 40.4116 39.9519C40.498 39.8812 40.5589 39.8596 40.5549 39.73C40.551 39.6299 40.2958 39.3296 40.2154 39.2432C40.1035 39.1215 40.0838 39.0941 40.0112 39.0744L40.0092 39.0725Z" fill="#636375"/>
<path d="M42.7846 48.9323C42.4391 48.5064 42.0289 48.1334 41.5146 47.9253C40.8943 47.6741 40.4153 47.6466 40.2681 47.6603C39.2552 47.7663 37.9793 48.367 37.3924 48.6281C37.2884 48.6752 37.2746 48.7694 37.31 48.8499C37.2923 48.9323 37.3159 49.0207 37.3983 49.0579C37.9597 49.2955 38.6644 49.4093 39.3593 49.3838C39.8363 49.3661 40.3525 48.5751 40.6686 48.9048C40.8786 49.1659 41.1593 49.6409 41.3968 49.8785C41.4557 49.9373 41.5676 49.8942 41.5656 49.8078C41.5558 49.4741 41.1573 48.7537 41.1514 48.7223C41.4635 48.9951 41.7266 49.3249 42.0524 49.584C42.129 49.6449 42.2389 49.5899 42.2173 49.4878C42.1192 48.9971 41.8718 48.6457 41.5381 48.3964C41.6324 48.4455 42.337 49.0756 42.7139 49.1011C42.8082 49.107 42.8317 48.9932 42.7846 48.9323Z" fill="#DE614B"/>
<path d="M38.0951 47.4463C38.0401 47.566 37.995 47.6877 37.9557 47.8094C37.8203 47.6249 37.4689 47.6131 37.4277 47.8879C37.4159 47.9684 37.4022 48.0489 37.3904 48.1294C37.2471 48.1019 37.0802 48.1706 37.0371 48.3335C36.9016 48.8498 36.778 49.3699 36.668 49.8921C36.5895 50.265 37.1607 50.424 37.2412 50.0491C37.255 49.9883 37.2687 49.9274 37.2824 49.8646C37.4198 49.9588 37.6338 49.949 37.7123 49.7959C37.7378 49.8764 37.7673 49.9588 37.7967 50.0393C37.9047 50.3318 38.3993 50.318 38.3797 49.9608C38.3365 49.2129 38.2933 48.4434 38.6054 47.7427C38.7566 47.4011 38.256 47.0988 38.0971 47.4463H38.0951Z" fill="#3F3E66"/>
<path d="M30.8599 49.9061C31.6588 50.8424 33.2389 51.3802 33.6767 51.5235C33.8416 51.5785 35.1155 51.6021 36.5269 51.606C36.7506 51.4352 36.9508 51.2311 37.1982 51.0348C37.685 50.6461 38.2091 50.5892 38.4937 50.0769C38.531 50.0415 38.5526 49.9964 38.5565 49.9493C38.637 49.7549 38.2346 49.7981 38.0913 49.8845C36.3855 49.9552 34.823 50.1063 33.1486 49.908C32.1868 49.7942 31.1916 49.7235 30.8618 49.9041L30.8599 49.9061Z" fill="#2C294C"/>
<path d="M38.7508 47.4523C38.6036 47.4385 38.2601 47.415 38.2502 47.4346C38.0716 47.8233 37.8243 49.4819 37.891 49.8176C37.9028 49.8745 38.5584 49.9943 38.5957 49.8176C38.6369 49.6233 38.7979 48.3454 38.8509 47.8959C38.8803 47.6466 38.9706 47.4739 38.7528 47.4523H38.7508Z" fill="white"/>
<path d="M37.0921 49.0816C36.8428 49.1228 36.9056 49.5095 37.1549 49.4683C37.4042 49.4271 37.3414 49.0404 37.0921 49.0816Z" fill="#2C294C"/>
<path d="M35.7127 49.1582C35.4634 49.1994 35.5262 49.5861 35.7755 49.5449C36.0248 49.5036 35.962 49.1169 35.7127 49.1582Z" fill="#2C294C"/>
<path d="M33.6728 39.9538C34.3363 41.3986 33.928 43.0396 33.5511 44.5137C33.4628 44.8592 33.3686 45.2008 33.2645 45.5423C33.2155 45.7013 33.1742 45.8996 33.1036 46.0507C32.9092 46.457 32.7797 46.4139 32.501 46.5807C32.0259 46.8634 31.7099 47.4208 31.384 47.8488C31.3075 47.9489 31.4783 48.047 31.5548 47.9489C31.808 47.6152 32.0456 47.2344 32.3498 46.9458C32.5854 46.722 32.9387 46.669 33.1428 46.4197C33.3548 46.1606 33.4137 45.7366 33.506 45.4265C33.6238 45.028 33.7298 44.6276 33.8279 44.2232C34.1793 42.7726 34.4992 41.2101 33.822 39.8105C33.7729 39.8596 33.7219 39.9067 33.6748 39.9578L33.6728 39.9538Z" fill="#2C294C"/>
<path d="M32.7465 46.9087C32.4402 47.2561 32.2224 47.6585 32.1065 48.108C32.0751 48.2297 32.2636 48.2808 32.295 48.1591C32.4069 47.7429 32.6012 47.3719 32.8858 47.0461C32.9683 46.9518 32.8309 46.8144 32.7484 46.9087H32.7465Z" fill="#2C294C"/>
<path d="M37.9975 47.2717C37.2182 47.203 36.4389 47.1324 35.6577 47.0637C34.9019 46.9969 34.0971 47.0009 33.3846 46.7221C33.2668 46.675 33.2178 46.8654 33.3336 46.9106C34.0049 47.1775 34.7606 47.1815 35.4712 47.2443C36.3133 47.3189 37.1554 47.3954 37.9975 47.47C38.1231 47.4818 38.1231 47.2835 37.9975 47.2717Z" fill="#2C294C"/>
<path d="M44.3016 42.4861L53.141 42.8519C53.5823 42.8702 53.9245 43.2419 53.9062 43.6832L53.6352 50.2318C53.6169 50.6731 53.2452 51.0153 52.8039 50.997L43.9645 50.6312C43.5233 50.6129 43.1811 50.2412 43.1993 49.7999L43.4704 43.2513C43.4886 42.81 43.8604 42.4678 44.3016 42.4861Z" fill="#9393AB"/>
<path d="M39.0494 49.9098H53.049V50.9697H39.0494C38.8825 50.9697 38.7471 50.8343 38.7471 50.6675V50.214C38.7471 50.0472 38.8825 49.9117 39.0494 49.9117V49.9098Z" fill="#9393AB"/>
<path d="M44.7772 57.9345C44.5377 58.435 44.3689 58.9591 44.2708 59.5068C44.2492 59.6305 44.4357 59.6815 44.4592 59.5578C44.5574 59.0279 44.7183 58.5214 44.946 58.0326C44.999 57.9208 44.8322 57.8206 44.7772 57.9345Z" fill="#2C294C"/>
<path d="M44.9933 58.8707C44.6674 59.3222 44.4064 59.809 44.2062 60.3272C44.161 60.445 44.3494 60.4941 44.3946 60.3783C44.5909 59.8738 44.8461 59.4066 45.1621 58.9669C45.2347 58.8649 45.0659 58.7687 44.9933 58.8688V58.8707Z" fill="#2C294C"/>
<path d="M42.4428 75.6204C42.4428 75.6047 42.4369 75.5929 42.435 75.5792C42.4507 75.4732 42.3898 75.3476 42.2505 75.3378C41.7597 75.3044 41.269 75.2867 40.7783 75.3024C40.7606 75.3024 40.7449 75.3103 40.7292 75.3142C40.6526 75.3142 40.582 75.3554 40.5584 75.4516C40.4348 75.9855 40.582 76.5587 40.3425 77.0671C40.2129 77.3439 39.9636 77.5598 39.9381 77.8837C39.9028 78.3469 40.4583 79.1203 40.794 79.4992C41.1767 79.931 41.6243 79.3912 41.8147 79.1007C42.0581 78.7297 42.3349 78.3489 42.4036 77.9053C42.5174 77.1751 42.4311 76.3585 42.4409 75.6185L42.4428 75.6204Z" fill="#543237"/>
<path d="M40.123 44.0093C39.7147 44.3253 39.2829 44.6394 38.9099 44.9966C38.9041 45.0948 38.9001 45.1929 38.8923 45.2911C39.2613 44.9044 39.7069 44.5726 40.1368 44.2448C40.1329 44.1663 40.1289 44.0878 40.123 44.0093ZM40.0484 41.6753C40.0484 41.5949 40.0484 41.5144 40.0484 41.4339C39.6775 41.7028 39.328 42.0012 39.0081 42.327C38.9924 42.437 38.9786 42.5449 38.9669 42.6548C39.2986 42.2937 39.6598 41.9659 40.0504 41.6734L40.0484 41.6753ZM40.0661 40.5329C39.7992 40.7194 39.5459 40.9176 39.3045 41.1336C39.2633 41.2592 39.226 41.3848 39.1887 41.5104C39.4615 41.2435 39.752 40.9981 40.0583 40.7743C40.0602 40.6939 40.0622 40.6134 40.0642 40.5309L40.0661 40.5329ZM40.2369 45.452C40.229 45.3794 40.2231 45.3068 40.2153 45.2341C39.9326 45.4461 39.6186 45.6267 39.3418 45.8387C39.1533 45.982 38.9728 46.1332 38.7922 46.2863C38.7843 46.3491 38.7784 46.4099 38.7706 46.4727C38.7666 46.5081 38.7627 46.5454 38.7568 46.5807C39.0513 46.3196 39.3536 46.0684 39.6716 45.8348C39.8541 45.7013 40.0484 45.5816 40.2349 45.452H40.2369ZM39.0258 47.7663C39.3614 47.521 39.701 47.2815 40.0445 47.0479C40.0995 46.934 40.1544 46.8163 40.2094 46.6985C39.7913 46.9772 39.381 47.2658 38.9747 47.5602C38.9924 47.6289 39.0101 47.6957 39.0258 47.7644V47.7663ZM40.0642 42.6372C39.6716 42.9336 39.2908 43.2457 38.9256 43.5774C38.9256 43.6677 38.9256 43.756 38.9256 43.8463C39.2927 43.5048 39.6735 43.1809 40.072 42.8767C40.07 42.7981 40.0661 42.7177 40.0642 42.6391V42.6372Z" fill="#2C294C"/>
<path d="M48.8835 45.935C48.1258 45.935 48.1238 47.1128 48.8835 47.1128C49.6431 47.1128 49.6431 45.935 48.8835 45.935Z" fill="white"/>
<path d="M41.1025 75.8264C41.3479 75.8205 41.5933 75.8245 41.8386 75.8343C41.9642 75.8402 41.9642 75.6458 41.8386 75.638C41.5933 75.6243 41.3479 75.6223 41.1025 75.6301C40.9769 75.6341 40.9769 75.8284 41.1025 75.8245V75.8264ZM41.0888 76.272C41.3381 76.3093 41.5874 76.3368 41.8386 76.3525C41.9642 76.3604 41.9623 76.166 41.8386 76.1582C41.605 76.1425 41.3734 76.1189 41.1418 76.0855C41.0181 76.0679 40.9651 76.2544 41.0907 76.274L41.0888 76.272ZM41.8838 76.7353C41.6286 76.7431 41.3852 76.7117 41.1398 76.645C41.0181 76.6116 40.9887 76.802 41.1064 76.8373C41.3656 76.9139 41.6325 76.9414 41.9034 76.9316C42.029 76.9257 42.0094 76.7333 41.8838 76.7372V76.7353Z" fill="#2C294C"/>
<path d="M70.3997 42.708C70.1838 42.7316 69.9679 42.7473 69.752 42.7571C69.8854 42.6197 70.0012 42.4607 70.0935 42.2782C70.4959 41.4714 70.066 40.433 69.8835 39.6204C69.8344 39.4005 69.7853 39.1826 69.7363 38.9628C69.7716 37.3394 69.8756 35.7259 70.0425 34.0908C70.2427 32.1318 70.81 29.311 69.5557 27.5915C69.4556 27.4541 69.3221 27.3442 69.1749 27.2715C69.485 27.1538 69.7853 27.0262 70.0542 26.8515C70.8983 26.2999 70.3664 25.0024 69.3692 25.2281C68.2621 25.4794 67.1923 25.6816 66.0558 25.55C65.5493 25.4912 65.2078 26.0054 65.1685 26.4373C65.1626 26.4981 65.1567 26.559 65.1528 26.6198C65.1116 27.0831 65.3687 27.3481 65.6985 27.4305C65.0488 28.4199 64.9487 29.7115 64.7602 30.85C64.7033 31.1935 64.827 31.4781 65.0311 31.6724C64.1556 35.0035 64.134 38.5054 65.0174 41.8934C65.037 41.968 65.0664 42.0328 65.0978 42.0936C64.8957 42.2271 64.6621 42.3292 64.3873 42.392C64.1949 42.4352 64.0516 42.5196 63.9476 42.6276C63.7846 42.6786 63.657 42.7728 63.5648 42.8945C63.3135 43.0417 63.1977 43.3558 63.1801 43.6287C63.1781 43.664 63.1761 43.6993 63.1722 43.7366C63.1526 44.0448 63.3567 44.3491 63.6119 44.5022C64.5325 45.0577 65.9419 45.1009 66.994 45.095C68.2346 45.0891 69.4654 44.8594 70.6353 44.457C71.5186 44.1528 71.4538 42.5962 70.3997 42.712V42.708Z" fill="#2C294C"/>
<path d="M51.9788 71.0074C51.9396 71.1272 52.126 71.1782 52.1673 71.0585C52.234 70.8681 52.2811 70.6737 52.3223 70.4775C52.2556 70.4735 52.1908 70.4696 52.1241 70.4637C52.0848 70.6463 52.0377 70.8288 51.9788 71.0074ZM52.5834 70.4873C52.552 70.6698 52.5147 70.8504 52.4597 71.029C52.4224 71.1507 52.6109 71.2018 52.6482 71.082C52.709 70.8877 52.7542 70.6895 52.7856 70.4892C52.7189 70.4892 52.6501 70.4892 52.5834 70.4892V70.4873ZM51.4626 70.8838C51.4155 71.0016 51.6039 71.0506 51.651 70.9368C51.7178 70.7719 51.7747 70.6031 51.8277 70.4323C51.7609 70.4225 51.6942 70.4146 51.6314 70.4029C51.5803 70.5638 51.5234 70.7248 51.4626 70.8838Z" fill="#2C294C"/>
<path d="M32.0573 50.5891C31.4939 50.0728 30.856 49.7332 30.0747 49.7921C29.4701 49.8373 28.9578 49.9766 28.3787 49.6822C27.9175 49.4466 27.4974 49.0639 27.0793 48.7596C26.9674 48.6791 26.83 48.8146 26.8575 48.9304C26.724 48.8676 26.5846 49.0148 26.6592 49.1443C26.6887 49.1934 26.722 49.2366 26.7515 49.2837C26.6808 49.321 26.6396 49.4172 26.6808 49.4957C26.5984 49.4231 26.5179 49.3544 26.4374 49.2916C26.2863 49.1718 26.0743 49.3877 26.2274 49.5095C26.8594 50.0159 27.5955 50.8756 28.4769 50.856C28.9087 50.8462 29.2994 50.6322 29.7077 50.5223C30.5301 50.3005 31.1406 50.6342 31.9101 50.8482C32.0553 50.8894 32.1652 50.6931 32.0534 50.591L32.0573 50.5891Z" fill="#DE614B"/>
<path d="M28.2474 50.163C28.2984 49.896 28.3475 49.6252 28.3809 49.3562C28.3927 49.2601 28.4437 49.1246 28.375 49.0382C28.2631 48.895 27.6016 48.8282 27.3798 48.785C27.2561 48.7615 27.2326 48.9558 27.3562 48.9794C27.3111 49.0559 27.2816 49.156 27.2581 49.2424C27.2502 49.2699 27.2542 49.2954 27.264 49.317C27.2601 49.3327 27.2561 49.3464 27.2522 49.3602C27.0461 49.7292 26.9499 50.2219 26.9264 50.6243C26.9264 50.6577 26.9381 50.6832 26.9578 50.7009C26.9342 50.693 26.9126 50.6871 26.8949 50.6832C26.7732 50.6498 26.6987 50.8343 26.8223 50.8677C27.0304 50.9227 27.2385 50.9757 27.4505 51.0149C27.582 51.0404 27.8568 51.1386 27.9863 51.0758C28.1296 51.0071 28.2081 50.3672 28.2474 50.163Z" fill="#DADAEA"/>
<path d="M24.877 74.1069C24.8417 73.4748 23.9446 73.7221 23.5677 73.7673C23.5226 73.7732 23.4912 73.7967 23.4696 73.8301C23.4068 73.8163 23.342 73.8438 23.3302 73.9341C23.2419 74.6015 23.0574 77.0297 23.0122 77.5577C23.0083 77.6068 24.4667 77.6794 24.4805 77.6127C24.5826 77.0905 24.9084 74.6545 24.877 74.1069Z" fill="#DE614B"/>
<path d="M27.7036 48.0098C27.0892 47.7841 25.2892 46.8125 24.3293 46.2628C22.0288 44.9437 20.003 41.4242 18.6604 39.1472C18.4484 38.788 18.0911 39.793 17.9537 40.0659C17.5886 39.9167 17.1588 40.3681 17.4296 40.7764C17.4336 40.7804 17.4355 40.7863 17.4395 40.7902C17.3492 40.8746 17.2981 40.9943 17.3197 41.1337C17.1627 41.2142 17.0488 41.3751 17.0763 41.5871C17.1156 41.8875 17.1882 42.1897 17.2805 42.494C17.1234 42.282 16.9664 42.072 16.8113 41.8619C16.4678 41.3948 15.767 41.9542 16.1066 42.4233C17.5533 44.4216 19.1413 46.465 20.9943 48.11C22.6785 49.6018 25.1518 50.228 27.1972 51.0504C27.3621 51.1172 27.4799 51.0308 27.6447 50.6127C27.8273 50.1534 28.0727 49.2033 28.0805 48.6714C28.0884 48.1767 27.9981 48.1198 27.7017 48.0098H27.7036Z" fill="#585866"/>
<path d="M32.1655 74.2305C31.8573 73.6789 31.1585 74.2933 30.8405 74.4994C30.8032 74.523 30.7836 74.5603 30.7796 74.5976C30.7168 74.6113 30.6717 74.6643 30.7011 74.7526C30.9151 75.3926 31.8121 77.6539 32.0025 78.1505C32.0202 78.1976 33.3648 77.6225 33.3452 77.5557C33.2078 77.0414 32.4324 74.7095 32.1655 74.2305Z" fill="#DE614B"/>
<path d="M37.2177 79.0791C37.041 78.8338 36.3834 78.6807 36.1282 78.608C35.3293 78.3764 34.3125 77.9524 33.6432 77.4636C33.2525 77.179 33.4999 77.2242 33.0052 77.2222C32.5851 77.2202 32.1572 77.1437 31.747 77.1398C31.5723 77.1398 31.323 77.0907 31.2778 77.3655C31.2209 77.9171 31.1856 78.4706 31.1699 79.0261C31.1542 79.3736 31.3465 79.3755 31.376 79.3755C31.8157 79.3991 32.2514 79.4187 32.6872 79.4383C32.7952 79.4423 32.8364 79.1753 33.3075 79.2263C33.914 79.2931 34.289 79.5247 34.8229 79.562C35.3843 79.6013 35.8142 79.617 36.3834 79.5993C36.8545 79.5836 37.6789 79.719 37.2157 79.0772L37.2177 79.0791Z" fill="#2C294C"/>
<path d="M27.0696 59.5439C26.7928 57.7125 24.9732 56.7055 23.5088 55.8261C21.2201 54.454 18.8449 53.2232 16.4384 52.073C15.9182 51.8237 15.4628 52.5873 15.9633 52.8503C15.6944 53.0152 15.6021 53.4529 15.9496 53.6355C16.456 53.9005 16.9409 54.1871 17.408 54.4972C17.3963 54.5914 17.408 54.6876 17.4669 54.7681C18.1127 55.6789 19.3239 56.2756 20.1797 56.994C20.215 57.0333 20.2484 57.0726 20.2837 57.1118C20.904 58.2366 21.4654 59.3888 22.2545 60.3958C22.2879 60.439 22.3252 60.4704 22.3625 60.494C22.4587 61.1005 22.5902 61.7267 22.8022 62.29C22.8944 66.7439 22.7472 71.1939 22.3488 75.6321C22.3311 75.8264 22.5038 76.0266 22.6844 76.0738C23.605 76.3113 24.5021 76.4369 25.4521 76.4644C25.7152 76.4722 25.8879 76.2485 25.9095 76.007C26.1568 73.2 26.4042 70.3911 26.6495 67.5841C26.8772 64.9989 27.4583 62.133 27.0676 59.5459L27.0696 59.5439Z" fill="#2C294C"/>
<path d="M20.6038 30.0961C20.0816 29.6328 19.5536 29.1774 19.0118 28.7377C18.9647 28.6984 18.9137 28.671 18.8646 28.6474C18.5545 28.4688 18.0716 28.5375 17.9322 28.985C17.4199 30.6398 16.5425 32.1257 15.8535 33.7275C15.5453 34.444 18.5839 34.97 18.7351 34.6972C19.3161 33.6509 20.2132 31.9177 20.7157 30.8322C20.8276 30.5927 20.8158 30.2845 20.6038 30.0961Z" fill="#DE614B"/>
<path d="M23.4086 28.239C23.3614 27.9976 23.1848 27.7718 23.0768 27.55C22.9316 27.2477 22.8079 26.9376 22.6921 26.6255C22.6038 25.9836 22.4389 25.3123 22.3603 24.8961C22.2975 24.5644 19.4159 23.9716 18.9134 24.584C18.9017 24.5938 18.8879 24.6037 18.8781 24.6135C17.5472 25.75 16.6894 27.6619 17.0251 29.4187C17.1331 29.9841 18.1283 31.1441 19.1038 31.3306C20.3385 31.5681 22.0895 32.0589 22.4133 31.3326C22.751 30.5769 22.853 29.9644 22.8452 28.873C23.1593 28.7886 23.4792 28.6021 23.4086 28.239Z" fill="#DE614B"/>
<path d="M22.3601 24.8964C22.3091 23.6617 17.7668 23.9875 16.6617 25.3125C16.1474 25.9289 15.7921 26.5177 16.2024 27.6307C16.5341 28.5337 17.1093 30.3141 17.3939 30.422C17.9592 30.636 18.3302 30.3396 18.499 30.2709C18.7287 30.1786 19.1291 29.6761 19.3431 29.0794C19.402 28.9125 19.5099 27.9998 19.5865 27.8506C19.7847 27.4678 20.4325 27.5679 20.7917 27.3324C21.1549 27.0948 20.7426 26.2626 21.0705 25.6737C21.569 24.7805 22.3719 25.2163 22.3601 24.8944V24.8964Z" fill="#2C294C"/>
<path d="M20.7451 22.9077C19.532 22.7526 18.0048 23.42 17.1431 24.1758C16.8055 24.4722 16.2873 25.6068 17.2059 25.5243C17.4003 25.5066 17.5259 25.3673 17.6319 25.2063C17.6888 25.2299 17.7555 25.2377 17.8301 25.2122C18.6016 24.9531 20.3859 24.1993 21.0101 25.0041C21.1632 25.2004 21.4989 25.1945 21.5656 24.9197C21.6009 24.7725 21.6127 24.6842 21.5931 24.5958C21.6088 24.5782 21.6166 24.5585 21.6284 24.537C21.6991 24.7274 22.3979 25.0866 22.3586 24.8962C22.1388 23.8028 21.915 23.0569 20.7431 22.9077H20.7451Z" fill="#2C294C"/>
<path d="M31.6001 70.2772C30.9092 68.4831 30.1593 66.7125 29.3683 64.9596C28.3181 62.6355 26.9323 59.8972 24.8084 58.4407C23.7778 57.734 21.1495 56.5268 19.4358 55.353C18.5427 54.7406 17.4003 54.1124 16.8251 53.1722C16.2598 52.2496 16.2578 51.0875 16.2264 50.0452C16.2029 49.2718 15.0094 49.2679 15.0212 50.0452C15.0212 50.1336 15.0251 50.2199 15.0271 50.3083C14.8995 49.9903 14.768 49.6723 14.6266 49.3543C14.3852 48.8105 13.71 49.0598 13.5333 49.4976C13.2114 49.3268 12.7736 49.3778 12.6814 49.8018C12.332 49.6232 11.8648 49.8332 11.7981 50.3318C11.7765 50.4987 11.7549 50.6655 11.7333 50.8304C11.6587 50.8206 11.5841 50.8304 11.5095 50.8441C11.2524 50.6341 10.8559 50.5791 10.6537 50.8755C10.4692 50.9344 10.3062 51.0699 10.2375 51.2779C10.1885 51.4271 10.1394 51.5901 10.0903 51.7569C10.0196 51.0856 8.93218 51.1229 8.89488 51.857C8.80655 53.5608 8.37863 55.6415 8.99696 57.2767C9.48376 58.5624 10.6556 59.587 11.8295 60.2446C13.3154 61.0769 15.0565 61.3556 16.6936 61.7463C18.4269 62.1604 21.5283 62.8808 22.6119 63.4089C23.8465 65.3934 30.1613 76.6508 30.3831 76.7607C30.4126 76.7745 30.442 76.7902 30.4714 76.8039C30.6069 76.8707 33.5905 75.848 33.5356 75.6497C32.8132 73.0803 32.2773 72.0477 31.5962 70.2772H31.6001Z" fill="#2C294C"/>
<path d="M19.546 33.5469C18.6195 33.007 17.9639 32.6282 17.0334 32.0943C17.0295 32.0923 17.0236 32.0904 17.0197 32.0884C16.7566 31.8882 16.6428 31.8744 16.4583 32.0825C14.8349 33.9041 12.6836 36.3342 11.3507 41.0001C10.8129 42.8806 8.59281 50.5792 8.51625 50.8521C8.10207 52.3243 6.87328 56.6231 9.37013 56.8901C12.1928 57.1924 15.8812 55.6357 17.6733 53.7906C18.7196 52.7169 18.8845 52.3439 19.1907 50.0846C19.4321 48.3101 19.4714 44.0132 20.4313 39.9009C20.5765 39.2786 20.3194 38.36 20.1996 37.4374C19.9562 35.5569 19.6049 33.5841 19.544 33.5488L19.546 33.5469Z" fill="#636375"/>
<path d="M36.7091 32.3652C36.8132 32.3122 36.7013 32.1591 36.5992 32.161C35.871 32.1748 35.1329 32.6125 34.4969 32.9874C34.4635 32.9639 34.4282 32.9384 34.3948 32.9168C34.6795 32.7401 34.9818 32.589 35.284 32.4496C35.7002 32.2592 36.0516 32.0511 36.5364 31.8646C36.6542 31.8195 36.5757 31.633 36.45 31.6389C35.6492 31.6821 34.8326 32.2474 34.1318 32.6714C34.12 32.6714 34.1063 32.6734 34.0925 32.6793C34.0847 32.6832 34.0768 32.6851 34.069 32.6891C34.5872 32.2788 35.1447 31.9235 35.7434 31.6232C35.8867 31.5506 35.8082 31.3445 35.6531 31.3896C34.7423 31.6487 33.9964 32.1885 33.2779 32.7892C33.2583 32.8049 33.2387 32.8206 33.221 32.8382C33.272 32.7676 33.327 32.6989 33.3761 32.6263C33.5135 32.4162 33.6803 32.2219 33.6391 31.9628C33.6273 31.8902 33.5724 31.8509 33.5017 31.8509C33.3309 31.8489 33.2662 31.9608 33.1641 32.0864C32.9325 32.3691 32.7146 32.6655 32.5045 32.9639C32.214 33.3761 31.8489 33.8197 31.8254 34.3438C31.8254 34.3733 31.8332 34.3968 31.847 34.4184C31.8175 34.4871 31.7881 34.5558 31.7645 34.6304C31.7429 34.6991 31.7802 34.758 31.8293 34.7874C31.792 34.8365 31.7567 34.8876 31.7194 34.9366C31.6232 35.0681 31.8018 35.2095 31.9137 35.0956C31.9372 35.0701 31.9628 35.0466 31.9863 35.021C32.004 35.0505 32.0315 35.0721 32.0629 35.0838C31.9824 35.1447 31.9078 35.2095 31.8254 35.2684C31.6938 35.3645 31.8371 35.5549 31.9726 35.4705C31.9942 35.4568 32.0158 35.445 32.0374 35.4313C32.0472 35.449 32.0609 35.4627 32.0766 35.4725C32.0982 35.4961 32.1277 35.5137 32.161 35.5177C32.1492 35.6079 32.2572 35.7081 32.3612 35.6433C32.6655 35.449 32.9737 35.2468 33.3192 35.1329C33.5979 35.0426 33.802 34.9209 34.0631 34.7855C34.3399 34.6422 35.7237 33.592 35.9966 33.4625C36.2321 33.3506 36.6817 33.0856 36.6974 32.9776C36.7111 32.8775 36.6188 32.8127 36.5285 32.8402C35.9946 32.9953 35.4882 33.2034 34.9994 33.4566C34.9543 33.3977 34.9072 33.3408 34.8522 33.2858C35.1584 33.1248 35.4686 32.9698 35.7846 32.8245C36.083 32.6891 36.4697 32.481 36.7091 32.3613V32.3652Z" fill="#DE614B"/>
<path d="M28.5594 79.2891C28.4023 79.03 27.7565 78.8278 27.5092 78.7356C26.7299 78.4431 25.7484 77.9426 25.1183 77.4047C24.7513 77.0906 24.9927 77.1554 24.5 77.1142C24.0819 77.0789 23.6599 76.9709 23.2516 76.9356C23.0769 76.9199 22.8335 76.8551 22.7648 77.126C22.6647 77.6717 22.5881 78.2213 22.5312 78.7729C22.488 79.1184 22.6804 79.1341 22.7098 79.138C23.1456 79.1949 23.5794 79.2479 24.0132 79.3009C24.1212 79.3147 24.182 79.0497 24.6492 79.136C25.2499 79.2479 25.6051 79.509 26.1332 79.5875C26.6887 79.67 27.1166 79.719 27.6859 79.7445C28.157 79.7661 28.9696 79.9644 28.5554 79.2891H28.5594Z" fill="#2C294C"/>
<path d="M22.2896 27.2222C22.3014 27.3517 22.2425 27.4636 22.1581 27.4715C22.0737 27.4793 21.9991 27.3792 21.9873 27.2477C21.9756 27.1182 22.0344 27.0063 22.1189 26.9984C22.2013 26.9906 22.2779 27.0907 22.2896 27.2222Z" fill="#2C294C"/>
<path d="M22.4825 26.441C22.4785 26.4292 22.4589 26.3193 22.3745 26.284C22.1782 26.2015 21.9858 26.2133 21.7915 26.3154C21.6502 26.39 21.4264 26.5117 21.446 26.6942C21.4519 26.7453 21.4873 26.7963 21.5363 26.8159C21.6521 26.8591 21.7915 26.8041 21.9073 26.7825C22.0545 26.7551 22.2175 26.7374 22.3568 26.6765C22.4491 26.6353 22.5237 26.549 22.4825 26.443V26.441Z" fill="#2C294C"/>
<path d="M21.889 29.5836C21.7281 29.5836 21.6947 29.7838 21.8125 29.8663C22.0794 30.0547 22.4328 30.1921 22.7665 30.1588C22.7959 29.9703 22.8175 29.7721 22.8293 29.5542C22.5132 29.5679 22.211 29.5836 21.889 29.5816V29.5836Z" fill="white"/>
<path d="M19.422 30.7947C19.263 30.6357 18.9548 30.7063 18.894 30.9655C18.8527 31.146 18.9764 31.2893 19.0471 31.4424C19.1629 31.6957 19.1629 31.9685 19.2571 32.2257C19.3513 32.4769 19.5319 32.6595 19.7439 32.8086C19.9579 32.3905 20.1699 31.9705 20.3603 31.5838C20.4309 31.5975 19.8852 31.2599 19.422 30.7966V30.7947Z" fill="#A04B40"/>
<path d="M32.4601 34.9563C32.2775 34.7541 32.0911 34.5539 31.8967 34.3635C31.828 34.2968 31.7495 34.1731 31.6396 34.1751C31.457 34.177 31.0055 34.6658 30.8367 34.8169C30.7425 34.9014 30.8838 35.0368 30.9781 34.9544C31.0114 35.0368 31.0743 35.1192 31.1292 35.1899C31.1469 35.2135 31.1685 35.2252 31.192 35.2311C31.2018 35.2429 31.2117 35.2547 31.2215 35.2665C31.3903 35.6532 31.7259 36.0281 32.0341 36.2891C32.0596 36.3107 32.0891 36.3147 32.1146 36.3107C32.095 36.3245 32.0773 36.3382 32.0616 36.35C31.9615 36.4266 32.0636 36.5973 32.1637 36.5188C32.3325 36.3873 32.4993 36.2519 32.6583 36.1066C32.7584 36.0163 33.0019 35.8573 33.0313 35.716C33.0627 35.5609 32.5995 35.1114 32.4601 34.9563Z" fill="#DADAEA"/>
<path d="M30.9422 34.75C30.8146 34.6166 30.526 34.6087 30.3867 34.7304C28.4493 36.4087 27.2735 37.2469 25.338 38.9272C25.0946 38.776 25.2438 38.8369 24.9984 38.6739C22.9099 37.2862 20.623 35.8787 19.7986 34.7716C19.4492 34.3025 17.7591 34.9542 18.244 35.2761C18.3853 35.3703 18.509 39.0744 19.0468 39.3217C19.1567 39.3728 19.2667 39.4238 19.3785 39.4729C19.1057 39.5789 18.9624 39.9538 19.196 40.2109C20.4052 41.53 23.2907 42.7372 25.2124 42.7097C27.5483 42.6764 30.5064 38.6327 32.1082 37.0683C32.699 36.4912 32.1808 36.1162 32.0846 35.9985C31.5311 35.3213 31.3858 35.2113 30.9422 34.7481V34.75Z" fill="#636375"/>
<path d="M31.2505 36.5541C30.9972 36.5541 30.9972 36.9467 31.2505 36.9467C31.5037 36.9467 31.5037 36.5541 31.2505 36.5541Z" fill="#2C294C"/>
<path d="M30.4536 37.4374C30.2004 37.4374 30.2004 37.83 30.4536 37.83C30.7068 37.83 30.7068 37.4374 30.4536 37.4374Z" fill="#2C294C"/>
<path d="M20.1894 41.0472C18.7742 39.9283 17.9674 39.2256 16.7916 38.3992C16.3853 38.1126 15.3096 37.3962 15.5451 38.5111C15.5569 38.57 15.5766 38.6269 15.5981 38.6858C15.343 40.1894 14.917 41.6518 14.4282 43.0965C13.8884 44.6963 13.2093 46.2784 12.8167 47.9234C12.6223 48.7399 12.589 49.5742 12.4653 50.4006C12.3357 51.2662 12.1179 52.1123 11.9333 52.9661C11.6605 54.2283 11.4681 55.5297 11.6978 56.7958C11.7626 56.784 11.8273 56.7703 11.8941 56.7566C11.6389 55.3334 11.9275 53.8789 12.2474 52.4695C12.4202 51.702 12.5968 50.9345 12.6969 50.1513C12.8049 49.2994 12.8697 48.4553 13.0974 47.623C13.8963 44.6983 15.1918 41.956 15.7454 38.9685C16.2695 39.787 17.5886 40.4348 18.1774 40.9491C18.8762 41.5576 19.2021 42.5822 19.8322 43.2457C19.9303 42.5253 20.0462 41.7872 20.1914 41.0472H20.1894Z" fill="#585866"/>
<path d="M16.2495 32.322C16.7815 32.8382 17.3919 33.3015 17.971 33.751C18.5147 34.175 19.1311 34.7384 19.8103 34.917C19.8162 34.917 19.824 34.9189 19.8299 34.9209C19.7082 34.2044 19.6042 33.6823 19.5629 33.5704C19.5472 33.5567 19.5315 33.541 19.5158 33.5272C18.607 32.9992 17.9573 32.6203 17.0386 32.0943C17.0347 32.0923 17.0288 32.0904 17.0249 32.0884C16.7618 31.8882 16.648 31.8744 16.4635 32.0825C16.3928 32.161 16.3221 32.2415 16.2495 32.322Z" fill="#DADAEA"/>
<path d="M26.9261 60.4723C26.5493 59.7244 25.9093 59.1964 25.2478 58.7076C24.4607 58.1266 23.6245 57.6143 22.7785 57.1236C21.0687 56.1323 19.31 55.2117 17.7651 53.9672C17.667 53.8886 17.5276 54.026 17.6258 54.1065C19.0509 55.2588 20.6565 56.1362 22.2406 57.0431C23.0415 57.5004 23.8384 57.9696 24.6001 58.4917C25.4225 59.0551 26.2941 59.6616 26.7534 60.5744C26.8103 60.6882 26.9811 60.5881 26.9242 60.4743L26.9261 60.4723Z" fill="#3F3E66"/>
<path d="M26.3964 69.7296C25.4208 67.6901 24.3903 65.6114 23.0241 63.8015C22.9495 63.7034 22.7787 63.7996 22.8552 63.8997C24.2136 65.7213 25.25 67.7843 26.2276 69.8278C26.2825 69.9416 26.4533 69.8415 26.3983 69.7276L26.3964 69.7296Z" fill="#3F3E66"/>
<path d="M23.24 61.1536C23.1242 61.6502 23.0359 62.1547 22.9731 62.6611C22.9574 62.7867 23.1537 62.7848 23.1694 62.6611C23.2341 62.1723 23.3225 61.6875 23.4285 61.2066C23.4559 61.0849 23.2695 61.0319 23.24 61.1555V61.1536Z" fill="#3F3E66"/>
<path d="M24.1129 61.7777C23.897 62.2057 23.7007 62.6414 23.524 63.087C23.4769 63.2048 23.6673 63.2539 23.7125 63.14C23.8852 62.7101 24.0756 62.2901 24.2817 61.8759C24.3387 61.764 24.1698 61.6659 24.1129 61.7777Z" fill="#3F3E66"/>
<path d="M33.4786 77.762C33.3942 77.8562 33.5316 77.9936 33.616 77.8994C33.7004 77.8072 33.775 77.709 33.8456 77.605C33.7907 77.5696 33.7357 77.5324 33.6847 77.4951C33.6219 77.5873 33.5551 77.6756 33.4786 77.7601V77.762ZM33.9163 78.0643C33.8319 78.1585 33.9693 78.2959 34.0537 78.2017C34.146 78.0996 34.2284 77.9897 34.303 77.8739C34.2441 77.8425 34.1872 77.8111 34.1322 77.7797C34.0655 77.8778 33.9948 77.974 33.9163 78.0623V78.0643ZM34.6132 78.0309C34.5503 78.1232 34.4836 78.2135 34.407 78.2959C34.3226 78.3902 34.46 78.5276 34.5444 78.4333C34.6347 78.3332 34.7152 78.2253 34.7898 78.1134C34.7309 78.0859 34.672 78.0584 34.6132 78.029V78.0309Z" fill="#636375"/>
<path d="M24.8949 77.6676C24.8046 77.7539 24.9303 77.9031 25.0225 77.8148C25.1128 77.7284 25.1953 77.6362 25.2718 77.54C25.2188 77.5007 25.1678 77.4595 25.1187 77.4183C25.05 77.5046 24.9754 77.5891 24.8949 77.6676ZM25.3091 78.0013C25.2188 78.0876 25.3444 78.2368 25.4367 78.1485C25.5368 78.0543 25.6271 77.9502 25.7095 77.8403C25.6546 77.805 25.5996 77.7696 25.5466 77.7343C25.474 77.8285 25.3955 77.9169 25.3091 78.0013ZM26.0059 78.0209C25.9353 78.1092 25.8626 78.1917 25.7802 78.2702C25.6899 78.3566 25.8155 78.5057 25.9078 78.4174C26.0059 78.3251 26.0943 78.2231 26.1767 78.1171C26.1198 78.0857 26.0629 78.0523 26.0059 78.0209Z" fill="#636375"/>
<path d="M66.3259 25.6048C66.1768 25.5047 66.7951 24.6743 66.5968 24.8157C65.5447 25.5675 64.4474 26.1308 63.2382 26.5607C62.4727 26.8336 61.6365 27.1202 61.081 27.7719C60.4999 28.455 60.4783 29.3108 60.6648 30.1607C60.9357 31.3954 61.768 32.5398 61.7739 33.8C61.7896 36.7896 61.6875 37.7651 61.6581 40.9765C61.6365 43.3144 61.3303 47.4542 61.4618 48.9598C63.0262 49.7626 64.9224 48.9264 65.5506 48.0117C66.271 46.9654 66.324 36.3302 66.5026 33.6175L66.324 25.6048H66.3259Z" fill="#D9924E"/>
<path d="M69.7065 48.2768C70.4917 49.7784 72.8374 49.6194 73.7973 49.6705C74.1879 49.6901 73.9602 43.8582 73.7973 39.9324C73.6913 37.3982 73.9013 34.389 74.5177 31.9354C74.606 31.584 75.1772 31.9825 75.2401 31.6292C75.6425 29.3266 75.2361 27.2989 73.232 26.447C72.4605 26.1192 70.3072 25.3085 69.367 24.8335C68.3462 24.3192 69.0058 25.0631 69.2511 25.6677C69.2511 25.6677 69.3414 30.8322 69.3297 36.1046C69.3179 41.648 69.2138 47.3326 69.7085 48.2768H69.7065Z" fill="#D9924E"/>
<path d="M56.5013 31.1462C56.3914 30.9087 56.1244 30.5279 55.8771 30.3983C55.6023 30.257 55.1331 30.7556 54.9525 30.9519C54.7916 31.1266 54.6345 31.3032 54.4775 31.4799C54.3754 31.5937 54.2204 31.7253 54.1929 31.8882C54.1497 32.1492 54.4009 32.3671 54.6306 32.532C54.6522 32.6223 54.7366 32.691 54.8426 32.6812C54.8465 32.6832 54.8505 32.6871 54.8524 32.6891C54.9879 32.7872 55.1174 32.6714 55.1312 32.5399C55.2116 32.4829 55.2843 32.4162 55.3549 32.3338C55.3824 32.3024 55.3942 32.267 55.3981 32.2337C55.5022 32.1453 55.5983 32.0531 55.6886 31.9451C55.7318 31.8941 55.7397 31.8273 55.7279 31.7665C55.8673 31.6153 55.9968 31.4583 56.0891 31.2679C56.1224 31.3091 56.1558 31.3503 56.1892 31.3857C56.3501 31.5643 56.5877 31.3366 56.4993 31.1462H56.5013Z" fill="#DADAEA"/>
<path d="M85.8452 29.458C85.8884 29.4345 85.9335 29.407 85.9787 29.3795C86.0022 29.5895 86.0729 29.7819 86.1534 29.9704C86.122 30.0234 86.1063 30.0881 86.1298 30.1509C86.1789 30.2825 86.2397 30.4022 86.3084 30.52C86.3025 30.5533 86.3006 30.5906 86.3163 30.6299C86.3555 30.732 86.4007 30.8183 86.4576 30.8988C86.4262 31.0284 86.5106 31.1815 86.6716 31.1324C86.6755 31.1324 86.6794 31.1305 86.6834 31.1285C86.7795 31.1736 86.8836 31.1363 86.9326 31.0578C87.2035 30.9793 87.5137 30.8576 87.5608 30.5965C87.5902 30.4336 87.4862 30.2569 87.4293 30.1176C87.339 29.8977 87.2506 29.6798 87.1564 29.462C87.0524 29.2186 86.7776 28.5904 86.4714 28.6316C86.1946 28.6689 85.8157 28.9379 85.6332 29.1263C85.486 29.2774 85.6332 29.5699 85.8452 29.4561V29.458Z" fill="#DADAEA"/>
<path d="M62.6516 30.6811C62.5594 30.8754 62.4671 31.0677 62.3749 31.2621C62.5123 30.6791 62.6379 30.0922 62.7478 29.5013C62.8244 29.095 62.2276 28.7633 62.0255 29.1971C62.0078 29.2344 61.9921 29.2717 61.9744 29.309C61.8586 29.0557 61.4071 29.0027 61.2638 29.2815C61.1519 29.4994 61.042 29.7192 60.9321 29.9391C61.1971 29.2972 61.4837 28.6632 61.7899 28.0389C62.0117 27.5875 61.3345 27.189 61.1127 27.6424C60.1862 29.5229 59.4285 31.4819 58.8867 33.5077C58.6139 34.5304 58.3862 35.5688 58.2272 36.617C58.1408 37.1842 58.0368 37.8654 58.4804 38.3208C59.4815 39.3494 60.8477 38.0106 61.3247 37.143C62.3513 35.2743 62.9245 33.0542 63.372 30.9873C63.4604 30.5751 62.8538 30.2571 62.6516 30.683V30.6811Z" fill="#D9924E"/>
<path d="M79.7411 32.8442C79.1248 31.9825 78.4534 31.158 77.7487 30.3689C76.6397 29.1284 74.983 27.5325 73.8523 26.7827C73.8072 26.869 74.027 27.1419 73.9995 27.2322C73.9485 27.401 73.9132 27.5776 73.8798 27.7523C74.0231 27.8721 74.1683 27.9899 74.3116 28.1116C74.1664 28.0036 74.0192 27.8956 73.8739 27.7877C73.8602 27.8662 73.8464 27.9427 73.8307 28.0193C73.7031 28.7161 73.6835 29.411 73.7051 30.1196C73.7188 30.5319 73.603 30.8597 73.4087 31.109C74.5413 32.4379 75.7995 33.7452 77.2168 34.7149C78.0353 35.2743 79.8589 35.8514 80.2868 34.4813C80.4772 33.8747 80.0768 33.3133 79.7431 32.8462L79.7411 32.8442Z" fill="#D9924E"/>
<path d="M59.6406 35.2331C59.8408 35.1742 60.0096 34.9701 59.9311 34.7483C59.6053 33.8198 57.4794 31.8726 56.6432 30.9206C56.494 30.7518 56.2408 30.791 56.0877 30.9206C55.5989 31.3289 54.9943 31.8431 54.5645 32.3496C54.4271 32.5125 54.3819 32.6794 54.7254 33.0641C56.1819 34.7012 57.0083 37.0822 58.4844 38.3169C58.93 38.6899 59.2205 38.0283 58.9477 37.6024C58.8672 37.4768 58.7808 37.3511 58.7004 37.2255C58.9457 37.2255 59.1891 37.0312 59.091 36.7426C59.0714 36.6837 59.0498 36.6268 59.0282 36.5679C59.2578 36.5797 59.5091 36.3893 59.4738 36.1518C59.7289 36.14 59.9488 35.8377 59.8114 35.5531C59.7584 35.4432 59.7015 35.3352 59.6426 35.2272L59.6406 35.2331Z" fill="#D9924E"/>
<path d="M79.8297 34.1359C79.7021 34.2164 79.5745 34.2949 79.4489 34.3753C79.0249 34.6502 79.0151 35.3725 79.5765 35.2174C81.4314 34.7051 84.6703 32.2946 86.6725 31.4074C87.1436 31.1993 87.173 31.0266 87.1141 30.8224C86.9316 30.1845 86.5939 29.4661 86.3191 28.8909C86.2328 28.7103 86.0188 28.569 85.8127 28.6612C84.6585 29.1814 79.6471 31.4192 78.966 32.1298C78.8031 32.2986 79.6059 34.0358 79.8297 34.1359Z" fill="#D9924E"/>
<path d="M66.5046 33.6L66.326 25.5873C66.2161 25.5127 66.5302 25.0318 66.6165 24.8512C66.6087 24.8355 66.5969 24.8198 66.5871 24.806C66.1062 25.1495 65.6154 25.4499 65.111 25.7208C64.8813 26.3803 64.632 27.0575 64.5398 27.7288C64.4868 28.1234 64.579 28.4728 64.6948 28.8457C64.8676 29.3993 64.8911 29.9293 64.9225 30.5025C65.0089 32.0826 65.692 33.5175 66.4458 34.8837C66.4654 34.3616 66.485 33.9219 66.5066 33.598L66.5046 33.6Z" fill="#B7743D"/>
<path d="M70.8936 28.398C70.9977 28.0211 71.0801 27.6678 71.0134 27.2752C70.8995 26.6078 70.6286 25.9365 70.3774 25.2848C70.1732 25.1847 69.973 25.0787 69.7748 24.9668C69.6217 24.8961 69.4803 24.8313 69.3606 24.7705C69.1447 24.6625 69.0073 24.6115 68.9229 24.6017C69.0504 24.8156 69.2448 25.1278 69.1564 25.1906V25.4183C69.1898 25.4811 69.2193 25.5439 69.2448 25.6047C69.2448 25.6047 69.3233 34.6499 69.3272 34.7108C70.2007 33.5075 70.6816 31.6427 70.7189 30.0606C70.7327 29.4855 70.7405 28.9555 70.8936 28.396V28.398Z" fill="#B7743D"/>
<path d="M68.2931 20.8388C67.6159 20.7308 66.9387 20.6327 66.2595 20.5542C66.1986 20.5463 66.1437 20.5503 66.0907 20.5581C65.7413 20.5738 65.3899 20.8898 65.5253 21.3374C66.0259 22.9902 66.018 24.0089 66.3458 25.7108C66.4931 26.4724 69.357 25.9797 69.3275 25.6696C69.2176 24.4879 68.984 22.5662 68.7897 21.3923C68.7465 21.1332 68.5679 20.882 68.2931 20.8388Z" fill="#DE614B"/>
<path d="M67.225 24.5389C67.4782 24.2857 67.8433 24.1797 68.0769 23.9029C68.34 23.5908 68.3615 22.8586 67.7844 22.9783C67.7157 22.9921 67.6706 23.0333 67.6451 23.0843C67.3958 23.1393 67.0876 23.3886 66.8933 23.5613C66.856 23.5358 66.8108 23.5201 66.7676 23.526C66.5341 23.5554 66.2789 23.7027 66.0708 23.9009C66.1395 24.3465 66.2043 24.7921 66.273 25.2396C66.379 25.2377 66.485 25.2141 66.5831 25.1651C66.8678 25.0276 67.013 24.7548 67.227 24.5389H67.225Z" fill="#A04B40"/>
<path d="M68.4425 16.2868C67.9832 15.7941 67.2235 16.3693 66.6013 16.3595C65.8671 16.3477 65.2763 15.8452 64.8876 16.4498C64.4028 16.964 63.9513 17.4999 63.9356 18.238C63.9062 19.5983 63.9925 21.838 64.6364 23.0217C65.1467 23.956 65.8102 24.2544 66.3088 24.2073C67.1411 24.1268 68.0676 23.2337 68.4072 22.6251C68.6015 22.2777 68.9882 21.889 69.0765 21.5691C69.5849 19.7377 69.8087 17.7571 68.4425 16.2868Z" fill="#DE614B"/>
<path d="M68.5524 16.0178C68.1637 15.7842 67.7083 15.6782 67.2451 15.6507C67.1921 15.639 67.141 15.6291 67.0939 15.6193C66.774 15.5585 66.4462 15.5506 66.1282 15.4682C65.82 15.3877 65.5334 15.2385 65.2115 15.2071C64.7678 15.1639 64.3517 15.3367 64.0651 15.6782C63.6509 16.1709 63.4507 17.0601 63.9866 17.6922C64.0671 17.7864 64.1534 17.9101 64.2634 17.9925C64.8483 18.5932 65.7316 18.2673 66.5129 18.179C68.254 17.9807 67.1881 19.3803 67.9694 19.9064C68.0459 19.9574 68.2069 20.0124 68.2835 20.0772C68.9136 20.6052 68.7585 22.099 68.8822 22.1402C69.0549 22.1991 69.3434 21.2392 69.4141 21.0351C69.8813 19.6963 69.8911 18.5893 69.846 18.0553C69.7714 17.174 69.3591 16.5046 68.5504 16.0178H68.5524Z" fill="#636375"/>
<path d="M66.6305 20.2773C66.6403 20.4069 66.5794 20.5188 66.497 20.5247C66.4146 20.5306 66.338 20.4305 66.3282 20.2989C66.3184 20.1694 66.3792 20.0575 66.4617 20.0516C66.5441 20.0457 66.6207 20.1458 66.6305 20.2773Z" fill="#2C294C"/>
<path d="M67.3175 21.2138C66.8798 21.5867 66.446 21.8753 65.7687 21.9558C65.2662 22.0146 64.695 21.9087 64.2651 21.6122C64.2318 21.5907 64.1984 21.5769 64.167 21.5671C64.275 22.1206 64.4261 22.631 64.6401 23.0236C65.1504 23.958 65.8139 24.2563 66.3125 24.2092C66.8327 24.1582 67.3882 23.7911 67.8161 23.375C68.1596 23.0746 68.244 22.6487 68.3009 22.2738C68.3657 21.8576 68.4639 21.2511 68.0772 20.9448C67.7984 20.725 67.5491 21.0194 67.3195 21.2157L67.3175 21.2138Z" fill="#636375"/>
<path d="M64.7423 20.3088C64.7521 20.4384 64.6913 20.5503 64.6088 20.5562C64.5264 20.5621 64.4498 20.4619 64.44 20.3304C64.4302 20.2009 64.491 20.089 64.5735 20.0831C64.6559 20.0772 64.7325 20.1773 64.7423 20.3088Z" fill="#2C294C"/>
<path d="M66.585 22.0657C66.0432 22.2463 65.5132 22.26 64.891 22.1619C64.6966 22.1305 64.8949 22.3916 65.0048 22.4701C65.5054 22.8332 66.2886 22.8214 66.6812 22.154C66.7106 22.103 66.6439 22.0461 66.585 22.0657Z" fill="#BA3D2D"/>
<path d="M66.5855 22.0657C66.0515 22.2424 65.5314 22.2581 64.9229 22.1658C65.0622 22.5368 65.4784 22.4779 65.8395 22.4524C66.1399 22.4308 66.4991 22.3543 66.5874 22.0657C66.5874 22.0657 66.5874 22.0657 66.5855 22.0657Z" fill="white"/>
<path d="M67.3569 19.4176C67.2764 19.3313 66.8288 19.3627 66.5953 19.3843C66.4402 19.398 65.9789 19.4235 65.9298 19.5492C65.8768 19.6866 66.0044 19.7749 66.1242 19.7749C66.5462 19.7749 66.9702 19.7219 67.3687 19.6944C67.4217 19.6905 67.4491 19.6395 67.4472 19.5963C67.4472 19.5963 67.4256 19.4942 67.3549 19.4176H67.3569Z" fill="#636375"/>
<path d="M64.7992 19.5787C64.7462 19.455 64.2829 19.4452 64.1279 19.4374C64.0749 19.4334 64.0121 19.4315 63.9453 19.4295C63.9492 19.5512 63.9551 19.6768 63.963 19.8025C64.1789 19.8123 64.3968 19.8182 64.6127 19.8123C64.7324 19.8083 64.8581 19.7161 64.7992 19.5806V19.5787Z" fill="#636375"/>
<path d="M65.4799 21.5847C65.3131 21.4944 65.2385 21.3237 65.2738 21.1391C65.2974 21.0155 65.1089 20.9782 65.0834 21.1018C65.0265 21.3727 65.1521 21.6318 65.3955 21.7614C65.5074 21.8203 65.5918 21.6456 65.4819 21.5847H65.4799Z" fill="#A04B40"/>
<path d="M68.713 20.0497C68.6305 19.9516 68.5147 19.9006 68.3871 19.9045C68.3145 19.9064 68.2419 19.9241 68.1751 19.9555C68.1084 19.9869 68.0299 20.0733 67.9573 20.0772C67.8316 20.0831 67.8297 20.2774 67.9573 20.2735C68.0397 20.2715 68.1163 20.2225 68.1928 20.1773C68.1987 20.2028 68.2105 20.2264 68.2321 20.2441C68.2713 20.2755 68.3086 20.2872 68.3557 20.2971C68.446 20.3972 68.4068 20.67 68.3911 20.7525C68.3832 20.7917 68.3989 20.8231 68.4225 20.8447C68.4107 20.8899 68.397 20.9331 68.3871 20.9723C68.3577 21.0842 68.5069 21.1392 68.5677 21.0489C68.7562 20.7701 68.9662 20.3579 68.713 20.0497Z" fill="#DE614B"/>
<path d="M55.6396 32.7028C55.3864 32.7028 55.3864 33.0953 55.6396 33.0953C55.8928 33.0953 55.8928 32.7028 55.6396 32.7028Z" fill="#B7743D"/>
<path d="M56.1958 33.5195C55.9426 33.5195 55.9426 33.9121 56.1958 33.9121C56.449 33.9121 56.449 33.5195 56.1958 33.5195Z" fill="#B7743D"/>
<path d="M85.7715 30.7064C85.5182 30.7064 85.5182 31.099 85.7715 31.099C86.0247 31.099 86.0247 30.7064 85.7715 30.7064Z" fill="#B7743D"/>
<path d="M84.6245 31.262C84.3713 31.262 84.3713 31.6545 84.6245 31.6545C84.8777 31.6545 84.8777 31.262 84.6245 31.262Z" fill="#B7743D"/>
<path d="M73.8994 31.5173C73.8994 31.4662 73.8542 31.4152 73.8012 31.4191C73.0867 31.4545 72.3408 31.4113 71.6263 31.4113C71.5517 31.4113 71.5281 31.4466 71.5262 31.4996C71.5222 31.6586 71.5222 31.8156 71.5281 31.9766C71.5301 32.0296 71.5713 32.0748 71.6263 32.0748C72.278 32.0728 72.9297 32.0767 73.5814 32.0669C73.9759 32.061 73.8915 31.8961 73.8974 31.5173H73.8994Z" fill="#B7743D"/>
<path d="M73.8225 41.2398C73.8206 41.1985 73.7774 41.1593 73.7381 41.1554C72.7939 41.0984 71.8498 41.0768 70.9036 41.0886C70.8506 41.0886 70.8251 41.1239 70.8232 41.1652C70.8133 41.1769 70.8075 41.1907 70.8035 41.2064C70.7348 41.5048 70.4247 42.1349 70.7172 42.3743C71.043 42.6413 71.8243 42.4784 72.1992 42.4529C72.5231 42.4313 72.8489 42.4116 73.1728 42.3881C73.3318 42.3763 73.5556 42.392 73.6812 42.2625C73.901 42.0367 73.8363 41.5244 73.8225 41.2378V41.2398ZM73.4633 42.0956C73.2592 42.2507 72.9117 42.2095 72.6585 42.2252C72.366 42.2448 72.0735 42.2683 71.7811 42.284C71.6142 42.2939 71.4219 42.3272 71.257 42.2978C71.1235 42.2742 70.8506 42.2271 70.8035 42.0662C70.7584 41.9072 70.9233 41.4891 70.9822 41.2829C71.5494 41.2771 72.1167 41.281 72.6821 41.3006C72.8411 41.3065 73.3848 41.2437 73.5242 41.3379C73.7499 41.493 73.6086 41.9818 73.4613 42.0936L73.4633 42.0956Z" fill="#B7743D"/>
<path d="M61.9191 42.2642C62.0448 42.3918 62.2666 42.378 62.4275 42.3898C62.7514 42.4134 63.0773 42.433 63.4012 42.4546C63.7761 42.4801 64.5554 42.645 64.8832 42.3761C65.1757 42.1366 64.8655 41.5065 64.7968 41.2081C64.7929 41.1905 64.785 41.1787 64.7772 41.1669C64.7752 41.1257 64.7497 41.0904 64.6967 41.0904C63.7506 41.0786 62.8064 41.1002 61.8622 41.1571C61.823 41.1591 61.7798 41.2003 61.7778 41.2415C61.7641 41.5281 61.6993 42.0404 61.9191 42.2662V42.2642ZM62.0742 41.3397C62.2136 41.2454 62.7573 41.3063 62.9163 41.3024C63.4836 41.2827 64.0489 41.2788 64.6162 41.2847C64.6751 41.4908 64.84 41.9089 64.7948 42.0679C64.7477 42.2289 64.4749 42.276 64.3414 42.2995C64.1785 42.329 63.9841 42.2936 63.8173 42.2858C63.5248 42.2701 63.2323 42.2465 62.9399 42.2269C62.6867 42.2092 62.3412 42.2524 62.1351 42.0973C61.9859 41.9855 61.8446 41.4967 62.0723 41.3416L62.0742 41.3397Z" fill="#B7743D"/>
<path d="M61.8603 28.3098C61.8288 28.1881 61.6404 28.2391 61.6718 28.3628C61.9682 29.5327 62.1429 30.6182 61.9643 31.8234C61.8092 32.8598 61.6993 33.8884 61.6326 34.9347C61.6247 35.0603 61.819 35.0603 61.8269 34.9347C61.9034 33.7765 62.0644 32.6439 62.2057 31.4936C62.3412 30.3964 62.1292 29.3698 61.8583 28.3117L61.8603 28.3098Z" fill="#B7743D"/>
<path d="M31.9611 52.2753H30.2632V81.6899H31.9611V52.2753Z" fill="#2C294C"/>
<path d="M102.57 53.2919H100.872V81.6897H102.57V53.2919Z" fill="#2C294C"/>
<path d="M73.736 30.9599C73.2708 30.3553 72.9921 29.6585 72.7232 28.9498C72.68 28.834 72.4915 28.8831 72.5347 29.0009C72.8095 29.7331 73.0981 30.4554 73.5829 31.0777C73.6497 31.164 73.8047 31.0463 73.736 30.9599Z" fill="#B7743D"/>
<path d="M73.4813 31.0187C73.181 30.8479 72.9179 30.6339 72.6863 30.3768C72.6019 30.2826 72.4645 30.4219 72.5489 30.5142C72.7884 30.7831 73.0691 31.0089 73.3831 31.1855C73.4931 31.2483 73.5912 31.0795 73.4813 31.0167V31.0187Z" fill="#B7743D"/>
<path d="M79.0521 32.2592C78.9579 32.6813 78.8813 33.1053 78.8225 33.5332C78.8048 33.6568 78.9932 33.7098 79.0109 33.5842C79.0718 33.1563 79.1483 32.7323 79.2406 32.3103C79.268 32.1886 79.0796 32.1356 79.0521 32.2592Z" fill="#B7743D"/>
<path d="M79.9545 33.7294C79.8151 33.3662 79.6895 32.9992 79.5795 32.6282C79.5442 32.5084 79.3558 32.5595 79.3911 32.6792C79.501 33.0522 79.6247 33.4192 79.766 33.7804C79.8112 33.8962 79.9996 33.8472 79.9545 33.7294Z" fill="#B7743D"/>
<path d="M59.323 33.4919C59.2523 33.3898 59.0835 33.486 59.1541 33.59C59.588 34.2221 59.8098 34.9268 59.8137 35.6943C59.8137 35.8199 60.01 35.8199 60.01 35.6943C60.01 34.8974 59.7764 34.1475 59.323 33.4919Z" fill="#B7743D"/>
<path d="M59.3247 34.9368C59.3011 34.8131 59.1146 34.8661 59.1362 34.9878C59.2206 35.4471 59.2069 35.9006 59.1029 36.356C59.0754 36.4777 59.2618 36.5307 59.2913 36.407C59.4071 35.9182 59.4169 35.4294 59.3247 34.9348V34.9368Z" fill="#B7743D"/>
<path d="M108.867 50.8463H23.9189V53.2921H108.867V50.8463Z" fill="#543237"/>
<path d="M83.0939 48.803C83.1862 48.7736 83.2784 48.7461 83.3726 48.7245C83.8614 48.6106 83.6553 47.8628 83.1646 47.9727C82.0948 48.2122 80.4047 48.5478 80.6834 50.711C80.8954 52.3579 83.2274 50.7228 83.5316 49.8041C83.6828 49.3487 83.4767 48.9443 83.0919 48.805L83.0939 48.803Z" fill="#DE614B"/>
<path d="M86.8033 74.6546C86.5775 73.1844 86.3243 71.72 86.0456 70.2596C85.5607 67.7078 84.5047 64.3237 86.923 62.4099C87.4196 62.0173 86.7189 61.3283 86.2281 61.715C86.1928 61.7425 86.1594 61.7719 86.1261 61.7994C86.0868 61.5952 85.8964 61.4441 85.6805 61.4186C85.7295 61.236 85.7806 61.0515 85.8375 60.869C85.9533 60.4901 85.5863 60.1976 85.2467 60.2663C85.2526 60.2074 85.2467 60.1486 85.231 60.0936C85.2663 59.7874 85.019 59.4321 84.6244 59.5283C83.321 59.8463 82.212 60.7531 81.7232 62.0192C81.0794 63.6936 81.6761 65.7213 82.1021 67.38C83.0816 71.1881 84.8482 74.3877 85.6471 78.2448C85.6471 78.2566 85.6157 79.8819 84.7795 81.3404C84.5341 81.7663 87.1684 79.0555 87.19 78.7631C87.292 77.391 87.0094 76.0051 86.8013 74.6546H86.8033Z" fill="#DE614B"/>
<path d="M91.0122 74.6546C90.7865 73.1844 90.5333 71.72 90.2546 70.2596C89.7697 67.7078 89.12 64.4925 90.8552 63.6092C91.4186 63.3226 90.9298 61.3283 90.4391 61.715C90.4037 61.7425 90.3704 61.7719 90.337 61.7994C90.2977 61.5952 90.1073 61.4441 89.8914 61.4186C89.9405 61.236 89.9915 61.0515 90.0484 60.869C90.1643 60.4901 89.7972 60.1976 89.4576 60.2663C89.4635 60.2074 89.4576 60.1486 89.4419 60.0936C89.4772 59.7874 89.2299 59.4321 88.8354 59.5283C87.532 59.8463 86.4229 60.7531 85.9341 62.0192C85.2903 63.6936 85.887 65.7213 86.313 67.38C87.2925 71.1881 88.8942 73.5534 89.6932 77.4106C89.6932 77.4538 89.701 78.7532 89.7148 78.8004L89.7776 79.0438C89.8953 79.4972 91.3734 79.1537 91.4029 78.7611C91.5049 77.389 91.2223 76.0032 91.0142 74.6527L91.0122 74.6546Z" fill="#DE614B"/>
<path d="M98.5225 55.3748C98.1201 54.7879 98.2732 55.1275 98.0691 54.4444C97.8394 53.6769 98.1868 52.7994 98.1436 52.0103C98.1142 51.4725 97.3251 51.4274 97.2957 51.9318C97.2917 51.9318 97.2858 51.9279 97.2819 51.9279C97.2937 51.8788 97.3055 51.8298 97.3153 51.7787C97.4311 51.2743 96.801 51.0308 96.5556 51.4097C96.3849 51.2193 96.059 51.1879 95.8784 51.4588C95.7665 51.6295 95.6625 51.8023 95.5643 51.9789C95.6213 51.8023 95.6802 51.6256 95.741 51.4509C95.9 50.9896 95.1914 50.6441 94.9715 51.0917C94.791 51.4588 94.6241 51.8337 94.469 52.2106C94.4258 51.9024 94.0882 51.7571 93.8448 51.8945C93.8409 51.8572 93.8389 51.8199 93.8291 51.7807C93.7663 51.4862 93.3462 51.343 93.1342 51.5412C93.0223 51.2173 92.4767 51.1467 92.3118 51.5628C92.1979 51.8494 92.09 52.1399 91.9859 52.4304C91.9938 52.3794 92.0036 52.3283 92.0114 52.2793C92.0998 51.7395 91.3794 51.4725 91.1968 52.0241C91.136 52.2047 91.0751 52.3872 91.0162 52.5678C90.9672 52.4127 90.8533 52.3166 90.7198 52.2871C90.5765 52.0182 90.1584 51.9102 89.9837 52.2439C89.9111 52.3813 89.8424 52.5207 89.7776 52.662C89.6814 52.6895 89.5931 52.7445 89.5362 52.8328C89.5224 52.8524 89.5107 52.876 89.4989 52.8956C89.442 52.8132 89.387 52.7307 89.3301 52.6483C89.1102 52.3244 88.5312 52.3715 88.5351 52.8446C88.5351 52.9565 88.5351 53.0664 88.5351 53.1763C88.5272 53.2176 88.5253 53.2627 88.5312 53.3059C88.5135 54.1107 88.4193 54.8664 88.1602 55.6555C87.9325 56.3465 87.7165 57.0276 87.5929 57.748C87.377 58.9905 87.2317 60.5432 87.7146 61.7426C88.7314 64.2708 92.5611 64.4396 94.7615 64.208C96.0217 64.0745 99.1683 63.6074 99.6885 60.7336C99.9672 59.1966 99.4274 56.6939 98.5245 55.3768L98.5225 55.3748Z" fill="#2C294C"/>
<path d="M94.2999 35.5689C93.6365 35.3942 92.973 35.2312 92.3036 35.086C92.2448 35.0722 92.1878 35.0703 92.1348 35.0742C91.7854 35.0565 91.4046 35.3353 91.4949 35.7926C91.8306 37.4866 91.7206 38.4995 91.8796 40.2249C91.9503 40.9964 94.8496 40.7903 94.8515 40.4782C94.8594 39.2906 94.8162 37.3551 94.7377 36.1676C94.72 35.9045 94.5669 35.6376 94.298 35.5669L94.2999 35.5689Z" fill="#DE614B"/>
<path d="M95.0616 30.0351C94.6749 29.4835 93.8427 29.9488 93.2283 29.8545C92.502 29.7427 92.1957 29.5071 91.7286 30.0528C91.179 30.4964 90.4468 30.622 90.331 31.3503C90.115 32.6949 89.8932 34.9248 90.3702 36.185C90.7471 37.1822 91.3635 37.5689 91.864 37.5885C92.6983 37.6219 93.7386 36.8642 94.1587 36.3087C94.3982 35.9907 94.8339 35.6589 94.9674 35.3547C95.7231 33.6096 96.2139 31.6781 95.0616 30.0351Z" fill="#DE614B"/>
<path d="M100.605 48.0746C100.403 46.9557 100.203 45.8368 100 44.718C99.8709 43.9976 99.8278 43.2379 99.4803 42.6019C99.3567 42.1819 99.127 41.7912 98.7069 41.434C97.6921 40.5723 96.375 39.9696 95.1678 39.3435C95.1285 39.2021 95.0696 39.0765 94.9734 38.9921C94.6986 38.7507 94.1725 38.8429 93.8447 38.8586C93.3736 38.8802 91.9328 38.8331 91.66 39.4004C90.814 39.8636 89.966 40.3249 89.12 40.7901C88.4251 41.171 87.9343 41.3044 87.4534 41.8148C87.4181 41.8325 87.3828 41.8541 87.3494 41.8855C86.4347 42.7393 85.8772 43.8837 85.2589 44.9516C84.9232 45.5326 84.5758 46.0488 84.1753 46.5121C84.1223 46.5415 84.0733 46.5808 84.034 46.6358C84.0065 46.675 83.979 46.7162 83.9496 46.7555C83.5904 47.1343 83.188 47.4779 82.711 47.7939C81.8021 48.3945 81.4802 49.1267 81.1936 50.1671C80.9699 50.9778 80.748 52.0613 81.4802 52.6894C82.1044 53.2253 82.8582 52.9368 83.4078 52.4421C83.7415 52.1418 83.9378 51.8375 84.405 51.6668C84.6975 51.5608 85.0351 51.5882 85.3335 51.5136C85.7319 51.4135 86.0735 51.229 86.364 50.9365C86.5151 50.7834 88.1581 49.2092 88.2739 49.0227C88.2739 49.0266 87.5948 52.9917 88.1424 54.0615C88.6292 55.0116 88.853 55.4434 89.9071 55.5769C91.4853 55.7771 96.4437 55.6888 98.1122 55.518C99.2035 55.4061 97.9924 54.6975 99.2467 53.3019C99.6177 52.8877 99.7748 52.1182 99.8199 51.1662C99.8611 51.1328 99.8965 51.0897 99.9239 51.0386C100.901 50.5283 100.813 49.2249 100.607 48.0824L100.605 48.0746Z" fill="#DADAEA"/>
<path d="M95.291 61.3697C94.9082 59.9937 93.3634 60.1958 92.2896 60.3548C91.318 60.4981 90.2933 60.6336 89.2687 60.7003C89.3138 60.665 89.359 60.6316 89.4022 60.5963C89.9557 60.1507 89.4787 59.2458 88.8427 59.2477C88.827 59.2477 88.8113 59.2497 88.7936 59.2497C89.1686 58.7452 89.5062 58.2133 89.8085 57.6519C90.0754 57.1553 89.7633 56.6135 89.306 56.4918C89.3354 56.4663 89.3668 56.4407 89.3963 56.4152C90.1618 55.7537 88.0418 56.0148 88.0418 56.0148C87.6335 56.9433 84.8128 58.1544 84.3672 58.7393C83.9982 59.2242 83.8922 59.7581 83.9059 60.3548C83.9236 61.089 83.9609 61.9625 84.1395 62.677C84.4811 64.053 86.3027 63.8822 87.4176 63.9411C89.2706 64.0412 90.3797 64.0844 93.2907 64.2807C94.4332 64.3573 95.7091 62.8713 95.291 61.3716V61.3697ZM93.1808 62.0174C93.0728 62.0665 92.9492 62.1038 92.8216 62.1372C92.855 62.0469 92.8726 61.9507 92.8765 61.8506C92.9413 61.8408 93.0061 61.831 93.0709 61.8231C93.489 61.7701 93.646 61.8035 93.1808 62.0174Z" fill="#2C294C"/>
<path d="M87.7244 79.4169C87.7421 79.2442 87.7048 79.1362 87.6361 78.8339C87.5576 78.4923 87.479 78.2018 87.3613 77.9035C87.267 77.664 87.2337 77.6738 87.1198 77.6934C86.0559 77.8878 85.6751 78.8378 85.3924 79.7761C85.1314 80.6378 85.1255 80.9951 84.2559 81.4623C83.9104 81.6487 83.6415 81.635 83.4943 81.9883C83.4688 82.0492 83.4982 82.1375 83.5453 82.1807C83.9222 82.5281 84.7113 82.2592 85.1687 82.1591C85.8851 82.004 86.0422 81.5447 86.4819 81.0128C86.6546 80.8047 86.8784 80.6516 87.0845 80.4926C87.1767 80.7105 87.2631 80.9146 87.2592 81.1757C87.2592 81.2542 87.3416 81.2935 87.4084 81.2601C87.7264 81.105 87.5418 80.9009 87.5517 80.5691C87.5634 80.1707 87.7185 79.8075 87.7224 79.4169H87.7244Z" fill="#2C294C"/>
<path d="M91.7561 78.6592C91.7738 78.4865 91.7365 78.3785 91.6678 78.0762C91.5893 77.7347 91.5108 77.4441 91.393 77.1458C91.2988 76.9063 91.2654 76.9161 91.1516 76.9357C90.0876 77.1301 89.7068 78.0801 89.4242 79.0184C89.1631 79.8801 89.1572 80.2374 88.2876 80.7046C87.9422 80.8911 87.6732 80.8773 87.526 81.2306C87.5005 81.2915 87.5299 81.3798 87.5771 81.423C87.9539 81.7704 88.743 81.5015 89.2004 81.4014C89.9169 81.2463 90.0739 80.787 90.5136 80.2551C90.6863 80.047 90.9101 79.8939 91.1162 79.7349C91.2085 79.9528 91.2949 80.1569 91.2909 80.418C91.2909 80.4965 91.3734 80.5358 91.4401 80.5024C91.7581 80.3473 91.5736 80.1432 91.5834 79.8114C91.5952 79.413 91.7502 79.0498 91.7542 78.6592H91.7561Z" fill="#2C294C"/>
<path d="M96.4713 29.3091C95.7431 28.8537 94.8127 29.1383 94.4299 29.8037C92.781 29.0578 90.7945 29.7861 90.2861 31.6175C90.2587 31.7156 90.1998 31.802 90.2331 31.8746C90.1232 32.4223 90.2979 32.9935 90.6748 33.4587C91.0811 33.9593 91.8585 34.0908 92.0057 34.8269C92.094 35.2666 91.8663 35.7043 92.0155 36.1617C92.2942 37.0097 93.0853 37.0038 93.8567 36.9822C94.8735 36.9547 95.3152 36.142 95.7667 35.2744C96.3025 34.2458 96.5126 33.0485 96.2554 31.9963C96.3418 31.9512 96.4301 31.8982 96.5263 31.8314C97.4077 31.2131 97.392 29.8862 96.4694 29.3091H96.4713Z" fill="#2C294C"/>
<path d="M89.5439 44.6748C89.4104 45.9998 89.0002 47.2502 88.3269 48.4004C88.2641 48.5084 88.4309 48.6065 88.4957 48.4986C89.1886 47.3247 89.6067 46.0312 89.7382 44.6748C89.75 44.5492 89.5557 44.5511 89.5439 44.6748Z" fill="#B8B8C9"/>
<path d="M98.885 44.5101C98.8595 44.3884 98.671 44.4395 98.6985 44.5612C99.1245 46.5614 99.5132 48.5675 99.8665 50.5815C99.8881 50.7051 100.077 50.6521 100.055 50.5285C99.7075 48.5145 99.3188 46.5064 98.887 44.5101H98.885Z" fill="#B8B8C9"/>
<path d="M91.0692 82.0982C90.2035 75.3811 89.2927 68.6698 88.3132 61.9684C88.2759 61.7191 87.899 61.8251 87.9343 62.0724C88.8883 68.7248 89.8089 75.3811 90.6687 82.0452C90.7217 82.3475 90.706 82.5026 90.7001 82.534C90.6844 82.6106 90.6412 82.6361 90.5765 82.6439C89.858 82.214 89.1533 81.7645 88.4663 81.2836C87.6105 80.683 86.2933 80.0116 86.1147 78.8849C86.0048 78.1881 86.1756 77.3578 86.207 76.6511C86.2462 75.7501 86.2855 74.8491 86.3267 73.9501C86.4798 70.4757 86.6329 67.0033 86.7841 63.5289C86.7958 63.2757 86.4013 63.2757 86.3915 63.5289C86.2148 67.5176 86.0401 71.5063 85.8635 75.4949C85.8183 76.5215 85.7398 77.554 85.728 78.5826C85.7221 79.0635 85.7339 79.4679 86.0401 79.8664C86.5112 80.4788 87.3474 80.9676 87.9697 81.4151C88.7411 81.9706 89.54 82.4849 90.3546 82.9717C90.3566 82.9757 90.5765 83.0581 90.7472 83.011C90.918 82.9639 91.0417 82.7853 91.0711 82.6793C91.1163 82.5242 91.0711 82.1022 91.0711 82.0943L91.0692 82.0982Z" fill="#D9924E"/>
<path d="M102.464 82.4397C101.598 75.7225 100.687 69.0113 99.7077 62.3098C99.6704 62.0605 99.2935 62.1665 99.3289 62.4139C100.283 69.0662 101.203 75.7225 102.063 82.3867C102.116 82.689 102.101 82.8441 102.095 82.8755C102.079 82.952 102.036 82.9775 101.971 82.9854C101.253 82.5555 100.548 82.106 99.8608 81.6251C99.005 81.0244 97.6879 80.3531 97.5092 79.2264C97.3993 78.5295 97.5701 77.6992 97.6015 76.9926C97.6408 76.0916 97.68 75.1906 97.7212 74.2916C97.8743 70.8172 98.0275 67.3447 98.1786 63.8704C98.1904 63.6171 97.7958 63.6171 97.786 63.8704C97.6094 67.859 97.4347 71.8477 97.258 75.8364C97.2128 76.863 97.1343 77.8955 97.1225 78.9241C97.1167 79.405 97.1284 79.8094 97.4347 80.2078C97.9058 80.8203 98.742 81.3091 99.3642 81.7566C100.136 82.3121 100.935 82.8264 101.749 83.3132C101.751 83.3171 101.971 83.3996 102.142 83.3525C102.313 83.3054 102.436 83.1267 102.466 83.0207C102.511 82.8657 102.466 82.4436 102.466 82.4358L102.464 82.4397Z" fill="#D9924E"/>
<path d="M101.802 55.8575C101.563 54.9683 100.756 54.6464 100.199 54.3912C99.4076 54.03 98.5773 53.873 97.7568 53.7454C94.1352 53.1879 90.6019 53.4078 87.4887 55.4316C87.2472 55.5886 86.7015 56.0832 86.7899 57.5299C86.7899 57.793 86.7899 58.1659 86.7859 58.5978C86.3109 58.6154 85.8378 58.6468 85.3648 58.6979C84.9447 58.745 84.2302 58.7175 83.8553 59.0139C83.6021 59.2141 83.5157 59.5498 83.4647 59.8835C83.3371 60.7138 83.3331 62.1369 83.3645 62.9908C83.4097 64.2667 83.6825 64.3374 84.5345 64.4277C85.6945 64.5494 89.7127 64.5592 90.6019 64.6083C94.1685 64.8006 96.4357 64.6259 100.004 64.6259C101.268 64.6259 101.875 64.0272 101.93 63.0438C102.012 61.5814 102.089 56.9195 101.802 55.8575Z" fill="#636375"/>
<path d="M2.7684 80.8927C2.34834 80.8927 1.9636 80.6984 1.71627 80.3568C1.46698 80.0133 1.40024 79.5874 1.53372 79.185L7.06723 62.4078L7.44019 62.5314L1.90667 79.3086C1.81442 79.5893 1.86153 79.8877 2.03427 80.1272C2.207 80.3647 2.47396 80.5021 2.7684 80.5021C2.77233 80.5021 16.187 80.4354 16.187 80.4354C16.4324 80.4354 16.6601 80.3372 16.8328 80.1625C17.0036 79.9878 17.0959 79.7562 17.0919 79.5108L16.7857 62.6571L17.1783 62.6492L17.4845 79.503C17.4904 79.8543 17.3589 80.1841 17.1135 80.4354C16.8682 80.6866 16.5403 80.826 16.189 80.8279L2.77429 80.8947H2.76644L2.7684 80.8927Z" fill="#2C294C"/>
<path d="M1.30209 77.6401C0.882026 77.6401 0.497291 77.4458 0.249962 77.1042C0.000669193 76.7607 -0.0660706 76.3348 0.0674089 75.9324L5.60092 59.1552L5.97388 59.2788L0.440366 76.0541C0.348108 76.3348 0.395219 76.6331 0.567957 76.8726C0.740695 77.1101 1.00765 77.2475 1.30209 77.2475C1.30602 77.2475 14.7207 77.1808 14.7207 77.1808C14.9661 77.1808 15.1938 77.0827 15.3665 76.908C15.5373 76.7333 15.6295 76.5016 15.6256 76.2563L15.3194 59.4025L15.712 59.3947L16.0182 76.2484C16.0241 76.5998 15.8926 76.9296 15.6472 77.1808C15.4018 77.4321 15.074 77.5714 14.7227 77.5734L1.30798 77.6401H1.30013H1.30209Z" fill="#2C294C"/>
<path d="M2.34217 61.8386C2.39713 62.822 3.00368 63.4207 4.26781 63.4207C7.83642 63.4207 10.1036 63.5954 13.6703 63.403C14.5595 63.3559 18.5776 63.3461 19.7377 63.2224C20.5876 63.1321 20.8605 63.0615 20.9076 61.7856C20.939 60.9317 20.9351 59.5086 20.8075 58.6782C20.7565 58.3445 20.6701 58.0089 20.4169 57.8087C20.0419 57.5123 19.3274 57.5397 18.9074 57.4926C18.4343 57.4396 17.9593 57.4082 17.4862 57.3925C17.4823 56.9607 17.4803 56.5877 17.4823 56.3247C17.5706 54.878 17.0249 54.3833 16.7835 54.2263C13.6703 52.2006 10.1389 51.9807 6.51537 52.5401C5.69486 52.6658 4.8665 52.8248 4.07348 53.186C3.516 53.4411 2.70727 53.7631 2.46976 54.6523C2.18513 55.7142 2.25973 60.3762 2.34217 61.8386Z" fill="#D9924E"/>
</svg>
