<svg width="100" height="76" viewBox="0 0 100 76" fill="none" xmlns="http://www.w3.org/2000/svg">
<path d="M66.5064 25.9254C66.0607 22.9162 65.8155 19.8806 65.7726 16.8389C65.7404 14.3775 65.9796 11.9161 65.8554 9.45465C65.6852 6.05008 64.3003 1.74836 60.3345 1.04215C57.5556 0.547563 54.174 0.881119 51.9496 2.66852C50.3002 3.99354 49.6699 6.07769 49.4007 8.09972C49.0166 10.9591 49.196 13.8507 48.9867 16.7216C48.775 19.6523 47.4201 22.5553 47.6662 25.4975C47.6475 25.5502 47.6444 25.6071 47.6575 25.6615C47.6706 25.7158 47.6992 25.7652 47.7399 25.8035C47.7786 25.8584 47.8305 25.9028 47.8907 25.9325C47.951 25.9622 48.0178 25.9764 48.0849 25.9737C49.0649 26.3579 50.0379 26.3119 51.0984 26.1853C52.665 25.9967 54.2315 25.8495 55.8096 25.792C59.1086 25.678 62.4109 25.8875 65.6691 26.4177C65.9589 26.4637 66.5501 26.2106 66.5064 25.9254Z" fill="#9B4141"/>
<path d="M55.8993 14.5105C55.874 14.3587 55.644 14.4231 55.6693 14.5727C55.8349 15.5273 56.0259 16.7442 55.2345 17.4918C54.5444 18.1406 53.293 17.9933 52.5454 17.5263C50.7741 16.4176 51.5401 14.0758 52.2118 12.5713C52.2739 12.4333 52.0669 12.3091 52.0048 12.4494C51.2273 14.2069 50.4957 16.9881 52.8283 17.9358C53.6588 18.274 54.8067 18.2878 55.4623 17.5954C56.2421 16.7626 56.0696 15.5342 55.8993 14.5105Z" fill="#FAE1D2"/>
<path d="M86.0344 36.5183C85.8159 36.3135 85.2638 35.8281 84.9969 36.164C84.874 36.3516 84.8108 36.5721 84.8157 36.7963C84.8206 37.0205 84.8934 37.238 85.0245 37.42C85.1416 37.5845 85.3004 37.7147 85.4846 37.7973C85.7676 37.9215 86.0045 37.8341 86.2898 37.8755C86.3205 37.88 86.3517 37.8726 86.3772 37.8548C86.4074 37.8646 86.4402 37.8624 86.4689 37.8487C86.4976 37.835 86.5199 37.8108 86.5313 37.7812C86.7245 37.3119 86.368 36.8265 86.0344 36.5183Z" fill="#36593F"/>
<path d="M63.8656 23.7811C63.8582 23.7619 63.849 23.7434 63.8379 23.7259C63.8536 23.6791 63.8512 23.6282 63.8312 23.5831C63.8112 23.5379 63.775 23.5019 63.7298 23.4821C62.9983 23.1186 62.2047 22.8058 61.51 22.3779C60.4518 21.7292 60.3874 20.8413 60.3184 19.7026C60.2171 18.0118 60.3667 16.2911 60.4955 14.6049C60.4286 14.5404 60.3477 14.4923 60.2591 14.4643C60.1705 14.4364 60.0766 14.4294 59.9848 14.4439C58.22 15.0464 56.3951 15.456 54.5421 15.6654C54.4973 15.6713 54.4548 15.6887 54.4187 15.7159C54.3826 15.7431 54.3542 15.7792 54.3361 15.8206C54.318 15.862 54.311 15.9074 54.3157 15.9524C54.3203 15.9973 54.3365 16.0403 54.3627 16.0772C54.3374 17.5839 54.6387 20.5928 54.0981 20.9908C52.6512 22.0559 51.478 22.9139 49.9321 23.5603C49.8724 23.5854 49.8241 23.6317 49.7964 23.6903C49.7688 23.749 49.7639 23.8157 49.7826 23.8778C49.7759 23.8934 49.7705 23.9095 49.7665 23.9261C49.4306 26.6106 50.8592 29.9623 52.1796 32.2489C53.316 34.2203 55.0666 35.4165 57.3831 35.0461C59.9963 34.6275 61.8573 33.4359 63.4239 31.3333C65.0433 29.1571 64.5626 26.2495 63.8656 23.7811Z" fill="#EB8B65"/>
<path d="M64.5717 46.3594C64.4038 40.4084 64.0887 34.4596 63.8333 28.5108L63.9046 28.4441C63.9672 28.3759 64.0015 28.2863 64.0003 28.1937C63.9992 28.1012 63.9628 28.0125 63.8985 27.9459C63.8342 27.8793 63.7469 27.8397 63.6544 27.8352C63.5619 27.8307 63.4712 27.8617 63.4008 27.9219C62.5842 28.7355 61.6133 29.3778 60.545 29.811C59.4768 30.2442 58.3327 30.4597 57.1801 30.4447C56.0274 30.4297 54.8894 30.1845 53.8327 29.7237C52.7761 29.2628 51.8222 28.5954 51.0271 27.7608C50.9767 27.7134 50.9138 27.6814 50.8459 27.6685C50.778 27.6556 50.7077 27.6623 50.6435 27.6879C50.5792 27.7135 50.5236 27.7569 50.4832 27.813C50.4427 27.8692 50.4191 27.9356 50.4152 28.0047C50.3938 28.0556 50.3836 28.1105 50.3853 28.1657C50.4612 30.6294 49.5755 33.0471 49.2627 35.4786C48.9607 38.0834 48.8377 40.7059 48.8946 43.3275C48.9199 45.9845 48.9958 48.6391 49.0786 51.2915C49.1201 52.5858 49.1661 53.8794 49.2167 55.1722C49.2397 55.7864 49.0257 57.1344 49.5525 57.6152C50.0126 58.0431 51.0478 57.7855 51.5999 57.7809C52.9433 57.7686 54.2867 57.7801 55.6301 57.8154C56.8141 57.846 57.9988 57.8936 59.1842 57.958C60.4909 58.0316 61.924 58.3444 63.2237 58.2455C64.7581 58.1282 64.4383 55.7151 64.5027 54.6178C64.6637 51.8643 64.6407 49.1061 64.5717 46.3594Z" fill="#FAE1D2"/>
<path d="M89.0593 29.1344C89.0738 29.04 89.0815 28.9446 89.0823 28.8491C89.0823 28.0371 88.4842 27.577 87.8332 27.2389C87.8335 27.0906 87.7954 26.9448 87.7228 26.8156C87.5042 26.4567 87.1132 26.3693 86.729 26.3049C86.8716 25.4768 86.9591 24.6394 87.0419 23.7975C87.0856 23.2891 87.0672 22.316 86.844 21.9848C86.8361 21.9439 86.8164 21.9063 86.7874 21.8765C86.7584 21.8466 86.7213 21.8259 86.6807 21.8168C86.5443 21.7224 86.3858 21.6646 86.2206 21.6489C86.1796 21.6431 86.1377 21.6504 86.101 21.6696C85.5972 21.6857 85.3488 22.7117 85.289 23.1856C85.1203 24.4922 84.9263 25.7957 84.707 27.0962C84.6151 27.7454 84.4838 28.3884 84.3136 29.0217C84.2285 29.3023 84.0192 29.3368 83.8535 29.0884C83.4464 28.4489 83.9502 27.5218 83.6856 26.7995C83.5177 26.3394 83.0277 25.5067 82.4181 25.9943C82.1559 26.2037 82.2134 26.6016 82.2111 26.8846C82.2218 27.8659 82.1634 28.8468 82.0362 29.8199C81.8292 31.276 81.2541 32.7207 81.5509 34.1906C81.5509 34.1906 81.5509 34.2044 81.5371 34.2136C81.4072 34.593 81.2261 34.9529 80.9988 35.2833C80.932 35.3776 80.6008 35.7158 80.5709 35.8998C80.5295 36.1735 80.7549 36.3185 80.9482 36.4565C81.4247 36.8041 81.9367 37.1002 82.4756 37.3398C83.0875 37.6044 83.8558 37.6412 84.3412 38.1266C84.3625 38.1483 84.3879 38.1656 84.416 38.1774C84.444 38.1893 84.4741 38.1955 84.5045 38.1956C84.5294 38.2205 84.5596 38.2393 84.5929 38.2507C84.6261 38.2621 84.6615 38.2657 84.6964 38.2613C84.7313 38.2568 84.7647 38.2444 84.794 38.2251C84.8234 38.2057 84.8479 38.1799 84.8657 38.1496C85.1866 37.6025 85.4784 37.0389 85.7399 36.4611C85.7634 36.4122 85.8 36.3708 85.8457 36.3415C87.2778 35.4478 88.3283 34.0555 88.7948 32.4331C89.2082 32.1979 89.5574 31.8645 89.8115 31.4624C90.3429 30.7285 89.7149 29.6842 89.0593 29.1344Z" fill="#EB8B65"/>
<path d="M77.806 41.331C76.1474 36.8337 75.126 30.1143 73.3938 28.2188C73.265 28.0807 72.4599 27.4918 72.3702 27.715C71.5696 29.7439 70.7369 31.7614 69.9686 33.8041C69.3268 35.5133 69.8467 37.3053 70.1066 39.0582C70.6932 43.0079 70.7599 46.3435 72.5105 49.9804C73.1086 51.2226 73.8171 52.9341 75.2871 53.339C76.6328 53.7093 78.2523 52.8789 78.9677 51.7287C80.4054 49.3708 79.3403 45.9018 78.572 43.4956C78.3282 42.7687 78.0705 42.0487 77.806 41.331Z" fill="#36593F"/>
<path d="M61.0475 4.40724C60.27 2.61984 57.9282 1.60077 56.0257 1.87682C55.9359 1.85413 55.8418 1.85413 55.752 1.87682C53.6448 2.45882 51.7792 3.78384 51.4503 6.08882C51.2801 7.51832 51.2293 8.95951 51.2985 10.3974C51.3307 11.6995 51.2778 13.1924 51.6964 14.4415C52.4947 16.8178 55.2321 17.0271 57.3232 16.7787C58.3445 16.6591 59.2532 16.5211 59.8214 15.5779C60.8542 13.8595 61.0567 11.918 61.3189 9.97417C61.5766 8.12236 61.8181 6.18314 61.0475 4.40724Z" fill="#EB8B65"/>
<path d="M59.603 15.0122C59.2832 15.96 58.1054 16.2291 57.2359 16.4247C56.35 16.6209 55.4404 16.6883 54.5352 16.6248C54.4248 16.6248 54.4248 16.7904 54.5352 16.7973C55.6676 16.8753 56.8048 16.7515 57.8938 16.4316C58.669 16.2015 59.4902 15.8864 59.7686 15.0513C59.8054 14.9455 59.6375 14.8995 59.603 15.0053V15.0122Z" fill="#C45547"/>
<path d="M63.7988 14.8767C63.7758 14.7249 63.5434 14.7847 63.5687 14.9342C63.7183 15.8912 63.8885 17.1104 63.0856 17.8442C62.3955 18.4837 61.1372 18.3043 60.3965 17.8442C58.6436 16.7078 59.4487 14.3936 60.1435 12.8846C60.2079 12.7466 60.0054 12.6223 59.941 12.7604C59.1336 14.504 58.3561 17.2737 60.6725 18.2606C61.4984 18.6102 62.644 18.6424 63.3111 17.9638C64.1139 17.1449 63.9506 15.9073 63.7988 14.8767Z" fill="#FAE1D2"/>
<path d="M53.3989 21.548C53.3823 21.5378 53.3632 21.5324 53.3437 21.5324C53.3242 21.5324 53.3051 21.5378 53.2885 21.548C50.8639 22.8868 48.4301 24.2348 45.856 25.2723C44.7702 25.7117 43.6269 25.9877 42.5595 26.4685C42.012 26.7009 41.5007 27.0108 41.0413 27.3886C40.5628 27.7905 40.186 28.2996 39.9417 28.8747C39.7531 29.3348 39.8267 29.8478 39.8888 30.3331C40.0286 31.2846 40.2206 32.2276 40.4639 33.158C40.7974 34.5244 41.2161 35.8702 41.6808 37.1952C41.82 37.592 41.8749 38.0135 41.8418 38.4328C41.575 41.8121 41.6118 45.564 41.5888 48.9317C41.5681 51.0021 41.6049 53.0724 41.6647 55.1428C41.6923 56.1112 41.6647 56.707 42.3985 57.2131C43.0757 57.656 43.8329 57.9624 44.6276 58.1149C46.8727 58.6417 48.9201 58.4783 51.2159 58.6877C51.2321 58.6895 51.2486 58.6874 51.2639 58.6816C51.2792 58.6758 51.293 58.6665 51.304 58.6544C51.315 58.6422 51.3229 58.6277 51.3272 58.6119C51.3315 58.5961 51.332 58.5795 51.3286 58.5635C51.3504 58.5519 51.3683 58.5341 51.3802 58.5125C51.392 58.4908 51.3973 58.4661 51.3953 58.4415C51.4121 58.4318 51.426 58.4177 51.4353 58.4007C51.4446 58.3836 51.4491 58.3643 51.4482 58.3449C51.3884 48.6074 51.2182 38.8193 51.8508 29.0932C52.0164 26.5398 52.3822 23.9611 53.5968 21.6699C53.675 21.5365 53.4725 21.4146 53.3989 21.548Z" fill="#36593F"/>
<path d="M74.0378 29.3093C73.7088 28.472 73.2556 27.6553 72.5471 27.0825C71.5856 26.3096 70.2928 26.0658 69.1564 25.6494C66.4028 24.64 63.7849 23.2932 61.3627 21.6398C61.198 21.5051 61.0016 21.4148 60.7922 21.3776C60.5828 21.3615 60.5184 21.4673 60.6794 21.672C62.4922 24.0161 62.5198 27.1492 62.7498 29.9971C62.9798 33.1026 63.1156 36.2082 63.1938 39.3321C63.3433 45.4166 62.8878 58.3655 63.0304 58.4667V58.5058C63.0304 58.8002 73.3569 58.9521 73.6559 58.1653C73.8445 57.6684 73.7157 56.2422 73.7548 55.7131C73.8223 54.8528 73.866 53.9917 73.886 53.1298C74.0286 47.4501 73.7203 41.2483 73.4558 35.5641C73.4368 35.1567 73.548 34.7538 73.7732 34.4139C74.2103 33.7513 74.6359 33.0612 74.7578 32.3665C74.9119 31.4073 74.3851 30.1835 74.0378 29.3093Z" fill="#36593F"/>
<path d="M61.7216 23.3098C62.015 24.1489 62.2163 25.0175 62.322 25.9001C62.6556 28.2672 62.8741 30.6458 63.0121 33.0312C63.1617 35.4743 63.1916 37.9242 63.1939 40.3718C63.1939 41.6393 63.1939 42.9022 63.1824 44.1743C63.1824 44.9265 63.1709 47.1073 63.1686 47.8549C63.1686 48.2552 64.4269 45.5545 64.7029 44.7977C65.0848 43.7625 65.416 42.7044 65.7565 41.6531C66.485 39.3818 67.159 37.0953 67.7785 34.7933C68.073 33.6953 68.3536 32.5949 68.6205 31.4923C68.7286 31.0529 69.1887 30.1443 68.9218 29.7164C68.7171 29.392 68.3766 29.4081 68.0155 29.346C67.4895 29.2556 66.9604 29.1697 66.4282 29.0884C66.4156 29.0863 66.404 29.0803 66.3949 29.0713C66.3858 29.0623 66.3797 29.0507 66.3775 29.0382C66.3752 29.0256 66.3769 29.0126 66.3822 29.001C66.3876 28.9894 66.3964 28.9798 66.4075 28.9734C66.9298 28.6845 67.4754 28.4398 68.0385 28.2419C68.0699 28.2322 68.0989 28.2159 68.1235 28.1941C68.1481 28.1722 68.1678 28.1454 68.1811 28.1153C68.2137 28.1048 68.2436 28.0871 68.2685 28.0636C68.2934 28.0401 68.3127 28.0112 68.3251 27.9793C68.3374 27.9473 68.3425 27.913 68.3399 27.8788C68.3372 27.8446 68.327 27.8115 68.3099 27.7818C67.3162 26.2543 66.3822 24.6786 65.186 23.296C64.615 22.6062 63.9444 22.0053 63.1962 21.5132C62.8511 21.2993 61.3559 20.7334 60.9303 20.7334C60.9303 20.7334 60.6796 20.7495 60.675 20.7587C60.5783 20.9772 61.5491 22.8336 61.7216 23.3098Z" fill="#36593F"/>
<path d="M63.5712 47.3876C63.5583 47.3906 63.545 47.3906 63.5321 47.3876C63.5122 47.3765 63.4973 47.3581 63.4904 47.3363C63.4836 47.3145 63.4853 47.2909 63.4953 47.2703C63.8933 46.5043 64.4615 45.2414 64.6317 44.7813C64.9583 43.8934 65.2528 42.9755 65.538 42.0876L65.683 41.639C66.4168 39.3593 67.0977 37.052 67.705 34.7838C67.9972 33.6912 68.2801 32.5801 68.5469 31.4851C68.5745 31.3701 68.6252 31.2228 68.6804 31.0687C68.8299 30.6431 69.0346 30.0588 68.8575 29.7759C68.7103 29.5459 68.4848 29.5114 68.1996 29.4722L68.011 29.4446C67.4819 29.3549 66.9551 29.2698 66.426 29.187C66.3953 29.1827 66.3668 29.1688 66.3445 29.1473C66.3222 29.1258 66.3073 29.0979 66.3018 29.0674C66.2967 29.0369 66.301 29.0056 66.3141 28.9777C66.3273 28.9497 66.3487 28.9264 66.3754 28.911C66.4444 28.8741 66.5824 28.8212 66.7733 28.7476C67.261 28.5636 68.1674 28.2162 68.2594 27.9333C68.2644 27.9179 68.2658 27.9016 68.2634 27.8856C68.261 27.8697 68.2549 27.8545 68.2456 27.8413L67.6797 26.9625C67.1874 26.1919 66.679 25.3983 66.1361 24.646C66.1296 24.6368 66.125 24.6264 66.1226 24.6154C66.1201 24.6044 66.1198 24.5931 66.1217 24.5819C66.1256 24.5595 66.1382 24.5395 66.1568 24.5264C66.1754 24.5133 66.1985 24.5081 66.2209 24.512C66.2434 24.5159 66.2633 24.5285 66.2765 24.5471C66.8216 25.2994 67.3323 26.0976 67.8246 26.8682C68.0133 27.1627 68.1996 27.4571 68.3905 27.747C68.4124 27.7806 68.4267 27.8186 68.4322 27.8584C68.4378 27.8981 68.4345 27.9386 68.4227 27.977C68.3146 28.3106 67.5785 28.6142 66.8355 28.8972L66.5295 29.0168C67.0333 29.0973 67.5371 29.1778 68.0386 29.2629L68.2226 29.2905C68.5124 29.3296 68.8138 29.3687 69.0047 29.6724C69.2348 30.0266 69.0047 30.6293 68.8437 31.1147C68.7908 31.2642 68.7402 31.4069 68.7149 31.515C68.448 32.6123 68.1651 33.7234 67.8729 34.8183C67.2633 37.0888 66.5824 39.3984 65.8463 41.6804L65.7037 42.1405C65.4184 43.0307 65.1217 43.9509 64.7835 44.8411C64.6133 45.3012 64.0405 46.5802 63.6333 47.3508C63.6262 47.361 63.617 47.3696 63.6062 47.3759C63.5955 47.3823 63.5836 47.3863 63.5712 47.3876Z" fill="#2B0303"/>
<path d="M45.9915 57.3718C45.8788 56.1572 44.0569 49.3757 43.8682 48.1703C43.4841 45.6835 42.8009 30.2825 41.9819 29.061C41.5379 28.3985 40.5143 27.7498 40.1416 28.4606C38.5313 31.5546 37.6112 37.2365 36.7669 41.7844C36.2724 44.4712 36.1619 46.4565 35.7203 49.1456C35.4005 51.0917 35.0923 53.7349 36.2264 55.4763C37.5307 57.4822 39.7068 57.8572 41.9773 58.1677C43.4381 58.3748 46.0835 58.338 45.9915 57.3718Z" fill="#36593F"/>
<path d="M59.9504 7.1773C59.9204 7.10496 59.8809 7.0369 59.8331 6.97487C59.6159 6.74196 59.352 6.55746 59.0587 6.43339C58.7654 6.30933 58.4492 6.24849 58.1308 6.25485C57.6063 6.28245 56.8242 6.48488 56.6954 7.175C56.5665 7.86511 56.8748 8.09515 57.3648 8.03764C57.6733 8.0174 57.9832 8.04141 58.2849 8.10895C58.7059 8.18717 59.1913 8.33899 59.6077 8.17567C60.024 8.01234 60.1091 7.55686 59.9504 7.1773Z" fill="#913939"/>
<path d="M50.9696 8.14359C51.3768 8.30231 51.853 8.16199 52.2625 8.08838C52.5641 8.02024 52.8744 7.99852 53.1826 8.02397C53.6611 8.07687 53.9716 7.88594 53.8451 7.16592C53.7186 6.4459 52.9595 6.26417 52.4465 6.23427C52.1338 6.22544 51.8228 6.28393 51.5347 6.40578C51.2465 6.52763 50.9879 6.70998 50.7764 6.94049C50.7281 7.00219 50.6886 7.07032 50.6591 7.14292C50.4912 7.52018 50.5832 7.99406 50.9696 8.14359Z" fill="#913939"/>
<path d="M81.383 34.4299C81.4589 34.4667 81.2289 34.3793 81.153 34.3931C80.7343 34.4667 78.1947 39.1296 77.2124 40.45C77.0284 40.6984 76.8374 40.9446 76.6465 41.1884C76.2232 43.1369 75.8023 45.0853 75.8437 47.0912C75.8759 48.7268 75.8782 50.1806 75.1536 51.692C75.1192 51.754 75.0698 51.8063 75.0099 51.8441C74.95 51.8819 74.8815 51.9039 74.8108 51.9082C74.866 52.0671 74.9435 52.2173 75.0408 52.3545C76.0875 53.806 77.96 53.1182 78.9308 52.3683C81.291 50.551 84.2217 44.4872 86.5957 37.6803L86.2805 37.2065C84.7709 37.0544 83.3515 36.4158 82.2364 35.3869C81.9297 35.0885 81.6445 34.7687 81.383 34.4299Z" fill="#36593F"/>
<path d="M64.9675 26.1161C64.6915 23.749 64.2176 21.3911 64.0474 19.0102C63.7874 15.1985 65.0388 11.3086 64.1325 7.58883C63.9461 5.49548 63.0858 3.42744 61.3145 2.19213C60.5396 1.64386 59.6325 1.31219 58.6867 1.23132C57.7409 1.15045 56.7906 1.3233 55.9339 1.73205C55.798 1.64854 55.6443 1.59811 55.4853 1.58483C54.3765 1.45831 52.9089 2.23814 52.1613 3.02027C51.2733 3.94042 50.85 5.42647 50.6016 6.64797C50.3199 8.06116 50.3036 9.51441 50.5533 10.9336C50.5586 10.9602 50.573 10.9841 50.594 11.0012C50.6149 11.0184 50.6412 11.0278 50.6683 11.0278C50.6954 11.0278 50.7217 11.0184 50.7427 11.0012C50.7636 10.9841 50.778 10.9602 50.7833 10.9336C51.1031 9.34632 51.577 7.67395 52.3936 6.26611C53.0837 5.09291 54.2339 4.36369 55.437 3.77249C55.4429 3.76902 55.4495 3.76705 55.4563 3.76675C55.4631 3.76646 55.4699 3.76785 55.4761 3.77081C55.4822 3.77377 55.4875 3.7782 55.4916 3.78371C55.4956 3.78923 55.4982 3.79564 55.4991 3.8024C55.7173 4.89266 56.2084 5.90978 56.9265 6.75865C57.6446 7.60751 58.5663 8.26038 59.6053 8.65621C59.6493 8.67316 59.688 8.70146 59.7175 8.73823C59.747 8.775 59.7662 8.81893 59.7732 8.86555C60.2333 12.369 59.5869 15.9484 59.833 19.4887C59.9849 21.6603 60.3368 23.7283 60.1896 25.9114C60.1068 27.1398 58.8347 34.5401 61.6296 33.7649C62.2047 33.6039 62.6993 33.4544 63.3112 33.551C64.0888 33.6729 65.3425 33.9926 65.7266 33.0679C65.9429 32.5411 65.1699 27.8345 64.9675 26.1161Z" fill="#913939"/>
<path d="M87.7228 27.6072C87.6929 28.1501 87.7551 28.8264 87.479 29.3026C87.1593 29.857 86.3288 30.2228 85.7399 29.8938C85.7204 29.8822 85.6971 29.8789 85.6751 29.8845C85.6531 29.8901 85.6342 29.9042 85.6226 29.9237C85.611 29.9432 85.6076 29.9666 85.6132 29.9886C85.6189 30.0106 85.633 30.0294 85.6525 30.041C86.2437 30.3815 86.8763 30.1354 87.3709 29.7213C87.9667 29.2244 87.8563 28.3042 87.8954 27.6072C87.8954 27.4968 87.7297 27.4968 87.7228 27.6072Z" fill="#C45547"/>
<path d="M88.7465 29.3369C88.6338 29.7486 88.413 30.3628 88.0449 30.6274C87.5526 30.9816 86.7521 30.6481 86.529 30.1374C86.4853 30.0362 86.3357 30.1236 86.3817 30.2248C86.5125 30.4704 86.714 30.6712 86.96 30.8012C87.206 30.9311 87.4854 30.9844 87.762 30.954C88.4061 30.8689 88.7672 29.9166 88.9122 29.3829C88.9183 29.3609 88.9154 29.3374 88.9042 29.3176C88.893 29.2977 88.8743 29.2832 88.8523 29.2771C88.8304 29.271 88.8069 29.2738 88.7871 29.2851C88.7672 29.2963 88.7526 29.3149 88.7465 29.3369Z" fill="#C45547"/>
<path d="M87.8218 30.9082C87.8218 31.5155 87.9897 32.2517 88.7028 32.3391C88.8132 32.3529 88.8132 32.1804 88.7028 32.1666C88.0932 32.0906 87.9966 31.4005 87.9943 30.9082C87.991 30.8878 87.9804 30.8692 87.9646 30.8558C87.9488 30.8423 87.9288 30.835 87.908 30.835C87.8873 30.835 87.8673 30.8423 87.8515 30.8558C87.8356 30.8692 87.8251 30.8878 87.8218 30.9082Z" fill="#C45547"/>
<path d="M86.3956 26.5421C86.3174 26.9677 86.2414 27.3933 86.1655 27.8189C86.1264 28.1175 85.977 28.3907 85.7469 28.5849C85.6226 28.6999 85.5835 28.6654 85.4731 28.7919C85.3429 28.9489 85.2697 29.1453 85.2656 29.3492C85.2614 29.5531 85.3264 29.7523 85.4501 29.9145C85.5145 30.0042 85.664 29.9145 85.5996 29.8271C85.0429 29.045 85.9493 28.9069 86.2161 28.3686C86.46 27.8787 86.4692 27.1241 86.5658 26.5881C86.5865 26.48 86.4209 26.4317 86.4002 26.5421H86.3956Z" fill="#C45547"/>
<path d="M83.5385 29.6703C83.5039 30.3213 83.497 30.9815 83.8835 31.5382C84.0859 31.8327 84.3689 32.0535 84.5598 32.3594C84.8109 32.7734 84.92 33.258 84.8704 33.7397C84.8704 33.8524 85.036 33.8501 85.0429 33.7397C85.094 33.1588 84.9303 32.5793 84.5828 32.111C84.3022 31.7314 83.941 31.4623 83.7869 30.9907C83.68 30.5623 83.652 30.118 83.7041 29.6795C83.7041 29.5691 83.5362 29.5691 83.5316 29.6795L83.5385 29.6703Z" fill="#C45547"/>
<path d="M64.3163 13.9451C64.7626 16.9356 63.7389 19.9422 64.4751 22.8982C64.5004 23.0063 64.6683 22.9603 64.6407 22.8521C63.9046 19.9008 64.9282 16.8712 64.482 13.8991C64.4659 13.7909 64.3002 13.8369 64.3163 13.9451Z" fill="#631F1F"/>
<path d="M62.8165 29.8819C63.019 30.6492 63.0143 31.4565 62.8027 32.2214C62.7966 32.2434 62.7995 32.2668 62.8107 32.2867C62.8219 32.3065 62.8405 32.3211 62.8625 32.3272C62.8845 32.3333 62.908 32.3304 62.9278 32.3192C62.9476 32.308 62.9622 32.2894 62.9683 32.2674C63.1868 31.4722 63.1916 30.6335 62.9821 29.8359C62.976 29.8139 62.9615 29.7953 62.9416 29.7841C62.9218 29.7729 62.8983 29.77 62.8763 29.7761C62.8543 29.7822 62.8357 29.7968 62.8245 29.8166C62.8133 29.8365 62.8104 29.8599 62.8165 29.8819Z" fill="#631F1F"/>
<path d="M58.4757 3.02482C59.7708 4.55228 59.856 6.58582 59.8997 8.49513C59.903 8.5156 59.9135 8.5342 59.9293 8.54762C59.9451 8.56105 59.9652 8.56842 59.9859 8.56842C60.0067 8.56842 60.0267 8.56105 60.0425 8.54762C60.0583 8.5342 60.0688 8.5156 60.0722 8.49513C60.0285 6.53521 59.925 4.46716 58.5976 2.9029C58.5263 2.81779 58.4044 2.93971 58.4757 3.02482Z" fill="#631F1F"/>
<path d="M50.7903 10.0939C50.4616 11.5897 50.298 13.1171 50.3026 14.6486C50.3059 14.6691 50.3165 14.6877 50.3323 14.7011C50.3481 14.7145 50.3681 14.7219 50.3888 14.7219C50.4096 14.7219 50.4296 14.7145 50.4454 14.7011C50.4612 14.6877 50.4718 14.6691 50.4751 14.6486C50.4703 13.1327 50.6316 11.6208 50.9559 10.1399C50.9789 10.0318 50.8133 9.98576 50.7903 10.0939Z" fill="#631F1F"/>
<path d="M70.1938 36.8887C70.2618 39.7078 70.5696 42.516 71.114 45.2828C71.5879 47.6982 72.0664 50.438 73.6099 52.4324C73.6766 52.5198 73.7985 52.3979 73.7318 52.3105C72.1745 50.2976 71.7075 47.4613 71.2382 45.0229C70.7261 42.34 70.4368 39.6193 70.3733 36.8887C70.3699 36.8682 70.3594 36.8496 70.3436 36.8362C70.3278 36.8228 70.3077 36.8154 70.287 36.8154C70.2663 36.8154 70.2462 36.8228 70.2304 36.8362C70.2146 36.8496 70.2041 36.8682 70.2007 36.8887H70.1938Z" fill="#2B0303"/>
<path d="M40.7973 32.6125C42.0121 36.9971 42.4787 41.5552 42.1775 46.0951C42.1775 46.2055 42.3408 46.2055 42.35 46.0951C42.6531 41.5367 42.1849 36.9599 40.9652 32.5573C40.9576 32.5369 40.9425 32.52 40.9231 32.5101C40.9037 32.5001 40.8813 32.4978 40.8602 32.5036C40.8392 32.5094 40.821 32.5228 40.8094 32.5412C40.7977 32.5597 40.7934 32.5818 40.7973 32.6033V32.6125Z" fill="#2B0303"/>
<path d="M71.7122 32.2375C71.2655 33.251 70.8866 34.2931 70.5781 35.3568C70.5751 35.3677 70.5742 35.379 70.5756 35.3903C70.577 35.4015 70.5805 35.4123 70.5861 35.4221C70.5916 35.4319 70.5991 35.4406 70.608 35.4475C70.6168 35.4545 70.627 35.4596 70.6379 35.4626C70.6488 35.4656 70.6601 35.4665 70.6713 35.4651C70.6825 35.4638 70.6934 35.4602 70.7032 35.4546C70.713 35.4491 70.7217 35.4416 70.7286 35.4328C70.7356 35.4239 70.7407 35.4137 70.7437 35.4028C71.048 34.354 71.4215 33.3266 71.8617 32.3272C71.9054 32.226 71.7559 32.1386 71.7122 32.2398V32.2375Z" fill="#2B0303"/>
<path d="M54.3165 20.54C54.3165 20.54 53.845 20.54 53.8358 20.54C53.4079 20.54 51.9126 21.0921 51.5653 21.3038C50.8131 21.7905 50.1378 22.3867 49.5617 23.0728C48.3563 24.453 47.4085 26.0127 46.4055 27.5309C46.1249 27.9542 47.7167 28.4327 47.9399 28.5477C47.9761 28.5668 48.0053 28.5969 48.0235 28.6335C48.0417 28.6702 48.048 28.7116 48.0414 28.752C48.0348 28.7924 48.0156 28.8298 47.9867 28.8587C47.9578 28.8877 47.9205 28.9068 47.8801 28.9134C47.4821 28.9732 47.0841 29.0331 46.6862 29.0998C46.3227 29.1573 45.9823 29.1389 45.7775 29.4632C45.5061 29.8865 45.9616 30.8021 46.0628 31.2391C46.3219 32.3464 46.5942 33.449 46.8794 34.5471C47.4806 36.8567 48.1377 39.1486 48.8508 41.4229C49.1798 42.4765 49.5041 43.537 49.8791 44.5745C50.1483 45.3267 51.3859 48.0457 51.3882 47.6455C51.3882 46.8932 51.402 44.7125 51.4043 43.9649C51.4043 42.6973 51.4043 41.4344 51.4227 40.1623C51.4434 37.7147 51.4917 35.2648 51.6527 32.8218C51.8183 30.4386 52.0553 28.06 52.4072 25.6906C52.5209 24.8089 52.7291 23.9421 53.0283 23.105C53.2124 22.6288 54.4201 20.7563 54.3165 20.54Z" fill="#36593F"/>
<path d="M51.0892 47.3393C51.0736 47.3391 51.0584 47.3347 51.045 47.3266C51.0317 47.3185 51.0207 47.307 51.0133 47.2933C50.6338 46.5778 49.9851 45.124 49.7964 44.6018C49.4744 43.707 49.1845 42.7799 48.9062 41.8851L48.7682 41.4457C48.0504 39.1591 47.3879 36.8449 46.7967 34.5675C46.5115 33.4702 46.2377 32.3546 45.9801 31.2573C45.9548 31.1515 45.9065 31.0088 45.8536 30.857C45.6879 30.3716 45.4786 29.7666 45.704 29.4147C45.8973 29.111 46.1963 29.0742 46.4885 29.0374L46.6725 29.0121C47.0705 28.9454 47.4684 28.8856 47.8664 28.8235C47.8891 28.8208 47.9104 28.8108 47.927 28.7951C47.9436 28.7793 47.9546 28.7586 47.9584 28.7361C47.9624 28.7133 47.959 28.6898 47.9486 28.6691C47.9383 28.6484 47.9215 28.6315 47.9009 28.621C47.8618 28.6026 47.7652 28.5635 47.6502 28.5221C47.0222 28.2921 46.3988 28.0229 46.2998 27.717C46.2874 27.6787 46.2838 27.6381 46.2894 27.5982C46.2949 27.5584 46.3095 27.5203 46.3321 27.4869C46.5237 27.1971 46.7139 26.9065 46.9025 26.6151C47.3994 25.8514 47.9147 25.06 48.4622 24.3147C48.4768 24.2996 48.4964 24.2903 48.5173 24.2884C48.5382 24.2866 48.5591 24.2923 48.5762 24.3046C48.5932 24.3169 48.6052 24.3349 48.6101 24.3554C48.6149 24.3758 48.6122 24.3973 48.6025 24.4159C48.055 25.1613 47.5421 25.948 47.0475 26.7163L46.4678 27.5767C46.4588 27.5892 46.4529 27.6036 46.4506 27.6187C46.4482 27.6339 46.4493 27.6494 46.454 27.6641C46.5368 27.9171 47.3534 28.2277 47.7031 28.3542C47.8319 28.4025 47.9331 28.437 47.9722 28.4623C48.0249 28.4896 48.0676 28.5328 48.0941 28.5859C48.1207 28.6389 48.1298 28.699 48.1201 28.7575C48.1104 28.816 48.0824 28.8699 48.0401 28.9115C47.9978 28.9532 47.9435 28.9803 47.8848 28.9891C47.4868 29.0489 47.0889 29.1087 46.6909 29.1754L46.5 29.2007C46.2147 29.2375 45.9893 29.2651 45.8398 29.4998C45.6603 29.7827 45.8605 30.367 46.0077 30.7949C46.0606 30.949 46.1112 31.0962 46.1388 31.2113C46.3942 32.3085 46.6702 33.4196 46.9555 34.5169C47.5444 36.792 48.2069 39.1016 48.9246 41.3882L49.0603 41.8275C49.341 42.7201 49.6285 43.6448 49.9506 44.5374C50.1369 45.055 50.7787 46.495 51.156 47.2058C51.1667 47.226 51.1691 47.2496 51.1626 47.2715C51.1562 47.2935 51.1414 47.312 51.1214 47.3232C51.1119 47.3306 51.101 47.3361 51.0892 47.3393Z" fill="#2B0303"/>
<path d="M58.1997 8.66328C57.2795 8.1687 57.1944 9.86638 57.7074 10.2528C58.1376 10.5749 58.4803 10.1401 58.5631 9.82728C58.6597 9.47762 58.6252 8.88872 58.1997 8.66328Z" fill="#170301"/>
<path d="M52.9088 8.6908C52.0714 8.20312 51.9886 9.9008 52.4487 10.2827C52.8398 10.6024 53.1572 10.1676 53.2331 9.8525C53.3297 9.50054 53.3021 8.91624 52.9088 8.6908Z" fill="#170301"/>
<path d="M54.3558 9.74207C54.2132 10.0273 54.0683 10.3425 54.1718 10.6622C54.3041 10.9428 54.5214 11.1746 54.7929 11.3247C54.8849 11.3891 54.97 11.2396 54.8803 11.1775C54.6598 11.0503 54.4778 10.8659 54.3535 10.6438C54.2385 10.3609 54.3788 10.0802 54.5053 9.82719C54.5537 9.72827 54.4041 9.64085 54.3558 9.73977V9.74207Z" fill="#C45547"/>
<path d="M55.3818 11.019C55.4641 10.9695 55.5618 10.9522 55.6561 10.9704C55.7504 10.9887 55.8346 11.0412 55.8925 11.1179C55.9592 11.2053 56.0811 11.0834 56.0144 10.996C55.9298 10.8915 55.8104 10.8212 55.6781 10.798C55.5457 10.7747 55.4094 10.8001 55.2944 10.8694C55.2001 10.9293 55.2944 11.0788 55.3818 11.019Z" fill="#C45547"/>
<path d="M56.939 11.9275C56.8194 11.8998 56.6951 11.8998 56.5755 11.9275C56.2328 11.9551 55.8854 12.0011 55.5519 12.0126C54.9905 12.0291 54.4287 12.0076 53.8703 11.9482C53.835 11.9435 53.7992 11.9494 53.7673 11.9651C53.7354 11.9808 53.7089 12.0057 53.6912 12.0365C53.6734 12.0673 53.6652 12.1027 53.6676 12.1381C53.67 12.1736 53.6829 12.2076 53.7047 12.2357C53.7014 12.268 53.707 12.3006 53.7208 12.33C54.0221 12.9741 54.4615 13.4273 55.2505 13.4664C55.5342 13.4802 55.8175 13.4339 56.0819 13.3304C56.3464 13.2269 56.5859 13.0687 56.7849 12.866C56.9942 12.6521 57.3968 12.1184 56.939 11.9275Z" fill="#A14532"/>
<path d="M57.1484 12.2104C57.1486 12.147 57.1283 12.0852 57.0906 12.0342C57.0529 11.9832 56.9997 11.9458 56.939 11.9275C56.8195 11.8998 56.6952 11.8998 56.5756 11.9275C56.2328 11.9551 55.8855 12.0011 55.5519 12.0126C55.113 12.0249 54.6738 12.0141 54.2361 11.9804C54.3189 13.0868 56.3156 12.5877 57.1484 12.2104Z" fill="white"/>
<path d="M54.5399 31.9522C55.7948 33.0101 57.4109 33.5403 59.0486 33.4314C59.159 33.4314 59.159 33.2519 59.0486 33.2588C57.4565 33.3688 55.8838 32.8567 54.6618 31.8303C54.5767 31.7613 54.4547 31.8809 54.5399 31.9522Z" fill="#2B0303"/>
<path d="M53.4035 24.3589C54.3522 24.5881 55.2801 24.8958 56.1778 25.279C56.279 25.3228 56.3664 25.1732 56.2652 25.1295C55.3538 24.741 54.4121 24.4279 53.4495 24.1933C53.428 24.1894 53.4059 24.1937 53.3874 24.2054C53.369 24.217 53.3556 24.2352 53.3498 24.2562C53.344 24.2773 53.3463 24.2997 53.3563 24.3191C53.3662 24.3385 53.383 24.3535 53.4035 24.3612V24.3589Z" fill="#C45547"/>
<path d="M59.6974 24.5979L58.0273 25.0786C58.0053 25.0847 57.9867 25.0993 57.9755 25.1192C57.9643 25.139 57.9614 25.1625 57.9675 25.1845C57.9736 25.2064 57.9882 25.2251 58.008 25.2363C58.0279 25.2475 58.0513 25.2504 58.0733 25.2443L59.7434 24.7635C59.7653 24.7574 59.784 24.7428 59.7952 24.723C59.8064 24.7031 59.8093 24.6796 59.8032 24.6577C59.7971 24.6357 59.7825 24.6171 59.7627 24.6059C59.7428 24.5946 59.7193 24.5918 59.6974 24.5979Z" fill="#C45547"/>
<path d="M94.0559 59.3982C93.3519 58.3331 92.602 58.018 91.3529 57.9858C87.877 57.88 84.3873 57.9444 80.9092 57.9237L60.0217 57.7995C52.1084 57.7535 28.5064 57.4682 24.6326 57.6062C22.6082 57.6775 22.3 58.5149 21.2671 60.3667C19.5993 63.3572 15.3298 72.1447 15.0561 73.426C14.8559 74.3576 15.4931 74.8959 16.3466 75.0822C17.5405 75.3422 90.2947 75.9403 97.373 75.4365C98.1298 75.3836 99.4065 75.5423 99.9494 74.8591C100.044 74.7395 100.002 74.3484 99.8597 73.7641C99.0247 70.3596 94.746 60.4426 94.0559 59.3982Z" fill="#DEAD90"/>
<path d="M71.5834 58.9105C71.5377 58.8511 71.4796 58.8024 71.4131 58.7679C71.2659 58.692 70.8886 58.7679 70.723 58.7679L66.4811 58.7472L52.4488 58.6943L42.311 58.6552H41.9475C41.8659 58.6518 41.7849 58.6716 41.7141 58.7123C41.6433 58.753 41.5854 58.813 41.5472 58.8852C41.5107 58.9202 41.4797 58.9605 41.4552 59.0048C40.5351 60.7393 39.6433 62.4922 38.7799 64.2635C38.747 64.3358 38.7313 64.4147 38.7339 64.4941C38.7366 64.5734 38.7575 64.6511 38.7952 64.721C38.8328 64.791 38.8861 64.8512 38.9509 64.8972C39.0157 64.9431 39.0902 64.9734 39.1686 64.9858C39.2531 65.0598 39.3623 65.0992 39.4746 65.0962L72.9015 65.2251C73.3063 65.2251 73.472 64.5648 73.3615 64.2727C73.0924 63.5274 71.9629 59.3775 71.5834 58.9105Z" fill="white"/>
<path d="M72.5473 64.7625L39.2446 64.6336C39.2321 64.6357 39.2193 64.635 39.2071 64.6316C39.1949 64.6282 39.1835 64.6222 39.1739 64.614C39.1642 64.6058 39.1565 64.5956 39.1511 64.5841C39.1458 64.5726 39.1431 64.5601 39.1431 64.5474C39.1431 64.5347 39.1458 64.5222 39.1511 64.5107C39.1565 64.4992 39.1642 64.489 39.1739 64.4808C39.1835 64.4725 39.1949 64.4665 39.2071 64.4631C39.2193 64.4598 39.2321 64.4591 39.2446 64.4611L72.5473 64.5899C72.5701 64.5899 72.592 64.5988 72.6083 64.6147C72.6246 64.6306 72.6341 64.6523 72.6347 64.675C72.6341 64.698 72.6247 64.7199 72.6084 64.7362C72.5922 64.7525 72.5703 64.7619 72.5473 64.7625Z" fill="#2B0303"/>
<path d="M49.7964 58.8001C49.3026 60.6282 48.8065 62.4562 48.3081 64.2842C48.302 64.3062 48.3048 64.3297 48.3161 64.3495C48.3273 64.3694 48.3459 64.384 48.3679 64.3901C48.3898 64.3962 48.4133 64.3933 48.4332 64.3821C48.453 64.3709 48.4676 64.3522 48.4737 64.3302C48.9675 62.5022 49.4629 60.6734 49.9597 58.8438C49.9655 58.8219 49.9624 58.7985 49.9509 58.7789C49.9395 58.7592 49.9207 58.745 49.8988 58.7392C49.8768 58.7334 49.8535 58.7365 49.8338 58.748C49.8142 58.7594 49.7999 58.7782 49.7941 58.8001H49.7964Z" fill="#2B0303"/>
<path d="M53.0652 57.4865C52.7248 56.8286 52.3544 56.1799 51.9956 55.5289C51.7655 55.1148 51.5355 54.7008 51.1007 54.4569C50.3324 54.036 49.4329 54.2775 48.7405 54.7192L48.683 54.6709C47.8388 54.0291 46.8427 54.5904 46.1526 55.2023C45.7523 55.1356 45.3428 55.2828 44.9449 55.7682C44.869 55.8579 44.5009 55.8418 44.3905 55.8602C44.2755 55.8653 44.1629 55.8948 44.0602 55.9468C43.9575 55.9987 43.867 56.0719 43.7947 56.1615C43.5376 56.4782 43.351 56.846 43.2472 57.2404C43.0632 57.9305 43.7073 58.5585 44.3813 58.5079C44.4055 58.5067 44.4283 58.4963 44.445 58.4787C44.4617 58.4612 44.471 58.4378 44.471 58.4136C44.5295 58.546 44.5772 58.6829 44.6136 58.8231C44.7217 59.2647 44.724 59.8168 45.0737 60.1734C45.7937 60.9072 46.309 60.0193 46.3734 59.3982C46.3918 59.221 46.4056 59.0232 46.4102 58.8162L46.4654 58.8622C46.5147 58.9022 46.572 58.9312 46.6334 58.9473C46.6599 58.9849 46.6935 59.0169 46.7323 59.0416C47.404 59.4902 48.1125 60.576 49.104 60.2148C49.177 60.1973 49.2459 60.1655 49.3066 60.1213C49.3673 60.0771 49.4187 60.0213 49.4578 59.9572C49.4969 59.893 49.523 59.8218 49.5345 59.7476C49.546 59.6734 49.5428 59.5976 49.5249 59.5247C50.054 60.017 50.6912 60.3965 51.3653 60.0998C51.4618 60.067 51.5506 60.0148 51.6262 59.9464C51.7018 59.8779 51.7625 59.7947 51.8046 59.7018C51.9408 59.8059 52.104 59.8688 52.2748 59.8831C52.4456 59.8974 52.6169 59.8624 52.7685 59.7823C53.7277 59.3131 53.4287 58.1951 53.0652 57.4865Z" fill="#EB8B65"/>
<path d="M49.0189 54.8987C50.3232 55.904 50.9972 57.6431 51.5838 59.1291C51.6252 59.2303 51.7908 59.1866 51.7517 59.0831C51.1398 57.5395 50.4612 55.7936 49.1063 54.7492C49.0189 54.6825 48.9315 54.832 49.0189 54.8987Z" fill="#C45547"/>
<path d="M46.7784 55.5729C47.4984 55.8536 47.8872 56.5161 48.2575 57.1556C48.6655 57.8595 49.0834 58.5558 49.5112 59.2443C49.5711 59.3387 49.7206 59.2443 49.6608 59.1569C49.1432 58.3288 48.6739 57.4684 48.154 56.6403C47.8182 56.1043 47.4271 55.6396 46.8221 55.4073C46.7186 55.3682 46.6749 55.5338 46.7784 55.5729Z" fill="#C45547"/>
<path d="M44.9794 56.1337C45.7156 56.5064 46.0951 57.5922 46.2723 58.3467C46.2953 58.4548 46.4632 58.4088 46.4379 58.3007C46.2493 57.4864 45.8582 56.3868 45.0577 55.9842C44.9587 55.9359 44.8713 56.0831 44.9702 56.1337H44.9794Z" fill="#C45547"/>
<path d="M77.1618 40.4155C76.2416 41.8164 75.3698 43.2611 75.1605 44.9519C75.1467 45.0623 75.3192 45.0623 75.333 44.9519C75.5377 43.2956 76.4165 41.8716 77.3113 40.5029C77.3711 40.4086 77.2216 40.3235 77.1618 40.4155Z" fill="#2B0303"/>
<path d="M85.6617 37.2134C85.8261 37.2855 86.0043 37.3209 86.1838 37.3169C86.2043 37.3136 86.2229 37.3031 86.2363 37.2873C86.2498 37.2715 86.2571 37.2514 86.2571 37.2307C86.2571 37.2099 86.2498 37.1899 86.2363 37.1741C86.2229 37.1583 86.2043 37.1478 86.1838 37.1444C86.0347 37.1503 85.8862 37.1228 85.7491 37.0639C85.6479 37.0225 85.5604 37.1697 85.6617 37.2134Z" fill="#2B0303"/>
<path d="M90.8837 63.3388C90.8173 63.2031 90.7287 63.0795 90.6214 62.9731C89.0664 61.1189 83.5133 61.257 81.7305 62.4808C81.1646 62.8718 81.2014 63.7391 81.2267 64.3027C81.4153 68.5699 82.6368 70.5873 83.1383 70.8266C85.303 71.8548 87.0904 71.9261 89.2458 70.9071C89.3648 70.8214 89.4669 70.7146 89.5472 70.5919C90.1476 69.4992 90.8331 67.353 90.9964 64.6776C91.0491 64.2283 91.0107 63.773 90.8837 63.3388Z" fill="#FAE1D2"/>
<path d="M86.2484 64.2173C86.8948 64.2173 87.5412 64.2288 88.1853 64.1759C88.6193 64.1254 89.0451 64.0203 89.4528 63.863C89.8347 63.7342 90.4075 63.3547 90.1084 62.8877C89.7726 62.3609 88.8777 62.2252 88.3187 62.0733C87.6977 61.9218 87.0639 61.8287 86.4255 61.795C85.5264 61.7332 84.6232 61.8108 83.7478 62.025C83.3244 62.0887 82.9123 62.2126 82.524 62.3931C82.1284 62.6231 81.8201 63.1246 82.2572 63.4789C82.576 63.7014 82.9408 63.8492 83.3246 63.9113C84.1821 64.1022 85.0571 64.2032 85.9355 64.2127L86.2484 64.2173Z" fill="#964939"/>
<path d="M99.2385 51.7311C99.2289 51.3375 99.1008 50.9559 98.871 50.6362C98.6412 50.3165 98.3203 50.0736 97.9503 49.9391C95.9029 49.1224 94.0396 50.4843 92.595 51.9289C94.0327 49.6285 95.5717 47.3718 96.6298 44.8644C97.1658 43.5992 97.8329 42.0119 97.6374 40.6064C97.4879 39.5298 96.6735 38.6787 95.5395 38.8213C94.4054 38.9639 93.2391 39.6103 92.2959 40.2729C91.1296 41.0955 90.0929 42.0879 89.2203 43.2173C86.8435 46.2735 85.3266 49.9093 84.8266 53.7485C84.7714 54.1741 84.6908 55.0482 84.654 56.1018C84.6535 56.1223 84.646 56.1421 84.6326 56.1577C84.6193 56.1734 84.601 56.184 84.5808 56.1878C84.5606 56.1915 84.5397 56.1882 84.5216 56.1785C84.5036 56.1687 84.4894 56.153 84.4815 56.134C84.3182 55.7084 84.1388 55.2944 83.9386 54.8918C83.6097 54.2247 83.0852 53.2815 82.2869 53.1021C81.5968 52.9411 81.0516 53.4564 80.8078 54.0499C80.1729 55.5934 81.2196 57.6546 81.9948 58.9658C83.329 61.2179 86.6347 64.9928 89.1743 62.1288C90.3636 60.79 91.7553 59.695 93.1839 58.623C94.9137 57.3256 96.6919 56.0374 98.0653 54.3489C98.6726 53.6036 99.2753 52.734 99.2385 51.7311Z" fill="#FAE1D2"/>
<path d="M92.151 52.5709C90.2109 54.8966 88.8144 57.6261 88.0632 60.5601C88.0602 60.571 88.0593 60.5823 88.0607 60.5935C88.0621 60.6047 88.0656 60.6156 88.0712 60.6254C88.0767 60.6352 88.0842 60.6439 88.0931 60.6508C88.102 60.6578 88.1121 60.6629 88.123 60.6659C88.1339 60.6689 88.1452 60.6698 88.1564 60.6684C88.1676 60.6671 88.1785 60.6635 88.1883 60.6579C88.1981 60.6524 88.2068 60.6449 88.2137 60.6361C88.2207 60.6272 88.2258 60.617 88.2288 60.6061C88.9724 57.7007 90.3539 54.9975 92.2729 52.6928C92.3442 52.6077 92.2223 52.4858 92.151 52.5709Z" fill="#2B0303"/>
<path d="M37.5883 65.9245C37.678 65.6577 37.54 65.0757 37.1996 65.0527C34.8532 64.8847 26.9951 64.3902 25.7345 64.2935C25.6423 64.284 25.5492 64.294 25.4612 64.323C25.3732 64.3519 25.2923 64.3991 25.2238 64.4615C25.2238 64.4615 23.25 67.452 22.7808 68.333C22.6864 68.5101 22.8429 68.7218 23.0844 68.7402C25.2629 68.9035 33.7513 69.5568 35.6468 69.681C35.746 69.693 35.8465 69.6751 35.9354 69.6297C36.0244 69.5842 36.0977 69.5131 36.146 69.4257C36.5233 68.6022 37.2663 66.8861 37.5883 65.9245Z" fill="#59242E"/>
<path d="M48.8602 61.5654C37.6136 60.9098 26.5189 59.7435 15.2746 59.0902C15.0284 59.0631 14.7987 58.9532 14.6232 58.7785C14.4477 58.6038 14.3367 58.3747 14.3084 58.1286C13.3423 51.7543 11.732 45.8446 10.759 39.4725C10.6577 38.7962 11.1247 38.2119 11.7366 38.2487C22.9832 38.902 34.7221 39.6036 45.9686 40.2593C46.2148 40.2863 46.4445 40.3962 46.62 40.5709C46.7956 40.7456 46.9066 40.9748 46.9348 41.2208C47.5306 45.1315 49.8494 60.544 49.8356 60.3416C49.9391 61.0156 49.4721 61.5999 48.8602 61.5654Z" fill="#59242E"/>
<path d="M33.9743 50.2243C34.2364 51.226 34.4437 52.2412 34.5954 53.2655C34.6782 53.793 34.7549 54.3206 34.8254 54.8481L34.8737 55.23C34.9 55.3414 34.8936 55.458 34.8553 55.5658C34.7771 55.7315 34.6253 55.7499 34.4665 55.7476C33.3716 55.7292 32.2766 55.6648 31.1839 55.6026C29.7883 55.5244 28.3928 55.4309 26.9972 55.322C26.4267 55.276 25.847 55.23 25.2903 55.1725C25.0764 55.1495 24.8624 55.1265 24.6485 55.0989L24.4185 55.069C24.3229 55.0544 24.2344 55.0101 24.1654 54.9424C24.0965 54.8747 24.0506 54.787 24.0343 54.6917C23.8549 53.8912 23.6915 53.0814 23.5213 52.2878C23.3212 51.3515 23.1095 50.4176 22.9301 49.4767C22.9202 49.4358 22.9126 49.3943 22.9071 49.3525C22.9071 49.3226 22.9071 49.3525 22.9071 49.3387C22.9229 49.2764 22.9615 49.2222 23.0152 49.1869C23.1487 49.0926 23.3718 49.1409 23.5282 49.1478C23.9331 49.1685 24.3403 49.1961 24.7451 49.2237C25.9045 49.3019 27.0631 49.3878 28.221 49.4813C29.4065 49.5733 30.5904 49.6715 31.7728 49.7758C32.4445 49.8356 33.1645 49.877 33.8086 49.9782C33.8326 49.9815 33.8564 49.9861 33.8799 49.992C33.8799 49.992 33.9053 49.992 33.8799 49.992C33.8546 49.992 33.8799 49.992 33.8961 50.0311C33.9309 50.0919 33.9579 50.1568 33.9766 50.2243C33.9827 50.2463 33.9972 50.265 34.0171 50.2762C34.0369 50.2874 34.0604 50.2903 34.0824 50.2842C34.1043 50.2781 34.123 50.2635 34.1342 50.2436C34.1454 50.2238 34.1483 50.2003 34.1422 50.1783C34.0985 50.0334 34.0433 49.8517 33.8822 49.8195C33.7925 49.8011 33.7005 49.7919 33.6108 49.7827C33.2657 49.7413 32.9207 49.7091 32.5756 49.6769C31.4346 49.571 30.2929 49.4729 29.1504 49.3824C27.8974 49.2812 26.6422 49.1853 25.3846 49.0949L23.9216 48.9982L23.3879 48.9683C23.1579 48.9683 22.9439 48.9476 22.7944 49.157C22.7606 49.2049 22.7389 49.2602 22.7313 49.3184C22.7237 49.3765 22.7304 49.4356 22.7507 49.4905C22.7783 49.6423 22.8105 49.7942 22.8404 49.9506C22.9462 50.4613 23.0543 50.972 23.1648 51.4827C23.381 52.4971 23.6018 53.5093 23.8158 54.5261C23.8338 54.664 23.871 54.7987 23.9262 54.9263C24.0711 55.1955 24.3265 55.2392 24.5979 55.2737C25.0856 55.3358 25.5756 55.3818 26.0632 55.4232C27.4665 55.5474 28.8697 55.6533 30.2752 55.7292C31.5336 55.8074 32.8057 55.881 34.0548 55.9178C34.2693 55.9466 34.4867 55.9466 34.7012 55.9178C35.1613 55.7913 35.0416 55.2392 34.9979 54.8895C34.8645 53.8452 34.7104 52.8031 34.501 51.7702C34.3952 51.2411 34.2848 50.712 34.1422 50.1921C34.1379 50.1699 34.125 50.1502 34.1062 50.1375C34.0874 50.1248 34.0644 50.12 34.0421 50.1243C34.0199 50.1286 34.0002 50.1415 33.9875 50.1603C33.9747 50.179 33.97 50.2021 33.9743 50.2243Z" fill="#2B0303"/>
<path d="M32.9161 66.7343C32.502 63.0352 31.5842 56.1525 30.97 52.5179C30.9316 52.3359 30.8378 52.1703 30.7015 52.0438C30.5651 51.9173 30.3929 51.8362 30.2085 51.8117L26.6452 51.4735C26.5627 51.4597 26.478 51.4659 26.3983 51.4916C26.3186 51.5173 26.2463 51.5618 26.1875 51.6214C26.1286 51.6809 26.0849 51.7537 26.0601 51.8337C26.0353 51.9136 26.03 51.9984 26.0448 52.0808C26.735 57.4982 27.195 61.5124 27.899 66.9321C27.931 67.1198 28.0225 67.2922 28.16 67.424C28.2976 67.5557 28.4738 67.6397 28.6627 67.6636L31.9269 67.728C32.0333 67.7404 32.1411 67.727 32.2412 67.689C32.3413 67.651 32.4307 67.5894 32.502 67.5095C32.5802 67.4198 32.6584 67.3301 32.7321 67.2426C32.7983 67.1767 32.8491 67.0969 32.8809 67.009C32.9127 66.9211 32.9247 66.8273 32.9161 66.7343Z" fill="#59242E"/>
<path d="M45.2141 41.1306C44.6988 41.0915 44.1835 41.057 43.6682 41.0225L41.078 40.8545L37.6895 40.6406L33.749 40.3944L29.5002 40.1299C28.0617 40.0425 26.6247 39.9528 25.1893 39.8608L21.0624 39.6008L17.3634 39.3708L14.3268 39.1683C13.6367 39.1223 12.9305 39.074 12.2335 39.0188L11.8838 38.9912C11.7734 38.9912 11.7734 39.1545 11.8838 39.1637C12.498 39.2143 13.1099 39.2581 13.7241 39.2995C14.6658 39.3654 15.6059 39.4291 16.5444 39.4904L20.1008 39.7204L24.1541 39.9689L28.442 40.238L32.7299 40.5049L36.7694 40.7556L40.3166 40.9856L43.1369 41.1674C43.7419 41.2065 44.3469 41.2456 44.9519 41.2916L45.2233 41.31C45.3337 41.31 45.3337 41.1467 45.2233 41.1375L45.2141 41.1306Z" fill="#2B0303"/>
<path d="M26.4038 52.1379L29.093 52.4047L29.6359 52.4599C29.7591 52.4601 29.8784 52.5034 29.973 52.5825C30.0675 52.6615 30.1314 52.7711 30.1535 52.8924C30.2777 53.6124 30.3582 54.3416 30.4617 55.0639C30.602 56.0577 30.7493 57.0492 30.9218 58.0383C31.1518 59.4669 31.3819 60.8931 31.6119 62.3217C31.8419 63.7502 32.0467 65.1695 32.187 66.6027L32.2215 66.9914C32.2215 67.1019 32.4032 67.1019 32.394 66.9914C32.2813 65.6112 32.072 64.2172 31.8649 62.8392C31.6349 61.3394 31.4049 59.8487 31.1518 58.3443C30.9908 57.3597 30.8374 56.3729 30.6917 55.3837C30.5813 54.6169 30.4724 53.8501 30.3651 53.0833C30.3571 52.9152 30.314 52.7507 30.2386 52.6002C30.1858 52.5183 30.1159 52.4487 30.0337 52.3963C29.9515 52.3439 29.859 52.3099 29.7624 52.2966C29.6635 52.2828 29.5646 52.2759 29.4633 52.2667L26.4935 51.9722H26.4153C26.3049 51.9607 26.3049 52.1333 26.4153 52.1448L26.4038 52.1379Z" fill="#2B0303"/>
<path d="M31.9591 59.7409C31.9382 59.7406 31.9181 59.7327 31.9025 59.7188C31.8869 59.7048 31.8768 59.6858 31.874 59.665L30.9033 52.665C30.8936 52.5822 30.8635 52.5032 30.8158 52.4349L30.6617 52.221C30.6113 52.1514 30.5471 52.0931 30.4731 52.0495C30.399 52.006 30.3168 51.9782 30.2315 51.9679L26.8408 51.5723C26.7304 51.5585 26.619 51.5882 26.5302 51.6551L26.2772 51.8414C26.2327 51.8744 26.1977 51.9186 26.1759 51.9695C26.1541 52.0205 26.1461 52.0763 26.153 52.1313L27.0087 59.3614C27.0089 59.3829 27.0012 59.4037 26.9869 59.4199C26.9727 59.436 26.9531 59.4464 26.9317 59.449C26.9103 59.4515 26.8888 59.4461 26.8712 59.4338C26.8535 59.4214 26.8411 59.403 26.8362 59.3821L25.9942 52.1635C25.982 52.0765 25.9935 51.9878 26.0275 51.9068C26.0616 51.8259 26.1168 51.7556 26.1875 51.7034L26.4382 51.5171C26.5617 51.4234 26.7168 51.3813 26.8707 51.3997L30.2637 51.7954C30.3729 51.8083 30.4781 51.8438 30.5728 51.8997C30.6675 51.9555 30.7494 52.0305 30.8135 52.1198L30.9677 52.3337C31.0291 52.4214 31.0693 52.5222 31.085 52.6281L32.0557 59.6305C32.0577 59.6418 32.0573 59.6533 32.0546 59.6643C32.0519 59.6754 32.0469 59.6858 32.04 59.6949C32.0331 59.704 32.0244 59.7115 32.0144 59.7171C32.0045 59.7226 31.9935 59.726 31.9821 59.7271L31.9591 59.7409Z" fill="#2B0303"/>
<path d="M36.8615 65.5981C36.5831 66.4078 36.2427 67.1945 35.9022 67.9813L35.6561 68.5495C35.617 68.6369 35.5802 68.7243 35.5434 68.8117C35.5272 68.8659 35.4998 68.9161 35.4628 68.9589C35.437 68.9807 35.4068 68.9965 35.3742 69.0053C35.3416 69.014 35.3074 69.0155 35.2742 69.0096C35.1546 69.0096 35.0442 68.9958 34.9199 68.9889C34.1355 68.9359 33.3511 68.8761 32.569 68.814L29.238 68.5541L25.8679 68.2849C25.0651 68.2205 24.2577 68.1584 23.4571 68.0986L23.2708 68.0848C23.1604 68.0848 23.1604 68.2481 23.2708 68.2573C24.0345 68.3125 24.796 68.3724 25.5574 68.4322L28.9251 68.7013L32.3573 68.9705C33.1855 69.0349 34.0136 69.0993 34.8417 69.1545L35.1983 69.1775C35.2632 69.1904 35.3301 69.1901 35.3949 69.1766C35.4597 69.1632 35.5211 69.1369 35.5756 69.0993C35.6818 68.9532 35.7598 68.7886 35.8056 68.6139C36.1438 67.8226 36.4957 67.0335 36.804 66.2284C36.8776 66.0352 36.9489 65.8396 37.0156 65.6441C37.0524 65.5383 36.8868 65.4923 36.85 65.5981H36.8615Z" fill="#2B0303"/>
<path d="M27.5402 64.4798L27.7242 65.8945L27.8278 66.6997C27.8577 66.9297 27.8991 67.1482 28.1406 67.2472C28.4391 67.3506 28.7474 67.4231 29.0608 67.4634C29.5392 67.5508 30.0223 67.6152 30.5077 67.6612C30.8022 67.6888 31.0966 67.7095 31.3911 67.7233C31.5429 67.7233 31.697 67.7371 31.8511 67.7417C31.9771 67.759 32.1048 67.759 32.2307 67.7417C32.3537 67.6878 32.4612 67.604 32.5435 67.4979C32.6586 67.3783 32.7736 67.2518 32.8725 67.1252C32.9392 67.0447 33.0036 66.9918 32.9898 66.8837C32.9668 66.7135 32.9392 66.5432 32.9116 66.373C32.8265 65.8186 32.7414 65.2619 32.6816 64.7029C32.6816 64.5948 32.4975 64.5925 32.509 64.7029C32.5574 65.163 32.6218 65.6231 32.6908 66.0832C32.7207 66.2833 32.7529 66.4811 32.7828 66.679L32.8104 66.8699C32.8104 66.8814 32.8104 66.9182 32.8104 66.9274C32.8104 66.9366 32.861 66.8837 32.8288 66.8998C32.7966 66.9159 32.7713 66.9711 32.7529 66.9941L32.6126 67.1597C32.5113 67.2825 32.4014 67.3978 32.2836 67.5048C32.2521 67.5376 32.2146 67.5642 32.1732 67.583C32.1083 67.5923 32.0425 67.5923 31.9777 67.583H31.7315C31.434 67.5738 31.1372 67.5577 30.8413 67.5347C30.0142 67.4838 29.1935 67.3583 28.3891 67.1597C28.2234 67.116 28.0578 67.0677 28.0187 66.8745C28.0187 66.8308 28.0187 66.7871 28.0026 66.7434C27.9704 66.5018 27.9405 66.2626 27.9083 66.0211C27.8416 65.5127 27.7772 65.0043 27.7104 64.4959C27.6966 64.3855 27.5218 64.3855 27.5379 64.4959L27.5402 64.4798Z" fill="#2B0303"/>
<path d="M45.7776 41.4118C46.1319 43.9423 46.4854 46.4727 46.8381 49.0031C47.1908 51.5335 47.5443 54.064 47.8986 56.5944C48.0964 58.016 48.295 59.4377 48.4944 60.8593C48.5105 60.9697 48.6761 60.9237 48.66 60.8133C48.3073 58.2829 47.9538 55.7524 47.5995 53.222C47.2453 50.6916 46.8918 48.1612 46.5391 45.6308L45.9387 41.3681C45.9249 41.2577 45.7592 41.3037 45.773 41.4118H45.7776Z" fill="#2B0303"/>
<path d="M0.0783113 27.5084C0.0783113 30.0894 0.0783113 32.6704 0.0783113 35.2514C0.0783113 35.8818 0.499282 36.1187 1.02147 36.1992C1.54288 36.2394 2.06662 36.2394 2.58803 36.1992C3.92225 36.1992 8.92559 36.3142 10.2598 36.3188C14.9503 36.3372 19.1117 36.3602 23.8022 36.3786H23.8459C23.9655 36.4223 25.8219 37.3931 26.1808 37.4805C26.1921 37.4829 26.2039 37.4821 26.2148 37.4782C26.2257 37.4742 26.2353 37.4673 26.2424 37.4583C26.2496 37.4492 26.2541 37.4382 26.2554 37.4267C26.2567 37.4152 26.2548 37.4036 26.2498 37.3931C25.9415 36.8157 25.5597 36.19 25.3296 35.6494C25.2992 35.5766 25.2843 35.4983 25.2859 35.4194C25.2859 34.9593 25.3135 33.3053 25.3158 32.8038C25.3158 30.492 25.3158 28.1801 25.3158 25.8682C25.3167 25.7436 25.293 25.6201 25.2461 25.5048C25.1991 25.3894 25.1298 25.2845 25.0422 25.196C24.9545 25.1075 24.8503 25.0372 24.7354 24.9891C24.6205 24.941 24.4972 24.9161 24.3727 24.9158L0.625803 24.7364C-0.308153 24.7226 0.0806117 26.9425 0.0783113 27.5084Z" fill="#CF5F4C"/>
<path d="M22.3138 27.8137L3.00902 27.7401C2.99651 27.7421 2.98371 27.7414 2.97149 27.738C2.95928 27.7347 2.94795 27.7286 2.93829 27.7204C2.92863 27.7122 2.92087 27.702 2.91555 27.6905C2.91023 27.679 2.90747 27.6665 2.90747 27.6538C2.90747 27.6411 2.91023 27.6286 2.91555 27.6171C2.92087 27.6056 2.92863 27.5954 2.93829 27.5872C2.94795 27.579 2.95928 27.573 2.97149 27.5696C2.98371 27.5662 2.99651 27.5655 3.00902 27.5676L22.3138 27.6412C22.3368 27.6418 22.3587 27.6511 22.375 27.6674C22.3913 27.6837 22.4007 27.7056 22.4013 27.7286C22.4013 27.74 22.399 27.7512 22.3946 27.7617C22.3901 27.7722 22.3837 27.7817 22.3755 27.7896C22.3674 27.7975 22.3577 27.8037 22.3471 27.8079C22.3365 27.812 22.3252 27.814 22.3138 27.8137Z" fill="#2B0303"/>
<path d="M22.2999 30.5145L2.99044 30.4386C2.97917 30.4389 2.96796 30.4369 2.95749 30.4327C2.94702 30.4286 2.93751 30.4223 2.92955 30.4143C2.92158 30.4064 2.91532 30.3969 2.91115 30.3864C2.90699 30.3759 2.905 30.3647 2.90532 30.3535C2.90367 30.3414 2.90464 30.329 2.90818 30.3173C2.91171 30.3056 2.91771 30.2949 2.92579 30.2857C2.93386 30.2765 2.94382 30.2692 2.95497 30.2642C2.96613 30.2592 2.97822 30.2567 2.99044 30.2568L22.2976 30.3328C22.3201 30.3328 22.3418 30.3417 22.3577 30.3577C22.3737 30.3736 22.3827 30.3953 22.3827 30.4179C22.3839 30.4297 22.3828 30.4417 22.3792 30.4531C22.3757 30.4645 22.3699 30.475 22.3621 30.4841C22.3544 30.4931 22.3448 30.5005 22.3341 30.5057C22.3234 30.5109 22.3118 30.5139 22.2999 30.5145Z" fill="#2B0303"/>
<path d="M22.2884 33.2129L2.99052 33.1393C2.97006 33.136 2.95145 33.1255 2.93803 33.1097C2.92461 33.0939 2.91724 33.0738 2.91724 33.0531C2.91724 33.0323 2.92461 33.0123 2.93803 32.9965C2.95145 32.9807 2.97006 32.9701 2.99052 32.9668L22.2953 33.0404C22.3185 33.0404 22.3408 33.0496 22.3572 33.066C22.3735 33.0824 22.3828 33.1046 22.3828 33.1278C22.3828 33.1398 22.3804 33.1517 22.3755 33.1627C22.3707 33.1736 22.3636 33.1835 22.3547 33.1915C22.3458 33.1995 22.3353 33.2056 22.3238 33.2093C22.3124 33.213 22.3004 33.2142 22.2884 33.2129Z" fill="#2B0303"/>
<path d="M81.4336 63.4812C81.6636 64.5509 83.1911 64.6682 84.0629 64.8108C85.4293 65.0277 86.8196 65.0494 88.1921 64.8752C88.3002 64.8614 88.3025 64.6889 88.1921 64.7027C87.1078 64.8418 86.0112 64.858 84.9233 64.751C84.335 64.691 83.7511 64.5942 83.175 64.4612C82.5493 64.3162 81.7625 64.169 81.6015 63.4375C81.5762 63.3271 81.4106 63.3731 81.4336 63.4812Z" fill="#2B0303"/>
<path d="M98.7669 74.4565C88.1714 74.4772 77.5781 74.5669 66.9825 74.6014C56.2282 74.6336 45.4716 74.6014 34.7196 74.4105C28.6068 74.2955 22.4969 74.1168 16.3902 73.8745C16.2798 73.8745 16.2798 74.0424 16.3902 74.047C27.202 74.4887 38.0299 74.6866 48.8555 74.7556C59.5454 74.8223 70.2376 74.7671 80.9275 74.7073C86.8732 74.6751 92.8197 74.649 98.7669 74.629C98.7874 74.6257 98.806 74.6152 98.8194 74.5994C98.8328 74.5836 98.8402 74.5635 98.8402 74.5428C98.8402 74.522 98.8328 74.502 98.8194 74.4862C98.806 74.4704 98.7874 74.4599 98.7669 74.4565Z" fill="#2B0303"/>
<path d="M54.2409 44.7679C55.1747 48.3287 56.6429 51.7274 58.5955 54.8481C58.653 54.9425 58.8025 54.8481 58.745 54.7607C56.7999 51.6531 55.3379 48.2683 54.4088 44.7218C54.4012 44.7014 54.3862 44.6846 54.3667 44.6746C54.3473 44.6647 54.3249 44.6624 54.3038 44.6681C54.2828 44.6739 54.2647 44.6873 54.253 44.7058C54.2414 44.7242 54.237 44.7464 54.2409 44.7679Z" fill="#2B0303"/>
<path d="M84.5115 57.0223C85.0559 58.3288 85.4421 59.6957 85.6617 61.094C85.6801 61.2021 85.8457 61.1561 85.8296 61.048C85.6099 59.6497 85.2238 58.2828 84.6794 56.9763C84.638 56.8751 84.4701 56.9188 84.5138 57.0223H84.5115Z" fill="#2B0303"/>
<path d="M80.5527 67.5229C79.2749 67.0916 77.9055 67.0075 76.5845 67.279C76.0646 67.4285 75.8944 67.8219 75.968 68.3809C76.1244 69.4299 76.336 70.8331 77.1688 71.0862C78.1073 71.3737 79.338 71.4266 79.8924 70.909C80.3203 70.5134 81.0656 67.7161 80.5527 67.5229Z" fill="#FAE1D2"/>
<path d="M79.9981 67.5693C79.266 67.288 78.4742 67.1985 77.6978 67.3094C77.3872 67.3416 76.8443 67.3416 76.5729 67.5049C76.5254 67.5358 76.4876 67.5795 76.4638 67.631C76.4401 67.6824 76.4313 67.7395 76.4385 67.7957C76.4457 67.8519 76.4686 67.9049 76.5046 67.9487C76.5405 67.9925 76.5881 68.0252 76.6419 68.0432C77.0421 68.241 77.6586 68.2341 78.0934 68.2456C78.7076 68.2571 79.5243 68.3629 80.0809 68.034C80.1193 68.0134 80.1526 67.9845 80.1784 67.9495C80.2043 67.9145 80.2221 67.8742 80.2305 67.8315C80.2558 67.682 80.1086 67.6176 79.9981 67.5693Z" fill="#964939"/>
<path d="M81.146 64.4082C80.5065 64.1023 79.7474 64.4703 79.3287 64.9672C78.9998 65.3779 78.7699 65.8589 78.657 66.3728C78.657 66.3801 78.6541 66.3871 78.6489 66.3923C78.6438 66.3975 78.6367 66.4004 78.6294 66.4004C78.6221 66.4004 78.6151 66.3975 78.6099 66.3923C78.6047 66.3871 78.6018 66.3801 78.6018 66.3728C78.4946 65.5479 78.3058 64.7357 78.0382 63.9482C77.8933 63.5295 77.24 62.0572 76.5729 62.4782C76.3612 62.6116 76.3152 62.9383 76.2968 63.1982C76.2574 63.6906 76.297 64.186 76.4141 64.6659C76.5437 65.1612 76.7322 65.6393 76.9754 66.0898C76.9179 66.0553 76.8627 66.0208 76.8006 65.9886C76.4739 65.8253 75.8114 65.6527 75.6504 66.122C75.5055 66.5315 75.7999 67.1963 76.1381 67.4447C76.441 67.6418 76.7896 67.7575 77.1503 67.7806C77.4907 67.8243 77.8289 67.891 78.1716 67.9209C78.3281 67.9358 78.4859 67.9177 78.6349 67.8678C78.7839 67.8179 78.9207 67.7372 79.0366 67.6311C79.1907 67.5069 79.3264 67.3596 79.4759 67.2308C79.9176 66.8443 80.3524 66.4533 80.7596 66.0323C81.1667 65.6113 81.9857 64.8108 81.146 64.4082Z" fill="#36593F"/>
</svg>
