<svg width="94" height="86" viewBox="0 0 94 86" fill="none" xmlns="http://www.w3.org/2000/svg">
<path d="M58.2142 16.7034C59.3198 15.5979 59.3198 13.8054 58.2142 12.6999C57.1087 11.5944 55.3163 11.5944 54.2107 12.6999C53.1052 13.8054 53.1052 15.5979 54.2107 16.7034C55.3163 17.8089 57.1087 17.8089 58.2142 16.7034Z" fill="#B04C38"/>
<path d="M39.4253 24.5092C39.4253 24.5092 31.5465 20.2341 26.1645 24.7275C20.7825 29.2209 17.8338 38.9082 15.6812 47.099C15.6812 47.099 12.1086 48.9477 11.5008 54.7976C11.5008 54.7976 10.0687 56.2478 10.1855 58.8925C10.3535 62.6805 11.5622 71.155 20.9224 71.155C30.2825 71.155 32.2017 62.2155 32.2017 62.2155C32.2017 62.2155 33.0309 72.422 37.7839 77.9238C40.5212 81.0918 44.8949 81.7752 51.1384 82.23C63.2499 83.1116 70.8137 79.1113 70.8137 79.1113C70.8137 79.1113 76.0559 86.3501 83.981 85.1646C91.9061 83.9791 94.3395 75.9916 92.53 70.4375C90.7206 64.8834 77.8029 43.0423 75.4319 38.6123C73.0609 34.1813 70.377 31.9351 63.1382 30.3128C60.735 29.7744 57.5308 28.9814 53.8173 28.0978C46.3441 26.3186 39.4253 24.5092 39.4253 24.5092Z" fill="#D18C4F"/>
<path d="M32.5689 43.1931C31.8524 46.663 31.1368 50.133 30.4203 53.6039C30.3418 53.9863 30.9275 54.1494 31.007 53.7659C31.7235 50.296 32.4391 46.8261 33.1556 43.3551C33.2341 42.9727 32.6484 42.8097 32.5689 43.1931Z" fill="#965129"/>
<path d="M32.2029 62.2154C32.2029 62.2154 30.2837 71.156 20.9225 71.156C11.5614 71.156 10.3537 62.6804 10.1867 58.8934C10.0679 56.2497 11.501 54.7986 11.501 54.7986C12.1098 48.9486 15.6804 47.0989 15.6804 47.0989C16.1916 45.1606 16.7451 43.1378 17.3661 41.1211C19.0789 41.9725 21.16 43.2023 23.216 44.899C28.0375 48.8781 28.8809 49.7295 31.2196 53.0948C31.2196 53.0948 31.4048 57.3024 32.2018 62.2154H32.2029Z" fill="#FAE6D4"/>
<path d="M83.9802 85.1645C76.0551 86.351 70.814 79.1102 70.814 79.1102C70.814 79.1102 67.5372 73.7745 66.3205 70.4062C65.1039 67.0359 66.8831 65.0211 66.8831 65.0211L64.7295 60.9021L73.4114 52.8311L76.8038 57.251C79.9256 55.5211 80.9863 53.3423 82.1979 50.5587C86.5484 58.2433 91.4675 67.1657 92.5322 70.4364C94.3397 75.9885 91.9053 83.977 83.9812 85.1635L83.9802 85.1645Z" fill="#FAE6D4"/>
<path d="M53.3944 26.8972V27.9961C53.3944 27.9961 49.9839 32.3004 44.4177 30.6238C39.5489 29.1575 39.5791 24.5484 39.5791 24.5484L40.8119 20.0791L53.3944 26.8972Z" fill="#FFA87D"/>
<path d="M49.9615 4.89404C45.3755 4.63037 41.4426 8.08119 41.1779 12.6018L40.8126 18.8281C40.5469 23.3487 43.088 27.4124 50.2161 27.512C52.6726 27.5462 53.9597 27.0551 55.5317 25.7318C56.9768 24.5151 57.2948 21.8855 57.4186 19.7822L57.7839 13.5558C58.0496 9.03522 54.5464 5.15771 49.9615 4.89404Z" fill="#FFA87D"/>
<path d="M73.4127 52.832C73.4127 52.832 70.4751 47.7751 69.661 45.0398C68.9434 42.6295 68.553 40.1992 68.0538 39.3719C67.5546 38.5447 65.0901 38.1271 64.8556 40.5574C64.6714 42.4655 65.0589 44.8757 65.0589 44.8757C65.0589 44.8757 61.923 44.2125 59.0217 43.8855C56.1204 43.5584 50.8641 43.1327 50.5351 44.2286C50.205 45.3246 50.4123 46.3782 52.1211 47.0646C53.7916 47.7358 56.0499 48.4332 56.0499 48.4332C56.0499 48.4332 54.1308 50.7036 55.7923 52.669C55.7923 52.669 55.114 54.6113 55.7923 56.3664C56.4706 58.1215 63.3974 59.5022 63.3974 59.5022L64.7308 60.9061C64.7308 60.9061 73.0383 59.2677 73.4127 52.833V52.832Z" fill="#FFA87D"/>
<path d="M23.217 44.8991C23.217 44.8991 19.8588 38.0649 19.0436 35.3286C18.3261 32.9183 17.9356 30.488 17.4365 29.6608C16.9373 28.8335 14.4727 28.4159 14.2383 30.8463C14.0541 32.7543 14.4415 35.1646 14.4415 35.1646C14.4415 35.1646 11.3057 34.5014 8.40438 34.1743C5.50304 33.8462 1.19682 33.503 0.471231 34.3222C-0.318763 35.2149 -0.205044 36.6681 1.50275 37.3544C3.17331 38.0256 5.43159 38.723 5.43159 38.723C5.43159 38.723 3.47522 40.616 5.13672 42.5814C5.13672 42.5814 3.84053 44.0578 5.2907 46.1409C6.3665 47.6847 11.7717 49.5807 11.7717 49.5807L12.4711 50.9886C12.4711 50.9886 20.8752 52.317 23.216 44.9011L23.217 44.8991Z" fill="#FFA87D"/>
<path d="M40.995 15.6994C40.995 15.6994 45.5418 13.588 46.1657 10.5307C46.1657 10.5307 50.8896 14.8369 53.3954 12.0906C53.3954 12.0906 56.7124 14.6387 59.0834 13.115C61.4544 11.5914 61.6416 8.15972 60.2689 6.16209C60.2689 6.16209 60.5657 1.79348 57.4762 0.951153C54.3877 0.108828 51.4592 2.30873 51.4592 2.30873C51.4592 2.30873 50.7839 -0.218239 48.116 0.0152367C45.4482 0.249719 43.0611 2.91658 43.0611 2.91658C43.0611 2.91658 41.9782 2.31578 41.2356 3.15106C40.1125 4.41505 40.4868 6.95813 40.4868 6.95813C40.4868 6.95813 38.7317 7.66761 39.1061 10.57C39.4805 13.4713 40.995 15.7004 40.995 15.7004V15.6994Z" fill="#B04C38"/>
<path d="M42.7031 20.6814C44.3358 20.3349 45.3785 18.7305 45.0321 17.0978C44.6856 15.4651 43.0812 14.4224 41.4485 14.7688C39.8158 15.1153 38.773 16.7197 39.1195 18.3524C39.4659 19.9851 41.0704 21.0278 42.7031 20.6814Z" fill="#FFA87D"/>
<path d="M55.9076 28.5958C52.7164 32.1915 48.0288 34.5857 43.1852 32.9131C40.9188 32.1312 38.9383 30.528 38.0195 28.2768C37.4107 26.7894 37.2738 25.2104 37.3624 23.6284C37.5757 23.7019 37.773 23.7774 37.9551 23.8478C37.8978 25.1198 38.0034 26.3848 38.411 27.5985C39.2292 30.041 41.3345 31.7387 43.7558 32.4602C48.1455 33.7655 52.3199 31.627 55.2404 28.4388C55.4658 28.4932 55.6872 28.5455 55.9066 28.5968L55.9076 28.5958Z" fill="#965129"/>
<path d="M76.7944 57.241C75.793 59.3976 74.5069 61.4144 72.615 62.8535C70.9696 64.1034 68.9488 64.7726 66.8717 65.0373C66.8807 65.0282 66.8837 65.0222 66.8837 65.0222L66.5889 64.4566C68.514 64.2402 70.3979 63.6656 71.9739 62.5707C74.0178 61.1497 75.3563 58.984 76.3787 56.6965L76.7954 57.241H76.7944Z" fill="#965129"/>
<path d="M26.5304 47.6977C24.2338 53.3414 16.9297 57.1102 11.4229 54.8862C11.4712 54.8288 11.5024 54.7976 11.5024 54.7976C11.5205 54.6306 11.5386 54.4655 11.5627 54.3045C16.8441 56.5165 23.9812 52.7044 26.0463 47.274C26.2164 47.42 26.3744 47.5629 26.5304 47.6967V47.6977Z" fill="#965129"/>
<path d="M53.389 27.0562V27.6651C50.8158 28.7056 47.7454 28.1521 45.5646 26.394C45.2607 26.1475 45.6924 25.7188 45.9963 25.9623C48.0523 27.6238 50.9949 28.1219 53.389 27.0572V27.0562Z" fill="#CF6136"/>
<path d="M61.6664 53.1129C59.6617 52.7295 57.6178 52.964 55.6182 53.3444C55.6846 53.0123 55.755 52.7788 55.7822 52.6993C57.7839 52.337 59.8187 52.1398 61.8274 52.5262C62.2108 52.6027 62.0498 53.1864 61.6664 53.1129Z" fill="#CF6136"/>
<path d="M62.4183 48.7503C60.0846 48.1234 57.7971 48.5682 55.5459 49.2193C55.7462 48.8238 55.9565 48.547 56.0239 48.4585C58.1775 47.8839 60.3563 47.5669 62.5794 48.1636C62.9567 48.2643 62.7957 48.851 62.4183 48.7503Z" fill="#CF6136"/>
<path d="M68.5232 45.9879C67.3941 45.5038 66.2388 45.1335 65.0553 44.8658C65.0492 44.8145 65.013 44.577 64.9697 44.2238C66.2901 44.5126 67.5742 44.9262 68.8301 45.4646C69.1894 45.6166 68.8784 46.1429 68.5232 45.9879Z" fill="#CF6136"/>
<path d="M12.1762 43.6118C11.6952 44.9322 10.0105 45.4253 8.76266 45.5863C8.37319 45.6377 8.37923 45.0298 8.76266 44.9775C9.61404 44.8678 10.6456 44.579 11.2604 43.9429C11.8904 43.2888 11.7777 42.2513 10.7734 42.1325C10.7583 42.1295 10.7059 42.1234 10.6908 42.1204C8.80492 41.7984 6.94315 42.0691 5.13573 42.5793C4.98679 42.4032 4.86804 42.2291 4.77344 42.056C6.75094 41.4844 8.78278 41.1795 10.8519 41.5357C10.8579 41.5357 10.87 41.5357 10.876 41.5387C11.8894 41.7028 12.5556 42.5642 12.1752 43.6108L12.1762 43.6118Z" fill="#CF6136"/>
<path d="M12.5606 39.8449C12.4308 39.0046 11.8471 38.3344 11.0208 38.1321C11.0158 38.1311 11.0118 38.1321 11.0068 38.1321C8.70621 37.809 6.43184 37.8704 4.18262 38.3193C4.86392 38.5447 5.36308 38.6997 5.42648 38.7178C5.4295 38.7208 5.4295 38.7178 5.4295 38.7178C7.21982 38.4652 9.02825 38.4622 10.8548 38.7178C10.8568 38.7178 10.8578 38.7198 10.8588 38.7198C12.2687 39.066 12.2194 40.7899 11.1406 41.5014C10.8145 41.7157 11.1195 42.2431 11.4475 42.0267C12.1631 41.5547 12.6985 40.7315 12.5606 39.8459V39.8449Z" fill="#CF6136"/>
<path d="M14.5442 41.3879C13.888 39.7385 13.89 38.0377 14.5472 36.3893C14.6921 36.026 14.1044 35.868 13.9605 36.2273C13.2681 37.9632 13.2671 39.8129 13.9574 41.5489C14.1004 41.9082 14.6891 41.7512 14.5442 41.3869V41.3879Z" fill="#CF6136"/>
<path d="M50.5183 18.7275C50.8132 18.4226 51.1886 18.2193 51.6133 18.171C51.9977 18.1277 52.0027 17.5189 51.6133 17.5621C51.0255 17.6286 50.5012 17.8691 50.0886 18.2968C49.8169 18.5786 50.2466 19.0093 50.5183 18.7275Z" fill="#CF6136"/>
<path d="M50.1883 17.5652C50.618 17.6648 51.0719 17.7634 51.407 18.0694C51.6958 18.332 52.1276 17.9033 51.8367 17.6386C51.4171 17.2562 50.8908 17.1033 50.3493 16.9775C49.9679 16.8889 49.8059 17.4756 50.1873 17.5642L50.1883 17.5652Z" fill="#CF6136"/>
<path d="M50.6438 20.8057C50.9266 21.1036 51.5505 21.649 52.731 22.2146C52.9634 22.3263 52.9473 22.6634 52.7028 22.748C51.8927 23.0267 50.5522 23.3558 50.0178 22.7278C49.3818 21.9811 49.883 21.1951 50.2151 20.8127C50.3278 20.6829 50.525 20.6829 50.6438 20.8077V20.8057Z" fill="#CF6136"/>
<path d="M54.5544 21.5071C54.0321 20.2441 53.7141 18.9459 53.5742 17.5883C53.5339 17.1989 54.1428 17.2019 54.183 17.5883C54.3169 18.8896 54.6419 20.1374 55.1411 21.3461C55.291 21.7074 54.7023 21.8654 54.5544 21.5081V21.5071Z" fill="#CF6136"/>
<path d="M55.0011 21.7084C54.4969 21.9358 53.9343 21.9207 53.4644 21.6148C53.1373 21.4024 53.4422 20.8751 53.7713 21.0895C54.0481 21.2696 54.3862 21.3219 54.6941 21.1831C55.0484 21.023 55.3583 21.5474 55.0011 21.7084Z" fill="#CF6136"/>
<path d="M50.8586 15.7326C51.398 15.9469 51.6949 16.2166 52.035 16.4461C52.346 16.6564 52.9287 15.9962 52.6439 15.4568C52.3591 14.9174 51.6355 14.4354 51.0095 14.2301C50.4933 14.061 49.5423 14.1566 49.2766 14.6095C49.0109 15.0623 49.3792 15.3703 49.7818 15.4639C50.2316 15.5685 50.4983 15.5897 50.8586 15.7336V15.7326Z" fill="#B04C38"/>
<path d="M56.0939 16.7822C55.635 16.8144 55.323 16.8063 54.8631 16.8838C54.4928 16.9462 54.2372 16.1029 54.7202 15.7305C55.2033 15.3582 55.9268 15.2927 56.582 15.3662C57.1214 15.4266 57.6165 15.7124 57.6699 16.2347C57.693 16.4601 57.6095 16.6654 57.3981 16.763C57.1063 16.8979 56.7913 16.754 56.4894 16.763C56.3566 16.7671 56.2247 16.7731 56.0939 16.7832V16.7822Z" fill="#B04C38"/>
<path d="M55.2995 17.9113C55.2854 18.3863 55.4897 18.7255 55.7514 18.7335C56.013 18.7416 56.2344 18.4135 56.2475 17.9395C56.2616 17.4645 56.0543 17.1394 55.7926 17.1314C55.531 17.1233 55.3126 17.4373 55.2995 17.9123V17.9113Z" fill="#442A24"/>
<path d="M41.9154 16.5407C41.3861 16.5749 40.9654 16.907 40.8749 17.4394C40.7994 17.8852 40.9825 18.3512 41.4153 18.5313C41.7745 18.6803 41.5864 19.2599 41.2231 19.109C40.5075 18.8111 40.1462 18.0865 40.2791 17.3277C40.428 16.4763 41.1164 15.9872 41.9466 15.9329C42.3371 15.9077 42.3019 16.5156 41.9154 16.5407Z" fill="#CF6136"/>
</svg>
