<svg width="140" height="100" viewBox="0 0 140 100" fill="none" xmlns="http://www.w3.org/2000/svg">
<mask id="mask0_385_14668" style="mask-type:alpha" maskUnits="userSpaceOnUse" x="0" y="0" width="140" height="100">
<rect width="140" height="100" fill="#D9D9D9"/>
</mask>
<g mask="url(#mask0_385_14668)">
<path d="M135.87 60.9915C135.359 48.9604 130.849 37.1485 122.866 28.244C115.737 20.2916 105.919 14.6305 95.3043 13.6844C82.2921 12.5262 70.8077 15.2942 59.6033 21.4116C53.809 24.5776 47.1893 30.8249 41.261 33.7287C38.2114 35.2218 35.1007 36.5837 31.9063 37.7205C28.8841 38.7976 25.8082 39.7115 22.8219 40.89C20.0869 41.9695 17.4237 43.2803 15.0691 45.0831C13.1046 46.588 11.3686 48.3885 9.89704 50.3938C6.85934 54.5345 4.94986 59.5057 4.26791 64.6222C3.09781 73.3897 7.26253 87.9028 22.6101 95.8779C28.3804 98.8759 34.7861 100.375 41.2598 100.375H109.247C114.582 100.375 119.745 98.3754 123.689 94.7066C123.716 94.684 123.739 94.659 123.765 94.6363C132.784 86.1965 136.388 73.1895 135.869 60.9915H135.87Z" fill="#00C2CB"/>
<path d="M56.0417 15.7632C50.9665 15.7632 46.8533 19.8609 46.8533 24.9143C46.8533 29.9677 50.9665 34.0655 56.0417 34.0655C61.1169 34.0655 65.2302 29.9689 65.2302 24.9143C65.2302 19.8598 61.1157 15.7632 56.0417 15.7632ZM56.0417 31.8718C52.1833 31.8718 49.0559 28.7571 49.0559 24.9143C49.0559 21.0716 52.1833 17.958 56.0417 17.958C59.9002 17.958 63.0264 21.0728 63.0264 24.9143C63.0264 28.7559 59.899 31.8718 56.0417 31.8718Z" fill="#E3B162"/>
<path d="M92.8996 28.6787C79.9628 28.6787 69.4774 39.1239 69.4774 52.0046C69.4774 64.8853 79.9616 75.3305 92.8996 75.3305C105.838 75.3305 116.321 64.8901 116.321 52.0046C116.321 39.1191 105.833 28.6787 92.8996 28.6787ZM92.8996 72.2968C81.6449 72.2968 72.5235 63.2124 72.5235 52.0034C72.5235 40.7945 81.6449 31.7112 92.8996 31.7112C104.154 31.7112 113.275 40.7968 113.275 52.0034C113.275 63.21 104.152 72.2968 92.8996 72.2968Z" fill="#A3B7F0"/>
<path d="M98.2834 100.375H82.9932C81.585 96.8908 80.3168 95.5455 79.0343 92.0138C78.7531 94.9331 77.6835 99.7791 77.583 100.375H65.5076C65.3018 98.5769 65.3628 87.1892 65.2109 81.7175C65.2097 81.6651 65.2073 81.6139 65.2073 81.5626C65.2013 81.3767 65.1953 81.1968 65.1893 81.0264C65.0924 78.3025 65.3006 75.0019 65.1271 71.3284C65.2061 71.3343 65.2815 71.3415 65.3521 71.3462C66.6645 71.457 67.9902 71.4427 69.3062 71.4308C72.7435 71.3987 76.1796 71.2473 79.6145 71.1139C80.8995 71.065 82.1868 70.9983 83.473 70.9971C83.6428 70.9959 83.7936 70.9673 83.9288 70.9185C84.5713 72.5211 87.0371 76.8238 88.6498 79.7133C88.6738 79.7538 88.6965 79.7956 88.7192 79.8361C89.2134 80.7226 89.6213 81.4661 89.863 81.9439C91.5511 85.2839 98.0321 99.6922 98.2822 100.374L98.2834 100.375Z" fill="#212333"/>
<path d="M99.1664 60.7091C99.1664 60.7091 97.854 58.27 97.361 57.4299C96.6276 56.18 95.9014 54.9181 95.1357 53.6837C94.9431 53.3739 94.7481 53.0652 94.5495 52.759C94.4956 52.6744 94.4418 52.591 94.3856 52.5064C93.4607 51.098 91.6709 49.369 90.1885 48.5111C88.7528 47.6794 87.2155 47.0967 85.7247 46.5689C85.3502 46.4354 84.9793 46.3067 84.6144 46.1757C84.4206 46.1077 84.228 46.0386 84.0366 45.9707C84.0342 45.9695 84.0318 45.9683 84.0294 45.9683C83.2912 45.7014 83.2792 46.8394 83.357 48.1799C83.3929 48.7744 83.4444 49.4107 83.4587 49.9803C83.4755 50.5892 83.4491 51.1254 83.3127 51.4614C82.5219 53.4096 82.6428 55.5198 83.363 57.4645C83.5305 57.9196 83.7219 58.3653 83.9217 58.8085C84.1299 59.2697 84.3165 59.7832 84.6097 60.1979C84.7676 60.4219 85.0463 60.6126 85.3239 60.6638C85.9149 61.4729 86.5478 62.2521 87.2226 62.9921C87.5875 63.3948 87.968 63.7869 88.358 64.1658C88.5758 64.3767 89.1716 65.0046 89.1716 65.0046C89.1716 65.0046 90.045 64.5947 90.4589 64.4958C91.4508 64.2587 92.4366 63.999 93.4165 63.7213C94.3975 63.4425 95.3726 63.1422 96.3381 62.8217C96.782 62.6763 97.2247 62.525 97.6649 62.3689C98.0502 62.2331 98.5192 62.133 98.853 61.8875C99.4943 61.4157 99.1652 60.7079 99.1652 60.7079L99.1664 60.7091Z" fill="white"/>
<path d="M83.7219 46.4282C81.7885 45.5095 80.0561 44.1988 78.6635 42.5771C78.478 42.3614 78.2998 42.1398 78.1263 41.9146C78.0186 41.774 77.9145 41.6036 77.7566 41.5118C77.5556 41.395 77.3247 41.4344 77.1045 41.4487C76.7887 41.4701 76.474 41.4916 76.1582 41.5118C75.8806 41.5309 74.6962 41.4844 74.4246 41.8907C72.2315 42.3435 69.9978 42.5485 67.7581 42.496C67.6983 42.4949 67.6756 42.5675 67.7115 42.608C69.347 44.4585 71.3402 45.9313 73.2282 47.5089C73.7079 47.9105 74.1817 48.3192 74.6411 48.7434C74.8493 48.9364 75.0551 49.133 75.2573 49.332C75.408 49.4809 75.5516 49.6466 75.7789 49.6573C76.0373 49.6692 76.3161 49.5191 76.5542 49.4345C76.8952 49.3129 77.235 49.1902 77.5735 49.0651C78.2112 48.8292 78.8477 48.5873 79.4806 48.337C80.9103 47.7734 82.3245 47.1729 83.7243 46.539C83.7686 46.5187 83.7674 46.4461 83.7243 46.4258L83.7219 46.4282Z" fill="#FFA47A"/>
<path d="M91.6288 50.6485C91.3884 50.1039 90.9265 49.7107 90.4372 49.3902C89.1558 48.549 87.7644 47.8209 86.4053 47.1096C86.1481 46.9737 85.8896 46.8427 85.6288 46.714C85.2842 46.5424 84.9397 46.3768 84.5891 46.2159C84.4061 46.1313 84.2206 46.0503 84.0364 45.9704C84.034 45.9692 84.0316 45.9681 84.0292 45.9681C83.224 45.6189 82.4033 45.3067 81.5634 45.0434C81.482 45.0184 81.4473 45.1447 81.5275 45.1709C81.5359 45.1721 81.5419 45.1745 81.549 45.1781C79.9734 46.969 78.2852 48.8314 75.9702 49.6178C75.9283 49.6333 75.884 49.6476 75.8409 49.6607C75.8362 49.6631 75.8314 49.6643 75.8266 49.6655C74.8946 48.4918 73.9638 47.3157 73.033 46.1408C72.095 44.9588 71.1211 43.7661 70.6114 42.3278C70.6102 42.3195 70.6078 42.3124 70.603 42.3052C70.6018 42.3028 70.6006 42.3004 70.5994 42.2957C70.5791 42.2397 70.5097 42.2409 70.481 42.2754C68.2533 42.6222 66.2206 41.3162 64.0921 40.9159C63.0584 40.7216 62.069 40.8289 61.0951 41.0481C60.79 41.1148 60.4873 41.1935 60.1859 41.2769C59.2419 41.5378 58.3003 41.8453 57.3312 42.0204C56.0187 42.2564 54.6799 42.3517 53.3543 42.4875C52.0239 42.6257 50.6935 42.7628 49.3631 42.901C48.7613 42.9629 48.1583 43.0094 47.5589 43.0893C47.2418 43.131 46.8722 43.2179 46.7214 43.5337C46.5144 43.9698 46.865 44.5656 47.0133 44.966L47.6917 46.8117C48.6871 49.5189 49.6813 52.2261 50.6767 54.9333H50.6074C50.5212 54.9333 50.4698 55.1859 50.5547 55.1859C50.5942 55.1859 54.8128 55.1418 56.7737 55.0155C58.0156 54.9345 57.8014 55.0108 59.017 54.7224C59.6223 57.625 62.0535 67.8474 62.0511 69.1307C62.0499 69.8862 62.0929 70.6464 62.282 71.3804C62.4566 72.0548 62.7462 72.6958 63.0824 73.3047C63.4054 73.8898 63.75 74.5153 64.1747 75.0337C64.5851 75.5341 65.0517 75.5353 65.6523 75.4424C68.9663 74.93 72.2888 74.4415 75.6411 74.2687C77.3042 74.1829 78.9612 74.2055 80.6242 74.2592C82.1951 74.3092 83.8282 74.3759 85.3764 74.0554C85.6707 73.9946 85.8262 73.885 85.9459 73.6038C86.0978 73.2487 86.1923 72.8567 86.2797 72.4814C86.3957 71.9845 86.4747 71.4805 86.5225 70.974C86.5656 70.8537 86.6027 70.7298 86.6314 70.6023C86.7522 70.0625 86.757 69.5025 86.7522 68.9532C86.7487 68.3157 86.751 67.6794 86.7786 67.0431C86.836 65.6835 86.9867 64.3287 87.226 62.9918C87.4809 61.5524 87.8362 60.1309 88.2884 58.7391C89.9586 57.0126 91.4817 55.0668 91.7939 52.6324C91.8765 51.9795 91.9016 51.2621 91.6312 50.6485H91.6288Z" fill="white"/>
<path d="M85.4138 33.5511C85.3611 33.3712 85.2941 33.1912 85.2104 33.0101C84.9914 32.5383 84.7474 32.0962 84.6827 31.5695C84.6134 31.0024 85.2116 29.5749 84.1635 28.4155C83.8225 28.0378 83.4792 27.672 83.07 27.3717C82.54 26.982 82.1057 26.6258 81.7898 26.036C81.5302 25.5534 81.3065 25.0517 80.8518 24.7205C80.4438 24.4238 79.9414 24.2725 79.4401 24.2617C78.6684 24.245 77.9146 24.5513 77.3727 25.0887C76.8259 24.1664 75.87 23.5325 74.7681 23.4491C74.1196 23.4002 73.3802 23.523 72.855 23.9329C72.2963 24.3678 72.3657 24.9838 72.1551 25.5939C71.8727 26.4089 70.8534 26.2802 70.2025 26.5996C69.6534 26.87 69.2119 27.3622 69.1509 27.9925C69.1198 28.3178 69.2191 28.5549 69.3483 28.8397C69.4691 29.1078 69.45 29.2579 69.444 29.5284C69.4416 29.6797 69.4524 29.818 69.5266 29.9514C69.8496 30.5388 70.6464 30.4042 71.1692 30.241C71.5904 30.1099 71.9888 29.9192 72.4063 29.7762C72.9088 29.6047 73.3826 29.5594 73.9066 29.6523C74.4701 29.7524 75.2167 29.8906 75.6091 29.395C75.8293 29.4569 76.065 29.3914 76.2815 29.2365C76.7888 28.873 77.2733 28.5084 77.8704 28.3011C79.1051 27.8733 80.2584 28.4179 80.9284 29.501C81.5948 30.5782 81.7276 31.9294 81.9525 33.1519C82.071 33.7954 82.1559 34.4567 82.3126 35.0906C82.412 35.4898 82.6752 35.6232 83.0664 35.6244C83.99 35.6292 85.08 35.2836 85.3922 34.3077C85.4748 34.0516 85.464 33.7989 85.415 33.5487L85.4138 33.5511Z" fill="#C8512C"/>
<path d="M84.4252 32.4774C84.3343 31.5075 84.0484 30.5864 83.6201 29.7154C83.029 28.5143 82.2765 27.3811 81.2296 26.5327C80.2163 25.7105 79.0342 25.3411 77.7457 25.303C75.8924 25.2482 73.4757 25.7201 72.3726 27.3668C72.5305 27.6456 72.7829 27.8768 73.1036 27.9995C73.1155 28.0186 73.1371 28.0245 73.1586 28.0198C73.173 28.0245 73.1873 28.0317 73.2017 28.0353C73.277 28.0579 73.3094 27.9387 73.234 27.9161C73.228 27.9137 73.222 27.9113 73.216 27.909C73.2543 27.6325 74.2462 27.7171 74.4053 27.7159C74.8049 27.7135 75.2033 27.7183 75.6029 27.7374C76.3112 27.7707 77.1223 27.8172 77.6918 28.2962C78.8117 29.2363 78.4587 31.119 78.113 32.3368C77.7612 33.5712 77.242 34.7807 77.1594 36.0759C77.0888 37.1781 77.3903 38.5055 78.6334 38.7473C78.9684 38.3303 79.4733 37.9824 79.8537 37.6928C80.4424 37.246 81.0059 36.686 81.6591 36.3309C81.8721 35.9913 82.1401 35.7017 82.5289 35.5433C82.8962 35.3931 83.291 35.3609 83.6763 35.2835C83.8211 35.0583 83.9335 34.8116 84.0053 34.5531C84.1297 34.1039 84.0053 33.6034 84.1728 33.1744C84.241 33.0005 84.3403 32.8444 84.4444 32.6895C84.4384 32.618 84.4336 32.5465 84.4264 32.475L84.4252 32.4774Z" fill="#C8512C"/>
<path d="M79.4925 36.78C77.248 37.1767 75.006 37.595 72.7675 38.0323C72.7531 38.0239 72.7399 38.0132 72.7256 38.0061C72.6813 37.9834 72.6406 38.0192 72.6335 38.0585C72.6311 38.0585 72.6287 38.0585 72.6263 38.0597C72.5497 38.0752 72.582 38.2015 72.6586 38.186C72.6885 38.18 72.7172 38.1741 72.7471 38.1693C73.1096 38.4112 73.2185 38.8866 73.2843 39.3215C73.3812 39.9602 73.4351 40.6096 73.4793 41.2543C73.5523 42.31 73.5679 43.3681 73.532 44.425C73.5128 44.4333 73.4985 44.4524 73.4997 44.4822C73.5033 44.6323 73.508 44.7836 73.5116 44.9338C73.514 45.0184 73.6289 45.0184 73.6337 44.9338C73.642 44.767 73.648 44.599 73.654 44.4321C74.5537 44.2486 75.5348 44.4595 76.4381 44.5429L79.2616 44.8039C79.3059 44.8075 79.325 44.7586 79.3202 44.7205C79.142 43.3752 79.0439 42.0192 79.0331 40.6609C79.0235 39.3799 79.0666 38.0645 79.5607 36.8765C79.5834 36.8217 79.5463 36.7704 79.4913 36.78H79.4925Z" fill="#FFA47A"/>
<path d="M80.3813 27.5019C80.0116 27.1289 79.5857 26.8013 79.1251 26.5558C79.1765 26.5439 79.1897 26.4521 79.1251 26.4271C77.5183 25.7849 75.4318 25.9147 73.868 26.663C72.272 27.4256 71.3795 28.7959 70.4906 30.289C69.5514 31.8678 68.5775 33.7659 68.6995 35.6641C68.8252 37.6123 70.621 38.4046 72.3139 38.6394C74.3478 38.9218 76.4212 38.8241 78.4228 38.3808C78.5987 38.4666 78.8475 38.4714 79.0162 38.4428C79.5714 38.351 79.3165 37.8101 79.6994 37.4145C80.5512 36.5327 81.2619 35.3328 81.6998 34.1806C82.6497 31.6783 82.158 29.2916 80.3813 27.5019Z" fill="#FFA47A"/>
<path d="M75.7862 30.9655C75.5011 31.3413 75.0998 31.5154 74.8902 31.3544C74.6805 31.1933 74.7404 30.7579 75.0255 30.3821C75.3106 30.0063 75.7119 29.8321 75.9215 29.9931C76.1312 30.1542 76.0713 30.5897 75.7862 30.9655Z" fill="#212333"/>
<path d="M72.4625 30.6725C72.1774 31.0483 71.7761 31.2225 71.5665 31.0614C71.3569 30.9004 71.4168 30.4649 71.7019 30.0891C71.987 29.7133 72.3882 29.5391 72.5979 29.7002C72.8075 29.8612 72.7476 30.2967 72.4625 30.6725Z" fill="#212333"/>
<path d="M74.3418 29.8716L72.9863 30.4507C72.6178 30.608 72.193 30.7438 71.9214 31.056C71.4166 31.6351 71.9346 32.3727 72.2792 32.8898C72.3258 32.9601 72.4395 32.8934 72.3916 32.8231C72.205 32.5443 72.0148 32.2487 71.8999 31.9318C71.7181 31.4278 72.0016 31.062 72.4383 30.8356C73.0688 30.5079 73.7544 30.2648 74.4076 29.986C74.4842 29.9526 74.4184 29.8394 74.3418 29.8728V29.8716Z" fill="#B9643C"/>
<path d="M73.2025 32.6974C73.1043 32.4683 72.9498 32.2786 72.7521 32.1307C72.685 32.0806 72.6192 32.1939 72.6862 32.244C72.8659 32.3788 73.0013 32.5578 73.0899 32.7642C73.1235 32.8417 73.2361 32.7749 73.2025 32.6974Z" fill="#B9643C"/>
<path d="M75.0145 59.4528C74.8063 61.0924 74.8243 62.7511 74.908 64.3978C75.048 67.1694 75.3698 69.9516 75.1449 72.722C75.1078 73.1724 75.0576 73.6216 74.9894 74.0708C74.9762 74.1531 74.8494 74.1185 74.8626 74.0351C74.9284 73.5978 74.9786 73.1593 75.0145 72.7196C75.1306 71.3172 75.1054 69.904 75.0313 68.4979C74.8626 65.2974 74.4618 62.0731 74.9643 58.8809C75.2311 57.1948 75.6271 55.5422 75.7802 53.8382C75.9058 52.4489 75.9226 51.0536 75.84 49.663C75.8831 49.6499 75.9274 49.6356 75.9692 49.6201C76.0709 51.2811 76.0291 52.9493 75.8329 54.602C75.6402 56.2344 75.2215 57.8276 75.0145 59.4564V59.4528Z" fill="#B1B1C2"/>
<path d="M76.8162 28.4144C76.4178 28.2548 75.6233 28.2464 75.2465 28.5205C75.0598 28.6563 74.994 28.8089 75.0383 29.065C75.0921 29.376 75.3709 29.4249 75.5803 29.4523C75.8423 29.4868 76.1055 29.5214 76.3675 29.556C76.5506 29.5798 76.742 29.6191 76.9238 29.5655C77.1464 29.5 77.3139 29.3033 77.2971 29.0281C77.278 28.7159 77.0566 28.511 76.8162 28.4156V28.4144Z" fill="#C8512C"/>
<path d="M71.8321 28.5535C71.7722 28.824 71.9194 29.0456 72.1443 29.1457C72.3286 29.2279 72.5367 29.2208 72.7329 29.2267C73.0153 29.2363 73.5956 29.2911 73.8241 28.93C73.9629 28.7108 73.927 28.5416 73.7499 28.3772C73.3922 28.0435 72.8765 27.9339 72.4315 28.0268C72.1635 28.0828 71.899 28.2485 71.8309 28.5547L71.8321 28.5535Z" fill="#C8512C"/>
<path d="M74.1565 33.8487C73.1503 34.0667 72.1249 33.994 71.157 33.639C71.0781 33.6104 71.0434 33.7367 71.1223 33.7653C72.1118 34.1275 73.1622 34.1978 74.1911 33.975C74.2737 33.9571 74.239 33.8308 74.1565 33.8487Z" fill="#B9643C"/>
<path d="M99.2393 60.8555C98.9474 60.093 97.7426 60.0215 97.063 60.0381C96.8823 60.0429 96.7017 60.056 96.5234 60.0775C95.68 60.1764 94.858 60.4385 94.0552 60.7018C92.9892 61.0498 91.9687 61.4525 91.0761 62.1448C90.8668 62.3081 90.3248 62.7823 89.8618 63.2399C89.5029 63.5961 89.1918 63.9441 89.1212 64.1299C88.8377 64.8723 89.3928 65.4907 90.0903 65.6778C90.3978 65.76 90.722 65.7993 91.0534 65.81C91.7222 65.8315 92.4161 65.7326 93.0371 65.6253C94.0385 65.4526 95.0243 65.1571 95.9587 64.7615C96.7627 64.4195 97.4435 63.9607 98.0213 63.3304C98.1027 63.241 98.1816 63.1493 98.2594 63.0528C98.7009 62.5082 99.5336 61.6253 99.2393 60.8544V60.8555Z" fill="#212333"/>
<path d="M50.6602 53.2962C50.5561 52.8768 50.4293 52.4645 50.3085 52.051C50.2438 51.833 50.1804 51.6149 50.117 51.3969C49.6744 49.8645 49.2496 48.3227 48.7531 46.807C48.5114 46.067 48.2111 45.3509 47.8462 44.6646C47.79 44.5573 47.7314 44.4501 47.6704 44.3441C47.5495 44.1331 47.4275 43.9175 47.2887 43.7173C47.1511 43.5207 47.0135 43.3968 46.8496 43.398C46.8496 43.398 46.8496 43.3991 46.8484 43.3991C46.2502 43.7554 46.1078 44.4441 46.1258 45.1424C46.1342 45.5737 46.2048 46.0063 46.2646 46.3661C46.4237 47.317 46.6989 48.244 46.9621 49.1687C47.2229 50.0802 47.4957 50.9977 47.8522 51.8795C48.0963 52.4836 48.3798 53.0698 48.7244 53.6239C48.9529 53.9933 49.2042 54.3591 49.5009 54.6737C49.806 54.9966 50.732 55.6007 50.8708 54.7618C50.9461 54.3031 50.7703 53.7383 50.6602 53.2962Z" fill="#212333"/>
<path d="M53.6872 53.9246C53.6573 54.2678 53.6321 54.6122 53.6118 54.9553C53.601 55.1269 53.5927 55.2997 53.5843 55.4713C53.5771 55.6238 53.0603 55.7858 52.8856 55.7942C52.4908 55.8121 40.8748 56.5544 38.9342 54.8457C37.8885 53.9258 36.3667 52.664 36.8883 51.1006C37.13 50.3774 37.6923 49.8054 38.2056 49.2633C38.5549 48.8951 38.9043 48.5269 39.2524 48.1587C39.8411 48.1682 40.4285 48.1646 41.0148 48.2409C41.6871 48.3279 42.3499 48.4888 42.9876 48.7175C43.6624 48.9594 44.3073 49.2799 44.9091 49.6696C45.5013 50.0521 46.054 50.4918 46.6642 50.8468C47.8355 51.5284 49.154 51.9252 50.4377 52.3363C51.1209 52.5555 51.8088 52.7617 52.5123 52.9058C52.827 52.9702 53.144 53.0214 53.4646 53.0572C53.6848 53.081 53.7518 53.0441 53.7482 53.28C53.7446 53.4933 53.7063 53.7113 53.6872 53.9234V53.9246Z" fill="#FFA47A"/>
<path d="M48.7543 46.807C48.5126 46.067 48.2123 45.3509 47.8474 44.6646C47.2707 44.8135 46.6988 44.972 46.1282 45.1424C46.1162 45.1459 46.1042 45.1495 46.0923 45.1531C44.1038 45.7524 42.0436 46.4245 40.2071 47.4266C38.5441 48.3345 36.9923 49.8037 36.783 51.7686C36.7854 51.7698 36.7889 51.7686 36.7925 51.771C37.8777 52.2071 39.049 52.4097 40.2274 52.3477C41.4526 52.2822 42.6837 52.7767 43.8944 52.5812C45.2165 52.3656 46.5385 52.1404 47.8546 51.8794C48.6119 51.7305 49.3668 51.5708 50.1182 51.3956C49.6755 49.8633 49.2508 48.3214 48.7543 46.8058V46.807Z" fill="#FFA47A"/>
<path d="M21.4929 57.7469C21.1399 55.5961 20.9617 53.3917 20.9617 51.1933C20.9617 40.654 24.99 30.7462 32.3037 23.2942C39.6186 15.841 49.343 11.7373 59.6884 11.7373C62.3145 11.7373 64.9395 12.0066 67.4902 12.538L67.4651 12.6548C64.9227 12.1246 62.3062 11.8565 59.6884 11.8565C38.3994 11.8565 21.0801 29.5034 21.0801 51.1945C21.0801 53.3858 21.2584 55.5854 21.6101 57.729L21.4917 57.748L21.4929 57.7469Z" fill="#212333"/>
<path d="M30.3162 36.0281L30.1965 36.0174C30.5411 32.0924 31.4671 28.2639 32.9471 24.638C34.3636 21.1682 36.2683 17.9415 38.6073 15.0472C39.9294 13.4112 41.3974 11.8776 42.9707 10.4883L43.0496 10.5776C41.4823 11.9622 40.0191 13.491 38.7006 15.1222C36.3688 18.007 34.4701 21.2242 33.0584 24.6833C31.582 28.2985 30.6595 32.115 30.3162 36.0281Z" fill="#212333"/>
<path d="M35.4382 21.407C35.4382 21.9968 34.9585 22.4746 34.3662 22.4746C33.774 22.4746 33.2943 21.9968 33.2943 21.407C33.2943 20.8172 33.774 20.3394 34.3662 20.3394C34.9585 20.3394 35.4382 20.8172 35.4382 21.407Z" fill="#212333"/>
<path d="M30.7938 36.4422C30.7938 36.7369 30.5542 36.9767 30.2571 36.9767C29.96 36.9767 29.7205 36.7381 29.7205 36.4422C29.7205 36.1463 29.96 35.9077 30.2571 35.9077C30.5542 35.9077 30.7938 36.1463 30.7938 36.4422Z" fill="#212333"/>
<path d="M43.5477 10.5345C43.5477 10.8292 43.3081 11.069 43.011 11.069C42.7139 11.069 42.4744 10.8304 42.4744 10.5345C42.4744 10.2386 42.7139 10 43.011 10C43.3081 10 43.5477 10.2386 43.5477 10.5345Z" fill="#212333"/>
<path d="M97.3932 100.375H91.8479L43.8979 36.2119L45.8074 34.7463L45.9091 34.6677L47.419 33.5083L97.3932 100.375Z" fill="#B1B1C2"/>
<path d="M37.3669 23.5059L36.9517 23.8407L40.6881 28.4175L40.3483 28.6927L36.6119 24.1171L36.1968 24.452L39.7585 32.2638L42.5557 34.5849L46.0193 31.7836L44.2283 28.6498L37.3669 23.5059Z" fill="#212333"/>
<path d="M45.7827 31.5056L42.3315 34.2969L44.0067 36.3512L47.4579 33.5599L45.7827 31.5056Z" fill="#212333"/>
<path d="M94.8616 100.375H94.7025L45.8074 34.7463L45.2833 34.0432C45.2343 33.9777 45.3396 33.905 45.3886 33.9706L45.9091 34.6676L94.8616 100.375Z" fill="#80809C"/>
<path d="M111.391 73.4897C104.764 73.4897 99.3913 78.841 99.3913 85.4411C99.3913 92.0411 104.764 97.3924 111.391 97.3924C118.018 97.3924 123.391 92.0411 123.391 85.4411C123.391 78.841 118.018 73.4897 111.391 73.4897ZM111.533 95.5109C105.966 95.5109 101.452 91.0163 101.452 85.472C101.452 79.9277 105.966 75.432 111.533 75.432C117.099 75.432 121.612 79.9277 121.612 85.472C121.612 91.0163 117.099 95.5109 111.533 95.5109Z" fill="#E3B162"/>
<path d="M48.71 61.6025C45.3649 61.6025 42.643 64.3133 42.643 67.6437C42.643 70.9741 45.3649 73.6849 48.71 73.6849C52.0552 73.6849 54.7758 70.9741 54.7758 67.6437C54.7758 64.3133 52.054 61.6025 48.71 61.6025ZM52.3017 67.6437C52.3017 69.6169 50.6901 71.222 48.71 71.222C46.73 71.222 45.1172 69.6169 45.1172 67.6437C45.1172 65.6705 46.7288 64.0667 48.71 64.0667C50.6913 64.0667 52.3017 65.6717 52.3017 67.6437Z" fill="#4C8B7B"/>
<path d="M109.916 26.647C109.359 25.9082 108.312 25.7545 107.563 26.2931C108.296 25.7271 108.44 24.6797 107.881 23.9386C107.318 23.1915 106.252 23.0413 105.502 23.6025V23.5966C106.252 23.0354 106.403 21.9737 105.839 21.2266C105.298 20.5105 104.298 20.3448 103.555 20.8262C104.22 20.2483 104.335 19.2498 103.797 18.5349C103.233 17.7877 102.167 17.6376 101.417 18.1988L98.627 20.2888L100.669 22.9948L100.674 22.9913L102.713 25.6913H102.712L104.753 28.3962L104.747 28.4009L106.789 31.107L107.788 30.3587L108.753 29.6354L109.579 29.017C110.329 28.4557 110.48 27.3941 109.916 26.647Z" fill="#A989D6"/>
<path d="M79.3153 68.1202C78.4144 68.113 77.5219 67.8592 76.755 67.3719C76.298 67.0812 75.7034 66.5319 75.232 66.2626C74.757 65.9909 74.227 65.9373 73.691 66.0111C73.1179 66.0898 71.2754 66.5295 70.6461 66.6224C70.1448 66.6963 69.4748 66.5354 68.7019 67.0955C68.5416 67.2122 68.4112 67.6412 68.4004 67.8438C67.8405 67.6996 67.082 67.6471 66.8511 67.9498C66.4658 68.4562 66.9384 69.2343 67.4146 69.4833C67.0916 69.7145 67.1526 70.1875 67.417 70.4568C67.5857 70.6284 67.8046 70.7595 68.0463 70.862C67.9422 70.937 67.8704 71.0526 67.8429 71.1932C67.7903 71.4601 67.9458 71.6972 68.148 71.8557C68.5452 72.1679 69.0908 72.2751 69.6375 72.3157C69.5275 72.9329 70.4846 73.1855 70.9452 73.257C71.736 73.3797 72.5448 73.2332 73.3105 73.0354C74.5835 72.7077 75.8182 72.2442 76.9979 71.6675C77.5638 71.6806 78.3271 71.6984 79.2124 71.7175C79.277 70.5188 79.307 69.3189 79.3165 68.119L79.3153 68.1202Z" fill="#FFA47A"/>
<path d="M98.1445 64.97C96.862 64.0001 95.8654 63.9012 94.3447 63.9691C92.6207 64.0453 82.316 67.732 78.7112 68.1002C78.6274 68.105 78.5437 68.1062 78.4599 68.1062C78.4504 69.3073 78.4193 70.5083 78.3535 71.7071C82.9453 71.8774 90.6143 72.1301 92.123 71.9227C96.2722 71.3543 98.6123 70.5822 99.0538 69.3192C99.5252 67.9715 99.3984 65.9197 98.1434 64.97H98.1445Z" fill="#FFA47A"/>
<path d="M99.2394 67.9367C99.1521 66.7415 99.066 65.768 98.5934 64.6813C98.5216 64.5157 98.0957 63.4957 98.0203 63.3301C97.5537 62.2637 97.0656 61.2056 96.5607 60.1546C96.5487 60.1284 96.5355 60.1034 96.5236 60.0771C95.6801 60.176 94.8582 60.4382 94.0554 60.7015C92.9894 61.0495 91.9688 61.4522 91.0763 62.1445C90.8669 62.3077 90.325 62.782 89.8619 63.2395C90.2903 64.0832 91.0416 65.7954 91.4065 66.6653C91.7595 67.5065 92.0849 68.362 92.378 69.2283C92.4809 69.5333 92.5838 69.8372 92.6879 70.1422C92.7513 70.3245 92.8015 70.6141 92.9702 70.7428C93.0994 70.8417 93.2681 70.8309 93.4225 70.8274C93.7838 70.819 94.1451 70.8035 94.5064 70.7857C95.6765 70.7261 96.904 70.682 98.0047 70.2435C98.9427 69.8682 99.3172 69.0234 99.2382 67.9367H99.2394Z" fill="#FFA47A"/>
<path d="M47.6666 51.3875C45.4006 50.2496 43.442 48.4885 40.9571 47.8069C40.8757 47.7843 40.8398 47.9106 40.9224 47.9332C43.3954 48.6124 45.3443 50.3676 47.6008 51.5007C47.6761 51.5389 47.7431 51.4257 47.6678 51.3875H47.6666Z" fill="#B9643C"/>
<path d="M70.2216 69.6861C69.3207 69.7422 68.4294 69.6575 67.5548 69.4312C67.4723 69.4097 67.4376 69.536 67.5201 69.5575C68.4043 69.7862 69.3088 69.8732 70.2216 69.8172C70.3054 69.8125 70.3066 69.6802 70.2216 69.6861Z" fill="#B9643C"/>
<path d="M70.7932 70.9336C69.9174 70.9788 69.044 70.9371 68.1766 70.8037C68.0941 70.7906 68.0582 70.9169 68.1419 70.93C69.0213 71.0646 69.9054 71.1111 70.7944 71.0646C70.8793 71.0599 70.8793 70.9288 70.7944 70.9336H70.7932Z" fill="#B9643C"/>
<path d="M71.8967 72.2208C71.2255 72.4377 70.4777 72.34 69.7838 72.3197C69.6989 72.3174 69.6989 72.4484 69.7838 72.4508C70.4921 72.4711 71.247 72.5688 71.9326 72.3471C72.0127 72.3209 71.978 72.1946 71.8979 72.2208H71.8967Z" fill="#B9643C"/>
<path d="M72.0126 67.3234C71.0531 67.8715 69.944 67.8155 68.8792 67.7464C68.7943 67.7405 68.7943 67.8727 68.8792 67.8775C69.9703 67.949 71.0985 67.9967 72.0796 67.4366C72.1538 67.3949 72.0868 67.2805 72.0126 67.3234Z" fill="#B9643C"/>
<path d="M63.9131 44.8851C63.4644 46.4746 63.1043 48.0856 62.8363 49.7144C62.8231 49.7967 62.9499 49.8324 62.9631 49.749C63.2323 48.1201 63.5912 46.5092 64.0399 44.9196C64.0626 44.8386 63.9358 44.8029 63.9131 44.8851Z" fill="#B1B1C2"/>
<path d="M62.324 51.0799C62.318 50.8869 62.2869 50.6211 62.0763 50.5413C62.0021 50.5127 61.9267 50.5175 61.8538 50.5389C61.8837 50.4198 61.8932 50.2947 61.8777 50.1648C61.8298 49.7859 61.5319 49.4999 61.1646 49.5059C61.2412 49.2687 61.2304 49.0233 61.0582 48.7885C60.6669 48.2523 60.0831 48.6873 59.626 49.0602C59.6631 48.8553 59.6225 48.661 59.4621 48.499C59.1582 48.1916 58.7766 48.5085 58.4392 48.5812C57.9068 48.6956 57.3493 48.6348 56.8252 48.7945C55.6563 49.1496 54.9433 50.1159 54.1668 50.9846C53.1403 51.9033 52.3614 52.6575 51.8996 52.8815C51.9223 52.928 51.9439 52.9769 51.9642 53.0293C52.2525 53.7919 52.0563 54.7261 52.2944 55.4255C52.3483 55.584 52.371 55.7329 52.3674 55.8723C54.4324 55.8723 58.6904 55.6257 59.2001 55.4696C59.7852 55.2897 61.0151 54.6164 61.429 54.1696C61.8035 53.7645 62.2151 53.1592 62.2282 52.5884C62.2318 52.4144 62.1577 52.2298 62.0392 52.1034C62.2163 51.7865 62.3371 51.4421 62.3252 51.0835L62.324 51.0799Z" fill="#FFA47A"/>
<path d="M59.1019 49.1081C58.512 49.5037 57.872 49.7956 57.1852 49.9827C57.1039 50.0053 57.1386 50.1316 57.2199 50.109C57.9174 49.9195 58.5683 49.6228 59.1677 49.2213C59.2383 49.1748 59.1713 49.0604 59.1007 49.1081H59.1019Z" fill="#B9643C"/>
<path d="M60.9327 49.6155C60.5714 50.0242 60.1418 50.3495 59.6824 50.6426C59.2302 50.931 58.7528 51.267 58.2168 51.3659C58.1331 51.3814 58.169 51.5077 58.2515 51.4922C58.8007 51.3898 59.2852 51.0502 59.7482 50.7547C60.216 50.4568 60.6563 50.1243 61.0248 49.7073C61.081 49.6441 60.9877 49.5512 60.9315 49.6143L60.9327 49.6155Z" fill="#B9643C"/>
<path d="M61.8824 52.119C61.2399 53.2117 60.1273 53.836 59.0457 54.4247C58.9715 54.4652 59.0373 54.5784 59.1127 54.5379C60.2146 53.9373 61.3428 53.2963 61.9961 52.1845C62.0391 52.1119 61.9255 52.0451 61.8824 52.1178V52.119Z" fill="#B9643C"/>
<path d="M61.7926 50.5655C60.942 51.5247 59.931 52.3147 58.7932 52.9093C58.7179 52.9486 58.7849 53.0618 58.8602 53.0225C60.0076 52.4231 61.0281 51.6248 61.886 50.6584C61.9422 50.5953 61.8489 50.5024 61.7926 50.5655Z" fill="#B9643C"/>
<path d="M93.7802 63.3567C92.7788 63.7022 91.7905 64.08 90.8142 64.4911C90.7365 64.5232 90.8035 64.6364 90.8812 64.6043C91.8468 64.1979 92.8254 63.825 93.8161 63.483C93.8962 63.4556 93.8615 63.3281 93.7814 63.3567H93.7802Z" fill="#B9643C"/>
<path d="M72.0627 44.8062C71.7457 44.413 71.4825 43.9805 71.2898 43.5134C71.1271 43.119 71.0924 42.6841 70.9345 42.2956C70.828 42.0347 70.6258 41.9572 70.3566 41.9501C69.8841 41.937 69.4055 41.9954 68.9401 42.074C68.9126 42.0788 68.891 42.1098 68.8922 42.1372C68.8803 42.1479 68.8719 42.1634 68.8719 42.1848C68.8958 43.3883 69.1291 44.5679 69.5682 45.6892C69.5802 45.719 69.6137 45.75 69.6496 45.7345C70.4284 45.4151 71.2228 45.1423 72.034 44.9159C72.0855 44.9016 72.0938 44.8432 72.0627 44.8062Z" fill="#F2E6E6"/>
<path d="M79.6026 47.2564C80.3432 47.6568 81.0575 48.0977 81.7454 48.5814C81.7765 48.6041 81.8172 48.5814 81.8351 48.5552C82.5135 47.5579 83.004 46.4605 83.2948 45.2927C83.2995 45.2725 83.2948 45.2546 83.2864 45.2415C83.2924 45.2153 83.2792 45.1807 83.2529 45.17C82.8174 44.9901 82.3639 44.828 81.8997 44.7363C81.6353 44.6839 81.4212 44.7148 81.2597 44.946C81.0192 45.2892 80.8876 45.7062 80.6411 46.0553C80.3492 46.4688 79.9962 46.8322 79.599 47.1456C79.5607 47.1754 79.556 47.2338 79.6026 47.2588V47.2564Z" fill="#F2E6E6"/>
<path d="M72.0998 55.6512L71.8437 55.5023L71.7373 55.6357C71.4429 56.0027 71.0027 56.1946 70.4978 56.1731C69.9283 56.1505 69.3815 55.849 69.0693 55.3879C68.7905 54.9768 68.7008 54.4632 68.8204 53.9795C68.94 53.4969 69.2571 53.0882 69.6878 52.8594L69.8577 52.7688L69.7716 52.5973C69.6603 52.3756 69.5478 52.1564 69.4342 51.9359L69.3397 51.7524L69.1602 51.8549C68.4854 52.2374 67.9877 52.8963 67.7963 53.6625C67.6001 54.4454 67.7281 55.2485 68.1564 55.9253C68.6768 56.7463 69.6136 57.2741 70.6007 57.3015C70.6282 57.3015 70.6557 57.3027 70.6832 57.3027C71.5231 57.3027 72.2685 56.9321 72.7387 56.2768L72.8631 56.104L72.68 55.9944C72.4874 55.8776 72.2936 55.7656 72.0986 55.6524L72.0998 55.6512Z" fill="#6B3EAC"/>
<path d="M94.5483 52.7578C94.5483 52.7578 94.5447 52.759 94.5424 52.7602C93.6259 53.0903 92.908 53.8886 92.67 54.8442C92.6616 54.8704 92.6568 54.8978 92.6496 54.9241C92.4702 55.7415 92.6747 56.5458 93.2167 57.1439L93.3603 57.3012L93.5063 57.1475C93.6618 56.9843 93.8149 56.821 93.9669 56.6554L94.1679 56.4385L94.0614 56.3063C93.7647 55.9416 93.6714 55.4722 93.7994 54.9848C93.9441 54.4355 94.3557 53.9684 94.875 53.7623C94.9611 53.7277 95.0472 53.7015 95.1358 53.6825C94.9431 53.3727 94.7481 53.064 94.5495 52.7578H94.5483Z" fill="#6B3EAC"/>
<path d="M84.5883 46.2161C84.1875 46.8762 83.7759 47.5304 83.3571 48.1798C82.5914 49.3677 81.7946 50.5367 80.9703 51.6865C80.95 51.7139 80.9655 51.7616 80.9942 51.7759C81.2802 51.9201 81.5661 52.0642 81.8545 52.2084C81.888 52.2251 81.9226 52.2168 81.9442 52.1846C82.4562 51.4542 82.9611 50.719 83.4588 49.9814C84.1923 48.8983 84.9125 47.808 85.6279 46.7153C85.6591 46.6665 85.6926 46.6176 85.7237 46.57C85.3492 46.4365 84.9783 46.3078 84.6134 46.1768C84.605 46.1899 84.5978 46.2042 84.5883 46.2173V46.2161Z" fill="#6B3EAC"/>
<path d="M64.6318 67.7294C63.859 67.2826 63.0813 66.8429 62.3 66.4104C62.0344 66.2614 61.7688 66.1161 61.502 65.9707L61.7772 67.3469C62.5979 67.7974 63.4091 68.2597 64.2155 68.7363C64.2442 68.7542 64.2909 68.7363 64.3028 68.7065C64.4225 68.4098 64.5445 68.1143 64.6629 67.8176C64.6773 67.7831 64.6653 67.7485 64.6318 67.7294Z" fill="#6B3EAC"/>
<path d="M83.7635 61.8813C83.4752 61.7133 83.1797 61.7395 82.8602 61.7491C82.4606 61.761 82.1029 61.6621 81.9366 61.2665C81.7607 60.8459 81.9115 60.399 81.9581 59.9701C82.018 59.4255 81.8457 58.8858 81.488 58.4675C81.1326 58.0517 80.684 57.8872 80.1683 57.7645C79.801 57.6775 79.4421 57.5405 79.2566 57.1902C79.0796 56.8553 79.1035 56.4538 79.1191 56.088C79.1394 55.6209 79.1849 55.0918 78.8666 54.7058C78.656 54.4496 78.3498 54.3173 78.0279 54.2554C77.8544 54.4663 77.6714 54.6677 77.4704 54.8523C77.6523 54.9119 77.8233 54.9989 77.9717 55.1228C78.3258 55.4195 78.418 55.8556 78.4215 56.2965C78.4251 56.7696 78.2923 57.3439 78.528 57.7812C78.8164 58.3174 79.4983 58.2626 79.9924 58.4759C80.8239 58.8357 81.348 59.7425 81.2499 60.6362C81.1781 61.2891 80.9256 62.2579 81.9151 62.2781C82.3793 62.2876 82.7609 62.2269 83.1474 62.5367C83.809 63.0669 83.8293 63.8867 83.6798 64.6565C83.8939 64.5433 84.1081 64.4301 84.3199 64.3121C84.4778 63.7247 84.5807 63.0919 84.3211 62.5283C84.2026 62.2698 84.0136 62.0267 83.7635 61.8813Z" fill="#6B3EAC"/>
<path d="M62.1577 45.5539C62.1421 45.2704 62.0548 44.976 61.8765 44.7485C61.6696 44.4875 61.3848 44.4041 61.0845 44.2969C60.7088 44.161 60.4121 43.9394 60.4026 43.5104C60.393 43.0553 60.6981 42.6954 60.8979 42.3117C61.1037 41.9221 61.1683 41.4788 61.0929 41.0522C60.7878 41.119 60.4851 41.1976 60.1836 41.281C60.2781 41.7481 60.2195 42.2462 59.9934 42.674C59.6859 43.2554 59.0949 44.0657 60.0089 44.4458C60.4373 44.6233 60.8141 44.7056 61.0594 45.1357C61.4817 45.8697 61.1982 46.6406 60.777 47.3031C61.0187 47.2757 61.258 47.2483 61.4985 47.215C61.861 46.7264 62.19 46.1747 62.1565 45.5551L62.1577 45.5539Z" fill="#6B3EAC"/>
<path d="M80.0285 37.8859C80.239 37.7072 80.4807 37.6071 80.7391 37.5213C81.0801 37.4069 81.3517 37.2794 81.6018 37.0161C82.0205 36.5776 82.3483 36.1022 82.8388 35.7292C83.1176 35.5171 83.4143 35.3312 83.7098 35.1454C83.869 34.9273 83.979 34.6723 84.0664 34.4173C84.18 34.0873 84.3583 33.6571 84.1633 33.3247C84.0987 33.2139 83.9994 33.1114 83.8869 33.0196C83.9072 32.9732 83.93 32.9279 83.9491 32.8802C84.003 32.3881 83.9958 31.8853 83.9312 31.386C83.7625 30.0717 83.1559 28.9874 82.0707 28.2272C81.4869 27.8185 80.8612 27.4741 80.2845 27.0535C79.7186 26.6412 79.1563 26.2206 78.4875 25.993C77.7361 25.7368 76.925 25.6975 76.1401 25.7785C75.591 25.8345 75.0083 25.9192 74.4939 26.1444C73.7042 26.0609 72.4348 26.4256 72.4707 27.3049C72.4719 27.3359 72.4899 27.355 72.5126 27.3633C72.5305 27.3836 72.5604 27.3943 72.5916 27.3776C73.7329 26.7461 74.3204 26.3827 76.2586 26.764C77.9515 27.0964 78.9206 27.8304 78.984 29.1959C79.0139 29.8215 78.6155 30.3267 78.5533 30.932C78.4983 31.4694 78.7639 31.7089 79.1264 32.0473C79.3932 32.2964 79.5272 32.5645 79.5726 32.8421C79.6205 33.8776 78.7782 34.7533 78.387 35.7209C78.1812 36.2309 78.1118 36.7695 78.3128 37.2926C78.5054 37.7942 78.8536 38.2148 78.9804 38.7427C79.0773 38.6843 79.5966 38.2518 80.0273 37.8871L80.0285 37.8859Z" fill="#C8512C"/>
<path d="M79.7056 32.8747C79.5118 32.1466 78.7748 32.0048 78.1491 32.1931C77.8177 32.1192 77.5389 32.3253 77.3583 32.603C77.125 32.9652 76.9036 33.4645 76.9443 33.9054C77.0221 34.7609 78.0235 34.9325 78.6899 34.6679C79.3838 34.3927 79.909 33.6396 79.7044 32.8735L79.7056 32.8747Z" fill="#FFA47A"/>
<path d="M79.2377 32.7644C78.8859 32.6035 78.5102 32.6619 78.2279 32.9276C78.1932 32.961 78.2087 33.0265 78.2566 33.0373C78.637 33.1231 78.6574 33.5592 78.3583 33.7415C78.1633 33.8606 77.9288 33.8213 77.7278 33.7415C77.65 33.7105 77.6153 33.8368 77.6931 33.8678C78.0305 34.0024 78.4803 33.975 78.6574 33.6021C78.7878 33.3256 78.6526 33.0599 78.4073 32.9479C78.6323 32.7859 78.9098 32.7561 79.1718 32.8764C79.2472 32.911 79.3142 32.7978 79.2377 32.7632V32.7644Z" fill="#B9643C"/>
<path d="M32.9521 78.2139L25.5403 85.5968L32.9521 92.9784L40.3639 85.5968L32.9521 78.2139ZM27.2607 85.6659L33.0215 79.9285L38.781 85.6659L33.0215 91.4032L27.2607 85.6659Z" fill="#6B3EAC"/>
<path d="M13.0174 61.8086L9.50238 65.3094L13.0174 68.8102L16.5325 65.3094L13.0174 61.8086Z" fill="#A3B7F0"/>
<path d="M79.2689 24.9447C79.2234 24.8744 79.111 24.9399 79.1564 25.0114C79.5309 25.5952 79.3227 26.253 79.1768 26.8738C79.0464 27.4279 79.0057 27.9843 79.0536 28.5527C79.0607 28.6361 79.1911 28.6373 79.184 28.5527C79.1229 27.8187 79.2581 27.1526 79.4161 26.4424C79.5297 25.9313 79.562 25.4022 79.2689 24.9447Z" fill="#A03A1F"/>
<path d="M83.7638 34.8203C82.5961 35.0444 82.4896 33.1009 82.4669 32.3574C82.4669 32.3371 82.4573 32.3205 82.4454 32.3109C82.5734 32.1572 82.6763 31.9773 82.7529 31.7938C83.3415 30.3818 83.0627 28.6755 82.1977 27.4446C82.1499 27.3767 82.0362 27.4422 82.0853 27.5113C82.8079 28.5385 83.095 29.8444 82.833 31.0789C82.7146 31.6365 82.4741 32.3884 81.8687 32.5802C81.4559 32.7101 81.0779 32.5433 80.9128 32.1405C80.7776 31.8117 80.6938 31.4578 80.6268 31.1098C80.6173 31.061 80.5503 31.0467 80.518 31.0812C80.226 31.3887 79.7762 31.1861 79.5859 30.8703C79.44 30.6261 79.4005 30.3306 79.3598 30.0541C79.3479 29.9707 79.2222 30.0065 79.2342 30.0887C79.2928 30.4902 79.3694 30.9752 79.7307 31.223C79.9724 31.3887 80.2882 31.4173 80.5215 31.2504C80.6292 31.8248 80.78 32.6541 81.4476 32.7482C81.8065 32.7983 82.1068 32.6577 82.3401 32.4289C82.3724 33.3095 82.5399 35.1897 83.8009 34.9478C83.8835 34.9324 83.8488 34.8049 83.7662 34.8215L83.7638 34.8203Z" fill="#A03A1F"/>
<path d="M75.4857 45.6419C74.9258 44.7792 74.0177 44.2847 73.1263 43.8212C73.051 43.7818 72.984 43.895 73.0593 43.9344C73.9291 44.386 74.8241 44.865 75.372 45.7074C75.4175 45.7777 75.5323 45.7122 75.4857 45.6407V45.6419Z" fill="#B9643C"/>
<path d="M79.5679 45.5671C78.6694 45.504 77.7601 45.4551 76.8927 45.7459C76.8126 45.7721 76.8473 45.8996 76.9274 45.8722C77.7841 45.5862 78.6802 45.6363 79.5667 45.6982C79.6517 45.7042 79.6517 45.5731 79.5667 45.5671H79.5679Z" fill="#B9643C"/>
<path d="M88.6556 51.3886C88.6377 54.7476 88.2213 58.0923 87.4138 61.3536C87.3934 61.4358 87.5202 61.4704 87.5406 61.3882C88.3506 58.1162 88.7693 54.7584 88.7872 51.3886C88.7872 51.304 88.6556 51.304 88.6556 51.3886Z" fill="#B1B1C2"/>
<path d="M127.825 66.5009L126.562 67.0538C126.13 67.2444 125.118 67.6913 124.916 67.4232C124.747 67.1992 124.697 66.6296 124.664 66.2507L124.657 66.1661C124.622 65.7788 124.631 65.3785 124.639 64.9543C124.643 64.7839 124.646 64.6147 124.648 64.4431C124.651 63.864 124.607 63.1872 124.262 62.5557C123.909 61.9099 123.291 61.4571 122.522 61.2831C121.728 61.1032 120.954 61.2176 120.302 61.3534C119.638 61.4916 118.983 61.7121 118.352 62.0099L117.431 62.4449L118.101 63.2098C118.234 63.3612 118.363 63.5149 118.492 63.6698L118.867 64.1226L119.404 63.8819C119.805 63.7031 120.217 63.5637 120.631 63.4708C121.044 63.3767 121.573 63.2801 122 63.36C122.297 63.4148 122.382 63.5685 122.419 63.6793C122.52 63.9772 122.506 64.3811 122.49 64.8077L122.487 64.8911C122.461 65.6597 122.495 66.3484 122.595 67.0002C122.672 67.5173 122.791 68.2978 123.365 68.9067C123.817 69.3881 124.43 69.6395 125.139 69.6395C125.17 69.6395 125.203 69.6395 125.235 69.6383C125.954 69.6156 126.653 69.3464 127.116 69.1462C127.59 68.9412 128.068 68.7327 128.543 68.5254L129.7 68.019L127.825 66.4997V66.5009Z" fill="#FF7847"/>
<path d="M31.0245 53.4715C30.6142 53.1581 30.2002 52.8424 29.7874 52.5302L28.7812 51.7676L28.3565 54.1364L29.456 54.9693C29.8329 55.2529 30.7158 55.9178 30.5795 56.224C30.4658 56.479 29.9884 56.7995 29.6726 57.0116L29.602 57.0593C29.2778 57.2773 28.9224 57.4644 28.5408 57.6658C28.3912 57.7444 28.2429 57.8231 28.0945 57.9041C27.5848 58.1817 27.0117 58.5487 26.6241 59.154C26.2281 59.7748 26.1312 60.5327 26.3501 61.2869C26.5763 62.065 27.0524 62.6834 27.4891 63.1863C27.933 63.6974 28.4451 64.1621 29.011 64.5661L29.8401 65.1571L30.187 64.2027C30.2552 64.0144 30.327 63.8261 30.4012 63.6391L30.6165 63.0933L30.1452 62.7418C29.7934 62.4797 29.4716 62.1877 29.188 61.872C28.9057 61.5574 28.5635 61.1451 28.4259 60.734C28.3302 60.4493 28.4247 60.3015 28.5037 60.2145C28.7166 59.981 29.0947 59.7903 29.4596 59.6044L29.5338 59.5663C30.2205 59.2172 30.8092 58.8526 31.3332 58.4498C31.7484 58.1305 32.3765 57.6491 32.6337 56.8543C32.8455 56.199 32.7545 55.5126 32.3693 54.8716C32.0008 54.2567 31.4253 53.7777 31.0245 53.4715Z" fill="#FF7847"/>
<path d="M51.2391 94.1632C52.0503 94.0607 52.8627 93.9654 53.675 93.8844C53.3771 87.3415 49.9961 80.8154 44.5679 76.3554C41.6594 73.9651 38.2532 72.2195 34.7166 71.308C30.9312 70.3321 27.0979 70.3535 23.6283 71.3723C19.9936 72.4388 16.7944 74.5538 14.5415 77.3623C15.1541 77.8997 15.7547 78.449 16.3481 79.0066C20.039 74.2309 26.6014 72.0491 33.1876 73.4444C39.415 74.7635 45.092 78.9053 48.3749 84.5235C50.136 87.537 51.1231 90.8674 51.2379 94.1632H51.2391Z" fill="#E3B162"/>
<path d="M124.756 45.661C121.259 48.2551 116.764 49.4716 112.275 49.0129C107.337 48.5077 102.558 45.8922 99.1663 41.8385C97.1755 39.4602 95.79 36.8257 95.138 34.1899C94.3496 34.3865 93.5623 34.582 92.7715 34.7667C94.1103 40.0941 97.8347 45.0903 102.848 48.2372C103.604 48.7114 104.385 49.1356 105.188 49.5098C109.479 51.5068 114.361 52.0478 118.93 50.9825C121.658 50.3462 124.217 49.144 126.381 47.4913C125.84 46.88 125.302 46.2687 124.755 45.6634L124.756 45.661Z" fill="#4C8B7B"/>
<path d="M107.513 58.3974H105.759V56.7304C105.759 56.3765 105.47 56.0894 105.115 56.0894C104.76 56.0894 104.471 56.3765 104.471 56.7304V58.3974H102.813C102.458 58.3974 102.169 58.6846 102.169 59.0385C102.169 59.3923 102.458 59.6795 102.813 59.6795H104.471V61.4108C104.471 61.7647 104.76 62.0519 105.115 62.0519C105.47 62.0519 105.759 61.7647 105.759 61.4108V59.6795H107.513C107.868 59.6795 108.156 59.3923 108.156 59.0385C108.156 58.6846 107.868 58.3974 107.513 58.3974Z" fill="#6B3EAC"/>
<path d="M59.0794 85.7294L57.4738 90.7256L57.4631 90.722L55.8587 95.7146H55.8563L54.3572 100.376H45.9559C46.4991 99.2988 47.729 98.7221 48.9242 99.0105C47.6465 98.5064 46.9609 97.098 47.3868 95.7766C47.8295 94.3968 49.3119 93.6365 50.6973 94.0774L50.7069 94.0727C49.3214 93.6318 48.5581 92.1543 49.0008 90.7744C49.4411 89.4077 50.8995 88.6511 52.2754 89.0669C50.9199 88.6082 50.1781 87.1509 50.616 85.7866C51.0598 84.408 52.5422 83.6477 53.9276 84.0886L55.4531 84.5748L57.2369 85.1443L59.0806 85.7318L59.0794 85.7294Z" fill="#A989D6"/>
<path d="M70.6917 100.375H70.5613C70.45 96.2999 70.4703 92.22 70.6175 88.1437C70.6199 88.0615 70.7491 88.0615 70.7467 88.1437C70.6977 89.4866 70.663 90.8271 70.6426 92.17C70.5996 94.9046 70.6163 97.6404 70.6917 100.374V100.375Z" fill="#3E3C57"/>
<path d="M68.2798 75.432C68.0501 76.85 67.7605 78.287 67.081 79.5679C66.6754 80.3317 66.0377 81.2647 65.211 81.7175C65.2098 81.6651 65.2074 81.6138 65.2074 81.5626C65.5496 81.3505 65.8499 81.0538 66.1095 80.7595C66.5175 80.2995 66.8477 79.7717 67.1121 79.2176C67.6876 78.0189 67.9436 76.6998 68.1542 75.3987C68.1685 75.3165 68.2918 75.351 68.2786 75.432H68.2798Z" fill="#3E3C57"/>
<path d="M79.0821 90.7591C78.2877 89.2601 77.4933 87.7599 76.6989 86.2609C76.6606 86.1882 76.5493 86.2526 76.5876 86.3253C77.382 87.8242 78.1764 89.3244 78.9709 90.8234C79.0092 90.8961 79.1204 90.8317 79.0821 90.7591Z" fill="#3E3C57"/>
<path d="M88.7205 79.8372C87.158 79.9373 85.5752 79.4666 84.3428 78.4931C83.0998 77.5149 82.2695 76.0755 82.0134 74.5229C82.0003 74.4418 82.1247 74.4073 82.1378 74.4895C82.3855 75.9861 83.1692 77.3802 84.3548 78.3406C85.5584 79.3165 87.1078 79.7931 88.6499 79.7145C88.6739 79.755 88.6966 79.7967 88.7193 79.8372H88.7205Z" fill="#3E3C57"/>
<path d="M95.137 34.2327C95.137 34.5484 94.607 34.9226 93.9538 35.0691C93.3005 35.2157 92.7705 35.0775 92.7705 34.7617C92.7705 34.446 93.3005 34.0718 93.9538 33.9252C94.607 33.7787 95.137 33.9169 95.137 34.2327Z" fill="#212333"/>
<path d="M16.2717 79.0698C15.9834 79.2128 15.3684 78.9423 14.897 78.4669C14.4256 77.9903 14.2773 77.4898 14.5656 77.3468C14.854 77.2038 15.4689 77.4743 15.9403 77.9498C16.4117 78.4264 16.56 78.9268 16.2717 79.0698Z" fill="#212333"/>
<path d="M126.338 47.5199C126.041 47.6331 125.463 47.2994 125.046 46.7763C124.628 46.2533 124.53 45.7373 124.827 45.6241C125.122 45.5109 125.702 45.8445 126.119 46.3676C126.537 46.8907 126.635 47.4067 126.338 47.5199Z" fill="#212333"/>
<path d="M118.822 64.1517C118.558 64.2518 118.04 63.948 117.664 63.4725C117.288 62.9971 117.197 62.5288 117.462 62.4287C117.726 62.3286 118.244 62.6325 118.62 63.1079C118.996 63.5834 119.087 64.0516 118.822 64.1517Z" fill="#212333"/>
<path d="M129.664 68.0467C129.4 68.1468 128.797 67.8704 128.316 67.4283C127.835 66.9863 127.659 66.5466 127.923 66.4453C128.188 66.3452 128.791 66.6216 129.272 67.0637C129.753 67.5058 129.928 67.9455 129.664 68.0467Z" fill="#212333"/>
<path d="M28.3133 54.1124C28.0944 53.9349 28.0358 53.2747 28.1817 52.6396C28.3277 52.0045 28.6244 51.634 28.8434 51.8115C29.0623 51.9891 29.1209 52.6492 28.975 53.2843C28.829 53.9194 28.5323 54.2899 28.3133 54.1124Z" fill="#212333"/>
<path d="M29.8148 65.1392C29.5959 64.9617 29.6067 64.3647 29.8388 63.8059C30.0709 63.2471 30.437 62.9396 30.6559 63.1172C30.8749 63.2947 30.8641 63.8917 30.632 64.4505C30.3999 65.0094 30.0338 65.3168 29.8148 65.1392Z" fill="#212333"/>
</g>
</svg>
