<svg width="140" height="91" viewBox="0 0 140 91" fill="none" xmlns="http://www.w3.org/2000/svg">
<path d="M44.5984 7.13642C44.4715 7.28502 44.3618 7.45192 44.2726 7.63825C43.0449 10.2069 42.0641 12.9001 40.6111 15.3578C39.939 16.4952 39.0896 17.4932 38.3683 18.5952C37.8939 19.3199 37.5624 20.1155 37.2641 20.9271C37.1497 21.2358 37.0446 21.5479 36.9326 21.8577C36.9223 21.8851 36.9108 21.932 36.8971 21.9834C36.8445 22.1 36.7874 22.2143 36.7279 22.3275C36.249 23.2626 36.2421 24.4411 36.7577 25.3328C35.6408 31.1444 33.1842 37.6351 27.9533 44.6677C26.7141 46.3332 25.2943 47.9016 23.7317 49.3728C23.1418 49.9318 22.5303 50.4748 21.9015 51.0052C20.1605 52.4227 18.3201 53.7556 16.4076 55.0062C16.3768 55.0267 16.3345 55.0199 16.3128 54.9947C14.5969 53.0343 13.3852 50.7629 12.7565 48.344C12.4501 47.1631 12.2775 45.9514 12.2524 44.7271C12.2398 44.1133 12.2627 43.4971 12.3221 42.8798C12.3758 42.3346 12.457 41.7493 12.8388 41.268C13.1669 40.8542 13.7304 40.637 14.2746 40.7776C14.2746 40.7776 14.2768 40.7776 14.278 40.7776C14.2871 40.7799 14.2951 40.7822 14.3043 40.7845C14.7341 40.9068 15.0576 41.1926 15.3194 41.5035C14.6438 39.3293 14.3363 37.0601 14.4186 34.7705C14.4552 33.8068 14.5809 32.722 15.3114 31.8886C15.9744 31.1353 17.0775 30.8792 18.0503 31.1867C18.8642 31.4451 19.3741 31.9915 19.6713 32.6362C19.5238 31.3536 19.4907 30.0562 19.5364 28.7553C19.5913 27.1789 19.7136 25.5854 20.0497 24.0159C20.3594 22.5767 20.8647 21.1318 21.7506 19.8309C22.1862 19.1884 22.7143 18.5814 23.3373 18.051C23.8311 17.6315 24.4461 17.2383 25.1366 17.1251C26.0728 16.9696 26.6718 17.4966 27.1153 18.0842C27.5749 18.6923 27.9338 19.3508 28.199 20.0412C28.0447 18.4237 28.0756 16.7844 28.2928 15.1486C28.4139 14.2295 28.5946 13.3128 28.8346 12.4028C29.0655 11.526 29.3216 10.6378 29.7846 9.81134C30.1858 9.09346 30.7608 8.37328 31.6079 7.97319C32.384 7.60739 33.2642 7.59824 34.0336 7.86002C35.2041 8.25897 36.0935 9.10489 36.7485 10.0457C37.1886 9.45469 37.6733 8.89455 38.2003 8.379C39.1514 7.4462 40.2785 6.50655 41.5554 6.07102C42.1064 5.88354 42.7225 5.77952 43.2952 5.92698C43.9045 6.08359 44.3366 6.52484 44.5812 7.09298C44.5881 7.10669 44.5927 7.12156 44.5984 7.13527V7.13642Z" fill="#69785C"/>
<path d="M34.2073 30.6001C33.7969 29.6239 32.9144 29.034 31.8628 28.9689C30.6568 28.8946 29.3993 29.3518 28.3351 29.8834C27.2445 30.4275 26.258 31.2392 25.7505 32.3731C25.5355 32.8544 25.4235 33.3688 25.4304 33.8946C23.8929 32.6383 21.7152 32.5732 19.9262 33.3162C17.9189 34.1507 16.5928 35.9957 15.9527 38.0248C15.5846 39.1919 15.4291 40.4173 15.4291 41.6394C15.1296 41.2553 14.7272 40.9569 14.278 40.7786C14.2768 40.7786 14.2757 40.7786 14.2746 40.7786C13.7304 40.638 13.1669 40.8552 12.8388 41.269C12.457 41.7502 12.3758 42.3355 12.3221 42.8808C12.2627 43.4981 12.2398 44.1142 12.2524 44.7281C12.2775 45.9524 12.4501 47.1641 12.7565 48.345C13.3852 50.7638 14.5969 53.0352 16.3128 54.9957C16.3345 55.0208 16.3768 55.0277 16.4076 55.0071C18.3201 53.7565 20.1605 52.4236 21.9015 51.0062C22.5303 50.4758 23.1418 49.9328 23.7317 49.3738C24.0872 48.5964 24.4621 47.8271 24.8737 47.0727C26.1986 44.6424 27.7544 42.3447 29.4153 40.1316C30.2544 39.0136 31.1209 37.915 32.0022 36.8291C32.807 35.8357 33.6689 34.8434 34.1502 33.6432C34.5366 32.6772 34.6166 31.5752 34.2073 30.6013V30.6001Z" fill="#4D5E44"/>
<path d="M134.928 49.3544C134.22 53.4445 132.989 57.3918 131.32 61.1424C131.211 61.3859 131.102 61.6282 130.988 61.8706C129.498 65.0965 127.681 68.1738 125.598 71.0648H11.8936C12.1679 70.8419 12.4331 70.6029 12.6903 70.3492C14.8577 68.2767 16.5324 65.6898 18.1556 63.1806C19.4256 61.2178 20.7723 59.3077 22.0263 57.3335C24.6372 53.2285 26.9063 48.9738 29.0908 44.6321C30.0362 42.7551 30.8901 40.8358 31.6514 38.8753C31.8789 38.2878 32.0812 37.6888 32.231 37.0772C32.3076 36.7663 32.3659 36.453 32.415 36.1364C32.5968 34.9875 32.7866 33.8193 32.8551 32.6556C32.8906 31.7022 32.7683 30.7934 32.4893 29.9258C32.9432 28.985 33.1947 27.9893 33.2427 26.9376C33.2712 26.8084 33.2952 26.6793 33.3181 26.5501C33.5056 26.2906 33.6816 26.0197 33.8485 25.7385C37.1122 20.8882 39.9208 15.7601 42.5363 10.5348C42.6723 10.3211 42.7969 10.1039 42.9113 9.88326C43.42 9.25339 43.9264 8.61895 44.4156 7.96623C44.7094 7.57413 44.9918 7.16489 45.2067 6.7225C45.4502 6.22066 45.6994 5.69597 45.9257 5.16327C45.9737 5.15069 46.0217 5.13583 46.0697 5.12326C46.2492 5.0741 46.4287 5.02495 46.6093 4.97694C46.8619 4.90835 47.1146 4.84205 47.3683 4.77575C47.3843 4.77117 47.3992 4.76775 47.4152 4.76317C47.7398 4.67858 48.0656 4.59513 48.3914 4.51397C50.7143 3.92983 53.0451 3.42342 55.3588 2.98332C55.4983 2.95703 55.6377 2.92959 55.7772 2.90444C55.8469 2.89072 55.9178 2.87815 55.9875 2.86558C56.007 2.86215 56.0253 2.85872 56.0447 2.85529C56.2859 2.81071 56.5271 2.76612 56.7683 2.72383C61.4426 1.88706 66.0219 1.32349 70.2892 0.967979C71.1534 0.895962 72.0062 0.831946 72.843 0.775933C77.9928 0.432994 82.5916 0.390698 86.2233 0.522158C86.3331 0.525587 86.4428 0.53016 86.5514 0.533589C86.6532 0.538162 86.7526 0.542734 86.8521 0.546164C86.8692 0.546164 86.8863 0.546164 86.9024 0.54845C87.1184 0.557595 87.331 0.567883 87.5379 0.578171C87.5677 0.578171 87.5962 0.581601 87.626 0.582744C87.8066 0.591889 87.9849 0.602177 88.1598 0.612465H88.1667C88.4124 0.627326 88.6513 0.642187 88.8834 0.658191C89.6036 0.708488 90.2654 0.765645 90.8622 0.828517C96.6121 1.43552 102.301 2.66667 107.756 4.58827C108.237 4.75631 108.713 4.93007 109.189 5.10954C109.414 5.19413 109.638 5.28101 109.863 5.36789C113.029 6.59904 116.136 8.06682 119.031 9.86154C119.243 9.99185 119.452 10.1233 119.66 10.2582C119.677 10.2696 119.695 10.2811 119.712 10.2925C119.956 10.448 120.197 10.6069 120.436 10.768C121.151 11.2493 121.849 11.7523 122.53 12.2781C122.957 12.6073 123.377 12.9446 123.789 13.2932C124.076 13.5344 124.359 13.7802 124.637 14.0317C124.651 14.0431 124.665 14.0557 124.678 14.0683C125.197 14.5369 125.698 15.0193 126.177 15.5177C127.839 17.2404 129.263 19.1312 130.465 21.1477C130.682 21.5123 130.892 21.8804 131.093 22.2531C131.138 22.3331 131.182 22.4131 131.224 22.4943C131.322 22.6772 131.418 22.8601 131.512 23.0441C131.608 23.2316 131.702 23.4214 131.793 23.6111C131.839 23.706 131.885 23.7997 131.929 23.8935C131.984 24.0066 132.037 24.1198 132.089 24.2341C133.877 28.1059 134.95 32.3206 135.392 36.6165C135.397 36.6714 135.403 36.7274 135.408 36.7823C135.824 40.9787 135.637 45.2506 134.928 49.3544Z" fill="#FFD19C"/>
<path d="M64.5665 27.0074C66.0983 25.1109 67.6438 23.2236 69.1973 21.3443C68.1742 21.3249 67.15 21.2803 66.128 21.2414C64.1458 21.1648 62.1671 21.1785 60.1849 21.2083C59.0234 21.2254 57.8632 21.2471 56.7018 21.2551C55.9507 21.2597 55.1802 21.1797 54.4235 21.1991C54.4041 21.206 54.3858 21.214 54.3686 21.2208C54.1629 21.3237 54.2234 21.2803 54.3686 21.2208C54.3812 21.214 54.3961 21.2071 54.4109 21.1991C54.3995 21.1991 54.3869 21.1991 54.3755 21.2003C54.0886 21.318 53.7959 21.3957 53.5044 21.4335C53.4404 21.5123 53.3752 21.5912 53.3101 21.6701C49.4909 26.3684 45.738 31.1192 42.0491 35.9204C38.3362 40.7535 34.6908 45.6393 31.1128 50.5741C29.9022 52.2443 28.6996 53.9201 27.5039 55.6016C26.291 54.6597 25.0553 53.7486 23.7956 52.8707C23.735 52.8284 23.6779 52.9279 23.7384 52.9701C24.9947 53.8458 26.2282 54.7557 27.4376 55.6942C25.1376 58.9316 22.8662 62.1895 20.6257 65.468C20.1982 66.0921 19.7729 66.7174 19.3477 67.3427C19.3065 67.4045 19.406 67.4616 19.4471 67.401C22.0992 63.4938 24.7935 59.6152 27.5291 55.7651C30.7607 58.2811 33.8186 61.0189 36.6741 63.9556C35.4887 65.6543 34.3113 67.3587 33.1418 69.0689C32.7154 69.693 32.2891 70.3183 31.865 70.9436C31.8238 71.0042 31.9221 71.0613 31.9633 71.0008C33.5454 68.6699 35.1435 66.3505 36.7553 64.0402C36.8513 64.1385 36.9473 64.2368 37.0433 64.3363C38.1739 65.5126 39.2713 66.7209 40.3355 67.9577C40.3836 68.0138 40.4647 67.9326 40.4167 67.8766C39.2576 66.53 38.0584 65.2199 36.8216 63.9453C37.4331 63.0686 38.0481 62.1929 38.6643 61.3196C38.7226 61.3184 38.7798 61.3173 38.8381 61.315C40.9666 61.2624 43.0951 61.2098 45.2236 61.1573C47.3384 61.1047 49.4589 61.0955 51.5714 60.9995C51.9498 60.9824 52.319 60.9206 52.6299 60.6874C52.91 60.4771 53.1135 60.181 53.2884 59.8815C53.7673 59.0585 54.1777 58.1863 54.5595 57.314C55.1277 56.0143 55.1665 55.1833 55.5529 53.8195V53.967C55.5529 54.0401 55.6672 54.0401 55.6672 53.967V53.4057C55.8238 52.825 55.9644 52.2385 56.0879 51.6498C56.1028 51.5778 55.993 51.547 55.9782 51.619C55.8844 52.0682 55.7804 52.5163 55.6684 52.961V38.2203C58.453 34.6229 61.7121 30.5488 64.5699 27.0085L64.5665 27.0074Z" fill="#FFDBB3"/>
<path d="M70.2895 0.967786C66.0222 1.3233 61.4428 1.88686 56.7686 2.72364C56.5274 2.76593 56.2862 2.81051 56.045 2.8551C56.0255 2.85852 56.0072 2.86195 55.9878 2.86538C55.9181 2.87796 55.8472 2.89053 55.7775 2.90425C55.7226 4.85557 55.6883 6.80919 55.6769 8.76165C55.6586 11.6972 55.6906 14.6328 55.7706 17.5683C55.8701 17.6198 55.9592 17.6929 56.0244 17.7935C56.0415 17.8198 56.0553 17.8473 56.0713 17.8735C59.6778 14.1538 63.297 10.4466 66.9321 6.75431C68.8983 4.75726 70.8691 2.76364 72.8444 0.774597C72.0076 0.830611 71.1549 0.894626 70.2907 0.966643L70.2895 0.967786Z" fill="#FAC487"/>
<path d="M58.2784 65.1457C58.4087 65.1686 58.5401 65.1926 58.6705 65.2143C57.2713 64.1592 55.8538 63.1292 54.4157 62.1267C54.3209 62.0604 54.2305 62.2159 54.3254 62.2822C55.6606 63.2127 56.9763 64.1695 58.2772 65.1457H58.2784Z" fill="#E2A86D"/>
<path d="M124.678 14.0683C124.665 14.0557 124.651 14.0431 124.637 14.0317C124.359 13.7802 124.076 13.5344 123.789 13.2932C123.377 12.9446 122.957 12.6074 122.53 12.2781C121.604 11.5625 120.645 10.8904 119.66 10.2582C119.452 10.1233 119.243 9.99188 119.031 9.86157C116.136 8.06685 113.029 6.59907 109.863 5.36792C107.966 7.66104 106.078 9.96216 104.201 12.2713C98.1737 19.6868 92.2489 27.1846 86.4281 34.7624C80.5672 42.3916 74.8127 50.1021 69.1657 57.8913C67.4967 60.1936 65.8392 62.5039 64.1885 64.8199C65.4791 64.9113 66.7708 64.9639 68.0648 64.9868C70.4151 65.0279 72.7677 64.9788 75.1214 64.9067C75.4186 64.4964 75.7135 64.086 76.0084 63.6767C79.4264 58.9259 83.0981 54.3328 86.8979 49.8826C88.8229 47.6272 90.8177 45.4392 92.8376 43.2696C94.7935 41.1685 96.7368 39.0411 98.3795 36.6817C98.3498 36.62 98.3201 36.5571 98.2915 36.4954C98.2606 36.4291 98.3589 36.3708 98.3898 36.4382C98.4115 36.4851 98.4344 36.5319 98.4561 36.5788C98.5018 36.5422 98.5807 36.5937 98.5418 36.6485C98.5315 36.6634 98.5201 36.6783 98.5098 36.6943C98.9694 37.6636 99.4838 38.6056 100.018 39.535C101.016 41.2759 102.118 43.0192 103.063 44.8288C103.408 44.375 103.752 43.9211 104.097 43.4673C109.948 35.7946 115.905 28.2042 121.967 20.6973C123.364 18.9677 124.768 17.2405 126.177 15.5189C125.698 15.0205 125.197 14.5381 124.678 14.0694V14.0683Z" fill="#FFDBB3"/>
<path d="M132.089 24.2341C132.036 24.1197 131.984 24.0066 131.929 23.8934C131.884 23.7997 131.839 23.7059 131.793 23.6122C131.702 23.4213 131.608 23.2315 131.512 23.0441C131.418 22.86 131.322 22.6771 131.224 22.4942C131.181 22.413 131.138 22.333 131.093 22.253H119.317V21.9672C119.317 21.8941 119.203 21.8941 119.203 21.9672V22.253H118.745C118.672 22.253 118.672 22.3673 118.745 22.3673H119.203V37.5207C119.165 37.5687 119.126 37.6178 119.088 37.6658V38.4615L119.048 38.5026C119.008 38.5415 119.045 38.5975 119.088 38.5998V58.0387C119.296 57.7541 119.507 57.4694 119.717 57.1859C121.73 54.4584 123.766 51.7469 125.821 49.0503C128.968 44.9236 132.163 40.8335 135.408 36.7822C135.421 36.765 135.435 36.7479 135.449 36.7308C135.003 32.3914 133.911 28.1367 132.089 24.2341Z" fill="#FAC487"/>
<path d="M21.6206 55.6096V57.5061L0.0839844 57.5095C0.141141 56.8808 0.141141 56.2806 0.149143 55.6096H21.6206Z" fill="#EBD1C3"/>
<path d="M12.0947 71.9185H11.5586V56.8521C11.7369 56.7755 11.9164 56.7126 12.0947 56.6646V71.9185Z" fill="#EBD1C3"/>
<path d="M8.43652 72.0901H7.90039V57.0236C8.07872 56.947 8.25819 56.8841 8.43652 56.8361V72.0901Z" fill="#EBD1C3"/>
<path d="M4.5498 71.9757H4.01367V56.7949C4.192 56.7183 4.37147 56.6554 4.5498 56.6074V71.9757Z" fill="#EBD1C3"/>
<path d="M1.12109 72.033H0.584961V56.6236C0.763289 56.547 0.942761 56.4842 1.12109 56.4362V72.033Z" fill="#EBD1C3"/>
<path d="M15.4473 71.2729H14.9111V56.6557C15.0895 56.5814 15.2689 56.5208 15.4473 56.4739V71.2729Z" fill="#EBD1C3"/>
<path d="M18.9912 71.1298H18.4551V56.5126C18.6334 56.4383 18.8129 56.3777 18.9912 56.3309V71.1298Z" fill="#EBD1C3"/>
<path d="M88.1658 0.612419V60.8337H87.5371V0.578125C87.5668 0.578125 87.5954 0.581554 87.6251 0.582698C87.8057 0.591843 87.9841 0.602131 88.159 0.612419H88.1658Z" fill="#D6A790"/>
<path d="M88.8828 0.658274V58.4172H88.1592V0.612549H88.166C88.4118 0.62741 88.6507 0.64227 88.8828 0.658274Z" fill="#96746B"/>
<path d="M48.3906 4.51416L38.2865 22.1389L37.6338 21.8257L47.4144 4.76336C47.7391 4.67877 48.0649 4.59532 48.3906 4.51416Z" fill="#96746B"/>
<path d="M131.376 60.891V61.1425C131.233 61.4626 131.088 61.7815 130.938 62.0993C130.902 62.1804 130.863 62.2616 130.824 62.3428C130.333 63.3773 129.809 64.397 129.253 65.3984C128.738 66.33 128.192 67.2468 127.623 68.1476C127.586 68.2082 127.549 68.2676 127.509 68.3271C126.917 69.2598 126.296 70.1766 125.648 71.0751C125.403 71.4146 125.156 71.7507 124.902 72.0845H8.44141L8.44369 72.08L8.44941 72.0708L8.51114 71.9634L10.2613 68.9032L10.3756 68.7031L13.2906 63.6059L13.4049 63.4059L14.8429 60.891H131.376Z" fill="#D6A790"/>
<path d="M39.469 22.3676V72.0937H8.60449L8.61021 72.0846L8.63421 72.0411L10.262 69.1513L10.3763 68.9478L13.2913 63.7717L13.4056 63.5694L14.9134 60.8911L16.6064 57.8858L16.7207 57.6834L19.9786 51.8992L20.093 51.6957L22.2569 47.8525L23.2937 46.0132L23.408 45.8097L26.5516 40.2278L26.666 40.0255L29.8667 34.343L29.981 34.1395L33.239 28.3553L33.3533 28.1518L36.554 22.4693L36.6112 22.3676H39.469Z" fill="#D6A790"/>
<path d="M47.425 4.7757L38.0113 21.1476L37.3094 22.3673L36.9207 23.0441L36.6681 23.483L36.5538 23.6819L33.353 29.249L33.2387 29.4479L29.9808 35.1144L29.8665 35.3133L26.6657 40.8803L26.5514 41.0792L23.4078 46.5457L23.2935 46.7446L22.6945 47.7871L20.0927 52.3116L19.9784 52.5105L16.7205 58.177L16.6062 58.3759L15.1601 60.8908L13.4054 63.943L13.2911 64.1419L10.3761 69.2117L10.2618 69.4106L9.30499 71.075L8.72428 72.0844L8.71857 72.0935L8.70371 72.0844L8.63397 72.0409L8.52766 72.0741C8.52766 72.0741 8.49794 72.0764 8.44421 72.0798C8.08527 72.1038 6.67922 72.185 6.5752 72.0078L7.13419 71.075L10.2618 65.6337L10.3761 65.4348L13.2911 60.3627L13.4054 60.1638L16.6062 54.5945L16.7205 54.3956L19.9784 48.7279L20.0927 48.529L20.167 48.3998L23.2935 42.9597L23.4078 42.7608L26.5514 37.2909L26.6657 37.092L29.8665 31.5238L29.9808 31.3249L33.2387 25.6561L33.353 25.4572L36.5538 19.8879L36.6681 19.689L44.8312 5.48672C45.6931 5.23866 46.5585 5.00204 47.425 4.7757Z" fill="#D6A790"/>
<path d="M45.9137 71.5918C44.7798 68.6574 42.4203 66.1105 39.4688 64.9708C38.9704 64.7776 38.4537 64.6256 37.9244 64.5181C35.6987 64.0654 33.3805 64.4884 31.2462 65.1663C29.9728 65.5709 28.7405 66.0991 27.5619 66.7266C28.0855 64.8073 28.5142 62.8583 28.8079 60.891C29.1349 58.6996 29.2926 56.4853 29.2275 54.2642C29.1749 52.4867 28.9074 50.477 27.6614 49.1064C26.4062 47.7255 24.4583 47.5552 22.6945 47.7873C22.547 47.8067 22.4007 47.8284 22.2567 47.8524C22.1949 47.8638 22.1332 47.8741 22.0715 47.8856C21.4187 48.0056 20.7832 48.1805 20.167 48.4L20.0927 48.5291L19.9784 48.728L16.7205 54.3957L16.6062 54.5946L13.4054 60.1639L13.2911 60.3628L10.3761 65.4349L10.2618 65.6338L7.13419 71.0751L6.5752 72.0079C6.67922 72.1851 8.08527 72.1039 8.44421 72.0799L8.44193 72.0845L8.60425 72.0936H39.4688V72.0845H46.0898C46.0361 71.9199 45.9766 71.7553 45.9137 71.5918Z" fill="#BD8B73"/>
<path d="M131.568 23.0443H36.4482V21.1478H130.521C130.891 21.7685 131.24 22.4007 131.568 23.0443Z" fill="#D6A790"/>
<path d="M71.1904 22.0643V69.6746H73.0857V22.1032C72.4673 22.2747 71.81 22.2472 71.1904 22.0643Z" fill="#D6A790"/>
<path d="M56.0438 2.86578V69.9035H55.415V2.98353C55.6242 2.94352 55.8346 2.90351 56.0438 2.86578Z" fill="#D6A790"/>
<path d="M119.717 10.2582V70.0177H119.088V9.86157C119.299 9.99189 119.509 10.1233 119.717 10.2582Z" fill="#D6A790"/>
<path d="M104.292 22.0967V69.1605H102.396V22.0532C102.753 22.1664 103.132 22.2213 103.521 22.203C103.784 22.1915 104.042 22.155 104.292 22.0967Z" fill="#D6A790"/>
<path d="M36.669 19.689V72.0935H36.5547V19.8879L36.669 19.689Z" fill="#785142"/>
<path d="M33.3536 25.4573V72.0936H33.2393V25.6562L33.3536 25.4573Z" fill="#785142"/>
<path d="M29.9815 31.3247V72.0933H29.8672V31.5236L29.9815 31.3247Z" fill="#785142"/>
<path d="M26.667 37.092V72.0935H26.5527V37.2909L26.667 37.092Z" fill="#785142"/>
<path d="M23.4083 42.7607V72.0935H23.2939V42.9596L23.4083 42.7607Z" fill="#785142"/>
<path d="M20.0928 48.5293V72.0938H19.9785V48.7282L20.0928 48.5293Z" fill="#785142"/>
<path d="M16.7208 54.3957V72.0936H16.6064V54.5946L16.7208 54.3957Z" fill="#785142"/>
<path d="M13.4053 60.164V72.0937H13.291V60.3629L13.4053 60.164Z" fill="#785142"/>
<path d="M10.376 65.4349V72.0936H10.2617V65.6338L10.376 65.4349Z" fill="#785142"/>
<path d="M128.428 63.0046C128.128 62.2948 127.783 61.5803 127.384 60.891H104.35C103.141 62.7474 102.507 64.964 102.39 67.1656C102.301 68.8197 102.477 70.467 102.807 72.0845H124.903C125.157 71.7507 125.404 71.4146 125.648 71.0751C126.297 70.1766 126.917 69.2598 127.509 68.3271C127.549 68.2676 127.587 68.2082 127.624 68.1476C128.193 67.2468 128.738 66.33 129.254 65.3984C129.033 64.5822 128.758 63.782 128.428 63.0046Z" fill="#96746B"/>
<path d="M95.1202 60.891H95.0059V72.0845H95.1202V60.891Z" fill="#785142"/>
<path d="M91.8057 60.891H91.6914V72.0845H91.8057V60.891Z" fill="#785142"/>
<path d="M88.4327 60.891H88.3184V72.0845H88.4327V60.891Z" fill="#785142"/>
<path d="M85.1172 60.891H85.0029V72.0845H85.1172V60.891Z" fill="#785142"/>
<path d="M81.8594 60.891H81.7451V72.0845H81.8594V60.891Z" fill="#785142"/>
<path d="M78.544 60.891H78.4297V72.0845H78.544V60.891Z" fill="#785142"/>
<path d="M75.1729 60.891H75.0586V72.0845H75.1729V60.891Z" fill="#785142"/>
<path d="M71.8575 60.891H71.7432V72.0845H71.8575V60.891Z" fill="#785142"/>
<path d="M68.8282 60.891H68.7139V72.0845H68.8282V60.891Z" fill="#785142"/>
<path d="M124.384 60.891H124.27V72.0845H124.384V60.891Z" fill="#785142"/>
<path d="M121.068 60.891H120.954V72.0845H121.068V60.891Z" fill="#785142"/>
<path d="M130.939 60.891V62.0993C130.902 62.1804 130.863 62.2616 130.824 62.3428V60.891H130.939Z" fill="#785142"/>
<path d="M127.623 60.891V68.1476C127.587 68.2082 127.549 68.2676 127.509 68.3271V60.891H127.623Z" fill="#785142"/>
<path d="M117.697 60.891H117.583V72.0845H117.697V60.891Z" fill="#785142"/>
<path d="M114.382 60.891H114.268V72.0845H114.382V60.891Z" fill="#785142"/>
<path d="M111.124 60.891H111.01V72.0845H111.124V60.891Z" fill="#785142"/>
<path d="M107.809 60.891H107.694V72.0845H107.809V60.891Z" fill="#785142"/>
<path d="M104.437 60.891H104.322V72.0845H104.437V60.891Z" fill="#785142"/>
<path d="M101.121 60.891H101.007V72.0845H101.121V60.891Z" fill="#785142"/>
<path d="M98.0919 60.891H97.9775V72.0845H98.0919V60.891Z" fill="#785142"/>
<path d="M65.9317 60.891H65.8174V72.0845H65.9317V60.891Z" fill="#785142"/>
<path d="M62.6163 60.891H62.502V72.0845H62.6163V60.891Z" fill="#785142"/>
<path d="M59.2442 60.891H59.1299V72.0845H59.2442V60.891Z" fill="#785142"/>
<path d="M55.9297 60.891H55.8154V72.0845H55.9297V60.891Z" fill="#785142"/>
<path d="M52.671 60.891H52.5566V72.0845H52.671V60.891Z" fill="#785142"/>
<path d="M49.3565 60.891H49.2422V72.0845H49.3565V60.891Z" fill="#785142"/>
<path d="M45.9844 60.891H45.8701V72.0845H45.9844V60.891Z" fill="#785142"/>
<path d="M42.669 60.891H42.5547V72.0845H42.669V60.891Z" fill="#785142"/>
<path d="M39.6397 60.891H39.5254V72.0845H39.6397V60.891Z" fill="#785142"/>
<path d="M103.141 72.0753C103.068 72.0753 103.068 72.1896 103.141 72.1896C103.214 72.1896 103.214 72.0753 103.141 72.0753Z" fill="#96746B"/>
<path d="M40.1543 23.043H39.4307V60.8909H40.1543V23.043Z" fill="#96746B"/>
<path d="M56.7588 23.043H56.0352V60.8909H56.7588V23.043Z" fill="#96746B"/>
<path d="M56.7675 2.724V21.1524H56.0439V2.85546C56.2851 2.81088 56.5263 2.76629 56.7675 2.724Z" fill="#96746B"/>
<path d="M120.442 23.041H119.719V60.8889H120.442V23.041Z" fill="#96746B"/>
<path d="M120.436 10.7681V21.15H119.712V10.2925C119.955 10.448 120.197 10.6069 120.436 10.7681Z" fill="#96746B"/>
<path d="M73.791 23.036H73.0674V60.8839H73.791V23.036Z" fill="#96746B"/>
<path d="M104.984 23.0453H104.261V60.8933H104.984V23.0453Z" fill="#96746B"/>
<path d="M59.9579 76.1148H48.4043V77.4351H59.9579V76.1148Z" fill="#734735"/>
<path d="M51.8159 69.3474L45.7413 87.5701L44.7285 87.6135L48.9684 71.4714L49.5262 69.3474H51.8159Z" fill="#734735"/>
<path d="M62.6203 86.9427L63.6331 86.9873L58.8354 68.7201H56.5469L62.6203 86.9427Z" fill="#734735"/>
<path d="M49.5264 69.3474L48.9697 71.4702H51.1085L51.8161 69.3474H49.5264Z" fill="#2B1919"/>
<path d="M61.0469 67.587H47.3145V69.7773H61.0469V67.587Z" fill="#734735"/>
<path d="M83.5738 57.2797C83.2058 56.7756 83.2035 56.2738 82.7371 55.8566C82.4033 55.5571 81.642 55.4027 81.2133 55.4496C80.5789 55.5193 78.9819 55.74 78.3372 55.6634C77.7679 55.5959 77.202 55.4576 76.6396 55.3353L76.6533 55.2964C76.6876 55.1958 76.5344 55.1352 76.5002 55.2358C76.4933 55.2576 76.4853 55.2793 76.4784 55.2998C76.443 55.293 76.4087 55.2838 76.3733 55.277C76.2692 55.2553 76.2521 55.4199 76.3561 55.4405C76.379 55.445 76.4019 55.4496 76.4259 55.4553C76.3801 55.5879 76.3344 55.7217 76.2887 55.8543C76.235 56.0097 76.1115 56.2246 76.1104 56.3904C76.1104 56.4967 76.1161 56.563 76.2155 56.6247C76.2761 56.6625 76.3607 56.651 76.427 56.6545C76.6796 56.6682 76.9403 56.6373 77.1952 56.6385C77.6433 56.6407 77.7656 56.8042 78.2103 56.8465C78.6298 56.8854 78.6149 57.0706 79.0299 57.1437C79.2745 57.1872 81.1699 57.0854 81.3642 57.2363C81.4682 57.3175 81.5539 57.3849 81.6797 57.4352C82.217 57.6501 83.008 57.5861 83.5453 57.4066C83.5979 57.3883 83.6047 57.3186 83.5761 57.2797H83.5738Z" fill="#C66B47"/>
<path d="M78.4519 54.7547C77.6151 54.1237 76.7623 53.5144 75.8947 52.9257C74.1434 51.738 72.3315 50.6371 70.4705 49.63C69.5972 49.1568 68.7112 48.7064 67.8162 48.2754L67.8482 48.2286C67.8962 48.1588 67.7819 48.0925 67.7339 48.1623C67.7213 48.1806 67.7076 48.2 67.695 48.2183C67.559 48.1531 67.4229 48.0868 67.2858 48.0217C67.2092 47.9851 67.1417 48.0994 67.2195 48.136C67.3532 48.1988 67.4869 48.264 67.6207 48.328C66.1815 50.4199 64.7434 52.5119 63.3042 54.6027C63.2837 54.6324 63.2997 54.6747 63.3282 54.693C64.9492 55.7309 66.8388 56.1848 68.7238 56.4534C70.8226 56.7529 72.9443 56.9038 75.0613 57.0227C76.3348 57.0947 77.6094 57.1496 78.884 57.2044C78.9217 57.2056 78.9468 57.1724 78.9503 57.1381C78.9937 56.618 79.0783 56.0842 79.0806 55.5629C79.0829 55.1582 78.7434 54.973 78.453 54.7547H78.4519Z" fill="#EBD1C3"/>
<path d="M83.8434 38.9426C83.84 38.906 83.816 38.8786 83.7771 38.8763C83.2227 38.85 82.674 39.0237 82.139 39.1495C81.5514 39.2878 80.9616 39.4261 80.3649 39.5187C80.3031 39.529 80.2403 39.5462 80.1785 39.5587C80.1728 39.5496 80.166 39.5404 80.1545 39.5336C80.1488 39.5302 80.1442 39.5279 80.1385 39.5244C80.1065 39.5073 80.0665 39.5176 80.0482 39.5484C80.0436 39.5553 80.0391 39.5622 80.0356 39.5702C80.0356 39.5713 80.0356 39.5725 80.0345 39.5736C79.9591 39.5702 79.8905 39.5427 79.8345 39.4604C79.7864 39.3896 79.7716 39.2855 79.7224 39.2101C79.6641 39.1209 79.591 39.0432 79.5121 38.9712C79.1291 38.4247 78.6753 37.9252 78.4147 37.3045C78.3918 37.2496 78.3301 37.2405 78.2935 37.2885C78.1358 37.5 77.9769 37.7103 77.8191 37.9218C77.7985 37.9492 77.8134 37.9972 77.8431 38.0121C78.2386 38.219 78.6182 38.4499 78.9782 38.714C79.1223 38.8191 79.2766 38.93 79.4115 39.0546C79.5075 39.1941 79.6001 39.3358 79.6836 39.4844C79.6961 39.5164 79.711 39.5496 79.7304 39.585C79.7487 39.6182 79.767 39.6582 79.8002 39.6799C79.8939 39.7416 80.0756 39.7279 80.2585 39.6948C80.4094 39.6845 80.5855 39.6262 80.6998 39.6182C81.0679 39.593 81.4371 39.6022 81.8052 39.617C82.4888 39.6433 83.169 39.6788 83.848 39.5736C83.8743 39.569 83.8983 39.5359 83.896 39.5096C83.8788 39.321 83.8617 39.1312 83.8446 38.9426H83.8434Z" fill="#F7E9E1"/>
<path d="M82.0823 39.7695L82.0617 40.1124L81.9909 41.2875L81.9257 42.3518L81.8834 43.048C81.872 43.2366 81.7096 43.3886 81.5199 43.3886H78.3248C78.2997 43.3886 78.2757 43.3863 78.2517 43.3806C78.0996 43.3475 77.9933 43.2114 78.0036 43.048L78.0448 42.3781L78.1111 41.3058L78.2048 39.7683C78.2162 39.5797 78.3774 39.4265 78.566 39.4265H81.7634C81.7714 39.4265 81.7794 39.4265 81.7874 39.4277C81.9646 39.4391 82.0949 39.5877 82.0835 39.7683L82.0823 39.7695Z" fill="#D46744"/>
<path d="M79.7895 39.4275C79.2271 40.0516 78.667 40.6792 78.1102 41.3068L78.0439 42.3791C78.9196 41.3914 79.7975 40.4094 80.68 39.4275H79.7895Z" fill="#F7E9E1"/>
<path d="M81.7865 39.4288C80.6011 40.74 79.4225 42.058 78.252 43.3806C78.276 43.3863 78.3 43.3886 78.3251 43.3886H79.131C80.1038 42.2924 81.0812 41.2007 82.062 40.1124L82.0826 39.7695C82.094 39.5889 81.9637 39.4403 81.7865 39.4288Z" fill="#F7E9E1"/>
<path d="M80.1074 43.3883H80.9956C81.3043 43.0419 81.6152 42.6967 81.925 42.3515L81.9902 41.2872C81.3603 41.9857 80.7327 42.6853 80.1074 43.3883Z" fill="#F7E9E1"/>
<path d="M77.4449 85.5013C77.5877 85.9163 77.7352 86.3301 77.885 86.7428C77.9684 86.9714 78.0793 87.112 77.8758 87.28C77.6998 87.4252 77.4837 87.5407 77.2871 87.663C75.7736 84.8977 74.1938 82.1691 72.5488 79.4805C73.4576 79.0061 74.3664 78.5317 75.2752 78.0573C75.6787 79.7377 76.1348 81.4055 76.6447 83.0573C76.8984 83.8758 77.1648 84.6908 77.4437 85.5013H77.4449Z" fill="#E68B60"/>
<path d="M77.3906 84.6385C77.3575 84.3481 77.1517 84.0257 77.0591 83.7457C76.8442 83.0872 76.8191 82.4654 76.9654 81.7898C77.0946 81.1965 77.274 80.6215 77.2729 80.0076C77.2706 78.8325 76.7951 77.7157 76.467 76.6045C76.2395 75.8352 74.3328 70.7757 73.5806 69.2702C73.0273 68.1637 71.931 65.5928 70.5273 65.4133C68.9932 65.219 68.712 68.1637 68.4822 69.3697C68.2856 70.4133 68.1256 71.465 67.9438 72.5121C67.8444 73.0791 67.722 73.709 67.4042 74.1982C67.3025 73.9102 67.2008 73.6244 67.0979 73.3363C67.0705 73.2563 66.9504 73.31 66.9779 73.3889C67.0887 73.7033 67.2008 74.0165 67.3117 74.3308C67.1813 74.5012 67.0224 74.6486 66.8258 74.7664C66.7549 74.8087 66.8064 74.9298 66.8796 74.8864C67.0682 74.7732 67.2259 74.6315 67.362 74.4715C67.362 74.4715 68.1461 76.4388 68.8012 78.0735C69.207 79.0806 69.5613 79.9619 69.6574 80.1814C69.6894 80.2557 69.7225 80.3277 69.7568 80.4009C70.1112 81.1496 70.605 81.8584 71.3263 82.287C72.1071 82.75 73.0467 82.7031 73.8572 83.0792C74.7866 83.5102 75.1855 84.5001 75.5273 85.3975C75.541 85.4329 75.5811 85.4421 75.6142 85.4318C75.9389 85.3243 76.2635 85.2192 76.5893 85.1117C76.7928 85.0443 77.1712 85.0008 77.3278 84.8477C77.3929 84.7848 77.4009 84.723 77.3906 84.6373V84.6385Z" fill="#7D6B6E"/>
<path d="M82.8357 88.6051C82.4539 88.3285 78.9365 87.3499 78.3855 87.1785C78.1672 87.111 78.0106 86.9487 77.7819 86.9316C77.5362 86.9121 77.2767 86.9624 77.04 87.0219C77.0058 87.0299 77.0206 87.2471 77.0218 87.2516C77.0492 87.5854 77.1144 88.021 77.4047 88.1867C77.8025 88.4142 82.4116 89.2155 82.6631 89.2258C82.798 89.2315 82.9923 89.2567 83.1044 89.1561C83.333 88.9515 83.0106 88.7331 82.8346 88.6062L82.8357 88.6051Z" fill="#2B1919"/>
<path d="M70.304 76.0272C70.312 75.9426 70.1794 75.9437 70.1714 76.0272C70.1622 76.1095 70.1531 76.1895 70.144 76.2707C69.7862 76.7542 69.4295 77.2355 69.0717 77.7179C68.9848 77.8345 68.8922 77.9534 68.8008 78.0745C69.2066 79.0816 69.561 79.963 69.657 80.1825C69.689 80.2568 69.7221 80.3288 69.7564 80.402C69.9542 79.0451 70.1245 77.6847 70.2708 76.3221C70.2731 76.3187 70.2777 76.3141 70.28 76.3107C70.2983 76.2855 70.2949 76.2604 70.28 76.2432C70.288 76.1724 70.296 76.1004 70.304 76.0295V76.0272Z" fill="#2B1919"/>
<path d="M66.8513 37.3848C66.8513 37.3848 65.1126 36.4977 64.4679 35.9273C64.4564 35.917 64.4439 35.9136 64.4313 35.9147C64.429 35.9147 64.4267 35.9147 64.4256 35.9147C64.4233 35.9147 64.421 35.9158 64.4187 35.917C64.4073 35.9204 64.3959 35.9261 64.3867 35.9398C63.4173 37.3459 61.3711 40.6644 61.4946 40.845C61.6729 41.1068 63.8083 41.9596 63.8083 41.9596L66.8502 37.3859L66.8513 37.3848Z" fill="#E68B60"/>
<path d="M63.4702 85.4773C63.285 85.8751 63.1044 86.2752 62.9261 86.6764C62.8278 86.8982 62.8095 87.0777 62.5477 87.0571C62.3202 87.0388 62.0847 86.9725 61.8584 86.9245C62.6872 83.8826 63.4405 80.8213 64.1218 77.744C65.1049 78.0332 66.0891 78.3213 67.0722 78.6105C66.1977 80.1012 65.3678 81.6181 64.5905 83.1613C64.2052 83.9272 63.8314 84.6988 63.4702 85.4762V85.4773Z" fill="#E68B60"/>
<path d="M66.4195 90.3816C66.2114 89.9586 63.5594 87.4495 63.1524 87.0402C62.9912 86.8779 62.9283 86.663 62.7352 86.5395C62.5271 86.4069 62.2733 86.3303 62.0367 86.272C62.0024 86.264 61.9144 86.4629 61.9132 86.4664C61.7818 86.7739 61.6355 87.19 61.8149 87.4723C62.0607 87.8598 65.7599 90.7222 65.9782 90.848C66.0948 90.9154 66.2549 91.0297 66.4012 90.9932C66.6984 90.9189 66.5155 90.5759 66.4206 90.3804L66.4195 90.3816Z" fill="#2B1919"/>
<path d="M69.3048 30.4482C68.627 29.888 63.6955 29.9132 63.3583 31.4164C63.1708 32.2566 63.2508 33.13 63.3754 33.9793C63.508 34.8789 63.6018 35.8197 63.8441 36.7034C63.9698 37.1606 64.2796 37.6533 64.7449 37.8614C64.6832 37.8705 64.6569 37.9551 64.7277 37.9723C65.8743 38.242 67.1317 38.4924 68.3172 38.4592C68.7607 38.4478 69.1917 38.3266 69.4134 37.9643C69.6489 37.5802 69.6032 37.0806 69.6169 36.6531C69.6169 36.6325 69.6181 36.6119 69.6181 36.5914C69.6261 36.3467 69.6329 36.1009 69.6409 35.8575C69.6683 34.9201 69.6969 33.9827 69.7255 33.0454C69.7529 32.124 69.8215 30.8768 69.306 30.4493L69.3048 30.4482Z" fill="#E68B60"/>
<path d="M78.7583 44.8528C78.5948 44.6974 78.4393 44.5122 78.2599 44.3773C78.2004 44.3327 78.1581 44.2835 78.0747 44.287C77.9707 44.2915 73.493 49.2219 72.2207 50.3364C72.2253 50.381 72.2276 50.4279 72.2264 50.4759C72.2013 51.9837 72.4653 53.5326 72.9329 55.0073C75.0774 51.7688 77.0276 48.4057 78.7686 44.9328C78.7811 44.9066 78.78 44.8734 78.7583 44.8528Z" fill="#E68B60"/>
<path d="M77.9405 46.3181C77.6135 45.8963 77.2169 45.5419 76.7711 45.2504C76.7505 45.2367 76.7242 45.239 76.7048 45.2504C74.5065 46.4473 73.6332 47.4064 71.4029 49.336C70.5307 47.8476 69.6493 46.6713 68.8057 45.0824C68.3107 44.1496 67.6066 42.8167 66.9573 41.9788C66.3228 41.1615 65.3569 40.6173 64.4927 40.064C63.6239 39.5085 62.4796 38.9301 62.4019 38.9632C61.2599 39.4605 60.7146 39.7097 59.7613 40.5293C58.7953 41.3604 57.8957 42.5229 57.1424 43.5403C55.5957 45.6311 54.1302 48.4901 53.362 50.9844C53.098 51.8429 52.771 53.1712 52.3721 54.599C52.883 54.8264 53.1608 54.9167 53.6718 55.1385C54.2502 55.39 54.7852 55.7181 55.3682 55.9593C56.0792 56.2554 56.7846 56.5651 57.4681 56.9207C57.9083 57.1493 58.3243 57.4305 58.7747 57.6351C59.256 57.2796 60.8644 55.9113 61.3022 55.4895C62.2853 54.5418 64.3555 53.9714 64.3555 53.9714C64.3555 53.9714 67.1116 55.6884 68.944 56.0507C69.9591 56.2519 71.0234 56.4634 72.5106 55.6061C72.8855 55.39 74.3225 53.9371 76.3881 51.0655C76.6922 50.6426 77.801 48.7827 78.2034 47.0714C78.2868 46.7159 78.1325 46.5616 77.9405 46.3147V46.3181Z" fill="#F7E9E1"/>
<path d="M71.0041 65.5527C70.0484 64.9514 68.9853 64.4816 67.9771 63.9729C66.9379 63.4482 60.3478 60.6373 58.3736 60.0588C58.3759 59.5902 59.3784 57.209 59.3784 57.209C59.3784 57.209 52.6454 53.8276 52.5997 53.8276C51.3239 55.0382 50.2242 56.4294 49.3486 57.9555C48.4295 59.557 47.587 61.4169 47.4613 63.2825C47.4007 64.1707 47.5459 65.0783 48.0077 65.8499C48.441 66.5747 49.104 67.1428 49.8379 67.5486C50.7124 68.0322 51.6943 68.2699 52.666 68.4757C54.2892 68.8221 59.4642 70.4007 62.4386 70.7505C62.1059 71.7462 61.5538 75.139 61.5058 75.7895C61.4315 76.8126 61.4052 77.8391 61.3949 78.8645C61.3915 79.3172 61.3846 79.7767 61.4795 80.2237C61.5664 80.6306 61.7527 80.9999 61.955 81.3611C62.2008 81.8012 62.4877 82.2459 62.5826 82.7488C62.7038 83.3856 62.4946 84.0063 62.2877 84.6019C62.274 84.6373 62.3026 84.6704 62.3334 84.6819C62.4889 84.739 62.6455 84.7939 62.8021 84.8511C62.8455 84.8671 62.889 84.8831 62.9324 84.8991C63.0616 84.9448 63.1931 84.9928 63.3222 85.0385C63.6194 85.146 63.9932 85.3598 64.3087 85.3838C64.7157 85.4146 64.8472 84.7116 64.9558 84.4292C65.2061 83.7719 65.4805 83.1718 65.9857 82.6688C66.3915 82.263 66.8614 81.9338 67.2969 81.5623C69.087 80.0396 72.2032 71.4113 72.3209 70.5585C72.5667 68.7889 72.7245 66.6353 71.0018 65.5539L71.0041 65.5527Z" fill="#968084"/>
<path d="M66.4573 71.5837C66.1166 73.4573 65.6251 75.3126 65.1347 77.1519C64.442 79.7445 63.6898 82.3211 62.9353 84.8977C62.8919 84.8817 62.8484 84.8657 62.805 84.8497C63.0622 83.9672 63.3183 83.0859 63.5743 82.2034C64.5883 78.7111 65.6571 75.1914 66.3201 71.61C66.6448 69.8484 66.5648 67.944 64.9941 66.7997C64.3276 66.3127 63.5549 65.9721 62.8221 65.6005C61.9819 65.1764 61.1429 64.7512 60.3015 64.326C60.2261 64.2882 60.2935 64.1739 60.369 64.2128C61.3464 64.7066 62.3215 65.2004 63.2988 65.6943C64.0899 66.0944 64.9301 66.4762 65.5645 67.1095C66.7488 68.2892 66.7362 70.0485 66.4584 71.5814L66.4573 71.5837Z" fill="#7D6B6E"/>
<path d="M68.7985 43.8263C68.2384 42.6111 67.2404 41.5697 66.2047 40.709C66.1304 40.6484 66.0516 40.5867 65.967 40.5238C65.919 40.4883 65.8698 40.4529 65.8172 40.4163C64.5735 39.5464 62.5547 38.6776 62.5547 38.6742C58.3126 40.11 46.1154 52.7198 45.8742 64.4244C45.8376 66.2122 46.6995 67.6503 48.285 68.431C48.8943 68.7305 49.5676 68.9397 50.2444 69.0575C50.6056 71.1677 50.9165 73.287 51.1657 75.4133C51.2995 76.5461 51.3612 77.6972 51.551 78.8209C51.5944 79.0759 51.6481 79.3296 51.7236 79.5777C51.7807 79.7675 51.8527 80.0887 51.9991 80.2384C52.2265 80.4682 52.7878 80.2624 53.0553 80.2179C55.2604 79.8498 57.4141 79.1719 59.4328 78.2139C60.281 77.8116 61.1635 77.3486 61.5854 76.4627C61.7808 76.0477 62.2747 72.0308 62.4004 70.9802C62.4198 70.8202 62.4313 70.7299 62.4313 70.7299C62.4313 70.7299 59.8421 70.0806 58.8041 69.7708C58.8944 69.6027 58.9836 69.4358 59.0705 69.2655C59.0853 69.2381 59.099 69.2072 59.1139 69.1775C59.394 68.6059 59.7838 67.6263 60.2285 66.426C60.2433 66.386 60.257 66.346 60.273 66.3048C61.0149 64.2872 61.902 61.6774 62.677 59.3283C62.6908 59.286 62.7045 59.2437 62.7193 59.2014C63.052 58.1909 63.3641 57.2341 63.6316 56.3962C63.9162 55.5045 64.1563 54.75 64.3209 54.2139C64.3369 54.1636 64.3517 54.1145 64.3654 54.0699C64.3712 54.0539 64.3757 54.0379 64.3803 54.0219C64.3837 54.0104 64.3872 53.9979 64.3906 53.9876C65.3588 54.3865 66.3088 54.8221 67.2427 55.2965C67.2781 55.3136 67.3113 55.3022 67.3342 55.2725C68.3184 53.9624 69.3026 52.6524 70.288 51.3424C70.6675 50.8371 71.398 49.3556 71.398 49.3556C71.398 49.3556 69.6593 45.7022 68.7939 43.8286L68.7985 43.8263Z" fill="#F7E9E1"/>
<path d="M69.3205 33.8331C69.3022 34.0994 69.1833 34.3086 69.0564 34.2995C68.9296 34.2903 68.8415 34.0674 68.8598 33.7999C68.8781 33.5336 68.997 33.3244 69.1239 33.3335C69.2508 33.3427 69.3388 33.5656 69.3205 33.8331Z" fill="#2B1919"/>
<path d="M58.8066 69.7696C58.8969 69.6015 58.0006 71.3105 58.0269 71.3448C59.5359 71.1756 62.4337 70.7275 62.4337 70.7275C62.4337 70.7275 59.8445 70.0782 58.8066 69.7684V69.7696Z" fill="#2B1919"/>
<path d="M69.4815 30.4983C68.0092 29.1803 65.1628 28.9848 63.6436 30.4709C62.8194 31.2779 62.5393 32.572 62.2581 33.6522C62.1038 34.2432 61.1458 35.8847 61.8054 37.1399C62.042 37.5891 62.6136 37.7743 63.0869 37.9367C63.6344 38.1253 66.3642 38.714 66.9586 38.7849C67.2879 38.8237 67.8423 38.8763 67.936 38.4751C67.9612 38.4522 67.9715 38.4122 67.9417 38.3813C67.3473 37.7343 66.818 37.0862 66.5357 36.2448C66.4134 35.8813 66.3276 35.5052 66.2545 35.1291C66.2179 34.9405 66.1813 34.7519 66.1504 34.5621C66.0921 34.2055 66.1562 33.9483 66.4488 33.7185C67.6297 32.7926 68.9294 32.1947 69.5421 30.7509C69.5513 30.7304 69.5867 30.5909 69.4815 30.4983Z" fill="#2B1919"/>
<path d="M64.651 32.2784C64.6876 31.5159 64.8054 30.7466 64.5127 30.0184C64.5093 30.0104 64.5047 30.0036 64.499 29.9979C64.5093 29.9521 64.4773 29.8984 64.4235 29.9201C63.8348 30.1625 63.3902 30.71 62.9706 31.1696C62.5179 31.6646 62.095 32.1858 61.7029 32.73C61.0113 33.6879 60.1425 34.8859 60.4203 36.1399C60.5335 36.6509 60.8375 37.0956 61.3131 37.3276C61.8321 37.5803 62.5019 37.7963 63.0827 37.8237C63.6359 37.8489 63.9869 37.5757 64.1983 37.0773C64.4818 36.4085 64.6202 35.6884 64.6556 34.9648C64.7002 34.0697 64.6087 33.1746 64.651 32.2796V32.2784Z" fill="#2B1919"/>
<path d="M66.7633 34.1486C66.8044 34.1429 66.8421 34.0983 66.817 34.0503C66.6307 33.7005 66.1414 33.5359 65.8442 33.8354C65.5698 34.1121 65.5127 34.5945 65.8225 34.8699C66.0694 35.0906 66.5884 35.1729 66.7793 34.8437C66.881 34.6676 66.865 34.3761 66.7633 34.1486Z" fill="#E68B60"/>
<path d="M70.3021 34.7386C70.2815 34.5512 70.1352 34.3877 70.0392 34.2357C69.8768 33.9785 69.7328 33.7098 69.6025 33.4355C69.575 33.3772 69.4893 33.4286 69.5167 33.4858C69.5282 33.5086 69.5396 33.5315 69.551 33.5544C69.5442 33.5578 69.5373 33.5624 69.5316 33.5704C69.3933 33.7601 69.4127 34.0276 69.4024 34.2517C69.3876 34.5889 69.3921 34.9261 69.4104 35.2633C69.4116 35.2942 69.4413 35.3216 69.4733 35.3113C69.7625 35.2199 70.3478 35.1605 70.3032 34.7398L70.3021 34.7386Z" fill="#E68B60"/>
<path d="M69.6942 32.7572C69.7045 32.5834 69.5993 32.4337 69.3158 32.3925C69.0037 32.3468 68.5625 32.3617 68.4036 32.6863C68.3579 32.7812 68.3544 32.9092 68.4322 32.9892C68.5579 33.1184 68.806 33.0498 68.9614 33.0521C69.2129 33.0555 69.6667 33.1961 69.693 32.7572H69.6942Z" fill="#2B1919"/>
<path d="M69.1784 35.8438C69.0789 35.8358 68.8869 35.7615 68.792 35.8267C68.7657 35.8449 68.7589 35.8724 68.7646 35.9021C68.8206 36.2005 69.231 36.4588 69.4905 36.5491C69.5236 36.5605 69.5693 36.5777 69.6173 36.5914C69.6254 36.3468 69.6322 36.101 69.6402 35.8575C69.4847 35.8747 69.2996 35.8518 69.1795 35.8438H69.1784Z" fill="white"/>
<path d="M65.8256 37.9825C65.1615 37.339 65.1866 36.3936 65.2323 35.5374C65.2369 35.4528 65.1043 35.4528 65.0997 35.5374C65.0529 36.4302 65.0415 37.4075 65.7319 38.0763C65.7925 38.1357 65.8862 38.042 65.8256 37.9825Z" fill="#87423A"/>
<path d="M63.9372 37.5607C63.568 37.06 63.4502 36.4553 63.6125 35.8529C63.6343 35.7706 63.5074 35.7351 63.4856 35.8174C63.3153 36.4496 63.4354 37.1 63.824 37.627C63.8743 37.6944 63.9886 37.6293 63.9383 37.5607H63.9372Z" fill="#87423A"/>
<path d="M67.4854 30.9182C67.1985 31.4509 66.8658 31.9516 66.4829 32.4202C66.4291 32.4854 66.5229 32.5791 66.5766 32.514C66.9664 32.0373 67.3071 31.5286 67.5997 30.9856C67.6397 30.9113 67.5266 30.8439 67.4854 30.9193V30.9182Z" fill="#87423A"/>
<path d="M66.1374 34.0766C66.062 34.0377 66.0117 34.1589 66.0871 34.1989C66.3455 34.3338 66.5272 34.5658 66.5947 34.8505C66.6141 34.9328 66.7456 34.9168 66.7261 34.8345C66.6473 34.5007 66.4426 34.2366 66.1386 34.0777L66.1374 34.0766Z" fill="#C66B47"/>
<path d="M83.0916 41.4256C82.9122 41.3662 82.7464 41.6028 82.6264 41.8074C82.5761 41.7503 82.4869 41.7366 82.3566 41.8097C82.1909 41.9023 82.0971 42.0829 81.9977 42.2361C81.8353 42.4853 81.4272 42.9311 81.2009 43.1209C80.7985 43.0615 80.395 43.01 79.9892 42.9769C79.5845 42.9437 79.0735 42.8454 78.6837 43.0043C78.3717 43.1312 78.2459 43.4547 78.0836 43.7336C77.879 44.0846 77.7967 44.2869 77.6503 44.6653C77.6229 44.6824 77.6069 44.719 77.616 44.7521C77.6058 44.7807 77.5943 44.8082 77.5829 44.8356C77.5509 44.9225 77.6892 44.959 77.7212 44.8733C77.7246 44.8642 77.7281 44.855 77.7315 44.8447C78.0847 45.0562 80.8785 45.2563 81.0512 45.1694C81.194 45.0974 82.0548 43.9108 82.3635 43.4673C82.5155 43.2489 83.6426 41.6062 83.0916 41.4245V41.4256Z" fill="#E68B60"/>
<path d="M58.6224 70.0509C57.0929 73.3591 55.2216 76.5004 53.0428 79.4222C52.9925 79.4908 53.1068 79.556 53.1571 79.4885C55.3359 76.5667 57.2072 73.4254 58.7367 70.1171C58.7722 70.0406 58.6578 69.9731 58.6224 70.0509Z" fill="#A57665"/>
<path d="M56.9975 59.0665C56.6043 60.2782 56.1882 61.5231 56.1825 62.8102C56.1813 63.4161 56.2602 64.0517 56.5346 64.5981C56.8318 65.1868 57.3428 65.5229 57.9532 65.7332C58.7031 65.995 59.4861 66.1779 60.276 66.3014C60.26 66.3425 60.2452 66.3837 60.2315 66.4225C59.9217 66.3722 59.613 66.3128 59.3067 66.2442C58.6322 66.0922 57.8949 65.9356 57.2902 65.5869C56.2579 64.9925 56.0167 63.7282 56.0545 62.6251C56.1025 61.2224 56.5963 59.877 57.0238 58.5567C57.089 58.3589 57.153 58.16 57.217 57.9622C57.2616 57.8262 57.2879 57.6502 57.3645 57.529C57.4171 57.4444 57.4742 57.4112 57.5748 57.4147C57.8823 57.4204 58.2561 57.6101 58.5453 57.7119C58.8597 57.8228 59.1718 57.9417 59.4804 58.064C60.547 58.4846 61.6067 58.9407 62.7235 59.198C62.7086 59.2402 62.6949 59.2825 62.6812 59.3248C61.5849 59.0711 60.5458 58.6275 59.4999 58.2126C58.9546 57.9965 58.4036 57.7873 57.84 57.6193C57.6194 57.5541 57.5234 57.5461 57.4216 57.7587C57.3531 57.9028 57.3176 58.0823 57.2673 58.2343C57.177 58.5098 57.0879 58.7876 56.9975 59.0653V59.0665Z" fill="#A57665"/>
<path d="M64.1617 53.7362C63.8816 53.3509 63.597 52.968 63.3089 52.5885C63.278 52.5473 63.2254 52.5564 63.1991 52.585C63.158 52.569 63.0963 52.6056 63.1054 52.665C63.3077 53.9042 63.4861 55.1479 63.6347 56.3939C63.9193 55.5023 64.1594 54.7478 64.324 54.2117C64.34 54.1614 64.3548 54.1122 64.3686 54.0677C64.3743 54.0517 64.3789 54.0357 64.3834 54.0197C64.3068 53.9191 64.2268 53.8242 64.1617 53.7362Z" fill="#2B1919"/>
<path d="M60.437 45.0209C60.301 46.4578 60.7411 47.8833 61.347 49.1693C62.1631 50.9 63.2194 52.5221 64.3694 54.0665C64.3545 54.1111 64.3408 54.1602 64.3248 54.2105C63.8721 53.5989 63.4343 52.9759 63.0159 52.3392C61.5001 50.0255 59.7626 47.1654 60.4222 44.2801C60.6839 43.137 61.3264 42.0579 62.3506 41.444C63.0034 41.0531 63.7532 40.8622 64.4871 40.6884C64.9284 40.5856 65.3719 40.4941 65.8177 40.4152C65.8692 40.4507 65.9195 40.4861 65.9675 40.5227C65.4417 40.6153 64.9181 40.7216 64.3991 40.8462C63.6184 41.0325 62.8182 41.2531 62.1586 41.7298C61.1126 42.4854 60.5559 43.7635 60.4382 45.0209H60.437Z" fill="#A57665"/>
<path d="M82.6465 42.2431C82.3756 42.5494 82.0989 42.8512 81.8154 43.1462C81.5217 43.4525 81.165 43.9852 80.6906 43.7943C80.6117 43.7623 80.5774 43.8903 80.6552 43.9212C81.0998 44.1007 81.2565 43.9029 81.5651 43.5908C81.9675 43.1839 82.3584 42.7644 82.7379 42.3357C82.794 42.2728 82.7014 42.1791 82.6442 42.2419L82.6465 42.2431Z" fill="#C66B47"/>
<path d="M81.7851 37.9802C81.4833 37.7344 80.9917 38.1288 80.762 38.3186C80.5219 38.5175 80.3253 38.7564 80.1721 39.0216C80.2373 38.6009 80.2544 38.1688 80.1492 37.7596C80.0566 37.3983 79.7068 37.0497 79.341 37.332C78.9695 37.6178 79.0438 38.1905 79.1547 38.5826C79.285 39.0456 79.5342 39.4651 79.9606 39.7052C80.0109 39.7338 80.0566 39.6892 80.0589 39.6457C80.2933 39.624 80.4853 39.4868 80.6888 39.3702C80.9689 39.2091 81.2626 39.0605 81.5324 38.881C81.8033 38.7004 82.1314 38.2626 81.7862 37.9802H81.7851Z" fill="#F7E9E1"/>
<path d="M83.2674 57.3553C82.9016 57.0296 82.5403 56.6958 82.1665 56.3791C81.8373 56.1002 81.6956 56.1025 81.2646 56.1151C81.18 56.1173 81.18 56.2499 81.2646 56.2477C81.4521 56.2419 81.6647 56.2054 81.8373 56.2865C82.0065 56.3654 82.1883 56.5723 82.3289 56.698C82.6101 56.9484 82.8913 57.1987 83.1725 57.4491C83.2354 57.5051 83.3291 57.4125 83.2662 57.3553H83.2674Z" fill="#C66B47"/>
<path d="M83.7477 57.1494C83.4733 56.7402 83.1612 56.3607 82.8023 56.02C82.4765 55.7114 82.2467 55.5296 81.7849 55.621C81.7015 55.637 81.7369 55.7651 81.8204 55.7479C82.3142 55.6496 82.6445 56.0314 82.9566 56.3607C83.207 56.6259 83.431 56.9128 83.6334 57.2146C83.6802 57.2843 83.7945 57.2191 83.7477 57.1483V57.1494Z" fill="#C66B47"/>
<path d="M89.4027 55.1101C89.3021 55.141 85.9401 55.8131 85.6338 55.7308C85.3834 55.6634 85.1411 55.5605 84.8987 55.4713C84.6312 55.373 84.3672 55.2495 84.0928 55.1912C83.5898 55.0278 83.0617 55.0301 82.5324 55.0907C81.9129 55.1627 81.387 55.3147 80.8818 55.6919C80.7869 55.7628 80.5834 55.8748 80.6063 56.0234C80.6314 56.1903 80.8532 56.1915 80.9766 56.1892C81.3276 56.1812 81.6751 56.0932 82.0272 56.0726C82.3175 56.0566 82.6079 56.0612 82.8971 56.0852C82.944 56.2086 82.9154 56.2978 82.8102 56.3504C82.6468 56.5024 82.3781 56.5219 82.1678 56.5436C81.9917 56.5619 81.5939 56.539 81.5002 56.739C81.4602 56.8259 81.4933 56.9071 81.5756 56.9585C81.6522 57.0065 81.7745 56.9883 81.858 56.9905C82.0649 56.9963 82.2718 56.9985 82.4776 57.002C82.8662 57.0088 84.4426 57.0408 84.8324 57.0477C85.2828 57.0557 85.5732 56.9357 85.8281 56.9197C86.1002 56.9025 88.902 56.6739 89.4255 56.5687C89.4541 56.563 89.2895 56.3047 89.2826 56.2772C89.1969 55.9263 90.5355 54.7694 89.4015 55.1124L89.4027 55.1101Z" fill="#E68B60"/>
<path d="M101.513 53.3498C101.46 53.0023 101.226 52.8046 100.91 52.6891C100.414 52.5085 99.8791 52.401 99.3601 52.3164C98.6171 52.1953 97.6271 52.2513 97.1219 51.61C95.3603 52.0547 93.6262 52.6079 91.9343 53.271C91.3628 53.4939 90.7958 53.7305 90.2333 53.9797C90.0973 54.0403 89.9624 54.1009 89.8275 54.1626C89.4434 54.3386 89.0616 54.5193 88.6833 54.7056C88.4272 54.8313 88.1723 54.9605 87.9197 55.0908C87.8076 55.1491 87.6773 55.1903 87.6122 55.2977C87.5401 55.4155 87.5836 55.6121 87.5916 55.7504C87.6076 56.0488 87.6144 56.3597 87.6693 56.6535C87.6865 56.7438 87.6785 56.7952 87.7345 56.8787C87.8179 57.0033 87.8305 56.977 87.9791 56.9804C88.1094 56.9827 88.2386 56.9861 88.3689 56.9896C88.953 57.0033 89.5372 57.0181 90.1213 57.0353C90.2265 57.0387 90.382 57.0433 90.5797 57.0501C91.1536 57.0684 92.0806 57.0959 93.1335 57.113C95.8244 57.1587 99.3441 57.1427 99.9248 56.7484C100.866 56.1093 101.447 55.1811 101.514 54.1043C101.529 53.8551 101.551 53.5967 101.514 53.3498H101.513Z" fill="#2B1919"/>
<path d="M90.2187 34.7132C90.0678 34.6629 89.9158 34.6126 89.7649 34.5634C89.7352 34.5531 89.7066 34.5703 89.6906 34.5943C89.3774 35.0401 89.1064 35.5111 88.8892 36.0118C88.6995 36.4496 88.5497 36.9023 88.3097 37.3149C87.7255 36.6622 87.1025 36.0483 86.4407 35.4745C86.4064 35.4448 86.3629 35.4516 86.3366 35.4882C86.2589 35.5945 86.0326 35.822 86.0634 35.9695C86.0943 36.1181 86.4406 36.2461 86.5527 36.3181C87.1357 36.6931 87.6981 37.0954 88.2445 37.5218C88.2788 37.5481 88.3234 37.5481 88.3485 37.5081C88.3657 37.4818 88.3805 37.4544 88.3965 37.4281C88.4148 37.427 88.4331 37.4189 88.4457 37.4007C89.0881 36.5639 89.7272 35.7248 90.2587 34.8103C90.2804 34.7715 90.2587 34.7269 90.2187 34.7132Z" fill="#F7E9E1"/>
<path d="M89.827 35.9948C89.6018 35.7411 89.1777 35.9514 88.9708 36.1183C88.8016 36.2543 88.6759 36.4258 88.573 36.6121C88.5787 36.4498 88.557 36.2886 88.4816 36.1354C88.3741 35.9171 88.1466 35.7273 87.91 35.8851C87.3556 36.2555 87.9306 37.178 88.2918 37.4523C88.2929 37.4523 88.2941 37.4523 88.2952 37.4535C88.2964 37.4603 88.2975 37.4683 88.2987 37.4752C88.3044 37.5118 88.3478 37.5289 88.3798 37.5209C88.8268 37.4157 89.2932 37.2237 89.6144 36.883C89.8019 36.6841 90.0579 36.2543 89.8259 35.9937L89.827 35.9948Z" fill="#F7E9E1"/>
<path d="M90.4448 37.6339L90.2436 40.9124C90.2322 41.101 90.071 41.2542 89.8824 41.2542H86.685C86.4964 41.2542 86.3535 41.101 86.3638 40.9124L86.565 37.6339C86.5764 37.4453 86.7387 37.2932 86.9262 37.2932H90.1236C90.3122 37.2932 90.4551 37.4453 90.4448 37.6339Z" fill="#D46744"/>
<path d="M87.2812 37.2932V41.2542H88.1397V37.2932H87.2812Z" fill="#F7E9E1"/>
<path d="M88.8984 37.2932V41.2542H89.7569V37.2932H88.8984Z" fill="#F7E9E1"/>
<path d="M87.6442 82.2287C87.8031 80.5071 87.9037 78.7821 87.9517 77.0537C88.9394 77.3303 89.9259 77.6058 90.9136 77.8825C89.8607 80.8535 88.8776 83.8496 87.9677 86.8675C87.7505 86.7886 87.515 86.7189 87.3127 86.6137C87.0784 86.4925 87.1584 86.3314 87.1927 86.0902C87.2544 85.6558 87.3127 85.2202 87.3664 84.7847C87.4727 83.9342 87.5653 83.0814 87.6442 82.2275V82.2287Z" fill="#E68B60"/>
<path d="M82.5843 89.5295C82.7146 89.605 82.8998 89.5387 83.0312 89.5067C83.2759 89.4449 87.6186 87.7097 87.9615 87.4044C88.2119 87.1827 88.1856 86.7426 88.1433 86.4099C88.1433 86.4065 88.1136 86.1904 88.0781 86.1893C87.8347 86.1802 87.5695 86.1847 87.3328 86.2545C87.1122 86.3196 86.9933 86.5094 86.7933 86.6214C86.2891 86.9026 83.0495 88.5864 82.734 88.9374C82.5888 89.0986 82.3179 89.3786 82.5843 89.5307V89.5295Z" fill="#2B1919"/>
<path d="M103.835 78.335C102.557 77.1713 101.24 76.0511 99.8896 74.9731C100.705 74.3512 101.52 73.7294 102.335 73.1086C104.072 75.739 105.872 78.3282 107.733 80.8716C107.538 80.9974 107.342 81.1437 107.136 81.242C106.898 81.3552 106.818 81.1951 106.646 81.0225C106.336 80.7116 106.023 80.403 105.708 80.0977C105.093 79.501 104.468 78.9135 103.835 78.3362V78.335Z" fill="#E68B60"/>
<path d="M106.614 86.7712C106.752 86.7118 106.811 86.5254 106.864 86.4008C106.962 86.1688 108.192 81.6557 108.156 81.1984C108.129 80.8647 107.761 80.6212 107.471 80.4543C107.469 80.452 107.278 80.3457 107.256 80.3731C107.102 80.5617 106.946 80.7755 106.859 81.0064C106.778 81.2213 106.859 81.4316 106.827 81.658C106.748 82.2296 106.141 85.8304 106.231 86.2934C106.272 86.506 106.332 86.8912 106.615 86.7712H106.614Z" fill="#2B1919"/>
<path d="M103.826 59.5305C103.528 59.0218 103.21 58.5257 102.897 58.025C102.908 57.9907 102.882 57.9553 102.847 57.9462C102.809 57.8856 102.771 57.8261 102.734 57.7655C102.69 57.6924 102.574 57.7587 102.619 57.8319C102.655 57.8913 102.692 57.9496 102.729 58.0079C101.879 58.7304 100.787 59.0401 99.777 59.47C98.7058 59.9238 97.6747 60.4656 96.6779 61.0635C95.696 61.6533 94.746 62.2981 93.819 62.9714C92.8965 63.6412 91.9557 64.3168 91.1315 65.1079C89.5334 66.6374 88.6566 68.6939 88.0073 70.7698C87.6301 71.9769 87.326 73.2058 87.0253 74.4347C86.7258 75.6544 86.424 76.8764 86.1806 78.1087C85.9714 79.165 85.6707 80.3915 86.1463 81.4192C86.2834 81.7119 86.4961 81.9565 86.6561 82.2365C86.8299 82.5452 86.9133 82.8847 86.9202 83.2402C86.9339 83.9067 86.7064 84.5594 86.4835 85.1801C86.4721 85.2155 86.4995 85.2487 86.5292 85.2601C87.1922 85.515 87.8838 85.6088 88.5903 85.5425C88.6177 85.5402 88.6486 85.523 88.6554 85.4933C88.7572 84.9469 88.8863 84.3902 89.1756 83.9089C89.4716 83.4163 89.9575 83.111 90.3381 82.6938C91.008 81.9599 91.3944 81.0248 91.7362 80.1057C92.4438 78.207 93.1331 76.2774 94.2316 74.5639C94.3277 74.413 94.4283 74.2644 94.5311 74.1157C94.8969 73.5933 95.3119 73.1224 95.7554 72.68C96.9134 71.5208 98.26 70.5549 99.41 69.3706C100.863 67.8743 102.063 66.1298 102.946 64.2402C103.424 63.216 103.863 62.122 104.101 61.0132C104.221 60.4611 104.109 60.0118 103.826 59.5305Z" fill="#9697B0"/>
<path d="M94.0161 70.428C94.0104 70.3411 94.0046 70.2553 93.9989 70.1673C93.9932 70.0827 93.8618 70.0827 93.8663 70.1673C93.872 70.2576 93.8778 70.3468 93.8846 70.4371C93.8789 70.452 93.8789 70.4657 93.8869 70.4805C93.9749 71.8432 94.0892 73.2035 94.2298 74.5627C94.3259 74.4118 94.4265 74.2632 94.5293 74.1146C94.8951 73.5921 95.3101 73.1212 95.7536 72.6788C95.5159 71.7494 94.6699 71.067 94.0149 70.4268L94.0161 70.428Z" fill="#2B1919"/>
<path d="M113.088 59.1625C112.797 58.3738 112.358 57.6353 111.788 57.0157C111.506 56.7094 111.291 56.6236 110.887 56.7745C110.384 56.9632 109.885 57.1586 109.375 57.3301C108.24 57.7119 107.08 58.024 105.907 58.2629C104.901 58.4675 103.641 58.6698 102.783 58.0251C102.793 58.0183 102.801 58.0114 102.81 58.0045C102.877 57.9531 102.782 57.8594 102.716 57.9108C102.703 57.92 102.691 57.9302 102.678 57.9394C102.573 57.8479 102.475 57.7428 102.386 57.6216C102.335 57.5542 102.221 57.6193 102.271 57.6879C102.364 57.8148 102.466 57.9234 102.574 58.0205C99.5964 60.3388 96.7066 62.9383 94.8261 66.2557C94.3655 67.0684 93.8339 67.9932 93.6922 68.9283C93.5493 69.8714 93.9356 70.7928 94.4352 71.5735C95.5189 73.2688 98.275 75.8042 99.8353 77.0308L101.428 78.2814C101.875 78.6323 102.314 79.0039 102.805 79.2919C103.284 79.5731 103.803 79.7012 104.329 79.8646C104.903 80.0441 105.498 80.3367 105.7 80.9483C105.713 80.9906 105.776 81.0192 105.81 80.9769C106.199 80.4922 106.608 80.0178 106.979 79.5194C107.212 79.205 107.106 79.0267 106.786 78.861C106.278 78.5969 106.287 78.0356 106.323 77.5281C106.357 77.0548 106.388 76.5987 106.326 76.1243C106.052 73.9878 103.535 70.9025 102.994 68.8426C104.083 68.6745 105.169 68.4905 106.253 68.2859C107.251 68.0972 108.252 67.8903 109.201 67.52C110.815 66.889 112.138 65.7184 112.88 64.1409C113.615 62.5794 113.681 60.7789 113.084 59.1603L113.088 59.1625Z" fill="#C1C2D4"/>
<path d="M99.5937 69.3822C100.276 68.6346 100.957 67.8858 101.64 67.1382C102.92 65.7344 104.211 64.3387 105.461 62.9075C106.815 61.3585 108.111 59.7593 109.259 58.0503C109.307 57.9794 109.193 57.9131 109.145 57.984C106.942 61.2636 104.2 64.1341 101.546 67.0445L99.4999 69.2884C99.3342 69.4713 98.9775 69.732 98.9661 70.0097C98.9604 70.1515 99.0529 70.2795 99.1227 70.3938C99.2564 70.6156 99.4016 70.8294 99.5525 71.0397C100.556 72.4343 101.846 73.5832 102.999 74.8463C104.393 76.3724 105.532 78.1077 106.385 79.9893C106.42 80.067 106.534 79.9996 106.499 79.923C105.784 78.3432 104.866 76.8617 103.763 75.5231C102.681 74.2119 101.401 73.0848 100.305 71.7873C100.035 71.4672 99.7766 71.1369 99.5388 70.7916C99.421 70.6202 99.2541 70.4258 99.1787 70.2315C99.0312 69.8508 99.3673 69.6302 99.5937 69.3822Z" fill="#9697B0"/>
<path d="M97.0825 38.3813C97.0825 38.3813 99.3814 37.3788 99.5677 37.0873C99.6957 36.8861 97.3512 33.3378 96.2458 31.8381C96.2355 31.8232 96.2229 31.8175 96.2103 31.8141C96.208 31.8141 96.2058 31.8118 96.2023 31.8118C96.2 31.8118 96.1978 31.8118 96.1955 31.8118C96.1818 31.8118 96.1692 31.8152 96.1566 31.8266C95.473 32.4702 93.6074 33.4979 93.6074 33.4979L97.0814 38.3813H97.0825Z" fill="#E68B60"/>
<path d="M96.6955 29.6239C96.7012 28.6877 96.6555 27.7309 96.3262 26.8518C95.7352 25.2788 90.4025 25.9979 89.7555 26.7055C89.3669 27.1307 89.4469 28.0475 89.5818 28.9014C89.6161 29.1243 89.6561 29.3415 89.6904 29.545C89.6915 29.5542 89.6938 29.5644 89.6961 29.5736C89.8687 30.583 90.0402 31.5912 90.2128 32.6006C90.2585 32.8635 90.3031 33.1276 90.3488 33.3905C90.3511 33.4134 90.3568 33.4351 90.3591 33.4579C90.438 33.9175 90.4643 34.4639 90.7775 34.8434C91.0724 35.2024 91.5548 35.2675 92.0361 35.2126C93.321 35.0686 94.6424 34.6079 95.8404 34.1427C95.9147 34.1141 95.8736 34.0261 95.805 34.0249C96.2759 33.7289 96.5366 33.1504 96.6029 32.6372C96.7321 31.6472 96.6909 30.615 96.6978 29.6239H96.6955Z" fill="#E68B60"/>
<path d="M90.2497 30.3658C90.3103 30.6516 90.4692 30.8596 90.6063 30.8299C90.7435 30.8002 90.8041 30.5464 90.7435 30.2606C90.6829 29.9749 90.524 29.7668 90.388 29.7965C90.252 29.8262 90.1902 30.08 90.2508 30.3658H90.2497Z" fill="#2B1919"/>
<path d="M97.4433 33.2659C97.4318 33.2476 97.4193 33.2293 97.4078 33.2098C97.0443 32.604 96.9574 31.917 97.0557 31.2242C97.1621 30.4766 97.4878 29.7793 97.593 29.0328C97.6227 28.8225 97.6102 28.6236 97.5747 28.4304C97.4821 27.2358 97.0455 26.4528 96.2281 25.8492C94.3625 24.474 90.9629 25.1405 89.5717 26.7877C89.4734 26.9043 89.5317 27.0495 89.5442 27.0701C90.4244 28.5367 91.9185 28.986 93.3349 29.8079C93.5715 29.9451 93.6961 30.1131 93.7498 30.328C94.2368 30.6309 94.5946 31.1042 94.9501 31.6335C95.4359 32.3571 95.9915 33.0315 96.5436 33.7071C96.8477 33.5676 97.1415 33.4099 97.4444 33.2659H97.4433Z" fill="#754632"/>
<path d="M93.1475 31.0736C93.4036 31.3994 93.9534 31.2325 94.1855 30.957C94.4781 30.6118 94.3432 30.0985 94.0049 29.8424C93.6391 29.5635 93.135 29.8173 92.9863 30.222C92.9658 30.278 93.0138 30.3203 93.0595 30.3203C92.9841 30.5809 93.0103 30.8987 93.1475 31.0736Z" fill="#E68B60"/>
<path d="M90.3327 32.1695C90.375 32.1764 90.4058 32.1375 90.4024 32.0987C90.367 31.678 90.3132 31.2585 90.2367 30.8424C90.1852 30.5669 90.1623 30.2308 89.9577 30.0205C89.9497 30.0125 89.9406 30.0079 89.9314 30.0045C89.9417 29.9736 89.952 29.9439 89.9623 29.913C89.9863 29.8364 89.8708 29.7884 89.8468 29.8661C89.7325 30.2296 89.6011 30.5874 89.4433 30.935C89.3507 31.1419 89.1964 31.3682 89.2044 31.6048C89.2215 32.1341 89.9577 32.1067 90.3327 32.1695Z" fill="#E68B60"/>
<path d="M91.0546 28.9885C90.7916 28.6616 90.2189 28.713 89.8257 28.8091C89.7251 28.8342 89.6451 28.8662 89.5811 28.9028C89.6153 29.1257 89.6554 29.3429 89.6897 29.5464C89.9091 29.5898 90.1995 29.4961 90.3995 29.4698C90.6007 29.4435 90.9334 29.4801 91.0717 29.3223C91.1574 29.2229 91.1311 29.0846 91.0546 28.9897V28.9885Z" fill="#754632"/>
<path d="M90.2109 32.6005C90.2567 32.8634 90.3012 33.1275 90.3458 33.3904C90.395 33.3687 90.443 33.3435 90.4761 33.3252C90.7436 33.1892 91.1483 32.8474 91.1632 32.5159C91.1643 32.4839 91.1529 32.4553 91.122 32.4393C91.01 32.3833 90.8122 32.4931 90.7071 32.5159C90.5779 32.5422 90.3824 32.5948 90.2109 32.5994V32.6005Z" fill="white"/>
<path d="M92.4202 45.3592C92.4064 45.3535 90.7455 44.1452 90.7363 44.1509C90.7055 43.8823 90.6746 43.6137 90.6437 43.345C90.6174 43.1152 90.6117 42.8649 90.5169 42.65C90.3054 42.1699 89.8058 41.7961 89.4366 41.4417C89.2137 41.2279 88.6398 40.7227 88.4169 40.5089C88.2432 40.342 88.0706 40.118 87.8636 39.9934C87.7116 39.9019 87.635 39.9373 87.6007 40.0265C87.4796 39.727 87.3481 39.4321 87.2063 39.1417C87.1137 38.952 86.9766 38.7576 86.7411 38.8628C86.5811 38.9348 86.5193 39.0731 86.5045 39.2263C86.4233 39.0629 86.2758 38.8239 86.0701 38.9588C85.806 39.1314 86.0689 39.9156 86.0884 39.9145C86.2655 40.4483 86.4382 40.9856 86.6245 41.516C86.7891 41.9847 87.0143 42.3882 87.3767 42.7334C87.8008 43.137 88.2695 43.4971 88.7164 43.8743C89.1645 44.2504 91.2873 46.2383 91.7354 46.6144C91.7206 46.6555 92.547 45.4141 92.4179 45.3604L92.4202 45.3592Z" fill="#E68B60"/>
<path d="M93.7248 30.1463C93.8003 30.0926 93.8734 30.2172 93.798 30.2697C93.5396 30.4549 93.3784 30.7327 93.3476 31.0505C93.3384 31.142 93.1944 31.1454 93.2035 31.0528C93.239 30.6801 93.4196 30.3635 93.7237 30.1463H93.7248Z" fill="#9E583E"/>
<path d="M112.87 58.1346C112.911 58.1346 112.953 58.1037 112.937 58.0534C111.694 54.1896 110.183 50.4138 108.412 46.7615C107.524 44.9291 106.572 43.1287 105.555 41.3637C105.363 41.0287 105.169 40.6961 104.97 40.3634C104.644 39.8113 104.309 39.2626 103.97 38.7173C103.522 37.9994 103.063 37.277 102.476 36.6631C102.437 36.6231 102.398 36.5831 102.358 36.5454C101.744 35.9498 101.029 35.5772 100.21 35.3142C99.3058 35.0239 98.4839 34.6444 97.8357 33.8956C97.8186 33.875 97.7786 33.8693 97.7557 33.8853L96.2377 34.9862C96.0102 35.1439 95.7838 35.3017 95.5563 35.4594C95.45 35.5326 95.2763 35.616 95.2317 35.7509C95.1974 35.8549 95.2431 35.9475 95.2889 36.0378C95.4203 36.2985 95.5552 36.5442 95.6341 36.8277C95.7747 37.3261 95.7998 37.8508 95.7575 38.3652C95.7472 38.4876 95.6524 39.25 95.6329 40.216C95.6169 41.0196 95.6524 41.9627 95.8307 42.7949C95.8936 43.0852 95.961 43.3847 96.033 43.6945C97.2882 49.0489 99.962 56.9606 100.752 58.2317C100.944 58.5404 101.162 58.817 101.504 58.9656C101.904 59.1394 102.369 59.1497 102.797 59.1839C103.89 59.272 104.985 59.312 106.081 59.3051C107.327 59.2971 108.573 59.2285 109.812 59.0982C110.873 58.9862 111.968 58.8639 112.896 58.2969C112.925 58.2797 112.941 58.2363 112.921 58.2066C112.903 58.1826 112.886 58.1586 112.87 58.1346Z" fill="#2B1919"/>
<path d="M102.89 48.8536C102.783 46.9411 102.542 45.0367 102.307 43.1357C101.028 42.9127 99.742 42.7436 98.4491 42.6361C98.1256 42.6098 97.8033 42.587 97.4798 42.5675C97.37 42.5607 97.1665 42.5035 97.0934 42.6041C97.0511 42.6624 97.0945 42.9139 97.0945 42.9893C97.098 43.6089 97.1117 44.2273 97.1345 44.8469C97.1562 45.4448 97.1871 46.0415 97.2271 46.6382C97.2466 46.9308 97.3483 47.3824 96.9893 47.5116C96.6613 47.6304 96.284 47.3801 96.012 47.2326C95.8702 47.156 95.7285 47.0772 95.5867 46.9983C95.2026 46.7845 94.8208 46.565 94.4436 46.3399C94.2904 46.2484 94.1384 46.1569 93.9864 46.0644C93.1679 45.5637 92.3665 45.0367 91.5812 44.4857C91.2714 45.0035 90.9422 45.5168 90.6621 46.0495C90.4426 46.4645 90.6656 46.8245 90.8599 47.2018C90.9936 47.4601 91.1331 47.715 91.2794 47.9677C91.5458 48.4283 91.8327 48.8776 92.1345 49.3166C92.458 49.7864 92.7986 50.2448 93.1507 50.694C93.2216 50.7843 93.2936 50.8746 93.3656 50.965C94.0126 51.7732 94.6962 52.5516 95.389 53.321C96.0417 54.0457 96.6853 54.791 97.4215 55.4357C98.1599 56.0828 99.0287 56.6349 100.022 56.7595C100.641 56.8372 101.059 56.5617 101.467 56.1239C101.784 55.7833 102.037 55.3854 102.232 54.9625C103.088 53.1015 103.002 50.8495 102.89 48.8536Z" fill="#2B1919"/>
<path d="M89.33 42.8317C88.6018 42.1092 88.0714 41.2336 87.7708 40.2539C87.7456 40.1728 87.6188 40.2071 87.6439 40.2894C87.9514 41.2908 88.4933 42.1881 89.2374 42.9254C89.298 42.9849 89.3917 42.8923 89.3312 42.8317H89.33Z" fill="#9E583E"/>
<path d="M87.4302 41.5272C87.1695 40.8459 86.9089 40.1646 86.6483 39.4822C86.6185 39.4033 86.4905 39.4376 86.5214 39.5176C86.782 40.1989 87.0426 40.8802 87.3033 41.5626C87.333 41.6415 87.461 41.6072 87.4302 41.5272Z" fill="#9E583E"/>
<path d="M104.012 48.8363C103.978 47.5252 103.924 46.214 103.83 44.9051C103.728 43.4842 103.581 42.0667 103.375 40.6572C103.362 40.5738 103.235 40.6092 103.248 40.6927C103.59 43.0281 103.762 45.3829 103.847 47.7412C103.887 48.8706 103.921 50.0035 103.912 51.134C103.904 52.2006 103.831 53.2911 103.46 54.3016C103.029 55.4745 102.034 56.7605 100.622 56.4553C100.54 56.437 100.505 56.565 100.587 56.5822C102.863 57.0737 103.817 54.1885 103.982 52.4715C104.099 51.2678 104.041 50.0446 104.012 48.8375V48.8363Z" fill="#87423A"/>
<path d="M97.7051 28.2876C97.7257 28.0133 97.8 27.7424 97.7852 27.4657C97.7692 27.1674 97.6583 26.925 97.5051 26.677C97.2787 26.31 97.3611 25.8768 97.0798 25.5258C96.9221 25.3281 96.7026 25.1795 96.4545 25.1212C96.2659 25.0766 96.075 25.104 95.8841 25.0983C95.5686 25.0892 95.3754 24.9908 95.1217 24.8205C94.4415 24.3644 93.6642 24.3484 92.9017 24.6056C92.5325 24.7302 92.1872 24.9074 91.8432 25.088C91.5894 25.2218 91.3573 25.3304 91.0658 25.3532C90.8452 25.3704 90.6326 25.3612 90.4211 25.4367C90.1113 25.5476 89.8621 25.783 89.6792 26.0528C89.5866 26.19 89.5192 26.3363 89.4517 26.4872C89.3546 26.7033 89.1168 26.7581 89.0242 26.9696C88.9339 27.1742 89.0093 27.524 89.1648 27.6864C89.2826 27.8087 89.4117 27.7949 89.574 27.7949C89.8484 27.7949 90.1227 27.7904 90.3971 27.7881C91.3916 27.9001 92.3667 27.5446 93.367 27.6921C93.8013 27.7561 94.2266 27.8784 94.6415 28.0201C95.1274 28.187 95.6406 28.3597 96.0636 28.6592C96.2648 28.802 96.4283 28.9758 96.5769 29.1713C96.7049 29.3393 96.8055 29.5565 96.9541 29.7063C97.0878 29.8412 97.1633 29.8057 97.3073 29.6914C97.5714 29.4811 97.7337 29.225 97.7246 28.8809C97.72 28.6809 97.6868 28.49 97.7017 28.2899L97.7051 28.2876Z" fill="#754632"/>
<path d="M96.7042 30.3909C96.3018 30.5955 95.872 30.472 95.4662 30.3451C95.385 30.32 95.3496 30.4469 95.4307 30.472C95.8754 30.6115 96.3327 30.7269 96.7705 30.5052C96.8459 30.4663 96.7796 30.3531 96.7042 30.3909Z" fill="#5E3828"/>
<path d="M93.1072 28.0225C92.4854 28.0762 91.8521 28.1185 91.2953 27.7824C91.2222 27.7378 91.1559 27.8521 91.2291 27.8967C91.804 28.2454 92.4602 28.2111 93.1072 28.1551C93.1907 28.1482 93.1918 28.0156 93.1072 28.0225Z" fill="#5E3828"/>
<path d="M96.6409 28.5826C96.1757 28.7072 95.7116 28.7255 95.2383 28.6363C95.1549 28.6203 95.1194 28.7484 95.2029 28.7632C95.6979 28.857 96.1883 28.8398 96.6752 28.7095C96.7575 28.6878 96.7221 28.5598 96.6398 28.5826H96.6409Z" fill="#5E3828"/>
<path d="M99.6627 54.5637C98.5664 52.4192 97.7502 50.1444 97.2312 47.793C97.2129 47.7095 97.086 47.745 97.1043 47.8284C97.6256 50.1913 98.4475 52.4764 99.5495 54.6312C99.5884 54.7066 99.7027 54.6403 99.6638 54.5649L99.6627 54.5637Z" fill="#87423A"/>
<path d="M83.2711 55.3776C82.5315 55.2621 81.8068 55.3604 81.1243 55.6702C81.0466 55.7056 81.1141 55.8188 81.1906 55.7845C81.8365 55.4919 82.535 55.3959 83.2357 55.5056C83.3192 55.5182 83.3546 55.3913 83.2711 55.3787V55.3776Z" fill="#9E583E"/>
<path d="M103.969 38.7175C103.521 37.9997 103.063 37.2772 102.475 36.6633C102.436 36.6233 102.397 36.5833 102.357 36.5456C102.288 36.948 101.985 37.2326 101.669 37.4727C101.316 37.7424 100.954 37.9516 100.503 37.7676C100.452 37.747 100.421 37.8122 100.439 37.8522C100.658 38.3369 100.884 38.8593 100.83 39.4034C100.778 39.9327 100.455 40.3671 99.9237 40.4848C98.9714 40.6963 97.9963 40.0527 97.5688 39.2331C97.5437 39.1851 97.4556 39.2057 97.4625 39.2628C97.5425 39.9498 96.7503 40.6551 96.0667 40.47C95.8896 40.4219 95.7478 40.3328 95.6324 40.2162C95.6163 41.0198 95.6518 41.9629 95.8301 42.7951C95.893 43.0854 95.9604 43.3849 96.0324 43.6947C96.4908 43.8776 97.059 43.9039 97.4991 43.7999C97.9838 43.6833 98.4124 43.2809 98.3987 42.7814C99.1452 43.649 100.524 44.1977 101.609 43.681C102.166 43.4158 102.412 42.7802 102.481 42.2018C102.536 41.74 102.474 41.277 102.314 40.8472C103.199 41.3627 104.31 41.1147 104.969 40.3636C104.644 39.8115 104.309 39.2628 103.969 38.7175Z" fill="#87423A"/>
<path d="M91.7886 55.0015C92.1178 54.6746 92.4345 54.2516 92.2824 53.7669C92.2184 53.5635 92.0938 53.3977 91.9349 53.2708C91.3633 53.4937 90.7964 53.7303 90.2339 53.9796C90.0979 54.0401 89.963 54.1007 89.8281 54.1625C89.859 54.191 89.8887 54.2219 89.915 54.2585C90.2179 54.6677 89.8041 55.0804 89.508 55.3422C89.4715 55.3742 89.4989 55.4439 89.5481 55.4405C90.3985 55.3685 90.8409 56.2612 90.5997 56.9951C90.594 57.0134 90.5872 57.0317 90.5803 57.05C91.1542 57.0683 92.0812 57.0957 93.1341 57.1129C93.5582 56.1526 92.8403 55.0518 91.7897 55.0015H91.7886Z" fill="#87423A"/>
<path d="M95.587 46.9983C95.2029 46.7846 94.8211 46.5651 94.4438 46.3399C94.2906 46.2484 94.1386 46.157 93.9866 46.0644C94.038 46.365 94.014 46.6737 93.8803 46.972C93.5842 47.6328 92.7143 47.962 92.1507 47.4064C92.1061 47.3607 92.0261 47.419 92.0615 47.475C92.3576 47.9494 92.7177 48.5656 92.3622 49.1074C92.3005 49.2023 92.2227 49.2709 92.1347 49.3166C92.4582 49.7864 92.7989 50.2448 93.1509 50.6941C93.9911 50.35 94.453 49.4412 94.2712 48.5438C94.9308 48.6559 95.4761 48.114 95.5755 47.4796C95.6007 47.3161 95.603 47.1561 95.587 46.9983Z" fill="#87423A"/>
<path d="M112.777 75.4874H101.224V76.8077H112.777V75.4874Z" fill="#734735"/>
<path d="M104.634 68.7213L103.829 71.1378L100.952 79.7685L98.5607 86.9439L98.5092 86.9462L97.5479 86.9873L97.9411 85.4864L100.001 77.6434L101.71 71.1378L102.344 68.7213H104.634Z" fill="#734735"/>
<path d="M116.453 86.36L115.44 86.3166L110.336 71.0055L109.789 69.3651V69.3639L109.365 68.0939H111.654L112.419 71.0055L116.453 86.36Z" fill="#734735"/>
<path d="M102.345 68.7213L101.709 71.1378H103.828L104.634 68.7213H102.345Z" fill="#2B1919"/>
<path d="M111.654 68.0939H110.123L109.79 69.3639L110.336 71.0055H112.419L111.654 68.0939Z" fill="#2B1919"/>
<path d="M113.866 66.9598H100.134V69.1501H113.866V66.9598Z" fill="#734735"/>
<path d="M99.6194 80.0739C99.5588 79.9859 99.4948 79.9001 99.4308 79.8156L98.0225 85.1768C98.0225 85.1768 98.0305 85.1825 98.0339 85.186C98.3483 85.37 98.6546 85.5678 98.9473 85.7838L100.461 81.2422C100.169 80.8661 99.896 80.4717 99.6206 80.0728L99.6194 80.0739Z" fill="#2B1919"/>
<path d="M94.8185 65.5847H68.7939V66.905H94.8185V65.5847Z" fill="#734735"/>
<path d="M72.3697 58.8608L71.7776 60.7058L62.5548 89.4955L61.542 89.5401L69.5531 60.7584L70.0812 58.8608H72.3697Z" fill="#734735"/>
<path d="M101.751 89.341L100.739 89.2976L91.6272 60.8611L90.9802 58.8423L90.9219 58.6628H93.2116L93.263 58.8469L93.8151 60.8279L101.751 89.341Z" fill="#87543E"/>
<path d="M70.0818 58.8608L69.5537 60.7584C70.2956 60.7412 71.0363 60.7229 71.7782 60.7058L72.3704 58.8608H70.0818Z" fill="#2B1919"/>
<path d="M93.2635 58.847C92.5719 58.8412 91.8814 58.8378 91.1898 58.8367C91.1201 58.8367 91.0481 58.8367 90.9795 58.8435L91.6265 60.8623C92.1272 60.8509 92.6279 60.8383 93.1274 60.8269C93.3469 60.8211 93.5847 60.8383 93.8145 60.8291L93.2623 58.847H93.2635Z" fill="#2B1919"/>
<path d="M99.7039 57.0566H63.6885V59.2469H99.7039V57.0566Z" fill="#734735"/>
<path d="M39.7513 56.4705C39.6942 55.9915 39.4255 55.764 38.9466 55.9766C38.4127 56.2121 38.0389 56.7265 37.7634 57.2192C37.6491 57.4238 37.5417 57.633 37.4365 57.8445C37.4879 57.681 37.5394 57.5176 37.5897 57.3541C38.0572 55.836 38.6436 54.2551 38.6757 52.6501C38.6814 52.3518 38.6345 51.8191 38.2893 51.7093C38.2607 51.699 38.2298 51.6933 38.1967 51.6899C38.1898 51.6887 38.183 51.6887 38.1761 51.6887C37.7234 51.6705 37.3713 52.4226 37.1827 52.7324C36.4728 53.9018 36.0682 55.2279 35.7984 56.5619C35.6063 57.513 35.4737 58.4744 35.356 59.4392C35.3732 59.1865 35.3892 58.935 35.4006 58.6824C35.4509 57.6067 35.5126 56.459 35.1239 55.4336C35.0085 55.1284 34.8359 54.6643 34.4827 54.5637C34.142 54.4677 33.9522 54.8106 33.8356 55.0701C33.4104 56.0143 33.5293 57.1963 33.6299 58.1966C33.7453 59.3431 33.9945 60.4691 34.3638 61.5574C34.054 61.7014 33.8848 62.0695 33.9728 62.4136C34.0986 62.912 34.6347 63.1635 35.1045 63.2092C35.4955 63.2481 35.8944 63.1852 36.2842 63.1463C36.5048 63.1246 36.937 63.1635 37.121 63.0332C37.233 62.9543 37.3016 62.6468 37.3622 62.5176L37.632 61.9381L38.2035 60.7138C38.5613 59.9444 38.926 59.1785 39.2781 58.4069C39.5547 57.8033 39.8314 57.1495 39.7513 56.4705Z" fill="#8D9E7B"/>
<path d="M39.8836 57.5393C39.5624 58.4812 38.9645 59.3603 38.4387 60.1982C38.2935 60.4291 38.1472 60.6577 37.9997 60.8863C37.8499 61.1173 37.7093 61.4133 37.5242 61.6168C37.371 61.7848 37.2715 61.7746 37.0658 61.6945C36.9469 61.6477 36.8268 61.6019 36.708 61.5551C36.4851 61.4682 36.261 61.3813 36.0381 61.2944C36.2781 60.4222 36.5868 59.5706 36.9732 58.751C37.3573 57.9348 37.7951 57.018 38.4158 56.3527C38.7736 55.9697 39.5338 55.5399 39.8984 56.1595C40.1408 56.5699 40.0276 57.1163 39.8824 57.5393H39.8836Z" fill="#4D5E44"/>
<path d="M38.2893 51.7093C37.1885 55.3239 36.2305 58.9796 35.4189 62.6696C35.4029 62.7416 35.2932 62.7108 35.308 62.6388C36.1208 58.9533 37.0764 55.2999 38.1761 51.6887C38.183 51.6887 38.1899 51.6887 38.1967 51.6899C38.2299 51.6933 38.2607 51.699 38.2893 51.7093Z" fill="#4D5E44"/>
<path d="M28.0278 49.4322C28.0198 49.4048 27.9878 49.375 27.9569 49.3796C26.8378 49.5168 25.9347 50.2027 25.2157 51.036C24.8682 51.4395 24.5424 51.8648 24.2258 52.298C24.6853 51.539 25.1357 50.7742 25.5758 50.0026C25.9885 49.2779 26.3931 48.5486 26.7887 47.8147C27.1522 47.1391 27.5683 46.4623 27.83 45.7387C27.9729 45.3455 28.2096 44.4573 27.7043 44.2035C27.2825 43.992 26.7989 44.3944 26.5086 44.6551C25.4855 45.5741 24.8008 46.803 24.2761 48.0593C23.6428 49.5785 23.2209 51.1789 22.5442 52.6798C22.3453 52.7278 22.1464 52.7759 21.9475 52.825C21.9452 52.8262 21.9418 52.8273 21.9395 52.8273C22.3967 51.5927 22.8151 50.3433 23.1889 49.079C23.6336 47.5746 24.108 46.0222 24.2909 44.4596C24.3332 44.0972 24.3549 43.7326 24.3424 43.3679C24.3344 43.1153 24.3481 42.7746 24.1972 42.554C24.1034 42.4168 23.9926 42.3677 23.8794 42.3734C23.8394 42.3734 23.7982 42.3825 23.7582 42.3962C23.5559 42.4637 23.3581 42.6614 23.2358 42.81C22.4253 43.7931 21.9841 45.0117 21.7326 46.2463C21.4537 47.6169 21.3736 49.0264 21.2902 50.4199C21.2399 51.2509 21.2033 52.082 21.1782 52.9142C21.1747 53.0182 21.2148 53.328 21.1839 53.4869C21.1793 53.4835 21.1747 53.48 21.169 53.4777C21.0959 53.4514 21.0216 53.4434 20.9495 53.448C20.9473 53.4377 20.9461 53.4286 20.945 53.4194C20.8947 53.0033 20.9038 52.5712 20.8775 52.1529C20.7815 50.5879 20.6786 49.0024 20.4203 47.4534C20.3597 47.0842 19.9447 44.7065 19.1994 45.014C19.1651 45.0266 19.1308 45.046 19.0954 45.0723C19.0439 45.11 18.9902 45.1603 18.9353 45.2243C18.7604 45.4301 18.7376 45.7102 18.7227 45.9674C18.6964 46.3892 18.6987 46.8144 18.717 47.2351C18.7513 48.0239 18.853 48.808 19.0199 49.5785C19.3274 50.9971 19.8579 52.3575 20.5837 53.6115C20.5037 53.6881 20.4431 53.7875 20.4157 53.9041C20.3197 54.3122 20.6318 54.6872 20.9621 54.8769C21.0524 54.9284 21.1473 54.9752 21.2456 55.0164C21.2822 55.0324 21.3188 55.0473 21.3565 55.0621C21.7566 55.2176 22.199 55.3136 22.5957 55.4279C23.1101 55.5777 23.6873 55.7709 24.1857 55.4714C24.6956 55.1639 25.1117 54.6037 25.4992 54.1613C25.9062 53.6972 26.2914 53.2137 26.6538 52.7153C27.0356 52.1894 27.4151 51.6453 27.7226 51.0726C27.9958 50.5593 28.1764 50.0118 28.0278 49.4322Z" fill="#8D9E7B"/>
<path d="M28.0638 44.0001C27.5871 43.6823 26.8624 44.1601 26.5229 44.4299C25.9913 44.8529 25.5924 45.4873 25.1763 46.0257C24.7339 46.5996 24.4207 47.2443 24.1417 47.9096C23.441 49.5831 22.7871 51.2773 22.1561 52.9782C22.1401 53.0217 22.1778 53.0503 22.2156 53.0468C22.2361 53.1691 22.3184 53.2663 22.443 53.3303C22.7688 53.4995 23.2181 53.5292 23.5725 53.6092C23.5976 53.615 23.6228 53.6058 23.6365 53.583C24.4698 52.2375 25.3203 50.9012 26.1194 49.5351C26.8715 48.248 27.602 46.9139 28.1038 45.5067C28.241 45.1238 28.5062 44.2939 28.0627 43.9978L28.0638 44.0001Z" fill="#4D5E44"/>
<path d="M23.8789 42.3732C23.7257 43.1802 23.5531 43.9838 23.3702 44.7852C22.5952 48.1871 21.6498 51.5754 21.356 55.0619C21.3183 55.0471 21.2817 55.0322 21.2451 55.0162C21.3046 54.304 21.3914 53.5941 21.4989 52.8877C22.0407 49.3474 23.0833 45.91 23.7577 42.396C23.7977 42.3823 23.8389 42.3743 23.8789 42.3732Z" fill="#4D5E44"/>
<path d="M20.5692 52.7895C20.5806 52.8615 20.4663 52.8649 20.4549 52.7941C20.0434 50.2129 19.5895 47.6385 19.0957 45.0722C19.1311 45.0459 19.1654 45.0265 19.1997 45.0139C19.6981 47.5985 20.1542 50.19 20.5692 52.7895Z" fill="#4D5E44"/>
<path d="M26.7424 59.4393H17.4521V61.8558H26.7424V59.4393Z" fill="#2B1919"/>
<path d="M25.7919 67.9281H18.501C18.5376 67.6584 18.5719 67.3909 18.6084 67.1211H25.6844C25.721 67.3909 25.7553 67.6584 25.7919 67.9281Z" fill="#2B1919"/>
<path d="M19.6028 60.7678C19.3204 62.8849 19.0369 65.0042 18.7557 67.1213C18.7191 67.3911 18.6825 67.6586 18.6482 67.9284C18.2722 70.7496 17.8961 73.5709 17.52 76.3921C17.5074 76.4858 17.3622 76.471 17.3748 76.3772C17.7509 73.5606 18.127 70.745 18.5008 67.9272C18.5374 67.6574 18.5717 67.39 18.6082 67.1202C18.8906 64.9974 19.1741 62.8746 19.4564 60.7518C19.469 60.6581 19.6142 60.6729 19.6016 60.7666L19.6028 60.7678Z" fill="#2B1919"/>
<path d="M26.9374 76.5245C26.95 76.6182 26.8048 76.6319 26.7922 76.5393C26.4104 73.6701 26.0275 70.7985 25.6456 67.9293C25.6102 67.6595 25.5748 67.392 25.5382 67.1222C25.2627 65.0532 24.9872 62.983 24.7117 60.9139C24.6991 60.8202 24.8443 60.8064 24.8557 60.899C25.1324 62.9727 25.4079 65.0486 25.6845 67.1222C25.7211 67.392 25.7554 67.6595 25.792 67.9293C26.1738 70.794 26.5556 73.6598 26.9374 76.5245Z" fill="#2B1919"/>
<path d="M40.1984 67.2113H30.9082V69.6279H40.1984V67.2113Z" fill="#2B1919"/>
<path d="M38.7618 72.0571H32.4414C32.478 71.7873 32.5123 71.5198 32.5489 71.2501H38.6532C38.6886 71.5198 38.7241 71.7873 38.7606 72.0571H38.7618Z" fill="#2B1919"/>
<path d="M33.058 68.5398C32.9368 69.4429 32.8156 70.3471 32.6967 71.2501C32.6601 71.5199 32.6258 71.7874 32.5893 72.0572C32.4624 73.0026 32.3366 73.9479 32.212 74.8933C32.1755 75.1631 32.1389 75.4306 32.1046 75.7004C32.0794 75.8901 32.0554 76.0776 32.0303 76.2662H31.8828C31.908 76.0787 31.932 75.8901 31.9571 75.7004C31.9937 75.4306 32.028 75.1631 32.0646 74.8933C32.1903 73.9479 32.3172 73.0026 32.4418 72.0572C32.4784 71.7874 32.5127 71.5199 32.5493 71.2501C32.6704 70.3425 32.7916 69.4326 32.9116 68.5249C32.9242 68.4312 33.0694 68.446 33.0568 68.5398H33.058Z" fill="#2B1919"/>
<path d="M39.3429 76.4078H39.1954C39.1634 76.1735 39.1326 75.9369 39.1006 75.7014C39.0651 75.4316 39.0297 75.1641 38.9931 74.8943C38.8674 73.949 38.7405 73.0036 38.6159 72.0582C38.5793 71.7884 38.545 71.521 38.5084 71.2512C38.3952 70.3961 38.2809 69.5422 38.1678 68.686C38.1552 68.5923 38.3004 68.5785 38.3118 68.6711C38.4273 69.5308 38.5404 70.3904 38.6559 71.2512C38.6913 71.521 38.7268 71.7884 38.7633 72.0582C38.8891 73.0036 39.0137 73.949 39.1406 74.8943C39.1771 75.1641 39.2114 75.4316 39.248 75.7014C39.28 75.938 39.3109 76.1735 39.3429 76.4078Z" fill="#2B1919"/>
<path d="M17.4477 52.7105C17.3962 53.8685 17.4579 55.0551 17.7917 56.1662C17.8958 56.5137 18.0272 56.8544 18.1907 57.1847C18.3519 57.5117 18.5473 57.8249 18.7737 58.1164C19.2961 58.7931 19.9808 59.3487 20.7776 59.6585C22.011 60.1397 23.3611 59.8939 24.4562 59.1875C26.6281 57.7837 27.2683 55.1397 27.6581 52.7105H17.4477Z" fill="#F7E9E1"/>
<path d="M31.6794 60.3616C31.6223 61.882 31.732 63.4538 32.3207 64.8358C32.3767 64.9673 32.4385 65.0988 32.5036 65.2257C32.5219 65.2611 32.5402 65.2954 32.5585 65.3297C32.8706 65.907 33.2787 66.4237 33.7599 66.8146C33.8959 66.9278 34.0388 67.0284 34.1863 67.1187C34.304 67.1896 34.4252 67.2536 34.5498 67.3096C35.6129 67.7908 36.7766 67.5451 37.7197 66.8386C38.3987 66.3299 38.904 65.6578 39.2881 64.8907C39.7419 63.9854 40.0277 62.9485 40.23 61.8957C40.3295 61.3836 40.4095 60.868 40.4792 60.3616H31.6794Z" fill="#F7E9E1"/>
<path d="M20.7081 54.0265C20.38 54.0357 20.052 54.0448 19.725 54.054C19.5376 54.0597 19.2106 53.9991 19.0471 54.0974C18.9123 54.1774 18.894 54.414 18.846 54.5444C18.7511 54.8004 18.6322 55.0462 18.4916 55.2794C18.2961 55.6052 18.0606 55.9035 17.792 56.1665C17.896 56.514 18.0275 56.8546 18.1909 57.185C18.3521 57.5119 18.5476 57.8251 18.7739 58.1166C18.8037 58.1041 18.8334 58.0915 18.8631 58.0766C20.348 57.353 20.6944 55.5743 20.7653 54.0837C20.7664 54.0528 20.7378 54.0254 20.7081 54.0265Z" fill="#C65F3D"/>
<path d="M25.8892 52.7105H23.0759C22.39 54.3909 22.0802 56.3125 23.412 57.7563C23.4303 57.7757 23.4589 57.7746 23.4817 57.7643C23.8281 57.61 24.1756 57.4556 24.522 57.3013C24.5391 57.2945 24.5528 57.2705 24.5505 57.2522C24.3814 55.6232 24.8775 53.9794 25.8892 52.7105Z" fill="#C65F3D"/>
<path d="M39.1767 62.1015C38.46 62.1689 37.7421 62.0706 37.0665 61.826C37.0368 61.8157 37.0036 61.8386 36.9956 61.866C36.9293 62.0981 36.863 62.329 36.7967 62.561C36.7464 62.7348 36.6561 62.9337 36.6755 63.1189C36.7053 63.4104 37.0128 63.6607 37.2162 63.8413C37.7855 64.3432 38.4863 64.6838 39.2179 64.8736C39.2407 64.8793 39.2647 64.885 39.2876 64.8907C39.7414 63.9854 40.0272 62.9486 40.2295 61.8957C39.8786 62.0112 39.5048 62.0706 39.1767 62.1015Z" fill="#C65F3D"/>
<path d="M35.283 60.3616H33.3854C33.5855 61.2316 33.5352 62.1804 33.35 63.04C33.198 63.7487 32.9202 64.5375 32.5029 65.2257C32.5212 65.2611 32.5395 65.2954 32.5578 65.3297C32.8699 65.907 33.278 66.4237 33.7592 66.8146C34.0679 66.5105 34.3274 66.1504 34.5503 65.7846C34.9709 65.0919 35.2647 64.3214 35.4236 63.5281C35.6305 62.4993 35.6477 61.3527 35.283 60.3616Z" fill="#C65F3D"/>
<path d="M31.6415 14.7702C31.2563 14.8022 31.3306 15.2423 31.3089 15.5087C31.3055 15.5453 31.3329 15.5636 31.3615 15.5636C31.3683 15.5739 31.3786 15.5819 31.3946 15.5841C31.6107 15.6161 31.8107 15.591 32.0119 15.5053C32.0291 15.4984 32.0416 15.4733 32.0405 15.4561C32.0222 15.192 32.0313 14.7382 31.6427 14.7714L31.6415 14.7702Z" fill="#2B1919"/>
<path d="M46.6601 13.5699C46.2749 13.6019 46.3492 14.042 46.3274 14.3084C46.324 14.345 46.3514 14.3632 46.38 14.3632C46.3869 14.3735 46.3972 14.3815 46.4132 14.3838C46.6292 14.4158 46.8293 14.3907 47.0305 14.3049C47.0476 14.2981 47.0602 14.2729 47.059 14.2558C47.0408 13.9917 47.0499 13.5379 46.6612 13.5711L46.6601 13.5699Z" fill="#2B1919"/>
<path d="M60.1861 12.0231C59.8158 12.1362 59.9815 12.55 60.0158 12.8152C60.0204 12.8518 60.0512 12.8644 60.0787 12.8575C60.0867 12.8655 60.0993 12.8713 60.1153 12.8701C60.3336 12.8564 60.5234 12.789 60.7017 12.6632C60.7166 12.6529 60.7234 12.6266 60.7188 12.6095C60.6457 12.3557 60.5588 11.9099 60.1861 12.0231Z" fill="#2B1919"/>
<path d="M74.3424 10.042C73.972 10.1552 74.1378 10.569 74.1721 10.8342C74.1766 10.8708 74.2075 10.8834 74.2349 10.8765C74.2429 10.8845 74.2555 10.8902 74.2715 10.8891C74.4899 10.8754 74.6796 10.8079 74.8579 10.6822C74.8728 10.6719 74.8797 10.6456 74.8751 10.6285C74.8019 10.3747 74.715 9.92887 74.3424 10.042Z" fill="#2B1919"/>
<path d="M87.6979 7.50786C87.3275 7.62103 87.4932 8.03485 87.5275 8.30005C87.5321 8.33663 87.563 8.34921 87.5904 8.34235C87.5984 8.35035 87.611 8.35607 87.627 8.35492C87.8453 8.3412 88.0351 8.27376 88.2134 8.14802C88.2283 8.13773 88.2351 8.11143 88.2306 8.09429C88.1574 7.84051 88.0705 7.39469 87.6979 7.50786Z" fill="#2B1919"/>
<path d="M115.056 2.06085C110.476 3.268 105.876 4.40084 101.259 5.45595C93.6175 7.20151 85.9265 8.73674 78.2 10.0616C70.5113 11.3797 62.7861 12.4885 55.0368 13.387C47.1801 14.2981 39.297 14.9908 31.4014 15.4663C27.9617 15.6733 24.5198 15.8379 21.0755 15.9613C21.0595 15.999 21.0435 16.0379 21.0264 16.0756C23.539 15.9865 26.0516 15.8767 28.563 15.7418C36.3912 15.3223 44.2079 14.689 52.0006 13.842C59.7614 12.9983 67.4992 11.9444 75.2028 10.6801C82.9383 9.41118 90.6396 7.92968 98.294 6.23899C103.946 4.9907 109.571 3.62694 115.168 2.15116C115.13 2.12144 115.093 2.09057 115.056 2.06085Z" fill="#F7E9E1"/>
<path d="M33.2811 16.9205C33.264 17.7733 32.5587 18.45 31.707 18.4328C31.4681 18.4283 31.2441 18.37 31.044 18.2682C30.9971 18.2454 30.9526 18.2191 30.908 18.1928C30.4702 17.9116 30.1832 17.4177 30.1947 16.8587C30.2118 16.006 30.916 15.3292 31.7688 15.3464C32.4352 15.3601 32.9942 15.7934 33.1988 16.3901C33.2137 16.4358 33.2274 16.4838 33.24 16.5318C33.2697 16.6564 33.2845 16.7867 33.2811 16.9205Z" fill="#F7E9E1"/>
<path d="M48.3599 15.7349C48.3473 16.3796 47.9415 16.9226 47.3768 17.1421C47.3391 17.1569 47.2979 17.1718 47.2591 17.1821C47.1093 17.2278 46.9504 17.2507 46.7858 17.2472C45.9925 17.2312 45.3512 16.6197 45.2803 15.8469C45.2757 15.8035 45.2734 15.7589 45.2734 15.7143C45.2734 15.7006 45.2734 15.6869 45.2734 15.6731C45.2906 14.8204 45.9959 14.1436 46.8475 14.1608C47.7003 14.1779 48.377 14.8821 48.3599 15.7349Z" fill="#F7E9E1"/>
<path d="M62.3023 14.107C62.3 14.2042 62.2897 14.3002 62.2702 14.3917C62.26 14.4374 62.2485 14.4831 62.236 14.5266C62.0405 15.1702 61.4358 15.632 60.7293 15.6183C60.5533 15.6148 60.3852 15.5817 60.2298 15.5234C60.192 15.5108 60.1555 15.496 60.12 15.4788C59.577 15.2307 59.2055 14.6798 59.2181 14.0442C59.2352 13.1925 59.9394 12.5147 60.7922 12.5318C61.645 12.549 62.3217 13.2543 62.3045 14.1059L62.3023 14.107Z" fill="#F7E9E1"/>
<path d="M76.404 12.2161C76.4017 12.3167 76.3914 12.4139 76.3708 12.5076C76.3594 12.5591 76.3457 12.6094 76.3297 12.6574C76.1274 13.2907 75.5284 13.7411 74.8299 13.7274C74.3624 13.7182 73.9485 13.5033 73.6719 13.1695C73.6445 13.1352 73.6159 13.0986 73.5896 13.0609C73.4124 12.8048 73.3118 12.4905 73.3187 12.1544C73.3358 11.3028 74.04 10.6249 74.8928 10.642C75.7456 10.6592 76.4223 11.3645 76.4051 12.2161H76.404Z" fill="#F7E9E1"/>
<path d="M89.9472 9.62843C89.945 9.76789 89.9232 9.90278 89.8867 10.0308C89.8707 10.0845 89.8524 10.136 89.8307 10.1874C89.5952 10.7578 89.0282 11.1534 88.3732 11.1408C88.3011 11.1396 88.2314 11.1339 88.1617 11.1214C88.1194 11.1145 88.0782 11.1076 88.0371 11.0973C87.3489 10.9305 86.8459 10.304 86.8596 9.5667C86.8768 8.71506 87.581 8.03719 88.4337 8.05433C89.2865 8.07148 89.9632 8.77679 89.9461 9.62843H89.9472Z" fill="#F7E9E1"/>
<path d="M33.2402 16.5316C32.9441 16.3978 32.6 16.3704 32.288 16.4538C31.4272 16.6882 31.0614 17.4655 31.0442 18.268C30.9974 18.2451 30.9528 18.2188 30.9082 18.1925C30.9196 17.9182 30.9779 17.6461 31.0934 17.3889C31.3243 16.8779 31.777 16.4447 32.3348 16.3258C32.6183 16.2652 32.9247 16.2881 33.199 16.3898C33.2139 16.4356 33.2276 16.4836 33.2402 16.5316Z" fill="white"/>
<path d="M47.2582 17.1822C47.2811 16.5832 47.1416 15.823 46.5244 15.6001C46.1037 15.4492 45.6476 15.5932 45.2783 15.847C45.2738 15.8036 45.2715 15.759 45.2715 15.7144C45.6796 15.456 46.1826 15.3257 46.633 15.5212C47.2388 15.783 47.3863 16.542 47.3748 17.1422C47.3371 17.157 47.296 17.1719 47.2571 17.1822H47.2582Z" fill="white"/>
<path d="M62.2725 14.3931C62.2622 14.4388 62.2507 14.4845 62.2382 14.5279C62.101 14.3176 61.925 14.1416 61.7009 14.0558C61.1053 13.8283 60.5498 14.3176 60.3566 14.8446C60.2754 15.0652 60.24 15.2938 60.2308 15.5259C60.1931 15.5133 60.1565 15.4985 60.1211 15.4813C60.1382 15.1464 60.208 14.8194 60.3829 14.5234C60.6218 14.1164 61.0813 13.8203 61.5672 13.9026C61.8712 13.9541 62.0999 14.1496 62.2736 14.3931H62.2725Z" fill="white"/>
<path d="M76.3711 12.5078C76.3596 12.5592 76.3459 12.6095 76.3299 12.6575C76.1619 12.3832 75.9081 12.1751 75.5572 12.0745C75.013 11.9191 74.4255 12.126 74.0437 12.5329C73.8699 12.7181 73.7476 12.9364 73.6721 13.1696C73.6447 13.1354 73.6161 13.0988 73.5898 13.061C73.6721 12.8381 73.7967 12.6312 73.9659 12.4506C74.3546 12.0379 74.949 11.8173 75.5103 11.9454C75.8761 12.0288 76.1687 12.2311 76.3711 12.5078Z" fill="white"/>
<path d="M89.8865 10.0307C89.8705 10.0845 89.8522 10.1359 89.8305 10.1874C89.6636 9.82498 89.3253 9.51062 88.8989 9.62837C88.4382 9.75525 88.2381 10.2514 88.1936 10.68C88.1798 10.8161 88.1661 10.9681 88.1627 11.1224C88.1204 11.1156 88.0792 11.1087 88.0381 11.0984C88.0415 10.8561 88.0747 10.616 88.1204 10.4148C88.2096 10.0216 88.4633 9.6318 88.8703 9.51863C89.2841 9.40317 89.6853 9.66609 89.8808 10.0216C89.8831 10.025 89.8842 10.0285 89.8865 10.0319V10.0307Z" fill="white"/>
<path d="M102.517 4.69445C102.137 4.62357 102.093 5.06825 102.001 5.3186C101.988 5.35289 102.01 5.37804 102.037 5.3849C102.041 5.39633 102.049 5.40662 102.065 5.41348C102.265 5.5015 102.464 5.53007 102.681 5.50035C102.699 5.49807 102.717 5.47749 102.721 5.46034C102.773 5.20085 102.902 4.76532 102.517 4.69445Z" fill="#2B1919"/>
<path d="M103.657 6.74191C103.721 7.40607 103.354 8.01307 102.784 8.28399C102.747 8.30228 102.711 8.31829 102.672 8.33315C102.545 8.38116 102.411 8.41317 102.269 8.42688C101.672 8.48404 101.123 8.19368 100.821 7.72271C100.799 7.69071 100.78 7.65641 100.762 7.62326C100.667 7.44722 100.605 7.2506 100.584 7.04027C100.502 6.19206 101.123 5.4376 101.972 5.35643C102.822 5.27413 103.575 5.89599 103.656 6.7442L103.657 6.74191Z" fill="#F7E9E1"/>
<path d="M102.785 8.28379C102.748 8.30208 102.712 8.31808 102.673 8.33294C102.667 7.89398 102.552 7.24468 102.034 7.18295C101.603 7.13151 101.128 7.42415 100.822 7.72251C100.8 7.6905 100.781 7.65621 100.763 7.62306C100.776 7.60934 100.79 7.59677 100.805 7.58305C101.15 7.27212 101.752 6.92575 102.228 7.11208C102.656 7.27898 102.775 7.8414 102.785 8.28379Z" fill="white"/>
<path d="M138.565 55.6692C137.964 55.1353 137.008 54.853 136.318 55.2828C137.046 54.182 137.589 52.9634 137.909 51.6819C138.082 50.9938 138.192 50.2885 138.232 49.5809C138.266 48.9956 138.242 48.3726 137.995 47.8307C137.446 46.6259 136.024 46.6545 134.906 46.8591C133.688 47.082 132.532 47.609 131.546 48.3543C130.655 49.0287 129.907 49.8815 129.369 50.8566C129.538 49.8529 129.158 48.7967 128.475 48.0251C127.458 46.8797 125.887 46.5801 124.439 46.9562C120.837 47.8947 119.494 51.8511 118.84 55.1033C118.437 57.105 118.273 59.1489 118.345 61.1882C118.345 61.2317 118.348 61.274 118.35 61.3162C118.355 61.4706 118.361 61.6249 118.372 61.7781C118.373 61.8089 118.374 61.8387 118.376 61.8695C117.725 61.3677 116.816 61.8387 116.445 62.488C116.195 62.9292 116.096 63.439 116.011 63.9329C115.919 64.4839 115.854 65.0394 115.821 65.5973C115.684 67.8767 116.047 70.1847 116.863 72.3155C117.152 73.0699 117.498 73.7992 117.897 74.4988C117.858 74.4863 118.28 75.1538 118.745 75.6282C119.19 75.9346 119.747 76.0592 120.349 75.946C121.056 75.8134 121.694 75.4339 122.298 75.0612C122.893 74.6943 123.484 74.3194 124.069 73.9376C124.3 73.7867 124.531 73.6346 124.759 73.4814C125.697 72.855 126.619 72.208 127.524 71.537C129.77 69.868 131.906 68.0436 133.838 66.0179C134.335 65.4967 134.819 64.9605 135.287 64.4118C135.316 64.3776 135.346 64.3433 135.375 64.3078C135.761 63.8529 136.136 63.3876 136.498 62.9143C137.353 61.7975 138.237 60.6167 138.83 59.3352C139.371 58.1692 139.637 56.6203 138.565 55.6692Z" fill="#8D9E7B"/>
<path d="M135.374 64.308C135.345 64.3434 135.316 64.3777 135.286 64.412C135.037 63.5261 134.551 62.6162 133.606 62.3429C132.692 62.0766 131.632 62.3269 130.816 62.775C130.03 63.206 129.391 63.8633 128.99 64.6646C128.964 64.7138 128.876 64.6921 128.883 64.6361C129.091 62.8242 129.143 60.9906 129.003 59.1708C128.952 58.5066 128.862 57.7921 128.492 57.2183C128.113 56.6273 127.481 56.3209 126.79 56.2821C125.543 56.2123 124.339 56.8765 123.452 57.7053C121.682 59.3582 120.87 61.8114 120.23 64.0805C120.211 64.1434 120.119 64.1285 120.117 64.0645C120.072 62.9145 119.39 61.824 118.349 61.3164C118.347 61.2741 118.345 61.2318 118.345 61.1884C118.364 61.1964 118.384 61.2055 118.402 61.2147C119.387 61.6948 120.059 62.6836 120.203 63.7581C120.582 62.447 121.023 61.1438 121.663 59.9344C122.237 58.853 122.986 57.8424 123.985 57.1188C124.939 56.4284 126.224 55.9208 127.405 56.2706C128.735 56.665 129.036 58.0379 129.123 59.2576C129.244 60.9563 129.206 62.6664 129.026 64.3594C129.51 63.5318 130.255 62.8734 131.137 62.4904C131.98 62.1269 133.065 61.9474 133.928 62.3395C134.714 62.6973 135.138 63.5112 135.374 64.308Z" fill="#69785C"/>
<path d="M124.467 71.8398C124.219 71.3894 123.802 71.0591 123.265 71.1185C122.767 71.1745 122.368 71.4877 121.962 71.7621C122.456 71.1139 122.872 70.412 123.235 69.6827C123.643 68.8608 124.027 67.9966 124.131 67.0764C124.221 66.2796 124.099 65.3743 123.577 64.7353C123.053 64.0917 122.198 64.1134 121.449 64.2551C120.713 64.3946 119.991 64.7741 119.657 65.4451C119.709 64.2323 119.678 62.7611 118.667 61.9586C118.574 61.8854 118.475 61.8248 118.372 61.778C118.373 61.8088 118.374 61.8386 118.376 61.8694C117.725 61.3676 116.816 61.8386 116.445 62.4879C116.195 62.9291 116.096 63.4389 116.011 63.9328C115.919 64.4838 115.854 65.0393 115.821 65.5972C115.684 67.8766 116.047 70.1846 116.863 72.3154C117.152 73.0698 117.498 73.7991 117.897 74.4987C117.858 74.4862 118.28 75.1537 118.745 75.6281C119.19 75.9345 119.747 76.0591 120.349 75.9459C121.056 75.8133 121.694 75.4338 122.298 75.0612C122.893 74.6942 123.484 74.3193 124.069 73.9375C124.3 73.7866 124.531 73.6345 124.759 73.4814C124.807 72.9121 124.745 72.3462 124.467 71.8398Z" fill="#69785C"/>
</svg>
