<svg width="103" height="84" viewBox="0 0 103 84" fill="none" xmlns="http://www.w3.org/2000/svg">
<path d="M100.82 18.2194C100.824 18.2259 100.826 18.2324 100.83 18.2402C101.086 18.8204 101.289 19.4163 101.439 20.0173C101.601 20.665 101.746 21.3179 101.878 21.9747C102.172 23.4506 102.397 24.9459 102.561 26.4452C102.569 26.501 102.574 26.5581 102.581 26.6139C102.701 27.716 102.789 28.8206 102.851 29.9201C103.307 37.968 102.762 46.8752 100.589 54.6739C98.5128 62.1234 93.7772 68.3359 87.715 73.0543C87.6567 73.101 87.5998 73.1452 87.5403 73.1893C80.2187 78.8306 70.9986 82.3055 62.2068 83.1635C53.881 83.9761 44.2738 81.1814 36.929 77.3236C33.4993 75.5219 31.0519 72.7103 27.8525 70.601C27.2895 70.231 26.7136 69.8806 26.1234 69.5561C25.2498 69.0771 24.3451 68.6552 23.399 68.306C19.5499 66.8821 15.4317 66.4641 11.5269 65.2348C7.48245 63.9615 4.02942 61.6704 1.73991 58.0371C1.73861 58.0333 1.73473 58.0294 1.73214 58.0255C1.22609 57.222 0.85853 56.3354 0.643686 55.4086C0.540146 54.9595 0.448255 54.5077 0.370601 54.0534C0.0457468 52.192 -0.0668521 50.2943 0.0379814 48.3991C0.204938 45.4214 1.36069 42.7085 2.50351 39.9878C2.63164 39.684 2.75977 39.379 2.89049 39.0752C4.09284 36.2403 5.40778 33.3482 7.01911 30.7534C7.31032 30.2576 7.61446 29.7747 7.93543 29.3048C9.06401 27.6459 10.3673 26.1376 11.7741 24.6889C13.8708 22.5316 16.0296 20.408 18.4252 18.5738C22.9551 15.1041 28.1204 12.5236 33.7296 11.4008C50.1937 8.10504 57.268 -6.55384 69.9244 3.43076C70.4058 3.80979 70.8963 4.22517 71.3946 4.67819C73.5262 6.61488 80.541 3.34639 95.3691 12.4042C95.6629 12.5833 95.9593 12.7676 96.257 12.9559C98.3329 14.2656 99.9041 16.1465 100.822 18.2182L100.82 18.2194Z" fill="#452B2B"/>
<path d="M90.1431 61.5726C88.7932 61.6116 87.4135 62.0789 86.4648 63.0719C85.942 63.6197 85.5511 64.2778 85.1861 64.9372C84.8043 65.6278 84.2931 66.2716 83.8168 66.8998C82.894 68.1148 81.8444 69.2052 80.6175 70.1138C79.4682 70.9653 78.2192 71.665 76.9871 72.3867C74.7209 73.7146 72.487 75.1671 71.2601 77.5789C70.7748 78.5317 70.3697 79.5467 70.138 80.5917C70.0616 80.9396 69.9904 81.3445 69.9814 81.7482C80.6123 78.9211 90.8756 72.5035 96.7333 63.2783C94.6354 62.358 92.4261 61.5077 90.1431 61.5739V61.5726Z" fill="#5D5EA3"/>
<path d="M100.821 18.2197C100.825 18.2262 100.826 18.2327 100.83 18.2405C101.086 18.8207 101.289 19.4165 101.439 20.0175C101.601 20.6653 101.746 21.3182 101.878 21.975C102.172 23.4509 102.397 24.9462 102.561 26.4455C102.265 26.1508 101.931 25.8354 101.759 25.6498C101.118 24.9579 100.351 24.4075 99.7102 23.7222C99.2183 23.1965 98.7667 22.5319 98.8133 21.7803C98.8573 21.0819 99.3102 20.4822 99.7619 19.9838C99.8525 19.8838 100.403 18.9337 100.822 18.221L100.821 18.2197Z" fill="#7286E9"/>
<path d="M95.3677 12.4072C95.1011 12.4591 94.8319 12.4993 94.5614 12.5253C93.6775 12.6097 92.7883 12.524 91.9445 12.2462C91.2029 12.0048 90.5079 11.6452 89.8064 11.3103C89.123 10.9845 88.4254 10.686 87.6825 10.5354C86.9591 10.3887 86.2278 10.4303 85.4966 10.4549C84.7174 10.4822 83.9266 10.5016 83.1618 10.3186C82.2817 10.1057 81.6113 9.62806 81.0224 8.94918C80.0841 7.8653 79.2544 6.57764 77.7751 6.21548C76.6776 5.94549 75.5594 6.24144 74.4774 6.44654C73.2569 6.68018 71.9148 6.78273 70.8432 6.02856C70.3669 5.69237 70.0783 4.34629 69.923 3.43506C70.4044 3.81409 70.8949 4.22947 71.3932 4.68248C73.5248 6.61918 80.5396 3.35069 95.3677 12.4085V12.4072Z" fill="#5D5EA3"/>
<path d="M45.8113 33.9404C45.0632 33.6406 44.2323 33.6562 43.4623 33.4381C42.511 33.1694 41.9532 32.362 41.0938 31.9388C39.2146 31.0133 37.3871 32.5139 35.9699 33.5887C35.1273 34.2273 34.1515 34.8958 33.0462 34.8426C32.0704 34.7959 31.2524 34.1689 30.3076 33.9911C29.4223 33.8249 28.5863 34.1546 27.8757 34.6725C27.1121 35.2281 26.3783 35.9823 25.9175 36.813C24.9003 38.6524 25.4438 41.0109 26.6177 42.64C27.7256 44.1782 29.7355 45.497 31.6782 44.8194C31.7766 44.7857 31.7028 44.639 31.6057 44.674C29.7808 45.3101 27.8861 44.0562 26.8209 42.6413C25.7053 41.1602 25.1268 39.0106 25.8865 37.2427C26.2735 36.3418 27.0086 35.5682 27.7644 34.9607C28.5668 34.3169 29.5181 33.9262 30.5457 34.213C31.2873 34.4207 31.959 34.8439 32.7265 34.9698C33.5018 35.097 34.2602 34.8595 34.9345 34.483C36.5782 33.5627 37.9203 31.7753 39.9665 31.8311C40.9941 31.8597 41.5998 32.5191 42.3738 33.085C42.9407 33.5004 43.5813 33.6562 44.2634 33.7652C44.9882 33.882 45.8255 33.9482 46.3859 34.4817C47.1612 35.219 46.9696 36.421 46.4507 37.2427C45.9524 38.0319 45.1875 38.6887 44.4523 39.2495C43.5761 39.9167 42.6184 40.3918 41.5429 40.6332C40.5994 40.8448 39.6015 41.007 38.9441 41.7885C38.2944 42.5608 38.02 43.5512 37.2913 44.2755C35.7447 45.8137 33.3516 46.0772 31.4931 44.9596C31.4038 44.9064 31.3145 45.0427 31.4038 45.0959C32.9828 46.0448 34.9824 46.0668 36.5484 45.0751C37.3276 44.5819 37.9035 43.9017 38.3396 43.0956C38.5817 42.6491 38.8017 42.1753 39.1511 41.7988C39.6171 41.2978 40.2603 41.0901 40.9074 40.9395C41.9946 40.6864 42.9756 40.4281 43.9282 39.8154C44.7591 39.2819 45.5525 38.616 46.1931 37.8606C46.7587 37.1934 47.1806 36.3535 47.046 35.4553C46.9386 34.7387 46.4727 34.2052 45.8113 33.9391V33.9404Z" fill="#E5EAFF"/>
<path d="M27.8525 70.6024C27.2895 70.2324 26.7136 69.882 26.1234 69.5575C25.2498 69.0785 24.3451 68.6566 23.399 68.3074C19.55 66.8835 15.4317 66.4655 11.527 65.2362C7.48245 63.9629 4.02942 61.6718 1.73991 58.0386C1.73862 58.0347 1.73473 58.0308 1.73215 58.0269C1.2261 57.2234 0.858534 56.3368 0.64369 55.41C0.540151 54.9609 0.44826 54.5092 0.370605 54.0548C0.496147 53.7965 0.655338 53.5616 0.849474 53.3643C2.10748 52.0818 3.77575 53.7446 4.48241 54.809C5.25248 55.9682 5.809 57.3688 6.95182 58.2268C8.02474 59.0316 9.19991 58.6149 10.3828 58.3722C11.1154 58.2203 11.8324 58.2281 12.495 58.6175C13.1939 59.029 13.7103 59.6897 14.1387 60.366C14.5412 61.0007 14.8764 61.6744 15.2531 62.3247C15.6219 62.9582 16.0749 63.5488 16.5305 64.1199C17.4429 65.2648 18.5469 66.3539 19.9809 66.7874C21.3994 67.2158 22.8645 67.4092 24.327 67.6363C26.4353 67.9647 27.2934 69.3121 27.8525 70.6011V70.6024Z" fill="#5D5EA3"/>
<path d="M71.7855 27.773C71.7946 27.0305 71.8179 26.3075 71.4141 25.5715C70.7709 24.3954 69.5387 23.6568 68.1824 23.6244C67.1651 23.5997 65.7673 23.9087 65.7777 25.1496C65.7829 25.8246 66.241 26.593 66.4196 27.2459C66.6474 28.0767 66.8053 28.9308 66.782 29.7992C66.7173 32.211 65.2496 34.2736 63.175 35.4587C63.2073 35.3523 63.0585 35.2653 62.9575 35.312C62.8566 35.3588 62.8126 35.4795 62.8022 35.5898C62.7802 35.83 62.8708 36.0636 62.9653 36.283C63.8299 38.3027 65.5188 39.9279 67.886 39.802C71.2782 39.6216 74.6588 36.4725 73.6014 32.9353C73.05 31.0895 71.7597 29.7979 71.7855 27.773Z" fill="#5D5EA3"/>
<path d="M51.7053 53.3618C50.3956 53.184 49.0586 53.9343 47.7786 54.1835C46.3537 54.4613 44.864 54.4457 43.5231 53.9901C42.5059 53.6448 41.1702 52.74 40.096 53.6357C38.8056 54.7131 39.7466 56.6978 40.8583 57.3689C42.9149 58.6111 45.4787 56.8432 47.6906 56.8016C49.012 56.777 50.3283 57.2352 51.651 56.8263C52.5078 56.5615 53.3102 55.8502 53.3438 54.9441C53.3775 54.0472 52.5505 53.4747 51.704 53.3592L51.7053 53.3618Z" fill="#7286E9"/>
<path d="M37.3547 27.6262C36.0203 27.1758 34.7675 27.9598 34.0207 29.0437C33.0488 30.4573 33.0513 32.4316 31.77 33.6414C31.1281 34.2476 30.2933 34.5682 29.6824 35.2237C27.9391 37.0929 27.9663 40.155 29.3226 42.2384C29.7446 42.8874 30.3425 43.4378 31.0647 43.7116C31.4284 43.8492 31.8283 43.9167 32.2088 43.8363C32.5298 43.7688 32.821 43.6 33.1044 43.4352C33.5186 43.1937 33.318 42.2747 33.1898 41.8983C32.8469 40.891 32.8028 39.9369 33.0785 38.9024C33.5613 37.0942 34.7002 35.4703 35.8068 33.9918C36.705 32.7911 38.1481 31.619 38.6218 30.1483C38.9725 29.058 38.4419 27.9936 37.3547 27.6262ZM31.4957 43.478C31.3235 43.4481 31.1579 43.3936 30.9961 43.33C31.0479 43.3054 31.0828 43.256 31.0957 43.2041C31.3973 43.343 31.7144 43.443 32.0405 43.4897C31.8568 43.513 31.6678 43.5079 31.4957 43.478Z" fill="#7286E9"/>
<path d="M89.3418 25.5938C89.6045 24.5761 88.3025 22.9588 87.7304 22.128C86.0803 19.7305 83.6044 17.7523 81.1091 15.9636C77.537 13.4025 73.3152 11.8825 68.3945 11.2672C66.2888 11.0037 63.765 10.9284 61.6541 11.9046C61.2115 12.1097 60.7378 12.4212 60.6977 12.8106C60.6692 13.0845 60.8698 13.3104 61.0859 13.4921C64.0135 15.9467 69.6292 13.8205 72.7173 16.0402C73.7992 16.8177 74.3079 18.0405 75.4235 18.7881C76.7333 19.6669 78.3977 19.2373 79.8886 19.7227C80.5914 19.9512 81.2411 20.2835 81.8792 20.595C84.4508 21.8528 86.7831 23.4066 88.7115 25.2589C88.8927 25.4328 89.048 25.5678 89.3418 25.5938Z" fill="#7286E9"/>
<path d="M88.0788 40.3566C85.8721 40.9952 83.8906 43.2279 84.0977 45.7928C84.3513 48.9393 87.7733 51.6094 90.798 49.4481C92.9296 47.9255 94.2303 45.3411 93.0681 43.0604C92.0094 40.9809 89.813 39.8542 88.0788 40.3566Z" fill="#EB8382"/>
<path d="M62.1964 71.8623C62.1731 71.7702 62.1356 71.678 62.0812 71.5884C61.9544 71.3755 61.7628 71.2094 61.5661 71.0601C60.5191 70.2592 59.2339 69.7854 57.9228 69.6933C56.384 69.5842 55.0781 70.145 53.6466 70.6123C53.0034 70.8226 52.3317 70.9965 51.6483 70.9589C50.9378 70.9186 50.2894 70.6344 49.6241 70.4111C47.3075 69.6349 44.9429 70.7927 42.5641 70.4604C41.2595 70.2787 40.1464 69.7867 38.9726 69.2195C38.5014 68.991 38.0096 68.7743 37.4881 68.6938C36.8319 68.5912 35.9518 68.6107 36.5782 69.4337C37.4829 70.6227 38.7021 71.5625 40.0701 72.1518C41.6154 72.8177 43.263 72.8514 44.9053 73.0682C46.3575 73.259 47.5857 73.921 48.9951 74.2248C50.2428 74.4935 51.5823 74.3948 52.8494 74.4039C54.3028 74.4156 55.7563 74.426 57.2097 74.4377C58.1674 74.4454 59.1536 74.4779 60.0894 74.2365C60.9267 74.0197 62.463 72.9034 62.1964 71.8636V71.8623Z" fill="#7286E9"/>
<path d="M30.0683 21.7838C26.5363 22.8092 23.0691 24.9367 20.4676 27.5432C19.2679 28.7452 18.2713 30.2016 17.861 31.8527C17.8326 31.9657 17.8196 32.1085 17.9154 32.1734C18.028 32.2486 18.1704 32.1409 18.2635 32.0423C19.9137 30.2626 21.7671 28.6102 24.3322 28.5959C25.2253 28.5907 26.0821 28.5661 26.8689 28.0897C27.6727 27.6029 28.2564 26.8397 28.844 26.1218C29.5726 25.2314 30.3 24.3409 31.0286 23.4492C31.382 23.0182 32.3281 21.9551 31.2797 21.6332C30.9937 21.5449 30.6844 21.6137 30.3958 21.6916C30.287 21.7215 30.1783 21.7513 30.0696 21.7825L30.0683 21.7838Z" fill="#5D5EA3"/>
<path d="M95.2745 40.0088C93.6864 39.7777 92.6031 41.4159 92.1372 42.7022C91.824 43.5667 91.6376 44.4715 91.3231 45.3373C90.9996 46.2303 90.5945 47.1234 90.0328 47.8932C88.9133 49.4274 87.1298 50.2245 85.534 51.1474C84.7148 51.6212 83.9084 52.1404 83.2354 52.8115C82.5029 53.5423 81.9645 54.434 81.4339 55.3167C81.1297 55.8229 80.8256 56.3305 80.5214 56.8367C80.3363 57.1457 80.1163 57.4754 80.0878 57.8453C80.0516 58.323 80.537 58.7189 81.0016 58.7085C81.4352 58.6981 81.7898 58.5359 82.1845 58.3723C82.6362 58.1854 83.0659 57.9491 83.4943 57.7155C84.3252 57.2638 85.1354 56.7731 85.9223 56.2487C87.5038 55.196 88.9935 54.0083 90.3706 52.6985C91.7282 51.407 92.9901 49.9986 94.0941 48.4825C95.136 47.052 96.0419 45.4593 96.4276 43.716C96.6878 42.54 96.9259 40.2515 95.2745 40.0127V40.0088ZM96.1377 44.1937C95.6834 45.7669 94.8396 47.1948 93.8754 48.5045C92.8568 49.8857 91.7088 51.1746 90.478 52.3675C89.1061 53.6967 87.6177 54.9065 86.0362 55.9761C85.2519 56.5057 84.4456 57.0003 83.6185 57.4598C83.1992 57.6921 82.7734 57.9167 82.3308 58.1049C82.1056 58.201 81.8765 58.2866 81.6435 58.358C81.298 58.4645 80.9809 58.5592 80.6314 58.4061C80.4088 58.3087 80.2341 58.1088 80.2522 57.8544C80.2665 57.6441 80.3635 57.4416 80.4619 57.2599C80.6767 56.8627 80.9252 56.4824 81.1569 56.0942C81.5969 55.3608 82.0214 54.6119 82.5197 53.9174C83.5215 52.5207 84.9205 51.6679 86.396 50.8475C87.6592 50.1453 88.9676 49.4313 89.9124 48.3085C90.918 47.1143 91.4694 45.5619 91.8874 44.0795C92.3029 42.6062 92.8879 40.5773 94.6196 40.2009C96.9026 39.7037 96.5169 42.8853 96.139 44.195L96.1377 44.1937Z" fill="#E5EAFF"/>
<path d="M66.0856 10.4016C65.8759 10.3342 65.6572 10.2887 65.4242 10.2641C64.9453 10.2134 64.46 10.2147 63.9824 10.277C63.5709 10.3303 63.1658 10.4289 62.7762 10.573C62.1278 10.8144 61.4393 11.5245 62.1601 12.1384C62.5044 12.4318 62.9703 12.4279 63.3936 12.3617C64.0251 12.2618 64.6619 12.0593 65.2987 12.2527C66.0131 12.4694 67.1624 13.491 67.7228 12.4097C68.0955 11.6906 67.2944 11.0533 66.7599 10.7197C66.5399 10.5821 66.3172 10.4782 66.0843 10.4016H66.0856ZM66.6188 12.6953C66.5088 12.6667 66.4001 12.6239 66.2991 12.5733C66.0467 12.4474 65.8164 12.2786 65.5562 12.1683C65.0204 11.9424 64.4095 11.9931 63.8388 12.1099C63.5087 12.1774 63.1748 12.2682 62.8383 12.2358C62.5639 12.2098 62.2753 12.0826 62.12 11.8451C61.9582 11.5985 62.0035 11.3129 62.2016 11.0961C62.3491 10.9351 62.551 10.8378 62.7516 10.7547C63.5903 10.4107 64.5519 10.2654 65.4475 10.4094C65.8203 10.4691 66.1788 10.5912 66.5191 10.7534C66.9152 10.9416 67.2284 11.1623 67.4549 11.5452C67.5791 11.7542 67.6788 11.9606 67.605 12.193C67.5312 12.4253 67.3449 12.6213 67.1119 12.694C66.9514 12.7446 66.7806 12.7355 66.6162 12.694L66.6188 12.6953Z" fill="#E5EAFF"/>
<path d="M21.6248 60.5553C20.8418 60.2685 20.0303 59.9998 19.3547 59.4935C18.6429 58.9587 18.274 58.1539 17.7395 57.466C16.7675 56.2133 14.975 55.9356 14.2632 54.4428C13.6225 53.1006 13.796 51.2587 12.6402 50.1839C12.2804 49.849 11.7718 49.5985 11.2722 49.7309C10.7157 49.8776 10.3856 50.4266 10.3054 50.9679C10.1928 51.7299 10.4322 52.5619 10.638 53.2888C10.8542 54.0547 11.1415 54.7998 11.4896 55.5137C12.217 57.0065 13.2084 58.3681 14.3861 59.5338C16.6303 61.756 19.5087 63.2228 22.545 64.012C22.5489 64.0302 23.0394 64.1328 23.4756 64.2716C23.7551 64.3612 23.9596 64.5403 24.1693 64.4754C24.6805 64.3197 24.753 63.6888 24.6805 63.2397C24.4385 61.7327 22.8932 61.0213 21.6235 60.5566L21.6248 60.5553ZM24.4877 63.929C24.3104 64.3716 23.9739 64.2807 23.7888 64.1873C23.6542 64.1185 23.5092 64.0756 23.3617 64.0432C17.7576 62.801 12.5224 59.1158 10.836 53.3953C10.6302 52.6956 10.4025 51.9103 10.4478 51.1756C10.5034 50.28 11.2515 49.544 12.1393 50.019C13.4582 50.7252 13.4685 52.6087 13.8671 53.8678C14.0535 54.4558 14.3266 55.0101 14.777 55.4397C15.2222 55.8655 15.771 56.1523 16.2951 56.4691C16.9798 56.8818 17.4949 57.3647 17.9414 58.0319C18.3064 58.5771 18.6455 59.1353 19.1632 59.5519C20.416 60.5592 22.1386 60.6514 23.416 61.6106C24.0658 62.0987 24.8319 63.0735 24.489 63.9303L24.4877 63.929Z" fill="#E5EAFF"/>
<path d="M13.3711 44.4788C12.8017 43.7532 11.9772 44.963 11.8064 45.4329C11.532 46.1819 11.6162 47.2281 12.2516 47.7694C12.913 48.312 13.5717 47.7123 13.6222 47.1645C13.6378 46.9983 13.5873 46.8374 13.5342 46.6829C13.3931 46.2688 13.2935 46.0248 13.4009 45.5757C13.485 45.22 13.6261 44.8046 13.3711 44.4801V44.4788ZM13.1912 46.178C13.234 46.4116 13.3582 46.618 13.419 46.8452C13.4721 47.0425 13.4747 47.245 13.3608 47.4254C13.2974 47.5111 13.2236 47.5851 13.1382 47.6487C12.9156 47.8615 12.6347 47.9122 12.2477 47.5383C11.8931 47.1476 11.7805 46.5518 11.8336 46.0352C11.8879 45.5069 12.2374 44.5541 12.856 44.4555C13.7413 44.3127 13.1162 45.7652 13.1912 46.178Z" fill="#E5EAFF"/>
<path d="M55.1118 53.286C54.1036 53.2613 53.3077 54.2024 52.293 54.0492C51.7688 53.909 51.5954 54.7086 52.1933 54.8566C52.6295 54.9656 53.2093 54.7437 53.6377 54.6658C54.1657 54.571 54.7391 54.5256 55.2477 54.3543C55.5118 54.266 55.8366 54.0752 55.8418 53.7546C55.8483 53.3833 55.403 53.2912 55.1118 53.2847V53.286ZM55.3901 54.1219C55.293 54.1725 55.1895 54.2089 55.0821 54.2335C54.8038 54.3075 54.5126 54.3426 54.2292 54.3945C53.9173 54.4503 53.6053 54.5074 53.2934 54.5632C53.1381 54.5918 52.9815 54.6204 52.8262 54.6476C52.7356 54.6645 52.645 54.6801 52.5531 54.6956C52.3862 54.7229 52.038 54.5983 52.0704 54.3724C52.0911 54.2232 52.302 54.2335 52.4082 54.2296C52.8741 54.2115 53.2766 54.0726 53.6972 53.8792C54.1101 53.6897 54.5307 53.482 54.9928 53.4547C55.0691 53.4456 55.1442 53.4456 55.2206 53.4547C55.3396 53.469 55.4496 53.4443 55.5558 53.5248C55.7344 53.6585 55.6787 53.7922 55.6489 53.9168C55.6166 54.0479 55.4923 54.0687 55.3901 54.1219Z" fill="#5D5EA3"/>
<path d="M10.6379 31.1713C10.3803 30.9013 9.03562 29.9901 7.93551 29.3086C7.61454 29.7785 7.3091 30.2601 7.01919 30.7572C5.40657 33.352 4.09291 36.2441 2.89056 39.079C2.91257 39.0816 2.93327 39.0842 2.95528 39.0855C5.78966 40.0993 9.89111 39.1504 11.2151 36.3427C11.9865 34.7059 11.936 32.5394 10.6405 31.1726L10.6379 31.1713Z" fill="#ED875F"/>
<path d="M92.7458 32.8978C92.6111 32.6824 92.3174 32.5811 92.1103 32.7771C91.4981 33.3586 91.5913 34.2361 92.0986 34.854C93.3178 36.339 93.2091 33.6377 92.7458 32.8978Z" fill="#5D5EA3"/>
<path d="M48.1437 62.7257C47.6377 62.4882 46.9957 62.3636 46.7071 62.5077C46.1144 62.8036 46.2904 63.4254 46.8767 63.7278C47.2209 63.9057 47.6247 63.9212 48.0117 63.9018C48.1994 63.8927 48.3935 63.8732 48.5579 63.7797C49.1494 63.4422 48.7417 63.0048 48.1437 62.7244V62.7257Z" fill="#EB8382"/>
<path d="M18.2144 33.9261C18.1704 33.9079 18.129 33.9014 18.0901 33.8988C17.9905 33.8482 17.8598 33.856 17.7756 33.9715C17.6268 34.1766 17.553 34.4181 17.5478 34.6621C17.5168 34.8023 17.4987 34.9295 17.4909 35.0126C17.478 35.158 17.5763 35.2423 17.6863 35.2605C17.764 35.3695 17.9516 35.4137 18.0487 35.302C18.217 35.1112 18.3386 34.8983 18.393 34.6478C18.4435 34.4142 18.4836 34.0377 18.2131 33.9261H18.2144Z" fill="#5D5EA3"/>
<path d="M22.4957 46.5704C22.4957 46.5704 22.4905 46.5652 22.4879 46.5613C22.484 46.5561 22.4802 46.5509 22.475 46.5471C22.4569 46.5276 22.4374 46.5133 22.4167 46.5016C22.4077 46.4964 22.3986 46.4925 22.3896 46.4873C22.374 46.4808 22.3572 46.4744 22.3404 46.4705C22.3352 46.4705 22.3287 46.4692 22.3236 46.4679C22.1928 46.4458 22.0518 46.5146 22.0505 46.6846C22.0466 47.2337 22.2433 47.7452 22.6316 48.1359C22.7649 48.2709 23.0652 48.2125 23.0561 47.9879C23.0367 47.4531 22.8516 46.9689 22.4944 46.5704H22.4957Z" fill="#5D5EA3"/>
<path d="M31.5554 16.5798C31.5476 16.5824 31.5411 16.585 31.5346 16.5876C31.4945 16.5837 31.4505 16.5876 31.4052 16.6097C31.1619 16.7226 30.9613 16.8966 30.8099 17.1172C30.6947 17.2834 30.8578 17.5456 31.0622 17.4911C31.3729 17.4067 31.633 17.2263 31.809 16.9537C31.9139 16.7914 31.765 16.5136 31.5566 16.5798H31.5554Z" fill="#5D5EA3"/>
<path d="M21.3024 43.0702C21.2726 43.1779 21.2558 43.2843 21.2519 43.3908C21.2248 43.6426 21.2662 43.8918 21.3891 44.1229C21.4875 44.3098 21.7696 44.2942 21.8382 44.0904C21.9573 43.7413 21.9275 43.3622 21.7515 43.0377C21.6557 42.8612 21.3607 42.8573 21.3024 43.0702Z" fill="#5D5EA3"/>
<path d="M28.1293 64.4663C28.0258 64.195 27.7177 63.9458 27.2363 64.1041C26.8377 64.2352 27.4369 64.8025 27.5948 64.883C28.0892 65.1322 28.251 64.7856 28.1293 64.4676V64.4663Z" fill="#5D5EA3"/>
<path d="M6.50273 54.721C6.37848 54.6418 6.17658 54.6924 6.13775 54.8495C6.09763 55.0144 6.10022 55.174 6.14164 55.3246C6.1261 55.4025 6.13516 55.483 6.17529 55.5556C6.21023 55.618 6.26588 55.6647 6.32283 55.7062C6.3513 55.727 6.40048 55.7426 6.41601 55.7737C6.50661 55.9658 6.8004 55.9399 6.86512 55.7413C6.98936 55.3596 6.84053 54.9365 6.50143 54.721H6.50273Z" fill="#5D5EA3"/>
<path d="M5.16196 45.0176C5.07136 44.8852 4.85134 44.9293 4.77627 45.0474C4.54719 45.4083 4.52907 45.8457 4.69733 46.2195C4.70509 46.361 4.78275 46.4831 4.90829 46.5428C4.96912 46.5921 5.03771 46.5986 5.10113 46.5791C5.28103 46.5609 5.36515 46.3909 5.40527 46.2169C5.50493 45.7899 5.40527 45.3758 5.16196 45.0188V45.0176Z" fill="#5D5EA3"/>
<path d="M71.4814 47.7592C71.1954 47.8994 70.9586 48.1174 70.7994 48.3939C70.7088 48.551 70.7994 48.7587 70.9883 48.7717C71.0129 48.773 71.0375 48.7717 71.0621 48.7717C71.0854 48.7717 71.1087 48.7717 71.1333 48.7652C71.3352 48.7353 71.519 48.6185 71.6147 48.4303C71.6212 48.4173 71.6277 48.403 71.6329 48.3887C71.7105 48.2888 71.7739 48.1772 71.8218 48.0551C71.9008 47.8526 71.6639 47.6696 71.4814 47.7592Z" fill="#5D5EA3"/>
<path d="M76.6286 35.7325C76.5341 35.604 76.3205 35.6403 76.2429 35.7623C75.9763 36.179 76.0099 36.6827 76.2973 37.076C76.3128 37.0967 76.3283 37.1123 76.3464 37.1253C76.3749 37.1707 76.406 37.2149 76.4422 37.2564C76.5652 37.3992 76.7955 37.3395 76.8551 37.1694C77.0311 36.6723 76.9379 36.1531 76.6286 35.7312V35.7325Z" fill="#5D5EA3"/>
<path d="M65.111 20.7898C64.8521 20.4926 64.4289 20.4575 64.1002 20.6717C63.9992 20.7379 63.9216 20.8547 63.9384 20.9741C63.9539 21.0858 64.0445 21.1714 64.139 21.2338C64.5441 21.5025 65.6921 21.4583 65.1097 20.7898H65.111Z" fill="#5D5EA3"/>
<path d="M67.2659 21.7293C67.1106 21.7553 66.9592 21.85 66.9126 21.9993C66.8479 22.2083 67.0084 22.4238 67.1922 22.5432C67.3604 22.6522 67.561 22.7197 67.7603 22.699C68.1033 22.6626 68.3932 22.3381 68.159 22.024C67.9894 21.7981 67.5572 21.693 67.2892 21.7241C67.2815 21.7241 67.2737 21.7267 67.2659 21.7267V21.7293Z" fill="#5D5EA3"/>
<path d="M72.7756 20.7443C72.6423 20.66 72.5089 20.5743 72.3756 20.4899C72.2643 20.4185 72.1103 20.4497 72.0378 20.5613C71.9667 20.6717 71.9977 20.8287 72.109 20.9001C72.2423 20.9845 72.3756 21.0702 72.509 21.1545C72.6203 21.2259 72.7743 21.1948 72.8467 21.0831C72.9179 20.9728 72.8869 20.8157 72.7756 20.7443Z" fill="#5D5EA3"/>
<path d="M91.1084 16.8836C91.023 16.7746 90.9376 16.6656 90.8509 16.5578C90.7693 16.454 90.5998 16.4553 90.5066 16.5397C90.4031 16.6331 90.4069 16.7811 90.4885 16.8849C90.5739 16.994 90.6593 17.103 90.746 17.2108C90.8276 17.3146 90.9971 17.3133 91.0903 17.2289C91.1938 17.1355 91.19 16.9875 91.1084 16.8836Z" fill="#5D5EA3"/>
<path d="M99.1041 24.4408C99.2245 24.7731 99.3462 25.1067 99.4665 25.439C99.5739 25.7349 100.009 25.513 99.9027 25.2196L99.5403 24.2214C99.4329 23.9254 98.998 24.1474 99.1041 24.4408Z" fill="#5D5EA3"/>
<path d="M73.8977 57.1466C73.7812 57.0713 73.6389 57.1116 73.5599 57.218C73.4952 57.305 73.4046 57.3621 73.2998 57.3868C73.1716 57.4166 73.081 57.5412 73.1082 57.6749C73.1328 57.8008 73.2661 57.8982 73.3955 57.867C73.6324 57.8112 73.8252 57.6814 73.9689 57.4854C74.0479 57.379 74.0025 57.2154 73.8977 57.1466Z" fill="#5D5EA3"/>
<path d="M58.9416 63.4242C58.7966 63.4359 58.6504 63.4489 58.5054 63.4606C58.3786 63.4709 58.2841 63.6293 58.3139 63.7487C58.3488 63.8889 58.464 63.9525 58.6012 63.9408C58.7461 63.9292 58.8924 63.9162 59.0373 63.9045C59.1642 63.8941 59.2587 63.7357 59.2289 63.6163C59.194 63.4761 59.0788 63.4125 58.9416 63.4242Z" fill="#5D5EA3"/>
<path d="M50.8627 67.3914C50.8057 67.3278 50.719 67.2888 50.6375 67.3148C50.3424 67.4095 50.0434 67.4576 49.7341 67.4511C49.681 67.4511 49.637 67.4641 49.5995 67.4861C49.3238 67.4926 49.3083 67.9404 49.606 67.9755C50.0188 68.0222 50.433 67.9885 50.8316 67.8729C51.084 67.8003 51.0568 67.4498 50.864 67.3914H50.8627Z" fill="#5D5EA3"/>
<path d="M53.5858 66.5682C53.248 66.7226 52.8985 66.8109 52.5297 66.8447C52.2165 66.8732 52.3148 67.3535 52.6241 67.3249C53.0357 67.2873 53.4279 67.177 53.8045 67.0056C54.0905 66.8745 53.8718 66.4371 53.5858 66.5682Z" fill="#5D5EA3"/>
<path d="M51.3314 65.8203C51.0427 65.9241 50.7399 65.9566 50.4345 65.9319C50.12 65.9072 50.0902 66.3953 50.4034 66.42C50.7994 66.4511 51.1773 66.3914 51.5501 66.2564C51.8452 66.15 51.6239 65.7138 51.3314 65.819V65.8203Z" fill="#5D5EA3"/>
<path d="M75.5024 66.312L74.7026 66.7144C74.4217 66.8559 74.6405 67.2933 74.9213 67.1518L75.7211 66.7494C76.002 66.6079 75.7833 66.1705 75.5024 66.312Z" fill="#5D5EA3"/>
<path d="M31.0376 53.8187C30.7283 53.8784 30.824 54.3587 31.1321 54.299C31.1761 54.2912 31.2162 54.2938 31.2563 54.3171C31.2951 54.3392 31.2887 54.3392 31.3107 54.36C31.3158 54.3664 31.3223 54.3729 31.3275 54.3794C31.3314 54.3859 31.3521 54.4352 31.343 54.4041C31.3831 54.53 31.4906 54.6248 31.6303 54.5962C31.7481 54.5728 31.862 54.4352 31.8219 54.308C31.7145 53.9718 31.3948 53.7499 31.0376 53.8187Z" fill="#5D5EA3"/>
<path d="M13.3339 63.9379C13.2368 63.8652 13.1397 63.7925 13.0427 63.7198C12.9378 63.6406 12.7735 63.6861 12.7049 63.7912C12.6285 63.908 12.6699 64.0508 12.7761 64.13C12.8731 64.2027 12.9702 64.2754 13.0673 64.3481C13.1721 64.4273 13.3365 64.3818 13.4051 64.2767C13.4814 64.1599 13.44 64.0171 13.3339 63.9379Z" fill="#5D5EA3"/>
<path d="M2.37418 50.9046C2.21887 50.7515 1.97814 50.8073 1.90696 51.015C1.88108 51.0902 1.88366 51.1759 1.9199 51.2473C1.97944 51.3628 2.09204 51.3953 2.2124 51.3849C2.30947 51.3771 2.38712 51.2824 2.40524 51.185C2.45184 51.0967 2.44795 50.9773 2.37418 50.9046Z" fill="#5D5EA3"/>
<path d="M57.5993 8.96874C57.4362 8.75067 56.9897 8.55466 56.6493 8.65851C56.5755 8.68057 56.5212 8.7273 56.4875 8.78312C56.0346 9.03105 57.0376 9.42435 57.2486 9.3932C57.6795 9.3309 57.73 9.14268 57.5993 8.96744V8.96874Z" fill="#EB8382"/>
<path d="M87.7135 73.0539C87.6553 73.1006 87.5984 73.1448 87.5388 73.1889C86.5798 73.0137 85.6298 72.8267 84.7044 72.4854C83.405 72.0064 82.1017 71.3859 80.6832 71.4884C79.235 71.5936 77.9433 72.3815 76.9235 73.3797C75.892 74.3896 75.2215 75.6072 74.4851 76.8312C73.86 77.8697 73.0951 78.9652 71.9031 79.3884C70.7318 79.8012 69.5165 79.404 68.3711 79.1002C66.9462 78.7199 65.5212 78.6667 64.1092 79.1469C62.1432 79.8128 60.6523 81.3744 59.9845 83.2735C59.9262 83.2735 59.8693 83.2735 59.8123 83.2735C60.5177 81.2186 62.1665 79.5481 64.3163 78.9107C65.6403 78.5148 66.9772 78.5693 68.3012 78.9159C69.7482 79.2936 71.2663 79.7895 72.6111 78.8354C73.8419 77.9631 74.4553 76.4782 75.2319 75.2385C75.9618 74.0794 76.8963 73.0124 78.0469 72.2608C79.1729 71.5248 80.4982 71.1626 81.8364 71.3846C83.2135 71.6118 84.4521 72.3049 85.7903 72.6697C86.3986 72.8358 87.0522 72.9436 87.7122 73.0552L87.7135 73.0539Z" fill="#E5EAFF"/>
<path d="M53.7034 8.9254C53.4058 8.73588 53.0136 8.76834 52.756 9.01237C52.6952 9.07078 52.6874 9.16554 52.7353 9.23044C52.7379 9.29015 52.769 9.34727 52.8428 9.37063C53.1508 9.47188 53.4834 9.40178 53.7241 9.18371C53.8018 9.11362 53.7927 8.98251 53.7034 8.9254Z" fill="#5D5EA3"/>
<path d="M20.7379 31.8633C20.3277 31.9788 20.0352 32.3215 19.9976 32.7498C19.9911 32.816 20.0222 32.8615 20.0636 32.8887C20.0701 32.916 20.0753 32.9433 20.0856 32.9718C20.1128 33.0497 20.2371 33.0886 20.3044 33.0445C20.6616 32.8134 20.8868 32.4591 20.9334 32.0333C20.9437 31.9347 20.8389 31.8347 20.7392 31.862L20.7379 31.8633Z" fill="#FADAC3"/>
<path d="M6.07683 42.0566C6.01083 41.9463 5.87364 41.9398 5.79469 42.041C5.50996 42.4097 5.48666 42.9354 5.74163 43.3248C5.80116 43.4169 5.91117 43.4182 5.98365 43.3741C6.05871 43.3858 6.13507 43.3378 6.16484 43.2651C6.32662 42.8705 6.29427 42.4226 6.07554 42.0566H6.07683Z" fill="#FADAC3"/>
<path d="M38.4342 72.79C38.0653 72.52 37.6382 72.359 37.184 72.311C37.0429 72.2954 36.9575 72.481 37.0533 72.5836C37.1154 72.6511 37.184 72.7108 37.2564 72.7653C37.2629 72.8042 37.2823 72.8406 37.3238 72.8691C37.6344 73.082 38.0071 73.1586 38.3773 73.0872C38.5222 73.0587 38.5455 72.8717 38.4342 72.79Z" fill="#5D5EA3"/>
<path d="M34.5735 65.8865C34.369 65.7008 34.105 65.5931 33.8254 65.5918C33.7154 65.5918 33.5976 65.7164 33.6701 65.828C33.683 65.8475 33.6986 65.8657 33.7128 65.8852C33.6986 65.9578 33.7232 66.0409 33.8086 66.0786C33.9082 66.1227 34.0105 66.1551 34.1153 66.1811C34.2059 66.2123 34.303 66.2291 34.4013 66.2265C34.4402 66.2291 34.479 66.2343 34.5178 66.2343C34.6278 66.2369 34.7081 66.1318 34.6848 66.0331C34.6796 65.9669 34.6408 65.9033 34.5722 65.8878L34.5735 65.8865Z" fill="#5D5EA3"/>
<path d="M33.0179 64.4375C32.8471 64.3389 32.4368 64.2272 32.42 64.5478C32.4174 64.5972 32.4316 64.6413 32.4536 64.6841C32.4355 64.7451 32.4472 64.8165 32.5106 64.8672C32.6814 65.0022 33.0089 65.1618 33.2185 65.0294C33.4955 64.8555 33.1965 64.5401 33.0166 64.4375H33.0179Z" fill="#5D5EA3"/>
<path d="M50.7373 77.8422C50.6467 77.7825 50.5458 77.7397 50.4422 77.715C50.2805 77.6346 50.085 77.6281 49.9129 77.7021C49.8119 77.7449 49.8003 77.8825 49.8663 77.9578C49.8844 77.9902 49.9116 78.0175 49.9517 78.0356C50.0229 78.0681 50.0954 78.0889 50.1679 78.1057C50.3322 78.1564 50.5069 78.1707 50.6804 78.1395C50.8202 78.1135 50.8551 77.9201 50.7373 77.8422Z" fill="#FADAC3"/>
<path d="M38.1597 62.1996C37.9733 62.0269 37.7403 61.949 37.4893 61.9789C37.3534 61.9945 37.3352 62.1567 37.3999 62.2476C37.4828 62.3631 37.6122 62.4423 37.752 62.4735C37.8788 62.541 38.0315 62.5345 38.148 62.4293C38.2088 62.3748 38.2244 62.2593 38.1597 62.1983V62.1996Z" fill="#FADAC3"/>
<path d="M33.1123 69.635C33.1045 69.6324 33.0968 69.6272 33.089 69.6246C33.0049 69.5181 32.8923 69.4364 32.7602 69.3935C32.6062 69.3429 32.4794 69.5363 32.5881 69.657C32.6192 69.6921 32.6528 69.7232 32.6878 69.7544C32.6955 69.7907 32.715 69.8258 32.7538 69.8517C32.8172 69.8946 32.8793 69.9361 32.9427 69.9789C33.0372 70.0426 33.1382 69.9893 33.1744 69.9037C33.2391 69.8258 33.2365 69.683 33.111 69.635H33.1123Z" fill="#FADAC3"/>
<path d="M69.672 54.8453C69.2527 54.7869 68.8411 54.992 68.6302 55.3593C68.6146 55.3853 68.6081 55.4164 68.6081 55.4476C68.5525 55.5579 68.625 55.7241 68.7764 55.6838C68.9317 55.6423 69.078 55.5865 69.2177 55.5164C69.3109 55.4775 69.3976 55.4255 69.4792 55.3632C69.5814 55.2944 69.6785 55.2165 69.7691 55.1296C69.8752 55.0283 69.8079 54.8648 69.6707 54.8453H69.672Z" fill="#5D5EA3"/>
<path d="M84.4951 50.0245C84.1884 50.1932 83.9437 50.4399 83.7897 50.7566C83.7185 50.902 83.8415 51.0551 83.9994 50.9915C84.2764 50.8786 84.5016 50.6943 84.675 50.4515C84.7099 50.4035 84.7099 50.3542 84.6931 50.3126C84.7035 50.2828 84.7151 50.2529 84.7229 50.2231C84.7578 50.0933 84.6258 49.9544 84.4951 50.0258V50.0245Z" fill="#FADAC3"/>
<path d="M85.925 59.1301C85.683 58.6667 85.1356 59.2573 84.9065 59.5727C84.8961 59.5766 84.8871 59.5818 84.8767 59.5857C84.777 59.622 84.7667 59.7155 84.8055 59.7895C84.8133 59.8778 84.8961 59.9491 84.9971 59.9375C85.3711 59.8933 85.6947 59.6843 85.8979 59.3663C85.9173 59.3365 85.9225 59.3066 85.9212 59.2781C85.9445 59.2326 85.9483 59.1781 85.9237 59.1314L85.925 59.1301Z" fill="#FADAC3"/>
<path d="M93.3553 30.9053C93.2402 30.8455 93.0719 30.9247 93.1069 31.074C93.1625 31.3089 93.2376 31.5335 93.3308 31.7529C93.3411 31.7788 93.3528 31.8035 93.3644 31.8295C93.4252 31.9658 93.4925 32.1008 93.5689 32.2319C93.6453 32.3617 93.8743 32.3422 93.8769 32.1696C93.8769 32.1319 93.8769 32.0943 93.8743 32.0579C93.9766 31.6049 93.7773 31.1233 93.3553 30.9065V30.9053Z" fill="#FADAC3"/>
<path d="M94.8823 32.0761C94.6506 32.0424 94.5781 32.3111 94.5755 32.4902C94.5742 32.5668 94.5872 32.6421 94.6066 32.7148C94.5885 32.8952 94.6687 33.0769 94.8408 33.1613C94.9211 33.2015 95.0104 33.1938 95.066 33.1133C95.1903 32.9342 95.1968 32.7226 95.1618 32.5136C95.1333 32.3474 95.0855 32.1047 94.8836 32.0748L94.8823 32.0761Z" fill="#FADAC3"/>
<path d="M73.4227 20.4102C73.3088 20.3998 73.2 20.54 73.2673 20.6465C73.3075 20.7101 73.3528 20.7685 73.3994 20.8256C73.4019 20.8295 73.4058 20.8334 73.4084 20.8373C73.5793 21.0372 73.7928 21.1864 74.0491 21.2773C74.1254 21.3046 74.1863 21.2747 74.2225 21.2241C74.2665 21.1774 74.2859 21.106 74.26 21.0359C74.1267 20.6815 73.7967 20.444 73.4239 20.4102H73.4227Z" fill="#FADAC3"/>
<path d="M64.3825 6.32783C64.3528 6.30707 64.3204 6.29149 64.2893 6.27332C64.1314 6.13443 63.9516 6.02409 63.7497 5.96308C63.5762 5.91116 63.2061 5.83977 63.2048 6.12923C63.2048 6.34601 63.4934 6.47971 63.6616 6.54721C63.6772 6.5537 63.694 6.55759 63.7095 6.56278C63.7315 6.57057 63.7548 6.57836 63.7781 6.58485C63.9554 6.63547 64.1418 6.64716 64.3256 6.62509C64.4718 6.60692 64.4938 6.40312 64.3825 6.32783Z" fill="#FADAC3"/>
<path d="M60.7664 17.9477C60.7457 17.936 60.725 17.9256 60.7043 17.9152C60.6927 17.8984 60.6784 17.8841 60.6603 17.8711C60.5037 17.7711 60.3121 17.727 60.1284 17.7672C59.9627 17.8036 59.7737 17.9152 59.8113 18.1125C59.8462 18.2969 60.0455 18.3812 60.2125 18.3929C60.4234 18.4072 60.6215 18.3332 60.7858 18.2047C60.8674 18.1411 60.8505 17.9983 60.7651 17.9464L60.7664 17.9477Z" fill="#FADAC3"/>
<path d="M49.1413 50.996C48.9627 50.7558 48.6353 50.6481 48.3505 50.7403C48.3091 50.7532 48.2677 50.7844 48.2418 50.8246C48.2237 50.8285 48.2069 50.8311 48.1887 50.835C48.0464 50.8714 48.0179 51.0453 48.1318 51.1323C48.1266 51.2024 48.1538 51.2751 48.2353 51.3075C48.524 51.4217 48.8268 51.414 49.1167 51.3101C49.2177 51.2738 49.2216 51.1595 49.1763 51.0804C49.1711 51.0505 49.1594 51.0206 49.1413 50.9973V50.996Z" fill="#FADAC3"/>
<path d="M23.0988 20.3822C23.0626 20.3406 23.0056 20.316 22.9474 20.3302C22.8736 20.3484 22.8037 20.3718 22.7351 20.3977C22.5863 20.4302 22.4452 20.4938 22.3184 20.5886C22.2433 20.6457 22.1527 20.73 22.0945 20.8248C22.0608 20.8611 22.0272 20.8988 21.9961 20.9377C21.9029 21.052 22.0117 21.1714 22.1294 21.1766C22.2809 21.3103 22.5255 21.2181 22.673 21.126C22.708 21.1039 22.739 21.0779 22.7714 21.052C22.937 20.9468 23.0768 20.8014 23.1739 20.621C23.2218 20.5327 23.1907 20.4159 23.0988 20.3809V20.3822Z" fill="#FADAC3"/>
<path d="M61.293 54.6338C61.2128 54.4807 61.0523 54.4651 60.875 54.4859C60.7261 54.5027 60.5838 54.5313 60.4518 54.5858C60.3301 54.6196 60.2084 54.6741 60.1515 54.7909C60.0881 54.9194 60.1321 55.0661 60.2486 55.1466C60.3314 55.205 60.4298 55.2193 60.5346 55.2076C60.6925 55.2271 60.8517 55.2089 60.9992 55.1479C61.1325 55.0921 61.328 54.9804 61.35 54.8221C61.3616 54.739 61.3383 54.6793 61.2943 54.6351L61.293 54.6338Z" fill="#5D5EA3"/>
<path d="M95.8388 17.722C95.7858 17.7051 95.7275 17.722 95.6848 17.7544C95.6421 17.7817 95.6175 17.8271 95.6266 17.8855C95.6304 18.2568 95.8052 18.5904 96.1171 18.7955C96.2245 18.8656 96.3526 18.7877 96.3682 18.6696C96.394 18.4787 96.3552 18.2879 96.2685 18.1218C96.1934 17.9375 96.0459 17.7856 95.8401 17.722H95.8388Z" fill="#FADAC3"/>
<path d="M101.584 34.1336C101.536 34.1336 101.488 34.157 101.449 34.2037C101.44 34.2154 101.434 34.2284 101.425 34.24C101.363 34.2374 101.301 34.2686 101.279 34.3491C101.253 34.4464 101.242 34.5412 101.246 34.6333C101.235 34.6892 101.227 34.7463 101.225 34.8034C101.219 34.9864 101.25 35.2941 101.487 35.3031C101.708 35.3122 101.804 35.0578 101.842 34.8813C101.889 34.6554 101.861 34.4309 101.774 34.218C101.746 34.1479 101.655 34.1141 101.583 34.1323L101.584 34.1336Z" fill="#FADAC3"/>
<path d="M77.9537 7.88702C77.8567 7.88053 77.7531 7.97918 77.7842 8.08173C77.801 8.13884 77.8256 8.19206 77.8528 8.24269C77.8567 8.27254 77.8683 8.3037 77.8916 8.33355C77.9356 8.38807 77.9861 8.4361 78.0404 8.47893C78.1259 8.55292 78.2281 8.60614 78.3394 8.63859C78.3549 8.64379 78.3705 8.64768 78.386 8.65287C78.4404 8.66715 78.4947 8.68013 78.5504 8.68532C78.6863 8.6996 78.7445 8.55811 78.7057 8.44908C78.5931 8.12846 78.2889 7.91298 77.9537 7.88832V7.88702Z" fill="#FADAC3"/>
<path d="M81.1324 35.4626C80.9836 35.5379 81.0988 35.7702 81.2489 35.6949C81.3991 35.6196 81.2826 35.3873 81.1324 35.4626Z" fill="#E5EAFF"/>
<path d="M80.9719 34.4543C80.8231 34.5296 80.9383 34.7619 81.0884 34.6866C81.2385 34.6113 81.122 34.379 80.9719 34.4543Z" fill="#E5EAFF"/>
<path d="M82.1225 34.9826C81.9737 35.0579 82.0889 35.2902 82.239 35.2149C82.3892 35.1397 82.2727 34.9073 82.1225 34.9826Z" fill="#E5EAFF"/>
<path d="M78.0392 30.973L78.047 30.9873C78.1221 31.1365 78.3538 31.021 78.2787 30.8704L78.2709 30.8562C78.1959 30.7069 77.9642 30.8224 78.0392 30.973Z" fill="#E5EAFF"/>
<path d="M73.9702 27.6461C73.8951 27.6838 73.9534 27.7993 74.0284 27.7616C74.1035 27.724 74.0453 27.6085 73.9702 27.6461Z" fill="#E5EAFF"/>
<path d="M74.4658 23.6398C74.317 23.7151 74.4322 23.9475 74.5823 23.8722C74.7324 23.7969 74.6159 23.5645 74.4658 23.6398Z" fill="#E5EAFF"/>
<path d="M75.5142 23.2034L75.5219 23.2177C75.597 23.367 75.8287 23.2515 75.7536 23.1009L75.7458 23.0866C75.6708 22.9373 75.4391 23.0529 75.5142 23.2034Z" fill="#E5EAFF"/>
<path d="M77.5111 10.7111L77.4969 10.7189C77.348 10.7942 77.4632 11.0265 77.6134 10.9512L77.6276 10.9435C77.7764 10.8682 77.6613 10.6358 77.5111 10.7111Z" fill="#E5EAFF"/>
<path d="M78.4029 11.3955C78.4003 11.4033 78.3977 11.4098 78.3951 11.4176C78.3421 11.576 78.588 11.6577 78.6411 11.4994C78.6436 11.4916 78.6462 11.4851 78.6488 11.4773C78.7019 11.319 78.456 11.2372 78.4029 11.3955Z" fill="#E5EAFF"/>
<path d="M78.9373 10.776L78.9231 10.7838C78.7742 10.8591 78.8894 11.0915 79.0396 11.0162L79.0538 11.0084C79.2026 10.9331 79.0875 10.7008 78.9373 10.776Z" fill="#E5EAFF"/>
<path d="M68.3 8.7174C68.225 8.75505 68.2832 8.87057 68.3583 8.83293C68.4333 8.79528 68.3751 8.67976 68.3 8.7174Z" fill="#E5EAFF"/>
<path d="M68.0943 6.13488C68.0192 6.17253 68.0775 6.28805 68.1525 6.25041C68.2276 6.21277 68.1693 6.09724 68.0943 6.13488Z" fill="#E5EAFF"/>
<path d="M58.4999 10.7868C58.351 10.8621 58.4662 11.0944 58.6163 11.0191C58.7665 10.9439 58.65 10.7115 58.4999 10.7868Z" fill="#E5EAFF"/>
<path d="M54.9072 10.4739C54.9085 10.4505 54.8982 10.431 54.8813 10.4194C54.8477 10.3752 54.792 10.3506 54.7286 10.383C54.5811 10.457 54.6924 10.6829 54.8386 10.6167C54.8542 10.6089 54.8593 10.605 54.8645 10.5998C54.9072 10.5673 54.9189 10.5193 54.9085 10.4739H54.9072Z" fill="#E5EAFF"/>
<path d="M62.0697 21.867L62.0775 21.8813C62.1525 22.0306 62.3842 21.915 62.3091 21.7645L62.3014 21.7502C62.2263 21.6009 61.9946 21.7164 62.0697 21.867Z" fill="#E5EAFF"/>
<path d="M61.8366 20.3143C61.7783 20.3403 61.7511 20.3896 61.7447 20.4506C61.7291 20.5947 61.9207 20.6258 61.9841 20.5233C62.0812 20.4376 61.975 20.252 61.8366 20.3143Z" fill="#E5EAFF"/>
<path d="M64.0227 25.7492C63.9217 25.7998 63.9437 25.9205 64.0123 25.9712C64.0343 26.0166 64.0835 26.0127 64.1133 25.988C64.1211 25.9854 64.1301 25.9854 64.1379 25.9815C64.2867 25.9063 64.1715 25.6739 64.0214 25.7492H64.0227Z" fill="#E5EAFF"/>
<path d="M33.1847 18.7671C33.1821 18.7749 33.1795 18.7814 33.1769 18.7892C33.1239 18.9475 33.3698 19.0293 33.4229 18.871C33.4254 18.8632 33.428 18.8567 33.4306 18.8489C33.4837 18.6905 33.2378 18.6088 33.1847 18.7671Z" fill="#E5EAFF"/>
<path d="M33.0823 16.9797C32.9335 17.0549 33.0487 17.2873 33.1988 17.212C33.3489 17.1367 33.2325 16.9044 33.0823 16.9797Z" fill="#E5EAFF"/>
<path d="M30.7112 19.2966C30.5624 19.3718 30.6776 19.6042 30.8277 19.5289C30.9778 19.4536 30.8614 19.2213 30.7112 19.2966Z" fill="#E5EAFF"/>
<path d="M21.9016 22.9611L21.9301 23.0196C21.9677 23.0948 22.0828 23.0364 22.0453 22.9611L22.0168 22.9027C21.9793 22.8274 21.8641 22.8859 21.9016 22.9611Z" fill="#E5EAFF"/>
<path d="M14.9749 29.2448C14.9697 29.2591 14.9658 29.2734 14.9606 29.289C14.9516 29.3162 14.9542 29.3409 14.9606 29.363C14.9244 29.4097 14.9762 29.4941 15.0409 29.4616L15.059 29.4525C15.1172 29.4655 15.1819 29.4447 15.2065 29.372C15.2117 29.3578 15.2156 29.3435 15.2208 29.3279C15.2738 29.1695 15.0279 29.0878 14.9749 29.2461V29.2448Z" fill="#E5EAFF"/>
<path d="M15.4601 30.0837L15.4316 30.0979C15.3967 30.1161 15.3773 30.1421 15.3682 30.1719C15.3449 30.1979 15.3527 30.2381 15.3747 30.2615C15.4006 30.3238 15.4692 30.3692 15.5468 30.3303L15.5753 30.316C15.7241 30.2407 15.609 30.0084 15.4588 30.0837H15.4601Z" fill="#E5EAFF"/>
<path d="M16.2987 29.3722L16.2703 29.3865C16.1214 29.4618 16.2366 29.6942 16.3867 29.6189L16.4152 29.6046C16.564 29.5293 16.4489 29.297 16.2987 29.3722Z" fill="#E5EAFF"/>
<path d="M12.3475 28.4167L12.376 28.4751C12.4135 28.5504 12.5287 28.492 12.4912 28.4167L12.4627 28.3583C12.4252 28.283 12.31 28.3414 12.3475 28.4167Z" fill="#E5EAFF"/>
<path d="M12.6413 38.3809C12.6323 38.4095 12.6219 38.4393 12.6129 38.4679C12.587 38.5471 12.7099 38.5886 12.7358 38.5094L12.7643 38.4224C12.7902 38.3433 12.6672 38.3017 12.6413 38.3809Z" fill="#E5EAFF"/>
<path d="M8.36375 40.4366C8.28868 40.4743 8.34692 40.5898 8.42199 40.5522C8.49705 40.5145 8.43881 40.399 8.36375 40.4366Z" fill="#E5EAFF"/>
<path d="M3.18424 41.0803L3.21271 41.1387C3.25024 41.214 3.36543 41.1556 3.3279 41.0803L3.29943 41.0219C3.26189 40.9466 3.14671 41.005 3.18424 41.0803Z" fill="#E5EAFF"/>
<path d="M20.0832 38.975L20.025 39.0035C20.025 39.0035 20.0159 39.01 20.012 39.0139C20.0069 39.0152 20.0017 39.0152 19.9965 39.0178C19.8477 39.0931 19.9629 39.3254 20.113 39.2501C20.1894 39.2112 20.1958 39.132 20.1635 39.0736C20.201 39.0269 20.1492 38.9412 20.0832 38.975Z" fill="#E5EAFF"/>
<path d="M20.7793 39.2194C20.7702 39.1921 20.7469 39.1688 20.7158 39.1714C20.6227 39.1454 20.5036 39.2389 20.5605 39.3531L20.5748 39.3816C20.6498 39.5309 20.8815 39.4154 20.8064 39.2648L20.7922 39.2363C20.7883 39.2298 20.7831 39.2259 20.7793 39.2194Z" fill="#E5EAFF"/>
<path d="M20.8466 37.5762L20.8337 37.5827C20.7871 37.606 20.7923 37.6605 20.8221 37.6891C20.8389 37.8059 21.0278 37.8475 21.0731 37.7112C21.0783 37.6969 21.0822 37.6826 21.0874 37.667C21.1391 37.5113 20.9062 37.4321 20.8466 37.5762Z" fill="#E5EAFF"/>
<path d="M31.3133 29.0485L31.3417 29.107C31.3793 29.1822 31.4945 29.1238 31.4569 29.0485L31.4285 28.9901C31.3909 28.9148 31.2757 28.9733 31.3133 29.0485Z" fill="#E5EAFF"/>
<path d="M33.1486 26.4206C32.9998 26.4959 33.115 26.7282 33.2651 26.6529C33.4152 26.5776 33.2987 26.3453 33.1486 26.4206Z" fill="#E5EAFF"/>
<path d="M29.8636 26.401C29.7147 26.4763 29.8299 26.7087 29.9801 26.6334C30.1302 26.5581 30.0137 26.3258 29.8636 26.401Z" fill="#E5EAFF"/>
<path d="M33.2391 22.2551C33.0902 22.3303 33.2054 22.5627 33.3555 22.4874C33.5057 22.4121 33.3892 22.1798 33.2391 22.2551Z" fill="#E5EAFF"/>
<path d="M21.6142 51.238C21.4654 51.3132 21.5806 51.5456 21.7307 51.4703C21.8809 51.395 21.7644 51.1627 21.6142 51.238Z" fill="#E5EAFF"/>
<path d="M23.1193 52.8027L23.1336 52.8313C23.1724 52.9079 23.2514 52.9144 23.3096 52.8819C23.3174 52.8819 23.3264 52.8793 23.3355 52.8754C23.3601 52.8624 23.3691 52.8417 23.3691 52.8196C23.3821 52.7898 23.3834 52.7534 23.3639 52.7158L23.3497 52.6872C23.2746 52.5379 23.043 52.6535 23.118 52.804L23.1193 52.8027Z" fill="#E5EAFF"/>
<path d="M22.5618 50.3292C22.5281 50.2863 22.4725 50.2617 22.4091 50.2928L22.3806 50.3071C22.2318 50.3824 22.347 50.6147 22.4971 50.5394L22.5256 50.5252C22.589 50.494 22.6019 50.4343 22.5877 50.3811C22.5877 50.3603 22.5773 50.3408 22.5618 50.3292Z" fill="#E5EAFF"/>
<path d="M18.3554 48.1202L18.2972 48.1488C18.2221 48.1864 18.2803 48.302 18.3554 48.2643L18.4136 48.2358C18.4887 48.1981 18.4305 48.0826 18.3554 48.1202Z" fill="#E5EAFF"/>
<path d="M20.5465 55.694C20.509 55.7135 20.4883 55.742 20.4805 55.7745C20.4676 55.7914 20.4611 55.8147 20.474 55.8394L20.5025 55.8978C20.5155 55.9225 20.5362 55.9316 20.5582 55.9316C20.5879 55.9445 20.6242 55.9458 20.6617 55.9264C20.8105 55.8511 20.6953 55.6187 20.5452 55.694H20.5465Z" fill="#E5EAFF"/>
<path d="M9.49492 58.5632C9.34609 58.6384 9.46127 58.8708 9.6114 58.7955C9.76154 58.7202 9.64506 58.4879 9.49492 58.5632Z" fill="#E5EAFF"/>
<path d="M8.46218 53.4552L8.43371 53.4695C8.28487 53.5448 8.40006 53.7772 8.55019 53.7019L8.57866 53.6876C8.7275 53.6123 8.61231 53.38 8.46218 53.4552Z" fill="#E5EAFF"/>
<path d="M5.7105 51.2809C5.56166 51.3562 5.67685 51.5886 5.82698 51.5133C5.97711 51.438 5.86063 51.2056 5.7105 51.2809Z" fill="#E5EAFF"/>
<path d="M3.57384 56.0572L3.5156 56.0858C3.44054 56.1234 3.49878 56.239 3.57384 56.2013L3.63208 56.1728C3.70715 56.1351 3.64891 56.0196 3.57384 56.0572Z" fill="#E5EAFF"/>
<path d="M36.4215 58.106C36.3827 58.0346 36.2701 58.0917 36.3076 58.1657C36.2313 58.2591 36.3361 58.4292 36.4668 58.3643L36.4953 58.35C36.6299 58.2825 36.5484 58.0891 36.4215 58.106Z" fill="#E5EAFF"/>
<path d="M33.8615 57.5688C33.7955 57.6026 33.7839 57.6662 33.802 57.7207C33.7761 57.7687 33.8253 57.8414 33.8861 57.8103C33.9159 57.8168 33.9457 57.8168 33.978 57.7999C34.1269 57.7246 34.0117 57.4923 33.8615 57.5676V57.5688Z" fill="#E5EAFF"/>
<path d="M35.0174 55.6082L35.0316 55.6368C35.1067 55.7861 35.3384 55.6705 35.2633 55.52L35.2491 55.4914C35.174 55.3421 34.9423 55.4577 35.0174 55.6082Z" fill="#E5EAFF"/>
<path d="M32.8793 55.6836C32.7964 55.5589 32.5868 55.6693 32.6579 55.8134L32.6722 55.8419C32.7408 55.9795 32.9414 55.8912 32.9129 55.7588C32.9194 55.7303 32.9051 55.6991 32.8793 55.6836Z" fill="#E5EAFF"/>
<path d="M37.0402 56.8749L37.0143 56.8658C36.9884 56.8022 36.9198 56.7567 36.8409 56.7957C36.692 56.871 36.8072 57.1033 36.9574 57.028C36.9742 57.0189 36.9871 57.0086 36.9975 56.9969C37.079 57.0241 37.1204 56.9008 37.0402 56.8749Z" fill="#E5EAFF"/>
<path d="M27.5095 61.5692C27.4965 61.5718 27.4836 61.5731 27.4694 61.5796C27.3205 61.6549 27.4357 61.8872 27.5858 61.8119C27.6311 61.7886 27.6505 61.7509 27.6531 61.712C27.6725 61.6951 27.6829 61.6678 27.6687 61.638L27.6298 61.5601C27.6014 61.503 27.5289 61.5238 27.5108 61.5692H27.5095Z" fill="#E5EAFF"/>
<path d="M26.7122 56.3703C26.6371 56.221 26.4055 56.3366 26.4805 56.4871L26.4948 56.5157C26.5064 56.5378 26.5207 56.5533 26.5375 56.5637C26.5427 56.604 26.5828 56.6403 26.6294 56.6169L26.707 56.578C26.7446 56.5598 26.7484 56.5209 26.7342 56.491C26.7433 56.4638 26.7433 56.4326 26.7264 56.3989L26.7122 56.3703Z" fill="#E5EAFF"/>
<path d="M51.0972 60.1219L51.1114 60.1505C51.1865 60.2997 51.4181 60.1842 51.3431 60.0336L51.3288 60.0051C51.2538 59.8558 51.0221 59.9713 51.0972 60.1219Z" fill="#E5EAFF"/>
<path d="M53.1458 60.8641L53.1342 60.8407C53.0967 60.7654 52.9815 60.8238 53.019 60.8991L53.0242 60.9095C52.9478 61.003 53.0527 61.173 53.1834 61.1081C53.3037 61.0471 53.2507 60.8862 53.1471 60.8667L53.1458 60.8641Z" fill="#E5EAFF"/>
<path d="M53.8822 59.3096C53.877 59.3239 53.8731 59.3382 53.8679 59.3537C53.8149 59.5121 54.0608 59.5939 54.1138 59.4355C54.119 59.4212 54.1229 59.407 54.1281 59.3914C54.1811 59.233 53.9352 59.1512 53.8822 59.3096Z" fill="#E5EAFF"/>
<path d="M55.1907 59.0441C55.113 59.0831 55.1079 59.1648 55.1428 59.2245C55.148 59.257 55.1752 59.2855 55.2101 59.283C55.2386 59.2933 55.2722 59.2933 55.3072 59.2765C55.456 59.2012 55.3408 58.9688 55.1907 59.0441Z" fill="#E5EAFF"/>
<path d="M58.9362 55.3113C58.8223 55.3684 58.8637 55.5176 58.9569 55.5501C58.9737 55.5644 58.997 55.5709 59.0229 55.5579L59.0514 55.5436C59.0604 55.5384 59.0656 55.5319 59.0734 55.5267C59.1834 55.4398 59.0747 55.2412 58.9349 55.3126L58.9362 55.3113Z" fill="#E5EAFF"/>
<path d="M60.5152 57.2401L60.5294 57.2686C60.6045 57.4179 60.8362 57.3024 60.7611 57.1518L60.7469 57.1232C60.6718 56.974 60.4401 57.0895 60.5152 57.2401Z" fill="#E5EAFF"/>
<path d="M77.7803 50.05C77.6315 50.1253 77.7467 50.3576 77.8968 50.2823C78.0469 50.207 77.9305 49.9747 77.7803 50.05Z" fill="#E5EAFF"/>
<path d="M78.8959 45.3278C78.7471 45.4031 78.8623 45.6354 79.0124 45.5602C79.1625 45.4849 79.0461 45.2525 78.8959 45.3278Z" fill="#E5EAFF"/>
<path d="M68.0813 64.6465C68.0683 64.6855 68.0554 64.7244 68.0424 64.762C67.9894 64.9204 68.2353 65.0022 68.2883 64.8438C68.3013 64.8049 68.3142 64.7659 68.3272 64.7283C68.3802 64.5699 68.1343 64.4882 68.0813 64.6465Z" fill="#E5EAFF"/>
<path d="M73.0835 62.0915C72.9347 62.1668 73.0499 62.3991 73.2 62.3238C73.3502 62.2485 73.2337 62.0162 73.0835 62.0915Z" fill="#E5EAFF"/>
<path d="M98.1724 48.3678C98.0235 48.4431 98.1387 48.6755 98.2888 48.6002C98.439 48.5249 98.3225 48.2926 98.1724 48.3678Z" fill="#E5EAFF"/>
<path d="M98.4584 45.175C98.3095 45.2503 98.4247 45.4826 98.5748 45.4073C98.725 45.332 98.6085 45.0997 98.4584 45.175Z" fill="#E5EAFF"/>
<path d="M100.193 42.2707C100.044 42.346 100.159 42.5783 100.309 42.503C100.459 42.4277 100.343 42.1954 100.193 42.2707Z" fill="#E5EAFF"/>
<path d="M83.1604 30.2679C83.0659 30.1822 82.877 30.2121 82.877 30.3665C82.877 30.5574 82.9093 30.7378 82.9714 30.9078C83.0116 31.061 83.0853 31.1986 83.1992 31.3167C83.2135 31.3349 83.2264 31.3544 83.2419 31.3725C83.2872 31.4258 83.3571 31.4361 83.4154 31.4154C83.4775 31.4011 83.5292 31.3531 83.5383 31.2726C83.5797 30.8962 83.4425 30.521 83.1604 30.2679Z" fill="#FADAC3"/>
<path d="M61.183 77.083C60.9435 77.0168 60.6976 77.0116 60.4595 77.0856C60.3469 77.1207 60.1204 77.2011 60.1023 77.3426C60.0557 77.3777 60.0117 77.414 59.9703 77.4569C59.9379 77.4906 59.9366 77.5503 59.9884 77.5685C60.2951 77.6723 60.6226 77.6295 60.8892 77.4711C61.0212 77.4114 61.1402 77.327 61.2399 77.218C61.2671 77.1895 61.249 77.1479 61.2218 77.1271C61.2179 77.1064 61.205 77.0882 61.183 77.0817V77.083Z" fill="#E5EAFF"/>
<path d="M64.9971 69.686C64.9816 69.6627 64.9609 69.6484 64.9376 69.638C64.9363 69.6354 64.935 69.6328 64.9324 69.6302C64.8133 69.5199 64.5389 69.4472 64.4419 69.6302C64.4147 69.6808 64.4147 69.7276 64.4302 69.7704C64.4121 69.7899 64.4095 69.8223 64.4237 69.8457C64.4082 69.882 64.4237 69.9352 64.4755 69.9417C64.5325 69.9482 64.5894 69.9417 64.6438 69.9301C64.6645 69.9339 64.6852 69.9352 64.7046 69.9352C64.8133 69.9301 65.1162 69.8625 64.9984 69.6886L64.9971 69.686Z" fill="#E5EAFF"/>
<path d="M88.9497 63.9288C88.8073 63.9509 88.608 64.0884 88.4475 64.239C88.322 64.326 88.2068 64.4272 88.1058 64.5493C88.01 64.6648 87.7745 64.9335 87.9479 65.0828C88.1058 65.2178 88.3841 65.0334 88.5109 64.9491C88.7581 64.7855 89.0765 64.4895 89.1477 64.1871C89.1839 64.0339 89.1166 63.9041 88.9497 63.9301V63.9288Z" fill="#E5EAFF"/>
<path d="M92.7482 59.1664C92.6486 59.0678 92.536 59.1638 92.4622 59.2443C92.4415 59.2404 92.4195 59.2443 92.404 59.2586C92.2564 59.3936 91.8384 59.8725 92.0817 60.0802C92.1076 60.1023 92.1348 60.114 92.1632 60.1205C92.1891 60.1516 92.2357 60.1542 92.2655 60.1166C92.2681 60.114 92.2707 60.1101 92.2732 60.1062C92.4661 60.0218 92.6538 59.6649 92.7081 59.5493C92.7573 59.4455 92.8518 59.2664 92.7495 59.1651L92.7482 59.1664Z" fill="#E5EAFF"/>
<path d="M54.5631 77.7624L54.5916 77.8208C54.6291 77.8961 54.7443 77.8377 54.7067 77.7624L54.6783 77.704C54.6407 77.6287 54.5256 77.6871 54.5631 77.7624Z" fill="#E5EAFF"/>
<path d="M55.2568 76.5436L55.1985 76.5722C55.0497 76.6475 55.1649 76.8798 55.315 76.8045L55.3733 76.776C55.5221 76.7007 55.4069 76.4683 55.2568 76.5436Z" fill="#E5EAFF"/>
<path d="M55.953 78.0812L55.8948 78.1098C55.7459 78.1851 55.8611 78.4174 56.0112 78.3421L56.0695 78.3136C56.2183 78.2383 56.1031 78.0059 55.953 78.0812Z" fill="#E5EAFF"/>
<path d="M66.3677 74.298C66.2188 74.3733 66.334 74.6057 66.4841 74.5304C66.6343 74.4551 66.5178 74.2227 66.3677 74.298Z" fill="#E5EAFF"/>
<path d="M68.8255 71.8288L68.7103 71.8872C68.5615 71.9625 68.6767 72.1948 68.8268 72.1195L68.942 72.0611C69.0908 71.9858 68.9756 71.7535 68.8255 71.8288Z" fill="#E5EAFF"/>
<path d="M81.5234 63.9225C81.3745 63.9978 81.4897 64.2302 81.6398 64.1549C81.79 64.0796 81.6735 63.8472 81.5234 63.9225Z" fill="#E5EAFF"/>
<path d="M81.3187 62.6468L81.3471 62.7052C81.4222 62.8545 81.6539 62.739 81.5788 62.5884L81.5503 62.53C81.4753 62.3807 81.2436 62.4962 81.3187 62.6468Z" fill="#E5EAFF"/>
<path d="M92.3097 55.0895L92.2514 55.118C92.1764 55.1557 92.2346 55.2712 92.3097 55.2336L92.3679 55.205C92.443 55.1674 92.3847 55.0518 92.3097 55.0895Z" fill="#E5EAFF"/>
<path d="M95.1181 56.3644C95.0431 56.402 95.1013 56.5175 95.1764 56.4799C95.2514 56.4423 95.1932 56.3267 95.1181 56.3644Z" fill="#E5EAFF"/>
<path d="M95.7482 52.8023C95.7392 52.8309 95.7288 52.8607 95.7197 52.8893C95.6939 52.9684 95.8168 53.01 95.8427 52.9308L95.8712 52.8438C95.8971 52.7647 95.7741 52.7231 95.7482 52.8023Z" fill="#E5EAFF"/>
<path d="M45.1227 75.7774C45.1137 75.806 45.1033 75.8358 45.0943 75.8644C45.0684 75.9435 45.1913 75.9851 45.2172 75.9059L45.2457 75.8189C45.2716 75.7398 45.1486 75.6982 45.1227 75.7774Z" fill="#E5EAFF"/>
<path d="M41.7384 73.3918L41.7668 73.4502C41.8044 73.5255 41.9196 73.4671 41.882 73.3918L41.8536 73.3334C41.816 73.2581 41.7008 73.3165 41.7384 73.3918Z" fill="#E5EAFF"/>
<path d="M37.5436 75.1363C37.4686 75.174 37.5268 75.2895 37.6019 75.2519C37.6769 75.2142 37.6187 75.0987 37.5436 75.1363Z" fill="#E5EAFF"/>
<path d="M63.2189 47.714C63.1438 47.7516 63.2021 47.8672 63.2772 47.8295C63.3522 47.7919 63.294 47.6763 63.2189 47.714Z" fill="#E5EAFF"/>
<path d="M61.566 44.5515L61.6243 44.667C61.6618 44.7423 61.777 44.6839 61.7394 44.6086L61.6812 44.4931C61.6437 44.4178 61.5285 44.4762 61.566 44.5515Z" fill="#E5EAFF"/>
<path d="M67.6142 44.6334C67.5392 44.6711 67.5974 44.7866 67.6725 44.7489C67.7475 44.7113 67.6893 44.5958 67.6142 44.6334Z" fill="#E5EAFF"/>
<path d="M65.9639 47.5162C65.9445 47.5746 65.9251 47.6317 65.9057 47.6901C65.8798 47.7693 66.0027 47.8108 66.0286 47.7316L66.0869 47.5577C66.1127 47.4785 65.9898 47.437 65.9639 47.5162Z" fill="#E5EAFF"/>
<path d="M24.8213 76.9834C24.543 76.546 23.6707 76.263 23.2772 76.1215C21.763 75.5764 20.1892 75.1623 18.7383 74.4886C17.3341 73.837 17.1917 72.5078 18.5092 71.6472C19.1421 71.2331 19.9044 71.0046 20.5101 70.5529C21.0382 70.1596 21.222 69.6209 21.0123 69.029C20.8673 68.6188 20.3872 67.7868 19.8824 67.7089C19.6171 67.6686 19.3492 67.74 19.0929 67.8153C17.8285 68.1814 16.5756 68.6123 15.4522 69.2562C14.2331 69.9558 13.1511 70.9345 12.592 72.1677C12.06 73.3424 11.9979 74.7391 12.6683 75.8788C13.2637 76.8913 14.3936 77.6506 15.6645 77.7181C16.4527 77.7597 17.2176 77.5507 17.989 77.4391C19.0321 77.2872 19.8216 77.4793 20.769 77.8739C21.5481 78.1997 22.4269 78.3801 23.2811 78.2309C23.7393 78.1504 24.6025 77.9492 24.8355 77.5299C24.9481 77.3261 24.9261 77.1444 24.8238 76.9834H24.8213Z" fill="#452B2B"/>
<path d="M14.162 74.4261C14.0882 74.33 13.9329 74.33 13.8941 74.4611C13.885 74.4936 13.8772 74.526 13.8721 74.5585C13.8578 74.5805 13.8475 74.6065 13.8501 74.6416C13.8682 74.9129 13.9187 75.2166 14.1801 75.3581C14.2823 75.4139 14.3924 75.3425 14.4001 75.2309C14.4208 74.9414 14.338 74.6558 14.162 74.4248V74.4261Z" fill="#5D5EA3"/>
<path d="M14.4612 73.7091C14.4275 73.6416 14.3227 73.6144 14.2606 73.6559C14.1752 73.7143 14.1221 73.8169 14.1506 73.9194C14.1273 74.031 14.1596 74.1453 14.236 74.2387C14.2929 74.3088 14.4288 74.2894 14.4664 74.2089C14.5427 74.044 14.5427 73.8714 14.4625 73.7078L14.4612 73.7091Z" fill="#5D5EA3"/>
<path d="M16.1889 75.0752H16.1255C15.9637 75.0752 15.9637 75.327 16.1255 75.327H16.1889C16.3507 75.327 16.3507 75.0752 16.1889 75.0752Z" fill="#E5EAFF"/>
<path d="M17.3822 76.02H17.3188C17.157 76.02 17.157 76.2718 17.3188 76.2718H17.3822C17.544 76.2718 17.544 76.02 17.3822 76.02Z" fill="#E5EAFF"/>
<path d="M14.6178 71.734V71.7976C14.6178 71.9599 14.8689 71.9599 14.8689 71.7976V71.734C14.8689 71.5717 14.6178 71.5717 14.6178 71.734Z" fill="#E5EAFF"/>
<path d="M72.2657 43.1259C72.157 42.312 71.3442 41.7474 70.7178 41.3346C70.2777 41.0438 69.8118 40.7751 69.4365 40.3974C68.9938 39.9509 68.7984 39.3629 68.4528 38.8514C67.0965 36.8446 64.4989 36.7174 62.2923 36.7707C62.2509 36.7369 62.1939 36.7252 62.1344 36.7616C62.1279 36.7655 62.1214 36.7707 62.115 36.7758C62.0515 36.7771 61.9868 36.7797 61.9234 36.781C61.772 36.7862 61.7448 36.9757 61.838 37.0458C61.6089 37.3924 61.6348 37.8649 61.8509 38.2595C62.2664 39.0163 63.1685 39.3395 63.9541 39.5407C64.574 39.7004 65.2121 39.8094 65.7867 40.1079C66.3847 40.4182 66.8234 40.9426 67.2013 41.4878C67.754 42.2848 68.1979 43.1687 68.9252 43.8295C69.5258 44.3733 70.3424 44.764 71.1643 44.5603C71.8101 44.4006 72.3576 43.832 72.2631 43.1272L72.2657 43.1259ZM71.8269 43.7295C70.9831 45.3001 69.0521 43.6698 68.4244 42.8144C67.8976 42.0966 67.5029 41.2801 66.8985 40.6194C66.2746 39.9379 65.5136 39.6212 64.6323 39.4005C64.1171 39.272 63.5904 39.1746 63.1063 38.9488C62.5628 38.6957 61.363 37.6806 62.2081 37.0653C64.4536 37.0069 67.1211 37.1107 68.3791 39.2876C68.8139 40.0404 69.1647 40.6285 69.8856 41.1386C70.6479 41.6773 72.4702 42.5327 71.8269 43.7308V43.7295Z" fill="#E5EAFF"/>
<path d="M17.663 44.9966C17.2825 44.6565 16.7764 44.1957 16.2535 44.1269C15.8523 44.0737 15.499 44.2983 15.3023 44.641C15.1159 44.9668 15.1055 45.3211 15.1716 45.6716C15.1832 45.9494 15.2647 46.2207 15.4136 46.4556C15.4162 46.4608 15.4175 46.466 15.42 46.4712C15.4304 46.4985 15.4472 46.5166 15.4653 46.5322C15.5987 46.7165 15.7773 46.8749 15.9986 46.9852C16.6418 47.3059 18.3657 47.2604 18.4123 46.2492C18.4343 45.7651 17.9943 45.2939 17.6643 44.9966H17.663Z" fill="#452B2B"/>
<path d="M49.6502 15.6049C46.5441 15.0286 43.2114 16.9757 41.7489 19.7003C41.6505 19.8833 41.5612 20.0728 41.4849 20.2662C41.1484 21.1086 40.9025 21.9939 40.4857 22.8026C40.0845 23.5814 39.4335 24.1733 38.9132 24.8652C38.3878 25.5649 37.9633 26.4047 37.7044 27.2406C37.4857 27.9455 37.4106 28.7139 37.6177 29.424C37.927 30.4845 38.8925 31.1543 39.9434 31.3399C40.8727 31.5047 41.8382 31.4191 42.739 31.1504C43.7757 30.8427 44.8421 30.1755 45.9811 30.3092C47.1006 30.4416 47.9043 31.484 49.0717 31.4437C49.5765 31.4268 50.067 31.2854 50.5459 31.1231C51.7159 30.7272 52.8768 30.1327 53.489 28.967C54.1464 27.7144 53.5161 26.319 54.0377 25.0184C54.2992 24.368 54.6615 23.7619 54.8712 23.0908C55.3527 21.5539 54.9605 19.8067 54.0636 18.4775C53.0425 16.9653 51.413 15.932 49.6502 15.6036V15.6049Z" fill="#422724"/>
<path d="M57.6151 60.5619C57.5556 60.3153 57.2126 60.3828 57.1867 60.5969C51.7613 60.362 46.2879 59.6624 40.9103 60.7423C40.8883 60.5372 40.5505 60.4736 40.4781 60.7138C40.0587 62.1079 39.6485 63.5033 39.2511 64.9039C38.6286 67.095 38.4293 68.519 39.5449 70.601C40.2425 71.9056 40.9414 73.2088 41.639 74.5134C41.8487 74.9054 42.0635 75.3052 42.3832 75.6141C43.812 77.0004 46.8677 76.0801 48.4182 75.422C50.6301 74.4848 59.6859 71.1981 59.7635 70.3129C59.8658 69.1511 57.9192 61.8301 57.6151 60.5619Z" fill="#783E3E"/>
<path d="M55.7318 62.4553C50.9095 63.0653 46.0263 63.103 41.1949 62.5656C41.1017 62.5552 41.1017 62.7019 41.1949 62.7123C46.0263 63.2497 50.9082 63.212 55.7318 62.6019C55.8237 62.5902 55.825 62.4436 55.7318 62.4553Z" fill="#452B2B"/>
<path d="M43.1285 63.6526C44.9275 63.6993 46.6631 62.9517 48.466 62.8712C49.4328 62.8284 50.406 62.8556 51.3689 62.7453C52.2943 62.6388 53.1537 62.3091 53.9755 61.8782C54.7417 61.4771 55.4665 61.0046 56.2003 60.5503C51.0984 60.2842 45.9616 59.7273 40.9102 60.7424C40.8882 60.5373 40.5504 60.4737 40.4779 60.7138C40.2838 61.3577 40.0935 62.0015 39.9033 62.6466C40.9192 63.1879 41.987 63.6254 43.1272 63.6552L43.1285 63.6526Z" fill="#452B2B"/>
<path d="M66.7405 51.1176C66.6694 50.8476 66.5917 50.5789 66.5089 50.3128C66.0287 48.7785 65.6171 47.2208 65.1823 45.6722C65.1525 45.5671 65.0723 45.5204 64.9881 45.5178C64.9649 45.5113 64.9377 45.5087 64.9079 45.5126C64.0641 45.6112 63.2228 45.7267 62.3854 45.8695C61.8871 45.9539 61.3837 46.037 60.8906 46.1512C60.6783 46.2005 60.4454 46.2356 60.3056 46.4277C60.0221 46.8197 60.281 47.6037 60.3794 48.0217C60.602 48.9758 60.8971 49.9143 61.1805 50.8502C61.4549 51.7562 61.7344 52.6609 61.9829 53.5748C62.1745 54.277 62.2651 55.122 62.709 55.7256C63.5373 56.851 65.2496 57.0185 66.3808 56.6576C67.0848 56.4331 67.3372 55.9074 67.3721 55.27C67.4459 53.946 67.0758 52.3935 66.7418 51.1176H66.7405Z" fill="#F9B98E"/>
<path d="M67.3282 49.6077C67.5831 49.0729 67.3178 48.3252 67.1612 47.632C66.5891 45.1034 66.2902 42.3879 65.3687 39.958C64.5197 37.7175 62.7867 35.9963 60.8362 34.6632C57.7236 32.5357 54.013 31.7712 50.296 31.7725C50.195 31.7725 50.0941 31.7725 49.9918 31.7738C49.7899 31.7751 49.588 31.7815 49.3848 31.7906C45.7118 31.9607 40.9438 32.9446 38.0007 35.1811C36.973 35.9626 36.2496 37.0464 35.64 38.177C35.5235 38.3925 35.4122 38.6119 35.3035 38.8313C35.1922 39.0597 35.0822 39.2895 34.9812 39.5218C34.7392 40.0787 35.9493 41.6376 36.2043 42.0738C36.8695 43.2174 37.7328 44.3636 38.0615 45.6616C38.1845 46.1484 38.2298 46.652 38.2738 47.1531C38.455 49.217 38.8212 51.2614 38.9817 53.3279C39.1642 55.6877 39.0775 58.0762 38.7772 60.4217C38.7086 60.9526 38.9261 60.928 39.3143 61.0708C41.5547 61.895 43.9891 61.6834 46.3433 61.6731C49.1674 61.6614 52.0018 61.5043 54.8206 61.6017C56.0579 61.6445 58.8949 62.0845 59.6857 60.7904C59.863 60.5022 59.9329 60.1634 60.0002 59.8324C60.4389 57.6738 61.4187 51.2225 61.8445 51.1147C63.1555 50.7824 65.5123 50.6604 66.7561 50.1178C67.0499 49.9893 67.2272 49.8128 67.3269 49.6051L67.3282 49.6077Z" fill="#FADAC3"/>
<path d="M54.923 55.4552C53.1589 55.3591 51.3341 55.1306 49.7564 54.2856C48.2357 53.4717 46.7602 51.9946 44.9548 51.9167C44.1264 51.8816 43.3499 52.2048 42.629 52.58C41.846 52.9876 41.1096 53.4549 40.2916 53.7937C39.8813 53.9637 39.4633 54.1078 39.0401 54.235C39.0983 55.4526 39.0893 56.6753 39.0168 57.8929C39.9137 57.7839 40.8015 57.5956 41.6674 57.3633C42.4439 57.1556 43.2088 56.9064 43.9595 56.6208C44.7127 56.3352 45.4414 55.9925 46.2606 55.9692C46.966 55.9497 47.6416 56.1665 48.2887 56.4274C49.1093 56.7584 49.9091 57.1115 50.762 57.3594C52.5532 57.8825 54.4493 58.2265 56.3104 58.3628C57.6267 58.4588 58.9455 58.4524 60.2656 58.4381C60.4119 57.6177 60.5814 56.6429 60.7548 55.6758C58.82 55.4772 56.8669 55.5577 54.9256 55.4526L54.923 55.4552Z" fill="#452B2B"/>
<path d="M36.8359 45.0191C35.7604 44.814 34.6836 44.6089 33.608 44.4038C33.5809 44.3986 33.555 44.3986 33.5304 44.4038C33.4385 44.361 33.3207 44.3727 33.2547 44.4856C32.297 46.1159 31.2926 47.7164 30.3919 49.3805C29.539 50.9525 28.4932 52.5789 28.2538 54.391C28.1709 55.0141 28.2085 55.7903 28.8103 56.1408C29.0174 56.2615 29.2413 56.3537 29.4704 56.4186C30.5834 56.7353 31.5023 56.3692 32.385 55.6826C35.178 53.5083 37.681 47.0272 38.1534 45.9251C38.5482 45.0022 37.3251 45.1125 36.8385 45.0191H36.8359Z" fill="#C76C56"/>
<path d="M40.0446 43.9768C40.0187 43.7561 39.9902 43.5354 39.9605 43.3148C39.7521 41.7986 39.7275 40.5369 39.1309 39.1208C38.6986 38.0966 36.5708 36.6934 36.501 36.7765C34.0937 39.6867 29.4046 49.1897 29.8214 49.731C30.1035 50.0971 30.9073 50.3061 31.2968 50.4073C33.0984 50.8772 34.9375 51.2134 36.7805 51.4639C36.8388 51.4717 36.8905 51.4587 36.9332 51.4328C37.0187 51.4587 39.4622 47.9579 39.9941 47.0466C40.0381 46.9727 40.0329 46.9 40.0006 46.8429C39.9411 46.7338 40.1222 46.1653 40.1352 46.016C40.1585 45.7382 40.1624 45.4591 40.1481 45.1814C40.1274 44.7803 40.0912 44.3779 40.0446 43.9781V43.9768Z" fill="#FADAC3"/>
<path d="M54.5268 33.3376C54.1657 32.6198 53.0035 32.0759 52.4069 31.5632C51.6174 30.8843 51.4828 29.5292 51.2899 28.5608C50.9832 27.0252 50.8344 25.465 50.6855 23.9073C50.6842 23.8904 50.6777 23.8775 50.6726 23.8645C50.6777 23.8554 50.6829 23.8476 50.6868 23.8385C50.7748 23.6724 50.5224 23.5231 50.4344 23.6905C49.6294 25.2106 48.3675 26.3658 46.7899 27.0382C46.6242 27.1083 46.7536 27.3394 46.9154 27.2965C47.2195 28.6543 47.6945 30.138 47.7877 31.5905C47.0888 32.2707 45.8774 32.5432 45.0426 32.8729C44.2286 33.1936 44.0681 33.2831 44.301 34.1541C44.5728 35.1731 45.0284 36.1466 45.6367 37.0072C46.1233 37.6965 46.685 38.3494 47.6013 38.2222C48.6031 38.0833 49.5751 37.4018 50.3827 36.8346C51.4452 36.0882 52.4677 35.2795 53.5044 34.4981C53.8383 34.2463 54.7895 33.8582 54.5281 33.3376H54.5268Z" fill="#C76C56"/>
<path d="M49.6747 24.8499C48.9163 25.804 47.9366 26.5504 46.7886 27.0397C46.6229 27.1098 46.7524 27.3409 46.9141 27.2981C47.1795 28.4793 47.5729 29.7579 47.7321 31.0261C48.5035 30.7911 49.1894 30.0538 49.6735 29.4944C49.7162 29.445 49.7563 29.3944 49.799 29.3438C49.8288 27.8419 49.8624 26.3388 49.6747 24.8486V24.8499Z" fill="#963E29"/>
<path d="M46.614 45.3226C46.5687 45.2642 46.5092 45.246 46.4497 45.2525C46.4989 44.8631 46.5377 44.4711 46.5636 44.0791C46.5869 43.7182 46.7176 43.212 46.2685 43.0887C46.2478 43.0835 46.2258 43.0809 46.2038 43.0796C46.2309 42.576 46.2012 42.0022 45.8673 41.8361C45.7818 41.7932 45.6809 41.7841 45.6045 41.8542C45.4259 42.0165 45.303 42.2424 45.1994 42.4695C45.1671 42.4462 45.1334 42.4241 45.0959 42.4072C44.8552 42.2943 44.586 43.0536 44.3375 44.0765C44.0061 44.2764 43.8612 44.6035 43.7745 44.9851C43.5894 45.7977 43.535 46.6479 43.4328 47.4735C43.2749 48.7599 43.1675 50.7121 42.2214 51.7168C41.3452 52.6475 39.7805 52.6956 38.5846 52.7994C37.3356 52.9084 36.0854 52.8176 34.8377 52.7475C33.7376 52.6852 32.6841 52.702 31.5892 52.5385C30.9097 52.4372 30.1746 52.4061 29.5767 52.7462C28.6163 53.294 27.8061 55.0827 28.5335 55.9796C29.4602 57.1206 32.3994 56.7611 33.6885 56.7195C35.5793 56.6585 37.4715 56.4599 39.3404 56.1614C40.4172 55.9887 41.6325 55.8537 42.633 55.3877C43.5092 54.9801 44.8215 54.3571 45.259 53.4121C45.8919 52.0478 46.2775 49.0506 46.482 47.5825C46.5506 47.0906 46.6192 46.5986 46.6878 46.1067C46.7318 45.7873 46.8121 45.577 46.6166 45.3226H46.614Z" fill="#C76C56"/>
<path d="M53.1074 19.4444C52.7942 18.258 52.1678 17.0521 51.0314 16.4797C49.3657 15.6398 46.996 15.9929 45.4895 16.9989C43.5067 18.3242 42.7056 20.7424 42.8932 23.0491C43.0343 24.7872 43.4407 26.5305 44.2134 28.0985C44.5123 28.706 44.8683 29.551 45.5684 29.7808C46.2169 29.995 47.6185 29.834 48.1996 29.5783C48.6591 29.3758 49.921 28.1751 50.2717 27.7675C50.5215 27.478 52.6479 24.2576 53.0026 23.262C53.4374 22.0431 53.4348 20.6853 53.1061 19.4431L53.1074 19.4444Z" fill="#C76C56"/>
<path d="M65.2317 53.1963C64.1005 53.0055 62.915 53.0859 61.7774 53.1664C58.842 53.3741 55.9442 53.6259 53.0141 53.1885C51.6215 52.9795 49.473 52.7498 48.3173 51.9424C48.039 51.749 47.9627 51.2687 47.8967 50.9649C47.7802 50.4236 47.7232 49.8733 47.6818 49.3216C47.5589 47.6913 47.476 46.0635 47.3816 44.4344C47.3686 44.2008 47.3518 43.949 47.2664 43.7283C47.19 43.531 46.9428 43.4687 46.9117 43.248C46.8872 43.065 46.9104 42.3744 46.5675 42.4796C45.932 42.673 45.7288 43.2299 45.5955 43.8075C44.6973 44.4695 44.7853 45.6624 44.7814 46.6541C44.7775 47.9911 44.6119 49.3164 44.5368 50.656C44.4825 51.6295 44.5705 52.6836 45.0895 53.5338C45.5968 54.3658 46.6037 54.8227 47.498 55.1018C48.6318 55.4549 49.7461 55.8768 50.8954 56.1935C54.6241 57.2202 58.4512 57.4811 62.3028 57.3539C63.3835 57.3176 64.516 57.3462 65.5889 57.193C66.3732 57.0801 67.2507 56.7633 67.3336 55.8521C67.3918 55.2135 67.4772 54.0348 66.9181 53.5792C66.4716 53.2158 65.7662 53.2871 65.2317 53.1976V53.1963Z" fill="#C76C56"/>
<path d="M34.2616 76.3967C34.2591 76.4577 34.2578 76.52 34.2798 76.5759C34.3251 76.6888 34.4532 76.7394 34.571 76.755C35.6335 76.9004 36.6858 77.1976 37.7393 77.4027C37.7652 77.4196 37.7949 77.4339 37.8325 77.4404C41.4499 78.092 45.251 78.1699 48.915 77.8012C48.9629 77.796 49.003 77.7792 49.0367 77.7558C49.1583 77.7571 49.2722 77.6805 49.2567 77.5208C49.1338 76.2669 48.4349 75.0636 47.9547 73.9265C47.934 73.8759 47.9029 73.8435 47.8693 73.8227C47.8175 73.7695 47.745 73.737 47.6557 73.75C46.3822 73.9356 45.1074 74.0434 43.8261 74.0797C42.691 73.0724 41.4201 72.6181 40.1388 73.8915C39.6522 74.3757 39.2574 74.8624 38.5546 74.9883C38.0473 75.0792 37.5205 75.0182 37.0093 75.0844C36.4502 75.1558 34.8919 75.4193 34.4092 76.032C34.3225 76.1423 34.2707 76.2643 34.2655 76.398L34.2616 76.3967Z" fill="#C76C56"/>
<path d="M54.9153 33.1821C54.1853 32.3072 54.008 31.9698 53.7737 32.8706C53.2897 34.7216 50.5342 36.0236 48.6589 36.0223C47.793 36.0223 46.8068 35.7146 46.3267 34.9345C45.721 33.9506 46.2076 32.8122 46.9596 32.084C46.447 32.0931 45.6977 32.376 45.2861 32.5954C44.7671 32.8719 44.1148 32.8433 43.6217 33.164C43.2166 33.4275 43.0678 34.1712 42.6808 34.488C42.5216 34.9293 42.4634 35.4226 42.5423 35.9665C42.7209 37.1996 43.6916 37.8928 44.6895 38.4964C45.8582 39.2012 47.1873 39.6984 48.567 39.6828C51.0144 39.6568 53.344 37.8434 54.703 35.9132C55.2841 35.0864 55.6374 34.0479 54.9153 33.1821Z" fill="#FADAC3"/>
<path d="M48.1568 72.3891C47.7841 69.5957 45.932 67.3657 44.5822 64.9838C44.643 64.8773 44.6275 64.7384 44.4799 64.6956C44.4579 64.6891 44.4346 64.6826 44.4126 64.6761C44.3971 64.6463 44.3803 64.6164 44.3634 64.5866C44.2741 64.4191 44.0593 64.4425 43.9713 64.5528C38.5885 63.0471 33.0569 62.119 27.4736 61.8308C23.7307 61.6374 16.6706 61.1363 16.646 66.5427C16.6395 67.9264 16.7081 69.3556 16.9009 70.7263C17.0459 71.7622 17.473 72.5748 18.3984 73.0992C19.426 73.6807 20.6788 73.926 21.8217 74.1766C23.257 74.4907 24.7117 74.7101 26.1638 74.9281C28.9904 75.3526 31.8261 75.7394 34.6877 75.8056C37.5014 75.8718 40.3125 75.681 43.1119 75.4032C43.9143 75.324 44.7155 75.2371 45.5166 75.1462C46.1728 75.0722 46.9325 75.0878 47.5654 74.8983C48.4869 74.6231 48.2565 73.1225 48.1581 72.3891H48.1568Z" fill="#783E3E"/>
<path d="M73.4785 64.843C72.1493 63.9447 70.5121 63.7422 68.9487 63.6566C64.8731 63.4346 60.7911 64.0901 56.9731 65.5283C56.797 65.5946 56.8126 65.7957 56.92 65.8944C54.6098 68.8072 51.5282 71.1126 49.7835 74.4473C49.6852 74.4823 49.8871 75.2261 50.01 74.9717C50.0191 74.9535 50.0282 74.9353 50.0372 74.9172C50.0993 74.7899 54.4066 75.6986 54.8388 75.7648C56.568 76.0296 58.2945 76.2658 60.0404 76.3982C64.006 76.6968 68.0802 76.6526 72.0044 75.966C73.7218 75.6648 74.6731 74.7549 75.0678 73.0532C75.6748 70.4324 76.0372 66.572 73.4785 64.843Z" fill="#783E3E"/>
<path d="M74.6227 66.0085C74.4764 65.8203 69.403 66.7107 67.2403 67.3662C61.6518 69.0615 55.8679 69.9442 50.1667 71.1592C49.0317 71.4006 47.8319 71.5823 46.7655 72.0535C45.9139 72.4481 46.3164 73.7475 46.3927 74.477C46.5416 75.8918 46.869 77.9116 47.1641 79.3031C47.1589 79.3278 55.5792 79.8937 56.1345 79.921C60.6138 80.1417 65.2692 79.9444 69.5674 78.549C71.8012 77.8233 73.9717 77.1237 75.3604 75.1247C77.1478 72.5507 76.3803 68.2775 74.6214 66.0085H74.6227Z" fill="#783E3E"/>
<path d="M49.1569 19.9638C49.2423 20.1754 49.3161 20.3922 49.399 20.5986C49.9166 21.8902 50.6751 23.0545 51.9421 23.7087C52.1311 23.8061 52.1971 24.041 52.0884 24.2227C51.6678 24.9263 51.5474 25.674 50.9715 26.2931C50.5897 26.7046 50.2428 27.1563 49.9904 27.6626C49.7342 28.1753 49.7458 28.8399 49.4572 29.3124C49.2605 29.633 48.946 29.8615 48.7454 30.1782C48.3713 30.7688 48.0141 31.6022 48.2199 32.3057C48.6729 33.8556 50.3787 33.2585 51.0776 32.3005C51.4322 31.815 51.7558 31.2621 52.2955 30.9986C52.7808 30.761 53.3399 30.7727 53.8188 30.5118C54.3261 30.2353 54.7338 29.7719 54.9758 29.2488C55.6488 27.7937 54.6574 26.3853 54.7778 24.8899C54.8425 24.08 55.1441 23.2869 55.2722 22.4847C55.4405 21.4242 55.2916 20.2364 54.8749 19.2499C54.0026 17.1821 51.6496 15.7114 49.4546 15.5531C48.6535 15.4947 47.8303 15.5868 47.0667 15.8373C45.9317 16.2112 44.8497 16.855 44.0874 17.7922C43.1698 18.9202 41.8018 20.3026 41.5766 21.7214C41.5584 21.8317 41.2336 25.1054 41.3967 25.1171C41.5597 25.1288 42.3751 24.5187 42.3919 24.3889C42.5731 22.987 43.0856 21.6072 43.9839 20.5064C44.8717 19.4187 46.5128 18.1699 47.9986 18.6995C48.172 18.7619 48.3351 18.8514 48.4813 18.9631C48.814 19.2162 49.0029 19.5809 49.1569 19.9638Z" fill="#422724"/>
<path d="M53.5874 78.9124C53.1434 78.2712 51.6033 77.9129 51.0507 77.8065C50.5446 77.7091 50.014 77.7377 49.5131 77.6157C48.8194 77.4469 48.4557 76.9368 47.9988 76.4228C46.7978 75.0728 45.501 75.4479 44.3064 76.3838C43.029 76.2683 41.7632 76.0827 40.5039 75.8192C40.4159 75.801 40.3408 75.8282 40.2865 75.8789C40.2502 75.8983 40.2192 75.9295 40.1946 75.9775C39.6458 77.0835 38.8745 78.2413 38.6751 79.4849C38.6493 79.6432 38.7593 79.7276 38.8796 79.7328C38.912 79.7587 38.9508 79.7782 38.9974 79.786C41.0358 80.1196 43.1351 80.1417 45.1955 80.1572C46.6451 80.1676 53.6599 80.4986 53.6935 79.7912C53.6974 79.6575 53.6676 79.0266 53.5874 78.9111V78.9124Z" fill="#C76C56"/>
<path d="M44.265 75.0162C44.617 73.7038 43.9013 72.3409 42.6148 71.9151C40.0884 71.0792 37.5336 70.3276 35.028 69.428C31.7484 68.252 28.5283 66.9111 25.4169 65.3379C23.3746 64.3046 18.6882 62.8327 18.4876 62.9676C15.7826 64.7888 15.3956 68.8219 15.912 71.7684C16.277 73.8505 17.4276 74.911 19.2525 75.7846C23.3371 77.7395 33.2691 80.2148 41.0643 80.5731C41.6079 80.5978 42.1204 80.3109 42.378 79.8293C43.1869 78.3145 43.8171 76.688 44.265 75.0162Z" fill="#783E3E"/>
<path d="M45.7726 25.4404C45.1824 25.3158 45.374 24.5175 45.4245 24.0943C45.4361 24.0008 45.2924 23.9723 45.2808 24.0657C45.2187 24.5798 45.0491 25.4365 45.7441 25.5844C45.836 25.6039 45.8645 25.4598 45.7726 25.4404Z" fill="#963E29"/>
<path d="M46.5286 25.0442L46.0174 25.0831C45.9229 25.0909 45.9346 25.2363 46.029 25.2298L46.5403 25.1908C46.6347 25.183 46.6231 25.0377 46.5286 25.0442Z" fill="#963E29"/>
<path d="M48.7507 23.6256C48.3599 23.9047 47.903 23.9904 47.4371 23.8787C47.2533 23.8346 47.199 24.1228 47.3814 24.1669C47.9211 24.2967 48.3573 24.3253 48.9177 23.8671C49.064 23.7476 48.9048 23.5166 48.7507 23.6256Z" fill="#211717"/>
<path d="M44.63 23.9616C44.3582 24.0538 44.0618 24.033 43.8211 23.889C43.6451 23.7825 43.4458 23.9876 43.6011 24.12C43.9427 24.4108 44.3077 24.4212 44.7413 24.2459C44.9393 24.1654 44.8345 23.8941 44.63 23.9629V23.9616Z" fill="#211717"/>
<path d="M49.1274 22.8221C49.117 22.6949 49.0368 22.569 48.9371 22.4846C48.6084 22.2081 48.0351 22.164 47.6429 22.2133C47.3841 22.2458 47.089 22.3353 46.8961 22.5391C46.5156 22.9415 46.768 23.4569 47.2753 23.3128C47.6481 23.2063 48.0156 23.1557 48.4039 23.1661C48.589 23.1713 48.8854 23.218 49.0381 23.0635C49.1093 22.9909 49.1339 22.9065 49.1274 22.8234V22.8221Z" fill="#422724"/>
<path d="M44.1665 22.2598C43.8416 22.2507 43.5064 22.3585 43.3369 22.5428C43.1233 22.7751 43.2152 23.0776 43.5233 23.1074C43.7705 23.1321 44.0099 23.1139 44.2558 23.1788C44.424 23.223 44.679 23.3294 44.8447 23.2346C45.0543 23.1126 45.0039 22.792 44.8913 22.6064C44.7347 22.3494 44.4292 22.2676 44.1665 22.2598Z" fill="#422724"/>
<path d="M47.2988 26.5798C47.26 26.5006 47.0296 26.5993 46.9752 26.611C46.8134 26.646 46.6504 26.672 46.486 26.6837C46.1689 26.7083 45.8285 26.6992 45.5166 26.6317C45.4998 26.6278 45.4856 26.6317 45.4739 26.6369C45.4558 26.6343 45.4377 26.6304 45.4183 26.6278C45.3574 26.6175 45.3057 26.6889 45.3445 26.7421C45.8156 27.3872 46.8316 27.1626 47.3622 26.7213C47.4386 26.6577 47.3842 26.5084 47.3001 26.5798H47.2988Z" fill="#963E29"/>
<path d="M46.3034 42.5352C46.0084 42.7001 45.8142 42.9558 45.6964 43.2712C45.6162 43.4841 45.6149 43.7216 45.5127 43.9228C45.4208 44.1071 45.2616 44.1941 45.1322 44.3512C44.6041 44.9937 44.7012 46.0542 44.6598 46.8279C44.5459 48.9398 44.2391 51.114 44.8125 53.1831C44.8371 53.274 44.9794 53.235 44.9536 53.1442C44.419 51.2166 44.6766 49.2228 44.7827 47.2549C44.8073 46.7863 44.8306 46.3177 44.8591 45.8504C44.885 45.426 44.9212 44.9691 45.1412 44.5939C45.2448 44.4161 45.4001 44.3032 45.5256 44.1669C45.5282 44.1669 45.5295 44.1695 45.5321 44.1708C45.7146 44.2305 45.5916 44.9275 45.5826 45.0664C45.5606 45.3766 45.5463 45.6882 45.5386 45.9997C45.5243 46.6228 45.5411 47.2445 45.5839 47.8663C45.5903 47.9598 45.7366 47.9611 45.7301 47.8663C45.6744 47.0537 45.6641 46.2385 45.7068 45.426C45.7262 45.0625 45.8013 44.6718 45.7599 44.3096C45.7456 44.1837 45.721 44.1007 45.6188 44.05C45.6602 43.9864 45.6952 43.9163 45.7146 43.832C45.8246 43.3582 45.9126 42.922 46.3759 42.6637C46.4588 42.6183 46.385 42.4911 46.3022 42.5365L46.3034 42.5352Z" fill="#963E29"/>
<path d="M44.6688 44.0664C44.6429 43.9755 44.5019 44.0144 44.5278 44.1053C44.6015 44.3649 44.6313 44.6271 44.6196 44.8971C44.6158 44.9919 44.762 44.9919 44.7659 44.8971C44.7775 44.6141 44.7452 44.339 44.6688 44.0664Z" fill="#963E29"/>
<path d="M45.3689 42.5497C45.3068 42.4783 45.2032 42.5835 45.2654 42.6536C45.4841 42.9028 45.3508 43.448 45.2977 43.7348C45.2809 43.827 45.422 43.8672 45.4388 43.7738C45.5061 43.4064 45.6407 42.8599 45.3689 42.5497Z" fill="#963E29"/>
<path d="M46.5971 43.7779C46.6243 43.4391 46.6903 43.1016 46.6347 42.7641C46.6191 42.6707 46.4781 42.7109 46.4936 42.8031C46.5544 43.1678 46.4677 43.5534 46.4405 43.9181C46.4134 44.292 46.3978 44.6671 46.3901 45.0422C46.3745 45.7938 46.3913 46.5454 46.4082 47.2969C46.4108 47.3917 46.557 47.3917 46.5544 47.2969C46.5376 46.4986 46.5195 45.7003 46.5402 44.902C46.5492 44.5269 46.5674 44.1518 46.5984 43.7779H46.5971Z" fill="#963E29"/>
<path d="M47.0477 43.8035C47.0528 43.7087 46.9066 43.71 46.9014 43.8035C46.8328 44.9795 46.8341 46.1582 46.904 47.3342C46.9092 47.4276 47.0554 47.4289 47.0503 47.3342C46.9791 46.1582 46.9791 44.9808 47.0477 43.8035Z" fill="#963E29"/>
<path d="M34.4144 52.7189C33.3571 52.5943 32.2984 52.6241 31.2487 52.802C31.1555 52.8175 31.1957 52.959 31.2876 52.9435C32.3242 52.7669 33.37 52.7436 34.4144 52.8656C34.5076 52.876 34.5076 52.7293 34.4144 52.7189Z" fill="#963E29"/>
<path d="M65.4787 53.3327C64.3489 53.1276 63.2047 53.0549 62.058 53.1185C61.9649 53.1237 61.9636 53.2704 62.058 53.2652C63.1918 53.2029 64.3217 53.2717 65.4399 53.4742C65.5318 53.491 65.5719 53.3496 65.4787 53.3327Z" fill="#963E29"/>
<path d="M38.8938 49.7099C38.4602 47.7927 38.1496 45.8508 37.9632 43.8933C37.9542 43.7999 37.8079 43.7986 37.817 43.8933C38.0047 45.8638 38.3166 47.8186 38.7527 49.7488C38.7734 49.841 38.9145 49.8021 38.8938 49.7099Z" fill="#C76C56"/>
<path d="M61.1561 48.2978C60.7083 49.5595 60.1984 50.7978 59.6289 52.0089C59.5888 52.0933 59.7156 52.1686 59.7557 52.0829C60.3304 50.8601 60.8455 49.6101 61.2985 48.3367C61.3295 48.2472 61.1885 48.2095 61.1574 48.2978H61.1561Z" fill="#C76C56"/>
<path d="M58.1664 65.2322C57.5658 65.5411 56.9446 65.8007 56.3027 66.0097C56.2133 66.0382 56.2522 66.181 56.3415 66.1512C56.9951 65.937 57.628 65.6735 58.2401 65.3581C58.3243 65.3152 58.2505 65.188 58.1664 65.2309V65.2322Z" fill="#452B2B"/>
<path d="M43.9296 74.1188C38.9584 72.9635 34.4997 70.4077 29.9479 68.1958C28.686 67.5831 27.4112 66.9951 26.1118 66.4655C26.0251 66.4304 25.9862 66.5719 26.073 66.607C30.7477 68.5164 35.0731 71.1917 39.7945 72.9947C41.1314 73.5048 42.4969 73.9384 43.8908 74.2616C43.9826 74.2824 44.0215 74.1409 43.9296 74.1201V74.1188Z" fill="#452B2B"/>
<path d="M66.1583 68.3513C63.1103 68.5629 60.1206 69.3923 57.1296 69.9751C55.6024 70.2724 54.0713 70.5528 52.5364 70.815C51.7572 70.9474 50.9781 71.0759 50.1977 71.2005C49.4755 71.3147 48.7248 71.3835 48.0234 71.599C47.4759 71.7678 46.9479 72.0611 46.6062 72.5349C46.1558 73.1619 46.2956 73.8771 46.3603 74.5975C46.3693 74.691 46.5156 74.6923 46.5065 74.5975C46.4444 73.9108 46.2956 73.2112 46.7317 72.6089C47.1459 72.039 47.8305 71.7729 48.4932 71.6289C49.8832 71.3264 51.3146 71.1719 52.7163 70.9318C55.5675 70.4424 58.4032 69.8817 61.2337 69.282C62.8605 68.9367 64.4952 68.6135 66.157 68.498C66.2502 68.4915 66.2514 68.3448 66.157 68.3513H66.1583Z" fill="#452B2B"/>
<path d="M30.2742 67.2471C29.785 66.8045 29.2828 66.3774 28.7638 65.9686C28.3613 65.6505 27.951 65.2806 27.4618 65.1054C27.3725 65.0729 27.335 65.2157 27.423 65.2468C27.9627 65.4403 28.4351 65.8894 28.8738 66.2424C29.3165 66.5981 29.7487 66.9694 30.1707 67.351C30.2406 67.4146 30.3441 67.3107 30.2742 67.2471Z" fill="#452B2B"/>
<path d="M53.8811 34.8875C52.2944 36.8723 49.5286 37.7121 47.1122 36.9372C47.0229 36.9086 46.9841 37.0501 47.0734 37.0787C49.535 37.8679 52.3681 37.0138 53.9859 34.9914C54.0442 34.9187 53.9419 34.8136 53.8824 34.8875H53.8811Z" fill="#C76C56"/>
<path d="M41.9405 25.1402C42.2252 24.6249 42.4142 24.0681 42.5229 23.4891C42.5397 23.397 42.3986 23.3567 42.3818 23.4502C42.2382 24.2186 41.9379 24.9157 41.5069 25.5647C41.1148 26.154 40.6631 26.7109 40.3835 27.3677C39.9642 28.3568 40.0612 29.747 41.2312 30.1481C41.3205 30.1793 41.3594 30.0365 41.2701 30.0066C40.6229 29.7847 40.267 29.1123 40.28 28.4477C40.2929 27.7974 40.588 27.1964 40.9323 26.6603C41.261 26.1475 41.6454 25.6724 41.9405 25.1376V25.1402Z" fill="#331A17"/>
<path d="M43.3447 29.1231C42.9383 29.1945 42.4931 29.2204 42.1644 28.9232C41.8524 28.6402 41.7864 28.2001 41.9534 27.8211C41.9909 27.7354 41.8654 27.6602 41.8266 27.7471C41.6441 28.1612 41.6868 28.6285 42.0013 28.9686C42.3663 29.3619 42.893 29.3515 43.3835 29.2658C43.4767 29.249 43.4366 29.1075 43.3447 29.1244V29.1231Z" fill="#331A17"/>
<path d="M51.1541 17.8325C51.0881 17.765 50.9846 17.8688 51.0506 17.9363C52.6101 19.5316 52.4406 21.8954 52.2478 23.9437C52.2387 24.0371 52.3849 24.0371 52.394 23.9437C52.5907 21.8525 52.7434 19.4576 51.1541 17.8325Z" fill="#331A17"/>
<path d="M53.8473 20.4882C53.8227 20.3974 53.6804 20.4363 53.7062 20.5272C53.9133 21.2723 53.6467 21.9758 53.3426 22.6521C53.3037 22.7378 53.4306 22.8117 53.4694 22.7261C53.7904 22.0147 54.0648 21.271 53.8473 20.4882Z" fill="#331A17"/>
<path d="M52.71 25.4054C52.5365 26.0337 52.4667 26.684 52.3113 27.3174C52.1263 28.0755 51.782 28.6479 51.2048 29.1697C50.7932 29.541 50.2729 29.9447 50.1474 30.5184C50.0568 30.9312 50.2457 31.3544 50.6599 31.4803C50.7505 31.5075 50.7893 31.366 50.6987 31.3388C50.2121 31.1921 50.2004 30.6482 50.3959 30.2679C50.5369 29.994 50.7647 29.7694 50.9873 29.5618C51.3627 29.2113 51.7639 28.8946 52.0318 28.4467C52.5715 27.5446 52.5767 26.4373 52.8498 25.4456C52.8743 25.3548 52.7333 25.3158 52.7087 25.4067L52.71 25.4054Z" fill="#331A17"/>
<path d="M52.4044 22.9312C51.5748 23.1025 51.2499 24.1072 51.1917 24.8432C51.1658 25.1703 51.0648 25.635 51.5101 25.6661C52.2089 25.7142 52.6076 25.0652 52.7797 24.4732C52.8884 24.0968 53.1589 22.7754 52.4044 22.9312Z" fill="#C76C56"/>
<path d="M52.509 23.3678C51.8723 23.569 51.6432 24.2102 51.4775 24.797C51.4516 24.8878 51.5953 24.9151 51.6212 24.8255C51.7726 24.2907 51.9745 23.691 52.5582 23.5067C52.6475 23.4781 52.5983 23.3406 52.509 23.3691V23.3678Z" fill="#963E29"/>
<path d="M21.0306 55.3577C21.0332 55.2591 20.9361 55.1942 20.8455 55.2162C20.6902 55.2539 20.5245 55.2993 20.4067 55.4161C20.3576 55.4642 20.3187 55.5239 20.2942 55.5888C20.2126 55.7329 20.223 55.9379 20.4171 56.0223C20.5685 56.1171 20.7808 56.1067 20.8675 55.9237C20.8688 55.9211 20.8675 55.9185 20.8701 55.9159C21.0125 55.7653 21.0267 55.5511 21.0319 55.359L21.0306 55.3577Z" fill="#EB8382"/>
<path d="M16.6949 58.3023C16.6587 58.2192 16.6108 58.14 16.5163 58.1153C16.4257 58.0933 16.3351 58.14 16.2885 58.2179C16.1954 58.3762 16.2627 58.6021 16.3584 58.7436C16.3817 58.7786 16.4128 58.7968 16.4451 58.8046C16.5034 58.8384 16.5746 58.8474 16.6393 58.8254C16.8593 58.7514 16.7596 58.4515 16.6949 58.301V58.3023Z" fill="#452B2B"/>
<path d="M22.2888 54.5997C22.158 54.6192 22.061 54.7282 21.9898 54.832C21.9445 54.8969 21.9782 54.9956 22.0429 55.0332C22.0455 55.0345 22.048 55.0332 22.0506 55.0358C22.0532 55.0423 22.0545 55.0488 22.0584 55.0566C22.0895 55.1137 22.1529 55.1527 22.2176 55.154C22.3625 55.1566 22.4764 54.9917 22.5127 54.8658C22.5554 54.7152 22.4467 54.5789 22.2901 54.601L22.2888 54.5997Z" fill="#452B2B"/>
<path d="M61.4265 22.1209C60.5542 22.2066 60.0352 23.1724 59.9822 23.8564C59.9472 24.3133 60.1621 24.7495 60.6409 24.8222C61.4253 24.9403 62.1591 24.1446 62.4102 23.4657C62.7001 22.6804 62.3066 22.0353 61.4265 22.1209Z" fill="#452B2B"/>
<path d="M61.2478 23.7253C61.2387 23.65 61.1792 23.589 61.1119 23.5799C61.0743 23.5682 61.0329 23.5695 61.0006 23.5942C60.9255 23.6526 60.8699 23.7292 60.8569 23.82C60.844 23.8447 60.8323 23.8706 60.822 23.8979C60.7922 23.9706 60.8543 24.0589 60.9242 24.0783C60.9889 24.0965 61.0433 24.0692 61.0782 24.0212C61.1869 23.9628 61.2659 23.8564 61.2491 23.7253H61.2478Z" fill="#5D5EA3"/>
<path d="M74.6602 45.9966C73.3659 45.5683 71.9526 45.4943 70.9755 45.5774C70.1976 45.6436 68.4698 45.6501 68.1644 46.6677C67.9444 47.3972 68.994 48.1462 69.2451 48.7212C69.7822 49.9479 68.1035 50.2607 67.4357 50.4996C66.5828 50.8046 65.6781 50.9214 64.7761 50.9513C63.3097 51.0006 61.4874 50.3243 60.219 51.3355C59.4088 51.9806 59.1914 53.4435 60.0585 54.2899C60.3407 54.5651 60.6811 54.7377 61.0241 54.8688C63.267 55.7216 65.6911 55.3413 67.8473 54.6858C69.2619 54.2561 70.6273 53.6603 72.0367 53.2138C73.3983 52.7828 74.8724 52.8088 76.2016 52.3103C77.2461 51.9183 78.0744 50.654 77.8246 49.2418C77.5127 47.4751 76.1667 46.4964 74.6602 45.9992V45.9966Z" fill="#452B2B"/>
<path d="M73.1521 47.8814C73.1314 47.8684 73.1094 47.8594 73.0887 47.8516C73.0473 47.8165 72.9968 47.7932 72.9373 47.7893C72.8674 47.7841 72.8053 47.8087 72.7561 47.849C72.7509 47.849 72.7445 47.8516 72.7393 47.8516C72.6642 47.8658 72.6202 47.9554 72.637 48.0268C72.6086 48.0632 72.593 48.1099 72.6086 48.154C72.6461 48.2643 72.7432 48.3422 72.8506 48.3669C72.914 48.3968 72.9839 48.4162 73.046 48.4162C73.1767 48.4162 73.2854 48.3241 73.3023 48.1943C73.3191 48.0735 73.2583 47.9463 73.1534 47.8827L73.1521 47.8814Z" fill="#FADAC3"/>
<path d="M70.1949 51.5327C70.169 51.5327 70.1431 51.5327 70.1173 51.5353C69.9361 51.5041 69.7574 51.5508 69.6021 51.6716C69.553 51.7105 69.5478 51.7988 69.5788 51.8494C69.6591 51.9792 69.7963 52.0324 69.9438 52.0259C70.0823 52.0194 70.2467 51.987 70.3399 51.8753C70.4538 51.7403 70.3748 51.5391 70.1923 51.5327H70.1949Z" fill="#452B2B"/>
<path d="M61.7306 52.9201C61.618 52.7942 61.4174 52.7189 61.275 52.7994C61.2284 52.8228 61.1922 52.8604 61.1741 52.9058C61.1715 52.9097 61.1689 52.9123 61.1663 52.9162C61.0382 53.1758 61.3824 53.3225 61.5817 53.329C61.649 53.3316 61.6905 53.2953 61.7099 53.2472C61.8302 53.168 61.816 53.0162 61.7306 52.9188V52.9201Z" fill="#452B2B"/>
<path d="M62.6677 53.5144C62.6496 53.3781 62.5034 53.3249 62.3908 53.3846C62.3157 53.4236 62.3067 53.4962 62.3312 53.556C62.3248 53.6196 62.3532 53.6858 62.4309 53.7091C62.5526 53.7468 62.6859 53.6455 62.6677 53.5144Z" fill="#452B2B"/>
<path d="M75.2178 49.6933C75.2075 49.6479 75.1635 49.5986 75.1156 49.5908C74.9551 49.5661 74.7946 49.6076 74.6846 49.7335C74.6328 49.7933 74.6264 49.8828 74.6846 49.9412C74.7131 49.9698 74.7558 49.9841 74.7959 49.9828C74.8878 50.0425 74.9913 50.0503 75.091 49.9919C75.1958 49.9296 75.245 49.8114 75.2178 49.6933Z" fill="#452B2B"/>
<path d="M76.2598 47.3877C76.098 47.3877 76.098 47.6395 76.2598 47.6395C76.4215 47.6395 76.4215 47.3877 76.2598 47.3877Z" fill="#E5EAFF"/>
<path d="M76.49 47.8921H76.4693C76.3075 47.8921 76.3075 48.1439 76.4693 48.1439H76.49C76.6518 48.1439 76.6518 47.8921 76.49 47.8921Z" fill="#E5EAFF"/>
<path d="M75.887 47.8037C75.8805 47.7972 75.8727 47.7894 75.8663 47.7829C75.7524 47.6687 75.5738 47.8465 75.689 47.9607C75.6954 47.9672 75.7032 47.975 75.7097 47.9815C75.8248 48.0957 76.0022 47.9179 75.887 47.8037Z" fill="#E5EAFF"/>
<path d="M70.0176 46.5895V46.6102C70.0176 46.7725 70.2687 46.7725 70.2687 46.6102V46.5895C70.2687 46.4272 70.0176 46.4272 70.0176 46.5895Z" fill="#E5EAFF"/>
<path d="M70.3941 47.0522H70.3734C70.2116 47.0522 70.2116 47.3041 70.3734 47.3041H70.3941C70.5559 47.3041 70.5559 47.0522 70.3941 47.0522Z" fill="#E5EAFF"/>
<path d="M66.8766 52.1572C66.7148 52.1572 66.7148 52.409 66.8766 52.409C67.0384 52.409 67.0384 52.1572 66.8766 52.1572Z" fill="#E5EAFF"/>
<path d="M63.9436 51.5679H63.8595C63.6977 51.5679 63.6977 51.8197 63.8595 51.8197H63.9436C64.1054 51.8197 64.1054 51.5679 63.9436 51.5679Z" fill="#E5EAFF"/>
<path d="M40.6745 45.1081C40.6642 45.0718 40.6448 45.0484 40.6202 45.0315C40.2617 44.0229 38.8173 43.4466 37.945 43.026C36.2327 42.2005 34.4259 41.545 32.8392 40.4767C31.2745 39.4226 29.8599 37.8429 29.6579 35.8881C29.4793 34.1461 30.5419 32.5884 32.0303 31.7706C32.35 31.5954 32.8107 31.354 32.6852 30.9074C32.2982 29.5367 30.0087 29.1538 28.8335 29.2511C27.1083 29.3965 25.2446 30.0936 24.2208 31.5448C23.1906 33.0051 22.6587 34.8185 22.7622 36.6059C22.8904 38.8385 24.0228 40.8245 25.7015 42.2602C27.5729 43.8594 30.0048 44.5512 32.2542 45.4287C34.1619 46.1738 36.0593 47.0824 38.1016 47.2252C39.5744 47.3278 41.1599 46.8981 40.6732 45.1068L40.6745 45.1081Z" fill="#7286E9"/>
<path d="M30.4061 30.7741C30.3763 30.73 30.3284 30.7053 30.2624 30.7326C30.2275 30.7469 30.1757 30.7715 30.1149 30.804C30.0023 30.8429 29.8923 30.9026 29.8094 30.952C29.6218 31.0623 29.4703 31.2129 29.3409 31.3855C29.2995 31.4413 29.3073 31.4959 29.3409 31.5361C29.3409 31.5984 29.3616 31.6594 29.4186 31.7152C29.4613 31.7568 29.5092 31.7749 29.5596 31.7775C29.7344 31.8333 29.9181 31.7048 30.0502 31.6062C30.2171 31.4829 30.3724 31.331 30.4863 31.1558C30.5704 31.026 30.586 30.8209 30.4061 30.7728V30.7741Z" fill="#5D5EA3"/>
<path d="M25.4324 39.1044C25.3767 38.9188 25.2745 38.6203 25.1179 38.4281C25.0143 38.2581 24.8707 38.1062 24.7024 38.1387C24.3983 38.1971 24.5342 38.6968 24.6053 38.8838C24.6183 38.9188 24.6416 38.9694 24.6701 39.0266C24.7089 39.1486 24.7684 39.2875 24.85 39.3874C24.9237 39.4977 25.0156 39.586 25.1321 39.6237C25.4893 39.7366 25.4997 39.3368 25.4311 39.107L25.4324 39.1044Z" fill="#5D5EA3"/>
<path d="M28.4207 31.1233C28.3029 31.1636 28.1852 31.2804 28.1088 31.3764C28.026 31.4803 27.9561 31.6309 28.0221 31.762C28.0467 31.8126 28.0842 31.8476 28.1282 31.8684C28.1696 31.9138 28.224 31.9424 28.29 31.9333C28.4142 31.9164 28.5346 31.7853 28.6006 31.688C28.6718 31.5815 28.7171 31.4439 28.7106 31.3154C28.7029 31.1597 28.5657 31.074 28.422 31.1233H28.4207Z" fill="#EB8382"/>
<path d="M34.694 43.4511C34.6642 43.3395 34.5464 43.2551 34.4545 43.1967C34.3575 43.1344 34.2332 43.0786 34.1167 43.0695C33.9938 43.0604 33.9006 43.1487 33.9084 43.2733C33.9096 43.2966 33.9174 43.32 33.9265 43.3434C33.9265 43.3771 33.9355 43.4122 33.9627 43.4433C34.0675 43.5615 34.2397 43.7237 34.4144 43.7432C34.4183 43.7432 34.4235 43.7432 34.4273 43.7432C34.4662 43.7458 34.505 43.7432 34.5425 43.7302C34.6564 43.6887 34.7237 43.5705 34.6927 43.4511H34.694Z" fill="#FADAC3"/>
<path d="M31.2655 41.8439C31.2228 41.6142 31.0766 41.4156 30.8747 41.3C30.7879 41.2507 30.6909 41.2987 30.6598 41.3883C30.6521 41.4104 30.6469 41.4311 30.643 41.4532C30.6301 41.4805 30.6236 41.5129 30.6352 41.5519C30.6352 41.5545 30.6365 41.5571 30.6378 41.5584C30.6482 41.705 30.7297 41.8426 30.8591 41.9192C30.8798 41.9322 30.9005 41.9374 30.92 41.94C30.9704 41.9737 31.0261 42.0023 31.0856 42.0244C31.1995 42.0646 31.2849 41.9439 31.2655 41.8439Z" fill="#FADAC3"/>
<path d="M25.7067 33.9154C25.6717 33.8258 25.5384 33.7544 25.462 33.8505C25.396 33.9335 25.3533 34.0257 25.3339 34.1218C25.2757 34.1477 25.2356 34.2048 25.2614 34.284C25.2783 34.3333 25.2938 34.3827 25.3106 34.4333C25.3482 34.5449 25.4685 34.5683 25.5552 34.4982C25.7222 34.3619 25.7869 34.1153 25.7079 33.9154H25.7067Z" fill="#5D5EA3"/>
<path d="M37.4688 45.0872C37.3795 45.1041 37.3303 45.2287 37.3808 45.3027C37.439 45.3883 37.5219 45.452 37.6164 45.4818C37.6746 45.5259 37.7406 45.5571 37.817 45.5532C37.9322 45.5467 38.0344 45.4545 38.0512 45.3416C38.0952 45.0418 37.6526 45.0522 37.4688 45.0885V45.0872Z" fill="#5D5EA3"/>
<path d="M28.8399 37.2852C28.6781 37.2852 28.6781 37.537 28.8399 37.537C29.0017 37.537 29.0017 37.2852 28.8399 37.2852Z" fill="#E5EAFF"/>
<path d="M29.5104 38.125C29.3487 38.125 29.3487 38.3768 29.5104 38.3768C29.6722 38.3768 29.6722 38.125 29.5104 38.125Z" fill="#E5EAFF"/>
<path d="M26.6618 30.814C26.5 30.814 26.5 31.0658 26.6618 31.0658C26.8236 31.0658 26.8236 30.814 26.6618 30.814Z" fill="#E5EAFF"/>
<path d="M23.645 34.3438C23.4832 34.3438 23.4832 34.5956 23.645 34.5956C23.8067 34.5956 23.8067 34.3438 23.645 34.3438Z" fill="#E5EAFF"/>
<path d="M30.0126 42.7461C29.8509 42.7461 29.8509 42.9979 30.0126 42.9979C30.1744 42.9979 30.1744 42.7461 30.0126 42.7461Z" fill="#E5EAFF"/>
<path d="M36.9665 43.3354C36.8048 43.3354 36.8048 43.5873 36.9665 43.5873C37.1283 43.5873 37.1283 43.3354 36.9665 43.3354Z" fill="#E5EAFF"/>
<path d="M52.984 65.8975C52.2722 64.3347 49.0159 64.1919 47.6168 64.1062C45.1681 63.9557 42.7129 64.3594 40.2668 64.1828C37.2887 63.9686 34.3042 63.7168 31.3805 63.1249C28.475 62.5382 26.0936 61.0273 23.4106 59.8941C22.6366 59.567 21.4019 59.2204 21.125 58.3026C21.0111 57.9262 21.1638 57.5108 21.4188 57.2123C22.2497 56.24 23.685 55.8428 24.6932 55.0913C26.4935 53.7504 22.5331 53.5855 21.9028 53.6154C20.3031 53.6907 18.7255 54.1982 17.3678 55.051C14.3949 56.9176 15.2621 60.6703 17.4636 62.1682C20.6138 64.3113 25.6885 64.2516 29.2994 64.6981C31.5488 64.9759 33.7775 65.4251 35.9596 66.0403C38.1585 66.6595 40.2513 67.7174 42.5304 67.9731C45.6262 68.3197 48.7311 68.8662 51.6574 67.4643C52.245 67.1826 53.3632 66.7348 52.984 65.8988V65.8975Z" fill="#7286E9"/>
<path d="M49.0625 66.0274C48.7545 65.8989 48.4141 65.9703 48.163 66.1832C48.0944 66.2416 48.1126 66.3688 48.1902 66.4117C48.2588 66.609 48.5202 66.5428 48.6781 66.5103C48.8671 66.4714 49.1143 66.4259 49.1661 66.2079C49.1868 66.1235 49.1389 66.0586 49.0638 66.0274H49.0625Z" fill="#452B2B"/>
<path d="M22.9086 62.5915C22.8089 62.3954 22.6627 62.2293 22.4802 62.106C22.3417 62.0112 22.0816 61.8619 21.9159 61.9684C21.7515 62.0735 21.7787 62.3033 21.9042 62.4253C22.0764 62.5927 22.3456 62.7005 22.5514 62.8212C22.6161 62.8588 22.6782 62.8407 22.7196 62.8004C22.7274 62.803 22.7338 62.8069 22.7416 62.8082C22.8697 62.8459 22.9629 62.7031 22.9073 62.5928L22.9086 62.5915Z" fill="#EB8382"/>
<path d="M23.9997 62.7606C23.9388 62.4841 23.6658 62.3258 23.3953 62.3647C23.3176 62.3764 23.2736 62.4764 23.293 62.5452C23.306 62.5893 23.3228 62.6282 23.3435 62.6659C23.3383 62.7048 23.3487 62.7451 23.3875 62.7801C23.46 62.845 23.5441 62.8917 23.6347 62.919C23.6373 62.919 23.6399 62.9216 23.6425 62.9229C23.6541 62.9281 23.6671 62.9294 23.68 62.9294C23.7382 62.9424 23.7978 62.9501 23.8599 62.9437C23.957 62.9346 24.023 62.858 24.001 62.758L23.9997 62.7606Z" fill="#452B2B"/>
<path d="M37.9024 65.5342C37.7407 65.3589 37.5077 65.2927 37.276 65.3343C37.166 65.3537 37.1363 65.5082 37.2113 65.5796C37.3123 65.6757 37.4288 65.7289 37.5621 65.7496C37.6384 65.7704 37.7174 65.7821 37.7989 65.7847C37.9309 65.7873 37.9853 65.625 37.9024 65.5342Z" fill="#452B2B"/>
<path d="M24.9753 60.407C24.0771 59.4971 22.867 59.4244 23.0274 57.8304C23.0883 57.2203 23.1167 56.3922 22.401 56.1533C21.7643 55.9404 21.0667 56.4363 20.6913 56.9075C20.3303 57.3579 20.1465 57.981 20.0843 58.5469C20.0067 59.2492 20.1711 59.7489 20.6266 60.2798C21.1806 60.925 21.8173 61.1846 22.5978 61.4792C23.2397 61.722 24.4317 62.101 25.0775 61.6389C25.5499 61.3001 25.3118 60.7471 24.9753 60.407ZM24.3696 61.5247C24.0641 61.6142 23.6992 61.5428 23.3808 61.4481C22.9446 61.3183 22.5162 61.1612 22.0995 60.9769C20.6435 60.3343 19.8695 58.7079 20.7729 57.2502C20.9787 56.9179 21.2802 56.6245 21.6581 56.5233C22.0348 56.422 22.489 56.557 22.678 56.8997C22.9019 57.3047 22.7026 57.8018 22.6922 58.2653C22.6845 58.6222 22.7997 58.9818 23.0132 59.2673C23.4015 59.7892 24.0577 60.0267 24.5534 60.446C24.7074 60.5758 24.8549 60.7432 24.864 60.9444C24.8717 61.108 24.7811 61.2663 24.6556 61.3715C24.5689 61.4442 24.4731 61.4922 24.3683 61.5234L24.3696 61.5247Z" fill="#E5EAFF"/>
<path d="M18.5133 58.9414C18.3515 58.9414 18.3515 59.1932 18.5133 59.1932C18.6751 59.1932 18.6751 58.9414 18.5133 58.9414Z" fill="#E5EAFF"/>
<path d="M18.639 60.0127H18.5756C18.4138 60.0127 18.4138 60.2645 18.5756 60.2645H18.639C18.8008 60.2645 18.8008 60.0127 18.639 60.0127Z" fill="#E5EAFF"/>
<path d="M19.6447 61.021C19.4829 61.021 19.4829 61.2728 19.6447 61.2728C19.8064 61.2728 19.8064 61.021 19.6447 61.021Z" fill="#E5EAFF"/>
<path d="M29.8239 63.1636C29.6621 63.1636 29.6621 63.4154 29.8239 63.4154C29.9857 63.4154 29.9857 63.1636 29.8239 63.1636Z" fill="#E5EAFF"/>
<path d="M40.5685 65.2437C40.4068 65.2437 40.4068 65.4955 40.5685 65.4955C40.7303 65.4955 40.7303 65.2437 40.5685 65.2437Z" fill="#E5EAFF"/>
<path d="M41.8252 66.63V66.6936C41.8252 66.8559 42.0763 66.8559 42.0763 66.6936V66.63C42.0763 66.4677 41.8252 66.4677 41.8252 66.63Z" fill="#E5EAFF"/>
<path d="M44.2764 66.5039H44.1508C43.989 66.5039 43.989 66.7557 44.1508 66.7557H44.2764C44.4381 66.7557 44.4381 66.5039 44.2764 66.5039Z" fill="#E5EAFF"/>
<path d="M50.7477 65.1177H50.6843C50.5225 65.1177 50.5225 65.3695 50.6843 65.3695H50.7477C50.9095 65.3695 50.9095 65.1177 50.7477 65.1177Z" fill="#E5EAFF"/>
<path d="M59.7012 64.4107C58.6114 64.7469 57.928 66.0437 59.0786 66.7991C59.8992 67.3378 61.2995 67.0016 61.7228 66.0878C62.331 64.7742 60.7573 64.0862 59.7012 64.4107Z" fill="#452B2B"/>
<path d="M60.3209 65.7399C60.2679 65.6491 60.1488 65.6049 60.0478 65.6309C59.943 65.6569 59.8757 65.7451 59.8226 65.8347C59.8084 65.8581 59.8045 65.8814 59.8032 65.9035C59.7968 65.9411 59.7981 65.9814 59.8123 66.019C59.8291 66.0632 59.8628 66.1151 59.9145 66.1216C60.0362 66.1384 60.1501 66.1203 60.2484 66.0398C60.3365 65.9671 60.3818 65.8464 60.3209 65.7399Z" fill="#5D5EA3"/>
<path d="M60.8853 64.9277H60.8439C60.6821 64.9277 60.6821 65.1796 60.8439 65.1796H60.8853C61.0471 65.1796 61.0471 64.9277 60.8853 64.9277Z" fill="#E5EAFF"/>
<path d="M60.9282 65.6855C60.7664 65.6855 60.7664 65.9374 60.9282 65.9374C61.09 65.9374 61.09 65.6855 60.9282 65.6855Z" fill="#E5EAFF"/>
<path d="M81.3681 67.7123C81.3578 67.6902 81.3487 67.6682 81.3384 67.6474C80.9022 66.7141 80.136 65.9028 79.3336 65.2733C78.6567 64.7424 77.9966 64.1608 77.2317 63.7506C75.2826 62.7044 76.5367 66.9127 76.3866 67.624C76.1536 68.7313 75.3473 69.2803 74.409 69.6581C73.3568 70.0812 73.3283 71.561 74.3676 72.0166C74.3766 72.0205 74.3844 72.0244 74.3935 72.0283C75.7861 72.6397 77.3715 72.9564 78.8353 72.5475C80.9294 71.9621 82.3039 69.8048 81.3668 67.7136L81.3681 67.7123Z" fill="#452B2B"/>
<path d="M76.9379 68.8264C76.8835 68.7083 76.7528 68.646 76.6273 68.6888C76.503 68.7317 76.4357 68.8394 76.3762 68.9536C76.371 68.9575 76.3658 68.9601 76.3607 68.9653C76.2908 69.0406 76.2209 69.1146 76.151 69.1899C76.1135 69.2301 76.0708 69.2717 76.041 69.3184C75.953 69.3781 75.9659 69.5092 76.041 69.5637C76.0811 69.6131 76.1458 69.6442 76.2183 69.6442C76.4979 69.6416 76.7761 69.4378 76.903 69.1951C76.9612 69.0834 76.991 68.9458 76.9366 68.8264H76.9379Z" fill="#5D5EA3"/>
<path d="M77.3754 67.6071C77.2357 67.4799 77.0868 67.6019 77.0312 67.7434C76.9768 67.8823 76.9898 68.0264 77.0467 68.1601C77.0493 68.2626 77.1528 68.3613 77.2615 68.2886C77.466 68.1523 77.5851 67.7966 77.3754 67.6071Z" fill="#5D5EA3"/>
<path d="M79.472 66.3857C79.4357 66.2546 79.3361 66.1443 79.2235 66.0742C79.1432 66.0249 79.0319 66.0716 79.0086 66.1625C78.9763 66.2845 79.0099 66.4221 79.1122 66.5025C79.1173 66.5064 79.1238 66.509 79.1303 66.5129C79.1303 66.5726 79.1588 66.6323 79.2299 66.6557C79.3969 66.7128 79.5147 66.535 79.4733 66.387L79.472 66.3857Z" fill="#5D5EA3"/>
<path d="M79.1264 70.7021C79.0734 70.5424 78.8818 70.5567 78.7589 70.6164C78.6734 70.6579 78.6048 70.728 78.5634 70.8124C78.5155 70.8682 78.4793 70.9318 78.4547 71.0032C78.4444 71.0331 78.4495 71.0642 78.4612 71.0941C78.434 71.1395 78.4314 71.2018 78.4573 71.2472C78.5 71.3212 78.5854 71.3342 78.6579 71.3005C78.7822 71.2421 78.896 71.159 78.9866 71.0564C79.0695 70.963 79.1717 70.8371 79.1277 70.7047L79.1264 70.7021Z" fill="#5D5EA3"/>
<path d="M75.1906 70.915H75.1272C74.9654 70.915 74.9654 71.1669 75.1272 71.1669H75.1906C75.3524 71.1669 75.3524 70.915 75.1906 70.915Z" fill="#E5EAFF"/>
<path d="M78.8351 68.647C78.6734 68.647 78.6734 68.8988 78.8351 68.8988C78.9969 68.8988 78.9969 68.647 78.8351 68.647Z" fill="#E5EAFF"/>
<path d="M78.2698 65.4321C78.108 65.4321 78.108 65.684 78.2698 65.684C78.4316 65.684 78.4316 65.4321 78.2698 65.4321Z" fill="#E5EAFF"/>
<path d="M76.846 71.3564H76.8046C76.6428 71.3564 76.6428 71.6083 76.8046 71.6083H76.846C77.0078 71.6083 77.0078 71.3564 76.846 71.3564Z" fill="#E5EAFF"/>
<path d="M76.4694 70.3902V70.4318C76.4694 70.594 76.7205 70.594 76.7205 70.4318V70.3902C76.7205 70.228 76.4694 70.228 76.4694 70.3902Z" fill="#E5EAFF"/>
<path d="M77.0635 63.8757C77.0635 63.8524 77.0544 63.829 77.0376 63.8043C76.9574 63.694 76.8707 63.5889 76.7814 63.4876C76.7632 63.4656 76.7464 63.4435 76.7283 63.4227C76.7244 63.4175 76.7192 63.4162 76.7154 63.4123C75.8948 62.5271 74.7183 62.0234 73.494 62.1078C73.0397 62.1389 72.3421 62.2168 72.0548 62.6296C71.7843 63.019 72.0186 63.437 72.3628 63.6784C73.0539 64.1613 73.9923 64.0614 74.7416 64.4144C75.2283 64.6429 75.4185 64.9882 75.7253 65.3828C75.9039 65.6125 76.0993 65.7994 76.4021 65.8189C76.8176 65.8462 77.1813 65.5463 77.312 65.1634C77.4699 64.7039 77.3094 64.2639 77.0635 63.8757ZM77.0764 64.7376C76.9781 65.3867 76.4785 65.7475 75.9479 65.1816C75.6955 64.9129 75.5894 64.6104 75.2839 64.382C74.7196 63.9575 73.9962 63.8978 73.3322 63.7381C73.1562 63.6953 72.6708 63.6083 72.588 63.4798C72.3007 63.2657 72.2645 62.9593 72.7149 62.5491C72.8145 62.5167 72.9142 62.4894 73.0164 62.4699C73.4992 62.3648 74.0026 62.3674 74.4867 62.4661C75.2826 62.6283 75.988 63.0385 76.5251 63.6356C76.7348 63.8887 77.1308 64.3768 77.0752 64.7376H77.0764Z" fill="#E5EAFF"/>
</svg>
