<svg width="57" height="86" viewBox="0 0 57 86" fill="none" xmlns="http://www.w3.org/2000/svg">
<g clip-path="url(#clip0_385_13494)">
<path d="M49.4779 115.799C47.9317 116.637 42.8602 115.947 38.4227 116.85C33.9851 117.754 31.0203 118.917 24.5766 118.595C18.1329 118.273 11.4341 116.207 7.56861 116.334C3.70315 116.462 3.24703 111.495 3.24316 110.521C3.24316 104.91 7.83919 76.4459 10.1701 66.0336C10.6958 63.672 11.1094 61.923 11.3297 61.1125C11.5616 60.2322 11.8283 59.2201 12.1028 58.142C13.2044 53.853 14.4568 48.5402 14.2249 46.4461C13.935 43.8285 15.0444 30.5466 15.0444 30.5466C15.0444 30.5466 18.7978 29.135 19.9922 28.6502C21.1866 28.1655 26.9152 27.3589 26.9152 27.3589C26.9152 27.3589 33.1927 27.8242 34.5147 27.9212C35.8367 28.0181 42.0098 30.3061 42.2997 30.5659C42.5896 30.8258 42.6321 49.9557 42.953 51.5069C43.0612 52.0149 43.5753 54.458 44.2324 57.5526C44.7968 60.2167 45.4694 63.3695 46.0763 66.181C46.9189 70.059 47.6224 73.3281 47.7848 73.8051C48.1713 75.0344 49.59 87.184 50.3631 92.8729C51.1361 98.5619 51.024 114.958 49.4779 115.799Z" fill="#2F365C"/>
<path d="M24.9167 24.7411C24.9633 24.317 25.1529 23.9216 25.454 23.6203C26.2271 22.9805 29.8992 22.6315 30.626 22.7284C31.3527 22.8254 31.9711 22.3096 32.4698 22.4919C32.7916 22.6281 33.0499 22.8817 33.1926 23.2015C33.1926 23.2015 35.222 21.6775 35.2954 21.6271C35.3689 21.5767 36.0221 21.1656 35.5853 19.882C35.1485 18.5984 34.7427 17.6987 34.1358 17.625C33.5289 17.5514 32.7597 17.4815 31.2367 18.1369C29.7137 18.7923 28.4149 18.451 25.682 19.5175C22.9492 20.5839 22.1838 21.6775 22.4351 21.9916C22.6863 22.3057 24.9167 24.7411 24.9167 24.7411Z" fill="#3B2113"/>
<path d="M41.8087 8.91928C41.8087 10.0594 29.2189 16.1516 28.9058 16.1516C28.728 16.1516 23.8807 13.6504 20.1699 11.5524L19.8143 11.3508L19.7138 11.2732C19.5785 11.1995 19.4471 11.122 19.3272 11.0444C17.437 9.95081 16.0261 9.03949 16.0261 8.77192C16.0261 8.62455 18.7745 6.577 21.7393 4.50617L22.234 4.16492L22.8371 3.72283L23.5792 3.22257C26.1227 1.4775 28.4381 0 28.8749 0C29.7949 0 41.8087 8.62068 41.8087 8.91928Z" fill="#1F254A"/>
<path d="M22.4507 12.8634C22.4507 12.8634 23.6103 20.4836 23.9582 22.124C24.3448 23.8419 28.1522 25.7343 28.9099 25.7343C29.7564 25.7343 32.3385 24.6408 33.5059 22.1744C34.0664 20.9877 34.6423 10.8857 34.6423 10.8857L26.4939 9.54004L22.4507 12.8634Z" fill="#FA965C"/>
<path d="M25.6937 17.1444C25.6937 16.9737 25.5738 16.7217 25.3651 16.7333C25.1564 16.7449 25.0675 17.0435 25.0752 17.2336C25.0689 17.3346 25.0871 17.4357 25.1281 17.5282C25.1692 17.6207 25.2319 17.7019 25.311 17.7648C25.3485 17.7855 25.3915 17.7936 25.4339 17.7881C25.4763 17.7825 25.5159 17.7635 25.5468 17.7338C25.6697 17.5637 25.7223 17.3525 25.6937 17.1444Z" fill="#3B2113"/>
<path d="M32.4699 17.0204C32.4699 16.8498 32.3656 16.5938 32.153 16.5977C31.9404 16.6016 31.8437 16.8963 31.8476 17.0863C31.8371 17.1876 31.8513 17.29 31.889 17.3846C31.9267 17.4792 31.9868 17.5631 32.0641 17.6292C32.1013 17.6498 32.144 17.6583 32.1863 17.6534C32.2285 17.6485 32.2682 17.6306 32.2999 17.6021C32.4259 17.4358 32.4865 17.2287 32.4699 17.0204Z" fill="#3B2113"/>
<path d="M27.3442 21.5499C27.437 21.3288 28.0284 21.3754 28.6778 21.2823C29.2229 21.2086 29.7911 21.1155 29.9843 21.3521C30.1776 21.5886 29.8259 22.2789 28.7358 22.3487C27.6457 22.4185 27.2437 21.7942 27.3442 21.5499Z" fill="white"/>
<path d="M32.3808 23.6206V29.5306L29.1686 32.2141L25.7477 29.2087C25.7477 29.2087 25.6742 27.8282 25.5931 26.4631C25.5467 25.579 25.4964 24.7026 25.4616 24.2023C25.4616 23.9696 25.4384 23.8145 25.4346 23.7912L32.3808 23.6206Z" fill="#FA965C"/>
<path d="M30.796 25.6917C30.6646 26.0562 30.1157 26.8551 28.7628 27.0606C27.6379 27.2468 26.0879 26.5332 25.5931 26.285C25.5467 25.4009 25.4965 24.5244 25.4617 24.0242V23.9932C25.4617 23.9932 27.7346 25.6839 28.554 25.6917C29.3735 25.6995 30.4481 24.7455 30.6105 24.8269C30.7216 24.9375 30.7983 25.0782 30.8312 25.2317C30.8641 25.3852 30.8519 25.545 30.796 25.6917Z" fill="#E38149"/>
<path d="M22.4505 14.1122C22.4505 14.1122 22.1606 13.1427 22.2998 10.5484C22.3094 9.63742 22.3987 8.72908 22.5665 7.83379C22.5665 7.83379 24.0315 5.37905 28.9097 5.21617C29.9875 5.16787 31.0624 5.36343 32.0547 5.78834C33.047 6.21326 33.9313 6.85667 34.6422 7.67091C34.9459 8.51468 35.1078 9.40317 35.1215 10.3002C35.1485 11.6342 34.9746 13.484 34.9746 13.484C34.9746 13.484 33.1385 8.44263 28.067 8.86144C23.1424 9.27638 22.4505 14.1122 22.4505 14.1122Z" fill="#2F365C"/>
<path d="M19.7139 11.2733C19.6868 11.6611 19.6829 12.0489 19.6829 12.4367C19.754 12.4515 19.8187 12.4883 19.8679 12.5418C19.9171 12.5954 19.9484 12.663 19.9574 12.7353C19.9714 12.8042 19.9685 12.8755 19.949 12.9431C19.9295 13.0106 19.8939 13.0724 19.8453 13.1231V13.158C19.8709 13.18 19.8908 13.208 19.9033 13.2394C20.0424 13.6272 20.3401 13.9413 20.4831 14.3408C20.5449 14.5075 20.3749 14.6045 20.2396 14.5618C20.232 14.5915 20.2179 14.6191 20.1981 14.6424C20.1784 14.6658 20.1536 14.6844 20.1257 14.6967C20.0978 14.709 20.0674 14.7148 20.0369 14.7136C20.0064 14.7124 19.9765 14.7043 19.9497 14.6898C19.9477 14.7104 19.9477 14.7312 19.9497 14.7518C19.9568 14.8033 19.9433 14.8554 19.9122 14.8969C19.881 14.9383 19.8347 14.9657 19.7834 14.9729C19.7322 14.9801 19.6802 14.9666 19.6388 14.9353C19.5975 14.904 19.5703 14.8576 19.5631 14.8061C19.5472 14.7618 19.5343 14.7165 19.5244 14.6704C19.5244 14.6937 19.5244 14.7208 19.5244 14.748C19.5244 14.748 19.5244 14.7829 19.5244 14.8022C19.4935 15.0233 19.1379 14.9574 19.1379 14.748C19.1379 14.7247 19.1379 14.6975 19.1379 14.6704C19.11 14.6742 19.0815 14.6724 19.0543 14.665C19.027 14.6577 19.0015 14.645 18.9792 14.6277C18.9569 14.6104 18.9383 14.5888 18.9244 14.5641C18.9105 14.5395 18.9016 14.5124 18.8982 14.4843C18.877 14.0733 18.947 13.6627 19.1031 13.2821V13.2627C19.1031 13.2239 19.1031 13.1851 19.1031 13.1464C19.0483 13.0736 19.0172 12.9855 19.0142 12.8943C19.0157 12.8145 19.0383 12.7365 19.0797 12.6683C19.1212 12.6002 19.1799 12.5443 19.25 12.5065C19.25 12.0256 19.25 11.5448 19.2732 11.0639C19.3021 10.5351 19.4049 10.0129 19.5786 9.51273C19.5786 9.51273 19.5786 9.51273 19.5786 9.48946C19.9844 8.39976 20.6068 7.39925 21.059 6.33281C21.3003 5.7365 21.5068 5.12663 21.6775 4.5063L22.1723 4.16504C21.9669 4.95484 21.7152 5.73179 21.4185 6.49181C21.032 7.41088 20.5372 8.27954 20.1275 9.20637C20.0657 9.36619 20.0128 9.52931 19.969 9.69499C19.8198 10.2086 19.7341 10.7387 19.7139 11.2733Z" fill="#FFBB00"/>
<path d="M26.231 15.2676C26.1957 15.2044 26.1452 15.1511 26.0841 15.1125C25.9565 15.0463 25.8141 15.0142 25.6705 15.0194C25.1011 14.9829 24.5382 15.1582 24.0895 15.5119C24.0006 15.5817 23.9388 15.698 24.0393 15.7911C24.0667 15.8147 24.0988 15.8321 24.1335 15.8422C24.1682 15.8522 24.2046 15.8546 24.2403 15.8493C24.3105 15.8417 24.3794 15.8248 24.4452 15.7989C24.8542 15.7224 25.2701 15.69 25.686 15.7019C25.9334 15.7019 26.2039 15.667 26.2581 15.4615C26.273 15.3957 26.2634 15.3267 26.231 15.2676Z" fill="#3B2113"/>
<path d="M30.8888 15.2752C30.9229 15.2134 30.9721 15.1613 31.0318 15.1239C31.1508 15.0602 31.2835 15.0269 31.4184 15.027C31.9751 14.9918 32.5253 15.1629 32.9646 15.5078C33.0535 15.5776 33.1115 15.6901 33.0148 15.7832C32.988 15.8065 32.9566 15.8241 32.9227 15.8348C32.8888 15.8454 32.853 15.849 32.8177 15.8452C32.7493 15.8345 32.682 15.8176 32.6167 15.7948C32.2125 15.722 31.8015 15.6947 31.3913 15.7134C31.1478 15.7134 30.8811 15.6823 30.827 15.4807C30.8207 15.4068 30.8428 15.3333 30.8888 15.2752Z" fill="#3B2113"/>
<path d="M28.384 19.1995C28.4652 18.7807 28.5928 18.3696 28.6778 17.9508C28.7242 17.7065 28.3531 17.6018 28.2912 17.8461C28.1946 18.3502 28.0013 18.8582 27.9434 19.3701C27.9008 19.7579 28.1328 20.0332 28.2758 20.39C28.3686 20.6188 28.7435 20.518 28.6623 20.2892C28.4961 19.882 28.2951 19.6648 28.384 19.1995Z" fill="#E38149"/>
<path d="M26.285 11.5097C26.285 11.5097 26.1497 13.5184 24.82 14.2708C23.4903 15.0231 23.3975 17.3499 23.7338 18.1254C24.0701 18.901 23.9193 20.4522 23.9039 21.5923C23.9039 22.4416 25.3998 24.2604 24.7504 25.544C24.101 26.8276 21.9712 26.3893 21.5344 25.3733C21.0976 24.3573 20.2588 23.7136 19.3272 23.1551C18.3956 22.5967 18.1289 19.8201 18.8788 18.6335C19.6287 17.4468 20.2085 15.4613 20.6569 14.4414C21.3179 12.9368 23.1153 11.8548 23.7261 11.1645C24.3368 10.4743 26.285 11.5097 26.285 11.5097Z" fill="#3B2113"/>
<path d="M25.8984 11.8469C25.8984 11.8469 26.6445 13.1577 28.6622 13.1577C30.68 13.1577 31.167 12.7427 31.9633 13.1577C32.7596 13.5726 33.5095 14.1853 33.726 15.0152C33.9424 15.8451 33.4747 17.2799 33.726 18.2688C33.9772 19.2577 34.4488 21.0183 33.784 21.7589C33.1191 22.4996 32.5006 25.0397 33.6603 25.5244C34.8199 26.0092 35.9795 24.8458 36.8647 23.9733C37.7499 23.1007 39.3309 23.0464 39.7831 20.8709C40.2586 18.5752 38.121 18.3774 38.121 17.0899C38.121 15.8024 37.8813 15.8296 37.3015 13.8712C36.772 12.0912 34.4991 10.8929 34.4991 10.8929C34.4991 10.8929 32.5431 8.63598 31.6464 8.22491C30.7496 7.81385 30.68 7.79834 29.1841 8.03489C27.6881 8.27145 27.3286 7.56954 25.682 8.27533C24.0353 8.98111 22.5896 12.1067 22.5896 12.1067L25.8984 11.8469Z" fill="#3B2113"/>
<path d="M25.6008 26.5791C25.6008 26.5791 24.7543 26.8234 23.5212 27.091C22.2881 27.3586 21.1053 28.4017 21.4184 28.5724C21.7315 28.743 24.1242 28.933 25.1292 29.9025C26.1342 30.872 29.1686 32.2293 29.1686 32.2293C29.1686 32.2293 27.0581 30.0731 26.5672 29.0571C26.191 28.2534 25.8682 27.4255 25.6008 26.5791Z" fill="white"/>
<path d="M32.3809 26.4473C32.3809 26.4473 33.4942 26.8351 34.7273 27.091C35.9603 27.347 37.1432 28.4018 36.8262 28.5724C36.5092 28.743 34.1204 28.933 33.1192 29.9025C32.1181 30.872 29.0798 32.2293 29.0798 32.2293C29.0798 32.2293 31.0126 30.1623 31.5189 29.1269C31.8948 28.2649 32.1836 27.3671 32.3809 26.4473Z" fill="white"/>
<path d="M17.8275 38.3918L17.1858 60.6822C17.1858 60.6822 15.7711 63.3541 13.8383 64.9751C12.7289 65.9058 11.4495 66.4914 10.17 66.0183C9.99431 65.9506 9.82487 65.8675 9.66364 65.7701C5.99146 63.5519 4.89367 64.63 2.06029 61.7836C-0.77309 58.9372 -0.386545 53.5158 1.54618 50.6694C1.75105 50.3669 1.97911 50.0024 2.2265 49.5913C4.30998 46.1011 7.69226 39.1208 8.9292 36.383C10.8233 32.2142 15.0405 30.5234 15.0405 30.5234L17.8275 38.3918Z" fill="#2F365C"/>
<path d="M54.9514 61.7833C52.118 64.6297 51.0241 63.5517 47.3519 65.7699C46.9662 66.0088 46.5284 66.1498 46.0763 66.1809C44.2672 66.3011 42.5278 64.5755 41.3411 63.0243C40.7696 62.2877 40.2528 61.51 39.7949 60.6975L39.1687 38.3916L42.2997 30.5581C42.2997 30.5581 46.8841 33.5364 48.4303 36.5108C49.9765 39.4851 53.5366 47.8188 55.4693 50.6653C55.6874 50.9877 55.8787 51.3275 56.0414 51.6813C57.4484 54.6789 57.4794 59.251 54.9514 61.7833Z" fill="#2F365C"/>
<path d="M22.2148 28.7588C22.2148 28.7588 27.7695 42.9443 28.6779 42.8474C29.5863 42.7504 35.7517 28.8208 35.7517 28.8208L32.381 29.5305L29.0799 32.214L24.3524 28.7588H22.2148Z" fill="#005BA3"/>
<path d="M47.3518 65.7701C46.9662 66.009 46.5284 66.1501 46.0762 66.1812C46.9189 70.0591 47.6224 73.3282 47.7848 73.8052C48.1713 75.0345 49.5899 87.1841 50.363 92.8731C51.1361 98.562 51.024 114.958 49.4778 115.799C47.9316 116.641 42.8602 115.947 38.4226 116.85C33.9851 117.754 31.0203 118.917 24.5766 118.595C18.1329 118.274 11.434 116.207 7.56856 116.335C3.70311 116.463 3.24698 111.495 3.24312 110.522C3.24312 104.91 7.83914 76.4461 10.17 66.0338C9.99377 65.9611 9.82431 65.8729 9.66364 65.7701C5.99146 63.5519 4.89367 64.63 2.06029 61.7836C-0.77309 58.9372 -0.386545 53.5158 1.54618 50.6694C1.75105 50.3669 1.97911 50.0024 2.2265 49.5913C2.32514 51.6394 3.1315 53.5892 4.50712 55.1058C7.08538 57.7777 10.3053 56.8896 12.1143 58.1305C13.042 58.7549 13.5562 61.6207 13.8538 64.979C14.1514 68.2481 14.2403 71.9593 14.3022 74.4528C14.4297 79.4942 10.916 91.349 16.0223 94.5367C21.1286 97.7244 28.2178 87.6417 32.9801 86.2146C37.7423 84.7876 41.7585 80.6575 41.8088 78.4587C41.8436 76.9076 41.2985 68.3761 41.341 63.0245C41.341 60.7443 41.4841 59.0574 41.8088 58.7588C42.549 58.2314 43.3667 57.8232 44.2324 57.5489C46.3852 56.7734 48.5918 56.1577 50.8346 55.7068C52.5045 55.3772 54.4952 53.4693 56.0414 51.6815C57.4484 54.6598 57.4793 59.2474 54.9513 61.7642C52.1179 64.63 51.024 63.5519 47.3518 65.7701Z" fill="#1F254A"/>
<path d="M21.7162 45.6513C21.0552 46.2911 21.465 55.4353 21.5694 57.9095C21.6737 60.3836 20.7963 65.231 21.5694 65.5413C22.3424 65.8515 34.7776 66.2471 35.3458 66.0726C35.9141 65.898 35.7324 56.622 35.6512 53.6825C35.57 50.743 35.8483 46.202 35.6512 45.7909C35.4541 45.3798 22.3772 45.0153 21.7162 45.6513Z" fill="#FFF0E0"/>
<path d="M33.6566 56.781C31.805 56.4669 30.0424 56.6531 28.1676 56.6414C27.2906 56.6635 26.413 56.635 25.5391 56.5561C25.2394 56.5134 24.9373 56.4901 24.6346 56.4863C24.2481 56.529 23.9311 56.7268 23.5407 56.7772C23.2856 56.8082 23.2817 57.196 23.5407 57.165C24.02 57.1068 23.8499 57.0331 24.4143 56.9051C24.4607 56.9051 25.2724 56.9051 25.5391 56.9439C26.3474 57.0171 27.1591 57.0456 27.9705 57.0292C29.8646 57.0292 31.6775 56.8392 33.5484 57.1572C33.8035 57.1999 33.9117 56.8276 33.6566 56.781Z" fill="#FAE3CD"/>
<path d="M34.1241 54.7447C32.5238 54.4616 30.8578 54.9658 29.2537 54.9425C28.2873 54.9425 27.2823 54.9425 26.3236 54.8533C26.1188 54.8533 24.4334 54.9192 24.4412 54.9309C24.3136 54.7137 23.958 54.9076 24.0855 55.1287L24.1126 55.1752C24.1315 55.205 24.1579 55.2292 24.1891 55.2456C24.2203 55.2619 24.2552 55.2697 24.2904 55.2683C25.8362 55.192 27.385 55.2076 28.929 55.3148C30.6104 55.3885 32.3653 54.8262 34.0314 55.1209C34.2749 55.1674 34.4024 54.7913 34.1241 54.7447Z" fill="#FAE3CD"/>
<path d="M34.2403 61.8846C34.1926 61.5149 34.0005 61.1793 33.7061 60.9516C33.4118 60.724 33.0394 60.623 32.6709 60.6708C32.3023 60.7186 31.9678 60.9114 31.7409 61.2066C31.514 61.5019 31.4133 61.8755 31.461 62.2452C31.4847 62.4227 31.5425 62.5939 31.6311 62.7494C31.1958 63.4403 30.8674 64.1934 30.657 64.9831C30.6007 65.1293 30.5693 65.284 30.5642 65.4407C30.5642 65.6113 30.7923 65.7742 30.9082 65.588C30.9739 65.4824 31.0532 65.3859 31.144 65.3011C31.2005 65.4462 31.2691 65.5863 31.3489 65.7199C31.4494 65.8789 31.6543 65.7664 31.6929 65.6268C31.885 64.8698 32.1437 64.1314 32.466 63.4203C32.6468 63.4723 32.8364 63.4855 33.0226 63.459H33.0536C33.1541 63.9981 33.2623 64.5371 33.328 65.0839C33.3247 65.1094 33.3264 65.1352 33.3331 65.16C33.3398 65.1848 33.3512 65.208 33.3669 65.2284C33.3984 65.2695 33.4449 65.2963 33.4962 65.303C33.5474 65.3097 33.5992 65.2957 33.6402 65.264C33.6811 65.2324 33.7079 65.1857 33.7146 65.1343C33.8035 64.9172 33.8846 64.6961 33.9658 64.4751C34.0722 64.5702 34.1693 64.6754 34.2557 64.7892C34.2826 64.8215 34.319 64.8444 34.3597 64.8546C34.4005 64.8647 34.4433 64.8615 34.4822 64.8455C34.521 64.8295 34.5537 64.8015 34.5755 64.7656C34.5974 64.7296 34.6072 64.6876 34.6036 64.6457C34.5138 64.0068 34.3302 63.3847 34.0586 62.7998C34.2217 62.5246 34.2858 62.2015 34.2403 61.8846Z" fill="#D41D1D"/>
<path d="M33.5598 48.8974C32.9869 49.0571 32.3956 49.1406 31.801 49.1456C31.6193 49.1456 31.2599 49.037 31.1246 49.1184C31.1677 49.0917 31.1987 49.0491 31.2108 48.9997C31.2229 48.9504 31.2152 48.8982 31.1894 48.8545C31.1635 48.8107 31.1216 48.7789 31.0726 48.7659C31.0236 48.7529 30.9715 48.7597 30.9274 48.7849L30.8385 48.8392C30.6011 49.0197 30.3305 49.1515 30.0422 49.227C30.1389 48.9361 30.2664 48.6531 30.3824 48.3661C30.3909 48.3334 30.3907 48.299 30.3819 48.2663C30.3731 48.2337 30.3559 48.204 30.332 48.18C30.3082 48.1561 30.2786 48.1389 30.246 48.13C30.2135 48.1212 30.1792 48.121 30.1466 48.1295C29.6789 48.3079 29.13 48.9982 28.6004 49.1029L28.6971 48.9284C29.0134 48.6463 29.2664 48.3 29.4392 47.9124C29.4502 47.8714 29.4476 47.828 29.4316 47.7887C29.4157 47.7494 29.3873 47.7164 29.3509 47.6949C29.3145 47.6733 29.272 47.6643 29.23 47.6693C29.188 47.6742 29.1488 47.6929 29.1184 47.7223C28.8736 47.9658 28.6606 48.2395 28.4845 48.5367L28.1791 48.7733C28.1167 48.8279 28.0509 48.8785 27.982 48.9245C27.5954 49.1145 27.522 49.2347 27.5954 48.7306C27.6959 47.9318 28.5308 47.6293 28.8285 46.9584C28.8469 46.9211 28.8531 46.8789 28.8462 46.8379C28.8394 46.7968 28.8198 46.759 28.7902 46.7298C28.7606 46.7005 28.7227 46.6814 28.6816 46.6751C28.6406 46.6688 28.5987 46.6757 28.5618 46.6947C27.668 47.0497 26.8152 47.5009 26.0183 48.0403C26.0612 47.914 26.0935 47.7843 26.1149 47.6525C26.1219 47.6236 26.1223 47.5935 26.1161 47.5644C26.1098 47.5354 26.0972 47.5081 26.0789 47.4846C26.0607 47.4611 26.0375 47.442 26.0109 47.4288C25.9844 47.4156 25.9552 47.4086 25.9255 47.4082H25.8985C25.8563 47.4091 25.8155 47.4235 25.7822 47.4493C25.7488 47.4752 25.7245 47.511 25.7129 47.5517V47.5905C25.7011 47.627 25.7011 47.6664 25.7129 47.703C25.7129 47.7534 25.7129 47.8077 25.6781 47.8542C25.6581 47.8799 25.646 47.9109 25.6433 47.9434C25.5156 48.2517 25.3409 48.5382 25.1254 48.7927C24.9105 49.0287 24.7237 49.2889 24.5688 49.5682C24.5426 49.613 24.5353 49.6663 24.5483 49.7165C24.5614 49.7667 24.5937 49.8096 24.6383 49.8358C24.6829 49.8621 24.7361 49.8694 24.7861 49.8563C24.8361 49.8433 24.8789 49.8108 24.905 49.766C25.0519 49.5333 25.2182 49.3201 25.3766 49.1068C26.1515 48.3368 27.0713 47.7291 28.0825 47.319C27.7095 47.6423 27.4057 48.0381 27.1895 48.4824C27.0852 48.7694 26.9228 49.4209 27.2784 49.6109C27.4833 49.7234 27.7848 49.6109 28.0979 49.3976C28.1206 49.4343 28.1567 49.4607 28.1984 49.4713C28.8362 49.6303 29.2846 49.1184 29.7717 48.7578C29.6871 48.9539 29.6173 49.1561 29.5629 49.3627C29.5499 49.4121 29.5568 49.4646 29.5821 49.5089C29.6074 49.5532 29.6492 49.5857 29.6982 49.5993C30.0752 49.6388 30.4534 49.5381 30.7612 49.3162C31.372 49.8901 33.0341 49.4209 33.6332 49.2735C33.6767 49.2578 33.7131 49.227 33.7359 49.1867C33.7587 49.1464 33.7663 49.0993 33.7574 49.0538C33.7486 49.0084 33.7237 48.9676 33.6875 48.9389C33.6512 48.9102 33.6059 48.8955 33.5598 48.8974Z" fill="#FAE3CD"/>
<path d="M32.4001 51.8287C32.1012 51.8148 31.8031 51.785 31.5072 51.7395C30.858 51.7938 30.2062 51.8093 29.5552 51.7861C28.1288 51.6775 26.6986 52.0498 25.3032 51.6969C25.2519 51.6835 25.1975 51.6911 25.1518 51.718C25.1061 51.7449 25.073 51.7889 25.0596 51.8404C25.0463 51.8918 25.0539 51.9464 25.0807 51.9922C25.1075 52.038 25.1514 52.0713 25.2027 52.0847C26.5517 52.4221 27.866 52.0847 29.2266 52.1545C29.9087 52.201 30.5932 52.201 31.2753 52.1545C31.6966 52.1235 32.1296 52.3135 32.52 52.2126C32.5707 52.1967 32.6131 52.1612 32.6377 52.1139C32.6624 52.0666 32.6673 52.0115 32.6514 51.9606C32.6355 51.9097 32.6001 51.8672 32.553 51.8424C32.5059 51.8177 32.4509 51.8128 32.4001 51.8287Z" fill="#FAE3CD"/>
<path d="M33.4285 58.557C33.0931 58.5052 32.7511 58.5157 32.4196 58.588C31.7035 58.6986 30.9748 58.6986 30.2588 58.588C29.2422 58.4756 28.1598 58.6229 27.1355 58.6229C26.7725 58.6236 26.4098 58.6457 26.0493 58.6889C25.5352 58.747 25.2762 58.5182 24.851 58.4717C24.4645 58.429 24.248 58.5919 23.846 58.5105C23.61 58.4341 23.3634 58.3961 23.1154 58.398C22.8642 58.398 22.8603 58.7858 23.1154 58.7858C23.4352 58.8098 23.7507 58.8737 24.0547 58.9758C24.3601 59.0301 24.5959 58.8905 24.9515 58.9758C25.5044 59.0831 26.0711 59.0989 26.6291 59.0224C27.6767 58.9603 28.8092 58.9099 29.8568 58.9409C30.4289 58.9409 30.9894 59.1426 31.5615 59.1426C32.1335 59.1426 32.7018 58.8362 33.3241 58.9409C33.5715 58.9758 33.6797 58.6036 33.4285 58.557Z" fill="#FAE3CD"/>
<path d="M31.0706 60.1621C30.626 59.9411 30.1583 60.0613 29.6829 60.1117C28.8518 60.2009 28.071 60.2009 27.2438 60.2164C26.5093 60.2164 25.8367 60.166 25.1139 60.1078C24.7798 60.0587 24.4427 60.0328 24.105 60.0303C23.7649 60.0303 23.4827 60.2474 23.1309 60.1117C22.899 60.0225 22.7985 60.3948 23.0266 60.4995C23.5097 60.6856 24.0354 60.4801 24.5727 60.4995C25.2183 60.5266 25.8136 60.7128 26.4398 60.7322C26.7992 60.7322 27.1665 60.6314 27.5298 60.6352C27.9083 60.6566 28.2877 60.6566 28.6663 60.6352C29.2422 60.5732 30.3477 60.2474 30.8928 60.5228C31.0976 60.6081 31.3102 60.2746 31.0706 60.1621Z" fill="#FAE3CD"/>
<path d="M30.0693 62.1985C29.6854 62.0354 29.2648 61.9791 28.8517 62.0356C28.1212 62.0666 27.3983 61.9929 26.6677 61.9968C26.0145 61.9968 25.3574 62.0899 24.7041 62.0356C24.8007 62.0356 23.2236 61.7098 23.2391 61.9464C23.2391 61.6982 22.8525 61.6982 22.8525 61.9464V62.0705C22.8551 62.1123 22.8701 62.1524 22.8956 62.1856C22.9211 62.2188 22.9559 62.2435 22.9956 62.2566C23.3507 62.3151 23.7103 62.3423 24.0702 62.3381C24.5948 62.4144 25.1251 62.4442 25.655 62.4273C26.343 62.4001 27.0079 62.3962 27.696 62.4273C28.384 62.4583 29.2924 62.2605 29.8683 62.5397C30.0964 62.6405 30.2935 62.307 30.0693 62.1985Z" fill="#FAE3CD"/>
<path d="M32.4351 53.4148C31.0777 53.3449 29.7169 53.3799 28.3648 53.5195C27.3289 53.6087 26.2697 53.3993 25.2725 53.4807C25.0251 53.5001 25.0251 53.8879 25.2725 53.8685C26.2891 53.7871 27.3521 53.9965 28.3648 53.9073C29.7169 53.7677 31.0777 53.7327 32.4351 53.8026C32.6864 53.8181 32.6825 53.4303 32.4351 53.4148Z" fill="#FAE3CD"/>
<path d="M18.0322 55.8427C18.3855 55.5784 18.7141 55.2824 19.0141 54.9586C19.3558 54.306 19.7514 53.6834 20.1969 53.0972C20.6723 52.6434 23.2274 52.2944 23.9773 52.911C24.7272 53.5276 24.6731 55.7264 23.9464 55.9087C23.2197 56.0909 22.1296 56.6843 21.7315 57.2659C21.1594 58.1152 18.4574 58.3091 18.4574 58.3091L18.0322 55.8427Z" fill="#FA965C"/>
<path d="M18.9058 55.1055C18.9058 55.1055 12.2302 55.2063 11.4841 55.7143C10.7381 56.2223 10.3245 58.3397 11.1749 59.0842C12.5278 60.2476 19.6789 58.1574 19.6789 58.1574L19.3272 57.1608L18.9058 55.1055Z" fill="#FA965C"/>
<path d="M39.1183 55.8427C38.7646 55.5775 38.4348 55.2816 38.1327 54.9586C37.7937 54.3044 37.3979 53.6815 36.9498 53.0972C36.4782 52.6434 33.9232 52.2944 33.1694 52.911C32.4156 53.5276 32.4736 55.7264 33.2042 55.9087C33.9348 56.0909 35.3379 56.9712 35.7361 57.5607C36.3082 58.4099 38.6931 58.3091 38.6931 58.3091L39.1183 55.8427Z" fill="#FA965C"/>
<path d="M38.2447 55.1055C38.2447 55.1055 44.9204 55.2063 45.6625 55.7143C46.4047 56.2223 46.8415 58.3397 45.9718 59.0842C44.6189 60.2476 37.4678 58.1574 37.4678 58.1574L37.8157 57.1608L38.2447 55.1055Z" fill="#FA965C"/>
<path d="M15.2339 38.1395C15.3319 36.0572 15.5721 33.9841 15.9528 31.9348C15.9954 31.6905 15.6204 31.5858 15.5663 31.834C15.2486 33.6193 15.0216 35.4197 14.886 37.2282C14.8005 39.1156 14.9132 41.0069 15.2223 42.8706C15.5276 44.9608 15.5238 46.7486 14.8666 48.7884C14.2482 50.6886 13.707 52.6004 13.1659 54.5277C13.1525 54.5792 13.1601 54.6338 13.1869 54.6796C13.2137 54.7254 13.2576 54.7587 13.3089 54.772C13.3601 54.7854 13.4146 54.7778 13.4603 54.7509C13.5059 54.724 13.5391 54.68 13.5524 54.6286C14.0704 52.7555 14.5961 50.8941 15.2029 49.0482C15.7846 47.4009 15.9778 45.6408 15.7673 43.906C15.516 41.9748 15.1759 40.094 15.2339 38.1395Z" fill="#1F254A"/>
<path d="M41.8666 31.6479C40.6219 34.8395 40.4751 38.3412 40.9544 41.7073C41.252 43.7742 41.4607 45.6357 41.2095 47.7142C40.9969 49.5097 40.9157 51.3168 41.3834 53.0774C41.3968 53.1289 41.4299 53.1729 41.4756 53.1998C41.5213 53.2267 41.5757 53.2343 41.627 53.2209C41.6782 53.2076 41.7221 53.1743 41.7489 53.1285C41.7757 53.0827 41.7833 53.028 41.77 52.9766C41.2945 51.1811 41.4182 49.3585 41.6347 47.5475C41.8161 45.8076 41.7549 44.0508 41.453 42.3278C40.9119 38.7717 40.9312 35.1497 42.2532 31.7565C42.3305 31.516 41.9555 31.4113 41.8666 31.6479Z" fill="#1F254A"/>
<path d="M37.6726 29.4992C37.5799 30.4183 36.8995 31.4382 36.513 32.272C36.2382 32.9621 35.9206 33.6343 35.5621 34.2846C34.7916 35.6431 34.1061 37.0484 33.5095 38.4922C32.9034 39.8751 32.2061 41.216 31.4222 42.5059C31.1764 42.8781 30.8913 43.2227 30.5718 43.5335C30.1951 43.9477 29.7474 44.2905 29.2498 44.5457C29.0502 44.6466 28.8273 44.6922 28.6043 44.6775C28.0476 44.6038 27.7693 44.0842 27.4987 43.6537C27.3364 43.39 27.1702 43.1263 27.0001 42.8782C26.6616 42.343 26.2965 41.8253 25.9062 41.327C24.8934 40.0589 24.3291 38.3759 23.7261 36.8867C23.4941 36.3128 23.2815 35.7233 23.0225 35.1649C22.721 34.5289 22.2958 33.9666 22.0175 33.319C21.7392 32.6714 21.4957 31.9811 21.2444 31.3141C20.9358 30.6846 20.7321 30.0087 20.6414 29.3131C20.6414 29.0649 20.2549 29.0649 20.2549 29.3131C20.2935 30.5191 21.028 31.7601 21.4145 32.8692C21.9518 34.2924 22.7674 35.5837 23.3472 36.9914C23.8807 38.2944 24.3716 39.7448 25.1254 40.9353C25.5119 41.5325 26.0067 42.0444 26.401 42.6338C26.9962 43.518 27.3866 44.8869 28.6043 45.042C30.7921 45.3213 32.2919 41.7419 33.0998 40.2334C34.0816 38.403 34.7117 36.3554 35.8056 34.6143C36.3131 33.7239 36.76 32.8002 37.1431 31.8493C37.4793 31.097 37.9741 30.3408 38.0592 29.5225C38.0824 29.251 37.6958 29.2549 37.6726 29.4992Z" fill="#1F254A"/>
</g>
<defs>
<clipPath id="clip0_385_13494">
<rect width="57" height="86" fill="white"/>
</clipPath>
</defs>
</svg>
