<svg width="118" height="88" viewBox="0 0 118 88" fill="none" xmlns="http://www.w3.org/2000/svg">
<path d="M108.714 65.4635C107.584 66.3436 106.53 67.3193 105.39 68.1894C104.707 68.7125 103.978 69.1689 103.247 69.6153C103.212 69.6366 103.177 69.658 103.141 69.6794C102.426 70.1132 101.709 70.5419 101.019 71.0135C100.098 71.6459 99.4702 72.3337 98.9416 73.0453C98.7075 73.3597 98.4936 73.679 98.2821 74.0009C98.267 74.0248 98.2507 74.0474 98.2356 74.0713C97.848 74.6598 97.4654 75.2545 96.9821 75.8392C96.5894 76.3157 96.1301 76.7834 95.5486 77.2348C94.6362 77.9427 93.6886 78.5902 92.7019 79.1812C92.6666 79.2026 92.6301 79.224 92.5949 79.2453C92.2564 79.4465 91.9128 79.6414 91.5642 79.83C90.2654 80.5329 88.9301 81.164 87.6149 81.8355C86.3552 82.478 85.108 83.1557 83.9464 83.9654C83.9149 83.9868 83.8834 84.0082 83.852 84.0308C83.8494 84.0321 83.8469 84.0346 83.8444 84.0358C83.2793 84.4357 82.7344 84.8669 82.2259 85.3372C81.9617 85.5824 81.7062 85.8389 81.462 86.1042C81.2003 86.3896 80.9712 86.7303 80.6553 86.9592C80.2677 87.2408 79.7857 87.222 79.3276 87.2144C78.8582 87.2069 78.3875 87.1993 77.918 87.1918C76.9779 87.178 76.0378 87.1629 75.0989 87.1478C73.22 87.1176 71.3398 87.0887 69.4608 87.0598C65.6827 87.0007 61.9046 86.9416 58.1266 86.8812C57.1864 86.8661 56.2476 86.851 55.3075 86.8372C55.2571 86.8372 55.0847 86.8636 55.0583 86.8121C55.0457 86.7869 55.2546 86.5631 55.2873 86.5229C55.4195 86.367 55.5567 86.2161 55.7001 86.0702C55.9757 85.7886 56.269 85.5245 56.5685 85.2693C57.1701 84.7563 57.8006 84.2747 58.3833 83.7391C58.937 83.2286 59.4493 82.6741 59.9401 82.1033L59.9539 82.0882C59.9753 82.0643 59.9967 82.0392 60.0169 82.014C60.9708 80.8962 61.8518 79.7156 62.846 78.6317C63.4211 78.0068 64.0328 77.4486 64.691 76.9494C64.7225 76.9243 64.7552 76.8991 64.7879 76.8765C65.3517 76.4565 65.9508 76.0793 66.5888 75.7398C68.0198 74.9791 69.4646 74.2951 70.7105 73.2415C71.2479 72.7863 71.75 72.2934 72.2333 71.7817C72.256 71.7578 72.2773 71.7352 72.3 71.7113C72.8777 71.0939 73.4289 70.4501 73.9826 69.8114C74.7327 68.9476 75.4979 68.1014 76.326 67.3181C76.3499 67.2942 76.3751 67.2703 76.399 67.2477C76.696 66.9673 77.0031 66.697 77.319 66.4354C78.3082 65.6181 79.3729 64.8927 80.493 64.264C82.7873 63.9496 85.1445 64.0691 87.4362 64.3155C89.0748 64.4928 90.6983 64.7933 92.3457 64.8813C94.0951 64.9731 101.67 65.0171 103.034 65.1642C104.616 65.3352 106.215 65.4019 107.795 65.2523C108.102 65.3239 108.409 65.3943 108.717 65.4648L108.714 65.4635Z" fill="#FF8661"/>
<path d="M94.6673 73.6478C93.6316 73.9383 92.5908 74.1822 91.5223 74.3042C90.4651 74.4261 89.4029 74.4412 88.3408 74.3746C87.271 74.3067 86.205 74.1696 85.1366 74.0741C84.0643 73.9785 82.9883 73.9383 81.911 73.9295C80.8337 73.9219 79.7551 73.9433 78.6778 73.9697C77.666 73.9936 76.6516 74.0225 75.6473 74.1533C74.7588 74.269 73.8149 74.4387 73.0019 74.8335C72.4293 75.1101 71.8353 75.652 72.058 76.3549C72.2846 77.0691 73.1227 77.391 73.7797 77.5544C74.7362 77.7921 75.7316 77.787 76.7057 77.6814C77.705 77.5733 78.6904 77.362 79.6784 77.1785C80.7431 76.9798 81.8153 76.8352 82.8964 76.7673C83.907 76.7032 84.9251 76.6906 85.9332 76.805C86.4479 76.8629 86.9589 76.9547 87.4598 77.0905C87.9443 77.2212 88.4049 77.4086 88.8718 77.5934C89.3123 77.7682 89.7604 77.9203 90.2348 77.9618C90.6766 77.9995 91.1196 77.9505 91.55 77.8486C92.4624 77.6324 93.3056 77.1986 94.1526 76.8088C95.0638 76.3901 96.0026 76.0531 96.9843 75.8406C97.7494 74.9152 98.2654 73.9622 98.9438 73.0481C97.5229 72.8494 96.0404 73.2631 94.6698 73.6491L94.6673 73.6478Z" fill="#D6674D"/>
<path d="M69.6081 65.252C69.5476 65.2998 69.4872 65.3475 69.4268 65.3953C68.7032 65.9536 67.9455 66.459 67.2018 66.9821C67.1615 67.011 67.1212 67.0387 67.0797 67.0688C66.2251 67.6724 65.392 68.3036 64.657 69.0643C63.9359 69.8124 63.2903 70.6259 62.6459 71.4407C62.6233 71.4696 62.6006 71.4985 62.578 71.5274C62.1991 72.0052 61.8216 72.4817 61.4264 72.9445C61.2565 73.1431 61.0841 73.3393 60.9066 73.5329C59.6796 74.8669 58.2222 75.9646 56.6 76.7681C56.5559 76.7907 56.5119 76.8121 56.4678 76.8322C56.4049 76.8624 56.3433 76.8925 56.2803 76.9215C56.2526 76.9353 56.2237 76.9479 56.1947 76.9617C54.3145 77.8205 52.4683 78.766 50.4697 79.3154C47.6809 80.0824 46.1341 81.2568 45.1689 82.2614C45.1449 82.2866 45.121 82.3117 45.0971 82.3356C44.1973 83.2912 43.8185 84.077 43.3729 84.1789C42.3913 84.4052 41.3845 84.5272 40.4268 84.8478C39.4539 85.1735 38.5528 85.6865 37.5624 85.9656C36.5493 86.2497 35.4883 86.2762 34.4425 86.2975C33.3023 86.3202 32.1608 86.3365 31.0206 86.3478C26.4937 86.3906 21.9668 86.3378 17.4424 86.1919C17.4034 86.1906 17.3946 86.1441 17.4235 86.1228C18.5486 85.3105 19.6675 84.4907 20.78 83.6609C21.4583 83.1554 22.2915 82.3872 23.1271 81.5636C23.1523 81.5397 23.1775 81.5158 23.2027 81.4907C24.6978 80.0145 26.1916 78.3825 26.8247 77.7815C27.3218 77.3087 27.8441 76.8636 28.3852 76.4411C28.4167 76.4173 28.4482 76.3921 28.4809 76.3682C29.1504 75.8502 29.8464 75.3674 30.56 74.9122C31.4913 74.3175 32.449 73.768 33.4206 73.2437C34.6036 72.6025 35.8067 71.9964 37.0048 71.3828C37.0451 71.3614 37.0854 71.3413 37.1269 71.3199C37.5598 71.0974 37.9915 70.8748 38.4219 70.6473C38.6573 70.5228 38.8914 70.3996 39.1254 70.2726C40.5413 69.5094 41.9345 68.7009 43.2496 67.7742C43.5089 67.5919 43.7643 67.4046 44.0173 67.2147C44.045 67.1921 44.0739 67.1707 44.1016 67.1493C44.483 66.8576 44.8542 66.5546 45.2154 66.239C45.8359 65.6971 46.3972 65.0973 47.0113 64.5491C47.0541 64.5114 47.0969 64.4737 47.141 64.4359C47.7438 64.3693 48.3479 64.3152 48.9557 64.3102C50.9153 64.2939 52.8785 64.3756 54.8368 64.4473C58.8716 64.5956 62.9064 64.739 66.9387 64.954C67.8398 65.0018 68.7195 65.1162 69.6081 65.2545V65.252Z" fill="#FF8661"/>
<path d="M52.2102 73.4211C51.3645 73.186 50.5716 72.795 49.7246 72.5636C48.8978 72.3385 48.0307 72.2631 47.1774 72.3385C46.7658 72.375 46.3581 72.4467 45.9579 72.551C45.5224 72.6667 45.0945 72.8163 44.6503 72.8943C44.1733 72.9785 43.7001 72.9572 43.2583 72.7459C42.8934 72.5724 42.575 72.3172 42.2364 72.0996C41.4511 71.5967 40.5815 71.2396 39.6741 71.0321C39.299 70.9454 38.8195 70.8398 38.4231 70.6411C36.7619 71.5162 35.0729 72.3423 33.4218 73.2363C34.241 74.2208 35.3209 74.989 36.5051 75.4882C38.627 76.3822 41.0345 76.3822 43.2508 75.8641C44.4502 75.5838 45.5979 75.1135 46.8023 74.8532C48.0432 74.5854 49.3357 74.5226 50.5917 74.7237C51.7722 74.9136 52.8822 75.3612 53.9809 75.8151C54.8204 76.1609 55.6976 76.5683 56.5999 76.7644C58.2221 75.9622 59.6795 74.8646 60.9066 73.5292C61.084 73.3356 61.2564 73.1407 61.4263 72.9408C58.3467 72.9559 55.2621 74.2698 52.2115 73.4186L52.2102 73.4211Z" fill="#D6674D"/>
<path d="M45.1687 82.2588C45.1448 82.284 45.1209 82.3091 45.0969 82.333C41.1767 82.5442 37.2564 82.7052 33.3348 82.3758C29.9481 82.0916 26.5338 81.5648 23.1295 81.5597C23.1547 81.5358 23.1798 81.512 23.205 81.4868C27.0787 81.5006 30.9638 82.1821 34.8287 82.4097C38.277 82.6121 41.7241 82.4512 45.1699 82.2588H45.1687Z" fill="#F7E9E1"/>
<path d="M83.9461 83.9646C83.9146 83.986 83.8832 84.0073 83.8517 84.03C82.1817 83.8728 80.5116 83.7169 78.8428 83.5597C73.7848 83.0857 68.7268 82.5815 63.655 82.2709C62.4204 82.1955 61.187 82.1339 59.9524 82.0874C59.9738 82.0635 59.9952 82.0383 60.0153 82.0132C61.7924 82.0836 63.5694 82.1842 65.3439 82.3074C70.4132 82.6607 75.4712 83.1699 80.5305 83.644C81.6694 83.7508 82.8084 83.8577 83.9461 83.9646Z" fill="#F7E9E1"/>
<path d="M55.1072 76.8801C55.5603 76.8612 56.0133 76.8436 56.4664 76.8298C56.4035 76.8599 56.3418 76.8901 56.2789 76.919C55.3778 76.9454 54.4767 76.9806 53.5756 77.0272C48.5377 77.2874 43.5024 77.6747 38.4633 77.251C35.1194 76.9706 31.7478 76.4538 28.3863 76.4362C28.4178 76.4123 28.4492 76.3872 28.4819 76.3633C32.3066 76.3935 36.1425 77.0611 39.9571 77.2862C45.0113 77.5829 50.0618 77.0988 55.1072 76.8813V76.8801Z" fill="#F7E9E1"/>
<path d="M92.7018 79.1812C92.6666 79.2026 92.6301 79.2239 92.5948 79.2453C89.7204 78.9762 86.8459 78.7059 83.9714 78.4356C78.9135 77.9616 73.8555 77.4574 68.7836 77.1468C67.4194 77.0626 66.0539 76.9959 64.6897 76.9494C64.7211 76.9242 64.7539 76.8991 64.7866 76.8765C66.6832 76.9469 68.5785 77.0525 70.4726 77.1845C75.5419 77.5378 80.5999 78.0471 85.6591 78.5211C88.0063 78.7411 90.3547 78.9624 92.7018 79.1825V79.1812Z" fill="#F7E9E1"/>
<path d="M63.1354 67.0778C64.4908 67.0187 65.8463 66.9885 67.2017 66.981C67.1614 67.0099 67.1211 67.0375 67.0796 67.0677C65.2548 67.0815 63.4299 67.1318 61.605 67.2261C56.5672 67.4864 51.5319 67.8737 46.4927 67.4499C45.6697 67.3808 44.8453 67.2978 44.0185 67.211C44.0462 67.1884 44.0751 67.167 44.1028 67.1457C45.3978 67.2815 46.6928 67.4072 47.9853 67.4839C53.0396 67.7806 58.09 67.2965 63.1354 67.079V67.0778Z" fill="#F7E9E1"/>
<path d="M103.247 69.6147C103.212 69.6361 103.176 69.6575 103.141 69.6789C99.4272 69.3306 95.712 68.981 91.9981 68.6327C86.9401 68.1587 81.8822 67.6545 76.8103 67.344C76.648 67.3339 76.4856 67.3238 76.3233 67.315C76.3472 67.2912 76.3724 67.2673 76.3963 67.2446C77.0985 67.2849 77.7983 67.3301 78.4993 67.3792C83.5686 67.7325 88.6266 68.2417 93.6858 68.7157C96.8736 69.015 100.059 69.3142 103.247 69.6135V69.6147Z" fill="#F7E9E1"/>
<path d="M58.8978 71.534C60.1476 71.4799 61.396 71.4498 62.6457 71.4384C62.6231 71.4674 62.6004 71.4963 62.5778 71.5252C60.841 71.5403 59.1055 71.5918 57.3675 71.6811C52.3296 71.9414 47.2943 72.3286 42.2552 71.9049C40.5109 71.7591 38.759 71.5478 37.0059 71.3768C37.0462 71.3555 37.0864 71.3353 37.128 71.314C39.3379 71.5315 41.5466 71.8081 43.749 71.9376C48.8033 72.2343 53.8537 71.7503 58.8991 71.5327L58.8978 71.534Z" fill="#F7E9E1"/>
<path d="M98.2821 74.0016C98.267 74.0255 98.2506 74.0481 98.2355 74.072C94.7444 73.7451 91.2532 73.417 87.7621 73.0888C82.7041 72.6148 77.6461 72.1106 72.5743 71.8C72.4598 71.7937 72.3465 71.7862 72.232 71.7799C72.2546 71.756 72.276 71.7334 72.2987 71.7095C72.9544 71.7485 73.61 71.7912 74.2645 71.8365C79.3338 72.1898 84.3918 72.699 89.451 73.173C92.3947 73.4496 95.3396 73.7263 98.2833 74.0029L98.2821 74.0016Z" fill="#F7E9E1"/>
<path d="M13.7171 27.762C13.6668 28.0373 13.5333 28.2988 13.4088 28.5465C13.2766 28.8106 13.1331 29.0683 12.9771 29.3198C12.665 29.8265 12.3113 30.3081 11.9426 30.7758C11.1447 31.7867 10.2939 32.7574 9.47085 33.7495C8.60499 34.7918 7.74542 35.8379 6.89214 36.8903C5.41841 38.7059 3.96482 40.5379 2.52633 42.3824C2.48984 42.302 2.42314 42.2416 2.34259 42.2052C2.45208 40.9277 2.54269 39.649 2.61191 38.3677C2.61191 38.3652 2.61191 38.3627 2.61191 38.3602C2.62324 38.3099 2.63583 38.2583 2.64715 38.208C2.85355 37.3166 3.03478 36.4138 3.00205 35.5022C3.89435 33.7268 5.07861 32.0998 6.48312 30.6941C7.9795 29.1979 9.7301 27.9493 11.6443 27.0453C12.0772 26.8416 12.5731 26.6291 13.0539 26.7611C13.0803 26.7674 13.1067 26.7762 13.1331 26.785C13.5585 26.9359 13.7964 27.3143 13.7133 27.762H13.7171Z" fill="#B9C98B"/>
<path d="M20.4893 35.5966C20.2841 35.9877 20.0387 36.3599 19.7908 36.7245C19.3 37.4487 18.7563 38.1378 18.1887 38.8029C16.9717 40.225 15.649 41.5603 14.3339 42.8905C12.9696 44.2686 11.5865 45.6278 10.2021 46.9857C7.39564 49.7406 4.57403 52.4804 1.73859 55.2076C1.71971 55.2264 1.69454 55.2176 1.68196 55.2013C1.66811 55.2138 1.65427 55.2264 1.64042 55.2403C1.61777 55.2604 1.57498 55.2478 1.5775 55.2138C1.66434 53.7943 1.75998 52.3773 1.86696 50.959C1.86948 50.9187 1.87325 50.876 1.87703 50.8357C1.97393 49.5382 2.07965 48.2393 2.19417 46.943C2.23193 46.6965 2.26088 46.4501 2.27598 46.2037C2.29863 46.1923 2.33261 46.2012 2.33009 46.2338C2.32254 46.3143 2.31625 46.396 2.3087 46.4778C4.30597 43.6085 6.4744 40.8197 9.10471 38.4986C11.555 36.3347 14.4232 34.5706 17.5959 33.7056C18.2529 33.527 18.9488 33.3347 19.636 33.4239C19.8248 33.4478 20.0073 33.5019 20.1709 33.5836C20.1935 33.5949 20.2174 33.6075 20.2401 33.6213C20.5535 33.7999 20.7762 34.0941 20.7989 34.5053C20.8203 34.8888 20.6667 35.266 20.4905 35.6004L20.4893 35.5966Z" fill="#B9C98B"/>
<path d="M14.6055 49.4421C14.3249 49.9513 13.9624 50.4166 13.6163 50.883C12.1892 52.8106 10.6475 54.6538 9.00261 56.399C8.62002 56.8052 8.24372 57.2578 7.77429 57.5659C7.29983 57.8777 6.7121 57.9644 6.16464 58.0688C5.70403 58.1568 5.24089 58.231 4.7765 58.2901C4.74 58.2951 4.7035 58.2989 4.66701 58.3027C4.23408 58.3567 3.79863 58.397 3.36192 58.4246C3.299 58.2888 3.16308 58.1807 3.01079 58.1933C2.90004 58.2033 2.79055 58.2021 2.68106 58.1958C2.58793 58.1694 2.49103 58.1568 2.39412 58.1681C2.39286 58.1015 2.39664 58.0349 2.40922 57.9695C2.40293 57.9594 2.40293 57.9481 2.41174 57.9355C2.41426 57.9317 2.41677 57.928 2.41929 57.9242C2.45956 57.7482 2.54766 57.5822 2.6798 57.4439C2.70372 57.4187 2.7377 57.4401 2.74147 57.4665C2.80188 57.381 2.86229 57.2955 2.9227 57.2113C4.29197 55.2913 5.73171 53.4053 7.43072 51.7619C8.9787 50.2644 10.7507 48.9681 12.7417 48.1244C13.2149 47.9245 13.7208 47.7007 14.228 47.6026C14.3954 47.5699 14.5716 47.5712 14.7125 47.629C14.7364 47.6391 14.7603 47.6504 14.783 47.6655C14.8912 47.7296 14.9692 47.839 14.9906 48.0062C15.0561 48.4941 14.8358 49.0222 14.6043 49.4396L14.6055 49.4421Z" fill="#B9C98B"/>
<path d="M20.2376 33.6173C18.9313 34.8533 17.601 36.0629 16.2607 37.2624C14.6661 38.6907 13.059 40.104 11.4645 41.5323C9.86613 42.9645 8.2804 44.4104 6.73619 45.8991C5.20583 47.374 3.71449 48.8916 2.29488 50.4734C2.15015 50.6343 2.00668 50.7952 1.86572 50.9574C1.86824 50.9172 1.87202 50.8745 1.87579 50.8342C2.15267 50.5211 2.43206 50.2093 2.71397 49.9013C4.15623 48.3246 5.66771 46.8107 7.21569 45.3383C8.77122 43.8572 10.362 42.4175 11.9641 40.9879C13.5687 39.5558 15.1834 38.1337 16.783 36.6953C17.9232 35.6693 19.0546 34.6345 20.1696 33.5796C20.1923 33.5909 20.2162 33.6035 20.2389 33.6173H20.2376Z" fill="#768751"/>
<path d="M14.7842 47.6686C14.0392 48.3865 13.3004 49.112 12.5705 49.8451C10.2309 52.1938 7.96934 54.6205 5.78958 57.1176C5.44978 57.5061 5.1125 57.8984 4.77773 58.2907C4.74124 58.2957 4.70474 58.2995 4.66824 58.3033C6.21748 56.4889 7.80825 54.711 9.44181 52.9721C11.1547 51.1477 12.9128 49.3673 14.7137 47.6309C14.7377 47.6409 14.7616 47.6522 14.7842 47.6673V47.6686Z" fill="#768751"/>
<path d="M13.1357 26.7846C12.1793 27.7729 11.224 28.7624 10.2776 29.7608C7.92042 32.2415 5.60349 34.7638 3.41366 37.3954C3.1456 37.7173 2.87879 38.0417 2.6145 38.3674C2.6145 38.3648 2.6145 38.3623 2.6145 38.3598C2.62583 38.3095 2.63841 38.258 2.64974 38.2077C4.08445 36.4436 5.58209 34.7286 7.11371 33.0462C9.05435 30.9138 11.0504 28.8329 13.0564 26.7607C13.0829 26.767 13.1093 26.7758 13.1357 26.7846Z" fill="#768751"/>
<path d="M102.329 1.96973H4.80927V2.56445H102.329V1.96973Z" fill="#E3C9BA"/>
<path d="M98.9566 57.8882H1.43637V58.4829H98.9566V57.8882Z" fill="#E3C9BA"/>
<path d="M1.73067 58.4752L5.40681 2.03898L4.81279 2L1.13287 58.4953C1.33172 58.4916 1.53182 58.4853 1.73067 58.4752Z" fill="#E3C9BA"/>
<path d="M117.962 1.37416C117.822 1.21196 114.683 1.33895 110.752 1.33643H110.679C103.918 1.33141 97.7913 1.3553 85.181 1.39679H85.1193C66.1496 1.4584 44.6906 1.55899 33.0971 1.66209C33.0707 1.66209 33.0443 1.66209 33.0191 1.66209C30.7991 1.68221 28.944 1.70232 27.5433 1.72118C27.4904 1.80417 27.4388 1.88715 27.3885 1.97014C27.2702 2.16503 27.1594 2.36369 27.0537 2.56487C26.8284 2.98985 26.6296 3.42741 26.4572 3.87754C24.7456 8.32605 25.3534 13.2184 24.8714 17.8492C24.6122 20.3476 23.9011 22.7202 23.0957 25.1042C22.1669 27.8515 21.4143 30.5523 21.2104 33.4454C21.0141 36.2355 21.1236 39.0394 20.8706 41.8282C20.629 44.4975 20.0752 47.133 19.3465 49.7193C18.5876 52.4138 17.6387 55.0555 16.647 57.6796C16.3953 58.3435 16.1423 59.0061 15.8869 59.6687C15.8214 59.8385 15.6377 60.0636 15.8478 60.2144C15.8969 60.2496 16.1876 60.2434 16.2732 60.2496C16.6269 60.2761 16.9818 60.2962 17.3367 60.3087C18.8268 60.3641 20.3206 60.3012 21.8069 60.1893C24.7254 59.9705 27.6263 59.5594 30.5511 59.4361C33.4822 59.3117 36.3592 59.6122 39.2349 60.1403C42.1799 60.6822 45.0656 61.8993 48.0584 61.7962C61.1483 61.3461 64.0341 59.753 83.8344 59.7128C85.551 59.709 87.2437 59.3154 88.9578 59.2199C88.983 59.2174 89.0081 59.2161 89.0333 59.2148C90.2289 59.1482 91.427 59.1117 92.6251 59.0941C97.9046 59.0187 94.9118 59.1218 99.3582 59.1884C100.104 59.1998 100.91 59.2098 101.796 59.2174C104.853 59.245 102.817 59.2727 105.874 59.3003C107.128 59.3117 108.383 59.323 109.637 59.3343C109.774 58.7257 109.903 58.1147 110.025 57.5011C110.355 55.8351 110.631 54.1578 110.852 52.4666C111.056 50.9151 111.224 49.3585 111.368 47.8006C111.429 45.2997 111.518 42.7951 111.811 40.3068C112.115 37.7418 112.711 35.2409 113.391 32.7451C114.129 30.0267 114.893 27.3121 115.241 24.517C115.587 21.7345 115.608 18.9293 115.703 16.1317C115.793 13.4334 115.986 10.749 116.502 8.09093C117.032 5.36247 116.893 5.13489 117.705 2.47182C117.774 2.2455 118.113 1.54641 117.962 1.37164V1.37416Z" fill="#F7E9E1"/>
<path d="M99.3443 0.0358345C99.1807 3.32129 98.885 6.59921 98.4558 9.86078C98.3325 10.8 98.1966 11.7367 98.0518 12.6722C98.0443 12.7187 98.116 12.7389 98.1236 12.6923C98.632 9.427 99.0083 6.14153 99.2474 2.84476C99.3154 1.90929 99.372 0.972562 99.4186 0.0358345C99.4211 -0.0119448 99.3468 -0.0119448 99.3443 0.0358345Z" fill="#B97351"/>
<path d="M103.621 15.7217C103.616 15.6978 103.611 15.6727 103.606 15.6488C103.569 15.4627 103.528 15.2791 103.48 15.0943C103.266 14.2657 102.917 13.461 102.436 12.7493C102.419 12.7242 102.403 12.699 102.385 12.6752C101.976 12.0829 101.472 11.5574 100.878 11.1387C100.253 10.6986 99.5318 10.3956 98.7717 10.3013C97.892 10.1919 97.001 10.3679 96.1942 10.7237C95.2038 11.1613 94.3845 11.8528 93.6936 12.6638C93.6722 12.6877 93.6508 12.7141 93.6306 12.738C93.1499 13.3139 92.7308 13.9463 92.3583 14.5914C92.1783 14.9019 92.0034 15.254 91.8347 15.6337C91.8234 15.6576 91.8121 15.6827 91.8007 15.7079C91.3804 16.6622 90.9915 17.7813 90.6505 18.8626C90.6429 18.8877 90.6354 18.9129 90.6265 18.9368C90.3698 19.7553 90.1395 20.5487 89.9394 21.2314C89.9318 21.2553 96.8399 21.1975 100.527 21.1271C101.577 21.107 102.627 21.1183 103.675 21.1874C103.693 21.1887 103.705 21.1723 103.705 21.156C103.757 20.4255 103.81 19.6899 103.83 18.9519C103.83 18.928 103.831 18.9028 103.832 18.8789C103.859 17.819 103.818 16.759 103.621 15.7217Z" fill="#B97351"/>
<path d="M102.438 12.7476C100.794 12.7451 99.1503 12.7426 97.5079 12.7413C96.2154 12.7401 94.9229 12.7388 93.6304 12.7363C93.6518 12.7111 93.6719 12.686 93.6933 12.6621H93.7323C96.6169 12.6659 99.5014 12.6697 102.385 12.6734C102.402 12.6973 102.419 12.7225 102.436 12.7476H102.438Z" fill="#7D443B"/>
<path d="M103.621 15.7211C101.323 15.7186 99.0245 15.7148 96.7277 15.7123C95.0853 15.7098 93.4429 15.7085 91.8006 15.706C91.8119 15.6809 91.8232 15.6557 91.8346 15.6318C92.2071 15.6318 92.5796 15.6318 92.9534 15.6331C95.8429 15.6369 98.7325 15.6406 101.622 15.6444C102.284 15.6444 102.945 15.6457 103.607 15.6469C103.612 15.6708 103.617 15.696 103.622 15.7199L103.621 15.7211Z" fill="#7D443B"/>
<path d="M103.832 18.878C103.832 18.9018 103.831 18.927 103.829 18.9509C101.326 18.9484 98.8204 18.9446 96.3173 18.9408C94.4194 18.9383 92.5228 18.9358 90.6262 18.9345C90.6338 18.9106 90.6413 18.8855 90.6501 18.8604C91.2807 18.8604 91.9124 18.8616 92.543 18.8629C95.4325 18.8666 98.3221 18.8704 101.212 18.8742C102.085 18.8754 102.958 18.8767 103.832 18.878Z" fill="#7D443B"/>
<path d="M33.9767 1.65995C33.9238 1.76179 33.8722 1.86615 33.8219 1.96926C33.725 2.16666 33.6306 2.36407 33.5375 2.56398C32.7798 4.19603 32.177 5.89722 31.739 7.64243C31.1878 9.83776 30.9575 12.0721 30.8342 14.3278C30.7096 16.5759 30.6466 18.8379 30.2313 21.0559C30.0212 22.1762 29.704 23.2638 29.3088 24.3325C28.9124 25.4025 28.4618 26.4524 28.0805 27.5274C27.2977 29.7316 26.8472 32.0451 26.7427 34.38C26.7402 34.4278 26.6659 34.4278 26.6685 34.38C26.783 31.7962 27.3317 29.2689 28.2492 26.8522C28.662 25.7646 29.1201 24.6934 29.4938 23.5894C29.8575 22.5131 30.1155 21.4079 30.2867 20.2851C30.6378 17.9904 30.6643 15.6631 30.8178 13.3508C30.9663 11.1265 31.2835 8.9287 31.8926 6.77988C32.3016 5.33519 32.8264 3.92444 33.4569 2.56273C33.5488 2.36281 33.6432 2.16415 33.7413 1.968C33.7917 1.8649 33.8433 1.76179 33.8961 1.65869C33.9238 1.65869 33.9515 1.65869 33.9792 1.65869L33.9767 1.65995Z" fill="#D8BFB4"/>
<path d="M26.0819 44.9636C25.8516 48.4892 25.0851 51.9733 23.814 55.2701C23.4478 56.2181 23.04 57.1498 22.592 58.0627C22.5706 58.1054 22.6348 58.1431 22.6562 58.1004C24.2231 54.9017 25.2991 51.4666 25.834 47.946C25.9837 46.9565 26.0907 45.9619 26.1561 44.9636C26.1587 44.9158 26.0844 44.9158 26.0819 44.9636Z" fill="#D8BFB4"/>
<path d="M52.7828 5.31136C51.5532 7.72799 51.3329 10.4665 51.1391 13.1245C51.0372 14.5265 50.9327 15.9272 50.7112 17.3166C50.4847 18.7386 50.16 20.1456 49.7409 21.5237C49.2664 23.0828 48.6687 24.6042 47.9588 26.0715C47.9387 26.1142 48.0016 26.152 48.023 26.1092C49.2652 23.543 50.16 20.812 50.6697 18.0068C50.9164 16.6502 51.0548 15.2809 51.1567 13.9054C51.2612 12.5135 51.3443 11.1178 51.5469 9.73598C51.7709 8.21961 52.1497 6.71959 52.8482 5.34656C52.8696 5.30382 52.8054 5.26609 52.784 5.30884L52.7828 5.31136Z" fill="#D8BFB4"/>
<path d="M54.7499 17.4524C54.4202 20.4008 53.6097 23.2915 52.355 25.981C52.0051 26.7316 51.62 27.4672 51.2021 28.1826C51.1782 28.2241 51.2424 28.2618 51.2663 28.2203C52.7627 25.6465 53.8387 22.8338 54.4353 19.9168C54.6027 19.102 54.731 18.2784 54.8229 17.4524C54.8279 17.4046 54.7537 17.4058 54.7487 17.4524H54.7499Z" fill="#D8BFB4"/>
<path d="M99.4979 25.9587C99.3833 26.2579 99.2713 26.5584 99.1631 26.8589C98.296 29.2592 97.6201 31.7286 97.1419 34.2358C96.6574 36.7819 96.4132 39.3482 96.2974 41.9346C96.237 43.2648 96.1842 44.5964 96.0344 45.9204C95.8897 47.1941 95.6531 48.4565 95.3649 49.705C94.7683 52.2939 93.9918 54.8413 93.2682 57.3962C93.097 58.0023 92.9246 58.6083 92.7535 59.2144C92.727 59.2144 92.7006 59.2169 92.6742 59.2194L93.4733 56.3941C94.1907 53.8631 94.9609 51.3358 95.497 48.7582C95.7701 47.4418 95.9639 46.114 96.0684 44.7737C96.1703 43.4572 96.2068 42.1395 96.2773 40.8218C96.412 38.2845 96.7354 35.7597 97.2602 33.2727C97.7875 30.7756 98.5137 28.3212 99.4274 25.9385C99.445 25.8945 99.5155 25.9134 99.4991 25.9587H99.4979Z" fill="#D8BFB4"/>
<path d="M102.765 40.6501C102.63 43.1535 102.4 45.6556 101.978 48.1288C101.563 50.5668 100.96 52.9784 100.078 55.2907C99.5757 56.6084 98.9804 57.8896 98.2882 59.1193C98.2643 59.1608 98.3285 59.1985 98.3524 59.1571C99.5719 56.9932 100.481 54.667 101.141 52.2756C101.807 49.8665 102.227 47.3945 102.501 44.9113C102.657 43.4942 102.764 42.0734 102.84 40.6501C102.843 40.6023 102.769 40.6023 102.766 40.6501H102.765Z" fill="#D8BFB4"/>
<path d="M88.7048 1.39502C88.6431 1.58614 88.584 1.77725 88.5261 1.96963C88.5034 2.04507 88.4821 2.11925 88.4594 2.19344C88.4229 2.31666 88.3877 2.43988 88.3537 2.56436C87.8994 4.19137 87.5822 5.84604 87.3255 7.51706C87.0448 9.34525 86.778 11.1722 86.3753 12.979C85.5988 16.4682 84.4485 19.8731 82.9559 23.1221C82.9358 23.1661 82.8716 23.1283 82.8917 23.0843C83.7425 21.2335 84.4812 19.3337 85.1029 17.3948C85.6479 15.6936 86.1022 13.9648 86.4646 12.2158C86.8422 10.3914 87.0813 8.54558 87.3808 6.70733C87.6086 5.30664 87.9119 3.92355 88.2933 2.56436C88.3486 2.36569 88.4065 2.16703 88.4657 1.96963C88.5223 1.77725 88.5815 1.58614 88.6431 1.39502H88.7086H88.7048Z" fill="#D8BFB4"/>
<path d="M43.1512 70.1656C43.0418 69.8525 42.814 69.6023 42.4918 69.503C42.1331 69.3923 41.7417 69.469 41.3893 69.5835C41.4069 69.5633 41.3969 69.5206 41.3616 69.5181C40.8721 69.4753 40.599 69.9871 40.4115 70.3567C40.1409 70.8873 39.9043 71.4343 39.645 71.9699C39.3895 72.5005 39.1101 73.0223 38.7578 73.4963C38.6911 73.5856 38.3588 73.9729 38.243 74.3312C38.2355 74.3551 38.2279 74.379 38.2229 74.4029C38.1927 74.5286 38.1939 74.6481 38.2493 74.7474C38.4054 75.0278 38.7641 75.1007 39.0674 75.1146C39.4462 75.1309 39.9659 75.1397 40.3032 74.9561C40.6191 74.7826 41.0357 74.4029 41.2446 74.2005C41.8726 73.5932 42.3043 72.8274 42.8328 72.1321C42.9449 71.985 43.0757 71.8354 43.1575 71.6681C43.2079 71.5663 43.2293 71.4569 43.2406 71.3463C43.2456 71.301 43.2482 71.2545 43.2507 71.2092C43.2507 71.1853 43.2532 71.1627 43.2532 71.1388C43.267 70.8144 43.2607 70.4737 43.1525 70.1644L43.1512 70.1656Z" fill="#F7E9E1"/>
<path d="M61.5609 70.2286C61.5407 70.0463 61.5332 69.8464 61.4778 69.6691C61.4249 69.4956 61.3029 69.3585 61.1846 69.2215C61.1846 69.2215 61.1833 69.2189 61.1821 69.2189C61.1594 69.1925 61.1367 69.1674 61.1128 69.141C60.9178 68.9235 60.7 68.7147 60.4395 68.5815C60.1438 68.4293 59.8065 68.4042 59.5032 68.5538C59.1659 68.7198 58.9343 69.0442 58.7569 69.3686C58.7569 69.3422 58.7216 69.3183 58.6927 69.3409C58.3076 69.6464 58.4611 70.2047 58.5794 70.6033C58.7481 71.1741 58.9532 71.7337 59.1344 72.3007C59.3132 72.8615 59.4717 73.4336 59.5397 74.0183C59.556 74.1503 59.59 74.8481 59.8505 75.1524C59.8682 75.1725 59.8858 75.1901 59.9047 75.2065C59.9424 75.2391 59.9852 75.263 60.0318 75.2781C60.3376 75.3737 60.6484 75.1813 60.8775 74.9814C61.1644 74.7337 61.5483 74.3816 61.6653 74.017C61.7748 73.6737 61.8163 73.1117 61.8302 72.8225C61.8679 71.9512 61.654 71.0962 61.5584 70.2299L61.5609 70.2286Z" fill="#F7E9E1"/>
<path d="M46.0232 49.1279C45.2253 49.1606 44.4677 49.4209 43.6924 49.5894C42.8618 49.7692 42.0111 49.8408 41.1616 49.8144V49.646C41.1616 49.5982 41.0873 49.5982 41.0873 49.646V49.9326C41.0798 49.9301 41.0735 49.9289 41.0659 49.9263C41.0709 50.0169 41.0747 50.1061 41.0798 50.1967C41.295 54.4038 41.3352 58.5882 41.2673 62.7639C41.232 64.9517 41.0898 67.733 41.0294 69.9157C41.0873 69.9597 41.149 70 41.2195 70.0276C41.4749 70.1282 41.7732 70.2011 42.0463 70.171C42.0589 70.1697 42.0702 70.1672 42.0815 70.1647C42.1369 70.1496 42.1961 70.1332 42.2615 70.1182C42.3874 70.0716 42.5044 70.0012 42.6164 69.9195C42.9474 68.8042 44.7043 62.437 44.7597 61.2941C44.8075 60.3246 44.7811 59.359 44.7068 58.3846C44.8088 56.2106 45.0592 54.0442 45.4607 51.9042C45.6318 50.9888 45.8319 50.0785 46.0572 49.1757C46.0622 49.1531 46.0459 49.1279 46.022 49.1292L46.0232 49.1279Z" fill="#FFA57A"/>
<path d="M59.6278 69.7835C59.8568 69.6477 60.0003 69.4176 60.067 69.1674C59.8216 68.0043 59.6114 66.83 59.3044 65.6845C59.103 64.9326 58.8563 64.1996 58.5455 63.5005C58.2459 62.8266 57.8986 62.1841 57.5475 61.5478C56.7974 60.1874 56.1014 58.8131 55.52 57.337C54.3823 54.4513 53.5819 51.4073 52.5587 48.4676C51.6563 45.8775 50.5614 43.3175 49.0046 41.2026C48.6246 40.6859 48.2181 40.198 47.7839 39.7504C47.585 39.5454 47.3698 39.2852 47.1395 39.1393C46.9205 39.001 46.7141 39.2248 46.5379 39.3505C45.9427 39.7743 45.3474 40.198 44.7521 40.623C44.5658 40.7563 44.3255 40.8719 44.2713 41.1586C44.2097 41.4893 44.2965 41.9042 44.3229 42.2425L44.3947 43.1905C44.3896 43.183 44.3859 43.1742 44.3808 43.1666C44.3519 43.1176 44.294 43.1704 44.3217 43.2194C44.3506 43.2685 44.3796 43.3188 44.4085 43.369L44.4186 43.5036C44.4224 43.5564 44.4815 43.5551 44.4916 43.5124C46.986 47.81 49.4212 52.163 51.6626 56.6605C52.2353 57.8097 52.7915 58.969 53.339 60.1346C53.8839 61.2951 54.4339 62.4506 55.0531 63.5558C56.294 65.7688 57.6972 67.8522 59.0451 69.9683C59.249 69.9281 59.4554 69.8891 59.6278 69.786V69.7835Z" fill="#FFA57A"/>
<path d="M42.0399 35.4465C41.8776 34.6657 41.6397 33.8987 41.4232 33.1317C41.208 32.3673 40.989 31.6041 40.7625 30.8434C40.5083 29.9909 40.2427 29.1409 39.9583 28.2972C39.9382 28.2356 39.918 28.1727 39.8979 28.1099C39.8375 28.1061 39.7758 28.0847 39.7192 28.0357C39.6487 27.9753 39.5757 27.9188 39.5027 27.8622C39.2636 27.7742 39.0383 27.6472 38.7992 27.5554C38.6281 27.49 38.4645 27.4334 38.3084 27.3555C37.6942 27.8559 37.5029 28.7738 37.4664 29.5533C37.4035 30.8723 37.5709 32.1925 37.8163 33.4876C37.9547 34.2181 38.1184 34.9423 38.2832 35.6666C37.6275 35.3296 36.8334 35.5584 36.1299 35.5572C35.2401 35.5559 34.2799 35.6804 33.4643 35.3271C33.443 35.3183 33.4165 35.3233 33.4102 35.3497C33.2529 35.9683 33.195 36.2789 33.083 36.9063C33.0805 36.9214 33.0843 36.9415 33.1006 36.9478C34.5492 37.5853 36.0103 38.1901 37.4866 38.7622C38.2392 39.0539 38.9955 39.3368 39.7557 39.6109C40.2956 39.8058 40.9702 40.11 41.3981 39.553C41.8134 39.0124 42.0374 38.2529 42.1393 37.5891C42.2488 36.8736 42.1897 36.1544 42.0437 35.449L42.0399 35.4465Z" fill="#FFA57A"/>
<path d="M33.7262 36.8425C33.6583 36.469 33.5651 36.1019 33.4481 35.741C33.4795 35.4066 33.6192 35.0834 33.4997 34.7477C33.3839 34.4221 33.1473 34.1241 32.912 33.8751C32.7823 33.7381 32.6439 33.6111 32.518 33.4702C32.3758 33.3118 32.3041 33.132 32.1833 32.9635C32.0549 32.785 31.851 32.7711 31.744 32.9736C31.6987 33.0591 31.6786 33.1345 31.6018 33.2024C31.5402 33.2577 31.4634 33.2904 31.3954 33.3382C31.301 33.4049 31.2318 33.4891 31.1865 33.5947C31.1286 33.728 31.1123 33.8764 31.1135 34.0197C31.1135 34.1379 31.1261 34.241 31.0544 34.3479C31.0128 34.4095 30.9499 34.456 30.9109 34.5214C30.8417 34.6371 30.8052 34.7703 30.8027 34.9049C30.8027 34.9627 30.8102 35.0206 30.8215 35.0771C30.8505 35.2092 30.8492 35.3085 30.814 35.4405C30.7347 35.7347 31.0242 35.99 31.2381 36.1446C31.6043 36.4074 32.0486 36.6048 32.4526 36.801C32.8603 36.9984 33.2643 36.9883 33.6985 36.8902C33.7199 36.8852 33.7287 36.8626 33.725 36.8437L33.7262 36.8425Z" fill="#FFA57A"/>
<path d="M32.1203 36.6439C31.9265 36.0605 31.3853 35.2068 30.6994 35.159C30.3571 35.1351 30.0513 35.3539 29.8751 35.6343C29.865 35.6494 29.8562 35.6657 29.8474 35.6821C29.8449 35.6846 29.8411 35.6871 29.8374 35.6921C29.6473 35.9775 29.5403 36.3057 29.5227 36.6364C29.519 36.7005 29.519 36.7647 29.5227 36.8275C29.5378 37.1255 29.6272 37.4197 29.7958 37.6825C30.1331 38.2043 30.8467 38.6721 31.476 38.4181C31.4936 38.4118 31.5099 38.4042 31.5276 38.3954C31.5351 38.3917 31.5427 38.3879 31.5502 38.3841C32.1908 38.066 32.3292 37.2751 32.1203 36.6439Z" fill="#1F2744"/>
<path d="M34.3318 32.6137C34.1392 32.0303 33.5968 31.1765 32.9109 31.1287C32.5686 31.1048 32.2627 31.3236 32.0865 31.604C32.0765 31.6191 32.0677 31.6355 32.0589 31.6505C32.0563 31.6531 32.0526 31.6568 32.0488 31.6606C31.9846 31.7562 31.9305 31.8567 31.8852 31.9598C31.8663 32.0039 31.8487 32.0491 31.8336 32.0944C31.6574 32.6074 31.704 33.182 32.0073 33.6522C32.3534 34.1879 33.0971 34.6669 33.7402 34.3652C33.8573 34.3098 33.9567 34.2407 34.0423 34.159C34.07 34.1313 34.0977 34.1036 34.1216 34.0735C34.4475 33.6862 34.4941 33.1015 34.333 32.6137H34.3318Z" fill="#1F2744"/>
<path d="M32.4337 33.4634C32.4148 33.5225 32.3896 33.5816 32.3619 33.6407C32.3468 33.6294 32.333 33.6181 32.3179 33.6068C32.2801 33.5778 32.2399 33.6395 32.2776 33.6684C32.2952 33.681 32.3116 33.6948 32.3292 33.7074C32.2789 33.8079 32.2248 33.906 32.1795 34.0028C32.0851 34.204 31.5275 35.3985 31.4332 35.5997C31.3904 35.6902 31.3476 35.782 31.3048 35.8725C31.2998 36.0498 31.2859 36.2271 31.3048 36.4031C31.33 36.6433 31.4558 36.8583 31.5427 37.0833C31.6962 36.8168 31.8145 36.5175 31.9479 36.2472C32.1329 35.8763 32.7798 34.5133 32.9648 34.1424C32.9748 34.1235 32.9723 34.1047 32.9547 34.0908C32.7785 33.9563 32.6011 33.8205 32.4249 33.686C32.4563 33.6193 32.4853 33.5527 32.5067 33.4848C32.5218 33.4395 32.45 33.4169 32.4362 33.4622L32.4337 33.4634Z" fill="#1F2744"/>
<path d="M39.8867 32.9871C39.7306 32.4527 39.7722 31.8504 39.7332 31.2985C39.6929 30.7276 39.64 30.1593 39.5834 29.5897C39.557 29.3282 39.5406 29.0629 39.5016 28.8026C39.4802 28.6618 39.4462 28.5084 39.3468 28.399C39.3053 28.3525 39.2599 28.3223 39.2021 28.2984C39.0435 28.233 38.939 28.189 38.8333 28.0419C38.7351 27.9061 38.6722 27.7527 38.6433 27.5931C38.569 27.5855 38.496 27.5717 38.4243 27.5553C38.3551 27.539 38.301 27.4962 38.2645 27.4409C37.5861 28.008 37.1733 28.8051 37.0349 29.6941C36.8474 30.9074 37.0877 32.1334 36.9946 33.3517C36.9921 33.3769 37.0198 33.392 37.0412 33.3869C37.97 33.1845 38.9352 33.2687 39.859 33.0311C39.8779 33.0261 39.8905 33.0047 39.8854 32.9858L39.8867 32.9871Z" fill="#B2B7C2"/>
<path d="M53.582 52.1871C52.8696 52.5266 52.1271 52.8171 51.3984 53.1213C50.6672 53.4256 49.9046 53.6683 49.1658 53.9562C48.9015 54.0593 48.602 54.1662 48.3276 54.0342C48.0646 53.9072 47.8053 53.667 47.6568 53.4218C47.1874 52.6423 46.7318 51.9319 46.3014 51.2604C46.2322 51.8527 46.1579 52.4436 46.0787 53.0333C46.0409 53.315 46.0082 53.6004 45.9604 53.8795C45.9377 54.009 45.905 54.1448 45.803 54.2228C45.6558 54.3359 42.1131 54.1146 40.0503 53.6834C40.0315 53.6796 40.0139 53.6658 40.0151 53.6431C40.0302 52.5932 40.3864 43.2222 41.441 40.0285C41.5555 39.8751 41.8312 39.6161 41.8991 39.4413C41.9142 39.4024 41.9293 39.3646 41.9432 39.3257C42.2893 39.1019 42.663 38.9233 43.0519 38.7888C43.505 38.6316 43.9807 38.5386 44.4665 38.5084C44.547 38.5034 44.6288 38.4996 44.7119 38.4971C44.7245 38.4795 44.756 38.477 44.7723 38.4958C44.9372 38.492 45.1033 38.4958 45.2707 38.5096C45.3852 38.4795 45.4985 38.4518 45.6143 38.4267C46.2347 38.2909 46.8929 38.2167 47.5171 38.3726C48.1602 38.5335 48.0331 38.4279 48.4245 38.9472C49.2363 40.0222 50.087 40.8207 50.715 42.0101C51.9748 44.3978 52.8935 47.1011 53.6952 50.5853C53.7468 50.8091 53.7644 51.0379 53.7783 51.268C53.7821 51.3309 53.7858 51.3937 53.7896 51.4553C53.7921 51.5094 53.7959 51.5635 53.7997 51.6175C53.8186 51.8816 53.8437 52.0614 53.5807 52.1859L53.582 52.1871Z" fill="#7D443B"/>
<path d="M53.7909 51.4562C53.582 51.0035 53.3101 50.5786 53.0735 50.141C52.5878 49.247 52.1636 48.3191 51.8062 47.3673C51.6225 46.8769 51.4551 46.379 51.3066 45.8761C51.1732 45.4247 51.0775 44.9406 50.8195 44.5408C50.5427 44.1107 50.0871 43.9209 49.6302 43.7411C49.2338 43.5839 48.8562 43.4029 48.5102 43.1501C47.8431 42.6635 47.3246 41.9971 47.015 41.2314C46.9974 41.1874 47.0691 41.1685 47.0868 41.2125C47.4744 42.1694 48.2043 42.9741 49.1268 43.4431C49.5258 43.6455 49.9675 43.7574 50.3501 43.99C50.705 44.2063 50.9341 44.5257 51.0851 44.9079C51.2663 45.3618 51.3695 45.8484 51.518 46.3136C51.6778 46.8128 51.8553 47.3069 52.0504 47.7935C52.4481 48.7843 52.9225 49.7387 53.4524 50.6653C53.5656 50.864 53.6789 51.0639 53.7796 51.2688C53.7834 51.3317 53.7871 51.3946 53.7909 51.4562Z" fill="#1F2744"/>
<path d="M51.0372 41.5937C50.7578 41.1197 50.3639 40.7286 50.1777 40.2018C50.0795 39.9239 50.0115 39.6347 49.9511 39.343C49.9385 39.0828 49.9348 38.8225 49.9411 38.561C49.9625 37.7311 50.15 36.8937 50.043 36.0639C49.9939 35.6829 49.8857 35.3132 49.8202 34.9348C49.7447 34.4934 49.7359 34.0433 49.7624 33.5969C49.8039 32.8714 49.9247 32.1547 49.9952 31.4318C50.0266 31.2293 50.0569 31.0282 50.0845 30.8245C50.2091 29.9091 50.34 28.9573 50.2872 28.0331C50.2444 27.2901 49.9725 26.591 49.3005 26.1496C48.675 25.7385 47.8859 25.5964 47.1396 25.521C45.973 25.4028 44.7899 25.3839 43.6195 25.4455C43.4169 25.4556 43.179 25.4455 42.9877 25.521C42.7889 25.6002 42.7172 25.7674 42.6781 25.9547C42.6781 25.9585 42.6769 25.9635 42.6756 25.9673C41.4637 26.2729 40.2555 26.6136 39.0813 27.0235C38.6094 27.1882 38.1148 27.4183 37.9046 27.8747C37.9033 27.8785 37.9021 27.8823 37.8996 27.886C37.8996 27.881 37.8996 27.876 37.8996 27.8709C37.9046 27.8232 37.8303 27.8232 37.8253 27.8709C37.8115 28.0093 37.8026 28.1476 37.7951 28.2859C37.7888 28.3513 37.7863 28.4154 37.7875 28.482C37.7649 29.2301 37.8354 29.9795 38.0027 30.7101C38.111 31.1841 38.2595 31.648 38.447 32.0969C38.6383 32.5558 38.8674 32.9984 39.0473 33.4611C39.3896 34.34 39.4626 35.2642 39.5105 36.1934C39.3657 36.8987 39.4991 37.5827 39.6816 38.2604C39.732 38.5647 39.7987 38.8665 39.893 39.1632C39.9396 39.3103 39.9912 39.4574 40.0453 39.6033C40.0692 39.7114 40.0906 39.8208 40.1095 39.9302C40.3147 41.1662 39.8578 42.6335 40.74 43.6847C40.7488 43.6947 40.7639 43.6972 40.7765 43.6947C41.4863 43.5526 42.2012 43.652 42.9072 43.7639C43.5704 43.8682 44.2261 43.9588 44.8994 43.9185C45.5715 43.8783 46.2372 43.7626 46.903 43.6658C47.6166 43.5614 48.3302 43.4583 49.0437 43.354C49.8542 43.2358 50.6647 43.1189 51.4739 43.0007C51.4878 42.9981 51.5029 42.9793 51.5016 42.9655C51.4374 42.4814 51.2852 42.0162 51.0372 41.5949V41.5937ZM39.5318 36.5995C39.5482 36.9113 39.5646 37.2231 39.5935 37.5324C39.5394 37.2231 39.5117 36.9126 39.5318 36.5995Z" fill="#B2B7C2"/>
<path d="M44.7345 17.9462C44.3922 17.3125 43.7655 16.8687 43.0871 16.6549C42.1395 16.357 39.7244 16.4148 39.2033 18.5774C39.1845 18.6629 39.1228 19.0112 39.0548 19.4966C39.0334 19.65 39.012 19.8184 38.9907 19.9957C38.8648 21.067 38.7629 22.4928 38.9504 23.3818C39.0221 23.7238 39.1492 24.5536 39.8339 24.7774C40.5361 25.0063 41.5102 24.5825 42.1684 24.267C43.6912 23.5327 44.6162 21.9999 44.9246 20.3792C45.0769 19.5808 45.1347 18.6881 44.7345 17.9475V17.9462Z" fill="#FFA57A"/>
<path d="M45.1898 25.8945C45.0551 25.3123 44.8802 24.7365 44.7266 24.1606C44.5681 23.5659 44.4107 22.9711 44.2522 22.3764C44.0722 21.6987 43.891 21.0197 43.711 20.342C43.7047 20.3169 43.6707 20.3005 43.6493 20.3219C42.9471 21.026 41.9428 21.7176 41.1197 22.272C41.0769 22.1098 41.0329 21.9476 40.9901 21.7854C40.9775 21.7389 40.9045 21.754 40.9171 21.8005C40.9624 21.9715 41.009 22.1438 41.0543 22.3148C40.9863 22.3601 40.9196 22.4053 40.8504 22.4493C40.8101 22.4745 40.8441 22.5411 40.8844 22.516C40.9485 22.4745 41.0115 22.4317 41.0744 22.3902C41.4268 23.7117 41.7804 25.0319 42.1328 26.3534C42.9874 26.7721 44.3969 26.4414 45.1885 25.8945H45.1898Z" fill="#FFA57A"/>
<path d="M48.8043 29.8066C48.6772 30.2328 48.1411 30.1372 47.7963 30.1297C46.2495 30.0957 44.7041 30.0216 43.1574 30.0014C42.3909 29.9914 41.6257 29.9952 40.8593 30.0241C40.0979 30.053 39.339 30.1184 38.5764 30.1234C37.8124 30.1284 37.0624 30.0492 36.3186 29.8732C35.6075 29.7047 34.9128 29.4721 34.2181 29.247C32.6613 28.7428 31.8219 28.3757 30.1946 28.2009C30.2789 27.9017 30.3633 27.6024 30.4463 27.3032C30.4677 27.2277 30.4753 27.1359 30.5357 27.0856C30.6024 27.0303 30.7244 27.0353 30.8088 27.024C30.995 26.9989 31.1825 26.975 31.3688 26.9524C32.0434 26.8706 34.0079 26.672 34.6875 26.6544C35.347 26.6368 36.0115 26.6217 36.6684 26.6933C37.9408 26.8304 39.0105 27.1385 40.2728 27.3057C41.5729 27.4779 42.9258 27.439 44.1617 27.0831C45.4328 26.716 46.7844 26.3539 48.1008 26.6167C48.0971 26.6242 48.0958 26.633 48.0983 26.6431C48.2909 27.3698 48.4834 28.0966 48.676 28.8233C48.7565 29.1288 48.8962 29.4897 48.8018 29.8078L48.8043 29.8066Z" fill="#FFA57A"/>
<path d="M49.176 27.5253C49.0237 27.0261 48.8022 26.5206 48.3806 26.19C47.9451 25.848 47.2379 25.7109 46.7118 25.8882C46.0234 26.1195 45.3513 26.415 44.6743 26.6803C44.6604 26.6451 44.6478 26.6112 44.634 26.576C44.6164 26.532 44.5446 26.5508 44.5622 26.5961C44.8039 27.2147 45.0027 27.8195 45.082 28.4821C45.1575 29.1171 45.2456 29.7407 45.3929 30.3644C45.4671 30.6812 45.5502 30.9956 45.6345 31.3099C45.6697 31.4407 45.6911 31.7952 45.8862 31.804C45.9529 31.8065 46.007 31.7625 46.0561 31.7248C46.192 31.623 46.3191 31.5576 46.4853 31.5199C46.7735 31.4532 47.0667 31.4168 47.3536 31.3401C47.8747 31.2005 48.4586 31.022 48.8437 30.6234C49.1722 30.2839 49.3547 29.8224 49.4101 29.3585C49.4856 28.7411 49.3522 28.115 49.1722 27.5265L49.176 27.5253Z" fill="#B2B7C2"/>
<path d="M26.8447 26.409C26.6911 26.1374 26.3904 26.0016 26.0883 25.984C26.0568 25.9815 26.0254 25.9815 25.9939 25.9815C25.9864 25.9815 25.9788 25.9815 25.97 25.9815C25.9599 25.9815 25.9499 25.9827 25.9398 25.984C25.9348 25.9827 25.9323 25.9815 25.926 25.9815C25.2099 25.9765 24.5303 26.3763 24.237 27.0389C23.9778 27.6223 23.9853 28.5075 24.5907 28.8772C24.9204 29.0796 25.2854 29.0846 25.6189 28.9664C25.6478 28.9564 25.6768 28.9438 25.7057 28.9325C25.9675 28.8206 26.2041 28.6345 26.3815 28.4107C26.7641 27.9291 27.1807 27.0075 26.8434 26.409H26.8447Z" fill="#1F2744"/>
<path d="M29.2999 26.761C29.2395 26.7773 29.1766 26.7886 29.1124 26.7987C29.1137 26.7811 29.1149 26.7622 29.1162 26.7434C29.12 26.6956 29.0457 26.6956 29.0419 26.7434C29.0407 26.7647 29.0394 26.7861 29.0369 26.8075C28.9261 26.8213 28.8129 26.8289 28.7084 26.8439C28.4882 26.8754 28.2667 26.9068 28.0464 26.9382C27.947 26.9521 27.8463 26.9672 27.7469 26.981C27.5959 27.074 27.4398 27.1608 27.3039 27.2714C27.1164 27.4236 27.0056 27.6474 26.8647 27.8423C27.1718 27.8234 27.4877 27.758 27.7859 27.7228C28.1975 27.6738 28.609 27.6248 29.0205 27.5745C29.0419 27.5719 29.0558 27.5594 29.0583 27.5367C29.0746 27.3154 29.091 27.0942 29.1061 26.8716C29.1791 26.8615 29.2508 26.849 29.3188 26.8301C29.3654 26.8175 29.3452 26.7459 29.2987 26.7584L29.2999 26.761Z" fill="#1F2744"/>
<path d="M29.7091 26.4254C29.6902 26.4204 29.6701 26.4166 29.6512 26.4116C29.6436 26.4078 29.6348 26.4053 29.626 26.4053C28.9124 26.2356 29.9457 26.0017 28.3713 25.9439C28.0856 25.9338 26.9378 25.8697 26.7314 26.0784C26.5275 26.2846 26.3325 26.5172 26.1777 26.7624C26.0292 26.9988 25.9247 27.2653 25.9209 27.547C25.9184 27.7746 25.9662 28.0977 26.1563 28.2499C26.3136 28.3756 26.408 28.3027 26.4331 28.1644C26.4583 28.1669 26.4835 28.1656 26.5099 28.1606C26.6584 28.1304 26.7402 27.9858 26.7818 27.8513C26.8497 27.8274 26.9126 27.7859 26.9567 27.7331C27.0914 27.5721 27.1216 27.3383 27.3053 27.2163C27.489 27.0943 27.7357 27.1195 27.9434 27.1472C28.1875 27.1798 28.4304 27.2226 28.6746 27.254C28.8306 27.2741 28.9842 27.2804 29.1302 27.2125C29.4121 27.078 29.548 26.7637 29.6512 26.4858C29.6638 26.4883 29.6776 26.4921 29.6902 26.4946C29.7368 26.5059 29.7569 26.4342 29.7103 26.4229L29.7091 26.4254Z" fill="#FFA57A"/>
<path d="M27.9986 26.6902C27.5166 26.5104 26.8735 26.8436 26.6042 27.2396C26.4859 27.4131 26.394 27.6508 26.4079 27.8683C26.389 27.867 26.3663 27.8784 26.3638 27.9035C26.3475 28.0292 26.4217 28.1374 26.5413 28.1789C26.6898 28.2292 26.837 28.1411 26.9314 28.0292C26.9578 27.9978 26.9805 27.9639 27.0006 27.9286C27.0183 27.9689 27.0522 28.0016 27.1064 28.0204C27.3027 28.0883 27.4738 27.8318 27.5493 27.6948C27.6312 27.5464 27.6953 27.3943 27.8036 27.2623C27.9017 27.1428 28.0389 27.0736 28.1409 26.9643C28.2579 26.8398 28.1258 26.7379 27.9986 26.6902Z" fill="#FFA57A"/>
<path d="M31.4308 26.0452C31.4308 26.0452 31.4308 26.0452 31.4308 26.044C31.4157 26.0163 31.3981 25.9899 31.3792 25.966C31.198 25.7208 30.8808 25.6102 30.58 25.6165C30.5624 25.6165 30.5448 25.6177 30.5259 25.619C30.5221 25.6177 30.5171 25.6165 30.5121 25.6165C29.796 25.6114 29.1164 26.0113 28.8231 26.6739C28.5639 27.2573 28.5714 28.1412 29.1768 28.5121C29.465 28.6882 29.7784 28.7146 30.0754 28.6404C30.0993 28.6341 30.1232 28.6278 30.1471 28.6215C30.4655 28.5235 30.7587 28.311 30.9689 28.0469C31.3515 27.5654 31.7668 26.6462 31.4308 26.0465V26.0452Z" fill="#1F2744"/>
<path d="M33.1649 33.9442C33.1234 33.6877 32.776 33.2766 32.7584 33.2527C32.6426 33.0955 32.435 32.9673 32.2512 32.9069C32.0763 32.8491 31.8586 32.8403 31.7139 32.971C31.6195 33.0565 31.5565 33.1747 31.4634 33.264C31.3816 33.342 31.3036 33.4136 31.2432 33.5105C31.2293 33.5331 31.2432 33.5545 31.262 33.562C31.2331 33.7493 31.2973 33.9342 31.3778 34.1039C31.3942 34.1379 31.4206 34.2033 31.4546 34.2661C31.4433 34.3001 31.4332 34.334 31.4231 34.3692C31.3338 34.6798 31.2646 35.0608 31.4735 35.3399C31.5767 35.4782 31.7327 35.5599 31.8775 35.6467C32.0033 35.7221 32.1317 35.8554 32.289 35.8479C32.5193 35.8378 32.6099 35.6127 32.5331 35.4304C32.5986 35.4204 32.6615 35.4003 32.7232 35.3613C32.8503 35.2808 32.8692 35.1412 32.8314 35.0029C32.8176 34.9526 32.7836 34.8533 32.7295 34.8194C32.7597 34.8143 32.7924 34.8055 32.8264 34.7904C33.0705 34.6848 33.024 34.4686 32.8918 34.3101C33.097 34.3001 33.2014 34.1743 33.1637 33.943L33.1649 33.9442Z" fill="#FFA57A"/>
<path d="M45.7827 18.6094C45.8242 18.3479 45.7965 18.0788 45.687 17.8374C45.5813 17.6035 45.4039 17.4011 45.1723 17.2854C44.9319 17.1647 44.6852 17.1157 44.5091 16.9422C44.4675 16.8768 44.4235 16.8139 44.3756 16.7548C44.3731 16.7486 44.3694 16.7435 44.3668 16.7372C44.3618 16.7259 44.353 16.7196 44.3442 16.7171C44.1932 16.5423 44.0056 16.4066 43.7602 16.36C43.4368 16.2984 43.1033 16.3525 42.7773 16.2997C42.4577 16.2481 42.1456 16.1551 41.8271 16.096C41.3565 16.008 40.8128 16.0017 40.4088 16.2972C40.3232 16.36 40.2553 16.4342 40.1873 16.5159C40.0514 16.6794 39.8802 16.6756 39.6864 16.7096C39.436 16.7536 39.2006 16.8642 39.003 17.0239C38.6683 17.2968 38.3272 17.9355 38.7828 18.2423C38.5563 18.3907 38.5487 18.7415 38.8268 18.8609C39.0118 18.9401 39.2661 18.8684 39.4536 18.8307C39.7305 18.7754 40.0111 18.6962 40.2968 18.7138C40.4264 18.7226 40.5447 18.7553 40.658 18.8031C40.8115 18.827 40.9449 18.8911 41.0972 19.0068C41.2583 19.1287 41.398 19.2394 41.6094 19.2519C41.763 19.2607 41.9165 19.2243 42.07 19.2318C42.7031 19.2645 42.5571 19.8944 42.576 20.3295C42.5823 20.4691 42.6099 20.6225 42.7459 20.7067C42.8126 20.7469 42.9019 20.752 42.9749 20.7746C43.0592 20.7997 43.1423 20.8312 43.209 20.8903C43.2858 20.9594 43.326 21.0462 43.3399 21.1405C43.3411 21.1392 43.3424 21.1367 43.3449 21.1354C43.3638 21.3241 43.3751 21.5127 43.3764 21.705C43.3776 21.8848 43.4242 21.9917 43.5689 22.1011C43.8018 22.2784 44.0497 22.4381 44.2888 22.6053C44.3102 22.6204 44.3404 22.6053 44.3467 22.5814C44.4411 22.2331 44.5405 21.8723 44.7884 21.5982C44.9948 21.3693 45.2742 21.2184 45.468 20.977C45.7814 20.586 45.8141 20.0101 45.5561 19.5826C45.4253 19.3664 45.5826 19.2104 45.6656 19.0156C45.721 18.886 45.7613 18.7503 45.7827 18.6107V18.6094Z" fill="#1F2744"/>
<path d="M40.3308 22.5261C40.1987 22.4633 40.059 22.408 39.9319 22.3375C39.689 22.203 39.6902 21.9817 39.811 21.7554C39.9583 21.4788 40.1282 21.2122 40.2868 20.9406C40.3119 20.8966 40.244 20.8564 40.2188 20.9004L39.8677 21.5001C39.7796 21.6498 39.6638 21.8107 39.6437 21.988C39.6021 22.3602 40.0237 22.4658 40.2918 22.5928C40.3371 22.6142 40.3774 22.5463 40.3321 22.5249L40.3308 22.5261Z" fill="#DD6B4B"/>
<path d="M41.5717 21.2863C41.5227 21.505 41.3918 21.6622 41.2798 21.6371C41.1665 21.6119 41.1149 21.4145 41.164 21.1957C41.2131 20.977 41.3439 20.8198 41.4559 20.8449C41.5692 20.8701 41.6208 21.0675 41.5717 21.2863Z" fill="#1F2744"/>
<path d="M39.6337 20.9127C39.5846 21.1315 39.4537 21.2887 39.3417 21.2635C39.2285 21.2384 39.1769 21.041 39.226 20.8222C39.275 20.6034 39.4059 20.4462 39.5179 20.4714C39.6312 20.4965 39.6828 20.6939 39.6337 20.9127Z" fill="#1F2744"/>
<path d="M44.0486 21.2259C43.7541 20.943 43.3879 21.0838 43.1425 21.3378C43.1425 21.3026 43.1412 21.2674 43.14 21.2322C43.1387 21.1819 43.0594 21.1819 43.0607 21.2322C43.0695 21.5138 43.077 21.7955 43.0871 22.0784C43.0921 22.233 43.077 22.4883 43.213 22.5989C43.4684 22.8076 43.8838 22.4028 44.0184 22.2192C44.2286 21.9313 44.3393 21.5038 44.0499 21.2259H44.0486Z" fill="#FFA57A"/>
<path d="M42.3798 20.2838C42.3269 20.2536 41.8676 20.016 41.6159 19.9808C41.4548 19.9582 41.2308 19.9154 41.0873 20.016C40.9879 20.0864 40.9337 20.2209 41.0093 20.3278C41.1099 20.4699 41.3579 20.4347 41.5051 20.4674C41.7203 20.5152 41.8953 20.6547 42.118 20.6799C42.2388 20.6937 42.4389 20.7038 42.5031 20.5705C42.5585 20.4561 42.4779 20.3404 42.3798 20.2838Z" fill="#1F2744"/>
<path d="M39.9294 19.6757C39.8728 19.6531 39.382 19.4922 39.1277 19.4972C39.1051 19.4972 39.0799 19.4972 39.0548 19.4972C39.0334 19.6506 39.012 19.8191 38.9906 19.9964C39.0283 19.9938 39.0636 19.9913 39.095 19.9938C39.314 20.0077 39.5103 20.1171 39.7331 20.107C39.8539 20.1007 40.054 20.0793 40.0968 19.9398C40.1346 19.8178 40.0351 19.716 39.9307 19.6757H39.9294Z" fill="#1F2744"/>
<path d="M41.1164 23.0178C41.0736 23.0141 41.0296 23.009 40.9855 23.0053C40.5262 22.9612 40.0656 22.9172 39.6062 22.8732C39.6037 22.8732 39.5999 22.8732 39.5974 22.8732H39.5924C39.5672 22.8707 39.5559 22.8946 39.5596 22.9172C39.5596 22.9198 39.5596 22.921 39.5596 22.9223C39.6075 23.3133 39.7182 23.7697 40.136 23.8162C40.5413 23.8615 41.1064 23.1209 41.1416 23.0857C41.1668 23.0618 41.1454 23.0216 41.1164 23.0191V23.0178Z" fill="#DD6B4B"/>
<path d="M39.6061 22.8745C39.6061 22.8745 39.5998 22.8745 39.5973 22.8745C39.6074 23.1423 39.8654 23.2794 40.0957 23.3121C40.3751 23.351 40.6759 23.2769 40.9011 23.0832C40.9213 23.0656 40.954 23.0392 40.9855 23.0078C40.5261 22.9638 40.0655 22.9198 39.6061 22.8758V22.8745Z" fill="white"/>
<path d="M43.6748 21.4854C43.2255 21.4615 43.5137 22.2109 43.1475 22.2172C43.0971 22.2172 43.0971 22.2964 43.1475 22.2964C43.5754 22.2889 43.306 21.5458 43.6748 21.5646C43.7251 21.5672 43.7251 21.4879 43.6748 21.4854Z" fill="#DD6B4B"/>
<path d="M38.7151 27.9362C38.2079 27.9299 37.7234 28.0833 37.3143 28.3826C37.2766 28.4102 37.3143 28.4756 37.3521 28.4467C37.7511 28.155 38.2205 28.0041 38.7151 28.0104C38.7629 28.0104 38.7629 27.9362 38.7151 27.9362Z" fill="#DD6B4B"/>
<path d="M39.3102 36.5837C39.0346 36.38 38.7804 36.1524 38.5463 35.9022C38.5136 35.867 38.4607 35.9198 38.4935 35.955C38.7326 36.209 38.9918 36.4404 39.2725 36.6478C39.3115 36.6768 39.348 36.6114 39.3102 36.5837Z" fill="#DD6B4B"/>
<path d="M28.3309 26.0808C27.9294 25.984 27.7217 26.4329 27.5091 26.6932C27.2485 27.0125 27.0019 27.3533 26.9943 27.7808C26.9943 27.8285 27.0673 27.8285 27.0686 27.7808C27.0749 27.3973 27.2876 27.0867 27.5191 26.7975C27.6047 26.6906 27.6941 26.5875 27.7759 26.4782C27.9156 26.2946 28.0376 26.0871 28.3107 26.1525C28.3573 26.1638 28.3774 26.0921 28.3309 26.0808Z" fill="#DD6B4B"/>
<path d="M27.3217 26.0203C26.9719 26.1535 26.885 26.576 26.7113 26.8677C26.5037 27.2173 26.359 27.5316 26.4848 27.9428C26.4987 27.988 26.5704 27.9692 26.5565 27.9226C26.4357 27.5291 26.5779 27.2361 26.7755 26.9042C26.9341 26.6376 27.026 26.2114 27.3419 26.0907C27.3859 26.0743 27.367 26.0027 27.3217 26.019V26.0203Z" fill="#DD6B4B"/>
<path d="M32.7573 34.071C32.6717 33.8346 32.5497 33.6108 32.3798 33.4234C32.1809 33.2047 32.001 33.2298 31.7266 33.1908C31.68 33.1845 31.6599 33.2562 31.7065 33.2625C31.7895 33.2738 31.8701 33.2738 31.9531 33.2801C32.1117 33.2927 32.2237 33.3606 32.3269 33.4762C32.488 33.6548 32.6038 33.866 32.6856 34.0898C32.702 34.1338 32.7737 34.115 32.7573 34.0697V34.071Z" fill="#DD6B4B"/>
<path d="M32.5168 34.7745C32.3683 34.5381 32.2563 34.2765 32.0788 34.059C31.9114 33.8528 31.6874 33.8252 31.4407 33.7598C31.3942 33.7472 31.3753 33.8189 31.4206 33.8314C31.5351 33.8616 31.6534 33.8855 31.7654 33.9232C31.9165 33.9735 32.0033 34.0754 32.0927 34.2024C32.2273 34.396 32.3255 34.6123 32.4513 34.8122C32.4765 34.8524 32.5407 34.8147 32.5155 34.7745H32.5168Z" fill="#DD6B4B"/>
<path d="M32.24 35.2278C32.0135 34.8418 31.7417 34.3464 31.2332 34.3389C31.1854 34.3389 31.1854 34.4131 31.2332 34.4131C31.7115 34.4206 31.9644 34.9034 32.1759 35.2655C32.1998 35.307 32.264 35.2693 32.24 35.2278Z" fill="#DD6B4B"/>
<path d="M32.9397 34.5151C32.9183 34.6798 32.7937 34.7967 32.6313 34.8143C32.6124 34.8168 32.5923 34.8294 32.5936 34.852C32.6049 34.9941 32.6099 35.2468 32.3922 35.233C32.3733 35.233 32.3532 35.2506 32.3544 35.2707C32.3746 35.443 32.3054 35.5901 32.1619 35.6781C32.148 35.6328 32.0776 35.653 32.0902 35.6982C32.0939 35.7133 32.099 35.7284 32.1027 35.7435C32.109 35.7674 32.1355 35.7762 32.1569 35.7661C32.3167 35.6882 32.4035 35.5562 32.4325 35.3839C32.4526 35.2644 32.4174 35.3537 32.4954 35.2971C32.5508 35.2569 32.5961 35.2368 32.6313 35.1714C32.6653 35.1073 32.6691 35.0369 32.6728 34.9665C32.6791 34.8571 32.6905 34.8973 32.7849 34.8495C32.917 34.7841 32.9925 34.6597 33.0114 34.5163C33.0177 34.4685 32.9434 34.4698 32.9371 34.5163L32.9397 34.5151Z" fill="#DD6B4B"/>
<path d="M31.5502 38.3854C31.5427 38.3892 31.5351 38.3929 31.5276 38.3967C31.51 38.4043 31.4936 38.4118 31.476 38.4193C31.4785 38.3188 31.4735 38.2182 31.4621 38.1176C31.4118 37.7089 31.2406 37.328 31.0242 36.9809C30.8279 36.6653 30.5459 36.302 30.1306 36.3296C29.8198 36.3497 29.6058 36.5635 29.5215 36.8288C29.519 36.7659 29.519 36.7018 29.5215 36.6377C29.6235 36.4604 29.7896 36.3246 30.0111 36.2718C30.5006 36.1574 30.8568 36.5723 31.0871 36.9432C31.3552 37.3757 31.5578 37.8724 31.549 38.3854H31.5502Z" fill="#3F4661"/>
<path d="M44.5031 19.0794C44.0173 19.0329 43.5491 19.1762 43.1678 19.4805C43.1275 19.5119 43.1841 19.5673 43.2231 19.5358C43.5869 19.2441 44.0387 19.1134 44.5018 19.1574C44.5521 19.1624 44.5521 19.0832 44.5018 19.0781L44.5031 19.0794Z" fill="#3F4661"/>
<path d="M31.4305 26.0449C31.068 25.9783 30.6792 26.1669 30.4363 26.4523C30.1153 26.8282 29.9354 27.3752 29.9115 27.863C29.9001 28.1183 29.9228 28.4062 30.1179 28.5948C30.1279 28.6036 30.1367 28.6124 30.1468 28.6212C30.1229 28.6275 30.099 28.6351 30.0751 28.6401C29.8926 28.4527 29.8221 28.1686 29.8359 27.863C29.8636 27.3086 30.0814 26.6673 30.4979 26.28C30.737 26.0575 31.0655 25.933 31.3776 25.967C31.3965 25.9908 31.4129 26.0173 31.4292 26.0449C31.4292 26.0449 31.4292 26.0449 31.4292 26.0462L31.4305 26.0449Z" fill="#3F4661"/>
<path d="M25.2276 27.4087C25.1269 27.8828 25.1722 28.4184 25.5233 28.7843C25.5787 28.8409 25.6404 28.8912 25.7071 28.9327C25.6781 28.944 25.6492 28.9565 25.6202 28.9666C25.2339 28.6887 25.0816 28.1984 25.1068 27.7394C25.1433 27.0869 25.4591 26.4066 25.9701 25.9829C25.9776 25.9829 25.9852 25.9829 25.994 25.9829C26.0255 25.9829 26.0569 25.9829 26.0884 25.9854C25.6416 26.3237 25.3421 26.8631 25.2263 27.41L25.2276 27.4087Z" fill="#3F4661"/>
<path d="M34.1202 34.0733C34.0963 34.1035 34.0686 34.1311 34.0409 34.1588C34.0975 33.5804 33.9125 32.9895 33.5261 32.5268C33.2669 32.2162 32.8717 31.8679 32.4451 31.8641C32.206 31.8616 31.9996 31.9522 31.8334 32.0955C31.8485 32.0502 31.8674 32.0062 31.885 31.961C32.0033 31.8805 32.1405 31.8239 32.2928 31.8013C32.7484 31.7309 33.1599 32.0351 33.4607 32.3457C33.915 32.8147 34.1541 33.4471 34.1189 34.0733H34.1202Z" fill="#3F4661"/>
<path d="M42.6504 17.8061C42.152 18.0362 41.6574 18.3694 41.5517 18.9452C41.5429 18.9943 41.6184 19.0156 41.6272 18.9666C41.7292 18.4096 42.2099 18.0965 42.6894 17.8752C42.736 17.8539 42.6957 17.786 42.6491 17.8073L42.6504 17.8061Z" fill="#3F4661"/>
<path d="M40.1561 17.1352C39.9396 17.3741 39.7345 17.6306 39.727 17.9675C39.727 18.0178 39.805 18.0178 39.8062 17.9675C39.8138 17.6519 40.0101 17.4143 40.2127 17.1905C40.2467 17.1528 40.1914 17.0975 40.1574 17.1352H40.1561Z" fill="#3F4661"/>
<path d="M48.7894 29.9467C47.8669 30.6709 46.8375 31.4479 45.5966 31.3499C45.5487 31.3461 45.5487 31.4203 45.5966 31.424C46.8563 31.5221 47.9034 30.7338 48.841 29.9982C48.8788 29.9693 48.8259 29.9165 48.7882 29.9454L48.7894 29.9467Z" fill="#3F4661"/>
<path d="M46.6209 25.6545C46.0206 25.9173 45.4706 26.2731 44.9848 26.7132C44.9496 26.7459 45.0024 26.7975 45.0377 26.766C45.5184 26.3297 46.0633 25.9789 46.6586 25.7199C46.7027 25.701 46.6649 25.6369 46.6209 25.6558V25.6545Z" fill="#3F4661"/>
<path d="M38.7942 30.813C38.7791 30.7677 38.7074 30.7866 38.7225 30.8331C38.8899 31.3423 39.0107 31.8629 39.0862 32.3922C39.0925 32.4387 39.1642 32.4199 39.158 32.3721C39.0824 31.8415 38.9616 31.3222 38.7942 30.813Z" fill="#3F4661"/>
<path d="M46.0168 50.1952C45.4908 49.0096 44.5519 48.0917 43.6307 47.2053C43.5967 47.1726 43.5438 47.2241 43.5778 47.2581C44.494 48.1407 45.4278 49.0523 45.9526 50.233C45.9715 50.277 46.0357 50.2392 46.0168 50.1952Z" fill="#1F2744"/>
<path d="M43.2481 71.2109C43.2456 71.2562 43.2431 71.3027 43.2381 71.348C43.2078 71.3819 43.1776 71.4146 43.1437 71.4473C42.7649 71.8082 42.2677 72.0018 41.904 72.3853C41.5491 72.76 41.3528 73.2403 41.0407 73.6452C40.3623 74.5253 39.2259 74.5077 38.2203 74.4046C38.2254 74.3807 38.2317 74.3568 38.2405 74.3329C38.9276 74.4034 39.6576 74.4549 40.2994 74.1531C40.9035 73.869 41.1628 73.3032 41.5076 72.7726C41.6599 72.5374 41.8411 72.3224 42.0525 72.1389C42.2765 71.944 42.5345 71.8006 42.78 71.6359C42.9624 71.514 43.1198 71.3757 43.2469 71.2109H43.2481Z" fill="#3F4661"/>
<path d="M42.7208 69.7635C42.1985 69.9873 41.7555 70.3771 41.4799 70.875C41.1539 71.4635 41.1111 72.2216 40.5813 72.6856C40.4466 72.8038 40.2843 72.8993 40.1056 72.9346C40.0301 72.9496 39.8702 72.971 39.7972 72.932C39.6512 72.8541 39.7469 72.6768 39.7846 72.5787C39.9256 72.2141 40.1433 71.8759 40.3346 71.5351C40.6404 70.9894 41.0885 70.3721 40.9425 69.712C40.9324 69.6654 40.8607 69.6856 40.8708 69.7321C41.0167 70.396 40.5247 71.0435 40.2176 71.593C40.064 71.8671 39.8992 72.1387 39.7695 72.4253C39.7117 72.5548 39.5556 72.8176 39.6689 72.9496C39.7834 73.0829 40.0892 73.0263 40.2302 72.9786C40.4529 72.9044 40.6455 72.751 40.7952 72.5724C41.1539 72.1437 41.2345 71.5653 41.4635 71.0712C41.724 70.5104 42.1909 70.0716 42.7585 69.8289C42.8026 69.81 42.7648 69.7459 42.7208 69.7648V69.7635Z" fill="#3F4661"/>
<path d="M60.3389 70.9095C60.106 70.1953 60.0179 69.49 60.1929 68.7506C60.2042 68.7041 60.1325 68.684 60.1211 68.7305C59.9689 69.3693 59.9928 70.0193 60.1778 70.648C60.2696 70.9598 60.3879 71.2653 60.4647 71.5822C60.5453 71.9141 60.6145 72.358 60.4207 72.666C60.2986 72.8609 60.028 72.9766 59.838 72.7955C59.7209 72.6849 59.6794 72.5139 59.6429 72.363C59.5573 72.0147 59.5032 71.6589 59.4227 71.3093C59.2905 70.7322 59.0816 70.1589 58.6399 69.7452C58.6046 69.7125 58.5518 69.7653 58.587 69.798C59.0199 70.2041 59.2226 70.7637 59.3509 71.3295C59.4227 71.6438 59.4755 71.9632 59.546 72.2788C59.5913 72.4812 59.6391 72.7214 59.804 72.8647C60.1337 73.1514 60.5088 72.7804 60.5818 72.4535C60.6975 71.9342 60.4962 71.3948 60.3376 70.9083L60.3389 70.9095Z" fill="#3F4661"/>
<path d="M61.4589 72.9446C61.4552 73.4903 61.2941 73.997 60.9014 74.388C60.6006 74.6873 60.252 74.9488 59.9072 75.2066C59.8883 75.1915 59.8694 75.1726 59.8531 75.1525C60.1815 74.9073 60.5113 74.6571 60.8058 74.3767C61.2676 73.9379 61.4111 73.362 61.3796 72.7409C61.3482 72.116 61.2097 71.4999 61.1581 70.875C61.1091 70.2991 61.0952 69.7195 61.1141 69.1411C61.138 69.1675 61.1607 69.1927 61.1833 69.2191C61.1833 69.2191 61.1846 69.2216 61.1858 69.2216C61.1707 69.81 61.1883 70.3985 61.2425 70.9844C61.3016 71.6344 61.4627 72.2883 61.4589 72.9433V72.9446Z" fill="#3F4661"/>
<path d="M112.649 1.32324C112.108 3.44439 111.704 5.60075 111.44 7.77471C111.291 8.99183 111.188 10.214 111.128 11.4386C111.067 12.6671 111.079 13.898 111.033 15.1252C110.944 17.5418 110.363 19.8629 109.736 22.1877C109.095 24.5616 108.543 26.9481 108.192 29.3823C107.838 31.8329 107.659 34.3073 107.652 36.7843C107.652 36.8321 107.576 36.8321 107.578 36.7843C107.578 36.4725 107.581 36.1607 107.588 35.8501C107.637 33.4046 107.857 30.9628 108.243 28.5462C108.438 27.3278 108.676 26.117 108.957 24.9162C109.234 23.7305 109.561 22.5587 109.874 21.383C110.185 20.2137 110.48 19.0393 110.684 17.8474C110.895 16.6076 110.964 15.3616 110.984 14.1055C111.023 11.6612 111.152 9.23198 111.492 6.80907C111.752 4.96202 112.113 3.13131 112.573 1.32324H112.649Z" fill="#D8BFB4"/>
<path d="M27.9962 66.42C25.2526 66.4401 22.9105 66.3999 20.2399 66.2389C18.916 66.1597 14.9416 66.1924 14.2444 66.2565C14.1311 66.2666 14.0052 66.2729 13.8882 66.3345C13.7598 66.4024 13.6793 66.5218 13.6 66.6325C13.3672 66.9544 4.65569 75.6578 2.92774 77.4067C1.95239 78.3938 0.979555 79.382 0.00797721 80.3716C-0.00838355 80.3892 0.00294313 80.4068 0.0193039 80.4068C1.43514 80.4344 2.85223 80.4621 4.26807 80.4885C5.11883 80.5049 5.97084 80.5212 6.8216 80.5375C7.48359 80.5501 8.14682 80.5639 8.80881 80.5778C10.4122 80.6117 12.0155 80.6457 13.6226 80.6696C13.819 80.6721 14.0178 80.6582 14.2091 80.5011C14.418 80.3276 14.5879 80.0912 14.7641 79.8925C15.1719 79.4311 15.5859 78.9721 16.0038 78.517C16.8457 77.6004 17.7065 76.6963 18.5812 75.8024C20.3318 74.0106 20.3998 74.1489 22.2083 72.405C23.1119 71.5324 27.8313 66.6916 28.0063 66.4565C28.0201 66.4389 28.0151 66.4213 27.9949 66.4213L27.9962 66.42Z" fill="#F7E9E1"/>
<path d="M20.6781 70.1509C20.7007 69.9334 20.4352 69.8718 20.2439 69.8504C19.8839 69.8089 19.4976 69.8429 19.1137 69.9007C18.2365 70.0315 17.3518 70.2088 16.4733 70.3659C15.6792 70.5067 14.87 70.6262 14.0847 70.9468C13.3849 71.2322 12.7381 71.6773 12.0245 71.915C11.6633 72.0357 11.3159 72.0256 10.9585 72.1262C10.7383 72.1891 10.5457 72.3136 10.4576 72.5147C9.33879 73.0705 8.34833 73.9192 7.68887 74.9062C7.23832 75.5814 6.98158 76.2994 6.61787 76.9947C6.23528 77.7227 5.73816 78.4167 5.2335 79.1045C4.98683 79.4415 4.72883 79.7772 4.49726 80.1205C4.41546 80.2399 4.33743 80.3644 4.26947 80.4914C5.12023 80.5077 5.97225 80.5241 6.82301 80.5404C7.48499 80.553 8.14823 80.5668 8.81021 80.5806C9.22426 80.1519 9.59301 79.6917 10.0587 79.3019C10.6489 78.8078 11.3524 78.4758 12.0471 78.1766C12.7594 77.8711 13.4693 77.5768 14.1526 77.1921C14.8826 76.7809 15.581 76.3107 16.2732 75.8367C16.9616 75.3652 17.6123 74.8647 18.1308 74.2386C18.6355 73.6275 19.0193 72.9623 19.4132 72.311C19.6435 71.9301 19.8739 71.5491 20.1042 71.1681L20.4289 70.63C20.5157 70.4866 20.6655 70.3056 20.6806 70.1522L20.6781 70.1509Z" fill="#E3C9BA"/>
<path d="M17.2686 69.0454C17.1742 68.7625 17.0106 68.5287 16.8382 68.2885C16.7438 68.1565 16.6431 68.0157 16.5777 67.866C16.6721 67.3204 16.9477 66.8199 17.1453 66.3057C17.2497 66.0353 17.3353 65.7537 17.3542 65.4632C17.3705 65.208 17.3529 64.8723 17.1629 64.6787C17.0647 64.5793 16.3348 64.187 15.6011 64.2537C14.4772 64.3555 14.0883 65.0194 13.8542 65.4419C13.6139 65.8782 13.4477 66.5156 13.2602 66.9746C13.0072 67.5932 12.5605 68.115 12.1061 68.6066C11.7991 68.9386 11.463 69.2441 11.1018 69.5169C10.7293 69.7986 10.3316 70.0463 9.97799 70.3518C9.34873 70.8975 8.84658 71.6016 8.48664 72.3762C7.64343 72.854 7.19414 73.9189 6.98523 74.8431C6.84553 75.4567 6.85812 76.367 7.29608 76.8599C8.75219 78.4995 10.8992 77.9198 11.3397 77.8054C13.4842 77.2497 14.3375 76.24 14.8963 75.5786C15.1341 75.297 15.3468 74.8242 15.4161 74.4571C15.4815 74.1088 15.4362 73.7429 15.3116 73.4135C15.2688 73.3016 15.2159 73.1934 15.1568 73.0916C15.26 72.9835 15.6803 72.3925 15.7835 72.2844C16.0529 72.004 16.3234 71.7249 16.5903 71.4432C16.8067 71.2156 17.0194 70.9767 17.1604 70.6938C17.4121 70.1884 17.4486 69.5811 17.2699 69.0454H17.2686Z" fill="#1F2744"/>
<path d="M14.5869 64.9567C14.6158 64.9592 14.6435 64.9617 14.6725 64.9643C14.8172 64.9089 14.9644 64.8611 15.1142 64.8234C15.2287 64.7945 15.4603 64.8083 15.5144 64.6826C15.5647 64.5669 15.4792 64.3041 15.4527 64.1897C15.4087 63.9974 15.3533 63.7786 15.2514 63.6063C15.0978 63.3473 14.8046 63.6038 14.6926 63.7735C14.4837 64.0917 14.4195 64.5192 14.3666 64.8976C14.4371 64.9253 14.5076 64.9492 14.5869 64.958V64.9567Z" fill="#1F2744"/>
<path d="M17.0901 65.0506C17.0901 65.0506 17.0901 65.0506 17.0926 65.0494C17.0989 65.0393 17.1065 65.0293 17.1115 65.0179C17.114 65.0129 17.1153 65.0117 17.1178 65.0079C17.1367 64.9651 17.1593 64.9262 17.1857 64.891C17.1505 64.5125 17.1052 64.0875 16.9139 63.7631C16.8094 63.5883 16.5288 63.318 16.3639 63.5695C16.2544 63.7367 16.189 63.9517 16.1361 64.1428C16.1047 64.256 16.0065 64.515 16.0518 64.6332C16.0996 64.7614 16.3325 64.7589 16.4457 64.7929C16.6685 64.8608 16.8837 64.9488 17.0914 65.0519L17.0901 65.0506Z" fill="#1F2744"/>
<path d="M10.6537 76.7969C10.4184 76.7164 10.1289 76.7378 9.88478 76.7202L8.1518 76.5982C8.04986 76.5907 7.79563 76.5265 7.72893 76.6523C7.71257 76.6825 7.71131 76.7126 7.72012 76.739C7.71006 76.7579 7.71383 76.7868 7.739 76.7969C8.20591 76.9867 8.30785 77.5463 8.19333 77.9863C8.07125 78.4553 7.77424 78.8816 7.52631 79.2927C7.04178 80.0962 6.54592 80.9046 6.31058 81.8212C6.19228 82.2814 6.12306 82.7555 5.95945 83.2031C5.81347 83.6042 5.58064 83.9638 5.34026 84.3146C5.10995 84.6515 4.86832 84.9835 4.68457 85.3494C4.53229 85.6549 4.37246 86.0535 4.41525 86.4018C4.45678 86.735 4.85825 86.7702 5.1175 86.6859C5.51771 86.5564 5.75683 86.1956 5.93932 85.8397C6.38232 84.9822 6.7561 84.0832 7.07702 83.1729C7.41179 82.2211 7.59553 81.1863 8.11027 80.3099C8.35568 79.8912 8.64639 79.4977 8.93334 79.1066C9.22783 78.7043 9.53868 78.3095 9.91498 77.9775C10.1126 77.8028 10.3265 77.6481 10.5241 77.4733C10.6424 77.3677 10.8677 77.2093 10.8664 77.0307C10.8664 76.9063 10.7607 76.8333 10.6537 76.7969Z" fill="#1F2744"/>
<path d="M15.1544 73.0267C14.6547 72.3653 13.7373 72.5891 13.0917 72.8758C12.3781 73.1939 11.7639 73.7032 11.3083 74.3369C11.2806 74.3758 11.3448 74.4123 11.3725 74.3746C11.7752 73.8151 12.3038 73.3561 12.918 73.0418C13.5523 72.7174 14.5666 72.3729 15.0902 73.0644C15.1191 73.1021 15.1833 73.0644 15.1544 73.0267Z" fill="#3F4661"/>
<path d="M8.43525 72.5976C8.00358 73.3658 7.79215 74.2334 7.82236 75.1136C7.82361 75.1613 7.89787 75.1613 7.89661 75.1136C7.8664 74.246 8.07406 73.3922 8.49944 72.6353C8.52335 72.5938 8.45917 72.5561 8.43525 72.5976Z" fill="#3F4661"/>
<path d="M18.117 69.1171C17.9282 68.9499 17.6211 68.9436 17.3833 68.9537C17.1353 68.9637 16.8245 69.0115 16.6344 69.185C16.4041 69.3963 16.2758 69.7835 16.1776 70.0727C16.0568 70.4248 16.0367 70.8447 15.8177 71.1541C15.795 71.1478 15.7698 71.1591 15.7724 71.188C15.8152 71.5966 15.9712 72.3976 16.5589 72.1536C16.8371 72.038 17.0611 71.7475 17.2524 71.5262C17.4638 71.281 17.6576 71.0195 17.83 70.7454C18.0767 70.3506 18.5889 69.5358 18.117 69.1171Z" fill="#1F2744"/>
<path d="M16.3008 67.6965C15.9056 67.4236 15.474 67.2174 15.0121 67.0804C14.9655 67.0665 14.9467 67.1382 14.992 67.152C15.4475 67.2866 15.8717 67.4903 16.2631 67.7606C16.3021 67.7883 16.3398 67.7229 16.3008 67.6965Z" fill="#3F4661"/>
<path d="M16.9944 64.9146C16.7314 65.0731 16.3211 65.2592 16.0933 64.936C16.0657 64.897 16.0015 64.9348 16.0292 64.9737C16.2809 65.3321 16.7264 65.1623 17.0309 64.98C17.0725 64.9549 17.0347 64.8907 16.9932 64.9159L16.9944 64.9146Z" fill="#3F4661"/>
<path d="M19.1967 65.2079C18.8028 65.1878 18.4101 65.2066 18.02 65.2695C17.6752 65.3248 17.2888 65.3915 16.9918 65.5864C16.9515 65.6128 16.9893 65.6769 17.0296 65.6505C17.3203 65.4606 17.7029 65.3965 18.0401 65.3412C18.4227 65.2796 18.8104 65.262 19.1967 65.2821C19.2445 65.2846 19.2445 65.2104 19.1967 65.2079Z" fill="#1F2744"/>
<path d="M18.999 65.7741C18.371 65.7326 17.7392 65.6974 17.1226 65.8483C17.076 65.8596 17.0961 65.9313 17.1427 65.92C17.7531 65.7716 18.3786 65.8068 18.999 65.8483C19.0468 65.8521 19.0468 65.7766 18.999 65.7741Z" fill="#1F2744"/>
<path d="M18.73 66.5892C18.18 66.3214 17.586 66.178 16.9743 66.168C16.9265 66.168 16.9265 66.2409 16.9743 66.2422C17.5734 66.2522 18.1548 66.3905 18.6935 66.6533C18.7362 66.6747 18.774 66.6106 18.7312 66.5892H18.73Z" fill="#1F2744"/>
<path d="M11.8823 65.0722C12.2762 65.052 12.6688 65.0709 13.059 65.1338C13.4038 65.1891 13.7902 65.2557 14.0872 65.4506C14.1275 65.477 14.0897 65.5411 14.0494 65.5147C13.7587 65.3249 13.3761 65.2608 13.0389 65.2054C12.6563 65.1438 12.2686 65.1262 11.8823 65.1463C11.8344 65.1489 11.8344 65.0747 11.8823 65.0722Z" fill="#1F2744"/>
<path d="M12.0809 65.6379C12.7089 65.5964 13.3407 65.5612 13.9573 65.712C14.0039 65.7234 13.9838 65.795 13.9372 65.7837C13.3268 65.6353 12.7013 65.6706 12.0809 65.712C12.0331 65.7158 12.0331 65.6404 12.0809 65.6379Z" fill="#1F2744"/>
<path d="M12.3492 66.4525C12.8991 66.1847 13.4931 66.0413 14.1048 66.0312C14.1526 66.0312 14.1526 66.1042 14.1048 66.1054C13.5057 66.1155 12.9243 66.2538 12.3856 66.5166C12.3429 66.538 12.3051 66.4738 12.3479 66.4525H12.3492Z" fill="#1F2744"/>
<path d="M97.9498 67.8748C97.9259 67.8622 97.902 67.8509 97.8781 67.8408C97.8542 67.8308 97.8303 67.8207 97.8063 67.8132C97.5483 67.7201 97.269 67.7214 97.0147 67.8471C96.6787 68.0143 96.4471 68.3387 96.2697 68.6631C96.2697 68.638 96.2332 68.6128 96.2055 68.6342C95.9551 68.8329 95.9337 69.1409 95.9815 69.4402C95.9878 69.4829 95.9966 69.5257 96.0054 69.5684C96.0306 69.6841 96.062 69.796 96.0935 69.8966C96.2634 70.4674 96.4685 71.027 96.6498 71.594C96.8146 72.1058 96.9594 72.6276 97.0374 73.1607C97.0412 73.1871 97.0449 73.2147 97.0487 73.2424C97.0512 73.2663 97.055 73.2889 97.0575 73.3116C97.0714 73.4247 97.0991 73.9591 97.2727 74.2986C97.2853 74.3212 97.2979 74.3426 97.3105 74.364C97.3734 74.4645 97.4514 74.54 97.5509 74.5714C97.8579 74.667 98.1675 74.4733 98.3966 74.2747C98.6823 74.0257 99.0674 73.6749 99.1832 73.3103C99.2927 72.967 99.3329 72.405 99.3455 72.1146C99.382 71.2432 99.1681 70.3907 99.0712 69.5219C99.051 69.3383 99.0435 69.1397 98.9881 68.9624C98.9503 68.8392 98.8786 68.7348 98.7981 68.6367C98.7804 68.6154 98.7628 68.5927 98.7439 68.5713C98.7276 68.5512 98.71 68.5311 98.6923 68.5122C98.4784 68.2671 98.2405 68.0244 97.9486 67.8748H97.9498Z" fill="#F7E9E1"/>
<path d="M98.7451 68.5716C98.7639 68.593 98.7815 68.6143 98.7992 68.637C98.7652 68.7791 98.7388 68.9211 98.7186 69.0645C98.6368 69.6341 98.6972 70.1885 98.769 70.7556C98.8331 71.2535 98.8747 71.7527 98.7715 72.2493C98.5915 73.1157 98.0529 73.8889 97.3103 74.3655C97.2965 74.3441 97.2852 74.3227 97.2726 74.3001C97.7093 74.0209 98.0717 73.64 98.3323 73.1898C98.545 72.8214 98.6859 72.4115 98.74 71.9891C98.5424 71.9828 98.3776 72.1136 98.1825 72.1186C97.9937 72.1224 97.883 71.9903 97.8213 71.8231C97.7257 71.5616 97.6929 71.2636 97.6489 70.9895C97.6023 70.6978 97.5658 70.4048 97.5318 70.1106C97.5029 69.8616 97.4576 69.6039 97.4953 69.3549C97.5369 69.0909 97.6741 68.8532 97.7319 68.5917C97.7861 68.349 97.8226 68.0787 97.8062 67.8159C97.8301 67.8235 97.854 67.8335 97.8779 67.8436C97.8817 67.9366 97.8792 68.0284 97.8729 68.1202C97.8565 68.3453 97.8251 68.5729 97.7584 68.7891C97.6741 69.0594 97.552 69.2933 97.557 69.5863C97.5658 70.1433 97.6715 70.7279 97.7735 71.2749C97.8238 71.5452 97.8603 72.1148 98.2567 72.0356C98.4254 72.0016 98.5714 71.9086 98.7488 71.9161C98.7551 71.8571 98.7602 71.798 98.7614 71.7389C98.7828 71.202 98.6695 70.6714 98.6205 70.1383C98.5714 69.6051 98.6217 69.0821 98.7451 68.5741V68.5716Z" fill="#FF8661"/>
<path d="M97.1683 70.9986C97.2677 71.4562 97.4074 71.9416 97.42 72.4118C97.4288 72.7325 97.3206 73.0669 97.0487 73.2417C97.045 73.2153 97.0412 73.1876 97.0374 73.16C97.415 72.8959 97.3621 72.3464 97.2816 71.934C97.235 71.6939 97.1846 71.455 97.1368 71.2161C97.089 70.9785 97.045 70.7433 96.9229 70.5296C96.6989 70.1385 96.3414 69.8607 96.0067 69.5677C95.9979 69.525 95.9878 69.4822 95.9828 69.4395C96.135 69.5878 96.3163 69.7224 96.4673 69.8695C96.8046 70.1951 97.0701 70.5334 97.1695 70.9973L97.1683 70.9986Z" fill="#FF8661"/>
<path d="M80.785 71.0973C80.7762 71.0722 80.7661 71.047 80.756 71.0231C80.746 70.9992 80.7346 70.9766 80.7233 70.954C80.6012 70.7088 80.3961 70.5177 80.1255 70.4347C79.7668 70.324 79.3754 70.4007 79.023 70.5139C79.0407 70.495 79.0306 70.4523 78.9966 70.4498C78.6782 70.4221 78.4504 70.6296 78.278 70.8798C78.2528 70.915 78.2302 70.9527 78.2075 70.9892C78.1459 71.0898 78.0917 71.1929 78.0452 71.2872C77.7746 71.8178 77.538 72.3647 77.2787 72.9003C77.0459 73.3857 76.7917 73.8635 76.4808 74.3036C76.4657 74.3262 76.4494 74.3476 76.433 74.3702C76.4192 74.3891 76.4053 74.4079 76.3915 74.4268C76.3235 74.5186 75.9749 74.9247 75.8679 75.2906C75.8616 75.3157 75.8553 75.3396 75.8503 75.3635C75.8264 75.4792 75.8314 75.5886 75.8818 75.6791C76.0391 75.9595 76.3965 76.0324 76.6998 76.045C77.0786 76.0613 77.5997 76.0714 77.9357 75.8866C78.2516 75.713 78.6681 75.3333 78.8771 75.1309C79.5038 74.5236 79.9367 73.7579 80.4653 73.0625C80.5773 72.9154 80.7082 72.7658 80.79 72.5998C80.8466 72.4842 80.8668 72.3597 80.8768 72.2327C80.8794 72.205 80.8819 72.1761 80.8819 72.1485C80.8831 72.122 80.8844 72.0969 80.8857 72.0705C80.8995 71.7461 80.8945 71.4054 80.785 71.096V71.0973Z" fill="#F7E9E1"/>
<path d="M78.8342 31.8288C78.7184 31.517 78.5359 31.2341 78.3861 30.9374C78.2087 30.584 78.0564 30.2194 77.9142 29.851C77.7821 29.5052 77.6537 29.1582 77.5366 28.8074C77.4234 28.4692 77.3302 28.092 77.4888 27.7575C77.5845 27.76 77.6801 27.7688 77.7758 27.7877C77.8223 27.7965 77.8425 27.7248 77.7959 27.716C77.704 27.6984 77.6134 27.6884 77.5241 27.6846C77.5253 27.6506 77.475 27.628 77.4548 27.6632C77.4511 27.6695 77.4485 27.6758 77.4448 27.6808C76.3763 27.6708 75.5217 28.5597 75.2096 29.553C74.9957 30.2345 74.9881 30.9575 75.0536 31.6629C75.1241 32.4311 75.2537 33.1943 75.3632 33.9575C75.4865 34.8188 75.6098 35.6813 75.7332 36.5426C74.9315 36.0233 73.9373 36.1503 73.0299 36.1855C72.4724 36.2069 71.9488 36.1491 71.4127 35.9995C70.9282 35.8637 70.4449 35.7128 69.9352 35.7417C69.9163 35.7417 69.8962 35.758 69.8974 35.7794C69.9289 36.2849 69.9415 36.7916 69.9352 37.2983C69.9352 37.3134 69.9465 37.331 69.9629 37.3335C71.2868 37.6177 72.5567 38.0955 73.8265 38.5569C74.452 38.7845 75.0787 39.0083 75.7143 39.2032C76.2592 39.3704 76.7991 39.5578 77.2988 39.1806C77.743 38.8448 77.9683 38.2979 78.1206 37.7799C78.3106 37.1311 78.4503 36.4622 78.5925 35.8021C78.736 35.1319 78.8593 34.4567 78.9273 33.7739C78.9915 33.139 79.0607 32.4399 78.8342 31.8288Z" fill="#FFA57A"/>
<path d="M81.3651 18.8334C81.0177 18.2526 80.4098 17.859 79.763 17.6867C78.8581 17.4441 76.5902 17.5975 76.1875 19.652C76.1586 19.8092 76.1321 19.9663 76.1082 20.1247C76.0742 20.3347 76.0453 20.546 76.0214 20.7572C75.9987 20.9471 75.9786 21.1382 75.9622 21.3293C75.8829 22.2534 75.849 23.2141 75.9522 24.1382C75.9887 24.4639 76.1372 24.8386 76.3964 25.0498C76.6292 25.2409 76.8256 25.3113 77.1213 25.3428C77.8462 25.4169 78.6013 25.2082 79.2054 24.8826C80.6074 24.1307 81.4167 22.6508 81.6407 21.1143C81.7502 20.3574 81.769 19.5137 81.3638 18.8347L81.3651 18.8334Z" fill="#FFA57A"/>
<path d="M81.3386 24.9866C81.2341 24.3806 81.1297 23.7733 81.0252 23.1672C80.9069 22.4757 80.7873 21.7841 80.669 21.0926C80.664 21.0662 80.6325 21.0486 80.6099 21.0675C79.8472 21.7049 79.0267 22.267 78.1558 22.7448C78.1268 22.58 78.0991 22.4141 78.0702 22.2494C78.0626 22.2028 77.9884 22.2104 77.9959 22.2582C78.0261 22.4329 78.0564 22.6077 78.0866 22.7825C78.0148 22.8215 77.9443 22.8604 77.8713 22.8982C77.8298 22.9195 77.8575 22.9887 77.899 22.9673C77.9657 22.9321 78.0324 22.8956 78.0991 22.8592C78.41 24.6572 78.7208 26.4539 79.0317 28.2507C79.0355 28.2733 79.0594 28.2909 79.082 28.2809L80.7622 27.568C81.0013 27.4661 81.2794 27.3869 81.4984 27.2461C81.6532 27.1467 81.6733 26.9921 81.6507 26.8224C81.5689 26.2088 81.4405 25.5977 81.3361 24.9866H81.3386Z" fill="#FFA57A"/>
<path d="M85.985 28.4597C85.8793 27.9819 85.6666 27.5104 85.2802 27.1734C84.8523 26.8012 84.2785 26.6566 83.7084 26.6189C82.8991 26.5649 82.0647 26.6504 81.2618 26.7396C80.8565 26.7836 80.4513 26.839 80.0486 26.9043C80.0108 26.9106 79.9731 26.9169 79.9341 26.9232C79.924 26.9144 79.9089 26.9119 79.8938 26.9207C79.8837 26.9257 79.8749 26.9307 79.8648 26.937C79.7163 26.9685 79.5716 27.02 79.486 27.1332C78.5484 27.5795 77.4774 27.8524 76.7286 28.5653C75.6979 29.5473 75.9169 31.0083 76.2491 32.2217C76.6783 33.7871 77.1691 35.3387 77.631 36.8965C77.8625 37.6786 78.0941 38.4594 78.3269 39.2415C78.4427 39.6325 78.5585 40.0235 78.6743 40.4146C78.7284 40.5956 78.7762 40.7805 78.8366 40.9603C78.8706 41.0621 78.9159 41.174 79.0153 41.2356C79.1437 41.3161 79.3111 41.2771 79.4546 41.262L80.1858 41.1853C80.6489 41.1376 81.112 41.0885 81.5764 41.0407C82.5518 40.9389 83.5271 40.8371 84.5037 40.7365C84.5239 40.734 84.5402 40.7226 84.5415 40.7013C84.622 37.8257 85.4237 35.0331 85.8441 32.1965C85.946 31.5062 86.0265 30.8109 86.0681 30.1144C86.1008 29.5624 86.1071 29.0041 85.9863 28.4609L85.985 28.4597Z" fill="#FFA57A"/>
<path d="M85.4867 41.7875C85.2942 41.9258 85.0525 41.9748 84.8273 42.0314C84.5252 42.1069 84.2307 42.2075 83.9425 42.3206C83.6745 42.425 83.4114 42.5394 83.1446 42.6475C83.1245 43.1278 83.093 43.6069 83.0515 44.0859C82.8401 46.5403 84.2131 44.4355 83.8821 46.876C83.7185 48.0856 81.6659 56.2609 81.7439 56.8543C81.8244 57.4679 81.9704 58.0727 82.0787 58.6825C82.4587 60.82 82.0648 62.9362 81.5174 65.0108C80.9951 66.9848 80.3545 68.9513 80.1758 70.9907C80.0046 71.1404 79.7957 71.2435 79.5578 71.295C79.2696 71.3579 78.7222 71.3944 78.5624 71.0888C78.6517 68.9061 78.1722 66.8163 78.0464 64.6361C77.9255 62.5539 77.8022 60.468 77.8639 58.382C77.8752 57.9596 77.8941 57.5371 77.9142 57.1171C77.8928 56.9084 77.8727 56.7009 77.8513 56.4922C77.5895 53.8807 77.3001 51.2579 77.2711 48.6275C77.2346 45.2377 78.176 42.4979 78.4705 41.5184C78.4755 41.2192 78.468 40.9199 78.4478 40.6219C78.4189 40.1743 78.3635 39.7292 78.2792 39.2879C78.2742 39.264 78.2893 39.2414 78.3144 39.2414C79.4005 39.2024 80.4866 38.9974 81.5627 38.8528C82.6236 38.7108 83.6858 38.5787 84.7392 38.3813C84.7631 38.3763 84.7857 38.3914 84.7857 38.4165C84.8046 38.8013 84.8764 39.1798 85.006 39.5431C85.0123 39.562 85.0198 39.5808 85.0274 39.5985C85.152 39.9254 85.3294 40.2133 85.5132 40.51C85.7535 40.8998 85.9373 41.4656 85.4893 41.7862L85.4867 41.7875Z" fill="#1F2744"/>
<path d="M85.308 34.8942C83.8947 35.1042 82.4738 35.2639 81.0492 35.3733C80.3532 35.4261 79.656 35.4676 78.9588 35.4965C78.6315 35.5103 78.3031 35.5141 77.9759 35.5317C77.7204 35.5455 77.4699 35.5858 77.2547 35.7316C77.2308 35.7291 77.2044 35.7467 77.2132 35.7769C77.3604 36.2333 77.5077 36.6897 77.6549 37.1461C77.66 37.1612 77.6738 37.1738 77.6914 37.1738C78.9348 37.1084 80.1757 37.0066 81.4141 36.8833C82.0396 36.8217 82.6651 36.7551 83.2906 36.6847C83.5964 36.6507 83.9035 36.6168 84.2093 36.5816C84.4899 36.5501 84.7882 36.5426 85.0638 36.4835C85.2765 36.4382 85.2274 36.1189 85.2451 35.9491C85.2816 35.6096 85.3168 35.2689 85.3533 34.9294C85.3558 34.903 85.3269 34.8904 85.3055 34.8942H85.308Z" fill="#3F4661"/>
<path d="M97.1356 68.9376C97.3206 68.7641 97.4036 68.539 97.4414 68.2988C97.0424 67.6299 96.6523 66.956 96.2823 66.2695C95.6807 65.1504 95.1975 63.9823 94.65 62.8382C94.3819 62.2786 94.0774 61.743 93.7137 61.2401C93.3575 60.7459 92.9686 60.2744 92.6389 59.7614C91.9769 58.7329 90.4554 55.9366 90.2238 54.7484C89.9822 53.5111 88.9766 49.3619 88.6632 48.1397C88.3436 46.8937 87.2763 42.5206 85.1696 39.9707C84.1867 40.3617 83.4454 42.0252 82.4046 42.2528C81.8005 42.3848 81.1864 42.5043 80.5684 42.5885C80.9938 44.0244 80.8944 45.6049 81.472 47.0923C82.28 49.1733 83.5448 51.4642 84.5743 53.4483C85.5748 55.3783 89.519 60.9823 90.7184 62.7916C91.2684 63.6215 91.8435 64.4438 92.5432 65.1567C93.2103 65.8357 95.4718 68.1806 96.3767 69.1765C96.6498 69.2129 96.9204 69.1362 97.1356 68.9363V68.9376Z" fill="#1F2744"/>
<path d="M70.932 35.924C70.5771 35.8535 70.2474 35.7643 69.9906 35.4952C69.788 35.284 69.642 35.0237 69.4318 34.8187C69.2267 34.6176 68.9914 34.5296 68.7069 34.5006C68.571 34.4868 68.4414 34.4679 68.313 34.4453C68.1935 34.4554 68.0739 34.4591 67.9518 34.4617C67.8297 34.4642 67.7089 34.4956 67.5881 34.5094C67.5868 34.522 67.5755 34.5346 67.5529 34.5472C67.5466 34.561 67.5277 34.5773 67.5189 34.5899C67.4962 34.6213 67.4774 34.654 67.4623 34.6892C67.4195 34.7835 67.4031 34.8904 67.417 34.9923C67.4396 35.162 67.5403 35.255 67.4597 35.4424C67.4157 35.5442 67.3578 35.631 67.3427 35.7442C67.3301 35.8435 67.354 35.9202 67.3918 36.0095C67.4207 36.0748 67.4648 36.1163 67.4346 36.1918C67.4182 36.2307 67.3754 36.266 67.3578 36.3062C67.3276 36.3741 67.3175 36.452 67.3263 36.5262C67.3452 36.6796 67.4799 36.7702 67.4862 36.9223C67.4899 37.0216 67.4434 37.1247 67.4837 37.2215C67.5164 37.3008 67.5919 37.3435 67.6674 37.3749C67.9556 37.4994 68.274 37.5799 68.5748 37.6666C68.8227 37.7383 69.1109 37.8515 69.3664 37.7559C69.6219 37.6591 69.7905 37.4064 70.0196 37.2643C70.1744 37.1675 70.3455 37.0983 70.5242 37.0581C70.6073 37.0392 70.6878 37.0367 70.7306 36.9575C70.7898 36.8481 70.7634 36.6733 70.7696 36.5514C70.7797 36.3577 70.7885 36.1654 70.7948 35.9717C70.8338 35.9805 70.8728 35.9881 70.9119 35.9956C70.9584 36.0044 70.9786 35.9328 70.932 35.924Z" fill="#FFA57A"/>
<path d="M82.5872 18.636C82.3556 17.8099 81.7528 17.1925 80.9159 16.9838C80.0412 16.7663 79.0445 16.9197 78.2201 17.2567C77.3064 17.6314 76.5287 18.3443 76.2493 19.3112C76.2493 19.3137 76.2493 19.315 76.2493 19.3175C76.2417 19.3414 76.2606 19.3741 76.2933 19.3665C76.978 19.2131 78.1169 19.2219 78.7588 19.54C79.4019 19.8594 79.3905 20.561 79.4799 21.1746C79.5604 21.7215 79.7505 21.7618 80.1129 22.0698C80.4615 22.3665 80.4125 23.0795 80.9209 23.1951C80.9385 23.2153 80.9687 23.2266 81.004 23.2215C81.0845 23.2115 81.1386 23.1034 81.1802 23.0493C81.2645 22.9399 81.3463 22.8293 81.4256 22.7161C81.7226 22.2936 81.9844 21.846 82.2033 21.3783C82.5998 20.5296 82.8464 19.5614 82.5872 18.636Z" fill="#1F2744"/>
<path d="M83.2326 16.9224C83.1886 16.8595 83.137 16.8017 83.0791 16.7526C83.0212 16.7023 82.991 16.7023 82.9759 16.6219C82.9658 16.5716 83.0111 16.4622 83.0212 16.4106C83.069 16.1617 83.1194 15.8951 83.1106 15.6399C83.0967 15.2388 82.7859 14.9773 82.4322 14.8402C82.1012 14.712 81.7048 14.6868 81.3776 14.8402C81.0277 15.0049 80.8628 15.3482 80.7936 15.7115C80.7823 15.7706 80.7735 15.8297 80.7659 15.8901C80.7609 15.9291 80.7559 15.9693 80.7521 16.0083C80.7382 16.0334 80.7168 16.0359 80.6879 16.0196C80.6099 16.0422 80.5117 16.0234 80.4286 16.046C80.2575 16.0925 80.1014 16.1969 79.9982 16.3402C79.7704 16.6558 79.8497 17.0946 80.1241 17.3524C80.143 17.37 80.1644 17.3599 80.1744 17.3423C80.1795 17.3876 80.1933 17.4329 80.2185 17.4718C80.3141 17.6177 80.5268 17.5888 80.6766 17.6164C81.151 17.7057 81.5752 17.9572 82.0408 18.0741C82.4133 18.1672 82.8953 18.186 83.1823 17.8817C83.4315 17.619 83.4352 17.2103 83.2351 16.9199L83.2326 16.9224Z" fill="#1F2744"/>
<path d="M82.782 31.3389C82.3353 30.9768 81.9778 30.5556 81.8268 29.991C81.8029 29.903 81.7853 29.815 81.7702 29.7257C81.7878 29.7207 81.8054 29.7157 81.823 29.7094C81.8684 29.6943 81.8495 29.6226 81.8029 29.6377C81.7878 29.6428 81.7727 29.6465 81.7576 29.6516C81.6934 29.2241 81.711 28.7852 81.7475 28.3565C81.8016 27.7165 81.8835 27.079 81.9829 26.4453C81.9577 26.4529 81.9313 26.4579 81.9048 26.4629C81.818 27.0287 81.745 27.597 81.6896 28.1679C81.6418 28.6658 81.6091 29.1763 81.6846 29.6729C80.6287 29.9923 79.4457 30.1193 78.3596 29.903C78.055 29.8427 77.7945 29.6968 77.7807 29.3536C77.7694 29.0707 77.8436 28.7752 77.8814 28.4948L78.0978 26.9244C78.0978 26.9244 78.0941 26.9244 78.0928 26.9244C78.0362 26.9244 77.9757 26.9244 77.9153 26.9281C77.6221 26.9797 77.3087 27.0526 77.0155 27.0514C76.9715 27.196 76.9589 27.3619 76.9312 27.4839C76.7638 28.2308 76.5977 28.9764 76.4378 29.7245C76.2868 30.4324 76.1144 31.144 76.0578 31.867C76.0024 32.5711 76.1031 33.2463 76.3434 33.9089C76.575 34.5477 76.8645 35.1889 77.1741 35.7937C77.2974 36.0339 77.4887 36.0578 77.7429 36.0427C78.123 36.02 78.5031 35.9936 78.8831 35.966C80.4022 35.8578 81.92 35.7246 83.4352 35.5661C83.8631 35.5209 84.2897 35.4744 84.7176 35.4266C84.8687 35.409 85.1103 35.4291 85.2437 35.3474C85.328 35.2958 85.3519 35.1965 85.3809 35.1085C85.6439 34.3163 85.7484 33.4513 85.8969 32.6302C85.8994 32.6151 83.6328 32.0305 82.7783 31.3377L82.782 31.3389Z" fill="#1F2744"/>
<path d="M84.2318 29.6214C84.1676 29.8263 84.0292 29.5359 83.8441 29.6616C83.707 29.7546 76.7864 29.4994 75.3844 29.6792C74.6116 29.7785 73.8477 29.9307 73.0649 29.8816C72.2783 29.8326 72.0304 29.6377 71.2703 29.4365C69.7903 29.0455 66.2375 28.4633 66.2463 28.3213C66.2727 27.9176 66.2991 27.514 66.3243 27.1117C66.3369 26.9193 71.3911 26.61 72.1789 26.6955C72.9441 26.7785 73.6967 26.9507 74.4594 27.0463C75.1943 27.1381 75.923 27.1217 76.6555 27.0161C77.4181 26.9055 81.9853 26.18 82.7366 26.2454C83.3735 26.3007 84.0291 26.4151 84.6018 26.7257C84.8686 26.8703 85.1064 27.0576 85.3103 27.2877C84.9466 27.8661 84.2834 29.4554 84.2318 29.6226V29.6214Z" fill="#FFA57A"/>
<path d="M62.5956 26.8211C62.4332 26.5331 62.1035 26.3973 61.7839 26.3936C61.7713 26.3936 61.7574 26.3936 61.7448 26.3936C61.726 26.3936 61.7083 26.3948 61.6907 26.3961C61.6857 26.3948 61.6832 26.3936 61.6769 26.3936C61.6555 26.3936 61.6328 26.3936 61.6114 26.3948C60.9192 26.4137 60.2724 26.8085 59.9879 27.451C59.7287 28.0344 59.7362 28.9196 60.3416 29.2892C60.5379 29.4099 60.7468 29.4602 60.9545 29.4565C60.9922 29.4565 61.03 29.4539 61.0665 29.4489C61.4768 29.4037 61.8694 29.1547 62.1337 28.824C62.5163 28.3425 62.9329 27.4208 62.5956 26.8223V26.8211Z" fill="#FF8661"/>
<path d="M65.671 26.861C65.6521 26.856 65.632 26.8522 65.6131 26.8471C65.6056 26.8421 65.5968 26.8409 65.588 26.8409C64.8744 26.6711 65.9076 26.4373 64.3332 26.3794C64.0475 26.3694 62.8998 26.3052 62.6934 26.514C62.4895 26.7202 62.2944 26.9528 62.1409 27.198C61.9924 27.4343 61.8879 27.7009 61.8841 27.9825C61.8816 28.2101 61.9294 28.5333 62.1195 28.6854C62.2768 28.8111 62.3712 28.7382 62.3963 28.5999C62.4215 28.6024 62.4467 28.6012 62.4731 28.5961C62.6216 28.5659 62.7034 28.4214 62.745 28.2868C62.8129 28.2629 62.8758 28.2214 62.9199 28.1686C63.0546 28.0077 63.0848 27.7738 63.2685 27.6519C63.4522 27.5311 63.6989 27.555 63.9066 27.5827C64.1507 27.6154 64.3936 27.6581 64.6378 27.6896C64.7938 27.7097 64.9474 27.716 65.0933 27.6481C65.3753 27.5135 65.5112 27.1992 65.6144 26.9213C65.627 26.9238 65.6408 26.9276 65.6534 26.9301C65.7 26.9402 65.7201 26.8698 65.6735 26.8585L65.671 26.861Z" fill="#FFA57A"/>
<path d="M67.1815 26.4556C67.1576 26.4128 67.1286 26.3726 67.0959 26.3361C67.0732 26.3072 67.0455 26.2808 67.0179 26.2569C66.8341 26.096 66.5774 26.023 66.3307 26.0281C66.3131 26.0281 66.2942 26.0293 66.2766 26.0306C66.2716 26.0293 66.269 26.0281 66.2627 26.0281C65.5467 26.023 64.8671 26.4229 64.5738 27.0855C64.3146 27.6689 64.3221 28.5541 64.9275 28.9238C65.0558 29.0017 65.1892 29.0507 65.3239 29.0734C65.3629 29.0809 65.4032 29.0847 65.4422 29.0885C65.9255 29.1199 66.4125 28.8445 66.7196 28.4573C67.1022 27.9757 67.5188 27.0541 67.1815 26.4556Z" fill="#FF8661"/>
<path d="M65.0508 27.1733C64.9904 27.1896 64.9275 27.2009 64.8633 27.211C64.8646 27.1934 64.8658 27.1745 64.8671 27.1569C64.8709 27.1091 64.7966 27.1091 64.7928 27.1569C64.7916 27.1783 64.7903 27.1997 64.7878 27.2211C64.6771 27.2349 64.5638 27.2424 64.4593 27.2575C64.2391 27.289 64.0176 27.3204 63.7974 27.3518C63.6979 27.3656 63.5972 27.3807 63.4978 27.3946C63.3468 27.4876 63.1907 27.5744 63.0548 27.685C62.8673 27.8372 62.7566 28.061 62.6156 28.2559C62.9227 28.237 63.2386 28.1716 63.5368 28.1364C63.9484 28.0874 64.3599 28.0383 64.7714 27.988C64.7928 27.9855 64.8067 27.9729 64.8092 27.9503C64.8256 27.729 64.8419 27.5077 64.857 27.2852C64.93 27.2751 65.0018 27.2625 65.0697 27.2437C65.1163 27.2311 65.0961 27.1594 65.0496 27.172L65.0508 27.1733Z" fill="#FF8661"/>
<path d="M69.3451 37.652C68.9335 37.1943 68.0966 36.6273 67.4485 36.8586C67.125 36.9743 66.9325 37.2962 66.8821 37.6231C66.8796 37.6407 66.8771 37.6583 66.8758 37.6772C66.8733 37.6809 66.8708 37.6847 66.8708 37.6897C66.8519 37.7979 66.8419 37.906 66.8406 38.0154C66.8406 38.0795 66.8431 38.1449 66.8494 38.209C66.901 38.7359 67.1716 39.2287 67.6272 39.5318C68.0916 39.8411 68.8177 39.9882 69.3061 39.6638C69.3425 39.6399 69.3778 39.6135 69.4105 39.5833C69.442 39.5569 69.4722 39.5267 69.4999 39.494C69.9806 38.9458 69.7918 38.1524 69.3425 37.652H69.3451Z" fill="#FF8661"/>
<path d="M69.7614 33.0735C69.3512 32.6158 68.513 32.05 67.8648 32.2801C67.5414 32.3958 67.3489 32.7176 67.2985 33.0445C67.296 33.0634 67.2935 33.0797 67.2922 33.0986C67.2922 33.0986 67.2872 33.1074 67.2872 33.1124C67.2796 33.1527 67.2733 33.1942 67.2696 33.2344C67.1953 33.9008 67.476 34.576 68.0448 34.9545C68.5759 35.3078 69.4506 35.4511 69.9175 34.9167C69.9892 34.8363 70.0459 34.7495 70.0887 34.659C70.105 34.6238 70.1201 34.5886 70.1327 34.5521C70.3102 34.0542 70.1176 33.472 69.7614 33.0735Z" fill="#FF8661"/>
<path d="M68.3606 34.6113C68.3669 34.6729 68.3682 34.7371 68.3656 34.8024C68.348 34.7987 68.3304 34.7936 68.3128 34.7899C68.2662 34.7786 68.2536 34.8515 68.3002 34.8628C68.3216 34.8678 68.3417 34.8729 68.3631 34.8779C68.3568 34.9898 68.3468 35.1017 68.3442 35.2086C68.338 35.4311 68.304 36.7476 68.2977 36.9701C68.2952 37.0707 68.2914 37.1713 68.2889 37.2719C68.3556 37.4366 68.4135 37.6038 68.5003 37.7585C68.6186 37.9685 68.8212 38.1156 68.9899 38.2866C69.0238 37.981 69.0125 37.6591 69.0276 37.3586C69.049 36.945 69.0968 35.4374 69.1182 35.0237C69.1182 35.0024 69.1094 34.986 69.088 34.981C68.8716 34.9282 68.6564 34.8741 68.4399 34.8213C68.4424 34.7471 68.4412 34.6742 68.4349 34.605C68.4298 34.5573 68.3556 34.5648 68.3606 34.6126V34.6113Z" fill="#FF8661"/>
<path d="M63.961 27.1281C63.479 26.9483 62.8359 27.2815 62.5666 27.6776C62.4483 27.8511 62.3564 28.0888 62.3703 28.3063C62.3514 28.305 62.3287 28.3163 62.3262 28.3415C62.3099 28.4672 62.3841 28.5754 62.5037 28.6168C62.6522 28.6671 62.7994 28.5791 62.8938 28.4672C62.9202 28.4358 62.9429 28.4018 62.963 28.3666C62.9807 28.4069 63.0146 28.4396 63.0688 28.4584C63.2651 28.5263 63.4362 28.2698 63.5117 28.1328C63.5936 27.9844 63.6577 27.8323 63.766 27.7002C63.8641 27.5808 64.0013 27.5116 64.1033 27.4022C64.2203 27.2778 64.0882 27.1759 63.961 27.1281Z" fill="#FFA57A"/>
<path d="M77.2219 23.1726C77.0898 23.1098 76.9501 23.0544 76.823 22.984C76.5801 22.8495 76.5813 22.6282 76.7022 22.4019C76.8494 22.1253 77.0193 21.8587 77.1779 21.5871C77.203 21.5431 77.1351 21.5029 77.1099 21.5469L76.7588 22.1466C76.6707 22.2963 76.5549 22.4572 76.5348 22.6345C76.4932 23.0067 76.9148 23.1123 77.1829 23.2393C77.2282 23.2606 77.2685 23.1927 77.2232 23.1714L77.2219 23.1726Z" fill="#DD6B4B"/>
<path d="M78.5068 21.8351C78.4892 22.0589 78.3822 22.2324 78.2664 22.2236C78.1507 22.2148 78.0726 22.0262 78.089 21.8024C78.1053 21.5786 78.2136 21.4051 78.3294 21.4139C78.4452 21.4227 78.5232 21.6113 78.5068 21.8351Z" fill="#1F2744"/>
<path d="M76.6229 21.6627C76.6053 21.8866 76.4983 22.0601 76.3825 22.0513C76.2667 22.0425 76.1887 21.8539 76.2051 21.6301C76.2214 21.4062 76.3297 21.2327 76.4455 21.2415C76.5612 21.2503 76.6393 21.4389 76.6229 21.6627Z" fill="#1F2744"/>
<path d="M78.1005 23.552C78.0602 23.5457 78.0199 23.5394 77.9784 23.5344C77.558 23.4803 77.1213 23.5004 76.6997 23.4941C76.6884 23.4941 76.6771 23.4941 76.6657 23.4941C76.6443 23.4941 76.6305 23.5117 76.628 23.5319C76.6167 23.6488 76.6305 23.7557 76.6683 23.8613C76.7287 24.1228 76.964 24.3152 77.251 24.2775C77.6059 24.2297 77.9243 23.8814 78.1218 23.6098C78.1357 23.591 78.1218 23.5583 78.0992 23.5545L78.1005 23.552Z" fill="#DD6B4B"/>
<path d="M76.6996 23.4932C76.6895 23.6063 76.8003 23.7157 76.9287 23.7497C77.0872 23.7912 77.2748 23.7811 77.4371 23.7748C77.5667 23.7698 77.7039 23.766 77.8235 23.7082C77.9053 23.6692 77.9707 23.6 77.9783 23.5347C77.5579 23.4806 77.1212 23.5007 76.6996 23.4944V23.4932Z" fill="white"/>
<path d="M78.9072 20.3936C78.5359 20.3571 78.2817 20.259 77.9382 20.4477C77.7053 20.5746 77.616 20.9091 77.9533 20.9393C78.1936 20.9607 78.4579 20.9745 78.6996 20.9594C78.8795 20.9481 79.0733 20.9066 79.2155 20.7909C79.4169 20.6262 79.1287 20.4162 78.9072 20.3936Z" fill="#1F2744"/>
<path d="M76.6897 20.2917C76.5236 20.1824 76.3185 20.1333 76.1095 20.1245C76.0756 20.3345 76.0466 20.5457 76.0227 20.757C76.2241 20.7783 76.438 20.7834 76.6356 20.7808C76.9729 20.7783 76.9125 20.4376 76.6897 20.2917Z" fill="#1F2744"/>
<path d="M80.5208 21.9568C80.293 21.6588 79.9205 21.7318 79.6763 21.9619C79.6486 21.943 79.602 21.9757 79.6234 22.0109C79.626 22.0147 79.6272 22.0185 79.6297 22.0222C79.6297 22.0361 79.636 22.0486 79.6473 22.0562C79.7745 22.2988 79.7908 22.539 79.7606 22.8118C79.7405 22.9904 79.7304 23.1828 79.85 23.3324C80.0929 23.6379 80.4729 23.316 80.6063 23.0709C80.7913 22.7326 80.7561 22.2649 80.5208 21.9568Z" fill="#FFA57A"/>
<path d="M80.2147 22.0691C80.0964 22.176 80.0008 22.2992 79.9366 22.4451C79.8573 22.6249 79.8447 22.9141 79.6031 22.9468C79.5565 22.9531 79.5754 23.0247 79.6232 23.0184C79.7755 22.9971 79.8611 22.8852 79.9127 22.7469C80.0033 22.5029 80.0662 22.3018 80.2663 22.1207C80.3016 22.088 80.2487 22.0365 80.2135 22.0679L80.2147 22.0691Z" fill="#DD6B4B"/>
<path d="M80.347 23.2967C80.2526 23.5117 80.0437 23.6312 79.8096 23.5897C79.763 23.5809 79.7429 23.6525 79.7895 23.6613C80.0538 23.7079 80.3029 23.5834 80.4112 23.3344C80.4301 23.2917 80.3659 23.2527 80.347 23.2967Z" fill="#DD6B4B"/>
<path d="M78.8127 17.4523C78.2703 17.7176 77.8562 18.1752 77.6423 18.7398C77.6246 18.7851 77.6976 18.8039 77.714 18.7599C77.9216 18.2142 78.3256 17.7741 78.8504 17.5176C78.8932 17.4963 78.8555 17.4321 78.8127 17.4535V17.4523Z" fill="#3F4661"/>
<path d="M79.0129 18.2811C78.7977 18.5175 78.6392 18.7904 78.5385 19.0946C78.5234 19.1399 78.5951 19.16 78.6102 19.1148C78.7071 18.8231 78.8594 18.5615 79.0658 18.334C79.0973 18.2987 79.0457 18.2459 79.0129 18.2811Z" fill="#3F4661"/>
<path d="M82.0383 19.1223C82.0081 19.8138 81.7488 20.7191 81.1019 21.0837C81.0604 21.1076 81.0982 21.1717 81.1397 21.1479C81.8105 20.7706 82.0811 19.8402 82.1125 19.1223C82.1151 19.0745 82.0408 19.0745 82.0383 19.1223Z" fill="#3F4661"/>
<path d="M81.4016 17.533C81.1373 17.3745 80.8604 17.2463 80.5533 17.1998C80.5068 17.1922 80.4866 17.2639 80.5332 17.2714C80.7698 17.3067 80.9888 17.3909 81.2002 17.5041C81.4318 17.6285 81.7653 17.7844 81.7804 18.0812C81.7829 18.129 81.8571 18.129 81.8546 18.0812C81.8395 17.8058 81.6193 17.6637 81.4016 17.533Z" fill="#3F4661"/>
<path d="M82.5293 32.7861C81.6861 33.1495 80.8152 33.44 79.9242 33.6575C79.8776 33.6688 79.8977 33.7405 79.9443 33.7292C80.8429 33.5104 81.7188 33.2162 82.5671 32.8503C82.6111 32.8314 82.5734 32.7673 82.5293 32.7861Z" fill="#3F4661"/>
<path d="M82.6675 29.2219C81.2202 29.5111 79.7402 29.5891 78.2703 29.4571C78.2224 29.4533 78.2224 29.5275 78.2703 29.5312C79.7465 29.6645 81.2341 29.5841 82.6877 29.2936C82.7342 29.2848 82.7141 29.2131 82.6675 29.2219Z" fill="#DD6B4B"/>
<path d="M73.9121 27.559C73.5925 27.9236 73.2376 28.2493 72.8474 28.5359C72.8097 28.5636 72.8474 28.629 72.8852 28.6001C73.2804 28.3096 73.6416 27.9802 73.965 27.6118C73.9965 27.5766 73.9436 27.5238 73.9121 27.559Z" fill="#DD6B4B"/>
<path d="M80.8716 26.4408C80.3179 26.5087 79.7629 26.5753 79.2091 26.6432C79.1625 26.6495 79.1613 26.7237 79.2091 26.7174C79.7629 26.6495 80.3179 26.5829 80.8716 26.515C80.9182 26.5087 80.9194 26.4345 80.8716 26.4408Z" fill="#DD6B4B"/>
<path d="M63.8388 26.5532C63.3719 26.8813 63.0246 27.3315 62.827 27.8658C62.8106 27.9111 62.8824 27.93 62.8987 27.886C63.0888 27.3717 63.4273 26.9329 63.8766 26.6173C63.9156 26.5896 63.8779 26.5255 63.8388 26.5532Z" fill="#DD6B4B"/>
<path d="M62.8987 26.6578C62.5879 27.0476 62.4041 27.5053 62.3576 28.0019C62.3525 28.0497 62.428 28.0497 62.4318 28.0019C62.4759 27.5267 62.6546 27.0841 62.9516 26.7106C62.9805 26.6742 62.9289 26.6201 62.8987 26.6578Z" fill="#DD6B4B"/>
<path d="M69.1084 36.4611C69.1172 36.456 69.1248 36.4523 69.1336 36.446C69.2833 36.3416 69.2884 36.1606 69.1562 36.06C69.1839 36.0411 69.2116 36.021 69.2368 35.9971C69.4356 35.811 69.3224 35.5495 69.1097 35.4338C69.2431 35.3722 69.3249 35.2641 69.2418 35.0931C69.1009 34.7989 68.7535 34.6354 68.4351 34.565C68.1935 34.5109 67.8537 34.4481 67.6259 34.5763C67.6183 34.8504 67.5932 35.1233 67.5906 35.3974C67.5906 35.4112 67.5869 35.4212 67.5818 35.43C67.5617 35.5948 67.4975 35.7532 67.5063 35.9204C67.5265 36.2964 67.8323 36.4284 68.1456 36.5981C68.3457 36.7063 68.5446 36.8182 68.7472 36.9225C68.8592 36.9791 68.9662 37.0156 69.0895 36.964C69.3286 36.8634 69.3148 36.5793 69.1109 36.4598L69.1084 36.4611Z" fill="#FFA57A"/>
<path d="M69.1171 35.4455C68.9472 34.9727 68.3532 34.9048 67.9241 34.8306C67.8775 34.8231 67.8573 34.8935 67.9039 34.9023C68.2991 34.9702 68.8881 35.0293 69.0454 35.4656C69.0618 35.5096 69.1335 35.4908 69.1171 35.4455Z" fill="#DD6B4B"/>
<path d="M67.9266 35.336C67.88 35.3285 67.8599 35.4001 67.9064 35.4077C68.3507 35.4756 68.9976 35.5611 69.0706 36.1168C69.0769 36.1633 69.1511 36.1646 69.1448 36.1168C69.0668 35.5196 68.4149 35.4102 67.9266 35.336Z" fill="#DD6B4B"/>
<path d="M67.8523 35.8272C67.8057 35.8197 67.7856 35.8913 67.8321 35.8989C68.2764 35.9668 68.9233 36.0523 68.9963 36.608C69.0026 36.6546 69.0768 36.6558 69.0705 36.608C68.9925 36.0108 68.3406 35.9014 67.8523 35.8272Z" fill="#DD6B4B"/>
<path d="M80.8819 72.1501C80.8819 72.1777 80.8794 72.2066 80.8769 72.2343C80.7548 72.3135 80.6378 72.399 80.5233 72.4895C80.0714 72.8454 79.7329 73.2892 79.3944 73.7507C79.0974 74.1555 78.784 74.5466 78.3674 74.8358C77.64 75.3412 76.7162 75.5311 75.8504 75.3651C75.8554 75.3412 75.8604 75.3173 75.868 75.2922C76.3777 75.3902 76.9025 75.3638 77.4021 75.2155C77.8111 75.0948 78.195 74.8936 78.5247 74.6245C78.385 74.4837 78.1749 74.4661 78.0314 74.3353C77.8917 74.2071 77.9018 74.0361 77.9735 73.8726C78.0855 73.6174 78.2667 73.3785 78.4228 73.1496C78.5902 72.9057 78.7664 72.6681 78.9426 72.4317C79.0923 72.2318 79.237 72.013 79.4372 71.8583C79.6486 71.6949 79.9129 71.6182 80.1344 71.4673C80.3408 71.329 80.5535 71.1567 80.7234 70.9556C80.7347 70.9782 80.746 71.0008 80.7561 71.0247C80.6957 71.0951 80.6302 71.1593 80.561 71.2221C80.3949 71.3743 80.2137 71.5176 80.0173 71.6295C79.7694 71.7678 79.5202 71.8533 79.3226 72.0696C78.9451 72.4795 78.6191 72.9761 78.3158 73.4426C78.1661 73.674 77.7998 74.1115 78.1421 74.3265C78.2881 74.4183 78.458 74.451 78.5814 74.578C78.6254 74.539 78.6707 74.5 78.7135 74.4585C79.0999 74.0839 79.383 73.6212 79.714 73.2012C80.045 72.7812 80.4427 72.4367 80.8819 72.1526V72.1501Z" fill="#FF8661"/>
<path d="M78.0652 72.8255C77.821 73.2253 77.5882 73.6742 77.2736 74.0238C77.0596 74.2626 76.75 74.4311 76.4316 74.3708C76.4467 74.3481 76.4631 74.3268 76.4794 74.3041C76.935 74.372 77.2761 73.937 77.5014 73.5824C77.6335 73.3762 77.7619 73.1688 77.8915 72.9626C78.0211 72.7576 78.1507 72.5564 78.2086 72.3175C78.3156 71.88 78.2477 71.4324 78.2061 70.9898C78.2288 70.952 78.2514 70.9156 78.2766 70.8804C78.2841 71.0941 78.3232 71.3154 78.332 71.5254C78.3534 71.9931 78.3118 72.4206 78.0639 72.8268L78.0652 72.8255Z" fill="#FF8661"/>
<path d="M82.504 48.939C81.7577 47.7797 80.9661 46.6506 80.1317 45.5542C80.1028 45.5165 80.0386 45.5542 80.0675 45.5919C80.9019 46.6883 81.6935 47.8174 82.4398 48.9767C82.465 49.0169 82.5305 48.9792 82.504 48.939Z" fill="#3F4661"/>
<path d="M69.4128 39.5835C69.3788 39.6137 69.3448 39.6401 69.3083 39.664C69.3159 39.6489 69.3222 39.6325 69.3272 39.6149C69.4732 39.1862 69.2026 38.6128 68.9433 38.2771C68.6551 37.9049 68.2197 37.651 67.744 37.6271C67.5011 37.6158 67.2255 37.6572 67.0493 37.8371C66.9486 37.9402 66.8882 38.0709 66.8504 38.2092C66.8441 38.1451 66.8416 38.0797 66.8416 38.0156C66.8693 37.9552 66.902 37.8987 66.9423 37.8458C67.0921 37.6522 67.3274 37.5743 67.564 37.5567C68.1102 37.5139 68.6438 37.7855 68.9811 38.2055C69.2529 38.5437 69.5361 39.1283 69.4128 39.5835Z" fill="#D6674D"/>
<path d="M70.1326 34.5528C70.12 34.5893 70.1049 34.6245 70.0886 34.6597C69.9375 34.1907 69.5688 33.7493 69.229 33.4765C68.9144 33.2238 68.5255 33.049 68.1215 33.01C67.8245 32.9824 67.4809 33.0327 67.2695 33.2338C67.2745 33.1936 67.2795 33.1521 67.2871 33.1119C67.2871 33.1068 67.2896 33.1031 67.2921 33.0993C67.7741 32.7397 68.6891 33.0075 69.1283 33.3093C69.5172 33.5758 69.9426 34.0448 70.1326 34.5528Z" fill="#D6674D"/>
<path d="M67.096 26.336C66.9551 26.3146 66.7977 26.3347 66.6807 26.3674C66.4378 26.4366 66.2188 26.5774 66.0326 26.7434C65.6852 27.0539 65.4222 27.4726 65.3026 27.924C65.2007 28.3125 65.1831 28.7866 65.4423 29.0871C65.4033 29.0845 65.363 29.0795 65.324 29.072C64.9527 28.5439 65.2586 27.6059 65.5996 27.1218C65.8627 26.7471 66.2364 26.4051 66.6895 26.2882C66.7889 26.2618 66.9047 26.2492 67.018 26.2555C67.0457 26.2794 67.0734 26.3058 67.096 26.3347V26.336Z" fill="#D6674D"/>
<path d="M60.7065 27.9537C60.6361 28.38 60.592 28.9357 60.8915 29.2878C60.9444 29.3506 61.0036 29.4022 61.0665 29.4462C61.0287 29.4512 60.991 29.4525 60.9545 29.4537C60.9142 29.4198 60.8752 29.3821 60.8387 29.3406C60.5379 28.9885 60.5618 28.4629 60.6197 28.0329C60.7078 27.3841 61.0476 26.7064 61.6114 26.3933C61.6328 26.3921 61.6555 26.3921 61.6769 26.3921C61.6819 26.3921 61.6857 26.3933 61.6907 26.3946C61.7083 26.3933 61.7259 26.3921 61.7448 26.3921C61.7574 26.3921 61.7713 26.3921 61.7838 26.3921C61.186 26.641 60.8148 27.3062 60.7065 27.9525V27.9537Z" fill="#D6674D"/>
<path d="M85.0034 39.5431C84.8737 39.1798 84.802 38.8013 84.7831 38.4165C84.7831 38.3914 84.7605 38.3763 84.7366 38.3813C83.6844 38.5787 82.621 38.7108 81.5601 38.8528C80.484 38.9974 79.3979 39.2024 78.3118 39.2414C78.2866 39.2414 78.2715 39.264 78.2766 39.2879C78.3609 39.7292 78.4163 40.1756 78.4452 40.6219C79.4709 40.6094 80.4928 40.4924 81.5072 40.3378C82.6801 40.1592 83.9059 40.0146 85.0248 39.5985C85.0172 39.5796 85.0097 39.5607 85.0034 39.5431Z" fill="#3F4661"/>
</svg>
