<svg width="120" height="100" viewBox="0 0 120 100" fill="none" xmlns="http://www.w3.org/2000/svg">
<mask id="mask0_636_10189" style="mask-type:alpha" maskUnits="userSpaceOnUse" x="0" y="0" width="120" height="100">
<path d="M0 0H120V85C120 93.2843 113.284 100 105 100H0V0Z" fill="#D9D9D9"/>
</mask>
<g mask="url(#mask0_636_10189)">
<path d="M110.285 55.4528C108.154 58.6513 106.702 62.2477 106.018 66.029C105.988 66.1955 106.243 66.2654 106.273 66.0989C106.954 62.3376 108.394 58.7678 110.513 55.586C110.608 55.4445 110.378 55.3113 110.285 55.4528Z" fill="#D9A480"/>
<path d="M107.515 55.3662C107.536 55.1997 107.28 55.1381 107.258 55.3062C106.76 59.1258 106.013 62.9054 105.02 66.6267C104.977 66.7915 105.233 66.8515 105.277 66.6866C106.268 62.9653 107.016 59.1857 107.515 55.3662Z" fill="#D9A480"/>
<path d="M101.59 60.1382C101.515 59.9867 101.287 60.1199 101.362 60.2714C102.342 62.2361 103.32 64.2824 103.173 66.5335C103.162 66.7033 103.427 66.7017 103.437 66.5335C103.587 64.2374 102.588 62.1429 101.59 60.1382Z" fill="#D9A480"/>
<path d="M101.487 64.7504C100.902 65.478 100.551 66.3987 100.551 67.4044C100.551 69.7471 102.452 71.6452 104.795 71.6452C107.138 71.6452 109.039 69.7454 109.039 67.4044C109.039 66.3987 108.687 65.4763 108.102 64.7504H101.486H101.487Z" fill="#FFE7D6"/>
<path d="M102.045 59.9784C101.945 59.7853 101.752 59.6388 101.537 59.5955C101.064 59.5006 100.356 59.9518 100.717 60.4796C100.839 60.6577 101.044 60.7593 101.251 60.8209C101.376 60.8575 101.509 60.8825 101.639 60.8592C101.932 60.8076 102.145 60.4979 102.114 60.2015C102.105 60.1233 102.082 60.0483 102.045 59.9784Z" fill="#FACCAC"/>
<path d="M107.397 54.1609C107.162 54.101 106.889 54.2142 106.782 54.434C106.739 54.4873 106.704 54.5489 106.676 54.6188C106.561 54.9052 106.597 55.2549 106.746 55.5229C106.837 55.6894 106.986 55.8593 107.181 55.9042C107.411 55.9558 107.637 55.8709 107.805 55.7111C108.32 55.2182 108.089 54.3391 107.399 54.1626L107.397 54.1609Z" fill="#FACCAC"/>
<path d="M111.131 55.2882C111.1 55.1733 111.047 55.0651 110.972 54.9718C110.832 54.7986 110.622 54.6804 110.398 54.6721C109.838 54.6521 109.479 55.3631 109.657 55.8459C109.763 56.134 110.067 56.3355 110.373 56.3321C110.68 56.3288 110.975 56.1257 111.095 55.8426C111.168 55.6694 111.178 55.4713 111.128 55.2898L111.131 55.2882Z" fill="#FACCAC"/>
<path d="M102.851 61.6951C102.441 61.1657 101.612 61.5603 101.618 62.1796C101.62 62.3978 101.77 62.6059 101.975 62.6792C102.028 62.7241 102.091 62.7557 102.166 62.7691C102.455 62.8207 102.761 62.7291 102.903 62.451C103.03 62.203 103.025 61.9182 102.851 61.6951Z" fill="#FACCAC"/>
<path d="M107.48 58.2951C107.53 58.4899 107.494 58.708 107.367 58.8646C107.155 59.1243 106.726 59.1659 106.467 58.9545C105.832 58.435 106.641 57.4443 107.277 57.9654C107.38 58.0487 107.449 58.1669 107.48 58.2951Z" fill="#FACCAC"/>
<path d="M107.653 61.4602C107.174 61.1605 106.696 61.5218 106.689 62.0279C106.689 62.1428 106.696 62.2627 106.743 62.3676C106.814 62.5324 106.976 62.649 107.151 62.6873C107.456 62.7555 107.798 62.5774 107.919 62.2893C108.039 62.0013 107.924 61.6333 107.661 61.4652C107.659 61.4652 107.656 61.4618 107.654 61.4602H107.653Z" fill="#FACCAC"/>
<path d="M109.75 56.9598C109.085 56.2655 108.428 57.3161 108.745 57.9738C108.812 58.112 108.915 58.2402 109.058 58.3018C109.34 58.4217 109.675 58.2335 109.832 57.9705C110.015 57.6624 110.006 57.2329 109.762 56.9698C109.758 56.9665 109.755 56.9631 109.752 56.9581L109.75 56.9598Z" fill="#FACCAC"/>
<path d="M108.646 79.8805H53.6582V80.4083H108.646V79.8805Z" fill="#4D2E18"/>
<path d="M108.449 74.9641L107.923 75.0109L110.203 100.646L110.73 100.599L108.449 74.9641Z" fill="#4D2E18"/>
<path d="M110.204 70.686H48.2608C48.1154 70.686 47.9976 70.8038 47.9976 70.9491V76.2572C47.9976 76.4025 48.1154 76.5202 48.2608 76.5202H110.204C110.349 76.5202 110.467 76.4025 110.467 76.2572V70.9491C110.467 70.8038 110.349 70.686 110.204 70.686Z" fill="#D9A480"/>
<path d="M28.7931 58.9843C28.2949 57.7206 27.1135 57.1062 25.7838 57.3443C24.6774 57.5424 23.7309 58.0802 22.9244 58.8161C21.2248 60.3613 20.145 62.7905 19.4985 64.7985C19.4452 64.96 19.3952 65.1232 19.3435 65.2864C18.9819 66.4569 18.662 67.6474 18.3821 68.8495C17.9888 70.5295 17.6639 72.2312 17.3839 73.9345C17.2923 72.3094 17.2523 70.6794 17.2756 69.0493C17.2856 68.0636 17.3206 67.073 17.3756 66.0873C17.3939 65.7476 17.4173 65.4046 17.4423 65.0633C17.5639 63.3799 17.7455 61.6999 17.9905 60.0299C18.1255 59.0942 18.2804 58.1601 18.4554 57.231C18.617 56.3686 18.7953 55.5094 18.9803 54.6519C19.4185 52.6123 19.8967 50.5826 20.2917 48.533C20.35 48.2316 20.4083 47.9319 20.4599 47.6289C20.7416 46.1071 20.9882 44.5536 21.0848 43.0002C21.1448 42.0877 21.1531 41.1753 21.0881 40.2695C20.9898 38.9325 20.4649 34.7883 18.2088 36.0237C17.4039 36.465 16.7324 37.4823 16.1992 38.2132C15.471 39.2156 14.8428 40.2895 14.3096 41.4101C14.0263 42.0011 13.7731 42.6055 13.5448 43.2199C12.9299 44.8583 12.4933 46.5666 12.2117 48.2949C12.1984 48.3815 12.1834 48.4664 12.1717 48.553C11.8651 50.5343 11.7602 52.5224 11.7968 54.5137C11.8202 56.0272 11.9268 57.5424 12.0818 59.0509C12.2484 60.6776 12.4783 62.301 12.7283 63.9177C12.0584 62.5957 11.3236 61.2887 10.5138 60.0299C9.76394 58.8561 8.94911 57.7272 8.05931 56.6699C7.49943 56.0006 6.90789 55.3612 6.28803 54.7585C5.17993 53.6846 3.24702 52.4774 1.85566 53.8061C0.570934 55.0299 0.939188 57.1511 1.62071 58.5747C1.76068 58.8678 1.91398 59.1491 2.08227 59.4239C2.86377 60.7076 3.92021 61.8298 4.91666 62.9554C5.12495 63.1901 5.32823 63.4249 5.52819 63.6597C6.87123 65.2481 8.16262 66.8848 9.37236 68.5815C9.52732 68.7996 9.68396 69.0194 9.83726 69.2408C10.4155 70.0766 10.9753 70.9308 11.5086 71.7999C11.7835 72.2428 12.0501 72.694 12.3084 73.1453C11.9101 72.7973 11.4902 72.4726 11.0553 72.1746C10.5354 71.8099 9.99222 71.4869 9.42401 71.1989C8.77749 70.8692 7.55442 70.3281 6.31469 70.0167C4.47675 69.5555 2.59549 69.5971 2.47719 71.5702C2.39221 72.9388 3.35866 73.9078 4.44676 74.5605C4.50508 74.5955 4.56007 74.6288 4.61839 74.6604C5.57152 75.2016 6.53131 75.6911 7.46444 76.2372C7.98932 76.5486 8.50421 76.8749 9.00577 77.2429C9.6473 77.7124 10.2622 78.2136 10.8504 78.7514C11.0986 78.9728 11.3436 79.2026 11.5819 79.439C13.2765 81.109 14.7129 83.0388 15.821 85.1417C16.1909 85.8377 16.4442 86.6219 16.8474 87.2946C17.2306 87.9323 17.7839 88.0355 18.492 87.9406C20.1417 87.7158 21.5464 87.1098 22.5628 85.7544C23.6243 84.3375 24.2341 82.5543 24.699 80.8676C24.9556 79.9369 25.1589 78.9928 25.3356 78.0404C25.4839 77.2545 25.6105 76.4636 25.7338 75.6711C25.7621 75.4896 25.7888 75.3098 25.8188 75.1283C25.9671 74.1676 26.1137 73.2035 26.2854 72.2462C26.457 71.2755 26.6553 70.3097 26.9036 69.3574C27.1285 68.4915 27.4084 67.6474 27.6934 66.8049C28.04 65.7792 28.3932 64.7536 28.6648 63.703C28.9081 62.7606 29.1297 61.7216 29.1114 60.7093C29.1031 60.1182 29.0114 59.5354 28.7948 58.9876L28.7931 58.9843Z" fill="#3C7A59"/>
<path d="M20.6998 42.9003C18.297 42.3641 15.8825 42.6022 13.5464 43.2199C12.9315 44.8583 12.4949 46.5666 12.2133 48.2949C12.2 48.3815 12.185 48.4664 12.1733 48.553C13.0915 48.2466 14.0163 47.9519 14.9744 47.7821C16.7873 47.4607 18.6336 47.4674 20.4615 47.6289C20.7431 46.1071 20.9898 44.5536 21.0864 43.0002C20.9598 42.9602 20.8298 42.9286 20.6982 42.9003H20.6998Z" fill="#27593F"/>
<path d="M8.06053 56.6683C7.12074 57.4825 6.03097 58.1169 4.8429 58.5065C4.11139 58.7463 3.31656 58.8079 2.61171 59.1192C2.42509 59.2042 2.24679 59.3057 2.0835 59.4223C2.86499 60.706 3.92143 61.8282 4.91788 62.9538C5.49109 62.6791 6.10262 62.4759 6.6725 62.2728C7.9189 61.8299 8.95034 61.2122 10.0018 60.4163C10.1701 60.2897 10.34 60.1582 10.5133 60.0283C9.7635 58.8545 8.94867 57.7256 8.05887 56.6683H8.06053ZM17.4968 55.0616C15.7605 55.4196 14.1709 55.1349 12.4946 54.6786C12.2696 54.6187 12.0347 54.5571 11.7981 54.5121C11.8214 56.0256 11.928 57.5408 12.083 59.0493C12.5346 58.8462 13.0128 58.7163 13.5193 58.7163C14.9324 58.713 16.0738 59.7137 17.4235 59.9751C17.6168 60.0117 17.8067 60.03 17.9917 60.03C18.1267 59.0943 18.2816 58.1602 18.4566 57.2311C18.6182 56.3686 18.7965 55.5095 18.9815 54.652C18.4933 54.8102 18 54.9584 17.4985 55.0616H17.4968ZM28.791 58.9844C28.2928 57.7206 27.1114 57.1062 25.7817 57.3443C24.6753 57.5425 23.7288 58.0803 22.9223 58.8162C23.8254 58.8445 24.7219 59.0793 25.6334 59.384C26.8081 59.7736 27.9479 60.2631 29.1076 60.7077C29.0993 60.1166 29.0076 59.5338 28.791 58.986V58.9844Z" fill="#27593F"/>
<path d="M24.9866 65.7028C24.2585 65.5946 23.5103 65.6479 22.7771 65.6179C21.9373 65.5829 21.1041 65.4964 20.2693 65.3998C19.9611 65.3632 19.6511 65.3265 19.3429 65.2866C18.9813 66.4571 18.6613 67.6476 18.3814 68.8497C19.7378 68.7764 20.9792 69.3376 22.2539 69.9686C23.6403 70.6546 24.9616 71.4505 26.2847 72.2447C26.4563 71.274 26.6546 70.3083 26.9029 69.3559C27.1278 68.4901 27.4078 67.6459 27.6927 66.8034C26.8429 66.2922 25.9398 65.8493 24.9866 65.7028ZM11.6029 65.6845C11.0647 66.0375 10.7531 66.5287 10.4831 67.1014C10.1932 67.7158 9.89157 68.207 9.37502 68.5816C9.52998 68.7998 9.68662 69.0195 9.83992 69.241C10.4181 70.0768 10.978 70.931 11.5112 71.8001C11.5879 71.6969 11.6545 71.5753 11.7062 71.4305C11.9894 70.6396 11.9445 69.9486 12.9259 69.6606C13.7257 69.4258 14.5806 69.6756 15.3987 69.5707C16.0452 69.4857 16.6551 69.241 17.275 69.0512C17.285 68.0655 17.32 67.0748 17.3749 66.0891C17.3933 65.7494 17.4166 65.4065 17.4416 65.0651C16.7184 64.9969 15.9919 64.9436 15.2637 64.9419C14.0473 64.9369 12.6526 64.9952 11.6029 65.6862V65.6845ZM9.42501 71.1974C8.77848 70.8677 7.55541 70.3266 6.31568 70.0152C6.10739 70.1584 5.9141 70.3266 5.74581 70.5297C4.95431 71.4738 4.98264 72.7875 4.67437 73.9213C4.61605 74.1378 4.5444 74.3542 4.44775 74.559C4.50607 74.594 4.56106 74.6273 4.61938 74.6589C5.57251 75.2001 6.5323 75.6896 7.46543 76.2357C7.54708 75.9776 7.6154 75.7162 7.68205 75.4765C8.12862 73.8198 9.2867 73.0122 10.773 72.3196C10.8764 72.2713 10.9713 72.2247 11.058 72.1714C10.5381 71.8068 9.99488 71.4838 9.42667 71.1957L9.42501 71.1974Z" fill="#27593F"/>
<path d="M23.0522 75.5996C21.0627 75.6912 19.0748 75.916 17.1102 76.259C16.2071 76.4172 15.2989 76.5887 14.4974 77.0499C13.6376 77.5461 12.9428 78.2903 11.9547 78.5434C11.5831 78.6383 11.2148 78.6883 10.8516 78.7515C11.0998 78.973 11.3448 79.2027 11.5831 79.4392C11.868 79.1828 12.1746 78.9596 12.6262 78.8481C13.6576 78.5983 14.8257 78.6799 15.8788 78.635C17.7217 78.5551 19.5897 78.575 21.3793 78.0888C22.4324 77.8008 23.4038 77.6093 24.4936 77.8191C24.7785 77.8741 25.0585 77.949 25.3351 78.0372C25.4834 77.2513 25.61 76.4605 25.7333 75.6679C24.8469 75.5497 23.9354 75.5564 23.0522 75.5963V75.5996Z" fill="#27593F"/>
<path d="M34.3254 80.5297H9.18417C9.03921 80.5297 8.9209 80.6479 8.9209 80.7928V100.938C10.5739 101.121 12.2035 101.294 13.8765 101.294C15.1112 101.294 16.4193 101.179 17.689 101.226C17.794 101.216 17.8989 101.208 18.0039 101.203C18.8721 101.166 19.7252 101.354 20.585 101.436C21.5282 101.526 22.4696 101.507 23.4161 101.489C25.4156 101.447 27.4169 101.469 29.4181 101.469C31.1194 101.469 34.5903 101.481 34.5903 101.424V80.7911C34.5903 80.6462 34.472 80.528 34.327 80.528L34.3254 80.5297Z" fill="#FFE7D6"/>
<path d="M60.7487 45.2812C60.7487 45.2812 62.8866 48.9875 63.5781 49.6718C64.268 50.3562 73.7626 50.9955 73.7626 50.9955L74.9956 53.7478L73.4426 57.3243C73.4426 57.3243 62.4234 57.6539 59.7389 54.7518C57.0529 51.8497 54.0552 49.6718 54.0552 49.6718L59.0008 44.7567L60.7487 45.2795V45.2812Z" fill="#EB8B6C"/>
<path d="M54.4038 30.9056C54.4038 30.9056 56.6017 34.3405 57.4432 37.4691C58.2846 40.5993 60.7491 45.2813 60.7491 45.2813L56.45 50.7143L49.6665 46.0289L51.8644 31.2153L54.4055 30.9039L54.4038 30.9056Z" fill="#D9A480"/>
<path d="M63.5787 63.5347C63.5787 63.5347 59.9245 63.0319 59.2763 62.8204C58.6281 62.609 57.4434 62.0778 57.4434 62.0778L58.0799 64.4788C58.0799 64.4788 60.0861 66.8264 60.406 66.9547C60.726 67.0829 65.1234 69.0309 65.1234 69.0309L65.8399 66.0506L63.577 63.5364L63.5787 63.5347Z" fill="#EB8B6C"/>
<path d="M77.3521 30.1529L74.0562 32.9884L79.8982 46.4568L83.6174 37.6738L88.1231 31.2885L82.1677 28.2864L77.3521 30.1529Z" fill="#FFA480"/>
<path d="M86.5714 32.1727C85.9065 32.9353 85.225 33.6912 84.3619 34.2806C85.0734 32.9869 85.6716 31.6465 86.2665 30.3112C86.3365 30.153 86.0399 30.0831 85.9699 30.2413C85.3483 31.6365 84.7268 33.0335 83.9686 34.3788C83.927 34.4521 83.8853 34.5254 83.8437 34.5986C83.777 34.6352 83.7137 34.6752 83.6437 34.7085C82.5973 35.2346 81.3709 35.541 80.1728 35.6892C78.7431 35.8657 77.6 35.2679 76.4536 34.6119C76.112 34.4171 75.7854 34.2073 75.4738 33.9859C75.2189 33.3598 75.0189 32.7155 74.8773 32.0595C74.8406 31.893 74.544 31.9629 74.5807 32.1294C74.6906 32.6356 74.8373 33.1401 75.0139 33.6362C74.5307 33.245 74.0974 32.8104 73.7342 32.3209C73.6275 32.1777 73.3609 32.3109 73.4676 32.4541C73.9441 33.0951 74.5357 33.6462 75.2022 34.1307C75.5954 35.0915 76.1187 36.0139 76.7952 36.8464C77.59 37.8271 78.8181 38.911 80.3044 38.4065C81.9924 37.8321 82.9705 36.6 83.787 35.2729C83.887 35.1098 83.9836 34.9449 84.0803 34.7801C85.2067 34.1424 86.0365 33.225 86.8397 32.3042C86.958 32.1677 86.6914 32.0362 86.5731 32.171L86.5714 32.1727ZM80.921 37.8521C80.561 38.0369 80.1545 38.2184 79.7379 38.2766C79.1313 38.3599 78.5865 38.0685 78.1332 37.7472C77.535 37.3226 77.0718 36.7681 76.6752 36.202C76.2853 35.6442 75.957 35.0631 75.6804 34.4621C75.8487 34.572 76.0204 34.6785 76.1953 34.7818C77.3267 35.4411 78.5231 36.1088 79.9428 35.9806C81.1892 35.8674 82.4806 35.551 83.5904 35.0348C82.9422 36.1321 82.1707 37.2127 80.921 37.8537V37.8521Z" fill="white"/>
<path d="M81.9079 101.922C84.639 101.947 87.3684 101.973 90.0978 102.002C91.9174 102.022 93.637 101.789 95.4316 101.516C97.0846 101.264 98.7642 101.304 100.427 101.146C101.669 101.028 102.855 100.706 104.028 100.335C103.998 98.8998 103.888 94.6657 103.597 93.004C103.245 90.9894 102.893 84.2927 102.233 81.8351C101.574 79.3775 95.37 62.5326 95.0001 60.5246C94.6301 58.5166 86.4836 35.541 86.4836 35.541L84.9606 32.1727C84.9606 32.1727 82.7011 37.519 81.648 39.8917C80.5965 42.266 79.6217 43.1102 79.6217 43.1102C79.6217 43.1102 79.1802 42.1345 78.4953 41.0788C77.8105 40.0232 75.6059 34.6602 75.6059 34.6602L73.6514 43.4448L76.1258 101.874C76.1258 101.874 81.538 101.882 81.9062 101.919L81.9079 101.922Z" fill="#FFE7D6"/>
<path d="M97.5759 100.737C96.5878 99.7281 95.5663 98.6907 94.9464 97.4054C94.2899 96.0434 94.2816 94.5282 94.0733 93.0597C93.8767 91.6644 93.3301 90.6054 92.6669 89.3866C91.8821 87.9447 91.4755 86.353 91.4289 84.7129C91.4239 84.5431 91.1606 84.5431 91.1656 84.7129C91.2056 86.1632 91.5189 87.5851 92.1287 88.9038C92.447 89.5898 92.8736 90.2158 93.2018 90.8968C93.6034 91.7327 93.7617 92.6318 93.8717 93.5442C94.035 94.9045 94.11 96.2848 94.7182 97.5386C95.3514 98.8439 96.3845 99.8996 97.3892 100.924C97.5075 101.045 97.6942 100.859 97.5759 100.737Z" fill="#E8C6AE"/>
<path d="M89.9959 56.0772C88.5296 56.5668 87.0133 56.8864 85.5536 57.3909C83.9956 57.9287 82.5126 58.3999 80.8529 58.4948C80.6846 58.5048 80.683 58.7679 80.8529 58.7579C82.4392 58.6663 83.8973 58.2534 85.3886 57.7273C86.9249 57.1845 88.5213 56.8465 90.0676 56.3303C90.2276 56.277 90.1592 56.0223 89.9976 56.0756L89.9959 56.0772Z" fill="#E8C6AE"/>
<path d="M79.2617 101.898C79.2867 101.72 79.32 101.502 79.3584 101.259C79.3717 101.169 79.3867 101.079 79.4 100.984C79.6033 99.6839 79.8916 97.9439 79.8916 97.9439C79.8916 97.9439 80.4731 99.7188 80.9797 101.069C81.0147 101.164 81.048 101.254 81.083 101.344C81.1646 101.555 81.2413 101.747 81.3129 101.917C84.2423 101.942 87.1717 101.972 90.101 102.002C90.2877 102.003 90.4743 102.002 90.6593 101.998C90.6309 101.737 90.5643 101.051 90.4693 100.112C90.4593 100.027 90.451 99.937 90.441 99.8454C90.3177 98.6399 90.156 97.0781 89.9794 95.498C89.9694 95.4115 89.9577 95.3232 89.9477 95.2366C89.8028 93.9496 89.6495 92.6592 89.5012 91.547C89.4795 91.3854 89.4595 91.2306 89.4378 91.0807C89.4245 90.9908 89.4112 90.9043 89.4012 90.8193C88.9163 87.4743 88.5114 86.6685 88.5114 86.6685L87.31 86.8483L87.0467 86.8849L83.8324 87.3644L83.5691 87.4044L79.8633 87.9538L79.6017 87.9938L77.1838 88.3518L76.9122 88.3934L73.3613 88.9179L73.0997 88.9579L70.7602 89.3058C70.7602 89.3058 70.7202 90.3365 70.6686 91.7218C70.6653 91.82 70.6603 91.9199 70.6586 92.0231C70.6303 92.7957 70.5953 93.6582 70.5669 94.5057V94.509C70.562 94.6039 70.5586 94.7022 70.5536 94.7971C70.5036 96.2107 70.4536 97.5427 70.432 98.3003C70.4186 98.7298 70.4103 99.1527 70.4053 99.559V99.8254C70.4003 100.65 70.4086 101.371 70.417 101.857C73.3663 101.865 76.3157 101.88 79.2651 101.903L79.2617 101.898Z" fill="#D9A480"/>
<path d="M72.1916 101.858C72.2799 101.858 72.3682 101.858 72.4565 101.858C72.5165 101.271 72.5748 100.683 72.6381 100.095C73.5113 100.163 74.3911 100.212 75.2592 100.32C75.3459 100.33 75.4308 100.343 75.5158 100.357C75.3892 100.861 75.2592 101.366 75.1359 101.872C75.2276 101.872 75.3192 101.872 75.4108 101.873C75.5342 101.381 75.6641 100.891 75.7891 100.402C76.7889 100.581 77.742 100.893 78.7318 101.134C78.9434 101.184 79.1517 101.226 79.36 101.257C79.3733 101.167 79.3883 101.078 79.4017 100.983C79.0851 100.938 78.7685 100.871 78.4469 100.784C77.5804 100.55 76.7339 100.3 75.8524 100.147C76.0957 99.1761 76.314 98.2004 76.4206 97.193C76.439 97.0032 76.4523 96.8084 76.469 96.6153C77.2604 96.6519 78.0586 96.6119 78.8468 96.5337C79.7832 96.4388 80.7097 96.3206 81.6395 96.204C81.6995 96.3755 81.7578 96.5437 81.8161 96.7152C82.286 98.0755 82.5876 99.4525 82.8226 100.856C82.6143 100.888 82.406 100.916 82.1944 100.948C81.7828 101.011 81.3779 101.051 80.983 101.066C81.018 101.161 81.0513 101.251 81.0863 101.341C81.3112 101.327 81.5379 101.306 81.7645 101.274C82.1344 101.226 82.501 101.174 82.8659 101.121C82.9092 101.389 82.9492 101.659 82.9892 101.928C83.0775 101.928 83.1658 101.928 83.2525 101.93C83.2108 101.647 83.1708 101.366 83.1258 101.084C83.894 100.976 84.6588 100.873 85.4403 100.831C85.7969 100.813 86.1535 100.789 86.5068 100.764C86.5951 101.159 86.6551 101.56 86.6967 101.963H86.9367C86.8817 101.554 86.81 101.147 86.7167 100.746C87.3133 100.698 87.9065 100.633 88.5013 100.533C88.5813 101.018 88.6646 101.502 88.748 101.985C88.8396 101.985 88.9296 101.987 89.0212 101.988C88.9329 101.489 88.8429 100.991 88.7596 100.488C89.3345 100.383 89.906 100.257 90.4709 100.108C90.4609 100.024 90.4526 99.9336 90.4426 99.8421C89.901 99.9853 89.3545 100.108 88.8029 100.213C88.7746 100.218 88.7479 100.222 88.718 100.227C88.4747 98.7132 88.2564 97.1914 88.0681 95.6662C88.7063 95.6262 89.3462 95.5713 89.9794 95.4947C89.9694 95.4081 89.9577 95.3199 89.9477 95.2333C89.3145 95.3099 88.6746 95.3632 88.0364 95.4015C87.8748 94.0645 87.7332 92.7225 87.6165 91.3771C88.2214 91.2639 88.8279 91.164 89.4378 91.0758C89.4245 90.9858 89.4111 90.8993 89.4011 90.8144C88.7996 90.9043 88.1947 91.0008 87.5949 91.1157C87.4766 89.6938 87.3783 88.2702 87.3099 86.8433C87.2916 86.477 87.2749 86.1074 87.2599 85.7411C87.2516 85.5729 86.9883 85.5729 86.9967 85.7411C87.0133 86.1207 87.0283 86.5003 87.0467 86.8799C87.1183 88.3102 87.2133 89.7388 87.3349 91.1657C86.96 91.2373 86.5834 91.3139 86.2085 91.4004C85.4637 91.5719 84.7255 91.7967 83.9773 91.9699C83.9773 91.9616 83.974 91.9549 83.974 91.9482C83.8074 90.4231 83.799 88.8913 83.8307 87.3594C83.8407 86.8433 83.8573 86.3255 83.8723 85.8093C83.8773 85.6412 83.6141 85.6412 83.6091 85.8093C83.5941 86.3388 83.5774 86.8699 83.5674 87.3994C83.5324 88.9445 83.5458 90.4913 83.7174 92.0265C83.3791 92.0981 83.0392 92.158 82.6959 92.1947C82.0194 92.2662 81.3396 92.2679 80.658 92.2479C80.5847 91.9649 80.5131 91.6835 80.4464 91.3988C80.1881 90.2599 79.9932 89.106 79.8599 87.9489C79.7649 87.1497 79.7016 86.3471 79.6666 85.5429C79.6583 85.3747 79.395 85.3714 79.4033 85.5429C79.44 86.3604 79.5033 87.1763 79.5983 87.9872C79.7199 89.0345 79.8882 90.0734 80.1098 91.1041C80.1915 91.487 80.2865 91.8616 80.3848 92.2363C79.8999 92.218 79.4166 92.1863 78.9334 92.163C78.1936 92.1264 77.4554 92.0914 76.7139 92.0515C76.7872 90.7994 76.9139 89.5539 77.1805 88.3451C77.4604 87.0864 77.8936 85.8709 78.5902 84.7237C78.6768 84.5789 78.4502 84.4473 78.3602 84.5889C77.632 85.7893 77.1855 87.0681 76.9089 88.3868C76.6506 89.5789 76.5306 90.806 76.4556 92.0365C76.0757 92.0148 75.6925 91.9965 75.3125 91.9765C74.6527 91.9349 73.9978 91.8234 73.3463 91.7268C73.3813 90.791 73.388 89.852 73.3596 88.9129C73.3363 88.0371 73.2746 87.1596 73.1747 86.2805C73.1563 86.1124 72.8931 86.1124 72.9114 86.2805C73.0114 87.1713 73.073 88.0637 73.098 88.9529C73.1247 89.8653 73.1164 90.7777 73.0814 91.6901C72.6748 91.6352 72.2682 91.5902 71.86 91.5769C71.45 91.5636 71.0551 91.6219 70.6669 91.7168C70.6635 91.815 70.6585 91.9149 70.6569 92.0182C71.3334 91.8733 72.0166 91.8283 72.7031 91.9316C72.8247 91.9499 72.9481 91.9665 73.073 91.9815C73.0264 93.1454 72.9364 94.3076 72.8331 95.4681C72.1882 95.1983 71.5534 94.9003 70.9068 94.6372C70.7935 94.5889 70.6802 94.5457 70.5669 94.5024C70.5619 94.5973 70.5586 94.6955 70.5536 94.7904C71.0901 94.9935 71.6117 95.2233 72.1116 95.4414C72.3432 95.5447 72.5765 95.6412 72.8114 95.7395C72.7398 96.542 72.6614 97.3429 72.5815 98.1421C72.5265 98.6982 72.4682 99.2527 72.4065 99.8088C71.7366 99.7505 71.0651 99.6789 70.4053 99.5507V99.8171C71.0568 99.9436 71.7167 100.015 72.3798 100.07C72.3182 100.665 72.2565 101.259 72.1949 101.853L72.1916 101.858ZM85.437 100.571C84.6405 100.613 83.8607 100.708 83.0775 100.821C82.8592 99.4891 82.586 98.1787 82.1511 96.885C82.0694 96.6469 81.9878 96.4105 81.9061 96.1707C82.8042 96.0592 83.7007 95.9543 84.6039 95.876C84.7905 96.4138 85.0054 96.9466 85.2454 97.4777C85.6753 98.4201 86.1302 99.3576 86.4035 100.363C86.4168 100.412 86.4268 100.461 86.4401 100.508C86.1069 100.535 85.7719 100.556 85.437 100.571ZM88.4564 100.273C87.8565 100.373 87.2549 100.441 86.6534 100.491C86.4401 99.6456 86.1469 98.8164 85.7636 97.9806C85.442 97.268 85.1454 96.5636 84.8921 95.8527C85.312 95.8177 85.7319 95.7861 86.1535 95.7678C86.7017 95.7445 87.2516 95.7178 87.7998 95.6862C87.9865 97.2213 88.2097 98.7482 88.4547 100.273H88.4564ZM85.9136 91.7468C86.3918 91.6302 86.8717 91.5303 87.3549 91.4354C87.4716 92.7674 87.6115 94.0961 87.7715 95.4231C87.03 95.4681 86.2852 95.4964 85.547 95.5347C85.297 95.5447 85.0504 95.563 84.8021 95.5846C84.4322 94.5057 84.1556 93.4068 84.0073 92.2379C84.6455 92.0898 85.277 91.9033 85.9136 91.7468ZM82.9492 92.4344C83.2192 92.3978 83.4858 92.3495 83.749 92.2945C83.894 93.4368 84.1473 94.534 84.5039 95.6046C83.6057 95.6845 82.7109 95.7994 81.8161 95.9193C81.4279 94.7904 81.043 93.6649 80.7264 92.5143C81.4679 92.5376 82.2127 92.531 82.9492 92.4344ZM76.6989 92.3179C77.617 92.3711 78.5368 92.4128 79.4566 92.4577C79.7899 92.4727 80.1198 92.4927 80.4514 92.506C80.768 93.6699 81.1529 94.8121 81.5462 95.9526C80.4031 96.1058 79.26 96.2556 78.1069 96.3322C77.5654 96.3688 77.0255 96.3772 76.4856 96.3505C76.5856 95.0219 76.6206 93.6649 76.6972 92.3179H76.6989ZM73.3313 92.0232C74.3661 92.158 75.4009 92.2413 76.439 92.3045C76.3623 93.6515 76.3273 95.0085 76.2273 96.3355C75.5392 96.2873 74.8576 96.174 74.1895 95.9742C73.8145 95.861 73.4479 95.7245 73.0864 95.578C73.1913 94.3941 73.2813 93.2086 73.3313 92.0232ZM72.8397 98.1471C72.9164 97.3795 72.9897 96.6153 73.0614 95.8477C73.7812 96.1324 74.5177 96.3755 75.2892 96.4987C75.5958 96.5487 75.8991 96.5836 76.2057 96.6036C76.2023 96.6352 76.2023 96.6669 76.2007 96.6985C76.0974 97.864 75.8524 98.9879 75.5775 100.102C75.5492 100.098 75.5192 100.092 75.4908 100.087C74.5544 99.9603 73.6062 99.9103 72.6664 99.8371C72.7248 99.276 72.7831 98.7115 72.8414 98.1488L72.8397 98.1471Z" fill="white"/>
<path d="M58.8009 49.0277L52.314 46.8782L52.9005 51.9848C52.9005 51.9848 58.7742 55.2316 61.5986 53.8729C64.423 52.5126 65.6894 49.5872 65.6894 49.5872L58.8026 49.0294L58.8009 49.0277Z" fill="#FFA480"/>
<path d="M83.5159 23.0632C83.4793 22.9566 83.4443 22.8501 83.4126 22.7435C82.8294 20.7771 83.4943 18.7574 82.8661 16.8044C82.3345 15.1477 81.2748 13.501 79.6234 12.9465C77.299 12.1673 75.8709 12.5503 75.8709 12.5503C75.8709 12.5503 73.918 11.7943 71.0203 13.4477C67.4811 15.4657 66.5996 19.1121 67.6111 23.4811C67.8027 24.3103 68.0276 25.1345 68.3659 25.917C68.7208 26.7395 69.1724 27.5554 69.2174 28.4512C69.2524 29.1421 69.0407 29.8281 69.0891 30.5191C69.1224 31.0036 69.374 31.6463 69.8322 31.8811C70.2238 32.0809 70.2838 31.8345 70.2805 31.4848C70.2738 31.007 70.2738 30.5291 70.2688 30.0512C70.3871 30.5624 70.5704 31.1502 71.0636 31.3283C71.4302 31.4615 71.8301 31.31 72.2101 31.2218C72.9316 31.0536 73.4231 31.1135 74.153 30.9953C75.4494 30.7872 76.5858 30.0413 77.6772 29.3153C77.5772 29.2587 77.4573 29.2437 77.3473 29.272C79.5135 28.2064 84.3008 27.1025 84.4591 26.7512C84.6174 26.3999 83.8992 24.1787 83.5126 23.0632H83.5159Z" fill="#8C422A"/>
<path d="M73.2779 27.5704C73.2429 27.3206 73.2063 27.0725 73.1713 26.8228C73.1546 26.7112 73.138 26.5963 73.083 26.4981C72.978 26.3133 72.7414 26.2267 72.5331 26.265C71.675 26.4282 71.7449 28.0016 71.7916 28.6343C71.7949 28.6776 71.7999 28.7226 71.8283 28.7542C71.8566 28.7858 71.9016 28.7975 71.9432 28.8042C72.3065 28.8708 72.6897 28.8258 73.028 28.676C73.1363 28.6277 73.2446 28.5661 73.3046 28.4645C73.3829 28.333 73.3629 28.1698 73.3413 28.0183C73.3196 27.8684 73.2979 27.7186 73.2779 27.5687V27.5704Z" fill="#4D2E18"/>
<path d="M72.8768 25.7223C72.8168 25.5741 72.6852 25.4642 72.5269 25.4426C72.3586 25.4193 72.242 25.4709 72.112 25.5775C71.952 25.7073 71.972 25.9771 72.1003 26.1219C72.1487 26.2085 72.2303 26.2768 72.337 26.3101C72.6902 26.4216 73.0151 26.062 72.8785 25.7223H72.8768Z" fill="white"/>
<path d="M61.7489 70.2563L58.8029 65.1913L54.4038 67.1161L57.1982 71.4585L61.7489 70.2563Z" fill="#FFA480"/>
<path d="M24.3132 101.151C24.3049 101.236 24.3082 101.316 24.3182 101.392C24.4548 101.409 24.5898 101.425 24.7264 101.439C25.6696 101.529 26.611 101.51 27.5575 101.492C29.5571 101.45 31.5583 101.472 33.5595 101.472C33.6545 101.472 33.7512 101.472 33.8461 101.47C33.9561 101.151 34.0244 100.793 34.1077 100.428C34.7143 97.8007 36.3889 85.9691 36.5255 84.6554C36.7338 82.6424 37.1171 80.6594 37.5637 78.6863C38.2352 86.3954 39.085 94.0877 40.1081 101.758C41.961 101.95 43.8473 101.9 45.7069 101.868C46.9816 101.847 48.243 101.702 49.5094 101.605C49.5377 101.549 49.5627 101.49 49.5827 101.425C49.871 100.51 49.3211 99.3625 49.2445 98.4484C49.1411 97.228 49.2478 96.0008 49.3211 94.782C49.4011 93.44 49.4644 92.0964 49.5111 90.751C49.606 88.1503 49.6427 85.5479 49.6227 82.9438C49.6044 80.3397 49.5244 77.7389 49.3911 75.1399C49.3244 73.8395 49.2428 72.5424 49.1461 71.2437C49.0662 70.1814 49.0912 68.9909 48.6729 67.9919C48.3013 67.1012 47.5015 66.5201 46.7283 65.9923C45.8069 65.3679 44.8271 64.8367 43.809 64.3905C41.8377 63.533 39.7382 63.0002 37.6103 62.7122C35.3991 62.4141 33.0946 62.3109 30.9051 62.8337C29.887 63.0768 28.8939 63.4664 28.0224 64.0542C27.6075 64.3339 27.2276 64.6552 26.8793 65.0116C26.5177 65.3779 24.9147 65.874 24.9147 65.874C24.9147 65.874 24.5365 84.2874 24.4165 86.9382C24.2949 89.5739 24.4832 98.9629 24.2932 101.072C24.2899 101.104 24.2982 101.127 24.3149 101.149L24.3132 101.151Z" fill="#4D2E18"/>
<path d="M25.9084 99.181C25.8767 99.9519 25.8317 100.724 25.8034 101.497C25.8901 101.499 25.9784 101.502 26.065 101.504C26.0883 100.893 26.1217 100.283 26.1517 99.6739C26.2067 98.5283 26.2416 97.3795 26.1417 96.2373C26.0434 95.1267 25.8151 94.0278 25.8067 92.9089C25.7967 91.745 26.1783 90.6645 26.3166 89.5223C26.4566 88.3584 26.1617 87.2245 26.0734 86.0723C25.9884 84.9118 26.105 83.7546 26.1917 82.5991C26.2833 81.3887 26.3366 80.1782 26.36 78.9644C26.4133 76.2288 26.315 73.4965 26.1983 70.7642C26.19 70.596 25.9267 70.596 25.935 70.7642C26.0384 73.1934 26.1283 75.6227 26.11 78.0536C26.0883 80.4796 25.7584 82.9038 25.7801 85.3281C25.7901 86.4919 26.0833 87.6258 26.095 88.7863C26.1033 89.9385 25.6751 91.0291 25.5701 92.1696C25.4618 93.3668 25.6918 94.5573 25.8267 95.7428C25.9584 96.885 25.9584 98.0322 25.9117 99.1793L25.9084 99.181Z" fill="#2E1607"/>
<path d="M51.4808 101.515C52.5339 101.515 53.5536 101.544 54.5934 101.342C54.8667 101.289 55.1366 101.232 55.4066 101.179L55.7765 93.9214L49.3096 93.3286L50.3843 101.549C50.7493 101.53 51.1142 101.515 51.4808 101.515Z" fill="#FFA480"/>
<path d="M45.7071 101.869C45.7838 101.869 45.8604 101.864 45.9371 101.86L47.3285 94.3011L40.9648 93.0057L41.1448 101.84C42.6611 101.93 44.1925 101.894 45.7071 101.867V101.869Z" fill="#FFA480"/>
<path d="M58.7214 94.1844C58.5847 94.5807 50.1366 95.548 49.5217 95.3266C48.9068 95.1085 48.4653 94.5357 48.3336 94.9753C48.202 95.4165 47.5871 95.1284 46.0025 95.3582C44.4195 95.5897 38.1258 95.195 37.8626 95.0202C37.7193 94.922 38.0342 89.6189 38.7224 84.3808C39.0623 81.8017 40.0471 78.9345 40.7953 77.0264C40.8302 76.9398 40.8619 76.8582 40.8936 76.7766C41.3601 75.6028 41.7117 74.8486 41.7117 74.8486C41.7117 74.8486 46.1774 72.4692 47.8937 72.8206C48.9635 73.0387 51.083 74.1626 52.5294 74.9784C52.6427 75.045 52.7543 75.1083 52.8593 75.1682C53.5558 75.5662 54.0307 75.8542 54.0307 75.8542C54.0307 75.8542 54.2473 76.1339 54.5739 76.6617C54.6189 76.735 54.6689 76.8116 54.7189 76.8965C55.5687 78.3101 56.9784 81.099 57.5716 84.8337C58.4514 90.3615 58.8547 93.7914 58.7197 94.1861L58.7214 94.1844Z" fill="#554D99"/>
<path d="M54.7183 76.8948C52.9287 77.341 51.0841 77.5592 49.2328 77.6091C47.5698 77.6541 45.9102 77.5725 44.2539 77.4226C43.1191 77.3227 41.9311 77.2545 40.793 77.0264C40.828 76.9398 40.8596 76.8582 40.8913 76.7766C41.6311 76.9248 42.3876 77.003 43.1408 77.0663C43.2891 76.3087 43.4574 75.5578 43.6507 74.8086C43.6923 74.6454 43.9456 74.717 43.904 74.8802C43.7173 75.6111 43.5507 76.3487 43.4057 77.0896C43.7323 77.1163 44.0606 77.1429 44.3822 77.1712C45.9102 77.3028 47.4449 77.3793 48.9779 77.351C50.2842 77.3244 51.589 77.2162 52.8737 77.0047C52.8737 77.0014 52.8703 76.9997 52.8703 76.9947C52.857 76.3004 52.747 75.6277 52.5271 74.9767C52.4721 74.8086 52.4088 74.6421 52.3405 74.4789C52.2738 74.3257 52.5021 74.1908 52.5671 74.3474C52.6804 74.6171 52.7787 74.8901 52.857 75.1682C53.0286 75.7493 53.1203 76.347 53.1336 76.9648C53.6168 76.8798 54.0951 76.7799 54.5716 76.6617C54.6166 76.735 54.6666 76.8116 54.7166 76.8965L54.7183 76.8948Z" fill="#342B82"/>
<path d="M55.0102 10.3126C54.9302 9.98123 54.8469 9.64656 54.8203 9.30523C54.7703 8.6975 54.9869 8.20799 54.662 7.64188C54.4087 7.20065 54.2704 6.86765 53.9105 6.51633C53.2906 5.91027 52.6857 5.32418 51.8276 5.16434C51.1911 4.37512 49.908 3.93722 48.9315 4.00715C48.415 4.04378 48.2217 4.26689 47.6352 4.19696C47.3586 4.16366 47.0919 4.09873 46.812 4.07875C45.4306 3.98551 44.1543 4.56327 43.2778 5.63054C42.7995 6.21163 42.2897 6.851 41.9097 7.49869C41.5681 8.08145 41.4482 8.85734 41.4948 9.52501C41.4998 9.58995 41.5082 9.65322 41.5182 9.71649C41.3215 10.2643 41.2099 10.8454 41.0783 11.4165C40.8716 12.3172 40.745 13.0515 40.8816 13.9673C41.0749 15.2726 40.755 17.5404 42.6812 17.5787C43.6444 17.597 44.6758 17.2307 45.5806 16.9377C46.5787 16.613 47.5518 16.22 48.5166 15.8104C49.4181 15.4292 50.3379 15.0662 51.1961 14.5933C52.2458 14.0156 52.7524 13.2197 54.0038 13.213C53.9321 13.253 53.8571 13.2929 53.7755 13.3296C53.6222 13.4012 53.7555 13.6293 53.9088 13.5577C54.752 13.1631 55.0452 12.6469 55.1002 11.7395C55.1302 11.2533 55.1285 10.7854 55.0136 10.3109L55.0102 10.3126Z" fill="#8C422A"/>
<path d="M47.8649 26.1983L44.4357 35.1761L33.4131 27.6902C33.4131 27.6902 36.4591 25.907 37.7838 24.5516C38.552 23.7624 39.75 20.534 40.6265 17.9598C40.8481 17.3005 41.0481 16.6828 41.2181 16.1633C41.308 15.8869 41.3897 15.6355 41.458 15.419C41.4897 15.3191 41.5163 15.2292 41.543 15.1443C41.543 15.1443 41.543 15.1426 41.543 15.1393C41.6546 14.7813 41.718 14.5715 41.718 14.5715L42.0712 15.0311L46.9968 21.4564C46.9968 21.4564 46.6852 22.1191 46.4186 22.8283C46.3553 22.9915 46.292 23.158 46.237 23.3195C46.0837 23.7791 45.9804 24.192 46.0287 24.3951C46.0703 24.5716 46.2536 24.8014 46.4852 25.0412C47.0318 25.6006 47.8649 26.1967 47.8649 26.1967V26.1983Z" fill="#EB8B6C"/>
<path d="M46.0271 24.3969C46.0688 24.5717 46.2504 24.8032 46.4837 25.0429C45.6089 24.8814 43.2477 23.8857 42.6412 22.4588C41.7231 20.2993 43.3344 18.2596 43.3344 18.2596L46.417 22.8301C46.1738 23.4578 45.9621 24.1238 46.0271 24.3986V24.3969Z" fill="#69311F"/>
<path d="M54.4405 12.8134C54.3022 13.5027 54.0222 14.172 53.7706 14.8264C53.7123 14.9762 53.6523 15.1377 53.5857 15.3059C53.5623 15.3692 53.5357 15.4358 53.509 15.5007C53.4357 15.6905 53.3557 15.8903 53.2741 16.0968C52.5775 17.8251 51.5061 19.8297 50.6213 20.942C49.4149 22.4638 48.2485 23.3396 46.5405 23.1847C45.9573 23.1365 45.8457 23.0049 45.3258 22.7019C44.3827 22.1574 43.6611 21.4015 43.0813 20.4508C42.5147 19.52 41.7282 18.4444 41.5516 17.2723C41.5149 17.0342 41.4833 16.7977 41.4566 16.5546C41.43 16.3349 41.4216 16.0718 41.435 15.7771C41.44 15.6639 41.4483 15.5456 41.4583 15.4241C41.7349 11.9742 44.196 5.04772 49.4399 6.52293C54.3472 7.90822 54.8221 10.9469 54.4388 12.8167L54.4405 12.8134Z" fill="#EB8B6C"/>
<path d="M47.383 14.9928C47.363 14.9512 47.333 14.9146 47.2947 14.8896C46.9564 14.6731 46.5899 15.2409 46.4865 15.494C46.4249 15.6472 46.4032 15.8486 46.5265 15.9585C46.6049 16.0285 46.7232 16.0385 46.8231 16.0068C46.9231 15.9752 47.0064 15.9052 47.0798 15.8303C47.2097 15.6938 47.3097 15.529 47.3714 15.3525C47.3997 15.2725 47.4197 15.1893 47.4113 15.1044C47.408 15.0661 47.398 15.0295 47.3814 14.9945L47.383 14.9928Z" fill="#2E1607"/>
<path d="M51.8308 15.9788C51.8108 15.9372 51.7808 15.9005 51.7425 15.8756C51.4042 15.6591 51.0376 16.2269 50.9343 16.48C50.8726 16.6331 50.851 16.8346 50.9743 16.9445C51.0526 17.0144 51.1709 17.0244 51.2709 16.9928C51.3709 16.9611 51.4542 16.8912 51.5275 16.8146C51.6575 16.6781 51.7575 16.5133 51.8191 16.3368C51.8474 16.2568 51.8674 16.1736 51.8591 16.0887C51.8558 16.0504 51.8458 16.0137 51.8291 15.9788H51.8308Z" fill="#2E1607"/>
<path d="M47.9919 13.4278C47.5436 13.2746 47.0504 13.1331 46.5605 13.1231C46.2239 13.1165 45.8807 13.1764 45.5757 13.3229C45.2958 13.4578 44.9875 13.7625 45.4708 13.904C45.6141 13.9456 45.7674 13.929 45.9157 13.9207C46.5322 13.8907 47.1437 14.0405 47.7219 14.2587C47.8719 14.3153 48.0235 14.3769 48.1835 14.3819C48.3435 14.3869 48.5168 14.3236 48.5934 14.1837C48.6817 14.0239 48.6134 13.8141 48.4834 13.6842C48.3535 13.5544 48.1752 13.4894 48.0019 13.4311C47.9985 13.4311 47.9952 13.4295 47.9919 13.4278Z" fill="#8C422A"/>
<path d="M53.1908 14.5518C52.7243 14.4036 52.476 14.3837 52.0027 14.3837H51.9927C51.8078 14.387 51.6178 14.392 51.4545 14.4702C51.2912 14.5518 51.1596 14.7283 51.1913 14.9081C51.2196 15.0663 51.3629 15.1829 51.5178 15.2278C51.6711 15.2761 51.8328 15.2645 51.9927 15.2595C52.5976 15.2362 52.9459 15.2861 53.5074 15.5026C53.5341 15.436 53.5607 15.371 53.5841 15.3078C53.6507 15.1396 53.7107 14.9781 53.769 14.8282C53.5924 14.71 53.3941 14.6201 53.1908 14.5535V14.5518Z" fill="#8C422A"/>
<path d="M49.6992 16.6562C49.6959 16.4864 49.4326 16.4864 49.436 16.6562C49.446 17.229 49.4393 17.8001 49.406 18.3712C49.381 18.8058 49.3527 19.2437 48.8628 19.3969C48.5395 19.4984 48.1862 19.4085 47.868 19.3402C47.703 19.3053 47.6314 19.5584 47.798 19.595C48.3662 19.7165 49.1177 19.8298 49.496 19.2603C49.6676 19.0023 49.6526 18.6676 49.6692 18.3712C49.7026 17.8001 49.7092 17.2273 49.6992 16.6562Z" fill="#69311F"/>
<path d="M48.5081 20.0562C47.7016 20.3259 46.182 20.2093 45.7404 19.3402C45.6637 19.1887 45.4354 19.3219 45.5121 19.4734C46.007 20.4491 47.6616 20.6173 48.5764 20.3109C48.7364 20.2576 48.6681 20.0029 48.5064 20.0562H48.5081Z" fill="#69311F"/>
<path d="M54.44 12.8135C53.2419 11.8195 52.0988 10.972 50.6041 10.6557C49.836 10.4942 48.8929 10.3826 48.1097 10.3426C47.3698 10.3077 46.6767 10.276 45.9518 10.4575C44.8037 10.7423 44.4671 12.4489 43.6623 13.0666C43.5807 12.5971 42.9608 12.2774 42.4792 12.5788C41.7211 13.0533 41.5794 14.2621 41.5428 15.1429C41.5428 15.1429 41.5428 15.1446 41.5428 15.1479C41.5395 15.2528 41.5378 15.3543 41.5345 15.4493C41.5345 15.4626 41.5395 15.4759 41.5428 15.4892C41.5078 15.5891 41.4745 15.684 41.4345 15.7773C41.3745 15.9221 41.3028 16.0537 41.2179 16.1669C41.3078 15.8905 41.1495 15.1595 41.2179 14.9431C41.4945 11.4932 44.2155 4.8431 49.4611 6.3183C54.3683 7.7036 55.2465 11.2717 54.44 12.8152V12.8135Z" fill="#8C422A"/>
<path d="M42.8893 13.804C42.5177 14.067 42.3011 14.4833 42.3211 14.9412C42.3278 15.111 42.5927 15.111 42.5844 14.9412C42.5694 14.5799 42.7243 14.2419 43.0209 14.0321C43.1592 13.9355 43.0276 13.7057 42.8876 13.804H42.8893Z" fill="#EE794A"/>
<path d="M51.1577 48.9576C51.1577 48.9576 50.4445 54.8001 49.3231 57.8405C48.2017 60.8841 47.6784 72.774 47.5152 73.4333C47.3519 74.0927 41.2798 74.2425 37.4523 73.9695C33.6248 73.6981 25.7715 72.8989 24.2535 72.9671C22.7355 73.0387 23.1321 71.9431 23.1971 71.4686C23.2637 70.9941 25.0367 49.3922 25.8948 46.565C26.753 43.7394 25.7832 32.7487 26.3781 30.1779C26.9713 27.6054 38.2055 23.9524 38.2055 23.9524C38.2055 23.9524 40.515 28.5845 42.8195 28.5395C45.1273 28.4979 46.2404 24.7732 46.2404 24.7732C46.2404 24.7732 46.3454 24.8332 46.5337 24.9414C46.6053 24.983 46.6887 25.033 46.782 25.0896C48.1367 25.8888 51.6759 28.0333 53.2589 29.5319C55.2418 31.4067 54.502 31.783 54.7003 34.3654C54.8985 36.9495 51.156 48.9576 51.156 48.9576H51.1577Z" fill="#D9A480"/>
<path d="M41.9764 55.789C41.9764 55.789 40.8416 55.774 39.3886 56.1254C37.9356 56.4767 37.2991 56.6082 37.2991 56.6082C37.2991 56.6082 37.0574 57.9702 37.1224 58.1467C37.1891 58.3232 39.9501 58.5346 39.9501 58.5346C39.9501 58.5346 40.5334 58.3948 40.6433 58.3282C40.7533 58.2616 41.9764 55.7874 41.9764 55.7874V55.789Z" fill="#EB8B6C"/>
<path d="M41.7115 59.0177C41.7115 59.0177 38.3889 59.7137 34.6381 60.4446C34.0999 60.5495 33.5533 60.6561 33.0034 60.761C29.2876 61.4686 25.5601 62.1163 24.5086 62.093C22.2258 62.0431 21.2993 61.0723 21.2993 61.0723L24.4986 53.8712L34.5398 56.0174L36.1494 56.3637L37.3008 56.6084L41.7115 59.0161V59.0177Z" fill="#EB8B6C"/>
<path d="M46.0676 9.62479C45.731 8.93547 45.2028 9.02705 44.553 8.96378C44.1447 8.92382 44.1347 8.61079 43.8214 8.41599C43.4765 8.2012 43.0533 8.24449 42.67 8.28778C42.5034 8.30609 42.5017 8.57083 42.67 8.55085C43.1833 8.49424 43.5882 8.61579 43.9564 8.97876C44.0464 9.06701 44.0564 9.1719 44.188 9.22851C44.2764 9.26514 44.3647 9.24183 44.4546 9.24183C45.0145 9.24183 45.5411 9.15026 45.8393 9.75799C45.9143 9.91117 46.1409 9.7763 46.0676 9.62479Z" fill="#662914"/>
<path d="M47.1484 9.30039C46.9818 8.79755 46.5936 8.41626 46.087 8.25975C45.9237 8.2098 45.8554 8.46455 46.017 8.5145C46.4319 8.64104 46.7585 8.95739 46.8952 9.37032C46.9485 9.53016 47.2034 9.46189 47.1501 9.30039H47.1484Z" fill="#662914"/>
<path d="M53.965 9.13196C53.77 8.56752 53.1601 8.30778 53.0185 7.74833C52.8985 7.26881 52.8835 6.82259 52.5286 6.4413C52.1837 6.07166 51.6988 5.88019 51.2372 5.69703C51.0789 5.63376 51.0106 5.89018 51.1672 5.95178C51.7421 6.17989 52.397 6.44796 52.6186 7.09065C52.7269 7.40534 52.6736 7.75 52.8169 8.05636C52.9519 8.34441 53.1968 8.48427 53.4084 8.71071C53.825 9.1586 53.8783 9.75967 53.6517 10.3041C53.5867 10.4606 53.8417 10.5289 53.9067 10.3741C54.0749 9.96947 54.1083 9.54822 53.965 9.1303V9.13196Z" fill="#662914"/>
<path d="M53.8837 44.5722C53.7521 43.8196 53.5155 43.1753 52.9156 42.6624C52.7989 42.5625 52.669 42.4909 52.5473 42.3977C52.3074 42.2129 52.2124 42.0331 52.0524 41.7883C51.8858 41.5319 51.7159 41.412 51.4509 41.2555C51.0493 41.0191 50.6311 40.7127 50.1978 40.5395C49.7513 40.3597 49.2131 40.398 48.7398 40.3248C48.2583 40.2498 47.9033 40.2515 47.4418 40.4263C46.8452 40.6528 46.2804 40.8209 45.6655 40.9858C45.0123 41.1606 44.4058 41.4603 44.0908 42.0431C43.5193 42.1146 42.9361 42.3694 42.4979 42.724C42.2712 42.9072 42.2979 43.067 42.1529 43.2652C42.0013 43.4733 41.723 43.5366 41.5164 43.7081C40.6349 44.4423 40.5533 45.8027 40.7032 47.0248C40.6416 47.8739 40.6749 48.8113 40.9782 49.6189C41.2081 50.2333 41.7997 50.2982 42.1113 50.8227C42.4495 51.3921 42.6878 51.85 43.246 52.2563C43.9242 52.7491 44.739 53.0072 45.5289 53.2586C45.5938 53.2802 45.6455 53.2553 45.6772 53.2136C47.5501 53.3119 49.5147 52.9106 50.976 51.6835C52.364 50.518 54.0903 48.8729 54.3786 46.9898C54.5219 46.0507 54.037 45.4463 53.8837 44.5739V44.5722Z" fill="#4D2E18"/>
<path d="M50.1177 54.4122V54.8534L50.1077 56.5317V56.575L50.1011 58.2201L50.4027 60.0016L48.2398 61.327L44.8389 59.5904L43.9624 58.6447C44.1574 56.8448 44.329 55.0416 44.5139 53.24C44.6006 52.3992 44.459 51.6233 44.279 50.8024C44.2073 50.4628 44.1507 50.2363 44.1507 50.2363C44.1507 50.2363 44.364 50.0915 44.6206 49.9449C44.6323 49.9399 44.6473 49.9316 44.6589 49.925C45.0105 49.7318 45.4238 49.542 45.4721 49.7135C45.4804 49.7351 45.4937 49.7684 45.5121 49.8084C45.6237 50.0382 45.9353 50.5577 46.2869 51.0971C46.7735 51.8397 47.335 52.6289 47.5616 52.7738C47.9815 53.0469 50.1161 54.4155 50.1161 54.4155L50.1177 54.4122Z" fill="#FFA480"/>
<path d="M47.563 52.7706C47.3364 52.6257 46.7749 51.8381 46.2883 51.0939C46.0234 50.959 45.7568 50.8275 45.4885 50.6993C45.4535 50.6826 45.4185 50.681 45.3902 50.6959C45.3885 50.6826 45.3868 50.671 45.3852 50.661C45.3585 50.4911 45.0919 50.5195 45.1186 50.6893C45.3768 52.2877 45.9884 54.0726 47.2164 55.1931C47.9946 55.9008 49.0444 56.5884 50.1075 56.5302L50.1158 54.8518V54.4106C50.1158 54.4106 47.9829 53.0419 47.563 52.7689V52.7706Z" fill="#BF5A39"/>
<path d="M53.7414 52.2178C53.2482 53.7247 52.3317 54.6105 51.187 54.8869C50.2872 55.1116 49.249 54.9585 48.1676 54.4306C47.0645 53.8945 46.0481 53.1786 45.1766 52.3311C45.1283 52.2828 45.0683 52.2195 45.0083 52.1596C44.8783 52.028 44.75 51.8882 44.75 51.8882C44.75 51.8882 44.5117 51.6934 44.1935 51.3653C43.6736 50.8242 42.9371 49.9168 42.6938 48.9128C42.0873 46.3886 42.4005 43.4715 45.08 42.3293C49.0474 40.6393 51.3919 42.8222 52.2301 43.8694C52.2834 43.9327 52.33 43.9927 52.37 44.0493C52.4567 44.1625 52.5183 44.2524 52.555 44.3123C52.5767 44.349 52.5917 44.3723 52.5917 44.3723C52.6266 44.4256 52.66 44.5038 52.705 44.612C52.8316 44.8152 52.9932 45.2497 53.1565 45.7626C53.1849 45.8575 53.2149 45.9524 53.2465 46.0506C53.2498 46.0556 53.2498 46.0606 53.2515 46.0673C53.2798 46.1622 53.3115 46.2571 53.3365 46.357L53.3582 46.4336C53.3848 46.5235 53.4115 46.6151 53.4381 46.7083C53.5881 47.2411 53.7181 47.7706 53.7997 48.1619C54.0847 49.4989 54.1746 50.9158 53.7447 52.2178H53.7414Z" fill="#FFA480"/>
<path d="M49.0593 48.4248C49.026 48.3965 48.986 48.3765 48.9427 48.3715C48.5661 48.3199 48.4761 48.9526 48.4878 49.209C48.4961 49.3655 48.5561 49.547 48.7077 49.592C48.8027 49.6203 48.9094 49.5836 48.9827 49.5154C49.056 49.4488 49.101 49.3555 49.1326 49.2623C49.1893 49.0941 49.211 48.9126 49.1943 48.7361C49.186 48.6562 49.171 48.5763 49.131 48.508C49.1126 48.4764 49.0893 48.4481 49.061 48.4248H49.0593Z" fill="#2E1607"/>
<path d="M53.0389 47.6372C53.0106 47.6072 52.9739 47.5839 52.9339 47.5739C52.584 47.4823 52.4274 48.0717 52.4107 48.3165C52.4007 48.4664 52.4374 48.6428 52.5757 48.7028C52.6623 48.7411 52.7673 48.7178 52.844 48.6612C52.9206 48.6062 52.9739 48.523 53.0139 48.438C53.0872 48.2849 53.1272 48.1167 53.1306 47.9469C53.1322 47.8703 53.1256 47.7937 53.0956 47.7238C53.0822 47.6921 53.0623 47.6621 53.0389 47.6372Z" fill="#2E1607"/>
<path d="M52.5469 50.2864C52.4936 50.0582 52.3336 49.9017 52.1903 49.7236C51.997 49.4822 51.8137 49.2307 51.6071 48.9976C51.4938 48.8711 51.3072 49.0576 51.4205 49.1841C51.6454 49.4389 51.867 49.7153 52.0603 49.9933C52.4336 50.5278 52.2436 50.8658 51.8237 51.2521C51.6987 51.367 51.8854 51.5534 52.0103 51.4386C52.3319 51.1422 52.6569 50.7559 52.5452 50.2864H52.5469Z" fill="#BF5A39"/>
<path d="M52.6333 51.6981C52.6333 51.6981 52.5666 52.5772 51.6118 52.7737C50.6537 52.9719 49.9722 52.191 49.9722 52.191C49.9722 52.191 50.2788 52.1943 50.642 52.181C51.0069 52.166 51.4285 52.136 51.6635 52.0694C51.9251 51.9962 52.1934 51.8896 52.3816 51.8113C52.5316 51.7447 52.6316 51.6981 52.6316 51.6981H52.6333Z" fill="white"/>
<path d="M52.6336 51.6981C52.6336 51.6981 52.577 52.6089 51.6222 52.807C50.664 53.0052 49.9292 52.1926 49.9292 52.1926C49.9292 52.1926 50.2791 52.1943 50.644 52.181C50.6924 52.2609 50.7174 52.3308 50.8523 52.3974C51.0923 52.5106 51.6188 52.464 52.0304 52.2676C52.307 52.136 52.377 51.9512 52.3837 51.8113C52.5336 51.7447 52.6336 51.6981 52.6336 51.6981Z" fill="#994000"/>
<path d="M49.2827 47.0912C49.2344 47.0529 49.1727 47.033 49.1127 47.018C48.7728 46.9347 48.4112 46.9813 48.0863 47.1096C47.683 47.2677 47.1015 47.5957 47.0398 48.0719C47.0332 48.1202 47.0348 48.1752 47.0648 48.2118C47.1048 48.2601 47.1781 48.2601 47.2398 48.2501C47.4197 48.2201 47.583 48.1335 47.748 48.0586C48.023 47.9321 48.3112 47.8305 48.6062 47.7589C48.8328 47.7023 49.0761 47.6573 49.2443 47.4958C49.3327 47.4126 49.4043 47.2644 49.3343 47.1478C49.321 47.1245 49.3027 47.1062 49.2827 47.0912Z" fill="#4D2E18"/>
<path d="M53.4351 46.7082C53.3617 46.7165 53.2851 46.7182 53.2101 46.7249C52.9068 46.7482 52.6052 46.7981 52.312 46.878C52.087 46.938 51.8521 47.0146 51.6255 46.958C51.5088 46.9263 51.3755 46.8348 51.3805 46.6966C51.3805 46.6699 51.3855 46.6433 51.3972 46.62C51.4205 46.565 51.4655 46.5167 51.5105 46.4751C51.7688 46.237 52.1104 46.1038 52.4553 46.0589C52.6852 46.0272 52.9802 46.0139 53.2501 46.0688C53.2784 46.1638 53.3101 46.2587 53.3351 46.3586L53.3567 46.4351C53.3834 46.5251 53.4101 46.6166 53.4367 46.7099L53.4351 46.7082Z" fill="#4D2E18"/>
<path d="M52.2286 43.8711C51.6487 42.6872 48.9676 40.4678 45.0002 42.1594C42.3207 43.3016 41.8225 46.4335 42.4307 48.9577C42.674 49.9634 43.6721 50.8275 44.192 51.3686C44.327 51.1522 44.6269 51.0922 44.8069 50.9274C44.9335 50.8092 45.0152 50.6427 45.1051 50.4945C45.3867 50.0216 45.5667 49.6603 45.58 49.1125C45.5834 49.001 45.5434 48.8245 45.6034 48.7229C45.63 48.678 45.7383 48.6746 45.78 48.633C45.925 48.4931 46.0333 48.3982 46.1199 48.2134C46.1916 48.0636 46.2249 47.9021 46.2416 47.7406C46.5398 47.6323 46.8198 47.4841 47.033 47.2427C47.3913 46.8331 47.218 46.1904 47.6246 45.8791C47.9862 45.6027 48.3328 45.4628 48.4977 44.9949C48.646 44.5787 48.571 44.1191 48.5111 43.6796C49.7591 43.3915 51.0855 43.3133 52.2269 43.8727L52.2286 43.8711Z" fill="#4D2E18"/>
<path d="M42.6926 43.3831C42.6559 43.2333 42.4476 43.2682 42.4243 43.3948C42.4026 43.3914 42.3826 43.3948 42.3626 43.3998C42.2293 42.5639 41.0846 42.0012 40.2831 42.1077C39.7165 42.1826 39.1383 42.807 38.7784 43.2066C38.4435 43.5796 38.5235 44.2256 38.7684 44.6385C38.9467 44.9399 39.2466 45.0581 39.3683 45.4161C39.4683 45.7108 39.4649 45.9273 39.6766 46.1853C40.0265 46.6116 40.5614 46.7648 41.0896 46.6382C41.6928 46.495 42.3826 46.0422 42.7326 45.5277C43.1875 44.86 42.8675 44.0924 42.6926 43.3815V43.3831Z" fill="#4D2E18"/>
<path d="M53.0869 39.8617C52.9069 39.5453 52.552 39.3305 52.1787 39.2589C52.0988 39.0142 51.9505 38.806 51.6772 38.6945C51.2456 38.518 50.3391 38.5863 49.9659 38.9026C49.7809 39.0591 49.7909 39.2706 49.651 39.4354C49.4977 39.6169 49.1794 39.6352 49.0694 39.8583C48.8828 40.2379 49.2111 40.839 49.4843 41.237C49.3144 41.7814 49.4727 42.2226 50.1525 42.4674C50.9907 42.7688 51.9971 42.6322 52.6403 41.9895C53.1602 41.4701 53.4785 40.5493 53.0869 39.8633V39.8617Z" fill="#4D2E18"/>
<path d="M48.5012 43.25C48.1913 42.6772 47.748 42.4574 47.1265 42.3625C46.355 42.2443 45.7868 41.6699 45.0153 42.0478C44.862 42.1227 44.997 42.3492 45.1486 42.2759C45.7718 41.9712 46.2184 42.4657 46.7583 42.5973C47.0215 42.6605 47.2881 42.6172 47.5464 42.7155C47.8847 42.8437 48.1046 43.0668 48.2746 43.3815C48.3546 43.5313 48.5829 43.3981 48.5029 43.2483L48.5012 43.25Z" fill="#2E1607"/>
<path d="M42.3562 44.4338C42.6578 44.1008 42.6144 43.6546 42.4645 43.2617C42.4045 43.1051 42.1495 43.1734 42.2095 43.3316C42.3445 43.6862 42.3495 43.7978 42.1245 44.1225C42.0929 44.279 42.0162 44.3789 41.8929 44.4238C41.8546 44.4422 41.8179 44.4621 41.7796 44.4805C41.7313 44.5704 41.7146 44.5587 41.708 44.6803C41.6963 44.8717 41.8679 45.0665 41.8663 45.2813C41.8629 45.9174 41.2347 46.2204 40.6798 46.0089C40.5216 45.949 40.4516 46.2037 40.6099 46.2637C41.3597 46.5501 42.1929 46.0489 42.1512 45.2047C42.1462 45.0982 41.9762 44.7735 41.9979 44.7002C42.0229 44.6203 42.2878 44.5088 42.3545 44.4338H42.3562Z" fill="#2E1607"/>
<path d="M41.0047 44.4489C40.8764 44.9168 40.3781 45.0433 39.9532 45.0883C39.7866 45.1066 39.7849 45.3697 39.9532 45.3513C40.4998 45.2931 41.098 45.1099 41.2596 44.5172C41.3046 44.354 41.0497 44.2841 41.0047 44.4472V44.4489Z" fill="#2E1607"/>
<path d="M51.7986 41.7981C51.187 40.9139 50.1973 40.5826 49.1758 40.4144C49.0092 40.3878 48.9375 40.6409 49.1058 40.6692C50.0506 40.8257 50.9988 41.1071 51.5703 41.9329C51.6669 42.0711 51.8952 41.9396 51.7986 41.7997V41.7981Z" fill="#2E1607"/>
<path d="M51.9826 39.6086C52.0142 40.1681 51.7343 40.6409 51.3927 41.0622C51.286 41.1937 51.4727 41.3802 51.5793 41.2487C51.9626 40.7741 52.2808 40.2397 52.2458 39.6086C52.2358 39.4405 51.9726 39.4388 51.9826 39.6086Z" fill="#2E1607"/>
<path d="M52.5119 40.5527C52.4236 40.6642 52.3219 40.7575 52.202 40.8324C52.0586 40.9223 52.1903 41.1504 52.3353 41.0605C52.4752 40.9739 52.5969 40.8674 52.6985 40.7392C52.8035 40.6076 52.6185 40.4195 52.5119 40.5527Z" fill="#2E1607"/>
<path d="M51.5222 42.7722C50.6207 42.3509 49.6259 42.3809 48.7561 42.8671C48.6078 42.9503 48.7411 43.1784 48.8894 43.0952C49.6726 42.6573 50.5757 42.619 51.3888 43.0003C51.5421 43.0719 51.6755 42.8438 51.5222 42.7722Z" fill="#2E1607"/>
<path d="M46.9353 43.8759C46.5404 44.1756 46.2188 44.5319 46.0088 44.9848C45.7339 45.5759 45.8372 46.2469 45.3223 46.7098C44.4891 47.4574 44.0259 48.3748 44.1342 49.5153C44.1509 49.6835 44.4142 49.6852 44.3975 49.5153C44.3425 48.9326 44.4275 48.3581 44.7041 47.8387C44.9774 47.3242 45.4256 47.0711 45.7705 46.6348C45.9688 46.3834 45.9905 46.1237 46.0421 45.819C46.1604 45.1163 46.4987 44.5403 47.0703 44.1057C47.2036 44.0041 47.0719 43.7743 46.9369 43.8776L46.9353 43.8759Z" fill="#2E1607"/>
<path d="M44.2087 50.3297C43.8905 49.8768 43.8005 49.344 43.9605 48.8129C44.0088 48.6497 43.7539 48.5798 43.7055 48.743C43.5272 49.3357 43.6255 49.9568 43.9805 50.4629C44.0771 50.6011 44.3071 50.4696 44.2087 50.3297Z" fill="#2E1607"/>
<path d="M44.3188 55.1831C44.3188 55.1831 44.6371 56.5001 46.485 57.1278C48.333 57.7556 50.1409 56.1555 50.1409 56.1555C50.1409 56.1555 53.4368 56.8548 55.1965 58.002C56.9561 59.1492 55.2598 63.9194 55.8763 65.7659C56.4929 67.6124 56.4812 73.4583 55.953 74.9319C55.4248 76.4037 54.0284 75.8543 54.0284 75.8543C54.0284 75.8543 42.7458 76.4037 41.3078 75.766C38.6017 75.503 40.2147 71.5602 39.9514 70.3298C39.6882 69.0993 39.4915 61.392 39.0067 60.1165C38.5234 58.8411 44.3188 55.1831 44.3188 55.1831Z" fill="#FFE7D6"/>
<path d="M37.8724 57.504C38.0507 57.8004 38.429 57.8753 38.7306 57.9769C39.4871 58.2316 40.1336 58.603 40.7651 59.0875C41.335 59.5237 42.4348 60.7691 43.2963 60.3812C43.3496 60.3579 43.3912 60.3279 43.4279 60.2946C43.7062 60.5477 43.9944 60.7891 44.3094 61.0039C44.671 61.2503 45.1392 61.4268 45.4191 60.9806C45.4741 60.8923 45.5058 60.7958 45.5191 60.6975C45.5391 60.7059 45.5591 60.7175 45.5791 60.7242C46.1373 60.9007 46.2056 60.3679 46.1056 59.9683C45.8707 59.0309 44.8459 58.0818 44.8459 58.0818C44.8459 58.0818 45.6091 58.7761 46.1023 58.7528C46.7138 58.7228 45.7724 57.2593 45.6141 57.0611C45.1192 56.4401 44.4627 55.7857 43.7578 55.486C42.2015 54.8234 38.9805 56.227 38.9805 56.227C38.9805 56.227 37.4692 56.8364 37.8741 57.5057L37.8724 57.504Z" fill="#EB8B6C"/>
<path d="M41.9013 58.0751C42.5945 58.5896 43.166 59.2223 43.6009 59.9699C43.6859 60.1164 43.4576 60.2496 43.3726 60.1031C42.9627 59.3971 42.4245 58.7894 41.768 58.3032C41.633 58.2033 41.7647 57.9735 41.9013 58.0751Z" fill="#69311F"/>
<path d="M42.2613 57.0729C42.8695 57.4925 43.536 57.8954 44.0542 58.4266C44.5808 58.966 44.9824 59.647 45.4173 60.2597C45.5156 60.3979 45.2873 60.5295 45.189 60.3929C44.7691 59.8019 44.3742 59.1359 43.8676 58.613C43.3661 58.0969 42.7162 57.7073 42.128 57.301C41.9897 57.2044 42.1213 56.9763 42.2613 57.0729Z" fill="#69311F"/>
<path d="M43.3912 56.6733C44.0061 56.9746 44.5277 57.4042 44.9409 57.9487C45.0442 58.0835 44.8293 58.2384 44.7276 58.1035C44.341 57.5923 43.8578 57.1944 43.2829 56.913C43.1313 56.8381 43.2396 56.5983 43.3929 56.6733H43.3912Z" fill="#69311F"/>
<path d="M21.9372 46.7466C21.9372 46.7466 20.3976 57.3094 20.2659 59.1077C20.1343 60.9075 22.1438 61.6551 23.4269 61.8749C24.71 62.0947 25.4015 61.6068 25.8847 61.2555C26.3679 60.9042 29.5722 45.8125 29.5722 45.8125L21.9372 46.7449V46.7466Z" fill="#EB8B6C"/>
<path d="M27.2043 29.0223C27.2043 29.0223 24.7532 30.4626 23.1685 34.3654C21.5855 38.2682 19.0328 46.5583 19.2094 46.5666C19.386 46.5766 24.165 48.6679 28.2991 48.3665C32.4332 48.0651 33.8579 46.4001 34.2978 43.7194C34.7377 41.0371 27.2027 29.0223 27.2027 29.0223H27.2043Z" fill="#D9A480"/>
<path d="M36.4759 58.5365C37.0241 57.6907 37.6373 56.8781 38.5271 56.3703C38.6754 56.2854 38.8087 56.5135 38.6604 56.5984C37.8089 57.0846 37.2274 57.8622 36.7042 58.6697C36.6125 58.8112 36.3842 58.6797 36.4759 58.5365Z" fill="#69311F"/>
<path d="M26.6396 54.7502C24.6151 55.2864 23.0521 56.9481 22.6521 59.0027C22.6205 59.1692 22.8738 59.2391 22.9071 59.0726C23.2903 57.1029 24.7684 55.5178 26.7096 55.0033C26.8729 54.96 26.8046 54.7053 26.6396 54.7486V54.7502Z" fill="#69311F"/>
<path d="M26.8866 62.3243C27.2782 63.0702 28.1647 64.2674 29.1462 64.1259C29.7527 64.0376 30.2043 62.9071 30.2043 62.9071C30.1359 62.2744 29.8227 61.3636 29.3244 60.9557C28.9645 60.6593 28.6079 60.3679 28.4146 59.9284C28.203 59.4488 28.303 59.0109 28.318 58.5114C28.3247 58.2917 28.3047 57.7072 27.9248 57.8471C27.9248 57.4025 27.8664 56.7698 27.4015 56.9447C27.3115 56.978 27.2366 57.0445 27.1716 57.1228C26.99 57.0396 26.7833 57.0629 26.605 57.2111C26.2601 57.4974 26.0901 58.295 26.0768 58.6913C26.0285 60.0849 26.2235 61.0672 26.885 62.3227L26.8866 62.3243Z" fill="#FFA480"/>
<path d="M27.8328 58.2151C27.8628 58.0486 27.6095 57.9786 27.5779 58.1451C27.4629 58.7695 27.4562 59.3872 27.5546 60.0133C27.5812 60.1798 27.8362 60.1098 27.8095 59.9433C27.7179 59.3656 27.7262 58.7895 27.8328 58.2151Z" fill="#BF5A39"/>
<path d="M26.9297 57.4876C26.6381 58.3101 26.5665 59.1493 26.6998 60.0101C26.7248 60.1766 26.9797 60.1066 26.9547 59.9401C26.8297 59.1276 26.9114 58.3317 27.1847 57.5575C27.2413 57.3977 26.9864 57.3277 26.9297 57.4876Z" fill="#BF5A39"/>
<path d="M35.9026 69.3924C35.5394 67.481 29.8639 62.2828 29.8639 62.2828L28.2576 61.9897L28.0493 63.5748C28.0493 63.5748 30.5821 68.5532 31.3469 69.6172C31.9035 70.3914 32.62 71.8733 33.7164 71.9216C34.9112 71.9748 36.1192 70.5496 35.9009 69.3924H35.9026Z" fill="#FFA480"/>
<path d="M35.4496 70.9741L39.7153 66.9547L36.8393 63.1135L33.2417 66.8199L35.4496 70.9741Z" fill="#FFA480"/>
<path d="M39.9519 58.5365C39.9519 58.5365 38.7855 59.0177 38.059 60.1665C37.3325 61.3154 35.3529 62.8306 35.4529 63.2601C35.5512 63.6881 38.6538 68.1403 40.2702 68.5016C41.8865 68.8646 44.1943 66.1939 43.9644 65.468C43.7344 64.742 39.9519 58.5365 39.9519 58.5365Z" fill="#FFE7D6"/>
<path d="M35.2876 67.804C34.9544 67.2878 34.5578 66.8233 34.0962 66.417C33.9696 66.3055 33.7813 66.4903 33.9096 66.6035C34.3528 66.9964 34.7378 67.4393 35.0594 67.9372C35.151 68.0787 35.3793 67.9472 35.2876 67.804Z" fill="#BF5A39"/>
<path d="M55.1968 58.0018C55.1968 58.0018 56.3499 58.866 57.273 60.1064C58.1961 61.3469 59.5958 64.86 59.7275 65.1414C59.8591 65.4245 58.866 67.0945 55.69 67.6223C52.5124 68.1501 52.614 68.7762 52.634 67.8537C52.654 66.9313 55.1968 58.0018 55.1968 58.0018Z" fill="#FFE7D6"/>
<path d="M60.8805 72.2495C62.3335 70.6727 63.5783 60.7176 63.5783 60.7176L62.8101 59.1608L61.2804 60.0366C61.2804 60.0366 58.866 65.8359 58.4177 67.1912C58.0928 68.1769 56.5398 70.4963 57.198 71.4603C57.9162 72.5093 59.3409 73.9212 60.8805 72.2512V72.2495Z" fill="#FFA480"/>
<path d="M58.4763 66.85C58.0848 67.6775 57.7432 68.525 57.4516 69.3925C57.3966 69.554 57.6515 69.6223 57.7065 69.4624C57.9914 68.6166 58.323 67.7907 58.7046 66.9832C58.7763 66.83 58.5497 66.6968 58.4763 66.85Z" fill="#BF5A39"/>
<path d="M60.577 57.729C60.6953 58.1685 60.7786 58.6181 60.8269 59.071C60.8852 59.6088 60.8469 59.9751 61.1652 60.4313C61.1968 60.4779 61.2418 60.4912 61.2852 60.4879C61.4285 61.347 62.19 62.5742 63.0964 61.8682C63.6896 61.407 64.1729 60.6594 64.5961 60.0483C64.8677 59.6554 66.6207 57.5375 66.4007 57.0396C66.3741 56.9797 66.3241 56.9447 66.2574 56.9447C66.1141 56.9464 65.9925 56.9947 65.8825 57.0663C65.9358 56.9764 65.9841 56.8865 66.0391 56.7982C66.1891 56.5601 66.3324 56.2721 66.2491 55.984C66.1758 55.7293 65.9975 55.6843 65.8092 55.7409C65.8608 55.5844 65.8558 55.4029 65.6842 55.3164C65.4059 55.1748 65.0327 55.5162 64.8377 55.6727C64.6511 55.8225 64.4711 55.9824 64.2945 56.1472C64.3312 56.0823 64.3645 56.0157 64.4045 55.9507C64.4928 55.8075 64.6228 55.6594 64.6744 55.4978C64.7477 55.2631 64.6428 54.9734 64.3545 54.9884C64.0262 55.005 63.708 55.4113 63.5263 55.6444C63.2931 55.9474 61.7917 57.9071 61.5818 58.2268C61.4018 57.8688 60.7319 56.1672 60.442 56.8548C60.3304 57.1212 60.502 57.4609 60.5753 57.729H60.577Z" fill="#FFA480"/>
<path d="M61.79 58.3449C61.6517 58.2467 61.5201 58.4748 61.6567 58.573C62.1483 58.9243 62.4116 59.4255 62.5115 60.0099C62.5399 60.1764 62.7948 60.1065 62.7665 59.94C62.6532 59.2806 62.3382 58.7362 61.79 58.3449Z" fill="#BF5A39"/>
<path d="M63.9063 56.2639C63.6097 56.6834 63.3131 57.1047 63.0148 57.5243C62.9165 57.6625 63.1448 57.7957 63.2431 57.6575C63.5397 57.2379 63.8363 56.8166 64.1345 56.3971C64.2329 56.2589 64.0046 56.1257 63.9063 56.2639Z" fill="#BF5A39"/>
<path d="M65.3996 55.9808C65.2563 56.3121 64.9613 56.6001 64.7397 56.8849C64.5181 57.1729 64.2981 57.4626 64.0815 57.7557C63.9799 57.8922 64.2098 58.0237 64.3098 57.8889C64.5564 57.5559 64.8064 57.2262 65.0596 56.8998C65.2529 56.6518 65.5012 56.4053 65.6262 56.1156C65.6928 55.9608 65.4662 55.8276 65.3979 55.9824L65.3996 55.9808Z" fill="#BF5A39"/>
<path d="M65.4373 57.3294C65.179 57.7107 64.899 58.0736 64.5941 58.42C64.4825 58.5465 64.6674 58.7346 64.7807 58.6064C65.1007 58.2451 65.3956 57.8622 65.6655 57.4626C65.7605 57.321 65.5322 57.1895 65.4373 57.3294Z" fill="#BF5A39"/>
<path d="M40.8868 62.3545C40.7868 61.9715 40.4752 61.6935 40.0869 61.6252C39.6954 61.557 39.2171 61.6369 38.9389 61.9399C38.6922 62.2063 38.6506 62.6142 38.8922 62.899C38.9938 63.0188 39.1222 63.0971 39.2605 63.1387C39.3404 63.2886 39.4637 63.4085 39.652 63.4601C39.8037 63.5017 39.9703 63.49 40.1069 63.4051C40.1736 63.3635 40.2153 63.3002 40.2719 63.2486C40.3702 63.1604 40.4119 63.1753 40.5335 63.1537C40.9068 63.0854 40.9701 62.6792 40.8851 62.3545H40.8868Z" fill="white"/>
<path d="M43.3647 71.1023C43.2464 70.7477 42.9198 70.5995 42.5632 70.6395C42.2333 70.6761 41.8367 70.7577 41.6517 71.0657C41.4951 71.3254 41.5251 71.6668 41.6784 71.9215C41.8483 72.2046 42.1983 72.4077 42.5015 72.1979C42.5299 72.1779 42.5582 72.1563 42.5848 72.133C42.6482 72.1346 42.7115 72.1363 42.7731 72.138C42.9514 72.1446 43.1314 72.1496 43.2664 72.0148C43.4696 71.8083 43.448 71.3587 43.363 71.1023H43.3647Z" fill="white"/>
<path d="M47.3569 64.8519C47.2536 64.5355 46.8004 64.3507 46.4971 64.3341C46.1638 64.3157 45.8206 64.4922 45.6806 64.8019C45.574 65.0384 45.6106 65.3331 45.7723 65.5329C45.7773 65.6844 45.8323 65.8392 45.9489 65.9391C46.2322 66.1822 46.6821 65.9841 46.932 65.7826C47.1736 65.5878 47.4636 65.1832 47.3569 64.8536V64.8519Z" fill="white"/>
<path d="M50.5231 57.8289C50.2265 57.6541 49.7132 57.6791 49.4233 57.8556C49.1134 58.0454 48.9901 58.4416 49.195 58.753C49.3633 59.0077 49.8216 59.2342 50.1265 59.1759C50.1998 59.1626 50.2581 59.1326 50.3115 59.0993C50.3181 59.0993 50.3264 59.0993 50.3348 59.0977C50.5281 59.076 50.683 58.9861 50.7564 58.7996C50.8797 58.4833 50.8397 58.0171 50.5214 57.8322L50.5231 57.8289Z" fill="white"/>
<path d="M55.4085 61.3554C55.2568 61.0873 54.9319 60.8659 54.6153 60.9691C54.5336 60.9957 54.462 61.044 54.402 61.1023C54.327 61.1756 54.3337 61.1872 54.2437 61.2222C54.0854 61.2838 54.0021 61.3537 53.9471 61.5186C53.8371 61.8482 53.8238 62.2711 54.1421 62.4943C54.2354 62.5592 54.3454 62.5942 54.457 62.5942C54.502 62.6141 54.5486 62.6308 54.602 62.6408C54.9536 62.7124 55.3051 62.7607 55.4684 62.3777C55.6067 62.0514 55.5851 61.6634 55.4118 61.3554H55.4085Z" fill="white"/>
<path d="M54.3371 68.5598C54.2272 68.3916 54.0372 68.3217 53.8439 68.3117C53.7206 68.305 53.459 68.3816 53.3657 68.2884C53.2674 68.1868 53.0907 68.1868 52.9924 68.2884C52.7075 68.5831 52.5242 69.0843 52.7058 69.4822C52.8041 69.6953 53.0074 69.7536 53.219 69.7286C53.4607 69.8768 53.7523 69.9068 54.0339 69.7186C54.3738 69.4939 54.5721 68.9228 54.3355 68.5598H54.3371Z" fill="white"/>
<path d="M50.0646 73.1734C50.063 73.1018 50.0513 73.0319 50.033 72.9703C49.9513 72.7039 49.7364 72.4908 49.4598 72.4358C48.7966 72.3043 48.3933 72.9969 48.5883 73.5747C48.6999 73.9044 48.9865 74.1291 49.3415 74.1008C49.7064 74.0709 49.963 73.8111 50.1463 73.5164C50.2329 73.3766 50.1713 73.245 50.0646 73.1751V73.1734Z" fill="white"/>
<path d="M42.9611 61.2171C42.9461 61.0489 42.6828 61.0473 42.6978 61.2171C42.7978 62.336 42.7428 63.4765 42.3445 64.5388C41.9346 65.6344 41.1498 66.5018 40.3666 67.3477C40.2517 67.4725 40.4383 67.659 40.5533 67.5341C41.3148 66.7116 42.0813 65.8691 42.5162 64.8202C42.9894 63.6813 43.0694 62.4359 42.9611 61.2187V61.2171Z" fill="#E8C6AE"/>
<path d="M43.5578 61.5785C43.5478 62.0797 43.4579 62.5609 43.2879 63.0304C43.2296 63.1902 43.4845 63.2602 43.5429 63.1003C43.7211 62.6075 43.8111 62.1013 43.8228 61.5768C43.8261 61.407 43.5628 61.407 43.5595 61.5768L43.5578 61.5785Z" fill="#E8C6AE"/>
<path d="M56.095 59.9951C56.0701 59.8286 55.8151 59.8985 55.8401 60.065C56.125 61.9765 56.2333 63.9012 56.1667 65.831C56.1617 66.0008 56.425 66.0008 56.43 65.831C56.4966 63.8763 56.3833 61.9299 56.0934 59.9951H56.095Z" fill="#E8C6AE"/>
<path d="M54.8965 71.4022C54.8615 72.6509 54.4849 73.7981 53.7834 74.8304C53.6884 74.9719 53.9167 75.1035 54.0117 74.9636C54.7382 73.898 55.1248 72.6909 55.1614 71.4022C55.1664 71.2323 54.9015 71.2323 54.8982 71.4022H54.8965Z" fill="#E8C6AE"/>
<path d="M49.3893 85.0419C49.2827 88.1339 48.9311 91.2091 48.3362 94.2461C48.3046 94.4126 48.5578 94.4826 48.5912 94.3161C49.191 91.2558 49.546 88.1588 49.6543 85.0419C49.6609 84.8721 49.396 84.8721 49.391 85.0419H49.3893Z" fill="#342B82"/>
<path d="M50.5678 85.2765C50.3612 85.9392 50.1879 86.6085 50.0463 87.2879C50.0113 87.4527 50.2662 87.5243 50.3012 87.3578C50.4428 86.6785 50.6178 86.0091 50.8228 85.3465C50.8727 85.1833 50.6178 85.115 50.5678 85.2765Z" fill="#342B82"/>
<path d="M31.9886 38.27C31.9786 38.1018 31.7153 38.1002 31.7253 38.27C31.8286 40.1115 31.7887 41.958 31.5904 43.7929C31.4837 44.7802 31.3288 45.7642 31.1305 46.7383C31.0605 47.0863 31.0388 47.6607 30.8572 47.9654C30.5606 48.4616 29.7474 48.34 29.2509 48.3716C29.0826 48.3833 29.0809 48.6464 29.2509 48.6347C29.9507 48.5898 30.8289 48.7929 31.1121 48.0353C31.4787 47.053 31.5804 45.8625 31.7253 44.8268C32.0303 42.654 32.1119 40.4612 31.9903 38.2717L31.9886 38.27Z" fill="#C48860"/>
<path d="M32.5004 37.2526C32.4687 37.0861 32.2138 37.156 32.2454 37.3225C32.492 38.6229 32.4704 39.9133 32.1838 41.2054C32.1471 41.3702 32.4021 41.4418 32.4387 41.2753C32.7353 39.9399 32.7553 38.5963 32.5004 37.2526Z" fill="#C48860"/>
<path d="M46.7853 25.0913C46.5903 27.1542 45.1373 29.1372 43.0578 29.6234C41.7097 29.9381 40.6983 29.1073 39.7868 28.2098C38.7687 27.2075 37.9522 26.0287 37.3407 24.7366C37.2674 24.5834 37.5123 24.4835 37.584 24.6367C38.1039 25.729 38.7687 26.7396 39.5902 27.6271C40.4717 28.5845 41.5748 29.69 42.9895 29.362C45.0007 28.8975 46.4054 26.9428 46.537 24.9447C46.6087 24.9864 46.692 25.0363 46.7853 25.0929V25.0913Z" fill="#C48860"/>
<path d="M54.0102 31.3118C53.577 33.3365 53.0421 35.3362 52.4073 37.3076C52.3556 37.4691 52.6105 37.539 52.6622 37.3775C53.2971 35.4061 53.8319 33.4064 54.2652 31.3818C54.3002 31.2169 54.0469 31.1453 54.0102 31.3118Z" fill="#C48860"/>
<path d="M85.0788 31.9079L84.5239 33.1816L81.7446 34.805L79.0118 35.5676L78.6852 33.6495L78.0953 31.9795L77.4771 30.2312L77.3188 29.7817C77.3188 29.7817 79.0068 27.6338 79.3351 27.2092C79.645 26.8196 80.2915 24.1206 80.3682 23.4696C80.3748 23.4196 80.3765 23.383 80.3749 23.358C80.3649 23.1682 80.8514 23.2132 81.278 23.2864C81.6079 23.3447 81.9045 23.423 81.9045 23.423C81.9045 23.423 81.9295 23.6744 81.9762 24.0457C82.0345 24.5086 85.0772 31.9079 85.0772 31.9079H85.0788Z" fill="#FFA480"/>
<path d="M80.4068 30.0397C79.5137 31.1419 78.6305 31.7114 78.0973 31.9811L77.3208 29.7833C77.3208 29.7833 79.0088 27.6354 79.337 27.2108C79.647 26.8212 80.2935 24.1222 80.3701 23.4712C81.05 23.4945 81.7298 23.974 81.8615 24.4968C82.0764 25.3377 81.8248 28.2864 80.4068 30.0397Z" fill="#EE794A"/>
<path d="M81.9858 23.9624C81.9775 24.0174 81.9758 24.0474 81.9758 24.0474C81.9758 24.0474 81.8675 24.4769 81.8042 24.6884C81.4293 25.9405 80.8427 27.146 80.0862 28.2282C79.3414 29.2855 78.4449 29.9765 77.4785 30.2362C76.2571 30.5692 74.929 30.2129 73.6776 29.0524C72.5945 28.0501 71.9413 26.6681 71.5081 25.2595C71.3648 24.795 71.1249 23.8875 70.8949 22.9301C70.8582 22.777 70.8183 22.6188 70.7833 22.4639C70.7733 22.419 70.7616 22.3724 70.7516 22.3274C70.7283 22.2292 70.7049 22.1326 70.6833 22.0344C70.6733 21.9894 70.6616 21.9444 70.655 21.8995C70.6516 21.8912 70.65 21.8812 70.65 21.8729C70.6183 21.7363 70.5866 21.6031 70.56 21.4749C70.42 20.8256 70.3117 20.2545 70.27 19.8948V19.8915C70.2567 19.7683 70.2484 19.6734 70.2517 19.6068C70.2517 19.6068 70.255 19.5785 70.2567 19.5268C70.2917 18.8708 70.7583 14.3353 76.2587 13.7642C79.3781 13.4429 81.2027 16.0253 81.9475 18.7226C82.3824 20.2928 82.0508 23.413 81.9875 23.9641L81.9858 23.9624Z" fill="#FFA480"/>
<path d="M77.2438 22.9016C77.2671 22.86 77.3005 22.825 77.3421 22.8033C77.7054 22.6102 78.0353 23.2196 78.1203 23.486C78.1719 23.6492 78.1769 23.8556 78.042 23.9572C77.9553 24.0221 77.8337 24.0238 77.7337 23.9838C77.6337 23.9439 77.5537 23.8656 77.4854 23.7824C77.3638 23.6325 77.2755 23.456 77.2255 23.2695C77.2038 23.1863 77.1888 23.0981 77.2038 23.0131C77.2105 22.9748 77.2238 22.9365 77.2438 22.9032V22.9016Z" fill="#2E1607"/>
<path d="M72.4499 23.686C72.4732 23.6444 72.5065 23.6094 72.5482 23.5878C72.9114 23.3946 73.2413 24.004 73.3263 24.2704C73.378 24.4336 73.383 24.6401 73.248 24.7416C73.1614 24.8066 73.0397 24.8082 72.9397 24.7683C72.8398 24.7283 72.7598 24.65 72.6915 24.5668C72.5698 24.4169 72.4815 24.2405 72.4315 24.054C72.4099 23.9707 72.3949 23.8825 72.4099 23.7976C72.4165 23.7593 72.4299 23.721 72.4499 23.6877V23.686Z" fill="#2E1607"/>
<path d="M75.9791 26.4483C75.7692 26.5049 75.4492 26.6231 75.2309 26.5881C74.6761 26.4982 74.8694 26.0353 74.9027 25.7073C74.9593 25.1629 74.981 24.6168 74.9793 24.069C74.9793 23.8991 74.7144 23.8991 74.7161 24.069C74.7161 24.5485 74.7027 25.0263 74.6594 25.5025C74.6311 25.8139 74.4711 26.2801 74.6361 26.5765C74.8993 27.0493 75.6608 26.8062 76.0491 26.7014C76.2124 26.6564 76.1441 26.4017 75.9791 26.4466V26.4483Z" fill="#EE794A"/>
<path d="M73.3481 22.0909C73.1515 21.9044 72.7549 21.936 72.5183 21.981C72.1184 22.0559 71.7151 22.1691 71.3619 22.3756C71.1552 22.4972 70.492 22.98 70.772 23.288C70.842 23.3646 70.9619 23.363 71.0636 23.3446C71.5385 23.2614 71.9501 22.9484 72.425 22.8751C72.6449 22.8418 72.8749 22.8601 73.0865 22.7919C73.2981 22.7236 73.4964 22.5255 73.4597 22.3073C73.4431 22.2141 73.4047 22.1442 73.3481 22.0909Z" fill="#8C422A"/>
<path d="M76.1006 21.8428C76.159 22.0576 76.4222 22.1541 76.6422 22.1275C76.8638 22.1009 77.0638 21.9876 77.2771 21.926C77.7403 21.7928 78.2452 21.9044 78.7101 21.7812C78.8101 21.7545 78.92 21.7063 78.95 21.6064C79.075 21.2101 78.2718 21.0486 78.0319 21.0253C77.6236 20.9853 77.2104 21.0519 76.8172 21.1518C76.5822 21.2101 76.2106 21.3466 76.109 21.5997C76.0806 21.6713 76.074 21.7529 76.099 21.8428H76.1006Z" fill="#8C422A"/>
<path d="M74.9976 27.7338C74.9976 27.7338 75.7641 27.574 76.2406 27.484C76.7172 27.3941 77.8103 26.9263 77.8103 26.9263C77.8103 26.9263 77.6253 28.1417 76.4922 28.2699C75.3591 28.3981 74.9976 27.7338 74.9976 27.7338Z" fill="white"/>
<path d="M82.306 18.5526C81.5612 15.8537 79.2634 13.153 76.1424 13.476C70.6419 14.0488 69.8521 19.9796 69.8654 20.1028C69.8654 20.1028 70.6169 21.7345 70.6486 21.871C70.7385 21.7661 70.8169 21.6462 70.8868 21.518C71.0485 21.215 71.1318 20.882 71.2584 20.569C71.3667 20.2992 71.5067 19.9862 71.725 19.7831C72.0766 19.4584 72.4348 19.4934 72.8597 19.4168C74.2911 19.1604 74.9443 17.9982 75.4459 16.7627C76.7089 18.2313 78.2586 19.4085 80.0182 20.2293C79.9965 19.8647 80.0565 19.4801 80.3531 19.3036C80.7014 19.0954 80.9497 19.3485 81.1346 19.6366C81.7878 20.6456 81.7428 21.911 81.5162 23.1131C81.6645 23.3995 81.8495 23.904 82.0111 24.1871C82.0744 23.6359 82.7393 20.1261 82.3044 18.556L82.306 18.5526Z" fill="#8C422A"/>
<path d="M75.7755 12.9035C75.3439 13.7343 75.2706 14.7949 75.2423 15.7173C75.2373 15.8872 75.5005 15.8872 75.5055 15.7173C75.5322 14.8499 75.5955 13.8242 76.0038 13.0367C76.0821 12.8868 75.8538 12.752 75.7755 12.9035Z" fill="#662914"/>
<path d="M79.6666 18.7443C78.9168 18.6927 78.2852 18.0966 77.7287 17.6404C77.2455 17.2458 76.8055 16.8229 76.4423 16.3117C76.344 16.1752 76.1157 16.3067 76.214 16.4449C76.6722 17.0893 77.2505 17.6038 77.872 18.0883C78.4235 18.5179 78.9451 18.9574 79.6649 19.0074C79.8349 19.019 79.8332 18.756 79.6649 18.7443H79.6666Z" fill="#662914"/>
<path d="M80.2602 18.5711L79.3254 17.9617C79.1821 17.8685 79.0505 18.0966 79.1921 18.1898C79.5037 18.393 79.8153 18.5961 80.1269 18.7992C80.2702 18.8925 80.4018 18.6644 80.2602 18.5711Z" fill="#662914"/>
<path d="M70.4636 26.0286C70.3969 25.5708 70.2053 25.1445 70.107 24.695C69.9687 24.0589 70.002 23.4395 70.1703 22.8118C70.2136 22.647 69.9604 22.5771 69.9154 22.7419C69.6504 23.7326 69.7937 24.5634 70.0737 25.5325C70.2636 26.1935 70.237 26.7229 70.0203 27.369C69.8704 27.8185 69.7354 28.2315 69.7554 28.7093C69.7621 28.8791 70.027 28.8791 70.0187 28.7093C69.9787 27.7719 70.6019 26.9844 70.4636 26.0303V26.0286Z" fill="#662914"/>
<path d="M70.4768 19.9232C69.4271 20.9205 69.1071 22.3025 69.1055 23.7294C69.1055 23.8993 69.3687 23.8993 69.3687 23.7294C69.3687 23.0534 69.4987 22.3974 69.657 21.7431C69.8253 21.0454 70.1519 20.5942 70.6635 20.1097C70.7868 19.9931 70.6001 19.8066 70.4768 19.9232Z" fill="#662914"/>
<path d="M75.0791 12.9551C72.768 12.9135 70.5635 13.9624 69.1454 15.789C69.0421 15.9222 69.2287 16.1103 69.3321 15.9755C70.7101 14.1989 72.828 13.1799 75.0791 13.2198C75.2491 13.2232 75.2491 12.9584 75.0791 12.9568V12.9551Z" fill="#662914"/>
<path d="M80.6678 20.947C80.5495 20.8238 80.3628 21.0102 80.4812 21.1334C80.7778 21.4415 80.8911 21.8594 80.7911 22.2756C80.7511 22.4405 81.006 22.5104 81.046 22.3456C81.1677 21.8377 81.0294 21.3249 80.6678 20.947Z" fill="#EE794A"/>
<path d="M84.236 29.3313C84.236 29.3313 83.8211 37.6014 85.5374 41.9904C87.2536 46.3794 86.3955 47.2086 86.8571 51.476C87.3186 55.7434 89.8931 64.638 91.4111 69.5548C92.9291 74.4699 93.1274 84.8896 93.3906 85.6138C93.6539 86.3398 98.1413 83.7024 99.8576 83.7024C101.574 83.7024 105.533 81.791 105.796 81.3947C106.06 80.9984 101.706 68.0446 99.7909 64.3333C97.878 60.6236 97.1365 38.419 94.9986 35.1788C92.8608 31.9387 84.2343 29.3313 84.2343 29.3313H84.236Z" fill="#9A97B0"/>
<path d="M93.8737 68.2127L90.6644 72.5301C90.6644 72.5301 90.871 76.03 90.2861 77.6234C89.7029 79.2168 89.4996 81.0384 88.8431 79.9428C86.1187 75.3923 90.7627 64.553 90.7627 64.553L93.8737 68.2127Z" fill="#FFA480"/>
<path d="M94.9985 35.1787C94.9985 35.1787 98.0528 39.7625 98.4927 43.3889C98.9326 47.0169 100.899 53.3523 100.492 56.659C100.086 59.9674 97.8612 63.8536 97.8612 63.8536C97.0847 63.4573 89.4297 40.8364 89.4297 40.2769C89.4297 39.7175 94.9985 35.177 94.9985 35.177V35.1787Z" fill="#9A97B0"/>
<path d="M92.3618 36.3391C90.7672 40.0155 90.3139 44.1297 91.1438 48.0558C91.3704 49.1281 91.702 50.1787 91.8653 51.2643C92.0519 52.5014 91.8753 53.6819 91.7136 54.9107C91.4437 56.962 92.0352 59.2497 91.1388 61.1778C91.0671 61.331 91.2954 61.4642 91.3671 61.311C92.1952 59.5295 91.7353 57.5847 91.8903 55.6983C91.9786 54.6093 92.2352 53.5354 92.2285 52.4382C92.2235 51.4092 91.9836 50.4002 91.737 49.4078C90.6555 45.0438 90.7838 40.6382 92.5901 36.4723C92.6568 36.3175 92.4302 36.1843 92.3618 36.3391Z" fill="#7D7999"/>
<path d="M78.2803 75.0233C78.2803 75.0233 76.564 59.6319 76.404 55.3062C76.2424 50.9805 74.8493 47.4989 74.9976 43.8492C75.1459 40.1995 76.404 30.967 76.404 30.967C76.404 30.967 74.756 31.6463 73.3363 32.5104C72.6598 32.9167 68.1441 35.704 66.4212 38.7093C64.5566 41.9611 60.4825 46.8396 60.4075 47.2359C60.3508 47.5322 59.4493 47.9368 58.9878 48.3015C58.6695 48.2282 58.3396 48.2365 57.9313 48.2382C57.4798 48.2399 57.2282 47.9385 56.8099 47.807C56.4667 47.6987 56.1417 47.7087 55.7918 47.777C55.7502 47.7853 55.7068 47.8269 55.7002 47.8686C55.4852 49.0391 55.6968 50.3128 55.7585 51.4933C55.7935 52.151 55.7918 52.8236 55.8635 53.478C55.9035 53.8393 55.9951 53.9941 56.3117 54.1773C57.3198 54.7634 58.5412 55.0498 59.6926 55.128C60.7891 55.2013 62.1054 55.2829 63.1585 54.9066C64.2083 54.5319 64.8898 53.6245 66.0013 53.3415C66.5478 53.2016 67.116 53.1417 67.6476 52.9419C68.1258 52.762 68.5324 52.469 68.9506 52.1843C69.8887 51.5482 71.4284 51.2252 72.4249 50.4693C72.5698 51.8063 72.2782 57.4357 72.4082 58.5297C73.173 64.9266 72.8431 75.6527 72.8431 75.6527L78.2803 75.02V75.0233Z" fill="#9A97B0"/>
<path d="M87.9012 46.2675C88.0311 44.3844 88.5194 42.5179 88.546 40.6298C88.5694 38.9115 87.9095 37.3164 87.3496 35.7213C86.7148 33.9181 86.0799 32.1149 85.4467 30.31C85.39 30.1502 85.1351 30.2201 85.1918 30.38C85.8116 32.1432 86.4332 33.9065 87.053 35.6697C87.6496 37.3664 88.3511 39.0464 88.2761 40.8779C88.2011 42.6811 87.7645 44.461 87.6379 46.2642C87.5096 48.114 87.5479 49.9689 87.7295 51.8137C87.7462 51.9819 88.0095 51.9835 87.9928 51.8137C87.8112 49.9689 87.7729 48.114 87.9012 46.2642V46.2675Z" fill="#7D7999"/>
<path d="M75.6109 31.951C75.6725 31.7929 75.4176 31.7246 75.3559 31.8811C74.6711 33.6593 73.9879 35.4359 73.303 37.2142C72.6748 38.8459 71.975 40.5042 71.9683 42.2825C71.9617 44.0107 72.5265 45.6908 73.0048 47.3325C73.563 49.2522 74.1229 51.1736 74.6811 53.0934C74.7277 53.2566 74.9827 53.1867 74.936 53.0235C74.4128 51.2286 73.8912 49.4337 73.368 47.6388C72.8615 45.8989 72.2299 44.1156 72.2316 42.2841C72.2333 40.4926 72.9698 38.8109 73.603 37.1675L75.6092 31.9527L75.6109 31.951Z" fill="#7D7999"/>
<path d="M86.102 55.5612C85.9937 54.9668 85.8004 54.5222 85.8404 53.8812C85.8638 53.4882 85.9221 53.0953 85.8804 52.7023C85.8038 51.9847 85.4139 51.4869 84.9423 51.049C84.8656 50.7343 84.7323 50.4379 84.5024 50.1499C84.0525 49.5871 83.4593 49.0509 82.7911 48.8345C82.3878 48.703 82.1912 48.7612 81.873 48.4549C81.6947 48.2834 81.578 48.1518 81.3464 48.0553C80.7132 47.7872 79.9001 47.9787 79.2285 48.1552C78.9053 47.6906 78.4004 47.649 77.8872 47.5907C77.5222 47.5491 77.224 47.5624 76.9407 47.6307C76.8391 47.6307 76.7374 47.634 76.6408 47.649C76.3542 47.6923 76.1459 47.8272 75.9159 48.007C75.5627 48.285 75.3061 48.4615 74.8711 48.5381C74.2846 48.643 73.5164 48.643 73.0249 49.0526C72.7849 49.2541 72.6983 49.5355 72.535 49.8019C72.2134 50.3297 71.7768 50.2514 71.3802 50.5728C70.987 50.8908 70.812 51.4386 70.892 51.9547C70.927 52.1778 71.0103 52.391 71.1253 52.5791C71.3053 52.8788 71.6735 53.062 71.8068 53.3883C71.9018 53.6231 71.8868 53.9195 71.9868 54.1659C72.1001 54.4456 72.2617 54.6987 72.46 54.9151C72.8549 55.3514 73.3481 55.5845 73.9014 55.6544C73.968 55.6627 74.0063 55.6228 74.0213 55.5695C74.1846 55.6477 74.3513 55.7177 74.5062 55.8242C74.9178 56.109 75.2794 56.397 75.736 56.6085C76.6424 57.0264 77.5722 57.361 78.4737 57.8006C79.3002 58.2035 80.1467 58.5932 81.0581 58.6914C81.5497 58.7447 82.0113 58.6914 82.4878 58.5648C82.7428 58.4966 83.0027 58.3884 83.2693 58.3983C83.5693 58.41 83.8025 58.5732 84.0841 58.6414C84.6024 58.7663 85.4089 58.4916 85.6921 57.9771C85.7788 57.8206 85.7688 57.6891 85.7888 57.5126C85.8304 57.1413 85.8321 56.8515 85.9604 56.4986C86.077 56.1739 86.167 55.9125 86.1037 55.5612H86.102Z" fill="#4D2E18"/>
<path d="M75.1841 62.3791L75.629 65.1414L75.8406 66.4467L78.2584 67.3925L81.2794 65.4511L80.9795 61.0255L75.1841 62.3791Z" fill="#EB8B6C"/>
<path d="M78.1634 64.1807C77.222 64.6169 76.3955 64.6968 75.5323 64.547L75.1841 62.3791L80.8795 61.0255L80.8845 61.0837C80.4246 62.4407 79.4515 63.5846 78.1634 64.1807Z" fill="#BF5A39"/>
<path d="M84.1924 56.2537C84.2157 57.3076 83.4026 57.7738 83.066 58.7745C82.6361 60.0366 81.5846 60.8691 81.5097 60.9607C81.4763 61.0023 80.0317 62.1645 77.9404 62.6723C76.2291 63.0886 74.0663 62.8671 72.8532 61.4552C71.3202 59.672 72.0151 56.4568 72.6083 54.4422C72.6433 54.3239 72.6849 54.1874 72.7282 54.0425C72.7932 53.8261 72.8682 53.5847 72.9399 53.3532C73.1465 52.6906 73.3448 52.0678 73.3448 52.0678C73.3448 52.0678 74.028 51.1204 74.5129 50.7908C75.6743 49.9966 77.1923 49.9999 78.5936 50.1348C79.86 50.2563 81.2181 50.4977 82.1878 51.3985C83.2093 52.3476 83.8442 53.7462 84.0791 55.1048C84.1441 55.4844 84.1824 55.8674 84.1924 56.252V56.2537Z" fill="#EB8B6C"/>
<path d="M73.3564 54.7018C73.323 54.6751 73.2847 54.6551 73.2414 54.6485C72.8731 54.5985 72.7848 55.2163 72.7981 55.4677C72.8048 55.6209 72.8648 55.7973 73.0131 55.8423C73.1064 55.8706 73.2097 55.834 73.2814 55.769C73.353 55.7041 73.3963 55.6125 73.428 55.521C73.483 55.3561 73.5047 55.1796 73.488 55.0065C73.4813 54.9282 73.4647 54.85 73.4263 54.7834C73.408 54.7534 73.3863 54.7251 73.358 54.7018H73.3564Z" fill="#2E1607"/>
<path d="M77.4659 55.2646C77.4325 55.2363 77.3925 55.218 77.3509 55.2113C76.981 55.1614 76.8926 55.7841 76.9043 56.0355C76.911 56.1904 76.9726 56.3669 77.1193 56.4118C77.2126 56.4401 77.3176 56.4035 77.3892 56.3369C77.4609 56.2703 77.5042 56.1804 77.5358 56.0871C77.5925 55.9206 77.6125 55.7441 77.5958 55.5693C77.5892 55.4911 77.5725 55.4128 77.5342 55.3445C77.5158 55.3146 77.4925 55.2863 77.4659 55.2629V55.2646Z" fill="#2E1607"/>
<path d="M74.4545 53.6311C74.4545 53.6311 74.4412 53.6162 74.4329 53.6095C74.3146 53.4963 74.1513 53.4513 73.9946 53.413C73.713 53.3464 73.4181 53.2981 73.1332 53.3448C73.0015 53.3664 72.145 53.7743 72.4766 53.9625C72.5316 53.9941 72.5983 53.9875 72.6616 53.9825C73.0732 53.9508 73.4897 53.9925 73.8863 54.104C73.993 54.134 74.1013 54.1689 74.2129 54.1706C74.3246 54.1723 74.4429 54.1356 74.5079 54.0457C74.5978 53.9242 74.5579 53.7444 74.4562 53.6295L74.4545 53.6311Z" fill="#4D2E18"/>
<path d="M76.7526 54.0757C76.7809 54.184 76.8759 54.2622 76.9809 54.3022C77.0842 54.3421 77.1975 54.3488 77.3091 54.3604C77.719 54.4054 78.1206 54.5219 78.4905 54.7034C78.5472 54.7317 78.6072 54.7617 78.6688 54.7534C79.0454 54.7018 78.4039 54.0058 78.2889 53.9359C78.0406 53.786 77.7507 53.7211 77.4641 53.6794C77.3058 53.6561 77.1375 53.6378 76.9842 53.6994C76.9742 53.7028 76.9659 53.7078 76.9559 53.7128C76.8192 53.781 76.7159 53.9325 76.7526 54.0791V54.0757Z" fill="#4D2E18"/>
<path d="M75.9923 58.8312C75.9923 58.8312 75.699 59.7386 74.7359 59.8069C73.7728 59.8735 73.4795 58.7912 73.4795 58.7912C73.4795 58.7912 73.5928 58.8012 73.7644 58.8145C74.081 58.8378 74.5959 58.8728 74.9475 58.8645C75.2108 58.8561 75.4707 58.8478 75.6607 58.8428C75.8606 58.8345 75.9939 58.8295 75.9939 58.8295L75.9923 58.8312Z" fill="white"/>
<path d="M75.9923 58.8312C75.9923 58.8312 75.699 59.7386 74.7359 59.8069C73.7728 59.8735 73.4795 58.7912 73.4795 58.7912C73.4795 58.7912 73.5928 58.8012 73.7644 58.8145C73.8461 58.9377 73.8028 59.0027 73.9011 59.0792C74.051 59.1925 75.2741 59.1975 75.4374 59.1475C75.5407 59.1159 75.5624 58.9977 75.659 58.8428C75.859 58.8345 75.9923 58.8295 75.9923 58.8295V58.8312Z" fill="#994000"/>
<path d="M84.7372 55.5326C84.7239 55.5459 84.7106 55.5542 84.6972 55.5659C84.7772 54.4853 84.7772 53.4147 84.2473 52.4373C83.8374 51.683 83.1992 51.062 82.4744 50.6108C80.7848 49.5601 78.1653 49.0906 76.2224 49.5801C75.2876 49.8149 74.4745 50.356 73.7646 50.9954C73.4763 51.2551 72.1516 52.2392 72.5599 52.7503C72.6698 52.8885 72.8465 52.8902 72.9981 52.8519C73.1847 52.8036 73.2564 52.6571 73.4097 52.5605C73.7979 52.3174 74.0445 52.4406 74.4328 52.4057C74.7461 52.3774 74.921 52.2808 75.1193 52.0394C75.5909 51.4649 76.0958 51.2635 76.794 51.097C76.8923 51.5049 77.1505 51.8495 77.5688 52.0027C77.6688 52.0394 77.8237 52.0327 77.9104 52.076C78.227 52.2358 78.202 52.4273 78.327 52.6604C78.4403 52.8719 78.5686 53.1616 78.7752 53.3014C78.8668 53.363 78.9435 53.3897 79.0185 53.3997C79.0351 53.4613 79.0551 53.5196 79.0801 53.5745C79.3184 54.0773 79.7933 53.9258 79.8783 54.6468C79.9199 55.0047 79.8966 55.2245 80.2032 55.466C80.4698 55.6774 80.7614 55.7473 81.0847 55.714C81.3496 56.0604 81.7279 56.3251 82.1261 56.1619C82.1295 56.1603 82.1345 56.1586 82.1378 56.1569C82.2478 56.2152 82.3461 56.2968 82.4244 56.4167C82.6194 56.7197 82.5594 57.2192 82.4494 57.5456C82.3144 57.9452 81.9862 58.2116 81.8029 58.5795C81.7695 58.6478 81.7445 58.7194 81.7229 58.7927C81.7112 58.806 81.7012 58.8243 81.6979 58.8459C81.5662 59.4453 81.338 59.7051 81.2063 60.3028C81.1647 60.491 80.9997 61.3335 80.9997 61.3335C80.9997 61.3335 82.0328 60.7041 82.2294 60.501C83.4258 59.2605 84.4939 57.7587 84.4223 56.0354C84.6073 55.9755 84.7739 55.8656 84.9239 55.719C85.0455 55.5992 84.8589 55.4143 84.7372 55.5326Z" fill="#4D2E18"/>
<path d="M81.463 56.8346C81.3897 56.6814 81.1614 56.8146 81.2347 56.9678C81.3963 57.3025 81.558 58.0551 81.0597 58.1949C80.8964 58.2399 80.9664 58.4946 81.1297 58.4497C81.8229 58.2565 81.7046 57.3341 81.463 56.8346Z" fill="#BF5A39"/>
<path d="M74.7766 55.8974C74.8516 55.7458 74.6233 55.6126 74.5483 55.7642C74.415 56.0322 74.2667 56.2903 74.0884 56.5301C73.9401 56.7315 73.7469 56.9213 73.6802 57.1678C73.5502 57.6423 73.9651 57.9869 74.2984 58.25C74.43 58.3533 74.6183 58.1684 74.485 58.0635C74.3267 57.9387 74.0901 57.7772 73.9968 57.5973C73.8118 57.2377 74.0351 57.0312 74.2151 56.7948C74.4317 56.5101 74.6183 56.217 74.7766 55.8974Z" fill="#BF5A39"/>
<path d="M78.925 48.6111C78.5267 48.696 78.3484 49.1023 78.1551 49.4186C78.0035 49.665 77.8835 49.8748 77.6352 50.038C77.4086 50.1862 77.1937 50.3144 76.9887 50.4942C76.8604 50.6074 77.0487 50.7923 77.1753 50.6807C77.4753 50.416 77.8985 50.2811 78.1335 49.9548C78.3651 49.6351 78.5717 48.9524 78.9949 48.8642C79.1616 48.8292 79.0916 48.5745 78.925 48.6094V48.6111Z" fill="#2E1607"/>
<path d="M76.0557 50.4661C75.2992 50.4029 74.7044 50.6127 74.0778 51.0206C73.4613 51.4235 72.7848 51.4218 72.2816 52.0129C72.1716 52.1411 72.3582 52.3293 72.4682 52.1994C72.9081 51.6833 73.4796 51.6849 74.0262 51.3686C74.706 50.9756 75.2326 50.6609 76.0557 50.7309C76.2257 50.7459 76.224 50.4811 76.0557 50.4678V50.4661Z" fill="#2E1607"/>
<path d="M76.6442 49.6868C75.9677 49.4571 75.2645 49.2539 74.5713 49.532C74.4163 49.5952 74.483 49.85 74.6413 49.7867C75.2912 49.5253 75.941 49.7268 76.5742 49.9416C76.7358 49.9965 76.8042 49.7418 76.6442 49.6868Z" fill="#2E1607"/>
<path d="M84.6905 57.5656C84.4272 57.4391 84.1373 57.3092 83.9673 57.0611C83.8606 56.9046 83.8906 56.6598 83.7757 56.5233C83.7024 56.4367 83.614 56.4567 83.5207 56.445C83.1708 56.3968 82.9059 56.3535 82.7226 56.0088C82.6426 55.859 82.4143 55.9922 82.4943 56.142C82.5943 56.3285 82.7276 56.4767 82.9159 56.5782C83.0958 56.6748 83.4424 56.6548 83.5507 56.7681C83.6024 56.8213 83.6057 56.9412 83.6307 57.0062C83.6707 57.1094 83.7307 57.1993 83.8023 57.2842C84.0023 57.524 84.2822 57.6622 84.5572 57.7937C84.7088 57.867 84.8438 57.6389 84.6905 57.5656Z" fill="#2E1607"/>
<path d="M81.9328 53.7045C81.6095 53.3016 81.3163 53.3632 80.888 53.17C80.2415 52.8787 80.1365 52.1011 79.7383 51.5833C79.4317 51.1853 79.0534 50.9056 78.5868 50.7241C78.4285 50.6625 78.3602 50.9173 78.5169 50.9789C79.0884 51.202 79.4983 51.6166 79.7916 52.1477C79.9615 52.4574 80.0565 52.8287 80.2915 53.1001C80.5014 53.3449 80.7314 53.3648 81.023 53.4614C81.8178 53.7262 82.0344 54.2756 82.0961 55.0815C82.1094 55.2496 82.3727 55.2513 82.3594 55.0815C82.3227 54.5986 82.2477 54.0941 81.9345 53.7045H81.9328Z" fill="#2E1607"/>
<path d="M83.2493 53.9942C83.091 53.6046 82.8644 53.2849 82.5278 53.0318C82.3911 52.9303 82.2595 53.1584 82.3945 53.2599C82.7177 53.503 82.9143 53.8394 83.051 54.214C83.166 54.5287 83.3492 54.9832 83.2293 55.3079C83.171 55.4677 83.4259 55.536 83.4842 55.3778C83.6425 54.9483 83.4126 54.3955 83.2493 53.9942Z" fill="#2E1607"/>
<path d="M70.2416 89.9353C71.408 90.2484 72.3612 90.285 73.5576 90.0369C75.4421 89.6473 77.1651 89.3276 79.1064 89.3742C81.2076 89.4242 84.3835 89.6739 86.4748 89.3493C88.1277 89.0945 89.3241 88.257 90.6672 87.4844C90.4439 85.2766 89.6107 78.9229 89.5641 77.6225C89.4974 75.7644 87.3862 62.5991 87.0896 62.4659C86.793 62.3327 81.1709 63.8529 81.1709 63.8529C81.1709 63.8529 80.4577 64.6437 78.9397 65.0067C77.4217 65.3697 75.5688 64.7769 75.5688 64.7769C75.5688 64.7769 71.6796 64.5788 71.2847 64.6171C70.8881 64.6554 70.5582 67.0181 70.6249 69.5539C70.6915 72.0897 70.4266 69.782 70.1633 72.4194C69.9333 74.7171 68.9536 87.1198 69.1402 89.6656C69.5068 89.7422 69.87 89.8354 70.2416 89.9353Z" fill="#FACCAC"/>
<path d="M71.2845 64.6172L63.5762 63.5366C63.5762 63.5366 64.1494 71.3539 64.8459 71.9233C65.5424 72.4927 67.9186 71.92 68.7767 73.262C69.6349 74.6023 71.0362 74.6206 72.4809 74.6123C73.9239 74.604 75.6519 69.9253 75.1837 69.0345C74.7154 68.1421 71.2845 64.6205 71.2845 64.6205V64.6172Z" fill="#FACCAC"/>
<path d="M92.8507 57.4617L98.5511 54.2283L100.309 54.3515L100.492 56.1797C100.492 56.1797 95.7451 61.7658 94.0388 63.3143C92.3325 64.8627 90.8911 64.8361 90.7611 64.5547C90.6312 64.2716 90.093 61.9972 90.3562 61.4428C90.6195 60.8883 92.849 57.4634 92.849 57.4634L92.8507 57.4617Z" fill="#EB8B6C"/>
<path d="M99.7104 52.335C99.4888 52.7579 99.2322 53.1625 98.9489 53.5455C98.6106 54 98.3207 54.2564 98.2424 54.8342C98.2341 54.8925 98.2591 54.9357 98.2941 54.9641C97.7942 55.7283 97.5059 57.2152 98.7073 57.3151C99.4921 57.38 100.397 57.1486 101.158 56.9771C101.647 56.8672 103.929 56.6357 104.114 56.0963C104.136 56.0313 104.124 55.9681 104.071 55.9214C103.959 55.8215 103.831 55.7716 103.696 55.7499C103.801 55.7183 103.903 55.6833 104.009 55.655C104.294 55.5784 104.609 55.4569 104.751 55.1772C104.876 54.9291 104.769 54.7676 104.584 54.6777C104.736 54.5928 104.859 54.4496 104.789 54.2614C104.676 53.9551 104.144 53.9517 103.885 53.9351C103.633 53.9184 103.381 53.9134 103.128 53.9151C103.203 53.8901 103.276 53.8635 103.351 53.8418C103.521 53.7952 103.728 53.7719 103.881 53.6837C104.106 53.5555 104.229 53.2574 103.998 53.0643C103.731 52.8445 103.198 52.9311 102.893 52.981C102.498 53.0476 100.52 53.3373 100.132 53.4356C100.249 53.0326 101.182 51.3909 100.23 51.5674C99.932 51.6224 99.8454 52.0769 99.7121 52.335H99.7104Z" fill="#EB8B6C"/>
<path d="M81.1709 63.8528C81.1709 63.8528 86.5297 61.1704 87.3646 60.7308C88.201 60.2913 92.3351 57.2043 92.9083 57.4075C93.4799 57.6106 94.3597 65.3812 94.4047 65.9573C94.448 66.5334 93.7015 66.1388 93.1733 67.8088C92.6451 69.4788 90.7971 70.5345 90.1373 71.6767C89.4774 72.8189 86.6181 74.5089 86.4864 74.6104C86.3548 74.7103 83.3621 67.5458 83.3621 67.3926C83.3621 67.2394 81.1709 63.8544 81.1709 63.8544V63.8528Z" fill="#FACCAC"/>
<path d="M100.249 53.782C100.24 53.6139 99.9753 53.6122 99.9853 53.782C100.002 54.11 100.027 54.4946 99.9087 54.806C99.7804 55.1407 99.4138 55.3371 99.1338 55.5353C98.9955 55.6319 99.1272 55.8616 99.2672 55.7634C99.5721 55.5486 99.967 55.3255 100.129 54.9742C100.292 54.6212 100.269 54.16 100.249 53.7837V53.782Z" fill="#BF5A39"/>
<path d="M102.758 53.8369C102.527 53.8852 102.297 53.9335 102.065 53.9818C101.898 54.0167 101.968 54.2715 102.135 54.2365C102.367 54.1882 102.598 54.1399 102.828 54.0917C102.995 54.0567 102.925 53.8019 102.758 53.8369Z" fill="#BF5A39"/>
<path d="M104.143 54.5261C103.44 54.6677 102.737 54.8092 102.034 54.949C101.867 54.9823 101.937 55.2371 102.104 55.2038L104.213 54.7809C104.38 54.7476 104.31 54.4928 104.143 54.5261Z" fill="#BF5A39"/>
<path d="M103.187 55.5819C102.917 55.6435 102.649 55.7034 102.379 55.7651C102.214 55.8017 102.284 56.0564 102.449 56.0198C102.719 55.9582 102.987 55.8983 103.257 55.8366C103.422 55.8 103.352 55.5453 103.187 55.5819Z" fill="#BF5A39"/>
<path d="M69.9821 65.9489L69.9671 66.2919C69.9671 66.3019 69.9704 66.3085 69.9704 66.3169C69.9021 68.4847 69.8355 70.6526 69.7672 72.8221C69.7622 72.9919 70.0254 72.9919 70.0304 72.8221C70.1021 70.531 70.1737 68.24 70.2437 65.9489C70.2487 65.7791 69.9871 65.7791 69.9804 65.9489H69.9821Z" fill="#EDAC7E"/>
<path d="M70.953 67.7421C70.8547 68.6146 70.7214 69.4804 70.5564 70.3429C70.5248 70.5094 70.7797 70.5793 70.8114 70.4128C70.9813 69.527 71.1163 68.6379 71.218 67.7421C71.2363 67.574 70.973 67.5756 70.9547 67.7421H70.953Z" fill="#EDAC7E"/>
<path d="M88.8596 67.3784C88.7329 66.5393 88.2914 65.7917 88.0981 64.9691C87.8515 63.9152 87.8898 62.8379 88.1581 61.7923C88.1997 61.6275 87.9464 61.5575 87.9031 61.7224C87.6815 62.5832 87.6065 63.4623 87.7198 64.3464C87.8431 65.2988 88.278 66.113 88.5196 67.0288C88.9929 68.8203 88.0048 70.6568 88.6296 72.4384C88.6846 72.5982 88.9412 72.5283 88.8846 72.3685C88.3097 70.7268 89.1128 69.0484 88.8612 67.3768L88.8596 67.3784Z" fill="#EDAC7E"/>
<path d="M88.8978 86.5912C88.058 85.707 88.088 84.5049 88.0596 83.366C88.0363 82.372 87.8464 81.4646 87.4998 80.5338C86.7266 78.4526 85.8718 76.3996 85.057 74.3333C84.9953 74.1768 84.7404 74.2451 84.802 74.4032C85.6718 76.6061 86.65 78.7972 87.4015 81.0433C87.8014 82.2371 87.7231 83.3977 87.838 84.6264C87.9147 85.434 88.143 86.1816 88.7095 86.7776C88.8261 86.9009 89.0128 86.7144 88.8961 86.5912H88.8978Z" fill="#EDAC7E"/>
<path d="M75.5705 64.7769C75.5705 64.7769 76.0871 66.7216 76.532 66.7865C76.9769 66.8531 78.2799 65.1065 78.2799 65.1065C78.2799 65.1065 80.3261 66.6384 80.7711 66.357C81.216 66.0772 81.171 63.8528 81.171 63.8528C81.171 63.8528 79.3864 64.8252 78.2799 64.9234C77.1752 65.0216 75.5688 64.7752 75.5688 64.7752L75.5705 64.7769Z" fill="white"/>
<path d="M71.6114 48.6512C70.7683 45.3345 70.0018 41.9994 69.3136 38.6478C69.2803 38.4813 69.0253 38.5512 69.0587 38.7177C69.7468 42.0694 70.5133 45.4044 71.3565 48.7211C71.3982 48.8859 71.6531 48.816 71.6114 48.6512Z" fill="#7D7999"/>
<path d="M98.0158 62.9927C96.9994 64.8725 95.8497 66.6724 94.5699 68.384C94.4683 68.5205 94.6966 68.6521 94.7982 68.5172C96.0779 66.8056 97.2277 65.0057 98.2441 63.1259C98.3241 62.976 98.0975 62.8428 98.0158 62.9927Z" fill="#7D7999"/>
<path d="M81.9147 24.8434C81.8797 24.5936 81.843 24.3456 81.808 24.0958C81.7914 23.9842 81.7747 23.8694 81.7197 23.7711C81.6147 23.5863 81.3781 23.4997 81.1698 23.538C80.3117 23.7012 80.3817 25.2746 80.4283 25.9073C80.4316 25.9506 80.4366 25.9956 80.465 26.0272C80.4933 26.0589 80.5383 26.0705 80.5799 26.0772C80.9432 26.1438 81.3264 26.0988 81.6647 25.949C81.773 25.9007 81.8813 25.8391 81.9413 25.7375C82.0196 25.606 81.9996 25.4428 81.978 25.2913C81.9563 25.1414 81.9347 24.9916 81.9147 24.8417V24.8434Z" fill="#4D2E18"/>
<path d="M81.5131 22.9968C81.4531 22.8487 81.3231 22.7388 81.1631 22.7171C80.9948 22.6938 80.8782 22.7454 80.7482 22.852C80.5883 22.9819 80.6083 23.2516 80.7366 23.3965C80.7849 23.483 80.8665 23.5513 80.9732 23.5846C81.3264 23.6962 81.6514 23.3365 81.5147 22.9968H81.5131Z" fill="white"/>
<path d="M79.6099 43.8309C79.2066 44.7017 79.2383 45.714 78.7367 46.5449C78.6484 46.6914 78.8767 46.8229 78.965 46.6781C79.4699 45.8439 79.4333 44.8382 79.8382 43.9641C79.9098 43.8109 79.6815 43.6777 79.6099 43.8309Z" fill="#E8C6AE"/>
<path d="M51.8212 17.8534C51.1531 17.8534 50.5282 17.6386 50.1733 17.2589C49.68 16.7311 49.9466 15.4474 49.9583 15.3941C49.965 15.3592 49.9866 15.3292 50.015 15.3109C50.045 15.2926 50.08 15.2859 50.1149 15.2926C53.5375 16.0318 53.6275 16.1767 53.6608 16.2316C53.7558 16.3848 53.6325 16.7062 53.5925 16.8011C53.5125 16.9909 53.1993 17.6219 52.5078 17.7784C52.2795 17.83 52.0479 17.855 51.8212 17.855V17.8534ZM50.1916 15.5789C50.1266 15.9819 50.07 16.7628 50.3649 17.0791C50.7798 17.522 51.6363 17.7035 52.4478 17.5204C52.8727 17.4238 53.126 17.0974 53.2393 16.9126C53.3859 16.6729 53.4326 16.4597 53.4326 16.3815C53.1709 16.2599 51.623 15.8903 50.1916 15.5789Z" fill="#2E1607"/>
<path d="M47.4551 16.8528C46.6586 16.8528 45.4622 16.4848 45.0356 16.0902C44.6824 15.7655 44.6757 15.2111 44.7024 14.9097C44.7257 14.6483 44.8157 14.222 44.9673 14.1255C45.0273 14.0872 45.1656 13.9973 48.8548 14.983C48.8881 14.9913 48.9181 15.0146 48.9348 15.0446C48.9531 15.0745 48.9564 15.1112 48.9481 15.1445C48.9348 15.1961 48.5965 16.4299 48.0316 16.7429C47.8967 16.8178 47.6951 16.8511 47.4568 16.8511L47.4551 16.8528ZM45.0989 14.3619C45.0523 14.4435 44.9406 14.7948 44.9573 15.1961C44.9656 15.4159 45.0173 15.7156 45.2139 15.8971C45.7221 16.3649 47.4551 16.7612 47.9017 16.5148C48.2466 16.3233 48.5332 15.594 48.6548 15.2044C47.3735 14.8631 45.4222 14.3719 45.0989 14.3619Z" fill="#2E1607"/>
<path d="M50.0869 15.554C50.0769 15.554 50.0652 15.554 50.0552 15.5507L48.7888 15.241C48.7172 15.2243 48.6739 15.1527 48.6922 15.0811C48.7089 15.0095 48.7822 14.9662 48.8522 14.9845L50.1185 15.2942C50.1902 15.3109 50.2335 15.3825 50.2152 15.4541C50.2002 15.514 50.1469 15.554 50.0869 15.554Z" fill="#2E1607"/>
<path d="M45.0391 14.3701C45.0024 14.3701 44.9658 14.3551 44.9391 14.3251L43.2395 12.3754C43.1911 12.3204 43.1978 12.2372 43.2528 12.1889C43.3078 12.1406 43.3911 12.1473 43.4394 12.2022L45.1391 14.152C45.1874 14.2069 45.1807 14.2902 45.1257 14.3384C45.1007 14.3601 45.0691 14.3701 45.0391 14.3701Z" fill="#2E1607"/>
<path d="M38.1953 74.5656C37.9971 75.4664 37.7988 76.3672 37.5988 77.2679C37.5622 77.4328 37.8171 77.5044 37.8538 77.3379C38.052 76.4371 38.2503 75.5363 38.4503 74.6355C38.487 74.4707 38.232 74.3991 38.1953 74.5656Z" fill="#2E1607"/>
<path d="M36.1491 56.3654C35.3493 57.6075 34.9011 59.0011 34.6361 60.4463C34.0979 60.5512 33.5513 60.6578 33.0015 60.7627C33.2647 59.101 33.7163 57.4942 34.5378 56.0207L36.1474 56.367L36.1491 56.3654Z" fill="#4D2E18"/>
<path d="M36.2775 56.9565C36.2775 57.3977 35.691 57.7557 34.9662 57.7557C34.2413 57.7557 33.6548 57.3977 33.6548 56.9565C33.6548 56.5153 34.2413 56.1573 34.9662 56.1573C35.691 56.1573 36.2775 56.5153 36.2775 56.9565Z" fill="white"/>
</g>
</svg>
