<svg width="102" height="82" viewBox="0 0 102 82" fill="none" xmlns="http://www.w3.org/2000/svg">
<path d="M24.6002 76.0999C24.6002 75.9999 24.5002 75.9999 24.4002 75.9999C23.2002 73.6999 21.4002 71.7 19.0002 70.8C17.8002 70.4 16.5002 70.1999 15.4002 70.9999C14.4002 71.6999 14.1002 72.8999 14.7002 73.9999C15.4002 75.2999 16.9002 75.5999 18.3002 75.9999C20.4002 76.4999 21.8002 77.6 23.4002 78.9C24.0002 79.4 25.0002 79.7999 25.7002 79.0999C26.4002 77.9999 25.3002 76.6999 24.6002 76.0999Z" fill="#DEAD90"/>
<path d="M26.0001 74.4999C25.7001 73.5999 25.3001 72.6999 24.9001 71.8999C23.9001 68.3999 22.6001 64.9999 21.1001 61.6999C20.5001 60.2999 19.8001 58.2999 18.3001 57.5999C17.0001 56.9999 15.9001 57.6999 15.3001 58.8999C14.1001 61.5999 14.4001 64.8999 15.7001 67.4999C17.3001 70.6999 20.6001 72.1999 22.8001 74.8999C23.4001 75.6999 24.7001 78.1999 25.9001 76.7999C26.4001 75.9999 26.2001 75.1999 26.0001 74.4999Z" fill="#DEAD90"/>
<path d="M98.6002 55.9C96.5002 55.3 94.0002 56.1 92.1002 57C90.1002 57.9 88.2002 59.1 86.5002 60.5C86.7002 60.2 86.9002 59.9 87.1002 59.7C87.8002 58.7 88.5002 57.7 89.0002 56.7C89.8002 55.1 90.3002 53.3 91.2002 51.8C92.8002 49.1 95.5002 47.4 97.7002 45.1C99.4002 43.4 101.2 40.9 101 38.3C100.8 35.7 97.7002 35.7 95.9002 36.2C93.0002 37 90.5002 39.1 88.3002 41.1C86.1002 43.1 84.2002 45.5 82.5002 47.9C78.3002 54 75.5002 61 72.9002 68C72.8002 68 72.8002 68 72.7002 68C72.5002 67.7 71.9002 67.8 72.0002 68.3C72.3002 70.1 73.3002 71.6 74.8002 72.5C74.9002 72.5 74.9002 72.6 74.8002 72.7C74.6002 72.9 74.5002 73.1 74.3002 73.3C74.3002 73.3 74.2002 73.4 74.2002 73.3C74.1002 73.2 73.9002 73.2 73.8002 73.1C73.3002 72.9 72.9002 73.6 73.4002 73.9C73.5002 74 73.6002 74 73.7002 74.1C73.6002 74.2 73.5002 74.4 73.4002 74.5C73.1002 74.9 73.7002 75.5 74.0002 75.1C74.1002 74.9 74.3002 74.7 74.4002 74.5C74.4002 74.5 74.5002 74.4 74.5002 74.5C75.7002 75 77.1002 75.4 78.5002 75.6C78.5002 75.6 78.6002 75.6 78.6002 75.7C78.6002 75.8 78.7002 75.8 78.8002 75.9C78.8002 75.9 78.9002 75.9 78.9002 76C79.0002 76.5 79.0002 76.9 79.1002 77.4C79.2002 78 79.2002 78.5 79.8002 78.7C80.4002 79 81.3002 78.8 82.0002 78.9C83.1002 79.1 84.1002 79.4 85.2002 79.5C86.8002 79.6 88.3002 79.2 89.7002 78.4C91.3002 77.3 92.2002 75.5 93.8002 74.4C94.7002 73.8 95.7002 73.6 96.7002 73.3C97.3002 73.2 97.9002 73 98.3002 72.6C99.2002 71.8 99.3002 70.1 98.9002 69C98.4002 67.7 97.0002 67.4 95.7002 67.3C93.8002 67.2 91.8002 67.5 90.0002 68.1C88.9002 68.4 87.9002 68.9 86.9002 69.4C86.8002 69.5 86.7002 69.3 86.8002 69.2C87.5002 68.4 88.3002 67.7 89.1002 67.1C91.0002 65.7 93.1002 64.8 95.0002 63.7C96.9002 62.6 99.0002 61.3 100.1 59.3C100.9 57.8 100.1 56.4 98.6002 55.9Z" fill="#DEAD90"/>
<path d="M19.4001 40.9999C19.1001 39.8999 12.6001 40.2999 13.0001 40.5999C12.5001 42.4999 12.0001 44.3999 11.5001 46.2999C11.2001 47.3999 10.8001 48.7999 11.5001 49.8999C12.8001 51.8999 15.8001 51.4999 16.8001 49.7999C17.5001 48.4999 18.1001 46.4999 18.5001 45.0999C18.9001 43.8999 19.7001 42.1999 19.4001 40.9999Z" fill="#BF6950"/>
<path d="M54.7 12.6C54.3 10.8 53.8 8.99996 52.4 7.59996C51.2 6.29996 49.6 5.59996 47.8 5.49996C45.5 5.29996 43.2 5.89996 41.8 7.79996C40.4 9.69996 40 13.3 40.1 15.9C40 16 44.1 20.5 47.3 22.1C48.9 22.9 50.5 23.7 52.1 24.3C54.1 25.1 56 25.7 57.9 26.8C58.2 27 58.5 26.7 58.5 26.4C59 21.5 55.8 17.3 54.7 12.6Z" fill="#913939"/>
<path d="M50.7002 73.9C49.4002 67.4 47.8002 61 45.9002 54.7C45.9002 54.6 45.8002 54.6 45.8002 54.5C45.6002 53.1 45.4002 51.8 45.2002 50.4C45.2002 50.2 45.2002 50 45.1002 49.9C45.0002 49.5 44.5002 49.5 44.2002 49.8C37.4002 50.6 30.7002 51.6 24.0002 52.8C23.4002 52.9 24.2002 57 24.5002 58.4C24.6002 58.7 24.6002 59 24.5002 59.2C24.3002 61.7 22.6002 69.2 23.3002 77.4C23.5002 79.4 22.8002 80.5 25.0002 80.7C26.7002 80.8 28.6002 81 30.2002 80.9C31.4002 80.8 32.5002 80.7 33.7002 80.6C34.3002 80.5 34.9002 80.5 35.4002 80.4C35.7002 80.4 36.1002 80.4 36.3002 80.2C36.5002 80 36.5002 79.8 36.5002 79.6C36.6002 79.1 36.6002 78.5 36.7002 78C36.8002 76.8 37.0002 75.6 37.1002 74.5C37.1002 74.2 37.2002 74 37.2002 73.7C37.9002 75.5 39.3002 78.3 40.3002 79.9C42.1002 82.9 49.2002 79.6 50.7002 77.2C51.3002 76.2 50.9002 74.9 50.7002 73.9Z" fill="#FAE1D2"/>
<path d="M21.6 39.6998C21.7 37.1998 21.9 34.5998 21.9 32.0998C21.9 30.1998 17.2 25.7998 17.1 25.7998C15.3 27.5998 14.7 29.1998 14 31.2998C13.1 33.8998 11.1 41.2998 11.4 41.7998C11.8 42.4998 13 43.1998 13.6 43.4998C15.7 44.3998 18.1 45.1998 20.4 44.9998C20.5 44.9998 20.5 44.5998 20.6 44.4998C21.9 43.4998 21.6 41.1998 21.6 39.6998Z" fill="#36593F"/>
<path d="M44.7001 40.1999C44.6001 39.8999 44.5001 39.4999 44.5001 39.1999C46.6001 37.3999 49.1001 35.3999 48.0001 32.3999C47.0001 29.6999 45.5001 27.0999 43.8001 24.6999C43.0001 22.9999 41.9001 22.0999 40.1001 21.3999C36.4001 19.9999 32.6001 19.1999 28.7001 19.8999C26.0001 20.3999 23.3001 21.1999 21.0001 22.6999C18.9001 23.9999 16.5001 25.8999 15.3001 28.0999C14.7001 29.1999 13.3001 33.0999 13.5001 33.3999C14.1001 34.4999 15.4001 35.0999 16.5001 35.7999C17.3001 36.2999 18.2001 36.7999 19.1001 37.1999C19.3001 38.1999 19.4001 39.1999 19.6001 40.0999C19.7001 42.6999 19.9001 45.3999 20.3001 47.9999C20.7001 51.2999 21.1001 54.7999 22.7001 57.6999C22.8001 58.1999 32.0001 57.8999 36.0001 56.9999C39.7001 56.1999 43.7001 54.2999 46.4001 51.4999C47.7001 50.1999 47.2001 48.7999 46.7001 47.2999C46.1001 44.8999 45.3001 42.5999 44.7001 40.1999Z" fill="#36593F"/>
<path d="M28.1 20.0999C28.1 18.9999 27.9 17.7999 27.3 16.7999C27.2 16.5999 27.1 16.4999 26.9 16.4999C26.7 16.2999 26.5 16.2999 26.2 16.3999C23.8 17.6999 21.7 19.2999 19.8 21.1999C18.7 22.2999 17.6 23.4999 16.7 24.6999C15.2 26.7999 14.2 29.4999 13.5 31.9999C13.1 33.1999 13.6 33.5999 14.5 34.1999C15.1 34.5999 16 35.1999 16.7 34.9999C17.1 35.0999 17.4 34.9999 17.7 34.6999C18 34.3999 18.3 33.8999 18.5 33.4999C18.7 33.4999 18.9 33.3999 19.1 33.1999C19.2 33.1999 19.2 33.1999 19.3 33.0999C19.8 32.2999 20.3 31.3999 20.2 30.4999C20.2 30.0999 20.1 29.7999 20 29.4999C19.7 28.6999 19.6 27.3999 20.2 26.7999C22.4 24.4999 25 22.4999 27.7 20.6999C28.1 20.4999 28.4 20.3999 28.1 20.0999Z" fill="#EB8B65"/>
<path d="M30.1 14.4C30.1 14.2 30 14.1 29.9 14.1C29.8 13.9 29.5 13.9 29.1 14.4C28 15.9 25.9 16.1 24.4 15.1C24.1 14.9 23.9 14.9 23.8 15C23.7 15 23.5 15.2 23.6 15.4L24.4 18.8C24.7 20.2 25.3 21.9 24 23.1C23.9 23.1 23.9 23.2 23.9 23.2C23.8 23.3 23.8 23.4 23.9 23.5C25.5 25.9 28.5 25.7 30.8 24.6C31.7 24.2 33 23.5 33.1 22.4C33.1 21.8 31.9 21.7 31.2 20.1C31.1 19.7 30.1 15.2 30.1 14.4Z" fill="#BF6950"/>
<path d="M33.2002 21.3C33.1002 21.2 32.4002 21 32.4002 21C32.5002 21.9 32.1002 22.6 31.5002 23.2C30.8002 23.8 29.9002 24.2 29.0002 24.4C28.2002 24.6 27.3002 24.7 26.5002 24.6C25.9002 24.5 25.2002 24.4 24.8002 24C24.4002 23.6 24.3002 23.2 24.2002 22.7C24.2002 22.5 22.8002 24.3 22.7002 24.4C22.7002 24.4 23.0002 25.8 23.7002 27.1C24.7002 28.9 26.9002 28.9 28.7002 28.5C30.5002 28.2 31.9002 27.3 32.8002 25.7C33.7002 24.5 34.3002 22.5 33.2002 21.3Z" fill="#36593F"/>
<path d="M67.9002 75.9999C67.8002 74.1999 67.6002 72.3999 67.3002 70.6999C67.3002 70.4999 67.1002 70.3999 67.0002 70.2999C65.7002 62.7999 63.9002 55.3999 61.5002 48.0999C61.5002 47.9999 61.4002 47.9999 61.4002 47.8999C61.4002 47.4999 61.3002 46.9999 61.2002 46.5999C61.1002 45.9999 61.1002 45.3999 60.8002 44.8999C60.1002 43.7999 58.5002 44.5999 57.5002 44.7999C57.4002 44.7999 57.3002 44.8999 57.2002 44.8999C53.3002 45.7999 49.4002 46.2999 45.4002 46.3999C44.9002 46.3999 44.7002 46.8999 44.9002 47.2999C44.9002 48.1999 45.0002 49.0999 45.1002 49.8999C45.1002 49.9999 45.2002 50.0999 45.2002 50.1999C45.4002 50.3999 44.5002 53.0999 44.4002 53.4999C44.1002 54.6999 43.9002 55.8999 43.7002 56.9999C42.3002 64.3999 42.0002 73.1999 42.2002 80.7999C42.2002 80.9999 42.2002 81.1999 42.3002 81.3999C42.6002 81.6999 50.8002 80.2999 52.5002 80.0999C52.8002 80.0999 52.9002 79.7999 52.9002 79.4999C53.1002 77.0999 53.4002 74.7999 53.9002 72.4999C54.1002 73.2999 54.3002 73.9999 54.5002 74.7999C55.0002 76.3999 55.4002 78.0999 56.1002 79.5999C56.6002 80.5999 57.4002 80.6999 58.5002 80.7999C60.3002 80.8999 62.2002 80.7999 64.0002 80.5999C65.0002 80.4999 66.8002 80.5999 67.5002 79.8999C68.6002 78.9999 68.0002 76.8999 67.9002 75.9999Z" fill="#59242E"/>
<path d="M56.9001 49.5C56.8001 48.8 56.3001 47.3 55.4001 47.2C54.5001 47.1 54.3 48.3 54.3 49C54.3 49 54.3 49 54.3 49.1C54.3 49.2 54.3 49.2 54.3 49.2C54.3 49.3 54.4 49.4 54.5 49.3C55.1 49.9 56 50.1 56.8 50C56.9 50 56.9001 49.5 56.9001 49.5Z" fill="#36593F"/>
<path d="M54.1 21.4C54.1 21.3 54.1 21.2 54 21.1C52.8 20.2 51.4 19.6 49.9 19.4C48.3 19.2 46.6 19.6 45.1 20.1C43.6 20.6 43.9 21.7 44 23.1C44 23.2 44 23.2 44.1 23.3C45 25.6 46.4 26.6 49 26.1C51.5 25.5 53.5 24.2 54.3 21.7C54.2 21.6 54.1 21.5 54.1 21.4Z" fill="#EB8B65"/>
<path d="M56.5 40.2C56.1 37.6 55.9 35 55.8 32.4C55.7 30.1 55.6 27.8 55.3 25.6C55.1 24.2 54.2 23 52.7 23.2H52.6C52.5 23.1 52.3 23.1 52.2 23.2C49.8 24.6 46.7 25.5 44.5 23.3C44.1 22.9 43.6 23.4 43.8 23.8C43.2 24.7 43.3 25.8 43.2 26.9C43.1 28.7 43 30.5 43 32.4C43 36 43.3 39.6 44 43.1C44.3 44.5 44.5 46.4 45.3 47.6C45.9 48.5 47.1 48.4 48.1 48.5C51 48.7 54.1 48.5 56.3 46.4C56.4 46.4 56.6 46.3 56.7 46.2C57.4 44.2 56.8 42.2 56.5 40.2Z" fill="#FAE1D2"/>
<path d="M47.2001 46.7C46.3001 42.1 45.5001 37.4 45.0001 32.7C44.6001 28.5 44.4001 23.7 46.6001 19.9C46.9001 19.4 46.7001 19.3 46.1001 19.2C44.0001 19.1 41.8001 18.8 39.7001 18.9C39.5001 18.9 39.4001 19 39.4001 19.2L39.3001 19.3C38.6001 23.4 38.1001 24.5 38.6001 28.6C38.4001 33.2 38.9001 40.9 39.5001 45.5C39.7001 47.2 40.0001 48.8 40.4001 50.5C40.7001 51.8 40.8001 53.5 41.5001 54.6C42.3001 55.8 43.8001 56.3 45.1001 56.5C45.9001 56.6 46.7001 56.7 47.5001 56.7C47.9001 56.7 49.3001 56.9 49.3001 56.5C48.6001 53.4 47.8001 50.1 47.2001 46.7Z" fill="#FFC04F"/>
<path d="M39.7001 34.5C39.4001 34.2 38.9001 33.9 38.7001 34.3C38.6001 34.6 38.7001 35.3 38.8001 35.6C38.8001 36 38.8001 36.5 38.9001 36.9C39.0001 38.6 39.1001 40.4 39.3001 42.1C40.0001 41.6 40.6001 40.9 41.2001 40.3C42.0001 39.4 44.0001 37.1 43.2001 36C42.7001 35.3 42.5001 35.9 41.8001 35.9C41.6001 35.9 41.3001 36 41.1001 35.9C40.6001 35.8 40.4001 35.3 40.2001 34.9C40.0001 34.9 39.8001 34.7 39.7001 34.5Z" fill="white"/>
<path d="M43.3 48.7999C43.1 49.5999 43.7 50.3999 44.3 50.6999C44.5 50.7999 44.7 50.7999 44.9 50.8999C45.2 50.9999 45.4 51.0999 45.6 51.3999C45.9 51.7999 45.9 52.0999 46 52.4999C46.3 53.2999 46.7 53.8999 47.5 54.1999C47.9 54.3999 48.4 54.4999 48.8 54.4999C48.3 52.3999 47.9 50.3999 47.5 48.2999C47.1 48.0999 46.7 47.9999 46.2 47.8999C45.5 47.7999 43.6 47.8999 43.3 48.7999Z" fill="white"/>
<path d="M40.7002 19.1999C40.7002 19.0999 40.6002 19.0999 40.6002 19.0999L41.9002 18.2999C38.8002 17.1999 34.4002 16.8999 31.0002 16.8999C30.9002 16.8999 30.8002 17.0999 30.9002 17.0999C30.8002 16.9999 30.7002 17.0999 30.7002 17.1999C30.6002 18.4999 31.2002 19.9999 31.8002 21.2999C32.0002 21.7999 33.4002 23.2999 34.0002 23.7999C35.7002 25.2999 37.0002 27.0999 38.8002 30.5999C38.6002 30.6999 39.8002 30.0999 39.9002 29.9999C39.9002 29.9999 40.0002 29.9999 40.0002 29.8999C40.1002 29.9999 40.3002 29.7999 40.2002 29.6999C40.4002 29.2999 40.3002 28.6999 40.3002 28.2999C40.4002 27.1999 40.5002 26.0999 40.5002 24.9999C40.7002 23.1999 41.0002 21.0999 40.7002 19.1999Z" fill="#FFC04F"/>
<path d="M35.7002 25.6998C36.0002 25.1998 36.3002 24.5998 36.4002 24.0998C36.6002 22.7998 35.9002 22.0998 34.7002 21.8998C34.2002 21.7998 33.3002 21.7998 33.3002 21.0998C33.3002 20.8998 33.4002 20.6998 33.4002 20.4998C33.5002 19.6998 32.6002 19.6998 32.0002 19.7998C31.7002 19.8998 31.4002 19.9998 31.2002 20.1998C31.4002 20.5998 31.6002 21.0998 31.7002 21.4998C31.9002 21.9998 33.3002 23.4998 33.9002 23.9998C34.6002 24.3998 35.2002 24.9998 35.7002 25.6998Z" fill="white"/>
<path d="M52.1001 20.0998C51.4001 19.7998 51.2001 18.5998 51.0001 17.9998C50.8001 17.3998 50.7001 16.6998 50.5001 16.0998C50.5001 15.8998 50.3001 15.9998 50.2001 16.0998C50.2001 16.0998 50.1001 16.0998 50.0001 16.0998C49.1001 16.6998 48.2001 17.2998 47.3001 17.7998C47.1001 17.8998 46.8001 18.0998 46.6001 18.1998C46.1001 18.3998 46.0001 18.1998 45.5001 18.1998C45.3001 18.1998 45.3001 18.1998 45.1001 18.2998C45.0001 18.3998 45.0001 18.3998 45.1001 18.4998V18.5998L44.6001 18.6998C44.9001 19.4998 45.1001 20.2998 45.4001 21.0998C45.7001 21.8998 46.0001 22.6998 45.9001 23.5998C45.9001 23.6998 46.4001 23.7998 46.5001 23.6998C47.1001 24.6998 48.8001 24.0998 49.6001 23.6998C50.9001 23.0998 51.8001 21.8998 51.9001 20.4998V20.3998C52.2001 20.3998 52.3001 20.1998 52.1001 20.0998Z" fill="#EB8B65"/>
<path d="M45.6002 24.4999C45.5002 23.4999 45.3002 22.5999 45.1002 21.6999C45.0002 21.1999 44.9002 20.5999 44.4002 20.5999C43.0002 19.1999 40.6002 18.1999 38.8002 19.4999C38.1002 19.9999 37.7002 20.8999 38.0002 21.6999C38.3002 22.5999 39.1002 23.1999 40.0002 23.4999C40.1002 23.4999 40.2002 23.6999 40.1002 23.7999C39.6002 24.5999 39.8002 25.5999 40.4002 26.2999C41.3002 27.3999 43.0002 27.5999 44.3002 27.2999C45.6002 26.8999 45.8002 25.7999 45.6002 24.4999Z" fill="white"/>
<path d="M45.8002 20.4C44.9002 17.4 45.5002 15.2 45.2002 12.6C45.2002 12.5 44.6002 12.9 44.5002 12.9C44.1002 13 43.0002 13.3 42.9002 13.3C41.5002 13.5 41.2002 11.8 41.1002 10.7V10.6C41.1002 10.4 40.9002 10.4 40.8002 10.5C40.2002 13 39.9002 15.5 40.2002 18C40.5002 20.9 41.5002 25.5 43.5002 28.8C43.7002 29.1 44.0002 29.4 44.3002 29.5C44.9002 29.6 45.4002 29.1 45.9002 29.5C46.2002 29.7 46.4002 29.9 46.7002 30C47.1002 30.2 47.5002 30.1 47.7002 29.8C48.1002 29.4 46.9002 22.6 45.8002 20.4Z" fill="#913939"/>
<path d="M51.1001 10.4C51.1001 10.3 51.0001 10.2 51.0001 10.1C50.8001 9.49995 50.5001 8.89995 50.1001 8.39995C49.8001 7.99995 48.8001 7.49995 48.8001 6.89995C48.3001 6.59995 47.8001 6.29995 47.2001 6.19995C46.9001 6.19995 46.6001 6.19995 46.3001 6.19995C46.1001 6.19995 45.6001 6.49995 45.5001 6.39995C45.4001 6.39995 45.3001 6.39995 45.2001 6.39995C45.1001 6.39995 45.0001 6.49995 44.9001 6.59995C44.8001 6.59995 44.7001 6.59995 44.6001 6.69995C42.9001 7.69995 42.3001 9.49995 42.2001 11.4C42.1001 12.4 42.1001 13.5 42.1001 14.5C42.2001 17.3 42.7001 18.8 45.1001 19.3C46.9001 19.6 49.2001 19.2 50.2001 17.8C51.0001 16.8 51.0001 15.2 51.2001 13.9C51.5001 12.8 51.4001 11.6 51.1001 10.4Z" fill="#EB8B65"/>
<path d="M50.8001 11.2999C50.7001 11.0999 50.6001 10.8999 50.5001 10.7999C50.0001 10.1999 49.2001 10.0999 48.5001 10.3999C47.8001 10.6999 47.7001 11.6999 48.5001 11.8999C48.9001 11.9999 49.3001 11.7999 49.6001 11.8999C49.9001 11.9999 50.2001 12.2999 50.5001 12.1999C51.0001 11.8999 51.0001 11.5999 50.8001 11.2999Z" fill="#913939"/>
<path d="M42.5001 10.9C42.6001 10.7 42.7001 10.5 42.8001 10.4C43.3001 9.8 44.1001 9.7 44.8001 10C45.5001 10.3 45.6001 11.3 44.8001 11.5C44.4001 11.6 44.0001 11.4 43.7001 11.5C43.4001 11.6 43.1001 11.9 42.8001 11.8C42.3001 11.6 42.4001 11.2 42.5001 10.9Z" fill="#913939"/>
<path d="M50.5002 17.1C49.6002 18.6 47.7002 19.5 45.9002 19.3C45.8002 19.3 45.8002 19.5 45.9002 19.5C47.7002 19.7 49.7002 18.7 50.6002 17.2C50.7002 17.1 50.6002 17 50.5002 17.1Z" fill="#C45547"/>
<path d="M69.3001 51.4999C68.9001 50.1999 68.5001 48.7999 68.1001 47.4999C67.6001 45.8999 67.0001 44.3999 66.5001 42.7999C66.4001 42.4999 66.3001 42.0999 66.2001 41.6999C65.5001 38.3999 64.8001 35.1999 64.0001 31.8999C63.5001 29.8999 63.1001 26.7999 61.5001 25.3999C59.2001 23.2999 52.5001 18.8999 52.2001 19.9999C50.6001 25.5999 51.6001 32.4999 52.4001 38.2999C52.9001 41.6999 53.3001 45.0999 54.1001 48.3999C54.5001 50.0999 55.9001 57.0999 57.3001 57.5999C57.7001 57.7999 59.1001 57.7999 60.7001 57.5999C61.8001 57.5999 62.9001 57.4999 63.9001 57.1999C65.0001 56.8999 66.1001 56.5999 67.2001 56.0999C68.0001 55.6999 69.2001 55.1999 69.7001 54.3999C70.1001 53.5999 69.5001 52.3999 69.3001 51.4999Z" fill="#FFC04F"/>
<path d="M53 29.3C52.7 29.4 52.4 29.5 52.2 29.6C51.9 29.7 51.7 29.9 51.5 30.1C51.7 32.9 52.1 35.8 52.5 38.4C52.5 38.5 52.5 38.6 52.5 38.7C54.9 37.2 57 34 54.8 31.6C54.5 31.3 54.2 31.2 54.1 30.8C54 30.4 54.1 30 53.9 29.6C53.6 29.3 53.3 29.2 53 29.3Z" fill="white"/>
<path d="M61 50.0999C60.9 49.9999 60.9 49.7999 61 49.6999C60 48.1999 58.7 46.8999 57 46.6999C55 46.4999 54.6 48.3999 55.4 49.8999C55.8 50.7999 56.7 51.0999 57.2 51.7999C57.4 52.0999 57.6 52.3999 57.5 52.6999C57.2 53.4999 55.5 53.3999 57.6 54.8999C58.2 55.2999 59 55.3999 59.7 55.2999C61.2 55.1999 62.7 54.3999 62.4 52.6999C62.2 51.8999 61.5 50.8999 61 50.0999Z" fill="white"/>
<path d="M45.5001 6.10003C44.5001 6.40003 43.7001 7.10003 43.0001 7.80003C41.7001 9.20003 42.0001 13.6 42.0001 13.5C42.3001 10.8 44.8001 9.00003 47.0001 7.60003L46.8001 6.80003C46.9001 6.80003 47.0001 6.80003 47.0001 6.70003C47.1001 5.80003 46.0001 6.00003 45.5001 6.10003Z" fill="#913939"/>
<path d="M52.1 11.5998C51.9 10.2998 51.7 8.9998 50.8 7.9998C50.1 7.19981 49.1 6.5998 48 6.1998C47.5 5.9998 46 5.4998 46.1 6.6998C46.1 6.7998 45.8 7.79981 45.9 7.79981C46 8.39981 48.2 12.1998 51.3 13.1998C53.4 13.8998 51.4 14.2998 52.1 16.2998C52.1 16.4998 52.4 16.3998 52.4 16.2998C52.5 14.5998 52.4 13.0998 52.1 11.5998Z" fill="#913939"/>
<path d="M52.5001 13.2C52.5001 12.8 52.2001 12.5 51.8001 12.5C51.4001 12.5 51.0001 13 50.9001 13.4C50.7001 14 50.3001 15.1 50.5001 15.8C50.6001 16.2 51.1001 16.3 51.3001 16C52.0001 15.3 52.7001 14.2 52.5001 13.2Z" fill="#EB8B65"/>
<path d="M42.6001 18.4C42.7001 20 43.3001 21.5 44.3001 22.7C44.4001 22.8 44.5001 22.7 44.4001 22.6C43.4001 21.4 42.9001 20 42.8001 18.4C42.8001 18.2 42.6001 18.2 42.6001 18.4Z" fill="#631F1F"/>
<path d="M44.9001 25.4999C45.3001 26.4999 45.5001 27.4999 45.4001 28.5999C45.4001 28.6999 45.6001 28.6999 45.6001 28.5999C45.6001 27.4999 45.5001 26.4999 45.1001 25.3999C45.0001 25.3999 44.8001 25.3999 44.9001 25.4999Z" fill="#631F1F"/>
<path d="M51.5002 8.69994C52.0002 9.49994 52.1002 10.4999 51.8002 11.3999C51.8002 11.4999 52.0002 11.5999 52.0002 11.4999C52.2002 10.4999 52.1002 9.59994 51.6002 8.69994C51.6002 8.49994 51.4002 8.59994 51.5002 8.69994Z" fill="#631F1F"/>
<path d="M52.9001 15.4998C53.3001 16.2998 53.8001 17.0998 54.2001 17.8998C54.7001 18.7998 54.8001 19.6998 55.0001 20.6998C55.0001 20.7998 55.2001 20.7998 55.2001 20.5998C55.1001 19.6998 54.9001 18.7998 54.5001 17.9998C54.1001 17.0998 53.5001 16.2998 53.1001 15.3998C53.0001 15.2998 52.9001 15.3998 52.9001 15.4998Z" fill="#631F1F"/>
<path d="M42.4002 8.39991C41.6002 9.89991 41.0002 11.6999 41.6002 13.3999C41.6002 13.4999 41.8002 13.4999 41.8002 13.2999C41.2002 11.5999 41.8002 9.99991 42.6002 8.49991C42.6002 8.29991 42.4002 8.29991 42.4002 8.39991Z" fill="#631F1F"/>
<path d="M49.7002 13.1998C49.7002 12.7998 49.3002 12.0998 48.9002 12.3998C48.4002 12.6998 48.3002 13.3998 48.7002 13.8998C49.1002 14.4998 49.8002 13.7998 49.7002 13.1998Z" fill="#170301"/>
<path d="M44.8 12.7999C44.8 12.3999 44.4 11.6999 44 11.9999C43.5 12.2999 43.4 12.9999 43.8 13.4999C44.2 14.0999 44.8 13.4999 44.8 12.7999Z" fill="#170301"/>
<path d="M51.9001 13.1999C51.6001 13.5999 51.3001 14.0999 51.1001 14.6999C51.1001 14.7999 51.2001 14.8999 51.3001 14.7999C51.5001 14.2999 51.7001 13.7999 52.1001 13.3999C52.2001 13.1999 52.0001 13.0999 51.9001 13.1999Z" fill="#C45547"/>
<path d="M45.5002 12.6999C44.9002 13.2999 45.2002 14.1999 45.9002 14.4999C46.0002 14.4999 46.1002 14.3999 46.0002 14.2999C45.4002 13.9999 45.2002 13.2999 45.7002 12.7999C45.8002 12.7999 45.6002 12.5999 45.5002 12.6999Z" fill="#C45547"/>
<path d="M46.4002 14.1C46.6002 14 46.8002 14 47.0002 14.1C47.1002 14.1 47.2002 14 47.1002 13.9C46.9002 13.8 46.6002 13.8 46.4002 13.9C46.3002 14 46.3002 14.2 46.4002 14.1Z" fill="#C45547"/>
<path d="M47.6002 14.9999C46.7002 15.1999 45.9002 15.1999 45.1002 14.9999C44.9002 14.9999 44.8002 15.0999 44.8002 15.1999C44.7002 15.5999 44.9002 16.0999 45.2002 16.2999C45.5002 16.4999 45.9002 16.4999 46.3002 16.4999C47.1002 16.4999 47.9002 15.9999 47.8002 15.0999C47.8002 14.9999 47.7002 14.8999 47.6002 14.9999Z" fill="#CF6446"/>
<path d="M45.6001 15.5999C45.8001 15.6999 46.1001 15.6999 46.3001 15.6999C46.9001 15.6999 47.3001 15.4999 47.8001 15.2999C47.8001 15.1999 47.8001 15.1999 47.8001 15.0999C47.8001 14.9999 47.7001 14.8999 47.6001 14.8999C46.7001 15.0999 46.0001 15.0999 45.1001 14.8999C45.1001 15.2999 45.2001 15.5999 45.6001 15.5999Z" fill="white"/>
<path d="M52 15.8999C51.9 15.5999 51.7 15.3999 51.3 15.6999C51.1 15.8999 51 16.0999 51 16.3999C51 16.5999 51.1 16.7999 51.2 16.9999C51.7 17.5999 52.1 16.4999 52 15.8999Z" fill="#FAE1D2"/>
<path d="M83.7 43.0999C84.1 42.8999 84.4 42.7999 84.8 42.7999C84.9 42.7999 84.9 42.5999 84.8 42.5999C84.4 42.5999 83.9 42.6999 83.6 42.9999C83.5 42.9999 83.6 43.0999 83.7 43.0999Z" fill="#2B0303"/>
<path d="M50 64.0999C50.3 64.4999 50.7 64.7999 51.1 65.0999C51.9 65.6999 52.1 66.4999 52.4 67.2999C52.9 68.7999 53.4 70.2999 53.8 71.8999C53.8 71.9999 54 71.9999 54 71.7999C53.6 70.1999 53.1 68.5999 52.5 66.9999C52.3 66.4999 52.1 65.7999 51.8 65.3999C51.3 64.7999 50.6 64.5999 50.2 63.9999C50.1 63.8999 50 63.9999 50 64.0999Z" fill="#2B0303"/>
<path d="M48.9001 51.1999C49.7001 51.3999 50.5001 51.2999 51.3001 51.1999C52.2001 51.0999 53.0001 50.9999 53.9001 50.7999C54.0001 50.7999 54.0001 50.5999 53.8001 50.5999C53.0001 50.7999 52.1001 50.8999 51.3001 50.9999C50.6001 51.0999 49.7001 51.2999 49.0001 50.9999C48.9001 50.9999 48.8001 51.1999 48.9001 51.1999Z" fill="#2B0303"/>
<path d="M32.2002 10.8C32.1002 10.4 31.4002 10.3 31.2002 10.7C31.0002 11.1 30.7002 11.6 30.9002 12C30.9002 12.1 31.0002 12.2 31.0002 12.3C31.0002 12.4 31.0002 12.4 31.0002 12.5C30.9002 12.9 30.9002 13.4 31.4002 13.5C31.7002 13.5 32.0002 13.3 32.0002 13C32.1002 12.2 32.4002 11.5 32.2002 10.8Z" fill="#BF6950"/>
<path d="M25.4 4.19993C25.8 3.09993 25.7 1.79993 24.9 0.899927C24.2 0.199927 22.9 -0.300073 22.1 0.299927C21.7 0.599927 21.6 1.09993 21.3 1.49993C20.9 1.99993 20.5 2.29993 20.6 2.99993C20.7 4.19993 21.9 4.79993 23 5.09993C23 5.19993 23.1 5.19993 23.2 5.19993C24 4.99993 24.7 4.79993 25.4 4.39993C25.5 4.39993 25.5 4.19993 25.4 4.19993Z" fill="#4D140F"/>
<path d="M31.4002 8.89991C31.2002 7.49991 30.7002 5.99991 29.6002 5.09991C28.3002 3.99991 26.1002 3.89991 24.6002 4.29991C19.2002 5.59991 21.6002 13.4999 23.4002 16.7999C24.0002 17.7999 24.6002 18.3999 25.8002 18.4999C26.9002 18.5999 28.0002 18.7999 29.1002 18.3999C30.5002 17.8999 31.6002 16.7999 31.8002 15.1999C31.8002 13.1999 31.6002 10.7999 31.4002 8.89991Z" fill="#BF6950"/>
<path d="M31.3 5.6999C29.3 2.1999 23.4 2.4999 21.1 5.3999C20 6.6999 19.8 8.5999 20 10.2999C20.1 10.7999 20.5 12.9999 21.8 12.4999C22.2 12.2999 22 11.2999 22.1 10.8999C22.3 10.1999 22.5 9.3999 22.9 8.8999C23.1 8.5999 23.4 8.4999 23.7 8.4999C24.8 8.4999 25.8 8.6999 26.9 8.3999C27.4 8.2999 28.2 7.9999 28.6 7.7999C30.5 6.8999 31.2 10.8999 31.5 10.4999C32.5 9.6999 31.9 6.6999 31.3 5.6999Z" fill="#4D140F"/>
<path d="M22.9001 13.9999L22.8001 13.8999C22.7001 13.6999 22.9001 13.4999 22.8001 13.2999C22.8001 13.0999 22.6001 12.7999 22.5001 12.5999C22.3001 12.2999 21.9001 11.8999 21.5001 11.7999C21.1001 11.5999 20.4001 11.9999 20.5001 12.4999C20.7001 13.4999 21.2001 14.3999 21.9001 15.0999C22.5001 15.6999 23.3001 14.7999 22.9001 14.1999C23.0001 14.0999 23.0001 14.0999 22.9001 13.9999Z" fill="#BF6950"/>
<path d="M30.3001 11.9C30.3001 11.6 30.2001 10.9 29.8001 10.9C29.0001 10.8 29.0001 12.3 29.5001 12.6C29.7001 12.7 30.0001 12.7 30.2001 12.4C30.3001 12.3 30.3001 12.1 30.3001 11.9Z" fill="#170301"/>
<path d="M25.4 12.4999C25.4 12.1999 25.3 11.5999 24.9 11.4999C24.1 11.3999 24.2 12.8999 24.7 13.1999C24.9 13.2999 25.2 13.2999 25.3 12.9999C25.3 12.8999 25.4 12.6999 25.4 12.4999Z" fill="#170301"/>
<path d="M27.8 12.2C28.2 12.6 28.6001 13.1 28.2001 13.7C28.1001 13.8 28.3 13.9 28.4 13.8C28.9 13.1 28.4 12.5 27.9 12C27.9 12 27.8 12.2 27.8 12.2Z" fill="#66281B"/>
<path d="M26.9002 13.9998C27.0002 13.8998 27.3002 13.8998 27.4002 13.9998C27.5002 14.0998 27.6002 13.8998 27.5002 13.7998C27.3002 13.6998 27.0002 13.6998 26.7002 13.8998C26.7002 13.8998 26.8002 14.0998 26.9002 13.9998Z" fill="#66281B"/>
<path d="M21.1 12.5999C21.4 12.9999 21.6 13.4999 21.9 13.8999C22 13.9999 22.1 13.8999 22.1 13.7999C21.8 13.3999 21.6 12.8999 21.3 12.4999C21.2 12.3999 21 12.4999 21.1 12.5999Z" fill="#66281B"/>
<path d="M30.5 9.3998C30 8.9998 28.6 8.79981 28.3 9.59981C28.2 9.79981 28.3 10.0998 28.5 10.2998C28.8 10.4998 29.1 10.4998 29.4 10.3998C29.7 10.2998 30 10.2998 30.3 10.2998C30.7 10.3998 31 9.6998 30.5 9.3998Z" fill="#4D1813"/>
<path d="M23.2 10.3999C23.6 9.79995 25.1 9.09995 25.7 9.69995C25.9 9.89995 25.9 10.1999 25.8 10.4999C25.6 10.7999 25.3 10.8999 24.9 10.8999C24.5 10.8999 24.3 10.9999 23.9 11.1999C23.4 11.4999 22.8 10.8999 23.2 10.3999Z" fill="#4D1813"/>
<path d="M29.1 14.3998C28.3 14.5998 27.4 14.7998 26.5 14.7998C26.3 14.7998 26.2 14.9998 26.3 15.1998C26.6 15.8998 27.4 16.0998 28.1 15.9998C28.4 15.9998 28.7 15.7998 29 15.5998C29.2 15.3998 29.4 14.9998 29.4 14.5998C29.5 14.4998 29.3 14.2998 29.1 14.3998Z" fill="#702D1A"/>
<path d="M26.4002 15.0998C26.6002 15.3998 27.3002 15.2998 27.7002 15.2998C28.0002 15.2998 28.3002 15.1998 28.5002 15.0998C28.9002 14.8998 29.1002 14.6998 29.1002 14.2998C28.3002 14.4998 27.4002 14.6998 26.5002 14.6998C26.4002 14.6998 26.2002 14.7998 26.2002 14.9998C26.3002 15.0998 26.4002 15.0998 26.4002 15.0998Z" fill="white"/>
<path d="M31.5002 10.0999C31.4002 10.0999 31.4002 11.3999 31.4002 11.4999C31.4002 12.4999 31.4002 13.4999 31.4002 14.4999C31.4002 15.2999 31.4002 16.3999 30.5002 16.7999C30.1002 16.9999 29.8002 16.7999 29.5002 16.4999C29.1002 16.0999 28.6002 16.0999 28.1002 16.1999C27.4002 16.3999 27.2002 16.9999 26.5002 17.1999C25.9002 17.2999 25.1002 17.2999 24.7002 16.8999C23.2002 15.2999 22.5002 11.5999 22.1002 11.2999C21.5002 10.8999 22.5002 14.4999 22.6002 14.8999C22.9002 16.0999 23.3002 17.0999 23.9002 18.1999C24.5002 19.0999 25.2002 19.5999 26.2002 19.6999C27.4002 19.7999 29.0002 19.5999 30.2002 19.1999C31.3002 18.8999 31.9002 18.5999 32.1002 17.4999C32.2002 15.8999 31.6002 9.99989 31.5002 10.0999Z" fill="#4D140F"/>
<path d="M29.6001 14.1C28.8001 13.6 27.6001 14 26.8001 14.3C26.5001 14.4 25.2001 14.9 25.8001 15.4C26.1001 15.6 26.7001 15.4 27.0001 15.3C27.3001 15.2 27.6001 15 28.0001 15C28.5001 14.9 28.9001 15 29.4001 15C30.0001 14.9 30.1001 14.4 29.6001 14.1Z" fill="#4D140F"/>
<path d="M80.5 51.3999C82.3 54.5999 83.3 58.1999 84 61.7999C84.1 62.0999 84.6 61.9999 84.5 61.6999C83.7 58.0999 82.7 54.3999 80.9 51.1999C80.8 50.7999 80.4 51.0999 80.5 51.3999Z" fill="#FFE9D9"/>
<path d="M75.5001 15.6999C75.3001 15.3999 74.9001 15.1999 74.6001 14.8999C73.8001 14.0999 73.6001 12.9999 72.8001 12.0999C72.1001 11.2999 71.1001 10.8999 70.1001 10.6999C69.5001 10.5999 68.8001 10.4999 68.2001 10.7999C67.5001 11.0999 67.3001 12.0999 66.4001 12.1999C65.5001 12.2999 64.8001 11.5999 63.9001 11.4999C63.2001 11.3999 62.6001 11.5999 62.0001 11.8999C61.4001 12.1999 60.9001 12.5999 60.5001 13.1999C60.3001 13.4999 60.2001 13.8999 60.3001 14.1999C60.3001 14.5999 60.6001 15.0999 60.3001 15.3999C60.0001 15.6999 59.5001 15.6999 59.2001 15.9999C59.0001 16.1999 58.9001 16.5999 58.9001 16.8999C58.9001 17.2999 59.2001 17.6999 59.4001 17.9999C59.7001 18.3999 61.0001 18.8999 61.4001 18.4999C61.6001 18.2999 61.6001 17.8999 61.8001 17.6999C62.0001 17.4999 62.2001 17.5999 62.4001 17.6999C62.6001 17.7999 62.8001 17.9999 62.9001 18.1999C62.8001 17.9999 62.7001 17.7999 62.6001 17.6999C62.8001 17.7999 63.1001 17.7999 63.3001 17.8999C64.4001 17.9999 65.3001 17.3999 66.4001 17.0999C68.0001 16.6999 68.6001 18.0999 69.4001 19.0999C69.9001 19.6999 70.5001 20.0999 71.3001 19.8999C71.4001 19.8999 71.3001 23.2999 71.3001 23.1999C72.2001 21.9999 74.5001 19.2999 75.2001 17.7999C75.6001 17.1999 75.9001 16.2999 75.5001 15.6999Z" fill="#C28053"/>
<path d="M56.8001 49.7C56.6001 49.3 56.8001 48.7 56.6001 48.3C56.4001 47.9 56.1001 47.5 55.7001 47.2C55.1001 46.8 54.3001 46.9 53.9001 47.5C53.4001 48.2 53.8001 48.8 54.4001 49.3C54.7001 49.6 55.1001 49.7 55.5001 49.9C55.9001 50 56.4001 50.2 56.7001 50.1C56.9001 49.9 56.9001 49.7 56.8001 49.7Z" fill="#964939"/>
<path d="M85.1001 42.2999C85.1001 42.1999 85.0001 42.1999 85.0001 42.1999C85.0001 42.1999 85.0001 42.1999 84.9001 42.1999C84.3001 41.9999 83.5001 41.9999 83.0001 42.4999C82.5001 42.9999 83.0001 43.8999 83.2001 44.3999C83.2001 44.5999 83.4001 44.4999 83.5001 44.3999C84.0001 44.0999 84.4001 43.7999 84.8001 43.3999C85.1001 43.0999 85.3001 42.6999 85.1001 42.2999Z" fill="#964939"/>
<path d="M56.4001 46.4C56.4001 46.3 55.6001 46.1999 55.5001 46.0999C54.3001 44.3999 52.5001 43.7 50.4001 43.7C50.2001 43.7 50.1001 43.7999 50.0001 43.7999C49.8001 43.6999 49.5001 43.8 49.3001 44C48.8001 44.7 48.4001 45.5999 47.9001 46.2999C47.8001 46.3999 47.7001 46.5999 47.8001 46.7999C47.8001 46.8999 47.8001 46.9 47.8001 47C47.6001 48.8 47.6001 52 50.4001 52C54.1001 52.1 56.5001 46.5 56.4001 46.4Z" fill="#EB8B65"/>
<path d="M59.9002 41.2999C59.7002 38.0999 57.9002 31.3999 57.7002 31.4999C56.7002 32.0999 55.6002 33.2999 54.9002 34.1999C51.1002 38.6999 48.6002 44.5999 48.7002 44.5999C51.7002 45.0999 55.4002 46.8999 56.6002 49.9999C56.6002 50.0999 56.8002 50.1999 56.9002 49.9999C57.7002 48.4999 58.6002 46.9999 59.4002 45.5999C60.0002 44.0999 60.0002 42.6999 59.9002 41.2999Z" fill="#964939"/>
<path d="M57.0001 80.7999C62.3001 82.5999 85.1001 79.8999 85.7001 79.4999C84.2001 67.5999 79.6001 59.3999 76.6001 53.7999C76.2001 53.0999 76.0001 52.0999 76.1001 52.2999C76.2001 52.3999 76.0001 52.0999 76.0001 52.0999C75.9001 51.9999 75.8001 51.8999 75.7001 51.8999C72.9001 52.3999 62.5001 51.9999 60.2001 52.5999C60.0001 52.4999 59.7001 52.8999 59.7001 53.0999C59.7001 53.5999 59.7001 53.9999 59.7001 54.3999C59.8001 55.0999 59.7001 55.7999 59.5001 56.4999C57.6001 62.6999 56.1001 72.3999 57.0001 80.7999Z" fill="#D1D5E3"/>
<path d="M57.8 26.8999C57.1 29.0999 56.7 31.3999 56.5 33.6999C56.5 33.7999 56.7 33.7999 56.7 33.6999C56.8 31.3999 57.3 29.0999 58 26.8999C58 26.8999 57.8 26.7999 57.8 26.8999Z" fill="#2B0303"/>
<path d="M73.9 15.9998C73.8 15.1998 73.3 14.9998 72.8 14.2998C71.6 12.7998 69.5 12.1998 67.6 12.4998C64.1 13.0998 62.5 15.4998 62.4 18.0998C62.4 18.5998 62 18.8998 61.6 19.0998C61.4 19.1998 61 19.3998 61 19.6998C61 20.0998 61.4 20.3998 61.8 20.4998C61.9 20.4998 61.9 20.5998 61.9 20.5998C61.9 20.6998 61.9 20.8998 61.8 21.0998C61.8 21.3998 61.7 21.6998 61.7 22.0998C61.7 23.2998 61.8 24.6998 62.7 25.1998C64.1 25.8998 66.2 25.8998 67.7 25.2998C68.7 24.7998 69.4 23.6998 70.1 22.8998C71.2 21.5998 72.4 20.9998 73.2 19.4998C74 18.3998 74.2 17.1998 73.9 15.9998Z" fill="#EB8B65"/>
<path d="M83.9001 42.3999C83.9001 42.2999 83.2 42.7999 83.1 42.7999C82.1 42.1999 78.1001 43.1999 77.5001 43.6999C76.6001 44.3999 77.6001 46.3999 80.0001 51.1999C80.0001 51.2999 80.1 51.2999 80.1 51.2999C81 52.9999 82.5 54.0999 84.2 53.2999C87.6 51.8999 85.0001 44.8999 83.9001 42.3999Z" fill="#EB8B65"/>
<path d="M68.6 38.8999C67.7 35.9999 66.5 33.2999 65.2 30.5999C64.6 29.3999 64 28.0999 63.1 27.0999C62.4 26.1999 61.3 25.2999 60.4 24.5999C60.1 24.3999 59.6 24.5999 59.6 24.7999C57.7 26.1999 57 31.2999 57 33.0999C57 36.6999 57.9 40.0999 59 43.4999C59.1 43.7999 59.6 43.6999 59.6 43.3999C61.9 43.9999 64.3 43.8999 66.6 42.9999C67.3 42.6999 68.8 42.1999 69.2 41.3999C69.5 40.7999 68.8 39.5999 68.6 38.8999Z" fill="#FFC04F"/>
<path d="M62.3002 27.3999C61.7002 26.8999 60.7002 26.6999 60.6002 27.6999C60.5002 28.1999 60.8002 28.7999 61.1002 29.1999C61.2002 29.3999 59.6002 29.1999 59.4002 30.0999C59.3002 30.3999 59.3002 30.6999 59.4002 30.8999C59.5002 31.3999 59.7002 31.7999 60.1002 32.1999C60.9002 32.8999 61.9002 32.9999 62.8002 32.5999C63.5002 32.0999 63.8002 30.8999 64.1002 30.1999C63.7002 29.1999 63.2002 28.0999 62.3002 27.3999Z" fill="white"/>
<path d="M75.0002 31.1C74.0002 30.5 72.9002 29.9 72.2002 29C71.2002 27.8 71.5002 26.5 71.5002 25C71.5002 22 72.0002 19.9 73.5002 17.6C73.7002 17.3 73.2002 16.9 72.9002 17.1C72.9002 17.1 72.9002 17.2 72.8002 17.2C72.7002 17.2 72.7002 17.2 72.6002 17.2C71.1002 18.1 69.5002 18.9 68.1002 20C66.9002 20.9 66.1002 22.1 65.0002 23C64.8002 23.2 65.2002 23.5 65.4002 23.5C65.5002 24.8 65.6002 26.4 65.3002 27.7C64.9002 29.8 62.2002 30.5 60.4002 31.2C60.0002 31.3 60.2002 31.9 60.6002 31.8C60.6002 31.8 60.6002 31.8 60.7002 31.9C62.8002 33.5 65.3002 34.1 67.9002 33.9C70.2002 33.7 73.2002 33.2 75.0002 31.6C75.2002 31.4 75.1002 31.1 75.0002 31.1Z" fill="#EB8B65"/>
<path d="M80.4 34.3999C79.9 33.3999 79.2 32.1999 78.2 31.5999C77.3 30.9999 76.3 30.6999 75.3 30.3999C74.8 30.2999 74.3 30.0999 73.8 29.9999C73 29.8999 72.1 30.7999 71.3 31.0999C70.2 31.4999 69 31.5999 67.9 31.4999C67 31.3999 66.1 31.1999 65.3 30.8999C64.8 30.6999 64.4 30.4999 64 30.1999C63.8 29.9999 63.5 29.5999 63.2 29.6999C61.9 29.7999 58.9 30.7999 58 31.1999C56.5 31.8999 54.7 34.9999 54.8 34.9999C54.5 36.3999 55.9 37.5999 57.3 38.2999C56.3 43.9999 57.1 48.1999 59.6 53.1999C59.7 53.3999 59.9 53.5999 60.1 53.6999C61.3 53.9999 65.6 54.6999 67.5 54.3999C69.9 54.0999 72.8 54.0999 75.9 52.4999C76.9 51.9999 77.1 46.0999 76.7 43.8999C77.5 42.4999 78.3 41.0999 79.1 39.6999C79.6 38.7999 80.3 37.7999 80.6 36.7999C81.1 35.7999 80.9 35.1999 80.4 34.3999Z" fill="#964939"/>
<path d="M85.0002 42.7C85.1002 42.8 85.2002 42.4 85.1002 42.2C83.7002 37.6 79.7002 31.9 77.6002 31.2C77.5002 31.2 76.3002 34.1 75.8002 35.4C75.3002 36.6 74.7002 37.9999 74.5002 39.2999C74.3002 40.5999 74.9002 41.9999 75.2002 43.2999C75.5002 44.5999 75.8002 45.9999 76.3002 47.2999C76.2002 47.4 77.2002 48.3 77.3002 48.2C78.4002 45.8 84.2002 42 85.0002 42.7Z" fill="#964939"/>
<path d="M49.7 45.8999C45 45.3999 41.4 43.7999 40.4 43.2999C40.2 43.1999 39.9 43.1999 39.7 43.2999C39.2 43.4999 38.4 43.9999 38.1 44.4999C37.6 45.1999 37.8 45.5999 38.4 46.0999C40.4 47.5999 44.2 50.9999 49.8 51.9999C50.6 52.1999 50.2 45.9999 49.7 45.8999Z" fill="#EB8B65"/>
<path d="M82.2 47.4999C79.3 46.4999 76.1 44.3999 76.3 44.3999C76.2 44.3999 76.2 44.4999 76.1 44.4999C75.6 45.2999 75.1 46.0999 74.6 46.9999C74.5 47.1999 74.6 47.2999 74.7 47.3999L75 47.2999C76.2 48.6999 77.2 50.1999 78.7 51.1999C79.8 51.9999 81.8 53.5999 83.3 53.3999C86.4 53.0999 83.7 47.9999 82.2 47.4999Z" fill="#EB8B65"/>
<path d="M76.0001 34.5999C74.4001 38.4999 75.0001 42.6999 75.9001 46.6999C75.9001 46.7999 76.1001 46.7999 76.1001 46.5999C75.2001 42.6999 74.5001 38.4999 76.1001 34.5999C76.2001 34.5999 76.0001 34.4999 76.0001 34.5999Z" fill="#2B0303"/>
<path d="M64.2001 17.5C63.6001 17.5 63.4001 18.8 63.9001 19C64.7001 19.2 65.0001 17.5 64.2001 17.5Z" fill="#170301"/>
<path d="M63.1 21.0999C62.7 21.1999 62.3001 21.1999 61.9001 21.1999C61.9001 21.4999 61.8 21.7999 61.8 22.1999C62.2 22.0999 63.1001 21.7999 63.2001 21.2999C63.3001 21.1999 63.2 21.0999 63.1 21.0999Z" fill="white"/>
<path d="M66.2002 16.4998C66.2002 16.4998 66.2002 16.3998 66.1002 16.3998C65.7002 15.6998 64.8002 15.3998 64.1002 15.6998C63.9002 15.7998 63.7002 15.8998 63.6002 16.0998C63.1002 17.1998 65.3002 17.6998 65.9002 17.3998C66.4002 17.1998 66.4002 16.7998 66.2002 16.4998Z" fill="#C28053"/>
<path d="M69.2001 23.1998C68.8001 24.7998 67.3001 25.6998 65.6001 25.6998C65.5001 25.6998 65.5001 25.8998 65.6001 25.8998C67.4001 25.8998 68.9002 24.9998 69.3002 23.2998C69.4002 23.0998 69.2001 22.9998 69.2001 23.1998Z" fill="#C45547"/>
<path d="M60.5002 55.8999C65.5002 56.7999 71.4002 57.4999 75.5002 53.7999C75.6002 53.6999 75.5002 53.5999 75.4002 53.6999C71.4002 57.3999 65.5002 56.6999 60.6002 55.7999C60.5002 55.6999 60.4002 55.8999 60.5002 55.8999Z" fill="#2B0303"/>
<path d="M57.6002 37.0999C56.6002 40.9999 56.6002 44.9999 57.5002 48.8999C57.5002 48.9999 57.7002 48.9999 57.7002 48.7999C56.8002 44.8999 56.9002 40.8999 57.8002 37.0999C57.8002 37.0999 57.6002 36.9999 57.6002 37.0999Z" fill="#2B0303"/>
<path d="M55.5002 48.2999C55.8002 48.4999 56.0002 48.6999 56.2002 48.9999C56.3002 49.0999 56.4002 48.9999 56.4002 48.8999C56.2002 48.5999 55.9002 48.2999 55.6002 48.0999C55.5002 48.0999 55.4002 48.2999 55.5002 48.2999Z" fill="#2B0303"/>
<path d="M87.2002 66.4998C86.7002 64.6998 86.2002 62.8998 85.5002 61.1998C85.1002 60.2998 84.7002 59.3998 83.6002 59.4998C81.5002 59.6998 79.3002 60.3998 77.2002 61.0998C77.1002 61.0998 77.1002 61.1998 77.0002 61.1998C76.0002 61.2998 76.0002 62.4998 76.2002 63.3998C76.7002 65.8998 77.4002 68.4998 78.2002 70.8998C78.3002 71.1998 78.4002 71.5998 78.5002 72.0998C78.6002 72.5998 78.9002 72.8998 79.4002 73.1998C79.6002 73.2998 79.8002 73.3998 80.0002 73.4998C80.2002 73.5998 80.5002 73.5998 80.7002 73.5998C80.8002 73.5998 80.8002 73.5998 80.9002 73.5998C82.3002 73.3998 83.7002 73.1998 85.1002 72.7998C85.7002 72.6998 88.4002 72.0998 88.3002 71.3998C88.0002 69.7998 87.6002 68.0998 87.2002 66.4998Z" fill="#FAE1D2"/>
<path d="M77.1 62.1999C77.9 62.6999 78 63.7999 78.2 64.5999C78.4 65.4999 78.6 66.4999 78.9 67.3999C79.3 69.2999 79.8 71.1999 80.2 73.0999C80.2 73.1999 80.4 73.1999 80.4 72.9999C79.9 70.8999 79.4 68.6999 78.9 66.5999C78.7 65.5999 78.4 64.4999 78.2 63.4999C78 62.8999 77.8 62.2999 77.2 61.9999C77.1 61.8999 77 62.0999 77.1 62.1999Z" fill="#2B0303"/>
<path d="M79.2002 46.2C80.6002 46.7 81.8002 47.4 82.9002 48.3C83.0002 48.4 83.1002 48.2 83.0002 48.2C81.9002 47.3 80.6002 46.6 79.2002 46.1C79.2002 46 79.1002 46.2 79.2002 46.2Z" fill="#C45547"/>
<path d="M75.2002 30.0999C73.5002 30.6999 72.5002 33.0999 71.9002 34.6999C71.1002 36.9999 70.8002 39.5999 71.0002 41.9999C71.1002 43.2999 71.4002 44.5999 71.6002 45.8999C71.8002 46.9999 72.0002 48.1999 72.2002 49.2999C72.7002 51.5999 73.5002 53.8999 74.3002 56.1999C75.1002 58.3999 76.0002 60.6999 77.0002 62.7999C77.1002 63.0999 77.6002 62.7999 77.4002 62.4999C75.7002 58.6999 74.2002 54.6999 73.1002 50.5999C72.5002 48.3999 72.2002 46.1999 71.8002 43.9999C71.3002 41.4999 71.3002 38.9999 71.9002 36.4999C72.2002 35.2999 72.6002 34.0999 73.2002 32.9999C73.7002 32.0999 74.3002 30.7999 75.4002 30.4999C75.7002 30.4999 75.5002 29.9999 75.2002 30.0999Z" fill="#FFE9D9"/>
<path d="M70.3001 11.7999C70.1001 11.6999 66.3001 12.5999 64.8001 12.8999C64.8001 12.8999 64.8001 12.7999 64.9001 12.7999C65.0001 12.5999 64.7001 12.4999 64.6001 12.5999C64.6001 12.6999 64.5001 12.6999 64.5001 12.7999L63.9001 12.6999C63.2001 13.8999 63.2001 15.5999 65.1001 16.0999C65.6001 16.1999 66.3001 16.1999 66.6001 16.7999C66.9001 17.3999 66.6001 18.1999 66.7001 18.8999C66.7001 19.0999 66.8001 19.3999 67.0001 19.4999C67.3001 19.7999 67.8001 19.8999 68.2001 19.9999C68.8001 20.0999 69.5001 19.7999 70.1001 19.8999C70.4001 19.9999 70.7001 20.5999 71.0001 20.8999C71.2001 21.1999 71.4001 22.2999 71.5001 22.5999C71.5001 22.7 71.5001 24.7 71.6001 24.5999C73.7001 22.5 75.5001 19.2999 75.0001 16.1999C74.5001 13.9999 72.5001 12.4999 70.3001 11.7999Z" fill="#C28053"/>
<path d="M70.5001 18.5999C69.0001 17.9999 67.6001 20.7999 68.7001 21.5999C69.5001 22.1999 70.2001 20.9999 70.5001 20.4999C70.8001 19.9999 71.4001 18.8999 70.5001 18.5999Z" fill="#EB8B65"/>
<path d="M70.1001 18.9999C69.5001 19.2999 69.1001 19.6999 68.9001 20.2999C68.9001 20.3999 69.0001 20.4999 69.1001 20.3999C69.3001 19.8999 69.7001 19.3999 70.2001 19.1999C70.3001 19.0999 70.2001 18.8999 70.1001 18.9999Z" fill="#C45547"/>
<path d="M61.9002 20.1999C62.1002 20.2999 62.2002 20.2999 62.4002 20.3999C62.5002 20.4999 62.6002 20.2999 62.5002 20.1999C62.3002 20.0999 62.1002 19.9999 62.0002 19.9999C61.8002 19.8999 61.8002 20.0999 61.9002 20.1999Z" fill="#C45547"/>
<path d="M64.3001 12.4998C63.6001 12.1998 62.9001 12.6998 62.5001 13.2998C62.1001 13.9998 62.5001 14.3998 63.1001 14.6998C63.2001 14.7998 63.3001 14.5998 63.2001 14.4998C63.0001 14.3998 62.8001 14.2998 62.7001 14.0998C62.5001 13.7998 62.6001 13.4998 62.7001 13.1998C63.0001 12.6998 63.6001 12.2998 64.2001 12.5998C64.3001 12.6998 64.4001 12.4998 64.3001 12.4998Z" fill="#8A5430"/>
<path d="M74.9001 17.2C74.8001 17.9 74.5001 18.7 73.8001 18.8C73.1001 19 72.8001 18.5 72.4001 18.2C71.9001 17.8 71.4001 18 70.9001 18.3C70.8001 18.4 70.9001 18.5 71.0001 18.5C71.4001 18.2 71.9001 18.1 72.4001 18.5C72.6001 18.6 72.6001 18.8 72.8001 18.9C73.1001 19.1 73.5001 19.1 73.8001 19.1C74.7001 18.9 75.1001 18.1 75.2001 17.3C75.1001 17.1 74.9001 17.1 74.9001 17.2Z" fill="#8A5430"/>
<path d="M66.8002 16.9C67.0002 17.1 67.2002 17.2 67.5002 17.3C67.9002 17.4 69.1002 17.4 69.1002 18C69.1002 18.1 69.3002 18.1 69.3002 18C69.3002 16.9 67.4002 17.4 66.9002 16.8C66.8002 16.7 66.7002 16.8 66.8002 16.9Z" fill="#8A5430"/>
<path d="M72.4002 14.7C72.1002 13.9 71.6002 13 70.7002 12.7C70.3002 12.5 69.8002 12.5 69.4002 12.5C68.9002 12.6 68.7002 12.8 68.2002 13C67.5002 13.3 67.0002 12.8 66.4002 12.7C66.0002 12.6 65.5002 12.7 65.1002 12.9C64.4002 13.2 64.0002 14 64.2002 14.7C64.2002 14.8 64.4002 14.8 64.4002 14.6C64.1002 13.3 65.5002 12.6 66.6002 12.9C67.1002 13 67.6002 13.4 68.1002 13.2C68.4002 13.1 68.6002 12.9 68.9002 12.8C69.3002 12.6 69.8002 12.6 70.3002 12.7C71.3002 12.9 71.8002 13.8 72.2002 14.7C72.2002 14.9 72.4002 14.9 72.4002 14.7Z" fill="#8A5430"/>
<path d="M71.4002 22.9C71.3002 22.1999 71.1002 21.1 70.4002 20.7C70.4002 20.8 70.3002 20.9 70.3002 21C70.8002 21.2 71.0002 22 71.1002 22.5C71.2002 23.1 71.3002 24.1999 70.5002 24.4C69.5002 24.8 68.8002 23.6999 68.8002 22.7999C68.8002 22.0999 69.0002 21.5 69.5002 21.1C69.6002 21 69.4002 20.7 69.3002 20.9C68.6002 21.6 68.4002 22.6 68.7002 23.5C69.0002 24.2 69.6002 24.9999 70.4002 24.7999C71.2002 24.4999 71.5002 23.6999 71.4002 22.9Z" fill="white"/>
<path d="M70.1 21.1C70 21.4 69.8 21.5 69.5 21.6C69.4 21.6 69.4 21.8 69.6 21.8C69.9 21.7 70.2 21.5 70.3 21.2C70.3 21.1 70.1 21 70.1 21.1Z" fill="#C45547"/>
<path d="M63.6 51.2999C64.6 52.4999 65.7 53.4999 67.1 54.2999C67.2 54.3999 67.3 54.1999 67.2 54.0999C65.9 53.2999 64.7 52.2999 63.8 51.0999C63.7 51.0999 63.5 51.1999 63.6 51.2999Z" fill="#2B0303"/>
<path d="M69.9 50.3C69.8 50.8 69.7 51.2 69.5 51.7C69.5 51.8 69.7 51.9 69.7 51.8C69.8 51.3 69.9 50.9 70.1 50.4C70.1 50.3 69.9 50.2 69.9 50.3Z" fill="#2B0303"/>
<path d="M64.7001 57.3998C64.2001 58.4998 64.0001 59.5998 63.9001 60.6998C63.9001 60.7998 64.1001 60.7998 64.1001 60.6998C64.1001 59.5998 64.4001 58.4998 64.8001 57.4998C65.0001 57.3998 64.8001 57.2998 64.7001 57.3998Z" fill="#2B0303"/>
<path d="M77.3002 45.2C76.1002 44.1 75.1002 42.5 74.4002 41.1C74.2002 40.7 74.0002 40.3 73.7002 40C73.5002 39.7 73.3002 39.4 73.0002 39.2C72.5002 38.8 71.7002 39 71.2002 39.1C70.7002 39.2 69.8002 39.4 69.5002 39.9C69.2002 40.5 69.6002 41.5 69.8002 42.1C69.9002 42.3 70.0002 42.4 70.2002 42.4C70.1002 42.8 70.1002 43.1 70.4002 43.5C70.5002 43.6 70.5002 43.7 70.6002 43.7C70.5002 44.3 70.8002 44.9 71.2002 45.3C71.3002 45.4 71.3002 45.4 71.4002 45.4V45.5C71.5002 45.9 71.7002 46.2 72.0002 46.4C72.3002 46.5 72.6002 46.6 72.9002 46.6C73.0002 46.6 73.2002 46.7 73.2002 46.8C73.6002 47.4 74.9002 47.8 75.4002 48C76.9002 48.3 77.5002 45.3 77.3002 45.2ZM70.8002 41.4C70.8002 41.3 70.7002 41.3 70.7002 41.2C70.7002 41.1 71.2002 40.4 71.4002 40.5C71.6002 40.5 71.8002 40.6 72.0002 40.6C71.6002 40.8 71.2002 41.1 70.8002 41.4Z" fill="#EB8B65"/>
<path d="M70.7 41.3998C70.5 41.5998 70.3 41.7998 70.3 42.0998C70.3 42.1998 70.5 42.2998 70.5 42.1998C70.6 41.9998 70.7 41.6998 70.9 41.5998C71 41.4998 70.8 41.2998 70.7 41.3998Z" fill="#C45547"/>
<path d="M73.5001 41.4999C72.4001 41.6999 71.7001 42.5999 70.9001 43.3999C70.8001 43.4999 70.9001 43.5999 71.0001 43.4999C71.7001 42.7999 72.4001 41.8999 73.5001 41.6999C73.7001 41.5999 73.6001 41.3999 73.5001 41.4999Z" fill="#C45547"/>
<path d="M74.5001 43.2999C73.3001 43.0999 72.4001 44.3999 71.7001 45.1999C71.6001 45.2999 71.8001 45.3999 71.8001 45.2999C72.4001 44.5999 73.3001 43.2999 74.4001 43.4999C74.6001 43.4999 74.6001 43.2999 74.5001 43.2999Z" fill="#C45547"/>
<path d="M73.9001 45.4C74.1001 45.4 74.3001 45.4999 74.4001 45.5999C74.5001 45.7999 74.3001 45.9999 74.1001 46.0999C73.8001 46.2999 73.6001 46.4 73.3001 46.5C73.2001 46.5 73.2001 46.7 73.4001 46.7C73.7001 46.6 74.0001 46.4999 74.2001 46.2999C74.4001 46.1999 74.6001 46.1 74.6001 45.9C74.7001 45.5 74.3001 45.2 73.9001 45.2C73.8001 45.2 73.8001 45.4 73.9001 45.4Z" fill="#C45547"/>
<path d="M83.4001 60.2999C83.5001 61.1999 83.5001 61.9999 83.3001 62.8999C83.2001 63.1999 83.2001 63.6999 83.0001 63.9999C82.6001 64.4999 82.0001 64.1999 81.5001 63.9999C80.2001 63.3999 79.1001 62.5999 77.8001 61.9999C77.7001 61.8999 77.6001 62.0999 77.7001 62.1999C78.6001 62.5999 79.4001 63.0999 80.3001 63.5999C80.7001 63.7999 81.2001 64.0999 81.6001 64.1999C81.9001 64.2999 82.3001 64.4999 82.6001 64.4999C83.2001 64.4999 83.4001 63.3999 83.5001 62.9999C83.7001 62.0999 83.7001 61.1999 83.6001 60.2999C83.6001 60.0999 83.4001 60.0999 83.4001 60.2999Z" fill="#2B0303"/>
<path d="M82.5002 62.0999C82.1002 61.7999 81.7002 62.1999 81.7002 62.5999C81.7002 63.1999 82.8002 63.5999 82.8002 62.7999C82.7002 62.5999 82.6002 62.2999 82.5002 62.0999Z" fill="#2B0303"/>
<path d="M67.7 69.2998C67.2 72.5998 66.7 75.7998 66.3 79.0998C66.3 79.1998 66.5 79.1998 66.5 79.0998C66.9 75.7998 67.4 72.5998 67.9 69.2998C67.9 69.2998 67.7 69.1998 67.7 69.2998Z" fill="#2B0303"/>
<path d="M40.8001 43.4999C40.6001 42.2999 40.0001 41.1999 39.1001 40.3999C38.7001 39.9999 38.2001 39.5999 37.8001 39.1999C37.3001 38.5999 36.9002 37.9999 36.4002 37.3999C36.1002 36.9999 35.6001 36.7999 35.3001 37.3999C35.1001 37.7999 35.4001 38.1999 35.6001 38.5999C35.8001 38.8999 36.0001 39.0999 36.1001 39.2999C36.2001 39.3999 36.3001 39.4999 36.3001 39.6999C36.4001 39.7999 36.5002 39.9999 36.4002 40.0999C36.3002 40.1999 36.2001 40.1999 36.1001 40.1999C36.0001 40.1999 35.9001 40.0999 35.8001 40.0999C35.5001 39.8999 35.3001 39.6999 35.1001 39.4999C34.5001 38.9999 34.0002 38.3999 33.4002 37.8999C33.1002 37.6999 32.6002 37.1999 32.2002 37.4999C32.1002 37.5999 32.1002 37.5999 32.0002 37.6999C31.9002 37.5999 31.7002 37.5999 31.5002 37.6999C31.2002 37.9999 31.4002 38.9999 31.6002 39.2999C31.6002 39.3999 31.7001 39.4999 31.8001 39.5999C31.7001 40.0999 31.5002 40.4999 31.7002 41.0999C31.9002 41.3999 32.1001 41.6999 32.4001 41.8999C32.4001 42.1999 32.4002 42.4999 32.6002 42.6999C32.9002 43.0999 33.5002 43.2999 33.9002 43.6999C35.8002 45.4999 38.4001 46.0999 38.6001 45.9999C39.3001 45.2999 40.0001 44.4999 40.5001 43.6999C40.4001 43.6999 40.8001 43.5999 40.8001 43.4999Z" fill="#EB8B65"/>
<path d="M32.6001 41.7999C32.9001 41.3999 33.1001 41.4 33.2001 41.7C33.2001 41.8 33.3001 41.8 33.3001 41.9C33.4001 42.1 33.5001 42.3 33.7001 42.5C33.9001 42.8 34.1001 43 34.5001 43.2C35.5001 43.7 36.6001 42.8 37.4001 43.7C37.5001 43.8 37.6001 43.6999 37.5001 43.5999C37.1001 43.1999 36.7001 43 36.1001 43C35.6001 43 35.2001 43.1999 34.7001 43.0999C34.1001 42.8999 33.8001 42.4 33.5001 41.9C33.3001 41.7 33.1001 41.2 32.8001 41.2C32.4001 41.2 32.4001 41.5999 32.4001 41.7999C32.4001 41.8999 32.6001 41.8999 32.6001 41.7999Z" fill="#C45547"/>
<path d="M32 39.8999C32.9 39.8999 33.2 41.2999 33.7 41.7999C33.9 41.9999 34 42.0999 34.2 42.0999C34.7 42.1999 35.0001 42.2999 35.4001 42.5999C35.5001 42.6999 35.6 42.4999 35.5 42.4999C35.2 42.2999 35 42.0999 34.7 41.9999C34.5 41.8999 34.2 41.8999 34 41.7999C33.7 41.5999 33.5 41.1999 33.3 40.8999C33 40.2999 32.7 39.5999 32 39.5999C31.9 39.6999 31.9 39.8999 32 39.8999Z" fill="#C45547"/>
<path d="M32.3 38.0999C33 38.7999 33.1 39.6999 33.6 40.4999C34.1 41.1999 34.9 41.4999 35.6 41.6999C35.7 41.6999 35.8 41.5999 35.7 41.4999C34.7 41.1999 33.9 40.7999 33.5 39.7999C33.2 39.1999 33 38.4999 32.5 37.9999C32.3 37.8999 32.2 37.9999 32.3 38.0999Z" fill="#C45547"/>
<path d="M48.6001 45.9998C49.7001 46.1998 50.7001 46.6998 51.5001 47.4998C51.6001 47.5998 51.7001 47.3998 51.6001 47.3998C50.7001 46.5998 49.7001 46.0998 48.6001 45.7998C48.5001 45.7998 48.5001 45.9998 48.6001 45.9998Z" fill="#C45547"/>
<path d="M84.7002 42.7998C84.4002 42.7998 84.0002 42.8998 83.7002 42.9998C83.6002 42.9998 83.6002 43.1998 83.8002 43.1998C84.1002 43.0998 84.4002 42.9998 84.7002 42.9998C84.8002 42.9998 84.8002 42.7998 84.7002 42.7998Z" fill="#2B0303"/>
<path d="M38.2001 23.7999C38.4001 25.4999 38.7001 27.1999 39.0001 28.9C39.0001 28.9999 39.2001 28.9999 39.2001 28.7999C38.8001 27.0999 38.5001 25.4 38.4001 23.7C38.3001 23.7 38.1001 23.6999 38.2001 23.7999Z" fill="#2B0303"/>
<path d="M31.1 62.0998C31.9 62.5998 32.7 63.1998 33.4 63.9998C34.1 64.8998 34.3 65.8998 34.6 66.8998C35.2 69.0998 35.9 71.3998 36.7 73.4998C36.7 73.5998 36.9 73.5998 36.9 73.3998C36 70.9998 35.3 68.4998 34.6 66.0998C34.4 65.1998 34.1 64.3998 33.4 63.6998C32.8 62.9998 32 62.3998 31.2 61.8998C31.1 61.7998 31 61.9998 31.1 62.0998Z" fill="#2B0303"/>
<path d="M19.0001 30.9999C18.6001 31.6999 18.4001 32.4999 18.4001 33.1999C18.4001 33.2999 18.6001 33.2999 18.6001 33.1999C18.6001 32.3999 18.8001 31.6999 19.1001 31.0999C19.3001 30.9999 19.1001 30.8999 19.0001 30.9999Z" fill="#C45547"/>
<path d="M16.9 32.4998C16.8 33.1998 17 33.8998 17.3 34.4998C17.4 34.5998 17.5 34.4998 17.5 34.3998C17.2 33.7998 17.1 33.1998 17.2 32.4998C17.1 32.3998 17 32.3998 16.9 32.4998Z" fill="#C45547"/>
<path d="M15.7001 32.7C15.8001 33.4 15.9001 34 16.2001 34.7C16.2001 34.8 16.4001 34.8 16.4001 34.6C16.2001 34 16.0001 33.3 15.9001 32.7C15.8001 32.6 15.6001 32.6 15.7001 32.7Z" fill="#C45547"/>
<path d="M14.2002 32.7999C14.3002 33.2999 14.5002 33.7999 15.0002 34.0999C15.1002 34.1999 15.2002 33.9999 15.1002 33.8999C14.7002 33.5999 14.4002 33.1999 14.4002 32.7999C14.4002 32.6999 14.2002 32.6999 14.2002 32.7999Z" fill="#C45547"/>
<path d="M43.9 35C43.8 34.6 43.6 34.2 43.2 34.3C42.7 34.3 42.5 34.9 42.5 35.3C42.5 35.9 43.2 36.8 43.8 36.1C43.9 35.8 43.9 35.4 43.9 35Z" fill="#170301"/>
<path d="M44.6001 41.5998C44.4001 41.1998 44.1001 40.8999 43.7001 40.9999C43.2001 41.0999 43.1001 41.6998 43.2001 42.0998C43.3001 42.6998 44.2001 43.3998 44.6001 42.5998C44.8001 42.3998 44.8001 41.9998 44.6001 41.5998Z" fill="#170301"/>
<path d="M18.4001 36.0999C18.6001 38.5999 19.0001 41.0999 19.7001 43.4999C19.7001 43.5999 19.9001 43.5999 19.9001 43.3999C19.2001 40.9999 18.8001 38.5999 18.6001 36.0999C18.5001 35.9999 18.4001 35.9999 18.4001 36.0999Z" fill="#2B0303"/>
<path d="M33.1001 23.8C32.3001 25.5 30.7001 26.7 28.8001 26.9C28.7001 26.9 28.7001 27.1 28.8001 27.1C30.8001 26.9 32.5001 25.7 33.3001 24C33.3001 23.8 33.1001 23.7 33.1001 23.8Z" fill="#2B0303"/>
<path d="M15.2 46.3999C14.8 45.9999 14 45.5999 13.4 45.3999C11.8 44.6999 10 43.6999 8.70004 42.5999C8.20004 42.0999 8.00004 41.0999 7.30004 40.9999C6.80004 40.8999 5.90004 40.7999 5.50004 41.0999C4.70004 41.4999 4.40004 42.8999 4.60004 43.7999C4.60004 43.8999 6.30004 45.9999 8.70004 48.2999C10 49.5999 11.8 50.7999 13.6 51.0999C13.7 51.0999 15.1 50.4999 15.4 49.8999C15.7 48.9999 15.9 47.0999 15.2 46.3999Z" fill="#BF6950"/>
<path d="M8.60009 42.8999C8.40009 41.8999 7.80009 40.8999 7.10009 40.0999C6.10009 38.9999 6.00009 37.8999 5.70009 36.4999C5.70009 36.3999 5.00009 35.8999 5.00009 36.1999C5.00009 35.8999 5.00009 35.4999 4.90009 35.1999C4.70009 34.7999 4.40009 34.7999 4.10009 34.8999C4.20009 34.3999 4.40009 33.5999 3.90009 33.2999C3.20009 32.8999 2.80009 33.5999 2.50009 34.2999C2.20009 33.7999 1.60009 34.5999 1.50009 34.7999C0.700092 36.3999 0.800092 38.7999 1.60009 40.4999C2.30009 42.0999 3.80009 43.1999 5.10009 44.2999C5.20009 44.3999 5.30009 44.3999 5.30009 44.3999C5.90009 44.5999 8.60009 42.9999 8.60009 42.8999Z" fill="#BF6950"/>
<path d="M12.2001 44.8C13.2001 45 14.1001 45.4 14.9001 46C15.0001 46.1 15.1001 45.9 15.0001 45.8C14.2001 45.2 13.3001 44.8 12.3001 44.5C12.2001 44.5 12.1001 44.7 12.2001 44.8Z" fill="#66281B"/>
<path d="M4.90015 36.4998C4.90015 37.2998 5.10015 38.0998 5.40015 38.8998C5.40015 38.9998 5.60015 38.9998 5.60015 38.7998C5.30015 37.9998 5.10015 37.2998 5.10015 36.4998C5.10015 36.3998 4.90015 36.3998 4.90015 36.4998Z" fill="#66281B"/>
<path d="M3.90013 35.4C3.70013 36.4 3.70013 37.4 4.00013 38.4C4.00013 38.5 4.20013 38.4999 4.20013 38.2999C4.00013 37.2999 3.90013 36.3 4.10013 35.4C4.10013 35.3 3.90013 35.3 3.90013 35.4Z" fill="#66281B"/>
<path d="M2.60012 34.7C2.30012 35.9 2.10012 37 2.50012 38.2C2.50012 38.3 2.70012 38.3 2.70012 38.1C2.30012 37 2.50012 35.9 2.80012 34.7C2.80012 34.6 2.60012 34.6 2.60012 34.7Z" fill="#66281B"/>
<path d="M30 4.89997C30.6 5.69997 30.7 6.69997 30.2 7.49997C30.1 7.59997 30.3 7.69997 30.4 7.59997C30.9 6.69997 30.8 5.59997 30.2 4.79997C30.1 4.69997 30 4.79997 30 4.89997Z" fill="#2B0303"/>
<path d="M28.3 5.09992C28.7 5.69992 29.1 6.29992 29.3 6.99992C29.3 7.09992 29.5 7.09992 29.5 6.89992C29.2 6.19992 28.9 5.59992 28.4 4.99992C28.4 4.89992 28.3 4.99992 28.3 5.09992Z" fill="#2B0303"/>
<path d="M22 5.39982C21.5 6.49982 21.8 7.79982 22.9 8.39982C23 8.49982 23.1 8.29982 23 8.29982C22.1 7.69982 21.7 6.59982 22.2 5.49982C22.2 5.39982 22 5.29982 22 5.39982Z" fill="#2B0303"/>
<path d="M21.1001 7.70002C21.3001 8.20002 21.7001 8.50002 22.2001 8.60002C22.3001 8.60002 22.4001 8.40001 22.3001 8.40001C21.9001 8.30001 21.5001 8.00002 21.4001 7.60002C21.2001 7.50002 21.0001 7.60002 21.1001 7.70002Z" fill="#2B0303"/>
<path d="M22.6001 4.39985C23.4001 3.89985 24.3001 3.49985 25.3001 3.79985C25.4001 3.79985 25.5001 3.69985 25.4001 3.59985C24.4001 3.29985 23.5001 3.79985 22.6001 4.29985C22.4001 4.29985 22.5001 4.49985 22.6001 4.39985Z" fill="#2B0303"/>
<path d="M23.2 3.9C23.1 3.1 22.5 2.5 21.7 2.5C21.6 2.5 21.6 2.7 21.7 2.7C22.4 2.7 22.9 3.3 23 3.9C23 4 23.2 4 23.2 3.9Z" fill="#2B0303"/>
<path d="M24.0001 3.69995C24.3001 3.29995 24.5001 2.89995 24.6001 2.39995C24.6001 2.29995 24.4001 2.29995 24.4001 2.39995C24.3001 2.79995 24.2001 3.29995 23.9001 3.59995C23.8001 3.59995 23.9001 3.69995 24.0001 3.69995Z" fill="#2B0303"/>
<path d="M19.0002 70.9C20.3002 71.6 21.3002 72.5 22.1002 73.7C22.2002 73.8 22.3002 73.7 22.3002 73.6C21.5002 72.4 20.4002 71.4 19.1002 70.7C19.0002 70.7 18.9002 70.9 19.0002 70.9Z" fill="#2B0303"/>
<path d="M51.5002 19.1998C51.3002 19.0998 51.3002 19.2998 51.4002 19.5998C51.6002 20.2998 51.9002 20.0998 51.7002 21.8998C51.4002 24.2998 51.2002 30.5998 51.6002 32.2998C51.6002 32.2998 53.9002 26.4998 54.6002 24.7998C54.7002 24.5998 55.0002 23.9998 54.9002 23.6998C54.6002 21.6998 53.2002 19.6998 51.5002 19.1998Z" fill="#D1A243"/>
<path d="M80.2002 32.0999C80.2002 32.0999 79.7002 31.7999 79.7002 31.8999C79.7002 31.7999 79.7002 31.6999 79.7002 31.5999C79.5002 31.1999 79.2002 31.0999 78.8002 30.9999C78.7002 30.9999 78.7002 30.8999 78.7002 30.8999C78.7002 30.7999 78.6002 30.5999 78.5002 30.3999C78.1002 29.9999 77.8002 29.8999 77.3002 29.9999C77.3002 29.9999 77.3002 29.8999 77.2002 29.8999C76.7002 29.3999 75.9002 29.3999 75.3002 29.6999C75.1002 29.6999 74.9002 29.5999 74.6002 29.5999C74.4002 29.5999 74.2002 29.6999 74.2002 29.7999C74.2002 29.8999 74.2002 29.9999 74.2002 30.0999C74.2002 30.1999 74.4002 30.2999 74.4002 30.3999C74.4002 30.4999 74.3002 30.6999 74.3002 30.7999C74.2002 31.0999 74.2002 31.3999 74.6002 31.4999C75.0002 31.6999 75.5002 31.2999 75.9002 31.0999C75.8002 31.1999 75.8002 31.2999 75.8002 31.3999C75.6002 31.7999 75.8002 32.3999 76.3002 32.2999C76.6002 32.1999 76.8002 31.8999 77.1002 31.7999C77.2002 31.6999 77.3002 31.6999 77.5002 31.5999C77.4002 31.6999 77.3002 31.7999 77.2002 31.8999C77.0002 32.1999 77.1002 32.7999 77.6002 32.6999C77.9002 32.6999 78.6002 31.9999 79.0002 32.0999C78.8002 32.2999 78.6002 32.3999 78.5002 32.5999C78.3002 32.7999 78.1002 32.9999 78.3002 33.2999C78.3002 33.3999 78.5002 33.4999 78.6002 33.4999C79.2002 33.4999 79.7002 32.6999 80.2002 32.9999C80.5002 33.0999 80.6002 32.7999 80.6002 32.5999C80.6002 32.4999 80.6002 32.4999 80.6002 32.4999C80.5002 32.3999 80.4002 32.1999 80.2002 32.0999Z" fill="#EB8B65"/>
<path d="M77.2 30.2C76.8 30.3 76.4 30.6 76.1 30.9C76 31 76.2 31.1 76.2 31C76.5 30.7 76.8 30.3999 77.3 30.2999C77.4 30.2999 77.3 30.2 77.2 30.2Z" fill="#C45547"/>
<path d="M75.3002 29.7998C75.2002 29.7998 75.0002 29.8998 74.9002 29.9998C74.8002 30.0998 74.7002 30.1998 74.5002 30.2998C74.4002 30.3998 74.6002 30.4998 74.6002 30.3998C74.7002 30.2998 74.8002 30.1998 74.9002 30.0998C74.9002 30.0998 75.0002 29.9998 75.1002 29.9998C75.1002 29.9998 75.2002 29.8998 75.3002 29.8998C75.4002 29.9998 75.4002 29.7998 75.3002 29.7998Z" fill="#C45547"/>
<path d="M78.6001 31.0999C78.2001 31.1999 77.8001 31.1999 77.4001 31.4999C77.3001 31.5999 77.4001 31.6999 77.5001 31.5999C77.8001 31.3999 78.2001 31.2999 78.5001 31.2999C78.8001 31.2999 78.8001 31.0999 78.6001 31.0999Z" fill="#C45547"/>
<path d="M79.6 31.8999C79.4 31.8999 79.3 31.9999 79.1 32.0999C79 32.1999 79.1 32.2999 79.2 32.2999C79.3 32.1999 79.5 32.1999 79.7 32.0999C79.8 32.0999 79.7 31.8999 79.6 31.8999Z" fill="#C45547"/>
</svg>
