<svg width="78" height="74" viewBox="0 0 78 74" fill="none" xmlns="http://www.w3.org/2000/svg">
<path d="M63.9683 62.3528C63.9683 66.1146 67.0175 69.1612 70.7825 69.1612C74.5475 69.1612 77.5967 66.1146 77.5967 62.3528C77.5967 58.591 74.5475 55.5444 70.7825 55.5444C67.0175 55.5444 63.9683 58.591 63.9683 62.3528Z" fill="#ED5267"/>
<path d="M70.6338 69.0125C70.6338 71.0653 68.9698 72.7279 66.9153 72.7279V73.0344C72.8185 73.0344 77.5968 68.2509 77.5968 62.3621" fill="#ED5267"/>
<path d="M13.6285 10.6724C13.6285 6.9106 10.5793 3.86401 6.81424 3.86401C3.04921 3.86401 0 6.9106 0 10.6724C0 14.4342 3.04921 17.4808 6.81424 17.4808C10.5793 17.4901 13.6285 14.4342 13.6285 10.6724Z" fill="#00C2CB"/>
<path d="M6.97228 4.01258C6.97228 1.95985 8.63633 0.297228 10.6908 0.297228V0C4.78763 0 0 4.78351 0 10.6723" fill="#00C2CB"/>
<path d="M47.6719 54.3184V71.7991L65.1769 54.3184H47.6719Z" fill="#ED5267"/>
<path d="M31.8586 48.3554C38.6542 59.0742 52.8591 62.2601 63.5964 55.4703C74.3244 48.6805 77.513 34.4878 70.7174 23.7598C63.9218 13.0317 49.7076 9.85508 38.9796 16.6449C28.2516 23.4347 25.0629 37.6366 31.8586 48.3554Z" fill="#ED5267"/>
<path d="M29.925 17.49V0L12.4292 17.49H29.925Z" fill="#00C2CB"/>
<path d="M45.7381 23.5368C38.9425 12.818 24.7376 9.63211 14.0003 16.4219C3.27233 23.2024 0.083678 37.4043 6.87932 48.1231C13.675 58.8419 27.8891 62.0371 38.6171 55.238C49.3451 48.4575 52.5338 34.2556 45.7381 23.5368Z" fill="#00C2CB"/>
<path d="M31.8586 48.3553C33.6621 51.1975 35.9769 53.501 38.617 55.2379C49.345 48.4481 52.5337 34.2555 45.7381 23.5367C43.9346 20.6945 41.6198 18.391 38.9796 16.6541C28.2516 23.4439 25.0629 37.6365 31.8586 48.3553Z" fill="#44417C"/>
</svg>
