<svg width="94" height="80" viewBox="0 0 94 80" fill="none" xmlns="http://www.w3.org/2000/svg">
<path d="M65.3802 53.3411C58.2017 53.3411 51.65 54.4359 46.6679 56.238C44.8577 56.0688 42.9811 55.9708 41.0569 55.951C37.2094 55.149 32.8524 54.6961 28.2362 54.6961C12.6417 54.6966 0 59.8598 0 66.2293C0 72.5987 12.2597 77.6039 27.5259 77.7581C31.3734 78.5601 35.7303 79.013 40.3465 79.013C47.525 79.013 54.0768 77.9182 59.0589 76.1161C61.0914 76.3062 63.2069 76.4063 65.3802 76.4063C80.9743 76.4063 93.616 71.2431 93.616 64.8737C93.616 58.5043 80.9743 53.3411 65.3802 53.3411Z" fill="#FAF3F0"/>
<path d="M31.3155 45.0197C30.8564 44.2418 30.2473 43.8686 29.5921 43.7755C30.1653 42.8412 30.7631 41.8385 30.8194 40.7324C30.8799 39.539 30.3201 38.3012 29.2358 37.7305C28.1001 37.1325 26.7539 37.307 25.7355 38.0576C25.3225 38.3617 24.9898 38.7418 24.6994 39.1562C24.7123 37.012 24.6159 34.2077 22.3664 33.5829C18.9529 32.6353 18.5093 37.0645 18.7734 41.0606C18.5302 40.9369 18.2634 40.8437 17.9709 40.7897C16.8427 40.5809 15.7075 41.0905 15.1338 42.0976C14.1915 43.7524 15.2125 45.9545 16.0504 47.4332C17.0227 49.1496 18.4038 50.5469 20.0227 51.6573C20.5155 51.9957 21.1412 52.0107 21.6914 51.8099C21.7734 52.0508 21.9089 52.2607 22.0996 52.4379C22.4832 52.7897 22.9862 53.0504 23.5219 53.0268L23.6816 53.0054C23.8552 53.0236 24.0282 53.0108 24.2018 52.969C24.7487 53.363 25.4805 53.4589 26.2321 52.962C27.5933 52.0631 28.8732 51.025 29.9639 49.8087C31.1467 48.49 32.3783 46.8191 31.316 45.0192L31.3155 45.0197Z" fill="#A5BA7A"/>
<path d="M32.8267 52.0176L31.0991 64.3559C31.0268 65.0251 30.4616 65.5337 29.7877 65.5337H17.6752C17.0013 65.5337 16.4361 65.0251 16.3638 64.3559L14.6362 52.0176C14.5537 51.2375 15.1633 50.5581 15.9476 50.5581H31.5175C31.9235 50.5581 32.2841 50.7412 32.5214 51.0266C32.5214 51.0266 32.5235 51.0266 32.5251 51.0287C32.7485 51.2921 32.8669 51.6439 32.8267 52.0176Z" fill="#C5785E"/>
<path d="M32.8267 52.0176L31.0991 64.3559C31.0267 65.0251 30.4616 65.5337 29.7876 65.5337H17.6752C17.0013 65.5337 16.4361 65.0251 16.3638 64.3559C16.3638 64.3559 21.6025 62.6641 25.2861 59.7822C29.1582 56.753 32.5208 51.0271 32.5208 51.0271C32.5208 51.0271 32.523 51.0271 32.5246 51.0292C32.748 51.2926 32.8664 51.6444 32.8262 52.0181L32.8267 52.0176Z" fill="#BA6E54"/>
<path d="M22.167 49.0291C21.4996 46.5042 20.5915 44.0645 19.4499 41.7158C19.3085 41.4251 18.8746 41.6794 19.016 41.9696C20.1388 44.2803 21.0265 46.6798 21.6828 49.1629C21.7653 49.4756 22.2506 49.3428 22.1676 49.0291H22.167Z" fill="#8AA15C"/>
<path d="M24.3995 39.4741C22.8829 42.2993 22.2148 45.4462 22.4682 48.643C22.4934 48.9632 22.9964 48.9658 22.9713 48.643C22.7248 45.5324 23.3575 42.4781 24.8339 39.7279C24.9871 39.443 24.5532 39.1887 24.4 39.4741H24.3995Z" fill="#8AA15C"/>
<path d="M28.4912 44.5821C26.9103 45.9147 25.5946 47.4893 24.5601 49.2785C24.3978 49.559 24.8323 49.8123 24.994 49.5323C26.0081 47.7784 27.2976 46.2434 28.8463 44.9376C29.0938 44.7288 28.7365 44.3749 28.4906 44.5821H28.4912Z" fill="#8AA15C"/>
<path d="M19.149 49.7937C18.9138 49.5431 18.6781 49.2926 18.4429 49.042C18.2212 48.8059 17.866 49.1614 18.0872 49.3975C18.3224 49.6481 18.5581 49.8986 18.7933 50.1492C19.0151 50.3853 19.3703 50.0298 19.149 49.7937Z" fill="#8AA15C"/>
<path d="M19.2059 46.3103C19.0548 46.0089 18.9043 45.7075 18.7532 45.4056C18.6086 45.1165 18.1746 45.3702 18.3193 45.6593C18.4703 45.9607 18.6209 46.2622 18.7719 46.5641C18.9166 46.8532 19.3505 46.5989 19.2059 46.3103Z" fill="#8AA15C"/>
<path d="M22.0514 35.2121C22.0021 35.497 21.9528 35.7818 21.9035 36.0671C21.8489 36.3836 22.3332 36.5195 22.3883 36.201C22.4376 35.9162 22.4869 35.6313 22.5362 35.346C22.5908 35.0296 22.1066 34.8936 22.0514 35.2121Z" fill="#8AA15C"/>
<path d="M20.6387 41.1943C20.5883 41.0267 20.538 40.8591 20.4876 40.6916C20.3949 40.3826 19.9096 40.5143 20.0028 40.8254C20.0532 40.993 20.1035 41.1605 20.1539 41.3281C20.2465 41.637 20.7319 41.5053 20.6387 41.1943Z" fill="#8AA15C"/>
<path d="M26.8578 39.6275C26.5894 39.9455 26.3215 40.264 26.0531 40.582C25.8458 40.8278 26.1999 41.1854 26.4088 40.9375C26.6772 40.6195 26.9451 40.301 27.2135 39.983C27.4208 39.7372 27.0667 39.3796 26.8578 39.6275Z" fill="#8AA15C"/>
<path d="M25.7591 45.2849C25.3965 45.3786 25.1152 45.6559 25.0049 46.0114C24.9084 46.3209 25.3938 46.4536 25.4897 46.1452C25.5486 45.9547 25.7013 45.8192 25.8931 45.7699C26.2059 45.6891 26.0736 45.2046 25.7591 45.2854V45.2849Z" fill="#8AA15C"/>
<path d="M30.3746 46.3234C30.3012 46.1976 30.1539 46.1751 30.0307 46.2335C29.7795 46.3513 29.5288 46.4696 29.2775 46.5874C29.1548 46.6452 29.1232 46.8213 29.1875 46.9311C29.2609 47.0569 29.4082 47.0794 29.5314 47.021C29.7827 46.9033 30.0334 46.7849 30.2846 46.6671C30.4073 46.6093 30.4389 46.4332 30.3746 46.3234Z" fill="#8AA15C"/>
<path d="M29.2487 49.183C28.9637 49.1498 28.6787 49.1166 28.3937 49.0839C28.2576 49.0684 28.1435 49.2108 28.1424 49.335C28.1408 49.4839 28.2598 49.5706 28.3937 49.5861C28.6787 49.6193 28.9637 49.6525 29.2487 49.6852C29.3848 49.7012 29.4989 49.5583 29.4999 49.4341C29.5015 49.2852 29.3826 49.1985 29.2487 49.183Z" fill="#8AA15C"/>
<path d="M18.4262 53.3575C17.9355 53.2119 17.3494 53.4496 17.1802 53.9497C16.9648 54.5846 17.5043 55.2614 18.1477 55.2796C18.251 55.2828 18.3266 55.241 18.3748 55.18C18.6389 55.0965 18.8676 54.8893 18.9844 54.6168C19.203 54.1071 18.9726 53.5203 18.4268 53.3581L18.4262 53.3575ZM18.1353 54.621C17.8605 54.6259 17.7293 54.2484 17.8616 54.0471C17.8777 54.0225 17.8884 53.9984 17.8964 53.9748C18.0657 53.879 18.325 53.8956 18.4284 54.0584C18.5548 54.2575 18.3769 54.6168 18.1353 54.621Z" fill="#FFEADB"/>
<path d="M24.6854 53.395C24.2917 52.9362 23.4822 52.9576 23.1378 53.4652C23.0788 53.5524 23.0397 53.6456 23.0156 53.7414C22.9787 53.7864 22.9535 53.8447 22.9487 53.9165C22.8988 54.6173 23.6735 55.2207 24.3313 54.9043C24.8735 54.6435 25.0899 53.8656 24.686 53.3956L24.6854 53.395ZM24.0785 54.3576C24.0292 54.3817 23.9815 54.3882 23.9349 54.3876C23.9146 54.3764 23.8921 54.3667 23.8663 54.3598C23.6563 54.3003 23.5117 54.0214 23.6263 53.8196C23.7372 53.6242 24.0769 53.6183 24.2199 53.7784C24.372 53.9481 24.2729 54.2629 24.0779 54.3582L24.0785 54.3576Z" fill="#FFEADB"/>
<path d="M29.4936 52.9574C29.1625 52.778 28.7168 52.8401 28.465 53.1244C28.3793 53.2213 28.3707 53.3332 28.4055 53.429C28.3182 53.4836 28.2539 53.5773 28.2636 53.6817C28.3005 54.0785 28.5823 54.404 28.9836 54.4666C29.3805 54.5287 29.7373 54.2755 29.8557 53.8996C29.9687 53.5404 29.83 53.1399 29.4936 52.9579V52.9574ZM29.2862 53.6951C29.2364 53.9302 28.8898 53.9286 28.8668 53.6817C28.8641 53.6507 28.8566 53.6212 28.8464 53.5923C28.8619 53.5806 28.8769 53.5672 28.8914 53.5511C29.0291 53.3964 29.3382 53.4478 29.2862 53.6951Z" fill="#FFEADB"/>
<path d="M46.1854 57.0897C46.1854 57.0897 45.7145 61.3551 48.7241 64.6541C52.3616 68.6411 56.1673 67.5103 56.1673 67.5103L51.1225 57.9378L49.1039 55.1624L46.1854 57.0897Z" fill="#4D6647"/>
<path d="M35.6945 51.9282C35.6945 51.9282 33.4761 59.9402 33.1869 60.482C32.8976 61.0238 23.9496 64.1542 23.776 64.9374C23.6025 65.7201 23.8917 66.6239 25.5696 66.8648C27.2474 67.1057 36.9095 67.2861 37.8931 66.323C38.8766 65.3593 38.9345 61.6004 39.7445 59.4926C40.5545 57.3848 41.8273 54.5789 41.8273 54.5789L35.6945 51.9288V51.9282Z" fill="#ED9D74"/>
<path d="M39.5896 27.17C39.5896 27.17 33.1868 54.7142 33.1868 55.1961C33.1868 55.6779 33.2639 56.1597 35.1154 56.8022C36.9668 57.4446 37.2668 57.1636 38.891 57.7862C40.5153 58.4083 42.2896 57.284 42.2896 57.284L48.6169 33.1009V26.3669L39.5896 27.17Z" fill="#4D6647"/>
<path d="M40.6772 53.3337C40.6772 53.3337 38.0517 60.9811 37.7624 61.5229C37.4731 62.0647 28.9323 65.5602 28.7587 66.3429C28.5852 67.1257 28.8744 68.0294 30.5523 68.2703C32.2301 68.5112 41.8922 68.6916 42.8758 67.7285C43.8593 66.7653 43.9172 63.0059 44.7272 60.8981C45.5372 58.7903 46.81 55.9844 46.81 55.9844L40.6772 53.3343V53.3337Z" fill="#FAAC84"/>
<path d="M75.6171 50.2658C75.307 55.5093 75.2304 57.6668 73.687 58.3607C72.1431 59.0545 71.3727 58.9785 71.3727 58.9785L71.3449 58.9464C70.9586 58.516 66.816 53.8833 65.1242 52.1953C63.3488 50.421 59.4146 48.5707 58.7203 47.8009C58.026 47.0283 53.6289 29.3554 53.6289 29.3554L53.8303 28.0604L53.9209 27.4913V27.4864L54.3237 24.9027L55.6084 24.8497L65.6015 24.4332L66.7935 24.3823L69.1356 24.2854L69.8486 24.9862L73.5466 28.6129L74.9004 29.9406C74.9004 29.9406 74.9212 30.2527 74.9561 30.801C75.1666 34.0716 75.8818 45.7793 75.6182 50.2663L75.6171 50.2658Z" fill="#FAE8DE"/>
<path d="M75.6171 50.2659C75.307 55.5094 75.615 56.5458 73.687 58.3608C72.4548 59.5204 71.3727 58.9786 71.3727 58.9786L71.3449 58.9465C70.9586 58.516 66.816 53.8834 65.1242 52.1954C63.3488 50.4211 59.4146 48.5708 58.7203 47.801C58.026 47.0284 53.6289 29.3555 53.6289 29.3555L53.8303 28.0605L53.9209 27.4913V27.4865L54.8857 28.0117L55.5409 27.9855C55.5409 27.9855 55.693 28.4486 55.6957 28.4513C55.7487 28.5787 57.5519 32.6679 61.6528 37.0388C65.8185 41.4771 68.8249 40.9385 70.484 40.2446C71.5923 39.7799 72.2706 36.0885 72.5995 33.6921C72.7613 32.503 72.8379 31.6336 72.8379 31.6336L73.5461 28.613L74.0738 26.367C74.0738 26.367 74.5714 26.3162 75.2727 26.2632C75.1779 28.0787 76.5793 30.4788 76.4657 31.5195C76.6762 34.7902 75.8813 45.7794 75.6177 50.2664L75.6171 50.2659Z" fill="#EBDAD1"/>
<path d="M71.3727 58.9788C71.3727 58.9788 71.2409 59.7883 70.7732 60.8917C69.8754 63.0241 68.0325 67.8024 63.2256 68.4619C60.0108 68.9036 56.2057 68.4619 53.6283 66.7011C50.7505 64.7346 48.6457 61.9555 47.9975 58.9788C47.9139 58.5949 47.8121 58.1024 47.6943 57.5193C47.6177 57.1355 47.5346 56.7147 47.4441 56.2564C46.9004 53.451 46.1595 49.3478 45.4791 45.0851C44.9284 41.6437 44.419 38.0979 44.0857 35.0403C44.0766 34.9547 44.067 34.8717 44.0579 34.7882C43.9191 33.4835 43.8147 32.274 43.7525 31.2054C43.6995 30.2712 43.6786 29.4451 43.6995 28.7582C43.7016 28.7234 43.7016 28.6886 43.7043 28.6543V28.6265C43.7065 28.5826 43.7091 28.5408 43.7113 28.4991C43.7504 27.6687 43.8591 27.0723 44.0515 26.7714C44.1002 26.6927 44.1554 26.6349 44.2181 26.5979C46.3009 25.365 51.6237 25.5176 53.2437 26.5979C53.3964 26.6997 53.623 27.0075 53.9128 27.4813V27.4835C53.9128 27.4835 53.915 27.4883 53.9198 27.4904C54.0167 27.6521 54.1233 27.8374 54.2342 28.0387C57.2958 33.4926 65.1231 52.1944 65.1231 52.1944L71.3438 58.9456L71.3716 58.9777L71.3727 58.9788Z" fill="#5D7658"/>
<path d="M41.8268 12.6051C41.8268 12.6051 39.8211 14.9565 41.3254 18.0403C42.8297 21.1241 47.9211 21.9721 47.9211 21.9721L50.6211 20.7001L46.5325 10.7163L41.8268 12.6051Z" fill="#5E3128"/>
<path d="M43.0226 11.622C43.0226 11.622 43.6976 15.0709 44.9126 16.979C46.1276 18.8871 48.1718 20.5843 48.1718 20.5843L55.1725 22.3767L60.3796 18.4449L62.1153 18.734L59.2225 15.2262C59.2225 15.2262 51.1804 10.5234 51.0068 10.5234C50.8332 10.5234 43.0226 11.622 43.0226 11.622Z" fill="#FAAC84"/>
<path d="M63.388 18.1946C63.388 18.1946 48.5472 20.4796 45.6929 20.6338C42.8387 20.7879 34.9969 20.7772 34.9991 25.056C35.0007 28.2206 40.9776 28.718 43.0219 28.6794C45.0662 28.6409 56.5877 27.7543 58.0593 27.9856C59.5309 28.2169 63.9773 29.4113 65.3219 29.354C66.6665 29.2967 67.3222 18.927 67.3222 18.927L63.6194 17.6758L63.388 18.1946Z" fill="#FAAC84"/>
<path d="M63.9087 18.3031C63.9087 18.3031 57.3709 18.1612 56.2138 18.65C56.202 18.6548 56.1907 18.6596 56.1795 18.6645C55.4563 18.9734 55.1965 19.8616 55.6234 20.5212C55.804 20.8006 56.0022 21.1534 56.2063 21.5962C56.9659 23.2441 55.6931 23.8801 55.4616 25.4413C55.2302 27.0025 55.5773 28.2745 55.6931 28.448C55.8088 28.6214 64.8923 31.0499 65.0659 31.0499C65.2394 31.0499 68.0165 30.9921 68.248 30.4717C68.4794 29.9513 71.1408 21.3938 70.3308 20.7C69.5208 20.0061 63.9087 18.3031 63.9087 18.3031Z" fill="#FAE8DE"/>
<path d="M49.587 16.2153C48.7807 17.0606 48.2648 17.2646 47.1757 17.566C46.9689 17.6233 46.9748 17.9162 47.1098 18.02C47.1077 18.1619 47.2079 18.33 47.3718 18.3001C48.3334 18.1255 48.9312 17.8589 49.6978 17.0023C49.7482 16.9402 49.9491 16.5836 49.9395 16.5065C50.0177 16.2951 49.7659 16.0279 49.587 16.2153Z" fill="#784338"/>
<path d="M71.5207 14.6824C71.2223 14.449 70.926 14.1942 70.6389 13.9168C70.3796 13.6668 69.3548 12.5661 69.1732 12.179C68.4494 11.075 68.1987 10.1917 66.6671 8.71294C66.4603 8.51324 65.248 7.64646 65.1259 7.58382C63.3055 6.65119 61.9266 6.18862 61.5077 5.54349C60.2397 3.5915 57.7642 -0.443124 52.5683 0.0397884C46.338 0.617998 44.681 5.48192 44.1394 6.42312C43.6 7.36217 41.2375 10.0428 40.6311 11.4493C40.4205 11.9306 40.0525 13.7691 40.8973 14.5737C40.9573 14.6316 41.0221 14.6824 41.0939 14.7285C42.2768 15.4823 43.3085 15.6836 44.2182 15.6188C45.7616 15.5053 46.9182 14.4238 47.898 14.3906C50.8042 14.2927 51.8703 13.7332 53.1415 13.2182C53.5497 12.9842 53.9777 12.8894 54.492 12.8445C54.6233 12.8332 54.7513 12.8396 54.8772 12.8573C54.9699 12.8573 55.062 12.8557 55.1585 12.8621C55.2163 12.8643 55.2763 12.8691 55.3342 12.8712C55.489 12.8851 55.6465 12.9012 55.8018 12.9221C57.3292 13.1255 58.7991 13.7037 58.7991 13.7037C58.7991 13.7037 58.7622 14.2472 58.767 14.9597C58.767 14.9945 58.7691 15.0293 58.7691 15.0636C58.7831 16.1435 58.8988 17.5617 59.3777 18.0794C59.4565 18.1651 59.5352 18.2438 59.6161 18.3128C59.7757 18.4536 59.9354 18.5671 60.0977 18.6576C60.1165 18.6667 60.1347 18.6785 60.1507 18.6854C61.3636 19.3263 62.6295 18.7411 63.5804 19.1571C64.4552 19.541 65.9643 20.0405 65.7028 23.4616C65.6937 23.6029 65.6798 23.7485 65.6637 23.8984C65.6428 24.0767 65.622 24.2545 65.6011 24.4327C65.3927 26.1513 65.1291 27.856 65.3236 29.3545C65.4002 29.9466 65.548 30.5061 65.7955 31.0222C66.2562 31.9682 67.0593 32.7686 68.4039 33.3441C70.2301 34.1279 71.9369 33.418 72.9365 33.0411C74.1976 32.5694 74.5297 32.2477 74.7681 31.8408C74.8308 31.73 74.8956 31.3573 74.9556 30.8C75.0692 29.7592 75.178 28.0776 75.2728 26.2621C75.4603 22.6076 75.4613 19.299 75.4822 18.7304C75.5171 17.8561 73.544 16.2752 71.5212 14.6819L71.5207 14.6824Z" fill="#784338"/>
<path d="M55.4767 14.7297C54.5949 13.6867 54.4969 12.3199 55.2587 11.6764C56.0199 11.0334 57.3528 11.3573 58.2345 12.4002C59.1163 13.4431 59.2144 14.81 58.4526 15.4535C57.6913 16.0965 56.3585 15.7726 55.4767 14.7297Z" fill="#FAAC84"/>
<path d="M50.4768 17.6938C50.4072 17.6938 50.3392 17.7238 50.2958 17.8052C50.2786 17.8373 50.262 17.8694 50.2449 17.9016C50.2079 17.9262 50.1752 17.961 50.1549 18.0102C49.9711 18.4487 49.6352 18.7956 49.2185 19.0189C49.0202 19.1249 49.1049 19.3781 49.2715 19.4354C49.3085 19.5837 49.5093 19.6999 49.6642 19.5644C50.171 19.1228 50.5427 18.5777 50.7876 17.953C50.8684 17.7468 50.6424 17.6285 50.4763 17.6933L50.4768 17.6938Z" fill="#332D2D"/>
<path d="M43.6926 28.75C43.6926 28.75 37.5791 54.5291 37.7666 56.5367C37.8619 57.5604 38.7442 57.7114 40.1681 58.4775C41.8321 59.3726 44.1506 59.2099 45.6935 59.2099C47.2363 59.2099 48.4845 55.9189 48.4845 55.9189L49.1038 34.6386L43.6931 28.7505L43.6926 28.75Z" fill="#5D7658"/>
<path d="M46.2808 30.2459L44.9201 33.8495L44.5408 34.8534C44.5408 34.8534 44.1985 34.8116 43.6221 34.7217H43.6199C41.678 34.4186 37.1073 33.5701 34.1475 31.9511C30.7479 30.0917 32.1573 25.859 34.9184 25.0425C34.995 25.0195 35.0711 24.9986 35.1498 24.9826C35.6314 24.876 36.1473 24.8717 36.6841 25.0013C38.8409 25.5196 41.8591 27.3002 43.9328 28.644C44.5253 29.0279 45.039 29.3748 45.4349 29.65C45.9647 30.0157 46.2819 30.247 46.2819 30.247L46.2808 30.2459Z" fill="#FAAC84"/>
<path d="M54.5684 35.9933C54.3718 37.8157 53.3143 38.5053 52.6174 38.5834C51.9209 38.6643 50.0577 38.6461 48.7967 38.1118C48.4656 37.9704 47.392 37.2744 46.281 36.5318C45.2256 35.8262 44.1403 35.0772 43.6217 34.7207H43.6196C43.4251 34.5841 43.3115 34.5054 43.3115 34.5054L43.0732 31.8874L43.7074 31.2514L45.0521 29.8985C45.0521 29.8985 45.1887 29.7968 45.434 29.6485C45.7694 29.4429 46.3088 29.1441 46.9844 28.8829C48.1742 28.4251 49.4701 29.1093 50.2892 30.0414C51.111 30.9757 53.3486 31.7852 53.4831 32.3334C53.6175 32.8838 53.1847 33.1889 52.6849 33.145C52.1851 33.099 50.3149 32.562 50.3149 32.562C50.3149 32.5668 50.3406 32.6407 51.5347 33.3415C52.7818 34.0702 54.622 35.5039 54.569 35.9922L54.5684 35.9933Z" fill="#FAAC84"/>
<path d="M58.1189 14.2162C56.9907 14.7954 55.7462 13.9667 55.7971 12.7182C55.8094 12.4205 55.3466 12.421 55.3342 12.7182C55.2678 14.3372 56.9264 15.348 58.3524 14.6156C58.6176 14.4796 58.3835 14.0802 58.1189 14.2162Z" fill="#ED9D74"/>
<path d="M54.7069 19.4061C52.6873 19.6417 50.6677 19.8772 48.648 20.1128C48.3555 20.1471 48.3523 20.6096 48.648 20.5754C50.6677 20.3398 52.6873 20.1042 54.7069 19.8687C54.9994 19.8344 55.0026 19.3718 54.7069 19.4061Z" fill="#ED9D74"/>
<path d="M54.0528 36.2427C53.0467 35.8593 52.0856 35.3925 51.1599 34.8437C50.9033 34.6917 50.6697 35.0916 50.9263 35.2431C51.8863 35.8117 52.8876 36.2908 53.9301 36.6886C54.2086 36.7946 54.3292 36.3476 54.0533 36.2427H54.0528Z" fill="#ED9D74"/>
<path d="M53.5807 37.369C52.527 37.1736 51.5423 36.8181 50.6091 36.2886C50.3498 36.1414 50.1163 36.5408 50.3755 36.688C51.3404 37.2352 52.3662 37.6126 53.4575 37.815C53.7489 37.8691 53.8737 37.4231 53.5807 37.369Z" fill="#ED9D74"/>
<path d="M51.3319 38.0501C50.8058 37.8033 50.2803 37.5564 49.7542 37.3096C49.4864 37.1838 49.2507 37.5827 49.5207 37.709C50.0467 37.9558 50.5723 38.2026 51.0983 38.4495C51.3662 38.5753 51.6019 38.1764 51.3319 38.0501Z" fill="#ED9D74"/>
<path d="M46.2806 36.5323C45.2253 35.8267 44.1399 35.0777 43.6214 34.7211H43.6192C41.6773 34.4181 37.1066 33.5695 34.1468 31.9505C30.7472 30.0912 32.1566 25.8584 34.9177 25.042L34.9986 25.0559C34.9986 25.0559 34.7789 26.3676 36.0791 27.2927C37.3798 28.2179 43.9315 28.6435 43.9315 28.6435C43.9315 28.6435 43.6926 29.938 43.9315 31.8606C44.2701 34.5814 46.2806 36.5328 46.2806 36.5328V36.5323Z" fill="#ED9D74"/>
<path d="M64.5489 30.3905C61.7038 30.0072 58.9315 29.3181 56.2385 28.3245C55.9588 28.2211 55.8378 28.6682 56.1153 28.7704C58.8083 29.7641 61.5806 30.4531 64.4257 30.8365C64.7172 30.8756 64.8431 30.4301 64.5489 30.3905Z" fill="#EBDAD1"/>
<path d="M76.1422 18.441C76.1996 18.5117 76.2558 18.5839 76.3104 18.6567C79.004 22.2529 79.5692 27.5414 76.4631 31.0925C74.4055 33.4455 71.3717 34.6191 68.4034 33.3449C67.0587 32.7688 66.2557 31.969 65.795 31.0229C65.5475 30.5074 65.3991 29.9474 65.323 29.3552C65.1286 27.8567 65.3927 26.1521 65.6005 24.4335C65.6214 24.2552 65.6423 24.0775 65.6632 23.8992C65.6793 23.7487 65.6932 23.6031 65.7023 23.4623C66.5005 24.4431 67.5746 25.3683 68.9819 25.8281C72.7614 27.0611 74.6888 21.9242 73.8419 19.4031C73.3003 17.798 72.2289 15.869 71.5207 14.6826C73.056 15.892 74.901 16.9109 76.1417 18.441H76.1422Z" fill="#5E3128"/>
<path d="M65.3794 53.0896C65.359 53.0419 65.329 53.0146 65.2963 52.9954C65.2738 52.8851 65.253 52.7748 65.2283 52.6645C65.164 52.3738 64.7178 52.4969 64.7821 52.7876C65.4571 55.8414 65.3569 58.9349 64.4928 61.9405C64.4103 62.2269 64.8571 62.3495 64.939 62.0636C65.6065 59.7401 65.8251 57.3587 65.5958 54.9859C66.0212 56.3062 66.3072 57.6612 66.4481 59.0548C66.4776 59.3482 66.941 59.3514 66.911 59.0548C66.7015 56.9861 66.1915 55.0036 65.3794 53.0896Z" fill="#4D6647"/>
<path d="M44.9901 56.7071C43.2565 57.2414 41.4903 57.1113 39.8612 56.3098C39.595 56.1786 39.3598 56.5775 39.6276 56.7092C41.3666 57.5642 43.2598 57.7243 45.1133 57.153C45.3972 57.0658 45.2762 56.6187 44.9901 56.7071Z" fill="#4D6647"/>
<path d="M56.3905 38.2584C55.4064 38.919 54.3222 39.2975 53.1431 39.3826C54.1336 38.6379 54.9184 37.6844 55.4466 36.5521C55.5714 36.2839 55.1729 36.0488 55.047 36.3187C54.5032 37.4847 53.6863 38.4597 52.6261 39.1872C52.5297 38.9843 52.1691 39.0116 52.1873 39.275C52.6116 45.4624 47.6997 50.3183 47.0788 56.3242C47.0483 56.6203 47.5111 56.6181 47.5417 56.3242C48.1502 50.4431 52.8661 45.6969 52.6673 39.6691C52.7091 39.6718 52.7536 39.6605 52.7991 39.63C52.8034 39.6268 52.8077 39.6236 52.812 39.6209C52.805 39.7419 52.8768 39.8634 53.0322 39.8549C54.3318 39.7815 55.5425 39.3832 56.6241 38.6572C56.87 38.4923 56.6386 38.0913 56.3905 38.2578V38.2584Z" fill="#4D6647"/>
</svg>
