<svg width="82" height="64" viewBox="0 0 82 64" fill="none" xmlns="http://www.w3.org/2000/svg">
<path d="M18.1985 15.2839C18.1985 17.9022 17.1921 19.2113 17.1921 20.774C17.1921 22.6314 18.1985 25.5687 18.1985 28.7924V46.3837C18.1985 48.2655 14.4348 49.7874 9.79557 49.7874C5.15639 49.7874 1.38449 48.2737 1.38449 46.3837V28.7924C1.38449 25.5687 2.39906 22.6314 2.39906 20.774C2.39906 19.2113 1.38449 17.9022 1.38449 15.2839V9.55654C1.38449 7.67468 5.14821 6.15283 9.79557 6.15283C14.4429 6.15283 18.1985 7.67468 18.1985 9.55654V15.2839Z" fill="#F5E3D9"/>
<path d="M17.1103 2.89642C16.9794 1.26003 13.723 0 9.74656 0C5.77012 0 2.45641 1.28457 2.33368 2.89642C2.15879 4.12023 2.15879 5.36269 2.33368 6.5865C2.51368 8.1738 5.75375 9.44201 9.69747 9.44201C13.6412 9.44201 16.9058 8.1738 17.0613 6.5865C17.2524 5.36502 17.269 4.12256 17.1103 2.89642Z" fill="#6699FF"/>
<path d="M4.01109 11.8393C6.89913 12.6665 9.93702 12.8287 12.8967 12.3138C13.7268 12.1636 14.5466 11.9614 15.3513 11.7084C15.8177 11.5611 15.6213 10.8247 15.1468 10.972C11.5821 12.0948 7.76522 12.1404 4.17473 11.1029C4.08139 11.088 3.98582 11.108 3.90627 11.159C3.82672 11.2101 3.76876 11.2886 3.74346 11.3797C3.71816 11.4708 3.72729 11.568 3.76911 11.6528C3.81093 11.7375 3.88251 11.8039 3.97018 11.8393H4.01109Z" fill="#2D2745"/>
<path d="M3.93719 4.34497C6.8246 5.17488 9.8625 5.33992 12.8228 4.82771C13.6539 4.67846 14.4739 4.47344 15.2774 4.21406C15.7438 4.06678 15.5474 3.33859 15.0729 3.48586C11.5069 4.60049 7.69242 4.646 4.10083 3.61677C4.05301 3.60334 4.00302 3.59946 3.95371 3.60535C3.90439 3.61124 3.85672 3.62678 3.81341 3.6511C3.72595 3.7002 3.66158 3.78203 3.63445 3.8786C3.62102 3.92641 3.61714 3.9764 3.62303 4.02572C3.62892 4.07503 3.64446 4.1227 3.66878 4.16601C3.69309 4.20932 3.72569 4.24741 3.76473 4.27812C3.80376 4.30882 3.84846 4.33154 3.89628 4.34497H3.93719Z" fill="#2D2745"/>
<path d="M12.5285 27.1645C12.5224 27.3686 12.495 27.5715 12.4466 27.7699C12.3122 28.3751 11.9724 28.9151 11.4849 29.2981C10.9974 29.6811 10.3924 29.8836 9.77258 29.871C9.15277 29.8585 8.5564 29.6318 8.08482 29.2294C7.61323 28.8269 7.29551 28.2737 7.18563 27.6636C6.76834 25.7244 8.55202 23.0162 9.38658 21.3307C9.42762 21.2499 9.49024 21.182 9.56751 21.1345C9.64477 21.0871 9.73366 21.062 9.82432 21.062C9.91497 21.062 10.0039 21.0871 10.0811 21.1345C10.1584 21.182 10.221 21.2499 10.2621 21.3307C11.023 22.9098 12.5857 25.2662 12.5285 27.1645Z" fill="white"/>
<path d="M26.5197 11.7902C29.6346 8.21181 33.2437 5.09585 37.2381 2.53633C43.1373 -0.998293 47.3183 1.30903 46.9992 5.67003C46.6801 10.031 41.0427 16.8384 41.0427 16.8384L37.6881 15.202C37.6881 15.202 43.9555 8.55009 44.7819 4.36909C44.7819 4.36909 39.2018 4.46727 31.9771 12.9684C24.7524 21.4694 26.5197 11.7902 26.5197 11.7902Z" fill="#F0D2C2"/>
<path d="M44.8554 4.77818C45.2277 5.18835 45.5067 5.67423 45.6734 6.20246C45.84 6.73068 45.8904 7.28873 45.8209 7.83825C45.7999 7.93564 45.8159 8.03735 45.8659 8.12356C45.9158 8.20978 45.996 8.27432 46.0909 8.30462C46.1387 8.3183 46.1888 8.32237 46.2382 8.31659C46.2876 8.31082 46.3353 8.29531 46.3787 8.27096C46.4221 8.24661 46.4602 8.21391 46.4908 8.17475C46.5215 8.13559 46.5441 8.09074 46.5573 8.0428C46.6582 7.36527 46.6101 6.67389 46.4165 6.01682C46.223 5.35975 45.8885 4.75278 45.4363 4.23817C45.3644 4.16722 45.2674 4.12744 45.1663 4.12744C45.0653 4.12744 44.9683 4.16722 44.8963 4.23817C44.8291 4.31201 44.7918 4.4083 44.7918 4.50818C44.7918 4.60806 44.8291 4.70435 44.8963 4.77818H44.8554Z" fill="#2D2745"/>
<path d="M45.1256 12.273C45.1256 12.273 54.543 1.18641 61.6123 1.05549C68.6815 0.924583 70.7352 6.48015 69.9415 10.0557C69.1479 13.6312 63.5596 14.8749 61.4323 22.4759C59.0677 30.9116 57.4967 18.5895 57.4967 18.5895C58.9599 16.0853 60.6733 13.736 62.6105 11.5775C65.1469 9.0002 67.7242 7.48654 67.896 6.0956C68.0679 4.70466 63.756 4.33647 60.7532 6.0956C57.7504 7.85473 55.1731 9.5893 51.123 15.2512C47.0729 20.9132 45.1256 12.273 45.1256 12.273Z" fill="#F0D2C2"/>
<path d="M67.626 6.29224C68.6036 7.70876 69.0205 9.43776 68.796 11.1442C68.7981 11.2455 68.8393 11.3421 68.9109 11.4138C68.9826 11.4854 69.0792 11.5266 69.1806 11.5287C69.2804 11.5246 69.375 11.4825 69.4449 11.411C69.5149 11.3396 69.5549 11.2441 69.5569 11.1442C69.7869 9.30127 69.3327 7.43805 68.2805 5.90769C68.0023 5.50677 67.3478 5.90769 67.626 6.29224Z" fill="#2D2745"/>
<path d="M66.865 11.1194L68.166 12.2731C68.2026 12.3109 68.2465 12.3411 68.295 12.3616C68.3434 12.3822 68.3956 12.3928 68.4483 12.3928C68.5009 12.3928 68.5531 12.3822 68.6016 12.3616C68.65 12.3411 68.6939 12.3109 68.7305 12.2731C68.8015 12.2011 68.8413 12.1041 68.8413 12.0031C68.8413 11.902 68.8015 11.805 68.7305 11.7331L67.4296 10.5467C67.3556 10.4885 67.2629 10.4594 67.169 10.465C67.0751 10.4706 66.9864 10.5104 66.9199 10.577C66.8533 10.6435 66.8135 10.7322 66.8079 10.8261C66.8023 10.92 66.8314 11.0127 66.8896 11.0867L66.865 11.1194Z" fill="#2D2745"/>
<path d="M64.6395 13.5248L65.9077 14.7275C65.9817 14.7857 66.0744 14.8148 66.1684 14.8092C66.2623 14.8036 66.3509 14.7638 66.4175 14.6972C66.484 14.6307 66.5238 14.5421 66.5294 14.4481C66.535 14.3542 66.5059 14.2615 66.4478 14.1875L65.1386 13.0011C65.0681 12.9307 64.9724 12.8911 64.8727 12.8911C64.773 12.8911 64.6774 12.9307 64.6068 13.0011C64.5709 13.0355 64.5424 13.0768 64.5228 13.1225C64.5033 13.1682 64.4933 13.2174 64.4933 13.267C64.4933 13.3167 64.5033 13.3659 64.5228 13.4116C64.5424 13.4573 64.5709 13.4986 64.6068 13.533L64.6395 13.5248Z" fill="#2D2745"/>
<path d="M62.2666 15.9222L63.5757 17.1085C63.6497 17.1667 63.7424 17.1958 63.8364 17.1902C63.9303 17.1846 64.0189 17.1448 64.0855 17.0782C64.152 17.0117 64.1918 16.9231 64.1974 16.8291C64.203 16.7352 64.1739 16.6425 64.1158 16.5685L62.8066 15.3821C62.7327 15.324 62.64 15.2949 62.546 15.3005C62.4521 15.3061 62.3635 15.3459 62.2969 15.4124C62.2304 15.479 62.1906 15.5676 62.185 15.6615C62.1794 15.7555 62.2084 15.8482 62.2666 15.9222Z" fill="#2D2745"/>
<path d="M60.5484 4.3938L61.8575 5.58019C61.9291 5.6487 62.0244 5.68695 62.1235 5.68695C62.2225 5.68695 62.3178 5.6487 62.3894 5.58019C62.4255 5.54511 62.4542 5.50314 62.4738 5.45676C62.4934 5.41038 62.5035 5.36054 62.5035 5.31019C62.5035 5.25983 62.4934 5.20999 62.4738 5.16361C62.4542 5.11723 62.4255 5.07526 62.3894 5.04018L61.0557 3.85379C61.0221 3.81108 60.9798 3.77598 60.9317 3.7508C60.8835 3.72562 60.8306 3.71093 60.7763 3.70771C60.7221 3.70448 60.6677 3.71279 60.6169 3.73209C60.5661 3.75139 60.52 3.78124 60.4816 3.81966C60.4431 3.85809 60.4133 3.90423 60.394 3.95503C60.3747 4.00584 60.3664 4.06015 60.3696 4.1144C60.3728 4.16865 60.3875 4.2216 60.4127 4.26976C60.4379 4.31792 60.473 4.3602 60.5157 4.3938H60.5484Z" fill="#2D2745"/>
<path d="M57.202 6.04666L58.503 7.24123C58.5366 7.28394 58.5789 7.31905 58.627 7.34423C58.6752 7.36941 58.7281 7.38409 58.7824 7.38732C58.8366 7.39054 58.8909 7.38223 58.9417 7.36293C58.9925 7.34364 59.0387 7.31379 59.0771 7.27536C59.1155 7.23693 59.1454 7.1908 59.1647 7.13999C59.184 7.08919 59.1923 7.03487 59.1891 6.98062C59.1858 6.92637 59.1711 6.87342 59.146 6.82526C59.1208 6.7771 59.0857 6.73483 59.043 6.70122L57.7339 5.51484C57.6995 5.47755 57.6579 5.44759 57.6117 5.42676C57.5655 5.40593 57.5155 5.39466 57.4648 5.39363C57.4141 5.3926 57.3637 5.40183 57.3166 5.42076C57.2696 5.43969 57.2268 5.46793 57.191 5.50379C57.1551 5.53965 57.1269 5.58239 57.108 5.62944C57.089 5.67649 57.0798 5.72688 57.0808 5.77758C57.0819 5.82828 57.0931 5.87826 57.114 5.9245C57.1348 5.97074 57.1647 6.01229 57.202 6.04666Z" fill="#2D2745"/>
<path d="M54.2565 8.1165L55.5575 9.30288C55.6314 9.36107 55.7242 9.39012 55.8181 9.38454C55.912 9.37896 56.0007 9.33913 56.0672 9.27259C56.1337 9.20605 56.1736 9.11742 56.1792 9.02348C56.1847 8.92955 56.1557 8.83683 56.0975 8.76287L54.8211 7.57648C54.7495 7.50797 54.6543 7.46973 54.5552 7.46973C54.4561 7.46973 54.3608 7.50797 54.2893 7.57648C54.2531 7.61156 54.2244 7.65354 54.2048 7.69992C54.1852 7.74629 54.1751 7.79614 54.1751 7.84649C54.1751 7.89684 54.1852 7.94669 54.2048 7.99306C54.2244 8.03944 54.2531 8.08141 54.2893 8.1165H54.2565Z" fill="#2D2745"/>
<path d="M40.4046 3.86991L41.73 5.05629C41.8016 5.12481 41.8969 5.16305 41.9959 5.16305C42.095 5.16305 42.1903 5.12481 42.2619 5.05629C42.298 5.02121 42.3267 4.97924 42.3463 4.93286C42.3659 4.88648 42.376 4.83664 42.376 4.78629C42.376 4.73593 42.3659 4.68609 42.3463 4.63971C42.3267 4.59333 42.298 4.55136 42.2619 4.51628L40.9118 3.32989C40.8379 3.27171 40.7452 3.24265 40.6512 3.24824C40.5573 3.25382 40.4687 3.29365 40.4021 3.36019C40.3356 3.42673 40.2958 3.51536 40.2902 3.60929C40.2846 3.70323 40.3136 3.79595 40.3718 3.86991H40.4046Z" fill="#2D2745"/>
<path d="M37.148 5.60477L38.4571 6.79116C38.4907 6.83387 38.533 6.86897 38.5811 6.89415C38.6293 6.91933 38.6822 6.93402 38.7365 6.93724C38.7907 6.94046 38.8451 6.93215 38.8959 6.91286C38.9467 6.89356 38.9928 6.86371 39.0312 6.82528C39.0697 6.78686 39.0995 6.74072 39.1188 6.68992C39.1381 6.63911 39.1464 6.5848 39.1432 6.53055C39.14 6.4763 39.1253 6.42335 39.1001 6.37519C39.0749 6.32703 39.0398 6.28475 38.9971 6.25115L37.688 5.06476C37.614 5.00657 37.5213 4.97752 37.4274 4.9831C37.3334 4.98868 37.2448 5.02852 37.1783 5.09506C37.1117 5.16159 37.0719 5.25022 37.0663 5.34416C37.0607 5.43809 37.0898 5.53082 37.148 5.60477Z" fill="#2D2745"/>
<path d="M34.2925 7.74003L35.5935 8.92642C35.6654 8.99737 35.7624 9.03715 35.8635 9.03715C35.9645 9.03715 36.0615 8.99737 36.1335 8.92642C36.2025 8.85348 36.241 8.75685 36.241 8.65641C36.241 8.55597 36.2025 8.45935 36.1335 8.38641L34.8244 7.20002C34.7528 7.13151 34.6575 7.09326 34.5585 7.09326C34.4594 7.09326 34.3641 7.13151 34.2925 7.20002C34.2564 7.2351 34.2277 7.27707 34.2081 7.32345C34.1885 7.36983 34.1784 7.41967 34.1784 7.47002C34.1784 7.52038 34.1885 7.57022 34.2081 7.6166C34.2277 7.66298 34.2564 7.70495 34.2925 7.74003Z" fill="#2D2745"/>
<path d="M30.9625 2.92087C31.0217 2.94397 31.0738 2.98198 31.1139 3.03119C31.154 3.0804 31.1807 3.13915 31.1915 3.20172C31.2022 3.2643 31.1965 3.32858 31.175 3.38833C31.1536 3.44807 31.117 3.50125 31.0689 3.5427C28.0087 6.33195 25.7921 9.92344 24.6706 13.9093C22.3878 21.4285 19.5569 14.4575 19.5569 14.4575C19.5569 14.4575 20.0069 7.44551 27.4443 1.85721C27.5257 1.79752 27.621 1.75945 27.7212 1.74658C27.8213 1.7337 27.9231 1.74643 28.017 1.78357L30.9625 2.92087Z" fill="#F0D2C2"/>
<path d="M79.6863 16.8222C79.7396 16.8658 79.7802 16.923 79.8039 16.9876C79.8276 17.0523 79.8334 17.1222 79.8209 17.1899C79.8084 17.2576 79.7779 17.3207 79.7326 17.3726C79.6873 17.4245 79.6289 17.4633 79.5635 17.485C77.7288 18.1122 76.0365 19.0967 74.5844 20.3817C73.1323 21.6667 71.9492 23.2267 71.1034 24.9715C67.6097 32.008 65.9896 25.5197 65.9896 25.5197C65.9896 25.5197 69.4342 16.4704 77.2726 15.1286C77.3501 15.1163 77.4294 15.1202 77.5054 15.1399C77.5814 15.1596 77.6526 15.1947 77.7144 15.2431L79.6863 16.8222Z" fill="#F0D2C2"/>
<path d="M26.626 5.92377L28.2624 6.60287C28.3115 6.61289 28.3622 6.61298 28.4114 6.60315C28.4605 6.59331 28.5073 6.57375 28.5488 6.5456C28.6312 6.49556 28.6924 6.41693 28.7206 6.32469C28.7346 6.27544 28.7382 6.22381 28.7312 6.1731C28.7241 6.12238 28.7066 6.07369 28.6797 6.03014C28.6245 5.94902 28.5439 5.88856 28.4506 5.85831L26.8142 5.17103C26.7155 5.1457 26.6109 5.1597 26.5223 5.21008C26.4338 5.26045 26.3683 5.34327 26.3396 5.44103C26.3036 5.53309 26.3036 5.63535 26.3396 5.7274C26.3944 5.81073 26.4748 5.87393 26.5687 5.90741L26.626 5.92377Z" fill="#2D2745"/>
<path d="M24.7932 8.58315L26.4296 9.27044C26.5295 9.29424 26.6346 9.27963 26.7242 9.22953C26.8053 9.17436 26.8658 9.09376 26.896 9.00043C26.9161 8.95537 26.9265 8.90659 26.9265 8.85725C26.9265 8.80791 26.9161 8.75913 26.896 8.71406C26.8425 8.63285 26.7654 8.57001 26.6751 8.53406L25.0387 7.85496C24.9922 7.83468 24.9421 7.82422 24.8914 7.82422C24.8407 7.82422 24.7906 7.83468 24.7441 7.85496C24.7 7.87954 24.6612 7.91278 24.6301 7.95269C24.599 7.9926 24.5763 8.03836 24.5634 8.08723C24.5504 8.13611 24.5474 8.1871 24.5545 8.23716C24.5617 8.28722 24.5789 8.33533 24.6051 8.3786C24.6602 8.45972 24.7408 8.52017 24.8341 8.55043L24.7932 8.58315Z" fill="#2D2745"/>
<path d="M73.5169 18.6301L74.8178 19.8247C74.8918 19.8829 74.9845 19.9119 75.0784 19.9064C75.1724 19.9008 75.261 19.8609 75.3276 19.7944C75.3941 19.7279 75.4339 19.6392 75.4395 19.5453C75.4451 19.4514 75.416 19.3586 75.3579 19.2847L74.0487 18.0983C73.9782 18.0278 73.8825 17.9883 73.7828 17.9883C73.6831 17.9883 73.5875 18.0278 73.5169 18.0983C73.481 18.1327 73.4525 18.1739 73.4329 18.2196C73.4134 18.2653 73.4034 18.3145 73.4034 18.3642C73.4034 18.4139 73.4134 18.4631 73.4329 18.5088C73.4525 18.5545 73.481 18.5958 73.5169 18.6301Z" fill="#2D2745"/>
<path d="M71.0541 21.0438L72.3551 22.2384C72.428 22.3074 72.5246 22.3459 72.6251 22.3459C72.7255 22.3459 72.8222 22.3074 72.8951 22.2384C72.966 22.1664 73.0058 22.0694 73.0058 21.9684C73.0058 21.8673 72.966 21.7703 72.8951 21.6984L71.5942 20.512C71.5236 20.4404 71.4276 20.3997 71.327 20.3989C71.2265 20.3982 71.1298 20.4374 71.0582 20.5079C70.9866 20.5784 70.946 20.6745 70.9452 20.775C70.9444 20.8755 70.9836 20.9722 71.0541 21.0438Z" fill="#2D2745"/>
<path d="M31.0935 3.53475C30.6324 3.93976 30.1927 4.36853 29.7762 4.81932L25.7097 3.31384C26.2416 2.8311 26.8143 2.34837 27.4443 1.87381C27.5258 1.81412 27.621 1.77606 27.7212 1.76318C27.8214 1.7503 27.9232 1.76303 28.0171 1.80017L30.9626 2.9211C31.0235 2.94013 31.0784 2.97503 31.1214 3.02222C31.1644 3.06941 31.1941 3.1272 31.2074 3.18966C31.2208 3.25212 31.2172 3.31699 31.1972 3.37764C31.1772 3.43828 31.1414 3.49251 31.0935 3.53475Z" fill="#2D2745"/>
<path d="M79.5635 17.4847C79.031 17.6648 78.5092 17.8752 78.0007 18.1147L75.317 15.6601C75.9526 15.4318 76.6069 15.2594 77.2725 15.1447C77.3501 15.1325 77.4293 15.1363 77.5053 15.156C77.5813 15.1757 77.6525 15.2109 77.7143 15.2592L79.6862 16.8383C79.7354 16.8825 79.7724 16.9387 79.7935 17.0014C79.8147 17.0641 79.8193 17.1311 79.807 17.1961C79.7946 17.2611 79.7657 17.3218 79.7231 17.3724C79.6804 17.4229 79.6254 17.4616 79.5635 17.4847Z" fill="#2D2745"/>
<path d="M54.0028 12.0601C45.3217 8.03457 38.097 15.112 38.097 15.112C38.097 15.112 30.8478 8.03457 22.1667 12.0601C11.9392 16.8138 14.3938 30.5514 23.4595 37.8334C28.5487 41.9244 34.0961 45.9581 36.6652 47.7745C37.0749 48.07 37.5673 48.2291 38.0725 48.2291C38.5777 48.2291 39.0701 48.07 39.4798 47.7745C42.0244 45.9581 47.5963 41.9162 52.6855 37.8334C61.7593 30.5514 64.2058 16.8138 54.0028 12.0601Z" fill="#FF624A"/>
<path d="M17.6176 30.3635H29.3015C29.3928 30.35 29.4763 30.3042 29.5366 30.2344C29.5969 30.1645 29.6301 30.0753 29.6301 29.983C29.6301 29.8907 29.5969 29.8015 29.5366 29.7316C29.4763 29.6618 29.3928 29.616 29.3015 29.6025H17.6176C17.5263 29.616 17.4429 29.6618 17.3826 29.7316C17.3222 29.8015 17.289 29.8907 17.289 29.983C17.289 30.0753 17.3222 30.1645 17.3826 30.2344C17.4429 30.3042 17.5263 30.35 17.6176 30.3635Z" fill="#F0D2C2"/>
<path d="M29.6286 30.1751C31.1359 27.8993 32.7751 25.7137 34.5378 23.6295L35.1842 22.9095C35.3846 22.6543 35.625 22.4332 35.896 22.2549C36.3379 22.0177 36.7142 22.3368 36.8697 22.7377C36.9602 22.9702 37.01 23.2165 37.017 23.4659L37.0906 24.5868C37.1397 25.3314 37.1724 26.0759 37.2052 26.8287C37.3279 29.8069 37.3688 32.7852 37.4997 35.7552C37.5324 36.508 37.5734 37.2607 37.6224 38.0134C37.6224 38.3898 37.6715 38.7662 37.7043 39.1426C37.7066 39.4811 37.759 39.8175 37.8597 40.1408C37.9005 40.2906 37.9774 40.4282 38.0837 40.5414C38.19 40.6546 38.3225 40.74 38.4695 40.79C38.6165 40.8401 38.7736 40.8534 38.9269 40.8286C39.0802 40.8039 39.2251 40.7418 39.3488 40.648C39.5453 40.4435 39.6984 40.2014 39.7989 39.9362L40.3389 38.8316C41.8116 35.8043 43.3007 32.7715 44.8062 29.7333C45.019 29.2996 44.3644 28.9151 44.1517 29.3569L40.1343 37.5389L39.1361 39.5844C39.0707 39.7071 38.9397 40.1408 38.7761 40.1326C38.6125 40.1244 38.4979 39.6908 38.4816 39.5353C38.3343 38.038 38.2852 36.5325 38.2197 35.0352C38.1052 32.0651 38.0643 29.0869 37.9252 26.1087C37.9252 25.3641 37.8434 24.6195 37.7943 23.875C37.8118 23.2798 37.6736 22.6903 37.3933 22.1649C37.2603 21.9199 37.0563 21.7208 36.8081 21.5937C36.5598 21.4667 36.279 21.4177 36.0024 21.4531C35.4084 21.6328 34.8924 22.0075 34.5378 22.5168C32.5236 24.8129 30.6675 27.2431 28.9823 29.7905C28.7041 30.1996 29.3668 30.6087 29.6368 30.1751H29.6286Z" fill="#F0D2C2"/>
<path d="M44.5038 29.9055H58.765C58.8563 29.892 58.9397 29.8462 59 29.7764C59.0604 29.7065 59.0936 29.6173 59.0936 29.525C59.0936 29.4327 59.0604 29.3435 59 29.2736C58.9397 29.2038 58.8563 29.158 58.765 29.1445H44.5038C44.4124 29.158 44.329 29.2038 44.2687 29.2736C44.2083 29.3435 44.1751 29.4327 44.1751 29.525C44.1751 29.6173 44.2083 29.7065 44.2687 29.7764C44.329 29.8462 44.4124 29.892 44.5038 29.9055Z" fill="#F0D2C2"/>
<path d="M18.0677 22.2305C18.6369 19.2885 20.3043 16.6734 22.7314 14.9158C22.7744 14.8906 22.812 14.8571 22.842 14.8174C22.8721 14.7776 22.894 14.7323 22.9065 14.684C22.919 14.6358 22.922 14.5855 22.9151 14.5362C22.9082 14.4868 22.8917 14.4393 22.8664 14.3963C22.8412 14.3533 22.8077 14.3157 22.7679 14.2857C22.7281 14.2556 22.6828 14.2337 22.6346 14.2212C22.5863 14.2086 22.5361 14.2057 22.4867 14.2126C22.4374 14.2195 22.3898 14.236 22.3469 14.2613C19.7493 16.1184 17.956 18.8946 17.3313 22.026C17.2413 22.5005 17.9695 22.7051 18.0677 22.2305Z" fill="#F0D2C2"/>
<path d="M81.5188 26.2807C81.4393 26.1798 81.3371 26.0991 81.2205 26.0451C81.1039 25.9911 80.9763 25.9653 80.8479 25.9697C80.6102 25.9696 80.3784 26.044 80.1852 26.1825C80.1208 26.2316 80.0701 26.2964 80.0379 26.3707C80.0136 26.4535 80.0136 26.5415 80.0379 26.6243L80.267 27.4425V27.557C80.2634 27.5732 80.2634 27.59 80.267 27.6061C80.3128 27.6754 80.3798 27.728 80.458 27.756C80.5361 27.784 80.6213 27.786 80.7006 27.7616H80.7743C80.9572 27.6768 81.1193 27.553 81.2493 27.399C81.3794 27.2449 81.4741 27.0643 81.527 26.8698C81.5975 26.6792 81.5946 26.4692 81.5188 26.2807Z" fill="#AEB3BF"/>
<path d="M72.126 30.2732C73.1885 32.6407 74.917 34.6478 77.1007 36.0497C77.2252 36.1405 77.3681 36.203 77.5193 36.2326C77.6706 36.2623 77.8265 36.2585 77.9761 36.2215C78.688 36.3442 80.3816 35.4524 81.1098 33.7669C81.6864 32.5613 81.924 31.2214 81.7971 29.8911C81.6703 28.5607 81.1838 27.2899 80.3898 26.2149C78.9825 24.4313 76.4297 23.024 74.1142 23.7603C71.3487 24.7504 71.1196 27.9822 72.126 30.2732Z" fill="#2D2745"/>
<path d="M72.7724 25.5601C74.1321 25.714 75.3918 26.3497 76.3234 27.352C77.3442 28.4468 78.041 29.8036 78.3361 31.2712C78.5259 32.1577 78.6462 33.0578 78.6961 33.963C78.6961 34.4458 79.5143 34.4458 79.4571 33.963C79.4029 32.2144 79.0141 30.4924 78.3116 28.8902C77.6652 27.4994 76.605 26.3421 75.2761 25.5765C74.5251 25.1329 73.6884 24.854 72.8215 24.7583C72.7302 24.7717 72.6467 24.8175 72.5864 24.8874C72.5261 24.9572 72.4929 25.0465 72.4929 25.1388C72.4929 25.2311 72.5261 25.3203 72.5864 25.3901C72.6467 25.46 72.7302 25.5058 72.8215 25.5192L72.7724 25.5601Z" fill="#645A8C"/>
<path d="M71.2916 46.9812C71.3652 47.3821 71.4307 47.7994 71.5043 48.2003C71.5043 48.4048 71.5779 48.6176 71.6188 48.8221C71.6532 49.0326 71.7569 49.2255 71.9134 49.3703C72.0249 49.4678 72.1652 49.5261 72.3129 49.5364C72.4606 49.5468 72.6076 49.5085 72.7316 49.4276C72.9048 49.2974 73.0242 49.1082 73.0671 48.8958C73.1734 48.5112 73.2716 48.1185 73.378 47.7257V47.6766C73.4225 47.4362 73.3931 47.1879 73.2938 46.9645C73.1945 46.741 73.0299 46.5529 72.8216 46.4248C72.6208 46.3089 72.3902 46.2549 72.1588 46.2694C71.9274 46.284 71.7054 46.3665 71.5207 46.5066C71.4396 46.5673 71.3772 46.6495 71.3407 46.7439C71.3161 46.8211 71.2997 46.9006 71.2916 46.9812Z" fill="#2D2745"/>
<path d="M75.546 27.9742L75.4233 27.9088L75.3496 27.8597C74.9324 27.6142 73.8605 27.0415 72.3468 26.2642C71.5911 25.853 70.7814 25.55 69.9413 25.3642C64.5412 24.2105 58.4866 28.3261 57.2265 34.2335C56.6476 36.4943 56.884 38.8868 57.894 40.9907C58.9041 43.0945 60.6232 44.7752 62.7494 45.7373C63.363 46.0646 66.5213 47.6928 68.4768 47.881C73.656 48.7729 78.7533 45.0255 79.9316 39.3472C80.44 37.2304 80.2928 35.0091 79.5095 32.9779C78.7263 30.9467 77.344 29.2016 75.546 27.9742Z" fill="#6699FF"/>
<path d="M78.8481 39.3099C79.9095 34.3337 77.1658 29.5309 72.7199 28.5827C68.274 27.6344 63.8095 30.8998 62.7481 35.876C61.6868 40.8522 64.4305 45.6549 68.8764 46.6032C73.3223 47.5514 77.7868 44.2861 78.8481 39.3099Z" fill="#F5E3D9"/>
<path d="M70.9396 32.0732C70.9396 34.1924 70.9396 36.3033 71.005 38.4225C71.0185 38.5138 71.0643 38.5972 71.1341 38.6575C71.204 38.7179 71.2932 38.7511 71.3855 38.7511C71.4778 38.7511 71.567 38.7179 71.6369 38.6575C71.7067 38.5972 71.7525 38.5138 71.766 38.4225C71.7087 36.3033 71.6841 34.1924 71.7005 32.0732C71.6871 31.9819 71.6413 31.8985 71.5714 31.8382C71.5016 31.7778 71.4123 31.7446 71.32 31.7446C71.2277 31.7446 71.1385 31.7778 71.0687 31.8382C70.9988 31.8985 70.953 31.9819 70.9396 32.0732Z" fill="#2D2745"/>
<path d="M68.2641 37.5306C69.2542 37.9806 70.2605 38.3979 71.2833 38.7906C71.3809 38.8157 71.4845 38.8014 71.5717 38.7509C71.6589 38.7005 71.7228 38.6177 71.7497 38.5206C71.7726 38.4231 71.7575 38.3205 71.7073 38.2338C71.6571 38.1471 71.5756 38.0829 71.4797 38.0542C70.5224 37.6942 69.5814 37.3015 68.6487 36.876C68.5602 36.8275 68.4565 36.8149 68.359 36.8408C68.2615 36.8667 68.1778 36.9291 68.125 37.0151C68.077 37.1023 68.0646 37.2048 68.0905 37.3009C68.1165 37.397 68.1787 37.4794 68.2641 37.5306Z" fill="#2D2745"/>
<path d="M73.0587 29.8641C72.9606 30.306 72.8706 30.756 72.7724 31.1978C72.7574 31.2911 72.7774 31.3867 72.8285 31.4663C72.8795 31.5458 72.9581 31.6038 73.0492 31.6291C73.1403 31.6544 73.2375 31.6452 73.3222 31.6034C73.407 31.5616 73.4734 31.49 73.5088 31.4024L73.7951 30.0605C73.8181 29.963 73.8029 29.8604 73.7527 29.7737C73.7025 29.687 73.6211 29.6228 73.5251 29.5941C73.4275 29.569 73.3239 29.5833 73.2367 29.6338C73.1495 29.6843 73.0856 29.767 73.0587 29.8641Z" fill="#2D2745"/>
<path d="M69.9741 44.3055L69.6959 45.6474C69.6699 45.7439 69.6833 45.8469 69.7331 45.9336C69.783 46.0203 69.8653 46.0836 69.9618 46.1096C70.0584 46.1357 70.1614 46.1223 70.2481 46.0724C70.3348 46.0226 70.3981 45.9403 70.4241 45.8437C70.5223 45.4019 70.6123 44.9519 70.7105 44.5101C70.7359 44.4136 70.7228 44.3109 70.6739 44.2239C70.6251 44.1369 70.5443 44.0723 70.4487 44.0437C70.3511 44.018 70.2474 44.0309 70.159 44.0796C70.0706 44.1284 70.0044 44.2093 69.9741 44.3055Z" fill="#2D2745"/>
<path d="M77.9516 39.0445L76.798 38.7991C76.7514 38.7792 76.7013 38.769 76.6507 38.769C76.6001 38.769 76.55 38.7792 76.5034 38.7991C76.4603 38.8231 76.4228 38.8559 76.3932 38.8953C76.3636 38.9348 76.3426 38.9801 76.3316 39.0282C76.3083 39.1246 76.3223 39.2263 76.3709 39.3128C76.4194 39.3993 76.499 39.4642 76.5934 39.4945L77.7471 39.74C77.8419 39.7766 77.9469 39.7766 78.0416 39.74C78.1252 39.6874 78.1863 39.6058 78.2135 39.5109C78.2389 39.4144 78.2258 39.3118 78.1769 39.2247C78.128 39.1377 78.0473 39.0731 77.9516 39.0445Z" fill="#2D2745"/>
<path d="M65.5231 36.3935L64.3776 36.148C64.2828 36.1115 64.1778 36.1115 64.0831 36.148C63.9975 36.2003 63.9336 36.2816 63.9031 36.3771C63.8801 36.4746 63.8953 36.5772 63.9455 36.6639C63.9957 36.7506 64.0771 36.8149 64.1731 36.8435L65.3267 37.089C65.419 37.1006 65.5124 37.0784 65.5896 37.0265C65.6668 36.9746 65.7225 36.8964 65.7465 36.8065C65.7705 36.7166 65.761 36.6211 65.72 36.5376C65.6789 36.4542 65.6089 36.3884 65.5231 36.3526V36.3935Z" fill="#2D2745"/>
<path d="M63.6084 45.099C63.6175 44.9964 63.5946 44.8935 63.543 44.8044C63.4347 44.5975 63.267 44.4277 63.0614 44.3168C62.8558 44.206 62.6217 44.1593 62.3893 44.1826C62.1439 44.2149 61.9144 44.3217 61.7315 44.4885C61.5487 44.6552 61.4213 44.874 61.3666 45.1154C61.3666 45.1154 61.3666 45.1154 61.3666 45.1726C61.3011 45.5654 61.2275 45.9908 61.1702 46.359C61.1214 46.5703 61.1535 46.7921 61.2602 46.9809C61.3396 47.099 61.4545 47.1889 61.5884 47.2374C61.7222 47.286 61.868 47.2907 62.0047 47.2509C62.2098 47.1872 62.3862 47.0541 62.5038 46.8745L62.8639 46.3508L63.5511 45.3281C63.579 45.2542 63.5982 45.1773 63.6084 45.099Z" fill="#2D2745"/>
<path d="M66.8568 23.0081C66.7028 22.6846 66.489 22.3931 66.2268 22.149C64.435 20.5126 61.5222 20.7498 59.5094 21.8053C58.3455 22.4629 57.3826 23.4248 56.7239 24.588C56.0651 25.7513 55.7355 27.0718 55.7703 28.4082C55.7661 29.492 56.1591 30.5398 56.8748 31.3537C57.0546 31.5585 57.2642 31.7351 57.4966 31.8773C57.4966 31.8773 60.8513 33.9474 65.1223 30.0118C68.3787 27.0009 67.3396 23.9899 66.8568 23.0081Z" fill="#2D2745"/>
<path d="M60.1393 23.531V23.4901C60.1362 23.4767 60.1362 23.4627 60.1393 23.4492V23.4001C60.147 23.3706 60.147 23.3396 60.1393 23.3101C60.1438 23.283 60.1438 23.2554 60.1393 23.2283C60.0867 23.1413 60.0265 23.0592 59.9593 22.9828L59.7875 22.8192C59.6999 22.7517 59.6069 22.6915 59.5093 22.6392C59.384 22.5789 59.2474 22.5455 59.1084 22.541C58.9732 22.5424 58.8407 22.5795 58.7243 22.6484C58.608 22.7174 58.5119 22.8158 58.4457 22.9338C58.3838 23.0278 58.342 23.1337 58.3229 23.2447C58.2943 23.3878 58.2943 23.5352 58.3229 23.6783C58.3849 23.917 58.4965 24.14 58.6502 24.3329C58.6873 24.3863 58.7382 24.4288 58.7975 24.4556H58.8548H59.133C59.3416 24.3911 59.5353 24.2855 59.7025 24.145C59.8697 24.0044 60.0071 23.8319 60.1066 23.6374C60.1215 23.6033 60.1324 23.5676 60.1393 23.531Z" fill="#AEB3BF"/>
<path d="M19.884 33.0638C16.153 28.4982 9.63197 32.3274 8.12649 36.942C8.04212 37.1917 7.9711 37.4457 7.91376 37.7029C7.20192 40.8612 8.19194 44.7722 11.4975 45.9913C18.3867 48.5441 24.1632 38.3002 19.884 33.0638Z" fill="#AEB3BF"/>
<path d="M11.4565 42.4563C11.0705 40.8078 11.3126 39.0747 12.1356 37.5951C12.9586 36.1155 14.3034 34.9957 15.9075 34.4543C16.3657 34.2906 16.1693 33.5543 15.703 33.7179C14.2938 34.1971 13.0525 35.072 12.1274 36.238C11.2591 37.3519 10.7205 38.687 10.5728 40.0917C10.4909 40.9414 10.5322 41.7984 10.6956 42.6363C10.7856 43.119 11.5138 42.9145 11.432 42.4317L11.4565 42.4563Z" fill="#2D2745"/>
<path d="M31.5434 41.1799C30.5452 38.5535 28.2706 36.0089 25.2597 36.0498C24.1973 36.1134 23.1677 36.4416 22.2645 37.0046C21.3614 37.5677 20.6134 38.3476 20.0886 39.2735C19.2633 40.6638 18.8278 42.2508 18.8278 43.8677C18.8278 45.4845 19.2633 47.0715 20.0886 48.4619C22.0932 51.5465 26.5933 53.8784 29.7598 51.2356C32.4434 48.9937 32.8607 44.6573 31.5434 41.1799Z" fill="#8D97B0"/>
<path d="M25.0143 43.5527C22.3748 43.0039 19.6458 43.055 17.0287 43.7022C14.4117 44.3493 11.9734 45.5761 9.89394 47.2919C9.77381 47.3866 9.67906 47.5097 9.61821 47.6501C9.55735 47.7905 9.53229 47.9438 9.54526 48.0962C9.55824 48.2487 9.60885 48.3955 9.69255 48.5236C9.77625 48.6517 9.89043 48.757 10.0249 48.8301C9.99137 49.3881 10.0807 49.9467 10.2867 50.4665C10.2867 50.5156 10.2867 50.5565 10.344 50.5974C10.2717 50.7504 10.241 50.9196 10.2548 51.0882C10.2686 51.2568 10.3265 51.4188 10.4226 51.5581C10.5187 51.6973 10.6497 51.8088 10.8025 51.8814C10.9552 51.9541 11.1244 51.9853 11.2931 51.972C16.8257 51.532 22.0327 49.1801 26.0206 45.32C26.1709 45.1526 26.2647 44.9421 26.2887 44.7184C26.3128 44.4947 26.2658 44.2691 26.1544 44.0736C26.0431 43.8781 25.8731 43.7226 25.6684 43.6291C25.4638 43.5356 25.2349 43.5089 25.0143 43.5527Z" fill="#8D97B0"/>
<path d="M12.2748 48.3556C11.9457 47.3991 11.48 46.4951 10.8921 45.6719C10.4478 45.015 9.8703 44.4589 9.1971 44.0398C8.5239 43.6207 7.77005 43.3478 6.98452 43.239C6.19899 43.1302 5.39937 43.1879 4.63758 43.4083C3.8758 43.6287 3.1689 44.0069 2.56281 44.5183C-0.300886 46.7519 -0.513618 50.9411 0.697316 54.263C1.99007 57.8058 5.60651 60.9722 9.55023 59.1067C13.4939 57.2413 13.6739 52.193 12.2748 48.3556Z" fill="#8D97B0"/>
<path d="M4.65725 46.1629C5.94883 47.0119 6.9916 48.1889 7.6788 49.5734C8.36601 50.9579 8.67296 52.5001 8.56824 54.0422C8.49906 54.9825 8.27801 55.9053 7.91368 56.775C7.89619 56.8254 7.88939 56.8789 7.8937 56.9321C7.89802 56.9853 7.91337 57.037 7.93876 57.084C7.96416 57.1309 7.99906 57.1721 8.04122 57.2048C8.08339 57.2375 8.13191 57.2611 8.18369 57.2741C8.28216 57.2954 8.38503 57.2796 8.4726 57.2298C8.56017 57.18 8.62627 57.0996 8.65825 57.004C9.30843 55.3942 9.50499 53.637 9.22659 51.9233C8.94819 50.2097 8.20547 48.605 7.07912 47.2838C6.48931 46.5967 5.80308 45.9987 5.04181 45.5084C4.63271 45.2384 4.22361 45.8929 4.65725 46.1629Z" fill="#2D2745"/>
<path d="M11.4565 46.5389C12.2983 48.0104 12.8144 49.6454 12.9701 51.3335C13.0111 51.8162 13.7883 51.8244 13.7229 51.3335C13.564 49.5105 13.0053 47.745 12.0865 46.1625C12.0366 46.0757 11.9542 46.0123 11.8576 45.9862C11.7609 45.9601 11.6578 45.9735 11.571 46.0234C11.4842 46.0733 11.4208 46.1557 11.3947 46.2523C11.3686 46.349 11.382 46.4521 11.4319 46.5389H11.4565Z" fill="#2D2745"/>
<path d="M21.5859 42.9227C20.7507 41.9579 19.8246 41.0756 18.8204 40.2881C17.8713 39.5599 16.7422 38.709 15.4903 38.6517C15.2423 38.6342 14.9934 38.6707 14.7609 38.7587C14.5284 38.8467 14.3177 38.9841 14.1434 39.1615C13.9692 39.3389 13.8355 39.552 13.7516 39.786C13.6677 40.0201 13.6356 40.2696 13.6576 40.5172C13.7476 41.7036 14.9012 42.7836 15.6376 43.6346C17.471 45.7281 19.5793 47.5639 21.905 49.092C21.9987 49.1613 22.1061 49.2098 22.2201 49.2342C22.334 49.2587 22.4519 49.2585 22.5658 49.2337C22.6796 49.2089 22.7869 49.1601 22.8804 49.0905C22.9739 49.0209 23.0514 48.9321 23.1078 48.8301C23.2018 48.8096 23.2907 48.7707 23.3696 48.7156C25.6196 47.3328 22.6578 44.1828 21.5859 42.9227Z" fill="#AEB3BF"/>
<path d="M31.7071 44.8206C27.9761 40.255 21.4551 44.076 19.9414 48.6907C19.8596 48.9443 19.7941 49.198 19.7369 49.4516C19.0168 52.618 20.015 56.5208 23.3206 57.7481C30.2098 60.2927 36.0026 50.0489 31.7071 44.8206Z" fill="#AEB3BF"/>
<path d="M14.1813 41.2371C14.2009 41.104 14.231 40.9727 14.2713 40.8443C14.3013 40.7251 14.3453 40.6097 14.4022 40.5007C14.5308 40.2446 14.7056 40.0144 14.9177 39.8216C15.3326 39.4446 15.8709 39.2322 16.4314 39.2243C16.5319 39.2222 16.6276 39.1807 16.698 39.1088C16.7684 39.0369 16.8077 38.9403 16.8077 38.8398C16.8056 38.7406 16.7653 38.6461 16.6952 38.5759C16.625 38.5058 16.5305 38.4655 16.4314 38.4634C15.67 38.4768 14.9397 38.7678 14.3777 39.2816C13.8309 39.7949 13.4904 40.4903 13.4204 41.2371C13.4204 41.3377 13.4597 41.4343 13.5301 41.5061C13.6005 41.578 13.6962 41.6195 13.7968 41.6216C13.8981 41.6195 13.9947 41.5784 14.0664 41.5067C14.138 41.435 14.1792 41.3384 14.1813 41.2371Z" fill="#2D2745"/>
<path d="M13.4695 41.5479C14.0164 42.4849 14.6521 43.3671 15.3677 44.1825C15.4397 44.2535 15.5367 44.2933 15.6377 44.2933C15.7388 44.2933 15.8358 44.2535 15.9077 44.1825C15.9782 44.112 16.0177 44.0163 16.0177 43.9166C16.0177 43.8169 15.9782 43.7213 15.9077 43.6507C15.239 42.889 14.6419 42.0674 14.124 41.1961C14.073 41.1093 13.9897 41.0463 13.8922 41.021C13.7948 40.9957 13.6913 41.0101 13.6045 41.0611C13.5177 41.1121 13.4547 41.1955 13.4294 41.2929C13.4041 41.3903 13.4185 41.4938 13.4695 41.5806V41.5479Z" fill="#2D2745"/>
<path d="M16.243 39.1756C17.2248 39.5779 18.1384 40.1299 18.9512 40.812C19.025 40.8793 19.1213 40.9165 19.2212 40.9165C19.3211 40.9165 19.4174 40.8793 19.4912 40.812C19.5622 40.74 19.6019 40.643 19.6019 40.542C19.6019 40.4409 19.5622 40.3439 19.4912 40.272C18.631 39.5401 17.6621 38.9466 16.6193 38.5129C16.5317 38.4668 16.4299 38.4555 16.3343 38.4813C16.2387 38.5071 16.1564 38.5681 16.1039 38.6519C16.0777 38.6952 16.0605 38.7433 16.0534 38.7934C16.0462 38.8434 16.0492 38.8944 16.0622 38.9433C16.0752 38.9922 16.0979 39.038 16.1289 39.0779C16.16 39.1178 16.1988 39.151 16.243 39.1756Z" fill="#2D2745"/>
<path d="M24.0487 38.7743C24.8316 39.017 25.5412 39.4519 26.1129 40.0393C26.6846 40.6267 27.1001 41.3479 27.3215 42.1371C27.3568 42.2248 27.4232 42.2963 27.508 42.3382C27.5928 42.38 27.69 42.3891 27.7811 42.3638C27.8722 42.3385 27.9507 42.2806 28.0018 42.201C28.0528 42.1215 28.0728 42.0259 28.0579 41.9325C27.7967 41.0187 27.3121 40.1841 26.6479 39.5042C25.9837 38.8243 25.1608 38.3204 24.2533 38.0379C23.7869 37.8906 23.5823 38.627 24.0487 38.7743Z" fill="#2D2745"/>
<path d="M20.5467 47.6764C21.0172 46.6043 21.7693 45.6797 22.7232 45.0009C22.8086 44.9497 22.8708 44.8673 22.8967 44.7712C22.9227 44.6751 22.9103 44.5726 22.8622 44.4854C22.8377 44.4412 22.8044 44.4024 22.7645 44.3713C22.7246 44.3403 22.6788 44.3176 22.63 44.3046C22.5811 44.2916 22.5301 44.2886 22.48 44.2958C22.43 44.3029 22.3819 44.3201 22.3386 44.3463C21.2643 45.0969 20.4156 46.1267 19.884 47.3245C19.838 47.4122 19.8267 47.514 19.8525 47.6095C19.8783 47.7051 19.9392 47.7874 20.0231 47.84C20.1101 47.8913 20.2138 47.9063 20.3117 47.8819C20.4097 47.8574 20.4941 47.7953 20.5467 47.7091V47.6764Z" fill="#2D2745"/>
<path d="M23.2223 55.0403C22.8108 53.3636 22.9632 51.598 23.656 50.0166C24.3177 48.5302 25.4315 47.2904 26.8388 46.4738C27.6002 46.0303 28.4295 45.7151 29.2933 45.5411C29.7761 45.4511 29.5715 44.7229 29.0888 44.8129C27.3794 45.1562 25.8153 46.0124 24.6051 47.2675C23.5963 48.3103 22.87 49.5931 22.4949 50.9947C22.1198 52.3963 22.1083 53.8703 22.4614 55.2776C22.5759 55.7522 23.2796 55.5476 23.1896 55.0731L23.2223 55.0403Z" fill="#2D2745"/>
<path d="M49.8546 53.9195C49.7973 53.7232 49.3555 53.6659 49.3555 53.6659C48.463 53.3836 47.6387 52.9194 46.9346 52.3026C46.2304 51.6858 45.6618 50.9297 45.2645 50.0822C45.2683 50.0186 45.257 49.955 45.2314 49.8966C45.2058 49.8383 45.1666 49.7869 45.1172 49.7467C45.0287 49.5385 44.9522 49.3254 44.8881 49.1085C44.8621 49.0119 44.7987 48.9297 44.712 48.8798C44.6253 48.8299 44.5224 48.8166 44.4258 48.8426C44.3293 48.8686 44.247 48.932 44.1971 49.0187C44.1472 49.1054 44.1339 49.2083 44.1599 49.3049C44.1599 49.444 44.2417 49.5749 44.2826 49.7058C44.0533 49.7719 43.8448 49.8958 43.6772 50.0658C43.4235 49.8449 42.9244 50.0658 43.0553 50.434C43.309 51.175 43.6438 51.8857 44.0535 52.5531C44.2928 52.9758 44.5665 53.3781 44.8717 53.7559C44.9009 53.7879 44.9256 53.8237 44.9454 53.8622C44.9676 53.9052 44.9792 53.9529 44.9792 54.0013C44.9792 54.0497 44.9676 54.0974 44.9454 54.1404C44.7245 54.4268 44.2417 54.4186 43.9226 54.4268C42.9824 54.4566 42.0449 54.3123 41.1571 54.0013C40.8135 53.8868 39.2098 53.1831 39.3162 53.4122C38.8662 53.4122 39.8235 54.4595 39.3734 54.4595C39.2736 54.4595 39.1779 54.4992 39.1073 54.5698C39.0367 54.6404 38.9971 54.7361 38.9971 54.8359C38.9971 54.9357 39.0367 55.0315 39.1073 55.102C39.1779 55.1726 39.2736 55.2123 39.3734 55.2123C41.9432 55.2448 44.4731 55.8514 46.7781 56.9878C46.944 57.0844 47.1232 57.1561 47.31 57.2005C47.7142 57.2139 48.1158 57.1314 48.482 56.9598C48.8482 56.7881 49.1685 56.5321 49.4167 56.2129C49.6649 55.8936 49.834 55.5201 49.9101 55.1229C49.9862 54.7257 49.9672 54.3161 49.8546 53.9277V53.9195Z" fill="#F0D2C2"/>
<path d="M46.5327 46.6375C46.9772 46.0639 47.2184 45.3587 47.2184 44.633C47.2184 43.9072 46.9772 43.2021 46.5327 42.6284C45.2481 40.7711 40.2898 40.2311 39.0216 43.2093C38.6035 43.1749 38.1827 43.2279 37.7861 43.3648L37.6552 43.4138C35.8388 42.2847 33.4742 43.5284 32.5415 45.5575C32.2179 46.1711 32.0386 46.8505 32.0173 47.5438C31.9961 48.2372 32.1333 48.9263 32.4187 49.5585C31.6078 49.8509 30.945 50.4515 30.5743 51.2297C30.2036 52.0079 30.1548 52.901 30.4387 53.715C30.6575 54.3343 31.082 54.8599 31.6414 55.2041C31.6512 55.7807 31.8399 56.34 32.1814 56.8047C32.5229 57.2693 33.0004 57.6164 33.5479 57.7978C34.018 57.9296 34.5122 57.951 34.992 57.8601C35.4717 57.7693 35.924 57.5687 36.3134 57.2741C36.9408 57.452 37.6101 57.4116 38.2116 57.1596C38.7715 56.9012 39.2532 56.4996 39.6081 55.9953C39.9629 55.491 40.1783 54.9019 40.2325 54.2877C40.748 53.8704 41.4598 53.9441 41.6889 53.3795C42.9478 53.3743 44.1699 52.9545 45.1663 52.1849C46.639 50.974 47.8827 48.0776 46.5327 46.6375Z" fill="#40856B"/>
<path d="M47.5227 47.2021C47.9314 46.5777 48.1816 45.8631 48.2518 45.1202C48.322 44.3772 48.21 43.6284 47.9255 42.9386C47.641 42.2487 47.1926 41.6386 46.6191 41.1611C46.0457 40.6836 45.3645 40.3531 44.6345 40.1983C42.2208 39.5601 39.1525 40.1983 38.0071 42.6529L38.9971 42.0883C38.4405 42.0555 37.8832 42.1391 37.3607 42.3338L38.2443 42.4483C37.3069 41.9488 36.2261 41.7867 35.1834 41.9893C34.1406 42.1919 33.1992 42.7469 32.517 43.5611C31.7009 44.4276 31.1603 45.5168 30.9636 46.6908C30.767 47.8647 30.9232 49.0706 31.4124 50.1558L31.8215 48.593C28.7778 50.0903 28.0496 54.2058 31.0033 56.2023L30.4387 55.2204C30.5778 58.5423 34.1697 60.0396 36.8534 58.305L36.0025 58.395C38.7189 59.0169 40.8053 57.1923 41.329 54.6149L40.8053 55.2941C41.4926 54.8277 42.2044 54.7704 42.6708 53.9849L41.7299 54.5495C42.7963 54.5646 43.8495 54.3119 44.793 53.8144C45.7365 53.3169 46.54 52.5907 47.13 51.7022C48.3082 49.943 48.8237 47.6112 47.3836 45.8193C46.4509 44.6902 44.839 46.3102 45.7472 47.4557C46.4836 48.3557 45.559 50.0494 44.9863 50.7858C44.5919 51.2698 44.0918 51.6572 43.5245 51.9182C42.9573 52.1791 42.3378 52.3067 41.7135 52.2913C41.5148 52.2914 41.3196 52.3436 41.1473 52.4426C40.975 52.5417 40.8317 52.6841 40.7317 52.8558C40.6744 52.954 40.1835 53.0686 40.0935 53.1095C39.7666 53.2458 39.4836 53.4694 39.2753 53.7558C38.9235 54.3531 39.0053 55.0731 38.5225 55.6377C38.2839 55.9169 37.9678 56.119 37.6143 56.2186C37.1398 56.3577 36.7961 56.1613 36.3379 56.1777C35.5197 56.2186 35.0452 56.9305 34.1697 56.7914C33.8261 56.7402 33.5077 56.581 33.2605 56.3368C33.0134 56.0926 32.8504 55.7761 32.7951 55.4331C32.7051 55.0322 32.7951 54.7459 32.4515 54.4104C32.1079 54.0749 31.8869 54.0258 31.6824 53.6904C30.8642 52.3731 31.8133 51.1458 32.9915 50.5649C33.2491 50.4083 33.4358 50.1578 33.5121 49.8662C33.5884 49.5746 33.5485 49.2648 33.4006 49.0021C33.113 48.2171 33.0943 47.3587 33.3476 46.5619C33.6008 45.7652 34.1116 45.0751 34.7997 44.6002C35.0457 44.4141 35.3275 44.2809 35.6274 44.2091C35.9274 44.1373 36.2389 44.1284 36.5425 44.1829C36.9189 44.2729 37.2216 44.5593 37.6307 44.5593C38.0398 44.5593 38.5062 44.3384 38.9971 44.3547C39.1961 44.3563 39.392 44.3048 39.5646 44.2056C39.7371 44.1064 39.8801 43.963 39.9789 43.7902C41.3944 40.7383 47.7764 42.4892 45.5509 46.0566C44.7736 47.3003 46.7454 48.4457 47.5227 47.2021Z" fill="#40856B"/>
<path d="M34.6444 50.8838C34.3591 51.0726 34.1251 51.329 33.9632 51.6303C33.8013 51.9315 33.7165 52.2682 33.7165 52.6102C33.7165 52.9523 33.8013 53.2889 33.9632 53.5902C34.1251 53.8915 34.3591 54.1479 34.6444 54.3366L34.5053 53.8212C34.3359 54.1764 34.248 54.565 34.248 54.9585C34.248 55.352 34.3359 55.7406 34.5053 56.0958C34.6769 56.4052 34.9111 56.6755 35.1928 56.8896C35.4745 57.1037 35.7976 57.2569 36.1417 57.3394C36.234 57.3511 36.3274 57.3289 36.4045 57.277C36.4817 57.225 36.5375 57.1469 36.5614 57.057C36.5854 56.9671 36.576 56.8716 36.5349 56.7881C36.4938 56.7046 36.4239 56.6389 36.338 56.6031C36.0937 56.5382 35.8663 56.4212 35.6715 56.2602C35.4766 56.0991 35.319 55.8977 35.2094 55.6699C35.0998 55.4422 35.0408 55.1933 35.0365 54.9406C35.0321 54.6878 35.0826 54.4371 35.1844 54.2057C35.2309 54.1169 35.2424 54.0138 35.2167 53.9169C35.1909 53.8199 35.1298 53.7361 35.0453 53.6821C34.8763 53.5591 34.7387 53.3979 34.6439 53.2116C34.549 53.0253 34.4996 52.8193 34.4996 52.6102C34.4996 52.4012 34.549 52.1951 34.6439 52.0089C34.7387 51.8226 34.8763 51.6614 35.0453 51.5384C35.4462 51.2602 35.0453 50.6057 34.6607 50.8838H34.6444Z" fill="#2D2745"/>
<path d="M39.7091 48.4698C39.4988 48.4102 39.3096 48.2924 39.1632 48.13C39.0169 47.9676 38.9193 47.7673 38.8817 47.5519C38.8441 47.3366 38.868 47.115 38.9507 46.9127C39.0333 46.7103 39.1714 46.5354 39.3491 46.408C39.5864 46.2443 39.8073 46.0971 39.8564 45.7943C39.8622 45.5138 39.7663 45.2406 39.5864 45.0252C39.4443 44.8211 39.355 44.5851 39.3265 44.3381C39.2979 44.0911 39.331 43.8408 39.4227 43.6097C39.4708 43.5225 39.4831 43.4201 39.4572 43.3239C39.4313 43.2278 39.369 43.1455 39.2836 43.0943C39.1979 43.0433 39.0955 43.0285 38.9988 43.0531C38.9022 43.0776 38.8192 43.1395 38.7682 43.2252C38.6388 43.5191 38.572 43.8368 38.572 44.1579C38.572 44.4791 38.6388 44.7967 38.7682 45.0907C38.826 45.2257 38.8973 45.3545 38.9809 45.4752C39.015 45.5421 39.0562 45.6052 39.1036 45.6634C39.1036 45.7289 39.1036 45.7207 39.1036 45.6634C39.0881 45.6815 39.0685 45.6955 39.0463 45.7043C38.7762 45.8489 38.55 46.0637 38.3918 46.3261C38.2315 46.5798 38.1329 46.8675 38.1037 47.1662C38.0745 47.4648 38.1156 47.7661 38.2238 48.046C38.3319 48.326 38.5041 48.5767 38.7265 48.7781C38.9489 48.9796 39.2153 49.1262 39.5045 49.2062C39.6011 49.2322 39.7041 49.2189 39.7907 49.169C39.8774 49.1191 39.9408 49.0369 39.9668 48.9403C39.9929 48.8437 39.9795 48.7408 39.9296 48.6541C39.8797 48.5674 39.7975 48.504 39.7009 48.478L39.7091 48.4698Z" fill="#2D2745"/>
<path d="M72.5188 44.8125C72.2692 44.0693 71.9077 43.3685 71.4469 42.7343C71.0551 42.2428 70.5819 41.8221 70.0478 41.4906C69.1768 40.9377 68.1831 40.6074 67.1544 40.529C66.1257 40.4505 65.0935 40.6262 64.1486 41.0406C62.532 41.7148 61.2182 42.9577 60.4554 44.5346C59.6926 46.1114 59.5336 47.9129 60.0085 49.599C60.3317 50.8375 61.0605 51.9322 62.0786 52.7081C63.1216 53.5482 64.3902 54.0604 65.7242 54.1798C67.0582 54.2992 68.3976 54.0205 69.5733 53.379C72.6988 51.6199 73.6397 47.9544 72.5188 44.8125Z" fill="#FFBB5C"/>
<path d="M53.8884 46.6372C53.6388 45.894 53.2773 45.1932 52.8165 44.559C52.4227 44.0693 51.9498 43.649 51.4174 43.3153C50.5464 42.7624 49.5527 42.4322 48.524 42.3537C47.4953 42.2752 46.463 42.4509 45.5182 42.8653C43.9016 43.5395 42.5878 44.7824 41.825 46.3593C41.0622 47.9361 40.9032 49.7376 41.3781 51.4237C41.7013 52.6622 42.4301 53.7569 43.4482 54.5328C44.4912 55.3729 45.7598 55.8851 47.0938 56.0045C48.4278 56.1239 49.7672 55.8453 50.9429 55.2037C54.0684 53.4119 54.9766 49.7464 53.8884 46.6372Z" fill="#FFBB5C"/>
<path d="M45.5429 41.3354C45.9926 41.8764 46.3796 42.4665 46.6965 43.0946C46.8069 43.3601 46.8972 43.6336 46.9665 43.9128C47.0729 44.2973 47.1547 44.731 47.2284 45.091C47.2416 45.1389 47.2642 45.1838 47.2948 45.2229C47.3255 45.2621 47.3636 45.2948 47.4069 45.3191C47.4503 45.3435 47.4981 45.359 47.5475 45.3648C47.5969 45.3705 47.6469 45.3665 47.6947 45.3528C47.7907 45.3242 47.8722 45.2599 47.9223 45.1732C47.9725 45.0865 47.9877 44.9839 47.9647 44.8864C47.8474 44.1595 47.647 43.4485 47.3674 42.7673C47.0501 42.1231 46.6574 41.5188 46.1974 40.9673C46.1447 40.8813 46.0609 40.8188 45.9634 40.7929C45.8659 40.7671 45.7622 40.7797 45.6738 40.8282C45.5876 40.8808 45.5255 40.9652 45.501 41.0632C45.4765 41.1611 45.4916 41.2648 45.5429 41.3518V41.3354Z" fill="#2D2745"/>
<path d="M45.3709 45.3198C45.6798 45.557 46.0371 45.7233 46.4175 45.8067C46.7979 45.8901 47.192 45.8887 47.5718 45.8026C48.0791 45.6647 48.562 45.4494 49.0037 45.1644C49.0905 45.1134 49.1535 45.03 49.1788 44.9326C49.2041 44.8351 49.1897 44.7316 49.1387 44.6448C49.0877 44.558 49.0043 44.495 48.9069 44.4697C48.8094 44.4444 48.7059 44.4588 48.6191 44.5098L48.1282 44.788C47.9158 44.9018 47.6906 44.9897 47.4573 45.0498C47.2093 45.1156 46.9508 45.1322 46.6964 45.0989C46.3521 45.0332 46.0291 44.8843 45.7554 44.6653C45.6692 44.6165 45.5675 44.6029 45.4714 44.6273C45.3754 44.6517 45.2925 44.7122 45.24 44.7962C45.1907 44.8837 45.1769 44.9867 45.2012 45.0841C45.2256 45.1815 45.2863 45.2658 45.3709 45.3198Z" fill="#2D2745"/>
<path d="M49.9939 36.5571H49.7402C49.3418 36.6469 48.9689 36.8261 48.65 37.0812C48.331 37.3364 48.0743 37.6608 47.8993 38.0299C47.2775 39.0281 45.322 42.5136 47.6538 42.8245C49.2084 43.0373 50.403 41.0081 50.8693 39.8136C51.1949 39.1171 51.3032 38.3388 51.1803 37.5799C51.1134 37.3072 50.9632 37.0622 50.7506 36.8789C50.5379 36.6955 50.2734 36.5831 49.9939 36.5571Z" fill="#40856B"/>
<path d="M55.1893 54.4675C59.9185 56.2757 66.2841 53.3466 66.9468 48.0856C67.3723 44.7064 65.0322 40.4763 61.4813 39.8136C60.8177 39.6743 60.1306 39.6944 59.4764 39.8722C58.8221 40.05 58.2193 40.3804 57.7175 40.8363C55.5902 39.6909 52.702 39.8054 51.262 42.0964C48.5128 46.4655 50.2556 52.5857 55.1893 54.4675Z" fill="#FFBB5C"/>
<path d="M50.2066 43.0861C49.6814 44.5414 49.5104 46.1008 49.7075 47.6353C49.8084 49.3726 50.3735 51.0509 51.3439 52.4954C51.8887 53.2415 52.6271 53.8244 53.4794 54.1809C53.5306 54.2027 53.586 54.213 53.6416 54.2113C53.6972 54.2096 53.7518 54.1958 53.8016 54.1709C53.8514 54.146 53.8952 54.1106 53.93 54.0671C53.9648 54.0236 53.9897 53.9731 54.003 53.9191C54.026 53.8216 54.0108 53.719 53.9606 53.6323C53.9104 53.5456 53.829 53.4814 53.733 53.4527C53.0808 53.1265 52.5046 52.6664 52.0422 52.1025C51.5798 51.5385 51.2415 50.8834 51.0493 50.1799C50.5374 48.6452 50.3507 47.0207 50.5011 45.4098C50.5571 44.6862 50.7198 43.9749 50.9839 43.2989C50.9975 43.2511 51.0016 43.201 50.9958 43.1516C50.9901 43.1022 50.9745 43.0545 50.9502 43.0111C50.9259 42.9677 50.8932 42.9296 50.854 42.899C50.8148 42.8683 50.77 42.8457 50.722 42.8325C50.6235 42.8092 50.5197 42.8241 50.4317 42.8742C50.3437 42.9243 50.2778 43.0059 50.2475 43.1025L50.2066 43.0861Z" fill="#2D2745"/>
<path d="M64.1403 41.6219C65.2681 42.5096 66.0683 43.7474 66.4149 45.1401C66.8197 47.2297 66.3814 49.3945 65.1958 51.1621C64.9176 51.5712 65.5804 51.9803 65.8504 51.5466C66.7386 50.2223 67.2479 48.6803 67.3231 47.0874C67.411 45.6942 67.0957 44.3052 66.4149 43.0864C65.9691 42.3143 65.3804 41.634 64.6803 41.0818C64.6064 41.0237 64.5137 40.9946 64.4197 41.0002C64.3258 41.0058 64.2372 41.0456 64.1706 41.1121C64.1041 41.1787 64.0642 41.2673 64.0587 41.3612C64.0531 41.4552 64.0821 41.5479 64.1403 41.6219Z" fill="#2D2745"/>
<path d="M58.7239 37.9483C58.1866 39.3043 57.7971 40.7143 57.5621 42.1538C57.5349 42.2504 57.5473 42.3538 57.5964 42.4412C57.6455 42.5287 57.7273 42.5931 57.8239 42.6202C57.9205 42.6473 58.0238 42.635 58.1113 42.5859C58.1988 42.5368 58.2631 42.4549 58.2903 42.3584C58.5281 40.9186 58.9204 39.5086 59.4603 38.1528C59.4752 38.0595 59.4553 37.9639 59.4042 37.8844C59.3531 37.8048 59.2746 37.7468 59.1835 37.7215C59.0924 37.6962 58.9952 37.7054 58.9104 37.7472C58.8257 37.789 58.7593 37.8606 58.7239 37.9483Z" fill="#2D2745"/>
<path d="M60.1559 41.6706C59.6244 41.8971 59.0503 42.0063 58.4728 41.9908C57.8953 41.9753 57.328 41.8354 56.8094 41.5806C56.7665 41.5554 56.7189 41.5388 56.6696 41.532C56.6202 41.5251 56.5699 41.528 56.5217 41.5405C56.4735 41.5531 56.4282 41.575 56.3884 41.605C56.3486 41.6351 56.3151 41.6726 56.2899 41.7156C56.2646 41.7586 56.2481 41.8061 56.2412 41.8555C56.2343 41.9049 56.2372 41.9551 56.2498 42.0034C56.2623 42.0516 56.2842 42.0969 56.3143 42.1367C56.3443 42.1765 56.3819 42.2099 56.4249 42.2352C57.0306 42.5437 57.6957 42.718 58.3748 42.7462C59.0539 42.7745 59.7312 42.656 60.3604 42.3988C60.4564 42.3702 60.5378 42.3059 60.588 42.2192C60.6382 42.1326 60.6534 42.03 60.6304 41.9324C60.6019 41.835 60.536 41.7528 60.4471 41.7037C60.3582 41.6547 60.2535 41.6428 60.1559 41.6706Z" fill="#2D2745"/>
<path d="M54.3219 34.0453C55.0775 34.3381 55.7611 34.7902 56.3265 35.3708C56.9747 36.0525 57.5254 36.8207 57.9629 37.6535C58.4775 38.3392 58.7637 39.1692 58.7811 40.0263C58.769 40.2308 58.7089 40.4295 58.6056 40.6064C58.5022 40.7832 58.3586 40.9332 58.1864 41.044C58.0141 41.1548 57.8182 41.2235 57.6144 41.2442C57.4106 41.265 57.2048 41.2374 57.0138 41.1636C55.7906 40.5396 54.7525 39.6058 54.0028 38.4554C53.25 37.4654 52.3664 36.3199 52.5382 35.0926C52.5683 34.8968 52.6416 34.7102 52.7528 34.5463C52.864 34.3824 53.0103 34.2453 53.1811 34.145C53.3519 34.0447 53.5429 33.9837 53.7403 33.9665C53.9376 33.9492 54.1363 33.9762 54.3219 34.0453Z" fill="#40856B"/>
<path d="M76.6998 42.6933C76.544 42.4774 76.3446 42.2967 76.1145 42.1629C75.8843 42.0292 75.6287 41.9453 75.364 41.9167C75.0993 41.8882 74.8316 41.9156 74.5783 41.9972C74.3249 42.0789 74.0915 42.2129 73.8933 42.3906C73.5227 42.7611 73.2658 43.2298 73.1527 43.7415C73.0396 44.2532 73.0752 44.7866 73.2551 45.2788L73.0915 45.4343C69.2051 49.7543 63.6004 52.0371 57.9712 53.0435C54.7239 53.5796 51.4431 53.8885 48.1528 53.9681C45.8373 54.0581 42.4254 54.099 40.6827 54.8681L40.2654 54.7372C39.4472 54.4672 38.6863 55.4817 38.9644 56.2345C40.1017 59.3109 43.0554 60.7837 45.9764 61.6837C49.0704 62.6207 52.2926 63.0652 55.5248 63.001C58.8195 62.9334 62.0831 62.3481 65.1959 61.2664C68.0596 60.26 71.0133 58.8773 73.157 56.6845C75.497 54.2953 76.4298 50.728 74.8425 47.6843C75.2434 47.177 75.6607 46.6616 76.0043 46.1215C76.6916 45.0988 77.5098 43.8797 76.6998 42.6933Z" fill="#F28E61"/>
<path d="M76.9125 42.9799C76.4952 41.9162 76.0943 41.7853 75.7588 41.6953C75.1462 41.5834 74.5137 41.6797 73.9622 41.9688C73.4106 42.258 72.9716 42.7233 72.7151 43.2908C72.5896 43.6375 72.5742 44.0145 72.6708 44.3703C72.7674 44.7261 72.9715 45.0434 73.2551 45.279C73.7704 44.8773 74.3649 44.5894 74.9996 44.4343C75.6342 44.2792 76.2946 44.2603 76.937 44.379C77.1065 43.9264 77.0977 43.4263 76.9125 42.9799Z" fill="#2D2745"/>
<path d="M47.0728 56.9791C49.9077 57.3555 52.78 57.3555 55.6148 56.9791C58.5797 56.633 61.4968 55.958 64.3123 54.9663C65.79 54.4429 67.2236 53.8027 68.5997 53.0517C69.0251 52.8145 68.5997 52.1599 68.2151 52.3972C65.7639 53.7124 63.1506 54.7 60.4422 55.3345C57.6127 56.048 54.7113 56.4378 51.7939 56.4964C50.2815 56.5373 48.7683 56.4552 47.2692 56.2509C47.1727 56.2255 47.0701 56.2386 46.9831 56.2875C46.896 56.3363 46.8314 56.4171 46.8028 56.5127C46.7778 56.6103 46.792 56.7139 46.8425 56.8011C46.893 56.8883 46.9757 56.9522 47.0728 56.9791Z" fill="#2D2745"/>
<path d="M40.6581 54.8685C40.2771 55.0817 39.9526 55.3832 39.7121 55.7477C39.4715 56.1121 39.3217 56.5289 39.2754 56.9631C39.0194 56.5989 38.8823 56.1645 38.8826 55.7194C38.8905 55.444 39.0018 55.1816 39.1943 54.9845C39.3869 54.7874 39.6466 54.67 39.9217 54.6558C40.182 54.658 40.4367 54.7316 40.6581 54.8685Z" fill="#2D2745"/>
</svg>
