<svg width="114" height="84" viewBox="0 0 114 84" fill="none" xmlns="http://www.w3.org/2000/svg">
<path d="M91.5268 58.1014C91.6604 58.7856 86.868 76.0342 86.8591 76.7415C86.8591 76.7913 86.8965 76.8233 86.9392 76.841C87.4252 77.0312 87.9076 77.2267 88.3901 77.4221C88.4666 77.4541 88.536 77.4133 88.5432 77.3297C88.7034 75.6983 95.6712 60.3477 95.6516 58.7074C95.6516 58.6452 91.979 58.0996 91.5268 58.0996V58.1014Z" fill="#FFA58C"/>
<path d="M86.9747 75.6004C86.859 76.0785 86.357 77.8787 86.4656 78.2003C86.6561 78.7619 87.4696 78.9609 87.9485 79.1866C89.4119 79.8779 89.9566 80.0947 91.4413 80.7416C91.8045 80.8998 92.3475 81.1503 92.7035 80.8376C93.0702 80.5159 92.7427 79.9543 92.4703 79.7091C91.6283 78.9485 90.7684 78.6499 89.6753 77.7827C89.3229 77.5019 88.9704 77.4593 88.8938 76.2064C88.8778 75.9452 88.9722 76.0251 88.7425 75.9505C88.3135 75.8119 87.5978 75.5826 87.1118 75.5275C87.0495 75.5204 86.9925 75.5276 86.9747 75.6004Z" fill="#1F2844"/>
<path d="M84.8082 57.2507C84.5785 57.91 71.7324 70.3978 71.3674 71.0056C71.3407 71.0482 71.3585 71.0944 71.387 71.1317C71.711 71.5405 72.0297 71.951 72.3466 72.3633C72.3982 72.429 72.4765 72.429 72.5246 72.3615C73.4859 71.0322 87.2524 61.2777 88.0625 59.8506C88.0927 59.7956 85.1963 57.4782 84.8064 57.2525L84.8082 57.2507Z" fill="#FFA58C"/>
<path d="M72.0441 70.077C71.7023 70.4306 70.36 71.735 70.2924 72.0674C70.1731 72.6485 70.7766 73.2296 71.0757 73.665C71.9907 74.9978 72.3521 75.4599 73.3081 76.7643C73.5413 77.0824 73.8831 77.5729 74.3495 77.4822C74.8284 77.388 74.8302 76.7394 74.718 76.3893C74.3744 75.3088 73.7816 74.6193 73.276 73.3202C73.1123 72.9008 72.831 72.6876 73.3971 71.5662C73.5146 71.3316 73.5573 71.4489 73.3971 71.2694C73.0962 70.9336 72.5942 70.3756 72.2008 70.0841C72.1509 70.0468 72.0975 70.0237 72.0459 70.077H72.0441Z" fill="#1F2844"/>
<path d="M87.9308 27.0363C88.6732 25.7532 88.6358 24.934 89.5989 24.4399C91.7192 23.3523 97.9927 18.9309 100.54 16.6811C101.001 16.2723 101.489 15.9222 101.206 15.1243C100.928 14.3424 99.5237 13.4058 99.497 13.4218C97.4088 13.2548 95.8831 14.7778 94.3201 15.7854C92.4989 16.9601 87.6585 22.3341 86.9731 23.1497C85.175 25.2912 81.5345 33.6169 81.4722 33.9368C81.3529 34.5464 82.875 34.9693 83.0619 34.5393C84.6107 30.969 85.8996 30.5514 87.9344 27.0345L87.9308 27.0363Z" fill="#FFA58C"/>
<path d="M80.2349 36.5651C79.8058 37.4039 79.5709 38.3494 79.5655 39.2912C79.5655 39.5311 79.5281 39.9754 79.8539 40.0323C80.1245 40.0803 80.2723 39.7515 80.3559 39.5542C80.55 39.1064 80.5874 38.6124 80.7298 38.1485C80.8989 37.5941 81.2336 37.1338 81.5451 36.654C81.5932 36.5794 81.4953 36.5065 81.4365 36.5722C81.4276 36.5829 81.4187 36.5936 81.4081 36.6042C81.3137 36.3394 81.0734 36.0427 80.7618 36.0444C80.4663 36.0444 80.3506 36.3394 80.2349 36.5669V36.5651Z" fill="#FFA58C"/>
<path d="M83.7635 33.0836C83.7368 32.7389 82.9517 33.0908 82.731 32.826C82.7612 32.7744 82.4123 32.2484 82.3767 32.307C81.4617 33.7696 81.5418 33.4497 81.038 33.8602C80.6107 34.2103 80.1016 34.58 79.758 35.0154C79.5426 35.289 79.4304 35.6107 79.6601 35.911C80.0197 36.382 80.6552 36.7392 81.1181 37.1035C81.1501 37.1283 81.1911 37.1106 81.2142 37.0839C81.6112 36.613 82.067 36.2416 82.5191 35.8293C82.7826 35.5876 82.8627 35.3459 82.9019 34.9976C82.9215 34.8252 82.9286 34.7044 82.9891 34.5391C83.0532 34.3632 83.7724 33.1956 83.7635 33.0836Z" fill="#FFA58C"/>
<path d="M82.9691 35.8698C82.9282 35.3651 82.8427 34.9492 82.9851 34.4463C82.9976 34.4036 82.9424 34.377 82.9157 34.4125C82.7145 34.6898 82.7181 35.0185 82.7573 35.3526C82.7234 35.3455 82.686 35.3526 82.6593 35.3846C82.3158 35.7862 82.0594 35.4735 82.0932 35.9906C82.1253 36.4793 81.8921 37.4976 81.6713 37.8566C81.5752 38.0147 81.5129 38.1587 81.4897 38.3417C81.4844 38.3826 81.5325 38.4252 81.5734 38.4128C82.1609 38.2262 82.4849 37.5669 82.7305 37.048C82.9086 36.6712 83.0029 36.2892 82.9691 35.8715V35.8698Z" fill="#FFA58C"/>
<path d="M79.0672 36.3345C78.8998 36.7521 78.7343 37.1875 78.8108 37.6424C78.8856 38.0903 79.0387 38.5594 79.2131 38.9753C79.263 39.0908 79.3288 39.2738 79.4214 39.4302C79.4374 39.6097 79.4802 39.7732 79.5852 39.8514C79.838 40.0398 80.0481 39.7359 80.1228 39.5315C80.1264 39.5226 80.1264 39.5137 80.1264 39.5048C80.2047 39.3573 80.2403 39.169 80.2742 39.041C80.4023 38.5452 80.4789 38.0352 80.4985 37.5234C80.5038 37.3741 80.5091 37.2141 80.5091 37.0489C80.5145 37.0418 80.5198 37.0364 80.5234 37.0276C80.6355 36.7254 80.559 36.4002 80.4148 36.0892C80.3222 35.7072 80.1478 35.3624 79.8202 35.1332C79.8131 35.1278 79.8059 35.126 79.7988 35.1225C79.8362 35.0425 79.8736 34.9643 79.9074 34.8826C79.9181 34.8559 79.9573 34.7813 79.9377 34.8026C79.5745 35.2149 79.2648 35.828 79.0636 36.3327L79.0672 36.3345Z" fill="#FFA58C"/>
<path d="M80.3931 37.0384C80.2916 37.5164 80.0175 37.9252 79.9107 38.4032C79.8092 38.851 79.8288 39.3095 79.7611 39.7609C79.7522 39.8178 79.6614 39.8249 79.6561 39.7609C79.5813 38.7444 79.916 37.9145 80.37 37.0313C80.3753 37.0206 80.3967 37.0224 80.3931 37.0366V37.0384Z" fill="#CF634D"/>
<path d="M79.7506 36.8418C79.7666 36.8258 79.7862 36.8489 79.7809 36.8649C79.7239 37.0586 79.6224 37.2363 79.5548 37.4283C79.4871 37.6184 79.4462 37.8157 79.3839 38.0094C79.3679 38.0609 79.2967 38.0343 79.2984 37.9881C79.3073 37.6007 79.4676 37.1191 79.7488 36.8436L79.7506 36.8418Z" fill="#CF634D"/>
<path d="M79.3392 36.5506C79.3517 36.5382 79.3748 36.5524 79.373 36.5702C79.3534 36.7088 79.2876 36.8367 79.2466 36.97C79.2003 37.1193 79.1808 37.281 79.1202 37.4249C79.1042 37.4623 79.0437 37.4587 79.0383 37.4143C79.0116 37.1442 79.1434 36.7408 79.3392 36.5506Z" fill="#CF634D"/>
<path d="M107.884 3.90489C107.951 3.85336 108.017 3.8036 108.087 3.75384C108.145 3.71296 108.104 3.60456 108.04 3.6401C106.461 4.51266 105.571 6.43905 104.777 8.14152C103.773 10.2936 102.769 12.4457 101.772 14.6031C101.749 14.6546 101.753 14.7364 101.813 14.7559C103.008 15.1398 104.099 15.9182 105.334 16.1279C105.568 16.167 105.908 16.2487 106.134 16.1367C106.299 16.055 106.381 15.84 106.458 15.6623C106.785 14.891 107.017 14.0469 107.289 13.2472C107.85 11.5909 108.441 9.94351 108.971 8.27481C109.466 6.71984 108.487 5.24839 107.882 3.90667L107.884 3.90489Z" fill="#FFA58C"/>
<path d="M111.056 1.78552C110.136 1.17597 106.055 1.84061 105.655 2.84645C104.978 4.54892 105.008 6.42022 105.676 8.00007C105.938 9.16764 106.49 10.369 107.26 11.2753C107.834 11.9488 109.696 12.6117 110.792 12.6383C112.525 12.6792 113.039 7.18438 113.133 6.06658C113.311 3.92871 112.927 3.02594 111.056 1.78552Z" fill="#FFA58C"/>
<path d="M113.009 7.10589C113.007 7.08635 112.911 7.0668 112.907 7.08812C112.9 7.12722 112.899 7.16632 112.895 7.20541C112.874 7.20186 112.852 7.20541 112.829 7.21785C112.263 7.55017 112.087 8.36231 111.934 8.91677C111.87 9.14957 111.344 9.88174 111.715 9.97948C111.962 10.0452 112.715 10.1323 112.922 10.0168C113.135 9.89774 113.214 9.71114 113.231 9.489C113.262 9.11225 113.123 7.95535 113.009 7.10589Z" fill="#FFA58C"/>
<path d="M110.041 32.1682C109.523 30.5386 108.831 29.9752 108.918 28.8983C109.11 26.5259 111.886 19.5169 111.314 16.1689C111.211 15.5611 110.629 14.7898 109.799 14.6086C108.987 14.4309 107.99 15.3034 107.989 15.3354C106.746 17.0183 106.664 18.9945 106.237 20.8036C105.463 24.0823 105.742 30.0161 105.943 31.0628C106.459 33.7374 110.018 39.7671 110.258 39.9893C110.714 40.4122 111.676 40.1439 111.574 39.6872C110.611 35.3297 111.07 35.4114 110.039 32.1682H110.041Z" fill="#FFA58C"/>
<path d="M111.072 15.3711C110.456 14.4435 108.026 13.7842 107.14 13.6207C105.851 13.3843 103.189 13.0893 103.184 13.0911C101.658 12.9134 99.2496 13.1391 98.1476 13.4092C96.3976 13.8357 96.4635 14.1734 95.803 15.3765C94.8168 17.1713 94.5658 25.673 93.9961 28.5022C93.9836 28.5608 92.8532 30.3646 92.9155 30.3788C96.686 31.2034 100.193 29.9328 104.005 30.5405C103.908 30.601 112.151 16.9972 111.07 15.3729L111.072 15.3711Z" fill="#EDC9B4"/>
<path d="M104.971 28.5325C104.971 28.5325 104.964 28.5485 104.959 28.5556C104.946 28.5361 104.923 28.5183 104.888 28.513C102.794 28.1344 100.672 27.8679 98.5464 27.6813C97.5014 27.5889 96.4529 27.5178 95.4043 27.4698C94.5801 27.4307 94.0923 27.4289 93.4763 27.9514C92.1857 29.0479 91.2386 30.3949 90.6529 31.8202C90.0654 33.249 89.0649 34.3934 87.7689 35.433C86.5904 36.3785 85.2908 37.2119 84.123 38.1662C82.9338 39.1383 81.9814 40.2526 81.2141 41.4841C79.6155 44.0502 78.7645 46.9096 76.9754 49.3976C75.8877 50.9099 74.232 52.0774 73.2761 53.6573C72.3308 55.2176 71.9551 56.9663 71.5955 58.6794C71.5795 58.7558 71.6614 58.8163 71.7504 58.7985C72.3468 58.6759 72.9467 58.5799 73.5502 58.5088C73.7193 58.5763 73.9294 58.5959 74.1252 58.5941C74.4475 58.5906 74.7643 58.5372 75.0866 58.5319C75.5565 58.5248 76.0265 58.5675 76.4894 58.6368C78.1058 58.8838 79.6261 59.4525 81.239 59.7084C84.3794 60.206 87.5606 59.7403 90.717 59.8541C91.6569 59.8878 92.5951 59.9749 93.5137 60.1562C94.4038 60.3321 95.1266 60.7071 96.0345 60.8102C96.0808 60.8155 96.1396 60.8031 96.1574 60.764C97.2042 58.6137 98.3951 56.426 99.4526 54.2793C99.9368 53.2983 100.428 52.3102 100.708 51.2689C100.998 50.1884 101.016 49.0759 101.039 47.9705C101.062 46.8598 101.124 45.758 101.402 44.6722C101.665 43.6379 102.061 42.6321 102.467 41.6316C103.255 39.6945 104.021 37.7824 104.161 35.7174C104.325 33.3129 104.008 30.8641 105.067 28.5787C105.092 28.5254 105 28.4792 104.97 28.5343L104.971 28.5325Z" fill="#EDC9B4"/>
<path d="M112.174 41.633C111.864 41.5992 111.595 41.8694 111.473 42.1235C111.464 42.1128 111.456 42.1004 111.448 42.0879C111.396 42.0169 111.291 42.0791 111.33 42.159C111.59 42.6673 111.877 43.1613 111.985 43.73C112.078 44.2063 112.065 44.7003 112.21 45.1659C112.274 45.372 112.386 45.7132 112.66 45.6937C112.989 45.6706 113 45.2263 113.023 44.9864C113.116 44.0481 112.98 43.0849 112.64 42.2052C112.548 41.9689 112.464 41.6632 112.17 41.6312L112.174 41.633Z" fill="#FFA58C"/>
<path d="M110.113 39.9072C110.155 40.0778 110.15 40.2004 110.152 40.3728C110.155 40.7229 110.209 40.9717 110.445 41.2382C110.851 41.6967 111.266 42.1126 111.611 42.6226C111.631 42.651 111.67 42.6741 111.704 42.6528C112.203 42.3365 112.87 42.0486 113.278 41.6168C113.538 41.3413 113.459 41.0125 113.274 40.7175C112.977 40.2484 112.51 39.8272 112.121 39.4363C111.663 38.976 111.709 39.3012 110.951 37.7516C110.921 37.6894 110.52 38.1781 110.545 38.2314C110.298 38.4731 109.587 38.3522 109.525 38.6916C109.505 38.8018 110.064 39.7259 110.111 39.909L110.113 39.9072Z" fill="#FFA58C"/>
<path d="M110.111 42.427C110.301 42.969 110.554 43.6585 111.12 43.9038C111.159 43.9216 111.211 43.8842 111.211 43.8416C111.207 43.6568 111.161 43.5057 111.081 43.3404C110.899 42.9601 110.773 41.9241 110.855 41.4407C110.942 40.9307 110.654 41.2132 110.355 40.7796C110.331 40.7441 110.294 40.7334 110.26 40.7388C110.335 40.4118 110.372 40.0848 110.202 39.788C110.18 39.7507 110.121 39.7702 110.129 39.8147C110.218 40.3318 110.089 40.7352 109.997 41.2328C109.92 41.6451 109.974 42.0343 110.113 42.427H110.111Z" fill="#FFA58C"/>
<path d="M113.117 40.4869C113.101 40.4638 113.132 40.542 113.141 40.5704C113.165 40.6539 113.194 40.7374 113.224 40.8192C113.217 40.8192 113.21 40.8227 113.203 40.8263C112.854 41.0182 112.644 41.3434 112.512 41.7149C112.336 42.0099 112.227 42.3226 112.306 42.6354C112.307 42.6443 112.313 42.6514 112.318 42.6585C112.3 42.822 112.29 42.9819 112.281 43.1312C112.247 43.643 112.27 44.1584 112.347 44.6649C112.366 44.7964 112.384 44.9865 112.444 45.1411C112.444 45.15 112.443 45.1589 112.444 45.1678C112.498 45.3793 112.674 45.7027 112.947 45.541C113.059 45.4734 113.119 45.3153 113.153 45.1394C113.262 44.9936 113.347 44.8195 113.408 44.7075C113.627 44.3112 113.826 43.8598 113.947 43.4227C114.072 42.9784 113.952 42.527 113.83 42.0952C113.68 41.5727 113.438 40.9312 113.119 40.4833L113.117 40.4869Z" fill="#FFA58C"/>
<path d="M112.436 42.6623C112.487 43.1474 112.717 43.5828 112.774 44.0697C112.827 44.5265 112.762 44.9796 112.781 45.4346C112.783 45.4914 112.874 45.5074 112.884 45.447C113.064 44.4447 112.817 43.5828 112.459 42.6587C112.454 42.6463 112.432 42.648 112.434 42.6623H112.436Z" fill="#CF634D"/>
<path d="M113.094 42.5346C113.08 42.5168 113.059 42.5381 113.061 42.5541C113.096 42.7531 113.18 42.9397 113.226 43.137C113.272 43.3343 113.294 43.5351 113.335 43.7323C113.345 43.7839 113.418 43.7661 113.422 43.7199C113.454 43.3343 113.344 42.8367 113.093 42.5346H113.094Z" fill="#CF634D"/>
<path d="M113.534 42.2871C113.522 42.2729 113.499 42.2871 113.499 42.3031C113.504 42.4435 113.556 42.5768 113.582 42.7136C113.613 42.8682 113.616 43.0299 113.661 43.1792C113.673 43.2183 113.734 43.2201 113.742 43.1792C113.798 42.9144 113.707 42.4986 113.532 42.2889L113.534 42.2871Z" fill="#CF634D"/>
<path d="M109.541 0.85029C108.813 0.622819 107.937 0.533964 107.186 0.709898C106.355 0.903603 105.792 1.50782 105.19 2.03562C104.403 2.72514 103.517 2.92062 102.463 2.89397C101.592 2.87086 100.722 2.73403 99.8514 2.85132C99.1268 2.95083 98.5038 3.22806 98.0231 3.75587C97.7454 4.06153 97.5015 4.4134 97.117 4.61066C96.6755 4.83813 96.1521 4.8399 95.6661 4.81325C95.1035 4.78304 94.5445 4.72794 93.9802 4.71906C93.5013 4.71195 91.6018 4.94831 89.6097 5.54186C89.5474 5.56141 89.4851 5.59518 89.51 5.65027C89.6471 5.95948 89.7878 6.24915 89.8768 6.53171C89.9052 6.61879 89.9284 6.70587 89.9444 6.79117C90.0049 7.09683 89.9854 7.40072 89.8216 7.72415C89.5866 8.1862 89.3694 8.63226 89.5332 9.1494C89.6186 9.41774 89.7771 9.65765 89.8981 9.91178C90.0868 10.3098 90.1242 10.7115 89.9978 11.1344C89.8946 11.481 89.7201 11.8026 89.5403 12.1172C89.4442 12.286 89.2555 12.501 89.3142 12.7125C89.4157 13.0715 90.1011 13.3398 90.4251 13.4429C90.904 13.594 91.4256 13.6259 91.9205 13.5389C92.3798 13.4571 92.8159 13.2741 93.1738 12.9897C93.3874 12.8209 93.5583 12.6165 93.7523 12.4299C94.0995 12.1012 94.4929 11.9093 94.9807 11.8399C95.7319 11.7333 96.4779 11.9448 97.2042 12.0941C97.9074 12.2398 98.6088 12.3038 99.3244 12.2167C100.747 12.0425 101.859 11.2215 103.182 10.7843C103.916 10.5409 104.683 10.3952 105.456 10.3312C106.082 10.2779 106.716 10.3134 107.339 10.2388C108.404 10.1108 109.027 9.54036 109.292 8.57006C109.456 7.97117 109.509 7.31186 109.869 6.77873C110.392 6.00036 111.216 6.03057 112.069 5.92572C112.607 5.85996 113.059 5.63072 113.257 5.12957C113.499 4.51291 113.269 2.02141 109.541 0.85029Z" fill="#1F2844"/>
<path d="M103.586 28.3232C102.938 28.0939 102.208 28.0246 101.53 27.9251C100.761 27.8131 99.9884 27.7278 99.2122 27.6727C97.7774 27.5697 96.2179 27.4417 94.7937 27.6816C94.7688 27.6852 94.7634 27.7278 94.7919 27.7296C95.4844 27.7758 96.1805 27.7243 96.8748 27.7349C97.6439 27.7474 98.4129 27.7865 99.1802 27.8522C99.8959 27.9144 100.612 27.998 101.324 28.1028C102.057 28.2112 102.799 28.4209 103.536 28.4796C103.622 28.4867 103.682 28.3569 103.586 28.3214V28.3232Z" fill="#1F2844"/>
<path d="M97.4568 5.21451C96.9138 5.64812 96.1644 5.71032 95.4932 5.71387C94.6796 5.71921 93.8714 5.62502 93.0596 5.71387C91.9078 5.84183 90.9038 6.24523 89.9442 6.7908C89.9282 6.7055 89.9051 6.61842 89.8766 6.53134C90.6724 6.07285 91.5803 5.77607 92.4544 5.62324C93.186 5.49529 93.9142 5.49529 94.653 5.53083C95.6499 5.57704 96.4937 5.51484 97.4408 5.18607C97.4586 5.17896 97.4711 5.20384 97.4568 5.21451Z" fill="#46698A"/>
<path d="M93.6632 6.40163C92.6004 6.43718 91.3756 6.80326 90.5228 7.45191C90.4837 7.48212 90.5157 7.55142 90.5638 7.53188C91.048 7.32573 91.5091 7.08404 92.0076 6.91522C92.5505 6.73218 93.1113 6.6291 93.6721 6.52248C93.7486 6.50826 93.7397 6.39986 93.6614 6.40163H93.6632Z" fill="#46698A"/>
<path d="M105.279 9.31625C104.4 9.14387 103.43 9.29848 102.591 9.58993C101.662 9.91336 100.887 10.562 99.8976 10.7166C99.8887 10.7166 99.8869 10.7326 99.8976 10.7344C100.749 10.873 101.478 10.2475 102.212 9.92758C103.209 9.49219 104.204 9.43887 105.274 9.45487C105.356 9.45487 105.354 9.33047 105.279 9.31625Z" fill="#46698A"/>
<path d="M107.848 7.48249C107.376 7.70996 106.935 7.96942 106.429 8.12402C105.892 8.2893 105.324 8.36393 104.761 8.34972C104.722 8.34972 104.718 8.41547 104.758 8.41902C105.829 8.55231 107.104 8.35327 107.914 7.57845C107.957 7.53758 107.9 7.45761 107.846 7.48249H107.848Z" fill="#46698A"/>
<path d="M110.575 1.87063C109.967 1.52587 109.246 1.46367 108.558 1.49033C108.53 1.49033 108.535 1.53298 108.562 1.53298C109.262 1.5472 109.885 1.7569 110.545 1.96126C110.6 1.97903 110.618 1.89551 110.574 1.86885L110.575 1.87063Z" fill="#46698A"/>
<path d="M112.128 3.36837C111.738 2.98273 111.166 2.869 110.636 2.88499C110.591 2.88499 110.588 2.96141 110.632 2.96496C111.164 3.01117 111.595 3.23331 112.063 3.46788C112.128 3.49987 112.174 3.41457 112.128 3.36837Z" fill="#46698A"/>
<path d="M35.6794 69.6613C35.2522 69.2117 34.6077 68.9842 34.0612 69.3343C33.4025 67.8202 31.6454 67.0561 30.0236 67.0952C27.6808 67.152 25.7511 68.8385 24.1239 70.3704C24.2628 69.4161 23.3442 68.675 22.4309 68.5577C21.0797 68.3818 19.5398 68.9043 18.2937 69.377C15.5824 70.4042 13.188 72.0871 10.847 73.7665C11.0072 73.1853 11.0731 72.423 10.5853 72.0462C10.2417 71.7796 9.81443 71.8952 9.44414 72.0338C8.88871 72.2435 8.35642 72.5171 7.85083 72.8281C6.81296 73.4661 5.8908 74.2729 5.01315 75.1117C4.79774 75.3179 4.58589 75.5258 4.37582 75.7355C4.28325 75.8279 4.1533 76.0305 4.02512 76.0607C3.93077 76.0838 3.77055 75.9772 3.67263 75.9452C3.27742 75.8137 2.85373 75.7764 2.43893 75.8172C1.42954 75.9203 0.503821 76.4925 0.0124773 77.3847C-0.0302482 77.4611 0.0445215 77.5375 0.119291 77.5357C8.86201 77.3207 31.2146 78.2092 33.6517 77.8894C33.6962 77.884 33.7407 77.8485 33.7461 77.8005C33.8778 76.672 34.1573 75.5667 34.6024 74.5199C35.0118 73.555 35.6758 72.6949 36.0052 71.6997C36.242 70.9835 36.2188 70.23 35.6776 69.6613H35.6794Z" fill="#9DEBEF"/>
<path d="M53.3535 37.5385C53.0562 37.1351 52.6431 36.8294 52.2034 36.5984C50.8629 35.8964 49.2109 35.7471 47.7137 35.7845C47.9629 35.3171 47.7511 34.7271 47.274 34.4676C46.5779 34.0873 45.8142 34.4143 45.1751 34.7715C45.435 34.0696 45.7715 33.0353 45.2409 32.463C44.7638 31.9495 43.9414 32.1307 43.4269 32.4719C42.6934 32.9571 42.268 33.7959 41.8389 34.5334C41.8051 34.5903 41.7695 34.6524 41.7321 34.7164C41.7161 34.6365 41.6894 34.5565 41.6431 34.4783C41.4526 34.1477 41.0503 33.9878 40.68 33.9949C39.8201 34.0145 38.9015 34.7146 38.3461 35.4202C38.2393 34.9972 37.4631 34.8853 37.0608 34.9688C36.0638 35.1749 35.2467 36.0528 34.4901 36.6997C34.2783 36.3691 33.8759 36.2874 33.5199 36.2998C32.8274 36.3265 31.9978 36.57 31.332 36.7725C31.129 36.8347 30.1784 37.0622 30.392 37.4496C30.4561 37.5651 30.5968 37.558 30.7107 37.5687C31.1219 37.6078 31.5403 37.6131 31.9533 37.6344C34.6058 37.7731 53.5333 38.8695 53.6561 38.7185C53.9267 38.3879 53.5582 37.8086 53.357 37.5367L53.3535 37.5385Z" fill="#9DEBEF"/>
<path d="M74.8872 41.3188C75.5298 40.5511 76.1084 39.7283 76.5802 38.845C77.0021 38.0524 77.5717 36.9968 77.383 36.0674C77.0234 34.2885 74.6005 34.8838 73.4185 35.2339C71.5581 35.7848 69.801 36.6787 68.2487 37.8374C67.3799 38.4861 66.5717 39.22 65.8436 40.025C66.2886 39.3817 66.6732 38.71 66.8298 37.9263C67.1218 36.4424 66.4969 34.9674 64.868 34.7683C63.9886 34.6599 63.0575 34.811 62.1941 34.9745C61.3521 35.1326 60.5225 35.3619 59.7178 35.6551C58.0337 36.2682 56.4511 37.1674 55.0607 38.2941C53.8733 39.2538 52.8319 40.3787 51.9685 41.6333C52.0771 41.1695 52.0486 40.6932 51.7566 40.2649C51.308 39.6021 50.4428 39.4279 49.6915 39.4315C48.6644 39.435 47.6389 39.7727 46.6812 40.1174C45.597 40.5084 44.552 41.0078 43.5658 41.6049C42.5048 42.2464 41.5221 43.0052 40.623 43.8547C40.7049 43.2665 40.3133 42.7049 39.7792 42.4224C38.8944 41.955 37.8655 42.4295 37.0911 42.8986C35.6099 43.7925 34.1412 44.8517 33.0873 46.2378C32.5123 46.2129 30.5113 46.4671 29.5091 47.1406C29.2563 47.4498 29.2207 47.9652 30.5113 48.2762C39.619 49.0794 71.1309 49.0137 72.1207 48.8377C72.8773 48.7027 73.5253 48.3064 74.0771 47.7821C74.435 47.4409 75.6544 45.8824 75.8503 45.4434C76.1191 44.841 76.0034 44.1515 75.3643 43.86C74.7412 43.5757 73.9579 43.7108 73.3366 43.9311C72.6209 44.1852 71.9266 44.5051 71.2573 44.8712C72.5426 43.7658 73.8012 42.6232 74.8889 41.3241L74.8872 41.3188Z" fill="#9DEBEF"/>
<path d="M99.1571 46.8591C95.1516 45.4854 93.0046 49.2085 89.7842 51.8155C89.3925 52.1318 88.8442 52.5121 88.2763 53.0523C88.6181 51.476 88.7161 50.145 88.0805 49.3951C87.3862 48.5758 85.7342 48.5509 84.7105 48.7144C82.0455 49.1409 79.6814 50.7581 77.6679 52.4872C76.6051 53.4007 75.6136 54.3905 74.6255 55.3821C74.1538 55.8566 73.6642 56.4715 73.0109 56.6972C72.3308 56.93 71.7024 56.5533 71.1327 56.2209C70.588 55.9011 69.267 55.4905 67.6417 55.8762C66.4365 56.1605 65.3078 56.7665 64.2343 57.3778C62.9169 58.1278 61.6957 59.0377 60.6026 60.0826C56.9941 61.3195 53.6953 63.3454 50.9627 66.0555C50.9057 66.1123 50.9698 66.1941 51.0357 66.1923C57.0582 66.1034 81.1501 65.748 87.1726 65.6627C88.6075 65.6432 90.4091 65.6752 91.8404 65.5579C93.0509 65.4584 93.0385 65.8031 93.8502 64.8968C94.7421 63.8998 100.003 53.0275 100.571 51.7408C101.158 50.408 100.172 47.2092 99.1589 46.8609L99.1571 46.8591Z" fill="#9DEBEF"/>
<path d="M49.0278 23.1209C49.0901 22.8241 49.1257 22.522 49.1221 22.2341C49.1186 21.6512 48.8943 21.3118 48.483 20.928C47.9312 20.4144 48.1448 19.6111 47.7015 19.0336C47.4113 18.655 46.9431 18.4258 46.4767 18.3547C46.1598 18.3067 45.8447 18.344 45.5278 18.3671C45.049 18.4027 44.6448 18.36 44.2105 18.1539C43.6568 17.8909 43.1584 17.6101 42.5264 17.7594C42.4641 17.7736 42.4053 17.7914 42.3484 17.8109C41.314 17.8695 40.456 18.8985 40.2014 19.819C40.0946 20.2064 39.9931 20.4872 39.7118 20.6596C39.6282 20.688 39.5463 20.7183 39.4679 20.7574C39.4573 20.7627 39.4448 20.7698 39.4323 20.7769C39.4074 20.784 39.3825 20.7911 39.3558 20.7964C39.1244 20.8498 38.9 20.8942 38.7007 21.0328C38.3678 21.2656 38.1595 21.6601 38.0989 22.0671C37.9263 22.5291 38.042 23.0552 37.7144 23.4746C37.3477 23.9437 36.9436 24.324 36.6819 24.8696C36.4433 25.3672 36.2813 25.9341 36.2795 26.4885C36.2795 26.9293 36.4024 27.4766 36.8136 27.7165C37.3245 28.0133 37.6183 27.4197 37.8622 27.0341C38.0989 27.418 38.4051 27.8267 38.9018 27.816C39.4252 27.8036 39.8489 27.354 40.1248 26.9577C40.4951 26.4263 40.7266 25.8132 41.0986 25.2819C41.4725 24.7452 41.9407 24.3489 42.4427 23.9526C42.7596 23.9348 43.1014 23.9704 43.2011 23.9952C43.5589 24.0805 43.8722 24.2743 44.2229 24.3809C44.7285 24.5337 45.1629 24.4075 45.6258 24.1854C45.9284 24.0397 46.231 23.8602 46.5693 23.8211C47.066 23.7642 47.2547 24.0095 47.5253 24.3471C47.7514 24.6297 48.086 24.7381 48.4278 24.6901C48.2961 24.8945 48.1394 25.0846 47.9614 25.2588C47.8973 25.321 48.0006 25.4347 48.0682 25.3761C48.702 24.8181 49.0919 23.9881 49.026 23.1351C49.026 23.1298 49.026 23.1262 49.026 23.1209H49.0278ZM41.8445 24.2085C41.8552 24.1054 41.9567 24.0397 42.1062 24.0006C42.0172 24.0663 41.93 24.1356 41.8445 24.2085Z" fill="#1F2844"/>
<path d="M67.5405 77.468C67.5529 77.5231 67.5957 77.5711 67.658 77.564C69.2887 77.3774 70.9105 77.1126 72.5127 76.7483C72.5946 76.7305 72.6266 76.6577 72.5857 76.5848C72.3293 76.1317 72.0747 75.6785 71.8255 75.2218C71.8041 75.1809 71.7668 75.1489 71.7169 75.156C71.0155 75.2538 70.3159 75.3639 69.6162 75.4706C68.9291 75.5736 68.2276 75.7336 67.5298 75.6874C67.5102 75.6749 67.4853 75.6696 67.4568 75.6803C67.2663 75.7514 67.2752 75.8989 67.2912 76.0819C67.3322 76.5475 67.4372 77.0149 67.5423 77.4716L67.5405 77.468Z" fill="#FFA58C"/>
<path d="M70.4598 75.263C70.5755 75.7392 70.9653 76.4021 71.0864 76.8766C71.1452 77.1094 71.179 77.2533 71.4407 77.2373C72.6957 77.1556 72.7812 77.4986 73.1052 77.8131C74.1057 78.7852 74.5098 79.5991 75.3714 80.3366C75.6509 80.5747 76.2491 80.8289 76.5232 80.4255C76.7903 80.0327 76.4716 79.5263 76.2687 79.1886C75.4391 77.8007 75.1542 77.2889 74.2837 75.9258C73.9989 75.4798 73.698 74.6996 73.1159 74.5806C72.783 74.513 70.9173 75.1368 70.5132 75.1172C70.4384 75.1137 70.4437 75.2008 70.458 75.263H70.4598Z" fill="#1F2844"/>
<path d="M60.2053 61.2949C60.2445 61.7605 61.5245 61.7321 61.9251 61.2576C62.1369 61.007 62.4395 49.4451 62.2402 48.3078C62.0568 47.2593 62.0123 46.2143 61.8236 45.1676C61.4426 43.0404 61.6954 40.8564 61.4675 38.7043C61.2717 36.8561 60.7038 34.8302 59.2636 33.3125C59.2583 33.2805 57.6472 32.7758 56.8639 33.0531C56.0645 33.3338 56.0022 33.9363 56.0663 34.5476C56.344 37.1369 56.8817 39.7083 57.4068 42.2496C57.6561 43.458 57.9907 44.6611 58.1136 45.8962C58.2204 46.9714 57.9178 48.0661 58.0192 49.1412C58.4002 53.1842 59.965 58.4675 60.2036 61.2949H60.2053Z" fill="#FFA58C"/>
<path d="M45.0166 27.0662C45.4617 28.774 45.969 30.4623 46.4461 32.1594C46.6776 32.9787 46.8609 33.8388 47.1547 34.6349C47.2223 34.818 47.2935 35.0383 47.468 35.1343C47.7048 35.264 48.0786 35.2089 48.3332 35.1894C49.6879 35.0792 50.9305 34.3897 52.2532 34.1036C52.3191 34.0894 52.3316 34.0076 52.3102 33.9543C51.4023 31.724 50.4837 29.4991 49.5669 27.2724C48.8423 25.5112 48.0305 23.5209 46.3892 22.5239C46.3233 22.483 46.2699 22.5879 46.3304 22.6323C46.4016 22.6856 46.4711 22.7425 46.5387 22.7994C45.7785 24.0878 44.6018 25.4757 45.0166 27.0662Z" fill="#FFA58C"/>
<path d="M40.0141 26.3268C40.3755 27.3877 42.2127 32.5947 43.8826 32.1362C44.94 31.8465 46.585 30.75 46.9784 29.9574C47.5053 28.8929 47.7492 27.5921 47.719 26.3961C47.9807 24.7025 47.557 22.8792 46.4871 21.3918C45.8551 20.5121 44.9774 19.8812 43.7882 19.7355C42.4815 19.5773 41.5309 20.3433 40.7867 21.1572C39.2718 22.8134 39.3234 24.2956 40.0159 26.325L40.0141 26.3268Z" fill="#FFA58C"/>
<path d="M42.3781 33.6394C39.3909 35.5036 38.3032 44.9241 37.7905 46.4808C37.3863 47.707 36.7597 49.0843 37.0178 50.4047C37.1941 51.3039 37.956 52.2191 38.9351 52.2298C40.087 52.2422 40.6531 51.0462 40.9468 50.1114C41.8743 47.1685 43.3715 43.5557 43.7987 40.5062C44.0106 38.9974 43.2237 38.02 43.3911 36.5059C43.4801 35.7044 43.5353 34.8585 43.3644 34.0677C42.9549 34.0481 42.8712 33.6856 42.3781 33.6412V33.6394Z" fill="#FFA58C"/>
<path d="M55.0464 73.3687C51.7477 72.5921 48.3812 71.9683 45.0095 71.6875C42.599 71.4867 40.1227 71.5382 37.8102 72.2526C39.311 71.4352 40.8064 70.607 42.2786 69.7363C43.2791 69.1445 44.2707 68.5367 45.2445 67.8987C46.0598 67.3638 46.868 66.7863 47.4662 65.9883C48.6002 64.476 48.796 62.4732 48.7729 60.6179C48.7444 58.281 48.5415 55.9388 48.4026 53.6054C48.3759 53.1452 48.3866 52.5854 48.1017 52.1944C47.8489 51.8479 47.4359 51.7608 47.0407 51.7412C45.6771 51.6701 44.9133 51.974 43.5479 51.9865C43.4731 51.9865 43.4447 52.0753 43.4767 52.1215C43.3806 53.9342 43.3111 55.7735 42.7966 57.5204C42.2412 59.4077 41.1571 60.856 39.7293 62.132C36.9005 64.6573 32.9644 66.8858 30.2175 69.5123C28.8948 70.7776 27.5151 72.1176 26.4595 73.6352C26.0233 74.2608 25.6441 75.0161 25.6708 75.8104C25.6993 76.6172 26.1782 77.0739 26.8903 77.3014C28.699 77.879 30.6484 77.9589 32.5229 77.9518C34.5186 77.9447 36.5142 77.8612 38.5081 77.7652C43.2186 77.5395 47.9184 77.1397 52.5986 76.5692L53.7611 75.9473C54.1207 75.7998 54.507 75.6682 54.7758 75.3661C55.2227 74.8632 55.1942 74.108 55.1568 73.47C55.1532 73.4113 55.098 73.3758 55.0482 73.3651L55.0464 73.3687Z" fill="#944E44"/>
<path d="M69.7655 74.3851C67.2269 74.2091 62.3313 74.5272 59.7927 74.3673C58.5412 74.2891 56.2251 73.8875 54.9736 73.8235C53.8645 73.7684 52.7536 73.7595 51.6588 73.9603C52.1074 73.1429 55.0982 68.8174 56.1058 63.7953C56.898 59.843 54.9985 54.5365 54.9326 53.5822C54.8632 52.5657 49.2644 53.4667 48.1838 53.815C48.2016 53.7084 48.2194 53.6035 48.2372 53.4969C48.2514 53.4027 48.1143 53.3903 48.0965 53.4809C47.3809 57.14 46.7471 60.8168 46.0938 64.4883C45.4511 68.0923 44.8263 71.7141 44.6322 75.382C44.5574 76.7877 44.4097 78.3498 44.8583 79.7111C45.282 80.9977 46.3234 81.6268 47.6034 81.6535C48.36 81.6695 49.1184 81.561 49.8679 81.4793C50.7598 81.3833 64.9322 78.2325 69.7584 77.6105C69.8082 77.6034 69.8617 77.5572 69.8617 77.4968C69.867 76.5069 69.8723 75.5153 69.8795 74.5255C69.8795 74.4579 69.8403 74.3886 69.7673 74.3833L69.7655 74.3851Z" fill="#944E44"/>
<path d="M59.2141 33.5922C57.8006 32.0194 54.1956 31.3282 52.8409 31.2411C52.2623 31.2038 50.1598 30.9638 48.125 31.4419C44.6215 32.2629 41.9601 33.3772 41.7465 34.3812C41.5738 35.1934 40.3561 36.7732 40.4398 37.5925C40.5057 38.2393 41.7785 41.3635 42.6277 45.9111C43.1244 48.5715 43.1707 51.8058 43.2632 54.7043C43.265 54.7718 54.9042 54.9264 55.1481 54.5959C55.5806 53.2506 55.408 50.1353 55.9652 47.8606C57.3751 42.1063 60.1594 37.0664 60.2484 36.2525C60.3534 35.2876 59.8799 34.3279 59.2159 33.5904L59.2141 33.5922Z" fill="#FFA58C"/>
<path d="M61.6495 37.5791C61.3415 36.1254 60.7932 34.6753 59.7393 33.6037C58.664 32.509 57.1722 32.0292 55.7373 31.6311C55.0982 31.4534 54.4342 31.2508 53.7666 31.1548L53.5014 31.1229H53.4889C53.3661 31.1086 53.245 31.1015 53.1222 31.098C52.3691 31.0802 51.8119 31.4836 51.196 31.8604C49.5208 32.8822 47.3329 33.4278 45.6612 32.1145C45.7057 32.0861 45.6879 31.9972 45.6274 32.0114C45.2963 32.0825 44.9652 32.182 44.6394 32.3046C44.586 32.3242 44.5326 32.3455 44.4792 32.3668C43.5606 32.7311 42.6776 33.2714 41.9192 33.8489C40.835 34.6771 39.9129 35.722 39.2435 36.918C38.4976 38.2526 38.2074 39.7099 37.9404 41.2026C37.7908 42.0432 37.6466 42.8873 37.5096 43.7297C37.4472 44.1189 37.3529 44.5169 37.3209 44.9097C37.3066 45.0732 37.3155 45.2278 37.4829 45.3042C37.5612 45.3397 37.6431 45.3184 37.725 45.3202C38.0454 45.3291 38.3178 45.3309 38.624 45.441C39.005 45.5779 39.3361 45.832 39.7331 45.9262C40.0962 46.0133 40.4825 45.9991 40.8528 46.0097C41.3887 46.0257 41.9227 46.0381 42.4568 46.0666C42.4853 46.4291 42.5049 46.7899 42.512 47.1542C42.5351 48.3253 42.3945 49.4822 42.3518 50.6498C42.3108 51.7853 42.5013 52.9013 42.5992 54.028C42.7078 55.2862 42.6295 56.5462 42.544 57.8026C42.5405 57.8648 42.585 57.9377 42.6562 57.9252C44.8334 57.5165 47.0409 57.353 49.2537 57.4294C51.4879 57.5058 54.4075 57.632 56.6417 57.4081C56.6417 57.4081 56.6429 57.4075 56.6453 57.4063C56.8749 57.4117 57.1046 57.4188 57.3324 57.4205C57.4428 57.4205 57.5977 57.4543 57.6867 57.3637C57.7704 57.2784 57.7454 57.1095 57.7454 57.0029C57.749 56.6582 57.7508 56.3116 57.7526 55.9651C57.7615 54.6838 57.8594 53.3634 57.6529 52.0928C57.5514 51.4868 57.393 50.8914 57.3217 50.2801C57.2416 49.5995 57.2683 48.9135 57.3378 48.2329C57.3983 47.6216 57.4944 47.0138 57.5745 46.4025C57.6315 45.9777 57.7312 44.7142 57.7401 44.277C58.1193 44.1615 59.7909 43.9874 60.1666 43.9216C60.8893 43.7919 61.5836 43.5697 62.2512 43.2659C62.2939 43.2463 62.3206 43.2072 62.3189 43.1575C62.1889 41.2968 62.034 39.406 61.6477 37.5791H61.6495Z" fill="#46698A"/>
<path d="M60.1614 61.3267C60.1205 61.5204 60.0564 61.6395 59.9745 61.8136C59.8072 62.1655 59.7395 62.4427 59.8481 62.8284C60.0332 63.4859 60.2469 64.1061 60.3466 64.7867C60.3519 64.8258 60.3804 64.8667 60.4249 64.8614C61.08 64.785 61.8936 64.8205 62.5131 64.5842C62.9083 64.4349 62.992 64.0635 62.9475 63.676C62.878 63.0594 62.6128 62.4107 62.4134 61.8261C62.1784 61.1401 62.0663 61.4902 62.0591 59.5638C62.0591 59.4874 61.4183 59.7824 61.4165 59.8481C61.0497 59.9708 60.3928 59.5034 60.1668 59.8162C60.092 59.9175 60.2059 61.1188 60.1632 61.3249L60.1614 61.3267Z" fill="#FFA58C"/>
<path d="M58.9293 63.8628C58.8563 64.5008 58.7744 65.3182 59.2248 65.8389C59.2568 65.8763 59.3263 65.8638 59.3458 65.8212C59.4331 65.6328 59.4598 65.4604 59.4598 65.2543C59.4616 64.7833 59.8407 63.6797 60.1594 63.2337C60.4959 62.7628 60.0668 62.9067 59.9778 62.3256C59.9707 62.2794 59.9387 62.2509 59.9031 62.2385C60.138 61.9453 60.3357 61.6361 60.3072 61.254C60.3036 61.2042 60.236 61.1971 60.2217 61.2451C60.0597 61.8084 59.7339 62.1532 59.3975 62.6081C59.118 62.9849 58.9827 63.4025 58.931 63.8663L58.9293 63.8628Z" fill="#FFA58C"/>
<path d="M60.0417 66.9392C60.0008 67.0654 59.3563 68.272 59.7622 68.1672C60.0524 68.0926 60.3853 67.5363 60.485 67.2822C60.6684 66.8184 60.8161 66.6105 60.9657 66.1342C61.0689 65.8072 61.3662 64.7125 61.1953 64.3748C61.0582 64.1047 60.6719 64.1687 60.428 63.9981C60.3782 63.9626 60.323 64.0034 60.3105 64.0532C60.2981 64.0159 60.2892 63.9803 60.2749 63.943C60.2731 63.9377 60.2625 63.9377 60.2625 63.9448C60.4013 64.9329 60.3533 65.9973 60.0435 66.941L60.0417 66.9392Z" fill="#FFA58C"/>
<path d="M62.899 63.3705C62.8937 63.3386 62.8865 63.4327 62.8812 63.4647C62.867 63.5607 62.8545 63.6584 62.8438 63.7562C62.8349 63.7544 62.8278 63.7526 62.8189 63.7526C62.3738 63.7775 62.0035 64.0014 61.692 64.3106C61.3716 64.5203 61.1081 64.7834 61.0351 65.137C61.0333 65.1477 61.0351 65.1565 61.0351 65.1654C60.939 65.3218 60.85 65.4764 60.7663 65.6221C60.4832 66.1197 60.2536 66.6493 60.0845 67.1967C60.04 67.3388 59.9634 67.5379 59.9509 67.7245C59.9456 67.7316 59.9403 67.7405 59.9385 67.7511C59.8886 67.9893 59.91 68.3998 60.2607 68.3713C60.4067 68.3589 60.5438 68.2292 60.6648 68.0674C60.8446 67.9733 61.0155 67.84 61.1312 67.7582C61.5442 67.465 61.9644 67.1096 62.3008 66.7275C62.6426 66.3401 62.7423 65.8301 62.8296 65.336C62.9346 64.7371 63.0023 63.9748 62.9008 63.3688L62.899 63.3705Z" fill="#FFA58C"/>
<path d="M44.9277 72.0255C44.9294 72.0006 44.8938 71.9935 44.8885 72.0184C44.5716 73.6462 44.3971 75.4429 44.6197 77.0956C44.6321 77.1934 44.7657 77.1738 44.7674 77.0814C44.7906 76.2639 44.7425 75.4465 44.771 74.6272C44.8013 73.76 44.8564 72.8892 44.9277 72.0237V72.0255Z" fill="#1F2844"/>
<path d="M27.8465 39.2804C28.6423 40.4018 32.2971 47.6435 33.3973 49.0368C34.3657 50.263 35.5407 51.4359 37.0129 52.0383C38.1149 52.4897 39.4376 52.4808 40.2707 51.5763C40.2832 51.5709 40.2956 51.5603 40.3063 51.5478C40.3384 51.5087 40.3669 51.4696 40.3953 51.4305C40.4025 51.4217 40.4096 51.4128 40.4167 51.4039C40.4238 51.395 40.4274 51.3861 40.4292 51.3772C41.0416 50.3767 40.0838 48.9888 39.5141 48.182C38.7112 47.0429 30.2071 39.8029 29.1763 37.825C28.9235 37.3398 27.7165 39.0938 27.8483 39.2804H27.8465Z" fill="#FFA58C"/>
<path d="M29.1745 37.8264C29.1691 37.6292 29.2029 37.4977 29.2439 37.3093C29.324 36.9272 29.3258 36.6429 29.13 36.2928C28.7971 35.6957 28.4446 35.143 28.1882 34.5032C28.174 34.4677 28.1366 34.4339 28.0939 34.4482C27.4743 34.6738 26.675 34.8285 26.1267 35.2016C25.7778 35.4398 25.7831 35.8183 25.9149 36.1844C26.1249 36.7673 26.5344 37.3377 26.8655 37.8584C27.2536 38.4715 27.704 39.2872 28.19 39.8292C28.2416 39.8861 28.311 39.616 28.2968 39.5502C28.6244 39.3459 29.3721 39.648 29.5216 39.2926C29.5697 39.177 29.1816 38.0344 29.1745 37.8247V37.8264Z" fill="#FFA58C"/>
<path d="M29.7707 35.2301C29.6977 34.6276 29.5927 33.8564 29.064 33.4743C29.0266 33.4476 28.9661 33.4743 28.9572 33.5169C28.918 33.7089 28.9322 33.8741 28.9768 34.0643C29.0782 34.4979 29.112 34.8285 29.0426 35.2852C28.9589 35.8272 28.9358 36.3585 29.1459 36.8757C29.1619 36.9166 29.1975 36.9361 29.2349 36.9397C29.0836 37.2613 28.9696 37.5901 29.08 37.9366C29.0942 37.981 29.1583 37.9722 29.1601 37.926C29.185 37.3715 29.4093 36.9823 29.6194 36.4901C29.7939 36.0813 29.8259 35.6672 29.7725 35.2283L29.7707 35.2301Z" fill="#FFA58C"/>
<path d="M26.3314 35.3154C26.2353 34.7094 26.0875 34.1354 26.0572 33.5152C26.0305 32.9767 26.0377 32.4365 26.0359 31.8962C26.0359 31.5248 26.0661 31.1587 25.8276 30.8513C25.7795 30.7908 25.6976 30.8477 25.6923 30.9064C25.5873 31.8696 25.4858 32.8381 25.516 33.8084C25.541 34.6347 25.6264 35.5962 26.0519 36.3248C26.0644 36.3461 26.0964 36.3319 26.0911 36.3088C26.0697 36.2093 26.0466 36.1115 26.0252 36.012H26.0288C26.3243 35.8823 26.3795 35.6139 26.3314 35.3154Z" fill="#FFA58C"/>
<path d="M26.9848 33.2825C26.9848 33.2825 27.0329 32.33 27.1308 31.3099C27.1896 30.6879 26.9795 30.5262 26.8549 30.8301C26.3101 32.1629 26.157 33.8636 26.4365 35.3049C26.4241 35.3137 26.4116 35.3226 26.3974 35.3368C26.3244 35.4026 26.3974 35.5021 26.4757 35.495C26.4757 35.5003 26.4775 35.5057 26.4793 35.511C26.4917 35.5625 26.5718 35.5519 26.57 35.4986C26.57 35.479 26.57 35.4595 26.57 35.4399C26.7944 35.2658 27.2661 35.5625 27.2038 35.1965C27.0596 34.347 26.9777 33.8707 26.9866 33.2825H26.9848Z" fill="#FFA58C"/>
<path d="M27.9816 32.3404C27.9922 32.2089 28.3376 30.885 27.9673 31.0804C27.7021 31.2208 27.5098 31.8393 27.4706 32.1094C27.4012 32.6034 27.3051 32.8398 27.2713 33.3374C27.2481 33.6804 27.2125 34.8124 27.4582 35.102C27.654 35.3331 28.0154 35.1802 28.2931 35.2904C28.3501 35.3135 28.3928 35.262 28.3946 35.2105C28.4142 35.2442 28.432 35.2762 28.4551 35.31C28.4587 35.3153 28.4693 35.3117 28.4658 35.3046C28.1008 34.377 27.8997 33.3285 27.9816 32.3404Z" fill="#FFA58C"/>
<path d="M42.092 27.5809C42.2139 27.5238 42.2073 27.2534 42.0773 26.9772C41.9472 26.7009 41.743 26.5233 41.6211 26.5805C41.4992 26.6377 41.5058 26.908 41.6358 27.1843C41.7658 27.4605 41.9701 27.6381 42.092 27.5809Z" fill="#1F2844"/>
<path d="M40.751 29.6711C40.8222 29.8826 40.945 30.0443 41.18 30.1065C41.4096 30.1687 42.1182 29.9004 42.3425 29.7777C42.6789 29.5929 41.99 29.0083 41.8725 28.7986C41.5894 28.2974 41.2209 27.5528 40.5907 27.368C40.564 27.3609 40.5427 27.3627 40.5231 27.3715C40.5106 27.3342 40.4982 27.2969 40.4821 27.2614C40.4732 27.2418 40.386 27.2845 40.3878 27.304C40.4839 28.157 40.6299 29.3121 40.751 29.6711Z" fill="#FFA58C"/>
<path d="M40.2673 25.7881C40.4667 26.3603 40.8939 26.2892 41.4298 26.259C41.8001 26.2377 42.6421 26.2466 42.8949 25.9143C43.1424 25.589 42.6688 25.5411 42.4623 25.5411C41.7912 25.5411 41.0506 25.4398 40.3883 25.5695C40.253 25.5535 40.2263 25.6726 40.2673 25.7863V25.7881Z" fill="#1F2844"/>
<path d="M42.3002 30.6361C42.432 30.4992 42.6367 30.3606 42.8218 30.3162C42.877 30.3038 42.9162 30.3713 42.877 30.4122C42.7453 30.5508 42.521 30.6574 42.3376 30.7018C42.3002 30.7107 42.2717 30.6645 42.3002 30.6361Z" fill="#CF634D"/>
<path d="M49.3123 25.6565C49.2554 25.5161 49.1717 25.3882 49.1129 25.2478C49.0061 24.9883 49.0186 24.7662 49.0186 24.4961C49.0186 23.2379 48.1748 21.1835 47.0176 20.8939C47.0069 20.8388 46.3126 20.2843 45.7554 19.6659C45.2641 19.1221 44.7371 18.5872 43.9556 18.7791C43.2239 18.9586 42.4032 19.3887 41.8745 19.9236C41.5487 20.2523 41.2906 20.6344 40.947 20.9454C40.607 21.2528 40.2652 21.5319 39.9786 21.8944C39.4837 22.5181 39.0707 23.2325 38.8517 24.0003C38.7395 24.3912 38.6826 24.7964 38.6897 25.2034C38.695 25.509 38.7075 26.0973 38.9496 26.3389C39.3697 26.7583 39.9928 26.1914 40.2296 25.852C40.5233 25.4326 40.6978 24.8959 41.2034 24.6738C41.5861 24.505 42.0205 24.6347 42.3926 24.4534C42.5759 24.3646 42.7415 24.2366 42.8892 24.0838C42.875 24.2704 42.8768 24.457 42.907 24.6347C42.9765 25.0452 43.3005 25.3864 43.7402 25.2727C44.0464 25.1927 44.2298 24.9475 44.5431 24.903C44.876 24.855 45.0896 24.6365 45.4154 24.5547C46.1097 24.3788 46.3002 24.9368 46.318 25.4966C46.3287 25.8307 46.3856 26.1577 46.5085 26.4704C46.6705 26.8845 46.9998 27.5083 47.5 27.5687C47.8454 27.6113 48.0893 27.2613 48.4489 27.4088C48.643 27.4887 48.8014 27.7357 49.0364 27.7215C49.4636 27.6949 49.4298 26.8845 49.4423 26.6019C49.4583 26.2803 49.4316 25.9604 49.3088 25.6601L49.3123 25.6565Z" fill="#1F2844"/>
<path d="M55.8319 36.8723C55.8319 36.8474 55.791 36.8403 55.7838 36.8634C55.6129 37.313 55.6468 37.8195 55.6735 38.294C55.7055 38.8822 55.7571 39.4687 55.8284 40.0533C55.9654 41.1978 56.147 42.3476 56.4924 43.4494C56.5066 43.4956 56.585 43.4796 56.5778 43.4298C56.188 41.2387 55.7767 39.1079 55.8337 36.8723H55.8319Z" fill="#1F2844"/>
<path d="M42.585 41.5551C42.4123 41.0042 42.1773 40.4746 42.01 39.9201C41.8444 39.3692 41.75 38.8005 41.588 38.2496C41.5791 38.2194 41.54 38.2354 41.54 38.2603C41.5186 39.3479 41.8996 40.6932 42.4728 41.6137C42.5138 41.6795 42.6063 41.6208 42.5868 41.5533L42.585 41.5551Z" fill="#1F2844"/>
<path d="M42.5847 43.263C42.3497 42.346 41.8423 41.4788 41.3118 40.7022C41.2905 40.6702 41.246 40.7022 41.2638 40.7359C41.7177 41.573 42.0471 42.4562 42.4547 43.3127C42.4939 43.3945 42.6078 43.3501 42.5847 43.2648V43.263Z" fill="#1F2844"/>
<path d="M55.8067 51.5247C55.1124 50.9613 54.3647 50.4637 53.6668 49.9004C52.9725 49.3388 52.2818 48.763 51.6285 48.1517C51.6107 48.1357 51.5875 48.1641 51.6035 48.1801C52.8212 49.4632 54.176 50.7676 55.7354 51.6331C55.7995 51.6686 55.8601 51.5709 55.8049 51.5247H55.8067Z" fill="#1F2844"/>
<path d="M51.6462 73.9782C50.9056 74.8525 50.1027 75.7322 49.4868 76.7007C49.4529 76.754 49.5366 76.7984 49.5758 76.7576C50.368 75.933 51.0284 74.9449 51.7014 74.0226C51.7281 73.9853 51.6764 73.9426 51.6462 73.9764V73.9782Z" fill="#1F2844"/>
<path d="M51.9682 74.4394C51.4733 75.2711 50.966 76.117 50.5476 76.9895C50.5209 77.0464 50.6064 77.1051 50.6438 77.05C51.1832 76.2432 51.6318 75.3511 52.0412 74.4732C52.0644 74.4252 51.995 74.395 51.9682 74.4394Z" fill="#1F2844"/>
<path d="M45.8427 61.3984C45.8463 61.3646 45.7982 61.3557 45.7911 61.3895C45.5472 62.5179 45.4404 63.7584 45.67 64.9011C45.6861 64.9828 45.8053 64.9739 45.8018 64.8886C45.7501 63.7122 45.6967 62.573 45.8445 61.4001L45.8427 61.3984Z" fill="#1F2844"/>
<path d="M36.0852 73.1201C35.0152 73.4097 33.9898 73.8362 32.9609 74.2432C32.9181 74.261 32.9413 74.3249 32.9858 74.3107C34.0432 73.9837 35.1096 73.671 36.1261 73.2267C36.1955 73.1965 36.1564 73.0987 36.0852 73.1183V73.1201Z" fill="#1F2844"/>
<path d="M45.574 26.9486C46.0849 27.272 46.4249 26.8117 46.473 26.3301C46.5371 25.6886 46.4694 24.7663 45.8072 24.4375C45.4209 24.2456 44.796 24.4002 44.8049 24.9067C44.8049 24.9387 44.8316 24.9476 44.8548 24.9422C44.7337 25.5891 45.0221 26.602 45.5722 26.9486H45.574Z" fill="#FFA58C"/>
<path d="M45.4422 24.6692C45.7627 24.543 46.1757 24.8575 46.2148 25.1774C46.2202 25.2289 46.1561 25.2503 46.1258 25.2129C45.9514 25.005 45.6897 24.6887 45.3942 24.9002C45.2055 25.037 45.1912 25.2396 45.136 25.444C45.1289 25.4724 45.0897 25.4635 45.0791 25.444C44.9295 25.1667 45.177 24.774 45.444 24.6692H45.4422Z" fill="#CF634D"/>
<path d="M45.4667 25.986C45.4881 25.9042 45.5077 25.8473 45.424 25.7834C45.3848 25.7532 45.3208 25.7532 45.278 25.7212C45.2673 25.7141 45.2673 25.6945 45.278 25.6874C45.4098 25.5968 45.602 25.6767 45.643 25.8278C45.6661 25.9131 45.643 26.0108 45.6305 26.0961C45.6163 26.1957 45.6127 26.2827 45.5397 26.3556C45.5059 26.3894 45.4472 26.3627 45.4311 26.3254C45.3848 26.2223 45.4383 26.0908 45.4667 25.986Z" fill="#CF634D"/>
<path d="M39.3769 23.3926C39.384 23.3748 39.3591 23.3642 39.3502 23.3802C39.0761 23.8493 38.6007 24.2118 38.4405 24.745C38.3088 25.1839 38.3836 25.7117 38.6577 26.0796C38.6898 26.1222 38.761 26.0867 38.7414 26.0352C38.5189 25.4789 38.3889 24.9689 38.7218 24.4215C38.939 24.0643 39.2274 23.7889 39.3769 23.3908V23.3926Z" fill="#46698A"/>
<path d="M37.8922 24.923C37.6821 25.1984 37.5949 25.6427 37.8299 25.9324C37.8726 25.9857 37.9491 25.9412 37.9331 25.8791C37.8459 25.5556 37.7925 25.2784 37.9509 24.9603C37.9687 24.9247 37.9171 24.891 37.8922 24.923Z" fill="#46698A"/>
<path d="M46.8485 19.2095C46.8129 19.19 46.788 19.2397 46.8129 19.2646C47.0497 19.4939 47.1583 19.7693 47.3096 20.0519C47.3399 20.1105 47.4235 20.0945 47.4218 20.0252C47.4218 19.6734 47.1387 19.3712 46.8485 19.2077V19.2095Z" fill="#46698A"/>
<path d="M46.6369 19.9578C46.612 19.9294 46.5692 19.9525 46.5799 19.988C46.6351 20.1817 46.6849 20.3683 46.6743 20.5709C46.6654 20.738 46.6084 20.889 46.5763 21.0507C46.5621 21.1236 46.6654 21.1769 46.7116 21.1129C46.9431 20.7913 46.8879 20.2546 46.6387 19.956L46.6369 19.9578Z" fill="#46698A"/>
<path d="M46.238 26.691C46.1276 26.7656 46.0368 26.8651 45.9229 26.9344C45.784 27.018 45.647 27.0162 45.4921 27.0322C45.4618 27.0357 45.4565 27.0695 45.4743 27.0891C45.7342 27.3716 46.2006 27.0144 46.3235 26.7621C46.3502 26.7088 46.2843 26.659 46.238 26.691Z" fill="#CF634D"/>
<path d="M61.1706 65.4091C61.0051 65.8676 61.0211 66.3598 60.8609 66.8236C60.7096 67.259 60.4532 67.6376 60.2716 68.0552C60.2485 68.1085 60.3233 68.1618 60.3606 68.1121C60.9606 67.2875 61.1137 66.406 61.1938 65.418C61.1938 65.4055 61.176 65.3966 61.1706 65.4108V65.4091Z" fill="#CF634D"/>
<path d="M61.8185 65.5817C61.8132 65.5604 61.7847 65.5692 61.7794 65.5852C61.726 65.7807 61.7171 65.9851 61.6743 66.1824C61.6316 66.3796 61.5622 66.5698 61.5123 66.7652C61.4999 66.8168 61.5729 66.831 61.596 66.7919C61.7936 66.4596 61.9111 65.9638 61.8168 65.5817H61.8185Z" fill="#CF634D"/>
<path d="M62.3224 65.5495C62.3188 65.5318 62.2903 65.5335 62.2832 65.5495C62.228 65.6775 62.2156 65.8214 62.18 65.9547C62.139 66.1058 62.0714 66.2533 62.0482 66.4079C62.0429 66.447 62.0963 66.4772 62.123 66.4416C62.2886 66.2266 62.3882 65.8125 62.3224 65.5495Z" fill="#CF634D"/>
<path d="M38.127 46.9949C38.1057 46.9789 38.0683 47.0055 38.0896 47.0286C38.3762 47.3414 38.6753 47.6364 38.9103 47.9918C39.1685 48.3828 39.3037 48.8004 39.4284 49.2465C39.4479 49.3193 39.553 49.2855 39.5512 49.218C39.5316 48.333 38.8249 47.4782 38.1288 46.9931L38.127 46.9949Z" fill="#CF634D"/>
<path d="M51.4666 57.0957C50.977 56.7367 50.3219 56.6656 49.7415 56.5466C48.96 56.3866 48.1732 56.2551 47.3827 56.1503C46.5923 56.0472 45.7983 55.9726 45.0026 55.9264C44.6073 55.9033 44.1605 55.8322 43.7635 55.9264C43.9985 55.6314 44.6661 54.5349 43.9682 53.8543C43.2508 53.1523 40.7852 53.1718 39.8435 53.9786C39.5319 53.0101 39.021 52.1056 38.3587 51.3343C36.9079 49.6443 34.7965 48.706 32.5694 48.7308C31.3927 48.7451 30.2444 49.0312 29.2012 49.5572C29.6018 48.905 29.9489 48.1106 29.7175 47.3678C29.438 46.465 28.4678 46.2304 27.6275 46.2091C25.6141 46.1558 23.622 46.856 22.0429 48.0893C23.0523 45.8875 24.7311 43.6483 24.2397 41.1177C24.0599 40.1972 23.5401 39.3104 22.7497 38.7826C21.9041 38.2175 20.8733 38.2086 19.9494 38.5906C19.3939 38.8199 15.9581 42.8308 12.4421 47.0568C12.3442 47.1759 12.2463 47.2932 12.1484 47.4122C8.74103 51.512 5.33545 55.722 4.47204 56.806C4.33852 56.9589 4.20144 57.1099 4.06793 57.2645C4.02698 57.3143 4.04122 57.4245 4.10531 57.4209C7.74054 57.181 26.9706 57.7301 34.946 57.9505C35.0048 57.9505 35.0618 57.9505 35.1169 57.954C36.9221 58.0038 38.1166 58.034 38.3676 58.034C49.6899 58.0074 51.0696 58.0003 51.4078 57.2876C51.4434 57.2112 51.5503 57.1579 51.4666 57.0975V57.0957Z" fill="#9DEBEF"/>
<path d="M53.7667 31.1535C52.8161 32.4188 51.3634 33.3713 49.9036 33.8138C48.0344 34.3807 45.5848 34.1479 44.4775 32.3637C44.5309 32.3423 44.5843 32.321 44.6377 32.3015C45.891 34.0448 48.2106 34.2456 50.1582 33.549C51.5432 33.055 52.6149 32.202 53.489 31.1179H53.5015L53.7667 31.1517V31.1535Z" fill="#1F2844"/>
<path d="M88.9975 78.8261C88.3352 78.7159 87.6623 78.9381 87.0481 79.2242C87.6766 78.6591 88.289 78.0228 88.5417 77.2196C88.8177 76.3399 88.378 75.5651 87.4327 75.5313C85.478 75.462 83.493 76.3595 82.124 77.7385C82.1311 77.5466 82.0599 77.3475 81.9175 77.1929C81.5704 76.8126 80.9865 76.8891 80.5396 77.001C79.4946 77.2622 78.487 77.7669 77.7446 78.5471C77.9458 78.0922 78.0402 77.5946 77.7464 77.1485C77.3192 76.4963 76.4504 76.6936 75.8701 76.9619C74.453 77.6194 73.5807 78.0442 71.2219 79.8444C71.1827 79.3983 70.6807 79.2224 70.2445 79.2775C69.5698 79.3628 67.1131 80.1856 67.2894 80.637C67.3677 80.836 69.3028 80.8609 69.8493 80.8627C70.8552 80.868 87.3187 81.0724 88.2605 80.948C88.8782 80.8662 89.4283 80.4824 89.7114 79.9244C90.0033 79.3486 89.56 78.9203 88.9939 78.8261H88.9975Z" fill="#9DEBEF"/>
<path d="M89.4139 28.7278C89.1896 28.1183 88.4063 28.0508 87.8544 27.9868C87.0141 27.8908 86.1667 27.9228 85.3354 28.065C85.6095 27.7682 85.8819 27.4714 86.1561 27.1764C86.3679 26.9472 86.6367 26.7002 86.699 26.3785C86.829 25.721 86.1205 25.3851 85.5811 25.3567C84.1088 25.2802 82.5564 25.7832 81.2693 26.5118C81.4153 26.2861 81.5043 26.0231 81.4331 25.7601C81.3352 25.3958 80.9809 25.2429 80.632 25.2287C79.9609 25.2003 79.247 25.4651 78.6203 25.8223C79.0618 25.202 79.6564 24.365 79.822 24.0896C80 23.7946 80.0267 23.4676 79.8078 23.185C79.5852 22.9007 79.2345 22.7834 78.8838 22.7852C77.5664 22.7905 76.055 23.8461 74.9994 24.6991C74.8712 24.8022 74.6914 24.9266 74.5062 25.1043C74.6184 24.5872 74.6504 24.1518 74.4421 23.9065C74.2143 23.6382 73.6731 23.6293 73.3366 23.6844C72.4625 23.8248 71.6881 24.3544 71.0294 24.9213C70.6805 25.2198 70.3565 25.545 70.0325 25.8702C69.8776 26.0249 69.7174 26.2274 69.5038 26.3003C69.2813 26.3767 69.0747 26.2541 68.8878 26.1439C68.7098 26.0391 68.2772 25.904 67.7431 26.0302C67.3479 26.1244 66.9794 26.3216 66.6269 26.5224C66.1943 26.7677 65.7956 27.0662 65.436 27.4092C64.2539 27.8144 63.1715 28.479 62.2778 29.3676C62.26 29.3854 62.2796 29.412 62.301 29.412C64.1435 29.3854 86.7649 29.1846 87.4788 29.1277C88.1072 29.0779 88.7872 29.0904 89.3712 28.8274C89.4103 28.8096 89.4335 28.7687 89.4174 28.7278H89.4139Z" fill="#9DEBEF"/>
<path d="M30.0128 38.7497C29.9096 38.6164 29.8045 38.4831 29.7013 38.3499C29.6853 38.2894 29.5838 38.2557 29.5322 38.325C29.1156 38.8705 28.7008 39.4161 28.2842 39.9599C28.2611 39.9635 28.2397 39.9759 28.2255 40.0043C27.9424 40.5783 27.654 41.1595 27.492 41.7815C27.33 42.3963 27.3443 43.0148 27.3977 43.6439C27.46 44.3831 27.4938 45.094 27.3389 45.8262C27.1894 46.5281 26.9241 47.1981 26.6072 47.8414C25.4572 50.1783 23.7268 52.1971 23.6699 54.9179C23.6521 55.7691 23.6627 56.6026 23.4847 57.4396C23.312 58.257 23.0112 59.0354 22.6106 59.7658C22.5554 59.8653 22.7085 59.956 22.7637 59.8547C23.369 58.7564 23.7393 57.5462 23.8212 56.2933C23.871 55.5292 23.8069 54.7579 23.9138 53.9973C24.0152 53.2687 24.2556 52.5667 24.5635 51.9003C25.6157 49.6114 27.508 47.5606 27.6344 44.934C27.6718 44.1486 27.4902 43.3702 27.5401 42.5847C27.5917 41.7583 27.9353 41.0013 28.2949 40.2674C28.3447 40.4291 28.3999 40.5872 28.4676 40.7436C28.4961 40.8094 28.5886 40.7934 28.6207 40.7436C29.0444 40.0879 29.4716 39.441 30.0128 38.8759C30.0484 38.8386 30.0431 38.7888 30.0128 38.7497Z" fill="#CF5A4D"/>
<path d="M26.3512 81.5278C26.3334 81.5331 26.3156 81.5366 26.3014 81.5402C26.2515 81.5509 26.2052 81.4798 26.1607 81.462C24.4962 80.7832 22.424 80.8418 21.2046 82.315C21.1316 82.4039 21.1138 82.4838 21.4413 82.4163C23.0703 82.084 24.717 81.8476 26.3726 81.7215C26.3619 81.6575 26.3566 81.5917 26.3512 81.526V81.5278Z" fill="#1F2844"/>
<path d="M27.412 79.6345C27.0044 79.6434 26.7373 80.061 26.6056 80.3969C26.5397 80.5657 26.4952 80.747 26.4899 80.9283C26.4881 81.0189 26.5112 81.106 26.5112 81.1948C26.5112 81.3708 26.3653 81.584 26.2798 81.6906C26.2673 81.7066 26.246 81.7102 26.2228 81.712C26.2691 81.7653 26.3136 81.8186 26.3581 81.8737C26.6252 81.6213 26.8958 81.3708 27.1717 81.1255C27.1948 81.1255 27.9301 80.5177 27.9336 80.1197C27.9354 79.8229 27.7004 79.6256 27.4103 79.631L27.412 79.6345ZM27.7093 80.3009C27.7004 80.3791 27.1806 80.8856 27.1646 80.898C27.0168 81.0278 26.8726 81.1593 26.7284 81.2908C26.5967 80.8358 26.748 80.1499 27.1753 79.8922C27.2589 79.8655 27.3373 79.8105 27.4245 79.8105C27.8411 79.8105 27.7111 80.2992 27.7111 80.2992L27.7093 80.3009Z" fill="#1F2844"/>
<path d="M26.3528 81.6592C24.8877 82.402 23.3763 83.0471 21.8275 83.6033C21.5124 83.7171 21.5693 83.7757 21.6779 83.813C23.4866 84.4386 25.2865 83.4114 26.3546 81.9684C26.3831 81.9311 26.3866 81.8476 26.4329 81.8298C26.4044 81.7729 26.376 81.7178 26.351 81.6592H26.3528Z" fill="#1F2844"/>
<path d="M28.4872 81.6929C28.206 81.4103 27.2535 81.4885 27.2375 81.5063C26.8886 81.5223 26.5397 81.533 26.1907 81.5383C26.2032 81.6023 26.2174 81.6645 26.2263 81.7284C26.3652 81.748 26.6002 81.7977 26.7177 81.9186C26.78 81.9826 26.8245 82.0608 26.8904 82.1247C27.0203 82.2527 27.1805 82.3504 27.3461 82.4251C27.6772 82.5743 28.1597 82.6863 28.457 82.4073C28.6688 82.21 28.6973 81.9044 28.4872 81.6929ZM28.3395 82.2722C28.2772 82.3327 28.1828 82.3486 28.1045 82.3877C27.6185 82.5033 27.0292 82.1176 26.8049 81.7C27.0007 81.6929 27.1966 81.6858 27.3924 81.6751C27.4138 81.6751 28.1383 81.6733 28.2006 81.7213C28.2006 81.7213 28.6368 81.979 28.3395 82.2705V82.2722Z" fill="#1F2844"/>
<path d="M111.487 38.0591C111.471 37.8903 111.457 37.7232 111.441 37.5544C111.458 37.4957 111.393 37.4122 111.312 37.4424C110.668 37.677 109.331 38.1355 109.304 38.1515C108.756 38.482 108.199 38.8161 107.725 39.2533C107.257 39.6851 106.935 40.2112 106.639 40.771C106.292 41.4285 105.936 42.0434 105.411 42.5765C104.907 43.0865 104.32 43.5077 103.706 43.8791C101.475 45.2262 98.9256 45.9939 97.4071 48.2561C96.9317 48.9634 96.4902 49.6707 95.8885 50.2803C95.301 50.8756 94.6281 51.3696 93.8947 51.7677C93.7932 51.8228 93.8751 51.981 93.9748 51.9259C95.0785 51.327 96.0434 50.5077 96.7893 49.4966C97.2451 48.8799 97.6064 48.1975 98.1085 47.6128C98.5891 47.0548 99.1695 46.5928 99.789 46.1965C101.911 44.8352 104.615 44.1279 106.141 41.9865C106.597 41.345 106.864 40.5915 107.33 39.957C107.821 39.2888 108.446 38.8819 109.146 38.4572C109.187 38.6118 109.271 38.7699 109.288 38.8943C109.299 38.9654 109.361 38.9974 109.418 38.9778C110.184 38.6971 110.686 38.4003 111.419 38.1657C111.469 38.1497 111.492 38.1088 111.487 38.0591Z" fill="#CF5A4D"/>
</svg>
