<svg width="96" height="88" viewBox="0 0 96 88" fill="none" xmlns="http://www.w3.org/2000/svg">
<path d="M49.067 30.8211C49.3098 31.7438 49.9411 32.3023 50.5724 32.9821C50.9124 33.3706 51.2523 33.7591 51.568 34.1719C51.6165 34.2205 51.6408 34.2691 51.6651 34.3419C52.2236 35.9202 53.1948 37.9599 54.7489 38.7126C54.8703 38.7854 54.9917 38.8826 55.0645 39.004C55.7444 40.4609 57.9297 45.2686 58.0997 45.2686C59.5809 45.3657 61.5234 44.9529 62.7618 44.0302C63.0774 43.7874 60.4793 38.4455 59.9694 37.4499C59.7994 37.0129 59.848 36.8915 59.7994 36.6244C59.9451 34.9975 59.7509 33.3949 59.1924 31.8409C58.8767 30.9911 58.1726 28.9271 56.9585 29C56.8371 29 56.7642 29.0728 56.6914 29.1699C56.23 28.4415 55.6958 27.7616 55.1131 27.1303C54.506 26.4747 53.6805 25.4306 52.6849 25.5763C52.3693 25.6248 52.2479 25.9648 52.345 26.2076C52.5635 26.7661 53.0006 27.2517 53.3891 27.713C53.6805 28.0044 53.899 28.3686 54.1418 28.7086C54.3846 29.0485 54.5546 29.437 54.7489 29.8013C54.7974 29.8984 55.016 30.214 54.8703 30.3112C54.7974 30.3597 54.7489 30.3112 54.7003 30.2626C54.6517 30.1898 54.6032 30.1169 54.5546 30.0441C54.4575 29.8984 54.3604 29.7527 54.2875 29.607C53.6562 28.6115 52.9763 27.5916 52.1022 26.7661C51.5437 26.2319 50.6453 25.552 49.9168 26.1347C49.7954 26.2319 49.7226 26.4261 49.7711 26.5718C50.0868 27.5916 50.9852 28.4658 51.5437 29.3399C51.9322 29.9469 52.2964 30.6025 52.6364 31.2339C52.2964 30.7482 51.9565 30.2869 51.5437 29.8741C50.9852 29.2671 50.3782 28.5872 49.504 28.5143C49.0913 28.4901 48.8727 28.9514 49.1155 29.2671C49.4555 29.7041 49.7711 30.1412 50.0868 30.5783C49.9897 30.5054 49.8925 30.4569 49.7711 30.384C49.4798 30.1898 48.9456 30.4083 49.067 30.8211Z" fill="#964939"/>
<path d="M56.4972 29.3394C56.3029 30.0678 56.5943 30.6991 56.8128 31.379C56.9585 31.8647 57.2013 32.3988 57.0556 32.9088C56.9342 33.2973 56.6428 33.6372 56.4729 34.0014C55.9144 35.1669 55.9144 36.551 56.57 37.6922C56.6428 37.8379 56.8614 37.7165 56.7885 37.5708C56.4 36.8909 56.2543 36.1382 56.3515 35.3369C56.4486 34.5842 56.7885 34.0014 57.1285 33.3215C57.8084 31.9861 56.3515 30.7234 56.7157 29.3879C56.7643 29.2665 56.5214 29.1937 56.4972 29.3394Z" fill="#71311F"/>
<path d="M60.7949 37.4013C61.9361 39.2467 66.6467 45.7299 67.5694 47.6967C67.618 47.7938 67.7394 47.7695 67.7637 47.6724C68.9778 43.326 69.949 36.1144 71.8187 33.0064C73.1056 30.8939 73.5427 34.6332 75.728 33.2977C75.7766 33.2735 74.6839 34.5847 74.7325 34.8518C75.8009 39.8295 74.8296 44.6615 73.0571 49.3721C72.6928 50.3191 72.3043 51.2418 71.8916 52.1645C71.8916 52.2131 71.8916 52.2373 71.8673 52.2859C71.7459 52.5287 71.6245 52.7473 71.503 52.9901C71.1388 53.7428 70.7503 54.4955 70.3618 55.224C69.8519 56.1952 69.342 57.1908 68.8078 58.162C68.0793 59.4975 67.618 60.4688 66.0154 60.7359C62.6888 61.2458 59.8965 57.0208 58.4881 54.3984C57.1769 51.946 55.1373 45.4385 54.5302 42.3548C54.506 42.1848 54.5302 42.0148 54.6274 41.8691C56.4242 39.3196 57.3469 38.1298 60.4064 37.2556C60.5521 37.2071 60.6978 37.2556 60.7949 37.4013Z" fill="#59242E"/>
<path d="M84.5178 29.8982C84.1779 26.9844 81.7983 23.1722 79.0059 24.8233C76.5535 26.2802 73.6154 29.7282 72.6684 31.4279C69.876 36.3814 67.6421 42.9131 66.9622 48.2793C65.7967 57.2149 64.5341 67.2675 64.5827 76.3002C64.5827 76.543 65.4811 78.2185 76.3106 74.4791C77.7918 73.9692 75.2665 69.4528 75.7279 67.9474C76.3592 65.8592 76.5777 63.6495 76.9662 61.4885C77.3548 59.3517 77.8647 57.2149 78.4474 55.1267C79.6615 50.756 81.167 46.4825 82.4053 42.1361C83.0124 40.0479 83.5708 37.9354 83.9836 35.7986C84.3478 33.8804 84.7363 31.865 84.5178 29.8982Z" fill="#59242E"/>
<path d="M84.4452 1.73154C83.1826 1.56157 81.9685 1.70726 80.803 1.14879C80.0745 0.784563 79.4189 0.323213 78.6176 0.128961C76.9908 -0.283825 75.2911 0.323213 74.1741 1.53729C74.1498 1.56157 74.1255 1.58585 74.1255 1.61014C73.1543 1.41588 72.1345 1.68298 71.4789 2.50855C71.0661 3.01847 71.0418 3.52838 70.3133 3.86832C69.9734 4.03829 69.4635 3.98973 69.0993 4.08685C68.4194 4.28111 67.8123 4.62105 67.4481 5.25237C66.7197 6.44216 67.0839 7.92334 68.0794 8.82176C69.0507 9.69589 70.3133 9.84158 71.5031 9.59876C74.1255 9.74445 76.8936 8.09331 79.4189 8.99173C80.0502 9.21026 80.6816 9.67161 81.0215 10.2786C81.3615 10.8857 81.2643 11.5899 81.4829 12.2212C81.7014 12.8039 82.1142 13.2167 82.7212 13.411C83.2797 13.5809 83.9353 13.5081 84.4209 13.1682C84.7852 12.9253 84.9551 12.5368 85.3193 12.294C85.8535 11.9055 86.3149 12.0026 86.8976 11.8084C88.1603 11.3956 88.3788 10.2301 88.2574 9.08885C89.3015 5.93225 88.1117 2.19289 84.4452 1.73154Z" fill="#4D140F"/>
<path d="M24.2028 34.1231C23.3772 30.3109 22.2603 26.5229 21.2647 22.7593C21.2647 22.735 21.289 22.735 21.289 22.7107C21.289 22.5165 21.3133 22.3465 21.3376 22.1523C21.3619 22.0551 21.2647 21.9823 21.1919 22.0066C20.0507 21.1324 18.618 22.2494 18.3995 23.4877C18.2295 24.459 18.5452 25.4303 18.8851 26.3287C19.2494 27.3485 19.6864 28.3683 20.1235 29.3639C21.0948 31.5735 22.0417 33.7831 22.236 36.2113C22.406 38.5423 22.066 40.849 22.3817 43.1801C22.3088 43.2529 22.3574 43.35 22.4302 43.3743V43.3986C22.4545 43.5686 22.6973 43.4957 22.6731 43.3258C22.6731 43.3015 22.6731 43.2772 22.6488 43.2529C24.9312 40.7762 24.8584 37.2068 24.2028 34.1231Z" fill="#913939"/>
<path d="M48.7512 33.6375C48.6298 33.6861 48.5326 33.7346 48.4355 33.8075C48.7997 33.3947 49.1639 33.0062 49.5282 32.5934C49.7953 32.302 49.6253 31.8164 49.2125 31.8164C48.3384 31.7921 47.6828 32.4234 47.0515 32.9576C46.6144 33.3461 46.2016 33.7589 45.8374 34.196C46.2259 33.5889 46.6629 32.9819 47.1243 32.4234C47.7799 31.5979 48.7754 30.8208 49.1882 29.8496C49.2368 29.7039 49.1882 29.5096 49.0911 29.4125C48.4112 28.7812 47.44 29.3639 46.8572 29.8253C45.9102 30.5537 45.1332 31.5007 44.4048 32.4234C44.3076 32.5691 44.1862 32.6905 44.0891 32.8362C44.0405 32.9091 43.992 32.9819 43.9434 33.0305C43.8949 33.1033 43.8463 33.1276 43.7734 33.079C43.6278 32.9576 43.8949 32.6662 43.9434 32.5691C44.1619 32.2049 44.3805 31.8649 44.6719 31.5493C44.9147 31.2336 45.2061 30.8937 45.5217 30.6509C45.9345 30.2138 46.4201 29.7767 46.7115 29.2425C46.8329 28.9997 46.7601 28.6598 46.4444 28.5627C45.4732 28.3198 44.5505 29.2668 43.8706 29.8739C43.215 30.4566 42.6322 31.0879 42.098 31.7435C42.0495 31.6464 41.9523 31.5736 41.8552 31.5493C40.6654 31.3308 39.7427 33.3218 39.3542 34.1474C38.65 35.6286 38.3101 37.2069 38.2858 38.8338C38.1887 39.1009 38.2373 39.2223 38.0187 39.635C37.3874 40.582 34.2794 45.6083 34.5707 45.8997C35.6877 46.9438 37.6059 47.5751 39.0871 47.6237C39.2814 47.6237 42.2194 42.5731 42.875 41.5047C44.599 41.0191 45.8617 38.9794 46.6144 37.4011C46.6387 37.3526 46.6872 37.2797 46.7115 37.2312C47.0515 36.8669 47.44 36.5027 47.8042 36.1385C48.4841 35.5072 49.1639 35.0216 49.5282 34.1474C49.5525 33.7589 49.0668 33.4918 48.7512 33.6375Z" fill="#EB8B65"/>
<path d="M41.9766 31.9863C42.1951 33.3704 40.6168 34.463 41.1753 35.8471C41.4424 36.5512 41.7338 37.1583 41.7581 37.9353C41.7823 38.7366 41.5395 39.4893 41.0782 40.1449C41.0053 40.242 41.1753 40.3392 41.2239 40.242C42.0252 39.1494 42.1223 37.7168 41.6367 36.4541C41.491 36.0656 41.2239 35.7014 41.2239 35.2886C41.1996 34.7544 41.5152 34.2202 41.7338 33.7589C42.0009 33.1518 42.268 32.6176 42.1708 31.9378C42.1223 31.8163 41.9523 31.8649 41.9766 31.9863Z" fill="#C45547"/>
<path d="M48.0227 33.9773C47.2942 34.6815 46.6629 35.4828 46.1287 36.3569C46.0559 36.4541 46.2259 36.5512 46.2744 36.4541C46.8086 35.6042 47.4157 34.8272 48.1441 34.123C48.2412 34.0259 48.0955 33.8802 48.0227 33.9773Z" fill="#C45547"/>
<path d="M45.7648 34.0263C45.5706 34.2448 45.4006 34.4633 45.2549 34.7304C45.2063 34.8276 45.352 34.9247 45.4006 34.8276C45.5463 34.5847 45.692 34.3662 45.8619 34.172C45.9833 34.0505 45.8376 33.9291 45.7648 34.0263Z" fill="#C45547"/>
<path d="M34.1825 44.3212C32.9441 46.0937 31.8272 47.9391 30.8073 49.8574C30.7588 49.9302 30.6616 49.9302 30.6131 49.8574C29.6904 47.6234 28.6706 45.4381 27.6507 43.2528C26.6066 41.0189 24.1056 37.0367 21.9931 35.6041C21.9446 35.5798 22.9644 36.9396 22.9158 37.2067C21.5804 42.1358 22.3331 46.9921 23.8628 51.7999C24.1785 52.7711 24.5184 53.7181 24.8826 54.6651C24.8826 54.7137 24.8826 54.7379 24.9069 54.7865C25.0283 55.0293 25.1255 55.2721 25.2226 55.515C25.5382 56.292 25.8782 57.0447 26.2667 57.8217C26.728 58.8172 27.1894 59.8371 27.6507 60.8326C28.3063 62.2167 29.2048 63.5279 30.8073 63.8678C34.1096 64.5477 37.1691 61.6339 38.6988 59.0601C40.18 56.6076 41.1756 53.791 41.904 50.95C40.1557 48.1334 37.679 45.2924 34.571 44.224C34.4253 44.1512 34.2553 44.1998 34.1825 44.3212Z" fill="#FAE1D2"/>
<path d="M28.5733 51.5817C28.1363 52.4073 27.7235 53.2329 27.335 54.0827C27.2864 54.1799 27.4321 54.277 27.4807 54.1799C27.8692 53.33 28.282 52.5044 28.719 51.6789C28.7676 51.5817 28.6219 51.4846 28.5733 51.5817Z" fill="#2B0303"/>
<path d="M6.67139 87.0569H30.2002C31.0743 87.0569 31.7299 86.3041 31.6571 85.4543C31.6328 85.2115 31.6085 84.9686 31.5843 84.7258C31.3657 82.759 31.1229 80.8165 30.8072 78.874C30.1759 74.9161 29.3504 71.0067 28.3548 67.1217C28.3062 66.9274 28.282 66.7575 28.3062 66.5632C28.3305 65.8591 28.3062 65.1792 28.2091 64.475C28.2091 64.4265 28.1848 64.4022 28.1848 64.3779C28.5005 64.2565 28.5733 63.7951 28.1606 63.7466C22.0416 62.9938 15.8255 62.314 9.75514 63.6252C9.48805 63.6737 9.43948 63.8923 9.51233 64.0622C9.60946 64.305 9.6823 64.5479 9.65802 64.7907C9.56089 65.7134 9.48805 66.6361 9.46377 67.583C9.46377 67.8501 9.43948 68.1172 9.34236 68.3843C7.22986 74.2605 5.31162 80.258 4.97168 86.4498C5.48159 86.6926 6.08863 86.8869 6.67139 87.0569Z" fill="#DEAD90"/>
<path d="M14.15 8.21465C13.1059 7.19482 10.7506 6.70919 10.6534 6.78204C4.21883 11.0313 5.60288 18.2186 5.74857 24.7504C5.82141 28.1498 5.74857 31.5735 4.92299 34.9001C4.1217 38.0081 2.42199 40.7519 1.18364 43.69C0.552316 45.1469 0.0909661 46.7009 0.0181214 48.3035C-0.0304417 49.3719 -0.00616011 50.5374 0.406626 51.5329C1.57214 54.301 5.9671 53.2569 8.0796 52.4556C8.7352 52.2128 9.3908 51.2658 9.6579 50.5859C9.94928 49.8332 9.80359 48.9834 9.75502 48.2064C9.68218 47.2594 9.80359 46.3124 10.1192 45.414C10.7263 43.5929 11.8918 42.0146 12.8145 40.3391C13.7858 38.6151 14.3442 36.794 14.4899 34.8029C14.6356 32.5933 14.3685 30.3837 14.2228 28.1984C13.8829 23.3906 14.0771 18.5586 14.7813 13.7994C15.0241 11.9054 15.704 9.74438 14.15 8.21465Z" fill="#913939"/>
<path d="M21.2646 23.5607C21.216 21.2782 19.0307 20.0884 17.161 19.2629C15.7527 18.6558 13.3731 16.4462 12.5232 18.2188C12.4747 18.2673 12.4261 18.3402 12.4261 18.413C12.4747 20.744 12.1105 23.8035 11.8676 26.0617C11.6248 28.2956 10.775 30.8452 9.39093 32.8848C9.22095 33.2005 14.5629 35.6772 16.9668 36.2599C17.6952 36.4299 19.1278 36.867 19.832 36.5513C20.1719 36.3814 20.2933 36.1385 20.1719 35.8714C20.1962 35.7986 20.1962 35.7257 20.1477 35.6529C19.5892 34.7302 19.1035 33.7832 19.0307 32.6663C18.9579 31.5979 19.1764 30.4809 19.3464 29.4368C19.492 28.5141 19.6863 27.5914 19.8806 26.693C20.0991 25.6975 20.1719 24.4105 21.216 23.9249C21.386 23.8521 21.3617 23.6821 21.2646 23.5607Z" fill="#EB8B65"/>
<path d="M29.8358 61.7071C29.6659 59.4489 29.933 59.2546 29.7873 56.9965C29.6416 54.544 29.5687 51.9702 28.9617 49.5906C27.869 45.2199 25.0767 38.8824 22.5514 35.1916C22.1872 34.6574 21.7744 35.8472 21.8229 35.9201C21.7258 37.2798 20.0018 36.4786 19.5405 36.26C19.2734 36.1386 19.0063 36.0172 18.7392 35.8715C18.0107 35.5073 17.3066 35.1188 16.6267 34.6817C15.2183 33.8076 13.98 33.1763 12.4745 32.5207C10.3863 31.598 9.07511 33.1034 8.20098 34.9974C6.16133 39.3923 4.92297 43.6416 5.28719 48.5465C5.48144 51.1203 5.77282 53.5242 6.3313 56.0495C6.4527 56.5837 6.50127 57.0936 6.52555 57.6521C6.57411 59.5946 6.76836 61.1243 6.84121 63.0668C6.91405 64.5723 7.08402 66.2963 8.00672 67.6075C8.97799 68.9915 10.4349 70.1085 11.9889 70.327C14.15 70.5941 17.3551 70.5699 19.5162 70.5699C21.5315 70.5699 24.3482 70.9098 26.3636 70.8127C28.1118 70.7398 29.0588 70.5941 29.9087 68.7002C30.4672 67.4861 30.1272 65.2279 30.0301 63.941C29.933 63.164 29.8844 62.4355 29.8358 61.7071Z" fill="#FAE1D2"/>
<path d="M25.9993 16.7132C26.582 16.5189 27.1405 16.1061 27.1405 15.5234C27.1405 15.0863 26.6306 14.8921 26.3392 14.6735C25.4894 13.9936 25.368 13.5809 25.2223 12.8038C25.028 11.8326 24.7852 10.8613 24.4696 9.93863C23.5711 7.17053 20.7788 5.42226 17.9135 5.44654C14.6598 5.47082 10.969 8.23892 10.0706 11.347C9.60924 12.9253 9.73065 14.625 10.5077 16.0819C11.0176 17.0288 11.7703 17.7816 12.4259 18.6557C13.5671 20.1854 14.8055 22.8321 16.5781 23.7548C17.9135 24.4347 19.9289 24.459 21.3858 24.4104C22.6484 24.3619 24.5181 24.3376 25.5379 23.512C26.4606 22.7593 26.315 21.4238 26.2178 20.3554C26.1693 19.9183 26.145 19.4813 26.0964 19.0442C26.0479 18.5343 25.9993 18.0244 25.9264 17.5145C25.9022 17.3445 25.8779 17.1502 25.8779 16.9803C25.8536 16.8346 25.9264 16.7375 25.9993 16.7132Z" fill="#EB8B65"/>
<path d="M22.6731 11.0557C22.3089 11.1771 21.9689 11.347 21.7261 11.517C21.2648 11.857 20.7548 12.5126 21.1191 13.1196C21.3133 13.4595 21.8961 13.3867 22.2117 13.2167C22.576 13.0225 22.9887 12.9739 23.3773 12.8525C23.79 12.7311 24.2514 12.464 24.3242 11.9784C24.3971 11.517 24.13 11.0071 23.6686 10.91C23.353 10.8857 22.9887 10.9585 22.6731 11.0557Z" fill="#913939"/>
<path d="M23.5954 9.74426C24.0082 8.19024 23.2555 6.9276 21.8472 6.15059C20.3417 5.32502 18.4963 5.17933 16.8452 5.20361C15.1212 5.22789 13.3001 5.44643 11.746 6.17487C9.07507 7.43751 7.54533 10.0356 6.91401 12.8523C6.62263 14.1149 6.50122 15.4504 6.50122 16.7373C6.5255 19.7483 10.6048 20.9138 12.7659 22.055C13.0087 22.1764 12.4988 22.6863 12.4988 22.9534C12.6445 25.9158 13.2758 28.5625 14.2228 31.3306C14.9998 33.5645 16.0196 36.0169 16.4081 38.3479C16.5538 39.2949 16.748 40.2176 16.7723 41.1646C16.7966 42.0144 16.6995 42.9857 17.2094 43.7142C17.6222 44.3455 17.9621 44.1269 18.5934 44.1027C19.8318 44.0541 20.0989 45.0496 21.143 45.3653C23.4255 46.0452 23.474 41.7473 23.474 40.4604C23.4497 37.9351 23.037 35.4341 22.3328 33.006C21.6772 30.7721 20.6574 28.6596 20.196 26.3771C19.5647 23.2691 19.3462 20.0639 19.2005 16.9073C19.1762 16.5674 19.1762 16.2517 19.1762 15.9118C19.1762 15.6932 19.2733 15.4747 19.4433 15.3047C20.9245 13.775 23.0127 11.8325 23.5954 9.74426Z" fill="#913939"/>
<path d="M23.6686 13.6051C23.2558 13.2894 22.8673 13.7508 22.8188 14.1393C22.7459 14.5764 22.8188 15.1348 23.1101 15.4748C23.2558 15.6205 23.4744 15.7176 23.6929 15.6447C23.9114 15.5476 24.0085 15.3048 24.0571 15.0863C24.1542 14.6006 24.0571 13.9208 23.6686 13.6051Z" fill="#170301"/>
<path d="M25.9264 17.4661C25.8778 17.4903 25.8535 17.4903 25.805 17.5146C25.5379 17.6118 25.2708 17.6603 24.9794 17.6846C24.8094 17.7089 24.5423 17.6603 24.4209 17.8303C24.1538 18.2188 25.0522 18.6559 25.2951 18.753C25.4893 18.8258 25.805 18.9715 26.0964 19.0201C26.0478 18.5102 25.9992 17.976 25.9264 17.4661Z" fill="white"/>
<path d="M26.1935 15.9606C25.9264 16.0092 25.6836 16.1306 25.4894 16.3248C25.3922 16.3977 25.5379 16.5434 25.6108 16.4463C25.7808 16.2763 25.9993 16.1792 26.2421 16.1306C26.3635 16.1063 26.3149 15.9363 26.1935 15.9606Z" fill="#C45547"/>
<path d="M13.6887 14.4306C13.1302 13.9207 12.3532 13.9693 11.7947 14.4306C10.9692 15.0862 10.7021 16.3731 10.435 17.3444C10.1193 18.5342 9.90076 19.7483 9.77936 20.9623C9.65795 22.3707 9.65795 23.8033 9.56082 25.2116C9.4637 26.5714 9.26944 27.9069 9.02663 29.2424C8.51672 31.8648 7.64258 34.3658 6.57419 36.8182C5.5058 39.2949 4.36457 41.7959 4.24316 44.5154C4.24316 44.6854 4.48598 44.6854 4.48598 44.5154C4.48598 44.4426 4.48598 44.3455 4.51026 44.2726C4.55882 44.2726 5.19014 47.6478 5.19014 47.5749C5.31155 43.1314 7.81255 37.1824 9.94933 34.0015C12.0375 30.8692 13.4216 27.4455 14.0529 23.7304C14.3929 21.6665 14.5385 19.5783 14.5143 17.4901C14.5143 17.4415 14.5385 17.3687 14.5385 17.3201C14.6114 17.3687 14.7328 17.3444 14.7328 17.223C14.6114 16.3246 14.3929 15.1105 13.6887 14.4306Z" fill="#913939"/>
<path d="M37.5334 53.4514C35.9066 53.2329 32.9442 51.2418 32.7743 51.3875C32.7257 51.4118 32.6043 51.4361 32.58 51.4846C29.5934 54.5684 25.6112 57.385 21.6776 59.8132C21.5076 59.7403 21.2648 59.9103 21.3134 60.1046C21.2648 60.2503 21.3862 60.3959 21.5319 60.4202C22.1147 61.173 22.7217 61.95 23.2802 62.7027C23.8386 63.4554 24.8585 64.4995 25.1256 65.4465C25.077 65.4708 25.0527 65.4951 25.0042 65.5194C24.7371 65.6893 25.0284 66.1021 25.2955 65.9321C25.3198 65.9079 25.3441 65.9079 25.3684 65.8836C25.5141 65.9079 26.024 66.1507 26.0483 66.005C30.8075 61.7072 34.8139 56.4866 38.0191 53.4514C38.2376 53.2815 37.7277 53.3786 37.5334 53.4514Z" fill="#EB8B65"/>
<path d="M25.1981 62.9697C25.0525 61.5371 24.6397 60.1288 24.0326 58.8419C24.0326 58.769 24.0083 58.7205 23.9841 58.6476C23.8627 58.4534 23.7412 58.2591 23.6441 58.0649C23.547 57.8949 23.4499 57.7249 23.3285 57.5549C22.2601 55.7824 21.216 53.9856 20.2447 52.1402C19.0549 49.8334 18.2536 47.4538 17.3309 45.0499C16.5782 43.0589 15.4127 41.0921 13.7858 39.6837C12.6689 38.7125 11.042 37.9112 9.53654 38.2754C7.6183 38.7125 7.27836 40.7278 6.91413 42.379C6.50135 44.2487 6.11284 46.2155 6.01571 48.1337C5.91859 50.1005 6.23425 52.4315 6.93841 54.2284C7.6183 55.9524 8.39531 57.6278 9.29372 59.2304C11.042 62.3627 13.5187 65.3979 16.214 67.8018C17.3795 68.8459 18.8121 69.4043 20.3904 69.5257C21.823 69.6472 23.2799 69.1858 24.1783 68.0203C25.271 66.612 25.3924 64.6694 25.1981 62.9697Z" fill="#FAE1D2"/>
<path d="M32.8227 61.2214C31.7058 57.822 27.8207 55.0296 27.5779 55.151C25.0283 56.5594 23.1101 57.4821 21.0462 59.0846C20.949 59.0846 15.8256 64.9851 15.9956 65.2522C15.9956 65.2522 15.17 66.5634 15.68 67.2432C18.5695 70.6184 21.6775 70.7398 24.8584 69.3072C30.516 66.7576 32.7742 61.6828 32.7742 61.6585C32.8713 61.5614 32.8713 61.4157 32.8227 61.2214Z" fill="#FAE1D2"/>
<path d="M27.5533 55.1025C25.7322 56.1224 23.9354 57.1908 22.0657 58.1135C20.3903 58.939 18.8848 59.886 17.5979 61.2458C17.5251 61.3186 17.6465 61.4643 17.7193 61.3672C19.0548 59.9589 20.6331 59.0362 22.3571 58.162C24.1539 57.2636 25.8779 56.2195 27.6505 55.2482C27.7476 55.1997 27.6505 55.054 27.5533 55.1025Z" fill="#2B0303"/>
<path d="M12.4989 39.7323C15.8012 41.4806 17.2823 45.05 18.6421 48.3037C19.9533 51.4846 21.2645 54.6897 23.2556 57.5064C23.3284 57.6035 23.4741 57.5064 23.4013 57.4093C21.2402 54.3741 19.9047 50.8775 18.4721 47.4538C17.1852 44.3944 15.6312 41.1892 12.5717 39.5623C12.4989 39.5138 12.4017 39.6838 12.4989 39.7323Z" fill="#2B0303"/>
<path d="M7.71549 56.4135C9.4152 60.5899 11.8434 64.4021 15.1456 67.4859C16.6025 68.8457 18.3751 70.1812 20.4147 70.424C21.3374 70.5454 22.2844 70.3026 23.1828 70.0598C23.9356 69.8655 24.664 69.5984 25.3682 69.2342C26.3394 68.7243 27.2864 68.1415 28.1848 67.5102C28.8647 67.0246 29.5689 66.4904 30.0302 65.7862C30.1031 65.6891 29.9331 65.5919 29.8845 65.6891C28.9618 67.0246 27.2864 67.9715 25.9024 68.7485C24.4455 69.5498 22.7458 70.1812 21.0703 70.254C18.9821 70.3511 16.9668 68.8942 15.5099 67.5587C13.9559 66.1261 12.5475 64.5236 11.3334 62.7753C9.9494 60.7842 8.83245 58.6231 7.90975 56.365C7.86118 56.2678 7.69121 56.3164 7.71549 56.4135Z" fill="#2B0303"/>
<path d="M21.3132 57.8217C19.4678 58.1374 17.7438 58.8172 16.2141 59.8614C16.1169 59.9342 16.2141 60.0799 16.3112 60.007C17.8409 58.9629 19.5406 58.2831 21.3617 57.9917C21.4832 57.9674 21.4346 57.7974 21.3132 57.8217Z" fill="#2B0303"/>
<path d="M10.8722 17.8059C10.7265 20.9139 11.2364 23.9977 12.3777 26.9115C12.4262 27.0086 12.5962 26.9843 12.5476 26.8629C11.4307 23.9734 10.9208 20.9139 11.0422 17.8059C11.0665 17.6845 10.8965 17.6845 10.8722 17.8059Z" fill="#631F1F"/>
<path d="M19.3219 33.7346C19.9775 36.2356 20.0747 38.8337 19.589 41.3833C19.5648 41.5047 19.7347 41.5533 19.759 41.4319C20.2689 38.858 20.1718 36.2113 19.4919 33.686C19.4676 33.5646 19.2977 33.6132 19.3219 33.7346Z" fill="#631F1F"/>
<path d="M19.565 10.2544C18.958 11.8084 18.6666 13.4353 18.6909 15.0864C18.6909 15.2078 18.8851 15.2078 18.8851 15.0864C18.8608 13.4353 19.1522 11.8327 19.7592 10.303C19.7835 10.1816 19.6136 10.133 19.565 10.2544Z" fill="#631F1F"/>
<path d="M27.8206 72.682C22.163 73.7261 16.3355 73.6047 10.7021 72.3664C10.5807 72.3421 10.5322 72.5121 10.6536 72.5363C16.3112 73.799 22.163 73.8961 27.8692 72.852C27.9906 72.8277 27.942 72.6578 27.8206 72.682Z" fill="#2B0303"/>
<path d="M25.4653 42.6946C27.2378 46.4583 28.7918 50.3919 28.5248 54.6169C28.5248 54.7383 28.6947 54.7383 28.719 54.6169C28.9861 50.3676 27.4321 46.3854 25.6352 42.5975C25.5624 42.5004 25.4167 42.5732 25.4653 42.6946Z" fill="#2B0303"/>
<path d="M30.443 50.1245C29.9331 50.8772 29.496 51.6785 29.1804 52.5283C29.1318 52.6497 29.3261 52.674 29.3503 52.5769C29.666 51.727 30.1031 50.95 30.613 50.2216C30.6615 50.1245 30.5159 50.0273 30.443 50.1245Z" fill="#2B0303"/>
<path d="M32.4097 60.2987C32.6283 60.6144 32.8468 60.9786 32.7739 61.3914C32.7254 61.7071 32.5311 62.047 32.3854 62.3141C32.1183 62.8726 31.7784 63.3825 31.3899 63.8681C31.317 63.9652 31.4385 64.0867 31.5113 63.9895C31.9969 63.3825 32.4097 62.7269 32.7254 62.0227C32.8225 61.7799 33.0168 61.44 32.9925 61.1729C32.9925 60.8572 32.7254 60.4201 32.5554 60.2016C32.4826 60.1045 32.3369 60.2016 32.4097 60.2987Z" fill="#2B0303"/>
<path d="M10.1681 22.6134C10.4595 25.2601 10.3624 27.931 9.85246 30.5292C9.82818 30.6506 9.99815 30.6991 10.0224 30.5777C10.5323 27.9553 10.6295 25.2601 10.3381 22.6134C10.3381 22.5162 10.1438 22.5162 10.1681 22.6134Z" fill="#631F1F"/>
<path d="M20.0993 26.2075C21.2405 29.267 22.1147 32.4236 22.746 35.653C22.7703 35.7744 22.9402 35.7259 22.916 35.6045C22.3089 32.375 21.4105 29.2184 20.2693 26.1589C20.245 26.0375 20.075 26.0861 20.0993 26.2075Z" fill="#631F1F"/>
<path d="M87.5532 25.1874C85.8778 23.0991 85.1494 20.5496 84.6152 17.9757C84.0567 15.1834 83.6682 12.3424 83.4497 9.50148C83.4254 9.28295 83.2068 9.2101 83.0611 9.28295C82.1385 8.2874 80.5116 9.18582 79.686 10.1328C77.962 12.051 76.8208 14.4549 76.2623 16.9802C76.238 17.1259 75.9709 17.5387 76.0681 17.563C76.6023 19.5783 77.6464 23.7548 77.9377 26.1101C78.1806 28.2711 75.4853 29.8251 74.7083 32.0833C74.6112 32.399 80.1231 35.1428 82.527 31.5734C83.6682 29.8494 86.9705 27.8098 87.4561 25.673C87.5775 25.5759 87.6989 25.3573 87.5532 25.1874Z" fill="#964939"/>
<path d="M67.108 86.3043C67.1323 86.3528 67.1809 86.3771 67.2294 86.4257C67.4722 86.6199 67.7879 86.6199 68.1036 86.6442C75.5823 86.8142 83.0853 87.0084 90.564 87.1784C91.0496 87.1784 91.5595 87.1784 91.948 86.9113C92.5065 86.4985 92.5794 85.6972 92.5794 84.9931C92.6765 78.8498 92.7493 72.6337 91.4138 66.6362C90.8796 64.2566 90.0298 61.7556 88.0144 60.3716C85.5863 58.6961 82.3083 59.1818 79.4188 59.7402C76.9663 60.2016 74.5382 60.6872 72.0857 61.1486C71.333 61.2943 70.556 61.4642 70.0218 61.9984C69.5119 62.5326 69.3419 63.2853 69.2205 64.0138C67.9336 70.8612 66.3067 78.437 66.8652 85.4544C66.8895 85.7215 66.938 86.0614 67.108 86.3043Z" fill="#FFC04F"/>
<path d="M85.0521 6.58793C84.0809 2.80001 79.1031 0.978893 75.6794 2.38722C75.6309 2.4115 75.6066 2.4115 75.5823 2.43579C72.4014 3.62558 70.5075 6.3694 70.4832 9.81738C70.4832 10.5458 70.4589 11.2257 70.3618 11.9056C70.2647 12.4641 70.119 12.9983 69.8519 13.5567C69.5848 14.0909 69.172 14.698 69.4877 15.305C69.6333 15.5721 69.9004 15.6935 70.1918 15.7906C70.3375 15.8392 70.8717 15.8635 70.8717 16.0335C70.896 16.2034 70.896 16.3977 70.9203 16.5919C70.9688 17.0047 71.0174 17.4418 71.066 17.8788C71.3816 19.8942 72.1101 22.0067 74.1983 22.0553C77.1121 22.1038 79.4188 20.2584 81.1185 18.2431C81.2399 18.1217 81.2642 17.976 81.2399 17.8303C81.5799 17.2961 81.8712 16.7133 82.0655 16.1063C84.6636 13.8724 85.8777 9.89022 85.0521 6.58793Z" fill="#964939"/>
<path d="M73.47 11.7597C73.4457 11.444 73.3728 10.9098 73.0329 10.6913C72.7172 10.4971 72.3287 10.5942 72.2316 10.9584C72.1102 11.4198 72.3044 12.7795 73.0329 12.561C73.3728 12.4639 73.4942 12.0268 73.47 11.7597Z" fill="#170301"/>
<path d="M72.5955 65.5191C75.1451 65.6891 77.6703 65.9319 80.2199 65.9805C82.8423 66.029 85.5861 66.0533 88.16 65.5191C88.8641 65.3734 89.544 65.2035 90.2239 65.0335C90.8067 60.3714 91.1223 47.1623 91.3651 44.3456C91.9479 37.7167 91.3651 29.291 87.8686 24.6047C87.7229 24.4105 87.5529 24.4105 87.3587 24.4833C85.6832 25.0903 82.0653 27.6885 81.3126 28.2955C80.4142 28.7811 77.2818 30.3352 76.1649 29.4367C76.092 29.3639 72.9597 33.6374 71.5271 38.688C69.9974 44.0785 68.1277 57.312 67.8606 65.0578C69.3661 65.422 71.0172 65.422 72.5955 65.5191Z" fill="#FAE1D2"/>
<path d="M73.6153 7.99631C72.6926 7.63209 71.5756 7.68065 71.1871 8.57907C70.8957 9.25895 71.1385 10.036 71.7456 10.1331C72.2798 10.2302 72.8868 10.0117 73.421 10.0602C73.8095 10.0845 74.368 10.2545 74.6836 9.81743C75.2178 9.11326 74.538 8.36053 73.6153 7.99631Z" fill="#4D140F"/>
<path d="M70.4833 15.4263C70.7747 15.3534 71.0418 15.3777 71.3089 15.4748C71.4546 15.5234 71.5274 15.3049 71.3817 15.232C71.0661 15.1106 70.7504 15.0863 70.4348 15.1835C70.2648 15.232 70.3376 15.4506 70.4833 15.4263Z" fill="#71311F"/>
<path d="M86.0964 11.6382C85.9993 10.837 85.3922 10.2785 84.7609 9.81713C83.0127 8.53021 80.7545 7.70463 78.6905 8.62733C78.6663 8.45736 78.3992 8.50593 78.4477 8.6759C78.4477 8.70018 78.4477 8.72446 78.4477 8.72446C78.3506 8.7973 78.3992 8.91871 78.4963 8.94299C78.5934 9.50147 78.6663 10.0357 78.6905 10.6184C78.7148 10.9826 78.6905 11.3954 78.8605 11.7354C79.0062 12.0268 79.2247 12.1724 79.5161 12.2696C80.196 12.4881 80.7059 12.6095 81.0944 13.3137C81.6043 14.2607 81.58 15.4262 81.9928 16.3974C82.3328 17.1987 82.8427 17.9514 83.5226 18.5099C83.8139 18.7285 84.6638 19.4326 84.9552 18.8741C85.028 18.7285 85.0037 18.4614 85.0037 18.2914C85.028 17.9514 85.0523 17.6115 85.1009 17.2716C85.198 16.5188 85.3437 15.7904 85.5137 15.0619C85.7322 13.9693 86.2178 12.7552 86.0964 11.6382Z" fill="#71311F"/>
<path d="M80.5844 17.9759C80.1959 19.3842 78.9819 20.2098 77.7435 20.8654C77.5978 20.9382 77.7192 21.1568 77.8649 21.0839C79.1518 20.4041 80.4145 19.5299 80.8273 18.0487C80.8515 17.9031 80.633 17.8302 80.5844 17.9759Z" fill="#71311F"/>
<path d="M84.3965 3.35849C83.2796 2.5572 82.0655 1.82875 80.7543 1.46453C79.4674 1.1003 78.1076 1.12459 76.7964 1.3674C75.1938 1.68306 73.6884 2.36294 72.2558 3.16424C71.2117 3.74699 70.0219 4.42688 69.6819 5.66523C69.0992 6.70934 68.8806 7.85057 70.0461 8.70043C71.3331 9.62313 72.45 8.96753 73.4213 7.97198C73.4456 7.9477 73.4456 7.92342 73.4698 7.92342C74.2954 7.34066 75.4124 7.19497 76.1894 7.99626C76.675 8.53046 76.8935 9.21034 77.4763 9.67169C77.8891 10.0116 78.399 10.1573 78.9089 10.133C79.3217 10.133 80.0016 9.76882 80.3901 9.89022C80.6329 9.96307 80.7786 10.2059 80.9486 10.3759C81.1671 10.5701 81.4585 10.7401 81.7013 10.91C83.061 11.857 84.7365 13.1925 86.4605 12.4641C87.4074 12.0513 88.1602 11.0557 88.3059 10.0116C88.4758 8.84612 87.8688 7.51063 87.286 6.53937C86.5333 5.32529 85.562 4.18406 84.3965 3.35849Z" fill="#4D140F"/>
<path d="M81.8713 10.7884C80.8272 9.9143 79.8316 10.8127 79.4431 11.8568C79.2974 12.2939 79.176 12.7552 79.1032 13.1923C79.0546 13.5322 79.0061 14.0179 79.2246 14.3093C79.953 15.232 81.3128 14.4064 81.7742 13.6779C82.2355 12.9252 82.6969 11.4926 81.8713 10.7884Z" fill="#964939"/>
<path d="M80.8757 11.177C80.2687 11.7354 79.8802 12.4396 79.7588 13.2652C79.7345 13.4109 79.9773 13.4837 80.0016 13.338C80.123 12.561 80.4872 11.8811 81.07 11.3712C81.1671 11.2498 80.9971 11.0798 80.8757 11.177Z" fill="#71311F"/>
<path d="M73.0329 16.0577C72.96 15.912 72.9115 15.9849 72.7658 16.082C72.2073 16.4219 71.5274 16.5676 70.8718 16.6405C70.9204 17.0533 70.969 17.4903 71.0175 17.9274C71.5031 17.9274 72.1102 17.5632 72.4744 17.2232C72.6687 17.029 72.8872 16.8347 73.0086 16.5676C73.0572 16.4462 73.0814 16.2277 73.0329 16.1306C73.0572 16.082 73.0572 16.0577 73.0329 16.0577Z" fill="#662310"/>
<path d="M74.5138 1.61003C75.048 1.61003 75.5579 1.75572 75.995 2.07138C76.4806 2.41132 76.6991 2.84839 77.1119 3.26117C77.4762 3.6254 77.7918 3.11548 78.1318 2.87267C79.9771 1.5129 82.4782 1.70715 83.7894 3.69824C83.8622 3.79537 84.0079 3.69824 83.935 3.60111C82.8667 1.99853 80.827 1.31865 79.0302 2.09566C78.5931 2.28991 78.2046 2.55701 77.8404 2.84839C77.6461 2.99407 77.4033 3.26117 77.1848 3.11548C77.0391 3.01836 76.8934 2.7027 76.772 2.58129C76.165 1.92569 75.3879 1.46434 74.4652 1.46434C74.3924 1.41577 74.3924 1.61003 74.5138 1.61003Z" fill="#2B0303"/>
<path d="M86.8977 7.43769C86.9462 5.98079 85.4893 5.37375 84.251 5.42232C83.5954 5.4466 82.8912 5.59229 82.3813 6.00507C82.0899 6.22361 81.8957 6.53927 81.6286 6.78208C81.4343 6.95206 81.3858 7.0249 81.1672 6.85493C81.0458 6.78208 80.973 6.61211 80.8758 6.49071C80.1231 5.42232 78.909 4.62103 77.5736 4.57246C76.2866 4.5239 75.0726 5.30091 74.7812 6.56355C74.7569 6.68496 74.9269 6.73352 74.9511 6.61211C75.3397 5.00953 77.0879 4.45106 78.5205 4.93669C79.2247 5.1795 79.9046 5.64085 80.3902 6.19933C80.633 6.46642 80.803 6.85493 81.0944 7.07346C81.2401 7.17059 81.3129 7.21915 81.4829 7.17059C81.6771 7.09774 81.8471 6.80637 81.9685 6.66068C82.187 6.44214 82.4056 6.19933 82.6484 6.02936C83.9353 5.22807 86.7763 5.49516 86.7034 7.46197C86.7034 7.55909 86.8734 7.55909 86.8977 7.43769Z" fill="#2B0303"/>
<path d="M63.3201 47.1622C62.4702 46.3124 61.5961 45.4868 60.722 44.6612C60.3092 44.2485 59.8478 43.8842 59.435 43.4472C59.1194 43.1072 58.828 42.743 58.4152 42.5002C57.4925 41.966 56.3513 41.6746 55.3557 41.2861C54.4573 40.9219 53.3646 40.4605 52.3691 40.5577C51.9806 40.5819 51.7135 41.1647 51.8835 41.4804C52.1506 41.9417 52.5876 42.1117 52.9761 42.4031C51.6164 42.2574 50.1595 41.6018 49.2611 40.4363C49.2125 40.3634 49.1639 40.3391 49.0911 40.2906C48.9697 40.1934 48.7997 40.1934 48.6783 40.242C48.5326 40.2906 48.4112 40.3634 48.3141 40.4363C47.9013 39.5621 47.1 40.0477 47.0272 40.0963C46.4201 40.4363 46.3716 40.9704 46.8572 41.8203C46.7601 41.9174 46.6629 42.0388 46.5901 42.1845C46.3958 42.6944 46.7115 43.3258 47.0029 43.8114C47.0757 45.1712 47.9256 46.191 49.0911 46.798C50.378 47.4779 51.8592 47.745 53.2675 47.8907C54.1174 47.9878 55.55 48.0121 56.2541 48.0121C56.497 48.0121 56.7398 48.1092 56.934 48.2549C57.0797 48.3763 57.2497 48.4734 57.3954 48.5949C57.6625 48.8134 57.9296 49.0319 58.1481 49.2747C58.7551 49.9303 59.3379 50.5859 59.9207 51.2415C60.2849 51.6543 63.0044 49.1533 63.3444 47.745C63.3444 47.6964 63.3686 47.6479 63.3686 47.6236C63.49 47.4779 63.4658 47.3079 63.3201 47.1622Z" fill="#964939"/>
<path d="M70.896 4.32956C71.8187 4.59666 72.4986 5.39795 72.6686 6.34493C72.6928 6.46634 72.8628 6.41778 72.8385 6.29637C72.6686 5.27654 71.9401 4.45097 70.9446 4.15959C70.8232 4.13531 70.7746 4.30528 70.896 4.32956Z" fill="#2B0303"/>
<path d="M95.2502 54.5439C95.0074 48.8134 94.4004 41.3833 93.5991 35.7014C92.7007 29.3154 89.4712 23.9977 87.2616 23.4878C86.7274 23.3664 86.1689 23.3907 85.659 23.5849C82.3082 24.799 80.0743 27.4457 78.1075 29.9224C75.9464 32.6419 74.1981 38.4452 73.3726 41.7718C72.4499 45.5112 69.7303 66.5633 69.4875 71.6624C69.4147 73.3135 68.6377 77.15 69.876 78.267C71.6 79.821 88.33 84.8715 93.4534 82.5648C94.109 82.2734 94.4732 81.6178 94.5218 80.9136C94.7646 75.0861 95.4688 59.7401 95.2502 54.5439Z" fill="#59242E"/>
<path d="M89.7869 28.1013C89.3255 26.2073 88.0386 24.1677 85.8047 24.6776C81.2155 25.7217 78.2532 30.408 76.6749 34.463C74.5624 39.9021 73.154 44.5156 70.7744 49.8333C69.1961 50.0518 68.3463 52.2614 67.8364 53.6697C67.4964 54.6167 67.1808 55.588 67.0836 56.6078C66.9622 57.6519 66.768 58.866 67.7635 59.4487C70.9444 61.3184 75.3637 61.7555 78.0346 58.8903C79.4915 57.3363 84.2993 53.1598 89.7626 41.0676C91.2195 37.7653 90.6367 31.525 89.7869 28.1013Z" fill="#59242E"/>
<path d="M72.1831 50.319C68.3952 48.4736 65.2872 46.6282 61.6935 45.147C61.135 44.9042 60.3823 45.4141 59.9695 45.7297C59.4596 46.1182 58.9982 46.5553 58.634 47.0895C57.9056 48.1822 57.4199 50.6832 57.7599 51.1931C58.2698 51.9701 59.6539 53.4756 60.6251 54.374C60.8922 54.6168 61.1593 54.8353 61.4021 55.0781C63.3446 56.875 66.5741 59.1817 68.978 60.0316C69.1722 60.0559 72.3288 50.3675 72.1831 50.319Z" fill="#59242E"/>
<path d="M89.5442 42.9131C87.8202 48.0608 85.4649 53.3784 81.4827 57.1906C79.5402 59.036 77.1364 60.5415 74.4411 60.9057C73.7369 61.0028 73.0085 61.0271 72.3286 60.9057C72.2072 60.8814 72.1586 61.0514 72.28 61.0757C73.9312 61.3671 75.7037 60.93 77.2092 60.2987C80.6815 58.8175 83.3039 55.8552 85.2707 52.7471C87.1889 49.7119 88.5972 46.3611 89.7385 42.9374C89.7628 42.8402 89.5685 42.7917 89.5442 42.9131Z" fill="#2B0303"/>
<path d="M78.0104 32.1321C77.2334 33.6133 76.5778 35.1673 76.0436 36.7456C75.4609 38.4696 74.9753 40.2179 74.1983 41.869C74.1497 41.9662 74.2954 42.0633 74.3439 41.9662C75.0724 40.4364 75.5337 38.8096 76.0679 37.2313C76.6264 35.5073 77.3306 33.8561 78.1561 32.2535C78.229 32.1079 78.0833 32.0107 78.0104 32.1321Z" fill="#2B0303"/>
<path d="M50.3054 30.918C50.9367 31.695 51.4709 32.5206 51.908 33.419C51.9808 33.5647 52.175 33.4433 52.1265 33.2976C51.6894 32.3749 51.1309 31.5251 50.4753 30.7481C50.3782 30.6267 50.2082 30.7966 50.3054 30.918Z" fill="#71311F"/>
<path d="M52.539 31.185C52.709 31.4035 52.8304 31.6463 52.9518 31.9134C53.0246 32.0591 53.2189 31.9377 53.1703 31.792C53.0489 31.5249 52.9275 31.3064 52.7575 31.0636C52.6604 30.9179 52.4419 31.0393 52.539 31.185Z" fill="#71311F"/>
<path d="M55.4288 22.8565C55.2832 21.521 54.3362 20.3312 52.8064 20.4041C51.0824 20.5012 50.0141 21.1811 49.1642 22.4437C49.1156 22.4923 49.0428 22.5166 48.9942 22.4437C48.2172 21.3268 47.4159 20.5012 45.959 20.4769C44.5507 20.4526 43.1667 21.7153 43.0695 22.9779C42.9481 24.8719 44.0165 26.8144 46.7118 29.6068C47.3674 30.2866 48.3629 31.2093 49.5284 31.1608C50.7911 31.1122 51.9323 29.6553 52.6607 28.7812C53.7777 27.4457 54.8461 25.8188 55.3317 24.1434C55.4531 23.7306 55.4774 23.2693 55.4288 22.8565Z" fill="#F095A6"/>
<path d="M61.3777 45.1711C62.9803 45.2925 64.0486 46.2881 65.3841 47.0651C66.2097 47.5507 67.0838 47.9878 67.958 48.4006C70.1919 49.4932 72.4501 50.5373 74.6597 51.6786C75.4853 52.0914 76.3594 52.5041 77.1121 53.0626C77.2093 53.1355 77.3064 52.9655 77.2093 52.9169C76.5536 52.4313 75.8009 52.0671 75.0968 51.6786C73.9798 51.0958 72.8386 50.5373 71.6973 50.0031C69.6334 49.0076 67.5209 48.0849 65.5298 46.9194C64.1701 46.1181 63.0531 45.1226 61.402 45.0011C61.2806 44.9769 61.2806 45.1468 61.3777 45.1711Z" fill="#2B0303"/>
<path d="M58.5852 53.7185C58.7552 53.9613 58.9494 54.1799 59.1437 54.3741C59.605 54.8355 60.1635 55.224 60.722 55.5882C62.6159 56.8265 64.6313 57.8464 66.6467 58.8662L58.5852 53.7185Z" fill="#59242E"/>
<path d="M57.7598 49.372C57.517 50.6832 58.0026 51.5817 58.7554 52.6258C59.5324 53.6699 60.4308 54.6411 61.4263 55.5153C63.3931 57.2393 65.6999 58.5505 68.0066 59.7645C68.1037 59.8131 68.2009 59.6674 68.1037 59.6188C65.967 58.5019 63.8545 57.2878 61.9848 55.7581C61.0864 55.0054 60.2608 54.2041 59.5081 53.3056C58.5611 52.1644 57.6384 50.9989 57.9298 49.4449C57.9541 49.2992 57.7841 49.2506 57.7598 49.372Z" fill="#2B0303"/>
<path d="M66.9868 46.9924C66.9139 47.2595 66.9139 47.5023 66.8896 47.7694C66.8896 47.8908 67.0596 47.8908 67.0839 47.7694C67.1082 47.5266 67.1082 47.2838 67.181 47.041C67.181 46.9438 67.0111 46.8953 66.9868 46.9924Z" fill="#2B0303"/>
<path d="M72.6444 50.1977C74.5383 50.222 76.3837 50.5862 78.132 51.2661C78.2534 51.3147 78.2777 51.1204 78.1806 51.0961C76.408 50.4163 74.5383 50.052 72.6444 50.0278C72.5473 50.0035 72.5473 50.1734 72.6444 50.1977Z" fill="#2B0303"/>
<path d="M48.46 41.2862C48.8728 42.9373 50.354 43.8357 51.8594 44.3699C52.0051 44.4185 52.0779 44.1757 51.9323 44.1271C50.4996 43.6415 49.0913 42.7916 48.7028 41.2133C48.6543 41.0919 48.4114 41.1405 48.46 41.2862Z" fill="#71311F"/>
<path d="M5.4331 40.8491C4.8989 43.8114 2.20365 46.9437 3.87908 50.0032C3.92764 50.1003 4.09761 50.0032 4.02477 49.9061C2.3979 46.9195 5.06887 43.7871 5.60307 40.8733C5.62735 40.8005 5.45738 40.7519 5.4331 40.8491Z" fill="#631F1F"/>
<path d="M50.8151 45.1227C50.7423 45.0741 50.9365 44.6614 50.9365 44.54C50.9365 44.3214 50.8637 44.1757 50.6937 44.0058C50.2081 43.5687 49.5039 44.0543 49.2368 44.4428C49.164 44.54 49.1154 44.6128 49.0426 44.6856C49.0183 44.7099 48.9697 44.7342 48.9212 44.7342C48.7755 44.7342 48.3627 44.7585 48.3141 44.7585C48.047 44.8313 47.8042 44.9527 47.5857 45.0984C47.0758 45.4384 46.5173 46.0211 46.0316 46.3853C45.0361 47.1138 44.2834 47.5509 43.045 47.478C42.8993 47.478 42.7536 47.478 42.6079 47.478C42.6808 47.4295 42.7536 47.4052 42.8508 47.3566C43.3607 47.0895 44.0406 46.7496 44.3077 46.1911C44.8176 45.1956 43.6763 44.9042 42.9236 45.0984C41.9766 45.3412 41.1268 45.8997 40.2284 46.2639C39.2814 46.6524 38.2858 46.8224 37.3146 47.1381C35.5177 47.7208 33.5752 50.5618 31.8512 52.1886C31.487 52.5286 36.5618 54.8839 36.6833 54.7868C37.3389 54.204 38.2858 53.1599 39.0143 52.6743C39.8641 52.0915 40.9325 52.1644 41.9038 52.1401C43.4578 52.0915 45.3518 52.2129 46.7601 51.4602C48.0227 50.8046 48.8969 49.9305 49.7467 48.8378C50.378 48.0122 51.4707 45.6812 50.8151 45.1227Z" fill="#EB8B65"/>
<path d="M48.9697 45.1711C48.0713 47.0893 46.3473 48.8376 44.1377 49.0319C44.0163 49.0319 44.0163 49.2261 44.1377 49.2261C46.3959 49.0319 48.1927 47.2593 49.1154 45.2682C49.164 45.1711 49.0183 45.074 48.9697 45.1711Z" fill="#C45547"/>
<path d="M42.3895 47.3568C41.9282 47.3325 41.4668 47.3325 41.0298 47.381C40.9084 47.4053 40.9084 47.5753 41.0298 47.5753C41.4911 47.5267 41.9282 47.5025 42.3895 47.551C42.4867 47.551 42.4867 47.3811 42.3895 47.3568Z" fill="#C45547"/>
<path d="M50.5964 45.5109C50.1836 46.5065 49.6009 47.4535 48.9453 48.3033C48.1683 49.2989 47.1727 49.8331 45.9829 50.1487C45.8615 50.173 45.9101 50.343 46.0315 50.3187C47.1727 50.0273 48.1683 49.5174 48.9453 48.619C49.698 47.7206 50.3293 46.6764 50.7907 45.6081C50.7907 45.5109 50.645 45.4138 50.5964 45.5109Z" fill="#C45547"/>
<path d="M39.6214 46.5798C39.3543 46.6283 39.0872 46.7012 38.8201 46.774C38.6987 46.8226 38.7472 46.9925 38.8686 46.944C39.1357 46.8469 39.4028 46.774 39.6699 46.7497C39.7913 46.7255 39.7428 46.5555 39.6214 46.5798Z" fill="#C45547"/>
<path d="M78.3264 62.2655C80.2447 64.4751 82.7457 66.102 85.538 66.9518C85.6594 66.9761 85.708 66.8062 85.5866 66.7819C82.8185 65.932 80.3418 64.3294 78.4478 62.1441C78.3993 62.047 78.2536 62.1684 78.3264 62.2655Z" fill="#2B0303"/>
</svg>
