<svg width="98" height="100" viewBox="0 0 98 100" fill="none" xmlns="http://www.w3.org/2000/svg">
<mask id="mask0_385_13542" style="mask-type:alpha" maskUnits="userSpaceOnUse" x="0" y="0" width="98" height="100">
<rect width="98" height="100" fill="#D9D9D9"/>
</mask>
<g mask="url(#mask0_385_13542)">
<path d="M45.41 8.97V87.42C45.41 88.5 44.53 89.39 43.45 89.39H6.97C5.89 89.39 5 88.5 5 87.42V8.97C5 7.89 5.89 7 6.97 7H43.45C44.53 7 45.41 7.89 45.41 8.97Z" fill="#A4E1E3"/>
<path d="M71.48 31.5799C71.48 31.5799 72.94 30.6299 71.96 28.1899C70.97 25.7499 70.51 26.7999 68.86 26.2199C67.12 25.6099 68.02 23.6399 66.95 23.3799C65.72 23.0799 67.04 22.2999 66.86 20.6199C66.69 18.9399 66.73 15.6799 68.75 15.1599C71.27 14.5199 76.85 12.2399 77.82 31.4899L71.48 31.5799Z" fill="#F6DAC6"/>
<path d="M75.76 58.7599C75.76 58.7599 70.85 58.3099 74.06 73.2099C77.4 88.7199 74.75 92.3999 76.57 104.09C78.24 114.8 76.57 121.99 80.89 122.08C85.21 122.16 89.85 123.34 89.85 122.37C89.85 121.4 82.91 120.68 82.56 118.38C81.19 109.33 84.79 105.08 84.39 95.3999C84.06 87.3699 89.25 72.3699 86.85 64.7799C84.78 58.2299 84.9 56.9799 75.75 58.7699L75.76 58.7599Z" fill="#F6DAC6"/>
<path d="M66.18 52.72C66.81 48.19 64.52 36.5 67.28 30.39C71.8 29.59 76.43 29.59 80.95 30.39C83.7 36.5 82.37 48.16 82.05 52.72C81.73 57.28 84.93 59.58 84.93 59.58H63.3C63.3 59.58 65.55 57.25 66.18 52.72Z" fill="#F6DAC6"/>
<path d="M72.41 58.7599C72.41 58.7599 78.34 58.5699 74.11 73.2099C68.5 92.6199 72.33 91.9199 69.02 103.29C65.03 116.99 66.79 122 62.47 122.08C58.15 122.16 53.51 123.34 53.51 122.37C53.51 121.4 60.45 120.68 60.8 118.38C62.17 109.33 61.21 105.34 61.53 95.6499C62.04 80.4699 58.91 72.3699 61.31 64.7799C63.37 58.2299 63.26 56.9799 72.41 58.7699V58.7599Z" fill="#F6DAC6"/>
<path d="M63.32 59.5801H84.9C87.86 64.2801 87.49 69.6001 87.49 69.6001L74.11 73.2001L60.36 69.5501C60.36 69.5501 60.36 64.2801 63.32 59.5801Z" fill="#E47F80"/>
<path d="M80.95 30.39L79.81 30.21C79.28 32.3 78.56 37.87 74.12 38.15C70.25 37.91 69.05 32.44 68.32 30.23L67.29 30.4C63.4 34.7 65.74 48.49 65.74 48.49H82.52C82.52 48.49 84.85 34.7 80.97 30.4L80.95 30.39Z" fill="#E47F80"/>
<path d="M80.95 30.3896C80.95 30.3896 91.16 33.6696 91.96 50.3196C92.5 61.4196 79.06 45.8397 77.74 45.1996C76.42 44.5596 76.01 45.3897 74.56 45.3997C73.88 45.3997 73.81 45.0596 75.02 44.6396C75.89 44.3396 76.97 43.4996 76.68 42.4396C76.48 41.7196 75.44 41.6596 74.48 42.6196C73.48 43.6196 74 41.5197 74.96 40.8997C75.45 40.5797 76.56 40.0696 78.08 41.7896C80.66 44.6996 84.89 46.3996 86.13 46.7596C86.13 46.7596 80.45 38.7296 80.94 30.3896H80.95Z" fill="#F6DAC6"/>
<path d="M67.27 30.3896C67.27 30.3896 57.06 33.6696 56.26 50.3196C55.72 61.4196 69.16 45.8397 70.48 45.1996C71.8 44.5596 72.21 45.3897 73.66 45.3997C74.34 45.3997 74.41 45.0596 73.2 44.6396C72.33 44.3396 71.25 43.4996 71.54 42.4396C71.74 41.7196 72.78 41.6596 73.74 42.6196C74.74 43.6196 74.22 41.5197 73.26 40.8997C72.77 40.5797 71.66 40.0696 70.14 41.7896C67.56 44.6996 63.33 46.3996 62.09 46.7596C62.09 46.7596 67.77 38.7296 67.28 30.3896H67.27Z" fill="#F6DAC6"/>
<path d="M68.82 14.6798C67.55 15.1198 67.08 16.6698 67.82 17.7898C68.56 18.9098 69.78 20.2898 71.55 20.9298C74.83 22.1298 70.92 23.5998 71.98 27.2398C73.04 30.8798 80.97 31.0098 80.75 27.4198C80.61 25.1498 78.75 25.1698 78.03 23.7198C77.07 21.7998 77.54 19.9498 76.61 16.9298C75.49 13.2598 71.42 13.7598 68.82 14.6698V14.6798Z" fill="#27284E"/>
<path d="M27.4499 31.5799C27.4499 31.5799 25.9899 30.6299 26.9699 28.1899C27.9599 25.7499 28.4199 26.7999 30.0699 26.2199C31.8099 25.6099 30.9099 23.6399 31.9799 23.3799C33.2099 23.0799 31.8899 22.2999 32.0699 20.6199C32.2399 18.9399 32.1999 15.6799 30.1799 15.1599C27.6599 14.5199 22.0799 12.2399 21.1099 31.4899L27.4499 31.5799Z" fill="#F6DAC6"/>
<path d="M24.8599 73.19C24.8599 73.19 24.8599 73.25 24.8399 73.28C23.2799 80.59 23.0399 85.26 23.0399 89.39H14.1099C13.9499 88.23 13.7599 87.02 13.5499 85.79C13.0399 82.77 12.4399 79.59 12.0099 76.53C11.9499 76.06 11.8899 75.6 11.8299 75.15C11.7799 74.7 11.7199 74.26 11.6799 73.83C11.6599 73.72 11.6499 73.61 11.6399 73.5C11.5099 72.19 11.4399 70.93 11.4399 69.73C11.4399 69.39 11.4399 69.03 11.4599 68.67C11.4899 68.22 11.5199 67.76 11.5699 67.3L11.5999 67.03C11.6999 66.22 11.8499 65.46 12.0699 64.76C12.7199 62.71 13.1599 61.17 13.7299 60.1C13.7699 60.01 13.8299 59.93 13.8799 59.84C13.8799 59.83 13.8799 59.83 13.8799 59.82C13.9299 59.74 13.9699 59.66 14.0199 59.58V59.57C14.0199 59.55 14.0199 59.54 14.0499 59.53C14.1199 59.43 14.1899 59.35 14.2599 59.26C14.3299 59.16 14.4099 59.08 14.4799 59.01C14.5599 58.93 14.6399 58.86 14.7199 58.8C14.7899 58.73 14.8699 58.67 14.9499 58.62C14.9499 58.62 14.9899 58.59 15.0099 58.58C16.0099 57.96 17.4799 57.87 19.9199 58.21C20.8399 58.33 21.8999 58.52 23.1299 58.76C23.1299 58.76 23.9299 58.68 24.6799 59.58C24.6799 59.58 24.6799 59.59 24.6799 59.6C25.7699 60.92 26.7199 64.36 24.8099 73.19H24.8599Z" fill="#F6DAC6"/>
<path d="M32.7599 52.72C33.0799 48.16 34.4199 36.5 31.6599 30.39C27.1399 29.59 22.5099 29.59 17.9899 30.39C15.2399 36.5 16.5699 48.16 16.8899 52.72C17.2099 57.28 14.0099 59.58 14.0099 59.58H35.6399C35.6399 59.58 32.4399 57.28 32.7599 52.72Z" fill="#F6DAC6"/>
<path d="M37.3699 89.39H28.1199C27.8599 85.97 27.1699 81.39 24.8399 73.29C24.8399 73.26 24.8299 73.24 24.8199 73.21C22.2699 64.36 23.4099 60.93 24.7299 59.61C24.7399 59.6 24.7499 59.6 24.7499 59.59C25.5999 58.74 26.5199 58.77 26.5199 58.77C30.9399 57.9 33.1999 57.75 34.5899 58.56C35.3599 59.01 35.8599 59.75 36.2999 60.83C36.7299 61.84 37.1099 63.14 37.6199 64.77C37.7599 65.19 37.8699 65.6 37.9499 66.02C39.4099 72.15 37.6599 78.83 37.3699 89.4V89.39Z" fill="#F6DAC6"/>
<path d="M35.6099 59.5798H14.0299C11.0699 64.2798 11.4399 69.5998 11.4399 69.5998L24.8199 73.1998L38.5799 69.4898C38.5799 69.4898 38.5799 64.2698 35.6099 59.5698V59.5798Z" fill="#E47F80"/>
<path d="M31.6599 30.39L30.7199 30.25C30.0799 32.44 28.9599 37.88 24.8199 38.14C20.4699 37.87 19.3899 32.38 18.8199 30.25L17.9799 30.39C14.0899 34.69 16.4299 48.48 16.4299 48.48H33.2099C33.2099 48.48 35.5399 34.69 31.6599 30.39Z" fill="#E47F80"/>
<path d="M17.9899 30.3901C17.9899 30.3901 7.76994 33.6701 6.96994 50.3201C6.42994 61.4201 19.8699 45.8401 21.1899 45.2001C22.5099 44.5601 22.9199 45.3901 24.3699 45.4001C25.0499 45.4001 25.1199 45.0601 23.9099 44.6401C23.0399 44.3401 21.9599 43.5001 22.2499 42.4401C22.4499 41.7201 23.4899 41.6601 24.4499 42.6201C25.4499 43.6201 24.9299 41.5201 23.9699 40.9001C23.4799 40.5801 22.3699 40.0701 20.8499 41.7901C18.2699 44.7001 14.0399 46.4001 12.7999 46.7601C12.7999 46.7601 18.4799 38.7301 17.9899 30.3901Z" fill="#F6DAC6"/>
<path d="M31.66 30.3901C31.66 30.3901 41.87 33.6701 42.67 50.3201C43.21 61.4201 29.77 45.8401 28.45 45.2001C27.13 44.5601 26.72 45.3901 25.27 45.4001C24.59 45.4001 24.52 45.0601 25.73 44.6401C26.6 44.3401 27.68 43.5001 27.39 42.4401C27.19 41.7201 26.15 41.6601 25.19 42.6201C24.23 43.5801 24.71 41.5201 25.67 40.9001C26.16 40.5801 27.27 40.0701 28.79 41.7901C31.37 44.7001 35.6 46.4001 36.84 46.7601C36.84 46.7601 31.16 38.7301 31.65 30.3901H31.66Z" fill="#F6DAC6"/>
<path d="M30.1199 14.68C31.3899 15.12 31.8599 16.67 31.1199 17.79C30.3799 18.91 29.1599 20.29 27.3899 20.93C24.1099 22.13 28.0199 23.6 26.9599 27.24C25.8999 30.88 17.9699 31.01 18.1899 27.42C18.3299 25.15 20.1899 25.17 20.9099 23.72C21.8699 21.8 21.0699 19.76 22.1899 16.81C23.4799 13.39 27.5199 13.76 30.1199 14.67V14.68Z" fill="#27284E"/>
<path d="M30.9999 21.1999C30.9999 21.4899 30.8299 21.7299 30.6299 21.7299C30.4299 21.7299 30.2599 21.4899 30.2599 21.1999C30.2599 20.9099 30.4299 20.6699 30.6299 20.6699C30.8299 20.6699 30.9999 20.9099 30.9999 21.1999Z" fill="#27284E"/>
<path d="M68.53 21.1999C68.53 21.4899 68.36 21.7299 68.16 21.7299C67.96 21.7299 67.79 21.4899 67.79 21.1999C67.79 20.9099 67.96 20.6699 68.16 20.6699C68.36 20.6699 68.53 20.9099 68.53 21.1999Z" fill="#27284E"/>
<path d="M67.79 24.5C67.66 24.5 67.55 24.4 67.54 24.26C67.54 24.12 67.64 24.01 67.78 24C67.78 24 68.23 23.97 68.29 23.7C68.32 23.56 68.45 23.47 68.59 23.51C68.72 23.54 68.81 23.67 68.78 23.81C68.67 24.33 68.12 24.49 67.81 24.51C67.81 24.51 67.81 24.51 67.8 24.51L67.79 24.5Z" fill="#E69596"/>
<path d="M31.1101 24.4999C31.1101 24.4999 31.1101 24.4999 31.1001 24.4999C30.7901 24.4799 30.2401 24.3199 30.1301 23.7999C30.1001 23.6699 30.1901 23.5299 30.3201 23.4999C30.4601 23.4699 30.5901 23.5599 30.6201 23.6899C30.6801 23.9599 31.1201 23.9899 31.1301 23.9899C31.2701 23.9899 31.3801 24.1099 31.3701 24.2499C31.3701 24.3799 31.2501 24.4899 31.1201 24.4899L31.1101 24.4999Z" fill="#E69596"/>
<path d="M30.2101 20.3898C30.5201 20.1598 30.4601 19.9998 31.0301 19.8898C31.7401 19.7498 31.0001 19.1698 30.3301 19.6198C29.7201 20.0398 29.9101 20.6098 30.2001 20.3898H30.2101Z" fill="#27284E"/>
<path d="M68.46 20.3898C68.15 20.1598 68.21 19.9998 67.64 19.8898C66.93 19.7498 67.67 19.1698 68.34 19.6198C68.95 20.0398 68.76 20.6098 68.47 20.3898H68.46Z" fill="#27284E"/>
<mask id="mask1_385_13542" style="mask-type:alpha" maskUnits="userSpaceOnUse" x="5" y="7" width="41" height="83">
<path d="M45.41 8.97V87.42C45.41 88.5 44.53 89.39 43.45 89.39H6.97C5.89 89.39 5 88.5 5 87.42V8.97C5 7.89 5.89 7 6.97 7H43.45C44.53 7 45.41 7.89 45.41 8.97Z" fill="#65D4D9"/>
</mask>
<g mask="url(#mask1_385_13542)">
<rect x="3" y="80.3091" width="50.0843" height="2" transform="rotate(-30.3535 3 80.3091)" fill="white"/>
<rect x="-6" y="29.3091" width="50.0843" height="2" transform="rotate(-30.3535 -6 29.3091)" fill="white"/>
<rect x="4.20557" y="82.4277" width="50.6135" height="0.722176" transform="rotate(-30.3535 4.20557 82.4277)" fill="white"/>
<rect x="-4.79443" y="31.4277" width="50.6135" height="0.722176" transform="rotate(-30.3535 -4.79443 31.4277)" fill="white"/>
</g>
</g>
</svg>
