<svg width="104" height="100" viewBox="0 0 104 100" fill="none" xmlns="http://www.w3.org/2000/svg">
<mask id="mask0_385_14332" style="mask-type:alpha" maskUnits="userSpaceOnUse" x="0" y="0" width="104" height="100">
<rect width="104" height="100" fill="#D9D9D9"/>
</mask>
<g mask="url(#mask0_385_14332)">
<path d="M59.817 116.127C59.9675 118.921 60.1084 121.716 60.2444 124.51C60.3083 124.503 60.3731 124.5 60.4379 124.5C60.8871 124.5 61.3356 124.506 61.7825 124.533C61.6659 122.13 61.5469 119.728 61.4206 117.326C61.1705 112.581 60.9009 107.836 60.6111 103.094C60.3237 98.3738 60.0169 93.6546 59.6907 88.9371C59.3628 84.1961 59.0163 79.4568 58.6496 74.719C58.3452 70.7805 58.0263 66.8435 57.6952 62.9074C57.1641 62.871 56.6323 62.7739 56.1142 62.6421C56.421 66.2684 56.7181 69.8955 57.0022 73.5235C57.3738 78.2612 57.7251 82.9998 58.0579 87.7408C58.389 92.4583 58.7006 97.1766 58.9929 101.897C59.2867 106.639 59.5611 111.383 59.817 116.128V116.127Z" fill="#F4BF6E"/>
<path d="M71.5114 133.257L50.2023 133.363C44.9809 133.4 41.0798 128.579 42.2082 123.485L65.1833 20.4347C66.0025 16.7348 69.2738 14.0929 73.0664 14.067L94.7438 13.9667C100.014 13.932 104.109 18.8258 102.894 23.9494L79.0237 126.93C78.16 130.573 75.257 133.231 71.5105 133.257H71.5114Z" fill="#F4A46E"/>
<path d="M101.388 24.5097L100.655 27.5981L100.464 28.4029L100.32 29.012L99.6493 31.8359L98.6001 36.2598L98.0926 38.4002L96.3229 45.8574L94.9306 51.7277L94.8051 52.2567L94.5201 53.4627L94.4311 53.8421L92.3118 62.8323L89.3724 75.2991L83.5203 100.118L80.5211 112.836L78.5313 121.276L77.5606 125.392C76.7463 128.83 73.6846 131.265 70.1503 131.29L51.5879 131.419C46.6611 131.453 42.9794 126.904 44.044 122.097L50.2376 94.098L53.0928 81.1871L59.5123 52.1669L62.3133 39.5043L66.3576 21.2174C67.1307 17.7254 70.2175 15.2323 73.7964 15.2081L93.4362 15.077L93.8717 15.0746C94.0069 15.0738 94.1429 15.0762 94.2765 15.0827C95.3167 15.1288 96.2946 15.3796 97.1762 15.7929C99.3392 16.8065 100.923 18.7931 101.427 21.126C101.659 22.2002 101.663 23.3489 101.387 24.508L101.388 24.5097Z" fill="#EBF2F7"/>
<path d="M25.5391 39.3741C25.4395 39.2689 25.2679 39.273 25.1805 39.3983C25.1457 39.4485 25.2234 39.4946 25.2582 39.4444L25.5067 39.5164C25.5172 39.5949 25.5083 39.6726 25.4808 39.7494C25.4582 39.8303 25.4282 39.9104 25.4015 39.9896C25.3424 40.166 25.2833 40.3431 25.2242 40.5195C25.1384 40.7759 25.0526 41.0331 24.9668 41.2896C24.5013 38.9955 23.4967 36.8373 23.3615 34.4616C23.3963 34.4551 23.4311 34.4478 23.4659 34.4422C23.525 34.4325 23.5056 34.3443 23.4465 34.354C20.9912 34.7609 19.0718 36.7637 18.0615 38.9389C16.7355 41.7951 16.7914 44.962 16.4919 47.9727C16.3413 49.4878 16.1041 51.0142 15.5771 52.4726C15.0582 53.9076 14.226 55.1801 13.1971 56.3303C12.4402 57.1764 7.88665 62.0436 5.44998 64.7955C6.30484 65.3925 6.64403 65.5761 7.4916 66.1844C9.64169 64.1112 18.7334 58.1414 20.0036 55.8272C20.6917 54.5742 21.0811 53.1877 21.5279 51.8506C22.0112 50.4075 22.4937 48.9644 22.977 47.5222C23.5291 45.8728 24.0812 44.2243 24.6332 42.5749L24.9433 41.6495C25.0097 42.0265 25.0599 42.4075 25.0874 42.7941C25.0914 42.8515 25.1845 42.8524 25.1805 42.7941C25.1489 42.346 25.0866 41.9051 25.004 41.4691L25.4622 40.1013C25.527 39.9071 25.7115 39.552 25.5423 39.3716L25.5391 39.3741Z" fill="#EB8773"/>
<path d="M42.4701 25.4012C42.2993 25.6398 42.0257 25.6819 41.7537 25.7231C41.6056 25.7458 41.4558 25.7628 41.3068 25.7789C41.2963 25.8129 41.2704 25.9488 41.2356 26.151C41.221 26.2384 41.2032 26.3395 41.1854 26.4487C41.1741 26.5158 41.1619 26.5878 41.149 26.6623C41.1352 26.7448 41.1215 26.8313 41.1069 26.9203C41.0761 27.1063 41.0437 27.307 41.0106 27.5116C41.0081 27.5286 41.0049 27.5456 41.0025 27.5634C40.8381 28.5753 40.7742 29.2936 40.6236 29.5088C39.7048 30.8297 38.2307 30.7035 38.1724 30.6963C37.2714 30.5806 36.3728 30.3468 35.4993 30.1106C34.7489 29.9076 34.0074 29.6746 33.2739 29.4158C33.1833 29.4214 33.0918 29.4158 32.9971 29.3899C32.6401 29.2936 32.3309 29.021 32.0443 28.7994C31.714 28.5462 31.3926 28.2679 31.1554 27.9233C30.9158 27.5755 30.7766 27.1727 30.6843 26.7634C30.503 25.9593 30.4293 25.1229 30.3759 24.3019C30.3192 23.4218 30.3111 22.5393 30.3305 21.6584C30.3419 21.1577 30.3564 20.6513 30.3904 20.1457C31.1336 20.4928 32.0232 20.3884 32.6547 19.7761C32.9955 19.4452 33.2707 19.0489 33.5233 18.6476C33.6002 18.5255 33.6828 18.3184 33.7961 18.2286C33.6301 18.4365 33.6196 18.4576 33.7686 18.2925C33.8366 18.2246 33.9062 18.1591 33.9782 18.0968C33.9871 18.0879 33.996 18.0798 34.0033 18.0725C34.0122 18.066 34.0236 18.0596 34.0349 18.0523C34.2009 17.9455 34.3644 17.8355 34.5352 17.7344C34.8347 17.5564 35.1448 17.3947 35.454 17.2329C36.8739 16.4887 38.1011 15.4848 39.4433 14.6169C39.4619 14.6047 39.4797 14.5918 39.4984 14.5789C40.5313 15.0092 41.4469 15.6547 41.816 16.7742C41.8808 16.9732 41.9277 17.1787 41.9601 17.3849C42.1075 17.9981 42.1609 18.6298 42.1755 19.2608C42.1795 19.387 42.1811 19.514 42.1827 19.6402C42.1836 19.6976 42.1844 19.7566 42.1852 19.8141C42.186 19.9419 42.1852 20.0697 42.1844 20.1983C42.1836 20.2994 42.1827 20.4005 42.1795 20.5008C42.1795 20.5089 42.1787 20.5186 42.1787 20.5259C42.173 20.6845 42.1568 20.8382 42.135 20.9902C42.1277 21.0355 42.1204 21.0808 42.1123 21.1253C42.0848 21.2839 42.0508 21.4416 42.016 21.6018C41.85 22.367 41.9868 23.1241 42.3034 23.8319C42.5171 24.3092 42.8239 24.9086 42.4701 25.402V25.4012Z" fill="#EB8773"/>
<path d="M41.1269 22.42C41.029 22.8407 40.7975 23.1464 40.6113 23.1028C40.4251 23.0591 40.3538 22.6829 40.4518 22.2623C40.5497 21.8417 40.7813 21.5359 40.9675 21.5796C41.1536 21.6233 41.2257 21.9994 41.1269 22.42Z" fill="#1F2144"/>
<path d="M34.4593 27.5657C33.4644 27.205 33.092 26.1817 32.1255 25.753C31.9765 25.6866 31.8267 25.6219 31.677 25.5588C31.6657 25.6397 31.6527 25.7206 31.6357 25.8015C31.524 26.3516 28.3555 34.9648 28.3555 34.9648C28.3507 34.9793 28.3555 34.9996 28.3725 35.0044L31.4447 35.8813C31.7053 35.9557 31.966 36.0301 32.2275 36.1045C32.4606 36.1708 32.701 36.2647 32.9423 36.2978C33.3454 36.3528 33.5405 36.0236 33.6911 35.7049C34.3257 34.3662 36.1342 29.622 36.8587 28.3301C36.0508 28.1012 35.2494 27.8537 34.4593 27.5673V27.5657Z" fill="#EB8773"/>
<path d="M41.6364 38.6489C41.0795 36.4001 34.7409 32.413 32.3164 31.3615C32.0752 31.2563 31.8315 31.1568 31.587 31.0606C31.634 31.046 31.6809 31.0306 31.7279 31.0161C31.7845 30.9983 31.7603 30.9085 31.7036 30.9271C29.5227 31.6106 27.3864 32.4341 25.3132 33.3959C23.5145 34.2298 20.992 34.8964 19.785 36.5409C19.4442 37.006 19.1989 38.7354 19.0216 41.0222C19.4782 41.1233 19.9307 41.3741 20.2383 41.6815C20.7289 42.1717 20.8649 42.7241 20.945 43.3866C20.9572 43.4894 20.9701 43.5921 20.9831 43.6956C21.0074 43.8598 21.03 44.0248 21.0551 44.1891C21.1191 44.6081 21.1887 45.0255 21.2616 45.4429C21.4081 46.276 21.5724 47.1052 21.7456 47.9335C22.0735 49.5036 22.492 51.0623 22.7737 52.6413C22.8952 53.32 22.981 54.0108 22.9956 54.6983H24.5005C25.6581 54.6983 26.8197 54.7315 27.9749 54.6417C28.1757 54.6263 28.5481 54.5163 28.7432 54.5608C28.8387 54.5455 28.9342 54.5301 29.0289 54.5139C29.5252 54.4257 30.0165 54.3149 30.5031 54.1831C31.0001 54.0488 31.4907 53.8927 31.9748 53.7204C32.2274 53.6306 32.4791 53.5359 32.7284 53.4381C32.8823 53.3782 33.6926 53.0393 33.0863 53.2973C33.5291 53.1088 33.9322 52.9899 34.3669 52.9883C35.3675 51.309 36.6595 49.6686 37.707 48.147C39.0371 46.2137 40.5063 44.2991 41.0552 41.9888C41.345 40.7674 41.9416 39.8897 41.6348 38.6513L41.6364 38.6489Z" fill="#EB8773"/>
<path d="M40.8641 122.109C40.856 122.126 40.8415 122.132 40.8277 122.131C40.7759 122.229 40.7192 122.326 40.6553 122.419C39.9955 123.377 38.8913 123.563 37.8001 123.535C37.0505 123.517 36.3041 123.48 35.5561 123.471C35.2444 123.467 34.9328 123.467 34.6211 123.475C34.4543 123.479 34.286 123.485 34.1192 123.493C32.8523 123.559 31.6194 123.772 30.3792 124.018C29.186 124.257 28.0041 124.423 26.7841 124.371C25.6038 124.321 24.4365 124.13 23.27 123.955C22.5519 123.846 21.8298 123.741 21.1053 123.679C21.0381 123.674 20.9717 123.669 20.9045 123.665C20.4909 123.634 20.0772 123.619 19.6611 123.625C18.4104 123.644 17.2285 123.95 16.0207 124.242C15.8831 124.276 15.7455 124.307 15.6078 124.337C14.8849 124.495 14.1555 124.604 13.4197 124.649C13.0878 124.67 12.7535 124.677 12.4175 124.67C12.0937 124.664 11.7699 124.645 11.4469 124.615C11.2097 124.591 10.9458 124.584 10.7199 124.498C10.4471 124.395 10.2415 124.094 10.4156 123.828C10.422 123.229 10.4293 122.63 10.4374 122.032C10.503 117.025 10.6098 112.022 10.7596 107.018C10.7612 106.951 10.7636 106.883 10.7653 106.816C10.9166 101.746 11.1117 96.6767 11.3481 91.6097C11.4671 89.0632 11.5958 86.5184 11.7367 83.9736C11.8735 81.4968 12.0354 79.0207 12.3017 76.5544C13.0514 69.5954 14.2624 66.1187 15.9446 62.714C17.7401 59.0829 18.9261 58.803 19.0248 54.7609C19.0192 54.7172 19.0014 53.5378 18.9892 51.8399C19.0062 50.8968 18.99 49.952 18.9754 49.0096C18.9738 47.7347 18.4404 45.8524 18.4509 44.563C18.4654 44.3673 18.4897 44.1748 18.531 43.9855C18.6346 43.5107 18.905 43.1361 19.1859 42.7616C19.3179 42.5845 19.4523 42.4081 19.5737 42.2213C20.7014 40.4797 21.774 39.8835 21.9917 39.2356C23.2594 39.3666 24.6437 39.4969 25.3618 39.5292C26.0167 39.5592 27.9636 39.8989 30.1347 40.3527C31.1839 40.5727 32.2856 40.817 33.3194 41.0686C33.355 41.0767 33.3906 41.0856 33.4254 41.0936C33.4886 41.109 33.5501 41.1252 33.6116 41.1398C33.6424 41.1478 33.6731 41.1551 33.7023 41.1632C33.7598 41.177 33.8172 41.1923 33.8747 41.2061C34.1621 41.4746 34.4195 41.7731 34.6405 42.0255C35.089 42.5367 35.5124 43.0666 35.9528 43.5843C36.147 43.8116 36.3438 44.0364 36.5478 44.2565C37.1962 44.9545 37.9078 45.6243 38.7537 46.0781C38.8938 46.1533 39.0354 46.2197 39.1787 46.282C39.101 46.417 39.0225 46.5529 38.9439 46.6872C37.3047 49.4771 34.6357 53.4731 33.0676 56.3059C32.7074 57.3518 32.5277 58.2772 32.4783 59.1726C32.3577 61.364 33.0182 63.3773 33.7428 66.5361C34.834 71.2933 34.5685 75.9178 35.5156 80.6903C35.9916 83.0846 36.3859 85.5008 36.5461 87.9389C36.7129 90.4667 36.5963 93.0026 36.7542 95.5296C36.8416 96.9306 37.0537 98.3009 37.367 99.6502C37.6034 100.67 37.8964 101.679 38.2364 102.682C39.0022 104.943 39.9291 107.145 40.682 109.409C42.0298 113.461 42.8094 118.113 40.8609 122.109L40.8641 122.109Z" fill="#F4BF6E"/>
<path d="M25.9098 33.2295C25.3723 33.2416 24.9457 33.5806 24.6445 34.0028C24.243 34.5666 23.9572 35.234 23.6496 35.852C23.0878 36.9812 22.564 38.129 22.0719 39.2906C22.0694 39.2898 22.0662 39.2882 22.0638 39.2874C22.0257 39.2769 21.9933 39.2809 21.9682 39.2938C22.3689 39.3076 22.7664 39.3408 23.1598 39.4176C23.5484 38.4785 23.9394 37.5401 24.3345 36.6034C24.587 36.0048 24.8404 35.4063 25.0962 34.8093C25.3237 34.2786 25.5577 33.748 25.9422 33.3096C25.9673 33.2805 25.9519 33.2295 25.9098 33.2303V33.2295Z" fill="#F4BF6E"/>
<path d="M37.8454 34.5233C37.7936 34.3818 37.6528 34.292 37.5103 34.2605C37.1331 34.1763 36.8716 34.4902 36.7137 34.7895C36.4199 35.3468 36.1786 35.9381 35.9171 36.5116C35.6573 37.0811 35.3991 37.6514 35.1368 38.2192C34.5725 39.4447 33.9913 40.6629 33.3615 41.8561C33.2911 41.8488 33.2198 41.8439 33.1478 41.8447C33.0879 41.8447 33.0879 41.9378 33.1478 41.9378C33.2044 41.9378 33.2603 41.9394 33.3153 41.9442C33.2789 42.013 33.2433 42.0817 33.2061 42.1497C33.1777 42.2023 33.2579 42.2492 33.2862 42.1966C33.3291 42.1165 33.3704 42.0356 33.4125 41.9555C33.7144 41.9984 33.9945 42.1206 34.2358 42.3204C34.2568 42.3374 34.2949 42.3406 34.3086 42.3107C35.4274 39.9034 36.5453 37.4961 37.6641 35.0896C37.7418 34.9229 37.9151 34.7151 37.8446 34.5233H37.8454Z" fill="#F4BF6E"/>
<path d="M41.4658 15.0147C40.7736 14.2818 39.6492 13.9 38.6697 13.7973C38.0601 13.7334 37.4473 13.7932 36.8385 13.8507C36.1836 13.913 35.5376 13.9324 34.8795 13.9105C34.6002 13.9016 34.3144 13.8919 34.0279 13.8952C33.9582 13.8952 33.8894 13.8968 33.8198 13.8992H33.819C33.1034 13.9219 32.3926 14.0351 31.7782 14.4258C31.5062 14.5981 31.2698 14.8375 31.095 15.1126C30.5858 15.5178 30.1357 15.9951 29.7673 16.537C29.6063 16.7741 29.4565 17.0256 29.3399 17.2909C29.2743 17.4382 29.2193 17.5902 29.1772 17.7464H29.1764C29.1578 17.8175 29.1408 17.8895 29.1278 17.9615C29.0363 18.4703 29.0963 18.988 29.161 19.496C29.2314 20.0461 29.3156 20.6107 29.2096 21.1624C29.1035 21.7076 28.7983 22.1791 28.6016 22.692C28.2414 23.6311 28.2932 24.7134 28.7368 25.6154C28.8259 25.7966 28.919 25.9616 29.0137 26.1112C29.7803 27.3327 30.6586 27.5762 30.6675 27.5786C30.6724 27.5802 30.6764 27.581 30.6813 27.5826C31.1071 27.6959 31.4876 27.4346 31.7385 27.1021C32.0955 26.6281 32.3959 26.0659 32.6444 25.5288C32.8978 24.9812 33.0265 24.4125 33.1188 23.818C33.207 23.2461 33.288 22.6621 33.5575 22.1419C33.8174 21.642 34.2262 21.2441 34.7953 21.1413C34.8795 21.1268 34.9645 21.1154 35.0487 21.1049C35.5036 21.0532 35.9448 21.054 36.3488 20.7814C37.287 20.1472 37.4716 18.9298 38.1904 18.116C38.97 17.2335 41.1719 16.7417 41.2043 16.7385C41.7596 16.6754 41.7985 16.4359 41.8568 16.0905C41.9248 15.6853 41.7402 15.3051 41.465 15.0147H41.4658Z" fill="#B25A5C"/>
<path d="M40.7315 20.0289C40.4862 20.0734 40.2345 20.1615 40.0483 20.333C39.9236 20.4471 39.7544 20.6687 39.8629 20.8418C39.9819 21.0319 40.3826 20.9389 40.5591 20.9373C40.9501 20.9324 41.3451 20.9413 41.7272 21.0287C41.8398 21.0538 41.979 21.1096 42.1126 21.1249C42.1199 21.0805 42.1271 21.0352 42.1344 20.9899C42.1555 20.8378 42.1725 20.6841 42.1781 20.5255C42.1781 20.5183 42.179 20.5086 42.179 20.5005C42.1814 20.4002 42.183 20.2991 42.1838 20.1979C41.728 20.0054 41.2237 19.9383 40.7315 20.0281V20.0289Z" fill="#B25A5C"/>
<path d="M33.8669 12.4249C33.5245 11.8692 32.8218 11.9533 32.2907 12.1466C31.7581 12.3416 31.1841 12.7355 31.1493 13.3446C30.6045 13.0542 29.9237 13.161 29.4404 13.5347C29.1093 13.7919 28.8818 14.1503 28.7402 14.5418C28.6576 14.7651 28.6042 14.9988 28.575 15.231C28.4925 15.8894 28.5904 16.6296 29.0947 17.1068C29.1644 17.1724 29.2485 17.2354 29.3416 17.2905C29.3732 17.3091 29.4056 17.3269 29.4404 17.343C29.6452 17.4441 29.8784 17.5016 30.0888 17.47C30.0913 17.4781 30.0961 17.487 30.1042 17.4927C30.5802 17.8502 31.2416 17.8268 31.7427 17.5283C32.0859 17.3244 32.3369 17.0146 32.515 16.6644C33.2516 16.0124 33.7762 15.1283 33.9802 14.1592C33.998 14.0751 34.0158 13.9869 34.0296 13.8955C34.0344 13.8712 34.0377 13.8461 34.0417 13.8219C34.0587 13.7062 34.0717 13.5881 34.0782 13.4684C34.0984 13.1003 34.0547 12.7274 33.8685 12.4249H33.8669Z" fill="#B25A5C"/>
<path d="M101.388 24.5086L100.655 27.597L100.464 28.4019L100.319 29.011C100.044 29.2067 99.735 29.358 99.4249 29.4923C99.089 29.6387 98.719 29.8296 98.3483 29.8433C98.2495 29.8474 98.1605 29.8328 98.0747 29.8077C97.2983 29.8943 96.5204 29.9541 95.7416 29.9849C95.5781 29.9913 95.4137 29.997 95.2486 30.0027C94.5006 30.0269 93.7437 30.0326 93.0062 29.963C92.9479 29.9582 91.4131 30.0795 90.9557 28.3202C90.8998 28.1066 90.9703 27.5517 91.0682 26.7452C91.082 26.6376 91.0949 26.5252 91.1079 26.4095C91.1095 26.3917 91.1119 26.3755 91.1136 26.3586C91.1144 26.3521 91.1144 26.3464 91.1152 26.34C91.1346 26.1596 91.1549 25.9824 91.1735 25.815C91.1808 25.7478 91.1872 25.6831 91.1945 25.6208C91.1986 25.5893 91.201 25.5586 91.205 25.5294C91.2059 25.5205 91.2067 25.5108 91.2075 25.5027C91.2139 25.4396 91.2204 25.3782 91.2261 25.3207C91.2366 25.2245 91.2455 25.1355 91.2536 25.0562C91.2755 24.8443 91.2876 24.7011 91.2868 24.6647C91.1467 24.6178 91.0075 24.5693 90.8691 24.5167C90.6173 24.4204 90.3656 24.3209 90.2644 24.0605C90.0539 23.5209 90.5097 23.0226 90.8424 22.619C91.3354 22.0212 91.6689 21.3377 91.7118 20.583C91.7207 20.4244 91.7304 20.2683 91.745 20.1138C91.7498 20.0701 91.7555 20.0257 91.7596 19.9812C91.779 19.8339 91.8041 19.6851 91.8413 19.5355C91.8429 19.5282 91.8454 19.5185 91.847 19.5112C91.8713 19.4165 91.8972 19.3211 91.9231 19.2256C91.9555 19.1051 91.9887 18.9846 92.0243 18.8641C92.0397 18.8107 92.0567 18.7549 92.0728 18.7007C92.1085 18.5826 92.1441 18.4637 92.1813 18.3456C92.3635 17.7551 92.582 17.1718 92.8872 16.6266C92.9738 16.439 93.0726 16.2554 93.1876 16.0822C93.2458 15.9949 93.3082 15.9124 93.3721 15.8339C93.6312 15.5209 93.9372 15.2758 94.2747 15.0833C95.315 15.1294 96.2929 15.3801 97.1745 15.7935C97.8172 16.5174 98.4608 17.2382 99.2056 17.878C99.4606 18.0972 99.7172 18.3148 99.9592 18.5462C100.098 18.678 100.226 18.8172 100.358 18.9522C100.366 18.9611 100.375 18.9708 100.383 18.9781C100.388 18.987 100.394 18.9959 100.4 19.0072C100.454 19.0809 100.503 19.1577 100.551 19.2362C100.651 19.4222 100.647 19.4004 100.542 19.169C100.627 19.2782 100.651 19.491 100.693 19.6228C100.831 20.054 100.991 20.4859 101.233 20.871C101.29 20.964 101.355 21.0489 101.427 21.1266C101.659 22.2008 101.662 23.3494 101.387 24.5086H101.388Z" fill="#FFBBAD"/>
<path d="M92.3086 21.5744C92.2916 21.991 92.4333 22.3283 92.6252 22.3275C92.817 22.3267 92.9854 21.9878 93.0024 21.5712C93.0194 21.1546 92.8777 20.8173 92.6859 20.8181C92.494 20.8189 92.3256 21.1579 92.3086 21.5744Z" fill="#5D5F7A"/>
<path d="M100.656 27.5976L100.465 28.4024L100.321 29.0115L99.6503 31.8354L98.6011 36.2593L98.1235 36.2844C97.8523 36.2981 97.5803 36.3119 97.3091 36.3264C97.0671 36.3394 96.8088 36.3766 96.5676 36.3556C96.1653 36.3216 96.0641 35.9689 96.0026 35.6381C95.8957 35.0565 95.7492 33.8763 95.5897 32.5966C95.4796 31.7238 95.3638 30.8081 95.2513 30.0041C95.1307 29.1539 95.0117 28.4307 94.9048 28.019C95.7451 27.9761 96.5854 27.9155 97.4241 27.8152C98.3526 27.7035 98.9533 27.0063 99.7968 26.7078C99.9117 26.6673 100.032 26.6325 100.158 26.6091C100.319 26.5784 100.481 26.55 100.642 26.5217C100.631 26.5994 100.623 26.6795 100.618 26.7579C100.611 26.8461 100.627 27.1494 100.656 27.5968V27.5976Z" fill="#FFBBAD"/>
<path d="M99.65 31.8359L98.6008 36.2598L96.3236 45.8574L94.8058 52.2567L94.4318 53.8421C94.3435 53.7976 94.2553 53.7531 94.1679 53.707C93.7243 53.4741 93.292 53.2225 92.8694 52.9564C92.6492 52.818 92.4323 52.6757 92.2169 52.5301C92.1287 52.471 91.7944 52.234 91.7304 52.1903C91.7458 52.2025 91.7806 52.2275 91.8381 52.2704C91.4867 52.0245 91.1475 51.8449 90.7549 51.756C90.2344 49.961 89.4233 48.141 88.8177 46.4835C88.0479 44.3796 87.138 42.2627 87.223 39.971C87.2675 38.7601 86.9251 37.8064 87.5492 36.7063C88.379 35.2462 92.4404 33.5734 95.5878 32.5971C96.7438 32.2371 97.7775 31.9718 98.481 31.8464C98.7417 31.7995 99.0023 31.7574 99.2654 31.7194C99.2233 31.6951 99.1829 31.6701 99.1408 31.6474C99.0906 31.6175 99.1383 31.539 99.1893 31.5673C99.3432 31.6563 99.4962 31.7461 99.65 31.8375V31.8359Z" fill="#FFBBAD"/>
<path d="M101.429 21.127C100.925 18.7941 99.341 16.8075 97.178 15.7939C96.2964 15.3805 95.3185 15.1298 94.2783 15.0837C94.1447 15.0772 94.0095 15.0748 93.8735 15.0756L93.438 15.078C93.3821 15.1872 93.3465 15.3053 93.3319 15.4307C93.3173 15.5698 93.3303 15.709 93.3748 15.8352C93.4363 16.0139 93.557 16.1668 93.7415 16.259C93.7933 16.2849 93.8419 16.2064 93.7885 16.1806C93.761 16.1668 93.7351 16.1514 93.71 16.1353C94.7211 16.5931 95.8147 17.1254 96.332 18.1235C96.8096 19.0433 96.6639 20.2291 97.4006 21.0267C97.6483 21.2952 97.9632 21.4117 98.2902 21.5193C98.4602 21.5751 98.6335 21.6277 98.8043 21.6989C98.9192 21.7474 99.0237 21.8073 99.1168 21.8801H99.1176C99.1564 21.9076 99.1929 21.9383 99.2277 21.9715C99.49 22.2134 99.6519 22.5442 99.7328 22.905C99.8138 23.2641 99.8081 23.6314 99.7757 23.9978C99.7587 24.1903 99.7352 24.3836 99.7118 24.5754C99.6421 25.1545 99.6154 25.7167 99.7142 26.2878C99.7385 26.4269 99.7652 26.5677 99.7952 26.7084C99.8858 27.1355 100.006 27.5691 100.17 27.9614C100.239 28.1256 100.337 28.2826 100.464 28.4039L100.654 27.599L101.387 24.5106C101.663 23.3507 101.659 22.2028 101.427 21.1286L101.429 21.127Z" fill="#D67E80"/>
<path d="M93.9505 19.8098C93.8169 19.6083 93.5967 19.4716 93.3725 19.3778C92.9216 19.1877 92.4165 19.1424 91.9259 19.2257C91.9 19.3212 91.8741 19.4166 91.8498 19.5113C91.8482 19.5186 91.8458 19.5283 91.8441 19.5355C91.8069 19.686 91.7818 19.834 91.7624 19.9813C91.7575 20.0257 91.7519 20.0702 91.7478 20.1139C91.8814 20.1277 92.0311 20.105 92.1461 20.1058C92.5379 20.105 92.9216 20.1819 93.2972 20.27C93.4672 20.3089 93.8291 20.482 93.9942 20.3291C94.1456 20.1891 94.0404 19.944 93.9505 19.8098Z" fill="#D67E80"/>
<path d="M99.852 21.582C99.3816 21.2358 98.8166 21.3054 98.2912 21.5173C97.9982 21.6354 97.7164 21.798 97.4728 21.9573C97.4096 21.9994 97.4542 22.0803 97.5149 22.0779C97.5351 22.9037 97.833 23.724 98.4045 24.325C98.6004 24.5321 98.8878 24.7521 99.2092 24.6494C99.4869 24.5596 99.6488 24.2587 99.7767 23.9958C99.8099 23.9262 99.8422 23.8583 99.873 23.7992C100.242 23.0809 100.623 22.1482 99.852 21.5812V21.582Z" fill="#FFBBAD"/>
<path d="M97.9783 23.4752C98.3134 23.4413 98.5773 23.2261 98.6453 22.9001C98.6874 22.6963 98.672 22.4973 98.753 22.2983C98.8631 22.0273 99.0719 21.838 99.3723 21.8016C99.4621 21.7911 99.4735 21.9246 99.3836 21.9359C98.6988 22.0184 98.9206 22.7432 98.7012 23.1581C98.5595 23.4251 98.2875 23.5796 97.9896 23.6095C97.8998 23.6184 97.8884 23.4849 97.9783 23.4752Z" fill="#E89584"/>
<path d="M55.165 26.3743C54.9489 26.1745 54.7327 26.3873 54.5886 26.5571C54.3271 26.8653 54.077 27.1832 53.8139 27.4898C53.4893 27.8684 53.1428 28.2364 52.751 28.5406C52.8651 28.382 52.9728 28.2186 53.07 28.0487C53.3331 27.5869 53.5945 27.0522 53.5541 26.5078C53.5524 26.4859 53.5387 26.4609 53.5152 26.4568C53.0683 26.3792 52.8498 26.7901 52.7283 27.1517C52.5308 27.7422 51.8978 28.1353 51.3959 28.5009C50.9425 28.8318 50.333 29.0607 49.9541 29.1505C49.4101 29.2799 47.8097 29.2896 47.4381 29.3495C46.7063 29.4667 46.0053 29.8299 45.5924 30.4609C45.22 31.0304 44.9124 31.4647 45.1763 32.0973C45.2006 32.361 45.3536 32.615 45.5948 32.7477C45.8174 32.8706 46.0619 32.8366 46.291 32.7485C46.6715 32.6021 47.035 32.3893 47.4009 32.2089C48.994 31.4203 49.806 31.074 51.3991 30.2854C51.6201 30.1762 53.5176 29.1019 54.3846 28.1118C54.6429 27.8166 54.8809 27.5003 55.0865 27.1654C55.2249 26.9405 55.4103 26.6 55.165 26.3735V26.3743Z" fill="#EB8773"/>
<path d="M50.1115 52.3041C50.5713 45.9202 48.0675 38.9879 47.8173 37.2763C47.5688 35.5784 47.2952 33.8732 47.2798 32.1527C47.2757 31.7312 47.2895 31.3098 47.3203 30.8891C47.3219 30.8681 47.3049 30.8511 47.2863 30.8447C46.8184 30.6853 46.3505 30.5251 45.8826 30.3658C45.9951 30.2695 46.1189 30.1822 46.2549 30.1061C46.3067 30.077 46.2606 29.9969 46.208 30.026C45.2349 30.5664 44.869 31.6916 44.7338 32.7318C44.5363 34.255 44.661 35.8316 44.8334 37.3515C45.1524 40.1713 45.6251 45.6929 45.4373 45.3637C43.798 42.4896 42.8396 40.0168 41.4391 38.0399C41.0999 37.5602 40.6223 37.1962 40.1892 36.7998C40.2118 36.7739 40.2345 36.7472 40.258 36.7222C40.2993 36.6785 40.2337 36.613 40.1924 36.6566C40.1673 36.6833 40.1439 36.71 40.1204 36.7375C39.8225 36.4665 39.5189 36.2004 39.2064 35.9456C39.1603 35.9084 39.0947 35.9731 39.1409 36.0111C39.4558 36.2675 39.7626 36.5345 40.0621 36.8079C39.697 37.269 39.5278 37.8409 39.3821 38.4063C39.17 39.2281 38.9611 40.0508 38.7515 40.8726C38.6422 41.3014 38.5321 41.7301 38.4228 42.1588C38.3224 42.5519 38.1994 42.9467 38.1435 43.3495C38.0383 44.1171 38.4301 44.6947 38.8397 45.3046C39.7966 46.7275 40.7478 48.1552 41.7111 49.574C45.5652 55.2541 47.6829 54.5544 48.337 54.6086C48.9118 54.6564 49.4663 54.4525 49.778 53.9502C50.0775 53.4681 50.0718 52.8565 50.1115 52.3049V52.3041Z" fill="#EB8773"/>
<path d="M7.98312 64.288C7.91674 64.1262 7.70464 64.0073 7.57674 63.8981C7.38974 63.7388 7.20355 63.5794 7.01655 63.42C7.08293 63.3642 7.15012 63.3084 7.2165 63.2518C7.26264 63.2138 7.19626 63.1483 7.15093 63.1863C7.08212 63.2445 7.0125 63.3019 6.94369 63.3602C6.90483 63.3392 6.85788 63.3812 6.8765 63.4168C5.73588 64.3762 4.60255 65.3598 3.68941 66.5432C2.92927 67.5293 1.63484 69.2708 1.70284 69.2571C1.47051 69.5766 1.27217 69.9075 1.16532 70.3038C1.0277 70.8118 1.00989 71.3433 1.00422 71.8658C0.996936 72.4523 0.987222 73.0468 1.0876 73.6268C1.13294 73.8873 1.21632 74.5797 1.60813 74.5675C2.03232 74.5546 2.03798 73.787 2.04284 73.5063C2.05336 72.9214 1.98698 72.3463 2.06065 71.7623C2.14484 71.0917 2.3456 70.4349 2.65079 69.8322C2.69289 69.7481 2.73984 69.6672 2.7876 69.5871C2.58441 70.0514 2.38446 70.5166 2.33022 71.0254C2.23713 71.8949 2.73741 72.8025 3.18589 73.5168C3.29436 73.6899 3.41093 73.8573 3.5356 74.0191C3.64408 74.1599 3.76065 74.333 3.92741 74.4114C4.16946 74.5247 4.38236 74.3386 4.39127 74.0911C4.39774 73.9131 4.29817 73.7408 4.22046 73.5872C4.11279 73.3752 3.99622 73.1681 3.89503 72.9538C3.64974 72.4361 3.57608 71.9378 3.68212 71.3724C3.6886 71.336 3.69669 71.3004 3.70317 71.2648C3.74203 71.3384 3.78169 71.412 3.82217 71.4848C3.96708 71.7429 4.1136 72.0219 4.35079 72.2088C4.58231 72.3916 4.87374 72.4709 5.16112 72.5129C5.42341 72.551 5.7545 72.6124 6.01517 72.5388C6.1876 72.4903 6.35436 72.3406 6.34383 72.1473C6.3325 71.9427 6.14145 71.8593 5.96822 71.8213C5.62336 71.7453 5.34326 71.6959 5.11336 71.3934C5.00245 71.2478 4.93041 71.0852 4.88669 70.9145C5.05669 71.0545 5.25745 71.1693 5.43555 71.2737C5.68893 71.4209 5.96174 71.5568 6.25721 71.5884C6.41021 71.6045 6.63769 71.6167 6.70002 71.4363C6.75345 71.2834 6.65307 71.1321 6.53731 71.0423C6.40698 70.9412 6.25641 70.8967 6.14874 70.7641C6.03055 70.6185 5.56669 69.8711 5.56669 69.8711C5.81926 69.5297 6.99793 68.0162 7.08293 67.8375C7.43021 67.1046 7.57188 66.2844 7.75807 65.5005C7.81555 65.2579 7.87383 65.0144 7.93131 64.7717C7.96531 64.6269 8.04626 64.4368 7.98474 64.288H7.98312Z" fill="#EB8773"/>
<path d="M73.7683 26.6219C73.5619 26.5936 73.3587 26.592 73.1547 26.5361C72.907 26.4682 72.6755 26.3574 72.4399 26.2579C72.1412 26.1317 71.7801 25.9853 71.4482 26.0492C71.2799 26.0815 71.1754 26.1932 71.0597 26.3113C70.8646 26.5086 70.6703 26.7076 70.4752 26.905C70.0858 27.3014 69.6956 27.6969 69.3062 28.0933C69.1646 28.2373 68.8991 28.5236 68.8157 28.7113C68.7291 28.9054 68.8108 29.2888 68.8513 29.2808C69.8867 31.6565 70.8371 34.0687 71.7016 36.5124C71.7194 36.5617 71.7915 36.5488 71.7939 36.5051C72.1922 36.4954 72.5905 36.4857 72.9888 36.4751C72.9847 36.497 72.9815 36.5188 72.9774 36.5399C72.9669 36.5981 73.0568 36.6232 73.0673 36.5641C73.1903 35.8741 73.281 35.1728 73.3012 34.4715C73.3182 33.8705 73.2478 33.2792 73.0001 32.7275C72.5662 31.76 71.7534 31.032 71.0767 30.2385C70.6962 29.792 70.3505 29.3139 70.1295 28.7695C70.2906 28.5325 70.459 28.3012 70.6387 28.0771C70.7763 27.9048 70.9196 27.7366 71.0678 27.5732C71.2353 27.3879 71.4134 27.1493 71.6676 27.0878C71.9178 27.0271 72.1792 27.1153 72.4229 27.1679C72.6407 27.2148 72.8617 27.2456 73.0851 27.2561C73.3401 27.2682 73.7967 27.3151 73.9667 27.0595C74.0986 26.8621 73.9934 26.651 73.77 26.6203L73.7683 26.6219Z" fill="#FFBBAD"/>
<path d="M79.9539 28.68C79.8705 28.4923 79.6041 28.206 79.4633 28.062C79.0739 27.6656 77.5488 26.1845 77.5463 26.2096C77.5132 26.1942 77.48 26.1813 77.4435 26.1708C77.2185 26.1077 77.038 26.1991 76.8477 26.3115C76.5692 26.4757 76.3029 26.6586 76.0358 26.8398C75.8512 26.9651 75.5598 27.0946 75.4367 27.2903C75.1639 27.7239 75.8779 27.8727 76.158 27.8307C76.6356 27.7587 77.1594 27.3615 77.6443 27.4772C77.6637 27.499 77.684 27.5225 77.7034 27.5435C77.8515 27.7069 77.994 27.8752 78.1324 28.0474C78.3113 28.2715 78.4805 28.5029 78.6416 28.7399C78.4198 29.2843 78.075 29.7623 77.6945 30.2088C77.0177 31.0024 76.205 31.7304 75.7711 32.6978C75.5233 33.2503 75.4529 33.8416 75.4699 34.4418C75.4902 35.1432 75.5808 35.8445 75.7039 36.5345C75.7144 36.5935 75.8034 36.5684 75.7937 36.5102C75.7897 36.4884 75.7864 36.4673 75.7824 36.4455C76.1807 36.4552 76.579 36.4649 76.9772 36.4754C76.9789 36.5183 77.0517 36.532 77.0695 36.4827C77.9333 34.039 78.8837 31.6268 79.9199 29.2511C79.9603 29.2592 80.0421 28.875 79.9555 28.6816L79.9539 28.68Z" fill="#FFBBAD"/>
<path d="M88.2369 42.9684C88.1115 42.877 82.346 39.1034 79.8284 37.6887C79.1306 37.2963 78.4433 36.8862 77.7771 36.4421C77.5796 36.3103 77.382 36.1485 77.161 36.0668C77.0801 36.1542 76.9862 36.2278 76.8777 36.2876C76.8219 36.3232 76.0463 35.9665 75.9322 36.015C75.7857 36.062 75.8569 36.5238 75.7063 36.5133C76.0156 37.2502 76.6259 38.0405 77.1902 38.5979C78.0637 39.4585 78.9315 40.3225 79.7977 41.1904C81.5066 42.9061 83.2025 44.6339 84.8823 46.3771C85.3656 46.8778 85.7727 47.4635 86.3289 47.8841C87.4946 48.7642 88.5251 48.9122 88.9064 48.8224C89.1428 48.7666 89.3784 48.7084 89.6156 48.6509C89.6293 48.6469 89.6423 48.6445 89.656 48.642L91.1739 42.2428C90.1652 42.6149 89.3249 43.2078 88.2361 42.97L88.2369 42.9684Z" fill="#FFBBAD"/>
<path d="M78.3615 48.2017C78.7832 47.9938 79.2131 47.8054 79.6478 47.6282C79.3515 47.3111 79.086 46.9657 78.8431 46.596C77.8304 45.0551 77.0832 43.3459 76.2923 41.6852C75.3662 39.7398 74.0054 37.055 73.0793 35.1096C73.0728 35.0959 72.2811 35.6839 71.644 35.7292C71.5833 35.7778 71.5178 35.8214 71.4506 35.8603C72.6317 39.5812 73.6379 43.3523 74.4895 47.1623C74.7291 48.2341 75.0068 49.3762 75.6123 50.3024C76.3304 49.3908 77.373 48.6879 78.3623 48.2009L78.3615 48.2017Z" fill="#FFBBAD"/>
<path d="M51.2602 22.9025C51.0919 22.7795 50.8522 22.8483 50.679 22.9211C50.3171 23.074 50.033 23.3571 49.863 23.7033C49.7861 23.4307 49.6096 23.1751 49.3417 23.0902C49.0122 22.985 48.8908 23.3401 48.9175 23.603C48.9693 24.1005 49.3425 24.4944 49.5951 24.9021C49.8841 25.3697 50.0978 25.8768 50.2402 26.4059C50.2378 26.4495 50.237 26.494 50.2378 26.5385C50.2378 26.5684 50.2629 26.5838 50.2864 26.583C50.301 26.6404 50.3892 26.6154 50.3754 26.5579C50.3625 26.5045 50.3479 26.452 50.3333 26.3994C50.3892 25.3446 51.2983 24.5494 51.397 23.4987C51.4149 23.3078 51.4351 23.0303 51.2594 22.9017L51.2602 22.9025Z" fill="#F16D69"/>
<path d="M75.3855 28.4655C75.2171 28.3425 74.9775 28.4113 74.8043 28.4841C74.4424 28.637 74.1583 28.9201 73.9883 29.2663C73.9114 28.9937 73.7349 28.7381 73.4669 28.6531C73.1375 28.548 73.016 28.9031 73.0428 29.166C73.0946 29.6635 73.4678 30.0574 73.7203 30.4651C74.0093 30.9326 74.223 31.4398 74.3655 31.9688C74.3631 32.0125 74.3623 32.057 74.3631 32.1015C74.3631 32.1314 74.3882 32.1468 74.4117 32.146C74.4262 32.2034 74.5145 32.1784 74.5007 32.1209C74.4878 32.0675 74.4732 32.015 74.4586 31.9624C74.5145 30.9076 75.4236 30.1124 75.5223 29.0616C75.5401 28.8707 75.5604 28.5933 75.3847 28.4647L75.3855 28.4655Z" fill="#F16D69"/>
<path d="M93.6239 95.5161C93.955 100.234 94.2667 104.952 94.5589 109.672C94.8528 114.415 95.1272 119.159 95.383 123.904C95.5903 127.76 95.6817 129.159 95.8639 133.016C96.3747 132.997 96.8855 132.977 97.3963 132.957C97.236 129.519 97.168 128.539 96.9867 125.103C96.7365 120.358 96.467 115.613 96.1772 110.87C95.8898 106.15 95.583 101.431 95.2567 96.7133C94.9289 91.9723 94.5824 87.2329 94.2157 82.4952C93.8514 77.7801 93.4677 73.0674 93.0646 68.3556C93.0362 68.0199 93.0071 67.6834 92.9779 67.3477C92.6274 67.4253 92.2761 67.4989 91.9239 67.5661C91.7645 67.5968 91.6042 67.6251 91.4447 67.6542C91.8365 72.2011 92.2121 76.7504 92.5683 81.2996C92.9399 86.0374 93.2912 90.7759 93.6239 95.5169V95.5161Z" fill="#F4A46E"/>
<path d="M34.5071 123.228C34.5014 123.216 34.4957 123.205 34.4901 123.193C34.1541 122.482 33.7995 121.78 33.5178 121.046C33.228 120.291 32.9997 119.514 32.8362 118.723C32.6646 117.902 32.5869 117.073 32.5164 116.238C32.4525 115.47 32.3659 114.693 32.0801 113.972C31.8057 113.282 31.3807 112.671 30.997 112.04C30.5971 111.383 30.2749 110.691 30.0401 109.96C29.5657 108.484 29.4063 106.934 29.2557 105.399C29.2306 105.145 29.2047 104.891 29.178 104.638C29.042 103.352 28.872 102.075 28.5927 100.809C28.2446 99.2321 27.7662 97.6855 27.1623 96.189C27.0222 95.8412 26.8749 95.4957 26.7219 95.1536C26.6976 95.0986 26.6183 95.1463 26.6417 95.1997C26.6749 95.2757 26.7073 95.3526 26.7413 95.4286C26.734 95.4302 26.7267 95.4343 26.7203 95.4416C26.7 95.4634 26.6879 95.4869 26.6798 95.5136C26.0297 96.3055 25.6145 97.243 25.1975 98.1708C24.7612 99.1423 24.3281 100.117 23.9452 101.112C23.1624 103.143 22.6338 105.241 22.6735 107.429C22.6751 107.523 22.6775 107.615 22.6799 107.709C22.6848 107.836 22.6905 107.963 22.6953 108.091C22.7398 109.019 22.8337 109.944 22.8872 110.873C22.9511 111.966 22.9317 113.055 22.82 114.145C22.6022 116.282 22.0963 118.376 21.6616 120.477C21.4422 121.536 21.2422 122.603 21.1054 123.677C21.8299 123.739 22.552 123.844 23.2701 123.952C24.4366 124.128 25.6039 124.319 26.7842 124.369C28.0034 124.421 29.1853 124.255 30.3793 124.016C30.6392 123.964 30.8982 123.914 31.1581 123.866C32.1376 123.687 33.1187 123.543 34.1201 123.491C34.2772 123.484 34.435 123.477 34.5912 123.473C34.6018 123.473 34.6115 123.472 34.622 123.472C34.5848 123.39 34.5459 123.308 34.5079 123.227L34.5071 123.228Z" fill="#E0A95F"/>
<path d="M92.7913 25.3559C92.2813 25.546 91.7438 25.5395 91.2095 25.5031C91.2087 25.5112 91.2079 25.5209 91.2071 25.5298C91.203 25.5597 91.2006 25.5897 91.1965 25.6212C91.1893 25.6835 91.1828 25.7482 91.1755 25.8154C91.1569 25.982 91.1366 26.1591 91.1172 26.3403C91.2686 26.3856 91.4993 26.3088 91.6199 26.287C92.1332 26.1907 92.7703 26.0014 92.8504 25.4004C92.8545 25.3713 92.818 25.3454 92.7921 25.3559H92.7913Z" fill="white"/>
<path d="M94.3555 51.1876C93.8787 50.7379 93.4456 50.2582 93.0821 49.7114C92.7891 49.2697 92.526 48.8095 92.2305 48.3686C91.731 47.6277 91.1198 46.9409 90.2051 46.7621C90.1816 46.7573 90.1533 46.7678 90.1476 46.7945C90.1249 46.9134 90.1144 47.0299 90.1136 47.1456C90.1095 47.1456 90.1079 47.1447 90.1047 47.1447H90.0901C90.0861 47.08 90.0844 47.0161 90.0812 46.9522C90.0764 46.8932 89.9841 46.8916 89.9881 46.9522C90.3985 52.9244 86.6869 57.9865 84.0316 63.0073C82.6886 65.5473 81.697 68.1981 81.0089 70.9856C80.3159 73.7925 79.8723 76.6527 79.3566 79.4952C78.2711 85.4787 76.478 91.2769 74.9391 97.152C73.4034 103.008 72.2992 108.965 71.6913 114.99C71.5391 116.499 71.4177 118.012 71.327 119.525C71.2703 120.462 70.9579 121.958 72.0337 122.452C73.0416 122.913 74.3676 122.6 75.3722 122.295C76.4302 121.973 77.4543 121.519 78.5342 121.275L94.434 53.8408L94.808 52.2554L94.9335 51.7264C94.7432 51.5476 94.5506 51.3688 94.3571 51.1868L94.3555 51.1876Z" fill="#F4DAB2"/>
<path d="M93.2657 35.114C92.95 35.0266 92.6359 34.9749 92.325 34.9522C92.3444 34.7823 92.3647 34.6125 92.3841 34.4418C92.3906 34.3827 92.2983 34.3827 92.291 34.4418C92.2716 34.6092 92.291 34.1927 92.2716 34.3601C89.7119 34.2161 87.3303 36.6315 85.6367 38.602C84.5706 39.842 78.5162 45.9218 77.9123 45.2779C77.3529 44.6817 76.2795 43.8194 76.0115 43.0615C75.9921 43.0057 75.9022 43.0299 75.9217 43.0857C75.9265 43.1003 75.9322 43.1157 75.9378 43.1302C75.9346 43.1302 75.9322 43.1294 75.9289 43.1302C75.9225 43.131 75.9168 43.1327 75.9103 43.1335C75.8966 43.1108 75.8634 43.0971 75.8367 43.1197C74.4062 44.3711 74.6086 46.6514 74.8377 48.3468C74.9688 49.32 75.2975 50.34 76.1734 50.89C77.1125 51.4797 78.0588 51.0049 78.9104 50.4969C80.9966 49.2536 82.9936 47.868 84.9414 46.4192C85.8966 45.709 86.8397 44.9826 87.7779 44.2497C88.7234 43.5104 89.6868 42.7848 90.6056 42.0123C91.0662 41.6249 91.4111 41.184 91.5884 40.604C91.7705 40.0087 91.8102 39.3712 91.8814 38.7565C92.0255 37.5205 92.1696 36.2837 92.3137 35.0477C92.6221 35.0679 92.9322 35.118 93.2406 35.203C93.2981 35.2191 93.3232 35.1294 93.2649 35.1132L93.2657 35.114Z" fill="#FFBBAD"/>
<path d="M91.9867 39.3355C91.3787 40.1873 89.8528 41.5916 89.6051 43.1989C89.4707 44.0717 90.0325 48.8159 90.0317 49.8925C90.0309 50.8317 90.0301 51.7708 90.0276 52.71L89.601 52.6727C89.5411 52.6679 89.5419 52.7609 89.601 52.7658C89.7427 52.7779 89.886 52.79 90.0276 52.803V53.5067C90.0268 53.5658 90.1191 53.5658 90.1207 53.5067V52.8103C90.2057 52.8175 90.2916 52.8248 90.3757 52.8329C90.3676 52.8564 90.3749 52.8831 90.4057 52.8879L94.5213 53.4622L94.8063 52.2562L94.9317 51.7271L96.3241 45.8569L97.8638 39.3671C97.2186 39.3719 93.2163 39.2247 91.9875 39.3363L91.9867 39.3355Z" fill="#F4DAB2"/>
<path d="M94.39 34.1287C94.3747 33.7485 94.3625 33.3667 94.4014 32.9897C94.1715 33.0674 93.9497 33.1669 93.7222 33.2494C93.6849 33.3618 93.6558 33.4783 93.6348 33.5956C93.5158 34.2775 93.5449 35.0023 93.5344 35.6931C93.5141 36.9542 93.5004 39.2037 93.557 40.4632C93.5546 40.4632 93.5506 40.4632 93.5481 40.4632C93.5093 40.4697 93.4818 40.4883 93.4648 40.5101C93.8323 40.35 94.2055 40.2092 94.5932 40.1097C94.539 39.0945 94.5236 37.0917 94.4767 36.0757C94.4467 35.427 94.4176 34.7774 94.3909 34.1287H94.39Z" fill="#F4DAB2"/>
<path d="M91.9977 62.5837C88.8811 60.1691 85.2471 58.5635 82.0042 56.339C80.3236 55.1855 78.8244 53.854 77.517 52.2912C76.2728 50.8036 75.1524 49.2044 73.7673 47.8406C73.0703 47.1547 72.3069 46.5521 71.4763 46.0344C70.5883 45.4811 69.6509 45.0119 68.728 44.5209C66.994 43.5979 65.3766 42.5124 63.9324 41.1769C63.3625 40.6503 62.8217 40.0921 62.3142 39.5049L59.5132 52.1675C59.7925 52.3446 60.0669 52.5298 60.3365 52.724C61.5945 53.6291 62.7311 54.705 63.692 55.9216C64.6755 57.1681 65.4567 58.5554 66.3448 59.8698C67.1778 61.1042 68.1233 62.2917 69.3611 63.1451C70.7081 64.0729 72.294 64.551 73.8588 64.9708C75.4624 65.4011 77.0564 65.8169 78.5726 66.5093C80.0387 67.1775 81.4189 68.0244 82.7133 68.9821C85.1799 70.8078 87.3341 73.0161 89.3741 75.2997L92.3135 62.8329C92.2098 62.7495 92.1046 62.667 91.9986 62.5845L91.9977 62.5837Z" fill="white"/>
<path d="M82.1783 98.9904C80.5438 97.5659 78.9693 96.0719 77.2564 94.7412C75.6171 93.4664 73.837 92.3453 71.8609 91.6723C70.012 91.0421 68.0594 90.7954 66.1287 90.5511C64.1866 90.306 62.2138 90.0812 60.3503 89.4494C58.3977 88.7877 56.7471 87.6245 55.5871 85.9088C54.5873 84.4277 53.9551 82.7444 53.0937 81.1873L50.2386 94.0982C51.1387 94.3473 52.0017 94.7129 52.8015 95.2395C54.304 96.228 55.3248 97.7269 56.4492 99.0939C57.5243 100.401 58.779 101.534 60.2208 102.427C61.6293 103.303 63.1828 103.948 64.797 104.325C65.6009 104.514 66.4193 104.635 67.2418 104.686C68.1889 104.744 69.1401 104.703 70.0889 104.754C71.0546 104.805 72.0107 104.967 72.8866 105.39C73.6103 105.738 74.2547 106.228 74.8383 106.777C76.0032 107.874 76.9318 109.187 77.9833 110.386C78.7597 111.272 79.6097 112.091 80.522 112.836L83.5213 100.117C83.0671 99.75 82.6195 99.3746 82.1783 98.9896V98.9904Z" fill="white"/>
<path d="M32.3796 42.73C32.0421 42.7049 31.8057 42.9549 31.7563 43.2736C31.7126 43.5567 31.6341 43.8479 31.9166 44.0081C32.2792 44.2143 32.6346 43.8689 32.7544 43.551C32.8929 43.183 32.8532 42.7648 32.3796 42.73Z" fill="#1F2144"/>
<path d="M30.5246 48.3865C30.1871 48.3614 29.9507 48.6114 29.9013 48.9301C29.8576 49.2132 29.7791 49.5044 30.0616 49.6646C30.4243 49.8708 30.7796 49.5254 30.8995 49.2075C31.0379 48.8395 30.9982 48.4213 30.5246 48.3865Z" fill="#1F2144"/>
<path d="M29.2348 54.4042C28.8972 54.4212 28.6924 54.6978 28.6827 55.0206C28.6738 55.3069 28.6325 55.6054 28.932 55.73C29.3173 55.8902 29.6274 55.5035 29.7075 55.1735C29.7998 54.7909 29.7083 54.3816 29.2348 54.405V54.4042Z" fill="#1F2144"/>
<path d="M27.5645 60.8019C27.2269 60.8189 27.0221 61.0955 27.0124 61.4183C27.0035 61.7046 26.9622 62.0031 27.2618 62.1277C27.6471 62.2879 27.9571 61.9012 28.0373 61.5712C28.1296 61.1886 28.0381 60.7793 27.5645 60.8027V60.8019Z" fill="#1F2144"/>
<path d="M26.0795 68.3122C25.742 68.3292 25.5371 68.6059 25.5274 68.9278C25.5185 69.2142 25.4772 69.5127 25.7768 69.6372C26.1621 69.7974 26.4721 69.4107 26.5523 69.0807C26.6446 68.6981 26.5531 68.2888 26.0795 68.3122Z" fill="#1F2144"/>
<path d="M24.9661 76.8428C24.6286 76.8597 24.4237 77.1364 24.414 77.4583C24.4051 77.7447 24.3638 78.0432 24.6634 78.1677C25.0487 78.3279 25.3587 77.9413 25.4389 77.6112C25.5312 77.2286 25.4397 76.8193 24.9661 76.8428Z" fill="#1F2144"/>
<path d="M21.1054 96.0035C21.0009 96.3731 20.9014 96.7452 20.8034 97.1173V97.0405C20.8034 96.9814 20.7103 96.9814 20.7103 97.0405C20.7103 97.1837 20.7111 97.326 20.7119 97.4692C20.2894 99.1234 19.9388 100.795 19.6644 102.48C19.3147 104.625 19.1479 106.792 18.8444 108.942C18.693 110.014 18.5003 111.083 18.2154 112.127C17.9345 113.16 17.5281 114.151 17.2059 115.171C16.5688 117.192 16.5971 119.297 16.334 121.379C16.2053 122.405 15.9495 123.371 15.6087 124.335C15.7463 124.305 15.8839 124.274 16.0216 124.241C17.2286 123.948 18.4113 123.642 19.662 123.623C20.0781 123.617 20.4917 123.632 20.9054 123.663C20.9054 123.465 20.9054 123.266 20.9046 123.068C20.8997 121.865 20.8957 120.661 20.8908 119.458C20.8722 114.672 20.8536 109.886 20.835 105.1C20.8261 102.561 20.8156 100.021 20.8058 97.483C20.9305 96.996 21.0584 96.5115 21.1952 96.0286C21.2106 95.9711 21.1216 95.946 21.1054 96.0035Z" fill="#E0A95F"/>
<path d="M26.5624 103.031C26.6571 101.45 27.0692 99.9442 27.567 98.4599C27.5597 98.4065 27.5517 98.3531 27.5444 98.2997C27.4796 97.8548 27.4116 97.4107 27.3404 96.9666C27.193 96.0501 27.0319 95.1353 26.8571 94.2228C26.5025 92.3801 26.088 90.5496 25.6096 88.7352C25.119 86.8747 24.5224 85.045 24.0926 83.1683C24.0537 82.9969 24.0165 82.8254 23.9792 82.6531C23.0005 86.7655 22.0299 90.8796 21.0722 94.9969C20.5809 97.109 20.0927 99.2243 19.7203 101.361C19.352 103.473 18.88 119.571 18.6566 123.989L17.5241 135.92C17.5225 135.945 17.5468 135.966 17.5702 135.966C18.353 135.97 19.1359 135.973 19.9187 135.975C19.9381 135.975 18.8193 136.622 19.4605 134.682C20.8877 130.369 21.8461 127.05 22.9657 122.646C23.5251 120.446 24.129 118.256 24.7985 116.086C25.4404 114.005 26.1722 111.931 26.4515 109.762C26.7389 107.524 26.4297 105.272 26.564 103.029L26.5624 103.031Z" fill="#EB8773"/>
<path d="M38.7564 46.0756C37.9113 45.621 37.1997 44.9521 36.5505 44.254C36.3465 44.034 36.1497 43.8091 35.9555 43.5818C35.8947 44.7288 35.2892 45.8119 34.6683 46.7632C33.9867 47.8099 33.2079 48.8704 32.9554 50.121C32.8291 50.7422 32.9036 51.3537 32.9181 51.9806C32.9254 52.3285 32.9052 52.6795 32.7862 53.0088C32.6639 53.3501 32.4438 53.6429 32.2705 53.9584C31.9734 54.4955 31.7986 55.0949 31.7565 55.7064C31.7095 56.3964 31.8585 57.0719 32.0487 57.7303C32.1879 58.2116 32.3337 58.6921 32.4802 59.171C32.5296 58.2755 32.7093 57.3501 33.0695 56.3042C34.6376 53.4714 37.3066 49.4755 38.9458 46.6855C39.0244 46.5513 39.1029 46.4154 39.1806 46.2803C39.0373 46.218 38.8956 46.1517 38.7556 46.0764L38.7564 46.0756Z" fill="#E0A95F"/>
<path d="M33.382 13.4419C33.0825 13.4541 32.7814 13.4711 32.4859 13.5253C32.2001 13.5778 31.9152 13.6668 31.6675 13.8221C31.4351 13.9677 31.2619 14.1732 31.0668 14.3617C30.777 14.6415 30.4856 14.7532 30.0897 14.6286C29.7975 14.5372 29.5303 14.4086 29.2162 14.4264C29.0592 14.4345 28.894 14.4749 28.7394 14.542C28.6568 14.7653 28.6034 14.9991 28.5743 15.2312C28.4917 15.8897 28.5896 16.6298 29.094 17.1071C29.1636 17.1726 29.2478 17.2357 29.3409 17.2907C29.2753 17.4379 29.2203 17.59 29.1782 17.7461C29.285 17.6458 29.3708 17.4776 29.4388 17.3441C29.4647 17.2939 29.4882 17.2486 29.5085 17.213C29.7222 16.8507 29.995 16.5093 30.3585 16.2877C30.6766 16.0951 31.0449 16.0207 31.406 15.9479C32.0706 15.8145 32.6518 15.6438 32.9999 15.0177C33.1877 14.6804 33.3132 14.2913 33.6095 14.0276C33.6767 13.9677 33.7471 13.9297 33.8192 13.899H33.82C33.8912 13.869 33.9649 13.848 34.0402 13.8221C34.0572 13.7065 34.0701 13.5884 34.0766 13.4686C33.8491 13.4241 33.616 13.4322 33.3812 13.4419H33.382Z" fill="#5C3243"/>
<path d="M35.0795 20.2585C35.005 20.2318 34.8779 20.2447 34.8018 20.2455C34.5516 20.2472 34.3549 20.3442 34.1291 20.4381C33.7761 20.5877 33.407 20.5521 33.0387 20.6225C32.6428 20.6993 32.2858 20.9436 32.0826 21.2939C31.9045 21.6005 31.8567 21.9588 31.758 22.2937C31.6754 22.5703 31.5532 22.834 31.3241 23.0193C31.1007 23.2005 30.8206 23.287 30.5526 23.3825C30.1794 23.5159 29.8507 23.681 29.6459 24.0369C29.4695 24.3426 29.399 24.6986 29.3351 25.0423C29.2671 25.4047 29.191 25.789 29.0137 26.1101C29.7803 27.3315 30.6587 27.575 30.6676 27.5774C30.6724 27.5791 30.6765 27.5799 30.6813 27.5815C31.1071 27.6947 31.4876 27.4335 31.7386 27.101C32.0956 26.627 32.3959 26.0648 32.6444 25.5277C32.8978 24.9801 33.0265 24.4114 33.1188 23.8169C33.207 23.245 33.288 22.6609 33.5576 22.1408C33.8174 21.6409 34.2262 21.2429 34.7953 21.1402C34.8795 21.1256 34.9645 21.1143 35.0487 21.1038C35.1037 20.9768 35.1507 20.8466 35.1839 20.7131C35.2227 20.557 35.298 20.3345 35.0786 20.2569L35.0795 20.2585Z" fill="#5C3243"/>
<path d="M34.4625 23.858C35.1855 23.3832 35.7019 22.6293 35.9488 21.8083C36.0071 21.8244 36.0727 21.7532 36.0225 21.6974C35.4809 21.0997 34.669 20.4169 33.806 20.7931C32.8977 21.1886 33.0127 22.2054 33.1754 23.007C33.2402 23.3249 33.2774 23.8135 33.5891 24.0044C33.8732 24.1791 34.2148 24.0214 34.4625 23.8588V23.858Z" fill="#EB8773"/>
<path d="M35.1128 23.1025C34.7955 22.9942 34.5971 22.7207 34.6206 22.3794C34.6352 22.1666 34.7048 21.9709 34.6813 21.7533C34.6489 21.458 34.4976 21.2218 34.2142 21.1191C34.1292 21.0884 34.0815 21.2202 34.1665 21.251C34.8116 21.4855 34.3956 22.161 34.4951 22.6245C34.5599 22.923 34.7825 23.1373 35.065 23.2344C35.15 23.2635 35.1978 23.1317 35.1128 23.1025Z" fill="#CC6C59"/>
<path d="M21.0818 82.4898C21.081 82.4461 21.0333 82.4332 21.0033 82.4574C20.5605 82.8012 20.2618 83.2736 19.9566 83.7355C19.6312 84.2289 19.3049 84.724 18.986 85.2214C18.3408 86.2293 17.7191 87.255 17.1734 88.3203C16.6489 89.3436 16.1939 90.4049 15.862 91.505C15.5431 92.563 15.3561 93.6518 15.2152 94.7455C14.9278 96.9886 14.8396 99.2931 14.1029 101.451C13.7208 102.571 13.1339 103.554 12.4329 104.501C11.8282 105.317 11.2324 106.123 10.7604 107.017C10.6106 112.021 10.5046 117.026 10.4382 122.031C10.4301 122.629 10.422 123.229 10.4156 123.827C10.2415 124.093 10.4471 124.393 10.7199 124.498C10.9458 124.584 11.2089 124.592 11.4469 124.614C11.7699 124.645 12.0937 124.664 12.4175 124.67C12.7535 124.677 13.0878 124.669 13.4197 124.649C13.6852 123.669 13.9103 122.679 14.094 121.68C14.3879 120.084 14.5781 118.47 14.6607 116.849C14.7028 116.025 14.7165 115.201 14.7012 114.378C14.6866 113.5 14.6364 112.621 14.6566 111.742C14.6947 110.05 15.1448 108.466 15.7212 106.887C16.2781 105.359 16.8845 103.848 17.1799 102.241C17.7887 98.9162 17.3337 95.4735 18.1554 92.178C18.8856 89.2498 20.7151 86.65 21.0405 83.6125C21.081 83.2388 21.0932 82.8643 21.081 82.4898H21.0818Z" fill="#E0A95F"/>
<path d="M25.3641 39.5278C24.646 39.4954 23.2618 39.3644 21.994 39.2341C21.7763 39.8821 20.7037 40.4782 19.576 42.2198C19.4546 42.4075 19.3202 42.583 19.1882 42.7601C19.6553 42.8499 20.1265 43.0004 20.5507 43.0368C21.5448 43.1201 22.4466 42.7844 23.252 42.2263C23.643 41.9553 24.0203 41.6608 24.4501 41.4521C24.9277 41.2216 25.4442 41.1569 25.9688 41.1795C26.9062 41.2176 27.8736 41.4966 28.7989 41.2281C29.3332 41.0736 29.7646 40.746 30.1378 40.352C27.9667 39.8982 26.0198 39.5585 25.3649 39.5286L25.3641 39.5278Z" fill="#E0A95F"/>
<path d="M6.65712 65.5307C6.65307 65.4716 6.55997 65.4708 6.56402 65.5307C6.61826 66.2555 6.4094 67.0271 5.90831 67.5699C5.66464 67.8336 5.35298 68.0326 5.07288 68.2551C4.79198 68.4783 4.51755 68.7129 4.2755 68.9782C3.84807 69.4466 3.5615 69.9845 3.45788 70.6122C3.3996 70.9681 3.38826 71.3645 3.23284 71.6969C3.21826 71.7277 3.18426 71.8248 3.14784 71.8401C3.07903 71.8684 2.93088 71.7867 2.88798 71.7431C2.82565 71.68 2.79084 71.578 2.76331 71.4963C2.70179 71.3111 2.68803 71.1089 2.68398 70.9155C2.66536 70.0395 3.00455 69.2047 3.32917 68.4071C3.35184 68.3521 3.26198 68.3279 3.23931 68.3829C2.91631 69.1756 2.58279 70.0031 2.58927 70.8735C2.59169 71.1825 2.6176 71.5457 2.81188 71.8021C2.93736 71.9679 3.11545 72.0448 3.25712 71.8531C3.47003 71.5651 3.47731 71.0984 3.52831 70.7586C3.59145 70.3348 3.70722 69.9416 3.9355 69.5744C4.40422 68.8213 5.14412 68.3732 5.79821 67.8053C6.43855 67.2504 6.71783 66.3606 6.65631 65.5323L6.65712 65.5307Z" fill="#CC6C59"/>
<path d="M45.8162 46.9206C45.8203 46.8607 45.7272 46.8615 45.7231 46.9206C45.6122 48.5254 45.7126 50.136 46.0218 51.7141C46.0332 51.7724 46.123 51.7481 46.1117 51.6899C45.8041 50.119 45.7053 48.5173 45.8162 46.9206Z" fill="#CC6C59"/>
<path d="M37.3241 128.915C36.9752 128.089 36.4045 127.369 35.9673 126.589C35.4112 125.596 34.9611 124.549 34.5903 123.475C34.5612 123.394 34.5337 123.311 34.5069 123.229C34.5013 123.217 34.4956 123.205 34.4899 123.193C34.154 122.482 33.7994 121.781 33.5177 121.046C33.2279 120.292 32.9996 119.514 32.8361 118.724C32.6645 117.902 32.5868 117.074 32.5163 116.238C32.4524 115.47 32.3658 114.693 32.08 113.972C31.8056 113.282 31.3806 112.672 30.9968 112.041C30.5969 111.383 30.2748 110.691 30.04 109.96C29.5656 108.485 29.4061 106.934 29.2556 105.4C29.2305 105.146 29.2046 104.892 29.1779 104.638C28.3198 103.022 27.3435 101.492 26.2984 100.377C25.5803 99.6103 23.508 106.844 22.6774 107.711C22.6272 107.763 22.5811 107.792 22.5398 107.795C22.5398 107.8 22.5932 107.904 22.6928 108.093C23.7411 110.09 30.142 121.996 30.8568 123.31C30.958 123.495 31.0584 123.682 31.1563 123.868C31.8647 125.206 32.5196 126.57 33.1664 127.938C33.2935 128.208 33.4198 128.483 33.529 128.766C33.546 129.18 33.5792 129.593 33.5145 130.006C33.4092 130.676 33.1437 131.311 32.7916 131.887C32.4483 132.45 32.0241 132.983 31.5311 133.422C30.9985 133.896 30.3905 134.105 29.7445 134.371C29.296 134.556 28.7974 134.821 28.6444 135.319C28.4995 135.787 28.8257 136.104 29.2799 136.125C29.6231 136.14 29.976 136.085 30.3185 136.058C30.7014 136.027 31.0859 135.997 31.4688 135.967C32.1269 135.916 32.7997 135.871 33.3833 135.531C33.9484 135.203 34.3118 134.602 34.6842 134.066C35.5796 132.776 37.2083 131.6 37.3241 131.321C37.6544 130.528 37.6584 129.708 37.3233 128.916L37.3241 128.915Z" fill="#EB8773"/>
<path d="M32.751 58.6648C28.9632 58.6421 25.1803 58.2741 21.463 57.5606C20.511 57.3778 19.5638 57.1699 18.6215 56.9426C18.594 57.3738 18.5187 57.8098 18.4653 58.1738C19.41 58.1819 20.3547 58.1972 21.2954 58.2838C22.3421 58.38 23.3427 58.6203 24.3619 58.8565C25.2459 59.062 26.1282 59.159 27.0365 59.1752C27.9319 59.1914 28.8288 59.1582 29.7233 59.2148C30.7336 59.2779 31.7334 59.4737 32.6117 59.9873C32.6449 60.0068 32.6797 59.9809 32.683 59.9477C32.721 59.536 32.7599 59.1234 32.7979 58.7117C32.8003 58.6866 32.7744 58.6656 32.751 58.6656V58.6648Z" fill="#E0A95F"/>
<path d="M40.6852 109.408C39.9315 107.143 39.0046 104.942 38.2396 102.681C37.8996 101.678 37.6066 100.669 37.3702 99.6489C37.2423 100.139 37.0966 100.624 36.9492 101.103C36.3664 102.991 35.7131 104.913 35.8272 106.916C35.8912 108.046 36.1494 109.154 36.3202 110.27C36.4927 111.393 36.602 112.536 36.5218 113.672C36.4797 114.261 36.3866 114.846 36.2239 115.414C36.0717 115.947 35.854 116.457 35.6581 116.975C35.2565 118.035 35.1035 119.11 35.1367 120.242C35.1699 121.328 35.3132 122.411 35.5577 123.47C36.3057 123.481 37.0512 123.516 37.8017 123.535C38.8929 123.563 39.9971 123.376 40.6569 122.419C40.7208 122.325 40.7775 122.229 40.8293 122.131C40.843 122.132 40.8568 122.125 40.8657 122.108C42.8142 118.112 42.0347 113.46 40.6868 109.408H40.6852Z" fill="#E0A95F"/>
<path d="M33.3219 41.0662C32.4784 41.901 31.6761 42.7746 31.1022 43.8245C30.4141 45.0856 30.0093 46.4802 29.573 47.8423C29.0986 49.3243 28.6331 50.8086 28.2324 52.3123C27.8301 53.8266 27.5225 55.3595 27.2415 56.9005C26.9639 58.4212 26.6935 59.9452 26.292 61.4392C25.8864 62.9502 25.3546 64.4241 24.9223 65.9278C24.1079 68.7606 23.6222 71.6872 23.4667 74.6308C23.3202 77.4086 23.4692 80.2017 23.9144 82.948C23.929 82.8873 23.9444 82.8258 23.9573 82.7651C23.9614 82.7473 23.967 82.732 23.9735 82.7166C23.6116 80.4015 23.4586 78.0557 23.5177 75.7115C23.5922 72.759 24.0002 69.8146 24.7385 66.9543C25.1182 65.4829 25.6144 64.0463 26.0572 62.5935C26.5033 61.1237 26.8303 59.6305 27.1112 58.1219C27.3921 56.6149 27.6479 55.1031 28.0009 53.6114C28.3563 52.1125 28.7918 50.6339 29.2516 49.1641C29.6887 47.7655 30.0943 46.3386 30.6553 44.9845C30.9346 44.3115 31.2657 43.6595 31.6842 43.0617C32.1052 42.4607 32.6038 41.9179 33.1195 41.397C33.2215 41.2951 33.3235 41.1932 33.4263 41.0929C33.3923 41.0848 33.3559 41.0759 33.3203 41.0678L33.3219 41.0662Z" fill="#E0A95F"/>
<path d="M41.1225 26.8235C41.1241 26.7636 41.0318 26.7636 41.0294 26.8235C41.0294 26.8299 41.0294 26.8372 41.0294 26.8437C41.0286 26.8437 41.0277 26.8437 41.0269 26.8453C40.7477 27.0702 40.6303 27.4277 40.7153 27.7739C40.7234 27.8079 40.7687 27.8192 40.793 27.7941C40.9144 27.6696 41.0731 27.5434 41.1451 27.3808C41.2293 27.1907 41.1152 27.0168 41.1217 26.8235H41.1225Z" fill="#EB8773"/>
<path d="M41.0883 26.915C41.1417 26.8244 41.2227 26.7532 41.2745 26.6586C41.3668 26.4903 41.3117 26.301 41.2785 26.2048C41.2567 26.1425 41.2348 26.1538 41.2348 26.1514C41.0397 26.2096 40.8471 26.2695 40.6382 26.2929C40.312 26.3309 39.9841 26.3123 39.6611 26.2484C39.6158 26.2395 39.5842 26.2905 39.6158 26.3261C39.9501 26.6998 40.4294 26.8195 40.9078 26.8972C40.9515 26.9045 41.0227 26.915 41.0891 26.915H41.0883Z" fill="#CC6C59"/>
</g>
</svg>
