<svg width="81" height="89" viewBox="0 0 81 89" fill="none" xmlns="http://www.w3.org/2000/svg">
<g clip-path="url(#clip0_70_1644)">
<path d="M79.2469 3.7413C78.3988 0.787762 76.9003 0.337699 74.271 0.112667C71.7831 -0.112365 51.3422 0.0845381 43.9632 0.112667C35.5098 0.140796 19.9317 0.281441 11.4501 0.675246C9.52755 0.815891 7.52022 1.12531 5.79561 2.25047C3.08148 4.05072 3.6752 11.0267 3.47729 13.5583C3.05321 18.9028 2.68567 24.2473 2.3464 29.6199C1.61132 40.984 1.13069 52.3481 0.763154 63.7122C0.650065 67.7347 0.565248 71.7852 0.565248 75.8077C0.565248 77.7486 -0.848365 86.6936 0.734882 87.8187C1.15897 88.1282 1.69614 88.1844 2.20504 88.2125C21.7694 89.9284 41.7862 88.2125 61.5202 88.2125C66.8354 88.2407 72.1789 88.3532 77.494 88.1282C79.3035 88.0438 80.8019 86.5248 80.8302 84.7245C80.9433 73.2761 81.3108 32.5453 80.2647 13.4739C80.0103 8.77638 79.671 5.28839 79.2469 3.7413Z" fill="#00C2CB"/>
<path d="M48.1476 27.876C47.978 25.7663 47.8931 23.6566 47.667 21.6032C47.5539 20.9563 47.4125 20.3093 47.2711 19.6623C46.734 17.0463 46.0272 14.5147 44.5005 12.4051C43.935 11.6174 43.1434 10.9986 42.2387 10.6329C41.0795 10.1547 39.7507 9.81719 38.5633 9.78906C38.5067 9.78906 38.3937 9.92971 38.3937 10.1547C38.3654 13.2489 39.3549 16.2025 39.6942 19.2685C39.9769 21.9126 41.1926 24.0504 42.0408 26.582C43.1717 30.0419 47.2429 29.0011 48.0628 28.6073C48.091 28.3823 48.1193 28.1291 48.1476 27.876Z" fill="#BD4A4A"/>
<path d="M40.0052 25.9911C39.2984 24.7816 38.5916 23.572 37.8282 22.4187C37.2062 21.4905 36.4994 20.4778 35.5947 19.8028C34.9162 19.2964 34.0115 19.0714 33.3329 19.7465C32.6544 20.4497 32.7958 21.5186 32.9654 22.3906C33.5308 24.9504 34.6617 27.3694 36.1884 29.4791C36.2167 29.5635 36.2733 29.6479 36.3863 29.6198C37.6303 29.2541 38.9026 28.804 40.0052 28.1289C40.9664 27.5382 40.4858 26.7787 40.0052 25.9911Z" fill="#BD4A4A"/>
<path d="M70.2283 47.8193C70.1718 47.7349 70.087 47.6787 70.0587 47.5662C69.6346 46.5817 69.0974 44.5001 68.5037 43.4875C68.3341 43.375 67.7404 43.6844 67.599 43.7688C67.5425 43.7688 67.4859 43.7688 67.4011 43.7969C61.4639 45.9909 55.0744 45.2033 48.8828 45.9347C46.9037 46.1597 45.6032 46.3566 45.6315 48.5226C45.8859 50.0978 46.3383 51.673 46.7906 53.192C46.9603 53.3326 47.0451 53.5295 46.9603 53.8108C47.0168 54.0921 46.932 54.289 46.7624 54.4296C45.7728 57.4394 44.7833 60.5336 44.4158 63.6841C44.8116 64.0216 45.3488 64.2748 45.9425 64.5279C46.9885 64.9217 47.9781 65.3437 48.9111 65.9062C53.0388 68.4378 55.6964 72.6009 58.2126 76.5952C58.3823 76.8765 58.6933 76.8484 58.8912 76.6796C62.4817 76.6234 66.8357 76.6234 70.0022 74.795C80.5477 68.7473 70.4262 48.1006 70.2283 47.8193Z" fill="#584FC6"/>
<path d="M27.4523 46.3847C26.0387 45.6814 24.512 45.3439 22.9287 45.3158C22.8722 45.2876 22.8156 45.2876 22.7591 45.3158H22.7308C22.5046 45.3158 22.4198 45.5127 22.4764 45.6533C21.4586 47.3129 20.4408 48.9444 19.4512 50.604C18.7162 51.8698 18.5748 52.995 18.9423 54.4014C19.5643 56.6799 22.6177 58.9583 24.823 56.8486C27.9895 53.9232 30.223 48.9444 30.2512 48.2412C30.2795 47.2848 28.1874 46.7503 27.4523 46.3847Z" fill="#FFA875"/>
<path d="M37.7435 39.4369C36.9519 35.302 32.1173 28.6354 31.976 28.7198C28.5833 30.4919 27.2262 33.6705 26.2084 36.0333C24.6534 39.5776 23.1267 43.1218 21.6 46.6661C21.5435 46.8067 27.0566 51.7011 31.1561 51.673C31.2691 51.673 31.4105 51.7011 31.5236 51.6449C31.6084 51.6168 31.6932 51.5605 31.7781 51.5324C34.7749 50.0134 38.5068 43.5156 38.8461 41.6591C39.0723 40.5339 37.9414 40.5621 37.7435 39.4369Z" fill="#FFEACF"/>
<path d="M59.8807 26.0757C57.9299 23.966 54.4524 21.8844 51.4273 21.8563C49.0524 21.8282 47.8367 23.4878 46.0273 24.8661C45.066 25.5975 44.1331 26.582 43.0587 27.1727C41.6734 27.9322 40.288 27.2008 38.8179 27.3133C38.8179 27.3133 38.8179 27.3133 38.7896 27.3133C36.1037 27.2852 33.0786 27.7634 30.8451 29.423C28.7247 31.0263 27.4807 33.0516 26.8304 35.4707C26.8022 35.527 26.8304 35.5832 26.8304 35.6395C26.8304 35.7239 26.8587 35.8083 26.9718 35.8645C29.488 37.5241 31.5802 39.9714 34.4074 40.9559C35.7079 41.4059 36.0189 42.6717 36.7823 43.7688C37.6022 44.9502 40.1184 49.7884 45.5184 49.5633C47.8933 49.4508 50.0985 50.6041 52.4168 50.4635C58.976 50.1259 69.0692 46.1035 69.0409 44.5282C68.4189 36.1458 62.0577 28.4666 59.8807 26.0757Z" fill="#FFEACF"/>
<path d="M46.1969 29.0292C44.9529 28.3541 44.6137 26.9758 44.1613 25.71C43.7089 24.4442 43.2566 23.2065 42.8042 21.9407C42.6911 21.6594 42.3801 21.6032 42.1822 21.6876C40.0901 21.7157 37.9979 21.4625 35.9341 21.997C35.8493 22.0251 35.7644 22.0814 35.7079 22.1376C35.4817 22.1939 35.3121 22.3908 35.3686 22.6721C35.7362 24.2192 36.1885 25.71 36.7257 27.2008C37.2629 28.6073 38.1958 30.2106 37.7152 31.7296C37.4042 31.7859 37.1781 32.1797 37.489 32.4328C40.6555 35.0488 44.444 32.7141 46.2534 29.7606C46.2817 29.7325 46.2817 29.6762 46.31 29.6481C46.4513 29.4512 46.4513 29.198 46.1969 29.0292Z" fill="#FFA875"/>
<path d="M45.5749 26.7227C45.4052 26.582 44.8398 26.6945 44.8398 26.9196C44.9811 28.8042 43.4262 30.7732 41.8429 31.364C39.3267 32.3203 37.2911 31.167 37.0649 28.6917C37.0366 28.326 36.1885 27.9322 36.2167 28.2979C36.245 28.6636 33.8419 34.0081 35.5382 35.6958C37.2628 37.3835 40.4576 37.7492 42.7194 37.2148C47.7235 36.0615 49.5612 30.1825 45.5749 26.7227Z" fill="#FFEACF"/>
<path d="M68.3623 28.2134C67.3162 26.9194 66.4115 28.9166 66.0722 29.7323C65.5633 31.0544 65.224 32.4608 64.8848 33.8391C64.6303 34.9362 64.4042 35.9769 64.7717 37.0458C64.8565 37.299 66.6377 37.8053 66.8356 37.6928C69.3235 38.4804 69.578 29.7604 68.3623 28.2134Z" fill="#FFEACF"/>
<path d="M44.6419 19.5497C44.5571 17.9464 44.444 16.6806 44.0199 15.2741C42.6346 10.8579 35.7362 10.014 33.2199 13.9239C32.6262 14.8241 32.3435 15.9211 32.4849 16.99C32.5697 17.7213 32.8807 18.3402 33.2482 18.9028C33.6157 19.4935 34.4356 21.2937 34.577 22.0251C35.1142 24.5286 36.5561 25.4287 39.1006 25.7381C41.1927 25.9913 43.7372 25.4287 44.3027 23.0658C44.6419 21.6313 44.6985 20.7874 44.6419 19.5497Z" fill="#FFA875"/>
<path d="M74.0168 26.1037C73.1403 25.4567 70.9068 26.9194 69.8608 26.6944C68.4471 26.4131 67.0618 26.1037 65.6482 25.8224C65.3937 25.7662 65.2241 25.9068 65.1676 26.0756C62.9623 27.6227 62.4252 31.195 61.9163 33.6141C61.8314 34.0361 67.3163 35.1331 69.8608 35.0487C71.9812 34.9924 73.9885 34.6549 74.4974 32.4046C74.7519 31.4201 75.4869 27.1445 74.0168 26.1037Z" fill="#FFA875"/>
<path d="M43.5109 17.3275C43.6806 16.9337 43.7088 16.4274 43.5392 16.0336C43.3696 15.6679 43.0586 15.5273 42.7193 15.7804C42.4083 16.0055 42.3235 16.5399 42.3518 16.9056C42.4083 17.2431 42.7759 17.8339 43.1999 17.6369C43.3413 17.5526 43.4261 17.4682 43.5109 17.3275Z" fill="#300A12"/>
<path d="M38.1109 17.2149C38.2805 16.793 38.2805 16.2586 38.0826 15.8366C37.8847 15.471 37.5172 15.3303 37.1496 15.6116C36.8104 15.8648 36.7256 16.4273 36.8104 16.793C36.8669 17.1587 37.3193 17.7494 37.7999 17.5244C37.9413 17.4681 38.0544 17.3556 38.1109 17.2149Z" fill="#300A12"/>
<path d="M37.9698 13.2769C37.4326 13.3895 36.952 13.6708 36.5279 14.0364C36.2734 14.2896 35.4535 15.0491 35.8211 15.5273C35.9624 15.7242 36.2734 15.8367 36.4713 15.7804C37.263 15.6116 38.5352 15.3585 39.1006 14.7397C39.3834 14.4584 39.4116 13.8958 39.1855 13.5301C38.931 13.1363 38.3656 13.1926 37.9698 13.2769Z" fill="#BD4A4A"/>
<path d="M44.2177 15.3866C44.2177 15.3304 44.2177 15.3022 44.2177 15.246C44.1612 14.7397 43.7371 14.2896 43.3695 13.9802C42.9455 13.6145 42.38 13.502 41.9842 13.952C41.7015 14.2615 41.5601 14.9084 41.9842 15.1616C42.2104 15.3022 42.8324 15.5554 43.624 15.7804C44.0481 15.8648 44.1612 15.6398 44.2177 15.3866Z" fill="#BD4A4A"/>
<path d="M31.4387 29.7604C31.5518 29.9011 31.6931 30.0136 31.8345 30.098C32.6261 30.6606 33.5025 30.6043 34.4073 30.7731C35.1423 30.9137 35.8209 31.2231 36.5277 31.4482C37.3193 31.7013 38.3088 31.9264 39.0722 31.4482C39.8073 30.97 39.2418 29.9011 38.7612 29.5917C37.2062 28.5228 35.1141 24.6691 34.7465 23.4877C33.9549 21.0967 33.4743 18.8745 33.7287 16.3711C33.7287 16.3148 33.7287 16.2585 33.757 16.2023C33.7853 15.9773 30.6753 14.177 30.6753 14.177C29.1203 17.6087 28.8942 20.3091 29.0073 22.9532C29.0638 24.2472 29.3465 25.5411 29.6575 26.8069C29.8837 27.7352 30.7601 29.0291 31.4387 29.7604Z" fill="#BD4A4A"/>
<path d="M42.2388 10.6047C39.6377 9.28263 35.7644 9.2545 33.3047 11.1391C30.3644 13.3613 29.0922 16.5962 29.4032 20.9843C29.4032 21.1249 31.6649 19.184 32.5696 18.8746C32.6262 18.9027 33.1351 19.5778 33.2199 19.5216C36.245 17.2712 38.2524 14.374 40.1749 11.5611C40.4011 11.2235 41.4189 11.3642 41.7299 11.1954C41.9843 11.1954 42.5498 10.7453 42.2388 10.6047Z" fill="#BD4A4A"/>
<path d="M67.0053 27.1726C67.175 26.2162 67.288 25.4286 67.6556 24.416C67.7404 24.1628 67.1184 23.8534 66.864 23.7971C64.0367 22.897 59.0043 22.3063 56.5163 21.8562C54.3959 21.4624 51.0032 21.2374 48.5435 22.8126C48.4022 22.897 49.9854 27.9602 50.7488 30.0699C51.1163 31.1388 51.5969 33.9517 58.8064 36.7927C59.5414 37.074 64.1781 37.6366 66.1006 37.7491C66.4116 37.7772 66.9771 37.7772 67.288 37.7491C67.7121 37.7491 68.1928 37.4115 67.8252 37.2428C67.0901 36.9334 66.1572 31.5889 67.0053 27.1726Z" fill="#FFEACF"/>
<path d="M22.6179 51.7854C22.1938 50.5196 21.5718 50.0414 20.4692 49.5632C17.0483 48.1568 12.9205 43.6843 11.8462 41.8278C11.7331 41.6309 11.5634 41.659 11.3373 41.6871C10.5739 41.7153 9.7823 41.884 9.35821 41.9684C8.53832 42.1372 7.74669 42.3622 7.01161 42.756C6.78544 42.8685 6.67235 43.1217 6.75716 43.3749C6.87025 43.7405 6.70062 44.05 6.9268 44.5C7.85978 46.6097 10.0367 49.507 11.62 51.1947C13.2881 52.995 22.0242 60.8429 25.2755 56.483C25.3886 56.2861 23.1268 53.2481 22.6179 51.7854Z" fill="#FFA875"/>
<path d="M13.7687 44.9219C12.7509 43.628 11.4221 41.4058 11.5069 40.5619C11.6483 38.8742 12.4399 37.3271 12.6095 35.6675C12.8357 33.6141 11.4504 30.2668 10.6022 28.4102C10.2912 27.7633 9.69749 26.2162 8.65142 27.0882C8.51006 27.2007 8.45351 27.4257 8.39697 27.7351C7.77498 28.0727 7.69016 28.7197 7.63362 29.3948C7.46398 31.6451 7.20953 33.9798 6.87026 36.2301C6.61581 37.9178 6.27655 39.5774 6.13519 41.2652C5.99383 43.0373 6.89854 44.6969 8.0577 46.0752C8.22733 46.3003 14.9561 46.4128 13.7687 44.9219Z" fill="#FFA875"/>
<path d="M33.9832 19.6622C33.644 18.9871 32.6544 18.4526 32.089 19.184C31.4387 20.0279 32.4565 21.378 33.0785 21.9125C33.3047 22.1094 33.5874 22.2782 33.8701 22.3626C34.0115 22.4188 34.2094 22.5032 34.379 22.4751C34.5769 22.4469 34.5769 22.3626 34.69 22.1938C34.7183 22.1657 34.7183 22.1375 34.7183 22.1094C34.7183 22.0813 34.7183 22.0531 34.69 22.025C34.4356 21.3499 34.2094 20.6748 34.068 19.9716C34.068 19.8591 34.0115 19.7466 33.9832 19.6622Z" fill="#FFA875"/>
<path d="M48.2891 26.6381C48.2609 26.3005 48.2326 25.9911 48.2043 25.6536C48.176 24.9222 48.1195 24.1627 48.0064 23.4314C47.8368 22.1656 47.5541 20.9279 47.2996 19.6621C46.9886 18.0869 46.5928 16.5398 45.9991 15.1052C45.8577 15.2459 45.7446 15.4428 45.6881 15.5553C45.5184 16.1179 45.3771 16.6804 45.264 17.243C45.0378 18.2557 44.953 19.2402 44.8965 20.281C44.8116 21.5186 44.6137 22.7563 44.331 23.9658C44.1897 24.6409 44.0766 25.5411 44.3593 26.2724C44.6986 27.1725 45.264 27.1163 46.0273 27.6226C46.4232 27.9039 46.9603 28.0727 47.4692 28.0727C47.8933 28.0727 48.2609 27.9602 48.2891 27.5101C48.3174 27.2007 48.3174 26.9194 48.2891 26.6381Z" fill="#BD4A4A"/>
<path d="M46.9319 44.0501C49.8722 46.3567 53.4345 47.735 57.1665 48.0163C57.3361 48.0163 57.3361 47.735 57.1665 47.735C53.5194 47.4537 50.0136 46.1035 47.1298 43.8532C46.9885 43.7407 46.7906 43.9376 46.9319 44.0501Z" fill="#28131E"/>
<path d="M50.6074 54.1764C56.7991 54.6546 63.019 53.2482 68.3624 50.1259C68.5321 50.0415 68.3907 49.7883 68.2211 49.8727C62.9059 52.9669 56.7425 54.3733 50.6074 53.8951C50.4378 53.867 50.4378 54.1483 50.6074 54.1764Z" fill="#28131E"/>
<path d="M46.6775 28.4666C46.9885 30.2669 46.1403 32.0671 44.5571 32.9954C44.3874 33.0798 44.5571 33.3329 44.6984 33.2485C46.3665 32.264 47.2712 30.3231 46.9319 28.4104C46.9037 28.2135 46.6492 28.2697 46.6775 28.4666Z" fill="#28131E"/>
<path d="M43.4262 24.3317C42.6911 25.2318 41.6451 25.485 40.5142 25.5694C39.355 25.6537 38.1676 25.5694 37.1215 25.0349C36.9519 24.9505 36.8105 25.2037 36.9801 25.2881C38.1676 25.8788 39.4681 25.9632 40.7686 25.8506C41.8712 25.7381 42.9173 25.4568 43.6241 24.5567C43.7372 24.3879 43.5393 24.191 43.4262 24.3317Z" fill="#D1684D"/>
<path d="M41.2209 16.6805C41.4754 16.8774 41.7298 17.1587 41.7864 17.4962C41.8429 17.89 41.6167 18.2557 41.3906 18.537C41.2775 18.6776 41.4754 18.8745 41.5885 18.7339C41.8712 18.3963 42.0974 18.0025 42.0691 17.5525C42.0408 17.1305 41.7015 16.7648 41.3906 16.5117C41.2775 16.371 41.0796 16.5679 41.2209 16.6805Z" fill="#D1684D"/>
<path d="M40.2597 18.5369C40.4011 18.34 40.599 18.2557 40.8535 18.2557C41.0231 18.2557 41.0231 17.9744 40.8535 17.9744C40.5425 17.9744 40.2597 18.0869 40.0618 18.34C39.9488 18.4807 40.1467 18.6776 40.2597 18.5369Z" fill="#D1684D"/>
<path d="M42.6346 20.5061C42.6346 20.3655 42.6063 20.253 42.5781 20.1404C42.5498 20.0279 42.465 19.9154 42.3802 19.831C42.2953 19.7748 42.154 19.7748 42.0409 19.7466C41.4472 19.7185 40.8535 19.7466 40.288 19.8029C39.9205 19.8591 39.5247 19.9154 39.1854 20.1123C38.7048 20.3936 38.3372 21.0124 38.5351 21.575C38.8179 22.3626 41.1362 22.0532 41.7582 21.9969C42.2388 21.9407 42.4933 21.575 42.5498 21.1249C42.6063 20.9562 42.6346 20.7311 42.6346 20.5061Z" fill="#692828"/>
<path d="M40.8253 20.7873C41.3059 20.7873 42.0127 20.8154 42.2389 20.3091C42.2954 20.1685 42.2954 19.9997 42.2671 19.8309C42.1823 19.8028 42.1258 19.8028 42.041 19.8028C41.4472 19.7747 40.8535 19.8028 40.2881 19.859C39.9205 19.9153 39.5247 19.9716 39.1855 20.1685C38.9876 20.281 38.8179 20.4497 38.7048 20.6185C39.4116 20.731 40.1184 20.7873 40.8253 20.7873Z" fill="white"/>
<path d="M34.0963 22.8408C34.6334 24.6129 35.2271 26.4132 36.5842 27.7353C36.7256 27.8759 36.9235 27.6509 36.7821 27.5383C35.4533 26.2444 34.8879 24.5004 34.379 22.7564C34.2942 22.5877 34.0397 22.6439 34.0963 22.8408Z" fill="#9C2F2F"/>
<path d="M44.3025 16.3431C44.868 17.4401 45.2355 18.6778 45.5183 19.8873C45.9989 21.8001 46.2816 23.7691 46.2816 25.7381C46.2816 25.9069 46.5643 25.9069 46.5643 25.7381C46.5643 23.741 46.2816 21.7438 45.7727 19.8029C45.4617 18.5934 45.0942 17.3276 44.5287 16.2024C44.4722 16.0336 44.2177 16.1743 44.3025 16.3431Z" fill="#9C2F2F"/>
<path d="M43.6524 69.2535C42.3801 64.6403 38.5351 61.293 33.8985 60.3928C33.8985 60.1397 33.7288 59.8865 33.4178 59.9709C28.555 61.293 25.6147 63.6558 21.2608 67.0313C19.6775 68.2689 18.9142 70.0973 19.1403 72.1507C19.3665 74.1479 20.5822 75.3856 22.0807 76.7639C23.7205 78.2547 23.7205 78.6485 25.7843 78.4235C28.5267 78.1141 31.2126 77.2702 33.8702 76.5107C36.6409 75.7231 39.6095 74.9636 42.2105 73.6978C44.1896 72.7414 44.1896 71.2225 43.6524 69.2535Z" fill="#FFA875"/>
<path d="M59.202 71.9538C58.5518 70.6318 57.4209 69.7316 55.9224 69.6473C55.8094 69.6473 55.7245 69.6754 55.6397 69.7316C55.6114 69.7316 55.5549 69.7316 55.5266 69.7316C48.8261 71.0256 42.069 72.4883 35.312 73.2759C33.6722 73.4728 31.7779 73.6697 30.1947 73.1352C28.5549 72.6008 27.5371 71.2787 26.3779 70.1254C24.6533 68.3815 26.3497 63.7402 24.201 64.9778C20.9214 66.8344 19.7905 68.7471 19.3947 69.4504C18.49 71.0537 18.8858 73.1352 19.5361 74.7386C21.2889 79.1267 23.3528 81.8271 28.1591 82.3053C30.6188 82.5584 33.1067 82.3053 35.5381 82.1646C40.7685 81.8271 43.7371 80.8144 48.8261 79.5486C51.0879 78.9861 53.3497 78.3672 55.5266 77.6077C56.6575 77.2139 58.7214 76.7076 59.2303 75.4699C59.7109 74.401 59.6826 72.9383 59.202 71.9538Z" fill="#FFA875"/>
<path d="M59.2021 71.954C58.5518 70.632 57.4209 69.7318 55.9225 69.6475C55.8094 69.6475 55.7246 69.6756 55.6398 69.7318C55.6115 69.7318 55.555 69.7318 55.5267 69.7318C52.0209 70.4069 48.4869 71.1383 44.9529 71.7853C45.9424 73.0229 46.3665 74.6544 46.4513 76.2296C46.5361 77.411 46.4513 78.5925 46.3099 79.7458C46.2817 79.8583 46.2534 80.0833 46.1969 80.2802C46.1686 80.3927 46.2817 80.5052 46.3948 80.4771C47.2147 80.2521 48.1476 80.027 48.9675 79.8301C51.2293 79.2676 53.4346 78.6206 55.6398 77.8611C56.7707 77.4673 58.7497 76.736 59.2586 75.4983C59.711 74.4013 59.6827 72.9385 59.2021 71.954Z" fill="#FFEACF"/>
<path d="M36.4148 12.0673C34.5771 13.6988 33.6724 16.0335 33.2483 18.3963C33.22 18.5651 33.4745 18.6495 33.531 18.4807C33.9551 16.146 34.8315 13.8675 36.6127 12.2642C36.754 12.1517 36.5561 11.9548 36.4148 12.0673Z" fill="#9C2F2F"/>
<path d="M58.8911 59.9711C57.2513 58.6491 55.4419 57.552 53.5194 56.6519C51.8513 55.8643 49.9853 54.8798 48.1759 55.7518C48.1194 55.7799 48.3173 54.9642 48.3173 54.936C43.0869 55.8643 36.0471 58.1146 32.4848 59.8586C32.1173 60.0274 31.9476 60.1961 32.2869 60.3931C34.7183 61.6589 36.556 63.7685 37.8565 66.272C39.044 68.6067 39.7508 71.1383 40.4293 73.6418C44.6419 73.2761 54.1979 72.151 57.4209 70.8008C60.6157 69.4506 63.3298 73.1073 64.3476 69.3099C65.2806 65.7657 61.3508 61.9401 58.8911 59.9711Z" fill="#584FC6"/>
<path d="M31.9759 15.4147C31.8346 16.4555 31.8911 17.4962 32.2021 18.5089C32.2586 18.6776 32.5414 18.6214 32.4848 18.4245C32.2021 17.4681 32.1173 16.4836 32.2586 15.4709C32.2586 15.3303 31.9759 15.2459 31.9759 15.4147Z" fill="#9C2F2F"/>
<path d="M31.7497 26.1036C32.0607 27.5663 33.022 28.6352 34.1529 29.5354C34.2943 29.6479 34.4922 29.451 34.3508 29.3385C33.2764 28.4665 32.3152 27.4257 32.0042 26.0192C31.9759 25.8505 31.7215 25.9349 31.7497 26.1036Z" fill="#9C2F2F"/>
<path d="M67.2597 37.6084C63.6974 37.6647 60.1351 36.6521 56.912 35.1893C56.7424 35.105 56.601 35.3581 56.7707 35.4425C60.022 36.9333 63.6408 37.9741 67.2597 37.9179C67.4293 37.8897 67.4293 37.6084 67.2597 37.6084Z" fill="#28131E"/>
<path d="M73.0556 23.0657C72.0661 20.9279 71.1896 18.6495 70.087 16.5398C69.5216 15.4428 67.797 11.8985 67.2033 10.8296C66.8923 10.2952 62.5101 13.2487 62.9342 14.0363C64.6022 17.243 67.7404 28.8884 68.2776 30.3792C68.6734 31.5044 68.9844 32.6858 69.6064 33.7266C70.1436 34.5986 71.3876 34.6548 72.2923 34.5704C74.6106 34.3454 75.8263 32.7139 75.6567 30.7168C75.4588 28.157 74.2713 25.738 73.2252 23.4595C73.1404 23.2907 73.0839 23.1782 73.0556 23.0657Z" fill="#FFA875"/>
<path d="M58.6083 70.3224C58.6365 70.3224 58.6648 70.3224 58.6931 70.3224C58.9193 70.0692 59.1454 69.816 59.3433 69.5629C61.492 66.6937 62.5098 63.1214 63.2166 59.6615C63.6407 57.5799 63.98 55.4703 63.98 53.3325C63.98 52.6574 63.9517 52.0104 63.8669 51.3353C60.4177 47.8755 52.3318 42.2778 48.0627 41.3777C46.2533 40.9839 44.1611 40.6744 42.4083 41.4339C40.7685 42.1372 39.5245 43.6842 38.6198 45.147C37.7151 46.6378 37.0648 48.7193 37.5172 50.4633C38.5632 54.542 42.2669 57.7487 45.2638 60.4491C49.2784 64.0777 53.3496 67.6782 58.0994 70.3786C58.2973 70.5474 58.4952 70.463 58.6083 70.3224Z" fill="#FFA875"/>
<path d="M66.8356 53.192C65.5916 51.9262 61.7466 48.7758 58.8345 47.0037C58.7497 46.9474 58.6366 47.0599 58.6932 47.1443C59.1738 47.9882 59.5696 48.9727 59.824 49.9009C60.8701 53.614 60.1633 57.9177 57.7602 60.9556C56.29 62.8403 54.3392 64.2467 52.3602 65.5406C52.134 65.6813 51.9078 65.8501 51.6816 66.0188C53.7172 67.6222 57.9864 73.2761 60.2481 74.57C60.446 74.6826 64.6586 73.698 64.8 73.5574C67.7685 74.0637 70.8785 69.8444 71.8398 67.5941C73.3099 64.1061 73.8471 60.393 66.8356 53.192Z" fill="#584FC6"/>
<path d="M63.6974 78.8173C63.5843 78.5923 63.3299 78.6204 63.2168 78.7892C59.0607 77.6921 54.6785 79.5205 50.4943 79.6893C48.4586 79.7737 46.3948 79.633 44.3874 79.9987C43.2283 80.2237 42.1539 80.6175 40.9948 80.8426C40.4576 80.927 39.7791 81.2645 39.5246 81.7427C39.1571 82.3897 39.044 83.2335 38.9874 83.9649C38.9309 84.64 39.4115 84.7525 39.977 84.8931C41.023 85.1182 42.0974 85.1463 43.1435 85.2307C44.6702 85.3432 46.3382 85.4557 47.8932 85.287C50.7487 84.9494 53.4346 83.9368 56.2901 83.6836C57.8733 83.543 59.3435 83.4023 60.9267 83.3742C61.6901 83.3742 62.9058 83.5992 63.5843 83.1773C64.9414 82.3615 64.1497 79.8862 63.6974 78.8173Z" fill="#FFEACF"/>
<path d="M62.1142 78.4799C59.8524 71.2789 55.8943 61.8557 52.643 55.0204C51.0597 51.673 49.7309 48.7758 47.8367 45.5972C47.1299 44.4158 46.4796 43.0093 45.1508 42.4186C43.9916 41.8842 41.1927 42.1655 40.9665 42.3624C38.6765 44.247 37.5173 46.5255 37.4325 49.1696C37.3477 52.095 39.2136 55.1892 40.5707 57.6645C44.0199 63.9654 47.9215 70.0131 51.5969 76.1734C51.71 76.3421 51.8796 76.3984 52.021 76.3703C54.5655 77.3548 62.1707 78.6487 62.1142 78.4799Z" fill="#FFA875"/>
<path d="M56.6011 63.8808C54.1414 66.5531 49.4765 67.4813 45.9142 66.5531C45.7728 66.525 45.6597 66.6656 45.7445 66.7781C47.6388 69.8723 49.4482 73.1634 51.2859 76.2576C51.399 76.4263 51.5686 76.4826 51.71 76.4545C54.2262 77.4671 62.4817 78.6767 62.4252 78.5079C61.0681 74.2042 58.9194 68.8034 56.8838 63.9371C56.799 63.7964 56.6576 63.7964 56.6011 63.8808Z" fill="#FFEACF"/>
<path d="M63.7539 78.8456C63.7539 77.7767 63.1601 76.3984 62.934 75.7233C62.4533 74.2606 61.7465 73.051 61.0963 72.9104C60.7005 72.826 60.3895 72.8541 60.5591 73.2198C61.0397 74.2887 57.5622 74.345 57.2512 74.345C56.4031 74.4012 55.6963 74.4012 54.9612 74.8232C54.7633 74.9357 54.5654 75.0763 54.3675 75.2451C54.0282 74.4012 50.0984 74.8794 49.4198 75.3857C47.6387 76.7359 45.6031 78.4799 43.3696 79.2394C42.6062 79.4926 41.7863 79.7176 41.0512 80.1114C40.712 80.3083 39.157 81.3772 39.8355 81.8554C39.9203 81.9117 40.0617 81.9398 40.1748 81.9679C44.9245 82.7836 49.8439 82.868 54.4523 81.3772C55.7528 80.9553 56.9402 80.5052 58.3256 80.3927C59.5978 80.2802 60.8418 80.4489 62.1141 80.3927C62.4816 80.3646 62.934 80.2802 63.245 80.0551C63.6408 79.7739 63.7539 79.3519 63.7539 78.8456Z" fill="#28131E"/>
<path d="M61.6335 49.3102C64.489 51.3354 67.1749 53.5858 69.6911 56.033C69.8325 56.1736 70.0304 55.9486 69.889 55.8361C67.3728 53.3607 64.6586 51.1104 61.7749 49.057C61.6335 48.9445 61.4921 49.1976 61.6335 49.3102Z" fill="#28131E"/>
<path d="M62.5948 51.673C63.443 55.611 62.3687 59.8022 59.7393 62.8683C59.6262 63.0089 59.8241 63.2058 59.9372 63.0652C62.6231 59.9147 63.7257 55.6391 62.8493 51.5886C62.821 51.4198 62.5383 51.5042 62.5948 51.673Z" fill="#28131E"/>
<path d="M51.3141 50.8011C53.3497 54.711 54.9047 58.8459 56.0073 63.1215C56.0639 63.2903 56.3183 63.2341 56.2901 63.0372C55.1874 58.7334 53.6042 54.5985 51.5686 50.6604C51.4838 50.4916 51.2576 50.6323 51.3141 50.8011Z" fill="#D1684D"/>
<path d="M37.2064 60.8993C39.553 63.5153 41.1645 66.6939 41.8713 70.1256C41.8996 70.2944 42.1823 70.2382 42.154 70.0412C41.4189 66.5533 39.7791 63.3466 37.4043 60.7024C37.2912 60.5618 37.0933 60.7587 37.2064 60.8993Z" fill="#28131E"/>
<path d="M48.7413 71.7009C49.5046 72.9104 50.2962 74.1199 51.0596 75.3295C51.1444 75.4701 51.3989 75.3295 51.314 75.1888C50.5507 73.9793 49.7591 72.7698 48.9957 71.5602C48.8826 71.4196 48.6564 71.5602 48.7413 71.7009Z" fill="#28131E"/>
<path d="M55.0179 75.7514C54.5655 77.1579 53.4064 78.1143 52.3038 79.0144C52.1624 79.1269 52.3603 79.3238 52.5017 79.2113C53.6608 78.283 54.7917 77.2704 55.2723 75.8358C55.3572 75.667 55.0744 75.5826 55.0179 75.7514Z" fill="#28131E"/>
<path d="M30.9864 3.96623C37.1497 3.90997 43.3131 3.82558 49.4764 3.76933C49.646 3.76933 49.646 3.48804 49.4764 3.48804C43.3131 3.5443 37.1497 3.62868 30.9864 3.68494C30.8167 3.71307 30.8167 3.99436 30.9864 3.96623Z" fill="#28131E"/>
<path d="M7.57695 34.5987C7.69004 33.8392 7.66177 33.0516 7.91622 32.3203C8.05758 31.8702 8.53821 31.0545 9.01884 31.6452C9.18847 31.8421 9.27329 32.2077 9.32983 32.4609C9.49946 33.2766 9.32983 34.1768 9.27329 34.9925C9.21674 36.1739 9.13192 37.3553 9.07538 38.5649C9.07538 38.7337 9.3581 38.7337 9.3581 38.5649C9.44292 36.9334 9.55601 35.2738 9.64083 33.6423C9.6691 32.911 9.69737 32.039 9.21674 31.4201C8.8492 30.9701 8.36857 31.1388 8.02931 31.5327C7.37905 32.3203 7.46386 33.5579 7.3225 34.5143C7.29423 34.6831 7.54868 34.7675 7.57695 34.5987Z" fill="#D1684D"/>
<path d="M68.3623 13.1643C68.1362 12.658 66.0723 7.42604 62.199 6.0196C62.0576 5.87895 61.888 5.73831 61.7466 5.62579C61.3225 5.26011 60.8702 4.92257 60.4461 4.55689C60.022 4.19121 59.089 3.60051 58.4953 3.60051C58.4105 3.60051 58.2974 3.60051 58.1843 3.62863C58.0995 3.54425 58.0147 3.45986 57.9581 3.31922C57.8733 3.15044 57.732 2.98167 57.5341 2.89728C57.0817 2.61599 56.3466 2.44722 55.9225 2.8129C55.7812 2.72851 55.6398 2.64412 55.4985 2.61599C54.8199 2.44722 52.7843 2.16593 53.067 3.34735C53.9718 7.0885 56.6859 10.3796 60.1068 12.1236C61.3508 12.7705 62.9058 13.6144 63.2451 14.6833C63.3016 14.8802 68.8712 14.3176 68.3623 13.1643Z" fill="#FFA875"/>
<path d="M9.16021 27.9321C10.4325 30.2949 10.9696 32.939 10.7435 35.6113C10.7152 35.78 10.9979 35.78 11.0262 35.6113C11.2806 32.8828 10.7152 30.1824 9.41466 27.7914C9.30157 27.6508 9.07539 27.7914 9.16021 27.9321Z" fill="#D1684D"/>
<path d="M54.7068 3.85383C55.2157 4.44454 55.7529 5.06338 56.1487 5.73847C56.488 6.32918 56.7142 6.97615 57.1383 7.5106C57.732 8.27008 58.7215 8.69201 59.711 8.55137C60.2482 8.46698 60.8985 7.87627 60.7854 7.28556C60.7006 6.8355 60.1634 6.49795 59.8524 6.24479C59.287 5.79473 58.043 5.17589 58.1843 4.3039C58.2126 4.13512 57.9299 4.05073 57.9016 4.21951C57.7885 4.97899 58.4105 5.48531 58.9477 5.90725C59.3435 6.21666 59.8807 6.46982 60.1917 6.86363C60.8137 7.65124 60.1634 8.24195 59.4 8.27008C58.043 8.29821 57.2796 7.31369 56.7707 6.21666C56.2901 5.26028 55.6681 4.44454 54.9613 3.6288C54.7917 3.51628 54.5938 3.71319 54.7068 3.85383Z" fill="#D1684D"/>
<path d="M39.6661 73.9229C37.5456 74.8512 35.3121 75.47 33.0221 75.7794C32.8524 75.8075 32.909 76.0888 33.1069 76.0607C35.4252 75.7232 37.687 75.1043 39.8357 74.1761C39.977 74.1198 39.8357 73.8666 39.6661 73.9229Z" fill="#D1684D"/>
<path d="M53.2367 77.2704C51.5686 76.0327 49.4199 75.7514 47.4974 76.5109C47.3278 76.5953 47.3843 76.8766 47.5822 76.8203C49.4482 76.089 51.4838 76.3703 53.0953 77.5517C53.2367 77.6642 53.378 77.411 53.2367 77.2704Z" fill="#FFEACF"/>
<path d="M51.0315 79.0143C49.5897 77.3829 47.3562 77.3829 45.4054 78.0017C45.2075 78.058 45.2923 78.3674 45.4902 78.3111C47.3279 77.7204 49.4483 77.6923 50.8054 79.2394C50.9467 79.38 51.1729 79.155 51.0315 79.0143Z" fill="#FFEACF"/>
<path d="M48.8829 79.7737C48.1478 79.2393 47.2996 79.0986 46.4232 79.0142C45.5467 78.9299 44.5855 78.7048 43.7373 79.0705C43.5677 79.1549 43.709 79.4081 43.9069 79.3237C44.642 78.9861 45.6598 79.2393 46.4232 79.3237C47.2431 79.4081 48.0347 79.5206 48.7132 80.0269C48.8829 80.1675 49.0242 79.8862 48.8829 79.7737Z" fill="#FFEACF"/>
<path d="M62.1141 75.0762C62.001 74.9918 61.8596 74.9637 61.7183 74.9355C61.5487 76.3139 60.3329 76.5389 59.1738 76.8483C58.2973 77.1015 57.4774 77.439 56.6576 77.861C56.5162 77.9453 56.601 78.1985 56.7706 78.1422C58.4387 77.5515 60.3612 77.8891 61.9727 77.1859C62.7644 76.8483 62.7361 75.5263 62.1141 75.0762Z" fill="#FFEACF"/>
<path d="M32.8805 41.5464C34.0114 42.4747 35.3119 43.206 36.6973 43.6842C36.8669 43.7405 36.9517 43.4592 36.7821 43.4029C35.425 42.9529 34.181 42.2496 33.0784 41.3495C32.9653 41.237 32.7392 41.4339 32.8805 41.5464Z" fill="#28131E"/>
<path d="M66.8638 35.0487C66.9486 35.7238 67.1182 36.3426 67.401 36.9615C67.4858 37.1302 67.712 36.9896 67.6554 36.8208C67.401 36.2582 67.2313 35.6675 67.1748 35.0487C67.1182 34.8799 66.8355 34.8799 66.8638 35.0487Z" fill="#28131E"/>
<path d="M7.29418 71.3913C10.2345 71.0256 13.1748 70.9413 16.1434 71.11C16.313 71.11 16.313 70.8287 16.1434 70.8287C13.1748 70.66 10.2345 70.7443 7.29418 71.11C7.09628 71.11 7.09628 71.3913 7.29418 71.3913Z" fill="#28131E"/>
<path d="M7.15284 11.8706C6.7853 20.253 5.68268 28.6354 6.13503 37.046C6.13503 37.2148 6.41776 37.2148 6.41776 37.046C5.9654 28.6354 7.03975 20.253 7.43556 11.8706C7.43556 11.6737 7.15284 11.6737 7.15284 11.8706Z" fill="#28131E"/>
</g>
<defs>
<clipPath id="clip0_70_1644">
<rect width="81" height="89" fill="white"/>
</clipPath>
</defs>
</svg>
