<svg width="120" height="75" viewBox="0 0 120 75" fill="none" xmlns="http://www.w3.org/2000/svg">
<path d="M111.021 45.6152C110.866 44.5357 110.609 43.4662 110.229 42.4128C109.21 39.5937 107.207 37.3529 105.758 34.7126C104.151 31.7844 102.879 28.6713 101.982 25.454C100.984 21.8694 100.424 18.1024 98.6522 14.8305C95.7599 9.48902 90.0847 6.27295 84.4293 4.05694C71.0401 -1.19026 54.9908 -2.07617 42.9467 5.78285C37.9675 9.03118 33.9598 13.5625 29.1841 17.1024C24.2558 20.7552 18.0383 23.9899 16.6487 29.9654C15.8446 33.4234 16.8968 37.2152 15.5704 40.5082C14.1771 43.9699 10.5453 45.9551 8.37275 48.9888C5.52891 52.9593 5.60212 58.781 8.54521 62.6794C10.6979 65.5307 14.0877 67.2442 17.5681 68.0495C21.0484 68.8547 24.659 68.8398 28.2312 68.8138C50.0724 68.6562 71.9285 68.2567 93.704 66.5568C94.5316 66.4923 95.3703 66.4266 96.1855 66.5792C97.8109 66.8844 99.1894 68.0271 100.821 68.3026C102.706 68.6202 104.628 67.6983 105.981 66.3496C108.117 64.2242 109.865 60.8481 110.681 57.9732C111.758 54.1814 111.581 49.5124 111.021 45.6152Z" fill="#FA8A6E"/>
<path d="M75.2563 15.461C73.9957 15.0155 72.6904 14.7128 71.3652 14.5416C71.0774 14.5043 70.7895 14.4746 70.5017 14.4522C70.0749 14.4187 69.715 14.1222 69.6034 13.709C69.3093 12.6171 68.2063 11.7945 67.1814 11.3578C65.4865 10.6369 63.5509 10.3949 61.7245 10.5686C61.0991 10.6282 60.48 10.7361 59.8733 10.8937C59.3832 11.0203 58.8794 10.756 58.6871 10.2882C58.1412 8.95564 56.9103 7.97171 55.5492 7.44687C53.5392 6.67263 51.1978 6.61679 49.0873 6.90589C48.3825 7.00267 47.6865 7.1466 47.0028 7.33892C46.6293 7.44314 46.2261 7.33892 45.968 7.04858C45.0139 5.97656 43.7284 5.19612 42.3375 4.80155C40.0074 4.14146 37.5147 4.67872 35.4984 5.97035C34.6845 6.49148 33.9512 7.12799 33.3109 7.84887C33.1149 8.06973 32.8332 8.19505 32.5379 8.19505C31.1743 8.19505 29.7921 8.4978 28.4782 8.86878C26.4234 9.4507 23.9891 10.0426 22.5733 11.7709C22.0299 12.4347 21.6614 13.2028 21.3599 13.9981C21.18 14.4733 20.6725 14.7488 20.1799 14.6247C19.4206 14.4336 18.6302 14.4262 17.8969 14.7823C16.8782 15.2761 16.2988 16.4995 16.7095 17.5864C17.016 18.3979 17.7741 18.9525 18.5545 19.3322C21.1626 20.6002 24.1702 20.398 26.9768 20.1809C28.297 20.0791 29.673 19.8694 30.9969 19.9724C32.5255 20.0915 34.0529 20.5308 35.5654 20.7789C36.9638 21.0072 38.3708 21.1846 39.7828 21.3087C42.3412 21.5333 45.0312 21.7281 47.5686 21.2181C48.7213 20.9861 49.8491 20.5705 50.8256 19.9066C51.3281 19.5654 51.7959 19.1597 52.3493 18.9004C52.9411 18.6237 53.5987 18.5753 54.2427 18.5939C59.7194 18.7515 65.123 20.0469 70.6171 19.6002C71.9348 19.4935 73.2487 19.2974 74.5329 18.9835C75.4623 18.7565 76.9251 18.4872 77.2924 17.4375C77.718 16.224 76.0826 15.7526 75.2563 15.461Z" fill="#FFE8DB"/>
<path d="M103.232 68.738C102.846 69.0246 102.425 69.2628 101.982 69.4651C101.913 69.4973 101.842 69.5284 101.769 69.5581C100.713 70.0085 99.5505 70.2703 98.4648 70.5123C96.5925 70.9304 94.6793 71.1687 92.766 71.2989C92.6965 71.3039 92.627 71.3076 92.5575 71.3126C88.5834 71.5694 84.5807 71.4094 80.604 71.294C76.3569 71.1686 72.1122 70.9937 67.8663 70.82C59.4117 70.4726 51.4162 71.0483 42.9529 71.1116C40.2729 71.1327 37.475 71.2692 34.6373 71.2679C34.5592 71.2679 34.481 71.2679 34.4028 71.2679C32.9623 71.2642 31.5131 71.2245 30.0651 71.1128C28.3454 70.9801 26.6257 70.8746 24.9172 70.6885C24.844 70.681 24.7708 70.6736 24.6975 70.6649C22.7942 70.4502 20.907 70.1289 19.0595 69.5519C17.4837 69.0593 15.9439 68.3893 14.7168 67.2714C13.6485 66.2986 12.8259 64.9412 13.0319 63.461C13.2316 62.0217 14.352 60.9063 15.6648 60.3467C16.3956 60.0365 17.1636 59.8988 17.9428 59.869C18.7046 59.8405 19.2357 59.1096 19.0124 58.3912C18.6811 57.3341 18.4615 56.2422 18.4292 55.1355C18.3833 53.5647 18.7617 51.9988 19.6241 50.6699C20.3946 49.485 21.4951 48.5011 22.7806 47.8844C24.1442 47.233 25.6653 47.0246 27.1617 47.2343C27.8752 47.3348 28.5725 47.5345 29.2276 47.8236C29.843 48.0954 30.5428 47.6673 30.549 47.0022C30.5564 46.1176 30.6545 45.2341 30.8431 44.3693C31.1545 42.94 31.729 41.5516 32.5789 40.3492C33.409 39.1742 34.4847 38.1928 35.7639 37.5054C36.9985 36.8428 38.3857 36.4495 39.7902 36.3875C40.1153 36.3738 40.3784 36.1406 40.4218 35.8279C40.4739 35.4445 40.562 35.0673 40.6749 34.705C40.9913 33.6925 41.5112 32.7409 42.2197 31.9406C43.2619 30.7643 44.7669 29.9839 46.3316 29.8784C47.0338 29.8313 47.545 29.2121 47.478 28.5198C47.4309 28.0247 47.4197 27.5272 47.4458 27.0309C47.4966 26.0507 47.679 25.068 48.0165 24.1424C48.323 23.3024 48.7697 22.4884 49.4422 21.878C50.3392 21.0653 51.4969 20.7178 52.6868 20.5987C53.1806 20.5491 53.5714 20.1806 53.6508 19.6979C53.7129 19.3133 53.7972 18.9311 53.9039 18.5564C54.1471 17.7028 54.4859 16.8231 55.0343 16.1121C55.5405 15.4545 56.2155 14.9892 57.0059 14.7225C57.7305 14.478 58.5159 14.4061 59.279 14.4346C59.31 14.416 59.341 14.3974 59.3708 14.38C60.748 13.5735 62.7866 13.0797 64.3338 13.2807C65.9518 13.4904 67.4258 14.0847 68.5847 15.2436C69.287 15.9458 69.4259 16.6556 69.9942 17.0241C71.6742 18.1147 72.8728 19.9126 73.3567 21.8209C73.5378 22.5368 73.6297 23.2614 73.6495 23.9897C73.657 24.2863 73.8418 24.5493 74.121 24.661C74.8034 24.9327 75.497 25.2082 76.0827 25.6437C77.1026 26.403 77.6721 27.5892 78.0381 28.7679C78.4215 30.0099 78.5592 31.3189 78.5592 32.6131C78.5592 34.2199 78.3458 35.8105 78.1398 37.4012C78.0021 38.4608 78.486 39.5192 79.4067 40.0812C79.4129 40.085 79.4178 40.0887 79.4253 40.0912C80.7244 40.8766 82.2617 40.9349 83.7444 40.925C84.3189 40.9212 84.9045 40.9064 85.4864 40.92C85.6117 40.9237 85.7383 40.9274 85.8636 40.9324C86.6776 40.9709 87.4816 41.0801 88.2496 41.3642C88.9866 41.6372 89.6418 42.0615 90.241 42.5603C90.818 43.043 91.3565 43.5864 91.8292 44.1696C92.2995 44.7527 92.7077 45.388 92.9596 46.0952C93.2077 46.7913 93.2623 47.532 93.1147 48.2542C92.9831 48.9081 92.7064 49.5049 92.3987 50.093C92.0067 50.8449 92.3156 51.7705 93.0861 52.1415C93.4112 52.2978 93.7288 52.4703 94.039 52.6564C95.9734 53.8215 97.7179 55.597 98.5964 57.6815C99.0195 58.6853 99.244 59.9732 98.9438 61.0564C98.7589 61.7227 99.1386 62.4212 99.8111 62.6123C99.8954 62.6347 99.9798 62.6607 100.062 62.6868C100.891 62.9461 101.69 63.3072 102.424 63.7625C103.097 64.1782 103.8 64.6695 104.233 65.3371C105.052 66.6002 104.32 67.9302 103.234 68.738H103.232Z" fill="#401820"/>
<path d="M92.766 71.2992C92.6965 71.3042 92.6271 71.3079 92.5576 71.3129C92.4769 70.6999 92.3231 70.0957 92.0973 69.5187C91.6717 68.433 91.0798 67.299 90.1108 66.6029C89.6827 66.2952 89.2063 66.0731 88.7931 65.7381C88.396 65.418 88.0449 65.0433 87.7508 64.6239C87.087 63.6784 86.8128 62.558 86.8091 61.4115C86.8041 60.0082 87.1503 58.6161 87.0275 57.2115C86.9121 55.8765 86.355 54.5985 85.6465 53.4756C84.4169 51.5251 82.5247 49.9382 80.2938 49.2868C79.9018 49.1726 79.2566 49.1627 79.0506 48.7408C78.9451 48.5237 78.9873 48.2681 79.0183 48.0386C79.0593 47.7383 79.1101 47.4405 79.166 47.144C79.4104 45.8412 79.7715 44.5222 79.6784 43.1859C79.5891 41.8806 78.9476 40.785 77.9376 39.9736C77.0604 39.2713 75.9946 38.9028 75.0243 38.3556C73.2401 37.3481 71.6023 35.956 70.6382 34.1196C70.1419 33.1729 69.8168 32.1108 69.756 31.04C69.6791 29.7013 70.0302 28.3873 70.0463 27.0535C70.0612 25.8152 69.7002 24.6092 68.9743 23.6029C68.6145 23.1041 68.1728 22.6748 67.6715 22.3212C67.4829 22.1884 67.2856 22.0532 67.1814 21.8398C67.071 21.6152 67.0797 21.3298 67.0561 21.0866C66.9333 19.7788 66.7918 18.3879 66.0982 17.2378C65.4927 16.2352 64.4443 15.4324 63.2308 15.4771C63.0832 15.4821 63.0844 15.2525 63.2308 15.2476C63.7395 15.229 64.2309 15.3431 64.6838 15.5751C65.6739 16.0776 66.3551 17.0194 66.7285 18.0443C66.9482 18.6497 67.0722 19.285 67.1591 19.9215C67.2062 20.2739 67.2422 20.6263 67.2757 20.9787C67.3092 21.331 67.2856 21.707 67.5685 21.9614C67.7906 22.1611 68.0574 22.31 68.2832 22.5073C68.4942 22.6897 68.689 22.887 68.8689 23.0991C69.2361 23.5309 69.5414 24.0148 69.7697 24.5322C70.2709 25.6638 70.3355 26.8537 70.2077 28.0709C70.0674 29.4233 69.8342 30.7423 70.1344 32.0922C70.3752 33.1717 70.8504 34.1829 71.5042 35.0725C72.8269 36.8692 74.7191 37.9908 76.6956 38.935C77.7106 39.4189 78.666 40.1373 79.2652 41.1014C79.9365 42.1796 80.001 43.4589 79.8447 44.686C79.764 45.3188 79.635 45.9429 79.5097 46.5682C79.4439 46.902 79.3757 47.237 79.3186 47.5733C79.2665 47.8822 79.1077 48.3686 79.2789 48.6552C79.4402 48.9257 79.8956 48.9406 80.1772 49.0163C80.4427 49.087 80.7033 49.1714 80.9601 49.2681C81.4813 49.4654 81.9838 49.7099 82.4602 49.999C84.4355 51.1951 85.9852 53.1108 86.7979 55.2685C87.2905 56.5725 87.3265 57.8691 87.1937 59.2427C87.0585 60.6298 86.8662 62.0555 87.3612 63.3968C87.762 64.4824 88.5586 65.382 89.5363 65.9862C90.0004 66.2741 90.4408 66.526 90.8205 66.9243C91.1977 67.3188 91.5054 67.7767 91.7647 68.2556C92.2859 69.2172 92.6258 70.2458 92.7623 71.2955L92.766 71.2992Z" fill="#70323F"/>
<path d="M69.6058 41.5453C69.5983 41.6917 69.37 41.6917 69.3762 41.5453C69.4221 40.5266 69.4693 39.4459 69.2 38.4496C69.1367 38.2175 69.0573 37.988 68.9556 37.7659C68.1479 36.0015 65.9306 35.2906 65.6676 33.2172C65.5249 32.0807 65.8934 30.9739 65.9542 29.8473C65.9778 29.3969 65.9567 28.9254 65.8438 28.4874C65.8971 28.3869 65.948 28.2815 65.9889 28.1772C66.1664 28.6909 66.2098 29.2629 66.1837 29.8064C66.1279 30.9814 65.711 32.1527 65.9157 33.3351C66.1043 34.427 66.9046 35.1441 67.6851 35.8539C68.4357 36.5375 69.0797 37.251 69.3775 38.2448C69.3923 38.2932 69.4047 38.3404 69.4172 38.3888C69.6926 39.4124 69.6529 40.4956 69.6058 41.5453Z" fill="#70323F"/>
<path d="M74.3766 54.6516C75.8022 54.9667 77.0393 55.9407 77.6473 57.2733C78.3619 58.8392 78.1349 60.6197 77.8656 62.26C77.7478 62.9809 77.6559 63.7563 78.0356 64.4201C78.3954 65.0492 79.053 65.4835 79.6114 65.9215C80.8943 66.9265 82.2319 67.9414 83.0942 69.3534C83.9987 70.8349 84.2618 72.8673 83.0235 74.2532C82.9168 74.3723 83.0917 74.5485 83.1984 74.4282C84.2035 73.3028 84.3313 71.6687 83.825 70.2902C83.2506 68.7281 82.0259 67.5407 80.7603 66.5158C80.0841 65.9686 79.3496 65.4711 78.7205 64.8705C78.4227 64.5864 78.1746 64.2588 78.0716 63.8519C77.945 63.3531 78.0232 62.8245 78.1051 62.3257C78.3719 60.6916 78.594 58.9571 77.9587 57.3751C77.3582 55.8787 76.0132 54.7595 74.4424 54.4121C74.2873 54.3774 74.2203 54.6169 74.3766 54.6516Z" fill="#70323F"/>
<path d="M57.3905 29.4937C56.5207 29.5669 55.8321 30.1997 55.5492 31.0087C55.244 31.8822 55.5455 32.8351 55.3234 33.7222C55.1733 34.324 54.7601 34.5647 54.2179 34.7843C53.7389 34.9779 53.2712 35.1975 52.822 35.4531C51.9262 35.9643 51.0763 36.6294 50.4981 37.4929C49.8752 38.4235 49.6022 39.5985 49.9931 40.6743C50.0477 40.8231 50.2871 40.7586 50.2325 40.6085C49.4571 38.4756 51.2872 36.6058 52.992 35.6429C53.4362 35.3923 53.899 35.1814 54.3705 34.9891C54.7278 34.8439 55.0802 34.6913 55.3085 34.3637C55.7775 33.6925 55.6423 32.7768 55.6547 32.0075C55.6708 30.9615 56.2254 29.8399 57.3905 29.7419C57.5481 29.7282 57.5493 29.4801 57.3905 29.4937Z" fill="#70323F"/>
<path d="M56.0157 41.435C57.2205 42.208 60.0941 46.8212 61.4887 47.1016C62.856 47.3758 63.7357 47.2034 65.1341 47.114C66.4121 47.0321 67.53 42.7602 68.5822 42.0021C69.3651 41.4387 72.663 41.2613 72.9261 40.3841C72.7201 40.3221 69.3787 39.2823 69.1765 39.2091C68.2658 38.8828 67.3228 38.4485 66.5336 37.843C65.5274 37.0713 65.4505 36.3963 65.5423 35.1716C65.7768 32.0461 67.123 30.2619 67.7633 27.1935C67.8427 26.8114 67.0188 25.1053 67.1044 24.7244C67.1615 24.4713 66.9034 24.3211 66.7185 24.3807C66.7272 24.367 66.7371 24.3534 66.7458 24.3397C66.9443 24.0283 66.4493 23.7417 66.252 24.0506C64.7122 26.4577 62.315 28.1216 59.9911 29.7011C59.6511 29.9319 59.3124 30.1614 58.9885 30.4145C58.8607 30.515 58.7379 30.6205 58.62 30.7309C58.4786 30.6515 58.2689 30.6925 58.2056 30.8538C58.1585 30.8649 58.115 30.8885 58.0828 30.927C57.9513 31.0883 57.9351 31.2918 58.0791 31.4531C58.1101 31.4878 58.429 31.2061 58.4699 31.2297C58.4612 32.0089 58.3657 33.9569 58.1969 35.3143C57.9339 37.4323 53.5912 38.0949 52.0477 38.6607C52.1159 39.1582 53.0254 40.4858 53.3741 40.8531C53.8356 41.3382 55.4511 41.0715 56.0157 41.4338V41.435Z" fill="#9C4A2F"/>
<path d="M47.3155 55.6556C45.4072 55.8032 44.0399 57.5614 43.1019 59.059C42.6378 59.7985 42.242 60.5814 41.9269 61.3954C41.6316 62.1535 41.4777 62.9414 41.2221 63.7082C41.1303 63.9849 41.0025 64.2653 40.7792 64.4613C40.5111 64.6983 40.1836 64.7057 39.8411 64.7057C39.0135 64.7033 38.2269 64.9849 37.5482 65.4514C36.1052 66.4428 35.3694 68.1129 34.9451 69.7557C34.8185 70.2458 34.7068 70.7545 34.6361 71.2694C34.5579 71.2694 34.4798 71.2694 34.4016 71.2694C34.4909 70.6006 34.6473 69.9405 34.8284 69.314C35.2937 67.701 36.0977 66.1153 37.5445 65.1797C38.1996 64.7579 38.9602 64.4911 39.7431 64.4787C40.0062 64.475 40.289 64.5109 40.5248 64.367C40.6849 64.2702 40.7978 64.1114 40.8809 63.9464C41.0633 63.5841 41.1266 63.1697 41.2308 62.7801C41.6911 61.0666 42.479 59.4375 43.5399 58.0143C44.4642 56.7735 45.6901 55.5539 47.3155 55.4285C47.4632 55.4186 47.4619 55.6469 47.3155 55.6581V55.6556Z" fill="#70323F"/>
<path d="M67.6652 22.1683C67.5374 21.2241 67.2731 20.8357 66.7868 20.0242C65.8326 18.4323 64.8028 17.5526 62.9491 17.1829C60.5817 16.7114 58.2416 17.5985 56.6882 19.4647C55.4524 20.9498 55.1397 22.9227 55.2141 24.7962C55.2662 26.1003 55.3221 27.4093 55.5442 28.6972C55.7303 29.7767 55.9536 31.2792 56.873 32.0063C57.476 32.484 58.2838 32.5262 59.022 32.4853C60.7169 32.3897 62.959 31.7681 64.34 30.7321C65.3537 29.9715 65.6651 28.8808 65.9679 27.7071C66.0237 27.4887 66.0746 27.2703 66.1217 27.0495C67.025 25.5791 67.9059 23.9451 67.6665 22.167L67.6652 22.1683Z" fill="#9C4A2F"/>
<path d="M84.51 59.8209C83.773 56.6284 83.1849 53.9298 81.9851 50.8763C81.9478 50.7832 80.5693 47.0472 79.0283 46.3239C77.661 45.6812 76.218 46.1986 75.6336 47.6056C75.2924 48.427 75.3048 49.3241 75.3234 50.1976C75.3482 51.2956 74.2538 52.5761 74.136 53.6692C74.0119 54.8182 73.662 55.9981 73.8245 57.162C74.126 59.3209 74.3891 61.4749 74.8333 63.6127C75.1869 65.3175 76.9984 73.6046 78.2417 74.2709C80.2927 75.369 83.5832 75.0662 84.9294 73.6356C86.6479 71.808 85.1366 62.5271 84.5125 59.8222L84.51 59.8209Z" fill="#BBC8F0"/>
<path d="M63.4963 22.0209C62.9379 22.3956 61.9428 22.4725 61.3113 22.3906C61.083 22.3608 60.9788 22.7405 61.0569 22.913C61.2306 23.2964 62.1786 23.1983 62.4888 23.1413C62.9801 23.0507 63.4628 22.7889 63.7816 22.3645C63.9218 22.1784 63.6787 21.898 63.495 22.0209H63.4963Z" fill="#1C0F10"/>
<path d="M57.8037 22.929C57.3757 23.1561 56.7714 23.3757 56.2491 23.2367C55.8334 23.1263 55.8669 23.5978 56.12 23.7963C56.156 23.8236 56.197 23.8422 56.2379 23.8571C56.8285 24.0792 57.4055 23.8894 57.9067 23.5457C58.0978 23.4142 57.9948 22.8285 57.805 22.929H57.8037Z" fill="#1C0F10"/>
<path d="M66.0349 29.4032C65.8066 30.0943 65.175 30.5956 64.5944 30.9927C64.0708 31.3512 63.4727 31.5721 62.8647 31.7384C61.5359 32.1007 60.1537 32.2123 58.7901 32.3711C58.6337 32.3898 58.6312 32.6379 58.7901 32.6193C60.2641 32.4468 61.7704 32.3364 63.196 31.9009C63.8276 31.7086 64.412 31.4393 64.9443 31.046C65.5014 30.6341 66.051 30.1452 66.2744 29.469C66.324 29.3176 66.0845 29.2519 66.0349 29.4032Z" fill="#5E2015"/>
<path d="M83.2828 55.2363C82.753 52.6406 81.8 50.1454 80.5891 47.7929C79.2565 45.2047 77.6757 42.2455 74.9237 40.9439C73.9448 40.4798 72.8777 39.8235 71.7957 39.6523C71.096 39.5418 71.1493 39.8706 70.6145 40.2888C68.8737 41.6486 66.2694 42.135 64.1166 42.2864C61.4813 42.4713 58.7925 42.0333 56.3817 40.9427C55.0454 40.3372 53.6868 39.4612 52.5527 38.5083C52.4373 38.4115 52.281 38.3805 52.1383 38.4301C51.4906 38.6547 49.6381 39.3135 48.7671 39.7788C46.293 41.1015 44.4232 42.3162 42.9765 44.722C42.2953 45.8548 41.6898 47.0323 41.1637 48.2458C40.5731 49.6082 40.0805 51.009 39.6946 52.4433C39.6127 52.7485 40.3262 53.4818 40.4838 53.7622C40.8349 54.3864 41.1302 55.0241 41.5359 55.6197C42.0285 56.343 42.5943 57.0168 43.2221 57.6272C43.5373 57.9337 45.0647 58.8643 44.9815 59.3705C44.9009 59.8581 44.824 60.347 44.7532 60.8359C44.4443 62.9588 44.2234 65.0942 44.0944 67.2357C44.0224 68.4331 43.9802 69.6317 43.9653 70.8315C43.9616 71.092 44.2458 71.1677 44.4157 71.0598H72.6928C72.7276 71.1169 74.1867 68.1775 75.5106 63.233C75.8258 62.0543 76.2799 59.5914 76.4461 58.3816C77.0194 58.1235 77.5901 57.858 78.1547 57.5801C79.3681 56.9845 80.6734 57.5739 81.8273 56.8704C82.3993 56.5217 82.9527 56.1036 83.2815 55.5068C83.3361 55.4075 83.3274 55.312 83.284 55.2363H83.2828Z" fill="#BBC8F0"/>
<path d="M38.5482 40.0193C37.1188 40.7936 36.079 42.0802 35.3482 43.5109C34.9785 44.2342 34.6807 44.9948 34.4325 45.7691C34.172 46.5818 33.9946 47.4304 33.636 48.2096C33.2575 49.031 32.6645 49.6799 31.7847 49.9616C30.8815 50.2507 29.9186 50.1763 28.9881 50.1179C28.0463 50.0584 27.0674 50.0137 26.1703 50.3549C25.4444 50.6316 24.8253 51.1217 24.3228 51.7074C23.0076 53.2422 22.3326 55.3366 22.0795 57.3107C22.0596 57.4682 22.3078 57.467 22.3276 57.3107C22.5634 55.4718 23.1838 53.5313 24.3488 52.0622C24.8662 51.4096 25.5263 50.8413 26.3216 50.5609C27.2497 50.2346 28.2498 50.3165 29.2126 50.3785C30.8182 50.4815 32.5491 50.4033 33.5231 48.9268C33.9524 48.2754 34.1794 47.5123 34.3928 46.7691C34.6236 45.9663 34.8718 45.1722 35.2006 44.4042C35.9277 42.7118 37.0208 41.1273 38.6722 40.234C38.8124 40.1583 38.6871 39.9437 38.5469 40.0193H38.5482Z" fill="#70323F"/>
<path d="M63.4541 20.337C63.2879 20.1472 63.0199 20.1062 62.7519 20.033C62.5236 19.971 62.2903 19.9276 62.0558 19.9114C61.6203 19.8804 61.1538 19.9375 60.7865 20.203C60.3497 20.5194 60.1624 21.2726 60.7046 21.5976C60.985 21.7651 61.258 21.6249 61.526 21.5145C62.067 21.2937 62.5732 21.4984 63.1179 21.388C63.4641 21.3172 63.6725 20.9996 63.5968 20.641C63.5695 20.5095 63.5199 20.4115 63.4541 20.337Z" fill="#401820"/>
<path d="M55.3221 22.0356C55.3469 22.4029 55.6174 22.6399 55.9462 22.5989C56.4649 22.5332 56.8669 22.1783 57.4116 22.2192C57.6808 22.2403 57.9637 22.2875 58.1722 22.0406C58.5766 21.5604 58.2143 20.9003 57.7391 20.7353C57.3396 20.5963 56.9053 20.6881 56.5207 20.8556C56.3135 20.945 56.1137 21.0604 55.9251 21.1906C55.703 21.3445 55.4722 21.4686 55.3717 21.7018C55.332 21.7937 55.3122 21.9028 55.3221 22.0369V22.0356Z" fill="#401820"/>
<path d="M70.8528 37.1085C70.5799 37.5589 70.1394 37.9758 69.6927 38.2537C69.6059 38.3071 69.5128 38.353 69.416 38.3877C69.3453 38.4138 69.2733 38.4349 69.2001 38.4485C68.911 38.5069 68.6095 38.4684 68.3676 38.2872C67.6988 38.1694 67.3067 38.3704 66.7459 37.9969C63.6043 35.8938 63.0149 31.9879 65.3525 29.2135C65.4667 29.077 65.6739 28.7979 65.8426 28.4864C65.896 28.3859 65.9468 28.2805 65.9878 28.1762C66.1131 27.8586 66.1578 27.5459 65.9927 27.3437C64.5807 25.614 65.0709 23.1077 65.1031 22.5767C65.118 22.3359 64.912 22.1411 64.6713 22.1622C64.4381 22.1846 64.2036 22.192 63.9678 22.1858C62.4938 22.1486 61.0371 21.5543 60.0644 20.4289C59.9142 20.2552 58.8 18.0863 58.9216 18.0516C58.8509 18.0752 58.7975 18.1161 58.7367 18.1583C57.2739 19.1844 55.4934 20.8197 56.2329 22.8136C56.8123 24.377 55.6137 24.9428 54.5367 25.6525C53.7687 26.16 52.9548 26.4975 52.0019 26.2257C51.9497 26.2493 51.8852 26.2568 51.812 26.2332C51.6606 26.186 51.5601 26.0992 51.4981 25.9912C51.4497 25.9577 51.4026 25.9242 51.3579 25.8845C51.2388 25.784 51.2549 25.5818 51.3579 25.4788C51.3827 25.454 51.41 25.4354 51.4398 25.423C51.4646 25.3014 51.508 25.1835 51.5601 25.0818C51.7946 24.6252 52.0775 24.1884 52.358 23.7591C52.8692 22.9787 53.4151 22.2193 53.8841 21.4128C54.1087 21.0269 54.3171 20.6324 54.4884 20.2204C54.672 19.7824 54.7837 19.3184 54.9598 18.8779C55.1385 18.4325 55.3941 18.0441 55.7614 17.7327C56.1014 17.4424 56.4872 17.2178 56.883 17.0131C57.5816 16.652 58.3422 16.3232 59.1313 16.2525C59.2591 15.8517 59.4502 15.4708 59.7145 15.1308C59.81 15.008 59.9589 14.9422 60.1065 15.0278C60.1934 15.0799 60.2554 15.1953 60.2492 15.3008C60.279 15.2934 60.3075 15.2847 60.3361 15.2785C64.0013 14.4112 63.7221 14.8157 66.5635 16.7128C67.4593 17.3108 68.2869 18.0156 69.0612 18.7625C69.8441 19.5206 70.5141 20.3706 70.8032 21.4401C70.9521 21.9885 71.0154 22.558 71.06 23.1251C71.1059 23.712 71.1394 24.3026 71.1183 24.8932C71.0985 25.4701 71.0216 26.0434 70.8739 26.6017C70.7387 27.1179 70.5563 27.6204 70.3739 28.1216C70.292 28.3487 70.2076 28.5758 70.1282 28.8078C69.9756 29.2495 69.8391 29.7011 69.761 30.1602C69.7076 30.4692 69.6803 30.7818 69.694 31.0982C69.7088 31.4903 69.7994 31.8601 69.9285 32.2174C70.1555 32.844 70.498 33.4334 70.7635 34.0451C70.8652 34.2808 70.9583 34.5302 71.0303 34.7858C71.2486 35.5613 71.2846 36.3963 70.8528 37.106V37.1085Z" fill="#401820"/>
<path d="M110.99 25.3869C110.751 25.2281 110.499 25.0953 110.252 24.9936C108.442 24.2417 106.067 24.1188 104.13 23.8645C104.11 23.862 104.092 23.8595 104.072 23.857C104.146 23.5481 104.149 23.2193 104.089 22.9004C103.96 22.2118 103.496 21.6311 102.968 21.1956C101.905 20.3184 100.577 19.7203 99.2577 19.3518C96.5727 18.6024 93.6308 18.8158 91.0947 19.9796C89.8006 20.5739 88.4407 21.4412 87.8129 22.7651C84.4008 21.2378 78.1957 22.6547 75.6571 25.444C75.3184 25.8162 75.0317 26.2517 74.9201 26.743C74.6942 27.7381 75.2377 28.7816 76.0206 29.4355C78.0121 31.0981 80.6388 31.8488 83.1997 31.9357C85.8314 32.025 87.8699 31.1837 90.2919 30.3897C91.9719 29.8388 94.2698 30.8227 95.9635 31.0497C98.8123 31.4307 101.711 31.453 104.566 31.1192C105.599 30.9976 106.684 30.8934 107.649 30.479C108.083 30.2929 108.495 30.0261 108.803 29.6626C108.939 29.5025 109.062 29.2606 109.264 29.1712C110.083 28.8126 111.164 28.9901 111.817 28.289C112.742 27.2952 111.93 26.0073 110.993 25.3856L110.99 25.3869Z" fill="#FFE8DB"/>
<path d="M98.4537 37.7635C98.1534 37.3863 97.6335 37.266 97.1931 37.1344C96.5987 36.9558 96.0069 36.8503 95.3877 36.9384C94.7388 37.0302 91.06 38.2313 92.5228 39.2599C92.8231 39.4708 93.2176 39.4795 93.5849 39.4807C94.9584 39.4832 97.1819 39.9485 98.3408 39.0254C98.749 38.7003 98.7713 38.1618 98.4537 37.7635Z" fill="white"/>
<path d="M42.9355 29.1873C42.5931 28.7009 42.0707 28.3299 41.4801 28.222C41.1252 28.1574 40.758 28.1885 40.4068 28.1066C40.0644 28.0272 39.7418 27.8721 39.4068 27.7678C38.13 27.3708 36.7565 27.3125 35.4462 27.5656C34.7117 27.707 33.9809 27.9515 33.3196 28.3051C32.9982 28.4763 32.6955 28.7344 32.652 29.1165C32.6396 29.2295 32.6533 29.3424 32.688 29.4454C32.3828 29.6389 32.2016 30.0198 32.2823 30.4082C32.4064 31.005 33.0044 31.3301 33.5615 31.4082C34.1112 31.4852 34.6943 31.4579 35.2465 31.4219C35.7639 31.3884 36.29 31.3189 36.7826 31.1502C36.9674 31.0869 37.1461 31.01 37.3161 30.9181C38.3707 31.0621 39.4378 31.1142 40.5024 31.0633C41.1935 31.0311 41.9454 31.0087 42.5943 30.7457C42.9095 30.6179 43.2755 30.4231 43.2693 30.031C43.2656 29.7382 43.0993 29.4218 42.9343 29.1873H42.9355Z" fill="white"/>
<path d="M69.4173 38.3888C69.3465 38.4148 69.2746 38.4359 69.2014 38.4496C69.1381 38.2175 69.0587 37.988 68.9569 37.7659C68.1492 36.0015 65.9319 35.2906 65.6689 33.2172C65.5262 32.0807 65.8947 30.9739 65.9555 29.8473C65.9791 29.3969 65.958 28.9254 65.8451 28.4874C65.8984 28.3869 65.9493 28.2815 65.9903 28.1772C66.1677 28.6909 66.2111 29.2629 66.1851 29.8064C66.1292 30.9814 65.7123 32.1527 65.9171 33.3351C66.1057 34.427 66.906 35.1441 67.6864 35.8539C68.4371 36.5375 69.081 37.251 69.3788 38.2448C69.3937 38.2932 69.4061 38.3404 69.4185 38.3888H69.4173Z" fill="#70323F"/>
<path d="M40.2964 39.305C39.7753 37.8223 38.2454 36.9264 36.8434 36.4252C36.1138 36.1646 35.3557 35.9921 34.5938 35.8618C33.7638 35.7192 32.925 35.6137 32.085 35.5529C30.2797 35.4226 28.4297 35.5244 26.7013 36.0901C26.5562 35.2948 25.9904 34.6124 25.2931 34.2091C24.3563 33.6669 23.2309 33.5937 22.1738 33.5677C19.9156 33.5118 17.645 33.7848 15.4637 34.3667C14.4413 34.6397 13.4127 34.9623 12.4524 35.4102C11.6632 35.7787 10.8902 36.2837 10.4039 37.0232C9.87281 37.8322 9.85172 38.8186 10.2401 39.6909C10.6545 40.6227 11.4871 41.2865 12.404 41.6872C13.4078 42.1265 14.5071 42.3411 15.5952 42.4367C16.2367 42.4925 16.8807 42.495 17.5234 42.4491C17.5383 42.5434 17.5618 42.6377 17.5966 42.7295C17.8162 43.3164 18.3113 43.7432 18.8187 44.0844C19.8473 44.7768 21.0819 45.0944 22.2929 45.2743C25.1466 45.6986 28.0935 45.6527 30.9373 45.1738C31.6445 45.0547 32.3617 44.8686 32.9325 44.4132C33.3742 44.0621 33.7092 43.5323 33.7551 42.964C34.5678 42.9764 35.3805 42.9392 36.187 42.8449C36.9389 42.7568 37.7069 42.6513 38.4229 42.3945C39.037 42.1736 39.6239 41.8461 40.0222 41.315C40.454 40.7393 40.5309 39.9787 40.2939 39.3062L40.2964 39.305Z" fill="#FFE8DB"/>
<path d="M75.4597 6.40562C75.0044 5.64379 74.2946 5.30134 73.5775 5.1785C72.9248 5.06683 72.2573 5.05815 71.596 5.04078C71.6121 4.99983 71.6282 4.95765 71.6431 4.9167C71.7163 4.72562 71.694 4.44273 71.5265 4.33974C70.1877 3.51587 68.731 3.93277 67.3873 4.54695C67.0027 4.62264 66.6205 4.72066 66.2433 4.84598C65.9505 4.94276 65.6527 5.07428 65.4269 5.34476C65.1887 5.63138 65.0956 6.06565 65.1787 6.47014C65.3686 7.39451 66.1726 7.63398 66.7967 7.82258C67.1602 7.933 67.5337 8.00125 67.9072 7.94293C68.2608 7.8871 68.602 7.75806 68.9507 7.66748C69.277 7.58311 69.5872 7.58807 69.9073 7.7047C70.2349 7.82506 70.5463 8.00869 70.8676 8.1551C71.56 8.47026 72.2846 8.66009 73.0154 8.73454C73.6916 8.80402 74.4386 8.81767 75.0776 8.48266C75.4089 8.30896 75.8022 8.04219 75.8047 7.51238C75.8071 7.11534 75.6396 6.70961 75.4572 6.40438L75.4597 6.40562Z" fill="#FFE8DB"/>
<path d="M73.8183 8.12524C73.8245 8.12028 73.8307 8.11531 73.8369 8.11035C73.827 8.11656 73.8207 8.12152 73.8183 8.12524Z" fill="#FFE8DB"/>
<path d="M84.412 8.20723C82.1711 6.66372 79.1511 8.61668 79.599 11.396C79.8137 12.7236 80.8373 13.7919 82.1364 13.9619C83.5248 14.1431 85.2544 13.3428 85.7582 11.9357C86.2594 10.5361 85.5683 9.0038 84.412 8.20723Z" fill="white"/>
<path d="M59.2207 15.1244C58.7393 15.8304 58.6673 16.7138 58.9998 17.4967C59.0619 17.6431 59.2765 17.5166 59.2145 17.3714C58.9167 16.6704 59.0085 15.8763 59.4353 15.2497C59.5259 15.1169 59.31 14.9929 59.2207 15.1244Z" fill="#70323F"/>
<path d="M71.1294 56.669C70.978 56.3079 70.7373 55.9928 70.4644 55.7161C70.3217 55.5709 70.1666 55.4431 70.014 55.3116C69.7447 55.0796 69.7162 54.8302 69.7435 54.4803C69.8092 53.6291 69.8341 52.7606 69.1789 52.1104C68.6007 51.5372 67.7583 51.3697 66.9791 51.2555C67.0622 50.9974 66.6887 50.784 66.577 51.0471C66.4418 51.3647 66.3984 51.6675 66.3661 52.0099C66.3078 52.6241 66.118 53.0993 65.7929 53.6229C65.2891 54.4344 64.8164 55.2446 64.6551 56.2012C64.4107 57.6529 65 59.3168 66.4778 59.8453C67.9307 60.3652 70.0723 59.9992 70.9408 58.6282C71.3155 58.0363 71.4024 57.3204 71.1307 56.6702L71.1294 56.669Z" fill="#FFE8A3"/>
<path d="M59.9329 60.852C60.186 58.4523 60.0234 55.4335 58.0481 53.9061C58.0121 53.8516 57.9551 53.8106 57.8769 53.7994C57.2317 53.7138 56.718 54.1282 56.2428 54.5092C55.7142 54.9335 55.2229 55.4273 54.9475 56.0564C54.5194 57.0354 54.7489 58.2377 55.718 58.7141C55.3879 59.2675 55.1137 59.8569 55.2167 60.5232C55.3222 61.2006 55.7676 61.7974 56.347 62.1498C57.3732 62.7751 58.5717 62.4786 59.4427 61.7714C59.5569 61.8992 59.7939 61.9054 59.8261 61.6957C59.8423 61.5852 59.8584 61.4723 59.8733 61.3582C59.9304 61.2937 59.985 61.2267 60.0371 61.1584C60.1363 61.0269 60.0557 60.8979 59.9341 60.8495L59.9329 60.852Z" fill="#FFE8A3"/>
<path d="M69.761 30.1625C69.8193 29.1252 70.0352 28.0979 70.0489 27.0569C70.0637 25.8186 69.7027 24.6126 68.9768 23.6063C68.617 23.1075 68.1753 22.6782 67.674 22.3246C67.4854 22.1918 67.2881 22.0566 67.1839 21.8432C67.0735 21.6186 67.0822 21.3332 67.0586 21.09C66.9358 19.7823 66.7943 18.3914 66.1007 17.2412C65.4952 16.2386 64.4468 15.4359 63.2333 15.4805C63.0857 15.4855 63.0869 15.2559 63.2333 15.251C63.742 15.2324 64.2334 15.3465 64.6863 15.5785C65.6764 16.0811 66.3576 17.0228 66.731 18.0477C66.9507 18.6532 67.0747 19.2884 67.1616 19.925C67.2087 20.2773 67.2447 20.6297 67.2782 20.9821C67.3117 21.3345 67.2881 21.7104 67.571 21.9648C67.7931 22.1645 68.0599 22.3134 68.2857 22.5107C68.4966 22.6931 68.6915 22.8904 68.8714 23.1026C69.2386 23.5343 69.5439 24.0182 69.7722 24.5356C70.2734 25.6672 70.3379 26.8571 70.2101 28.0743C70.1853 28.32 70.1568 28.5657 70.1283 28.8101C69.9756 29.2518 69.8392 29.7034 69.761 30.1625Z" fill="#70323F"/>
<path d="M71.0302 34.7881C70.89 34.5735 70.7597 34.3514 70.6394 34.1218C70.3254 33.5238 70.081 32.8811 69.9272 32.2197C70.1542 32.8463 70.4967 33.4357 70.7622 34.0474C70.8639 34.2831 70.957 34.5325 71.029 34.7881H71.0302Z" fill="#70323F"/>
<path d="M68.8539 63.9204C68.5449 63.073 67.5449 63.099 66.8947 63.5246C66.5126 63.774 66.1478 64.0805 65.9245 64.485C65.7284 64.8386 65.1912 65.9788 65.0795 67.0682C65.0336 67.5112 65.1961 67.8648 65.5175 68.1514C65.6688 68.2867 65.8351 68.4045 66.0063 68.5137C65.9666 68.5447 67.5374 67.4851 68.0102 66.7258C68.3117 66.2431 68.576 65.7146 68.7733 65.181C68.9221 64.779 69.0065 64.3336 68.8551 63.9192L68.8539 63.9204Z" fill="#BBC8F0"/>
<path d="M68.6741 19.5865C70.6196 20.5878 71.6209 22.7828 71.7251 24.8958C71.7524 25.4579 71.6916 26.0323 71.8269 26.5845C71.9596 27.1304 72.3232 27.5213 72.7066 27.9109C73.5056 28.7223 74.0119 29.7025 74.3047 30.8006C74.6347 32.0376 74.7154 33.3243 74.7811 34.5986C74.7898 34.7574 75.038 34.7586 75.0293 34.5986C74.9189 32.4248 74.7625 30.0189 73.3456 28.2471C72.9436 27.7446 72.3517 27.3451 72.1271 26.7222C71.9125 26.1291 72.0068 25.4703 71.9733 24.8524C71.915 23.8064 71.6532 22.7666 71.1767 21.8323C70.6481 20.7938 69.8429 19.9104 68.8006 19.3744C68.6592 19.3012 68.5326 19.5158 68.6753 19.589L68.6741 19.5865Z" fill="#70323F"/>
<path d="M59.5432 68.2431C59.4141 67.8051 59.2652 67.2778 59.0034 66.8869C59.0072 66.8695 59.0034 66.8509 58.9848 66.8373C58.9737 66.8286 58.9625 66.8212 58.9513 66.8125C58.9451 66.8038 58.9389 66.7939 58.9327 66.7864C58.9203 66.7703 58.9029 66.7641 58.8868 66.7641C58.5704 66.5308 58.1982 66.3186 57.8111 66.2591C57.4413 66.202 57.048 66.3732 56.7701 66.6102C56.177 67.114 56.3035 68.0495 56.5467 68.6997C56.8594 69.536 57.4711 70.0025 58.2739 70.3325C58.6064 70.469 59.0766 70.7854 59.4439 70.6948C59.7603 70.6167 59.7789 70.1588 59.7851 69.8958C59.7975 69.3362 59.7007 68.7791 59.5432 68.2431Z" fill="#BBC8F0"/>
<path d="M54.847 25.9043C54.2936 26.1041 53.739 26.3013 53.2079 26.5545C52.2525 27.0098 51.3331 27.6736 50.8765 28.66C50.6234 29.2072 50.57 29.814 50.5167 30.407C50.4745 30.8897 50.4646 31.4691 50.2536 31.9146C50.0526 32.3402 49.565 32.329 49.1593 32.3935C48.6456 32.4742 48.1369 32.5945 47.6431 32.7595C46.6182 33.102 45.643 33.6492 44.8997 34.4433C44.1962 35.1952 43.7247 36.1456 43.5001 37.1481C43.3897 37.6432 43.3426 38.1494 43.3575 38.6557C43.3748 39.2066 43.5212 39.7091 43.6962 40.2265C43.8587 40.7042 44.025 41.1967 44.0113 41.7079C44.0002 42.1472 43.8538 42.5765 43.623 42.95C43.1105 43.785 42.2544 44.2577 41.3611 44.5952C40.3685 44.9699 39.351 45.233 38.4304 45.7789C37.6251 46.2578 36.9067 46.8795 36.3025 47.5941C35.0654 49.0595 34.2999 50.9417 34.254 52.8649C34.2316 53.8364 34.5096 54.901 34.0629 55.8155C33.6857 56.586 32.8717 56.9607 32.1112 57.251C31.1793 57.6059 30.2922 57.9719 29.4758 58.5588C28.6358 59.1606 27.9 59.9087 27.2883 60.7401C25.9731 62.5305 25.2596 64.6956 24.9867 66.8856C24.8341 68.0978 24.7435 69.4242 24.9184 70.6885C24.8452 70.6811 24.772 70.6736 24.6988 70.665C24.6268 70.0855 24.6082 69.4999 24.6182 68.9192C24.6355 67.7876 24.7484 66.6536 24.9805 65.5443C25.4135 63.4673 26.2882 61.4734 27.6977 59.8715C28.3491 59.1308 29.1085 58.4806 29.9535 57.9707C30.7897 57.4657 31.7129 57.215 32.5913 56.8068C33.0194 56.6071 33.4413 56.3478 33.7167 55.9544C34.0542 55.4705 34.0989 54.875 34.0803 54.3017C34.048 53.3104 33.9946 52.3674 34.1981 51.3859C34.5728 49.5806 35.5381 47.8981 36.8918 46.6487C37.5742 46.0196 38.3559 45.496 39.2083 45.125C40.2208 44.6858 41.3363 44.4773 42.2954 43.9128C43.252 43.3495 43.953 42.3395 43.7371 41.193C43.6379 40.6645 43.4133 40.1706 43.2718 39.6532C43.1403 39.1693 43.1068 38.6705 43.1316 38.1718C43.2309 36.1878 44.2521 34.3626 45.9395 33.303C46.8266 32.7471 47.8379 32.401 48.8665 32.2136C49.1307 32.164 49.4099 32.1503 49.6717 32.0883C50.0427 31.9977 50.1072 31.6801 50.1717 31.3488C50.2834 30.7768 50.2884 30.1887 50.374 29.613C50.5291 28.5831 51.0552 27.7431 51.8704 27.1004C52.7277 26.4254 53.77 26.0507 54.7862 25.6859C54.9264 25.6363 54.9847 25.8572 54.847 25.9068V25.9043Z" fill="#70323F"/>
<path d="M46.1716 50.7816C45.5958 49.8187 44.7608 48.7814 43.6962 48.3447C42.9307 48.0295 42.0113 48.1238 41.4442 48.7058C41.3301 48.7058 40.9281 48.9477 40.8784 49.0817C39.6091 52.5124 38.8659 55.8476 38.1004 59.426C37.717 61.2139 37.3993 63.0168 37.1462 64.8283C36.903 66.5678 36.5606 68.4116 36.676 70.171C36.774 71.6723 36.9651 73.5012 38.9528 73.9578C39.0806 73.9876 39.1823 73.7159 39.2431 73.6377C39.8511 73.871 40.7755 73.531 41.3177 73.4144C42.4567 73.1687 43.5858 72.7952 44.5251 72.0843C46.5004 70.5916 46.416 68.13 46.5984 65.8829C46.8192 63.1495 47.0041 60.4136 47.1778 57.6765C47.3317 55.2694 47.4533 52.9293 46.1703 50.7816H46.1716Z" fill="#BBC8F0"/>
<path d="M47.1616 56.2348C47.0363 59.0054 46.8179 61.7686 46.504 64.5244C46.4854 64.6832 46.7348 64.6819 46.7522 64.5244C47.0661 61.7686 47.2857 59.0054 47.4098 56.2348C47.4172 56.0748 47.1691 56.076 47.1616 56.2348Z" fill="#261422"/>
<path d="M97.229 63.909C97.1558 64.4612 97.0962 65.0778 97.456 65.5481C97.6558 65.8074 97.9362 65.9836 98.2067 66.1598C98.5281 66.3695 98.8519 66.5754 99.1708 66.7888C99.7949 67.2095 100.402 67.6636 100.91 68.2195C101.087 68.4118 101.25 68.6239 101.395 68.8498C101.455 68.7977 101.513 68.7455 101.573 68.6934C100.926 67.7169 99.9326 67.0109 98.9648 66.3794C98.4003 66.0096 97.5764 65.6647 97.43 64.9364C97.3617 64.589 97.4151 64.2242 97.4622 63.878C97.5119 63.5095 97.5565 63.1398 97.5826 62.7688C97.6781 61.4139 97.4573 60.0999 96.8344 58.8864C95.6309 56.5389 93.3057 55.0375 90.8217 54.3291C90.2472 54.1653 89.3898 54.1206 89.0399 53.5635C88.8464 53.2546 88.7992 52.8302 88.7359 52.4778C88.659 52.0585 88.6019 51.6354 88.5635 51.211C88.4952 50.4343 88.4915 49.6526 88.5461 48.8747C88.5982 48.1314 88.6913 47.3895 88.7099 46.645C88.7297 45.8546 88.659 45.0568 88.3823 44.3099C88.1255 43.6225 87.7284 42.9996 87.2805 42.4227C86.8587 41.8817 86.3884 41.373 85.8648 40.9362C85.7395 40.93 85.6129 40.9276 85.4876 40.9238C86.0273 41.3407 86.5112 41.8333 86.943 42.3631C87.4083 42.9314 87.8314 43.5518 88.1094 44.2342C88.3811 44.9005 88.4803 45.6127 88.4853 46.3286C88.4952 47.7989 88.221 49.2469 88.3004 50.7222C88.3414 51.4579 88.4382 52.1925 88.5895 52.9158C88.7099 53.4841 88.8997 53.9382 89.4568 54.1827C89.9966 54.4196 90.6132 54.4966 91.1753 54.6777C91.818 54.8849 92.4421 55.143 93.0377 55.4619C94.2077 56.0872 95.2611 56.9421 96.0379 58.0228C96.8109 59.0973 97.3059 60.3642 97.3729 61.6905C97.4101 62.4362 97.3307 63.1757 97.2327 63.914L97.229 63.909Z" fill="#70323F"/>
<path d="M73.2226 23.4908C72.2796 22.6558 70.8614 22.4994 69.6616 22.6955C68.8626 22.827 66.5945 23.6769 67.5759 24.8333C67.8923 25.2056 68.3501 25.1386 68.7695 25.0418C69.3862 24.9003 69.9656 24.7775 70.5996 24.9165C71.6531 25.146 72.4881 25.5778 73.4497 24.8284C73.9162 24.4636 73.575 23.8047 73.2226 23.4921V23.4908Z" fill="white"/>
<path d="M65.9878 47.0432C65.7136 46.5233 65.3699 46.0419 64.9368 45.6399C63.9765 44.749 62.7717 44.5207 61.5049 44.4165C58.1523 44.141 55.8457 46.501 54.4188 49.0892C54.2365 49.4205 54.1198 49.7704 53.7761 49.9627C53.4337 50.1538 52.9672 50.2543 52.5788 50.1798C52.2934 50.124 52.0217 49.8672 51.7859 49.7121C51.214 49.3349 50.6184 48.9961 50.0017 48.6984C45.7409 46.6412 40.5682 46.6312 36.6163 49.4031C35.7391 50.0185 34.9438 50.7481 34.2775 51.5881C33.6112 52.4269 33.1273 53.3711 32.5814 54.288C32.0478 55.1839 31.4163 56.1181 30.4274 56.5499C29.1792 57.0946 27.6841 56.6628 26.4656 56.2236C24.4246 55.4878 22.6093 54.2731 20.6588 53.3438C18.2803 52.2097 15.2354 51.2233 12.6149 52.0497C11.5231 52.3946 10.5503 53.4952 11.193 54.659C11.2228 54.7124 11.2613 54.7483 11.3047 54.7707C11.1409 55.9122 10.4411 56.9234 10.2438 58.0662C10.0391 59.2511 10.1495 60.4869 10.5466 61.6209C10.9076 62.6508 11.4896 63.5888 12.2229 64.3941C12.5876 64.7948 13.9785 65.842 13.9252 66.321C13.9066 66.4872 7.12455 67.2689 7.44343 67.4327C11.9735 69.7604 19.9069 71.057 23.5796 70.7158C25.5822 70.5297 27.3801 69.7641 29.137 68.8273C31.013 67.826 32.7886 67.0332 34.9016 66.723C36.7826 66.4463 38.7182 66.357 40.5409 65.7701C42.3983 65.172 43.8736 64.0181 44.8935 62.3505C45.4295 61.4745 45.8278 60.5229 46.1839 59.5625C46.5871 58.4768 46.9991 57.4383 48.1828 57.0338C49.2647 56.6641 50.5179 56.6628 51.6495 56.6405C52.8456 56.6169 54.0441 56.6728 55.2316 56.8142C56.6572 56.9842 58.0233 57.3366 59.4204 57.6505C60.4998 57.8924 61.5731 57.9359 62.6302 57.5711C64.3673 56.9718 65.7123 55.5759 66.4704 53.9307C66.6069 53.9642 66.7583 53.9121 66.7955 53.7346C67.1677 51.9752 67.0809 50.1277 66.5449 48.4105C66.3985 47.9415 66.2161 47.4775 65.9853 47.0407L65.9878 47.0432Z" fill="#FFE8DB"/>
<path d="M67.9829 56.0142C67.9332 55.6135 67.7595 55.1929 67.3947 54.9943C67.3923 54.7859 67.3836 54.5762 67.3476 54.374C67.2942 54.07 67.1466 53.7771 66.8538 53.6407C66.7483 53.591 66.6379 53.5687 66.5299 53.5712C66.4964 53.2498 66.4431 52.9247 66.2483 52.6567C66.0175 52.3391 65.5783 52.2522 65.2656 52.5103C65.1192 52.6319 65.015 52.8093 64.9666 52.9917C64.9355 53.1059 64.9219 53.2238 64.9058 53.3404C64.8636 53.2722 64.8115 53.2138 64.7457 53.1704C64.366 52.9198 63.974 53.287 63.8375 53.627C63.7047 53.9595 63.706 54.3355 63.6216 54.6817C63.603 54.7586 63.5806 54.833 63.5583 54.9087C63.4541 54.7549 63.2829 54.6382 63.093 54.5985C62.7195 54.5216 62.3833 54.7536 62.1078 54.972C61.4875 55.4633 60.8696 55.9596 60.2852 56.4919C59.135 57.5367 58.1014 58.7489 57.5604 60.2192C57.3532 60.7838 57.2267 61.3731 57.1981 61.9699C57.187 62.2007 57.0815 62.4178 56.9041 62.568C55.7402 63.5519 54.4151 64.3485 53.0205 64.9676C52.956 64.9962 52.915 65.0396 52.8902 65.0892C52.3505 65.1029 52.7599 65.6066 52.91 65.7828C53.358 66.3089 53.6979 66.902 54.126 67.438C54.6943 68.1489 53.0378 68.9232 54.0205 68.8934C55.5057 68.8487 58.0294 67.6092 58.666 67.2494C59.9774 66.5074 61.3894 65.8138 62.6029 64.9167C63.4218 64.31 64.1973 63.6263 64.9083 62.8993C66.3413 61.4339 67.5089 59.6745 67.8861 57.6384C67.9829 57.1123 68.0474 56.5478 67.9816 56.013L67.9829 56.0142Z" fill="#9C4A2F"/>
<path d="M56.4413 56.0799C56.4438 55.6754 56.5667 55.2387 56.9066 54.998C56.8843 54.7908 56.8682 54.5811 56.8806 54.3764C56.8979 54.0686 57.0109 53.7597 57.2851 53.591C57.3843 53.5302 57.491 53.4942 57.5977 53.4842C57.5928 53.1616 57.6077 52.8316 57.7702 52.5425C57.9625 52.2001 58.3881 52.0623 58.7293 52.2819C58.8894 52.3849 59.0134 52.5499 59.0829 52.7249C59.1264 52.8341 59.1537 52.9507 59.1834 53.0649C59.2169 52.9929 59.2628 52.9284 59.3224 52.8775C59.6698 52.5847 60.1028 52.9023 60.2778 53.2237C60.449 53.5388 60.4924 53.9123 60.6153 54.2461C60.6426 54.3193 60.6736 54.3925 60.7046 54.4645C60.7902 54.2994 60.9453 54.1642 61.1302 54.1021C61.4925 53.9818 61.8523 54.1729 62.1513 54.3565C62.8251 54.7722 63.4963 55.1915 64.1403 55.6519C65.4046 56.5539 66.5734 57.6371 67.2844 59.033C67.5574 59.569 67.7509 60.1397 67.849 60.7291C67.8874 60.9574 68.0177 61.1596 68.2113 61.2887C69.4818 62.1287 70.8925 62.7639 72.3504 63.2143C72.4187 63.2354 72.4646 63.2727 72.4931 63.3198C73.0316 63.2689 72.683 63.8186 72.5539 64.0109C72.1705 64.5854 71.9025 65.2145 71.5402 65.7976C71.0601 66.5694 72.7946 67.1451 71.8157 67.2307C70.3354 67.361 67.6839 66.4267 67.009 66.145C65.6193 65.5631 64.1353 65.0395 62.8251 64.2913C61.9404 63.7851 61.0905 63.197 60.2989 62.5592C58.7033 61.2725 57.3372 59.662 56.7242 57.6855C56.5654 57.1743 56.4351 56.6209 56.4389 56.0837L56.4413 56.0799Z" fill="#9C4A2F"/>
<path d="M29.0464 62.5407C29.0762 62.3111 29.0874 62.0741 29.0799 61.8272C29.0278 60.0678 27.5525 58.5665 25.8043 58.466C24.8725 58.4126 24.1193 58.3481 24.0288 58.2774C23.829 58.1198 23.6751 57.9138 23.5188 57.7141C21.8388 55.5638 19.6501 53.8156 17.181 52.653C16.31 52.2423 15.3484 51.8986 14.4004 52.0674C13.4525 52.2361 12.569 53.0935 12.6906 54.0489C9.31823 52.0078 4.58223 52.5835 1.79671 55.3728C0.976559 56.1941 0.307786 57.2066 0.0844483 58.3444C-0.208373 59.8333 0.291656 61.3855 1.10064 62.6697C2.24835 64.4924 4.00403 65.8882 5.94955 66.8126C11.0479 69.2321 17.5706 69.0832 22.9071 67.6042C25.4197 66.9069 28.6705 65.485 29.0464 62.5419V62.5407Z" fill="#FFE8DB"/>
<path d="M41.1327 55.6555C36.2888 54.5326 31.1197 56.1655 27.8317 59.9014C27.4483 60.3369 27.0922 60.7985 26.7684 61.2787C26.4024 61.8221 26.117 62.445 25.7063 62.9537C25.1603 63.6312 24.4246 63.2205 23.8811 62.7751C23.4071 62.3867 22.9468 61.9859 22.4493 61.6273C20.4777 60.2067 17.9341 59.2413 15.5109 60.0069C14.2565 60.4027 13.2279 61.2688 12.3767 62.2477C11.5467 63.2019 10.7129 64.3831 10.9573 65.7144C10.9858 65.8708 11.2253 65.805 11.1968 65.6487C10.9573 64.3521 11.873 63.1746 12.6869 62.2701C13.481 61.3879 14.4302 60.6087 15.5767 60.2464C18.052 59.4647 20.6129 60.5466 22.582 62.0318C23.0585 62.3917 23.4915 62.8098 23.9742 63.1597C24.3563 63.4364 24.8415 63.6821 25.3229 63.5344C25.7869 63.3917 26.0326 62.9339 26.2659 62.5455C26.5947 61.9983 26.9297 61.4549 27.3081 60.94C28.6655 59.1011 30.5093 57.6259 32.5925 56.6903C35.2341 55.5042 38.2504 55.2399 41.067 55.8925C41.2221 55.9285 41.2891 55.689 41.1327 55.6531V55.6555Z" fill="#261422"/>
<path d="M6.09227 59.3577C7.18911 58.2062 8.9175 57.7137 10.4486 58.1852C11.9214 58.638 13.0567 59.921 13.3756 61.4198C13.4091 61.5762 13.6485 61.5104 13.615 61.3541C13.2788 59.7721 12.0678 58.4221 10.5156 57.9457C8.90261 57.4519 7.07372 57.968 5.91732 59.1827C5.8069 59.2981 5.98184 59.4743 6.09227 59.3577Z" fill="#261422"/>
<path d="M119.107 62.4746C118.818 61.58 118.157 60.8839 117.378 60.3864C116.553 59.8591 115.603 59.5054 114.678 59.199C113.708 58.8789 112.711 58.6382 111.702 58.4806C110.696 58.323 109.68 58.2411 108.661 58.2461C108.041 58.2486 107.391 58.2585 106.765 58.3652C106.666 58.3826 106.578 58.3056 106.578 58.2039C106.588 56.1008 101.728 56.0276 100.327 55.9842C98.7365 55.9345 97.1458 56.0747 95.57 56.2795C94.0737 56.4743 92.5699 56.7373 91.1877 57.3688C90.8092 57.5413 90.4432 57.7436 90.0995 57.9793C89.7856 58.1927 89.2632 58.5153 89.3873 58.9719C89.6392 59.9025 89.9866 60.0291 89.066 60.6891C87.3785 61.8976 86.1241 63.3084 87.3202 65.4773C87.8277 66.3967 88.6205 67.1213 89.5536 67.6027C91.2807 68.4923 93.153 69.1636 95.075 69.4489C97.1793 69.7616 99.3147 69.7579 101.435 69.6785C103.48 69.6016 105.522 69.4241 107.545 69.1127C109.563 68.8013 111.564 68.3521 113.509 67.723C114.468 67.4129 115.417 67.063 116.342 66.6585C117.21 66.2788 118.048 65.7937 118.63 65.0256C119.183 64.2923 119.395 63.358 119.109 62.4734L119.107 62.4746Z" fill="#FFE8DB"/>
<path d="M91.2894 60.4128C93.4074 59.8346 95.6482 59.7614 97.7972 60.2155C98.7576 60.4178 99.7961 60.6833 100.624 61.2292C101.444 61.7702 102.054 62.9018 101.393 63.8038C101.321 63.9018 101.44 63.9999 101.533 63.9862C102.445 63.8485 103.377 63.8721 104.279 64.0656C104.721 64.1612 105.135 64.3559 105.572 64.454C105.932 64.5359 106.18 64.2803 106.459 64.0966C107.794 63.2182 109.699 62.6338 111.045 63.8274C111.164 63.9328 111.34 63.7579 111.22 63.6524C109.983 62.5544 108.223 62.8137 106.877 63.5532C106.676 63.6636 106.48 63.784 106.289 63.9118C106.046 64.0743 105.854 64.2679 105.532 64.1835C105.076 64.0644 104.646 63.882 104.178 63.7926C103.281 63.6202 102.369 63.6103 101.467 63.7467C101.515 63.8075 101.56 63.8683 101.608 63.9291C102.028 63.3559 101.987 62.5916 101.668 61.9799C101.306 61.2851 100.594 60.8632 99.8916 60.5778C98.1831 59.8817 96.2574 59.6125 94.4198 59.682C93.3391 59.7229 92.2671 59.8904 91.2249 60.1746C91.071 60.2168 91.1368 60.4562 91.2906 60.414L91.2894 60.4128Z" fill="#261422"/>
<path d="M105.575 58.6444C103.991 58.297 102.309 58.7908 101.169 59.9435C101.056 60.0577 101.232 60.2326 101.343 60.1185C102.42 59.0303 104.011 58.5551 105.508 58.8827C105.663 58.9174 105.73 58.6779 105.573 58.6432L105.575 58.6444Z" fill="#261422"/>
<path d="M117.543 46.505C117.422 45.7581 116.984 45.0806 116.426 44.5818C115.072 43.3708 113.221 43.2393 111.488 43.3051C111.33 43.3113 111.173 43.32 111.015 43.3274C110.824 42.6127 110.077 42.1871 109.448 41.8658C108.612 41.4377 107.725 41.1027 106.814 40.8719C105.03 40.4203 103.115 40.3371 101.309 40.7106C100.552 40.867 99.7589 41.1709 99.2725 41.7888C98.0156 41.8099 96.7587 41.8782 95.5217 42.1077C94.6705 42.2653 93.8392 42.5085 93.0439 42.8547C92.313 43.1723 91.6108 43.6028 91.1194 44.2431C90.6752 44.8225 90.4593 45.5657 90.5921 46.273C88.6962 46.0037 86.7482 46.2767 84.9975 47.0646C84.5508 47.2656 84.0359 47.4827 83.7567 47.9071C83.4937 48.3066 83.547 48.829 83.7629 49.2359C84.2592 50.1715 85.5012 50.3079 86.438 50.4333C88.7123 50.7373 91.0202 50.5834 93.3044 50.4916C95.405 50.4085 97.5057 50.3166 99.6038 50.1938C101.479 50.5189 103.379 50.6467 105.28 50.6814C106.275 50.7 107.27 50.6951 108.267 50.6839C109.259 50.6727 110.255 50.6703 111.247 50.6194C112.23 50.5685 113.227 50.473 114.182 50.2248C114.627 50.1094 115.066 49.9444 115.455 49.695C115.831 49.4543 116.164 49.1503 116.473 48.829C116.771 48.5188 117.095 48.1986 117.329 47.8351C117.589 47.4319 117.615 46.9678 117.54 46.5062L117.543 46.505Z" fill="#FFE8DB"/>
<path d="M58.7888 22.7195C58.4513 22.9056 58.29 23.2605 58.3322 23.6414C58.3806 24.0769 58.6585 24.4206 58.9538 24.7233C59.0655 24.8375 59.2404 24.6626 59.1288 24.5484C58.7429 24.1526 58.1982 23.3287 58.9129 22.9342C59.0531 22.8572 58.9277 22.6426 58.7875 22.7195H58.7888Z" fill="#5E2015"/>
<path d="M59.6077 24.1426C59.7976 24.124 59.9837 24.191 60.0978 24.3486C60.1909 24.4764 60.4055 24.3523 60.3125 24.2233C60.1487 23.9975 59.8881 23.866 59.6077 23.8945C59.4501 23.9106 59.4489 24.1588 59.6077 24.1426Z" fill="#5E2015"/>
<path d="M61.454 24.933C60.5284 25.4703 59.5184 25.7122 58.4625 25.6477C58.3595 25.6415 58.2839 25.7457 58.3447 25.8512C59.1114 27.1714 61.1835 26.1601 61.6637 25.0608C61.727 24.9144 61.5285 24.8052 61.4553 24.9343L61.454 24.933Z" fill="#66110E"/>
<path d="M53.1632 20.8851C52.9994 21.3492 52.8108 21.8293 52.4274 22.1594C52.0862 22.4534 51.6482 22.6036 51.2512 22.7996C50.5402 23.1508 49.9099 23.662 49.4049 24.2712C48.3999 25.4834 47.8701 27.0679 48.019 28.6411C48.0339 28.7987 48.282 28.8 48.2671 28.6411C48.1108 26.9822 48.725 25.3047 49.8826 24.1111C50.4745 23.5007 51.1581 23.1272 51.915 22.7636C52.2798 22.5874 52.6173 22.3778 52.8679 22.0527C53.1198 21.7264 53.2674 21.3368 53.4039 20.9509C53.4573 20.7995 53.2178 20.735 53.1644 20.8851H53.1632Z" fill="#70323F"/>
<path d="M58.7913 15.519C57.9053 15.1343 56.8743 15.3093 56.1732 15.9768C56.0578 16.0872 56.2328 16.2622 56.3482 16.1518C56.9624 15.5674 57.8855 15.3936 58.6659 15.7324C58.8111 15.7957 58.9377 15.581 58.7913 15.5177V15.519Z" fill="#70323F"/>
<path d="M59.4787 70.4096C59.2255 70.1515 58.6486 69.8401 58.5642 69.7743C57.12 68.6564 56.4686 66.8052 56.2452 65.0507C56.1993 64.6934 56.1546 64.3336 56.1708 63.9725C56.1795 63.7864 56.203 63.6003 56.2576 63.4216C56.311 63.2442 56.4413 63.0866 56.4896 62.9228C56.5045 62.8707 56.2241 62.9476 56.213 62.9526C50.8268 65.3783 39.3162 65.8547 38.1672 66.8238C37.8881 67.0583 37.4774 68.7581 37.4563 69.1465C37.4153 69.9232 36.7131 70.6379 36.8136 71.4506C37.0022 72.9681 38.0308 73.9632 39.4825 74.3019C43.809 75.3094 53.5044 74.3403 59.5221 70.7123C59.6424 70.6404 59.6002 70.5349 59.4774 70.4096H59.4787Z" fill="#BBC8F0"/>
<path d="M81.3931 66.5057C74.9275 62.8925 68.5313 60.9582 68.5189 61.0674C68.4271 61.0885 68.3316 61.1815 68.3874 61.2882C69.4718 63.3715 66.7819 66.8903 65.8972 67.8903C65.7396 68.069 65.7719 68.342 65.963 68.4834C69.3192 70.965 76.6869 75.1786 81.6127 74.918C82.3051 74.8808 83.8697 67.8891 81.3931 66.5057Z" fill="#BBC8F0"/>
<path d="M62.9653 55.0525C64.5795 56.0588 66.123 57.2871 66.9903 59.0217C67.0623 59.1644 67.2757 59.0391 67.205 58.8964C66.3203 57.1258 64.7395 55.8665 63.0918 54.8391C62.9553 54.7547 62.8313 54.9694 62.9665 55.0538L62.9653 55.0525Z" fill="#5E2015"/>
<path d="M60.7157 54.8042C60.9366 55.3563 61.4341 55.8154 61.8709 56.2025C62.3436 56.6219 62.8647 56.9792 63.4218 57.2758C63.5633 57.3502 63.6886 57.1368 63.5471 57.0611C63.0396 56.7906 62.5607 56.4718 62.124 56.0946C61.6996 55.7273 61.1673 55.2682 60.9552 54.7384C60.8968 54.592 60.6561 54.6565 60.7157 54.8042Z" fill="#5E2015"/>
<path d="M57.8024 60.2015C59.0258 61.8641 60.6612 63.183 62.5521 64.0119C62.6973 64.0751 62.8238 63.8617 62.6774 63.7972C60.8274 62.987 59.2144 61.7053 58.0171 60.0761C57.924 59.9483 57.7081 60.0724 57.8024 60.2015Z" fill="#5E2015"/>
<path d="M59.1672 53.6209C59.3819 55.3021 60.4055 56.8035 61.9056 57.5988C62.047 57.6732 62.1723 57.4598 62.0309 57.3841C60.6139 56.6335 59.6176 55.214 59.4154 53.6196C59.3955 53.4633 59.1474 53.4608 59.1672 53.6196V53.6209Z" fill="#5E2015"/>
<path d="M57.7479 53.8876C57.8559 55.7674 59.0085 57.4995 60.7109 58.311C60.8548 58.3792 60.9801 58.1658 60.8362 58.0963C59.2145 57.3233 58.099 55.6843 57.9961 53.8876C57.9874 53.7288 57.7392 53.7276 57.7479 53.8876Z" fill="#5E2015"/>
<path d="M56.9475 55.4792C57.2788 57.0922 58.2217 58.6816 59.9166 59.1072C60.0717 59.1456 60.1375 58.9074 59.9824 58.8677C58.3694 58.462 57.5009 56.942 57.1869 55.4122C57.1547 55.2558 56.9152 55.3216 56.9475 55.4779V55.4792Z" fill="#5E2015"/>
<path d="M64.7483 53.767C64.8897 54.5325 64.8922 55.3055 64.7569 56.0723C64.7296 56.2287 64.9679 56.2957 64.9964 56.1381C65.1403 55.3254 65.1379 54.5115 64.9877 53.7012C64.9592 53.5449 64.7197 53.6107 64.7483 53.767Z" fill="#5E2015"/>
<path d="M66.3799 54.039C66.3737 54.5626 66.4084 55.1073 66.329 55.6259C66.2509 56.1408 66.0461 56.626 65.8451 57.1012C65.7831 57.2464 65.9977 57.3729 66.0598 57.2265C66.2695 56.7302 66.4841 56.2277 66.5685 55.6917C66.6541 55.1495 66.6218 54.5862 66.628 54.039C66.6293 53.8789 66.3811 53.8789 66.3799 54.039Z" fill="#5E2015"/>
<path d="M67.1975 55.375C67.236 56.3316 67.097 57.2708 66.7831 58.1754C66.731 58.3267 66.9705 58.3913 67.0226 58.2411C67.3427 57.3168 67.4842 56.3514 67.4457 55.375C67.4395 55.2161 67.1913 55.2149 67.1975 55.375Z" fill="#5E2015"/>
<path d="M65.3562 65.6436C65.2371 66.2317 64.9182 66.8298 65.0807 67.4415C65.2209 67.97 65.6651 68.3423 66.0845 68.6562C67.2533 69.5309 68.4904 70.3213 69.7547 71.0496C69.8937 71.129 70.019 70.9156 69.88 70.835C68.7745 70.1985 67.7 69.5111 66.6615 68.7703C66.2098 68.4477 65.6664 68.114 65.4071 67.6028C65.0956 66.9886 65.4703 66.3236 65.5944 65.7094C65.6254 65.553 65.3872 65.4873 65.3549 65.6436H65.3562Z" fill="#261422"/>
<path d="M66.9854 66.2875C66.6665 66.7652 66.195 67.0915 65.6379 67.2305C65.4828 67.269 65.5486 67.5084 65.7037 67.47C66.324 67.3161 66.8452 66.9439 67.1988 66.4128C67.2881 66.2801 67.0722 66.1548 66.9841 66.2875H66.9854Z" fill="#261422"/>
<path d="M57.1746 68.2817C57.6151 69.1217 57.9985 70.0249 58.8261 70.5572C58.9613 70.6441 59.0854 70.4294 58.9514 70.3426C58.166 69.8376 57.8062 68.9517 57.3893 68.1563C57.3149 68.0149 57.1014 68.1402 57.1746 68.2817Z" fill="#261422"/>
<path d="M59.1127 67.2279C59.3472 67.7999 59.5333 68.3893 59.6574 68.9948C59.7839 69.6115 59.9465 70.4688 59.3062 70.8621C59.171 70.9453 59.2951 71.1599 59.4315 71.0768C59.9824 70.7381 60.0705 70.0954 59.9948 69.4998C59.8919 68.697 59.6598 67.9091 59.3521 67.1622C59.2926 67.017 59.0519 67.0803 59.1127 67.2279Z" fill="#261422"/>
<path d="M56.7502 62.6821C56.0777 62.1399 55.2588 62.5605 54.5268 62.728C53.9449 62.8608 53.3567 62.9687 52.7723 63.0866C50.8305 63.4749 48.89 63.877 46.973 64.3782C45.9208 64.6537 44.8711 64.9539 43.855 65.346C43.7073 65.4031 43.7718 65.6426 43.9207 65.5855C45.7062 64.8956 47.5909 64.4527 49.4545 64.0345C51.034 63.6809 52.6234 63.3794 54.2091 63.0494C54.4077 63.0084 54.6062 62.9687 54.8022 62.9154C55.3581 62.7652 56.0579 62.4401 56.5753 62.857C56.6981 62.9563 56.8756 62.7814 56.7502 62.6821Z" fill="#261422"/>
<path d="M68.6963 61.3172C69.1815 60.9971 69.7634 61.1534 70.2795 61.306C70.8044 61.4611 71.3255 61.6274 71.8429 61.8023C72.7189 62.0976 73.5849 62.4252 74.4361 62.785C76.2141 63.5381 77.9388 64.4104 79.6883 65.2268C79.8322 65.2938 79.9588 65.0804 79.8136 65.0122C77.9835 64.1585 76.1794 63.2441 74.3157 62.4674C73.3963 62.084 72.462 61.7415 71.5153 61.4313C70.9744 61.2539 70.4247 61.0541 69.8651 60.94C69.4184 60.8494 68.9631 60.842 68.571 61.1013C68.4382 61.1894 68.5623 61.404 68.6963 61.3159V61.3172Z" fill="#261422"/>
<path d="M75.5193 52.0942C76.3233 55.6329 76.3357 59.3217 75.554 62.8653C75.5193 63.0204 75.7588 63.0874 75.7935 62.9311C76.5839 59.344 76.5727 55.6106 75.7588 52.0285C75.7228 51.8734 75.4845 51.9391 75.5193 52.0942Z" fill="#261422"/>
<path d="M89.6541 12.5996C89.6156 12.6381 89.5772 12.6753 89.54 12.7138C89.4357 12.818 89.597 12.9806 89.7013 12.8751C89.7397 12.8366 89.7782 12.7994 89.8154 12.7609C89.9196 12.6567 89.7583 12.4942 89.6541 12.5996Z" fill="#FFE8DB"/>
<path d="M91.5662 13.2536C91.4421 13.2585 91.3379 13.3541 91.3379 13.4831V13.5973C91.3379 13.7176 91.4433 13.8318 91.5662 13.8268C91.6902 13.8218 91.7957 13.7263 91.7957 13.5973V13.4831C91.7957 13.3628 91.6902 13.2486 91.5662 13.2536Z" fill="#FFE8DB"/>
<path d="M86.8723 16.7437H86.7582C86.6688 16.7437 86.582 16.8231 86.5869 16.9149C86.5907 17.0079 86.6626 17.0861 86.7582 17.0861H86.8723C86.9617 17.0861 87.0485 17.0067 87.0435 16.9149C87.0398 16.8218 86.9679 16.7437 86.8723 16.7437Z" fill="#FFE8DB"/>
<path d="M61.1178 5.98535H61.0036C60.9143 5.98535 60.8275 6.06476 60.8324 6.15658C60.8361 6.24963 60.9081 6.3278 61.0036 6.3278H61.1178C61.2071 6.3278 61.294 6.24839 61.289 6.15658C61.2853 6.06352 61.2133 5.98535 61.1178 5.98535Z" fill="#FFE8DB"/>
<path d="M56.7677 4.38184C56.5468 4.38184 56.5468 4.72553 56.7677 4.72553C56.9885 4.72553 56.9885 4.38184 56.7677 4.38184Z" fill="#FFE8DB"/>
<path d="M37.7665 24.5854C37.4725 24.5854 37.4712 25.0433 37.7665 25.0433C38.0618 25.0433 38.0618 24.5854 37.7665 24.5854Z" fill="#FFE8DB"/>
<path d="M30.6694 24.6997C30.3753 24.6997 30.3741 25.1575 30.6694 25.1575C30.9647 25.1575 30.9647 24.6997 30.6694 24.6997Z" fill="#FFE8DB"/>
<path d="M33.4177 22.5244C33.1236 22.5244 33.1224 22.9823 33.4177 22.9823C33.713 22.9823 33.713 22.5244 33.4177 22.5244Z" fill="#FFE8DB"/>
<path d="M27.7002 31.2172L27.5861 31.103C27.5203 31.0373 27.4086 31.0373 27.3429 31.103C27.2771 31.1688 27.2771 31.2805 27.3429 31.3462L27.457 31.4604C27.5228 31.5261 27.6344 31.5261 27.7002 31.4604C27.766 31.3946 27.766 31.2829 27.7002 31.2172Z" fill="#FFE8DB"/>
<path d="M22.1999 28.0771C21.979 28.0771 21.979 28.4208 22.1999 28.4208C22.4207 28.4208 22.4207 28.0771 22.1999 28.0771Z" fill="#FFE8DB"/>
<path d="M23.9159 24.8721C23.695 24.8721 23.695 25.2158 23.9159 25.2158C24.1367 25.2158 24.1367 24.8721 23.9159 24.8721Z" fill="#FFE8DB"/>
<path d="M16.934 48.7951C16.8409 48.7988 16.7628 48.8708 16.7628 48.9664V49.0805C16.7628 49.1698 16.8422 49.2567 16.934 49.2517C17.027 49.248 17.1052 49.176 17.1052 49.0805V48.9664C17.1052 48.877 17.0258 48.7902 16.934 48.7951Z" fill="#FFE8DB"/>
<path d="M9.95098 51.5425C9.73013 51.5425 9.73013 51.8862 9.95098 51.8862C10.1718 51.8862 10.1718 51.5425 9.95098 51.5425Z" fill="#FFE8DB"/>
<path d="M46.8167 23.5479C46.7509 23.4821 46.6393 23.4821 46.5735 23.5479L46.4594 23.662C46.3936 23.7278 46.3936 23.8394 46.4594 23.9052C46.5251 23.971 46.6368 23.971 46.7025 23.9052L46.8167 23.791C46.8825 23.7253 46.8825 23.6136 46.8167 23.5479Z" fill="#FFE8DB"/>
<path d="M50.709 4.77539C50.6432 4.70963 50.5315 4.70963 50.4658 4.77539L50.3516 4.88955C50.2859 4.95531 50.2859 5.06697 50.3516 5.13274C50.4174 5.1985 50.5291 5.1985 50.5948 5.13274L50.709 5.01858C50.7747 4.95282 50.7747 4.84116 50.709 4.77539Z" fill="#FFE8DB"/>
<path d="M76.4562 3.23682C76.2353 3.23682 76.2353 3.58051 76.4562 3.58051C76.677 3.58051 76.677 3.23682 76.4562 3.23682Z" fill="#FFE8DB"/>
<path d="M78.6386 19.8852L78.5244 19.771C78.4587 19.7052 78.347 19.7052 78.2813 19.771C78.2155 19.8368 78.2155 19.9484 78.2813 20.0142L78.3954 20.1283C78.4612 20.1941 78.5728 20.1941 78.6386 20.1283C78.7044 20.0626 78.7044 19.9509 78.6386 19.8852Z" fill="#FFE8DB"/>
<path d="M99.3495 52.6865C99.1286 52.6865 99.1286 53.0302 99.3495 53.0302C99.5703 53.0302 99.5703 52.6865 99.3495 52.6865Z" fill="#FFE8DB"/>
<path d="M106.905 53.7173H106.79C106.701 53.7173 106.614 53.7967 106.619 53.8885C106.623 53.9816 106.695 54.0597 106.79 54.0597H106.905C106.994 54.0597 107.081 53.9803 107.076 53.8885C107.072 53.7955 107 53.7173 106.905 53.7173Z" fill="#FFE8DB"/>
<path d="M84.2407 35.6306C84.1477 35.6343 84.0695 35.7063 84.0695 35.8018V35.9159C84.0695 36.0053 84.1489 36.0921 84.2407 36.0872C84.3338 36.0835 84.4119 36.0115 84.4119 35.9159V35.8018C84.4119 35.7125 84.3325 35.6256 84.2407 35.6306Z" fill="#FFE8DB"/>
<path d="M86.4145 33.5708H86.185C86.0956 33.5708 86.0088 33.6502 86.0138 33.742C86.0175 33.8351 86.0894 33.9132 86.185 33.9132H86.4145C86.5039 33.9132 86.5907 33.8338 86.5858 33.742C86.582 33.649 86.5101 33.5708 86.4145 33.5708Z" fill="#FFE8DB"/>
<path d="M87.9034 36.2036C87.5349 36.2036 87.5349 36.7756 87.9034 36.7756C88.2719 36.7756 88.2719 36.2036 87.9034 36.2036Z" fill="#FFE8DB"/>
<path d="M99.2354 33.5142H99.1212C99.0009 33.5142 98.8867 33.6196 98.8917 33.7437C98.8967 33.8678 98.9922 33.9732 99.1212 33.9732H99.2354C99.3557 33.9732 99.4699 33.8678 99.4649 33.7437C99.46 33.6196 99.3644 33.5142 99.2354 33.5142Z" fill="#FFE8DB"/>
<path d="M81.0308 52.0077C80.6152 51.6181 80.073 51.5933 79.5456 51.6727C79.3744 51.0784 78.8669 50.6429 78.2528 50.4679C77.4301 50.2322 76.6063 50.5585 75.863 50.9245C74.9945 49.4604 72.7847 50.9531 72.0527 51.9345C72.0254 51.9717 72.008 52.0102 71.9956 52.0487C71.7933 52.339 71.7586 52.7199 71.9236 53.0661C72.1866 53.6195 72.8294 53.8155 73.3927 53.885C74.1409 53.9768 74.8593 53.8602 75.5864 53.6927C75.9015 53.6207 76.1149 53.5761 76.4115 53.7398C76.5306 53.8056 76.6323 53.9135 76.7502 53.9867C77.0368 54.1617 77.3619 54.2746 77.6919 54.3329C78.7242 54.5153 80.6388 54.426 81.2194 53.38C81.4713 52.9259 81.4142 52.3688 81.0284 52.0077H81.0308Z" fill="white"/>
<path d="M62.593 51.2828C62.1861 50.0259 61.1413 48.8186 59.7442 48.7293C58.5295 48.6511 57.2652 49.5655 57.2143 50.8286C57.2081 50.9887 57.4563 50.9875 57.4625 50.8286C57.5096 49.6611 58.7467 48.8546 59.8497 48.9886C61.0855 49.1387 61.99 50.2269 62.3536 51.3498C62.402 51.5011 62.6427 51.4366 62.593 51.284V51.2828Z" fill="#261422"/>
<path d="M102.192 23.6397C101.021 23.4313 99.8272 23.2241 98.6373 23.1571C97.6174 23.1 96.5479 23.2166 95.6694 23.7787C95.4833 23.8978 95.3059 24.0356 95.1495 24.1919C94.9299 24.4103 94.7947 24.7316 94.4386 24.7018C94.2264 24.6832 93.9944 24.5728 93.781 24.5331C93.5688 24.4934 93.3529 24.4686 93.1383 24.4562C92.2797 24.4078 91.4148 24.579 90.6294 24.9239C89.7187 25.3247 88.9358 25.9699 88.3787 26.795C88.2893 26.9278 88.504 27.0519 88.5933 26.9203C89.586 25.4475 91.3714 24.6038 93.1383 24.7043C93.3616 24.7167 93.5825 24.7453 93.8021 24.7899C94.0267 24.8358 94.25 24.9339 94.4771 24.9624C94.8716 25.012 95.054 24.6472 95.291 24.4028C96.0355 23.636 97.141 23.3916 98.1733 23.3928C99.4922 23.3928 100.831 23.6497 102.126 23.8805C102.283 23.9078 102.35 23.6695 102.192 23.641V23.6397Z" fill="#261422"/>
<path d="M92.1009 46.8048C93.1853 46.6721 94.2697 46.9934 95.0961 47.7118C95.2164 47.8161 95.3926 47.6411 95.271 47.5369C94.3975 46.7788 93.2498 46.4165 92.0996 46.5579C91.9433 46.5765 91.9408 46.8259 92.0996 46.8061L92.1009 46.8048Z" fill="#261422"/>
<path d="M32.8406 41.5479C31.8989 39.7413 29.5402 39.2041 27.9123 40.4349C27.787 40.5305 27.9098 40.7451 28.0376 40.6496C29.5625 39.4969 31.7426 39.9758 32.6272 41.6732C32.7017 41.8146 32.9151 41.6893 32.8419 41.5479H32.8406Z" fill="#261422"/>
<path d="M31.4808 15.2498C30.5478 14.1145 29.0626 12.8787 27.5091 13.5698C27.1878 13.7125 26.8962 13.9259 26.6629 14.1877C26.5475 14.3155 26.4458 14.4569 26.359 14.6058C26.313 14.6852 26.2771 14.7671 26.2361 14.8478C26.1666 14.983 26.184 14.9979 26.0227 14.9991C25.8751 14.9991 25.8862 14.9892 25.7956 14.8999C25.2584 14.375 24.5611 14.0227 23.8141 13.9259C22.9878 13.8179 22.1652 14.0413 21.4976 14.5376C21.3711 14.6319 21.4939 14.8478 21.6229 14.7522C22.4356 14.148 23.4667 13.9879 24.4234 14.3254C24.8948 14.4917 25.2931 14.7684 25.6542 15.1096C25.8887 15.3317 26.1852 15.3987 26.3937 15.0897C26.5376 14.8763 26.6121 14.6356 26.7808 14.4309C26.9384 14.2398 27.127 14.0735 27.3367 13.9432C27.7151 13.7075 28.1593 13.5847 28.6047 13.6231C29.7276 13.7211 30.6272 14.6021 31.3046 15.426C31.4064 15.5488 31.5813 15.3726 31.4796 15.251L31.4808 15.2498Z" fill="#261422"/>
</svg>
