<svg width="56" height="92" viewBox="0 0 56 92" fill="none" xmlns="http://www.w3.org/2000/svg">
<path d="M50.8732 12.8365C50.7971 12.7987 50.721 12.7987 50.683 12.8365C50.5689 11.9671 50.3025 11.211 49.808 10.4172C49.6558 10.1904 49.0851 10.3416 49.009 10.6062C48.6666 11.8158 49.047 13.0255 49.0851 14.273C49.0851 14.84 49.0851 15.4448 49.009 16.0119C48.971 16.0119 48.8949 16.0497 48.8568 16.0497C48.9329 16.0497 48.8568 14.6888 48.8568 14.5754C48.8188 14.0462 48.7807 13.5169 48.7046 13.0255C48.6285 12.5341 48.5144 12.0049 48.3622 11.5134C48.2481 11.0976 48.134 10.5306 47.9057 10.1526C47.7915 9.96354 47.5252 9.88794 47.335 9.88794C47.2209 9.88794 47.1448 9.96354 47.0687 10.0013C46.536 10.3794 46.6502 10.9842 46.7643 11.5512C47.0687 13.2523 47.297 14.9156 47.1448 16.6167C47.0687 16.6545 47.0306 16.6923 46.9545 16.7301C47.0687 16.6545 46.8024 15.2558 46.7643 15.0668C46.6502 14.462 46.5741 13.8572 46.4219 13.2901C46.3078 12.9499 46.1556 12.7231 45.8132 12.6097C45.661 12.5719 45.5088 12.6475 45.4327 12.7609C45.0142 13.3657 45.0903 14.1596 45.1284 14.84C45.1664 15.4826 45.2045 16.1631 45.2045 16.8057C45.2045 17.3727 45.1664 17.9398 45.0903 18.469C45.0523 18.7336 45.0523 19.0738 44.9381 19.3007C44.862 19.4141 44.862 19.4141 44.786 19.3007C44.6718 19.1116 44.7099 18.7714 44.7099 18.5824C44.7099 18.2422 44.6718 17.902 44.5957 17.5996C44.5577 17.3727 44.4816 17.1837 44.3294 17.0325C43.949 16.6545 43.6446 16.9191 43.4924 17.3727C43.3783 17.8264 43.4544 18.3556 43.4924 18.8092C43.5305 19.5653 43.5305 20.2835 43.6065 21.0395C43.7207 22.3248 43.9109 23.5723 44.2914 24.8198C44.3294 24.9332 44.4055 24.9332 44.4816 24.9332C45.4708 25.6136 47.297 24.7442 48.4003 24.4795C48.5905 24.4417 48.6666 24.2905 48.6285 24.1393C49.0851 22.8919 49.5036 21.6444 49.846 20.3969C49.884 20.3591 49.884 20.3591 49.9221 20.3213C50.4928 18.8092 51.1395 17.2593 51.52 15.6717C51.7863 14.6132 51.9005 13.4035 50.8732 12.8365Z" fill="#964939"/>
<path d="M50.645 19.3762C50.645 19.3006 50.5689 19.1872 50.4548 19.225C48.971 19.3762 47.6775 19.9811 46.4981 20.8505C45.8893 21.3042 45.2426 21.7578 44.6719 22.2492C44.2153 22.6272 43.3783 23.3833 43.112 23.9125C42.8457 24.3661 43.112 25.4624 42.9979 25.9538C42.275 29.0536 41.3239 32.0777 40.1825 35.0641C39.9923 35.5177 39.5358 35.7823 39.0792 35.7067C37.7476 35.4799 36.416 35.2909 35.0844 34.9129C33.4485 34.4215 32.1549 33.2874 30.6331 32.5314C28.2743 31.3217 26.1438 28.9402 23.4806 28.1463C23.4425 29.0536 23.5186 30.9815 23.5567 31.8509C23.5947 33.7032 23.7469 35.5555 24.0893 37.4078C24.3937 39.1089 24.8502 40.7722 25.4209 42.3977C25.497 42.5867 25.535 42.7757 25.6111 42.9647C25.8014 43.0025 25.9535 43.0781 26.1818 43.1159C28.3504 43.5696 34.704 46.5937 41.5902 46.5559C44.0632 46.5559 45.6611 44.1366 46.5361 42.0575C47.7155 39.2601 48.1721 36.3872 48.7428 33.4008C49.5417 29.2804 50.4928 21.6066 50.7972 19.6409C50.7592 19.4518 50.7211 19.414 50.645 19.3762Z" fill="#D1D5E3"/>
<path d="M50.3786 13.101C50.1504 13.4412 50.1123 13.7437 50.1123 14.1595C50.1504 14.9155 50.2265 15.5204 49.7699 16.2008C49.2753 16.9946 48.6285 17.5617 48.4764 18.5067C48.4383 18.6957 48.7046 18.7713 48.7427 18.5823C48.8949 17.5995 49.6938 16.9946 50.1504 16.1252C50.645 15.1801 50.0743 14.0839 50.6069 13.2522C50.721 13.0632 50.4928 12.912 50.3786 13.101Z" fill="#66281B"/>
<path d="M53.9169 2.36521C52.4712 0.928728 50.6069 0.248291 48.7427 0.248291C46.8785 0.248291 45.0143 0.928728 43.5685 2.36521L41.5521 4.40652L39.4977 2.36521C38.0519 0.928728 36.1497 0.248291 34.3235 0.248291C32.4593 0.248291 30.595 0.928728 29.1493 2.36521C27.4373 4.0285 26.6764 6.48563 27.0949 8.79156C27.7797 12.6096 40.8673 23.8368 41.8945 23.8368C42.9218 23.8368 54.4495 14.2351 55.705 9.66101C56.4279 7.09046 55.8192 4.25531 53.9169 2.36521Z" fill="#E8674A"/>
<path d="M26.2578 19.6785C26.4481 18.3933 26.2959 17.108 26.3339 15.7849C26.4481 12.723 25.6872 10.0012 23.7088 7.61968C22.3772 6.06979 20.0184 5.01133 18.0781 4.48211C17.7737 4.4065 17.5074 4.3309 17.203 4.25529C14.8062 3.72606 12.2571 4.21749 10.3549 5.80518C9.06131 6.86364 8.3004 8.37572 7.80581 9.9256C7.57753 10.6816 7.38731 11.4755 7.23513 12.2693C7.08294 13.1388 6.77858 13.6302 6.39813 14.4241C5.63722 15.8983 5.06654 17.4104 4.87631 19.0737C4.83826 19.2249 4.83826 19.4139 4.91435 19.5651C5.06654 19.9432 5.52308 19.8675 5.86549 19.9054C6.43617 19.9432 11.4201 20.0566 11.4201 20.5102C12.7517 21.0394 14.0453 21.2284 15.4149 21.1906C15.9095 21.1906 16.6323 21.5308 17.165 21.6442C17.7737 21.7577 18.3444 21.8333 18.9531 21.9089C20.3608 22.0979 24.0132 23.5344 25.2306 22.5137C25.7632 22.0601 26.0296 21.115 26.1437 20.3212C26.1817 20.1322 26.2198 19.9054 26.2578 19.6785Z" fill="#471B17"/>
<path d="M33.4485 16.4276C33.1441 15.4069 32.9539 14.3485 32.9159 13.29C32.9159 12.8742 33.03 11.967 32.6876 11.6267C32.193 11.1731 31.8506 11.9292 31.6984 12.3072C31.4321 13.0254 31.4701 13.7437 31.4321 14.4997C31.3941 15.2557 31.3941 16.0496 31.4321 16.8056C31.4701 17.7507 31.6984 19.3006 32.193 20.1322C32.155 20.2078 33.03 17.6751 33.3344 16.6922C33.4105 16.6544 33.4866 16.5788 33.4485 16.4276Z" fill="#964939"/>
<path d="M40.5249 14.8399C39.8401 13.9327 38.4324 16.163 37.7856 17.4105L37.7476 17.3727C37.9758 16.8056 38.2041 16.2008 38.5085 15.6716C38.8128 15.1045 39.2313 14.6131 39.5357 14.0461C39.6879 13.7059 40.1825 12.6474 39.6498 12.3828C39.0791 12.0804 38.2421 13.1766 37.9758 13.5169C37.253 14.3863 36.7584 15.4448 36.1116 16.352C36.416 14.8777 36.9486 13.4791 37.7095 12.1938C37.9758 11.778 39.2313 10.0013 38.2421 9.66104C37.4432 9.39643 36.416 11.1353 36.0736 11.6646C35.2746 12.9876 34.78 14.4619 34.1332 15.8606C34.0952 15.9362 33.8669 15.7094 33.8669 15.7094C33.7908 15.5582 33.943 15.1423 33.9811 14.9533C34.0952 14.2729 34.1713 13.5169 34.4757 12.912C34.78 12.3072 35.1985 11.778 35.5029 11.1731C35.6931 10.8329 36.1877 8.98061 35.1985 9.20742C34.8181 9.28302 34.3996 10.0769 34.1713 10.3793C33.7147 11.0597 33.2962 11.778 32.9538 12.5718C32.4973 13.6681 32.269 14.8777 32.1168 16.0118C31.8505 17.7129 31.9647 19.4518 32.4212 21.0773C32.7256 22.1735 33.068 23.232 33.4104 24.3282C33.6386 25.0087 33.7908 26.8988 34.5898 27.1256C35.5029 27.3902 36.6062 27.3902 37.5573 27.5414C37.9758 27.5792 38.4324 27.7304 38.8128 27.5792C38.8889 27.7304 39.1933 27.6548 39.1172 27.4658C39.1172 27.428 39.1172 27.3902 39.0791 27.3902C39.1172 27.3146 39.0791 27.239 39.0031 27.1634C38.6987 26.1805 38.5085 25.1977 38.3563 24.177C38.3182 23.9124 38.965 23.799 38.8128 21.8333C38.7748 21.3419 38.6606 20.8883 38.5846 20.3968C38.5085 20.0566 38.5085 19.7164 38.5846 19.414C38.8128 18.5445 39.1933 17.7129 39.802 16.9568C40.1064 16.4654 40.8673 15.2557 40.5249 14.8399Z" fill="#964939"/>
<path d="M36.568 87.5334C36.2637 84.8872 35.8832 82.2789 35.4647 79.6706C34.5136 73.8112 33.6766 69.3884 32.1548 63.6425C32.1167 63.5669 32.0787 63.5291 32.0406 63.4535C31.9645 61.4878 31.3939 58.01 30.709 56.2333C30.5949 55.8931 30.1384 55.9309 29.9862 56.1577C25.8773 55.1748 21.6923 54.9102 17.5073 55.4772C15.3767 55.7418 13.2842 56.1577 11.1156 56.0821C9.66992 56.0065 8.33833 55.9687 7.04479 56.4601C6.81652 56.2711 6.39802 56.3467 6.39802 56.7247V56.7625C6.24583 56.9137 6.28388 57.1027 6.39802 57.2161C6.43606 59.4464 6.47411 61.6768 6.51215 63.8693C6.51215 64.2851 6.47411 64.7009 6.35997 65.079C3.81093 74.038 1.07166 91.805 1.22384 91.5404C3.96311 91.805 6.74043 91.9184 9.51774 91.7672C12.5233 91.616 24.3174 91.5026 27.2089 91.6916C29.9481 91.8428 33.2581 92.2208 35.9213 91.5026C37.6714 91.1246 36.7202 88.7809 36.568 87.5334Z" fill="#FAE7DC"/>
<path d="M7.91992 27.4657C10.3929 28.6754 13.6648 28.7888 15.9475 27.3523C15.7192 26.2561 16.0997 25.0464 16.328 23.9879C16.7084 22.5137 17.0508 21.0016 17.4313 19.5273C17.4693 19.3761 17.3552 19.3005 17.2411 19.3005C16.7084 16.8056 16.0236 14.3106 14.8442 12.0803C14.2735 10.984 13.5887 9.96338 12.7517 9.05613C12.2191 8.45129 11.5342 7.92207 10.7353 8.41349C10.6211 8.4891 10.6211 8.64031 10.7353 8.71591C10.0505 9.88777 10.1646 14.3862 10.1646 15.2935C10.1646 16.3519 9.97438 17.4104 9.82219 18.431C9.40369 21.493 8.87106 24.5172 7.91992 27.4657Z" fill="#964939"/>
<path d="M32.307 57.2915C32.0027 54.532 31.5842 51.7724 31.0135 49.0129C30.7852 47.8788 30.7091 46.7448 30.7852 45.5729C30.8233 45.1949 30.8233 44.8169 30.8233 44.4388C30.8613 41.2257 29.5297 38.2393 28.2362 35.3285C27.8938 33.0604 27.2089 30.7545 25.573 29.318C23.3283 27.3523 16.7084 26.1804 16.7084 26.1804C17.1269 25.9158 13.018 25.8402 11.6103 25.9536C10.6592 26.0292 8.45255 26.0292 8.22427 26.1426C5.94155 27.3523 3.77296 28.6376 2.70769 31.0947C1.52828 33.8165 1.3761 37.4455 0.919552 41.1879C0.158644 47.652 -0.716401 54.7588 0.957598 61.2229C0.995643 61.4498 1.18587 61.5254 1.3761 61.4876C9.89827 64.4739 20.6651 61.3364 29.3395 60.9583C29.8721 60.9205 30.3667 60.8449 30.8993 60.7693C31.1657 60.7315 31.9266 60.7693 32.2309 60.5047C32.9918 59.8999 32.3831 58.0476 32.307 57.2915Z" fill="#D1D5E3"/>
<path d="M23.2524 10.3414C23.2143 10.1146 23.1763 9.92559 23.1002 9.69878C22.4154 7.05263 19.5239 5.20033 16.7846 4.97352C16.0998 4.89792 15.415 5.01132 14.7682 5.23814C12.2953 6.14538 10.9637 8.37571 11.192 10.9462C11.2681 11.7779 11.6866 12.3827 11.9909 13.1388C12.2953 13.857 12.1812 14.7643 12.2192 15.5581C12.2572 16.7678 12.2953 18.2798 13.1703 19.2249C14.0454 20.1321 15.5672 20.8882 16.7466 21.3418C18.9913 22.1735 20.8175 21.9088 21.4642 19.5651C22.3012 16.6166 23.747 13.479 23.2524 10.3414Z" fill="#964939"/>
<path d="M18.7249 23.0429C18.6107 22.8539 18.4585 22.7027 18.1542 22.5893C17.8118 22.4381 17.4694 22.4003 17.0889 22.3625C15.3769 22.2113 9.09936 20.5102 8.26236 22.5893C7.84386 23.6855 7.15905 26.8609 7.04491 28.4864C7.00687 28.7888 7.34927 28.9022 7.57755 28.7888C10.7734 30.6789 14.2355 29.3181 17.2791 27.7682C17.4694 27.6926 17.5074 27.5036 17.4313 27.3523C17.5454 27.3145 17.6596 27.2389 17.6976 27.0877C18.1161 25.7269 18.3444 24.9708 18.6488 23.5721C18.839 23.0429 18.9531 23.4965 18.7249 23.0429Z" fill="#D1D5E3"/>
<path d="M13.5888 19.8297C14.3877 20.6991 15.4149 21.1906 16.5563 21.4174C16.7465 21.4552 16.8226 21.1906 16.6324 21.1528C15.5291 20.926 14.5399 20.4723 13.779 19.6407C13.7029 19.4895 13.4746 19.7163 13.5888 19.8297Z" fill="#66281B"/>
<path d="M33.9048 42.3219C33.4483 39.9782 30.671 39.1466 28.6926 38.5417C25.5729 37.5967 22.4532 36.387 19.4856 35.0639C16.48 33.7031 13.7027 32.2288 10.583 31.1703C8.79485 30.6033 5.71316 29.0534 4.22939 30.9813C3.04998 32.4934 3.81089 35.3285 4.19135 37.332C4.07721 37.4077 3.96307 37.5589 4.00112 37.7479C4.41962 39.6758 5.48489 41.5659 6.35994 43.3426C7.15889 44.9303 8.14807 46.0643 9.78403 46.8582C13.931 48.8995 18.8008 49.5421 23.3282 50.1091C25.9914 50.4494 28.6546 50.6762 31.3177 50.3738C32.4971 50.2604 33.182 49.7311 33.4483 48.5215C33.9048 46.5558 34.2853 44.3254 33.9048 42.3219Z" fill="#D1D5E3"/>
<path d="M40.1445 22.854C40.1064 22.7406 40.0303 22.7028 39.9543 22.7406C38.5846 22.665 32.4213 20.4724 32.3071 20.5481C32.0408 20.6993 32.0789 20.7749 32.1169 21.1529C32.3071 22.9674 33.3724 24.6307 33.1061 26.483C32.4593 31.057 31.0136 35.4799 28.845 39.6003C28.7689 39.6003 28.6928 39.6759 28.6928 39.7893C28.6548 43.1537 27.7417 50.7519 27.7797 50.6007C29.2635 50.7141 32.0789 50.7141 33.5626 50.5251C34.8942 50.3361 36.0356 49.8069 37.0248 48.7862C37.8998 47.8789 39.5358 43.0781 40.0303 41.5282C42.1989 34.7616 41.5902 29.3181 40.1445 22.854Z" fill="#D1D5E3"/>
<path d="M7.38729 65.3058C15.1866 66.7045 23.1761 66.4399 30.8233 64.512C31.0135 64.4741 30.9374 64.2095 30.7472 64.2473C23.1381 66.1374 15.1866 66.4399 7.46338 65.0412C7.27315 65.0034 7.19706 65.268 7.38729 65.3058Z" fill="#2E0C12"/>
<path d="M12.219 66.9313C11.0776 73.9246 10.2786 80.9558 9.89819 88.0248C9.89819 88.2138 10.1645 88.2138 10.2026 88.0248C10.583 80.9936 11.382 73.9624 12.5233 67.0069C12.5233 66.8179 12.257 66.7422 12.219 66.9313Z" fill="#2E0C12"/>
<path d="M19.2195 68.2921C19.676 73.5844 19.9804 78.8767 20.1706 84.2068C20.1706 84.3958 20.475 84.3958 20.475 84.2068C20.2848 78.9145 19.9423 73.5844 19.5238 68.2921C19.4858 68.1031 19.2195 68.1031 19.2195 68.2921Z" fill="#2E0C12"/>
<path d="M27.4754 67.5737C29.4158 71.6185 30.5191 75.9658 30.7854 80.4264C30.7854 80.6154 31.0898 80.6154 31.0898 80.4264C30.8234 75.928 29.7201 71.5051 27.7418 67.4225C27.6657 67.2713 27.3994 67.4225 27.4754 67.5737Z" fill="#2E0C12"/>
<path d="M29.1874 38.5418C25.3068 37.6345 21.8066 35.82 18.2684 34.0433C14.8823 32.3044 11.1539 30.1875 7.2352 30.5655C7.04497 30.5655 7.04497 30.868 7.2352 30.868C11.4202 30.4899 15.415 32.9093 18.9912 34.7616C22.2631 36.4249 25.497 38.0125 29.1113 38.8442C29.3015 38.882 29.3776 38.6174 29.1874 38.5418Z" fill="#2E0C12"/>
<path d="M31.2799 50.3738C27.209 50.147 23.1381 49.769 19.1053 49.2019C15.5671 48.7105 12.0669 47.9923 8.98524 46.14C8.83306 46.0644 8.68087 46.2912 8.83306 46.3668C11.9528 48.2191 15.491 48.9751 19.0292 49.4666C23.1001 50.0336 27.1709 50.4116 31.2799 50.6384C31.4701 50.6384 31.4701 50.3738 31.2799 50.3738Z" fill="#2E0C12"/>
<path d="M34.0953 25.6892C35.4269 26.3318 36.8345 26.7098 38.3183 26.7476C38.5085 26.7476 38.5085 26.483 38.3183 26.4452C36.8726 26.4074 35.541 26.0672 34.2474 25.4245C34.0953 25.3489 33.9431 25.5757 34.0953 25.6892Z" fill="#2E0C12"/>
<path d="M29.758 38.7308C28.2362 40.1672 27.3992 42.0573 26.7905 43.9853C26.7144 44.1743 27.0188 44.2499 27.0568 44.0609C27.6655 42.1708 28.5025 40.3185 29.9482 38.9198C30.0624 38.8064 29.8722 38.6174 29.758 38.7308Z" fill="#2E0C12"/>
<path d="M27.2091 39.449C25.6493 39.638 24.2416 40.3184 23.1002 41.3769C22.9481 41.4903 23.1763 41.7171 23.2905 41.5659C24.3938 40.5452 25.7254 39.9026 27.2091 39.7136C27.3994 39.7136 27.3994 39.449 27.2091 39.449Z" fill="#2E0C12"/>
<path d="M12.2192 15.8607C11.7627 13.5926 12.029 12.1183 12.5236 9.92576C12.5236 9.88796 13.741 9.69895 13.741 9.69895C13.741 9.66115 13.7791 9.58554 13.7791 9.54774C13.8551 9.50994 13.9312 9.39653 13.8551 9.28313C13.4366 8.30027 12.2953 8.03566 11.3442 8.41368C10.1647 8.8673 9.36579 10.0014 8.79511 11.0598C8.0342 12.5341 7.65375 14.1974 6.93088 15.7095C6.55043 16.5033 6.09388 17.2216 5.59929 17.9398C5.29493 18.4312 5.1047 18.469 5.14275 19.0361C5.06666 19.1117 4.83838 19.7165 4.95252 19.7921C5.78952 20.5859 9.78429 22.4382 13.5127 21.0396C14.9585 20.4725 12.4094 16.8435 12.2192 15.8607Z" fill="#471B17"/>
<path d="M17.3172 26.1428C14.4258 27.0123 11.4202 27.1257 8.45264 26.5209C8.26241 26.4831 8.18632 26.7477 8.37655 26.7855C11.3821 27.3903 14.4638 27.2769 17.3933 26.4075C17.5835 26.3697 17.5074 26.105 17.3172 26.1428Z" fill="#2E0C12"/>
<path d="M23.975 8.41344C18.8389 3.53698 14.8441 3.76379 12.8657 4.86005C10.8493 5.99411 10.2787 8.67806 9.8982 10.7572C9.86015 10.8328 9.86015 10.9084 9.86015 11.0218V11.0596V11.0974C9.82211 11.5132 10.1265 12.4583 10.5069 12.7229C11.1917 13.2521 12.1429 12.9875 12.8277 12.5717C13.8549 11.929 14.8441 11.0974 15.6431 10.1901C16.3659 9.3585 16.9746 7.80861 18.0019 7.24158C18.6106 6.93916 19.8661 7.80861 20.3607 8.11103C21.426 8.86707 22.2249 9.81212 22.4912 11.0596C23.0619 13.7813 22.9097 16.0873 22.5293 18.809C22.4151 19.5651 22.2249 20.2833 22.1108 21.0393C22.0727 21.3418 21.9966 21.493 22.2249 21.7198C22.301 21.7954 22.3771 21.7954 22.4532 21.7576C24.5457 20.8881 25.8773 10.2657 23.975 8.41344Z" fill="#471B17"/>
<path d="M13.0941 13.6303C12.98 12.4962 12.4093 11.2109 11.1158 11.5133C9.97441 11.778 10.3549 13.2522 10.6592 13.9327C10.8875 14.4241 11.306 15.0289 11.8386 15.3314C12.3332 15.596 12.7517 15.4448 12.942 14.9533C13.0941 14.6509 13.1322 14.1595 13.0941 13.6303Z" fill="#964939"/>
<path d="M17.3172 12.5717C17.2411 11.8912 16.4802 11.8156 16.1377 12.3449C15.8714 12.7985 15.7192 13.9326 16.4421 14.046C17.0889 14.1216 17.3932 13.0631 17.3172 12.5717Z" fill="#1A0504"/>
<path d="M22.1872 13.8571C22.1111 13.1766 21.5024 13.101 21.16 13.6303C20.8937 14.0839 20.7795 15.218 21.3883 15.3314C21.959 15.4448 22.2253 14.3485 22.1872 13.8571Z" fill="#1A0504"/>
<path d="M11.2298 12.3828C12.0288 12.6474 12.219 13.5169 12.4092 14.2351C12.4473 14.4241 12.7136 14.3485 12.6755 14.1595C12.4853 13.3279 12.181 12.4206 11.3059 12.1182C11.1157 12.0804 11.0396 12.345 11.2298 12.3828Z" fill="#66281B"/>
<path d="M20.0946 14.1974C20.3229 14.5376 20.5512 14.9912 20.4371 15.407C20.3229 15.8606 19.8664 15.9362 19.4859 15.9741C19.2957 16.0119 19.3718 16.2765 19.562 16.2387C20.0186 16.1631 20.5512 16.0497 20.7034 15.5582C20.8936 15.0668 20.6273 14.4242 20.361 14.0083C20.2468 13.8949 20.0186 14.0461 20.0946 14.1974Z" fill="#66281B"/>
<path d="M18.4586 15.596C18.7249 15.5582 18.9532 15.596 19.1815 15.7094C19.3337 15.785 19.4859 15.5204 19.3337 15.4826C19.0674 15.3692 18.763 15.2936 18.4586 15.3314C18.3064 15.3314 18.2684 15.596 18.4586 15.596Z" fill="#66281B"/>
<path d="M10.8495 15.5959C10.7734 16.7299 10.8495 17.864 11.1919 18.9602C11.2299 19.1493 11.5343 19.0736 11.4582 18.8846C11.1538 17.7884 11.0397 16.7299 11.1538 15.5959C11.1538 15.4068 10.8875 15.4068 10.8495 15.5959Z" fill="#2E0C12"/>
<path d="M15.5289 6.56126C13.6646 7.3929 12.7896 9.2074 12.3331 11.0975C12.295 11.2865 12.5613 11.3621 12.5994 11.1731C13.0559 9.35861 13.8549 7.61972 15.6811 6.82587C15.8713 6.71247 15.7191 6.48565 15.5289 6.56126Z" fill="#2E0C12"/>
<path d="M11.2679 8.41344C11.0016 9.39629 10.8494 10.4169 11.4962 11.2864C11.6103 11.4376 11.8386 11.2864 11.7245 11.1352C11.1158 10.3413 11.306 9.39629 11.5343 8.48904C11.6103 8.30003 11.344 8.22443 11.2679 8.41344Z" fill="#2E0C12"/>
<path d="M18.4206 10.0768C17.926 9.43418 17.051 9.28297 16.2901 9.43418C15.6813 9.54758 14.3878 10.0012 14.6161 10.8707C14.8443 11.7401 15.9096 11.2109 16.5183 11.3243C17.051 11.3999 17.7738 11.6645 18.2684 11.3243C18.725 11.0219 18.725 10.4548 18.4206 10.0768Z" fill="#471B17"/>
<path d="M21.5785 11.0219C22.2252 10.5683 22.872 10.7195 23.3666 11.0975C23.7851 11.4 24.546 12.1938 24.0134 12.912C23.4807 13.6303 22.9481 12.8364 22.4535 12.723C22.035 12.6096 21.3882 12.6096 21.16 12.156C21.0078 11.778 21.198 11.2866 21.5785 11.0219Z" fill="#471B17"/>
<path d="M19.5999 7.20378C20.2467 7.20378 20.9696 7.16598 21.5783 7.4306C22.4534 7.77081 22.7958 8.48905 23.1001 9.3207C23.5186 10.5304 23.6328 11.8534 23.4045 13.1387C23.3664 13.3277 23.6328 13.4033 23.6708 13.2143C23.9371 11.6644 23.7849 10.0767 23.1001 8.60246C22.4153 7.12818 21.1218 6.90137 19.5999 6.90137C19.4097 6.93917 19.4097 7.20378 19.5999 7.20378Z" fill="#2E0C12"/>
<path d="M22.6815 16.0497C22.7196 17.7508 22.4152 19.3763 21.7304 20.9262C21.6543 21.0774 21.9206 21.2286 21.9587 21.0774C22.6815 19.4519 22.9859 17.7886 22.9479 16.0497C22.9859 15.8985 22.6815 15.8985 22.6815 16.0497Z" fill="#2E0C12"/>
<path d="M20.2849 17.1836C20.2468 17.1458 20.1707 17.108 20.0947 17.0702C19.1435 16.8812 18.2304 16.73 17.2793 16.5788C16.7086 16.5032 16.5564 16.6922 16.6706 17.297C16.7847 18.0909 17.5456 18.6201 18.3065 18.7713C18.687 18.8469 19.1055 18.8847 19.4859 18.7713C19.9425 18.6579 20.5892 17.5616 20.2849 17.1836Z" fill="#66281B"/>
<path d="M18.3444 17.675C18.8771 17.8262 19.5999 18.0152 19.9804 17.4482C20.0565 17.3726 20.0565 17.1836 20.0565 17.0324C19.1434 16.8812 18.1923 16.6922 17.2792 16.5409C16.7846 16.4653 16.5944 16.6166 16.6324 17.0324C17.165 17.4104 17.7738 17.5238 18.3444 17.675Z" fill="white"/>
<path d="M32.6494 12.8363C32.307 13.7814 32.1929 14.7642 32.1929 15.7849C32.1929 15.9739 32.4972 15.9739 32.4972 15.7849C32.4972 14.802 32.6114 13.857 32.9538 12.9119C32.9538 12.7607 32.6875 12.6851 32.6494 12.8363Z" fill="#66281B"/>
<path d="M41.2096 31.6996C41.2096 36.6517 40.1824 41.5281 38.204 46.0644C38.1279 46.2156 38.3943 46.3668 38.4323 46.2156C40.4487 41.6416 41.4759 36.7273 41.4759 31.7374C41.514 31.5106 41.2096 31.5106 41.2096 31.6996Z" fill="#2E0C12"/>
<path d="M31.1657 33.5895C30.6711 35.404 30.1004 37.1807 29.4917 38.9196C29.4156 39.1086 29.7199 39.1842 29.758 38.9952C30.3667 37.2185 30.9374 35.4418 31.432 33.6651C31.5081 33.5139 31.2037 33.4383 31.1657 33.5895Z" fill="#2E0C12"/>
<path d="M49.4274 23.4966C47.373 24.0636 45.4327 24.8953 43.6065 26.0293C43.4543 26.1427 43.6065 26.3696 43.7587 26.2561C45.5468 25.1599 47.4491 24.2904 49.5035 23.7612C49.6938 23.6856 49.6177 23.421 49.4274 23.4966Z" fill="#2E0C12"/>
<path d="M26.1056 33.325C27.2469 34.7992 28.16 36.4247 28.8829 38.1258C28.959 38.277 29.2253 38.2014 29.1492 38.0502C28.4263 36.3113 27.5133 34.6858 26.3338 33.1738C26.2197 33.0603 25.9914 33.1738 26.1056 33.325Z" fill="#2E0C12"/>
<path d="M11.953 14.9533C11.953 15.4825 11.953 16.0117 11.8008 16.541C11.6106 17.2214 10.9638 17.864 10.279 17.2214C9.48001 16.4654 10.2029 15.2557 10.9257 14.7265C11.0779 14.6131 10.9257 14.3863 10.7736 14.4997C9.89851 15.1423 9.06151 16.7678 10.2409 17.5616C10.6975 17.9018 11.3442 17.8262 11.7247 17.4104C12.2573 16.8056 12.2573 15.7471 12.2193 14.9911C12.2193 14.7643 11.953 14.7643 11.953 14.9533Z" fill="white"/>
</svg>
