<svg width="101" height="88" viewBox="0 0 101 88" fill="none" xmlns="http://www.w3.org/2000/svg">
<path d="M63.3999 52.2C63.1999 50.8 62.3999 49.3999 61.6999 48.0999C61.0999 47.0999 60.1999 46.3 58.8999 46.2C57.8999 46.2 56.2999 46.5999 56.2999 46.5999C56.2999 46.5999 54.5999 54.2999 53.6999 57.5999C53.1999 59.2999 52.5999 60.7999 51.6999 62.2999C50.8999 63.6999 49.9999 65.1 49.1999 66.4C49.0999 66.4 48.9999 66.4 48.9999 66.5C48.9999 66.5 48.9999 66.4999 48.9999 66.5999C48.8999 66.6999 48.9999 66.8 49.0999 66.8C49.3999 67.2 49.7999 67.5 50.0999 67.8C50.6999 68.4 51.3999 68.9 51.9999 69.4C53.0999 70.3 55.2999 72.7 56.4999 73.5C56.7999 73.7 60.0999 69.2 60.8999 67.3C61.9999 64.6 62.9999 57.6 63.3999 55.9C63.8999 54.7 63.5999 53.6 63.3999 52.2Z" fill="#F095A6"/>
<path d="M99.8001 87.3C100 87 100.2 86.7 100.4 86.4C100.5 82.5 100.4 77.9 100 74.3C100 73.9 99.6001 73.7 99.3001 73.7L99.2001 73.6C97.8001 72.1 96.2001 71.3 94.1001 71.4C91.6001 71.6 89.2001 72.4 86.6001 72.4C84.0001 72.5 81.4001 72.2 78.7001 72.1C77.0001 72 74.4001 71.5 72.9001 72.6C72.3001 73 72.1001 73.6 72.0001 74.3C71.8001 75.4 70.7001 83.1 70.8001 87.5C77.6001 87.7 84.4001 88 91.2001 87.8C93.4001 87.7 95.6001 87.8 97.8001 87.7C98.5001 87.6 99.1001 87.5 99.8001 87.3Z" fill="#964939"/>
<path d="M80.3 14.6999C80.6 13.4999 80.6 11.9999 81.1 10.8999C81.2 10.4999 81.4 10.3999 81.8 10.2999C81.9 10.2999 82.1 10.2999 82.2 10.1999C83 10.0999 83.6 9.39988 83.5 8.69988C83.4 7.19988 82.3 5.99988 81 5.39988C80.6 5.19988 80.3 4.89988 80.3 4.49988C80 2.69988 79.1 0.699881 77.4 0.199881C76.7 -0.000118837 75.8 0.0998812 75.3 0.799881C75.3 0.799881 75.3 0.799881 75.3 0.899881C75.2 1.09988 75 1.09988 74.8 1.09988C74.3 0.999881 73.8 0.999881 73.3 1.19988C73.1 0.999881 73 1.09988 72.9 1.19988C72.8 1.29988 72.6 1.29988 72.4 1.19988C71.2 0.599881 69.9 0.199881 68.6 0.699881C67.8 0.999881 67 1.59988 66.7 2.29988C66.4 2.89988 66.5 3.59988 66.7 4.19988C66.8 4.49988 66.6 4.79988 66.3 4.79988C64.3 4.79988 62 5.99988 61.9 8.09988C61.7 10.7999 64.5 12.0999 66.8 12.3999C66.9 12.3999 66.9 12.3999 66.9 12.3999C67.4 12.6999 68 12.7999 68.6 12.8999C69.7 13.0999 70.8 13.1999 71.9 13.4999C73.1 13.7999 74.2 14.0999 75.3 14.4999C76.3 14.7999 77.4 15.3999 78.5 15.4999C79.2 15.5999 79.8 15.3999 80.2 14.9999C80.2 14.9999 80.2 14.8999 80.3 14.6999Z" fill="#4D140F"/>
<path d="M81.0999 11.8C81.3999 11 81.4999 10.4 81.4999 10.4C80.7999 10.3 80.2999 10 80.2999 10C79.7999 11.3 79.3999 13.7 79.8999 14.9C80.0999 14.7 80.6999 13 81.0999 11.8Z" fill="#6C3020"/>
<path d="M98.9999 74.2C95.7999 74.6 92.6999 75.1 89.5999 75.7C88.0999 76 86.4999 76.3 84.9999 76.7C84.4999 76.8 83.9999 76.9 83.5999 77.2C83.2999 77.4 82.7999 78.4 82.4999 78.3C81.6999 78.2 81.6999 79.5 82.4999 79.6C82.5999 79.6 82.6999 79.6 82.7999 79.6C86.4999 81.4 90.4999 83.2 94.7999 82.8C96.1999 82.6 98.2999 82.3 98.9999 80.9C99.2999 80.2 99.2999 79.4 99.2999 78.6C99.3999 77.5 99.3999 76.3 99.3999 75.2C99.6999 75.1 99.5999 74.2 98.9999 74.2Z" fill="#FAE1D2"/>
<path d="M83.1001 27.7999C83.2001 27.6999 83.1001 27.3999 82.9001 27.3999C80.3001 27.0999 79.3001 24.3999 78.8001 22.1999C78.3001 19.8999 77.9001 17.1999 77.6001 14.7999C77.6001 14.4999 77.1001 14.8999 77.1001 15.1999C77.0001 15.1999 76.9001 15.1999 76.8001 15.1999C74.7001 17.0999 71.4001 17.2999 69.3001 19.2999C69.1001 19.4999 69.3001 19.6999 69.5001 19.6999C69.9001 21.5999 70.5001 23.4999 70.9001 25.3999C71.5001 27.9999 70.9001 29.6999 68.1001 31.1999C68.0001 31.1999 67.9001 31.2999 67.9001 31.3999C67.8001 31.4999 67.9001 31.6999 68.1001 31.7999C68.6001 32.4999 69.4001 33.9999 70.3001 34.0999C71.8001 34.1999 73.0001 34.5999 74.5001 34.3999C76.0001 34.1999 78.2001 31.8999 79.5001 31.0999C80.8001 30.3999 82.1001 29.1999 83.1001 28.1999C83.2001 27.9999 83.2001 27.8999 83.1001 27.7999Z" fill="#964939"/>
<path d="M78.4001 17.5C78.9001 16.2 79.7001 15 80.1001 13.6C80.5001 11.9 80.6001 9.99999 80.1001 8.29999C79.1001 4.89999 75.9 3.99999 72.7 3.99999H72.6001C70.1001 3.69999 68.1 5.39999 67.2 7.59999C66.1 10.2 66.0001 13.3 65.9001 16.1C65.9001 18.5 65.8001 21.6 68.1001 23C69.6001 23.9 71.3001 24 73.0001 23.8C74.2001 23.7 75.5001 23.6 76.4001 22.6C77.5001 21.2 77.7 19.8 78.2 18.1C78.2 17.8 78.3001 17.7 78.4001 17.5Z" fill="#964939"/>
<path d="M68.5 8.8999C67.7 8.8999 67.1 9.3999 66.7 9.9999C66.6 10.1999 66.5 10.2999 66.5 10.4999C66.5 10.7999 66.8 11.1999 67 11.2999C67.4 11.4999 67.7 11.2999 68.1 11.0999C68.7 10.7999 69.8 11.2999 70.1 10.3999C70.5 9.1999 69.2 8.8999 68.5 8.8999Z" fill="#4D140F"/>
<path d="M83.4001 26.7999C82.7001 26.6999 82.0001 26.7 81.4001 26.7C81.0001 26.7 80.7001 26.7 80.4001 27.1C80.0001 27.5 79.7001 27.9999 79.3001 28.2999C78.8001 28.6999 78.2001 29 77.6001 29.2C76.3001 29.7 74.8001 29.8 73.5001 30C72.1001 30.2 70.6001 30.1999 69.2001 30.2999C69.1001 30.2999 69.1001 30.4 69.1001 30.5C68.6001 30.7 67.7001 31.0999 67.9001 31.7999C68.2001 32.5999 69.1001 33.4 69.8001 34C71.3001 35.2 73.3001 35.8 75.3001 35.7C79.9001 35.3 82.3001 31.1 83.8001 27.2C83.6001 26.8 83.5001 26.7999 83.4001 26.7999Z" fill="#FAE1D2"/>
<path d="M78.7 8.59985C78.7 8.79985 78.5 10.3999 78.4 10.5999C78.1 11.5999 78 11.9999 78 12.9999C78 13.5999 78.4 14.7999 79 15.0999C80 15.6999 80.6 12.9999 80.8 12.3999C80.9 11.9999 81.2 9.59985 81.3 9.19985C80.2 9.29985 79.4 9.29985 78.7 8.59985Z" fill="#6C3020"/>
<path d="M77.3999 10.1999C76.9999 9.29987 75.5999 9.09987 74.6999 9.29987C74.0999 9.39987 73.1999 10.2999 73.7999 10.9999C73.9999 11.2999 74.3999 11.2999 74.6999 11.1999C75.0999 11.0999 75.2999 11.0999 75.6999 11.1999C75.9999 11.2999 76.1999 11.3999 76.3999 11.3999C77.2999 11.6999 77.6999 10.8999 77.3999 10.1999Z" fill="#4D140F"/>
<path d="M79.2 9.49998C79.9 9.69998 80.4 10.5 81.1 10.3C81.2 9.19998 81 7.99998 80.6 6.89998C80.1 5.79998 78.8 4.19998 77.5 4.89998C77 4.59998 76.4 4.49998 75.8 4.29998C74.9 4.09998 74.1 3.89998 73.2 3.69998C71.8 3.39998 70.6 3.29998 69.2 3.89998C67.9 4.49998 66.8 5.49998 66 6.69998C65.6 7.29998 65.3 7.89998 65.2 8.59998C65.1 8.99998 64.9 9.89998 65.1 10.3C65.1 10.4 65.2 10.4 65.2 10.4C65.2 10.4 65.2 10.4 65.3 10.4C65.4 10.4 65.4 10.3 65.4 10.3C65.4 10.3 65.4 10.3 65.4 10.2L65.5 10.3C66.1 11.1 67.3 10.6 67.9 10.1C68.5 9.59998 69 9.09998 69.5 8.59998C69.8 8.29998 70.4 7.79998 70.9 7.79998C71.4 7.79998 71.7 8.29998 72 8.69998C72.7 9.39998 73.8 9.79998 74.9 9.69998C75.8 9.59998 76.5 9.09998 77.2 8.49998C77.3 8.39998 78.4 9.29998 79.2 9.49998Z" fill="#4D1510"/>
<path d="M80.8001 13.1999C80.4001 12.3999 79.5001 12.9999 79.1001 13.4999C78.5001 14.2999 78.3001 15.0999 78.1001 16.0999C78.0001 16.2999 77.9001 17.8999 78.1001 17.7999C78.7001 17.5999 80.1001 16.1999 80.4001 15.5999C80.6001 14.9999 81.1001 13.8999 80.8001 13.1999Z" fill="#964939"/>
<path d="M75.9001 12.9C75.9001 12.6 75.8 12.3 75.6 12.1C75.4 11.9 75.1001 11.9 74.9001 12.1C74.5001 12.5 74.3 14.2 75.1 14.3C75.8 14.4 76.0001 13.4 75.9001 12.9Z" fill="#170301"/>
<path d="M69.1 12.9C69.1 12.6 69 12.3 68.8 12.1C68.6 11.9 68.3 11.9 68.1 12.1C67.7 12.5 67.5 14.2 68.3 14.3C69 14.4 69.2 13.3 69.1 12.9Z" fill="#170301"/>
<path d="M70.6 13.2C70.3 13.5 70 14 70 14.4C70 14.8 70.3 15.3 70.7 15.4C70.8 15.5 71 15.2 70.8 15.2C70.4 15 70.2 14.5 70.3 14.1C70.4 13.8 70.6 13.5 70.7 13.2C70.9 13.2 70.6 13 70.6 13.2Z" fill="#71311F"/>
<path d="M71.8001 15.0999C72.1001 15.0999 72.4001 15.0999 72.7001 15.1999C72.8001 15.2999 73.0001 15.0999 72.8001 14.9999C72.5001 14.7999 72.1001 14.7999 71.7001 14.8999C71.6001 14.8999 71.7001 15.1999 71.8001 15.0999Z" fill="#71311F"/>
<path d="M77.2999 19.2999C76.9999 20.1999 76.5999 21.1 75.9999 21.7C75.4999 22.2 74.8999 22.4999 74.2999 22.7999C73.2999 23.1999 71.7999 23.7 70.6999 23.4C70.4999 23.4 70.4999 23.6 70.5999 23.6C71.0999 23.8 71.7999 23.6 72.2999 23.5C73.0999 23.4 73.8999 23.0999 74.5999 22.7999C76.1999 22.0999 76.9999 20.8 77.4999 19.2C77.5999 19.3 77.3999 19.1999 77.2999 19.2999Z" fill="#71311F"/>
<path d="M79.7 13.6999C79.2 14.2999 78.9 14.9999 78.8 15.6999C78.8 15.8999 79 15.8999 79.1 15.6999C79.2 14.9999 79.5 14.3999 79.9 13.8999C80 13.7999 79.8 13.5999 79.7 13.6999Z" fill="#71311F"/>
<path d="M71.6001 2.59992C70.4001 2.49992 69.2001 2.79992 68.4001 3.69992C67.6001 4.69992 67.8001 5.89992 68.2001 7.09992L68.3001 6.99992C67.3001 6.29992 65.8001 5.79992 65.0001 7.09992C64.4001 8.09992 64.9001 9.39992 66.0001 9.59992C66.1001 9.59992 66.2001 9.39992 66.1001 9.39992C65.0001 9.19992 64.6001 7.79992 65.4001 6.99992C66.3001 6.09992 67.4001 6.59992 68.3001 7.19992C68.4001 7.19992 68.5001 7.19992 68.4001 7.09992C68.0001 5.89992 67.8001 4.69992 68.7001 3.79992C69.4001 2.99992 70.6001 2.69992 71.6001 2.89992C71.8001 2.79992 71.8001 2.59992 71.6001 2.59992Z" fill="#2B0303"/>
<path d="M68.6001 8.99992C68.4001 9.49992 67.8001 9.69992 67.3001 9.89992C67.2001 9.89992 67.2001 10.0999 67.4001 10.0999C68.0001 9.89992 68.6001 9.69992 68.8001 9.09992C68.8001 8.99992 68.6001 8.89992 68.6001 8.99992Z" fill="#2B0303"/>
<path d="M78.1 4.79987C77.1 3.79987 75.7 3.69987 74.5 4.19987C73.3 4.69987 72.5 5.49987 72.5 6.89987C72.5 6.99987 72.7 6.99987 72.7 6.89987C72.7 5.49987 73.5 4.69987 74.7 4.29987C75.8 3.89987 77 3.99987 77.9 4.89987C78.1 4.99987 78.2 4.89987 78.1 4.79987Z" fill="#2B0303"/>
<path d="M79.5001 6.39995C79.6001 7.49995 78.2001 8.39995 77.3001 8.39995C77.2001 8.39995 77.2001 8.59995 77.3001 8.59995C78.4001 8.59995 79.8001 7.59995 79.7001 6.39995C79.7001 6.29995 79.5001 6.29995 79.5001 6.39995Z" fill="#2B0303"/>
<path d="M73.2001 16.6999C73.1001 16.6999 73.0001 16.6999 72.8001 16.6999C72.3001 16.7999 71.8001 16.6999 71.3001 16.6999C70.9001 16.6999 70.5001 16.6999 70.0001 16.5999C69.9001 16.5999 69.6001 16.5999 69.7001 16.7999C70.2001 18.1999 71.8001 18.6999 72.8001 17.5999C73.0001 17.3999 73.1001 17.1999 73.2001 16.9999C73.4001 16.7999 73.3001 16.6999 73.2001 16.6999Z" fill="white"/>
<path d="M97.8999 36.4C97.0999 33.5 96.3999 31 93.9999 29.3C91.2999 27.4 86.8999 26.9 83.7999 26.5C83.1999 26.4 82.4999 27.8 82.0999 28.2C80.5999 30 78.6999 31.4 76.4999 32.3C73.6999 33.5 70.9999 33 68.9999 30.3C68.7999 30 64.7999 32.4 64.2999 32.7C62.2999 34.1 60.2999 35.6 59.0999 37.8C57.1999 41.2 56.4999 45.4 55.7999 49.2C55.6999 49.5 55.8999 49.7 56.1999 49.8C57.1999 52.2 58.4999 54.3 60.1999 56.3C61.6999 58.1 63.0999 60 64.2999 62C64.5999 66.4 65.0999 70.7 66.0999 75C66.3999 76.1 66.4999 77.6 67.1999 78.5C68.6999 80.4 73.1999 80.1 75.2999 80.1C79.3999 80.1 88.7999 81.3 100.3 76.6C100.6 76.5 100.7 76.2 100.8 76C101.3 71.4 100.9 48 97.8999 36.4Z" fill="#F095A6"/>
<path d="M61.2 45.9999C61.3 48.4999 61.7999 50.9999 62.5999 53.2999C62.5999 53.3999 62.7999 53.3999 62.7999 53.1999C61.8999 50.8999 61.5 48.3999 61.4 45.8999C61.3 45.8999 61.2 45.8999 61.2 45.9999Z" fill="#2B0303"/>
<path d="M75.5 68.2999C75.3 67.3999 74.9 66.5999 74.3 65.8999C74.2 65.7999 74.2 65.5999 74.3 65.3999C74.7 64.7999 75.5 63.9999 75.5 63.3999C75.6 62.5999 75 61.9999 74.9 61.2999C74.6 60.1999 75.1 59.1999 75.2 57.9999C75.6 55.2999 73.5 52.8999 71.4 51.2999C69.5 49.7999 66.5 49.7999 64.3 50.5999C62.8 51.1999 60.7 52.1999 59.8 53.4999C59.3 54.2999 58.9 55.1999 58.7 56.0999C58.4 57.2999 58.6 58.4999 58.2 59.5999C57.8 60.5999 57.2 61.5999 57.1 62.6999C57 64.1999 58.1 66.4999 59.9 66.7999C61.1 66.9999 62.2 66.1999 63.1 65.7999C63.7 65.4999 63.8 64.9999 63.9 64.3999C64 64.1999 64.2 63.9999 64.5 64.0999C65.1 64.3999 65.7 64.4999 66.4 64.5999C67.6 64.6999 68.9 64.0999 70.1 64.3999C70.2 64.3999 70.4 64.4999 70.4 64.6999C70.5 65.1999 70.5 66.0999 70.6 66.1999C70.8 66.5999 71.1 66.7999 71.4 66.8999C71.6 66.9999 71.7 67.1999 71.6 67.2999C71.4 68.0999 71.4 68.8999 71.7 69.5999C71.8 69.8999 72.1 70.2999 72.5 70.2999C73.2 70.2999 73.5 69.4999 74.3 69.5999C74.7 69.5999 75.2 69.8999 75.5 69.4999C75.7 69.2999 75.5 68.6999 75.5 68.2999Z" fill="#571914"/>
<path d="M38.8999 36.7999C38.4999 32.8999 37.7999 29.2999 37.8999 25.3999C37.9999 22.1999 37.8999 18.7999 36.2999 15.8999C34.9999 13.5999 31.9999 12.2999 29.3999 12.0999C26.9999 11.7999 23.8999 12.1999 21.9999 13.6999C19.4999 15.6999 18.6999 19.8999 18.1999 22.8999C17.8999 24.5999 17.8999 26.2999 17.6999 28.0999C17.3999 29.8999 16.7999 31.6999 16.1999 33.3999C14.9999 36.6999 14.1999 39.7999 14.4999 43.1999C14.1999 43.5999 13.8999 43.9999 14.0999 44.4999C14.2999 44.8999 14.6999 45.0999 15.0999 45.0999C16.0999 45.2999 17.3999 44.9999 18.4999 44.8999C19.6999 44.7999 20.9999 44.6999 22.1999 44.6999C24.7999 44.5999 27.1999 45.5999 29.6999 45.9999C32.0999 46.3999 34.3999 46.5999 36.7999 46.7999C36.8999 46.9999 37.8999 46.8999 38.0999 46.5999C39.1999 43.3999 39.1999 40.0999 38.8999 36.7999Z" fill="#913939"/>
<path d="M34.5 41.4C33.1 40 30.8 39.1 30.8 36.8C30.8 35.6 31.1 34.4 31.4 33.2C31.6 32 31.9 30.8 32.1 29.6C32.1 29.4 32 29.3 31.9 29.2C30.8 26.2 27.2 26.9 24.5 26.9C24.3 26.9 23.8 32.5 22.7 34.7C21.7 36.8 18.9 38 16.9 38.9C16.6 39 16.7 39.3 16.8 39.5C16.8 39.6 16.9 39.7 17 39.7C18.7 40.8 19.8 42.6 21.6 43.6C23.1 44.5 24.8 45.1 26.5 45.4C29.3 45.8 33.4 45.4 34.2 42.1C34.6 42 34.7999 41.7 34.5 41.4Z" fill="#EB8B65"/>
<path d="M33.3 39.8999C32.8 39.1999 31.8 38.9999 31.5 38.1999C31.5 38.0999 31.4 38.0999 31.4 37.9999C31.3 37.8999 31.3 37.6999 31.3 37.4999C31.4 36.8999 31.6 36.2999 31.6 35.6999C31.6 35.2999 31.6 34.9999 31.6 34.5999C31.6 34.3999 31.7 33.6999 31.3 33.7999C30.1 34.0999 28.8 34.0999 27.6 33.8999C26.4 33.7999 24.4 33.5999 23.6 32.4999C23.5 32.3999 23.3 32.3999 23.2 32.3999C23.1 32.3999 23 32.4999 23 32.5999C22.7 33.7999 22.5 35.7999 20 36.7999C18.8 37.2999 19 38.0999 19.1 39.3999C19.1 39.4999 19.1 39.4999 19.2 39.4999C19.3 41.3999 19.5 43.1999 19.8 44.9999C20.1 47.0999 20.3 49.2999 21.3 51.1999C22.4 53.3999 25.1 63.4999 27.9 61.8999C29.4 60.9999 30.9 52.6999 31.5 51.1999C32.3 49.0999 33.1 46.8999 33.7 44.6999C34 43.1999 34.4 41.2999 33.3 39.8999Z" fill="#D1D5E3"/>
<path d="M32.6999 13.9999C30.4999 12.2999 26.3999 13.1999 24.3999 14.6999C23.0999 15.6999 22.2999 17.0999 22.0999 18.5999C21.5999 21.9999 22.3999 28.5999 25.0999 30.9999C27.2999 32.9999 31.4999 32.8999 33.9999 31.1999C35.1999 30.3999 35.7999 29.2999 35.9999 27.8999C36.3999 25.3999 36.1999 22.4999 35.8999 19.9999C35.5999 17.6999 34.5999 15.6999 32.8999 14.0999C32.7999 14.0999 32.6999 14.0999 32.6999 13.9999Z" fill="#EB8B65"/>
<path d="M10.3 87.6999C14.4 87.6999 18.6 87.5999 22.7 87.4999C27.1 87.3999 31.5 87.2999 35.9 87.1999C36.8 87.1999 37.5 86.4999 37.5 85.6999C37.8 77.2999 38.1 68.8999 38.1 60.4999C38.1 60.2999 38.1 60.1999 38.2 59.9999C38.8 57.9999 39.3 55.9999 39.7 53.9999C40.1 51.8999 40.6 49.5999 40.5 47.3999C40.4 45.5999 39.7 43.8999 38.4 42.5999C36.7 40.9999 34.5 39.9999 32.6 38.7999C32.4 38.6999 32.3 38.6999 32.2 38.7999C32 38.8999 34.8 42.8999 28.3 56.6999C27.7 57.9999 27.4 57.5999 26.6 56.6999C25.3 55.0999 19.6 39.6999 21.3 36.4999C21.5 36.0999 20.8 36.0999 20.5 36.3999L20.4 36.4999C19.9 36.6999 17 38.1999 15.5 39.0999C14.1 39.8999 12.6 40.6999 11.5 41.8999C10.4 43.0999 10.1 44.7999 9.7 46.3999C9.2 48.3999 8.8 50.2999 8.4 52.2999C7.7 56.3999 7.2 60.5999 7 64.7999C7 64.8999 7 65.0999 6.9 65.1999C5 71.8999 3.8 78.6999 3.2 85.5999C3.1 86.2999 3.6 86.9999 4.3 87.2999C6.1 87.7999 8.3 87.6999 10.3 87.6999Z" fill="#FAE1D2"/>
<path d="M36.2001 19.0998C35.9001 18.5998 35.2001 18.2998 34.7001 18.1998C34.1001 18.0998 33.3001 18.2998 32.9001 18.7998C32.5001 19.1998 32.4001 19.8998 32.9001 20.1998C33.3001 20.4998 34.0001 20.2998 34.5001 20.3998C35.0001 20.3998 35.6001 20.7998 36.1001 20.5998C36.6001 20.3998 36.6001 19.6998 36.4001 19.2998C36.3001 19.1998 36.2001 19.0998 36.2001 19.0998Z" fill="#913939"/>
<path d="M24.8001 19.1999C24.6001 19.6999 24.5001 20.3999 25.1001 20.5999C25.7001 20.7999 26.4001 20.3999 26.9001 20.3999C27.5001 20.2999 28.2001 20.4999 28.7001 20.1999C29.4001 19.7999 29.2001 19.0999 28.7001 18.6999C28.2001 18.1999 27.3001 17.8999 26.6001 17.9999C25.9001 18.0999 25.2001 18.3999 24.8001 18.8999C24.9001 19.0999 24.8001 19.0999 24.8001 19.1999Z" fill="#913939"/>
<path d="M27.3999 62.2C27.2999 62.2 27.1999 62.1 27.0999 62.2C25.7999 63.3 24.9999 64.7 24.2999 66.2C23.6999 67.6 22.8999 69.1 23.3999 70.7C23.4999 71 23.8999 70.9 23.8999 70.7C23.9999 70.7 23.9999 70.7 24.0999 70.7C27.6999 69.8 28.6999 62.6 27.6999 62.4C27.4999 62.2 27.5999 62.2 27.3999 62.2Z" fill="#FAE1D2"/>
<path d="M16.6 48.4998C16.4 46.5998 16.3 44.5998 16.1 42.6998C16 41.4998 14.5 39.3998 14.4 39.4998C11.2 40.8998 8.59999 44.0998 7.19999 47.1998C5.49999 50.7998 4.19999 54.6998 3.09999 58.5998C1.99999 62.3998 0.899992 66.5998 0.999992 70.4998C1.09999 73.7998 3.29999 75.7998 6.59999 75.7998C6.79999 75.7998 6.89999 75.6998 6.99999 75.4998C7.69999 75.2998 8.39999 74.4998 8.79999 73.9998C9.79999 72.7998 10.7 71.4998 11.5 70.0998C13.2 66.8998 14.3 63.4998 15.3 60.0998C15.9 58.1998 16.5 56.2998 16.9 54.3998C17.2 52.3998 16.8 50.3998 16.6 48.4998Z" fill="#FAE1D2"/>
<path d="M36.4001 18.3999C36.0001 16.9999 35.2001 15.0999 33.9001 14.0999C33.3001 13.6999 32.5001 13.3999 31.7001 13.1999C30.9001 12.9999 30.0001 12.5999 29.1001 12.5999C27.5001 12.5999 28.5001 15.0999 28.4001 14.9999C28.3001 14.8999 28.1001 15.1999 28.3001 15.1999C30.0001 15.0999 31.1001 15.8999 32.6001 17.1999C34.4001 18.6999 35.6001 21.1999 36.3001 23.2999C36.3001 23.3999 36.2001 23.4999 36.3001 23.4999C36.8001 21.6999 36.9001 19.9999 36.4001 18.3999Z" fill="#913939"/>
<path d="M27.5001 58.1999C28.2001 60.4999 27.7001 62.9999 27.4001 65.2999C27.1001 67.7999 26.7001 70.2999 26.3001 72.7999C25.5001 77.5999 24.7001 82.3999 23.6001 87.0999C23.6001 87.1999 23.8001 87.2999 23.8001 87.1999C24.9001 82.2999 25.8001 77.3999 26.6001 72.3999C27.0001 69.9999 27.3001 67.5999 27.6001 65.1999C27.9001 62.8999 28.3001 60.3999 27.7001 58.0999C27.7001 58.0999 27.5001 58.0999 27.5001 58.1999Z" fill="#2B0303"/>
<path d="M14.7999 49.5C15.1999 54.7 15.1999 60.4 13.3999 65.4C13.3999 65.5 13.4999 65.6 13.5999 65.5C15.2999 60.5 15.3999 54.8 14.9999 49.6C14.9999 49.3 14.7999 49.3 14.7999 49.5Z" fill="#2B0303"/>
<path d="M28.2001 12.4999C26.2001 11.2999 23.8001 12.9999 22.5001 14.3999C20.7001 15.9999 19.8001 18.3999 19.5001 20.7999C19.2001 22.8999 19.3001 24.8999 19.2001 26.9999C19.1001 29.3999 18.5001 31.6999 18.1001 33.9999C17.8001 35.6999 18.0001 37.2999 18.3001 38.9999C18.5001 40.5999 18.3001 42.0999 18.1001 43.6999C17.9001 44.7999 18.3001 45.7999 19.5001 46.0999C20.3001 46.1999 21.0001 46.0999 21.8001 46.2999C22.5001 46.4999 23.2001 47.1999 24.0001 47.1999C24.5001 47.1999 24.7001 46.8999 24.9001 46.5999C25.0001 46.2999 25.1001 46.0999 25.0001 45.7999C25.0001 45.2999 24.9001 44.8999 24.9001 44.5999C24.7001 41.4999 24.8001 38.6999 25.2001 35.5999C25.6001 32.7999 25.1001 30.1999 24.9001 27.3999C24.8001 26.3999 24.8001 25.3999 24.8001 24.2999C24.8001 23.5999 25.0001 22.9999 25.5001 22.4999C25.9001 21.9999 26.5001 21.2999 26.7001 21.0999C27.3001 20.2999 28.3001 19.0999 28.8001 18.1999C29.4001 16.5999 30.3001 13.6999 28.2001 12.4999Z" fill="#913939"/>
<path d="M27 20.8999C26 20.8999 26 22.9999 26.8 23.2999C27.5 23.4999 27.8 22.7999 27.8 22.2999C27.8 21.7999 27.6 20.8999 27 20.8999Z" fill="#170301"/>
<path d="M33.8001 20.7998C32.8001 20.7998 32.9001 22.7998 33.6001 23.0998C34.2001 23.2998 34.5001 22.5998 34.5001 22.0998C34.6001 21.6998 34.4001 20.8998 33.8001 20.7998Z" fill="#170301"/>
<path d="M25.1999 29.4C25.7999 30.4 26.4999 31.3 27.5999 31.8C28.6999 32.3 29.8999 32.4 31.0999 32.4C31.1999 32.4 31.1999 32.2 31.0999 32.2C29.9999 32.2 28.8999 32.1 27.7999 31.7C26.6999 31.3 25.8999 30.4 25.2999 29.3C25.2999 29.2 25.0999 29.3 25.1999 29.4Z" fill="#C45547"/>
<path d="M31.7001 22.4998C32.0001 22.7998 32.3001 23.0998 32.4001 23.4998C32.5001 24.0998 32.2001 24.4998 31.7001 24.7998C31.6001 24.8998 31.7001 24.9998 31.8001 24.9998C32.2001 24.6998 32.6001 24.2998 32.6001 23.6998C32.6001 23.0998 32.2001 22.6998 31.8001 22.2998C31.8001 22.2998 31.6001 22.3998 31.7001 22.4998Z" fill="#C45547"/>
<path d="M30.5 24.4999C30.8 24.3999 31 24.3999 31.3 24.3999C31.4 24.3999 31.5 24.1999 31.4 24.1999C31.1 24.0999 30.8 24.1999 30.5 24.2999C30.4 24.2999 30.4 24.4999 30.5 24.4999Z" fill="#C45547"/>
<path d="M20.1 21.2998C18.9 23.5998 18.6 26.0998 18.8 28.5998C18.9 29.9998 18.7 31.2998 18.4 32.6998C18.1 33.8998 17.9 35.0998 18.1 36.2998C18.1 36.3998 18.3 36.3998 18.3 36.1998C17.9 33.6998 19.2 31.2998 19 28.7998C18.9 27.4998 18.8 26.1998 19 24.8998C19.2 23.5998 19.6 22.3998 20.2 21.2998C20.3 21.2998 20.1 21.1998 20.1 21.2998Z" fill="#631F1F"/>
<path d="M28.3001 12.7999C29.0001 12.8999 29.5001 13.4999 29.6001 14.1999C29.6001 14.2999 29.8001 14.2999 29.8001 14.0999C29.7001 13.2999 29.1001 12.6999 28.4001 12.5999C28.2001 12.5999 28.2001 12.7999 28.3001 12.7999Z" fill="#631F1F"/>
<path d="M22 40.0999C22.2 41.5999 22.1 43.1999 21.7 44.5999C21.7 44.6999 21.9 44.7999 21.9 44.6999C22.3 43.1999 22.4 41.6999 22.2 40.0999C22.2 39.9999 22 39.9999 22 40.0999Z" fill="#631F1F"/>
<path d="M35.4001 34.0998C35.9001 35.6998 35.9 37.3998 35.3 39.0998C35.3 39.1998 35.4 39.2998 35.5 39.1998C36.1 37.5998 36.1 35.7998 35.6 34.0998C35.5 33.8998 35.3001 33.9998 35.4001 34.0998Z" fill="#631F1F"/>
<path d="M32.8 25.7C32.7 25.6 32.5 25.7 32.2 25.7C31.8 25.7 31.4 25.8 30.9 25.8C30.4 25.8 29.9 25.8 29.5 25.8C28.9 25.8 29.5 26.8 29.7 27C30.1 27.4 30.6 27.5 31.1 27.5C31.9 27.5 32.7 27.1 32.8 26.1C32.9 25.9 32.9 25.8 32.8 25.7Z" fill="#BA4B3D"/>
<path d="M32.5 25.7C32.4 25.7 32.3 25.7 32.2 25.7C31.8 25.7 31.4 25.7999 30.9 25.7999C30.4 25.7999 29.9 25.7999 29.5 25.7999C29.3 25.7999 29.2 25.9 29.2 26.1C30.3 26.5 32.3 26.8 32.5 25.7Z" fill="white"/>
<path d="M36.3999 23.0999C36.7999 24.1999 36.9999 25.3999 37.0999 26.5999C37.0999 26.6999 37.2999 26.6999 37.2999 26.5999C37.1999 25.3999 36.8999 24.1999 36.5999 22.9999C36.4999 22.8999 36.3999 22.9999 36.3999 23.0999Z" fill="#631F1F"/>
<path d="M50.1 63.4999C49.1 62.4999 47.5 62.0999 46.4 61.2999L45 60.3999C43.5 59.1999 44 53.9999 44 52.1999C44.1 52.0999 44.1 51.8999 44 51.7999C42.4 48.9999 39.1 46.7999 36 48.7999C35.9 48.8999 35.8 48.9999 35.8 49.0999C35.7 49.1999 35.7 49.2999 35.7 49.4999C36 52.0999 36.1 54.7999 36.1 57.4999C36.1 58.9999 35.8 60.1999 34.8 61.1999C34 61.9999 33.1 62.4999 32.2 62.9999C32.1 63.0999 32 63.1999 32 63.2999C31.4 63.5999 31 63.9999 31.3 64.6999C31.8 65.6999 33.7 66.1999 34.7 66.4999C38.1 67.4999 42 67.4999 45.5 66.9999C46.5 66.6999 52.3 65.5999 50.1 63.4999Z" fill="#D16F52"/>
<path d="M49.4999 41.4C49.0999 40.9 48.4 40.6 47.9 40.2C47.4 39.8 46.7999 39.6 46.5999 38.9C46.4999 38.6 46.5 38.3 46.4 38.1C46 37.1 44.8 36.8 43.9 36.8C43.3 36.8 42.9 36.8 42.4 36.6C41.8 36.3 41.2999 35.8 40.7999 35.4C40.0999 35 39.2999 35 38.5999 35.2C37.6999 35.5 36.9 36 36.4 36.8C36.1 37.3 35.5 37.7 34.9 37.9C33 38.5 30.8999 40 31.5999 42C31.6999 42.3 31.8999 42.5 32.0999 42.8C32.3999 43.5 32.0999 44 31.9999 44.7C31.8999 45.3 31.7999 45.8 31.9999 46.4C32.2999 47.6 33.1999 48.4 34.0999 49.2C33.9999 49.4 34.1 49.7 34.4 49.7C34.5 49.7 34.6 49.7 34.7 49.7C34.8 49.7 34.8 49.7 34.9 49.7C35.8 49.7 36.6999 49.6 37.5999 49.3C38.4999 49 39.2999 48.3 40.0999 47.7C41.8999 46.3 44.0999 46.3 46.0999 45.3H46.2C47.7 45.9 51.3999 43.3 49.4999 41.4Z" fill="#571914"/>
<path d="M30.4999 37.8998C29.7999 38.5998 28.8999 38.7998 27.8999 38.7998C26.9999 38.7998 25.8999 38.7998 25.0999 38.2998C24.9999 38.1998 24.8999 38.3998 24.9999 38.4998C25.8999 38.9998 27.0999 38.9998 28.0999 38.9998C28.9999 38.9998 29.8999 38.6998 30.5999 37.9998C30.6999 37.9998 30.5999 37.7998 30.4999 37.8998Z" fill="#2B0303"/>
<path d="M25.2 16.7C24.6 18.3 24.2 20 24.2 21.7C24.2 21.8 24.4 21.8 24.4 21.7C24.4 20 24.6999 18.3 25.2999 16.8C25.3999 16.6 25.2 16.6 25.2 16.7Z" fill="#631F1F"/>
<path d="M46.9001 46.0999C46.8001 43.6999 46.3001 41.5999 44.7001 39.6999C41.4001 35.9999 35.5001 37.2999 34.0001 41.9999C33.5001 43.7999 33.7001 45.6999 34.2001 47.3999C34.5001 48.3999 34.6001 49.4999 34.9001 50.4999C36.4001 51.1999 37.1001 52.5999 37.0001 54.1999C38.5001 55.3999 40.5001 55.7999 42.4001 55.5999C43.6001 55.4999 44.7001 55.2999 45.5001 54.3999C46.3001 53.3999 46.8001 51.8999 46.9001 50.5999C47.0001 49.0999 46.9001 47.6999 46.9001 46.0999Z" fill="#D16F52"/>
<path d="M46.1 43.3C45.7 42.9 45.1 42.5 44.8 42.5C44.2 42.5 43.4 42.7 43.1 43.4C42.9 43.9 43 44.5 43.6 44.6C44.1 44.7 44.6 44.6 45.1 44.7C45.5 44.8 45.9 45.1 46.2 44.6C46.6 44.2 46.4 43.7 46.1 43.3Z" fill="#571914"/>
<path d="M38.5001 42.7C37.9001 42.7 37.2001 42.8999 36.7001 43.2999C36.3001 43.5999 35.8001 44.4 36.1001 45C36.3001 45.3 36.7001 45.2999 37.0001 45.0999C37.4001 44.8999 37.6001 44.6999 38.0001 44.7999C38.3001 44.7999 38.6001 44.9 38.8001 44.9C39.2001 44.9 39.6001 44.6 39.8001 44.2C40.3001 43.3 39.2001 42.8 38.5001 42.7Z" fill="#571914"/>
<path d="M46.7999 41C46.4999 39.6 45.2999 38.8 44.0999 38.1C42.5999 37.4 40.9999 37 39.3999 37C37.8999 37 36.1999 37.3 35.0999 38.3C33.8999 39.4 33.2999 40.9 33.0999 42.5C32.8999 44.2 32.8999 46 33.6999 47.6C33.5999 47.6 33.5999 47.7 33.5999 47.8C33.6999 48.2 33.9999 48.5 34.4999 48.6C35.0999 48.6 35.4999 48.2 35.6999 47.7C35.9999 46.9 35.6999 46.1 35.6999 45.3C35.6999 45 35.6999 44.8 35.6999 44.5C35.7999 43.8 36.3999 43.4 37.0999 43.5C37.6999 43.6 38.2999 43.6 38.7999 43.3C39.2999 43.1 39.5999 42.8 39.9999 42.4C40.3999 41.9 40.6999 41.3 41.0999 40.9C41.9999 40.1 42.5999 41 43.1999 41.6C43.4999 42 43.8999 42.3 44.3999 42.4C45.3999 42.6 46.2999 42 46.9999 41.4C46.9999 41.4 47.0999 41.4 47.0999 41.3L47.1999 41.2C47.0999 41.1 46.9999 40.9 46.7999 41Z" fill="#571914"/>
<path d="M36.2 49.4999C36 48.5999 35.5 47.7999 35 47.2999C34.5 46.7999 33.7 46.4999 33.3 47.1999C32.8 47.9999 33.2 49.0999 33.6 49.8999C34.1 50.6999 34.8 51.6999 35.9 52.0999C36.5 51.2999 36.5 50.4999 36.2 49.4999Z" fill="#D16F52"/>
<path d="M44.7999 45.4C44.5999 45.3 44.3999 45.3 44.2999 45.4C43.7999 45.6 43.7999 46.2999 43.8999 46.7999C43.9999 47.2999 44.3999 47.7999 44.9999 47.5999C45.5999 47.3999 45.5999 46.4999 45.4999 46.0999C45.3999 45.6999 45.0999 45.5 44.7999 45.4Z" fill="#170301"/>
<path d="M38.5001 45.5999C38.3001 45.4999 38.1001 45.4999 38.0001 45.5999C37.5001 45.7999 37.5001 46.5999 37.6001 47.0999C37.7001 47.5999 38.1001 48.1999 38.7001 47.9999C39.3001 47.7999 39.3001 46.8999 39.2001 46.3999C39.0001 45.9999 38.8001 45.6999 38.5001 45.5999Z" fill="#170301"/>
<path d="M42.4001 47.5999C42.9001 48.1999 43.1001 48.9999 42.5001 49.5999C42.4001 49.6999 42.6001 49.8999 42.7001 49.7999C43.4001 49.0999 43.2001 48.0999 42.6001 47.4999C42.5001 47.2999 42.3001 47.3999 42.4001 47.5999Z" fill="#AD4834"/>
<path d="M41.4999 49.2C41.1999 49.2 40.7999 49.2 40.4999 49.4C40.3999 49.5 40.4999 49.6999 40.5999 49.5999C40.7999 49.3999 41.1999 49.4 41.4999 49.4C41.6999 49.4 41.6999 49.2 41.4999 49.2Z" fill="#AD4834"/>
<path d="M34.2001 47.8999C34.9001 48.3999 35.2001 49.4999 35.4001 50.2999C35.5001 50.4999 35.7001 50.3999 35.6001 50.1999C35.3001 49.3999 35.0001 48.1999 34.3001 47.6999C34.2001 47.5999 34.0001 47.7999 34.2001 47.8999Z" fill="#AD4834"/>
<path d="M36.1001 51.8999C36.4001 52.5999 36.6001 53.3999 37.0001 53.9999C37.4001 54.4999 37.9001 54.8999 38.5001 55.0999C39.9001 55.6999 41.6001 55.5999 43.1001 55.5999C43.3001 55.5999 43.3001 55.2999 43.1001 55.2999C41.7001 55.2999 40.3001 55.3999 39.0001 54.9999C38.3001 54.7999 37.6001 54.2999 37.2001 53.5999C36.9001 52.9999 36.7001 52.3999 36.4001 51.6999C36.3001 51.5999 36.1001 51.7999 36.1001 51.8999Z" fill="#AD4834"/>
<path d="M43.0999 50.6999C42.5999 50.7999 41.9999 50.7999 41.4999 50.7999C41.0999 50.7999 40.6999 50.6999 40.2999 50.7999C40.1999 50.7999 40.1999 50.8999 40.0999 50.8999C39.8999 51.3999 41.0999 51.9999 41.4999 52.0999C42.0999 52.1999 42.6999 52.0999 42.9999 51.6999C43.1999 51.5999 43.6999 50.5999 43.0999 50.6999Z" fill="white"/>
<path d="M22.7 87.4999C35.4 87.0999 48 86.9999 60.7 87.1999C60.7999 86.6999 60.7999 86.2999 60.7999 86.1999C60.2 80.5999 57.6 67.3999 55.2 65.1999C53.2999 63.4999 49.9999 62.1999 47.5999 61.3999C47.4999 61.2999 47.1999 61.1999 47.0999 61.3999C46.2999 62.9999 44.1 64.2999 41.9 64.5999C39.6 64.8999 35.1999 64.4999 34.2999 61.7999C34.2999 61.5999 34.2999 61.4999 34.0999 61.3999C33.8999 61.2999 33.6999 61.2999 33.5999 61.3999C31.3999 62.4999 28.9 63.3999 27 64.8999C25.3 66.1999 24.2 68.0999 23.4 69.9999C21.3 74.7999 20.1 80.0999 19.1 85.2999C19.1 85.3999 18.8 86.4999 18.7 87.4999C19.8 87.5999 21.2 87.5999 22.7 87.4999Z" fill="#36593F"/>
<path d="M47.7999 71.9C46.4999 71.4 44.8999 71.3 43.6999 71.2C40.8999 71 32.9999 70.8 33.3999 75.5C33.4999 76.6 34.2999 77.3 35.1999 77.8C36.7999 78.7 38.8999 78.7 40.7999 78.8C43.8999 79.1 48.0999 79.3 49.8999 76.1C50.3999 75.3 50.5999 74.3 49.9999 73.5C49.4999 72.7 48.6999 72.3 47.7999 71.9Z" fill="#FAE1D2"/>
<path d="M25.2999 65.4999C23.4999 64.8999 23.4999 68.4999 23.3999 69.3999C23.3999 69.6999 23.6999 69.6999 23.7999 69.4999C23.8999 69.5999 23.9999 69.5999 24.0999 69.4999C24.5999 68.9999 26.7999 65.9999 25.2999 65.4999Z" fill="#FAE1D2"/>
<path d="M27.4999 70.2C28.8999 72.6 28.8999 75.4 28.5999 78.1C28.2999 81.1 28.3999 84.1 28.0999 87C28.0999 87.1 28.2999 87.1 28.2999 87C28.5999 83.9 28.4999 80.7 28.8999 77.6C29.1999 75 29.0999 72.3 27.6999 70C27.5999 70 27.3999 70.1 27.4999 70.2Z" fill="#2B0303"/>
<path d="M50.0001 75.8999C48.8001 75.5999 39.5001 75.4999 41.7001 78.3999C42.4001 79.2999 43.7001 79.3999 44.7001 79.3999C46.2001 79.3999 47.8001 79.4999 49.2001 78.9999C50.7001 78.6999 52.4001 76.4999 50.0001 75.8999Z" fill="#59242E"/>
<path d="M36.2001 63.3999C34.9001 61.8999 33.4001 60.3999 31.3001 60.3999C30.3001 60.3999 29.4001 60.7999 28.5001 61.0999C27.3001 61.5999 26.2001 61.9999 25.0001 62.4999C24.7001 62.5999 24.7001 62.9999 24.9001 63.1999C24.7001 64.1999 23.4001 65.1999 23.7001 66.0999C23.8001 66.3999 23.2001 67.1999 23.6001 67.2999C24.4001 67.2999 25.3001 66.9999 26.1001 66.5999C26.8001 66.1999 27.2001 65.4999 28.1001 65.6999C28.8001 65.8999 28.7001 66.2999 29.1001 66.6999C29.5001 67.0999 30.1001 67.1999 30.4001 66.5999C30.6001 66.1999 30.5001 65.4999 30.3001 64.8999C30.7001 65.2999 31.1001 65.7999 31.5001 66.1999C31.9001 66.4999 32.4001 66.5999 32.8 66.2999C33.2 66.6999 33.7001 66.9999 34.0001 66.4999C34.2001 66.0999 34.0001 65.4999 33.9001 65.0999C33.8001 64.4999 33.6001 63.8999 33.2001 63.2999C33.1001 63.1999 33.1001 63.0999 33.0001 62.9999C33.6001 63.3999 34.1 63.8999 34.8 64.2999C35.3 64.4999 36.4 64.5999 36.1 63.7999C36.4 63.5999 36.3001 63.4999 36.2001 63.3999Z" fill="#EB8B65"/>
<path d="M53.2 72.4998C53.6 77.2998 53.4 82.0998 52.2 86.6998C52.2 86.7998 52.4 86.8998 52.4 86.7998C53.6 82.0998 53.8 77.2998 53.4 72.4998C53.4 72.3998 53.2 72.3998 53.2 72.4998Z" fill="#2B0303"/>
<path d="M46.2001 39.5999C46.7001 39.9999 46.8001 40.6999 46.5001 41.2999C46.4001 41.3999 46.6001 41.4999 46.7001 41.3999C47.1001 40.7999 46.9001 39.9999 46.4001 39.4999C46.3001 39.3999 46.1001 39.5999 46.2001 39.5999Z" fill="#2B0303"/>
<path d="M32.3 42.1999C32.4 42.5999 32.6 43.0999 33.1 43.2999C33.8 43.5999 34.7 42.9999 35.3 43.5999C35.4 43.6999 35.5001 43.5999 35.4001 43.4999C35.1001 43.1999 34.7 43.0999 34.3 43.0999C34 43.0999 33.7001 43.1999 33.4001 43.1999C32.8001 43.0999 32.6 42.6999 32.4 42.1999C32.4 41.9999 32.3 42.0999 32.3 42.1999Z" fill="#2B0303"/>
<path d="M38.8001 42.8998C38.4001 43.1998 37.9001 43.3998 37.3001 43.3998C37.2001 43.3998 37.2001 43.5998 37.3001 43.5998C37.9001 43.5998 38.4001 43.3998 38.9001 42.9998C39.0001 42.9998 38.9001 42.7998 38.8001 42.8998Z" fill="#2B0303"/>
<path d="M37.7 36.7C38.6 36.2 39.7 36.6 40.1 37.6C40.2 37.8 40.2 38.2 40.5 38.3C40.6 38.3 40.7 38.3 40.8 38.3C41.3 38.2 41.8 38.1 42.3 38.2C43.4 38.6 43.2 39.8 42.6 40.5C42.5 40.6 42.7 40.7 42.8 40.6C43.2 40 43.6 39.2 43.1 38.5C42.7 38 42 37.8 41.4 37.9C41.1 37.9 40.8 38.1 40.5 38C40.3 37.8 40.3 37.7 40.2 37.4C40.1 37.1 39.9 36.8 39.6 36.6C39 36.1 38.2 36.2 37.6 36.5C37.5 36.5 37.6 36.7 37.7 36.7Z" fill="#2B0303"/>
<path d="M26.6999 60.6C26.6999 60.6 26.5999 60.6 26.4999 60.6C25.0999 60.7 23.6999 61.3 22.3999 61.9C21.0999 62.5 19.6999 63 18.2999 63.4C15.2999 64.3 11.9999 64.7 9.09988 65.9C8.09988 66.3 7.49988 68 6.89988 68.9C6.19988 70 5.39987 71.2 5.19987 72.5C4.89987 74.2 3.99988 75.4 5.79988 75.4C9.89988 75.5 12.6999 74.3 15.1999 73.3C17.7999 72.3 22.9999 70.3 23.7999 69.4C23.8999 69.4 23.9999 69.3 23.9999 69.2C24.3999 66.2 25.0999 63.4 27.2999 61.4C27.5999 61.1 26.8999 60.5 26.6999 60.6Z" fill="#FAE1D2"/>
<path d="M27.1001 60.5C25.3001 60.6 23.5001 61.2 21.8001 61.8C19.9001 62.5 18.0001 63.2 16.1001 63.7C12.7001 64.6 9.00011 65 6.20011 67.3C6.10011 67.4 6.20011 67.5 6.30011 67.4C9.20011 65.1 12.9001 64.7 16.4001 63.8C18.2001 63.3 19.9001 62.6 21.7001 62C23.5001 61.3 25.3001 60.7 27.1001 60.6C27.2001 60.7 27.2001 60.5 27.1001 60.5Z" fill="#2B0303"/>
<path d="M24.0001 69.3999C21.0001 70.9999 17.9001 72.2999 14.7001 73.3999C13.2001 73.8999 11.6001 74.3999 10.1001 74.7999C8.50006 75.1999 6.70006 75.5999 5.00006 75.2999C4.90006 75.2999 4.80006 75.4999 4.90006 75.4999C6.40006 75.7999 8.00006 75.4999 9.50006 75.1999C11.2001 74.7999 12.9001 74.2999 14.6001 73.6999C17.9001 72.5999 21.1001 71.1999 24.2001 69.5999C24.2001 69.4999 24.1001 69.3999 24.0001 69.3999Z" fill="#2B0303"/>
<path d="M28.8001 61.9C29.8001 61.8 30.8001 62.2 31.4001 63C32.0001 63.8 32.4001 64.8 32.9001 65.8C33.0001 65.9 33.1001 65.8 33.1001 65.7C32.8001 65.1 32.5001 64.5 32.2001 63.9C32.0001 63.4 31.7001 62.9 31.3001 62.6C30.7001 62 29.8001 61.7 28.9001 61.8C28.7001 61.7 28.7001 61.9 28.8001 61.9Z" fill="#C45547"/>
<path d="M75.9 74.1999C73.9 72.8999 71 72.0999 70.7 70.1999C70.4 67.7999 70.5 64.4999 70.4 62.0999C70.4 61.9999 70.2 62.4999 70.1 62.4999C70 62.3999 69.9 62.3999 69.8 62.4999C67.8 63.7999 65.7 64.7999 63.4 65.2999C63.3 65.2999 63.2 65.3999 63.2 65.5999V65.6999C63.1 67.5999 63.8 69.2999 63 71.0999C62.3 72.9999 59.7 73.9999 58 74.8999C57.7 74.9999 58 75.4999 58.3 75.2999C60.9 77.5999 62.8 80.8999 66.2 80.6999C69.1 80.4999 74.8 77.6999 76 74.4999C76 74.3999 76 74.2999 75.9 74.1999Z" fill="#D16F52"/>
<path d="M31.0999 61.1998C31.9999 61.4998 32.6999 62.0998 33.0999 62.9998C33.1999 63.0998 33.2999 62.9998 33.2999 62.8998C32.7999 61.9998 32.0999 61.3998 31.0999 61.0998C30.9999 60.9998 30.9999 61.1998 31.0999 61.1998Z" fill="#C45547"/>
<path d="M28.2001 63.4C29.1001 63.5 29.9001 64.1 30.3001 64.9C30.4001 65 30.5001 64.9 30.5001 64.8C30.1001 63.9 29.2001 63.3 28.3001 63.2C28.1001 63.2 28.0001 63.4 28.2001 63.4Z" fill="#C45547"/>
<path d="M60.5001 60.8999C60.5001 60.0999 60.3001 59.3999 59.9001 58.8999C59.8001 58.7999 59.7001 58.8999 59.7001 58.8999C59.0001 59.9999 59.2001 61.6999 60.2001 62.5999C60.3001 62.6999 60.5001 62.5999 60.5001 62.4999C60.5001 62.0999 60.5001 61.4999 60.5001 60.8999Z" fill="#CB6C50"/>
<path d="M72.4 54.2999C71.5 52.1999 69.6 50.7999 67.5 50.7999C67.4 50.6999 67.3 50.6999 67.2 50.6999C65.1 50.5999 63.3 51.6999 62.1 53.2999C60.5 55.3999 60.2 57.8999 60 60.4999C59.8 62.5999 59.8 65.6999 61.7 67.2999C63.6 68.7999 66.5 69.0999 68.6 68.0999C71.4 66.5999 71.7 64.4999 72.4 61.0999C73.1 58.7999 73.4 56.4999 72.4 54.2999Z" fill="#D16F52"/>
<path d="M72.8999 59.9C72.7999 59.8 72.5999 59.7 72.3999 59.8C71.6999 60.3 71.3999 61.1 71.3999 62C71.3999 62.4 71.2999 62.9 71.3999 63.2C71.4999 63.5 71.7999 63.9 72.0999 63.5C72.6999 62.7 73.7999 60.8 72.8999 59.9Z" fill="#D16F52"/>
<path d="M68.6001 87.3998C73.2001 87.4998 77.8001 87.6998 82.5001 87.7998C82.2001 85.8998 81.9001 83.9998 81.6001 82.1998C81.2001 80.2998 81.1001 78.1998 79.9001 76.5998C78.7001 75.0998 76.4001 73.7998 74.7001 73.2998C74.5001 73.1998 74.3001 73.3998 74.2001 73.5998C74.1001 73.5998 74.1001 73.5998 74.0001 73.6998C72.0001 75.7998 69.8001 78.0998 66.9001 78.6998C63.7001 79.2998 60.5001 77.3998 60.6001 73.8998C60.6001 73.7998 60.6001 73.6998 60.5001 73.6998C60.4001 72.8998 56.7001 74.6998 55.9001 75.1998C54.3001 76.1998 53.1001 78.0998 52.6001 79.8998C51.9001 82.3998 51.5001 84.7998 51.1001 87.2998C56.9001 87.1998 62.8001 87.2998 68.6001 87.3998Z" fill="#FAE1D2"/>
<path d="M59.7 81.6C64.6 82 69.3999 82.1 74.1999 81.6C76.5999 81.4 79 81 81.3 80.6C81.1 79.2 80.7999 77.8 80 76.7C76.2999 77.3 72.6 77.7 68.8 77.9C68.7 77.9 68.6999 77.9 68.5999 77.9C67.9999 78.2 67.4 78.4 66.8 78.5C65.4 78.8 64 78.6 62.9 78C62.2 78 61.6 77.9 60.9 77.8C58.5 77.5 56.1 77 53.7 77C53.1 77.9 52.7 78.8 52.4 79.7C52.3 80 52.3 80.3 52.2 80.5C54.7 81.1 57.2 81.4 59.7 81.6Z" fill="#FFC04F"/>
<path d="M68.6001 87.4C73.2001 87.5 77.8001 87.7 82.5001 87.8C82.4001 86.8 82.2001 85.7 82.0001 84.7C77.4001 85.7 72.7001 86.1 68.0001 86.2C62.4001 86.3 56.9001 86 51.4001 85.2C51.3001 85.9 51.2001 86.6 51.1001 87.3C56.9001 87.2 62.8001 87.3 68.6001 87.4Z" fill="#FFC04F"/>
<path d="M69.4 58.5999C67.4 57.5999 67.7 62.6999 69.6 61.0999C70 60.7999 70 60.0999 70 59.6999C69.9 59.2999 69.8 58.7999 69.4 58.5999Z" fill="#170301"/>
<path d="M62.9 58.2999C61 57.3999 61.3 62.1999 63.1 60.6999C63.4 60.3999 63.4 59.7999 63.4 59.3999C63.4 58.9999 63.3 58.4999 62.9 58.2999Z" fill="#170301"/>
<path d="M64.6 59.6999C64 60.3999 64.2 61.4999 65.1 61.8999C65.2 61.9999 65.4 61.6999 65.2 61.6999C64.5 61.3999 64.3 60.4999 64.8 59.8999C64.9 59.7999 64.7 59.5999 64.6 59.6999Z" fill="#AD4834"/>
<path d="M65.7 61.3999C65.9 61.2999 66.2 61.2999 66.4 61.3999C66.5 61.4999 66.7 61.2999 66.5 61.1999C66.2 60.9999 65.9 60.9999 65.6 61.0999C65.4 61.1999 65.5 61.4999 65.7 61.3999Z" fill="#AD4834"/>
<path d="M66.3999 62.9998C65.9999 62.8998 65.4999 62.8998 64.9999 62.8998C64.6999 62.8998 64.2999 62.6998 64.0999 62.9998C63.4999 63.8998 65.1999 64.4998 65.7999 64.3998C66.2999 64.2998 67.3999 63.1998 66.3999 62.9998Z" fill="white"/>
<path d="M60.6 66.6998C60.6 66.5998 60.5 66.5998 60.4 66.5998C60 66.0998 58.6 64.6998 58.5 64.7998C57.5 65.5998 54.9 69.0998 57.5 69.5998C57.7 69.5998 57.9 69.5998 58.2 69.5998C58.7 69.4998 59 69.4998 59.5 69.7998C59.8 69.9998 60.1 70.0998 60.4 69.8998C60.7 69.6998 60.8 69.2998 60.8 68.8998C60.9 68.1998 60.7 67.3998 60.6 66.6998Z" fill="#571914"/>
<path d="M70.0999 66.4999C68.6999 68.2999 66.0999 68.5999 63.9999 68.0999C63.7999 68.0999 63.7999 68.2999 63.8999 68.2999C66.0999 68.7999 68.7999 68.4999 70.2999 66.5999C70.2999 66.5999 70.1999 66.3999 70.0999 66.4999Z" fill="#AD4834"/>
<path d="M71.4999 57.3998C71.1999 56.2998 69.7999 55.7998 68.6999 55.7998C67.7999 55.8998 67.0999 56.9998 68.0999 57.5998C68.4999 57.7998 69.0999 57.7998 69.4999 57.8998C69.8999 57.9998 70.4999 58.4998 70.9999 58.3998C71.4999 58.2998 71.5999 57.8998 71.4999 57.3998Z" fill="#571914"/>
<path d="M60.9 56.7998C61.3 55.6998 62.7 55.3998 63.7 55.5998C64.5 55.7998 65 56.9998 64 57.3998C63.6 57.5998 63.1 57.4998 62.6 57.4998C62.2 57.5998 61.6 57.8998 61.2 57.7998C60.8 57.6998 60.7 57.1998 60.9 56.7998Z" fill="#571914"/>
<path d="M73.1001 55.5C72.9001 54.6 72.8001 53.6 72.2001 52.8C71.7001 52.1 71.0001 51.7 70.3001 51.3C69.5001 50.9 68.6001 50.5 67.7001 50.3C66.8001 50.2 65.9001 50.3 65.0001 50.6C63.4001 51.1 62.0001 52.1 61.0001 53.4C59.8001 55 59.4001 56.8 59.2001 58.7C59.3001 58.9 58.7001 59.6 58.8001 59.8C59.4001 59.7 60.6001 58.5 61.0001 58C61.6001 57.2 62.0001 56.4 62.7001 55.7C63.5001 54.9 64.6001 54.9 65.5001 54.3C65.7001 54.2 65.9001 54 66.1001 53.8C66.2001 53.7 66.4001 53.7 66.5001 53.8C66.6001 53.9 66.6001 54 66.7001 54.1C67.5001 55.1 69.0001 54.8 69.7001 55.9C70.0001 56.4 70.2001 57.1 70.5001 57.6C70.8001 58.1 71.1001 58.5 71.6001 58.9C72.2001 59.4 72.7001 59.7 72.9001 60.5C73.0001 61 73.1001 61.5 73.4001 61.9C73.5001 62 73.6001 61.9 73.6001 61.8C74.0001 59.9 73.6001 57.7 73.1001 55.5Z" fill="#571914"/>
<path d="M73.1999 61.9998C72.9999 62.6998 72.7999 63.1998 72.8999 63.9998C72.9999 64.4998 73.1999 64.9998 73.5999 65.3998C73.6999 65.4998 73.7999 65.3998 73.6999 65.2998C73.2999 64.7998 73.0999 64.1998 73.0999 63.5998C73.0999 62.9998 73.2999 62.5998 73.3999 62.0998C73.4999 61.8998 73.2999 61.8998 73.1999 61.9998Z" fill="#2B0303"/>
<path d="M59.4 59.5998C58.8 60.0998 58.5 60.6998 58.2 61.3998C58.2 61.4998 58.3 61.5998 58.4 61.4998C58.6 60.7998 59 60.1998 59.5 59.6998C59.6 59.5998 59.5 59.4998 59.4 59.5998Z" fill="#2B0303"/>
<path d="M69.7001 56.3C70.1001 57 70.2001 58 71.0001 58.5C71.1001 58.6 71.2001 58.4 71.1001 58.3C70.4001 57.8 70.3001 56.9 69.9001 56.2C69.8001 56.1 69.6001 56.1 69.7001 56.3Z" fill="#2B0303"/>
<path d="M63.0001 55.5999C62.2001 55.8999 62.2001 56.8999 61.4001 57.2999C61.3001 57.3999 61.4001 57.4999 61.5001 57.4999C62.2001 57.0999 62.3001 56.0999 63.1001 55.7999C63.2001 55.6999 63.1001 55.5999 63.0001 55.5999Z" fill="#2B0303"/>
<path d="M66.6 52.7998C67.6 51.0998 70.8 52.1998 71.2 53.8998C71.4 54.5998 71.2 55.2998 71.5 56.0998C71.8 56.7998 72.3 57.3998 72.5 58.0998C72.5 58.1998 72.7 58.1998 72.7 57.9998C72.4 56.8998 71.5 56.1998 71.4 54.9998C71.3 54.0998 71.3 53.3998 70.6 52.6998C69.5 51.6998 67.2 51.1998 66.3 52.5998C66.4 52.8998 66.6 52.9998 66.6 52.7998Z" fill="#2B0303"/>
<path d="M72.4999 55.1C72.6999 55.6 72.7999 56.2 72.7999 56.7C72.7999 56.8 72.9999 56.8 72.9999 56.7C72.9999 56.1 72.8999 55.6 72.6999 55C72.5999 55 72.3999 55 72.4999 55.1Z" fill="#2B0303"/>
<path d="M63.0001 52.7998C62.2001 53.1998 61.4001 53.6998 60.8001 54.3998C60.5001 54.7998 60.4001 55.2998 60.3001 55.6998C60.1001 56.3998 59.9001 57.0998 59.4001 57.5998C59.3001 57.6998 59.5001 57.7998 59.5001 57.6998C59.8001 57.3998 60.0001 56.9998 60.2001 56.5998C60.4001 56.0998 60.5001 55.4998 60.7001 54.8998C61.1001 53.8998 62.2001 53.2998 63.1001 52.7998C63.2001 52.9998 63.1001 52.7998 63.0001 52.7998Z" fill="#2B0303"/>
<path d="M73.7 65.7999C73.6 66.6999 72.8 67.2999 71.9 67.0999C71.8 67.0999 71.7 67.2999 71.8 67.2999C72.8 67.4999 73.7 66.7999 73.8 65.7999C74 65.5999 73.8 65.5999 73.7 65.7999Z" fill="#2B0303"/>
<path d="M58.2 65.5999C58.5 66.2999 59.2 66.6999 59.9 66.6999C60 66.6999 60 66.4999 59.9 66.4999C59.2 66.4999 58.5999 66.0999 58.2999 65.4999C58.2999 65.3999 58.2 65.4999 58.2 65.5999Z" fill="#2B0303"/>
<path d="M59 67.9C59.1 68.2 59 68.5 58.8 68.7C58.7 68.8 58.9 68.9 58.9 68.8C59.1 68.5 59.2 68.1 59.2 67.8C59.1 67.7 58.9 67.8 59 67.9Z" fill="#2B0303"/>
<path d="M72.3 60.3C72 61 71.8 61.7 71.7 62.4C71.7 62.6 71.9 62.6 72 62.4C72.1 61.7 72.3 61.1 72.5 60.4C72.6 60.3 72.3 60.2 72.3 60.3Z" fill="#AD4834"/>
<path d="M59.8 59.9C59.7 60.5 59.8 61.1 59.9 61.8C59.9 62 60.2 61.9 60.1 61.7C60 61.1 60 60.5 60 59.9C60 59.7 59.8 59.7 59.8 59.9Z" fill="#AD4834"/>
<path d="M75.2 84.5999C75.2 85.4999 75.3 86.3999 75.4 87.1999C75.4 87.2999 75.6 87.2999 75.6 87.1999C75.5 86.2999 75.5 85.4999 75.4 84.5999C75.4 84.4999 75.2 84.4999 75.2 84.5999Z" fill="#2B0303"/>
<path d="M55.9999 84.2C55.8999 85.1 55.8999 85.9 55.8999 86.8C55.8999 86.9 56.0999 86.9 56.0999 86.8C56.0999 85.9 56.0999 85.1 56.1999 84.2C56.1999 84.1 55.9999 84.1 55.9999 84.2Z" fill="#2B0303"/>
<path d="M82.6 26.7999C82.5 26.2999 81.7 25.3999 81.4 25.0999C81.1 24.7999 80.3 24.0999 79.9 23.7999C79.8 23.6999 79.3 23.2999 79.2 23.5999C78.6 26.0999 76.4 27.8999 74.5 29.4999C74.4 29.4999 74.5 29.6999 74.5 29.6999V29.7999C74.9 31.9999 76.6 34.3999 76.7 34.3999C79.6 32.6999 81.3 30.1999 82.5 27.0999C82.6 26.9999 82.6 26.8999 82.6 26.7999Z" fill="#FAE1D2"/>
<path d="M84.7999 73.0998C83.9999 72.2998 82.9999 71.7998 81.8999 71.5998C81.2999 71.4998 80.8999 71.9998 81.1999 72.4998C81.6999 73.5998 83.0999 74.2998 84.2999 74.4998C84.7999 74.6998 84.8999 73.2998 84.7999 73.0998Z" fill="#FEC961"/>
<path d="M74.5 29.4999C73.7 29.0999 73 28.6999 72.3 28.0999C72 27.7999 71.7 27.4999 71.5 27.0999C71.4 26.8999 71.3 26.6999 71.2 26.4999C71 26.0999 71.1 25.7999 70.9 25.9999C70.5 26.3999 70.2 27.1999 69.9 27.6999C69.6 28.1999 69.3 28.5999 69.1 29.0999C68.9 29.4999 68.6 29.8999 68.7 30.3999C68.8 30.8999 69.1 31.3999 69.4 31.7999C70.1 32.9999 71.3 34.0999 72.5 34.5999C72.6 34.5999 72.7 34.6999 72.8 34.5999C72.9 34.4999 73.5 33.3999 73.9 32.2999C74.2 31.4999 74.5 30.3999 74.7 29.5999C74.7 29.4999 74.6 29.4999 74.5 29.4999Z" fill="#FAE1D2"/>
<path d="M74.5 29.9998C74.7 30.8998 75 31.6998 75.3 32.4998C75.4 32.5998 75.5 32.4998 75.5 32.3998C75.1 31.5998 74.9 30.7998 74.7 29.8998C74.7 29.7998 74.5 29.8998 74.5 29.9998Z" fill="#2B0303"/>
<path d="M85.4 70.5999C86.7 69.1999 83.2 67.7999 81.5 67.5999C81.5 67.5999 78.3 69.9999 75.9 70.9999C75.5 71.0999 75.5 71.5999 75.7 71.7999C75.7 71.8999 75.7 72.0999 75.8 72.2999C76 72.5999 76.2 72.9999 76.4 73.3999C76.5 73.7999 76.7 74.1999 76.9 74.4999C77.1 74.6999 77.3 74.7999 77.6 74.7999C77.7 74.8999 78.2 74.9999 78.4 74.9999C79.7 74.5999 82.7 73.4999 85.4 70.5999Z" fill="#964939"/>
<path d="M74.5001 29.9998C74.3001 30.9998 74.0001 31.9998 73.6001 32.9998C73.6001 33.0998 73.7001 33.1998 73.8001 33.0998C74.2001 32.0998 74.5001 31.1998 74.7001 30.0998C74.7001 29.8998 74.5001 29.8998 74.5001 29.9998Z" fill="#2B0303"/>
<path d="M78.4999 68.9998C78.3999 68.9998 78.3999 69.0998 78.3999 69.0998L77.7999 69.6998C77.7999 69.6998 77.5999 69.8998 77.6999 69.9998C78.3999 70.1998 78.9999 70.6998 79.4999 71.2998C79.8999 71.6998 80.8999 73.2998 81.0999 74.2998C81.1999 74.8998 82.1999 74.2998 82.5999 74.0998C83.3999 73.5998 84.1999 73.2998 84.7999 72.3998C84.5999 72.4998 80.6999 68.6998 78.4999 68.9998Z" fill="#FAE1D2"/>
<path d="M80.0999 74.3C80.1999 74.2 79.8999 74 79.4999 73.9C79.1999 73.8 78.9999 73.5 78.9999 73.1C78.9999 72.8 78.8999 72.5 78.7999 72.2C78.5999 72 78.3999 71.8 78.1999 71.6C78.1999 71.5 78.1999 71.5 78.0999 71.4C77.3999 69.8 75.8999 70.3 75.8999 70.3C75.3999 70.1 75.0999 70 74.3999 70C74.1999 70 73.6999 70.1 73.6999 70.1C72.7999 70 71.9999 70.3 71.2999 70.9C70.9999 71.2 70.6999 71.5 70.7999 71.9C70.7999 72.1 70.8999 72.3 71.0999 72.4C70.8999 72.7 70.6999 72.9 70.4999 73.2C70.3999 73.4 70.3999 73.5 70.3999 73.7C70.3999 73.9 70.4999 74.1 70.6999 74.2C71.0999 74.4 71.3999 74.4 71.5999 74.3C71.7999 75 72.6999 75 73.2999 74.7C73.2999 74.7 73.2999 74.7 73.3999 74.7V74.8C73.4999 75.7 74.4999 75.5 75.0999 75.3C75.1999 75.3 75.3999 75.2 75.4999 75.1C75.3999 75.6 75.5999 76 76.1999 76.1C76.5999 76.2 76.9999 76 77.2999 75.8C77.5999 75.6 78.2999 75.2 78.7999 75.3C79.2999 75.6 79.7999 74.9 80.0999 74.3Z" fill="#964939"/>
<path d="M78.7 73.6999C77.8 73.5999 76.3 74.0999 75.9 74.9999C75.8 75.0999 76.1 75.2999 76.1 75.0999C76.5 74.2999 77.9 73.8999 78.7 73.8999C78.9 73.9999 78.8 73.6999 78.7 73.6999Z" fill="#71311F"/>
<path d="M78.0001 71.7998C76.2001 71.9998 74.7001 72.9998 73.7001 74.3998C73.6001 74.4998 73.8001 74.6998 73.9001 74.4998C74.8001 73.0998 76.3001 72.1998 78.0001 71.9998C78.1001 72.0998 78.1001 71.7998 78.0001 71.7998Z" fill="#71311F"/>
<path d="M75.6 70.5C73.8 70.9 72.3 72.2 71.7 74C71.7 74.2 71.9 74.2 71.9 74.1C72.4 72.4 73.8 71.1 75.6 70.8C75.8 70.7 75.8 70.5 75.6 70.5Z" fill="#71311F"/>
<path d="M73.6 70.5C72.6 70.8 71.8 71.4 71.1 72.2C71 72.3 71.2 72.5 71.3 72.3C71.9 71.5 72.7 71 73.6 70.7C73.9 70.7 73.8 70.5 73.6 70.5Z" fill="#71311F"/>
<path d="M95 30.4999C94.1 28.6999 86.4 36.1999 87.9 50.9999C88.1 52.9999 88.3 55.1999 87.7 57.1999C87.2 59.0999 86 60.7999 84.7 62.2999C82.7 64.5999 80.1 66.3999 78.2 68.6999C78 68.9999 77.8 69.5999 78.1 69.4999C79 69.2999 81.6 69.8999 84 74.2999C84.1 74.5 84.4 74.5999 84.6 74.4999C86.9 73.8999 89.2 72.8999 91.3 71.7999C93.6 70.5 95.8 68.8999 97.3 66.6999C100.1 62.4999 101.1 57.0999 100.9 52.1999C100.7 48.2999 100.5 44.2999 99.7 40.4C99.3 38.4 98.8 36.4999 98 34.5999C97.3 32.8999 95.9 31.9999 95 30.4999Z" fill="#F095A6"/>
<path d="M100.3 58.5998C99.6001 62.7998 97.7001 67.0998 94.3001 69.6998C92.7001 70.8998 90.8001 71.8998 89.1001 72.7998C87.4001 73.6998 84.8001 75.4998 83.0001 73.9998C82.9001 73.8998 82.8001 74.0998 82.9001 74.0998C84.1001 74.9998 85.5001 74.7998 86.7001 74.1998C88.4001 73.4998 89.9001 72.4998 91.5001 71.6998C93.0001 70.7998 94.6001 69.8998 95.8001 68.6998C97.0001 67.4998 98.0001 65.9998 98.7001 64.4998C99.6001 62.6998 100.2 60.6998 100.5 58.6998C100.5 58.5998 100.3 58.4998 100.3 58.5998Z" fill="#2B0303"/>
<path d="M90.4 34.8999C88 40.2999 87.7 46.3999 88 52.1999C88.1 53.6999 88.3 55.2999 88 56.8999C87.8 58.3999 86.9 59.5999 85.9 60.6999C84.4 62.3999 82.6 63.8999 81 65.4999C80.2 66.1999 79.4 66.9999 78.7 67.7999C78.3 68.1999 77.9 68.6999 77.8 69.2999C77.8 69.3999 78 69.3999 78 69.2999C78.1 68.6999 78.7 68.0999 79.1 67.5999C79.8 66.8999 80.5 66.1999 81.2 65.4999C82.8 63.9999 84.5 62.4999 86 60.8999C86.8 59.9999 87.5 59.0999 87.9 57.9999C88.4 56.6999 88.3 55.2999 88.2 53.8999C88 50.8999 87.9 47.9999 88.2 44.9999C88.5 41.4999 89.2 38.0999 90.6 34.8999C90.6 34.8999 90.4 34.7999 90.4 34.8999Z" fill="#2B0303"/>
<path d="M87.9 59.0998C89.7 57.6998 91.9 56.9998 94.2 57.1998C94.3 57.1998 94.3 56.9998 94.2 56.9998C91.9 56.7998 89.6 57.4998 87.8 58.9998C87.7 59.0998 87.8 59.1998 87.9 59.0998Z" fill="#2B0303"/>
<path d="M83.5 73.7998C83.6 73.9998 83.7 74.0998 83.8 74.2998C83.8 74.3998 84 74.3998 84 74.1998C83.9 73.9998 83.8 73.7998 83.7 73.5998C83.6 73.4998 83.5 73.6998 83.5 73.7998Z" fill="#2B0303"/>
</svg>
