<svg width="103" height="100" viewBox="0 0 103 100" fill="none" xmlns="http://www.w3.org/2000/svg">
<mask id="mask0_385_12279" style="mask-type:alpha" maskUnits="userSpaceOnUse" x="0" y="0" width="103" height="100">
<rect width="103" height="100" fill="#D9D9D9"/>
</mask>
<g mask="url(#mask0_385_12279)">
<path d="M82.8503 71.2598C95.9585 56.7349 94.8041 34.3392 80.2716 21.2378C70.4118 12.3495 56.9288 10.0247 45.183 13.9828C37.4635 15.2091 30.0965 18.9815 24.4536 25.2347C11.3454 39.7596 12.4998 62.1553 27.0323 75.2567C36.8913 84.145 50.224 86.3485 62.2596 83.3865C69.8495 81.5189 77.2066 77.513 82.8495 71.2598H82.8503Z" fill="#F5B0D1"/>
<path d="M56.536 47.5392L70.5095 14.9793C70.5095 14.9793 69.2132 14.3694 66.9681 13.6844C66.8277 13.6415 66.6865 13.5994 66.5453 13.5582C66.2645 13.4756 65.9698 13.3931 65.6634 13.3106C65.5974 13.2932 65.5321 13.2743 65.4661 13.2569C57.3502 11.1112 40.8005 9.30052 26.0087 23.6901L31.5318 22.609L56.536 47.5392Z" fill="#645A8C"/>
<path d="M90.9038 38.8952L56.5361 47.5384L70.5096 14.9785C73.9966 16.4748 77.2977 18.5569 80.272 21.2375C85.6944 26.1256 89.2549 32.3103 90.9038 38.8952Z" fill="#F0D2C2"/>
<path d="M31.4475 22.5244C29.5055 20.774 25.6783 23.9439 25.6783 23.9439C25.2613 24.359 24.8526 24.7907 24.4521 25.2347C20.9709 29.092 18.4971 33.5032 17.0108 38.1462C17.0108 38.1462 19.5978 36.0591 22.78 36.7267L56.5359 47.5387L31.4475 22.5244Z" fill="#F28E61"/>
<path d="M25.633 28.6745C22.6348 33.594 20.7555 39.1613 20.3517 44.9168C19.9529 50.6088 21.0511 56.328 23.387 61.5248C24.799 64.665 26.6643 67.5766 28.84 70.2415C29.0357 70.4816 29.4469 70.4445 29.6509 70.2415C29.8879 70.0046 29.8474 69.672 29.6509 69.431C26.0095 64.972 23.3408 59.7298 22.1361 54.0874C20.995 48.7445 21.2319 43.1623 22.762 37.9209C23.6529 34.8698 24.9699 31.9649 26.623 29.2521C27.0078 28.6208 26.0169 28.0448 25.633 28.6736V28.6745Z" fill="#2D2745"/>
<path d="M94.1793 10.247C90.9623 12.0181 87.8395 13.9567 84.8661 16.1206C84.7926 16.1742 84.5771 16.3211 84.535 16.4003C84.3649 16.7164 84.4466 17.0474 84.8108 17.3346L86.4845 18.6558C82.9835 23.445 79.4824 28.2349 75.9823 33.024C75.6355 33.4986 75.1648 34.3214 74.4671 34.1794C74.0072 34.0862 71.0189 31.7225 69.6821 31.9198C68.2131 32.1368 67.5154 33.2732 66.456 34.6284C65.3174 36.085 58.4103 47.2123 57.2576 47.4087C55.7391 47.6678 45.5003 38.6689 43.7193 38.4907C41.9101 38.3091 37.9178 42.7458 35.5158 45.1895C30.5599 50.2312 24.8262 57.7495 20.7207 63.5248C20.2146 64.237 19.7142 64.9542 19.2196 65.6755C19.1015 65.848 18.8728 66.5387 19.3393 67.3269C19.9008 68.2768 23.7957 71.4591 24.2812 71.6505C25.0301 71.946 25.7196 71.7034 25.8542 71.4401C28.8969 65.4791 32.5705 59.8564 36.8031 54.7009C37.8675 53.4044 38.9698 52.1392 40.1043 50.9054C40.6534 50.3079 41.1951 49.6823 41.7962 49.1377C42.3907 48.5996 43.0323 48.352 43.7919 48.7069C44.4806 49.0287 56.1462 56.93 57.7175 56.9869C60.2541 57.0785 69.5632 40.2147 70.2031 39.9341C70.7596 39.6898 71.3533 39.8656 71.8752 40.1214C73.1269 40.7355 75.4678 41.9486 76.9723 42.5668C77.2629 42.6864 78.3033 42.8845 79.1489 41.7159C82.5037 37.0778 89.9326 24.8851 91.4082 22.5438C91.7765 22.8351 92.1488 23.1214 92.5138 23.4169C93.437 24.163 93.9431 23.5836 93.9844 23.1165C94.3419 18.9975 94.6995 14.8785 95.057 10.7587C95.0884 10.3981 94.8795 9.86081 94.1784 10.247H94.1793Z" fill="#6699FF"/>
<path d="M92.5276 53.9776C91.4781 53.8662 90.3122 53.9141 89.3725 54.1715C87.3553 54.7245 87.3074 55.7742 89.4353 56.2281C92.9908 56.9866 96.7684 55.4903 94.5241 54.4629C94.013 54.2285 93.3013 54.0601 92.5276 53.9784V53.9776Z" fill="#FFBB5C"/>
<path d="M92.5272 68.7818C91.4777 68.6704 90.3118 68.7182 89.3721 68.9757C87.3549 69.5287 87.307 70.5784 89.4349 71.0323C92.9904 71.7908 96.768 70.2945 94.5238 69.2671C94.0126 69.0327 93.3009 68.8643 92.5272 68.7826V68.7818Z" fill="#FFBB5C"/>
<path d="M95.1994 55.1299H87.8489V69.9817H95.1994V55.1299Z" fill="#FFBB5C"/>
<path d="M87.9414 55.655C88.1957 55.9653 88.6077 56.1336 88.9785 56.2541C89.549 56.4398 90.1576 56.5281 90.7546 56.5793C91.8387 56.6725 92.9724 56.6065 94.0227 56.3069C94.429 56.1914 94.8517 56.0379 95.1911 55.7804C95.31 55.6904 95.3719 55.5419 95.2902 55.4024C95.2217 55.2852 95.0317 55.2126 94.912 55.3034C94.3076 55.7606 93.4579 55.9157 92.7239 55.9999C91.6422 56.1245 90.5168 56.0808 89.4582 55.8159C89.0668 55.7177 88.5978 55.5881 88.3319 55.2638C88.1065 54.9881 87.7176 55.381 87.9414 55.6541V55.655Z" fill="#2D2745"/>
<path d="M87.9413 57.7836C88.1956 58.0939 88.6077 58.2623 88.9784 58.3828C89.549 58.5685 90.1575 58.6568 90.7545 58.7079C91.8387 58.8012 92.9724 58.7352 94.0227 58.4356C94.4289 58.32 94.8517 58.1665 95.191 57.9091C95.3099 57.8191 95.3719 57.6706 95.2901 57.5311C95.2216 57.4139 95.0317 57.3413 94.912 57.432C94.3075 57.8892 93.4579 58.0444 92.7238 58.1286C91.6421 58.2532 90.5167 58.2095 89.4581 57.9445C89.0668 57.8463 88.5978 57.7168 88.3319 57.3924C88.1065 57.1168 87.7175 57.5096 87.9413 57.7828V57.7836Z" fill="#2D2745"/>
<path d="M87.9413 59.912C88.1956 60.2223 88.6077 60.3907 88.9784 60.5112C89.549 60.6969 90.1575 60.7852 90.7545 60.8363C91.8387 60.9296 92.9724 60.8636 94.0227 60.564C94.4289 60.4485 94.8517 60.295 95.191 60.0375C95.3099 59.9475 95.3719 59.799 95.2901 59.6595C95.2216 59.5423 95.0317 59.4697 94.912 59.5605C94.3075 60.0177 93.4579 60.1728 92.7238 60.257C91.6421 60.3816 90.5167 60.3379 89.4581 60.073C89.0668 59.9748 88.5978 59.8452 88.3319 59.5208C88.1065 59.2452 87.7175 59.638 87.9413 59.9112V59.912Z" fill="#2D2745"/>
<path d="M87.9413 62.0402C88.1956 62.3505 88.6077 62.5189 88.9784 62.6394C89.549 62.825 90.1575 62.9134 90.7545 62.9645C91.8387 63.0578 92.9724 62.9918 94.0227 62.6922C94.4289 62.5766 94.8517 62.4231 95.191 62.1656C95.3099 62.0757 95.3719 61.9271 95.2901 61.7877C95.2216 61.6705 95.0317 61.5979 94.912 61.6886C94.3075 62.1458 93.4579 62.301 92.7238 62.3852C91.6421 62.5098 90.5167 62.4661 89.4581 62.2011C89.0668 62.1029 88.5978 61.9734 88.3319 61.649C88.1065 61.3734 87.7175 61.7662 87.9413 62.0394V62.0402Z" fill="#2D2745"/>
<path d="M87.9413 64.1696C88.1956 64.4799 88.6077 64.6483 88.9784 64.7688C89.549 64.9544 90.1575 65.0427 90.7545 65.0939C91.8387 65.1872 92.9724 65.1212 94.0227 64.8216C94.4289 64.706 94.8517 64.5525 95.191 64.295C95.3099 64.2051 95.3719 64.0565 95.2901 63.9171C95.2216 63.7999 95.0317 63.7272 94.912 63.818C94.3075 64.2752 93.4579 64.4304 92.7238 64.5146C91.6421 64.6392 90.5167 64.5954 89.4581 64.3305C89.0668 64.2323 88.5978 64.1028 88.3319 63.7784C88.1065 63.5028 87.7175 63.8956 87.9413 64.1688V64.1696Z" fill="#2D2745"/>
<path d="M87.9413 66.2975C88.1956 66.6078 88.6077 66.7762 88.9784 66.8967C89.549 67.0824 90.1575 67.1707 90.7545 67.2218C91.8387 67.3151 92.9724 67.2491 94.0227 66.9495C94.4289 66.834 94.8517 66.6805 95.191 66.423C95.3099 66.333 95.3719 66.1845 95.2901 66.045C95.2216 65.9278 95.0317 65.8552 94.912 65.946C94.3075 66.4032 93.4579 66.5583 92.7238 66.6425C91.6421 66.7671 90.5167 66.7234 89.4581 66.4585C89.0668 66.3603 88.5978 66.2307 88.3319 65.9063C88.1065 65.6307 87.7175 66.0235 87.9413 66.2967V66.2975Z" fill="#2D2745"/>
<path d="M87.9413 68.4259C88.1956 68.7363 88.6077 68.9046 88.9784 69.0251C89.549 69.2108 90.1575 69.2991 90.7545 69.3503C91.8387 69.4435 92.9724 69.3775 94.0227 69.0779C94.4289 68.9624 94.8517 68.8089 95.191 68.5514C95.3099 68.4614 95.3719 68.3129 95.2901 68.1734C95.2216 68.0562 95.0317 67.9836 94.912 68.0744C94.3075 68.5316 93.4579 68.6867 92.7238 68.7709C91.6421 68.8955 90.5167 68.8518 89.4581 68.5869C89.0668 68.4887 88.5978 68.3591 88.3319 68.0348C88.1065 67.7591 87.7175 68.152 87.9413 68.4251V68.4259Z" fill="#2D2745"/>
<path d="M85.3433 51.8699C84.2938 51.7585 83.1279 51.8064 82.1883 52.0639C80.171 52.6168 80.1231 53.6666 82.251 54.1205C85.8065 54.8789 89.5841 53.3827 87.3399 52.3552C86.8287 52.1208 86.117 51.9525 85.3433 51.8708V51.8699Z" fill="#FFBB5C"/>
<path d="M85.3435 71.0821C84.2941 70.9707 83.1282 71.0185 82.1885 71.276C80.1713 71.829 80.1234 72.8787 82.2512 73.3326C85.8068 74.0911 89.5844 72.5948 87.3401 71.5674C86.829 71.333 86.1172 71.1646 85.3435 71.0829V71.0821Z" fill="#FFBB5C"/>
<path d="M88.0153 53.0706H80.6648V72.2823H88.0153V53.0706Z" fill="#FFBB5C"/>
<path d="M80.6869 53.5773C80.9412 53.8876 81.3532 54.056 81.724 54.1765C82.2945 54.3622 82.9031 54.4505 83.5001 54.5016C84.5842 54.5949 85.7179 54.5289 86.7682 54.2293C87.1745 54.1137 87.5973 53.9602 87.9375 53.7028C88.0564 53.6128 88.1183 53.4643 88.0365 53.3248C87.968 53.2076 87.7781 53.135 87.6584 53.2257C87.0539 53.683 86.2043 53.8381 85.4702 53.9223C84.3885 54.0469 83.2631 54.0032 82.2045 53.7382C81.8132 53.64 81.3442 53.5105 81.0783 53.1861C80.8529 52.9105 80.4639 53.3033 80.6877 53.5765L80.6869 53.5773Z" fill="#2D2745"/>
<path d="M80.6868 55.7062C80.9411 56.0165 81.3531 56.1849 81.7239 56.3054C82.2944 56.4911 82.903 56.5794 83.5 56.6305C84.5841 56.7238 85.7178 56.6578 86.7681 56.3582C87.1744 56.2427 87.5971 56.0891 87.9373 55.8317C88.0562 55.7417 88.1182 55.5932 88.0364 55.4537C87.9679 55.3365 87.778 55.2639 87.6582 55.3546C87.0538 55.8119 86.2042 55.967 85.4701 56.0512C84.3884 56.1758 83.263 56.1321 82.2044 55.8672C81.813 55.7689 81.344 55.6394 81.0782 55.315C80.8527 55.0394 80.4638 55.4322 80.6876 55.7054L80.6868 55.7062Z" fill="#2D2745"/>
<path d="M80.6868 57.8342C80.9411 58.1445 81.3531 58.3128 81.7239 58.4333C82.2944 58.619 82.903 58.7073 83.5 58.7585C84.5841 58.8517 85.7178 58.7857 86.7681 58.4861C87.1744 58.3706 87.5971 58.2171 87.9373 57.9596C88.0562 57.8696 88.1182 57.7211 88.0364 57.5816C87.9679 57.4644 87.778 57.3918 87.6582 57.4826C87.0538 57.9398 86.2042 58.0949 85.4701 58.1791C84.3884 58.3037 83.263 58.26 82.2044 57.9951C81.813 57.8969 81.344 57.7673 81.0782 57.443C80.8527 57.1673 80.4638 57.5602 80.6876 57.8333L80.6868 57.8342Z" fill="#2D2745"/>
<path d="M80.6868 59.9628C80.9411 60.2731 81.3531 60.4415 81.7239 60.562C82.2944 60.7477 82.903 60.836 83.5 60.8871C84.5841 60.9804 85.7178 60.9144 86.7681 60.6148C87.1744 60.4992 87.5971 60.3457 87.9373 60.0883C88.0562 59.9983 88.1182 59.8497 88.0364 59.7103C87.9679 59.5931 87.778 59.5205 87.6582 59.6112C87.0538 60.0685 86.2042 60.2236 85.4701 60.3078C84.3884 60.4324 83.263 60.3887 82.2044 60.1237C81.813 60.0255 81.344 59.896 81.0782 59.5716C80.8527 59.296 80.4638 59.6888 80.6876 59.962L80.6868 59.9628Z" fill="#2D2745"/>
<path d="M80.6868 62.0922C80.9411 62.4025 81.3531 62.5709 81.7239 62.6914C82.2944 62.8771 82.903 62.9654 83.5 63.0165C84.5841 63.1098 85.7178 63.0438 86.7681 62.7442C87.1744 62.6286 87.5971 62.4751 87.9373 62.2176C88.0562 62.1277 88.1182 61.9791 88.0364 61.8397C87.9679 61.7225 87.778 61.6499 87.6582 61.7406C87.0538 62.1978 86.2042 62.353 85.4701 62.4372C84.3884 62.5618 83.263 62.5181 82.2044 62.2531C81.813 62.1549 81.344 62.0254 81.0782 61.701C80.8527 61.4254 80.4638 61.8182 80.6876 62.0914L80.6868 62.0922Z" fill="#2D2745"/>
<path d="M80.6868 64.2201C80.9411 64.5304 81.3531 64.6988 81.7239 64.8193C82.2944 65.005 82.903 65.0933 83.5 65.1445C84.5841 65.2377 85.7178 65.1717 86.7681 64.8721C87.1744 64.7566 87.5971 64.6031 87.9373 64.3456C88.0562 64.2556 88.1182 64.1071 88.0364 63.9676C87.9679 63.8504 87.778 63.7778 87.6582 63.8686C87.0538 64.3258 86.2042 64.4809 85.4701 64.5651C84.3884 64.6897 83.263 64.646 82.2044 64.3811C81.813 64.2829 81.344 64.1533 81.0782 63.829C80.8527 63.5533 80.4638 63.9461 80.6876 64.2193L80.6868 64.2201Z" fill="#2D2745"/>
<path d="M80.6868 66.3486C80.9411 66.6589 81.3531 66.8272 81.7239 66.9477C82.2944 67.1334 82.903 67.2217 83.5 67.2729C84.5841 67.3661 85.7178 67.3001 86.7681 67.0005C87.1744 66.885 87.5971 66.7315 87.9373 66.474C88.0562 66.384 88.1182 66.2355 88.0364 66.096C87.9679 65.9788 87.778 65.9062 87.6582 65.997C87.0538 66.4542 86.2042 66.6093 85.4701 66.6935C84.3884 66.8181 83.263 66.7744 82.2044 66.5095C81.813 66.4113 81.344 66.2817 81.0782 65.9574C80.8527 65.6817 80.4638 66.0746 80.6876 66.3477L80.6868 66.3486Z" fill="#2D2745"/>
<path d="M80.6868 68.4804C80.9411 68.7907 81.3531 68.9591 81.7239 69.0795C82.2944 69.2652 82.903 69.3535 83.5 69.4047C84.5841 69.498 85.7178 69.4319 86.7681 69.1324C87.1744 69.0168 87.5971 68.8633 87.9373 68.6058C88.0562 68.5159 88.1182 68.3673 88.0364 68.2279C87.9679 68.1107 87.778 68.038 87.6582 68.1288C87.0538 68.586 86.2042 68.7412 85.4701 68.8254C84.3884 68.95 83.263 68.9062 82.2044 68.6413C81.813 68.5431 81.344 68.4135 81.0782 68.0892C80.8527 67.8136 80.4638 68.2064 80.6876 68.4796L80.6868 68.4804Z" fill="#2D2745"/>
<path d="M80.6868 70.6098C80.9411 70.9201 81.3531 71.0884 81.7239 71.2089C82.2944 71.3946 82.903 71.4829 83.5 71.5341C84.5841 71.6274 85.7178 71.5613 86.7681 71.2618C87.1744 71.1462 87.5971 70.9927 87.9373 70.7352C88.0562 70.6453 88.1182 70.4967 88.0364 70.3572C87.9679 70.2401 87.778 70.1674 87.6582 70.2582C87.0538 70.7154 86.2042 70.8706 85.4701 70.9548C84.3884 71.0794 83.263 71.0356 82.2044 70.7707C81.813 70.6725 81.344 70.5429 81.0782 70.2186C80.8527 69.943 80.4638 70.3358 80.6876 70.609L80.6868 70.6098Z" fill="#2D2745"/>
<path d="M87.8605 55.0824V59.5786C87.8605 59.9343 88.4129 59.9343 88.4129 59.5786V55.0824C88.4129 54.7267 87.8605 54.7267 87.8605 55.0824Z" fill="#2D2745"/>
<path d="M90.5479 59.7725C89.4984 59.6611 88.3325 59.709 87.3928 59.9665C85.3756 60.5194 85.3277 61.5692 87.4556 62.0231C91.0111 62.7815 94.7887 61.2853 92.5445 60.2578C92.0333 60.0234 91.3216 59.855 90.5479 59.7733V59.7725Z" fill="#FFBB5C"/>
<path d="M90.5478 72.8201C89.4983 72.7087 88.3324 72.7566 87.3927 73.0141C85.3755 73.567 85.3276 74.6168 87.4555 75.0707C91.011 75.8291 94.7886 74.3329 92.5443 73.3054C92.0332 73.071 91.3215 72.9027 90.5478 72.821V72.8201Z" fill="#FFBB5C"/>
<path d="M93.2197 61.0288H85.8692V74.0204H93.2197V61.0288Z" fill="#FFBB5C"/>
<path d="M92.9429 60.9728V70.7648C92.9429 71.1205 93.4953 71.1205 93.4953 70.7648V60.9728C93.4953 60.6171 92.9429 60.6171 92.9429 60.9728Z" fill="#2D2745"/>
<path d="M85.5925 60.9728V73.1325C85.5925 73.4882 86.1449 73.4882 86.1449 73.1325V60.9728C86.1449 60.6171 85.5925 60.6171 85.5925 60.9728Z" fill="#2D2745"/>
<path d="M90.5479 59.4963C89.7502 59.4146 88.9451 59.4212 88.1508 59.5326C87.4878 59.6259 86.7785 59.7926 86.2063 60.1557C85.8537 60.3794 85.5094 60.7425 85.6134 61.1948C85.7232 61.6726 86.2492 61.9284 86.6637 62.0852C87.368 62.351 88.1516 62.4484 88.8989 62.4904C89.6107 62.5309 90.3249 62.4937 91.0292 62.3823C91.5891 62.2932 92.1497 62.1521 92.6617 61.9028C92.987 61.7444 93.3701 61.4968 93.4709 61.1246C93.5931 60.6723 93.2388 60.3208 92.8764 60.1169C92.177 59.7233 91.3348 59.5838 90.5487 59.4971C90.4001 59.4806 90.2721 59.6358 90.2721 59.7736C90.2721 59.9362 90.3992 60.0336 90.5487 60.0501C91.1729 60.1186 91.831 60.2333 92.4057 60.4974C92.57 60.5725 92.736 60.6624 92.845 60.7706C92.8557 60.7813 92.911 60.844 92.8978 60.8267C92.8838 60.8085 92.9275 60.8762 92.9358 60.8927C92.9086 60.8415 92.9358 60.8968 92.9424 60.9208C92.9474 60.9381 92.9465 60.9711 92.9424 60.9034C92.9432 60.9183 92.9465 60.9356 92.9441 60.9505C92.9308 61.0206 92.9556 60.8993 92.9408 60.9703C92.9383 60.9827 92.9342 60.9959 92.9292 61.0074C92.9143 61.0429 92.9515 60.962 92.9333 60.9967C92.9201 61.0223 92.9061 61.0454 92.8904 61.0693C92.8689 61.1031 92.9193 61.0355 92.8929 61.0677C92.8805 61.0833 92.8673 61.0982 92.8532 61.1122C92.7459 61.2261 92.6476 61.288 92.4899 61.373C92.0853 61.5917 91.6254 61.7106 91.177 61.7989C89.9476 62.0415 88.6289 62.0159 87.4093 61.732C87.136 61.6685 86.8602 61.5917 86.6076 61.4663C86.4573 61.392 86.2864 61.288 86.2021 61.1749C86.1675 61.1279 86.1575 61.1147 86.1485 61.0611C86.1419 61.0198 86.1509 61.1089 86.1476 61.0677C86.1468 61.0528 86.146 61.0379 86.146 61.0231C86.146 61.0049 86.1575 60.9587 86.1443 61.0181C86.1485 60.9992 86.1518 60.9794 86.1592 60.962C86.146 60.9917 86.222 60.8564 86.2187 60.8605C86.269 60.7994 86.3318 60.7425 86.3912 60.6979C86.8982 60.3208 87.5959 60.1731 88.2078 60.0806C88.979 59.9643 89.7733 59.9717 90.5479 60.0509C90.6965 60.0666 90.8245 59.9131 90.8245 59.7744C90.8245 59.6127 90.6973 59.5137 90.5479 59.498V59.4963Z" fill="#2D2745"/>
<path d="M85.8915 63.7297C86.1458 64.04 86.5578 64.2083 86.9286 64.3288C87.4991 64.5145 88.1077 64.6028 88.7047 64.654C89.7888 64.7472 90.9225 64.6812 91.9728 64.3816C92.3791 64.2661 92.8018 64.1126 93.142 63.8551C93.2609 63.7651 93.3229 63.6166 93.2411 63.4771C93.1726 63.3599 92.9827 63.2873 92.8629 63.3781C92.2585 63.8353 91.4089 63.9904 90.6748 64.0746C89.5931 64.1992 88.4677 64.1555 87.4091 63.8906C87.0177 63.7924 86.5487 63.6628 86.2829 63.3385C86.0574 63.0628 85.6685 63.4557 85.8923 63.7288L85.8915 63.7297Z" fill="#2D2745"/>
<path d="M85.8914 65.8581C86.1457 66.1684 86.5578 66.3367 86.9285 66.4572C87.4991 66.6429 88.1076 66.7312 88.7046 66.7824C89.7888 66.8757 90.9225 66.8096 91.9728 66.5101C92.379 66.3945 92.8018 66.241 93.142 65.9835C93.2609 65.8936 93.3228 65.745 93.2411 65.6055C93.1725 65.4884 92.9826 65.4157 92.8629 65.5065C92.2585 65.9637 91.4088 66.1189 90.6748 66.203C89.5931 66.3277 88.4676 66.2839 87.4091 66.019C87.0177 65.9208 86.5487 65.7912 86.2828 65.4669C86.0574 65.1912 85.6685 65.5841 85.8922 65.8573L85.8914 65.8581Z" fill="#2D2745"/>
<path d="M85.8914 67.986C86.1457 68.2963 86.5578 68.4647 86.9285 68.5852C87.4991 68.7709 88.1076 68.8592 88.7046 68.9103C89.7888 69.0036 90.9225 68.9376 91.9728 68.638C92.379 68.5224 92.8018 68.3689 93.142 68.1115C93.2609 68.0215 93.3228 67.8729 93.2411 67.7335C93.1725 67.6163 92.9826 67.5437 92.8629 67.6344C92.2585 68.0916 91.4088 68.2468 90.6748 68.331C89.5931 68.4556 88.4676 68.4119 87.4091 68.1469C87.0177 68.0487 86.5487 67.9192 86.2828 67.5948C86.0574 67.3192 85.6685 67.712 85.8922 67.9852L85.8914 67.986Z" fill="#2D2745"/>
<path d="M85.8914 70.1144C86.1457 70.4247 86.5578 70.5931 86.9285 70.7136C87.4991 70.8993 88.1076 70.9876 88.7046 71.0387C89.7888 71.132 90.9225 71.066 91.9728 70.7664C92.379 70.6509 92.8018 70.4974 93.142 70.2399C93.2609 70.1499 93.3228 70.0014 93.2411 69.8619C93.1725 69.7447 92.9826 69.6721 92.8629 69.7629C92.2585 70.2201 91.4088 70.3752 90.6748 70.4594C89.5931 70.584 88.4676 70.5403 87.4091 70.2754C87.0177 70.1771 86.5487 70.0476 86.2828 69.7232C86.0574 69.4476 85.6685 69.8404 85.8922 70.1136L85.8914 70.1144Z" fill="#2D2745"/>
<path d="M85.8914 72.2438C86.1457 72.5541 86.5578 72.7225 86.9285 72.843C87.4991 73.0287 88.1076 73.117 88.7046 73.1681C89.7888 73.2614 90.9225 73.1954 91.9728 72.8958C92.379 72.7803 92.8018 72.6268 93.142 72.3693C93.2609 72.2793 93.3228 72.1308 93.2411 71.9913C93.1725 71.8741 92.9826 71.8015 92.8629 71.8923C92.2585 72.3495 91.4088 72.5046 90.6748 72.5888C89.5931 72.7134 88.4676 72.6697 87.4091 72.4047C87.0177 72.3065 86.5487 72.177 86.2828 71.8526C86.0574 71.577 85.6685 71.9698 85.8922 72.243L85.8914 72.2438Z" fill="#2D2745"/>
<path d="M22.3844 68.858L30.3616 73.3607C30.9776 73.709 31.7405 73.2633 31.7405 72.5561V48.3736C31.7405 48.2243 31.6604 48.0864 31.53 48.013L22.7923 43.0803C22.5157 42.9243 22.1738 43.124 22.1738 43.4409V68.4973C22.1738 68.6467 22.2539 68.7845 22.3844 68.858Z" fill="#944B32"/>
<path d="M22.0641 43.6458H17.3666L25.8995 48.5141H30.597L22.0641 43.6458Z" fill="#F5E3D9"/>
<path d="M26.6341 48.9577C26.6341 48.9577 26.6271 48.9559 26.6237 48.9551C26.6271 48.9568 26.6315 48.9577 26.6367 48.9594C26.6359 48.9594 26.6359 48.9594 26.6341 48.9586V48.9577Z" fill="#944B32"/>
<path d="M31.5936 48.23C31.3723 47.8033 30.8504 47.6523 30.4054 47.6019C30.1956 47.5788 30.1717 47.8115 29.9991 47.8462C29.8265 47.8809 27.2041 48.1029 26.8788 48.1359C26.5675 48.1672 26.3965 48.0558 26.3965 48.0558C26.3965 48.0558 26.3957 48.0575 26.3949 48.0575C26.3759 48.041 26.3569 48.0245 26.3338 48.0113L17.5961 43.0786C17.3195 42.9226 16.9777 43.1223 16.9777 43.4392V68.4956C16.9777 68.645 17.0578 68.7828 17.1882 68.8562L26.5386 74.1348C26.7855 74.2891 27.0951 74.3601 27.375 74.3922C28.4179 74.5103 30.2146 74.4376 31.108 74.1133C31.5985 73.935 31.7372 73.3053 31.7372 73.0215L31.7389 48.8943C31.7389 48.6789 31.6902 48.4181 31.5936 48.2283V48.23Z" fill="#944B32"/>
<path d="M26.0112 48.9584V73.419C26.0112 73.7747 26.5636 73.7747 26.5636 73.419V48.9584C26.5636 48.6027 26.0112 48.6027 26.0112 48.9584Z" fill="#2D2745"/>
<path d="M26.3792 49.7575C28.0637 49.8277 29.8216 49.7452 31.4425 49.2426C31.781 49.1377 31.6365 48.6038 31.2955 48.7103C29.7184 49.1988 28.0182 49.2739 26.3792 49.2054C26.0233 49.1906 26.0242 49.7427 26.3792 49.7575Z" fill="#2D2745"/>
<path d="M27.2694 56.0163V64.9013C27.2694 65.257 27.8218 65.257 27.8218 64.9013V56.0163C27.8218 55.6606 27.2694 55.6606 27.2694 56.0163Z" fill="#2D2745"/>
<path d="M30.559 55.7033V64.5883C30.559 64.944 31.1114 64.944 31.1114 64.5883V55.7033C31.1114 55.3476 30.559 55.3476 30.559 55.7033Z" fill="#2D2745"/>
<path d="M27.5463 56.2716C28.6634 56.331 29.8293 56.2889 30.9094 55.9704C31.2496 55.8697 31.1051 55.3366 30.7624 55.4381C29.727 55.7443 28.618 55.7764 27.5463 55.7195C27.1912 55.7005 27.192 56.2535 27.5463 56.2716Z" fill="#2D2745"/>
<path d="M27.546 65.1554C28.6632 65.2148 29.8291 65.1727 30.9091 64.8542C31.2493 64.7535 31.1048 64.2204 30.7622 64.3219C29.7267 64.628 28.6178 64.6602 27.546 64.6033C27.191 64.5843 27.1918 65.1373 27.546 65.1554Z" fill="#2D2745"/>
<path d="M12.4057 68.8575L20.3829 73.3603C20.9989 73.7086 21.7618 73.2629 21.7618 72.5556V56.1251C21.7618 55.9757 21.6817 55.8379 21.5513 55.7644L12.8136 50.8317C12.537 50.6757 12.1951 50.8755 12.1951 51.1924V68.4961C12.1951 68.6455 12.2752 68.7833 12.4057 68.8567V68.8575Z" fill="#AEB3BF"/>
<path d="M12.2368 51.3826H7.46582L16.1333 56.3285H20.9051L12.2368 51.3826Z" fill="#F5E3D9"/>
<path d="M16.6559 56.7094C16.6559 56.7094 16.6489 56.7077 16.6454 56.7068C16.6489 56.7085 16.6533 56.7094 16.6585 56.7111C16.6577 56.7111 16.6577 56.7111 16.6559 56.7103V56.7094Z" fill="#944B32"/>
<path d="M21.6151 55.9833C21.3938 55.5566 20.8719 55.4064 20.4269 55.3553C20.2172 55.3321 20.1932 55.5649 20.0206 55.5995C19.8481 55.6342 17.2256 55.8562 16.9003 55.8892C16.589 55.9206 16.4181 55.8092 16.4181 55.8092C16.4181 55.8092 16.4172 55.8108 16.4164 55.8108C16.3974 55.7943 16.3784 55.7778 16.3553 55.7646L7.61846 50.8327C7.34184 50.6767 7 50.8764 7 51.1934V68.4971C7 68.6464 7.08009 68.7843 7.21056 68.8577L16.5609 74.1362C16.8078 74.2905 17.1174 74.3615 17.3973 74.3937C18.4402 74.5117 20.237 74.4391 21.1304 74.1147C21.6209 73.9365 21.7596 73.3068 21.7596 73.0229L21.7612 56.6485C21.7612 56.4331 21.7125 56.1723 21.6159 55.9825L21.6151 55.9833Z" fill="#AEB3BF"/>
<path d="M16.1233 56.601V73.5416C16.1233 73.8973 16.6757 73.8973 16.6757 73.5416V56.601C16.6757 56.2453 16.1233 56.2453 16.1233 56.601Z" fill="#2D2745"/>
<path d="M16.5073 60.3444C18.2 60.3948 19.9629 60.2916 21.5854 59.7717C21.9232 59.6636 21.7787 59.1296 21.4385 59.2394C19.8589 59.7461 18.1546 59.8418 16.5073 59.7932C16.1514 59.7824 16.1523 60.3345 16.5073 60.3453V60.3444Z" fill="#2D2745"/>
<path d="M16.5073 57.0708C18.2 57.1211 19.9629 57.0179 21.5854 56.498C21.9232 56.3899 21.7787 55.8559 21.4385 55.9657C19.8589 56.4724 18.1546 56.5682 16.5073 56.5195C16.1514 56.5087 16.1523 57.0609 16.5073 57.0716V57.0708Z" fill="#2D2745"/>
<path d="M16.5073 62.573C18.2 62.6233 19.9629 62.5201 21.5854 62.0002C21.9232 61.8921 21.7787 61.3581 21.4385 61.4679C19.8589 61.9746 18.1546 62.0704 16.5073 62.0217C16.1514 62.0109 16.1523 62.5631 16.5073 62.5738V62.573Z" fill="#2D2745"/>
<path d="M16.5073 70.4875C18.2 70.5379 19.9629 70.4347 21.5854 69.9148C21.9232 69.8067 21.7787 69.2727 21.4385 69.3825C19.8589 69.8892 18.1546 69.9849 16.5073 69.9362C16.1514 69.9255 16.1523 70.4776 16.5073 70.4883V70.4875Z" fill="#2D2745"/>
<path d="M16.5073 72.7158C18.2 72.7661 19.9629 72.663 21.5854 72.143C21.9232 72.0349 21.7787 71.501 21.4385 71.6107C19.8589 72.1175 18.1546 72.2132 16.5073 72.1645C16.1514 72.1538 16.1523 72.7059 16.5073 72.7166V72.7158Z" fill="#2D2745"/>
<path d="M17.6988 59.379C17.1596 58.3012 16.4958 57.2902 15.7072 56.3783C15.3092 55.9178 14.8823 55.4804 14.4298 55.0727C14.0203 54.7038 13.5694 54.2688 13.0319 54.1005C12.5109 53.9371 11.9659 54.0881 11.6455 54.5437C11.3516 54.9629 11.2756 55.4919 11.3871 55.9871C11.6117 56.9865 12.4423 57.7177 13.273 58.2434C14.5256 59.0365 15.9285 59.5639 17.3949 59.7883C17.5337 59.8098 17.6286 59.7372 17.6732 59.639C17.7302 59.5746 17.7508 59.4838 17.6988 59.379Z" fill="#40856B"/>
<path d="M22.5631 53.4417C22.0693 53.0967 21.4112 53.1826 20.9059 53.4524C20.3832 53.7322 19.9373 54.1911 19.536 54.6194C19.124 55.0592 18.7483 55.5354 18.4147 56.0372C17.6715 57.1546 17.139 58.414 16.8566 59.7254C16.807 59.9573 17.0275 60.0992 17.2025 60.0646C17.2719 60.0976 17.3561 60.0992 17.4428 60.0431C18.5319 59.3408 19.6202 58.6335 20.6268 57.8157C21.1172 57.4163 21.5871 56.9904 22.0189 56.5274C22.4334 56.0834 22.8801 55.5916 23.0411 54.9908C23.1906 54.4353 23.0544 53.7842 22.5639 53.4417H22.5631Z" fill="#40856B"/>
<path d="M25.0632 63.6539C25.0632 63.6539 25.0632 63.649 25.0623 63.6457C25.0623 63.6432 25.0632 63.6407 25.0632 63.6382C25.0632 62.6504 21.5448 61.8499 17.204 61.8499C12.8633 61.8499 9.34492 62.6504 9.34492 63.6382C9.34492 63.6399 9.34492 63.6424 9.34492 63.644C9.34492 63.6473 9.3441 63.6506 9.3441 63.6539C9.32428 66.1273 9.30859 68.6824 10.164 71.0402C10.9088 73.091 12.2869 74.9091 14.3529 75.7468C15.2537 76.1124 19.1519 76.1124 20.0527 75.7468C22.1187 74.9091 23.4968 73.0902 24.2416 71.0402C25.097 68.6832 25.0821 66.1281 25.0615 63.6539H25.0632Z" fill="#F0D2C2"/>
<path d="M18.1151 68.2728C17.5949 67.9213 16.7775 67.9964 16.3696 68.4924C15.9377 69.0181 16.0781 69.8037 16.6313 70.1817C16.9211 70.3798 17.2795 70.4409 17.6106 70.5366C17.8946 70.6183 18.1589 70.738 18.2935 71.0177C18.5478 71.5443 18.1977 72.0725 17.6775 72.2284C17.3794 72.3176 17.012 72.3258 16.7263 72.1847C16.5223 72.0832 16.3349 71.81 16.3696 71.5583C16.3894 71.4106 16.3341 71.262 16.1763 71.2183C16.0475 71.1828 15.8568 71.262 15.8361 71.4114C15.7428 72.0931 16.1929 72.6683 16.8567 72.8012C17.528 72.9357 18.3075 72.7269 18.7047 72.1393C19.068 71.602 18.9755 70.8023 18.4867 70.3715C18.2134 70.1306 17.8682 70.0332 17.5231 69.9424C17.2209 69.8632 16.8526 69.7798 16.7131 69.4637C16.5942 69.193 16.6858 68.8794 16.9376 68.7251C17.2118 68.5567 17.5718 68.5741 17.8344 68.7515C18.13 68.9512 18.4066 68.4726 18.1135 68.2745L18.1151 68.2728Z" fill="#2D2745"/>
<path d="M17.1202 67.7748V73.1945C17.1202 73.5502 17.6726 73.5502 17.6726 73.1945V67.7748C17.6726 67.4191 17.1202 67.4191 17.1202 67.7748Z" fill="#2D2745"/>
<path d="M11.3754 65.2704C14.3487 65.9132 17.4245 66.0874 20.4524 65.7928C21.3177 65.7086 22.1798 65.5864 23.0344 65.4272C23.3837 65.362 23.2359 64.8296 22.8874 64.8948C19.9636 65.4412 16.9505 65.5237 13.9995 65.1598C13.168 65.0574 12.3414 64.9147 11.5232 64.7372C11.1764 64.6621 11.0286 65.1944 11.3762 65.2695L11.3754 65.2704Z" fill="#2D2745"/>
<path d="M9.64468 63.726C13.4719 64.7741 17.5063 65.0696 21.4457 64.5926C22.5613 64.4572 23.6686 64.2641 24.7626 64.0091C25.1086 63.9282 24.9624 63.3959 24.6156 63.4768C20.8232 64.3615 16.8531 64.5034 13.0078 63.8894C11.9236 63.7161 10.8502 63.4834 9.79166 63.1937C9.44817 63.0996 9.30119 63.6328 9.64468 63.726Z" fill="#2D2745"/>
<path d="M18.2561 64.2994C17.3949 62.4384 17.1034 60.3166 17.4353 58.293C17.4593 58.1461 17.3973 57.9959 17.2421 57.953C17.11 57.9167 16.9267 57.9975 16.9019 58.1461C16.5444 60.329 16.8491 62.5704 17.7788 64.5783C17.8416 64.7137 18.0373 64.7475 18.157 64.6774C18.2957 64.5965 18.3188 64.4356 18.2561 64.2994Z" fill="#2D2745"/>
<path d="M72.9263 70.5262L80.9034 75.0289C81.5194 75.3772 82.2824 74.9316 82.2824 74.2243V44.7279C82.2824 44.5785 82.2023 44.4407 82.0718 44.3672L73.3342 39.4345C73.0575 39.2785 72.7157 39.4783 72.7157 39.7952V70.1647C72.7157 70.3141 72.7958 70.4519 72.9263 70.5254V70.5262Z" fill="#2D2745"/>
<path d="M72.748 39.8542H67.9094L76.6982 44.8695H81.5369L72.748 39.8542Z" fill="#F5E3D9"/>
<path d="M77.1757 45.3127C77.1757 45.3127 77.1688 45.3109 77.1653 45.3101C77.1688 45.3118 77.1731 45.3127 77.1784 45.3144C77.1775 45.3144 77.1775 45.3144 77.1757 45.3135V45.3127Z" fill="#944B32"/>
<path d="M82.1355 44.5857C81.9142 44.159 81.3924 44.008 80.9473 43.9576C80.7376 43.9345 80.7136 44.1673 80.5411 44.2019C80.3685 44.2366 77.746 44.4586 77.4207 44.4916C77.1094 44.523 76.9385 44.4115 76.9385 44.4115C76.9385 44.4115 76.9376 44.4132 76.9368 44.4132C76.9178 44.3967 76.8988 44.3802 76.8757 44.367L68.138 39.4343C67.8614 39.2783 67.5196 39.478 67.5196 39.7949V70.1645C67.5196 70.3139 67.5997 70.4517 67.7301 70.5251L77.0805 75.8036C77.3274 75.958 77.637 76.0289 77.9169 76.0611C78.9598 76.1791 80.7566 76.1065 81.65 75.7822C82.1405 75.6039 82.2792 74.9742 82.2792 74.6903L82.2808 45.25C82.2808 45.0346 82.2321 44.7738 82.1355 44.584V44.5857Z" fill="#2D2745"/>
<path d="M76.654 45.2988V74.229C76.654 74.5847 77.2064 74.5847 77.2064 74.229V45.2988C77.2064 44.9431 76.654 44.9431 76.654 45.2988Z" fill="#645A8C"/>
<path d="M77.022 46.0968C78.713 46.1554 80.4767 46.0597 82.1001 45.5472C82.4378 45.4407 82.2933 44.9067 81.9531 45.0149C80.3727 45.5142 78.6676 45.6025 77.022 45.5455C76.6661 45.5331 76.6669 46.0852 77.022 46.0976V46.0968Z" fill="#645A8C"/>
<path d="M77.7913 67.7856V72.8239C77.7913 73.1796 78.3437 73.1796 78.3437 72.8239V67.7856C78.3437 67.4299 77.7913 67.4299 77.7913 67.7856Z" fill="#645A8C"/>
<path d="M81.0809 67.4877V72.5104C81.0809 72.8661 81.6333 72.8661 81.6333 72.5104V67.4877C81.6333 67.132 81.0809 67.132 81.0809 67.4877Z" fill="#645A8C"/>
<path d="M78.0682 68.056C79.1854 68.1155 80.3513 68.0734 81.4313 67.7548C81.7715 67.6541 81.627 67.121 81.2843 67.2225C80.2489 67.5287 79.1399 67.5609 78.0682 67.5039C77.7131 67.4849 77.7139 68.0379 78.0682 68.056Z" fill="#645A8C"/>
<path d="M78.0682 73.078C79.1854 73.1374 80.3513 73.0953 81.4313 72.7768C81.7715 72.6761 81.627 72.143 81.2843 72.2445C80.2489 72.5507 79.1399 72.5828 78.0682 72.5259C77.7131 72.5069 77.7139 73.0599 78.0682 73.078Z" fill="#645A8C"/>
<path d="M52.4211 85.1521L50.7812 92.3585L54.2534 92.087C54.2534 92.087 53.5631 85.6943 52.4211 85.1521Z" fill="white"/>
<path d="M63.5294 30.0472C63.4163 29.2112 63.1876 28.4742 62.2908 28.1763C61.7211 27.9873 61.1497 28.0657 60.6254 28.3677C60.7451 27.7801 60.5494 27.1711 60.1737 26.7031C59.7369 26.1601 59.0797 25.8622 58.4051 25.7425C57.2953 25.5461 56.1104 25.7598 55.0601 26.1651C54.1485 24.6465 51.6805 24.8364 50.2817 25.485C48.3471 26.3813 47.1737 28.3991 47.0672 30.4928C47.0317 31.1985 47.1019 31.9032 47.0986 32.608C47.0953 33.2881 46.9979 33.9582 46.8988 34.63C46.8501 34.9584 46.803 35.2902 46.7683 35.622C46.8195 35.9999 46.9153 36.3763 47.0053 36.7452C47.1828 37.4714 47.3125 38.2233 47.5825 38.9231C47.8698 39.665 48.3322 40.3129 48.8169 40.9368C49.1323 41.3428 49.4139 41.7546 49.6814 42.1813C49.9696 42.1582 50.2701 42.0682 50.5757 41.9255C51.9587 41.2809 53.3501 41.0573 54.871 41.0251C56.1286 40.9987 57.5703 41.1844 58.3811 42.2003C59.2415 41.243 60.073 40.251 60.6625 39.0989C61.1068 38.2307 61.2306 37.1958 61.7351 36.3705C61.9556 35.7317 62.2545 35.1144 62.3396 34.4369C62.3941 34.0036 62.3255 33.6009 62.181 33.222C62.3321 33.0974 62.451 32.9852 62.5113 32.9348C63.3246 32.2622 63.6714 31.0986 63.5294 30.0464V30.0472Z" fill="#212333"/>
<path d="M67.9011 99.0046C67.4783 97.6726 67.0564 96.3398 66.6336 95.0078L66.0738 93.24C65.9855 92.9636 65.9326 92.6161 65.7724 92.3768C65.5933 92.1102 65.0978 92.1507 64.7915 92.1201C63.543 91.9988 62.2846 91.9295 61.0213 91.9023C58.7737 91.8536 56.5137 91.9377 54.2529 92.0871C53.9705 92.1053 53.6882 92.1251 53.4058 92.1457C52.5305 92.2093 51.6561 92.2811 50.7808 92.3586C46.8133 92.7053 42.8441 93.1509 38.8782 93.349C38.1408 95.7357 37.4828 98.1381 36.9056 100.553H68.3883C68.2347 100.033 68.0638 99.5188 67.9011 99.0046Z" fill="#803921"/>
<path d="M59.9176 73.3132C59.8846 73.4683 60.1232 73.5352 60.1562 73.3792C60.1992 73.1795 60.2446 72.9797 60.2884 72.78C60.1934 72.8287 60.0976 72.8782 60.0027 72.9269C59.9746 73.0557 59.9449 73.1844 59.9176 73.3132Z" fill="#DDDFE8"/>
<path d="M61.1158 72.8317C61.2166 72.7615 61.3165 72.6906 61.4164 72.6188C61.4502 72.4661 61.4849 72.3126 61.5188 72.1599C61.4238 72.207 61.328 72.254 61.2331 72.301C61.1934 72.4776 61.1538 72.6551 61.115 72.8317H61.1158Z" fill="#DDDFE8"/>
<path d="M71.5765 49.5992C70.8251 49.1857 70.0027 48.8804 69.2034 48.5734C68.3108 48.2309 67.4116 47.9065 66.5314 47.5327C64.8693 46.8262 63.34 45.8508 61.6837 45.1352C60.1421 44.4692 58.4072 44.0318 56.7327 44.404C55.864 44.5972 55.0648 45.004 54.2168 45.2623C53.3019 45.5405 52.349 45.5759 51.4003 45.5165C51.3433 45.5132 51.2863 45.5083 51.2285 45.5041C51.2128 45.4414 51.1963 45.3787 51.1781 45.316C51.1641 45.2681 51.0939 45.2846 51.098 45.3292C50.596 44.9694 50.0164 44.754 49.4276 44.5773C48.7621 44.3785 48.0735 44.1639 47.3708 44.1919C46.6962 44.2192 46.0488 44.4412 45.4295 44.6945C44.7673 44.9652 44.1125 45.2574 43.4594 45.5495C42.1094 46.1536 40.7725 46.7866 39.4497 47.4485C38.7842 47.7811 38.1212 48.1211 37.4631 48.4694C36.8446 48.7962 36.2163 49.1263 35.6473 49.5365C35.2345 49.8344 34.8175 50.2198 34.6903 50.7323C34.5392 51.3414 34.8844 51.9834 35.1049 52.5331C35.2353 52.8574 35.3707 53.1809 35.5111 53.5011C35.592 53.6852 35.6713 54.0763 35.9215 54.0904C36.0519 54.0978 36.1915 54.0277 36.3137 53.9889C36.5011 53.9295 36.6886 53.8692 36.876 53.809C37.2253 53.6967 37.5746 53.5828 37.923 53.4665C39.2854 53.0101 40.6198 52.4968 41.9178 51.8803C42.6023 51.5551 43.2843 51.2225 43.9928 50.9518C44.6468 50.7018 45.3172 50.4963 45.9919 50.3114C47.3708 49.9343 48.772 49.6438 50.141 49.2328C50.2352 49.2047 50.331 49.1766 50.4267 49.1486C52.0757 49.7477 53.7618 50.2421 55.4619 50.6737C58.9406 51.5576 62.4755 52.1873 65.979 52.9614C66.4224 53.0596 66.8658 53.1595 67.3076 53.2634C67.7221 53.36 68.1374 53.4747 68.5627 53.5135C69.4189 53.5919 70.1257 53.1883 70.8135 52.7287C71.1628 52.4959 71.5022 52.2475 71.8308 51.9859C72.0951 51.7755 72.4063 51.5568 72.5178 51.2217C72.754 50.5111 72.1363 49.9095 71.5748 49.6L71.5765 49.5992Z" fill="#C8752C"/>
<path d="M95.7203 78.3425C95.3404 76.956 94.6469 75.6802 93.8583 74.4934C93.0508 73.2769 92.1515 72.1207 91.2309 70.9925C89.3128 68.6413 87.2262 66.4362 85.0537 64.3276C82.8838 62.2206 80.6271 60.2069 78.3481 58.2221C77.193 57.2153 76.0378 56.2076 74.8686 55.2181C73.7076 54.236 72.5128 53.2878 71.2115 52.5021C68.6741 50.9695 65.8312 50.0502 62.9693 49.3718C61.8141 49.0978 60.649 48.8494 59.479 48.6398C59.1454 48.5787 58.8118 48.5218 58.4774 48.4681C58.3692 48.4508 58.2602 48.4334 58.1513 48.4178C56.7046 48.1991 55.2398 48.0703 53.7766 48.1529C53.0285 48.1949 51.9782 48.1223 51.2467 48.2865C51.2277 48.2907 50.3656 48.5341 49.1163 48.8882C48.9966 48.922 48.8736 48.9575 48.7464 48.993C46.6227 49.5954 43.6088 50.4521 41.6139 51.0248C39.9336 51.5068 38.2442 52.0036 36.6365 52.7018C35.0545 53.3884 33.6293 54.3227 32.3321 55.4665C31.0531 56.5938 29.888 57.8541 28.7295 59.1068C27.5488 60.3844 26.3928 61.685 25.2665 63.0112C23.0354 65.6373 20.9158 68.3615 18.9382 71.189C17.94 72.6159 16.9788 74.0684 16.0573 75.5473C15.5933 76.2917 15.14 77.0427 14.6974 77.8011C14.2589 78.5505 13.8246 79.304 13.4745 80.1004C12.8511 81.5157 12.4812 83.1523 13.1236 84.6312C13.6372 85.813 14.7015 86.6539 15.8666 87.1136C18.9011 88.3103 22.0363 86.7678 24.6802 85.2955C27.7164 83.6045 30.6799 81.7798 33.5616 79.8322C33.6078 81.8112 33.6532 83.791 33.6987 85.7701C33.7243 86.8726 33.7168 87.9843 33.8473 89.0811C33.9604 90.0285 34.1875 90.9875 34.7019 91.7987C35.2452 92.6546 36.0734 93.1959 36.9602 93.6309C37.4152 93.8545 37.8809 94.0551 38.335 94.282C38.8371 94.5329 39.3069 94.8449 39.8089 95.0949C40.8741 95.6264 42.0557 95.5356 43.2108 95.5414C44.5113 95.548 51.2946 85.071 52.595 85.0661C57.7153 85.0488 57.3528 95.4242 62.4697 95.2377C63.7298 95.1923 64.9923 95.1552 66.2507 95.0834C66.8154 95.0512 67.3877 94.9893 67.9161 94.7722C68.3496 94.5948 68.7385 94.3225 69.0828 94.0047C69.8318 93.3156 70.4205 92.4276 70.8961 91.5281C71.3874 90.598 71.7581 89.6051 72.0471 88.5917C72.6367 86.5235 72.8918 84.3778 73.1585 82.2477C73.3625 80.6228 73.5656 78.9978 73.7696 77.3728C75.3665 78.411 76.9841 79.4162 78.6215 80.3867C79.9855 81.1947 81.3628 81.9787 82.7525 82.7396C84.105 83.4791 85.4608 84.2326 86.8612 84.8738C89.1575 85.926 92.1482 86.7406 94.2472 84.821C95.9985 83.2191 96.3255 80.5477 95.7203 78.3425Z" fill="#D4B9B4"/>
<path d="M56.4932 49.0804C56.5073 48.9244 56.5221 48.7685 56.5362 48.6125C56.665 47.1724 56.7773 45.7306 56.8747 44.288C56.8995 43.9208 56.9234 43.5527 56.9457 43.1854C56.9573 42.9948 56.9689 42.8041 56.9804 42.6135C56.987 42.5062 57.0522 42.2322 56.968 42.1571C56.921 42.115 56.7112 42.134 56.6394 42.1282C56.5576 42.1208 56.4751 42.1134 56.3933 42.1068C56.2158 42.0911 56.0374 42.0754 55.8599 42.0597C55.4908 42.0267 55.1209 41.9945 54.7518 41.9615C53.4901 41.8501 52.2276 41.7379 50.9659 41.6265L50.8413 43.5816C50.719 45.4896 50.5968 47.3985 50.4755 49.3065C52.4836 49.2884 54.4909 49.2092 56.4949 49.0804H56.4932Z" fill="#FFA47A"/>
<path d="M60.1892 38.1312C60.0587 38.8005 59.9076 39.4657 59.7111 40.1151C59.3206 41.4034 58.731 42.6537 57.7765 43.5599C57.2389 44.0699 56.6089 44.4669 55.9706 44.8102C55.315 45.1642 54.6082 45.4366 53.8659 45.4242C52.3714 45.3986 51.1064 44.3885 50.0941 43.29C49.5838 42.7371 49.0974 42.1486 48.7506 41.4587C48.4104 40.782 48.1991 40.0376 48.0653 39.2833C47.7697 37.6269 47.8168 35.9211 47.9208 34.2466C47.9381 33.9668 48.7366 33.758 48.7564 33.4782C48.9216 32.034 49.5425 31.3218 50.6556 30.7961C51.3987 30.4453 52.1146 30.3752 52.7405 30.3009C53.51 30.2101 54.3919 30.1961 55.1615 30.2547C56.5553 30.3595 57.5453 30.4305 58.7153 31.3308C59.9167 32.2552 60.5864 34.15 60.5253 35.6883C60.4922 36.512 60.3461 37.3257 60.1892 38.1295V38.1312Z" fill="#FFA47A"/>
<path d="M58.6321 55.1182C58.7997 52.9453 59.0829 50.7822 59.4793 48.6398C59.1457 48.5787 58.8121 48.5218 58.4777 48.4681C58.3695 48.4508 58.2605 48.4334 58.1515 48.4178C56.7049 48.1991 55.2401 48.0703 53.7769 48.1529C53.0288 48.1949 51.9785 48.1223 51.2469 48.2865C51.2279 48.2907 50.3659 48.5341 49.1166 48.8882C48.9969 48.922 48.8738 48.9575 48.7467 48.993C48.409 51.0257 48.0423 53.055 47.7244 55.091C47.3801 57.2929 47.0911 59.5013 46.9516 61.7287C46.7988 64.1666 46.8252 66.6219 47.153 69.0449C47.3141 70.23 47.5461 71.4052 47.8648 72.5581C48.1976 73.7671 48.6286 74.9465 49.077 76.1167C50.1058 78.8063 51.1817 81.4778 52.2939 84.1343C52.3088 84.1715 52.3592 84.1748 52.3732 84.1343C53.9016 79.7174 56.2953 75.6414 57.633 71.1543C57.9616 70.0509 58.2225 68.9269 58.3811 67.7863C58.5545 66.5418 58.5842 65.289 58.5545 64.0338C58.5231 62.7034 58.4537 61.3747 58.4496 60.0443C58.4455 58.7313 58.4834 57.4191 58.5635 56.1094C58.5842 55.7785 58.6065 55.4484 58.6321 55.1182Z" fill="#FFA47A"/>
<path d="M51.577 37.1336C51.9158 37.1336 52.1905 36.7031 52.1905 36.1721C52.1905 35.6412 51.9158 35.2107 51.577 35.2107C51.2382 35.2107 50.9635 35.6412 50.9635 36.1721C50.9635 36.7031 51.2382 37.1336 51.577 37.1336Z" fill="#212333"/>
<path d="M58.4496 60.0442C58.4455 58.7311 58.4834 57.4189 58.5635 56.1092C58.5842 55.7783 58.6065 55.4482 58.6321 55.1181C55.4126 56.2305 51.8629 56.3089 48.5898 55.3673C48.2983 55.2831 48.0101 55.1915 47.7244 55.0908C47.3801 57.2927 47.0911 59.5011 46.9516 61.7286C46.7988 64.1665 46.8252 66.6217 47.153 69.0447C47.3141 70.2298 47.5461 71.405 47.8648 72.5579C48.1976 73.767 48.6286 74.9463 49.077 76.1165C50.1058 78.8061 51.1817 81.4776 52.2939 84.1342C52.3088 84.1713 52.3592 84.1746 52.3732 84.1342C53.9016 79.7173 56.2953 75.6412 57.633 71.1541C57.9616 70.0507 58.2225 68.9267 58.3811 67.7861C58.5545 66.5416 58.5842 65.2888 58.5545 64.0336C58.5231 62.7032 58.4537 61.3745 58.4496 60.0442Z" fill="white"/>
<path d="M61.5358 56.3272C56.6187 58.2394 51.0814 58.8906 46.0999 56.8257C45.9034 56.744 45.8184 57.0634 46.0124 57.1443C51.041 59.2289 56.6599 58.5761 61.6241 56.6458C61.8198 56.5699 61.7348 56.2505 61.5366 56.3272H61.5358Z" fill="#DDDFE8"/>
<path d="M56.0499 37.1846C56.3887 37.1846 56.6634 36.7542 56.6634 36.2232C56.6634 35.6922 56.3887 35.2617 56.0499 35.2617C55.7111 35.2617 55.4364 35.6922 55.4364 36.2232C55.4364 36.7542 55.7111 37.1846 56.0499 37.1846Z" fill="#212333"/>
<path d="M53.9691 38.439C53.6619 38.2888 53.3242 38.118 53.0691 37.8836C52.7124 37.556 52.8577 37.1863 53.0063 36.7984C53.2705 36.1084 53.3498 35.9673 53.7338 35.3376C53.8444 35.1561 53.5595 34.9894 53.4489 35.1709C52.9849 35.9318 52.6934 36.3296 52.5266 37.2185C52.3771 38.0181 53.1946 38.4275 53.8023 38.7238C53.9922 38.817 54.1598 38.5323 53.9691 38.439Z" fill="#B9643C"/>
<path d="M55.0657 38.0761C54.8841 37.9465 54.6967 37.8268 54.5034 37.7162C54.3185 37.6106 54.1525 37.8953 54.3366 38.001C54.5299 38.1115 54.7173 38.232 54.899 38.3608C55.0724 38.4846 55.2375 38.1982 55.0657 38.0761Z" fill="#B9643C"/>
<path d="M62.4087 49.265C62.393 49.0323 62.2766 48.8879 62.1123 48.7336C61.8852 48.5198 61.654 48.3094 61.4236 48.0989C60.9967 47.7094 60.5649 47.3256 60.1206 46.9567C59.124 46.1306 58.058 45.3821 56.8739 44.849C56.8525 44.8391 56.8178 44.8448 56.8137 44.8737C56.7179 45.4754 56.6337 47.6921 56.6006 48.1724C56.5338 49.1429 56.4999 50.0986 56.6295 51.0658C56.8839 52.9648 57.5015 54.8085 57.9573 56.6645C58.2223 57.7448 58.4667 58.8301 58.6773 59.9219C58.6856 59.964 58.745 59.9582 58.7566 59.9219C59.5352 57.4873 60.7218 55.2087 61.5566 52.794C61.7613 52.2014 61.9554 51.6047 62.1263 51.0023C62.2815 50.4535 62.4483 49.8419 62.4095 49.2659L62.4087 49.265Z" fill="#D4B9B4"/>
<path d="M55.7394 39.8166C54.5008 39.7679 53.2622 39.7506 52.0228 39.7688C51.9667 39.7688 51.9114 39.7696 51.8552 39.7704C51.9105 40.3415 52.008 40.9217 52.4035 41.3649C52.7767 41.7833 53.3283 42.0284 53.889 42.0185C55.0895 41.9978 55.9516 40.9687 55.9838 39.8265C55.902 39.8232 55.8211 39.8199 55.7394 39.8166Z" fill="#B9643C"/>
<path d="M50.5831 48.1549C50.5269 49.165 50.5649 50.2445 50.2355 51.2117C50.0736 51.6879 49.8441 52.1377 49.6277 52.5907C49.404 53.0587 49.1802 53.5274 48.9564 53.9954C48.5163 54.9156 48.068 55.8333 47.6444 56.7609C47.2935 57.5301 46.9681 58.3124 46.708 59.1171C46.5949 58.7845 46.4223 58.4742 46.1936 58.2027C46.0367 58.017 45.8485 57.8709 45.6734 57.7034C45.4422 57.4814 45.3324 57.214 45.2515 56.9086C44.9427 55.7499 44.7783 54.5458 44.7395 53.3484C44.7032 52.2136 44.7684 51.083 45.4728 50.1413C45.822 49.6742 46.2316 49.2467 46.6304 48.8225C47.0259 48.4016 47.4322 47.9906 47.8492 47.5912C48.769 46.709 49.7392 45.8804 50.7532 45.1079C50.6962 46.1238 50.6392 47.1389 50.5831 48.1549Z" fill="#D4B9B4"/>
<path d="M73.4427 67.2032C73.1133 67.0373 72.7227 66.9424 72.3627 66.8442C72.2265 66.8071 72.0886 66.7716 71.9507 66.7377C71.8326 66.708 71.7145 66.68 71.5956 66.6527C70.3777 66.3738 69.1185 66.1997 67.8774 66.009C66.368 65.7763 64.8512 65.5708 63.3286 65.3934C61.7408 65.2085 60.1463 65.0533 58.5453 64.9279C59.2562 64.5417 59.9539 64.1331 60.636 63.699C63.72 61.7382 66.5026 59.3019 68.8477 56.4993C70.1655 54.9246 71.3429 53.2345 72.3602 51.4519C72.371 51.4329 72.3652 51.4056 72.3454 51.3957C70.1787 50.2552 68.0071 49.1147 65.7488 48.1623C64.6448 47.6968 63.5202 47.2776 62.3724 46.9301C62.0801 46.8418 61.7862 46.7576 61.4914 46.6792C61.3378 46.638 61.0975 46.5332 60.9415 46.6306C60.7829 46.7304 60.8201 46.9953 60.8102 47.1513C60.7904 47.4723 60.7615 47.7917 60.7251 48.1111C60.579 49.4134 60.3139 50.6992 60.034 51.9784C59.7624 53.2213 59.4998 54.4707 59.1332 55.6897C58.5221 57.7215 57.5891 59.6543 56.3918 61.4056C55.6553 62.4826 54.8188 63.4902 53.8957 64.4104C53.5877 64.2041 53.2723 64.0102 52.9469 63.8319C52.2963 63.477 51.5961 63.1379 50.8785 62.9423C50.8769 62.9423 50.8761 62.9414 50.8744 62.9414C50.7423 62.9051 50.611 62.882 50.4805 62.8696C49.9372 62.8185 49.4137 62.9703 48.9422 63.2856C48.8316 63.3599 48.7267 63.4416 48.626 63.5274C48.5649 63.2592 48.5071 62.9893 48.4526 62.7194C47.9068 60.0043 47.6236 57.2429 47.4733 54.4798C47.3222 51.706 47.304 48.9265 47.2883 46.1494C46.4024 46.6314 45.5114 47.1051 44.6163 47.5706C41.4753 49.2013 38.2782 50.7248 35.034 52.1401C35.3833 53.3294 35.8291 54.4905 36.3592 55.6121C37.7274 58.5047 39.6381 61.1143 41.8709 63.3995C42.9129 64.4657 44.0251 65.4635 45.1869 66.3977C43.3505 66.8384 41.5356 67.3724 39.7529 67.9955C38.4136 68.4634 37.0908 68.9825 35.7912 69.552C35.1628 69.8268 34.5394 70.1131 33.9209 70.4111C33.6055 70.5637 33.2876 70.7148 32.9788 70.8815C32.8277 70.964 32.6757 71.0498 32.5337 71.148C32.3364 71.2842 32.2422 71.4394 32.2406 71.6812C32.2299 72.9975 32.5073 74.3353 32.9689 75.5633C32.9912 75.6227 33.0143 75.6822 33.0374 75.7407C33.2562 76.2962 33.5196 76.8334 33.8243 77.3467C33.9853 77.6183 34.2421 78.2232 34.6145 78.1341C34.9572 78.0524 35.299 77.8906 35.6202 77.7495C36.1446 77.5184 36.659 77.2609 37.166 76.9894C37.9116 76.59 38.6432 76.16 39.3739 75.7407C40.605 75.0343 41.8246 74.3064 43.031 73.5579C45.2497 72.1805 47.4246 70.7313 49.5516 69.2161C49.578 69.2301 49.6045 69.2449 49.6309 69.259C50.194 69.5478 50.7836 69.8235 51.3888 70.0199C51.4425 70.0364 51.4953 70.0537 51.549 70.0694C51.6027 70.0851 51.6555 70.0999 51.7092 70.1123C52.2732 70.2485 52.8305 70.2105 53.3284 69.8689C53.6034 69.6807 53.8428 69.4397 54.0592 69.1781C56.4166 70.4878 58.8863 71.6176 61.4452 72.5601C62.8489 73.0767 64.279 73.5372 65.7322 73.9383C66.4349 74.1323 67.1426 74.3122 67.8551 74.4789C68.2193 74.5639 68.5834 74.6514 68.9542 74.7182C69.0351 74.7323 69.1168 74.7463 69.1994 74.7587C69.3018 74.7735 69.4042 74.7859 69.5082 74.7925C69.7683 74.809 69.964 74.738 70.1572 74.5268C71.2084 73.3763 72.0547 72.0063 72.6723 70.605C72.8994 70.0892 73.0959 69.5635 73.2594 69.0304C73.3197 68.8356 73.375 68.6392 73.4262 68.4428C73.5179 68.092 73.7994 67.3815 73.4411 67.2015L73.4427 67.2032Z" fill="#C8752C"/>
<path d="M28.3876 79.3761C28.3331 78.4716 28.291 77.4358 27.7287 76.6782C27.5479 76.4356 27.3043 76.2318 27.0318 76.108C26.6743 75.9446 26.2672 75.9165 25.8874 76.1146C25.4762 76.3283 25.3308 76.7509 25.2351 77.1775C25.1591 77.5167 25.1145 77.8625 25.0955 78.2091C25.0839 78.4163 25.0823 78.6226 25.0881 78.8297C25.1013 79.2787 25.1517 79.7243 25.2243 80.1659C25.2763 80.6825 25.3721 81.1942 25.5141 81.6935C25.5686 81.8849 25.6314 82.1069 25.7123 82.3298C25.8956 82.8357 26.1739 83.3424 26.6743 83.4885C27.4876 83.7253 28.021 82.8794 28.2233 82.2266C28.2993 81.9848 28.3505 81.738 28.3835 81.4888C28.4768 80.7914 28.4306 80.0751 28.3876 79.3769V79.3761Z" fill="#212333"/>
<path d="M36.8644 74.5113C37.0106 74.097 37.2277 73.7199 37.2351 73.2685C37.2409 72.8946 37.1187 72.5282 36.9495 72.1989C36.5259 71.3769 35.8017 70.687 35.1213 70.0787C35.0635 70.0267 34.9917 70.0424 34.9471 70.0845C34.872 70.1027 34.8133 70.1794 34.8703 70.2595C35.1758 70.687 34.1701 70.9015 33.9232 71.0905C33.7085 71.2564 33.5434 71.4776 33.422 71.7186C33.1256 72.3054 33.0637 72.9862 33.0207 73.6316C32.9728 74.3347 32.9794 75.0412 33.0389 75.7427C33.2577 76.2981 33.5211 76.8353 33.8258 77.3487C33.9868 77.6202 34.2436 78.2251 34.616 78.136C34.9587 78.0543 35.3005 77.8925 35.6217 77.7514C36.146 77.5203 36.6605 77.2628 37.1674 76.9913C36.9594 76.1495 36.596 75.2747 36.8644 74.5113Z" fill="#212333"/>
<path d="M71.9506 66.738C71.911 66.7223 71.8705 66.7082 71.8284 66.695C71.8235 66.6942 71.8193 66.6934 71.8144 66.6926C71.7896 66.61 71.6847 66.5523 71.6121 66.6348C71.6071 66.6406 71.6013 66.6472 71.5956 66.653C70.4396 67.9676 69.2299 69.2864 68.1945 70.7001C68.0665 70.8743 67.9377 71.093 68.0524 71.3075C68.1664 71.5221 68.481 71.5617 68.6717 71.6806C69.6064 72.2591 69.1845 73.2296 69.125 74.1061C69.111 74.3174 69.1325 74.5484 69.201 74.7605C69.3034 74.7754 69.4058 74.7878 69.5098 74.7944C69.7699 74.8109 69.9656 74.7399 70.1588 74.5286C71.21 73.3782 72.0563 72.0082 72.6739 70.6069C72.901 70.0911 73.0975 69.5654 73.261 69.0322C73.1941 68.0609 72.8506 67.0879 71.9506 66.738Z" fill="#212333"/>
<path d="M84.2867 72.4197C84.2694 72.2448 84.2372 72.0723 84.1843 71.9031C84.0894 71.5986 83.9185 71.3114 83.6914 71.0935C83.3933 70.8055 82.9978 70.6363 82.5519 70.6998C82.1391 70.7584 81.8666 71.0349 81.6445 71.3576C81.6057 71.4137 81.5685 71.4707 81.5322 71.5284C81.3381 71.8387 81.173 72.1664 81.0326 72.5047C80.9484 72.7061 80.8749 72.9116 80.808 73.1187C80.6643 73.5693 80.5578 74.0299 80.4761 74.4945C80.3795 74.8915 80.3085 75.295 80.2647 75.7011C80.2498 75.838 80.2383 75.9759 80.23 76.1137C80.2176 76.3233 80.2019 76.5659 80.2044 76.8152C80.2094 77.3822 80.3093 77.983 80.7552 78.3032C81.481 78.8223 82.3067 78.1678 82.7361 77.5901C82.8962 77.3764 83.0333 77.1486 83.153 76.9126C83.2397 76.7426 83.3182 76.5676 83.3892 76.3893C83.5956 75.8777 83.7467 75.3404 83.8962 74.8147C84.1109 74.0604 84.366 73.2219 84.2867 72.4197Z" fill="#212333"/>
<path d="M36.5622 74.4531C36.3154 74.269 36.0305 74.2468 35.7448 74.2921C35.8794 74.2088 36.0107 74.1205 36.1279 74.0182C36.4739 73.7178 36.5664 73.197 36.1742 72.8842C35.9355 72.6936 35.6003 72.7216 35.3179 72.7588C35.289 72.7629 35.2618 72.7687 35.2329 72.7736C35.3798 72.6903 35.5202 72.5987 35.6482 72.4914C35.9975 72.1968 36.0635 71.7206 35.6457 71.4466C35.384 71.2749 35.0462 71.2559 34.716 71.3071C34.9785 71.1907 35.2122 71.0249 35.3476 70.7591C35.5119 70.4372 35.4418 69.9685 35.0826 69.8092C34.8646 69.711 34.6086 69.7745 34.3824 69.8059C34.0554 69.8505 33.7292 69.9008 33.4039 69.9545C32.7532 70.0634 32.1051 70.1905 31.461 70.3349C30.907 70.4595 30.3265 70.5808 29.8533 70.9134C29.6791 71.0356 29.5264 71.18 29.3843 71.336C28.5743 72.5681 28.0847 73.9843 27.4365 75.3122C27.306 75.5796 27.169 75.8437 27.0302 76.1069C26.8651 76.4181 26.6967 76.7276 26.5282 77.0362C26.3036 77.226 26.0716 77.4076 25.8453 77.5933C25.5952 77.7988 25.345 78.0034 25.0948 78.2081C25.0832 78.4153 25.0816 78.6216 25.0873 78.8287C25.1006 79.2777 25.1509 79.7233 25.2236 80.1649C25.2756 80.6815 25.3714 81.1932 25.5134 81.6925C25.5679 81.8839 25.6307 82.1059 25.7116 82.3287C26.0237 82.1521 26.3375 81.9813 26.6545 81.8138C26.9254 81.7808 27.1962 81.7469 27.4662 81.7106C27.7841 81.7395 28.102 81.7477 28.4199 81.7139C28.9971 81.652 29.5065 81.4284 29.9557 81.0636C30.4446 80.6666 30.8582 80.1731 31.2769 79.7043C31.731 79.1968 32.1744 78.6793 32.6079 78.1545C32.925 77.7707 33.2355 77.3812 33.541 76.9883C33.5839 76.9553 33.6252 76.924 33.6632 76.8976C34.114 76.579 35.9644 76.0417 36.1543 75.8924C36.3484 75.7389 36.5697 75.5895 36.7208 75.3898C36.9611 75.0729 36.8719 74.6858 36.5598 74.4539L36.5622 74.4531Z" fill="#FFA47A"/>
<path d="M84.2866 72.4199C84.2322 72.3976 84.1785 72.3762 84.124 72.3547C83.532 72.1178 82.5031 71.7135 81.6444 71.3578C81.2571 71.1977 80.9037 71.0475 80.642 70.9261C80.002 70.374 77.4844 67.3593 76.2244 66.449C76.0271 66.3483 75.8223 66.2633 75.606 66.208C75.0156 66.057 74.3979 66.1552 73.8051 66.2402C73.1173 66.3384 72.4311 66.4556 71.7499 66.5926C71.4089 66.6611 71.0687 66.7337 70.7301 66.8121C70.4948 66.8657 70.219 66.8996 70.0407 67.077C69.7475 67.3692 69.8541 67.8569 70.1356 68.1119C70.3693 68.3232 70.6616 68.3991 70.9638 68.4156C70.6195 68.4891 70.2942 68.6343 70.1009 68.9009C69.7921 69.3267 70.0349 69.7716 70.4898 69.9308C70.655 69.9886 70.8284 70.0266 71.0043 70.053C70.9754 70.0588 70.9456 70.0629 70.9159 70.0703C70.6228 70.1388 70.2818 70.237 70.1191 70.5143C69.8507 70.9691 70.1356 71.4469 70.5889 71.6144C70.7433 71.6714 70.9052 71.7093 71.0695 71.7399C70.7714 71.8018 70.4989 71.9313 70.3247 72.2045C70.1042 72.5495 70.1612 72.9638 70.5171 73.1866C70.7409 73.3269 71.0142 73.3913 71.2635 73.4697C71.5063 73.5464 71.7499 73.6199 71.9943 73.6917C72.5525 73.8551 73.6251 73.3962 74.1808 73.567C77.2912 74.5244 77.752 75.4924 78.9633 75.7128C79.2663 75.7681 79.8146 75.745 80.2646 75.7012C80.4677 75.6814 80.651 75.6567 80.7823 75.6335C81.3537 75.7854 82.6691 76.2286 83.3891 76.3895C83.5955 75.8778 83.7466 75.3406 83.8961 74.8149C84.1108 74.0606 84.3659 73.2221 84.2866 72.4199Z" fill="#FFA47A"/>
<path d="M33.8605 71.1112C32.9878 71.2325 32.1166 71.3646 31.2472 71.5065C31.0383 71.5404 31.1266 71.8589 31.3347 71.8251C32.2042 71.6831 33.0753 71.5511 33.9481 71.4298C34.1578 71.4009 34.0686 71.0823 33.8605 71.1112Z" fill="#B9643C"/>
<path d="M34.6657 72.5091C33.6584 72.6841 32.6452 72.8211 31.6279 72.9209C31.4182 72.9416 31.4166 73.2717 31.6279 73.2511C32.6238 73.1537 33.6154 73.02 34.6022 72.8525C34.6245 72.8566 34.65 72.8557 34.6765 72.8483C34.7021 72.8409 34.7277 72.8343 34.7541 72.8269C34.9622 72.7699 34.8722 72.4728 34.6666 72.5083L34.6657 72.5091Z" fill="#B9643C"/>
<path d="M35.1567 74.3746C34.2674 74.5397 33.3748 74.6816 32.4781 74.7996C32.27 74.8269 32.2675 75.157 32.4781 75.1297C33.4045 75.0084 34.326 74.8632 35.2451 74.6932C35.454 74.6544 35.3656 74.3358 35.1575 74.3746H35.1567Z" fill="#B9643C"/>
<path d="M74.3014 67.6057C73.2709 67.7716 72.2396 67.9383 71.2091 68.1041C71.0002 68.138 71.0885 68.4557 71.2966 68.4227C72.3271 68.2568 73.3584 68.0901 74.3889 67.9242C74.5978 67.8904 74.5095 67.5727 74.3014 67.6057Z" fill="#B9643C"/>
<path d="M74.3659 69.2951C73.3197 69.4643 72.2727 69.6327 71.2265 69.8019C71.0176 69.8357 71.106 70.1534 71.3141 70.1204C72.3602 69.9512 73.4072 69.7829 74.4534 69.6137C74.6623 69.5798 74.574 69.2621 74.3659 69.2951Z" fill="#B9643C"/>
<path d="M74.28 71.1073C73.8176 71.1857 73.3552 71.2641 72.8928 71.3425C72.4114 71.4242 71.902 71.5695 71.414 71.5299C71.2018 71.5126 71.2034 71.8435 71.414 71.86C71.8838 71.898 72.3652 71.7651 72.8259 71.6867C73.3395 71.5992 73.8531 71.5126 74.3675 71.4251C74.5764 71.3896 74.4881 71.071 74.28 71.1065V71.1073Z" fill="#B9643C"/>
<path d="M24.7837 76.3965C22.4841 76.2644 20.1861 76.1142 17.889 75.9459C17.6768 75.9302 17.6776 76.2603 17.889 76.276C20.1861 76.4435 22.4841 76.5937 24.7837 76.7266C24.9959 76.739 24.9951 76.4088 24.7837 76.3965Z" fill="#212333"/>
<path d="M32.7872 62.5676C32.7699 62.3572 32.4388 62.3555 32.457 62.5676C32.632 64.6473 32.8079 66.7271 32.9829 68.8059C32.9639 68.8307 32.9516 68.8612 32.9491 68.8992C32.9417 69.0312 32.9639 69.0709 33.0515 69.1666C33.144 69.2673 33.3454 69.193 33.333 69.0502C33.1506 66.8896 32.9689 64.7282 32.7864 62.5676H32.7872Z" fill="#212333"/>
<path d="M74.2824 58.348C73.8101 60.5828 73.3386 62.8169 72.8663 65.0517C72.8225 65.2589 73.1404 65.3472 73.185 65.1392C73.6573 62.9043 74.1288 60.6703 74.6011 58.4354C74.6449 58.2283 74.327 58.14 74.2824 58.348Z" fill="#212333"/>
<path d="M52.3234 33.1888C52.0344 33.0865 51.6917 33.0691 51.3912 33.1079C51.3846 33.1087 51.3788 33.1104 51.373 33.1112C51.3664 33.1079 51.3598 33.1071 51.3507 33.1096C51.3367 33.1137 51.3235 33.1186 51.3094 33.1236C51.1963 33.15 51.0502 33.2012 50.9601 33.2655C50.6563 33.443 50.4441 33.7261 50.4796 34.1329C50.53 34.7197 51.2632 34.6017 51.6281 34.6025C51.9105 34.6025 52.2169 34.6405 52.496 34.5819C52.6884 34.5414 52.8436 34.4143 52.9105 34.2072C53.0632 33.7318 52.7073 33.3241 52.3242 33.1888H52.3234Z" fill="#212333"/>
<path d="M57.0063 33.3617C56.7173 33.2363 56.3663 33.1901 56.0534 33.2016C56.0468 33.2016 56.041 33.2033 56.0344 33.2033C56.0278 33.2 56.0212 33.1975 56.0121 33.2C55.9981 33.2033 55.9832 33.2066 55.9684 33.2099C55.8495 33.2256 55.6959 33.2644 55.5976 33.3196C55.2706 33.4674 55.0303 33.7273 55.0345 34.1309C55.0403 34.7111 55.804 34.6599 56.1789 34.6913C56.4696 34.716 56.7817 34.7796 57.0732 34.7457C57.2746 34.7226 57.4439 34.6112 57.5298 34.4131C57.7246 33.9592 57.3902 33.5276 57.0071 33.3617H57.0063Z" fill="#212333"/>
<path d="M48.717 35.8551C48.6204 35.2972 48.006 34.8111 47.4569 34.8466C46.7444 34.8919 46.4165 35.5431 46.3579 36.1802C46.3232 36.5607 46.3274 36.9873 46.4768 37.3455C46.6098 37.6641 46.8633 37.9042 47.1448 38.0949C47.4413 38.2954 47.6683 38.4101 48.2257 38.2451C48.5477 38.1493 48.8268 38.0528 49.02 37.7705C49.3668 37.2638 49.3709 36.1257 48.717 35.8559V35.8551Z" fill="#FFA47A"/>
<path d="M59.3437 37.9014C59.5369 38.1836 59.8152 38.2802 60.1381 38.3759C60.6954 38.541 60.9217 38.4263 61.2189 38.2257C61.5005 38.0359 61.754 37.7949 61.8869 37.4764C62.0364 37.1182 62.0405 36.6915 62.0058 36.3111C61.9472 35.674 61.6194 35.0236 60.9068 34.9774C60.3577 34.9419 59.7434 35.428 59.6468 35.9859C58.9928 36.2558 58.9969 37.3947 59.3437 37.9006V37.9014Z" fill="#FFA47A"/>
<path d="M53.382 29.3886C53.3143 29.1732 53.0071 29.1567 52.8255 29.146C52.4465 29.1245 52.065 29.1625 51.6984 29.259C51.2839 29.3688 50.9098 29.5512 50.4722 29.4381C50.1551 29.3556 49.8661 29.2425 49.5325 29.2499C49.2444 29.2557 48.9587 29.3259 48.6961 29.4455C48.5855 29.4959 48.4798 29.5553 48.3799 29.6213C47.9695 29.8961 47.6565 30.2997 47.4625 30.7577C47.318 31.1002 47.2379 31.4666 47.2164 31.8372C47.204 32.0567 47.2148 32.2779 47.2016 32.4974C47.1974 32.5618 47.2016 32.6311 47.2073 32.7021C47.2272 32.9101 47.2717 33.1354 47.2346 33.3202C47.1528 33.7221 47.2387 34.0696 47.351 34.3205C47.3584 34.3221 47.3659 34.3238 47.3733 34.3246C47.3799 34.3296 47.3882 34.3345 47.3964 34.3378C47.8019 34.5152 48.1825 34.474 48.5367 34.3205C48.5863 34.1752 48.242 33.8542 48.2808 33.7056C48.3939 33.2748 48.5219 32.953 48.621 32.5189C48.7613 31.9073 49.2047 31.3206 49.5383 30.78C49.8587 30.2626 50.3624 29.8606 50.9916 29.8441C51.2847 29.8367 51.5902 29.906 51.8297 30.0777C51.8511 30.0934 51.8784 30.1165 51.9073 30.1445C52.4448 30.0158 53.1186 29.9003 53.8948 29.7988C54.0673 29.7756 53.4448 29.5891 53.3812 29.3878L53.382 29.3886Z" fill="#212333"/>
<path d="M49.6788 49.3608C49.4889 50.101 49.1429 50.786 48.5583 51.2928C47.9753 51.7987 47.2347 52.1007 46.4833 52.2501C45.4553 52.4548 44.3984 52.3854 43.3596 52.3128C44.9053 50.1695 46.7343 48.2343 48.7903 46.5721C49.3485 46.1207 49.924 45.6916 50.5127 45.2822C49.9414 46.5664 50.0248 48.0156 49.6796 49.3608H49.6788Z" fill="#D4B9B4"/>
<path d="M63.5203 50.0642C63.1405 49.4263 62.745 48.8461 62.1752 48.3592C61.6137 47.8789 61.0473 47.2863 60.4536 46.8481C59.5321 46.1689 57.9146 45.4096 56.8965 44.8674C56.7957 45.0432 57.3316 45.4394 57.2441 45.6226C57.1499 45.8173 57.0575 46.008 56.9476 46.1879C57.0971 46.9232 57.2755 47.6528 57.486 48.3741C57.6941 49.0854 57.8568 49.9693 58.4942 50.429C59.0945 50.8623 59.8913 51.0397 60.6031 51.1891C61.3487 51.3459 62.1026 51.4581 62.8407 51.648C63.5236 51.8229 64.1908 52.0507 64.8406 52.323C64.4055 51.5679 63.967 50.8136 63.5211 50.0642H63.5203Z" fill="#D4B9B4"/>
<path d="M52.5299 84.7378C52.5332 84.5761 52.5282 84.4069 52.6388 84.3483C52.6273 84.3664 52.6281 84.3896 52.6529 84.4003C52.6727 84.4094 52.6017 84.5736 52.5299 84.7378ZM73.9653 75.9106C71.6996 77.6899 68.9887 78.7421 66.3382 79.801C63.4012 80.9737 60.4641 82.1473 57.5262 83.32C56.7443 83.6328 55.9681 83.9736 55.1696 84.2418C54.4216 84.4935 53.6016 84.6594 52.8428 84.3879C52.8296 84.3351 52.8172 84.2814 52.8032 84.2286C52.7957 84.2014 52.766 84.1931 52.7429 84.2039C52.5175 84.3095 52.3086 84.4382 52.1162 84.5893C52.131 84.5208 52.1467 84.4523 52.1616 84.3846C51.8189 84.6215 51.3218 84.4729 50.9395 84.4201C48.3864 84.0652 45.8523 83.5833 43.3281 83.0633C42.0912 82.8091 40.8551 82.5475 39.6199 82.2834C38.454 82.0334 37.2889 81.7685 36.1544 81.3987C35.8067 81.2857 35.4632 81.1627 35.1239 81.0274C34.9191 80.9456 34.7168 80.8598 34.5161 80.769C34.4245 80.7278 34.3105 80.6502 34.2115 80.6345C33.9125 80.5867 34.005 80.7063 33.9621 80.8153C33.9084 80.9523 33.915 81.1627 33.8969 81.3104C33.8564 81.6315 33.8192 81.9533 33.7862 82.2744C33.6549 83.5337 33.574 84.7964 33.5278 86.0616C33.4361 88.5968 33.4857 91.1346 33.5534 93.6699C33.6145 95.9633 33.6929 98.2576 33.6962 100.553H49.4681C49.5218 100.048 49.5779 99.5442 49.6374 99.04C49.9066 96.7539 50.3136 94.5496 50.781 92.3585C51.2896 89.9709 51.8701 87.5983 52.4209 85.1521C52.6702 86.121 53.0913 86.5452 53.2003 87.5628C53.3126 88.6191 53.5133 89.6573 53.8064 90.6799C53.9418 91.1527 54.0921 91.6215 54.2531 92.087C54.8014 93.674 55.471 95.2214 56.1027 96.7737C56.5362 97.8392 56.9697 98.9046 57.4024 99.9701C57.4816 100.164 57.5609 100.358 57.6393 100.553H72.3791C72.3758 97.9118 72.4592 95.2709 72.6021 92.6341C72.7953 89.0664 73.0967 85.5053 73.436 81.9484C73.6276 79.9446 73.8315 77.9424 74.0355 75.9403C74.0396 75.8999 73.9892 75.8916 73.9653 75.9106Z" fill="#D4B9B4"/>
<path d="M55.3761 44.6539C54.4571 45.0377 53.4696 45.0369 52.5514 44.6514C52.3557 44.5689 52.2706 44.8883 52.4638 44.97C53.4283 45.3752 54.4992 45.376 55.4645 44.9725C55.6577 44.8916 55.5726 44.5722 55.377 44.6539H55.3761Z" fill="#B9643C"/>
<path d="M60.721 34.3277C59.878 34.6768 58.9168 34.208 58.2678 33.6683C57.5652 33.084 57.0879 32.2703 56.9046 31.3789C55.3283 31.9162 53.5555 31.5762 52.2806 30.5083C52.2666 30.5273 52.0544 30.2813 51.9082 30.1451C51.8793 30.1171 51.8521 30.094 51.8306 30.0783C51.5911 29.9066 51.2856 29.8373 50.9925 29.8447C50.3633 29.8613 49.8596 30.2632 49.5393 30.7806C49.2048 31.3212 48.721 31.7429 48.5806 32.3544C48.4815 32.7885 48.4559 33.6361 48.3428 34.0669C48.304 34.2154 48.5864 34.175 48.5368 34.3203C48.1826 34.4738 47.802 34.515 47.3965 34.3376C47.3883 34.3343 47.38 34.3293 47.3734 34.3244C47.366 34.3236 47.3585 34.3219 47.3511 34.3203C46.9176 34.2336 47.0497 33.3621 47.2074 32.7019C47.2834 32.3883 47.3643 32.1225 47.3941 32.0119C47.6178 31.1801 47.9299 30.3589 48.38 29.6211C48.4931 29.4346 48.6153 29.253 48.7474 29.0781C50.0479 27.3557 52.165 26.6682 54.2706 26.8498C55.4216 26.9488 56.5495 27.2699 57.6172 27.704C58.5692 28.0902 59.494 28.592 60.2239 29.3273C60.9324 30.0403 61.4163 30.9382 61.5277 31.9434C61.6227 32.8017 61.6656 33.9365 60.721 34.3277Z" fill="#212333"/>
<path d="M59.508 35.1244C59.5129 35.2135 59.5096 35.3026 59.503 35.3918C59.5071 35.4141 59.5113 35.4363 59.5154 35.4594C59.593 35.9266 59.8118 36.307 60.1471 36.6379C60.1983 36.6883 60.2544 36.7378 60.3106 36.7865C60.3634 36.7683 60.4129 36.7386 60.4559 36.6941C60.6879 36.4564 60.6673 35.9571 60.7069 35.6451C60.7696 35.1541 60.8861 34.5805 60.8134 34.087C60.7754 33.827 60.6194 33.6727 60.3733 33.6017C59.8919 33.4623 59.3296 33.4647 58.8334 33.4053C58.7574 33.3962 58.7186 33.4491 58.7161 33.5077C58.7128 33.5176 58.2421 33.6298 58.2512 33.6372C58.7607 34.0499 58.8755 34.1431 59.1141 34.3808C59.3379 34.6036 59.489 34.7934 59.508 35.1244Z" fill="#212333"/>
<path d="M48.1479 32.6695C47.8977 32.9485 47.7037 33.2943 47.5815 33.6681C47.5229 33.8472 47.3602 34.2986 47.4551 34.505C47.4551 34.5446 47.4725 34.5825 47.5171 34.6024C47.8267 34.7402 47.854 34.9952 47.9258 35.317C47.9522 35.4342 47.9762 35.5869 48.0695 35.6653C48.2156 35.7875 48.3882 35.7066 48.4675 35.5366C48.5294 35.4045 48.5294 35.2353 48.5368 35.0893C48.5525 34.7501 48.901 32.5383 49.2519 31.5166C49.3221 31.3111 48.2817 32.5193 48.1487 32.6679L48.1479 32.6695Z" fill="#212333"/>
<path d="M47.9441 37.6274C47.8929 37.1553 47.878 36.6841 47.9003 36.2103C47.9102 35.9982 47.58 35.9982 47.5701 36.2103C47.5478 36.6841 47.5626 37.1561 47.6138 37.6274C47.6361 37.8362 47.9672 37.8386 47.9441 37.6274Z" fill="#B9643C"/>
<path d="M60.3609 36.7455C60.3345 37.1087 60.2593 37.4594 60.1404 37.8035C60.0711 38.0049 60.3898 38.0916 60.4591 37.891C60.588 37.5188 60.6631 37.1375 60.6912 36.7447C60.7069 36.5326 60.3758 36.5334 60.3609 36.7447V36.7455Z" fill="#B9643C"/>
<path d="M60.8878 31.9192C60.4799 31.2631 59.7095 30.9322 58.9622 31.0097C59.3809 29.9674 58.6774 28.6626 57.8294 28.0404C57.2984 27.6508 56.6354 27.4536 55.9773 27.5048C55.5851 27.5353 55.0822 27.6442 54.7635 27.9224C54.4819 26.7472 53.3631 25.3805 52.0824 26.0432C50.7968 26.7092 50.6705 28.6197 51.388 29.7198C51.5036 29.8973 51.7901 29.7322 51.6729 29.5531C51.0759 28.6379 51.132 27.2902 51.9701 26.5276C52.5052 26.0415 53.2219 26.2173 53.7206 26.6638C54.1987 27.0921 54.4588 27.7053 54.4985 28.3383C54.51 28.5265 54.7602 28.5595 54.823 28.382C55.0021 27.8728 55.9377 27.8002 56.372 27.8341C56.9112 27.8761 57.4165 28.1006 57.8219 28.4571C58.5238 29.0745 59.0944 30.2884 58.5131 31.1525C58.4313 31.2738 58.5667 31.4331 58.6997 31.3952C59.4024 31.1938 60.2074 31.4496 60.6029 32.0859C60.9968 32.7189 60.8705 33.5599 60.3759 34.0963C60.2322 34.2523 60.465 34.4867 60.6095 34.3299C61.2016 33.6878 61.3609 32.6801 60.8878 31.9192Z" fill="#3E4156"/>
<path d="M54.632 83.8621C53.9417 83.8621 53.94 84.9349 54.632 84.9349C55.3239 84.9349 55.3239 83.8621 54.632 83.8621Z" fill="#212333"/>
<path d="M58.1002 93.0437C57.4099 93.0437 57.4082 94.1166 58.1002 94.1166C58.7921 94.1166 58.7921 93.0437 58.1002 93.0437Z" fill="#212333"/>
<path d="M49.7638 48.9359C48.9471 49.7166 48.2445 50.5963 47.6623 51.5636C47.5525 51.7459 47.8382 51.9127 47.9472 51.7303C48.5153 50.7853 49.1998 49.9303 49.9966 49.1694C50.1502 49.0225 49.9165 48.789 49.7629 48.9359H49.7638Z" fill="#212333"/>
<path d="M59.6384 50.6697C58.9985 49.5531 58.11 48.6205 57.0275 47.924C56.8484 47.8084 56.6824 48.094 56.8607 48.2087C57.8962 48.8755 58.7409 49.7677 59.3536 50.8356C59.4593 51.0196 59.7449 50.8537 59.6384 50.6689V50.6697Z" fill="#212333"/>
<path d="M51.7109 70.1145C51.6572 70.1021 51.6043 70.0873 51.5507 70.0716C51.497 70.0559 51.4442 70.0386 51.3905 70.0221C51.8248 67.6172 51.516 65.1001 50.4814 62.8718C50.6118 62.8842 50.7431 62.9073 50.8752 62.9436C51.8644 65.1892 52.1534 67.7096 51.7109 70.1145Z" fill="#212333"/>
<path d="M57.6443 64.8045C56.5436 64.9473 55.4661 65.1908 54.4133 65.544C54.3572 65.2485 54.2812 64.9556 54.1838 64.6675C54.116 64.467 53.7973 64.5528 53.865 64.755C54.2894 66.0136 54.3117 67.3382 53.9278 68.6091C53.8659 68.8129 54.1846 68.9004 54.2465 68.6966C54.5256 67.7714 54.5991 66.8116 54.4678 65.8692C54.4777 65.8675 54.4868 65.8659 54.4967 65.8626C55.5214 65.5184 56.5717 65.2725 57.6443 65.1338C57.8524 65.1066 57.8549 64.7765 57.6443 64.8037V64.8045Z" fill="#212333"/>
<path d="M62.6764 54.7337C61.3206 57.6931 59.4916 60.4116 57.2556 62.7777C57.1094 62.932 57.3431 63.1656 57.4893 63.0113C59.7443 60.6254 61.5955 57.8846 62.9621 54.9004C63.0496 54.7089 62.7655 54.5405 62.6772 54.7337H62.6764Z" fill="#212333"/>
<path d="M46.8332 68.893C44.7029 70.2316 42.4504 71.3623 40.1029 72.266C39.9064 72.3419 39.9922 72.6605 40.1904 72.5845C42.5651 71.6701 44.8449 70.532 47 69.1778C47.1792 69.0647 47.0141 68.7791 46.8332 68.893Z" fill="#212333"/>
<path d="M49.5153 68.4018C49.5087 68.3985 49.5021 68.3952 49.4955 68.3911C49.4881 68.3869 49.4798 68.3845 49.4724 68.3812C49.4361 68.297 49.3882 68.1278 49.37 68.089C49.2924 67.9215 49.2024 67.7597 49.1033 67.6046C48.9291 67.333 48.7259 67.0789 48.5022 66.8461C48.072 66.398 47.5675 66.0283 47.0341 65.713C47.5113 65.0726 48.0233 64.4611 48.5715 63.8792C48.7169 63.7249 48.484 63.4905 48.3379 63.6457C47.7326 64.2886 47.1695 64.967 46.6476 65.6792C46.5956 65.7501 46.6352 65.8649 46.7071 65.9053C47.3313 66.2577 47.9151 66.6794 48.3948 67.2167C48.6318 67.4824 48.8382 67.7746 49.0026 68.0906C49.0959 68.2697 49.1405 68.6122 49.3345 68.7137C49.4105 68.7534 49.5178 68.7368 49.5607 68.6543C49.5657 68.6452 49.5698 68.6362 49.5748 68.6271C49.6144 68.5495 49.5971 68.4455 49.5153 68.401V68.4018Z" fill="#212333"/>
<path d="M45.9305 61.8541C45.0602 59.209 44.4451 56.4881 44.1016 53.725C44.076 53.5171 43.7449 53.5146 43.7713 53.725C44.1189 56.5186 44.7324 59.2684 45.6126 61.9424C45.6787 62.1429 45.9974 62.0571 45.9313 61.8549L45.9305 61.8541Z" fill="#212333"/>
<path d="M61.725 77.4265C59.5592 79.2257 57.3942 81.0239 55.2283 82.8231C55.0649 82.9592 55.2994 83.1911 55.462 83.0566C57.6279 81.2575 59.7929 79.4592 61.9587 77.6601C62.1222 77.5239 61.8877 77.292 61.725 77.4265Z" fill="#212333"/>
<path d="M60.8838 87.1423C59.2093 86.6232 57.5851 85.9663 56.0204 85.1757C55.8313 85.0799 55.6637 85.3646 55.8536 85.4604C57.4431 86.2642 59.0945 86.9327 60.7955 87.4609C60.9986 87.5236 61.0861 87.205 60.883 87.1423H60.8838Z" fill="#212333"/>
<path d="M83.3092 81.8246C82.6437 80.8507 82.0219 79.8497 81.4448 78.8205C81.3407 78.6348 81.055 78.8015 81.1599 78.9872C81.7371 80.0155 82.3588 81.0174 83.0235 81.9913C83.1424 82.1654 83.429 82.0003 83.3084 81.8246H83.3092Z" fill="#212333"/>
<path d="M92.5472 73.92C89.805 72.5525 86.9307 71.4714 83.9664 70.6948C83.7608 70.6412 83.6724 70.9589 83.8789 71.0134C86.8159 71.7825 89.6638 72.8504 92.3812 74.2055C92.5711 74.3005 92.7379 74.0157 92.548 73.9208L92.5472 73.92Z" fill="#212333"/>
<path d="M52.0229 39.7688C52.0841 40.377 52.8008 40.4802 53.3523 40.528C54.0501 40.5883 55.1441 40.6848 55.614 40.0345C55.6569 39.9759 55.7023 39.9 55.7395 39.8166C54.5009 39.7679 53.2623 39.7506 52.0229 39.7688Z" fill="white"/>
<path d="M37.1889 92.0411C37.0907 91.933 36.9107 91.8752 36.7753 91.9487C36.554 92.0683 36.6077 92.4958 36.5953 92.6955C36.5705 93.1065 36.5581 93.5183 36.5565 93.9302C36.5565 93.9343 36.5581 93.9376 36.5589 93.9409C36.5614 94.0927 36.5705 94.2438 36.5895 94.3931C36.6143 94.5896 36.6539 94.8759 36.8859 94.9345C37.0469 94.975 37.1592 94.8578 37.2112 94.7175C37.3112 94.4484 37.2963 94.1134 37.3194 93.8311C37.3483 93.4771 37.3657 93.1222 37.3549 92.7673C37.3475 92.5354 37.3582 92.226 37.1898 92.0411H37.1889Z" fill="white"/>
<path d="M43.7535 96.2711C43.6552 96.163 43.4752 96.1052 43.3398 96.1786C43.1185 96.2983 43.1722 96.7258 43.1598 96.9255C43.135 97.3365 43.1226 97.7483 43.121 98.1601C43.121 98.1643 43.1226 98.1676 43.1234 98.1709C43.1259 98.3227 43.135 98.4737 43.154 98.6231C43.1788 98.8195 43.2184 99.1059 43.4504 99.1645C43.6114 99.205 43.7237 99.0878 43.7758 98.9475C43.8757 98.6784 43.8608 98.3434 43.8839 98.0611C43.9128 97.7071 43.9302 97.3522 43.9194 96.9973C43.912 96.7654 43.9227 96.4559 43.7543 96.2711H43.7535Z" fill="white"/>
<path d="M46.9122 88.8851C46.814 88.777 46.634 88.7192 46.4985 88.7927C46.2772 88.9123 46.3309 89.3398 46.3185 89.5395C46.2938 89.9505 46.2814 90.3623 46.2797 90.7742C46.2797 90.7783 46.2814 90.7816 46.2822 90.7849C46.2847 90.9367 46.2938 91.0878 46.3128 91.2371C46.3375 91.4336 46.3772 91.7199 46.6092 91.7785C46.7702 91.819 46.8825 91.7018 46.9345 91.5615C47.0344 91.2924 47.0196 90.9574 47.0427 90.6751C47.0716 90.3211 47.0889 89.9662 47.0782 89.6113C47.0708 89.3794 47.0815 89.0699 46.913 88.8851H46.9122Z" fill="white"/>
<path d="M41.799 86.4505C41.7007 86.3424 41.5207 86.2846 41.3853 86.3581C41.164 86.4777 41.2177 86.9052 41.2053 87.105C41.1805 87.516 41.1682 87.9278 41.1665 88.3396C41.1665 88.3437 41.1682 88.347 41.169 88.3503C41.1715 88.5022 41.1805 88.6532 41.1995 88.8026C41.2251 88.999 41.2639 89.2862 41.496 89.344C41.657 89.3844 41.7693 89.2672 41.8213 89.1269C41.9212 88.8579 41.9063 88.5228 41.9295 88.2406C41.9584 87.8865 41.9757 87.5316 41.965 87.1768C41.9575 86.9449 41.9683 86.6354 41.7998 86.4505H41.799Z" fill="white"/>
<path d="M48.1298 80.8848C48.1224 80.6529 48.1332 80.3434 47.9647 80.1585C47.8664 80.0504 47.6864 79.9926 47.551 80.0661C47.3297 80.1858 47.3834 80.6133 47.371 80.813C47.3463 81.224 47.3339 81.6358 47.3322 82.0476C47.3322 82.0517 47.3339 82.055 47.3347 82.0583C47.3372 82.2102 47.3463 82.3612 47.3652 82.5106C47.39 82.707 47.4296 82.9934 47.6617 83.052C47.8227 83.0924 47.935 82.9752 47.987 82.8349C48.0869 82.5659 48.0721 82.2308 48.0952 81.9486C48.1241 81.5945 48.1414 81.2396 48.1307 80.8848H48.1298Z" fill="white"/>
<path d="M60.6394 82.4111C60.6319 82.1792 60.6427 81.8698 60.4742 81.6849C60.376 81.5768 60.196 81.519 60.0605 81.5925C59.8393 81.7121 59.8929 82.1396 59.8805 82.3393C59.8558 82.7503 59.8434 83.1621 59.8417 83.574C59.8417 83.5781 59.8434 83.5814 59.8442 83.5847C59.8467 83.7365 59.8558 83.8876 59.8748 84.0369C59.8995 84.2334 59.9392 84.5197 60.1712 84.5783C60.3322 84.6188 60.4445 84.5016 60.4965 84.3613C60.5964 84.0922 60.5816 83.7572 60.6047 83.4749C60.6336 83.1209 60.6509 82.766 60.6402 82.4111H60.6394Z" fill="white"/>
<path d="M62.1258 95.9873C62.1183 95.7554 62.1291 95.4459 61.9606 95.2611C61.8624 95.1529 61.6824 95.0952 61.5469 95.1686C61.3256 95.2883 61.3793 95.7158 61.3669 95.9155C61.3422 96.3265 61.3298 96.7383 61.3281 97.1501C61.3281 97.1543 61.3298 97.1576 61.3306 97.1609C61.3331 97.3127 61.3422 97.4637 61.3612 97.6131C61.3859 97.8095 61.4256 98.0959 61.6576 98.1545C61.8186 98.1949 61.9309 98.0778 61.9829 97.9375C62.0828 97.6684 62.068 97.3334 62.0911 97.0511C62.12 96.6971 62.1373 96.3422 62.1266 95.9873H62.1258Z" fill="white"/>
<path d="M66.9146 88.8481C66.9071 88.6162 66.9179 88.3068 66.7494 88.1219C66.6512 88.0138 66.4712 87.956 66.3358 88.0295C66.1145 88.1491 66.1681 88.5766 66.1557 88.7763C66.131 89.1873 66.1186 89.5992 66.1169 90.011C66.1169 90.0151 66.1186 90.0184 66.1194 90.0217C66.1219 90.1736 66.131 90.3246 66.15 90.474C66.1747 90.6704 66.2144 90.9567 66.4464 91.0153C66.6074 91.0558 66.7197 90.9386 66.7717 90.7983C66.8716 90.5292 66.8568 90.1942 66.8799 89.9119C66.9088 89.5579 66.9261 89.203 66.9154 88.8481H66.9146Z" fill="white"/>
<path d="M71.5797 79.4822C71.5722 79.2503 71.583 78.9408 71.4145 78.7559C71.3163 78.6478 71.1363 78.5901 71.0009 78.6635C70.7796 78.7832 70.8332 79.2107 70.8208 79.4104C70.7961 79.8214 70.7837 80.2332 70.782 80.645C70.782 80.6491 70.7837 80.6524 70.7845 80.6557C70.787 80.8076 70.7961 80.9586 70.8151 81.108C70.8398 81.3044 70.8795 81.5908 71.1115 81.6494C71.2725 81.6898 71.3848 81.5726 71.4368 81.4323C71.5367 81.1633 71.5219 80.8282 71.545 80.546C71.5739 80.1919 71.5912 79.8371 71.5805 79.4822H71.5797Z" fill="white"/>
<path d="M69.0617 60.9536C69.0542 60.7217 69.065 60.4122 68.8965 60.2274C68.7983 60.1193 68.6183 60.0615 68.4828 60.1349C68.2616 60.2546 68.3152 60.6821 68.3028 60.8818C68.2781 61.2928 68.2657 61.7046 68.264 62.1164C68.264 62.1206 68.2657 62.1239 68.2665 62.1272C68.269 62.279 68.2781 62.43 68.2971 62.5794C68.3218 62.7758 68.3615 63.0622 68.5935 63.1208C68.7545 63.1612 68.8668 63.0441 68.9188 62.9038C69.0187 62.6347 69.0039 62.2997 69.027 62.0174C69.0559 61.6634 69.0732 61.3085 69.0625 60.9536H69.0617Z" fill="white"/>
<path d="M80.2912 65.5344C80.2838 65.3025 80.2945 64.993 80.1261 64.8082C80.0278 64.7001 79.8478 64.6423 79.7124 64.7157C79.4911 64.8354 79.5448 65.2629 79.5324 65.4626C79.5076 65.8736 79.4952 66.2854 79.4936 66.6973C79.4936 66.7014 79.4952 66.7047 79.4961 66.708C79.4985 66.8598 79.5076 67.0109 79.5266 67.1602C79.5514 67.3567 79.591 67.643 79.823 67.7016C79.9841 67.7421 80.0964 67.6249 80.1484 67.4846C80.2483 67.2155 80.2334 66.8805 80.2565 66.5982C80.2854 66.2442 80.3028 65.8893 80.2921 65.5344H80.2912Z" fill="white"/>
<path d="M93.6676 80.9675C93.6602 80.7356 93.6709 80.4261 93.5025 80.2413C93.4042 80.1332 93.2242 80.0754 93.0888 80.1489C92.8675 80.2685 92.9212 80.696 92.9088 80.8957C92.884 81.3067 92.8716 81.7185 92.87 82.1304C92.87 82.1345 92.8716 82.1378 92.8725 82.1411C92.875 82.2929 92.884 82.444 92.903 82.5933C92.9278 82.7898 92.9674 83.0761 93.1995 83.1347C93.3605 83.1752 93.4728 83.058 93.5248 82.9177C93.6247 82.6486 93.6098 82.3136 93.633 82.0313C93.6619 81.6773 93.6792 81.3224 93.6685 80.9675H93.6676Z" fill="white"/>
<path d="M89.0437 74.0347C89.0363 73.8028 89.047 73.4933 88.8786 73.3084C88.7803 73.2003 88.6003 73.1425 88.4649 73.216C88.2436 73.3357 88.2973 73.7632 88.2849 73.9629C88.2601 74.3739 88.2477 74.7857 88.2461 75.1975C88.2461 75.2016 88.2477 75.2049 88.2486 75.2082C88.251 75.3601 88.2601 75.5111 88.2791 75.6605C88.3039 75.8569 88.3435 76.1433 88.5756 76.2019C88.7366 76.2423 88.8489 76.1251 88.9009 75.9848C89.0008 75.7158 88.9859 75.3807 89.009 75.0985C89.0379 74.7444 89.0553 74.3895 89.0446 74.0347H89.0437Z" fill="white"/>
<path d="M85.5348 79.3171C85.5274 79.0852 85.5381 78.7758 85.3697 78.5909C85.2714 78.4828 85.0914 78.425 84.956 78.4985C84.7347 78.6181 84.7884 79.0456 84.776 79.2453C84.7512 79.6563 84.7388 80.0682 84.7372 80.48C84.7372 80.4841 84.7388 80.4874 84.7397 80.4907C84.7421 80.6425 84.7512 80.7936 84.7702 80.943C84.795 81.1394 84.8346 81.4257 85.0666 81.4843C85.2277 81.5248 85.34 81.4076 85.392 81.2673C85.4919 80.9982 85.477 80.6632 85.5001 80.3809C85.529 80.0269 85.5464 79.672 85.5356 79.3171H85.5348Z" fill="white"/>
<path d="M65.8825 76.1397C65.875 75.9077 65.8858 75.5983 65.7173 75.4134C65.6191 75.3053 65.4391 75.2475 65.3036 75.321C65.0824 75.4406 65.136 75.8681 65.1236 76.0679C65.0989 76.4788 65.0865 76.8907 65.0848 77.3025C65.0848 77.3066 65.0865 77.3099 65.0873 77.3132C65.0898 77.4651 65.0989 77.6161 65.1179 77.7655C65.1426 77.9619 65.1823 78.2483 65.4143 78.3068C65.5753 78.3473 65.6876 78.2301 65.7396 78.0898C65.8395 77.8208 65.8247 77.4857 65.8478 77.2034C65.8767 76.8494 65.894 76.4945 65.8833 76.1397H65.8825Z" fill="white"/>
<path d="M70.0938 95.9873C70.0863 95.7554 70.0971 95.4459 69.9286 95.2611C69.8304 95.1529 69.6504 95.0952 69.515 95.1686C69.2937 95.2883 69.3473 95.7158 69.3349 95.9155C69.3102 96.3265 69.2978 96.7383 69.2961 97.1501C69.2961 97.1543 69.2978 97.1576 69.2986 97.1609C69.3011 97.3127 69.3102 97.4637 69.3292 97.6131C69.3539 97.8095 69.3936 98.0959 69.6256 98.1545C69.7866 98.1949 69.8989 98.0778 69.9509 97.9375C70.0508 97.6684 70.036 97.3334 70.0591 97.0511C70.088 96.6971 70.1053 96.3422 70.0946 95.9873H70.0938Z" fill="white"/>
<path d="M43.231 76.73C43.2236 76.4981 43.2343 76.1886 43.0658 76.0037C42.9676 75.8956 42.7876 75.8379 42.6522 75.9113C42.4309 76.031 42.4845 76.4585 42.4722 76.659C42.4474 77.07 42.435 77.4818 42.4333 77.8936C42.4333 77.8978 42.435 77.9011 42.4358 77.9044C42.4383 78.0562 42.4474 78.2072 42.4664 78.3566C42.4911 78.553 42.5308 78.8394 42.7628 78.898C42.9238 78.9384 43.0361 78.8213 43.0881 78.681C43.188 78.4119 43.1732 78.0768 43.1963 77.7946C43.2252 77.4405 43.2425 77.0857 43.2318 76.7308L43.231 76.73Z" fill="white"/>
<path d="M39.4326 64.5981C39.4252 64.3662 39.4359 64.0568 39.2674 63.8719C39.1692 63.7638 38.9892 63.706 38.8538 63.7795C38.6325 63.8991 38.6861 64.3266 38.6738 64.5272C38.649 64.9382 38.6366 65.35 38.6349 65.7618C38.6349 65.7659 38.6366 65.7692 38.6374 65.7725C38.6399 65.9244 38.649 66.0754 38.668 66.2248C38.6927 66.4212 38.7324 66.7076 38.9644 66.7662C39.1254 66.8066 39.2377 66.6894 39.2897 66.5491C39.3896 66.2801 39.3748 65.945 39.3979 65.6628C39.4268 65.3087 39.4441 64.9538 39.4334 64.599L39.4326 64.5981Z" fill="white"/>
<path d="M33.2397 57.0059C33.2323 56.774 33.243 56.4645 33.0746 56.2796C32.9763 56.1715 32.7963 56.1137 32.6609 56.1872C32.4396 56.3069 32.4933 56.7343 32.4809 56.9349C32.4561 57.3459 32.4437 57.7577 32.4421 58.1695C32.4421 58.1736 32.4437 58.1769 32.4446 58.1802C32.447 58.3321 32.4561 58.4831 32.4751 58.6325C32.4999 58.8289 32.5395 59.1153 32.7715 59.1739C32.9325 59.2143 33.0448 59.0971 33.0969 58.9568C33.1968 58.6878 33.1819 58.3527 33.205 58.0705C33.2339 57.7164 33.2513 57.3616 33.2405 57.0067L33.2397 57.0059Z" fill="white"/>
<path d="M29.1937 66.9915C29.1863 66.7596 29.197 66.4501 29.0286 66.2652C28.9303 66.1571 28.7503 66.0993 28.6149 66.1728C28.3936 66.2924 28.4473 66.7199 28.4349 66.9205C28.4101 67.3315 28.3977 67.7433 28.3961 68.1551C28.3961 68.1592 28.3977 68.1625 28.3985 68.1658C28.401 68.3177 28.4101 68.4687 28.4291 68.6181C28.4539 68.8145 28.4935 69.1009 28.7255 69.1595C28.8865 69.1999 28.9988 69.0827 29.0508 68.9424C29.1508 68.6734 29.1359 68.3383 29.159 68.0561C29.1879 67.702 29.2053 67.3472 29.1945 66.9923L29.1937 66.9915Z" fill="white"/>
<path d="M21.8454 81.1038C21.8379 80.8719 21.8487 80.5624 21.6802 80.3775C21.582 80.2694 21.402 80.2116 21.2665 80.2851C21.0453 80.4048 21.0989 80.8322 21.0865 81.0328C21.0618 81.4438 21.0494 81.8556 21.0477 82.2674C21.0477 82.2715 21.0494 82.2748 21.0502 82.2781C21.0527 82.43 21.0618 82.581 21.0808 82.7304C21.1055 82.9268 21.1452 83.2132 21.3772 83.2718C21.5382 83.3122 21.6505 83.195 21.7025 83.0547C21.8024 82.7857 21.7876 82.4506 21.8107 82.1684C21.8396 81.8143 21.8569 81.4595 21.8462 81.1046L21.8454 81.1038Z" fill="white"/>
<path d="M15.4044 82.7134C15.397 82.4815 15.4078 82.172 15.2393 81.9871C15.141 81.879 14.961 81.8213 14.8256 81.8947C14.6043 82.0144 14.658 82.4419 14.6456 82.6424C14.6208 83.0534 14.6085 83.4652 14.6068 83.877C14.6068 83.8812 14.6085 83.8845 14.6093 83.8878C14.6118 84.0396 14.6208 84.1906 14.6398 84.34C14.6646 84.5364 14.7042 84.8228 14.9363 84.8814C15.0973 84.9218 15.2096 84.8047 15.2616 84.6644C15.3615 84.3953 15.3466 84.0602 15.3698 83.778C15.3987 83.4239 15.416 83.0691 15.4053 82.7142L15.4044 82.7134Z" fill="white"/>
<path d="M21.1016 71.0354C21.0942 70.8035 21.1049 70.494 20.9364 70.3092C20.8382 70.201 20.6582 70.1433 20.5228 70.2167C20.3015 70.3364 20.3551 70.7639 20.3428 70.9644C20.318 71.3754 20.3056 71.7872 20.304 72.1991C20.304 72.2032 20.3056 72.2065 20.3064 72.2098C20.3089 72.3616 20.318 72.5127 20.337 72.662C20.3618 72.8584 20.4014 73.1448 20.6334 73.2034C20.7944 73.2439 20.9067 73.1267 20.9587 72.9864C21.0587 72.7173 21.0438 72.3823 21.0669 72.1C21.0958 71.746 21.1132 71.3911 21.1024 71.0362L21.1016 71.0354Z" fill="white"/>
<path d="M36.777 84.0322C36.8769 83.7631 36.8621 83.4281 36.8852 83.1458C36.9141 82.7918 36.9314 82.4369 36.9207 82.082C36.9132 81.8501 36.924 81.5407 36.7555 81.3558C36.6573 81.2477 36.4773 81.1899 36.3419 81.2634C36.1206 81.383 36.1742 81.8105 36.1619 82.0102C36.1371 82.4212 36.1247 82.833 36.123 83.2449C36.123 83.249 36.1247 83.2523 36.1255 83.2556C36.128 83.4074 36.1371 83.5585 36.1561 83.7078C36.1808 83.9043 36.2205 84.1906 36.4525 84.2492C36.6135 84.2897 36.7258 84.1725 36.7778 84.0322H36.777Z" fill="white"/>
</g>
</svg>
