<svg width="109" height="94" viewBox="0 0 109 94" fill="none" xmlns="http://www.w3.org/2000/svg">
<path d="M95.8045 89.0075C106.268 80.9314 108.744 64.7388 108.977 57.8464C109.567 40.3112 98.8266 31.8559 99.0475 31.2543C99.118 31.062 99.1885 30.8719 99.2569 30.6838C100.748 26.6022 99.43 22.0903 97.0952 19.3959C94.5914 16.5061 91.2333 15.202 88.0546 14.8934C82.3212 14.3364 76.5174 15.0097 70.7695 14.9183C61.619 14.7728 52.4622 15.2529 43.349 16.3824C34.8755 17.4319 25.9779 18.311 18.0404 22.7772C13.7575 25.1869 10.3195 30.6994 8.0822 36.2369C6.02213 41.3369 5.229 47.4656 5.85832 53.3272C5.90083 53.718 6.44099 56.6815 6.96145 58.4979C7.46843 60.2675 6.30621 61.7815 5.89254 63.362C3.82832 71.2572 7.23723 84.4686 13.1147 87.3605C14.7642 88.172 23.4793 86.499 25.1837 87.1495C25.1879 87.2046 25.1941 87.2586 25.2045 87.3095C25.332 87.9392 44.1162 86.6362 53.0625 87.1558C62.0358 87.6774 86.9577 95.8334 95.8034 89.0064L95.8045 89.0075Z" fill="#FA8A6E"/>
<path d="M66.6815 60.4316C66.5675 59.512 66.4306 58.6121 65.9942 57.8016C65.8812 57.5917 65.6997 57.5377 65.5359 57.5813C65.4851 57.5241 65.4343 57.4701 65.3825 57.4202C65.3607 57.3995 65.3379 57.3818 65.314 57.3662C65.3099 57.2186 65.2384 57.0773 65.0745 56.9932C62.2576 55.5592 58.9794 55.6704 55.9489 55.5612C52.5493 55.4386 49.1663 55.5852 45.801 56.1286C45.4682 56.1826 45.3386 56.5495 45.4049 56.8238C44.9436 61.9321 44.4086 70.6212 45.0918 72.6516C45.1893 72.9415 53.8826 73.0849 54.4062 72.609C54.8458 72.21 55.4471 68.8765 55.6907 67.2596C55.7301 66.9968 56.0059 66.8741 56.2019 67.0321C56.346 67.1485 56.4859 67.2752 56.5461 67.6077C56.825 69.1498 56.5471 72.5249 57.2314 72.7587C57.7653 72.9405 65.7785 73.1785 66.9345 72.1466C67.3005 71.8203 66.9957 62.965 66.6826 60.4326L66.6815 60.4316Z" fill="#C3D4EB"/>
<path d="M61.5015 13.5488C61.2548 12.3444 60.4824 11.5017 59.2849 11.1443C57.0766 10.4855 53.058 10.6424 52.1084 13.2163C51.5506 14.7292 51.8471 16.636 52.1965 18.1552C52.2214 18.2643 52.3074 18.3007 52.3935 18.2861C52.8994 18.7537 53.5246 19.0229 54.1912 19.2109C55.0995 19.4676 56.0616 19.6619 57.0061 19.716C58.4358 19.798 59.9121 19.4157 60.7861 18.256C60.8712 18.2508 60.9531 18.2009 60.9759 18.0949C61.2796 16.6391 61.8063 15.0378 61.5015 13.5488Z" fill="#66362D"/>
<path d="M60.2783 29.9549C60.6319 29.1714 60.7894 28.3099 60.8942 27.4579C60.5966 27.3404 60.2213 27.3082 59.9714 27.2355C59.225 27.0193 58.8393 26.7045 58.8113 25.8472C58.7719 24.6668 58.7491 23.4884 58.8185 22.3049C58.8289 22.1282 58.3707 22.0492 58.2411 22.0991C56.9907 21.8944 55.7497 21.645 54.517 21.351C54.321 21.3042 54.208 21.512 54.2661 21.6533C54.2402 21.6866 53.9571 21.7188 53.9582 21.7728C53.9872 23.1154 54.1738 24.7686 53.7767 26.0727C53.7508 26.1579 53.7187 26.2421 53.673 26.319C53.3548 26.8604 52.8312 27.0173 52.2848 27.2074C51.6482 27.4288 51.5124 27.9753 51.3289 28.578C51.1682 29.1049 50.8986 29.7813 51.3766 30.2157C51.8919 30.6833 52.7202 30.9961 53.3558 31.261C54.8249 31.8741 56.3811 31.8658 57.9176 31.5104C58.6651 31.3379 59.3794 31.0283 59.9538 30.5565C60.073 30.3653 60.1819 30.1658 60.2762 29.9559L60.2783 29.9549Z" fill="#AD6553"/>
<path d="M54.0194 24.2491C54.4372 25.3983 57.8533 24.673 58.775 23.6121C58.7813 23.2702 58.8372 22.5563 58.858 22.2145C58.8683 22.0378 58.3707 22.0503 58.2421 22.0991C56.9918 21.8944 55.7508 21.645 54.5181 21.351C54.3221 21.3042 54.2091 21.512 54.2671 21.6533C54.2412 21.6866 53.9582 21.6752 53.9592 21.7302C53.9758 22.5116 54.009 23.3866 54.0194 24.2501V24.2491Z" fill="#8A4230"/>
<path d="M59.5847 12.5316C57.9549 11.0882 54.8694 11.214 53.447 12.968C52.4569 14.19 52.2588 15.838 52.32 17.3427C52.3553 18.227 52.4818 19.104 52.687 19.9644C52.8705 20.7354 53.0862 21.5729 53.5652 22.2224C54.3417 23.2761 55.8865 23.5587 57.1327 23.4257C58.7967 23.248 59.8646 22.0821 60.2306 20.5297C60.5603 19.1321 60.7106 17.697 60.7106 16.2662C60.7106 15.5513 60.7148 14.8156 60.5437 14.1173C60.3851 13.4668 60.0419 12.9379 59.5847 12.5326V12.5316Z" fill="#AD6553"/>
<path d="M59.8345 11.9033C59.0839 11.3099 57.9984 11.0928 57.0601 10.9992C56.0783 10.9016 55.0664 11.0055 54.1872 11.4772C52.4538 12.4083 52.0131 14.6705 52.1728 16.4422C52.1251 16.3143 52.2578 16.8911 52.1894 17.0106C52.121 17.13 51.8058 16.73 51.84 16.862C51.9457 17.2672 52.0546 17.6808 52.2858 18.032C52.4392 18.2637 52.4807 17.8678 52.715 17.7088C53.3713 17.2631 52.7492 15.27 53.5558 13.6947C53.9591 12.9071 54.6019 12.559 55.4054 12.9673C55.8564 13.197 56.3437 13.3258 56.8559 13.3051C57.3038 13.2863 57.677 13.1294 58.0938 12.9871C58.8579 12.7263 59.566 12.8894 59.8169 13.7145C60.1829 14.9188 59.9071 16.2198 60.1632 17.4491C60.2917 18.0663 60.6971 18.1609 60.947 17.4283C61.5722 15.5922 61.4882 13.2126 59.8325 11.9043L59.8345 11.9033Z" fill="#66362D"/>
<path d="M51.7686 16.389C52.8427 15.7094 53.3538 19.4336 52.5275 19.4876C52.176 19.5105 51.921 18.8288 51.8173 18.5545C51.6296 18.0557 51.1589 16.7735 51.7686 16.3879V16.389Z" fill="#AD6553"/>
<path d="M61.314 16.6448C60.3311 16.0983 59.6987 19.5513 60.4348 19.5367C60.7479 19.5305 61.2828 18.9195 61.3627 18.6576C61.5089 18.1807 61.8707 16.9545 61.314 16.6448Z" fill="#AD6553"/>
<path d="M56.9056 57.9601C58.3373 58.1212 59.7764 58.1472 61.2092 57.9975C62.4264 57.798 63.6114 57.4697 64.7591 57.0187C64.8431 56.9802 64.9271 56.9397 65.011 56.9002C64.9903 56.736 64.9747 56.577 64.9716 56.4285C64.9488 55.301 64.925 54.1736 64.896 53.0461C64.8369 50.7434 64.7601 48.4418 64.643 46.1422C64.4139 41.6387 64.0323 37.1393 63.3408 32.6856C63.148 31.4418 62.9302 30.2032 62.6856 28.9687C62.5788 28.4294 62.5114 27.0079 61.6913 27.1066C61.6675 27.1097 61.6457 27.117 61.6249 27.1253C61.5565 27.0453 61.4352 27.0172 61.3471 27.063C61.1543 27.1648 61.1522 27.0453 60.9998 27.2791C60.7147 27.7176 60.2398 29.2732 56.2607 29.269C54.5158 29.2669 52.7118 28.9718 51.25 27.9285C51.1162 27.833 50.9721 27.728 50.8093 27.7342C50.8653 27.7322 50.5885 27.1045 50.3936 27.5919C49.108 30.8079 48.5388 34.2859 48.0308 37.7098C47.5103 41.221 47.1537 44.7592 46.9671 48.3067C46.8717 50.1075 46.8198 51.9114 46.8126 53.7153C46.8105 54.133 46.8105 54.5518 46.8126 54.9695C50.0909 56.2217 53.4251 57.427 56.9035 57.9612L56.9056 57.9601Z" fill="#4F3333"/>
<path d="M50.4756 33.9041C53.5019 34.8331 56.7449 34.8788 59.8666 34.5141C61.0942 34.3707 62.3134 34.1608 63.5213 33.8958C63.4632 33.4916 63.4041 33.0873 63.3419 32.6842C63.1491 31.4403 62.9313 30.2017 62.6867 28.9672C62.5799 28.4279 62.5125 27.0064 61.6924 27.1051C61.6686 27.1083 61.6468 27.1155 61.6261 27.1238C61.5576 27.0438 61.4363 27.0158 61.3482 27.0615C61.1554 27.1633 61.1533 27.0438 61.0009 27.2776C60.7158 27.7161 60.2409 29.2717 56.2618 29.2675C54.5169 29.2655 52.7129 28.9704 51.2511 27.9271C51.1173 27.8315 50.9732 27.7265 50.8105 27.7328C50.8664 27.7307 50.5896 27.1031 50.3947 27.5904C49.6638 29.4172 49.1651 31.3292 48.7773 33.2671C49.3279 33.5134 49.895 33.7264 50.4745 33.9041H50.4756Z" fill="#FFF6ED"/>
<path d="M64.9115 53.6572C61.4839 54.5 57.9558 55.0143 54.4328 54.9561C51.8502 54.9135 49.221 54.5332 46.8157 53.6001C46.8157 53.6385 46.8157 53.676 46.8146 53.7144C46.8105 54.6164 46.8146 55.5183 46.8354 56.4203C46.8509 57.0801 46.8737 57.7659 47.1381 58.378C47.6637 59.5979 48.9752 59.9969 50.1209 60.2868C51.5952 60.6599 53.1068 60.8812 54.6215 60.9529C57.1315 61.0724 59.6457 60.6973 62.0676 60.0281C62.8649 59.8078 64.7197 59.573 65.0328 58.7323C65.2868 58.0506 64.9871 57.1331 64.9726 56.4275C64.954 55.5038 64.9343 54.58 64.9115 53.6572Z" fill="#FFF6ED"/>
<path d="M49.948 48.0896C54.4372 49.0519 59.1535 48.7796 63.6406 47.9577C64.0004 47.8922 64.3601 47.8205 64.7189 47.7478C64.6961 47.2126 64.6712 46.6775 64.6442 46.1423C64.5343 43.9716 64.3861 41.8019 64.187 39.6375C61.3255 40.4158 58.4049 40.9831 55.4408 41.1431C52.8188 41.2855 50.2051 41.0839 47.6495 40.554C47.3768 42.7777 47.1705 45.0107 47.0305 47.248C47.9792 47.5992 48.9558 47.8766 49.948 48.0896Z" fill="#FFF6ED"/>
<path d="M53.3568 26.2012C53.333 26.1524 53.2894 26.1129 53.222 26.0952C51.9416 25.7565 50.6311 25.6359 49.3124 25.7357C47.9501 25.8386 46.4426 25.3772 45.0512 25.3897C43.4619 25.4032 41.7367 25.8147 41.1748 27.4783C41.0835 27.7485 39.9493 29.1274 40.4158 30.7224C40.109 32.2561 40.5662 39.7087 40.3122 41.2518C39.6331 45.3844 38.814 56.0083 39.913 59.7834C40.3101 61.1478 41.9254 62.0456 43.1146 62.7086C44.7952 63.6448 46.709 64.1831 48.6074 64.4408C49.387 64.5468 49.0283 61.0979 49.0812 60.5856C49.9883 51.7812 50.6394 43.0848 52.4082 34.5318C52.9742 31.7927 52.7285 29.1461 53.5445 26.4714C53.5911 26.3197 53.4792 26.2158 53.3568 26.2012Z" fill="#FAAF5F"/>
<path d="M56.6639 7.6606C56.5893 7.53694 56.467 7.43303 56.3291 7.35925C54.8237 6.55394 52.4775 5.86916 53.0259 3.60076C53.1794 2.96586 53.6003 2.22185 54.2804 2.0213C54.6111 1.92363 55.0549 1.97039 55.3317 2.19172C55.6147 2.41825 55.6977 2.77674 56.1279 2.77362C56.5271 2.77051 56.8972 2.63127 57.0869 2.2655C57.1108 2.21874 57.117 2.17301 57.1108 2.13041C57.2197 2.04105 56.2026 1.01232 56.1082 0.921916C54.1581 -0.944341 52.1478 0.321305 50.7149 2.07014C50.0856 2.83909 49.5061 3.64545 48.9721 4.48401C48.9535 4.51311 47.0769 5.59795 47.0769 5.59795C47.051 5.60418 48.3553 9.4988 48.5025 9.41047C48.8322 9.212 49.1577 8.99898 49.4947 8.81402C49.9405 8.56879 50.4205 8.62594 50.9099 8.57814C51.1836 8.55112 51.5319 8.41916 51.8751 8.25809C52.7304 7.85803 53.7081 7.81335 54.5904 8.15106C54.9585 8.29238 57.3441 8.78804 56.665 7.6606H56.6639Z" fill="#AD6553"/>
<path d="M59.0613 8.34732C59.9685 8.08339 60.9389 8.21016 61.759 8.67984C62.0887 8.86896 62.4246 9.02899 62.6952 9.07886C63.1783 9.16719 63.6625 9.15056 64.0865 9.43216C64.4069 9.64414 64.7138 9.88418 65.0258 10.1086C65.1648 10.2094 66.7863 6.43639 66.7614 6.42807C66.7614 6.42807 64.9813 5.19048 64.9647 5.16035C64.5012 4.28125 63.9911 3.42918 63.4271 2.61035C62.1446 0.74929 60.2453 -0.679498 58.1479 1.01946C58.0463 1.10155 56.9473 2.04195 57.0489 2.14067C57.0396 2.18223 57.0417 2.22796 57.0614 2.27679C57.2075 2.62802 57.7871 3.03223 58.1717 2.81506C58.2671 2.76102 58.3438 2.67997 58.4278 2.60931C58.8788 2.22588 59.5631 2.14275 60.0939 2.40253C60.6672 2.68309 60.9047 3.34916 60.9969 3.94354C61.3567 6.24934 58.9607 6.73773 57.3942 7.4142C57.2501 7.47654 57.1194 7.57006 57.0354 7.68748C56.2651 8.75466 58.6839 8.45851 59.0623 8.34836L59.0613 8.34732Z" fill="#AD6553"/>
<path d="M72.6139 57.9171C72.8005 56.8312 72.6025 55.4191 72.5932 54.3945C72.5786 52.8327 72.5061 51.272 72.3868 49.7154C72.1567 46.7196 71.7513 43.7383 71.2391 40.7779C70.7436 37.9172 71.7513 33.8636 71.1043 31.0341C70.7135 29.3258 70.2729 27.4148 68.2937 26.675C66.9739 26.1824 60.0109 25.3875 58.9803 25.9382C58.9067 25.9777 58.8746 26.039 58.8715 26.1014C58.7906 26.1242 58.9078 26.5441 58.9223 26.6563C60.1809 36.611 61.3442 46.2042 62.5095 56.1704C62.8392 58.9926 63.1005 61.8232 63.1502 64.6652C63.1523 64.7576 63.2 64.8189 63.2632 64.8522C63.2238 65.1141 63.3877 65.3489 63.6697 65.3905C64.1486 65.4601 64.7759 64.9374 65.1626 64.7119C66.2782 64.0614 67.3471 63.334 68.3662 62.5402C69.6259 61.5592 72.0084 59.958 72.5102 58.3556C72.5538 58.2174 72.588 58.0709 72.6139 57.9182V57.9171Z" fill="#FAAF5F"/>
<path d="M50.0569 26.4876C50.1253 26.392 50.1305 26.2434 50.0051 26.1582C48.4012 25.0786 46.8564 23.9127 45.3852 22.6574C44.6688 22.0454 43.969 21.4136 43.2878 20.7621C42.4926 20.0015 41.3646 19.0881 41.3118 17.89C41.2869 17.3278 41.5295 16.7792 41.8737 16.3334C42.8109 15.1207 47.7968 11.6428 49.3727 10.4353C49.7625 10.1361 48.7309 5.85282 47.4411 4.80331C47.1032 4.52899 43.1779 6.73088 42.0593 7.38968C39.2662 9.03564 36.3373 11.0069 34.3965 13.6566C33.6614 14.6604 32.41 15.9156 32.156 17.146C31.8875 18.4459 31.7952 19.882 32.2939 21.0946C33.2892 23.5147 40.5622 34.8276 41.1407 37.5127C41.1469 37.5937 43.7399 34.414 43.8384 34.4473C43.8695 34.4577 43.9006 34.465 43.9317 34.4733C43.9825 34.5065 44.0364 34.5148 44.0872 34.5055C44.7984 34.6073 45.4174 34.1179 45.942 33.6576C46.62 33.0621 47.2317 32.3961 47.776 31.676C48.8916 30.2004 49.6858 28.5046 50.1264 26.7079C50.1492 26.6134 50.115 26.5386 50.0559 26.4897L50.0569 26.4876Z" fill="#FAAF5F"/>
<path d="M62.6226 26.7057C63.0622 28.5024 63.8574 30.1982 64.973 31.6737C65.5173 32.3939 66.129 33.061 66.807 33.6553C67.3316 34.1157 67.9516 34.6051 68.6618 34.5033C68.7126 34.5126 68.7665 34.5043 68.8173 34.471C68.8484 34.4627 68.8785 34.4555 68.9106 34.4451C69.0091 34.4118 68.8733 39.6012 70.5871 38.3064C70.753 34.9968 80.7308 23.2122 80.4882 18.3034C80.426 17.0492 79.409 14.8837 78.6739 13.8799C76.7331 11.2291 73.4849 9.03239 70.6918 7.38643C69.5731 6.72763 65.8107 4.80526 65.4727 5.07958C64.1829 6.12909 62.9875 10.1339 63.3784 10.4321C64.9543 11.6395 69.9401 15.1175 70.8774 16.3301C71.2216 16.7759 71.4631 17.3235 71.4393 17.8867C71.3875 19.0848 70.2595 19.9982 69.4632 20.7588C68.7821 21.4104 68.0822 22.0422 67.3658 22.6542C65.8946 23.9105 64.3499 25.0753 62.746 26.155C62.6205 26.2402 62.6257 26.3888 62.6941 26.4844C62.6361 26.5322 62.6008 26.608 62.6247 26.7026L62.6226 26.7057Z" fill="#FAAF5F"/>
<path d="M53.8544 25.7874C54.2017 24.766 51.1857 24.9686 50.2153 25.3666C49.7156 25.5713 49.67 25.8861 49.6161 26.3974C49.5269 27.2443 49.4668 28.0943 49.4367 28.9453C49.3776 30.612 49.4305 32.2819 49.5964 33.9414C49.7488 35.4668 49.2128 37.2593 49.8493 38.6694C49.9209 38.8273 50.4227 40.6988 50.431 40.5471C50.5077 39.2554 52.2287 30.5705 53.8544 25.7874Z" fill="#FAAF5F"/>
<path d="M58.8308 26.1373C59.6696 30.6429 60.5726 40.5457 60.5726 40.5457C60.7426 40.4065 60.7437 38.0342 60.81 37.8243C61.4424 35.8479 61.8883 33.8143 62.2034 31.7642C62.3631 30.724 62.4896 29.6776 62.5891 28.6302C62.6389 28.1065 62.6824 27.5817 62.7208 27.0569C62.7477 26.6849 62.896 26.155 62.5995 25.8526C62.3382 25.5856 61.4694 25.5222 61.1242 25.4567C60.5519 25.3476 58.6141 24.9818 58.8298 26.1373H58.8308Z" fill="#FAAF5F"/>
<path d="M50.1588 26.4127C50.0904 26.288 49.8996 26.3992 49.968 26.5239C50.7819 28.0151 51.2598 29.6382 51.3801 31.334C51.3905 31.4753 51.6113 31.4764 51.6009 31.334C51.4765 29.5997 50.9903 27.9371 50.1588 26.4117V26.4127Z" fill="#4F3333"/>
<path d="M62.3954 26.694C61.6064 27.9918 60.8651 29.3167 60.1715 30.6686C60.1072 30.7954 60.2969 30.9065 60.3623 30.7798C61.0548 29.4279 61.7961 28.103 62.5861 26.8051C62.6608 26.6836 62.469 26.5724 62.3954 26.694Z" fill="#4F3333"/>
<path d="M42.034 30.5599C42.0123 30.4196 41.7997 30.4788 41.8215 30.6191C42.0102 31.8245 42.1989 33.0299 42.3876 34.2363C42.4094 34.3766 42.6219 34.3173 42.6001 34.1771C42.4114 32.9717 42.2227 31.7663 42.034 30.5599Z" fill="#4F3333"/>
<path d="M70.6499 31.8196C70.4 32.998 70.1491 34.1774 69.8993 35.3558C69.8702 35.495 70.0828 35.5542 70.1118 35.415C70.3617 34.2366 70.6126 33.0572 70.8624 31.8789C70.8915 31.7396 70.6789 31.6804 70.6499 31.8196Z" fill="#4F3333"/>
<path d="M50.6694 37.7601C50.6715 37.5284 50.628 37.3164 50.5295 37.1855C50.2889 36.8644 49.8359 37.0026 49.6814 37.3195C49.5331 37.625 49.4554 38.5499 49.7301 38.8107C50.264 39.3157 50.6632 38.448 50.6684 37.7601H50.6694Z" fill="#4F3333"/>
<path d="M49.5486 45.1703C49.5507 44.9386 49.5072 44.7266 49.4087 44.5956C49.1681 44.2746 48.7151 44.4128 48.5606 44.7297C48.4123 45.0352 48.3346 45.96 48.6093 46.2208C49.1433 46.7258 49.5424 45.8582 49.5476 45.1703H49.5486Z" fill="#4F3333"/>
<path d="M48.6768 52.9186C48.6788 52.6868 48.6353 52.4749 48.5368 52.3439C48.2963 52.0229 47.8432 52.1611 47.6887 52.478C47.5404 52.7835 47.4627 53.7083 47.7374 53.9691C48.2714 54.4741 48.6705 53.6065 48.6757 52.9186H48.6768Z" fill="#4F3333"/>
<path d="M40.3995 13.9288C40.4057 13.7864 40.1859 13.7864 40.1786 13.9288C40.1475 14.5855 40.1921 15.2329 40.3062 15.8792C40.3311 16.0195 40.5436 15.9603 40.5187 15.82C40.4078 15.1924 40.3694 14.5647 40.3995 13.9288Z" fill="#4F3333"/>
<path d="M72.3503 14.7356C72.3326 14.5963 72.1118 14.5943 72.1294 14.7356C72.2072 15.3435 72.1968 15.9451 72.0911 16.5499C72.0662 16.6891 72.2787 16.7484 72.3036 16.6091C72.4135 15.9856 72.4311 15.3653 72.3503 14.7366V14.7356Z" fill="#4F3333"/>
<path d="M67.1833 6.49416C66.5384 7.97178 66.077 9.50968 65.8075 11.1006C65.7836 11.2398 65.9962 11.3001 66.02 11.1598C66.2854 9.58969 66.7364 8.06634 67.373 6.60638C67.429 6.47753 67.2392 6.36427 67.1822 6.49519L67.1833 6.49416Z" fill="#4F3333"/>
<path d="M45.3619 6.43673C45.2903 6.31308 45.0996 6.42426 45.1711 6.54792C45.9808 7.95177 46.5137 9.47408 46.7595 11.0764C46.7812 11.2167 46.9938 11.1574 46.972 11.0172C46.7232 9.39614 46.1799 7.85617 45.3608 6.43569L45.3619 6.43673Z" fill="#4F3333"/>
<path d="M56.3863 1.96363C55.8192 2.21613 55.4843 1.43887 55.0748 1.20611C54.8104 1.05648 54.4993 1.00556 54.1987 1.0253C53.4729 1.0731 52.8685 1.55733 52.375 2.05195C51.8214 2.60788 51.6824 3.08692 51.7654 3.86937C51.8742 4.90018 51.6109 5.80837 50.8084 6.5025C50.6954 6.60017 50.8603 6.76436 50.9723 6.66668C51.4823 6.22609 51.8442 5.65042 51.981 4.98435C52.1687 4.06784 51.6721 3.17628 52.3677 2.39382C53.0126 1.66852 54.1334 0.807089 55.0893 1.51057C55.5496 1.84933 55.8544 2.45305 56.5024 2.16418C56.6382 2.10391 56.521 1.90336 56.3852 1.96363H56.3863Z" fill="#8A4230"/>
<path d="M63.1295 7.01749C62.5168 6.31816 62.0938 5.50141 61.8999 4.59011C61.7423 3.84402 61.6925 3.07092 61.2654 2.41523C60.9678 1.95906 60.5168 1.59641 59.9736 1.49353C59.7299 1.44781 59.478 1.45405 59.2395 1.52159C58.7419 1.66187 58.3127 2.14194 57.7476 1.88944C57.6128 1.82917 57.4947 2.02972 57.6305 2.08999C58.1478 2.32171 58.5418 2.08064 59.0166 1.86138C60.0648 1.37715 61.0052 2.14194 61.3535 3.12079C61.6283 3.89182 61.6272 4.72623 61.9248 5.49518C62.1663 6.12073 62.5251 6.67874 62.9657 7.18167C63.0642 7.29389 63.228 7.12971 63.1295 7.01749Z" fill="#8A4230"/>
<path d="M54.5584 1.47178C53.9571 1.38865 53.3744 1.59232 52.9711 2.05264C52.8726 2.16487 53.0364 2.32905 53.1349 2.21683C53.4791 1.82404 53.9757 1.62453 54.4962 1.69623C54.6424 1.71597 54.7056 1.49256 54.5573 1.47178H54.5584Z" fill="#8A4230"/>
<path d="M56.2916 65.458C55.6322 64.9749 54.9739 64.4906 54.3145 64.0074C54.1994 63.9233 54.0895 64.1155 54.2035 64.1986L56.1807 65.6492C56.2957 65.7334 56.4056 65.5412 56.2916 65.458Z" fill="#537AAD"/>
<path d="M59.0444 17.2022C59.0309 17.49 58.9345 17.7083 58.7033 17.7083C58.4109 17.7083 58.3974 17.4599 58.4109 17.1721C58.4244 16.8842 58.5281 16.666 58.752 16.666C59.0579 16.666 59.0579 16.9144 59.0444 17.2022Z" fill="#2B141B"/>
<path d="M58.9739 17.2022C58.9604 17.49 58.9345 17.7083 58.7033 17.7083C58.4109 17.7083 58.3974 17.4599 58.4109 17.1721C58.4244 16.8842 58.5281 16.666 58.752 16.666C59.0579 16.666 58.9874 16.9144 58.9739 17.2022Z" fill="#2B141B"/>
<path d="M54.3128 17.0022C54.3076 17.29 54.3905 17.5134 54.6207 17.529C54.912 17.5487 54.9421 17.3014 54.9463 17.0126C54.9514 16.7247 54.8612 16.5003 54.6383 16.4857C54.3335 16.466 54.3169 16.7133 54.3128 17.0022Z" fill="#2B141B"/>
<path d="M59.3516 15.0771C59.0457 14.9056 58.6414 14.8318 58.3117 14.9742C58.0743 15.076 57.8783 15.3711 58.0069 15.6403C58.1541 15.9499 58.4879 15.9374 58.7793 15.898C59.0157 15.8657 59.6076 15.9873 59.7538 15.7411C59.8917 15.5093 59.5257 15.1747 59.3505 15.076L59.3516 15.0771Z" fill="#65372F"/>
<path d="M54.1179 14.9918C54.4186 14.811 54.8209 14.7268 55.1547 14.8588C55.3952 14.9544 55.5985 15.2433 55.4782 15.5165C55.3393 15.8304 55.0065 15.8272 54.713 15.7971C54.4756 15.7722 53.8878 15.9104 53.7343 15.6683C53.5902 15.4407 53.9458 15.0957 54.1179 14.9928V14.9918Z" fill="#65372F"/>
<path d="M56.3778 18.7176C56.2379 18.5389 56.0793 18.3446 56.0689 18.1066C56.0575 17.8687 56.1819 17.6411 56.2876 17.4374C56.3571 17.3034 56.1539 17.1881 56.0844 17.3221C55.958 17.5653 55.8263 17.8281 55.8356 18.1098C55.8449 18.3934 56.0108 18.6241 56.1788 18.8382C56.27 18.9556 56.4722 18.8361 56.3789 18.7166L56.3778 18.7176Z" fill="#8A4230"/>
<path d="M57.113 18.508L56.8382 18.3563C56.7066 18.2835 56.5915 18.4872 56.7232 18.5599C56.8144 18.6109 56.9067 18.6618 56.9979 18.7117C57.1296 18.7844 57.2446 18.5807 57.113 18.508Z" fill="#8A4230"/>
<path d="M57.554 19.8323C57.2917 19.8001 57.0356 19.8739 56.7744 19.8916C56.5204 19.9082 56.2508 19.9134 55.9989 19.8718C55.8268 19.8438 55.6225 19.7284 55.4484 19.7637C55.1166 19.8313 55.5873 20.4516 56.0238 20.5026C56.454 20.5535 56.9206 20.5961 57.2751 20.3415C57.3394 20.2947 57.8101 19.8625 57.5551 19.8313L57.554 19.8323Z" fill="white"/>
<path d="M61.0146 17.3336C60.9586 17.6433 60.8901 17.9498 60.8082 18.2533C60.7688 18.3987 60.9949 18.458 61.0343 18.3125C61.1162 18.0091 61.1856 17.7025 61.2406 17.3929C61.2675 17.2453 61.0405 17.1851 61.0146 17.3336Z" fill="#8A4230"/>
<path d="M52.544 18.1004C52.4227 17.7128 52.3014 17.3263 52.1812 16.9387C52.1366 16.7953 51.9116 16.8597 51.9562 17.0041C52.0775 17.3917 52.1988 17.7783 52.3191 18.1659C52.3636 18.3093 52.5886 18.2449 52.544 18.1004Z" fill="#8A4230"/>
<path d="M37.9501 34.4572C37.722 33.0128 36.9859 31.7513 36.1544 30.5751C35.2576 29.3052 34.4116 28.0022 33.5501 26.7085C32.8554 25.6663 31.9327 24.7685 30.7487 24.3144C29.0888 23.6784 26.9997 23.6826 25.3067 24.1969C24.6753 24.3881 24.0719 24.6905 23.5577 25.0979C21.2902 26.8924 20.5002 30.1376 20.7117 32.912C20.7542 33.4721 20.8258 34.0405 20.9616 34.585C21.368 36.2206 21.9994 37.1735 23.6717 37.8437C24.2544 38.1804 25.3285 38.2167 26.0096 38.2853C27.0122 38.3861 28.0313 38.437 29.0297 38.2728C29.4714 38.2001 29.9037 38.0806 30.3133 37.9029C30.9094 37.6452 31.4257 37.0903 32.1245 37.2649C32.6875 37.4052 33.1882 37.7834 33.7253 37.9975C34.2229 38.196 34.7548 38.331 35.295 38.329C36.1772 38.3269 37.0046 37.959 37.5022 37.2348C38.0631 36.4201 38.0973 35.3955 37.9491 34.4551L37.9501 34.4572Z" fill="#8C5441"/>
<path d="M36.9169 65.0508C36.8692 65.0352 36.8194 65.0228 36.7676 65.0134C35.8988 64.8586 34.6246 65.4384 34.0958 66.039C33.6552 66.5409 33.6863 67.4813 34.5437 67.5686C35.0642 67.6216 35.7246 67.4179 36.2067 67.259C36.6266 67.1197 37.0486 66.9212 37.3275 66.5929C37.7681 66.0744 37.5887 65.2701 36.9159 65.0498L36.9169 65.0508Z" fill="#D47D5D"/>
<path d="M48.0227 62.116C48.5929 59.1452 46.2996 54.4681 45.5593 53.4653C45.5593 53.4653 41.4444 57.175 41.5584 57.3111C43.9264 60.1261 41.9908 62.116 39.094 64.4311C39.009 64.4997 39.3024 66.9146 39.3615 66.9728C39.3625 66.9791 39.4289 66.551 39.431 66.5572C39.6642 67.3095 42.2199 67.8384 42.4853 67.694C46.9673 65.2333 47.7832 63.3577 48.0216 62.116H48.0227Z" fill="#F4B890"/>
<path d="M47.4062 57.3808C45.794 52.9105 44.4753 51.6864 43.3908 50.1724C43.3203 50.0737 43.2073 50.0644 43.1202 50.1028C42.3737 49.7339 41.6449 49.4908 40.8155 49.7755C40.0773 50.029 39.4075 50.5351 38.8964 51.118C38.236 51.8704 37.4625 53.4405 38.3552 54.1865C38.35 54.2551 38.3749 54.3279 38.4433 54.3788C39.9062 55.4678 41.0249 56.7303 42.4618 58.82C43.1969 59.8892 44.6194 60.0513 45.8376 58.9987C46.3788 58.5311 46.0729 58.9135 46.1538 58.2027C46.2398 57.4452 47.6571 58.0781 47.4062 57.3808Z" fill="#F4B890"/>
<path d="M15.1229 27.1814C14.7113 25.8233 13.0638 24.9483 11.7824 24.5826C10.6845 24.2688 9.52742 25.0232 8.80168 25.7588C5.46639 29.1391 2.72102 35.1743 1.77237 37.6495C0.899409 39.9272 0.0440722 42.3027 0.0015646 44.7706C-0.0202076 46.0383 0.178852 47.4151 1.00205 48.4283C1.83976 49.4601 3.14091 49.432 4.34667 49.3416C6.31861 49.1951 8.44399 48.9655 10.2366 48.0739C10.3807 48.0022 10.0842 47.4827 10.0074 47.3923C10.5321 46.6711 9.854 46.3531 9.75551 45.5083C9.59896 44.1658 10.0634 43.7023 9.43204 42.5011C9.47143 42.3681 9.21846 41.9431 9.04221 41.9649C8.11015 42.0761 6.78205 42.5437 5.87073 42.8399C5.7204 42.8887 5.57006 42.7619 5.58873 42.605C5.72662 41.4163 6.00966 40.0384 6.37253 38.9214C7.19572 36.3807 8.557 34.0687 10.0624 31.8761C10.6264 32.086 11.377 32.1338 11.9846 32.1297C13.1084 32.1224 14.0063 31.2485 14.5392 30.332C14.817 29.853 15.0254 29.3251 15.1281 28.7796C15.1509 28.6601 15.1706 28.5385 15.1799 28.418C15.1892 28.2901 15.1249 28.1488 15.1301 28.047C15.1374 27.9171 15.2276 27.7986 15.2297 27.6542C15.2317 27.4952 15.1706 27.3321 15.125 27.1824L15.1229 27.1814Z" fill="#F4B890"/>
<path d="M45.1832 53.3685C45.2547 53.1908 45.3159 53.0038 45.3086 52.8136C45.3003 52.5975 45.2039 52.3959 45.1106 52.2016C43.7348 49.344 41.6799 46.1144 39.5421 43.738C37.2985 41.2441 31.6015 40.2351 31.5693 40.3276C31.2884 41.1339 31.052 41.9559 30.8602 42.7892C30.7212 43.3951 30.6217 44.0881 30.9898 44.589C31.1764 44.8436 31.4605 45.0088 31.6751 45.2405C32.3272 45.943 32.2069 47.033 32.2526 47.9911C32.3521 50.1026 33.4656 52.0675 34.9492 53.5701C36.4328 55.0716 38.271 56.1669 40.1206 57.1842C40.3114 57.2891 40.5146 57.3961 40.7313 57.3816C40.921 57.3691 41.091 57.2652 41.2517 57.1644C42.4119 56.4381 43.6239 55.6525 44.4585 54.5978C44.7529 54.2247 45.0017 53.8184 45.1832 53.3695V53.3685Z" fill="#4F3333"/>
<path d="M30.265 40.0259C29.5081 39.1831 29.3567 37.9227 29.3567 36.8711C29.3567 35.8185 29.3941 34.7658 29.449 33.7143C29.4635 33.4337 29.1421 33.3506 28.9389 33.4617C28.4942 33.3651 28.0525 33.4254 27.5994 33.4347C27.052 33.4472 26.5067 33.4264 25.9603 33.3828C25.81 33.3703 25.7135 33.441 25.669 33.5366C25.5279 33.5916 25.4139 33.7215 25.445 33.8992C25.6264 34.9186 25.6969 35.9577 25.6233 36.9896C25.5943 37.3948 25.5373 37.8385 25.2978 38.1897C24.9868 38.6469 24.4196 38.7581 23.8919 38.8672C23.7644 38.8932 23.6918 38.968 23.6649 39.0564C23.4938 39.2112 23.5716 39.5811 23.895 39.6144C25.8525 39.8108 27.6958 40.6192 29.6927 40.5101C29.7839 40.5049 29.8544 40.4727 29.9062 40.4249C30.154 40.4425 30.4785 40.2649 30.2639 40.0259H30.265Z" fill="#F4B890"/>
<path d="M30.265 40.0262C29.5081 39.1834 29.6356 37.9147 29.6356 36.8621C29.6356 35.8094 29.646 34.6529 29.6999 33.6013C29.7144 33.3207 29.1411 33.3498 28.9389 33.461C28.4942 33.3644 28.0525 33.4246 27.5994 33.434C27.052 33.4465 26.5067 33.4257 25.9603 33.382C25.81 33.3696 25.7135 33.4402 25.669 33.5358C25.5279 33.5909 25.2097 33.6574 25.2408 33.8341C25.3672 34.5438 25.4201 35.5642 25.4222 36.302C25.4243 36.967 25.6897 37.6123 25.2978 38.189C24.9868 38.6462 24.4196 38.7574 23.8919 38.8665C23.7644 38.8925 23.6918 38.9673 23.6649 39.0556C23.4938 39.2105 23.5716 39.5804 23.895 39.6136C25.8525 39.81 27.6958 40.6185 29.6927 40.5094C29.7839 40.5042 29.8544 40.4719 29.9062 40.4241C30.154 40.4418 30.4785 40.2641 30.2639 40.0251L30.265 40.0262Z" fill="#D47D5D"/>
<path d="M29.8915 25.6221C29.0092 24.8095 27.6625 24.5549 26.3385 24.9955C24.9783 25.4486 24.2173 26.4233 23.8959 27.6733C23.8866 27.7086 23.8783 27.744 23.87 27.7783C23.5631 29.0533 23.6585 30.3729 23.8565 31.6552C24.04 32.8429 24.3749 34.2967 25.3971 35.1279C26.2525 35.8231 27.6314 35.9489 28.6775 35.5259C29.5339 35.1799 29.9496 34.8079 30.2129 33.9506C30.5509 32.8502 30.891 31.2302 30.9522 30.0893C31.0081 29.0418 31.0486 27.8707 30.6971 26.8576C30.525 26.3609 30.2461 25.9463 29.8926 25.62L29.8915 25.6221Z" fill="#F4B890"/>
<path d="M29.597 30.5975C29.597 30.8531 29.5203 31.0495 29.3161 31.0599C29.0579 31.0724 29.0351 30.8531 29.0351 30.5975C29.0351 30.3419 29.118 30.1445 29.3161 30.1351C29.5867 30.1216 29.597 30.3419 29.597 30.5975Z" fill="#2B141B"/>
<path d="M30.1789 28.7418C29.7933 28.4176 28.6393 28.5683 28.5626 29.1481C28.5025 29.5991 29.1774 29.6615 29.4708 29.6043C29.7331 29.5524 30.1924 29.4152 30.2826 29.1242C30.3344 28.959 30.2868 28.8322 30.1789 28.7418Z" fill="#8C5441"/>
<path d="M26.0679 28.732C25.6967 28.4244 25.0135 28.3122 24.8383 28.7361C24.7408 28.9731 24.8621 29.1549 25.057 29.2858C25.1949 29.4199 25.3981 29.5072 25.5702 29.5581C25.817 29.6319 26.1218 29.6215 26.2597 29.3638C26.3841 29.132 26.2742 28.9024 26.0689 28.732H26.0679Z" fill="#8C5441"/>
<path d="M25.1205 30.4992C25.1112 30.7631 25.1838 30.9699 25.3963 30.9876C25.6648 31.0104 25.6959 30.7839 25.7053 30.5189C25.7146 30.255 25.6358 30.0482 25.4295 30.0305C25.1485 30.0066 25.1299 30.2342 25.1205 30.4981V30.4992Z" fill="#2B141B"/>
<path d="M35.7576 45.204C35.6394 44.8632 35.8136 44.1919 35.8136 43.8199C35.8136 43.3315 35.7887 42.8431 35.7711 42.3548C35.7504 41.7604 34.3787 41.485 33.9163 41.2917C33.1377 40.9655 32.3601 40.6402 31.5825 40.3119C30.9024 40.0251 30.5634 39.759 30.271 39.0181C30.0004 38.3334 29.9911 37.5561 29.9476 36.8277C29.9133 36.2562 29.7682 36.3092 29.5671 36.3757C28.4276 36.7498 26.5532 36.6344 25.4801 36.093C25.0851 35.8946 25.167 36.8641 25.14 37.0698C25.0654 37.633 24.8974 38.2295 24.3158 38.4508C23.4138 38.7937 22.4289 38.4466 21.5113 38.3884C20.3139 38.3126 19.0749 38.5443 17.8868 38.6867C16.5763 38.8425 15.2679 39.0317 13.9751 39.3008C12.7164 39.5637 11.4702 39.9035 10.2676 40.3597C9.72429 40.5654 7.13962 41.3666 7.42888 42.2384C7.71192 43.0946 8.51645 46.2764 8.37856 49.1132C8.37338 49.2244 8.43144 49.3169 8.57244 49.3272C12.3048 49.587 15.7593 48.5967 15.9335 48.683C16.2487 48.8399 16.1937 49.1828 16.2103 49.48C16.2549 50.2718 16.3275 51.0626 16.4249 51.8492C16.6157 53.3788 16.9029 54.8959 17.2606 56.3953C17.3829 56.9087 19.048 63.0218 19.4886 62.8025C19.3476 62.8732 19.7499 64.036 19.9479 64.1014C20.0122 64.1222 20.0775 64.1409 20.1418 64.1607C20.1843 64.2438 20.2247 64.328 20.2672 64.4111C20.3699 64.6106 20.6373 64.4942 20.6487 64.3113C23.5071 65.1083 26.5024 65.1416 29.4499 64.9151C30.2513 64.8538 31.0517 64.7737 31.8511 64.6854C32.5571 64.6075 33.3917 64.6262 34.0656 64.3851C34.5767 64.2022 34.8131 63.7575 34.9749 63.266C35.2392 62.4648 35.4383 61.6335 35.627 60.8126C35.8561 59.814 36.0427 58.8071 36.192 57.794C36.8006 56.2696 37.2278 54.687 37.2972 53.0255C37.4092 50.3632 36.642 47.7467 35.7587 45.2051L35.7576 45.204Z" fill="#4F3333"/>
<path d="M31.2924 31.2046C31.2758 31.1474 31.2789 31.0882 31.3038 31.0352C32.1861 29.1876 32.466 26.8912 30.9979 25.2535C30.3085 24.4835 29.366 24.1843 28.3635 24.0887C27.6419 24.0201 26.8622 23.9993 26.1997 24.283C26.1624 24.2986 26.122 24.3038 26.0816 24.3007C25.9986 24.2955 25.9157 24.336 25.8887 24.4399C25.8887 24.442 25.8887 24.4441 25.8877 24.4461C25.8047 24.4981 25.7239 24.5573 25.6461 24.6228C25.6026 24.6592 25.5487 24.6789 25.4927 24.6799C24.9307 24.6914 24.3667 24.9969 23.9551 25.3741C22.4518 26.7519 22.5928 28.9881 23.4876 30.6538C23.5778 30.8211 23.8691 30.7515 23.8546 30.5541C23.7644 29.3061 24.3139 27.3661 25.5756 26.779C25.7062 26.7176 25.8607 26.7914 25.898 26.9307C26.0847 27.6238 26.4289 28.2753 26.9276 28.826C27.3951 29.3425 27.9799 29.7519 28.6237 30.0148C29.337 30.3068 30.4547 30.3774 30.8341 31.1162C30.8227 31.1775 30.8434 31.2347 30.8797 31.2773C30.9015 31.3033 30.9181 31.3334 30.9264 31.3656C30.9368 31.4062 30.9451 31.4488 30.9513 31.4924C30.9865 31.7428 31.366 31.6368 31.3318 31.3874C31.3224 31.3241 31.309 31.2628 31.2924 31.2035V31.2046Z" fill="#8C5441"/>
<path d="M41.9407 82.3442C41.0874 79.1156 40.4373 76.0055 39.0253 73.0482C38.3617 71.6579 37.6007 70.573 37.0222 69.139C36.8014 68.5945 36.4333 67.7425 36.452 67.2686C36.4883 66.3178 36.1897 65.3598 36.087 64.4152C36.03 63.8884 35.9668 63.3532 35.8299 62.8399C35.7574 62.5656 35.6786 62.3401 35.4142 62.2019C35.0098 61.9889 34.5568 62.2299 34.1462 62.3338C33.1395 62.5895 32.1193 62.7942 31.0908 62.949C29.0339 63.2587 26.9448 63.3688 24.8661 63.2794C24.2015 63.2514 23.5369 63.2026 22.8755 63.134C21.8511 63.0269 20.8403 62.8565 19.8284 62.6674C19.5454 62.6144 19.3681 62.4232 19.0674 62.5209C18.774 62.6165 18.661 63.2732 18.5946 63.534C18.4599 64.0588 18.4733 64.6158 18.3811 65.153C18.2649 65.8315 18.0141 66.4747 17.8834 67.1512C17.6844 68.1779 17.5879 69.2107 17.3277 70.2239C17.2717 70.4411 17.2137 70.6572 17.1535 70.8733C16.9368 71.661 16.7025 72.4445 16.5159 73.2404C16.5138 73.2488 16.5118 73.2581 16.5097 73.2675C16.2671 74.3107 16.039 75.3571 15.8254 76.4056C15.6357 77.3346 15.3547 78.3113 15.277 79.2549C15.2034 80.0425 15.1391 80.827 15.0188 81.6095C15.0188 81.6137 15.0188 81.6189 15.0167 81.623C14.9017 82.3556 14.8052 83.0913 14.7223 83.827C14.6611 84.3684 13.9696 89.007 14.8654 89.2159C15.8887 89.4548 15.5662 89.1587 16.6134 89.2377C18.8538 89.4081 21.0466 89.1847 23.257 88.8366C25.6302 88.4625 27.8986 88.2183 30.2708 88.7389C31.3894 88.9841 32.4926 89.3042 33.6268 89.4787C34.6998 89.6429 35.7791 89.6502 36.8584 89.5432C38.0569 89.4237 39.2451 89.1961 40.4208 88.9436C41.4233 88.7285 42.2704 88.7451 42.8582 87.8307C42.9246 87.7258 42.9754 87.6125 43.0065 87.4878C43.332 86.1962 42.2786 83.6202 41.9407 82.3442Z" fill="#7F66ED"/>
<path d="M36.1299 64.8085C35.0941 64.8126 31.8957 63.2238 31.7329 64.2931C31.4478 66.1708 32.3332 68.6293 33.0942 69.8285C33.5037 70.4748 34.1932 70.8375 34.8298 71.2199C35.5099 71.6293 36.0967 72.1842 36.7965 72.5541C37.7027 73.0331 38.1329 73.2607 39.0266 73.0466C39.0038 72.9978 38.981 72.9489 38.9582 72.9011C38.2936 71.5098 37.9173 70.0207 37.1511 68.726C36.9313 68.355 36.5114 67.6879 36.5301 67.2151C36.5622 66.3963 36.2138 65.6273 36.1299 64.8075V64.8085Z" fill="#F5E8DC"/>
<path d="M32.3614 66.3657C32.4112 66.8239 32.2733 67.5451 32.5449 67.941C32.7388 68.2226 33.1784 68.2174 33.4801 68.1893C34.4526 68.101 35.3691 67.6739 36.2483 67.1856C36.2752 66.2659 36.1871 65.3266 36.0876 64.4142C36.0306 63.8874 35.9673 63.3522 35.8305 62.8389C35.7579 62.5646 35.6791 62.3391 35.4147 62.2009C35.0104 61.9879 34.5573 62.229 34.1468 62.3329C33.3495 62.5355 32.5429 62.7049 31.7321 62.8441C31.9747 64.011 32.2308 65.1811 32.3604 66.3657H32.3614Z" fill="#F5E8DC"/>
<path d="M18.9074 76.0346C18.6482 78.0079 17.7151 80.482 15.7929 81.3913C15.5773 81.4941 15.2673 81.5679 15.0195 81.6095C15.1397 80.827 15.204 80.0425 15.2776 79.2548C15.3554 78.3113 15.6363 77.3345 15.8261 76.4056C16.0397 75.3571 16.2677 74.3107 16.5103 73.2674C16.5124 73.2581 16.5145 73.2487 16.5166 73.2404C16.7032 72.4444 16.9375 71.6609 17.1542 70.8733C18.5124 72.06 19.1355 74.3055 18.9074 76.0346Z" fill="#F5E8DC"/>
<path d="M38.1517 87.1999C37.089 85.9509 36.1808 84.653 35.6925 83.0653C35.0963 81.1294 34.7998 78.4308 32.6496 77.5642C31.8108 77.2265 30.7098 77.1527 29.8762 77.5569C29.2355 77.8676 28.8052 78.4495 28.5274 79.0917C27.8317 80.7013 27.8607 82.607 27.8794 84.3268C27.8939 85.6859 28.0297 87.0887 27.8887 88.45C28.6766 88.476 29.4677 88.5622 30.2712 88.7389C31.3899 88.9841 32.493 89.3041 33.6272 89.4777C34.7003 89.6429 35.7796 89.6502 36.8599 89.5431C37.8355 89.4465 38.8049 89.2761 39.767 89.0807C39.1802 88.504 38.6794 87.8182 38.1517 87.1999Z" fill="#F5E8DC"/>
<path d="M21.8278 65.7193C22.3866 66.4654 23.5437 67.543 24.5286 66.987C25.3197 66.5413 25.8038 65.5801 26.1709 64.7883C26.3938 64.3082 26.5866 63.8105 26.7483 63.3034C26.1211 63.3127 25.4928 63.3065 24.8666 63.2795C24.202 63.2514 23.5385 63.2026 22.876 63.134C22.3203 63.0758 21.7698 62.9989 21.2192 62.9116C21.0502 63.8884 21.1809 64.8579 21.8268 65.7204L21.8278 65.7193Z" fill="#F5E8DC"/>
<path d="M27.3102 66.5063C22.9382 66.5063 19.3126 65.4849 19.2555 65.4683C19.2006 65.4527 19.1684 65.3945 19.185 65.3394C19.2006 65.2843 19.2586 65.2521 19.3136 65.2687C19.4038 65.2947 28.4082 67.8302 35.1213 64.8521C35.1731 64.8282 35.2353 64.8521 35.2581 64.905C35.2809 64.958 35.2581 65.0194 35.2052 65.0422C32.6973 66.1551 29.8752 66.5074 27.3102 66.5074V66.5063Z" fill="#4F3333"/>
<path d="M39.8662 63.8011C39.6215 64.1014 38.6449 64.7706 38.3722 64.8787C38.3349 64.8932 38.2934 64.9088 38.2561 64.8932C38.2281 64.8818 38.2084 64.8558 38.1908 64.8299C37.9554 64.4911 37.7294 64.1336 37.4744 63.8094C37.0286 63.2442 36.4874 63.5663 35.9721 63.8281C34.9478 64.3498 34.0292 65.1894 33.3656 66.1267C33.1676 66.4062 33.0059 66.8509 33.3729 67.0806C33.6777 67.2707 34.0862 67.0505 34.3599 66.8884C34.7902 66.6327 35.1364 66.2586 35.5594 65.9926C35.9337 65.7568 36.4656 65.6819 36.8979 65.8368C37.0493 65.8908 37.0638 66.0997 36.9228 66.1766C36.6335 66.3335 36.253 66.5725 36.1877 66.613C35.8518 66.8187 35.5315 67.0588 35.2463 67.33C34.7207 67.8298 34.2479 68.8627 34.1919 69.3376C34.1505 69.6919 34.531 69.9018 34.8596 69.88C35.0483 70.4453 35.5626 70.704 36.1224 70.5918C36.0436 71.2589 36.6367 71.1706 37.1571 71.0937C37.7698 71.0033 37.8797 70.1792 38.4209 69.9683C38.8108 69.8166 39.298 69.9247 39.7128 69.8342C40.1897 69.7303 40.6676 69.5599 41.0533 69.2523C41.5872 68.8284 42.0206 68.2465 42.4571 67.7259C42.8531 67.2531 43.2575 66.7647 43.5498 66.2192C43.6317 66.0664 39.8631 63.8022 39.8631 63.8022L39.8662 63.8011Z" fill="#F4B890"/>
<path d="M30.9606 30.3761C30.9015 30.3979 30.8435 30.4291 30.7896 30.4675C30.7419 30.5018 30.4143 30.7772 30.4308 30.8374C30.6455 31.6033 30.6392 32.0252 30.52 32.8076C30.7865 32.7754 31.0882 32.3514 31.2063 32.1488C31.4085 31.7997 31.5993 31.383 31.6262 30.9756C31.6428 30.7242 31.5495 30.4561 31.2924 30.3709C31.1773 30.3324 31.0664 30.3387 30.9617 30.3771L30.9606 30.3761Z" fill="#F4B890"/>
<path d="M23.8451 30.2756C23.2863 29.9846 22.9431 30.2642 22.8965 30.5707C22.8011 31.2056 23.4729 32.6219 24.1064 32.89C24.4008 33.0147 24.1769 30.4491 23.8451 30.2756Z" fill="#F4B890"/>
<path d="M31.0788 30.7349C30.9419 31.0747 30.8465 31.4238 30.7936 31.7865C30.775 31.9112 30.9647 31.9642 30.9834 31.8395C31.0373 31.4768 31.1316 31.1277 31.2685 30.7879C31.3162 30.6705 31.1254 30.6185 31.0788 30.7349Z" fill="#D47D5D"/>
<path d="M23.8824 31.7323C23.7434 31.3655 23.591 31.0038 23.4251 30.6474C23.3712 30.5321 23.2022 30.6329 23.2551 30.7472C23.4137 31.088 23.5589 31.434 23.6926 31.7853C23.7372 31.9027 23.928 31.8518 23.8824 31.7323Z" fill="#D47D5D"/>
<path d="M38.2419 66.6445C36.9128 67.1589 35.8231 68.0899 35.114 69.3286C35.0476 69.4449 35.227 69.5499 35.2933 69.4335C35.9755 68.2437 37.0206 67.3397 38.2979 66.8451C38.4213 66.7973 38.3674 66.5967 38.2429 66.6445H38.2419Z" fill="#D47D5D"/>
<path d="M39.1896 67.9149C38.9543 67.971 38.7252 68.0458 38.5064 68.1362C38.3022 68.209 38.1093 68.3066 37.9289 68.4251C37.2654 68.82 36.7117 69.3821 36.3188 70.0752C36.2525 70.1916 36.4318 70.2966 36.4982 70.1802C37.0954 69.1276 38.071 68.396 39.2456 68.1154C39.3752 68.0843 39.3203 67.8837 39.1907 67.9149H39.1896Z" fill="#D47D5D"/>
<path d="M12.6968 30.5067C12.6325 30.5067 12.5724 30.4662 12.5506 30.4028C12.5216 30.3218 12.5641 30.2324 12.646 30.2044C13.2038 30.0069 13.6216 29.5154 13.7637 28.8878C13.7761 28.8327 13.7875 28.7756 13.7989 28.7184C13.8725 28.3495 13.9565 27.9318 14.3515 27.7177C14.5236 27.6242 14.7921 27.5588 14.987 27.6783C15.0607 27.7229 15.182 27.8352 15.1757 28.0752C15.1737 28.1614 15.1011 28.229 15.0161 28.2269C14.93 28.2248 14.8626 28.1531 14.8647 28.0669C14.8668 28.0025 14.8523 27.9609 14.8243 27.9432C14.7621 27.9048 14.62 27.9266 14.4998 27.991C14.2333 28.1355 14.1701 28.4472 14.1047 28.7787C14.0923 28.839 14.0809 28.8982 14.0674 28.9553C13.9015 29.6879 13.4091 30.2646 12.7497 30.4974C12.7321 30.5036 12.7155 30.5067 12.6978 30.5067H12.6968Z" fill="#D47D5D"/>
<path d="M14.4462 27.9922C14.4368 27.9922 14.4275 27.9922 14.4182 27.9901C14.3342 27.9745 14.2772 27.8934 14.2927 27.8093C14.3933 27.2523 12.946 26.3119 12.0098 25.8495C11.933 25.811 11.9009 25.7175 11.9393 25.6406C11.9776 25.5637 12.0709 25.5315 12.1476 25.57C12.4172 25.703 14.7738 26.8969 14.5996 27.8643C14.5861 27.9402 14.5208 27.9922 14.4472 27.9922H14.4462Z" fill="#D47D5D"/>
<path d="M13.4362 29.3824C13.3035 29.3824 13.1884 29.3398 13.1148 29.292L13.0091 29.2244L13.0526 29.107C13.4901 27.9276 11.0071 26.8313 10.9822 26.8199C10.9034 26.7856 10.8671 26.6942 10.9013 26.6152C10.9355 26.5362 11.0268 26.4999 11.1056 26.5342C11.2155 26.582 13.7037 27.6824 13.3875 29.0675C13.487 29.0821 13.6374 29.0551 13.7846 28.8348C13.8323 28.7631 13.9287 28.7444 14.0002 28.7922C14.0718 28.84 14.0904 28.9366 14.0427 29.0083C13.8509 29.2951 13.6249 29.3824 13.4352 29.3824H13.4362Z" fill="#D47D5D"/>
<path d="M12.6595 29.7818C12.5071 29.7818 12.3941 29.7309 12.3764 29.7226L12.2831 29.6779L12.2873 29.575C12.3391 28.3676 10.2106 27.8117 10.1889 27.8054C10.1059 27.7846 10.0551 27.6994 10.0769 27.6163C10.0976 27.5332 10.1826 27.4823 10.2656 27.5041C10.361 27.528 12.5309 28.0953 12.5983 29.4649C12.6512 29.4732 12.7206 29.4742 12.7901 29.4441C12.9 29.3974 12.9892 29.2841 13.0524 29.1085C13.0814 29.0274 13.1706 28.9859 13.2515 29.015C13.3323 29.0441 13.3738 29.1334 13.3448 29.2145C13.2494 29.4784 13.1011 29.6519 12.9052 29.733C12.8181 29.7683 12.7341 29.7808 12.6595 29.7808V29.7818Z" fill="#D47D5D"/>
<path d="M11.4631 29.8698C11.3791 29.8698 11.3107 29.8033 11.3076 29.7191C11.3076 29.7149 11.2951 29.6079 10.9489 29.3097C10.8286 29.2058 10.5611 29.0748 10.1972 28.9408C9.93905 28.8452 9.71926 28.7818 9.71718 28.7808C9.63528 28.7569 9.58759 28.6706 9.61143 28.5875C9.63528 28.5054 9.72133 28.4576 9.80427 28.4815C9.8136 28.4846 10.0355 28.549 10.304 28.6478C10.7146 28.7984 10.9997 28.9418 11.151 29.0728C11.4683 29.346 11.6124 29.5424 11.6176 29.7087C11.6207 29.7949 11.5533 29.8666 11.4673 29.8698C11.4652 29.8698 11.4641 29.8698 11.4621 29.8698H11.4631Z" fill="#D47D5D"/>
<path d="M11.6581 30.4375C11.4217 30.4375 11.1884 30.3741 11.0091 30.3252C10.7582 30.2566 10.5778 30.1205 10.4731 29.9221C10.2958 29.5843 10.3943 29.1728 10.4689 28.9577C10.4969 28.8777 10.5861 28.8299 10.6669 28.857C10.7478 28.884 10.7934 28.9661 10.7675 29.0471C10.7675 29.0482 10.7634 29.0585 10.7634 29.0596C10.7167 29.1936 10.6213 29.5334 10.7488 29.7755C10.8121 29.8961 10.9241 29.9771 11.091 30.0228C11.3616 30.0966 11.7317 30.1974 11.9867 30.0457C12.1329 29.9584 12.2335 29.7942 12.2926 29.5449C12.3123 29.4607 12.3963 29.4087 12.4803 29.4295C12.5642 29.4493 12.615 29.5334 12.5953 29.6176C12.5165 29.9491 12.3662 30.1839 12.1464 30.3148C11.994 30.4052 11.826 30.4375 11.6591 30.4375H11.6581Z" fill="#D47D5D"/>
<path d="M10.08 31.2372C10.0085 31.2372 9.94526 31.1884 9.92868 31.1156C9.91001 31.0315 9.96289 30.9483 10.0458 30.9296C10.3019 30.8715 10.4688 30.7613 10.5404 30.6023C10.6793 30.2927 10.4522 29.8729 10.4491 29.8687C10.4077 29.7939 10.4346 29.6983 10.5103 29.6567C10.585 29.6152 10.6793 29.6422 10.7218 29.717C10.7342 29.7399 11.0266 30.275 10.8255 30.7281C10.7114 30.9826 10.473 31.1531 10.1153 31.2341C10.1039 31.2362 10.0925 31.2383 10.0811 31.2383L10.08 31.2372Z" fill="#D47D5D"/>
<path d="M5.50987 45.2876C5.43418 45.2876 5.36783 45.2315 5.35643 45.1546C5.30873 44.8304 5.3077 44.4428 5.31496 44.1737C5.33051 43.6043 5.34087 43.597 5.4093 43.5502C5.45803 43.517 5.52127 43.5128 5.57311 43.5419C5.62495 43.57 5.65605 43.6261 5.65294 43.6853C5.65294 43.6905 5.65294 43.6947 5.65191 43.6999C5.64672 43.7518 5.58037 44.5416 5.66435 45.1099C5.67679 45.1952 5.61769 45.2741 5.53268 45.2866C5.52542 45.2876 5.51713 45.2887 5.50987 45.2887V45.2876Z" fill="#D47D5D"/>
<path d="M27.3273 32.2569C27.1925 32.1 27.0443 31.9212 26.9727 31.7238C26.8659 31.4297 27.0339 31.1845 27.2081 30.96C27.2848 30.8613 27.1469 30.72 27.0691 30.8208C26.8887 31.0525 26.6938 31.3133 26.7395 31.6261C26.782 31.9181 27.0028 32.1821 27.1884 32.3971C27.2713 32.4938 27.4102 32.3535 27.3273 32.2579V32.2569Z" fill="#D47D5D"/>
<path d="M27.9976 31.9536C27.8628 31.8694 27.7104 31.8289 27.5518 31.8331C27.4253 31.8362 27.4243 32.0346 27.5518 32.0305C27.6772 32.0274 27.7913 32.0575 27.8981 32.124C28.0059 32.1915 28.1054 32.0201 27.9976 31.9536Z" fill="#D47D5D"/>
<path d="M28.5418 33.1127C28.5407 33.1065 28.5387 33.0992 28.5376 33.093C28.493 32.9184 28.2608 33.0452 28.1509 33.0681C27.9591 33.1075 27.7642 33.1252 27.5693 33.1262C27.196 33.1294 26.8249 33.0732 26.4579 33.0099C26.405 33.0005 26.3117 33.0493 26.2878 33.0961C26.2692 33.1335 26.2806 33.1813 26.3055 33.2146C26.5719 33.5783 27.0322 33.7092 27.4656 33.6822C27.7238 33.6666 28.6133 33.5024 28.5428 33.1127H28.5418Z" fill="#D47D5D"/>
<path d="M36.326 47.6772C36.2772 47.5546 36.0771 47.6075 36.1259 47.7322C36.9625 49.85 37.2269 52.1381 36.8827 54.3909C36.863 54.5218 37.0621 54.578 37.0828 54.446C37.4332 52.1558 37.1782 49.8333 36.326 47.6772Z" fill="#3D2323"/>
<path d="M30.4097 53.4066C29.6291 55.7405 28.5311 57.9455 27.1418 59.9749C27.0662 60.085 27.2455 60.19 27.3212 60.0798C28.7208 58.0348 29.824 55.8122 30.6098 53.4617C30.6524 53.3349 30.4523 53.2798 30.4097 53.4066Z" fill="#3D2323"/>
<path d="M28.89 39.6755C27.7392 40.2304 26.3603 40.0049 25.4406 39.1196C25.3442 39.0271 25.198 39.1736 25.2945 39.2661C26.2856 40.221 27.7578 40.4517 28.9957 39.8552C29.116 39.7971 29.0113 39.6183 28.891 39.6755H28.89Z" fill="#3D2323"/>
<path d="M18.0301 47.3554C17.6507 47.4967 17.2723 47.638 16.8928 47.7794C16.7684 47.8261 16.8223 48.0267 16.9478 47.9799C17.3272 47.8386 17.7056 47.6973 18.0851 47.556C18.2095 47.5092 18.1556 47.3086 18.0301 47.3554Z" fill="#3D2323"/>
<path d="M23.2064 68.8788C22.1572 74.5929 21.4511 80.3663 21.0924 86.1645C21.0841 86.2986 21.2915 86.2975 21.2998 86.1645C21.6574 80.3839 22.3604 74.6303 23.4065 68.9339C23.4303 68.8029 23.2302 68.7468 23.2064 68.8788Z" fill="#4F3333"/>
<path d="M31.4997 68.8259C31.4531 68.7022 31.2519 68.7552 31.2996 68.8809C33.3296 74.2615 34.4742 79.9465 34.6795 85.6949C34.6847 85.8279 34.892 85.829 34.8868 85.6949C34.6805 79.9278 33.5359 74.223 31.4997 68.8259Z" fill="#4F3333"/>
<path d="M35.2539 70.7827C35.1865 70.6673 35.0071 70.7723 35.0745 70.8876C37.7836 75.5065 39.5461 80.6418 40.2366 85.9559C40.2532 86.0868 40.4616 86.0879 40.444 85.9559C39.7483 80.6044 37.9827 75.4359 35.2539 70.7827Z" fill="#4F3333"/>
<path d="M24.9109 77.6938C24.9129 77.5598 24.7056 77.5598 24.7035 77.6938C24.6548 81.0231 24.7533 84.3525 24.9979 87.6735C25.0073 87.8065 25.2157 87.8075 25.2053 87.6735C24.9606 84.3525 24.8621 81.0231 24.9109 77.6938Z" fill="#4F3333"/>
<path d="M31.9166 31.4791C31.8046 31.4199 31.7051 31.5903 31.817 31.6495C33.3504 32.4611 36.0139 33.973 35.5494 36.072C35.5225 36.1957 35.7122 36.2487 35.7391 36.125C36.2295 33.9065 33.5391 32.3385 31.9166 31.4791Z" fill="#633524"/>
<path d="M24.7079 36.0294C23.7821 35.4309 23.7976 34.2743 23.8432 33.2923C23.8495 33.1656 23.6525 33.1656 23.6462 33.2923C23.5975 34.3543 23.6183 35.5597 24.6084 36.1998C24.7152 36.2684 24.8147 36.098 24.7079 36.0294Z" fill="#633524"/>
<path d="M28.1011 24.5465C27.0705 24.5891 25.7009 25.0286 25.8108 26.3151C25.8212 26.4408 26.0192 26.4418 26.0078 26.3151C25.9083 25.1461 27.1742 24.7813 28.1011 24.7439C28.2276 24.7387 28.2286 24.5413 28.1011 24.5465Z" fill="#633524"/>
<path d="M34.1944 31.2686C32.5729 29.7775 32.4422 27.0851 30.3666 26.0232C30.2536 25.965 30.1541 26.1354 30.2671 26.1936C32.3106 27.24 32.4495 29.9323 34.0555 31.4089C34.1488 31.4952 34.2887 31.3549 34.1944 31.2697V31.2686Z" fill="#633524"/>
<path d="M33.7465 29.4806C33.5827 29.0483 33.4386 28.6109 33.3142 28.1661C33.28 28.0435 33.0903 28.0955 33.1245 28.2191C33.2489 28.6639 33.393 29.1024 33.5568 29.5336C33.6014 29.651 33.7922 29.6001 33.7465 29.4806Z" fill="#633524"/>
<path d="M31.5694 34.138C31.4947 34.0362 31.3237 34.1349 31.3993 34.2378C31.8545 34.8602 32.0442 35.5949 31.9281 36.3607C31.9094 36.4854 32.0992 36.5384 32.1178 36.4137C32.2412 35.598 32.0566 34.8051 31.5694 34.138Z" fill="#633524"/>
<path d="M41.0244 67.6071C40.8056 67.0897 40.4718 66.6408 40.0177 66.3072C39.7212 66.09 39.4298 65.9487 39.2038 65.6422C39.0628 65.451 38.9664 65.2992 38.7435 65.1953C38.6232 65.1392 38.5175 65.318 38.6388 65.3751C38.898 65.4956 39.0016 65.7565 39.1789 65.9622C39.321 66.1264 39.4868 66.2126 39.6683 66.3249C40.2084 66.6605 40.5983 67.1271 40.845 67.7121C40.8969 67.8347 41.0752 67.7287 41.0244 67.6071Z" fill="#D47D5D"/>
<path d="M68.7976 74.7596C68.0719 77.8884 69.0661 92.2053 69.3119 92.5909C69.9153 93.5396 81.4089 93.1977 81.5001 92.8309C81.7179 91.9144 81.496 87.9969 81.5831 87.0617C81.6256 86.6097 81.6297 86.14 81.6588 85.6786C81.6722 85.4687 81.9605 85.4251 82.032 85.6225C82.2518 86.2346 82.4405 86.8757 82.6136 87.4836C82.8106 88.1788 83.2098 91.8157 83.3456 92.5275C83.3777 92.6948 83.413 92.8693 83.5187 93.0003C83.7551 93.2923 84.2082 93.2715 84.5451 93.3037C85.0117 93.3484 87.8151 93.5157 88.7524 93.525C89.6886 93.5344 93.2042 93.9604 93.8512 93.5894C93.901 93.5614 93.9383 93.5271 93.9683 93.4897C94.128 93.4481 94.2752 93.3203 94.2618 93.1042C93.7859 85.3742 92.4153 77.1194 91.3153 71.9623C91.2634 71.7181 91.4521 71.159 91.2593 71.1435C91.2427 71.1383 91.2271 71.1331 91.2085 71.1289C87.2625 70.4659 83.2512 70.255 79.2607 70.5439C77.3282 70.6842 75.4164 70.9554 73.573 71.5799C71.7514 72.1971 70.021 73.0565 68.301 73.9127C68.2938 73.9169 68.2886 73.921 68.2813 73.9252C68.047 73.84 67.7142 73.9657 67.6903 74.2982C67.6001 75.5701 69.0889 73.5199 68.8007 74.7596H68.7976Z" fill="#4F3333"/>
<path d="M71.3499 74.9786C71.3603 74.8456 71.5676 74.8445 71.5573 74.9786L70.9217 83.4463C70.9114 83.5793 70.704 83.5804 70.7144 83.4463L71.3499 74.9786Z" fill="#3D2323"/>
<path d="M89.2975 65.4264C89.4354 66.1029 89.9766 66.7129 90.7147 66.6214C90.8599 66.6038 90.9636 66.5258 91.0289 66.425C92.133 66.477 93.3056 66.3824 94.3165 65.9709C95.3937 65.5314 95.8945 64.6533 96.3289 63.6246C98.3215 58.9008 99.4952 53.727 99.5978 48.5927C99.631 46.9156 99.7606 45.6572 99.0027 44.1141C98.0862 42.2447 95.0474 40.6777 91.7847 40.8482C91.3845 40.8689 91.8334 43.501 91.9796 43.7515C90.8246 45.0898 91.7308 44.4757 91.2777 46.1778C90.862 47.7396 90.666 49.3533 90.5043 50.9588C90.3104 52.8926 90.1342 54.8285 89.9506 56.7633C89.7578 58.7885 89.565 60.8138 89.3721 62.838C89.2923 63.6766 89.1254 64.5889 89.2964 65.4254L89.2975 65.4264Z" fill="#D4BBB2"/>
<path d="M90.1665 76.6421C90.4288 79.614 90.5542 82.5952 90.5418 85.5775C90.5418 85.7115 90.3334 85.7115 90.3344 85.5775C90.3469 82.5942 90.2214 79.6129 89.9591 76.6421C89.9477 76.5091 90.1551 76.5101 90.1665 76.6421Z" fill="#3D2323"/>
<path d="M74.4495 75.8177C79.2052 78.3085 92.4354 79.943 93.0326 79.6074C93.6215 79.2769 93.4794 78.4384 93.4483 77.8835C93.3996 77.0106 93.3581 76.1367 93.2959 75.2639C93.2638 74.8077 93.2182 74.3525 93.1663 73.8984C93.1352 73.6252 92.8729 72.7866 92.988 72.5569C93.072 72.3876 92.9921 72.1714 92.8346 72.0509C92.8263 72.0436 92.818 72.0384 92.8097 72.0322C92.8045 72.0291 92.7993 72.0249 92.7941 72.0218C92.7744 72.0093 92.7537 71.9989 92.7309 71.9906C92.7278 71.9896 92.7247 71.9886 92.7216 71.9865C92.7102 71.9823 92.6987 71.9792 92.6863 71.9771C92.5961 71.9522 92.4955 71.9553 92.3908 72.0062C91.7107 72.3335 90.9611 72.4042 90.2188 72.4738C89.491 72.5424 88.7632 72.6089 88.0364 72.6764C86.5808 72.8115 85.1251 72.9518 83.6726 73.117C80.7686 73.4475 77.874 73.8818 75.0311 74.5718C74.6911 74.6539 74.1343 75.6535 74.4495 75.8177Z" fill="#F5E8DC"/>
<path d="M68.0054 77.1351C74.141 77.3741 80.3938 77.0801 86.3874 75.6689C87.9187 75.3084 89.4251 74.8595 90.9326 74.4189C91.2166 74.3358 93.6479 73.7788 93.6437 73.3683C93.595 69.3636 93.4644 65.3598 93.2508 61.3603C93.481 60.9841 93.708 60.6048 93.9351 60.2266C95.033 58.3894 96.1278 56.5419 96.9935 54.5811C97.8561 52.6254 98.4129 50.568 98.7809 48.4669C99.0588 46.877 99.2941 45.6207 98.6513 44.0943C98.0303 42.6229 96.5882 41.775 95.1305 41.2731C91.7288 40.102 88.4101 39.8942 85.2894 40.2766C82.3367 40.6382 79.5322 41.2346 76.733 42.1449C74.7838 42.7777 71.4776 44.2273 70.0033 45.7039C68.1029 47.6075 68.501 50.2812 67.8219 52.8229C66.781 56.7217 66.2864 60.7981 66.1962 64.7977C66.1133 68.4679 66.5135 72.057 66.839 75.6908C66.9189 76.5792 66.9624 77.0967 68.0064 77.1372L68.0054 77.1351Z" fill="#D4BBB2"/>
<path d="M83.308 42.9455C84.0576 44.1696 85.1711 45.5204 86.7718 45.1692C86.974 45.1245 87.0642 44.977 87.0684 44.819C87.0995 44.7816 87.1264 44.739 87.1461 44.6871C87.4354 43.8953 87.7236 43.1034 88.0129 42.3106C88.2451 42.2316 88.4079 41.9895 88.2202 41.7432C87.7112 41.0761 87.1803 40.4267 86.6132 39.8074C86.0679 39.2109 85.3618 38.6685 84.9544 37.964C84.8953 37.8611 84.8134 37.8039 84.7263 37.779C84.521 37.6096 84.1426 37.6294 84.041 37.964C83.759 38.8929 83.6595 40.0464 82.6745 41.8648C82.2816 42.5901 82.8591 42.2119 83.308 42.9455Z" fill="#D37C61"/>
<path d="M80.7146 84.7729C81.7679 83.9229 82.8213 83.0739 83.8747 82.2239C83.9773 82.1408 84.1256 82.2873 84.0208 82.3704C82.9675 83.2204 81.9141 84.0694 80.8608 84.9194C80.7581 85.0025 80.6099 84.856 80.7146 84.7729Z" fill="#3D2323"/>
<path d="M84.6053 48.3197C84.71 48.3457 84.821 48.2564 84.8738 48.1649C85.218 47.5747 85.4783 46.9585 85.6618 46.3153C85.7147 46.1324 85.8878 46.0067 86.0765 46.0243C86.2724 46.043 86.4694 46.042 86.6664 46.0223C86.8655 46.0025 87.0469 46.1386 87.0905 46.335C87.2252 46.9336 87.3341 47.7742 87.4253 48.248C87.6078 49.1905 88.5772 47.3471 88.8996 45.8092C89.0987 44.8564 89.248 44.3067 89.1267 43.3403C89.107 43.1813 88.9929 43.0878 88.8685 43.0566C88.8561 43.0296 88.8405 43.0036 88.8177 42.9787C88.6342 42.7708 88.432 42.6202 88.1791 42.5069C87.9862 42.4207 87.7955 42.4892 87.7218 42.6929C87.4284 43.5107 86.5306 44.687 85.4969 44.3181C84.3109 43.8941 83.5094 41.4512 83.3487 40.3081C83.3156 40.0681 81.8434 41.2091 81.6827 42.3562C81.5842 43.0639 82.0849 47.7035 84.6032 48.3197H84.6053Z" fill="#F5E8DC"/>
<path d="M84.7429 42.3165C85.5422 43.4596 86.7874 43.5084 87.8832 43.5583C89.3969 43.6269 90.3684 42.1451 91.0371 40.842C92.3476 38.2868 93.6321 34.2956 91.7763 31.7082C90.9158 30.509 89.5089 29.4294 87.9838 29.4086C85.4634 29.3753 84.21 31.4868 83.6439 33.5443C83.6418 33.5536 83.6377 33.5619 83.6366 33.5713C83.2313 36.4839 83.0975 39.9619 84.7429 42.3165Z" fill="#F4B890"/>
<path d="M82.4756 34.6083C82.5109 35.0915 82.5472 35.5746 82.5824 36.0578C82.6073 36.3945 82.5772 36.7935 82.7193 37.1053C82.9277 37.5666 83.6907 37.7142 84.1396 37.7391C84.5813 37.7641 84.7752 37.4575 84.8198 37.0492C84.8664 36.619 84.8281 36.1877 84.8892 35.7555C84.9483 35.3377 85.0499 34.9304 85.1837 34.5314C85.3071 34.521 85.4221 34.4129 85.3662 34.2643C85.08 33.5047 84.7161 32.7784 84.2589 32.1071C83.981 31.6998 83.6316 31.0992 83.0697 31.095C82.4943 31.0898 82.401 31.6353 82.3782 32.0926C82.3367 32.9322 82.4145 33.7718 82.4767 34.6083H82.4756Z" fill="#A8654E"/>
<path d="M82.5853 35.4765C83.704 34.9455 83.9974 36.2641 84.0689 36.7827C84.1114 37.0882 84.3032 39.449 83.196 38.8661C83.1929 38.864 83.1887 38.863 83.1856 38.8609C82.7211 38.6281 82.5781 38.0265 82.4568 37.6576C82.322 37.2503 82.2411 36.8305 82.2162 36.4127C82.1965 36.0916 82.1571 35.6802 82.5864 35.4765H82.5853Z" fill="#F4B890"/>
<path d="M94.4338 61.3716C94.4763 61.8746 95.0051 62.1437 95.3939 62.3432C96.3342 62.8254 97.3814 62.9927 98.4212 62.8763C98.4741 62.87 98.527 62.8763 98.5778 62.895C98.7261 62.948 98.895 62.9158 99.0029 62.737C99.9888 61.1004 100.886 59.4015 101.622 57.637C102.121 56.4389 102.546 55.2086 102.865 53.9502C103.187 52.6586 103.307 51.3213 103.341 49.9922C103.364 49.1028 103.433 48.1052 103.177 47.2438C102.976 46.5673 102.275 45.5926 101.453 45.9179C101.252 45.9968 101.092 46.2286 100.852 46.1569C100.452 46.0374 99.4881 46.0374 99.1584 46.3907C99.0236 46.5351 98.9147 46.6993 98.8256 46.8749C98.7675 46.9892 98.6535 47.0619 98.526 47.0692C98.4907 47.0713 98.4555 47.0744 98.4202 47.0786C97.6592 47.1731 97.3741 47.7675 97.2953 48.4211C97.2684 48.4273 97.2414 48.4336 97.2155 48.4419C96.6929 48.6196 96.469 49.2514 96.3187 49.7377C96.1476 50.2894 96.103 50.9254 96.4866 51.4002C96.6961 51.66 96.9729 51.8117 97.2632 51.9416C97.3627 51.9863 97.4332 52.0778 97.456 52.1848C97.5545 52.6462 97.7308 53.0899 97.9796 53.492C98.0376 53.5866 98.0522 53.7029 98.0107 53.8058C97.1885 55.883 96.2326 57.9031 95.1357 59.8472C94.8921 60.2795 94.3913 60.8469 94.4349 61.3727L94.4338 61.3716Z" fill="#F4B890"/>
<path d="M72.3666 58.4131C72.3521 58.4609 72.3531 58.5171 72.3749 58.5794C72.7761 59.7162 73.4593 60.8249 74.5645 61.3144C75.536 61.7435 76.7231 61.5939 77.4664 60.7782C77.4976 60.7439 77.5183 60.7075 77.5307 60.6701C77.6583 60.2804 78.2409 59.7972 78.4929 59.4616C78.808 59.0428 79.1128 58.6147 79.4042 58.1773C79.963 57.3397 80.4886 56.469 80.9365 55.566C81.9069 53.6062 82.7353 51.5165 83.2299 49.3832C83.572 47.9077 83.7866 45.791 82.134 45.0189C81.7203 44.8256 81.0226 44.8516 80.6431 45.0106C80.6245 45.0179 79.3492 45.1924 79.3326 45.1893C78.3487 44.9784 77.6645 45.4325 77.3566 46.2991C77.1865 46.7771 76.468 46.5921 76.1332 47.0275C75.79 47.4733 75.734 48.1446 75.6127 48.6828C75.4344 49.4757 75.2685 50.3413 75.6552 51.0977C75.9061 51.5893 76.1021 51.5186 75.9579 52.0402C75.8408 52.4611 75.5101 52.9089 75.3079 53.2955C74.4484 54.9404 73.5412 56.5916 72.3116 57.9694C72.1737 58.1243 72.2411 58.3217 72.3686 58.4131H72.3666Z" fill="#F4B890"/>
<path d="M65.4645 56.8768C64.8009 60.2404 65.0767 63.1915 66.946 66.1478C67.6199 67.2129 68.4535 68.2073 69.7059 68.57C72.4409 69.3607 75.2205 66.9926 76.7207 64.958C77.6196 63.7391 78.5485 62.4652 79.296 61.1465C79.858 60.1542 80.2291 59.0132 80.0674 57.8878C80.5422 57.3267 80.8999 56.6928 81.1353 55.9914C81.1508 55.9447 81.155 55.9021 81.1518 55.8626C81.2555 55.6724 81.1705 55.3815 80.8947 55.3981C78.9052 55.5124 77.0006 54.6666 75.742 53.1193C75.6331 52.9853 75.489 52.9915 75.3822 53.0674C75.3221 53.0746 75.262 53.1058 75.2091 53.1692C74.8804 53.5672 74.5621 53.9735 74.2532 54.386C73.7192 54.333 73.2589 54.465 72.8494 54.7071C73.2454 51.5378 72.0106 44.3242 71.7494 44.4406C69.8842 45.2761 68.9014 47.055 67.9641 48.78C66.6485 51.2011 65.9932 54.1979 65.4645 56.8768Z" fill="#D4BBB2"/>
<path d="M92.0348 65.433C92.013 67.5778 94.3603 68.7395 95.5329 68.6844C97.0787 68.6127 98.0605 67.7004 99.0444 66.5968C100.421 65.0537 101.564 63.3195 102.449 61.4574C102.981 60.4598 103.483 59.376 103.472 58.2236C103.469 57.8589 103.438 57.4703 103.338 57.118C103.299 56.9819 102.844 56.2503 102.861 56.2036C102.939 55.9698 103.555 54.1285 102.717 54.4911C101.222 55.1385 99.5058 55.1177 98.0242 54.4423C97.8615 54.3685 97.7091 54.436 97.622 54.5483C97.538 54.5763 97.4675 54.6407 97.4385 54.753C97.3887 54.9483 97.3306 55.1426 97.2664 55.3338C97.2404 55.4097 96.7107 55.5417 96.607 55.6175C96.381 55.7838 96.1954 56.0602 96.0139 56.2722C95.6127 56.7418 95.2301 57.2292 94.8673 57.729C94.1405 58.7286 93.4873 59.7823 92.8985 60.8692C92.2287 62.1058 92.0483 64.0219 92.0348 65.432V65.433Z" fill="#D4BBB2"/>
<path d="M85.87 36.3972C86.2401 36.6039 86.6486 36.7286 87.0478 36.8305C87.3215 36.9001 87.786 37.0092 87.9861 36.6933C88.1799 36.3888 87.9809 35.9109 87.758 35.7134C87.2977 35.3071 86.5906 35.3289 86.0556 35.4755C85.6191 35.596 85.3703 36.1187 85.87 36.3961V36.3972Z" fill="#633524"/>
<path d="M90.3954 37.4678C90.5685 37.5467 90.7769 37.5436 90.9604 37.5675C91.2248 37.6018 91.5659 37.7151 91.8241 37.6642C92.0148 37.6268 92.104 37.4428 92.0781 37.1789C92.0397 36.7872 91.5317 36.4775 91.1253 36.3642C90.8091 36.2759 90.4068 36.3331 90.2129 36.6458C90.0408 36.9222 90.0875 37.3275 90.3964 37.4678H90.3954Z" fill="#633524"/>
<path d="M81.9201 32.1074C82.0445 32.5199 82.3224 32.7786 82.6106 33.0904C83.0564 33.5715 83.1995 35.0304 84.0476 35.0564C84.087 35.0574 84.1274 35.0533 84.1658 35.0605C84.2311 35.073 84.285 35.1146 84.3358 35.154C84.7661 35.4866 85.2409 35.7889 85.7821 35.8949C86.173 35.9718 86.6115 35.9313 86.962 35.736C87.2066 35.5988 87.4669 35.1665 87.7934 35.3006C88.0153 35.392 88.2424 35.7297 88.4093 35.8939C88.9961 36.4696 89.9053 37.0733 90.7493 36.5631C90.7825 36.5433 90.8125 36.5215 90.8426 36.4997C90.8768 36.4737 91.7166 36.852 91.8254 36.88C92.1852 36.9735 92.5678 37.0307 92.94 36.9871C93.6678 36.9018 94.2888 36.3594 94.3137 35.5894C94.3178 35.4481 94.1416 35.0408 94.1706 34.9535C94.716 33.3127 93.9871 31.5535 92.4185 30.822C92.095 30.6713 91.6813 30.6754 91.3786 30.5258C91.0862 30.3814 91.0665 30.0759 90.91 29.8099C89.8701 28.0527 87.1641 27.9135 85.5737 28.9505C85.5395 28.9723 85.5167 29.0004 85.5022 29.0295C84.7795 28.8965 84.0258 28.9817 83.3498 29.2851C82.6915 29.5813 81.9844 30.1237 81.8227 30.8407C81.7314 31.247 81.8009 31.7114 81.9201 32.1063V32.1074Z" fill="#8C5441"/>
<path d="M83.2533 36.1647C83.4357 36.5419 83.5094 36.9451 83.4606 37.3618C83.4451 37.4927 83.2377 37.4948 83.2533 37.3618C83.2979 36.9815 83.2408 36.6147 83.0739 36.2697C83.0159 36.1502 83.1952 36.0442 83.2533 36.1647Z" fill="#D37C61"/>
<path d="M88.6262 39.7536C88.8502 39.6756 89.1208 39.5873 89.2421 39.3639C89.3831 39.1051 89.2649 38.7872 89.1767 38.5315C89.1332 38.4048 89.3333 38.3507 89.3768 38.4765C89.4836 38.7882 89.5946 39.1592 89.4214 39.4688C89.269 39.7421 88.9611 39.8575 88.6822 39.9541C88.5557 39.9977 88.5018 39.7972 88.6273 39.7536H88.6262Z" fill="#D37C61"/>
<path d="M87.9322 39.2278C88.1355 39.1779 88.3397 39.18 88.5419 39.234C88.6704 39.2683 88.6165 39.4689 88.4869 39.4346C88.32 39.3899 88.1551 39.3878 87.9872 39.4284C87.8576 39.4606 87.8026 39.26 87.9322 39.2278Z" fill="#D37C61"/>
<path d="M85.8143 37.4783C86.3524 37.3194 86.8987 37.5584 87.2181 37.8701C87.3529 38.0021 87.1942 38.2099 87.0169 38.1569C86.6219 38.0384 86.3368 37.9148 85.8143 37.7901C85.6349 37.7475 85.637 37.5303 85.8143 37.4783Z" fill="#2B141B"/>
<path d="M90.064 38.5465C90.5367 38.2088 91.1236 38.3294 91.2874 38.5819C91.3962 38.7502 91.2521 38.8791 91.0676 38.8022C90.8664 38.719 90.5367 38.8178 90.1469 38.8469C89.9468 38.8624 89.9022 38.6619 90.064 38.5465Z" fill="#2B141B"/>
<path d="M87.0988 40.0583C87.3694 40.1383 87.6255 40.2911 87.8982 40.3763C88.1802 40.4636 88.4663 40.5238 88.7577 40.5685C88.8572 40.5841 88.907 40.7753 88.9111 40.8584C88.9132 40.9135 88.8665 40.9571 88.822 40.9893C88.5348 41.1961 88.1812 41.2699 87.837 41.1868C87.4762 41.0995 86.963 40.7888 86.8313 40.4199C86.7546 40.2059 86.8552 39.9866 87.0988 40.0583Z" fill="white"/>
<path d="M97.0848 50.2339C96.9853 50.1446 97.1315 49.9981 97.231 50.0874C97.3793 50.2194 97.7193 50.4127 97.7504 50.6246C97.767 50.739 97.6924 50.8564 97.6519 50.9572L97.4301 51.5017C97.3803 51.6243 97.1792 51.5702 97.23 51.4466C97.3171 51.2325 97.4601 50.9925 97.5068 50.766C97.5524 50.5457 97.2372 50.3711 97.0838 50.2339H97.0848Z" fill="#D37C61"/>
<path d="M99.0799 47.0068C99.4563 47.2364 99.7704 47.5388 100.016 47.9046C100.091 48.0158 99.9114 48.1197 99.8368 48.0095C99.6107 47.6728 99.3205 47.3964 98.9742 47.1855C98.8601 47.1159 98.9648 46.9361 99.0789 47.0057L99.0799 47.0068Z" fill="#D37C61"/>
<path d="M97.9031 48.3326C98.2037 48.5217 98.4557 48.7638 98.6589 49.0547C98.7356 49.1649 98.5562 49.2688 98.4795 49.1597C98.297 48.8989 98.0669 48.6817 97.7983 48.5123C97.6853 48.4417 97.79 48.2619 97.9031 48.3326Z" fill="#D37C61"/>
<path d="M100.613 46.3423C101.041 46.6156 101.345 47.0104 101.504 47.4926C101.545 47.6194 101.343 47.6651 101.302 47.5394C101.16 47.1092 100.884 46.7611 100.502 46.5179C100.389 46.4462 100.499 46.2696 100.612 46.3413L100.613 46.3423Z" fill="#D37C61"/>
<path d="M77.0078 48.9092C77.1851 49.0828 77.3966 49.1202 77.5833 48.9498C77.7377 48.8095 77.8497 48.5767 77.97 48.4042C78.084 48.2401 78.2229 48.0696 78.2634 47.8681C78.3515 47.4275 77.8995 47.2207 77.8549 46.8196C77.8404 46.6876 77.633 46.6866 77.6475 46.8196C77.6662 46.9827 77.7139 47.0981 77.8031 47.2352C77.9917 47.5272 78.1213 47.6862 77.9534 48.0624C77.9109 48.158 77.831 48.2941 77.7429 48.4219C77.295 48.0946 76.6688 47.5231 77.1198 46.9339C77.2007 46.8279 77.0213 46.724 76.9405 46.8289C76.7248 47.1116 76.7144 47.3953 76.814 47.6592C76.787 47.6685 76.7652 47.6893 76.759 47.7278C76.702 48.1091 76.7093 48.6162 77.0068 48.9082L77.0078 48.9092ZM76.9508 47.92C77.124 48.1829 77.3842 48.4136 77.6195 48.5871C77.5801 48.6339 77.5418 48.6754 77.5076 48.7056C77.0535 49.0932 76.9446 48.3045 76.9519 47.92H76.9508Z" fill="#D37C61"/>
<path d="M79.3228 45.33C79.6432 45.6729 79.921 46.048 80.1543 46.4554C80.2207 46.5717 80.0423 46.6767 79.9749 46.5603C79.75 46.1686 79.4835 45.807 79.1756 45.4765C79.0844 45.3788 79.2305 45.2313 79.3218 45.33H79.3228Z" fill="#D37C61"/>
<path d="M80.7898 45.3339C81.1444 45.5199 81.4596 45.7599 81.7364 46.0488C81.8287 46.1454 81.6721 46.2816 81.5798 46.1849C81.3144 45.9085 81.0117 45.683 80.6737 45.5054C80.5555 45.443 80.6737 45.2715 80.7898 45.3329V45.3339Z" fill="#D37C61"/>
<path d="M70.8725 68.9253C70.9493 68.9253 71.026 68.9232 71.1017 68.9191C72.7221 68.8287 74.3654 67.7937 76.1238 65.7539C77.0745 64.6514 77.9724 63.3743 78.8681 61.8489C78.9438 61.7201 79.0226 61.5902 79.1024 61.4572C79.4715 60.8451 79.8531 60.2133 80.0625 59.5514C80.2201 59.0547 80.2076 58.4115 80.1859 58.0728C80.1796 57.973 80.2056 57.8743 80.2595 57.7953C81.0588 56.6211 81.2859 55.5456 81.2952 55.5009C81.3066 55.4448 81.2703 55.3898 81.2143 55.3783C81.1594 55.3669 81.1034 55.4033 81.092 55.4594C81.0899 55.4698 80.8629 56.5411 80.0884 57.6789C80.0086 57.7964 79.9702 57.9408 79.9795 58.0873C80.0003 58.4115 80.0127 59.0256 79.8655 59.4901C79.6633 60.1281 79.288 60.7506 78.9251 61.3512C78.8453 61.4842 78.7655 61.6151 78.6898 61.745C77.8003 63.259 76.9097 64.5267 75.9672 65.6199C74.2711 67.5869 72.6299 68.6281 71.0903 68.7144C70.0224 68.7736 68.9245 68.3922 68.0764 67.6659C67.192 66.9094 66.7929 66.1031 66.402 64.9673C66.3833 64.9133 66.3242 64.8842 66.2703 64.9029C66.2164 64.9216 66.1874 64.9808 66.206 65.0349C66.6093 66.2049 67.022 67.0362 67.9426 67.8238C68.77 68.5325 69.8264 68.9284 70.8736 68.9284L70.8725 68.9253Z" fill="#4F3333"/>
<path d="M79.18 57.7754C79.4599 57.7754 79.63 57.7556 79.6383 57.7546C79.6953 57.7473 79.7357 57.6953 79.7285 57.6382C79.7212 57.581 79.6704 57.5416 79.6123 57.5478C79.5781 57.5519 76.1381 57.9427 74.585 55.004C74.5581 54.9531 74.4948 54.9344 74.4451 54.9604C74.3943 54.9874 74.3756 55.0498 74.4015 55.1007C75.6757 57.5104 78.1567 57.7733 79.18 57.7733V57.7754Z" fill="#4F3333"/>
<path d="M68.1164 59.1321C68.1475 59.1321 68.1786 59.1175 68.1993 59.0916C69.2661 57.6898 70.6046 56.4034 72.0706 55.3715C72.1535 55.3133 72.2396 55.2499 72.3267 55.1866C72.6439 54.9528 72.9726 54.7117 73.3044 54.5849C73.3489 54.5683 73.5801 54.5569 73.7315 54.5496C74.1877 54.5278 74.2903 54.5163 74.3391 54.4436C75.0078 53.4481 75.4349 53.1561 75.4391 53.153C75.4868 53.1208 75.4992 53.0564 75.4681 53.0086C75.437 52.9608 75.3727 52.9473 75.325 52.9795C75.3064 52.9919 74.8699 53.286 74.1815 54.3054C74.1089 54.323 73.8777 54.3345 73.7211 54.3418C73.4619 54.3542 73.3002 54.3625 73.2297 54.3896C72.872 54.5267 72.5164 54.7875 72.2033 55.0172C72.1172 55.0806 72.0333 55.1429 71.9503 55.2001C70.4677 56.2433 69.1127 57.5454 68.0334 58.9638C67.9982 59.0095 68.0075 59.0749 68.0531 59.1092C68.0718 59.1238 68.0935 59.1311 68.1164 59.1311V59.1321Z" fill="#4F3333"/>
<path d="M93.4854 68.2798C93.5206 68.2798 93.5559 68.2611 93.5746 68.2289C93.6036 68.179 93.587 68.1156 93.5383 68.0865C92.1656 67.2739 92.036 66.1881 91.9582 65.5396L91.9489 65.4607C91.4678 61.5515 93.9737 58.535 96.1841 55.8738C96.5356 55.4498 96.9679 55.4373 96.9721 55.4373C97.0125 55.4373 97.0477 55.4124 97.0643 55.376C97.0965 55.3043 97.1255 55.2306 97.1545 55.1568C97.2976 54.791 97.4023 54.5655 97.732 54.5531C97.789 54.551 97.8336 54.5021 97.8315 54.445C97.8295 54.3878 97.7807 54.3411 97.7237 54.3452C97.2427 54.3639 97.0934 54.7443 96.9617 55.0809C96.941 55.1329 96.9213 55.1848 96.8995 55.2347C96.744 55.2555 96.3531 55.3449 96.0244 55.7397C93.7861 58.4331 91.2501 61.4861 91.7426 65.4846L91.7519 65.5625C91.8286 66.2047 91.9717 67.3986 93.4325 68.2632C93.4491 68.2725 93.4667 68.2777 93.4854 68.2777V68.2798Z" fill="#4F3333"/>
<path d="M100.356 56.6843C101.374 56.6843 102.192 56.4817 102.256 56.4651C102.312 56.4505 102.345 56.3944 102.331 56.3393C102.317 56.2832 102.259 56.25 102.206 56.2645C102.175 56.2718 99.1885 57.0116 97.5235 55.6411C97.4789 55.6047 97.4136 55.6109 97.3773 55.6556C97.341 55.7003 97.3472 55.7657 97.3918 55.8021C98.243 56.5025 99.3896 56.6854 100.356 56.6854V56.6843Z" fill="#4F3333"/>
<path d="M79.1477 72.4508C83.7925 72.4508 89.9426 70.0432 90.0038 70.0193C90.0566 69.9985 90.0836 69.9382 90.0618 69.8842C90.0411 69.8312 89.9799 69.8052 89.9271 69.826C89.8659 69.8499 83.752 72.243 79.1467 72.243C79.0897 72.243 79.043 72.2898 79.043 72.3469C79.043 72.4041 79.0897 72.4508 79.1467 72.4508H79.1477Z" fill="#4F3333"/>
<path d="M95.4707 56.6797C95.5069 56.6797 95.5432 56.66 95.5619 56.6257C95.5909 56.5727 96.269 55.3164 96.5748 53.2298C96.5831 53.1727 96.5437 53.1207 96.4877 53.1124C96.4297 53.1031 96.3789 53.1436 96.3706 53.1997C96.0709 55.2457 95.3877 56.5124 95.3805 56.5259C95.3525 56.5758 95.3711 56.6392 95.4219 56.6673C95.4375 56.6756 95.4551 56.6797 95.4717 56.6797H95.4707Z" fill="#4F3333"/>
<path d="M86.7208 33.1579C87.4621 31.6719 89.5128 31.6512 90.2925 33.0841C91.5791 32.2435 93.2691 32.8763 93.6879 34.3768C93.7242 34.5056 93.5241 34.5607 93.4878 34.4318C93.0939 33.0186 91.492 32.4731 90.307 33.3252C90.2635 33.3564 90.1878 33.3356 90.165 33.2878C89.4942 31.8933 87.5917 31.8777 86.9002 33.2639C86.84 33.3834 86.6617 33.2784 86.7208 33.1589V33.1579Z" fill="#633524"/>
<path d="M87.2812 31.3097C87.4482 30.5657 88.0505 29.9869 88.8012 29.857C88.9318 29.8342 88.9878 30.0347 88.8561 30.0576C88.1718 30.176 87.6327 30.6863 87.4803 31.3658C87.4513 31.4968 87.2512 31.4407 87.2802 31.3108L87.2812 31.3097Z" fill="#633524"/>
<path d="M86.0164 29.7507C86.0683 29.9928 86.1201 30.2359 86.172 30.478C86.1999 30.609 85.9998 30.664 85.9719 30.5331C85.92 30.291 85.8682 30.0479 85.8163 29.8057C85.7883 29.6748 85.9884 29.6197 86.0164 29.7507Z" fill="#633524"/>
</svg>
