<svg width="109" height="100" viewBox="0 0 109 100" fill="none" xmlns="http://www.w3.org/2000/svg">
<mask id="mask0_385_14232" style="mask-type:alpha" maskUnits="userSpaceOnUse" x="0" y="0" width="109" height="100">
<rect width="109" height="100" fill="#D9D9D9"/>
</mask>
<g mask="url(#mask0_385_14232)">
<path d="M102.172 93.6852C102.071 93.7273 101.984 93.6066 102.057 93.5252C103.266 92.1391 104.388 90.6772 105.398 89.1368C106.19 87.9302 107.334 85.9324 105.901 84.7147C104.523 83.5418 102.511 84.9251 101.335 85.7276C99.6322 86.892 98.0581 88.2473 96.6579 89.7625C95.342 91.1879 94.1887 92.748 93.201 94.4147C93.1898 94.3165 93.1786 94.2183 93.1646 94.1229C93.1365 93.9265 92.8391 94.0107 92.8643 94.2043C92.8924 94.4063 92.9148 94.6139 92.9345 94.8244C92.9345 94.8468 92.9345 94.8665 92.9204 94.8861C92.8026 95.0938 92.6848 95.3014 92.5725 95.5118C92.4771 95.6886 92.7465 95.8457 92.8391 95.669C92.8868 95.5792 92.9373 95.4922 92.985 95.4024C93.1337 97.0551 93.2936 98.806 94.604 99.9424C96.0154 101.166 98.0833 100.593 99.722 100.251C101.473 99.8835 103.28 99.3616 104.708 98.2364C105.825 97.3581 107.253 95.5792 106.167 94.1622C105.146 92.8266 103.541 93.1128 102.16 93.688L102.172 93.6852Z" fill="#B6AE91"/>
<path d="M16.5994 81.9312C15.94 79.3666 12.5645 75.9686 11.4898 75.1184C9.90166 73.8586 6.8909 71.5802 4.7107 72.6577C2.14048 73.9287 2.8616 77.0181 4.30104 78.7998C5.20455 79.9166 6.34094 80.8594 7.33985 81.8975C8.263 82.8544 9.13283 83.8533 9.96619 84.883C9.96058 84.8774 14.5455 85.0739 15.7155 84.4229C16.6864 83.8841 16.8688 82.9778 16.6022 81.9312H16.5994Z" fill="#B6AE91"/>
<path d="M24.4672 56.4761C23.7517 54.9104 22.9913 53.3616 22.1299 51.866C20.87 49.6858 19.1724 46.4843 16.3244 46.1868C13.7373 45.9175 12.2586 47.9798 12.8759 50.3592C13.3305 52.1073 14.1386 53.8217 15.0505 55.4828C14.5679 55.4548 14.0909 55.5474 13.6419 55.8055C11.4786 57.0485 13.4568 59.6552 14.7419 61.0526C14.6942 61.2294 14.7419 61.4258 14.9439 61.5605C15.9456 62.2283 26.7568 63.4236 26.8859 63.258C26.9701 63.244 26.8073 64.7143 26.8859 64.6442C27.809 63.8389 24.8572 57.3319 24.4672 56.4789V56.4761Z" fill="#B6AE91"/>
<path d="M101.392 72.2957C101.184 72.1161 100.971 71.9955 100.791 71.9927C97.5727 71.6672 93.7538 71.7121 90.5242 71.5606C81.6322 71.1481 80.5604 71.7794 80.4397 72.234C78.3184 80.2898 75.4227 96.8812 74.6259 101.702H94.7471C95.53 101.632 96.31 101.547 97.0872 101.444C98.2208 94.1679 100.727 77.1724 101.54 72.7306C101.571 72.5679 101.515 72.4023 101.392 72.2957Z" fill="#FAE1D2"/>
<path d="M102.632 73.306C102.424 73.1264 102.211 73.0057 102.031 73.0029C98.8128 72.6775 94.994 72.7223 91.7644 72.5708C82.8724 72.1584 81.8005 72.7897 81.6799 73.2442C79.6877 80.8062 77.0136 95.8992 76.0344 101.705H94.747C96.0069 101.592 97.264 101.438 98.5182 101.233C99.7219 93.4328 102.012 77.9526 102.783 73.7409C102.814 73.5782 102.758 73.4126 102.634 73.306H102.632Z" fill="#FAE1D2"/>
<path d="M12.1492 89.7706C11.0353 82.6464 8.47908 65.2946 7.65414 60.7995C7.62328 60.6367 7.67939 60.4712 7.80285 60.3646C8.01049 60.185 8.22374 60.0643 8.40332 60.0615C11.6217 59.736 15.4406 59.7809 18.6702 59.6294C27.5621 59.2169 28.634 59.8483 28.7547 60.3028C30.8759 68.3586 33.7716 84.95 34.5685 89.7706H12.1492Z" fill="#FAE1D2"/>
<path d="M10.7547 89.7711C9.57337 82.139 7.20518 66.106 6.41671 61.8073C6.38585 61.6446 6.44197 61.479 6.56543 61.3724C6.77307 61.1928 6.98632 61.0722 7.16589 61.0693C10.3843 60.7439 14.2031 60.7888 17.4328 60.6372C26.3247 60.2248 27.3966 60.8561 27.5172 61.3107C29.5094 68.8726 32.1835 83.9657 33.1627 89.7711H10.7547Z" fill="#FAE1D2"/>
<path d="M11.7986 89.771C11.6863 88.7861 9.60152 74.5937 9.03192 71.1817C8.74572 69.4757 7.94603 64.585 7.6486 62.879C7.38204 61.3386 7.77206 61.3021 7.81415 61.2544C7.98812 62.1439 8.1677 63.0305 8.3613 63.9172C8.89443 67.2759 11.3749 82.6636 12.1549 89.7738H11.7958L11.7986 89.771Z" fill="#FAE1D2"/>
<path d="M6.87964 62.1269C8.43973 71.1592 9.90442 80.2083 11.2737 89.2714C11.2933 89.4061 11.4954 89.3472 11.4757 89.2153C10.1064 80.1522 8.64175 71.1031 7.08166 62.0708C7.05922 61.9389 6.85719 61.995 6.87964 62.1269Z" fill="#2B0303"/>
<path d="M8.55759 61.1926C9.91565 70.6065 11.1362 80.0456 12.8506 89.4061C12.8759 89.538 13.0779 89.4819 13.0527 89.35C11.3354 79.9923 10.1177 70.5531 8.75961 61.1365C8.73997 61.0018 8.53795 61.0607 8.55759 61.1926Z" fill="#2B0303"/>
<path d="M14.7559 66.6863C14.7615 66.7817 14.7699 66.8771 14.7811 66.9725C14.9326 68.1706 15.2862 69.8486 16.8351 69.7588C16.8351 69.7588 24.5149 69.3154 24.6748 69.307C25.3594 69.2677 25.9655 68.8048 26.1816 68.1538C26.4566 67.3204 26.0441 66.3804 25.8757 65.5639C25.7074 64.7474 24.9666 64.1778 24.1333 64.2227C24.1333 64.2227 16.2739 64.6464 16.2655 64.6464C15.0533 64.7109 14.6941 65.6537 14.7531 66.6863H14.7559Z" fill="white"/>
<path d="M97.8728 56.5431C96.5821 54.0879 93.1112 53.639 90.5746 53.9616C87.4348 54.3573 84.5307 55.9258 81.9436 57.6262C81.2113 58.106 80.5014 58.6167 79.8111 59.1498C79.6147 59.3013 79.3454 59.0909 79.4408 58.8636C80.521 56.2401 81.9913 53.768 83.9471 51.6271C85.6643 49.7472 87.9427 48.4143 89.3962 46.279C90.0668 45.2942 90.44 44.1213 90.2267 42.9204C89.7722 40.3894 87.1346 39.2586 84.786 39.427C81.75 39.643 79.3061 41.4949 77.4233 43.7649C75.4087 46.1892 73.6493 49.0373 72.1678 51.8095C71.6403 52.7944 70.8799 54.0346 70.8799 55.1934C70.8799 56.0072 71.9602 61.0438 72.7599 66.5378C71.6207 68.1484 70.619 69.8488 69.7688 71.6193C69.0504 71.3976 68.2367 71.6137 67.9281 72.5172C67.0218 75.1716 65.0211 78.7239 68.0515 80.7217C70.5825 82.3912 72.9984 81.8665 74.8839 79.5853C75.7594 78.5275 76.531 77.4725 77.6169 76.5914C78.9301 75.5279 80.4621 74.8517 81.8903 73.9594C84.4858 72.3376 85.5044 69.7057 87.3899 67.4806C88.2794 66.4284 89.3849 65.5305 90.6111 64.8655C91.9496 64.1387 93.4563 63.7964 94.8172 63.1146C97.2499 61.8968 99.2758 59.1975 97.8813 56.5459L97.8728 56.5431Z" fill="#B6AE91"/>
<path d="M89.6993 101.705C88.6246 101.222 87.376 100.894 86.2957 100.697C86.234 100.686 86.2003 100.627 86.2171 100.568C87.1066 97.6811 87.3984 93.9632 84.1239 92.8633C82.7518 92.4031 81.2983 92.6332 79.9403 93.2589C79.8477 93.301 79.7523 93.2056 79.7972 93.113C81.5144 89.7684 83.588 86.6398 85.1537 83.2137C87.7351 77.557 81.4751 78.2529 78.3325 80.1721C75.4368 81.9427 73.2201 84.7907 71.4243 87.619C71.3878 87.6751 71.3542 87.7341 71.3205 87.793C70.995 87.0859 70.4198 86.1628 69.5584 86.1347C68.6745 86.1066 67.8608 87.1729 67.409 87.7986C65.9444 89.8217 65.5599 92.9643 65.2541 95.369C64.9931 97.4201 64.8725 99.5779 64.9819 101.705H89.6965H89.6993Z" fill="#B6AE91"/>
<path d="M39.1927 96.7551L35.8705 78.4493C35.7919 78.0116 35.3738 77.7169 34.9333 77.7899L5.10635 82.7957C4.6574 82.8714 4.35717 83.2979 4.43854 83.7441L7.48016 100.675C8.26862 101.079 9.13285 101.348 10.0307 101.542L38.4968 97.7091C38.957 97.6474 39.274 97.2125 39.1899 96.7551H39.1927Z" fill="#D1D5E3"/>
<path d="M79.3202 93.7583C77.3813 95.9413 75.8886 98.4582 74.8784 101.197C74.8307 101.323 75.0356 101.379 75.0805 101.253C76.0766 98.548 77.5525 96.0648 79.4689 93.907C79.5587 93.806 79.41 93.6573 79.3202 93.7583Z" fill="#2B0303"/>
<path d="M30.8507 101.719C32.9495 101.556 35.054 101.446 37.1752 101.46C37.6158 101.463 38.0591 101.469 38.4996 101.474C38.4772 101.191 38.4547 100.908 38.4323 100.624C37.9104 94.1061 38.4407 85.6547 35.4748 79.8212C33.8222 76.5719 28.2973 72.1975 24.3297 71.2687C22.7023 70.8871 21.2657 71.656 20.6624 73.2694C17.9687 80.4918 25.598 86.6424 27.6519 93.0287C27.7642 93.3822 27.3377 93.6544 27.0655 93.4018C26.8522 93.2026 26.6334 93.0118 26.4089 92.8238C24.2624 91.0364 20.8251 89.3529 17.8621 89.3276C8.12834 89.2463 11.3523 101.71 11.372 101.763L30.8479 101.724L30.8507 101.719Z" fill="#B6AE91"/>
<path d="M101.383 73.1849C101.209 74.0744 101.03 74.9611 100.836 75.8478C100.311 79.1672 97.8814 94.2321 97.0705 101.446C97.1939 101.429 97.3174 101.41 97.4408 101.393C97.7523 99.0808 99.6323 86.3223 100.168 83.1095C100.454 81.4035 101.254 76.5128 101.552 74.8068C101.818 73.2663 101.428 73.2298 101.386 73.1821L101.383 73.1849Z" fill="#FAE1D2"/>
<path d="M79.0872 55.1155C78.3324 56.2267 77.7151 57.4108 77.2325 58.665C77.1848 58.7913 77.3868 58.8474 77.4345 58.7212C77.9115 57.4837 78.5232 56.3193 79.2696 55.2222C79.3453 55.1099 79.1629 55.0033 79.0872 55.1155Z" fill="#2B0303"/>
<path d="M60.9723 35.3137C60.9723 33.8855 60.947 32.4573 60.8797 31.0291C60.745 28.226 60.4392 25.4229 59.8078 22.6871C59.199 20.0355 58.3712 17.1398 56.5951 15.0101C55.0686 13.1778 52.5545 12.0246 50.2144 12.8692C50.2845 12.7653 50.1583 12.5942 50.018 12.6643C45.3686 15.0017 44.2181 20.4985 44.0807 25.2433C43.9937 28.2512 44.0891 31.2704 44.2855 34.2727C44.3865 35.8384 44.5212 37.4041 44.6895 38.9642C44.7934 39.9379 44.9814 40.6281 46.0532 40.833C46.6705 40.9508 47.2962 40.8891 47.9163 40.8245C48.7637 40.7376 49.5578 40.7263 50.4024 40.8498C51.7801 41.0546 53.0764 41.1977 54.471 41.0406C55.829 40.8863 57.1731 40.6113 58.5171 40.3756C59.2551 40.2465 60.7226 40.3391 60.9078 39.4019C61.02 38.8351 60.9414 38.1673 60.9498 37.5893C60.9611 36.8317 60.9695 36.0713 60.9695 35.3137H60.9723Z" fill="#913939"/>
<path d="M36.2128 101.463C36.5327 101.461 36.8553 101.461 37.178 101.463C41.3111 101.492 45.4443 101.598 49.5774 101.705H70.8238C71.0932 94.6816 70.2795 87.0663 69.3339 82.6049C69.303 82.4562 37.1612 83.5308 37.4726 83.7665C37.4839 83.7749 37.4951 83.7806 37.5035 83.7862C36.1118 89.1932 35.935 95.5458 36.2156 101.466L36.2128 101.463Z" fill="#59242E"/>
<path d="M37.1808 94.6114C37.1808 94.6114 37.192 94.6198 37.1948 94.6226C38.2442 95.4223 40.6433 95.1894 41.9115 95.2371C46.3814 95.4083 50.9999 95.4111 55.4669 95.1866C58.1999 95.0491 60.9525 94.6507 63.649 94.2101C65.0969 93.9716 66.5279 93.865 67.8411 93.1972C68.1104 93.0597 68.377 92.9026 68.5538 92.6725C69.0953 91.9654 69.0981 85.6858 68.9634 85.711C58.9968 87.5377 48.3371 87.6752 37.7644 86.8923C37.7307 86.8755 37.6914 86.8642 37.6465 86.8699C37.6101 86.8755 37.5736 86.8727 37.5371 86.8755C37.4642 86.8699 37.3912 86.8642 37.3155 86.8586C37.2958 86.8586 37.2818 86.8586 37.2677 86.8642C37.2341 86.8586 36.7655 89.3952 36.7907 90.7448C36.8076 91.7381 36.2155 93.8538 37.178 94.6114H37.1808Z" fill="#FAE1D2"/>
<path d="M59.645 37.7349C59.3364 37.3393 56.7269 36.2787 56.5922 35.1423C56.4351 33.801 56.6175 30.9699 56.609 29.6202C56.609 29.4855 56.5305 29.4014 56.4295 29.3649C56.5249 29.1797 56.3677 28.8823 56.0899 28.9412C53.6404 29.4519 51.2161 30.0495 48.6992 30.0608C48.5532 30.0608 48.3175 29.9794 48.34 30.1197C48.4887 31.0793 48.5841 34.8897 48.267 35.7147C47.8798 36.7164 45.4583 37.6564 44.2097 38.3045C43.8842 38.4729 44.1676 38.9639 44.4819 38.8096C44.4987 38.8293 44.5155 38.8489 44.5408 38.8657C46.345 40.2154 48.9629 40.611 51.174 40.7738C53.3458 40.9337 56.0843 40.9141 58.0457 39.845C58.8931 39.382 60.4167 38.7339 59.6422 37.7349H59.645Z" fill="#EB8B65"/>
<path d="M56.0338 14.4182C55.7504 14.2526 55.4418 14.1067 55.0995 13.9833C52.6162 13.0854 49.2744 13.3351 47.3607 15.3133C45.0655 17.6871 44.9785 21.0009 45.4639 24.0228C45.8203 26.2423 46.2917 28.6161 47.5656 30.4989C48.7525 32.2554 51.0112 32.9485 53.0624 32.6931C54.0641 32.5697 55.2201 32.1039 56.0815 31.5708C58.6714 29.9658 58.2281 25.7176 58.5395 23.0913C58.8903 20.117 59.0221 16.1606 56.0366 14.4154L56.0338 14.4182Z" fill="#EB8B65"/>
<path d="M59.9341 37.6793C59.5694 37.2781 59.1906 36.8796 58.6855 36.6607C58.6154 36.6299 58.548 36.6523 58.5031 36.6972C58.4638 36.6804 58.4189 36.6804 58.3712 36.7085C57.6305 37.1546 56.8645 37.539 56.0676 37.8645C56.0255 37.8392 55.975 37.8308 55.9189 37.8561C54.2999 38.6445 52.779 39.4526 50.9243 39.0065C50.178 38.8269 49.4737 38.5042 48.8059 38.1282C48.1212 37.741 47.2514 36.6439 47.1279 36.7056C46.1543 37.1967 45.088 37.7719 44.0302 38.2938C43.9123 38.3527 45.0572 39.8062 45.5398 40.2018C46.2553 40.7883 47.055 41.1979 47.8911 41.5767C48.8339 42.0032 49.7683 42.4578 50.756 42.7692C51.3368 42.9516 51.9008 43.1228 52.4648 43.3613C52.7257 43.4707 52.9614 43.5605 53.228 43.597C53.2504 43.611 53.2729 43.625 53.3066 43.6278C53.9884 43.6896 54.8161 43.4763 55.4671 43.2883C56.1882 43.0779 56.8252 42.6766 57.3667 42.1604C58.4807 41.1025 59.5497 39.4414 59.8921 37.9234C59.9678 37.8757 60.0099 37.7663 59.9313 37.6821L59.9341 37.6793Z" fill="#FAE1D2"/>
<path d="M58.3459 21.0991C58.2 20.392 57.2712 20.0104 56.5754 19.9009C55.6747 19.7606 54.2801 20.0104 54.2324 21.071C54.2184 21.3825 54.4345 21.7023 54.7684 21.7837C55.3211 21.9184 55.916 21.548 56.494 21.6518C56.9457 21.7304 57.347 21.9745 57.824 21.837C58.1888 21.7332 58.4132 21.4498 58.3403 21.0963L58.3459 21.0991Z" fill="#913939"/>
<path d="M46.5751 21.0991C46.721 20.392 47.6498 20.0104 48.3456 19.9009C49.2463 19.7606 50.6409 20.0104 50.6886 21.071C50.7026 21.3825 50.4866 21.7023 50.1526 21.7837C49.5999 21.9184 49.005 21.548 48.427 21.6518C47.9753 21.7304 47.574 21.9745 47.097 21.837C46.7322 21.7332 46.5078 21.4498 46.5807 21.0963L46.5751 21.0991Z" fill="#913939"/>
<path d="M74.0704 51.2569C73.86 48.855 72.7741 45.2129 70.8548 43.2712C68.5343 40.9227 62.8018 38.5713 59.5385 37.0786C59.3141 36.9747 58.9072 36.5511 58.6855 36.6605C53.3936 39.2672 52.7847 39.5618 47.128 36.7054C46.7912 36.5342 44.7457 37.1768 44.3922 37.3087C41.6059 38.3609 37.9694 40.6729 35.9941 42.0759C33.1236 44.1158 31.9086 47.3174 31.4148 50.662C31.3699 50.9623 35.3683 55.1066 36.9565 57.0034C36.6955 61.9194 36.0446 64.4475 35.4806 69.3747C35.1467 72.2844 34.6865 88.0172 36.3644 88.2978C41.5919 89.1761 68.8626 89.6587 70.0692 86.9819C72.5384 81.5075 72.934 60.6651 73.0575 58.8834C74.0536 56.6274 74.2865 53.7064 74.0704 51.2513V51.2569Z" fill="#46698A"/>
<path d="M57.1142 34.3793C57.0019 34.3204 56.828 34.312 56.7719 34.4635C55.9581 36.6465 53.893 37.9709 52.9306 38.302C52.7033 38.3806 52.4956 38.3974 52.274 38.302C51.2049 37.8587 49.0107 36.4613 48.3092 34.4635C48.2559 34.312 48.0791 34.3232 47.9669 34.3793C47.8687 34.3372 46.0252 36.5034 46.1178 37.0028C46.8894 41.1865 50.2818 42.2583 50.3042 42.2583C50.4024 42.3004 50.5203 42.292 50.6101 42.1882C50.9664 41.7645 51.8671 40.6393 52.4255 39.6769C52.4984 39.5506 52.6808 39.5534 52.751 39.6797C53.2757 40.6393 54.109 41.7617 54.4682 42.1882C54.558 42.292 54.6758 42.3004 54.774 42.2583C54.7965 42.2583 58.0906 41.035 58.8623 36.8485C58.9549 36.3491 57.2096 34.3372 57.1114 34.3793H57.1142Z" fill="#FAE1D2"/>
<path d="M64.9987 43.3779C64.9117 42.8813 64.7798 42.379 64.7125 41.9329C64.5526 40.8666 64.3954 39.8004 64.2355 38.7341C63.5256 31.6548 62.9644 25.507 62.9728 23.8403C62.9897 20.9923 62.5519 17.9928 61.2191 15.4282C58.9772 11.1071 53.7442 10.3831 49.3361 11.4185C46.2608 12.1396 43.525 14.5191 42.585 19.0562C41.4711 24.4268 40.8762 29.4353 40.8818 34.89C40.8818 38.8576 40.4076 43.2882 40.9576 47.2361C41.0474 47.8899 42.2483 48.451 42.9414 48.3837C43.3987 48.3388 44.4538 48.4538 44.9027 48.3613C47.3887 47.8506 47.9415 47.1659 47.7872 44.7444C47.7647 43.4733 47.6301 42.1966 47.5375 40.9312C47.3523 38.3413 44.9055 26.722 45.3769 22.3392C45.5396 20.8408 47.0408 18.3856 48.0566 17.3643C49.1172 16.298 50.0572 15.459 51.5471 14.9652C51.6173 14.9427 51.6986 14.9792 51.7267 15.0466C52.2654 16.3766 53.1212 17.4989 54.1594 18.5063C55.0573 19.3789 56.3761 20.3947 57.4985 21.1186C57.7987 21.3122 58.0176 21.6096 58.1018 21.9491C58.5984 23.9301 58.5675 25.3471 58.2224 28.5318C57.8913 31.5819 57.8745 35.2464 57.6752 38.302C57.5293 40.5243 57.2263 42.7663 57.2712 44.9942C57.2768 45.2327 57.288 45.4824 57.4255 45.6788C58.0232 46.5346 60.2819 45.7209 61.163 45.8472C61.7915 45.9369 62.392 46.1586 63.0374 46.0688C63.8763 45.951 64.9734 45.3589 65.0632 44.4498C65.0969 44.1131 65.0576 43.7483 64.9931 43.3807L64.9987 43.3779Z" fill="#913939"/>
<path d="M49.384 45.6311C49.3783 45.8303 49.3783 46.0267 49.3783 46.2259C51.7662 46.2764 54.1821 46.7029 56.5503 46.6861C58.2479 46.672 59.9426 46.5121 61.6374 46.4307C62.4848 46.3915 63.335 46.4167 64.188 46.4364C64.1964 46.3213 64.2048 46.2063 64.2104 46.094C64.2441 45.5581 64.7828 45.4739 65.1504 45.7012C65.1616 45.2186 65.1673 44.7781 65.1673 44.3936C65.1673 44.2674 65.1168 44.1495 65.0298 44.0597C64.752 43.7763 64.3591 43.3498 64.0701 43.0833C64.0421 43.058 64.0084 43.0412 63.9747 43.0244C61.9769 42.8279 59.9342 43.0945 57.928 43.0945C56.222 43.0945 54.5076 43.0721 52.8016 43.1254C51.9037 43.1534 51.0198 43.2881 50.1247 43.347C49.4513 43.3919 49.2493 43.4228 49.0725 44.099C48.9911 44.4161 48.9182 44.7416 48.848 45.0671C49.1342 45.0783 49.3924 45.2607 49.384 45.6367V45.6311Z" fill="#FAE1D2"/>
<path d="M50.4025 43.9138C50.2481 43.9054 50.0321 43.5631 50.0321 43.5631C49.9619 43.507 49.9535 43.3667 50.0433 43.319C50.0433 43.319 64.1627 43.3667 64.3759 43.347C64.3675 43.3386 64.5555 42.9626 63.7558 42.957C62.1929 42.9514 50.6353 42.7297 49.1735 42.9963C48.9939 43.03 48.876 43.1422 48.8171 43.2769C48.761 43.3358 48.7217 43.42 48.7161 43.5322C48.4916 47.2669 48.2643 50.9988 48.0399 54.7334C47.9248 56.6499 47.229 64.9442 47.4282 65.6064C47.4338 65.626 47.4422 65.6429 47.4478 65.6597C47.8182 66.1227 48.2279 66.5576 48.6572 66.9701C48.7694 67.0009 48.8845 67.0206 49.0079 67.029C51.0731 67.1356 62.6896 67.2787 63.7979 66.8578C64.0056 66.9336 65.1672 49.9774 65.1672 44.3908C65.1672 44.3544 65.1728 44.3067 65.1756 44.2561C65.1897 44.0766 65.0466 43.9222 64.867 43.9222C62.973 43.9307 51.4799 43.9699 50.4025 43.9138Z" fill="#36593F"/>
<path d="M49.0837 43.4929C49.5018 43.8885 49.8946 44.0849 49.8609 44.6574C49.8357 45.1119 49.8076 45.5693 49.7824 46.0238C49.6841 47.7298 49.5888 49.433 49.4905 51.139C49.2605 55.1964 49.0276 59.2537 48.7975 63.3111C48.7442 64.2623 48.688 65.2135 48.6347 66.1647C48.6263 66.2994 48.8368 66.3106 48.8452 66.1731C49.224 59.5147 49.6056 52.8534 49.9844 46.195C50.0152 45.6619 50.0489 45.1287 50.077 44.5956C50.1078 43.9867 49.6729 43.7623 49.238 43.3498C49.1398 43.2572 48.9855 43.4003 49.0837 43.4929Z" fill="#2B0303"/>
<path d="M64.6763 44.2058C59.9315 44.3741 55.1839 44.1918 50.4391 44.1665C50.3044 44.1665 50.2931 44.3769 50.4306 44.3769C55.1754 44.3994 59.9231 44.5846 64.6679 44.4162C64.8026 44.4106 64.8138 44.2002 64.6763 44.2058Z" fill="#2B0303"/>
<path d="M46.3199 48.5719C46.3339 48.7683 46.3536 48.9675 46.3732 49.164C48.7554 48.9788 51.1994 49.1696 53.5564 48.9198C55.2455 48.7403 56.915 48.4148 58.5958 48.1679C59.4348 48.0444 60.285 47.9883 61.1323 47.9237C61.1295 47.8087 61.1267 47.6937 61.1211 47.5786C61.1015 47.0427 61.6318 46.9052 62.0162 47.096C61.9797 46.6134 61.9404 46.1756 61.904 45.794C61.8927 45.6678 61.831 45.5555 61.7328 45.4742C61.4298 45.2188 60.9949 44.8344 60.6806 44.5959C60.6497 44.5735 60.6132 44.5594 60.5796 44.5454C58.5705 44.5454 56.5643 45.0112 54.5693 45.2076C52.8717 45.376 51.1629 45.5219 49.4709 45.7407C48.5787 45.8558 47.7144 46.0774 46.8278 46.2233C46.1628 46.3328 45.9635 46.3861 45.8541 47.0764C45.8036 47.4018 45.7615 47.7301 45.725 48.0612C46.0112 48.0444 46.2862 48.2015 46.3143 48.5747L46.3199 48.5719Z" fill="#FAE1D2"/>
<path d="M47.1673 46.762C47.013 46.7704 46.7632 46.4477 46.7632 46.4477C46.6875 46.3972 46.665 46.2597 46.7492 46.2036C46.7492 46.2036 60.8069 44.868 61.0173 44.8259C61.0089 44.8175 61.1604 44.4247 60.3607 44.5004C58.8034 44.6491 47.2823 45.5611 45.8541 45.9679C45.6773 46.0184 45.5707 46.1419 45.5258 46.2822C45.4753 46.3467 45.4444 46.4365 45.4501 46.5487C45.5904 50.2862 45.7335 54.0237 45.8738 57.7612C45.9467 59.6804 46.0674 68.0028 46.3283 68.6426C46.3367 68.6622 46.3451 68.6762 46.3536 68.6959C46.766 69.1224 47.2178 69.5124 47.6864 69.88C47.7986 69.8996 47.9165 69.908 48.0427 69.9024C50.1079 69.8042 61.6851 68.8109 62.7457 68.2834C62.959 68.3395 62.4539 51.3497 61.9068 45.7911C61.904 45.7547 61.904 45.707 61.9012 45.6565C61.8984 45.4769 61.7412 45.3366 61.5617 45.3534C59.6761 45.547 48.2419 46.7115 47.1645 46.762H47.1673Z" fill="#684309"/>
<path d="M45.812 46.4729C46.2666 46.8265 46.6763 46.9836 46.6987 47.556C46.7184 48.0134 46.7352 48.4679 46.7548 48.9253C46.825 50.6313 46.8951 52.3373 46.9653 54.0433C47.1336 58.1035 47.2992 62.1636 47.4675 66.2266C47.5068 67.1778 47.5461 68.129 47.5854 69.083C47.591 69.2177 47.8014 69.2065 47.7958 69.0718C47.5208 62.4077 47.2459 55.7409 46.9709 49.0768C46.9484 48.5437 46.9316 48.0078 46.9035 47.4746C46.8755 46.8657 46.4209 46.6862 45.9467 46.3158C45.8401 46.2316 45.6998 46.3915 45.8064 46.4729H45.812Z" fill="#2B0303"/>
<path d="M61.399 45.6538C56.6935 46.2879 51.9515 46.5685 47.2263 47.0119C47.0916 47.0231 47.1028 47.2335 47.2375 47.2223C51.9627 46.7818 56.7047 46.4984 61.4102 45.8642C61.5449 45.8474 61.5337 45.637 61.399 45.6538Z" fill="#2B0303"/>
<path d="M65.2738 62.0177C64.6396 61.2264 63.9185 59.9525 63.2704 59.0742C63.1441 58.9059 63.0655 58.7067 63.029 58.499C62.4679 55.3788 60.9162 53.1257 58.4105 51.0942C58.3488 51.0437 58.2786 51.0241 58.2141 51.0269C58.2001 51.0128 58.186 50.9988 58.172 50.9876C57.3274 50.1879 56.0816 51.4337 56.9009 52.2587C57.1001 52.4607 57.3218 52.6459 57.4986 52.8339C57.7315 53.0836 57.9868 53.3053 58.1832 53.5887C58.3824 53.8749 58.0373 53.743 57.9026 53.6757C57.7315 53.5915 57.5743 53.482 57.4088 53.3866C57.1394 53.2351 56.8757 53.0752 56.6175 52.9068C56.0872 52.5617 55.5821 52.1829 55.0911 51.7873C54.5131 51.3215 52.5798 48.9533 51.7773 50.1823C51.449 50.6873 51.8054 51.56 52.1533 51.9135C52.5714 52.3372 53.1017 53.0387 52.793 52.8984C52.3301 52.615 51.926 52.1324 51.5079 51.7704C51.0365 51.3608 50.2284 50.7322 49.7991 51.5712C49.569 52.0202 49.656 52.5421 49.8693 53.0471C49.9114 53.1453 49.8524 53.2632 49.7458 53.28C49.3446 53.3417 49.0948 53.7654 49.2183 54.5595C49.3109 55.1628 49.5438 55.724 49.8581 56.2515C49.8749 56.2767 49.8693 56.3104 49.8468 56.3329C49.1005 57.1718 51.7941 59.8571 52.1477 60.1573C53.8986 61.6417 55.5597 63.4431 57.8156 63.6816C58.099 63.7124 58.36 63.8555 58.5424 64.0744C59.0951 64.745 59.6198 65.4381 60.1165 66.1536C60.2231 66.3051 64.7182 64.066 65.1952 62.4919C65.198 62.4778 65.2064 62.4694 65.2177 62.461C65.3383 62.3656 65.4029 62.1748 65.2794 62.0177H65.2738Z" fill="#EB8B65"/>
<path d="M60.3016 57.3571C60.3016 57.3571 60.2932 57.3347 60.2876 57.3207C61.4998 56.7258 62.8101 56.4228 64.1317 56.0664C64.8023 55.8868 65.8265 55.7634 65.6497 54.8346C65.2849 52.949 60.9975 54.3239 59.168 54.9497C59.1624 54.9384 59.154 54.9272 59.1484 54.916C60.4616 54.2201 61.9263 53.8525 63.3236 53.2914C63.8848 53.0669 64.9202 52.834 64.5498 52.0455C64.1205 51.1364 62.6418 51.4675 61.9234 51.6387C60.6608 51.9417 59.4262 52.3514 58.2252 52.8368C58.0316 52.9154 58.0064 52.8733 58.1691 52.7442C58.6153 52.3879 59.4514 51.7593 59.5356 51.3637C59.9565 49.3434 55.627 51.9417 55.0377 52.3177C52.8744 53.7038 51.4742 55.2808 51.1627 57.7612C51.1178 58.1316 48.2362 61.103 48.3456 61.3359C48.8591 62.4443 49.684 63.7266 50.5707 64.5684C51.1571 65.1239 52.2318 66.1874 53.0876 66.1509C53.4215 66.1369 53.8228 65.4747 54.0248 65.253C54.4148 64.8237 54.8385 64.4252 55.2874 64.0577C56.3312 63.2047 57.535 62.7108 58.6574 62.0037C58.7163 61.9673 58.778 61.928 58.8425 61.8887C58.851 61.8831 58.8594 61.8859 58.8678 61.8803C59.6198 61.4369 60.3858 61.0189 61.1771 60.6541C61.9178 60.3118 62.7484 60.0985 63.4639 59.7225C64.0026 59.4391 64.4179 58.8976 64.0391 58.3729C64.662 58.2129 65.4168 57.952 65.4421 57.3347C65.5066 55.7465 61.828 56.8577 60.3016 57.3543V57.3571Z" fill="#EB8B65"/>
<path d="M49.9759 59.13C49.5157 59.391 48.3036 60.4712 48.2138 61.0605C48.1212 61.6722 48.8339 62.3708 49.1397 62.8366C50.1639 64.4051 51.2582 66.2093 52.8407 67.27C52.9951 67.3738 53.1774 67.169 53.0596 67.0511C53.6152 66.4198 54.2717 65.5331 54.6449 64.7755C54.9704 64.1133 50.5343 58.8129 49.9787 59.1272L49.9759 59.13Z" fill="#FAE1D2"/>
<path d="M75.0748 54.8682C74.7128 53.2071 74.3312 51.5516 73.9412 49.899C73.5989 48.4427 72.889 45.7181 71.8873 44.593C71.7554 44.4442 66.354 54.4025 66.6149 56.6781C66.9516 59.6523 66.744 59.8039 66.8338 62.7978C66.9152 65.5307 66.8057 68.2665 66.9404 70.9967C67.019 72.5988 67.3361 77.8656 69.2665 78.7606C71.183 79.6473 73.9131 79.2433 75.3806 77.8656C77.8105 75.5815 77.255 72.9159 77.1876 69.8547C77.0978 65.6654 76.2982 60.8112 75.4592 56.7117C75.3329 56.0972 75.2039 55.4827 75.0692 54.871L75.0748 54.8682Z" fill="#46698A"/>
<path d="M66.2867 63.0282C66.3063 62.9889 66.3091 62.9412 66.2755 62.8935C66.0201 62.5035 64.7996 60.5898 64.4404 60.5561C64.3169 60.5449 64.1963 60.5842 64.0784 60.6235C62.4426 61.2043 59.0586 64.9194 59.2859 65.5338C59.4711 66.0361 59.8667 66.746 60.1473 67.195C60.2035 67.2819 61.0172 68.5727 61.0593 68.5502C63.0908 67.4587 65.2233 65.242 66.4045 63.2554C66.4719 63.1432 66.3821 63.0394 66.2811 63.0282H66.2867Z" fill="#FAE1D2"/>
<path d="M56.3004 31.2705C54.4569 33.2038 50.6605 33.4198 48.6992 31.5398C48.601 31.4472 48.4522 31.596 48.5504 31.6886C50.5932 33.6471 54.5243 33.4366 56.4491 31.4192C56.5417 31.321 56.393 31.1723 56.3004 31.2705Z" fill="#C45547"/>
<path d="M35.1269 43.3895C32.248 45.6792 31.3305 50.3763 30.3961 56.0106C29.7367 59.9894 29.3719 64.361 28.9061 68.365C28.3113 73.4802 29.0072 81.2049 35.9125 80.7027C38.1011 80.5427 39.7258 80.0236 39.9222 77.6526C40.1944 74.3949 40.2308 71.1008 40.3824 67.8347C40.517 64.9109 39.9839 62.1022 39.7931 59.1756C39.5967 56.1845 35.3626 43.2015 35.1269 43.3867V43.3895Z" fill="#46698A"/>
<path d="M35.9967 52.3656C37.7981 56.5997 39.5743 60.9264 40.0878 65.5338C40.1018 65.6656 40.3122 65.6684 40.2982 65.5338C39.7791 60.8843 37.9946 56.5296 36.1763 52.2589C36.123 52.1355 35.9434 52.2421 35.9939 52.3656H35.9967Z" fill="#2B0303"/>
<path d="M53.7219 66.6925C53.7051 66.5241 53.6377 66.3782 53.4946 66.2688C51.104 64.4337 48.7779 61.2518 48.8873 60.0929C48.9069 59.8797 48.5478 59.8432 48.3794 59.9723C46.8362 61.1676 40.5285 65.0706 38.8926 66.6728C35.9632 68.2217 33.856 67.8176 33.1264 71.701C32.5512 74.7679 35.3571 80.8595 35.4722 80.7221C35.5395 80.6407 36.2494 80.6716 36.3785 80.6547C36.7545 80.607 37.1249 80.5397 37.4924 80.4555C38.41 80.2507 39.3051 79.9617 40.1805 79.6193C42.4842 78.7158 44.6363 77.4307 46.564 75.8818C49.0164 73.9121 51.0984 71.5018 52.723 68.8109C52.9643 68.4097 53.7836 67.3715 53.7219 66.6869V66.6925Z" fill="#46698A"/>
<path d="M66.3036 62.1161C66.1269 61.9927 65.8968 61.9955 65.7705 62.1695C64.1795 64.3328 62.322 65.9743 60.0829 67.3127C59.7714 67.4979 59.822 67.8655 60.024 68.0591C60.0352 68.0956 60.1811 68.7381 60.2036 68.7774C61.57 71.1203 67.7487 80.6857 71.5731 79.106C71.778 79.0218 75.855 75.1861 74.9262 69.6613C74.8448 69.1758 74.5755 68.7465 74.1855 68.4463C72.4851 67.1331 68.3042 63.5163 66.3036 62.119V62.1161Z" fill="#46698A"/>
<path d="M65.9415 62.1357C66.4774 62.161 67.047 62.5622 67.496 62.826C68.2788 63.2833 69.0336 63.794 69.7716 64.3159C71.371 65.4495 72.9507 66.6589 74.3368 68.0478C74.4322 68.1432 74.5809 67.9945 74.4855 67.8991C73.0461 66.454 71.3934 65.1998 69.7295 64.0269C68.9635 63.4882 68.1834 62.9635 67.3669 62.5061C66.946 62.2704 66.441 61.9477 65.9415 61.9225C65.8068 61.9169 65.8068 62.1273 65.9415 62.1329V62.1357Z" fill="#2B0303"/>
<path d="M70.1758 64.0099C71.6825 64.4898 73.0799 65.2025 74.3594 66.134C74.4688 66.2126 74.5754 66.0302 74.466 65.9516C73.1725 65.0088 71.7555 64.2933 70.2319 63.8079C70.1028 63.7658 70.0467 63.9707 70.1758 64.0099Z" fill="#2B0303"/>
<path d="M69.3789 52.287C68.568 55.7074 67.9759 59.1587 67.5242 62.6408C67.5073 62.7755 67.7178 62.7727 67.7346 62.6408C68.1836 59.1755 68.7756 55.7439 69.5809 52.3403C69.6118 52.2084 69.4098 52.1523 69.3789 52.2842V52.287Z" fill="#2B0303"/>
<path d="M47.4703 60.6259C42.7199 63.1989 38.4941 66.451 34.6136 70.1969C34.5153 70.2923 34.6641 70.441 34.7623 70.3456C38.6316 66.6109 42.8433 63.3729 47.5769 60.8083C47.6948 60.7438 47.5909 60.5614 47.4703 60.6259Z" fill="#2B0303"/>
<path d="M53.4721 66.9616C52.7314 69.1194 51.5388 71.1986 50.004 72.8905C48.4411 74.6134 46.4377 76.0472 44.4819 77.2902C41.7855 79.0018 38.7074 80.4188 35.4749 80.618C35.3403 80.6264 35.3403 80.8369 35.4749 80.8285C38.8168 80.6208 41.9987 79.1421 44.7738 77.3519C46.7604 76.0696 48.8199 74.5881 50.3716 72.7923C51.8222 71.1116 52.9558 69.1166 53.6741 67.0177C53.719 66.8887 53.5142 66.8354 53.4721 66.9616Z" fill="#2B0303"/>
<path d="M60.0099 67.2393C59.6367 67.5451 59.8555 68.1764 59.993 68.5412C60.3382 69.4672 60.9078 70.3202 61.4718 71.1227C63.0543 73.373 64.9623 75.4662 67.1032 77.1947C68.1218 78.0168 69.2217 78.7828 70.4591 79.2374C70.5854 79.2851 70.6415 79.0802 70.5152 79.0353C67.6476 77.9859 65.2541 75.4269 63.3209 73.1569C62.3809 72.0514 61.483 70.8841 60.7562 69.6243C60.529 69.2315 59.6227 67.8285 60.1586 67.3908C60.2624 67.3038 60.1137 67.1579 60.0099 67.2421V67.2393Z" fill="#2B0303"/>
<path d="M51.5444 96.1687C53.4384 97.0638 53.8087 99.2804 53.5141 101.169C53.4945 101.301 53.6965 101.36 53.7161 101.225C54.0248 99.2496 53.632 96.9263 51.6482 95.9891C51.5275 95.9302 51.4181 96.1126 51.5416 96.1715L51.5444 96.1687Z" fill="#2B0303"/>
<path d="M46.7827 25.673C46.387 24.1494 45.2198 22.3143 44.5464 22.7183C44.2265 22.9119 44.3527 23.5517 44.3808 23.8211C44.4509 24.4861 44.6221 25.1342 44.8887 25.7487C45.0626 26.15 46.0054 28.145 46.7041 27.3369C46.9791 27.0198 46.9622 26.3801 46.7799 25.6758L46.7827 25.673Z" fill="#EB8B65"/>
<path d="M63.9157 58.2519C62.7316 58.3473 61.6232 58.7065 60.6103 59.3266C60.4953 59.3967 60.6019 59.5791 60.7169 59.509C61.7018 58.9057 62.7681 58.5549 63.9185 58.4623C64.0532 58.4511 64.0532 58.2407 63.9185 58.2519H63.9157Z" fill="#C45547"/>
<path d="M63.6267 59.5904C63.102 60.0786 62.3359 60.1628 61.6822 60.4013C61.1434 60.5977 60.6215 60.8362 60.1136 61.1C58.9632 61.6977 57.8914 62.4328 56.8223 63.168C56.7101 63.2437 56.8167 63.4261 56.9289 63.3503C58.0625 62.5731 59.2017 61.7902 60.4363 61.1729C61.0761 60.8531 61.7411 60.5865 62.4285 60.3817C62.9308 60.233 63.3854 60.1067 63.7754 59.7419C63.8736 59.6493 63.7249 59.5006 63.6267 59.5932V59.5904Z" fill="#C45547"/>
<path d="M62.1115 56.5741C61.438 56.7256 60.7871 56.9501 60.1614 57.2391C60.0379 57.2952 60.1445 57.4776 60.268 57.4215C60.8797 57.1381 61.511 56.9249 62.1676 56.779C62.2995 56.7481 62.2433 56.5461 62.1115 56.5769V56.5741Z" fill="#C45547"/>
<path d="M61.1574 54.0715C60.3998 54.324 59.6647 54.627 58.952 54.9806C58.8313 55.0395 58.938 55.2219 59.0586 55.163C59.7573 54.8178 60.4756 54.5232 61.2136 54.2763C61.3426 54.2342 61.2865 54.0294 61.1574 54.0743V54.0715Z" fill="#C45547"/>
<path d="M59.1681 51.7536C58.8595 52.0931 58.5115 52.3877 58.1271 52.6374C58.0149 52.7104 58.1187 52.8928 58.2338 52.8198C58.6322 52.5617 58.997 52.2558 59.3168 51.9051C59.4094 51.8041 59.2607 51.6553 59.1681 51.7564V51.7536Z" fill="#C45547"/>
<path d="M59.5749 52.2139C59.081 52.3093 58.6068 52.4692 58.1551 52.6909C58.0344 52.7498 58.141 52.9322 58.2617 52.8733C58.6994 52.66 59.154 52.5085 59.631 52.4187C59.7628 52.3934 59.7067 52.1914 59.5749 52.2167V52.2139Z" fill="#C45547"/>
<path d="M54.9985 52.2221C53.9463 52.8254 53.0399 53.6335 52.3413 54.6239C52.0158 55.0869 51.738 55.5864 51.5163 56.1083C51.2245 56.7985 51.1347 57.587 50.7615 58.2352C50.6942 58.353 50.8766 58.4596 50.9439 58.3418C51.2133 57.876 51.3031 57.3597 51.4658 56.8518C51.665 56.2289 51.9456 55.6341 52.2936 55.0785C52.995 53.9617 53.9659 53.0582 55.1079 52.4017C55.2258 52.3343 55.1191 52.1519 55.0013 52.2193L54.9985 52.2221Z" fill="#C45547"/>
<path d="M52.9249 53.1311C53.0905 53.277 53.2644 53.4089 53.4468 53.5295C53.5618 53.6025 53.6657 53.4229 53.5534 53.3472C53.3851 53.2377 53.2251 53.1143 53.0736 52.9824C52.9726 52.8926 52.8239 53.0413 52.9249 53.1311Z" fill="#C45547"/>
<path d="M50.1469 53.4541C50.7053 54.1247 51.2132 54.8318 52.0634 55.1461C52.1896 55.1938 52.2457 54.9889 52.1195 54.944C51.3114 54.6438 50.826 53.9423 50.2956 53.3082C50.2087 53.2044 50.0599 53.3531 50.1469 53.4569V53.4541Z" fill="#C45547"/>
<path d="M50.0376 56.5633C50.3294 56.9085 50.6914 57.1806 51.1039 57.3658C51.2273 57.4219 51.3339 57.2396 51.2105 57.1834C50.812 57.0039 50.4697 56.7485 50.1863 56.4146C50.0993 56.3108 49.9506 56.4595 50.0376 56.5633Z" fill="#C45547"/>
<path d="M56.755 15.3943C57.6024 16.9515 57.6193 18.7221 57.6052 20.4505C57.6052 20.5852 57.8157 20.5852 57.8157 20.4505C57.8297 18.6828 57.8044 16.8814 56.9374 15.2876C56.8729 15.1698 56.6905 15.2736 56.755 15.3943Z" fill="#631F1F"/>
<path d="M57.9701 29.643C57.9196 31.0712 57.8185 32.4938 57.667 33.9136C57.653 34.0483 57.8634 34.0483 57.8775 33.9136C58.029 32.4938 58.13 31.0712 58.1805 29.643C58.1861 29.5083 57.9757 29.5083 57.9701 29.643Z" fill="#631F1F"/>
<path d="M45.6127 27.9227C45.9213 30.5631 46.23 33.2035 46.5386 35.8438C46.5554 35.9757 46.7659 35.9785 46.7491 35.8438C46.4404 33.2035 46.1317 30.5631 45.8231 27.9227C45.8063 27.7908 45.5958 27.788 45.6127 27.9227Z" fill="#631F1F"/>
<path d="M51.4995 23.3466C51.3508 23.8068 51.1235 24.2529 51.2245 24.7496C51.3115 25.1789 51.5921 25.4595 51.954 25.6783C52.0691 25.7485 52.1757 25.5661 52.0607 25.496C51.6762 25.2659 51.4069 24.9488 51.4041 24.4802C51.4013 24.1098 51.5893 23.7479 51.7043 23.4027C51.7464 23.2737 51.5444 23.2176 51.5023 23.3466H51.4995Z" fill="#C45547"/>
<path d="M52.8604 25.3837C53.0483 25.2041 53.3374 25.1789 53.5618 25.3023C53.6797 25.3697 53.7863 25.1873 53.6685 25.1199C53.3598 24.9488 52.9698 24.988 52.7116 25.2322C52.6134 25.3248 52.7621 25.4735 52.8604 25.3809V25.3837Z" fill="#C45547"/>
<path d="M46.4012 16.876C45.7923 18.2481 45.4444 19.6847 45.363 21.1831C45.3546 21.3178 45.565 21.3178 45.5735 21.1831C45.6548 19.7184 45.9887 18.3211 46.5836 16.9798C46.6369 16.8564 46.4573 16.7497 46.4012 16.8732V16.876Z" fill="#631F1F"/>
<path d="M43.9599 42.8198C44.2293 44.3911 44.1956 45.9596 43.8645 47.5197C43.8365 47.6516 44.0385 47.7077 44.0665 47.5758C44.4061 45.9793 44.4369 44.3715 44.1619 42.7637C44.1395 42.6318 43.9375 42.6879 43.9599 42.8198Z" fill="#631F1F"/>
<path d="M60.5289 30.9703C60.3942 32.9456 60.3269 34.9294 60.3578 36.9104C60.3858 38.7034 60.5374 40.4936 61.1378 42.1968C61.1827 42.323 61.3847 42.2697 61.3398 42.1406C60.7169 40.3757 60.5851 38.5154 60.5654 36.6579C60.5458 34.7611 60.6103 32.8643 60.7394 30.9731C60.7478 30.8384 60.5374 30.8384 60.5289 30.9731V30.9703Z" fill="#631F1F"/>
<path d="M45.3685 23.6689C45.4358 24.6846 45.6266 25.6667 45.9493 26.6319C45.9914 26.761 46.1962 26.7049 46.1514 26.5758C45.8343 25.6302 45.6435 24.665 45.5789 23.6689C45.5705 23.5342 45.3601 23.5342 45.3685 23.6689Z" fill="#C45547"/>
<path d="M56.0031 25.9392C55.4615 25.9392 54.9228 25.8073 54.4598 25.5407C53.677 25.089 53.2477 24.3229 53.2477 23.383C53.2477 21.9688 54.443 20.8408 55.9694 20.8184C56.7523 20.8043 57.5071 21.0961 58.0318 21.6124C58.5116 22.0866 58.7669 22.6983 58.7669 23.383C58.7669 24.3201 58.3348 25.0862 57.552 25.5407C57.089 25.8073 56.5446 25.942 56.0031 25.942V25.9392ZM56.0199 21.026C56.0059 21.026 55.9891 21.026 55.975 21.026C54.5637 21.0484 53.4609 22.081 53.4609 23.3802C53.4609 24.2416 53.8538 24.9459 54.5693 25.3555C55.4167 25.8438 56.6008 25.8438 57.4509 25.3555C58.1665 24.9431 58.5621 24.2416 58.5621 23.3802C58.5621 22.7516 58.3292 22.1904 57.8887 21.7583C57.4145 21.2897 56.7354 21.026 56.0227 21.026H56.0199Z" fill="#2B0303"/>
<path d="M48.7105 25.6782C47.3776 25.6782 45.9466 24.8786 45.9466 23.1221C45.9466 22.4374 46.202 21.8257 46.6818 21.3515C47.2065 20.8352 47.9613 20.5462 48.7441 20.5574C50.2705 20.5827 51.4659 21.7079 51.4659 23.1221C51.4659 23.9133 51.1656 24.5755 50.5988 25.0413C50.0994 25.451 49.4288 25.6782 48.7105 25.6782ZM48.6936 20.7679C47.9809 20.7679 47.3019 21.0344 46.8277 21.5002C46.3872 21.9323 46.1543 22.4935 46.1543 23.1221C46.1543 24.7327 47.4787 25.4678 48.7076 25.4678C49.3783 25.4678 50.0012 25.2602 50.4613 24.8786C50.9776 24.4549 51.2498 23.846 51.2498 23.1221C51.2498 21.8229 50.1443 20.7903 48.7357 20.7679C48.7217 20.7679 48.7048 20.7679 48.6908 20.7679H48.6936Z" fill="#2B0303"/>
<path d="M53.4132 22.8944C52.8183 22.5493 52.1337 22.4876 51.4883 22.7289C51.3621 22.7766 51.4182 22.9786 51.5444 22.9309C52.1393 22.7064 52.7566 22.7541 53.3066 23.0768C53.4244 23.1442 53.531 22.9646 53.4132 22.8944Z" fill="#2B0303"/>
<path d="M46.0476 22.7737C45.7165 22.263 45.1721 21.96 44.5632 21.9487C44.4285 21.9487 44.4285 22.1564 44.5632 22.1592C45.0964 22.1704 45.5734 22.4313 45.8652 22.8803C45.9381 22.9925 46.1205 22.8887 46.0476 22.7737Z" fill="#2B0303"/>
<path d="M38.7577 65.6933C36.4765 65.8897 34.3076 66.6052 32.3602 67.809C32.2452 67.8791 32.3518 68.0615 32.4669 67.9914C34.3805 66.8073 36.5158 66.0974 38.7577 65.9037C38.8924 65.8925 38.8924 65.6821 38.7577 65.6933Z" fill="#2B0303"/>
<path d="M65.518 81.2581C63.1498 83.357 60.125 84.3699 57.1675 85.3323C57.0385 85.3744 57.0946 85.5765 57.2237 85.5344C60.2176 84.5607 63.2704 83.5281 65.6667 81.4041C65.7677 81.3143 65.619 81.1655 65.518 81.2553V81.2581Z" fill="#2B0303"/>
<path d="M27.9551 94.3529C29.3496 96.5808 30.5927 98.8956 31.6786 101.289C31.7347 101.413 31.9171 101.306 31.8609 101.182C30.7751 98.789 29.532 96.4741 28.1375 94.2462C28.0645 94.1312 27.885 94.2378 27.9551 94.3529Z" fill="#2B0303"/>
<path d="M56.3706 22.2716C54.6197 21.4186 54.9003 25.8941 56.5446 24.5107C56.8532 24.2498 56.8588 23.669 56.856 23.2846C56.856 22.9086 56.7438 22.454 56.3734 22.2716H56.3706Z" fill="#170301"/>
<path d="M48.9544 22.0865C47.2007 21.2083 47.4813 25.81 49.1284 24.3874C49.437 24.1208 49.4426 23.5203 49.4398 23.1275C49.4398 22.7403 49.3276 22.2745 48.9544 22.0865Z" fill="#170301"/>
<path d="M53.5731 27.9649C52.8379 28.2511 52.0775 28.4419 51.2834 28.3241C51.1207 28.2988 51.0477 28.5261 51.1796 28.5794C51.188 28.6243 51.2161 28.6664 51.2722 28.6833C52.1308 28.9358 52.8351 28.9442 53.7077 28.1978C53.8116 28.1109 53.6993 27.9172 53.5731 27.9677V27.9649Z" fill="#CF6446"/>
<path d="M102.115 74.0049C100.578 82.8968 99.1355 91.8028 97.7859 100.726C97.7662 100.858 97.9682 100.916 97.9879 100.782C99.3375 91.8618 100.78 82.953 102.317 74.061C102.34 73.9291 102.138 73.873 102.115 74.0049Z" fill="#2B0303"/>
<path d="M100.432 73.0986C99.3909 82.4086 97.5587 91.6036 96.2174 100.869C96.1978 101.001 96.3998 101.06 96.4195 100.925C97.7635 91.6401 99.5958 82.4255 100.642 73.0986C100.656 72.9639 100.446 72.9639 100.432 73.0986Z" fill="#2B0303"/>
<path d="M101.622 93.9179C100.519 94.886 99.6238 96.028 98.9447 97.3271C98.883 97.4478 99.0626 97.5544 99.1271 97.4338C99.7977 96.1486 100.682 95.0207 101.77 94.0667C101.871 93.9769 101.723 93.8281 101.622 93.9179Z" fill="#2B0303"/>
<path d="M15.4884 55.6818C17.0204 56.4702 18.2101 57.7105 18.9368 59.2734C18.993 59.3968 19.1753 59.2902 19.1192 59.1667C18.3813 57.5758 17.1579 56.3019 15.595 55.4994C15.4743 55.4377 15.3677 55.62 15.4884 55.6818Z" fill="#2B0303"/>
<path d="M5.99589 84.0893C7.09301 89.2634 8.06666 94.4628 8.91124 99.6846C8.93369 99.8193 9.13572 99.7604 9.11327 99.6285C8.26869 94.4067 7.29784 89.2073 6.19792 84.0332C6.16986 83.9013 5.96783 83.9575 5.99589 84.0893Z" fill="#2B0303"/>
<path d="M92.5557 75.5844C92.4799 76.0671 92.233 76.965 93.0018 77.0098C94.3487 77.0856 95.6983 77.1586 97.0452 77.2343C97.727 77.2708 97.7158 76.4122 97.7775 75.938C97.8252 75.5872 97.5615 75.273 97.2079 75.259C95.8639 75.2 94.517 75.1411 93.173 75.0822C92.8672 75.0682 92.6006 75.287 92.5529 75.5901L92.5557 75.5844Z" fill="white"/>
<path d="M89.8312 78.1404C92.0955 78.2611 94.3599 78.3789 96.6243 78.4996C96.8628 78.5136 97.3791 78.4547 97.3398 78.8419L97.163 79.866C97.1462 80.0204 97.0143 80.1354 96.86 80.127C94.4385 80.0035 92.0198 79.8773 89.5926 79.7538C89.4215 79.7454 89.2952 79.5883 89.3205 79.4199C89.3598 79.1786 89.458 78.1208 89.8284 78.1404H89.8312Z" fill="white"/>
</g>
</svg>
