<svg width="96" height="85" viewBox="0 0 96 85" fill="none" xmlns="http://www.w3.org/2000/svg">
<path d="M49.2148 19.2764C49.2148 19.2764 69.6319 0.0242453 86.6982 13.8247C117.47 40.5892 61.1579 66.4793 57.0177 84.8807C47.6126 77.0872 23.1923 78.5571 8.98068 62.7432C-10.5031 42.4584 4.47898 -3.54403 49.2148 19.2764Z" fill="#93A4E0"/>
<path d="M46.1807 66.9072C45.8475 66.9072 45.5191 66.9521 45.1953 67.0183C45.1764 67.023 45.1575 67.0254 45.1386 67.0301C44.5691 67.1435 43.9972 67.2451 43.423 67.3349C43.3261 67.3515 43.2292 67.3657 43.1323 67.3798C42.8251 67.4271 42.5156 67.4696 42.2084 67.5075C42.1918 67.5098 42.1777 67.5122 42.1635 67.5122C42.0382 67.5287 41.913 67.5453 41.7877 67.5594C41.0197 67.6492 40.2494 67.7178 39.4766 67.7674C39.3892 67.7721 39.2994 67.7792 39.212 67.7839C39.0678 67.791 38.9237 67.8005 38.7819 67.8076C37.9453 67.8477 37.1112 67.9541 36.2699 67.895C36.0265 67.8785 35.7831 67.9021 35.5421 67.947C35.4523 67.9659 35.3625 67.9872 35.2727 68.0084C35.2514 68.0132 35.2301 68.0202 35.2065 68.0273C35.0127 68.0793 34.8166 68.1171 34.5921 68.1691C34.6299 68.1171 34.6441 68.084 34.6677 68.0651C34.7363 68.0037 34.7812 67.9352 34.7079 67.8572C34.6276 67.7721 34.5448 67.817 34.4763 67.8808C34.4314 67.921 34.3912 67.9706 34.3605 68.0226C34.266 68.1904 34.1478 68.3227 33.9399 68.3653C33.8005 68.396 33.7556 68.5094 33.8595 68.6252C33.895 68.663 33.9021 68.6937 33.895 68.7221C33.8879 68.741 33.8785 68.7575 33.8643 68.7788C33.5169 69.3459 33.2121 69.9344 32.9143 70.5275C32.8694 70.6149 32.8269 70.7024 32.782 70.7898C32.6898 70.9741 32.5977 71.1584 32.5055 71.3404C32.4039 71.5389 32.3046 71.7398 32.2077 71.9383C32.1061 72.1439 32.0069 72.3494 31.91 72.555C31.6217 73.1576 31.3476 73.7649 31.09 74.377C31.0522 74.4644 31.0167 74.5518 30.9813 74.6393C30.8584 74.9347 30.7403 75.3482 30.6268 75.6483C31.6406 76.0146 44.3352 79.4104 44.7865 79.5427C44.7889 79.5427 45.2804 79.2237 45.5191 79.1552C45.6065 79.1292 45.6656 79.0748 45.6443 78.9756C45.6207 78.8787 45.538 78.8834 45.4624 78.8881C45.382 78.8976 45.304 78.9141 45.2237 78.9307C45.1197 78.9543 45.0795 78.9425 45.1055 78.8149C45.1646 78.5171 45.2024 78.217 45.2568 77.9193C45.2568 77.9122 45.2591 77.9027 45.2591 77.8933C45.2757 77.8082 45.2899 77.7208 45.304 77.6357C45.4813 76.5841 45.5971 75.5278 45.6798 74.4644C45.6845 74.4077 45.6892 74.351 45.6916 74.2943C45.6963 74.2494 45.6987 74.2068 45.7034 74.1643C45.7507 73.5263 45.8074 72.8906 45.883 72.2549C45.9444 71.7303 46.0768 71.2128 46.1217 70.6882C46.124 70.6764 46.124 70.6646 46.1264 70.6527C46.1311 70.5677 46.1406 70.485 46.1477 70.3999C46.15 70.381 46.1524 70.3597 46.1547 70.3408C46.2044 69.8351 46.2847 69.3389 46.4005 68.8473C46.4407 68.6701 46.4879 68.4929 46.5399 68.3156C46.5612 68.2329 46.5872 68.1502 46.6132 68.0675C46.6628 67.9068 46.6983 67.7438 46.7172 67.576C46.7195 67.5476 46.7219 67.5216 46.7243 67.4933C46.7526 67.101 46.5754 66.9096 46.1807 66.9072Z" fill="#99560E"/>
<path d="M45.0817 70.4466C44.55 70.4702 44.0207 70.4939 43.489 70.5199C43.3472 70.5269 43.3023 70.4962 43.3118 70.345C43.3354 69.9456 43.3425 69.5486 43.3567 69.1493C43.359 69.0595 43.3614 68.9673 43.3661 68.8775V68.8421C43.3708 68.7381 43.3732 68.6365 43.3779 68.5325V68.5254C43.3921 68.1284 43.4087 67.729 43.4228 67.332C43.3259 67.3486 43.2291 67.3628 43.1322 67.3769C43.118 67.6841 43.1062 67.989 43.0944 68.2938V68.308C43.0944 68.4285 43.0873 68.5467 43.0825 68.6648C43.0778 68.8326 43.0731 68.998 43.0684 69.1658C43.0589 69.5392 43.0495 69.9102 43.0376 70.2835C43.0329 70.4135 43.0495 70.5269 42.8439 70.534C41.797 70.5577 40.7478 70.5978 39.6986 70.6049C39.5261 70.6073 39.4694 70.5695 39.4717 70.3828C39.4741 70.0378 39.4765 69.6904 39.4741 69.343C39.4741 68.8161 39.4741 68.2891 39.4741 67.7645C39.3867 67.7692 39.2969 67.7763 39.2094 67.781C39.2023 68.3033 39.1952 68.8255 39.1905 69.3478C39.1858 69.6951 39.1811 70.0449 39.1787 70.3946C39.1787 70.5435 39.1527 70.6073 38.9826 70.6073C38.7534 70.6073 38.5218 70.6049 38.2925 70.6049H38.0184C37.2504 70.6049 36.4824 70.6049 35.7144 70.5813C35.5773 70.5766 35.5301 70.5411 35.5301 70.397C35.5348 69.9692 35.5348 69.5415 35.5348 69.1138V68.3458C35.5348 68.2111 35.5372 68.0788 35.5395 67.9441C35.4497 67.963 35.3599 67.9842 35.2701 68.0055C35.2607 68.3576 35.2512 68.7121 35.2489 69.0642C35.2442 69.5037 35.2442 69.9456 35.2489 70.3852C35.2512 70.5269 35.2158 70.5695 35.0716 70.5647C34.3509 70.5458 33.6302 70.5364 32.9118 70.5246C32.8669 70.612 32.8243 70.6994 32.7794 70.7869C33.5593 70.8129 34.3414 70.8365 35.1213 70.8554C35.2182 70.8578 35.2465 70.8932 35.2465 70.9877C35.2442 72.063 35.2442 73.1382 35.2489 74.2134C35.2489 74.3221 35.2111 74.3481 35.1095 74.3481C34.1808 74.3481 33.2544 74.3481 32.3305 74.3552C32.1981 74.3575 32.191 74.2961 32.1934 74.1968C32.1958 73.6486 32.1934 73.1003 32.1934 72.5521H32.2052V71.9353C32.1036 72.1409 32.0043 72.3465 31.9075 72.5521C31.9027 73.1027 31.9075 73.6557 31.9098 74.2063C31.9098 74.3481 31.8555 74.3741 31.7302 74.3741H31.0875C31.0497 74.4615 31.0142 74.5489 30.9788 74.6364C31.2269 74.6364 31.475 74.634 31.7231 74.634C31.82 74.634 31.9098 74.6198 31.9075 74.7711C31.9004 75.1421 31.8956 75.6501 31.8909 76.0211C31.9831 76.0495 32.08 76.0755 32.1745 76.1015C32.1863 75.5934 32.1934 74.9932 32.191 74.7852C32.191 74.6718 32.2241 74.6316 32.3399 74.634C33.2592 74.6364 34.1784 74.6364 35.0976 74.6316C35.2134 74.6316 35.2489 74.6671 35.2489 74.7829C35.2465 75.4634 35.2465 76.2716 35.2489 76.9522C35.3434 76.9782 35.4379 77.0042 35.5348 77.0302C35.5395 76.3425 35.5372 75.5296 35.5301 74.842C35.5301 74.6694 35.5821 74.6269 35.7475 74.6316C36.2343 74.6411 36.7187 74.634 37.2079 74.634H37.4985C37.983 74.634 38.4698 74.6387 38.9542 74.6316C39.0936 74.6293 39.1433 74.6647 39.1362 74.8136C39.0795 75.7588 39.0936 76.7064 39.1007 77.654C39.1007 77.8053 39.0251 77.9352 38.9164 77.9518C39.2189 78.0369 39.5332 78.1125 39.8309 78.1999C40.8423 78.1928 41.8774 78.0629 42.8888 78.0203C43.014 78.0156 43.0376 78.0605 43.0353 78.1692C43.0306 78.3086 43.04 78.4528 43.0424 78.5946C43.0447 78.7434 43.0471 78.9207 43.0495 79.0695C43.1487 79.0979 43.2432 79.1215 43.3401 79.1499C43.3354 78.838 43.333 78.5024 43.3259 78.1928C43.3259 78.0558 43.359 78.0061 43.5032 78.0014C43.9144 77.9849 44.3255 77.9636 44.7367 77.9447C44.9092 77.9352 45.0794 77.9282 45.2519 77.9187C45.2519 77.9116 45.2542 77.9022 45.2542 77.8927C45.2708 77.8076 45.285 77.7202 45.2991 77.6351C45.1124 77.6422 44.9258 77.6517 44.7391 77.6588C44.3232 77.6777 43.9049 77.6942 43.489 77.7108C43.3992 77.7155 43.3189 77.7297 43.3165 77.5879C43.2976 76.6285 43.274 75.6667 43.2456 74.7073C43.2432 74.5726 43.3047 74.5513 43.4157 74.5466C43.8789 74.53 44.3421 74.5135 44.7982 74.4969C45.0935 74.4851 45.3866 74.4757 45.6749 74.4639C45.6796 74.4071 45.6843 74.3504 45.6867 74.2937C45.6914 74.2488 45.6938 74.2063 45.6985 74.1637C45.4031 74.1732 45.1054 74.185 44.81 74.1992C44.3586 74.2181 43.9073 74.2417 43.4559 74.2606C43.2834 74.2701 43.2432 74.2134 43.2456 74.0456C43.255 73.1004 43.2361 72.1528 43.2858 71.2052C43.307 70.794 43.3023 70.794 43.7135 70.7798C44.1578 70.7632 44.602 70.7467 45.0486 70.7302C45.4031 70.716 45.7599 70.7018 46.1168 70.6876C46.1191 70.6758 46.1191 70.664 46.1215 70.6522C46.1262 70.5671 46.1357 70.4844 46.1428 70.3993C45.7883 70.4159 45.4315 70.4324 45.077 70.449L45.0817 70.4466ZM39.1409 74.1968C39.1362 74.2984 39.1078 74.3386 39.0015 74.3386C38.517 74.3386 38.0326 74.3386 37.5505 74.341H37.2575C36.7282 74.3433 36.2012 74.3457 35.6742 74.3481C35.5679 74.3504 35.5348 74.315 35.5348 74.2086C35.5372 73.1405 35.5395 72.0724 35.5348 71.0043C35.5324 70.8625 35.601 70.8554 35.7097 70.8554C36.2556 70.8601 36.8038 70.8578 37.352 70.8578V70.8979C37.5529 70.8979 37.7538 70.8979 37.9546 70.9003H38.2429C38.4934 70.9003 38.7439 70.8979 38.9944 70.8956C39.1314 70.8932 39.1811 70.9263 39.1834 71.0728C39.1882 72.1149 39.1669 73.1547 39.1409 74.1968ZM39.4741 71.0941C39.4741 70.9925 39.4552 70.8979 39.6182 70.8956C40.6816 70.8743 41.7427 70.846 42.8061 70.8129C42.9597 70.8105 43.0093 70.8436 43.0046 71.0137C42.9809 72.0346 42.9384 73.0555 42.9597 74.0787C42.9644 74.2276 42.9219 74.2677 42.7706 74.2748C42.2436 74.2984 41.7167 74.2937 41.1897 74.3363C40.6604 74.3363 40.1334 74.3339 39.6064 74.341C39.4646 74.341 39.4245 74.3032 39.4268 74.159C39.4481 73.1382 39.4599 72.1149 39.4741 71.0941ZM42.8084 77.7509C41.7214 77.784 40.6344 77.8242 39.5474 77.8691C39.4268 77.8738 39.3796 77.8478 39.3819 77.7178C39.3961 76.7442 39.4056 75.7707 39.4103 74.7994C39.4127 74.6553 39.4646 74.6222 39.5993 74.6222C40.1334 74.6151 40.6675 74.5773 41.2015 74.5537C41.7214 74.5537 42.2413 74.5584 42.7612 74.5513C42.9124 74.5489 42.9691 74.5797 42.9715 74.7474C42.9857 75.6667 43.0093 76.5836 43.04 77.5028C43.0471 77.6848 42.9951 77.7462 42.8084 77.7509Z" fill="#FFB042"/>
<path d="M38.5265 69.5279C38.4107 69.88 38.3564 70.2439 38.2949 70.6055C38.2784 70.7047 38.2619 70.804 38.243 70.9008C38.2241 71.0048 38.2028 71.1088 38.1768 71.2104C37.9216 72.2454 37.7207 73.2899 37.5506 74.3415C37.5317 74.4384 37.5175 74.5353 37.5009 74.6345C37.3804 75.3931 37.2741 76.1564 37.1677 76.9173C37.1488 77.0614 37.1087 77.3119 37.0898 77.4561L36.8204 77.3828C36.9362 76.5037 37.078 75.5112 37.2126 74.6345C37.2292 74.5353 37.2434 74.4384 37.2599 74.3415C37.3024 74.0698 37.3473 73.798 37.3946 73.5262C37.5482 72.6425 37.7656 71.7728 37.957 70.9008C37.9807 70.8016 38.0019 70.7023 38.0232 70.6055C38.0397 70.5346 38.0539 70.466 38.0681 70.3951C38.1201 70.1494 38.1579 69.9013 38.2004 69.6555C38.217 69.5681 38.243 69.4854 38.3044 69.4192C38.3517 69.3672 38.4107 69.3601 38.4722 69.3908C38.5265 69.4192 38.5478 69.4712 38.5289 69.5279H38.5265Z" fill="#1C0F09"/>
<path d="M66.4371 70.8369C66.4584 71.1866 65.4162 72.2926 64.0149 73.8475C63.9275 73.942 63.84 74.0413 63.7503 74.1405C63.1666 74.7904 62.5309 75.5087 61.8905 76.2791C61.796 76.3949 61.6991 76.5131 61.5998 76.6312C59.5676 79.1219 57.7102 82.116 57.0178 84.8808C55.0564 83.203 51.1762 81.6812 48.3074 80.6934C46.3862 80.0317 44.7864 79.5426 44.784 79.5426C44.7415 79.1597 44.7391 78.3256 44.7415 77.9427C44.7439 77.8482 44.7439 77.7513 44.7439 77.6568C44.7462 77.4937 44.7439 77.3283 44.7391 77.1653C44.7391 76.2744 44.7651 75.3835 44.8029 74.495C44.8053 74.3957 44.81 74.2965 44.8148 74.1972C44.8407 73.6584 44.8691 73.122 44.8998 72.5832C44.9353 71.9641 44.992 71.345 45.0534 70.7282C45.0629 70.6337 45.0723 70.5391 45.0818 70.447C45.1054 70.2319 45.1267 70.0169 45.1503 69.8042L45.2354 69.0031C45.2567 68.7763 45.2803 68.5494 45.3016 68.3226C45.3086 68.2328 45.3299 68.1453 45.3535 68.0626C45.3843 67.9492 45.4244 67.8405 45.4504 67.7247C45.467 67.6562 45.5095 67.5995 45.5922 67.6065C45.6655 67.6113 45.7033 67.6633 45.6986 67.7294C45.6915 67.8712 45.7789 67.8192 45.8451 67.805C46.1405 67.7436 46.424 67.6467 46.717 67.5735C46.8116 67.5522 46.9061 67.5309 47.003 67.5144C47.0243 67.512 47.0432 67.5073 47.0644 67.5049C47.7781 67.3891 48.5012 67.3324 49.2172 67.2379C50.3349 67.089 51.4527 66.926 52.5704 66.7795C54.0521 66.5833 55.5267 66.3494 56.9989 66.0989C58.2915 65.8768 59.5841 65.6594 60.8862 65.5034C61.4084 65.4396 61.933 65.3805 62.46 65.3356H62.4624C62.8452 65.3049 63.228 65.2836 63.6132 65.2765C64.1402 65.2694 64.6671 65.2269 65.1941 65.2009C65.317 65.1938 65.4375 65.1726 65.5462 65.1158C65.7163 65.026 65.792 65.1111 65.8203 65.26C65.87 65.5176 65.9148 65.7775 65.9479 66.0398C65.9928 66.4108 66.0401 66.7818 66.085 67.1528C66.163 67.7743 66.2386 68.3935 66.3048 69.0173C66.3686 69.6223 66.4016 70.2296 66.4371 70.8369Z" fill="#5C2E17"/>
<path d="M61.9121 74.0292C61.8057 74.3884 61.8553 74.7547 61.8672 75.1163C61.8813 75.5038 61.8908 75.8914 61.8908 76.2789C61.7963 76.3947 61.6994 76.5128 61.6001 76.631C61.6143 75.8535 61.5954 75.0761 61.6001 74.2986C61.6001 74.1781 61.5434 74.1734 61.4513 74.1781C60.5391 74.2395 59.6317 74.3199 58.729 74.4451C57.4907 74.62 56.2548 74.8161 55.0236 75.0312C55.0165 75.0312 55.0095 75.0312 55.0024 75.0335C54.8795 75.0714 54.6999 74.9674 54.6337 75.0997C54.5794 75.206 54.6219 75.3644 54.6219 75.4991H54.6314C54.6574 76.4514 54.681 77.4037 54.707 78.3584C54.7093 78.4246 54.7212 78.4931 54.7282 78.5593C54.7401 78.6491 54.7188 78.7271 54.6195 78.746C54.5203 78.7649 54.4636 78.7034 54.4518 78.6113C54.4329 78.4506 54.4116 78.2899 54.4116 78.1268C54.4139 77.1816 54.388 76.234 54.3431 75.2888C54.3265 74.8965 54.4187 74.8303 54.811 74.7831C55.3332 74.7192 55.8507 74.62 56.3706 74.5255C57.6467 74.2939 58.9298 74.1072 60.2224 73.982C60.7258 73.9347 61.2315 73.8969 61.7372 73.8567C61.8601 73.8449 61.9522 73.8922 61.9121 74.0292Z" fill="#1C0F09"/>
<path d="M49.7439 73.6531C49.7439 73.1852 49.7439 72.7197 49.7439 72.2518C49.7439 72.1974 49.7392 72.1431 49.7439 72.0887C49.7486 71.9966 49.7888 71.9257 49.8904 71.9304C49.9897 71.9351 49.9968 72.0131 49.9991 72.0934C50.011 72.4385 50.0251 72.7835 50.0369 73.1285C50.0795 74.5345 50.1126 75.9429 50.1646 77.349C50.1835 77.8547 50.2449 78.3604 50.2803 78.8661C50.2874 78.9653 50.3252 79.1118 50.1646 79.1189C50.0204 79.126 50.0086 78.9913 49.9991 78.8826C49.9046 77.8169 49.8479 76.7511 49.8219 75.683C49.8054 75.0071 49.7652 74.3313 49.7463 73.6531H49.7439Z" fill="#1C0F09"/>
<path d="M64.0147 73.8472C63.9273 73.9417 63.8398 74.041 63.75 74.1402C63.7335 73.6345 63.6862 73.1312 63.7099 72.6278C63.7099 72.5735 63.7075 72.5191 63.7169 72.4648C63.7264 72.3868 63.7784 72.3443 63.8564 72.349C63.9296 72.3537 63.9627 72.4057 63.9627 72.4742C63.9651 72.6089 63.9651 72.7436 63.9651 72.8807C63.9863 73.2021 64.0029 73.5258 64.0147 73.8472Z" fill="#1C0F09"/>
<path d="M39.2664 17.1631C40.3558 17.156 41.431 17.2883 42.4448 17.6972C44.5149 18.5313 45.7933 20.0532 46.299 22.2319C46.5542 23.3355 46.5377 24.4438 46.429 25.5592C46.3085 26.7904 46.1407 28.0144 45.8949 29.2291C45.6964 30.2121 45.4601 31.1857 44.9544 32.0648C44.392 33.0408 43.6831 33.8678 42.5606 34.2294C42.3337 34.3026 42.1021 34.3523 41.8635 34.3475C41.7099 34.3452 41.6248 34.3972 41.5775 34.5602C41.1947 35.919 40.7977 37.2754 40.4125 38.6342C40.3653 38.7996 40.2684 38.9603 40.3653 39.1564C40.4149 39.2581 40.2188 39.4353 40.0462 39.466C39.7769 39.5133 39.5075 39.5015 39.2381 39.4636C38.255 39.3266 37.2531 39.3337 36.2771 39.1328C35.5918 38.9934 34.9349 38.7524 34.3157 38.431C33.9093 38.2207 33.5832 37.8993 33.2783 37.5614C33.0893 37.3558 33.0515 37.0887 33.0491 36.8217C33.0444 36.1364 33.0657 35.4511 33.2004 34.7824C33.387 33.856 33.5146 32.9226 33.6423 31.9868C33.6777 31.7198 33.6423 31.5095 33.4627 31.2826C32.9948 30.6918 32.6498 30.0278 32.3473 29.3354C31.9125 28.3382 31.5982 27.3102 31.4446 26.2303C31.1894 24.4202 31.369 22.6668 32.1559 21.0008C32.5221 20.2233 33.1342 19.6491 33.7793 19.1032C35.1475 17.9453 36.7663 17.39 38.515 17.1678C38.7607 17.1371 39.0136 17.1631 39.2641 17.1631H39.2664Z" fill="#FF9970"/>
<path d="M42.2698 30.1633C42.4683 30.1963 42.7046 30.142 42.941 30.1491C43.1489 30.1562 43.3356 30.1987 43.4419 30.3925C43.5506 30.5886 43.5152 30.7895 43.3899 30.9667C43.2954 31.099 43.2552 31.2196 43.2836 31.3921C43.3309 31.6662 43.1938 31.8789 42.9646 32.0207C42.4471 32.3444 41.6129 32.3019 41.1781 31.8009C40.9961 31.5906 40.8189 31.3803 40.7409 31.1061C40.7078 30.9856 40.7362 30.8958 40.8283 30.8178C41.0765 30.6099 41.3317 30.4114 41.62 30.2554C41.8138 30.1514 42.0193 30.1396 42.2675 30.168L42.2698 30.1633Z" fill="#F05129"/>
<path d="M40.7527 34.5444C40.2683 34.5089 39.8122 34.3837 39.3821 34.1521C38.9544 33.9205 38.5432 33.6606 38.1675 33.3534C38.0942 33.2943 38.0304 33.2234 37.9714 33.1502C37.9194 33.0887 37.9005 33.0131 37.9666 32.9517C38.0375 32.8855 38.1061 32.9186 38.1628 32.9753C38.5385 33.3652 39.004 33.6251 39.4719 33.8803C39.8737 34.1025 40.3037 34.2277 40.7622 34.2537C40.8662 34.2584 40.9749 34.2679 40.9796 34.4073C40.9819 34.5066 40.904 34.5515 40.7551 34.5444H40.7527Z" fill="#1C0F09"/>
<path d="M43.286 28.7C43.286 28.9671 42.9362 29.4468 42.7354 29.5153C42.6645 29.5389 42.6007 29.5389 42.5534 29.4728C42.5038 29.4066 42.5298 29.3452 42.5794 29.2908C42.5841 29.2861 42.5888 29.279 42.5936 29.2766C43.0189 29.0025 43.0071 28.6268 42.9173 28.1778C42.8039 27.6107 42.7732 27.027 42.7094 26.4504C42.6999 26.3677 42.6975 26.2731 42.8063 26.2613C42.9197 26.2495 42.9528 26.3369 42.9646 26.4315C43.0331 26.9797 43.0946 27.5303 43.1702 28.0762C43.2009 28.303 43.2529 28.5275 43.286 28.6977V28.7Z" fill="#1C0F09"/>
<path d="M42.0831 31.2591C41.5821 31.2591 41.0835 31.226 40.592 31.1362C40.54 31.1268 40.488 31.1103 40.436 31.0913C40.358 31.063 40.306 31.0086 40.3297 30.9212C40.3557 30.8243 40.4384 30.8267 40.5116 30.8456C40.8543 30.9401 41.2064 30.9354 41.5561 30.9732C42.1989 31.0464 42.8227 30.9567 43.4419 30.7983C43.5435 30.7723 43.6404 30.7558 43.6758 30.8763C43.7136 30.9968 43.6167 31.0535 43.5246 31.0772C43.0779 31.1906 42.629 31.2757 42.1658 31.2591C42.1398 31.2591 42.1114 31.2591 42.0854 31.2591H42.0831Z" fill="#1C0F09"/>
<path d="M40.046 25.2861C40.3484 25.2932 40.6887 25.3334 41.0243 25.4185C41.0952 25.4374 41.1708 25.4539 41.2275 25.5059C41.2748 25.5484 41.3031 25.6028 41.2771 25.669C41.2488 25.7351 41.1873 25.754 41.1259 25.7422C41.0526 25.7304 40.9841 25.702 40.9109 25.6855C40.1381 25.4988 39.3748 25.5154 38.621 25.7895C38.5336 25.8226 38.4296 25.8793 38.38 25.754C38.3304 25.6241 38.4414 25.5768 38.5359 25.539C39.0062 25.3476 39.5001 25.2956 40.046 25.2861Z" fill="#1C0F09"/>
<path d="M39.7766 27.5516C39.4363 27.535 39.1078 27.4641 38.803 27.3058C38.7155 27.2609 38.6258 27.1995 38.6801 27.0884C38.7345 26.975 38.8384 27.008 38.9282 27.0506C39.6844 27.424 40.391 27.2987 41.0645 26.8403C41.133 26.7954 41.1992 26.767 41.263 26.8379C41.3291 26.9088 41.2913 26.975 41.2393 27.034C41.1566 27.1286 41.0479 27.1806 40.9392 27.2373C40.6202 27.4098 40.105 27.5492 39.7766 27.5492V27.5516Z" fill="#1C0F09"/>
<path d="M44.6092 27.0279C44.354 27.0279 44.1177 26.9428 43.879 26.8672C43.7987 26.8412 43.7491 26.7845 43.7727 26.697C43.7987 26.6001 43.879 26.6049 43.9547 26.619C44.0397 26.638 44.1224 26.6687 44.2075 26.6923C44.4816 26.7726 44.7534 26.7774 45.0228 26.671C45.1102 26.6356 45.2213 26.6025 45.2662 26.723C45.3134 26.8435 45.2118 26.8884 45.122 26.9239C44.9566 26.9901 44.7865 27.0231 44.6092 27.0255V27.0279Z" fill="#1C0F09"/>
<path d="M45.0345 25.3726C44.6871 25.4081 44.3374 25.4364 44.0018 25.5569C43.9191 25.5877 43.8246 25.6349 43.7773 25.5191C43.73 25.4033 43.8151 25.3419 43.912 25.3088C44.3185 25.1741 44.7344 25.0985 45.1644 25.115C45.259 25.1174 45.3251 25.1599 45.318 25.2616C45.311 25.3584 45.2353 25.3726 45.155 25.3726C45.1148 25.3726 45.0746 25.3726 45.0345 25.3726Z" fill="#1C0F09"/>
<path d="M34.3603 36.3474C34.2658 36.215 34.1807 36.104 34.1003 35.9882C34.0531 35.9197 34.046 35.8464 34.1216 35.7921C34.202 35.7353 34.2658 35.7802 34.313 35.844C35.1188 36.9334 36.3004 37.3092 37.5505 37.5431C38.4886 37.718 39.4409 37.77 40.3933 37.822C40.4925 37.8267 40.5965 37.8101 40.6958 37.8007C40.9982 37.7676 41.088 37.8078 41.2298 38.0819C41.6764 38.9491 42.0663 39.8353 42.2956 40.79C42.6193 42.1299 42.9785 43.4603 43.3022 44.8002C43.7631 46.7048 44.3042 48.5906 44.6469 50.5236C44.9233 52.088 45.1762 53.6547 45.4078 55.2262C45.8071 57.9201 46.1498 60.6211 46.6319 63.3032C46.8682 64.6195 47.0359 65.9475 47.0714 67.2898C47.0832 67.7577 46.9461 68.157 46.7169 68.5729C46.5397 68.8943 46.2916 68.8707 46.0434 68.9061C44.8713 69.0786 43.6898 69.1353 42.5082 69.2015C41.0691 69.2842 39.6324 69.3764 38.1909 69.3575C37.0589 69.3433 35.9436 69.2181 34.8305 68.9888C34.3343 68.8849 33.8711 68.736 33.415 68.5257C33.2685 68.4595 33.1078 68.4217 32.9495 68.3886C32.3469 68.2681 31.8554 67.9325 31.3851 67.5639C31.1866 67.4079 31.0236 67.2118 30.9173 66.9826C30.4517 65.9901 30.0405 64.9645 30.0642 63.8586C30.0925 62.5589 29.8397 61.304 29.6648 60.0327C29.5348 59.1016 29.4639 58.1659 29.3907 57.2277C29.3269 56.4266 29.2607 55.6255 29.2064 54.8221C29.1544 54.0588 29.0977 53.2979 29.0717 52.5346C28.9866 50.2164 28.9323 47.8958 28.9393 45.5753C28.9393 44.9136 29.048 44.2732 29.1544 43.6257C29.282 42.8506 29.3883 42.0732 29.6884 41.3406C30.1611 40.1851 30.7967 39.1335 31.6569 38.219C32.0255 37.8243 32.3257 37.3682 32.7156 36.9901C32.8172 36.8909 32.9188 36.7916 33.018 36.69C33.3631 36.3379 33.7671 36.1938 34.2539 36.3356C34.2823 36.345 34.3154 36.345 34.3603 36.3521V36.3474Z" fill="#FDE2D9"/>
<path d="M41.8445 19.4463C41.5822 19.8575 41.353 20.2615 41.086 20.6444C40.4338 21.5778 39.6823 22.4309 38.9545 23.3029C38.2195 24.1843 37.6099 25.1508 37.0451 26.1457C36.3551 27.3627 36.2558 28.6458 36.5677 29.9928C36.8159 31.0562 37.201 32.0723 37.572 33.0955C37.9454 34.1211 38.0848 35.1916 38.1416 36.2763C38.1794 37.0017 38.0518 37.7319 38.1203 38.4432C38.1888 39.1474 37.8509 39.646 37.5602 40.1943C37.5177 40.2746 37.4421 40.3361 37.3428 40.303C37.2389 40.2675 37.2436 40.1919 37.2578 40.0903C37.2885 39.8965 37.2081 39.7051 37.1892 39.5137C37.116 38.7859 37.0805 38.0557 37.0758 37.3255C37.0687 36.1416 36.7072 35.0664 36.1258 34.0526C35.9722 33.7856 35.8092 33.5232 35.6343 33.2302C35.5965 33.4524 35.6556 33.6367 35.6532 33.821C35.6438 34.6717 35.7217 35.5248 35.5752 36.3731C35.5138 36.7347 35.4051 37.0821 35.32 37.4389C35.0553 38.5472 34.9963 39.6649 35.105 40.8016C35.1759 41.546 35.3436 42.2502 35.6579 42.926C35.691 42.9993 35.7099 43.0796 35.7761 43.1363C35.8399 43.193 35.8541 43.2758 35.821 43.3419C35.6579 43.6893 35.6201 44.0792 35.424 44.4171C35.1002 44.9748 34.6489 45.4262 34.2235 45.8964C33.6233 46.5581 32.9806 47.1796 32.385 47.846C32.1889 48.0658 32.144 48.0492 31.9479 47.8436C31.3476 47.2198 30.8656 46.5061 30.4355 45.7641C29.8589 44.7621 29.625 43.6538 29.7904 42.5172C30.0054 41.0237 29.7667 39.6271 29.1547 38.2683C28.6892 37.238 28.2733 36.1865 28.044 35.0758C27.881 34.2818 27.8763 33.4783 27.9235 32.6725C28.0015 31.3303 28.2236 30.014 28.5521 28.712C28.7766 27.8187 29.1405 26.9704 29.417 26.0937C29.6533 25.3398 29.9487 24.6026 30.1023 23.8227C30.1874 23.3903 30.1897 22.9484 30.2488 22.5136C30.4308 21.1595 30.7521 19.8409 31.376 18.6168C31.7943 17.7945 32.3898 17.1044 33.1105 16.5208C34.4008 15.4763 35.8304 14.7224 37.4917 14.5003C39.2097 14.2687 40.8946 14.3798 42.4849 15.1549C42.5653 15.1951 42.648 15.2116 42.7378 15.214C43.6287 15.2305 44.4085 15.5283 45.0961 16.1049C46.3273 17.1375 46.9701 18.4774 47.1875 20.0418C47.4262 21.755 47.4262 23.4801 47.3694 25.2051C47.3576 25.5974 47.3435 25.9897 47.3576 26.382C47.4002 27.5139 47.2064 28.6175 46.9346 29.7116C46.7456 30.4701 46.6818 31.2429 46.6274 32.0203C46.6062 32.3228 46.5754 32.6276 46.5849 32.9325C46.5873 33.0317 46.592 33.1593 46.4526 33.1664C46.3131 33.1735 46.325 33.0435 46.299 32.9467C46.1005 32.2094 46.2233 31.4414 46.0934 30.697C46.0674 30.5434 46.039 30.3921 45.9894 30.2433C45.694 29.3855 45.4553 28.5135 45.3419 27.6108C45.2946 27.2398 45.3112 26.8664 45.323 26.4954C45.3372 25.9732 45.3348 25.4556 45.245 24.9381C45.1269 24.2528 44.8102 23.6786 44.2951 23.2131C43.7515 22.7239 43.2151 22.23 42.811 21.6085C42.3833 20.9492 42.0997 20.2308 41.8493 19.4557L41.8445 19.4463Z" fill="#5C2E17"/>
<path d="M46.2162 26.2642C46.2162 26.035 46.2162 25.8057 46.2162 25.5742C46.2162 25.4773 46.2162 25.3662 46.3486 25.3662C46.4856 25.3662 46.4738 25.4867 46.4762 25.5765C46.488 26.0302 46.4951 26.4816 46.4998 26.9353C46.5045 27.2732 46.54 27.6088 46.5967 27.942C46.6109 28.0341 46.6298 28.131 46.5187 28.1618C46.3958 28.1948 46.3533 28.0956 46.3297 28.0011C46.2351 27.6253 46.2469 27.2378 46.2186 26.855C46.2044 26.6588 46.2162 26.4627 46.2162 26.2666V26.2642Z" fill="#1C0F09"/>
<path d="M35.3009 36.6805C35.2537 35.7305 35.0362 34.8278 34.6629 33.9511C34.0627 32.5474 33.6916 31.0823 33.7035 29.5439C33.7105 28.6294 33.8287 27.7244 34.0036 26.8264C34.0272 26.7082 34.0225 26.5026 34.2186 26.5499C34.4171 26.5995 34.2801 26.7673 34.2588 26.8736C33.7744 29.2367 33.9327 31.5431 34.8992 33.7644C35.2489 34.5655 35.4805 35.3902 35.5632 36.2575C35.5892 36.5363 35.5514 36.8105 35.523 37.087C35.516 37.1555 35.49 37.2098 35.4167 37.2075C35.3269 37.2075 35.282 37.146 35.2844 37.061C35.2844 36.9334 35.2962 36.8034 35.3009 36.6758V36.6805Z" fill="#1C0F09"/>
<path d="M32.593 31.1644C32.593 31.0746 32.6025 31.0013 32.6828 30.9848C32.7868 30.9611 32.8222 31.0391 32.8506 31.1195C33.0515 31.6937 33.1909 32.2845 33.2996 32.8823C33.4745 33.8465 33.5335 34.8248 33.6659 35.7937C33.758 36.4695 33.8573 37.143 34.0345 37.8047C34.0605 37.9039 34.1314 38.0315 33.9731 38.0741C33.8266 38.1142 33.7982 37.9748 33.7675 37.8756C33.5808 37.2942 33.5052 36.6893 33.4154 36.0891C33.2452 34.9477 33.1956 33.7898 32.9758 32.6555C32.886 32.197 32.7844 31.7433 32.6332 31.3014C32.6166 31.2518 32.6048 31.1974 32.5954 31.1644H32.593Z" fill="#1C0F09"/>
<path d="M35.041 24.4963C35.0811 24.3333 35.1568 24.1608 35.2348 23.9883C35.575 23.2415 36.0996 22.62 36.6077 21.9891C37.1252 21.344 37.7136 20.7674 38.3068 20.1908C38.5738 19.9308 38.8314 19.6638 39.0464 19.359C39.0819 19.3093 39.1244 19.2668 39.1693 19.2243C39.2284 19.1675 39.2993 19.1368 39.3654 19.2006C39.4316 19.2621 39.4127 19.3353 39.3584 19.3991C39.1433 19.6591 38.9495 19.9379 38.7085 20.1766C37.9287 20.947 37.163 21.7291 36.4896 22.5964C36.0311 23.1848 35.5987 23.7874 35.334 24.4916C35.3198 24.5294 35.3033 24.5672 35.282 24.6027C35.2442 24.6712 35.1828 24.6972 35.1095 24.6712C35.0386 24.6476 35.0339 24.5838 35.041 24.4963Z" fill="#1C0F09"/>
<path d="M37.936 15.4079C38.0376 15.4032 38.1156 15.4198 38.1227 15.5143C38.1298 15.6159 38.0494 15.6466 37.9644 15.6679C37.4279 15.8073 36.8962 15.9633 36.3764 16.1523C35.1546 16.5966 34.0771 17.2559 33.2098 18.2389C33.0349 18.4374 32.8837 18.6525 32.7372 18.8723C32.6828 18.955 32.6119 19.0353 32.5056 18.9644C32.4064 18.9006 32.456 18.8084 32.4985 18.7305C32.5836 18.5674 32.6852 18.4162 32.801 18.2744C33.7439 17.1117 34.9538 16.3366 36.3622 15.8617C36.8419 15.6986 37.3263 15.5521 37.8202 15.4363C37.8651 15.4245 37.9124 15.4127 37.936 15.4079Z" fill="#1C0F09"/>
<path d="M35.3719 17.8612C35.3719 17.9463 35.3293 17.9794 35.275 18.0172C34.8095 18.3551 34.3628 18.7119 34.0155 19.1798C33.9564 19.2578 33.8902 19.3712 33.7721 19.2838C33.661 19.2011 33.739 19.0971 33.7957 19.0144C33.9753 18.7403 34.214 18.5182 34.4668 18.3149C34.6818 18.1424 34.8709 17.9345 35.119 17.8021C35.2206 17.7478 35.3246 17.7242 35.3719 17.8612Z" fill="#1C0F09"/>
<path d="M32.8269 16.786C32.5504 17.1074 32.3047 17.4217 32.0258 17.7053C31.591 18.1495 31.3996 18.6671 31.3902 19.2885C31.3689 20.5055 31.3098 21.7202 31.2673 22.9372C31.2649 23.0057 31.246 23.0813 31.2909 23.1664C31.3996 22.9395 31.4516 22.7127 31.5178 22.4882C31.6666 21.9801 31.8651 21.4933 32.1629 21.0538C32.1936 21.0089 32.2267 20.9663 32.2621 20.9238C32.619 20.4866 33.179 20.5764 33.3822 21.1034C33.4886 21.3799 33.5051 21.6753 33.498 21.9636C33.4744 23.2207 33.3681 24.4732 33.1908 25.7185C33.0443 26.7488 32.9096 27.7815 32.6544 28.7906C32.6095 28.9678 32.5504 29.1403 32.5055 29.3175C32.3614 29.8752 32.0684 30.3478 31.6643 30.7519C31.5698 30.8488 31.5343 30.9457 31.5532 31.078C31.695 32.0965 31.8864 33.1032 32.118 34.1052C32.3968 35.3103 32.6686 36.5155 33.0065 37.7065C33.2286 38.4911 33.6186 39.2071 33.9258 39.9562C34.3369 40.9558 34.7788 41.9436 35.2018 42.9384C35.2562 43.0637 35.2916 43.0944 35.4051 42.9975C35.9958 42.4894 36.5866 41.9837 37.0899 41.3859C37.2672 41.1779 37.494 41.0267 37.6925 40.8447C37.8083 40.7384 37.8958 40.8045 37.9714 40.918C38.4227 41.5915 38.9024 42.2484 39.3656 42.9124C40.8945 45.1054 42.5014 47.2369 44.295 49.2266C44.6849 49.6591 45.0394 50.1199 45.4789 50.5051C45.6207 50.6279 45.5073 50.7201 45.4317 50.8099C44.6708 51.7079 43.8839 52.5846 43.0213 53.3904C41.9886 54.3569 40.9772 55.347 39.8831 56.245C38.7488 57.1761 37.4988 57.9086 36.0974 58.3576C35.0175 58.705 33.9518 58.5845 32.9049 58.1686C31.7115 57.6936 30.7001 56.9634 29.8589 56.0016C29.5422 55.6401 29.3272 55.1982 29.1429 54.7586C28.3725 52.9036 27.6494 51.0297 27.094 49.099C26.6356 47.5039 26.3473 45.8734 26.0637 44.2405C25.9338 43.4867 25.766 42.7399 25.6786 41.9814C25.6289 41.5584 25.6077 41.133 25.5769 40.7077C25.5297 40.046 25.499 39.3843 25.4375 38.725C25.3643 37.9287 25.3595 37.1323 25.3241 36.3336C25.2626 34.9346 25.2626 33.5333 25.2532 32.1343C25.2437 30.4353 25.3217 28.7409 25.5628 27.056C25.636 26.548 25.5226 26.0446 25.5297 25.5366C25.5439 24.5772 25.5297 23.6154 25.6053 22.6583C25.6407 22.233 25.8558 21.9163 26.2646 21.7982C26.5624 21.7107 26.6994 21.5335 26.7561 21.257C26.7632 21.2239 26.7821 21.1932 26.7868 21.1601C26.8908 20.3638 27.354 19.8533 28.0771 19.5579C28.1929 19.5107 28.2567 19.4421 28.2992 19.3216C28.5143 18.7049 28.9089 18.2582 29.5517 18.0692C29.6486 18.0408 29.6793 17.9794 29.7076 17.9038C29.8731 17.4642 30.2157 17.2161 30.6387 17.0625C31.3334 16.812 32.0447 16.6891 32.8175 16.786H32.8269Z" fill="#FF9970"/>
<path d="M30.5988 25.7232C30.6555 25.2576 30.7193 24.7968 30.8634 24.3502C30.9651 24.043 31.0572 23.7334 31.1234 23.4144C31.1423 23.3246 31.1447 23.197 31.277 23.2206C31.4282 23.2466 31.3975 23.3766 31.3762 23.4829C31.3148 23.802 31.225 24.1115 31.1258 24.4211C31.01 24.7897 30.9438 25.1678 30.9013 25.5507C30.8942 25.6239 30.8776 25.6972 30.8611 25.7704C30.8422 25.8649 30.7855 25.9169 30.6886 25.898C30.5941 25.8791 30.5893 25.8011 30.5941 25.7255L30.5988 25.7232Z" fill="#1C0F09"/>
<path d="M28.2306 19.8412C28.1455 20.3256 28.0533 20.8644 27.9612 21.4032C27.9281 21.5969 27.9021 21.7907 27.8666 21.9821C27.8501 22.0719 27.8076 22.1641 27.6989 22.1476C27.5713 22.1263 27.5831 22.0223 27.5996 21.9231C27.7272 21.1905 27.8525 20.4603 27.9801 19.7277C27.9943 19.6403 28.025 19.5552 28.1242 19.5647C28.2613 19.5765 28.2329 19.6947 28.2329 19.8412H28.2306Z" fill="#1C0F09"/>
<path d="M29.1308 20.281C29.2277 19.7162 29.3222 19.149 29.4191 18.5843C29.4427 18.4519 29.4616 18.3172 29.49 18.1849C29.5089 18.0975 29.5562 18.0289 29.6578 18.0526C29.7499 18.0762 29.7547 18.1518 29.7428 18.2322C29.6365 18.9056 29.5302 19.5791 29.4238 20.2526C29.4191 20.2786 29.412 20.3046 29.4026 20.3306C29.3742 20.4133 29.334 20.4866 29.2324 20.4629C29.1355 20.4417 29.1426 20.3589 29.1308 20.281Z" fill="#1C0F09"/>
<path d="M26.0236 23.7685C26.1205 23.1565 26.2268 22.5445 26.3615 21.9395C26.3804 21.8521 26.4183 21.7599 26.534 21.7835C26.6522 21.8072 26.6404 21.8993 26.6215 21.9915C26.4962 22.5586 26.4041 23.1281 26.3166 23.7024C26.3096 23.7425 26.3001 23.7804 26.2883 23.8205C26.2647 23.9032 26.2245 23.9789 26.1229 23.9623C26.0165 23.9434 26.0213 23.8536 26.026 23.7709L26.0236 23.7685Z" fill="#1C0F09"/>
<path d="M35.2467 43.1553C35.2396 43.056 35.2585 42.9898 35.3412 42.9757C35.4452 42.9568 35.4735 43.03 35.5066 43.1127C35.8233 43.9469 36.0832 44.7976 36.303 45.6625C36.5984 46.8157 36.7543 47.9949 36.9575 49.1646C36.9788 49.2851 37.0001 49.4033 37.0237 49.5238C37.0403 49.6112 37.0379 49.6939 36.941 49.7247C36.8299 49.7577 36.7803 49.6798 36.752 49.59C36.6622 49.2922 36.6314 48.9803 36.5842 48.6755C36.303 46.837 35.9272 45.0197 35.2821 43.2687C35.2656 43.2238 35.2538 43.1789 35.2467 43.1576V43.1553Z" fill="#1C0F09"/>
<path d="M49.5717 3.67123C51.1927 3.66178 52.6839 4.07296 53.9599 5.09618C54.9193 5.86655 55.607 6.86377 56.1552 7.95789C56.6113 8.87241 56.8524 9.85782 57.1005 10.8409C57.4573 12.254 57.6038 13.7002 57.8354 15.1322C57.9701 15.9593 58.2277 16.7628 58.4593 17.5662C59.0311 19.5465 59.5841 21.5315 60.1016 23.5283C60.1985 23.9041 60.0969 24.1546 59.7353 24.3294C57.9725 25.1801 56.1931 25.9836 54.234 26.279C53.8654 26.3333 53.4991 26.3948 53.1258 26.3853C52.5893 26.3735 52.327 26.1372 52.1971 25.6693C51.9678 24.8517 51.6346 24.0624 51.3109 23.2755C51.2495 23.1266 51.1762 22.9801 51.1242 22.8265C51.0769 22.6942 51.0297 22.6705 50.8974 22.7438C50.1908 23.1337 49.4582 23.4669 48.6524 23.5945C48.2081 23.6654 47.7662 23.6725 47.3243 23.552C46.8848 23.4314 46.5374 23.1904 46.2421 22.8407C45.4551 21.912 44.8833 20.8533 44.3799 19.7592C43.7584 18.4099 43.1842 17.0369 42.5793 15.6781C42.0925 14.584 41.6198 13.4875 41.3268 12.3225C41.1661 11.6869 41.0031 11.0488 41.0078 10.3872C41.0149 9.26468 41.445 8.27927 42.1279 7.42383C43.7513 5.38684 45.8191 4.07768 48.4445 3.74212C48.8202 3.69486 49.1983 3.66887 49.5764 3.6665L49.5717 3.67123Z" fill="#FF9970"/>
<path d="M45.0818 16.4033C45.0936 16.8949 45.0534 17.3888 45.1172 17.8803C45.1598 18.1969 45.1928 18.2277 45.5024 18.2584C45.7245 18.2796 45.9325 18.2418 46.1357 18.1591C46.2279 18.1213 46.3271 18.0882 46.3791 18.2064C46.4264 18.3198 46.3437 18.3836 46.2515 18.4238C45.9041 18.5774 45.5426 18.5868 45.181 18.497C45.0062 18.4545 44.9187 18.3175 44.8762 18.1497C44.8242 17.9441 44.81 17.7338 44.8053 17.5258C44.7887 16.7271 44.7887 15.9307 44.8266 15.1344C44.8313 15.0469 44.8502 14.9642 44.9565 14.9689C45.0605 14.9737 45.0818 15.0564 45.0818 15.1438C45.0818 15.5621 45.0818 15.9827 45.0818 16.401V16.4033Z" fill="#1C0F09"/>
<path d="M56.3729 14.2237C56.3729 14.4601 56.3847 14.6987 56.328 14.9303C56.302 15.0343 56.2642 15.1406 56.1342 15.117C56.0066 15.0934 56.0279 14.9752 56.0421 14.8831C56.1366 14.2946 56.0893 13.711 55.9995 13.1273C55.9948 13.0942 55.9877 13.0611 55.9783 13.028C55.9145 12.8012 55.8341 12.5696 55.5813 12.5058C55.3261 12.4396 55.1063 12.5625 54.9172 12.7303C54.8487 12.7917 54.7896 12.9075 54.688 12.8083C54.5888 12.709 54.6573 12.6074 54.7424 12.5294C54.9503 12.3404 55.1961 12.2317 55.4749 12.2198C55.7916 12.2057 56.0799 12.442 56.2028 12.8224C56.3493 13.2785 56.3729 13.7511 56.3682 14.2261L56.3729 14.2237Z" fill="#1C0F09"/>
<path d="M48.6358 12.8225C47.8749 12.917 47.1022 12.9548 46.3696 13.2147C46.2822 13.2455 46.1782 13.3069 46.1286 13.1793C46.0766 13.047 46.1853 13.0068 46.2822 12.969C46.8351 12.7563 47.4212 12.6925 48.0001 12.6098C48.2412 12.5767 48.4799 12.5247 48.7233 12.546C48.8249 12.5554 48.969 12.546 48.9643 12.6996C48.9596 12.8626 48.8154 12.8154 48.7138 12.8225C48.6878 12.8225 48.6595 12.8225 48.6335 12.8225H48.6358Z" fill="#1C0F09"/>
<path d="M46.9886 15.3256C46.8681 15.3303 46.7665 15.3256 46.7523 15.2145C46.7358 15.0798 46.8539 15.0656 46.9437 15.0609C47.5368 15.0325 48.0733 14.7986 48.6144 14.593C48.7137 14.5552 48.7987 14.4819 48.8909 14.4276C48.9665 14.3827 49.0469 14.3661 49.1059 14.4512C49.1579 14.5292 49.1154 14.5954 49.0563 14.6474C49.0067 14.6923 48.9523 14.7372 48.8909 14.7655C48.2741 15.0491 47.6408 15.2736 46.9839 15.3256H46.9886Z" fill="#1C0F09"/>
<path d="M43.9689 13.6306C43.9689 13.692 43.9287 13.7346 43.8696 13.7629C43.3899 13.978 42.9031 14.1812 42.4777 14.5026C42.4139 14.5499 42.3312 14.5569 42.2792 14.4813C42.2225 14.3939 42.2745 14.3324 42.3454 14.2781C42.7637 13.9496 43.2481 13.7369 43.7302 13.5266C43.8578 13.4723 43.9594 13.5243 43.9665 13.633L43.9689 13.6306Z" fill="#1C0F09"/>
<path d="M43.1203 16.3083C43.0305 16.313 42.9312 16.3178 42.9242 16.1949C42.9171 16.0909 42.995 16.0626 43.0848 16.0555C43.4346 16.0295 43.7465 15.8853 44.0584 15.7435C44.1506 15.701 44.2617 15.6443 44.3207 15.7743C44.3822 15.9042 44.2664 15.9491 44.1742 15.9893C43.8363 16.1405 43.5008 16.2989 43.1179 16.3083H43.1203Z" fill="#1C0F09"/>
<path d="M55.8219 16.6979C55.7628 16.6979 55.7132 16.6814 55.6872 16.6246C55.6565 16.5585 55.6825 16.5018 55.7392 16.4687C56.0464 16.2938 56.3299 16.0906 56.5521 15.8094C56.5922 15.7574 56.6561 15.7479 56.7175 15.781C56.7813 15.8165 56.786 15.8779 56.7695 15.9393C56.7199 16.126 56.0086 16.6908 55.8195 16.6979H55.8219Z" fill="#1C0F09"/>
<path d="M48.8723 8.3421C48.6006 8.78399 48.2272 9.10774 47.7853 9.35823C47.4994 9.51892 47.1945 9.63235 46.8661 9.65125C46.3816 9.67961 46.0201 9.46693 45.7578 9.06757C45.6042 8.83362 45.4955 8.58077 45.4364 8.29956C45.3301 8.35627 45.2923 8.45316 45.2568 8.54296C45.1268 8.86907 45.004 9.19754 44.874 9.52601C44.6046 10.2042 44.1367 10.6697 43.4136 10.8399C43.0709 10.9202 42.7236 10.9013 42.4093 10.7194C42.2864 10.6461 42.2415 10.6863 42.1682 10.7808C41.9343 11.0809 41.6554 11.3338 41.3553 11.5701C40.6582 12.1254 39.7602 12.1278 39.0702 11.5275C38.6141 11.1282 38.2999 10.6319 38.2077 10.0293C38.0895 9.26607 38.418 8.64221 38.9048 8.09633C39.0466 7.93801 39.0655 7.87184 38.9166 7.70642C38.288 7.00931 38.2786 6.21531 38.6378 5.39768C39.1695 4.19486 40.1336 3.59463 41.4191 3.46939C41.4853 3.4623 41.5326 3.45285 41.5704 3.39141C42.3077 2.23822 43.4372 1.61908 44.6542 1.12283C45.1245 0.931423 45.6136 0.796727 46.117 0.721107C46.8614 0.610042 47.5868 0.416268 48.2981 0.175232C49.4395 -0.209953 50.4036 0.0334463 51.1716 0.969233C51.2992 1.1252 51.3725 1.11811 51.5332 1.00468C52.3768 0.413905 53.3126 0.0570772 54.3524 0.0594403C55.4441 0.0594403 56.3232 0.714018 56.5808 1.69707C56.6989 2.14842 56.6635 2.61158 56.6257 3.07003C56.6115 3.24489 56.6493 3.27798 56.8242 3.31579C57.7741 3.52847 58.3413 3.9491 58.398 4.89197C58.4122 5.14246 58.4405 5.38822 58.4169 5.64108C58.3507 6.30511 58.0128 6.80608 57.4882 7.19127C57.37 7.27634 57.3653 7.31887 57.4575 7.4323C57.9348 8.01126 58.3153 8.6493 58.5209 9.37477C58.7052 10.027 58.6556 10.6627 58.2704 11.2416C58.1877 11.3645 58.1971 11.4637 58.2444 11.5961C58.5043 12.3074 58.7241 13.0281 58.7265 13.8008C58.7312 15.032 57.7859 15.6866 56.9234 15.8095C56.8336 15.8213 56.7226 15.8993 56.6564 15.8189C56.576 15.7244 56.6942 15.6346 56.7273 15.5448C56.9849 14.8146 57.0368 14.0679 56.8998 13.307C56.8147 12.8273 56.6658 12.3759 56.3468 11.9954C55.8766 11.4307 54.9573 11.4708 54.48 12.0333C54.161 12.409 54.0641 12.7753 54.1917 13.2573C54.3429 13.8316 54.4303 14.4223 54.5296 15.0084C54.6029 15.4432 54.7541 15.8378 54.9975 16.2065C55.2338 16.5633 55.4252 16.9438 55.541 17.3573C55.8104 18.3073 55.6143 19.1982 55.1511 20.0347C54.0924 21.9488 52.6013 23.4328 50.6612 24.4513C50.0846 24.7538 49.482 24.9948 48.8156 25.0208C48.4494 25.035 48.0878 25.0043 47.7286 24.9381C46.729 24.7514 46.1028 24.0969 45.6656 23.2438C45.245 22.4238 44.9449 21.5542 44.7582 20.6491C44.7109 20.4222 44.7157 20.1907 44.7109 19.9662C44.7062 19.6306 44.9189 19.4014 45.193 19.2407C45.7034 18.9429 46.2753 18.8272 46.8424 18.7114C47.2135 18.6357 47.5868 18.5743 47.9673 18.6617C48.4281 18.7681 48.8558 18.9382 49.2032 19.2761C49.3544 19.425 49.5293 19.5384 49.7089 19.6495C49.9168 19.7771 50.1366 19.8504 50.3847 19.8008C50.6092 19.7559 50.8384 19.7228 51.0606 19.6637C51.6088 19.5195 51.9586 19.1533 52.1429 18.631C52.3556 18.0284 52.4123 17.3951 52.5044 16.7665C52.6368 15.8615 52.6911 14.9517 52.7289 14.0395C52.7549 13.4086 52.6557 12.7847 52.6131 12.1585C52.606 12.064 52.5659 12.0427 52.4832 12.0616C51.8144 12.2176 51.1386 11.6717 51.1102 10.8777C51.1055 10.7288 51.0937 10.5823 51.1055 10.4311C51.1244 10.1948 51.1173 10.1924 50.9022 10.2704C50.8077 10.3058 50.7132 10.346 50.6163 10.3696C49.8412 10.5634 49.1016 10.0766 48.9196 9.25898C48.8534 8.9565 48.8865 8.65402 48.8629 8.33973L48.8723 8.3421Z" fill="#C95E16"/>
<path d="M52.9889 3.58836C53.7002 3.61671 54.2697 3.88847 54.5934 4.55959C54.6572 4.69429 54.7541 4.77699 54.8912 4.84316C55.8577 5.29688 56.3516 6.09088 56.4933 7.12591C56.5241 7.35277 56.5524 7.58199 56.4957 7.81121C56.4768 7.88447 56.4555 7.95536 56.413 8.0168C56.3705 8.07588 56.3161 8.11369 56.2405 8.08297C56.1672 8.04988 56.1507 7.98608 56.1672 7.91282C56.3539 7.14482 56.1082 6.47606 55.697 5.84511C55.4748 5.50247 55.1393 5.29451 54.7872 5.11728C54.5816 5.0133 54.4327 4.89042 54.3335 4.68247C54.0593 4.0917 53.556 3.87193 52.9369 3.8483C52.7738 3.84121 52.632 3.89556 52.5068 3.99717C52.4383 4.05389 52.3579 4.08224 52.2941 3.99954C52.2279 3.91683 52.2823 3.84357 52.3461 3.78922C52.5281 3.63089 52.7431 3.56236 52.9889 3.59072V3.58836Z" fill="#1C0F09"/>
<path d="M44.8807 4.11725C45.1737 4.13852 45.5305 4.16452 45.8661 4.30866C45.9346 4.33702 46.0008 4.37483 46.0599 4.41737C46.1355 4.46936 46.1709 4.54261 46.1166 4.62532C46.067 4.7033 45.9913 4.69385 45.9181 4.65604C45.7125 4.54734 45.4951 4.4859 45.2659 4.44572C44.4577 4.30158 43.7984 4.54497 43.288 5.18774C43.0776 5.45477 42.8106 5.62255 42.4774 5.68399C42.4254 5.69344 42.3711 5.70762 42.3191 5.71943C41.6811 5.8754 41.3904 6.24168 41.3857 6.90334C41.3857 7.0404 41.4069 7.17274 41.5156 7.27435C41.5771 7.33107 41.6031 7.40432 41.5298 7.46813C41.4636 7.52484 41.3904 7.50594 41.3266 7.45395C41.1943 7.34997 41.147 7.2011 41.1352 7.04277C41.1068 6.65522 41.1895 6.28894 41.3904 5.95338C41.518 5.7407 41.7047 5.60364 41.941 5.53039C42.0497 5.4973 42.1608 5.45713 42.2742 5.44059C42.6405 5.38387 42.9146 5.19483 43.1509 4.90889C43.6093 4.36065 44.1623 4.11253 44.8783 4.11725H44.8807Z" fill="#1C0F09"/>
<path d="M47.6766 6.01666C47.8681 5.99775 48.05 6.09937 48.2249 6.22225C48.3029 6.2766 48.3619 6.2955 48.4116 6.18444C48.655 5.63384 49.1536 5.49678 49.6806 5.41879C49.846 5.3928 50.0161 5.36681 50.1815 5.42352C50.2737 5.45424 50.3469 5.50386 50.3162 5.61257C50.2879 5.71654 50.2028 5.70709 50.1177 5.69764C49.7207 5.64801 49.3544 5.75908 49.0023 5.92213C48.8275 6.00248 48.7471 6.17498 48.655 6.33331C48.473 6.64524 48.3785 6.66651 48.0784 6.46565C47.5609 6.11827 46.9134 6.38294 46.7881 6.99734C46.7716 7.07532 46.7456 7.12731 46.6629 7.12495C46.5873 7.12022 46.5353 7.07296 46.5305 6.99498C46.5258 6.9359 46.5305 6.8721 46.5471 6.81538C46.6841 6.38294 47.1828 6.02375 47.6743 6.02138L47.6766 6.01666Z" fill="#1C0F09"/>
<path d="M49.6662 23.542C49.5598 23.542 49.4771 23.5254 49.4653 23.4238C49.4511 23.3128 49.5315 23.2962 49.6213 23.2844C49.6804 23.2773 49.7489 23.2608 49.7891 23.2253C50.0419 23.0056 50.3491 22.8756 50.628 22.7007C51.0533 22.436 51.2825 22.032 51.4172 21.5641C51.448 21.453 51.4503 21.2805 51.6205 21.3183C51.793 21.3561 51.7244 21.5168 51.6937 21.6255C51.5425 22.195 51.2447 22.6653 50.7225 22.9677C50.4602 23.119 50.1837 23.2442 49.9474 23.4427C49.8647 23.5136 49.7583 23.5491 49.6662 23.5443V23.542Z" fill="#1C0F09"/>
<path d="M54.293 8.85101C54.293 9.08023 54.2812 9.26928 54.2103 9.44887C54.1725 9.54576 54.1111 9.64974 53.9882 9.60248C53.8653 9.55758 53.9173 9.44887 53.9433 9.35908C54.052 9.00697 54.026 8.65251 53.9433 8.30041C53.8984 8.11136 53.766 7.98612 53.6006 7.89396C53.4896 7.83252 53.3761 7.77107 53.2674 7.70254C53.2107 7.6671 53.1918 7.60802 53.2249 7.54185C53.2603 7.47805 53.3171 7.47096 53.3809 7.48514C53.7802 7.56785 54.1678 7.96012 54.2387 8.36894C54.267 8.54144 54.2977 8.71631 54.2883 8.85337L54.293 8.85101Z" fill="#1C0F09"/>
<path d="M46.743 20.538C46.5611 20.5522 46.4122 20.5735 46.2633 20.5451C46.183 20.5286 46.1168 20.5002 46.1286 20.4033C46.1381 20.3206 46.1995 20.2946 46.2728 20.2923C46.3413 20.2899 46.4075 20.2876 46.476 20.2923C46.9652 20.3088 47.4283 20.219 47.8608 19.9851C47.9553 19.9355 48.0616 19.9071 48.1633 19.8693C48.246 19.8386 48.3287 19.8244 48.3665 19.926C48.4019 20.0182 48.357 20.0891 48.272 20.1221C47.7899 20.3088 47.3314 20.5759 46.7879 20.5404C46.7619 20.5404 46.7336 20.5404 46.743 20.5404V20.538Z" fill="#1C0F09"/>
<path d="M53.4683 19.2811C53.3998 19.6616 53.343 20.0208 53.2343 20.3705C53.1965 20.4934 53.1375 20.6092 53.0453 20.7013C52.998 20.7486 52.9366 20.758 52.8775 20.725C52.8161 20.6872 52.8043 20.6186 52.8397 20.5643C53.0736 20.2145 53.0855 19.801 53.1705 19.4087C53.1823 19.3567 53.1918 19.3024 53.2107 19.2528C53.2391 19.1748 53.2769 19.0921 53.3808 19.1228C53.4683 19.1488 53.4754 19.2268 53.4706 19.2835L53.4683 19.2811Z" fill="#1C0F09"/>
<path d="M53.0431 12.2135C53.0005 12.2087 52.9462 12.2064 52.8942 12.1922C52.8044 12.1638 52.7311 12.1095 52.7571 12.0031C52.7831 11.8944 52.8729 11.911 52.9533 11.9322C53.1423 11.9842 53.3101 11.911 53.4732 11.833C53.5606 11.7928 53.6575 11.7314 53.7142 11.8495C53.7662 11.9582 53.6764 12.0244 53.5937 12.0717C53.4259 12.1686 53.2416 12.2016 53.0407 12.2135H53.0431Z" fill="#1C0F09"/>
<path d="M47.0954 50.9826C46.852 51.2095 46.637 51.4033 46.429 51.6041C46.3274 51.7034 46.2211 51.7175 46.1242 51.623C45.8831 51.3914 45.5925 51.226 45.3302 51.0252C44.6378 50.4958 44.0896 49.82 43.4657 49.2198C41.9344 47.7475 40.7269 46.013 39.4413 44.3376C38.4441 43.0379 37.4162 41.7642 36.4733 40.4243C36.3551 40.2565 36.348 40.162 36.4851 40.0013C37.7635 38.5149 38.9404 36.9435 40.2188 35.4547C41.1262 34.3984 41.9935 33.3019 42.9789 32.3142C43.9879 31.3028 45.0466 30.3433 46.1005 29.3816C47.0671 28.5001 48.2013 27.8644 49.4042 27.3517C49.7515 27.2028 50.0989 27.0492 50.4463 26.8979C50.5314 26.8625 50.5881 26.8105 50.6235 26.7183C50.874 26.0543 51.1481 25.3997 51.4388 24.7522C51.4766 24.6672 51.5357 24.627 51.6042 24.5845C51.9445 24.3812 52.3179 24.2584 52.6889 24.1331C53.9389 23.7148 55.1701 23.2422 56.4556 22.935C57.6325 22.6538 58.8211 22.4317 60.0239 22.2757C60.2437 22.2474 60.4705 22.2663 60.6927 22.2757C60.7896 22.2804 60.8605 22.3561 60.9337 22.4151C61.3638 22.7578 61.6403 23.2328 61.9735 23.6558C62.4201 24.2253 62.7935 24.8491 63.1786 25.4612C63.2661 25.6006 63.3772 25.6904 63.5166 25.766C65.6528 26.9334 67.5031 28.441 68.9564 30.4024C70.1734 32.0448 71.0005 33.8809 71.5984 35.8304C72.0308 37.2412 72.2718 38.6851 72.4089 40.1455C72.5152 41.2868 72.4538 42.4282 72.3853 43.572C72.3097 44.8149 72.1561 46.0485 71.8749 47.2631C71.5889 48.5037 71.1636 49.7018 70.7547 50.9046C70.1663 52.6321 69.5685 54.3571 68.9753 56.0822C68.9588 56.1271 68.9517 56.1767 68.9257 56.2145C68.6894 56.5784 68.7059 56.9849 68.7319 57.389C68.7957 58.4051 68.7296 59.4165 68.6941 60.4326C68.6752 61.0211 68.6303 61.6071 68.6138 62.1955C68.5854 63.1762 68.29 64.0765 67.9167 64.9698C67.6638 65.5747 67.3495 66.1324 66.9218 66.6263C66.6855 66.9004 66.3901 67.073 66.038 67.1627C64.0884 67.6684 62.1318 68.1458 60.1468 68.5074C59.2819 68.6633 58.4052 68.7366 57.5308 68.824C56.087 68.9682 54.6408 68.9776 53.1922 68.9776C51.8381 68.9776 50.4912 68.8665 49.1466 68.7082C47.9438 68.5688 46.7504 68.3774 45.5736 68.0891C45.4909 68.0678 45.3987 68.0891 45.3207 68.0324C45.2687 67.9969 45.2097 67.9638 45.2167 67.8953C45.2616 67.5054 45.1506 67.132 45.1128 66.7492C45.0513 66.1466 45.0986 65.5464 45.1459 64.9462C45.2995 62.9399 45.7295 60.9762 46.0297 58.9912C46.2825 57.3204 46.5165 55.6474 46.7457 53.9719C46.878 53.0149 46.9843 52.0531 47.1025 51.0961C47.1049 51.0701 47.1025 51.0417 47.1025 50.9755L47.0954 50.9826Z" fill="#99560E"/>
<path d="M59.0715 25.2715C57.9727 25.2809 57.0062 25.3873 56.0444 25.5432C54.5746 25.7819 53.1331 26.1364 51.7129 26.5806C51.4742 26.6539 51.2426 26.7508 51.0087 26.8358C50.9141 26.8713 50.7983 26.9256 50.7511 26.7909C50.7038 26.6562 50.8314 26.6232 50.9236 26.5877C52.3698 26.0206 53.868 25.6472 55.3922 25.3636C56.7628 25.1084 58.1429 24.9454 59.5418 24.9997C60.6525 25.0446 61.7489 25.1746 62.8407 25.3731C62.947 25.392 63.129 25.3707 63.0983 25.5527C63.0699 25.7228 62.9092 25.6685 62.7958 25.6519C62.075 25.5432 61.3567 25.3991 60.6288 25.3518C60.0688 25.314 59.5087 25.2927 59.0715 25.2715Z" fill="#1C0F09"/>
<path d="M47.5062 50.5614C47.4259 50.5496 47.3786 50.5 47.3999 50.4102C47.4093 50.3724 47.4353 50.3369 47.4637 50.3086C48.2789 49.5311 48.9453 48.6237 49.7015 47.7942C50.2356 47.2082 50.8334 46.6883 51.3888 46.1259C51.7267 45.7832 52.041 45.4217 52.3435 45.0483C52.386 44.9963 52.4309 44.9443 52.4805 44.8994C52.5231 44.8593 52.5774 44.8474 52.6294 44.8829C52.6885 44.9207 52.7003 44.9774 52.6814 45.0436C52.6578 45.1239 52.6034 45.1854 52.5538 45.2492C51.9488 46.0172 51.2352 46.6812 50.5333 47.3547C49.7062 48.1487 49.0091 49.0561 48.2364 49.8974C48.0497 50.1006 47.8489 50.2944 47.6527 50.4905C47.6149 50.5283 47.5724 50.5638 47.5038 50.5614H47.5062Z" fill="#1C0F09"/>
<path d="M65.5084 57.0028C65.6077 58.2008 65.2391 59.2595 64.861 60.3229C64.6199 60.994 64.334 61.6392 63.9323 62.2323C63.7574 62.4899 63.6416 62.7829 63.5542 63.083C63.28 64.0212 62.8452 64.8695 62.2356 65.6422C61.3541 66.7576 60.4821 67.8801 59.5109 68.9175C58.8421 69.6312 58.1072 70.2668 57.2305 70.7229C56.7059 70.9947 56.1411 71.1246 55.5669 71.2168C55.4109 71.2404 55.2644 71.2853 55.1203 71.3468C54.0072 71.8288 52.8328 71.9753 51.6323 71.9682C49.7182 71.9588 47.9884 71.3231 46.3295 70.4346C45.7624 70.1321 45.1953 69.8344 44.6281 69.5295C44.2051 69.3027 43.8861 68.9506 43.5222 68.6552C42.6171 67.9226 41.7664 67.1263 40.9819 66.2637C39.9586 65.1365 38.9212 64.0212 37.9618 62.8372C37.3356 62.0645 36.7708 61.2469 36.2179 60.4198C36.1328 60.2922 36.1564 60.2307 36.2675 60.1409C37.3356 59.2973 38.3872 58.4372 39.3939 57.5203C40.9724 56.0835 42.4564 54.5546 43.9475 53.0304C44.0657 52.9099 44.1673 52.7728 44.2382 52.6168C44.2855 52.5105 44.3493 52.3829 44.2996 52.286C44.1413 51.9859 44.3634 51.8488 44.5265 51.6787C44.7392 51.4613 44.9542 51.2439 45.1622 51.0241C45.2354 50.9485 45.2827 50.9367 45.3772 51.0147C45.623 51.2155 45.8853 51.3951 46.1381 51.5889C46.2138 51.648 46.2563 51.6385 46.3225 51.5747C46.7029 51.2273 47.0668 50.8634 47.4048 50.4782C47.5182 50.3483 47.5891 50.3577 47.6931 50.4782C49.0991 52.1537 50.6091 53.7346 52.1569 55.2801C52.2656 55.3888 52.3342 55.4029 52.4476 55.2848C52.6816 55.039 52.958 54.8405 53.2369 54.6491C53.5346 54.4435 53.8513 54.2781 54.2176 54.2356C54.5319 54.1978 54.7351 54.0205 54.8461 53.7322C54.943 53.477 55.0895 53.2478 55.2479 53.028C55.4582 52.735 55.711 52.4727 56.049 52.3262C56.4625 52.149 56.7957 51.8748 57.11 51.5629C57.5755 51.0974 58.1828 50.8965 58.7783 50.672C58.8847 50.6318 58.9721 50.6744 59.0572 50.7405C59.6527 51.1966 60.2506 51.6527 60.9028 52.0284C62.141 52.7421 63.41 53.3896 64.7688 53.8433C64.7948 53.8527 64.8184 53.8646 64.8444 53.8693C65.3265 53.9662 65.2745 53.9425 65.3312 54.4601C65.4257 55.3202 65.5439 56.178 65.5084 57.0028Z" fill="#FDE2D9"/>
<path d="M36.5298 60.6157C36.6007 60.6157 36.6361 60.6464 36.6621 60.689C37.286 61.6862 38.0209 62.6078 38.692 63.572C39.8051 65.167 41.1071 66.5896 42.5652 67.8728C42.9503 68.2131 43.3662 68.5156 43.7774 68.8251C43.8034 68.8464 43.8318 68.8653 43.8578 68.8866C43.9452 68.9551 44.0468 69.0331 43.957 69.1512C43.8743 69.2576 43.7727 69.189 43.69 69.1252C43.345 68.8629 42.9929 68.6124 42.662 68.3336C41.0599 66.9866 39.6586 65.4577 38.451 63.7421C37.8319 62.863 37.208 61.9887 36.5936 61.1072C36.5274 61.0127 36.4707 60.9111 36.4306 60.8048C36.3975 60.7126 36.4235 60.6299 36.5274 60.6181L36.5298 60.6157Z" fill="#1C0F09"/>
<path d="M52.6177 55.2848C52.6011 55.3888 52.5255 55.4313 52.4641 55.481C51.5968 56.1828 50.817 56.9673 50.1577 57.8677C49.8528 58.2836 49.5764 58.7208 49.385 59.1981C49.099 59.9118 48.6382 60.4576 47.9529 60.8145C47.166 61.2256 46.4783 61.7668 45.8758 62.419C45.7245 62.5821 45.5756 62.7475 45.448 62.9342C45.3913 63.0192 45.3252 63.1232 45.207 63.0429C45.0936 62.9649 45.1597 62.8562 45.2141 62.7735C45.2968 62.6506 45.3842 62.5301 45.4835 62.419C46.1097 61.7172 46.8021 61.0933 47.6457 60.6632C48.3735 60.2899 48.8509 59.7322 49.1746 58.9807C49.626 57.9291 50.3633 57.069 51.1738 56.2702C51.5354 55.9134 51.9253 55.5897 52.3152 55.2659C52.3625 55.2281 52.4074 55.1832 52.4712 55.1761C52.5633 55.1643 52.6082 55.2116 52.6177 55.2872V55.2848Z" fill="#1C0F09"/>
<path d="M65.0972 38.5262C65.2011 37.9118 65.3287 37.3612 65.3382 36.7893C65.3524 35.9386 65.3453 35.0855 65.4209 34.2348C65.4422 33.982 65.4989 33.7268 65.6383 33.5023C65.7635 33.299 65.929 33.1502 66.1629 33.0816C66.3307 33.032 66.4843 33.0297 66.6143 33.1974C66.6993 33.0556 66.7466 32.9091 66.8435 32.791C67.0278 32.5641 67.3941 32.4342 67.6682 32.5216C67.8123 32.5665 67.8927 32.6846 67.9518 32.8193C68.0274 32.9942 68.0605 33.1809 68.103 33.3652C68.1219 33.4432 68.1503 33.4786 68.2353 33.4834C68.5993 33.5046 68.8049 33.7197 68.9206 34.0481C69.0152 34.3152 69.0932 34.5893 69.157 34.8634C69.1853 34.9863 69.2373 35.0714 69.346 35.1517C69.6367 35.362 69.769 35.6905 69.8942 36.0095C70.3385 37.132 70.3503 38.3041 70.27 39.4856C70.2298 40.0859 70.1896 40.6861 70.14 41.2863C69.9722 43.2949 69.5374 45.2374 68.7363 47.0948C68.3086 48.0873 67.8785 49.0822 67.3657 50.0345C66.6828 51.3011 66.0589 52.6008 65.298 53.8273C65.2177 53.9572 65.1491 53.9951 64.9932 53.962C63.1783 53.5791 61.5572 52.797 60.0968 51.6627C59.7967 51.4311 59.499 51.1971 59.2178 50.9419C59.1351 50.8687 59.1303 50.819 59.1965 50.7269C59.9385 49.6777 60.7136 48.6521 61.4887 47.6289C61.5667 47.5273 61.6069 47.4304 61.5974 47.298C61.5572 46.6576 61.5336 46.0149 61.5927 45.3721C61.6636 44.6159 61.7605 43.8597 62.0109 43.1437C62.4056 42.0212 62.7695 40.8917 63.1098 39.7527C63.2279 39.3533 63.3745 38.9587 63.573 38.5877C63.6698 38.4057 63.7927 38.2474 63.944 38.1103C64.3291 37.7677 64.7403 37.8409 64.9743 38.2946C65.005 38.3537 65.0357 38.4152 65.0924 38.5309L65.0972 38.5262Z" fill="#FF9970"/>
<path d="M66.9193 37.1814C66.95 35.9479 66.839 34.7262 66.5743 33.521C66.5625 33.469 66.5554 33.4147 66.5578 33.3603C66.5578 33.2776 66.6003 33.2114 66.6901 33.2114C66.7704 33.2114 66.7964 33.2705 66.813 33.3461C67.0351 34.4261 67.1887 35.5084 67.1911 36.6166C67.1911 37.4319 67.1769 38.2519 67.288 39.0648C67.2903 39.0837 67.2903 39.105 67.2927 39.1263C67.2974 39.2302 67.2738 39.3295 67.1509 39.3295C67.0422 39.3295 67.0138 39.2373 67.002 39.1452C66.9571 38.6938 66.9217 38.2448 66.9217 37.7911C66.9217 37.5879 66.9217 37.3847 66.9217 37.1838L66.9193 37.1814Z" fill="#1C0F09"/>
<path d="M68.5971 38.8076C68.5971 39.0368 68.5971 39.2188 68.5971 39.4007C68.5971 39.4976 68.6018 39.6063 68.4719 39.6158C68.3254 39.6252 68.3277 39.5023 68.3159 39.4031C68.3088 39.344 68.3065 39.2826 68.3088 39.2211C68.3301 38.1388 68.1812 37.0636 68.1434 35.9861C68.1174 35.2653 68.1505 34.5398 67.9827 33.8285C67.9756 33.7955 67.978 33.7624 67.978 33.7269C67.978 33.6537 67.9969 33.5852 68.0796 33.5757C68.1694 33.5662 68.2119 33.6253 68.2285 33.708C68.2923 34.053 68.375 34.3957 68.3844 34.7478C68.4033 35.6458 68.453 36.5437 68.5215 37.437C68.5569 37.9073 68.5924 38.3799 68.5995 38.8076H68.5971Z" fill="#1C0F09"/>
<path d="M64.6316 42.758C64.4969 41.6261 64.7639 40.5627 64.9506 39.4899C64.9884 39.2677 64.9743 39.0456 64.979 38.8211C64.9813 38.7219 64.9908 38.6108 65.1137 38.6084C65.2531 38.6061 65.2247 38.7242 65.2318 38.8164C65.2956 39.5702 65.0522 40.2862 64.9624 41.0235C64.9152 41.4205 64.875 41.8152 64.8845 42.2145C64.8986 42.7888 64.8963 43.3653 64.9034 43.9396C64.9034 44.0388 64.8939 44.1475 64.7687 44.1499C64.6363 44.1523 64.634 44.0341 64.6316 43.9419C64.6269 43.5355 64.6316 43.1314 64.6316 42.7557V42.758Z" fill="#1C0F09"/>
<path d="M69.2753 38.2213C69.2895 37.4226 69.2966 36.6664 69.2328 35.9102C69.2162 35.7235 69.1784 35.5368 69.1572 35.3478C69.1477 35.2556 69.1312 35.1374 69.2659 35.1256C69.3793 35.1162 69.3935 35.2154 69.4124 35.3052C69.5518 35.9834 69.5541 36.6758 69.566 37.3635C69.5825 38.2213 69.566 39.0791 69.566 39.9393C69.566 40.0456 69.5612 40.1637 69.4313 40.1732C69.2824 40.1827 69.2729 40.055 69.2729 39.9416C69.2729 39.3532 69.2729 38.7648 69.2729 38.2213H69.2753Z" fill="#1C0F09"/>
<path d="M40.3177 52.2957C39.9349 50.5659 39.4646 48.8857 38.8644 47.2363C38.8006 47.2765 38.8313 47.3143 38.8408 47.345C39.1574 48.4344 39.3016 49.5498 39.4079 50.677C39.4788 51.4308 39.3536 52.1775 39.3961 52.9266C39.4008 52.9904 39.363 53.0235 39.3181 53.0566C38.829 53.43 38.4485 53.9073 38.068 54.3823C37.9664 54.5099 37.8506 54.6233 37.7325 54.7344C37.6734 54.7911 37.6025 54.8384 37.5127 54.7958C37.4324 54.7557 37.4395 54.6777 37.4347 54.6021C37.4016 54.1507 37.4111 53.6994 37.3662 53.248C37.3497 53.0779 37.3969 52.8983 37.4158 52.7234C37.5127 51.8089 37.5505 50.8896 37.5978 49.9704C37.671 48.5336 37.3969 47.1701 36.7234 45.8941C36.161 44.8283 35.9956 43.668 35.894 42.4912C35.7735 41.0899 35.7097 39.6862 35.5112 38.292C35.4143 37.6114 35.5797 37.0584 35.5821 36.3708C35.5821 35.7233 35.3599 34.9435 35.2654 34.3078C35.1874 33.7785 35.0811 33.2515 35.1638 32.7198C35.1662 32.7009 35.1709 32.6796 35.1732 32.6607C35.3363 31.8903 35.9483 31.888 36.395 32.2046C36.8629 32.5355 37.1086 33.0246 37.3827 33.4972C37.4229 33.5658 37.4276 33.6627 37.5623 33.5918C37.6521 33.5445 37.6994 33.6461 37.723 33.7265C37.9735 34.5205 38.1484 35.3334 38.2949 36.151C38.5005 37.3018 38.5005 38.4645 38.5028 39.6271C38.5028 39.9792 38.5147 40.329 38.5785 40.6763C38.6564 41.1064 38.8904 41.416 39.2803 41.6121C39.4741 41.7114 39.6702 41.8012 39.8805 41.8532C41.2795 42.2005 42.1207 43.1434 42.6454 44.4266C42.9053 45.0599 42.9927 45.731 43.0873 46.3998C43.1605 46.9149 43.2267 47.4301 43.2999 47.9452C43.3094 48.0208 43.3141 48.0941 43.2834 48.165C43.0873 48.6305 42.9195 49.1055 42.6028 49.5143C42.012 50.28 41.5347 51.1283 40.8612 51.8325C40.7029 51.9979 40.5351 52.1515 40.3177 52.2957Z" fill="#5C2E17"/>
<path d="M36.8606 39.7685C36.8653 38.5941 36.9456 37.6559 36.9055 36.7154C36.8653 35.73 36.8038 34.7446 36.6384 33.7686C36.6219 33.6741 36.577 33.5465 36.7282 33.5252C36.8724 33.504 36.8818 33.6363 36.9007 33.7308C37.0071 34.2956 37.0614 34.8675 37.1134 35.4393C37.1938 36.3349 37.2363 37.2353 37.1914 38.1356C37.1512 38.9131 37.1418 39.6905 37.1654 40.468C37.1796 40.9477 37.215 41.4298 37.3308 41.8953C37.5789 42.8855 38.1697 43.5589 39.1717 43.8378C39.5356 43.9394 39.8948 44.0575 40.2421 44.2112C40.6533 44.3955 40.9889 44.672 41.2488 45.0382C41.7262 45.7094 42.0735 46.4325 42.135 47.2714C42.1421 47.3706 42.1633 47.4746 42.031 47.4959C41.9034 47.5148 41.8774 47.4084 41.8632 47.3115C41.7923 46.8484 41.6789 46.4041 41.4804 45.974C41.0527 45.0477 40.3792 44.4404 39.3773 44.1993C38.8432 44.0694 38.3328 43.8803 37.9169 43.488C37.3072 42.9114 37.0354 42.1907 36.948 41.3802C36.8842 40.7681 36.844 40.1537 36.8606 39.7709V39.7685Z" fill="#1C0F09"/>
<path d="M40.7904 48.8266C40.7738 48.914 40.8093 49.0227 40.684 49.044C40.554 49.0653 40.5281 48.9637 40.5139 48.8668C40.417 48.198 40.1736 47.5789 39.8735 46.9787C39.7364 46.7069 39.5923 46.4399 39.3229 46.2697C39.2614 46.2319 39.2236 46.1728 39.2638 46.0972C39.3087 46.0121 39.3867 46.0192 39.4576 46.05C39.5639 46.0972 39.6537 46.1728 39.7246 46.265C40.3106 47.0236 40.6273 47.8955 40.7927 48.8313L40.7904 48.8266Z" fill="#1C0F09"/>
</svg>
