<svg width="82" height="77" viewBox="0 0 82 77" fill="none" xmlns="http://www.w3.org/2000/svg">
<path d="M64.5779 59.0266H77.7915V60.5413H64.5779V59.0266Z" fill="#734735"/>
<path d="M73.8967 51.2964L80.8368 72.1107L82 72.163L77.1511 53.7121L76.5107 51.2964H73.8967Z" fill="#734735"/>
<path d="M61.5458 71.3925L60.3826 71.4447L65.8719 50.5781H68.4858L61.5458 71.3925Z" fill="#734735"/>
<path d="M76.5107 51.2964L77.1511 53.7252H74.7071L73.8967 51.2964H76.5107Z" fill="#2B1919"/>
<path d="M63.3493 49.2854H79.0461V51.7925H63.3493V49.2854Z" fill="#734735"/>
<path d="M37.5888 37.5073C38.0071 36.9327 38.0071 36.3582 38.5429 35.875C38.9219 35.5355 39.7976 35.3527 40.2812 35.4049C41.0131 35.4833 42.8298 35.7314 43.5748 35.653C44.2283 35.5747 44.8687 35.418 45.5222 35.2744L45.5091 35.2352C45.4699 35.1177 45.6398 35.0524 45.679 35.1699C45.6921 35.196 45.6921 35.2221 45.7052 35.2482C45.7444 35.2352 45.7836 35.2352 45.8228 35.2221C45.9404 35.196 45.9666 35.3788 45.8489 35.4049C45.8228 35.4049 45.7967 35.418 45.7705 35.418C45.8228 35.5747 45.8751 35.7183 45.9274 35.875C45.9927 36.0578 46.1234 36.2929 46.1365 36.4887C46.1365 36.6063 46.1365 36.6846 46.0188 36.7499C45.9535 36.7891 45.8489 36.776 45.7705 36.7891C45.483 36.8021 45.1824 36.776 44.8948 36.776C44.3851 36.776 44.2414 36.9719 43.7316 37.0111C43.248 37.0502 43.2742 37.2722 42.7906 37.3506C42.5161 37.4028 40.3465 37.2853 40.1244 37.455C40.0067 37.5464 39.9022 37.6248 39.7584 37.677C39.1441 37.9251 38.2423 37.8468 37.628 37.6378C37.5627 37.6378 37.5496 37.5464 37.5888 37.5073Z" fill="#C66B47"/>
<path d="M43.4441 34.6215C44.3982 33.9033 45.3785 33.1982 46.3718 32.5322C48.3715 31.1742 50.4496 29.9206 52.5669 28.7715C53.5602 28.2361 54.5796 27.7138 55.5991 27.2176L55.5598 27.1654C55.5076 27.087 55.6383 27.0087 55.6905 27.087C55.7036 27.1132 55.7167 27.1262 55.7298 27.1523C55.8866 27.074 56.0434 26.9956 56.2003 26.9303C56.2918 26.8912 56.3702 27.0217 56.2787 27.0609C56.1219 27.1393 55.9781 27.2046 55.8212 27.2829C57.468 29.6725 59.1148 32.0621 60.7616 34.4517C60.7878 34.4909 60.7616 34.5301 60.7355 34.5562C58.8796 35.7445 56.7231 36.2537 54.5665 36.5671C52.1617 36.9066 49.7438 37.0764 47.3259 37.22C45.8751 37.2983 44.4113 37.3636 42.9605 37.4289C42.9213 37.4289 42.8821 37.3898 42.8821 37.3506C42.8299 36.7499 42.7384 36.1492 42.7384 35.5486C42.7253 35.0785 43.1174 34.8696 43.4441 34.6215Z" fill="#EBD1C3"/>
<path d="M37.2751 16.5623C37.2751 16.5231 37.3012 16.484 37.3535 16.484C37.9939 16.4578 38.6213 16.6537 39.2225 16.7973C39.8891 16.954 40.5687 17.1107 41.2483 17.2152C41.3137 17.2283 41.3921 17.2413 41.4574 17.2674C41.4574 17.2544 41.4705 17.2413 41.4836 17.2413L41.4966 17.2283C41.5359 17.2021 41.5751 17.2152 41.6012 17.2544C41.6012 17.2674 41.6143 17.2674 41.6143 17.2805C41.7058 17.2805 41.7842 17.2413 41.8495 17.1499C41.9018 17.0716 41.9279 16.954 41.9802 16.8626C42.0456 16.7582 42.124 16.6668 42.2155 16.5884C42.6599 15.9616 43.1696 15.4001 43.4702 14.682C43.4963 14.6167 43.5617 14.6036 43.614 14.6689C43.7969 14.9039 43.9799 15.152 44.1498 15.3871C44.176 15.4132 44.1498 15.4785 44.1237 15.4916C43.6662 15.7266 43.2349 15.9878 42.8298 16.2881C42.6599 16.4056 42.49 16.5362 42.3331 16.6798C42.2286 16.8365 42.1109 17.0063 42.0194 17.176C42.0064 17.2152 41.9933 17.2544 41.9672 17.2935C41.941 17.3327 41.928 17.3719 41.8887 17.398C41.7842 17.4633 41.5751 17.4502 41.3659 17.4111C41.196 17.398 40.9869 17.3327 40.8562 17.3197C40.438 17.2935 40.0067 17.3066 39.5885 17.3197C38.8043 17.3458 38.0331 17.385 37.249 17.2674C37.2228 17.2674 37.1967 17.2283 37.1967 17.1891C37.2359 16.9932 37.262 16.7712 37.2751 16.5623Z" fill="#F7E9E1"/>
<path d="M39.2879 17.5026L39.314 17.8943L39.3924 19.2393L39.4709 20.4537L39.5231 21.2502C39.5362 21.4722 39.7192 21.6419 39.9414 21.6419H43.6009C43.6271 21.6419 43.6532 21.6419 43.6793 21.6289C43.8492 21.5897 43.9799 21.433 43.9669 21.2502L43.9146 20.4798L43.8362 19.2523L43.7316 17.5026C43.7185 17.2806 43.5356 17.1108 43.3134 17.1108H39.6538C39.6408 17.1108 39.6408 17.1108 39.6277 17.1108C39.4316 17.1239 39.2748 17.2937 39.2879 17.5026Z" fill="#D46744"/>
<path d="M41.9149 17.1108C42.5553 17.829 43.1957 18.5472 43.8361 19.2523L43.9146 20.4798C42.9082 19.3568 41.9149 18.2338 40.8954 17.1108H41.9149Z" fill="#F7E9E1"/>
<path d="M39.6277 17.1108C40.9869 18.6125 42.3331 20.1142 43.6663 21.6289C43.6401 21.6289 43.614 21.6419 43.5878 21.6419H42.673C41.562 20.3884 40.438 19.1479 39.3271 17.8943L39.3009 17.5026C39.2748 17.2937 39.4316 17.1239 39.6277 17.1108Z" fill="#F7E9E1"/>
<path d="M41.5488 21.6419H40.5294C40.1765 21.2502 39.8236 20.8454 39.4707 20.4536L39.3923 19.2393C40.1242 20.0358 40.83 20.8323 41.5488 21.6419Z" fill="#F7E9E1"/>
<path d="M44.5941 69.7474C44.4242 70.2175 44.2674 70.7006 44.0975 71.1707C44.006 71.4319 43.8753 71.5886 44.1105 71.7845C44.3066 71.9542 44.5549 72.0848 44.7771 72.2284C46.5023 69.0684 48.319 65.9476 50.188 62.8789C49.1424 62.3436 48.1099 61.7951 47.0643 61.2598C46.6069 63.1793 46.0841 65.0857 45.4959 66.9661C45.2215 67.8932 44.9078 68.8203 44.5941 69.7474Z" fill="#E68B60"/>
<path d="M44.6595 68.7549C44.6987 68.4285 44.934 68.0498 45.0385 67.7364C45.2869 66.979 45.313 66.2739 45.1431 65.5035C44.9993 64.8245 44.7902 64.1716 44.7902 63.4665C44.7902 62.1215 45.3391 60.8418 45.7051 59.5752C45.9665 58.7003 48.1492 52.9156 49.0118 51.192C49.6391 49.9254 50.8938 46.9873 52.5014 46.7915C54.2528 46.5695 54.5795 49.9384 54.8409 51.3095C55.0631 52.4978 55.2461 53.6991 55.4552 54.9004C55.5728 55.5533 55.7035 56.2715 56.0695 56.833C56.1871 56.5066 56.3047 56.1801 56.4224 55.8537C56.4485 55.7623 56.5923 55.8276 56.5661 55.919C56.4354 56.2715 56.3047 56.6372 56.1871 56.9897C56.3309 57.1856 56.5138 57.3553 56.7491 57.4859C56.8275 57.5382 56.7752 57.6687 56.6837 57.6296C56.4616 57.499 56.2917 57.3423 56.1348 57.1595C56.1348 57.1595 55.233 59.4054 54.488 61.2727C54.0306 62.4218 53.6123 63.4273 53.5078 63.6754C53.4686 63.7537 53.4294 63.8451 53.3902 63.9235C52.985 64.7722 52.423 65.5949 51.5996 66.078C50.7108 66.6134 49.626 66.5481 48.7112 66.979C47.6525 67.4752 47.1951 68.5982 46.803 69.6298C46.7899 69.669 46.7376 69.682 46.6984 69.669C46.3325 69.5514 45.9534 69.4209 45.5875 69.3034C45.3522 69.225 44.9209 69.1728 44.7379 69.003C44.6595 68.9247 44.6465 68.8594 44.6595 68.7549Z" fill="#7D6B6E"/>
<path d="M38.4255 73.286C38.8568 72.9726 42.8823 71.8496 43.5096 71.6538C43.7579 71.5754 43.9409 71.3926 44.2023 71.3665C44.4898 71.3404 44.7774 71.4057 45.0518 71.471C45.0911 71.484 45.078 71.7321 45.078 71.7321C45.0518 72.1108 44.9734 72.607 44.6467 72.8029C44.1892 73.064 38.9221 73.9781 38.6346 73.9911C38.4777 73.9911 38.2555 74.0303 38.1248 73.9128C37.8634 73.6777 38.2294 73.4296 38.4255 73.286Z" fill="#2B1919"/>
<path d="M52.7628 58.9223C52.7498 58.8309 52.9066 58.8309 52.9197 58.9223C52.9327 59.0137 52.9458 59.1051 52.9458 59.1965C53.351 59.745 53.7561 60.2934 54.1744 60.8549C54.2789 60.9855 54.3835 61.1291 54.488 61.2597C54.0306 62.4088 53.6124 63.4142 53.5078 63.6623C53.4686 63.7407 53.4294 63.8321 53.3902 63.9104C53.168 62.3566 52.9719 60.8027 52.802 59.2488L52.789 59.2357C52.7628 59.2096 52.7759 59.1835 52.789 59.1574C52.7759 59.079 52.7628 59.0007 52.7628 58.9223Z" fill="#2B1919"/>
<path d="M56.7099 14.7864C56.7099 14.7864 58.6965 13.7679 59.4284 13.128C59.4415 13.115 59.4545 13.115 59.4676 13.115C59.4676 13.115 59.4676 13.115 59.4807 13.115C59.4807 13.115 59.4807 13.115 59.4937 13.115C59.5068 13.115 59.5199 13.128 59.533 13.1411C60.6439 14.7472 62.9834 18.534 62.8396 18.743C62.6305 19.0433 60.1995 20.0096 60.1995 20.0096L56.7099 14.7864Z" fill="#E68B60"/>
<path d="M60.5656 69.7211C60.7747 70.1781 60.9838 70.6351 61.193 71.0922C61.3106 71.3403 61.3237 71.5492 61.6243 71.5231C61.8857 71.497 62.1601 71.4317 62.4084 71.3664C61.4674 67.893 60.6048 64.3934 59.8206 60.8809C58.6966 61.2073 57.5726 61.5468 56.4486 61.8733C57.455 63.5708 58.396 65.3075 59.2848 67.0703C59.7291 67.9452 60.1604 68.8331 60.5656 69.7211Z" fill="#E68B60"/>
<path d="M57.2067 75.3231C57.4419 74.8399 60.4741 71.9672 60.9446 71.5102C61.1276 71.3274 61.206 71.0793 61.4282 70.9356C61.6635 70.7789 61.951 70.7006 62.2255 70.6353C62.2647 70.6222 62.3693 70.8573 62.3693 70.8573C62.5261 71.2098 62.6829 71.6799 62.4869 72.0064C62.1993 72.4503 57.9778 75.7148 57.7295 75.8585C57.5988 75.9368 57.4158 76.0674 57.2459 76.0282C56.8799 75.9368 57.089 75.5451 57.2067 75.3231Z" fill="#2B1919"/>
<path d="M53.9 6.86032C54.6711 6.22048 60.3173 6.24659 60.6963 7.97024C60.9054 8.92347 60.8139 9.92893 60.6701 10.8952C60.5133 11.9268 60.4087 12.9975 60.1343 14.003C59.9905 14.5253 59.6376 15.0868 59.1018 15.3219C59.1671 15.3349 59.2063 15.4263 59.1279 15.4524C57.8209 15.7658 56.3832 16.0531 55.024 16.0139C54.5143 16.0009 54.0307 15.8572 53.7693 15.4524C53.4948 15.0085 53.5471 14.447 53.534 13.9508C53.534 13.9247 53.534 13.8985 53.534 13.8855C53.521 13.6113 53.521 13.324 53.5079 13.0498C53.4818 11.979 53.4425 10.9083 53.4164 9.83753C53.3903 8.76677 53.3118 7.34346 53.9 6.86032Z" fill="#E68B60"/>
<path d="M43.0912 23.3133C43.2742 23.1305 43.4572 22.9216 43.6663 22.7649C43.7316 22.7126 43.7839 22.6604 43.8754 22.6604C43.993 22.6604 49.1164 28.3014 50.5671 29.568C50.5671 29.6203 50.5541 29.6725 50.5541 29.7247C50.5802 31.4484 50.2796 33.2112 49.7437 34.8957C47.2866 31.2003 45.0647 27.3482 43.0781 23.3916C43.0651 23.3786 43.0651 23.3394 43.0912 23.3133Z" fill="#E68B60"/>
<path d="M44.0322 24.9847C44.4113 24.5016 44.8556 24.0968 45.3654 23.7703C45.3915 23.7573 45.4176 23.7573 45.4438 23.7703C47.9532 25.1414 48.9596 26.2383 51.5082 28.432C52.5015 26.7345 53.5078 25.3895 54.475 23.5745C55.037 22.5037 55.8473 20.989 56.5923 20.0358C57.3112 19.0956 58.4221 18.4819 59.4154 17.8551C60.4087 17.2153 61.7157 16.5624 61.8072 16.6015C63.1142 17.163 63.7415 17.4503 64.8263 18.3905C65.9372 19.3437 66.9567 20.6626 67.8193 21.8247C69.5837 24.2143 71.2697 27.4788 72.1454 30.3254C72.446 31.3048 72.825 32.8195 73.2825 34.4517C72.6943 34.7129 72.3807 34.8174 71.7925 35.0655C71.126 35.3527 70.5247 35.7314 69.8582 36.0056C69.0479 36.3451 68.2375 36.6977 67.4533 37.1025C66.9436 37.3637 66.4731 37.6901 65.9634 37.9121C65.4144 37.5073 63.5716 35.9403 63.0749 35.4572C61.9509 34.3734 59.5853 33.7205 59.5853 33.7205C59.5853 33.7205 56.4355 35.6792 54.3443 36.097C53.1811 36.3321 51.9656 36.5671 50.2665 35.5878C49.8352 35.3397 48.2015 33.6813 45.8359 30.4038C45.483 29.9206 44.2152 27.7922 43.7578 25.8466C43.6271 25.4418 43.81 25.272 44.0322 24.9847Z" fill="#F7E9E1"/>
<path d="M51.9654 46.9613C53.0633 46.2692 54.2788 45.7338 55.4289 45.1593C56.6183 44.5586 64.1465 41.3464 66.4076 40.6935C66.4076 40.1581 65.2574 37.4421 65.2574 37.4421C65.2574 37.4421 72.9556 33.5769 73.0078 33.5769C74.4717 34.961 75.7264 36.5541 76.7197 38.2908C77.7653 40.1189 78.7324 42.2474 78.8762 44.3758C78.9415 45.3943 78.7847 46.4259 78.2488 47.3139C77.7522 48.1365 76.9941 48.7894 76.1577 49.2595C75.1644 49.8079 74.0404 50.0821 72.9294 50.3172C71.0735 50.7089 65.1529 52.5109 61.7547 52.9157C62.1338 54.0517 62.7611 57.93 62.8265 58.6743C62.9049 59.8495 62.9441 61.0116 62.9572 62.1868C62.9572 62.7092 62.9702 63.2315 62.8657 63.7407C62.7611 64.2108 62.552 64.6287 62.3167 65.0335C62.0423 65.5297 61.7025 66.0389 61.5979 66.6135C61.4541 67.3447 61.7025 68.0499 61.9377 68.7289C61.9508 68.768 61.9246 68.8072 61.8854 68.8203C61.7025 68.8856 61.5325 68.9509 61.3496 69.0161C61.2973 69.0292 61.245 69.0553 61.2058 69.0684C61.062 69.1206 60.9052 69.1728 60.7614 69.2251C60.4216 69.3426 59.9903 69.5907 59.6374 69.6168C59.1669 69.656 59.0231 68.8464 58.8924 68.5199C58.6049 67.7626 58.2912 67.0836 57.7162 66.509C57.2587 66.052 56.7098 65.6733 56.2131 65.2424C54.1612 63.5057 50.6062 53.6469 50.4624 52.6676C50.1749 50.6567 49.9919 48.1887 51.9654 46.9613Z" fill="#968084"/>
<path d="M57.1543 53.8428C57.5464 55.9843 58.1084 58.0997 58.6704 60.202C59.4677 63.1662 60.3172 66.1042 61.1798 69.0553C61.2321 69.0423 61.2844 69.0161 61.3236 69.0031C61.023 67.9976 60.7355 66.9922 60.4479 65.9867C59.2847 61.991 58.0692 57.9822 57.3112 53.882C56.9452 51.8711 57.0367 49.6904 58.8273 48.3846C59.5853 47.8231 60.4741 47.4444 61.3105 47.0135C62.2646 46.5304 63.2318 46.0472 64.199 45.5641C64.2905 45.5249 64.212 45.3943 64.1205 45.4335C63.0096 45.995 61.8856 46.5565 60.7747 47.131C59.8729 47.5881 58.9057 48.019 58.1869 48.7502C56.8276 50.0821 56.8407 52.0931 57.1543 53.8428Z" fill="#7D6B6E"/>
<path d="M54.4749 22.1383C55.1153 20.7541 56.2524 19.5659 57.4418 18.5735C57.5202 18.5082 57.6117 18.4298 57.7162 18.3645C57.7685 18.3254 57.8339 18.2862 57.8861 18.247C59.3107 17.2546 61.611 16.2622 61.611 16.2622C66.473 17.8944 80.4185 32.2973 80.693 45.6687C80.7322 47.7057 79.7519 49.351 77.9352 50.239C77.2425 50.5785 76.4714 50.8135 75.7003 50.9571C75.2821 53.3729 74.9292 55.7886 74.6416 58.2174C74.4848 59.5101 74.4194 60.8289 74.1973 62.1086C74.145 62.3959 74.0796 62.6832 74.0012 62.9704C73.9359 63.1924 73.8574 63.5581 73.6875 63.7278C73.4261 63.989 72.7857 63.7539 72.4851 63.7017C69.9626 63.2838 67.5055 62.5134 65.1922 61.4165C64.225 60.9595 63.2186 60.4241 62.735 59.4187C62.5129 58.9486 61.9508 54.3522 61.8071 53.1509C61.7809 52.9681 61.7679 52.8636 61.7679 52.8636C61.7679 52.8636 64.7347 52.1193 65.911 51.7667C65.8064 51.5709 65.7019 51.3881 65.6104 51.1922C65.5973 51.1661 65.5712 51.1269 65.5581 51.0877C65.2444 50.4348 64.787 49.3118 64.2903 47.9408C64.2773 47.9016 64.2511 47.8494 64.2381 47.7971C63.3885 45.4859 62.3691 42.5087 61.4934 39.8318C61.4803 39.7796 61.4673 39.7404 61.4411 39.6881C61.0621 38.539 60.7092 37.4422 60.3955 36.489C60.0688 35.4704 59.7943 34.6086 59.6114 33.9949C59.5983 33.9427 59.5721 33.8774 59.5591 33.8251C59.5591 33.8121 59.546 33.786 59.546 33.7729C59.546 33.7598 59.5329 33.7468 59.5329 33.7337C58.422 34.1908 57.3372 34.687 56.2655 35.2223C56.2263 35.2484 56.1871 35.2223 56.1609 35.1962C55.0369 33.6946 53.9129 32.2059 52.7889 30.7043C52.3576 30.1297 51.5211 28.4322 51.5211 28.4322C51.5211 28.4322 53.4947 24.2798 54.4749 22.1383Z" fill="#F7E9E1"/>
<path d="M53.8868 10.7254C53.9129 11.0258 54.0436 11.2739 54.1874 11.2608C54.3311 11.2478 54.4357 10.9996 54.4096 10.6863C54.3834 10.3859 54.2527 10.1378 54.109 10.1509C53.9652 10.1639 53.8606 10.4251 53.8868 10.7254Z" fill="#2B1919"/>
<path d="M65.9111 51.7796C65.8065 51.5838 66.8259 53.5425 66.7998 53.5816C65.0746 53.3858 61.7679 52.8765 61.7679 52.8765C61.7679 52.8765 64.7217 52.1322 65.9111 51.7796Z" fill="#2B1919"/>
<path d="M53.7037 6.91255C55.3898 5.41089 58.6441 5.18891 60.3824 6.88644C61.3235 7.81355 61.6502 9.2891 61.9639 10.5165C62.1338 11.1956 63.2316 13.0628 62.4867 14.4992C62.2122 15.0085 61.5587 15.2174 61.0228 15.4133C60.3955 15.6222 57.2718 16.3012 56.5922 16.3796C56.2132 16.4187 55.5858 16.484 55.4812 16.027C55.4551 16.0009 55.442 15.9617 55.4682 15.9225C56.1478 15.1782 56.749 14.447 57.0758 13.4807C57.2195 13.0628 57.311 12.6319 57.4025 12.201C57.4417 11.9921 57.4809 11.7701 57.5201 11.5481C57.5855 11.1433 57.5201 10.843 57.1803 10.5818C55.8341 9.52414 54.3442 8.84513 53.6384 7.18677C53.6253 7.18677 53.5731 7.01702 53.7037 6.91255Z" fill="#2B1919"/>
<path d="M59.2193 8.94966C59.1801 8.07478 59.0494 7.1999 59.3761 6.36419C59.3761 6.35113 59.3892 6.35113 59.3892 6.33807C59.3761 6.28584 59.4153 6.22055 59.4807 6.24667C60.1603 6.52089 60.657 7.14767 61.1406 7.66998C61.6633 8.23147 62.1469 8.83214 62.5913 9.45892C63.3755 10.5558 64.3819 11.9269 64.0551 13.3502C63.9244 13.9378 63.5846 14.4471 63.0357 14.7082C62.4475 14.9955 61.6764 15.2436 61.0099 15.2697C60.3825 15.2958 59.9773 14.9824 59.729 14.4209C59.4023 13.6505 59.2454 12.8279 59.2062 12.0052C59.167 10.9998 59.2716 9.96818 59.2193 8.94966Z" fill="#2B1919"/>
<path d="M56.8015 11.0911C56.7493 11.078 56.7101 11.0389 56.7362 10.9736C56.9453 10.5688 57.5073 10.386 57.8471 10.7255C58.1608 11.0389 58.2262 11.5873 57.8733 11.9137C57.5857 12.1618 56.9976 12.2532 56.7754 11.8876C56.6708 11.6787 56.697 11.3392 56.8015 11.0911Z" fill="#E68B60"/>
<path d="M52.7629 11.7571C52.789 11.5482 52.9589 11.3523 53.0635 11.1826C53.2464 10.8823 53.4163 10.5819 53.5601 10.2685C53.5863 10.2032 53.6908 10.2555 53.6647 10.3208C53.6516 10.3469 53.6385 10.373 53.6255 10.3991C53.6385 10.3991 53.6385 10.4122 53.6516 10.4122C53.8084 10.6342 53.7823 10.9345 53.7954 11.1956C53.8084 11.5874 53.8084 11.9661 53.7823 12.3578C53.7823 12.397 53.7431 12.4231 53.7039 12.41C53.3771 12.3056 52.7106 12.2403 52.7629 11.7571Z" fill="#E68B60"/>
<path d="M53.4556 9.4982C53.4425 9.30233 53.5601 9.13258 53.8869 9.08035C54.2397 9.02812 54.7495 9.04117 54.9324 9.41985C54.9847 9.52432 54.9847 9.68101 54.8932 9.77242C54.7495 9.91606 54.4619 9.83771 54.292 9.85077C54.0045 9.83771 53.4817 9.9944 53.4556 9.4982Z" fill="#2B1919"/>
<path d="M54.0436 13.0237C54.1613 13.0106 54.3835 12.9323 54.488 12.9976C54.5142 13.0237 54.5272 13.0498 54.5142 13.089C54.4488 13.4285 53.9783 13.7288 53.6777 13.8333C53.6385 13.8463 53.5862 13.8725 53.5339 13.8855C53.5209 13.6113 53.5209 13.324 53.5078 13.0498C53.6908 13.0498 53.9129 13.0368 54.0436 13.0237Z" fill="white"/>
<path d="M57.8733 15.4655C58.6313 14.7342 58.6052 13.6504 58.5529 12.6711C58.5529 12.5797 58.6966 12.5797 58.7097 12.6711C58.762 13.6896 58.7751 14.8126 57.9909 15.57C57.9125 15.6352 57.8079 15.5308 57.8733 15.4655Z" fill="#87423A"/>
<path d="M60.0427 14.9824C60.4609 14.4078 60.6047 13.7158 60.4086 13.0368C60.3825 12.9454 60.5263 12.9062 60.5524 12.9976C60.7484 13.7158 60.6047 14.4601 60.1603 15.0607C60.108 15.1391 59.9773 15.0607 60.0427 14.9824Z" fill="#87423A"/>
<path d="M55.9781 7.39566C56.3048 8.00938 56.6839 8.57087 57.1282 9.10625C57.1936 9.18459 57.089 9.28906 57.0237 9.21071C56.5793 8.66228 56.1872 8.08773 55.8605 7.46095C55.8082 7.3826 55.9389 7.30425 55.9781 7.39566Z" fill="#87423A"/>
<path d="M57.5203 10.9997C57.6118 10.9605 57.664 11.0911 57.5726 11.1433C57.272 11.3 57.0628 11.5611 56.9975 11.8876C56.9713 11.979 56.8276 11.9659 56.8537 11.8745C56.9452 11.4828 57.1805 11.1825 57.5203 10.9997Z" fill="#C66B47"/>
<path d="M38.1376 19.3959C38.3467 19.3306 38.5297 19.5918 38.6734 19.8268C38.7257 19.7615 38.8303 19.7485 38.9871 19.8268C39.1701 19.9313 39.2877 20.1402 39.3923 20.31C39.5753 20.5973 40.0458 21.1065 40.3072 21.3154C40.7646 21.2501 41.2221 21.1849 41.6926 21.1457C42.15 21.1065 42.7382 20.989 43.1825 21.1718C43.5354 21.3154 43.6792 21.6811 43.8752 22.0075C44.1105 22.4123 44.202 22.6343 44.3719 23.0652C44.398 23.0783 44.4242 23.1305 44.4111 23.1697C44.4242 23.1958 44.4372 23.235 44.4503 23.2611C44.4895 23.3655 44.3327 23.4047 44.2935 23.3002C44.2935 23.2872 44.2804 23.2741 44.2804 23.2741C43.8752 23.5092 40.6862 23.7442 40.4901 23.6397C40.3333 23.5614 39.34 22.2034 38.9871 21.6941C38.7911 21.4852 37.5102 19.6048 38.1376 19.3959Z" fill="#E68B60"/>
<path d="M66.1203 52.093C67.8717 55.8667 70.0021 59.4577 72.4984 62.8005C72.5507 62.8788 72.42 62.9572 72.3677 62.8788C69.8714 59.536 67.741 55.9581 65.9896 52.1713C65.9504 52.0799 66.068 52.0016 66.1203 52.093Z" fill="#A57665"/>
<path d="M67.976 39.5444C68.4204 40.9285 68.904 42.3519 68.904 43.8143C68.904 44.5064 68.8125 45.2377 68.4988 45.8514C68.159 46.5304 67.5708 46.9091 66.8781 47.1441C66.0155 47.4445 65.1268 47.6534 64.225 47.797C64.238 47.8492 64.2642 47.8884 64.2772 47.9407C64.6301 47.8884 64.983 47.8101 65.3359 47.7317C66.107 47.562 66.9435 47.3792 67.6362 46.9744C68.8125 46.2954 69.0869 44.8459 69.0477 43.5924C68.9954 41.9862 68.4334 40.4585 67.9368 38.9437C67.8584 38.7217 67.793 38.4867 67.7146 38.2647C67.6623 38.108 67.6362 37.9122 67.5447 37.7685C67.4793 37.6771 67.414 37.6379 67.3094 37.6379C66.9566 37.6379 66.5253 37.8599 66.1985 37.9774C65.8456 38.108 65.4797 38.2386 65.1268 38.3822C63.9113 38.8654 62.6958 39.3877 61.415 39.675C61.428 39.7272 61.4542 39.7664 61.4672 39.8186C62.7219 39.5313 63.9113 39.0221 65.1006 38.552C65.728 38.3039 66.3553 38.0689 66.9958 37.873C67.2441 37.7946 67.3617 37.7946 67.4793 38.0297C67.5578 38.1994 67.597 38.3953 67.6623 38.5781C67.7669 38.9176 67.8714 39.231 67.976 39.5444Z" fill="#A57665"/>
<path d="M59.7814 33.4594C60.095 33.0154 60.4218 32.5845 60.7616 32.1536C60.8008 32.1014 60.8531 32.1144 60.8923 32.1536C60.9446 32.1405 61.0099 32.1797 60.9968 32.245C60.7616 33.6553 60.5655 35.0786 60.3956 36.5019C60.0689 35.4834 59.7944 34.6215 59.6114 34.0078C59.5984 33.9556 59.5722 33.8903 59.5592 33.8381C59.5592 33.825 59.5461 33.7989 59.5461 33.7858C59.6114 33.6683 59.7029 33.5638 59.7814 33.4594Z" fill="#2B1919"/>
<path d="M64.0422 23.5092C64.199 25.1545 63.6893 26.7737 62.9966 28.2492C62.0686 30.221 60.8531 32.0752 59.5461 33.838C59.5592 33.8902 59.5854 33.9425 59.5984 34.0078C60.1212 33.3157 60.6179 32.5975 61.0884 31.8663C62.8267 29.2286 64.8133 25.951 64.0552 22.6604C63.7546 21.3546 63.0227 20.1272 61.8464 19.422C61.1015 18.9781 60.2388 18.7561 59.4024 18.5602C58.8927 18.4427 58.396 18.3382 57.8863 18.2468C57.8209 18.286 57.7687 18.3252 57.7164 18.3643C58.3176 18.4688 58.9188 18.5863 59.5069 18.73C60.3957 18.9389 61.3106 19.2001 62.0686 19.7354C63.271 20.6103 63.9115 22.0728 64.0422 23.5092Z" fill="#A57665"/>
<path d="M38.6474 20.3361C38.9611 20.6887 39.2748 21.0282 39.6015 21.3677C39.9413 21.7202 40.3465 22.3209 40.8823 22.112C40.9738 22.0728 41.0131 22.2164 40.9216 22.2556C40.4118 22.4645 40.2289 22.2295 39.876 21.8769C39.4185 21.4068 38.9742 20.9368 38.5298 20.4406C38.4775 20.3622 38.5821 20.2578 38.6474 20.3361Z" fill="#C66B47"/>
<path d="M39.6277 15.4654C39.9675 15.1782 40.5295 15.6352 40.7909 15.8572C41.0654 16.0791 41.2875 16.3534 41.4705 16.6537C41.3921 16.1706 41.379 15.6744 41.4967 15.2173C41.6012 14.7995 42.0064 14.4077 42.4246 14.7342C42.8428 15.0606 42.7644 15.7135 42.6337 16.1575C42.49 16.6798 42.2024 17.163 41.7058 17.4372C41.6535 17.4633 41.6012 17.4241 41.5881 17.3719C41.3137 17.3458 41.1046 17.1891 40.8693 17.0585C40.5426 16.8757 40.2158 16.7059 39.9021 16.497C39.6146 16.2881 39.2356 15.7788 39.6277 15.4654Z" fill="#F7E9E1"/>
<path d="M37.9418 37.5989C38.36 37.2202 38.7782 36.8415 39.1965 36.489C39.5755 36.1756 39.7323 36.1756 40.229 36.1886C40.3205 36.1886 40.3205 36.3453 40.229 36.3453C40.0199 36.3453 39.7715 36.2931 39.5755 36.3845C39.3795 36.4759 39.1703 36.7109 39.0135 36.8546C38.6868 37.1418 38.3731 37.4291 38.0463 37.7164C37.9679 37.7686 37.8634 37.6642 37.9418 37.5989Z" fill="#C66B47"/>
<path d="M37.3928 37.3636C37.7065 36.8936 38.0594 36.4626 38.4776 36.0709C38.8566 35.7183 39.118 35.5094 39.6408 35.6139C39.7323 35.6269 39.6931 35.7836 39.6016 35.7575C39.0396 35.64 38.6606 36.084 38.3077 36.4626C38.0201 36.763 37.7718 37.0894 37.5366 37.442C37.4581 37.5203 37.3274 37.442 37.3928 37.3636Z" fill="#C66B47"/>
<path d="M30.9233 35.0261C31.0409 35.0653 34.8834 35.8227 35.2363 35.7313C35.5238 35.6529 35.7983 35.5354 36.0728 35.4309C36.3734 35.3134 36.6871 35.1828 36.9877 35.1045C37.5627 34.9217 38.1639 34.9217 38.7652 34.987C39.4709 35.0653 40.0721 35.2481 40.6472 35.679C40.7518 35.7574 40.987 35.888 40.9609 36.0577C40.9347 36.2536 40.6733 36.2536 40.5426 36.2405C40.1375 36.2275 39.7454 36.1361 39.3402 36.11C39.0135 36.0969 38.6737 36.0969 38.3469 36.123C38.2946 36.2667 38.3208 36.3711 38.4515 36.4233C38.6345 36.5931 38.9481 36.6192 39.1834 36.6453C39.3794 36.6715 39.8369 36.6453 39.9414 36.8673C39.9937 36.9718 39.9545 37.0632 39.8499 37.1154C39.7585 37.1676 39.6278 37.1546 39.5232 37.1546C39.2879 37.1546 39.0527 37.1677 38.8174 37.1677C38.3731 37.1807 36.5694 37.2068 36.125 37.2199C35.6153 37.2329 35.2755 37.0893 34.988 37.0762C34.6743 37.0632 31.4722 36.802 30.871 36.6714C30.8318 36.6584 31.0278 36.3711 31.0278 36.3319C31.1585 35.9533 29.6294 34.6344 30.9233 35.0261Z" fill="#E68B60"/>
<path d="M17.0824 33.0152C17.1478 32.6235 17.4092 32.3884 17.7751 32.2578C18.3371 32.0489 18.9514 31.9314 19.5526 31.8269C20.4022 31.6833 21.5392 31.7486 22.1143 31.0173C24.1271 31.5266 26.1137 32.1534 28.048 32.9107C28.7015 33.1588 29.355 33.433 29.9954 33.7203C30.1522 33.7856 30.3091 33.864 30.4659 33.9293C30.9103 34.1251 31.3416 34.3341 31.7729 34.556C32.0604 34.6997 32.361 34.8433 32.6486 35C32.7793 35.0653 32.923 35.1175 33.0015 35.235C33.0799 35.3656 33.0276 35.6007 33.0276 35.7574C33.0145 36.0969 33.0015 36.4494 32.9361 36.7889C32.923 36.8934 32.923 36.9456 32.8577 37.0501C32.7662 37.1937 32.7531 37.1676 32.5832 37.1676C32.4395 37.1676 32.2826 37.1676 32.1389 37.1807C31.4723 37.1937 30.8057 37.2068 30.1392 37.2329C30.0216 37.2329 29.8386 37.246 29.6164 37.246C28.9629 37.2721 27.9042 37.2982 26.7018 37.3113C23.6304 37.3635 19.6049 37.3504 18.9384 36.8934C17.8666 36.1622 17.2001 35.1045 17.1216 33.877C17.0563 33.5897 17.0302 33.3025 17.0824 33.0152Z" fill="#2B1919"/>
<path d="M29.9952 11.7308C30.1651 11.6786 30.335 11.6133 30.518 11.5611C30.5572 11.548 30.5833 11.5741 30.6095 11.6003C30.9624 12.1095 31.276 12.6449 31.5244 13.2194C31.7466 13.7157 31.9165 14.238 32.1909 14.7081C32.8575 13.9638 33.5763 13.2586 34.3213 12.6057C34.3605 12.5666 34.4128 12.5796 34.4389 12.6188C34.5304 12.7363 34.7918 12.9975 34.7526 13.1672C34.7134 13.337 34.3213 13.4806 34.1906 13.572C33.5241 14.0029 32.8836 14.46 32.2563 14.9431C32.2171 14.9692 32.1648 14.9692 32.1387 14.93C32.1256 14.9039 32.0994 14.8647 32.0864 14.8386C32.0602 14.8386 32.0472 14.8256 32.0341 14.8125C31.3022 13.8593 30.5703 12.893 29.956 11.8484C29.9168 11.7961 29.9429 11.7439 29.9952 11.7308Z" fill="#F7E9E1"/>
<path d="M30.4395 13.1934C30.7009 12.9061 31.1845 13.1411 31.4198 13.337C31.6158 13.4937 31.7596 13.6896 31.8772 13.8985C31.8642 13.7157 31.8903 13.5329 31.9818 13.35C32.0994 13.1019 32.3608 12.88 32.6353 13.0628C33.2757 13.4806 32.6091 14.5383 32.204 14.8517C32.204 14.8648 32.204 14.8648 32.204 14.8778C32.1909 14.917 32.1517 14.9431 32.1125 14.9301C31.6028 14.8125 31.0669 14.5906 30.7009 14.1988C30.4657 13.9768 30.1782 13.4937 30.4395 13.1934Z" fill="#F7E9E1"/>
<path d="M29.7338 15.0607L29.9691 18.8083C29.9821 19.0303 30.1651 19.2001 30.3873 19.2001H34.0469C34.269 19.2001 34.4259 19.0303 34.4128 18.8083L34.1776 15.0607C34.1645 14.8387 33.9815 14.6689 33.7593 14.6689H30.0998C29.8776 14.682 29.7208 14.8518 29.7338 15.0607Z" fill="#D46744"/>
<path d="M33.3542 14.6819V19.213H32.374V14.6819H33.3542Z" fill="#F7E9E1"/>
<path d="M31.4983 14.6819V19.213H30.5181V14.6819H31.4983Z" fill="#F7E9E1"/>
<path d="M32.9361 66.0127C32.7531 64.0409 32.6355 62.0692 32.5832 60.0974C31.4592 60.4108 30.3221 60.7242 29.1981 61.0376C30.4005 64.4326 31.5245 67.8538 32.5701 71.3011C32.8184 71.2097 33.0929 71.1314 33.3151 71.0139C33.5765 70.8702 33.485 70.6874 33.4458 70.4132C33.3804 69.917 33.3151 69.4208 33.2497 68.9246C33.1321 67.9583 33.0275 66.9789 32.9361 66.0127Z" fill="#E68B60"/>
<path d="M38.7129 74.3437C38.5691 74.4351 38.3469 74.3568 38.2031 74.3176C37.9287 74.2523 32.9621 72.2675 32.57 71.9149C32.2825 71.6668 32.3086 71.1576 32.3609 70.7789C32.3609 70.7789 32.4001 70.5308 32.4393 70.5308C32.7138 70.5177 33.0144 70.5308 33.2889 70.6091C33.5372 70.6875 33.681 70.8964 33.9032 71.027C34.4782 71.3534 38.177 73.2729 38.5429 73.6777C38.7129 73.8475 39.0265 74.1739 38.7129 74.3437Z" fill="#2B1919"/>
<path d="M14.4162 61.56C15.88 60.2281 17.3831 58.9484 18.9253 57.721C17.9973 57.0158 17.0563 56.2977 16.1284 55.5925C14.1417 58.5959 12.0898 61.56 9.9594 64.4589C10.1816 64.6025 10.4038 64.7723 10.639 64.8767C10.9135 65.0073 11.005 64.8245 11.201 64.6286C11.5539 64.2761 11.9068 63.9235 12.2728 63.5709C12.9785 62.8919 13.6974 62.2129 14.4162 61.56Z" fill="#E68B60"/>
<path d="M11.2402 71.1967C11.0834 71.1314 11.018 70.9095 10.9527 70.7789C10.8351 70.5177 9.43658 65.3598 9.47579 64.8375C9.50193 64.4588 9.92017 64.1716 10.26 63.9887C10.26 63.9887 10.4822 63.8712 10.5083 63.8973C10.6782 64.1193 10.8612 64.3544 10.9658 64.6155C11.0572 64.8636 10.9658 65.0987 11.005 65.3598C11.0965 66.0127 11.7892 70.126 11.6846 70.6483C11.6323 70.8964 11.567 71.3273 11.2402 71.1967Z" fill="#2B1919"/>
<path d="M14.429 40.0794C14.7688 39.5049 15.1348 38.9303 15.4877 38.3558C15.4746 38.3166 15.5007 38.2774 15.5399 38.2644C15.5791 38.1991 15.6314 38.1208 15.6706 38.0555C15.7229 37.9771 15.8536 38.0424 15.8013 38.1338C15.7621 38.1991 15.7229 38.2644 15.6706 38.3297C16.6378 39.1523 17.8925 39.5049 19.0426 40.0011C20.2712 40.5234 21.4475 41.1371 22.5846 41.8161C23.7086 42.4952 24.7934 43.2264 25.852 43.9968C26.9107 44.7672 27.9824 45.5377 28.9234 46.4387C30.7532 48.1884 31.7465 50.5389 32.4915 52.9023C32.9228 54.2865 33.2757 55.6837 33.6155 57.0939C33.9553 58.4911 34.3082 59.8883 34.5827 61.2855C34.8179 62.4869 35.1708 63.8971 34.6219 65.0723C34.465 65.4118 34.2167 65.6861 34.0337 66.0125C33.8377 66.3651 33.7331 66.7568 33.7331 67.1616C33.72 67.919 33.9814 68.6633 34.2298 69.3815C34.2428 69.4206 34.2167 69.4598 34.1775 69.4729C33.4194 69.7601 32.6222 69.8646 31.8249 69.7993C31.7988 69.7993 31.7596 69.7732 31.7465 69.7471C31.6289 69.1203 31.4851 68.4935 31.1453 67.932C30.8055 67.3705 30.2565 67.018 29.8122 66.5479C29.0411 65.7122 28.6097 64.6414 28.2177 63.5968C27.4073 61.4292 26.6231 59.2224 25.3684 57.2637C25.2639 57.0939 25.1462 56.9242 25.0286 56.7544C24.6104 56.1538 24.1399 55.6184 23.6301 55.1091C22.3101 53.7903 20.7679 52.6804 19.4478 51.3354C17.7879 49.6248 16.4156 47.64 15.4092 45.4724C14.8603 44.2972 14.3637 43.0567 14.0892 41.79C13.9846 41.1371 14.1023 40.6279 14.429 40.0794Z" fill="#9697B0"/>
<path d="M25.6432 52.5239C25.6432 52.4195 25.6563 52.328 25.6693 52.2236C25.6693 52.1322 25.8262 52.1322 25.8262 52.2236C25.8262 52.328 25.8131 52.4325 25.8 52.537C25.8 52.55 25.8 52.5761 25.8 52.5892C25.6955 54.1431 25.5648 55.697 25.4079 57.2509C25.3034 57.0811 25.1857 56.9114 25.0681 56.7416C24.6499 56.141 24.1794 55.6056 23.6697 55.0963C23.931 54.0386 24.8982 53.2552 25.6432 52.5239Z" fill="#2B1919"/>
<path d="M3.84248 39.6617C4.16922 38.7607 4.67895 37.912 5.33244 37.2068C5.65919 36.8543 5.89444 36.7629 6.36495 36.9326C6.94002 37.1415 7.5151 37.3766 8.09017 37.5724C9.38408 38.0034 10.7172 38.369 12.0503 38.6432C13.2005 38.8782 14.6381 39.1133 15.6184 38.369C15.6053 38.3559 15.5922 38.3559 15.5922 38.3429C15.5138 38.2776 15.6184 38.1731 15.6968 38.2384C15.7099 38.2515 15.7229 38.2645 15.736 38.2776C15.8536 38.1731 15.9713 38.0556 16.0758 37.912C16.1281 37.8336 16.2588 37.912 16.2065 37.9903C16.102 38.1339 15.9843 38.2645 15.8667 38.369C19.2779 41.0197 22.5715 43.9839 24.728 47.7707C25.2508 48.6978 25.8651 49.7555 26.022 50.8263C26.1919 51.9101 25.7475 52.9547 25.1724 53.8426C23.9308 55.7752 20.781 58.6741 19.0035 60.0713L17.1737 61.4946C16.664 61.8994 16.1542 62.3172 15.6053 62.6437C15.0564 62.9701 14.4682 63.1138 13.867 63.2966C13.2135 63.5055 12.5339 63.832 12.2986 64.5371C12.2856 64.5893 12.2072 64.6154 12.168 64.5763C11.7236 64.0278 11.2531 63.4794 10.8348 62.9048C10.5734 62.5523 10.6911 62.3434 11.057 62.1475C11.6321 61.8472 11.6321 61.2073 11.5798 60.6197C11.5406 60.0843 11.5014 59.562 11.5798 59.0136C11.8935 56.5717 14.7688 53.0461 15.3962 50.6957C14.1546 50.4998 12.9129 50.2909 11.6713 50.0558C10.5342 49.8469 9.38408 49.5988 8.29928 49.181C6.45644 48.4628 4.94035 47.1178 4.09081 45.3158C3.24127 43.566 3.16285 41.5029 3.84248 39.6617Z" fill="#C1C2D4"/>
<path d="M19.2649 51.3356C18.4807 50.4869 17.7096 49.6251 16.9254 48.7763C15.4616 47.1702 13.9847 45.5771 12.5601 43.9448C11.0178 42.182 9.52788 40.3539 8.2209 38.3952C8.16862 38.3169 8.29932 38.2385 8.3516 38.3169C10.8741 42.0645 14.0108 45.342 17.043 48.6718L19.3825 51.2312C19.5786 51.4401 19.9837 51.7404 19.9968 52.0538C20.0099 52.2105 19.8922 52.3672 19.8138 52.4978C19.657 52.7459 19.5001 52.994 19.3172 53.229C18.167 54.8221 16.6901 56.1279 15.3701 57.5773C13.7756 59.3271 12.4686 61.2988 11.5014 63.4534C11.4622 63.5448 11.3315 63.4665 11.3707 63.3751C12.1941 61.5731 13.2397 59.8755 14.4944 58.3477C15.736 56.8461 17.1999 55.5664 18.4415 54.0778C18.7552 53.7122 19.0427 53.3335 19.3172 52.9418C19.4479 52.7459 19.6439 52.5239 19.7354 52.3019C19.9184 51.871 19.5263 51.6099 19.2649 51.3356Z" fill="#9697B0"/>
<path d="M22.1402 15.9225C22.1402 15.9225 19.5131 14.7734 19.304 14.447C19.1603 14.2119 21.8396 10.164 23.1073 8.45336C23.1204 8.4403 23.1335 8.42725 23.1465 8.42725C23.1465 8.42725 23.1465 8.42725 23.1596 8.42725C23.1596 8.42725 23.1596 8.42725 23.1727 8.42725C23.1858 8.42725 23.1988 8.42725 23.2119 8.4403C23.9961 9.17155 26.1265 10.3468 26.1265 10.3468L22.1402 15.9225Z" fill="#E68B60"/>
<path d="M22.5847 5.92011C22.5847 4.84936 22.6239 3.75249 23.0029 2.76009C23.6825 0.958091 29.7731 1.78074 30.518 2.59033C30.9624 3.07348 30.8709 4.11811 30.7141 5.09746C30.6749 5.34556 30.6357 5.59366 30.5965 5.8287C30.5965 5.84176 30.5965 5.85482 30.5965 5.86788C30.4004 7.01697 30.2044 8.17913 30.0083 9.32823C29.956 9.62856 29.9038 9.92889 29.8515 10.2292C29.8515 10.2553 29.8384 10.2815 29.8384 10.3076C29.7469 10.8299 29.7208 11.4567 29.3548 11.8876C29.015 12.2924 28.4661 12.3707 27.9171 12.3054C26.4533 12.1357 24.9372 11.6134 23.5649 11.078C23.4865 11.0388 23.5257 10.9474 23.6041 10.9474C23.0682 10.6079 22.7676 9.95501 22.6892 9.3674C22.5455 8.23136 22.5977 7.04309 22.5847 5.92011Z" fill="#E68B60"/>
<path d="M29.956 6.76889C29.8907 7.09534 29.7077 7.33038 29.5509 7.30427C29.394 7.27815 29.3287 6.97782 29.394 6.65137C29.4594 6.32492 29.6424 6.08988 29.7992 6.11599C29.956 6.14211 30.0214 6.44244 29.956 6.76889Z" fill="#2B1919"/>
<path d="M21.735 10.0725C21.7481 10.0464 21.7612 10.0334 21.7742 10.0073C22.1925 9.31518 22.2839 8.53171 22.1794 7.73517C22.0618 6.8864 21.6827 6.08987 21.5651 5.22805C21.5259 4.993 21.539 4.75796 21.5912 4.53598C21.6958 3.17795 22.1925 2.27695 23.1335 1.58488C25.2639 0.0179304 29.1587 0.775291 30.7401 2.65563C30.8577 2.78621 30.7793 2.95597 30.7663 2.98208C29.7599 4.6535 28.0477 5.17582 26.4271 6.11599C26.1526 6.27268 26.0088 6.46855 25.9566 6.70359C25.3946 7.05616 24.9894 7.59153 24.5842 8.1922C24.0222 9.01485 23.3949 9.78527 22.7675 10.5557C22.4146 10.4251 22.0748 10.2423 21.735 10.0725Z" fill="#754632"/>
<path d="M26.6365 7.56531C26.349 7.94399 25.7216 7.74812 25.4471 7.43473C25.1073 7.04299 25.2642 6.45538 25.6563 6.15505C26.0745 5.84166 26.6496 6.12894 26.8195 6.58596C26.8456 6.65125 26.7933 6.70348 26.741 6.70348C26.8325 7.00382 26.7933 7.36944 26.6365 7.56531Z" fill="#E68B60"/>
<path d="M29.8645 8.81889C29.8122 8.83195 29.7861 8.77972 29.7861 8.74054C29.8253 8.2574 29.8906 7.78731 29.9821 7.30417C30.0344 6.99078 30.0605 6.6121 30.2958 6.364C30.3089 6.35094 30.3089 6.35094 30.3219 6.35094C30.3089 6.31177 30.2958 6.28565 30.2827 6.24648C30.2566 6.15507 30.3873 6.10284 30.4134 6.19425C30.5441 6.6121 30.701 7.0169 30.8709 7.40863C30.9754 7.64368 31.1584 7.90484 31.1453 8.17905C31.1323 8.77972 30.2827 8.7536 29.8645 8.81889Z" fill="#E68B60"/>
<path d="M29.0281 5.18876C29.3287 4.81008 29.9822 4.87537 30.4396 4.97983C30.5573 5.00594 30.6488 5.04512 30.7141 5.08429C30.6749 5.33239 30.6357 5.58049 30.5965 5.81554C30.3482 5.86777 30.0083 5.7633 29.7862 5.72413C29.5509 5.69802 29.1719 5.73719 29.015 5.55438C28.9105 5.46297 28.9497 5.29322 29.0281 5.18876Z" fill="#754632"/>
<path d="M29.9954 9.31502C29.9431 9.61535 29.8908 9.91569 29.8385 10.216C29.7862 10.1899 29.734 10.1638 29.6948 10.1377C29.3941 9.98098 28.9236 9.58924 28.9106 9.21056C28.9106 9.17138 28.9236 9.14527 28.9628 9.11915C29.0935 9.05386 29.3157 9.18444 29.4334 9.21056C29.5771 9.24973 29.7993 9.31502 29.9954 9.31502Z" fill="white"/>
<path d="M27.4729 23.8877C27.4859 23.8746 29.3811 22.5035 29.3941 22.5035C29.4333 22.2032 29.4595 21.8898 29.4987 21.5895C29.5248 21.3283 29.5379 21.0411 29.6424 20.793C29.8777 20.2445 30.4528 19.8136 30.871 19.4088C31.1193 19.1607 31.7859 18.5862 32.0342 18.3381C32.2303 18.1422 32.4263 17.8941 32.6616 17.7505C32.8315 17.646 32.923 17.6852 32.9622 17.7896C33.1059 17.4501 33.2497 17.1106 33.4066 16.7842C33.5111 16.5622 33.6679 16.3402 33.9424 16.4708C34.1254 16.5491 34.1907 16.7058 34.2169 16.8886C34.3084 16.7058 34.4783 16.4316 34.7135 16.5883C35.0141 16.7842 34.7135 17.6852 34.6874 17.6852C34.4913 18.2989 34.2822 18.9126 34.0731 19.5133C33.8901 20.0487 33.6287 20.5057 33.2105 20.8974C32.7269 21.3544 32.1911 21.7723 31.6813 22.2032C31.1716 22.6341 28.7406 24.9062 28.2309 25.3371C28.2701 25.3763 27.3291 23.953 27.4729 23.8877Z" fill="#E68B60"/>
<path d="M25.983 6.50784C25.8915 6.44255 25.8131 6.58618 25.9046 6.65147C26.2052 6.8604 26.3882 7.18685 26.4143 7.53941C26.4274 7.64388 26.5842 7.64388 26.5842 7.53941C26.5319 7.12156 26.3228 6.769 25.983 6.50784Z" fill="#9E583E"/>
<path d="M4.09095 38.4866C4.03867 38.4866 3.99946 38.4474 4.01253 38.3952C5.43714 33.9816 7.16236 29.6725 9.18818 25.4939C10.2076 23.4046 11.2924 21.3415 12.4556 19.3306C12.6778 18.9519 12.9 18.5732 13.1222 18.1815C13.5012 17.5547 13.8802 16.9279 14.2723 16.3011C14.7821 15.4785 15.3048 14.6558 15.9845 13.9507C16.0237 13.8985 16.076 13.8593 16.1152 13.8201C16.8209 13.1411 17.6313 12.7102 18.5723 12.4099C19.6048 12.0834 20.5458 11.6394 21.2908 10.7907C21.3039 10.7646 21.3562 10.7646 21.3823 10.7776L23.1206 12.0312C23.382 12.214 23.6434 12.3968 23.9048 12.5666C24.0224 12.6449 24.2185 12.7494 24.2707 12.9061C24.3099 13.0236 24.2577 13.128 24.2054 13.2325C24.0485 13.5328 23.9048 13.8071 23.8133 14.1335C23.6565 14.7081 23.6303 15.2957 23.6695 15.8833C23.6826 16.0269 23.7872 16.8887 23.8133 17.9987C23.8264 18.9127 23.7872 19.9965 23.5911 20.9498C23.5258 21.2762 23.4473 21.6288 23.3558 21.9813C21.9182 28.0924 18.8598 37.1285 17.958 38.591C17.7358 38.9436 17.4875 39.257 17.0954 39.4267C16.638 39.6226 16.1021 39.6357 15.6185 39.6748C14.3638 39.7793 13.1222 39.8185 11.8675 39.8185C10.4429 39.8054 9.01826 39.7271 7.60672 39.5834C6.39123 39.4529 5.13653 39.3223 4.07788 38.6694C4.05174 38.6563 4.02559 38.6041 4.05173 38.5649C4.05173 38.5388 4.07788 38.5127 4.09095 38.4866Z" fill="#2B1919"/>
<path d="M15.5009 27.8836C15.6185 25.7029 15.906 23.5222 16.1674 21.3546C17.6313 21.1065 19.0951 20.9106 20.585 20.7801C20.951 20.754 21.33 20.7278 21.696 20.7017C21.8267 20.6887 22.0489 20.6234 22.1403 20.7409C22.1926 20.8062 22.1403 21.0935 22.1403 21.1849C22.1403 21.89 22.1273 22.5951 22.0881 23.3002C22.0619 23.9793 22.0227 24.6583 21.9835 25.3503C21.9574 25.6898 21.8397 26.1991 22.258 26.3427C22.637 26.4733 23.0683 26.1991 23.382 26.0294C23.5388 25.938 23.7087 25.8465 23.8656 25.7682C24.3099 25.5201 24.7412 25.272 25.1725 25.0108C25.3425 24.9064 25.5254 24.8019 25.6953 24.6974C26.6364 24.1229 27.5513 23.5222 28.44 22.8955C28.7929 23.4831 29.1719 24.0707 29.4856 24.6844C29.7339 25.1545 29.4856 25.5723 29.2634 26.0032C29.1066 26.3036 28.9497 26.5908 28.7798 26.8781C28.4792 27.4004 28.1525 27.9228 27.7996 28.419C27.4336 28.9543 27.0415 29.4767 26.6364 29.9859C26.5579 30.0904 26.4795 30.1948 26.388 30.2993C25.6431 31.2264 24.8719 32.1144 24.0747 32.9892C23.3297 33.8119 22.5978 34.6737 21.7483 35.405C20.8987 36.1493 19.9054 36.776 18.7683 36.9197C18.0626 37.0111 17.579 36.6977 17.1215 36.1884C16.7556 35.7967 16.468 35.3397 16.2459 34.8565C15.2787 32.7411 15.3702 30.1687 15.5009 27.8836Z" fill="#2B1919"/>
<path d="M31.0016 21.0019C31.8381 20.1792 32.4393 19.1738 32.7791 18.0508C32.8052 17.9594 32.949 17.9986 32.9229 18.09C32.57 19.2391 31.9557 20.2576 31.1062 21.1064C31.0408 21.1847 30.9363 21.0672 31.0016 21.0019Z" fill="#9E583E"/>
<path d="M33.1712 19.5134C33.4718 18.7299 33.7724 17.9595 34.06 17.176C34.0992 17.0846 34.2429 17.1238 34.2037 17.2152C33.9031 17.9987 33.6025 18.7691 33.315 19.5526C33.2889 19.644 33.1451 19.6048 33.1712 19.5134Z" fill="#9E583E"/>
<path d="M14.2201 27.8573C14.2593 26.3557 14.3247 24.8671 14.4292 23.3654C14.5468 21.7462 14.7168 20.127 14.952 18.5078C14.9651 18.4164 15.1088 18.4556 15.0958 18.547C14.7037 21.2108 14.5076 23.9008 14.4161 26.6038C14.3639 27.8965 14.3377 29.1892 14.3377 30.482C14.3508 31.6964 14.4292 32.9499 14.8605 34.099C15.3572 35.444 16.4942 36.9065 18.1018 36.5539C18.1933 36.5278 18.2325 36.6845 18.141 36.6975C15.5401 37.259 14.4423 33.9684 14.2593 31.9967C14.1155 30.6387 14.1809 29.2415 14.2201 27.8573Z" fill="#87423A"/>
<path d="M21.4344 4.39221C21.4083 4.07882 21.3299 3.76543 21.3429 3.45204C21.356 3.11254 21.4867 2.83832 21.6697 2.55104C21.9311 2.13319 21.8396 1.63699 22.1533 1.23219C22.3363 1.01021 22.5846 0.840454 22.8721 0.775165C23.0812 0.722933 23.3034 0.749049 23.5256 0.749049C23.8916 0.735991 24.1137 0.631527 24.4013 0.435658C25.1724 -0.0866589 26.0611 -0.0997169 26.9368 0.187558C27.3551 0.331195 27.7602 0.527064 28.1523 0.735991C28.4399 0.892686 28.7143 1.01021 29.0411 1.03632C29.2894 1.06244 29.5377 1.04938 29.773 1.12773C30.1259 1.25831 30.4134 1.51947 30.6225 1.83286C30.7271 1.98955 30.8055 2.15931 30.8839 2.32906C30.9885 2.57716 31.2629 2.64245 31.3675 2.87749C31.472 3.11254 31.3806 3.51733 31.2107 3.70014C31.08 3.84378 30.9231 3.81766 30.7401 3.83072C30.4265 3.83072 30.1128 3.83072 29.7991 3.81766C28.662 3.94824 27.5511 3.54345 26.401 3.7132C25.9043 3.79155 25.4207 3.92213 24.9502 4.09188C24.3882 4.28775 23.8131 4.48362 23.3296 4.82312C23.0943 4.99288 22.9113 5.18875 22.7414 5.41073C22.5976 5.6066 22.48 5.8547 22.3101 6.02446C22.1533 6.18115 22.0749 6.14198 21.9049 6.0114C21.6043 5.77635 21.4214 5.47602 21.4214 5.08428C21.4083 4.83618 21.4475 4.6142 21.4344 4.39221Z" fill="#754632"/>
<path d="M22.5716 6.79489C23.0291 7.02994 23.5257 6.8863 23.9832 6.74266C24.0747 6.71654 24.1139 6.86018 24.0224 6.8863C23.5127 7.04299 22.9899 7.17357 22.4932 6.92547C22.4148 6.87324 22.4932 6.74266 22.5716 6.79489Z" fill="#5E3828"/>
<path d="M26.6886 4.09198C27.3943 4.15727 28.1262 4.19645 28.7536 3.81777C28.832 3.76553 28.9104 3.89611 28.832 3.94835C28.1785 4.34008 27.4205 4.31397 26.6886 4.24868C26.5971 4.22256 26.584 4.07892 26.6886 4.09198Z" fill="#5E3828"/>
<path d="M22.65 4.73192C23.1859 4.87556 23.7087 4.88861 24.2576 4.79721C24.3491 4.78415 24.3883 4.92779 24.2968 4.94085C23.7348 5.04531 23.1728 5.03225 22.6108 4.87556C22.5193 4.84944 22.5585 4.7058 22.65 4.73192Z" fill="#5E3828"/>
<path d="M19.1866 34.3995C20.4413 31.9446 21.3693 29.3461 21.9705 26.6692C21.9966 26.5778 22.1404 26.617 22.1143 26.7084C21.5131 29.4114 20.572 32.023 19.3173 34.4779C19.2781 34.5693 19.1474 34.4909 19.1866 34.3995Z" fill="#87423A"/>
<path d="M37.9286 35.3396C38.7781 35.209 39.6015 35.3266 40.3857 35.6791C40.4772 35.7183 40.3988 35.8489 40.3073 35.8097C39.5623 35.4702 38.7651 35.3657 37.9678 35.4963C37.8763 35.4963 37.8371 35.3527 37.9286 35.3396Z" fill="#9E583E"/>
<path d="M14.2723 16.3011C14.782 15.4784 15.3048 14.6558 15.9845 13.9506C16.0237 13.8984 16.076 13.8592 16.1152 13.8201C16.1936 14.2771 16.5465 14.6035 16.8994 14.8778C17.3045 15.1912 17.7228 15.4262 18.2325 15.2173C18.2978 15.1912 18.324 15.2695 18.3109 15.3087C18.0626 15.8571 17.8012 16.4578 17.8665 17.0846C17.9319 17.6852 18.2978 18.1814 18.899 18.3251C19.9838 18.5732 21.1078 17.8289 21.5914 16.9017C21.6176 16.8495 21.7221 16.8756 21.709 16.9409C21.6176 17.7244 22.5194 18.534 23.3036 18.3251C23.5127 18.2728 23.6695 18.1684 23.8002 18.0378C23.8133 18.9518 23.7741 20.0356 23.578 20.9889C23.5127 21.3153 23.4343 21.6679 23.3428 22.0205C22.82 22.2294 22.1665 22.2555 21.6698 22.138C21.1209 22.0074 20.6242 21.5504 20.6373 20.9758C19.7878 21.9682 18.2063 22.595 16.9647 22.0074C16.3243 21.7071 16.0498 20.9758 15.9714 20.3229C15.906 19.8006 15.9845 19.2652 16.1674 18.769C15.1611 19.3566 13.8802 19.0694 13.1352 18.2206C13.5012 17.5546 13.8802 16.9279 14.2723 16.3011Z" fill="#87423A"/>
<path d="M28.1916 34.9088C27.8126 34.5301 27.4597 34.0469 27.6296 33.4985C27.708 33.2635 27.8387 33.0806 28.0217 32.937C28.6752 33.1851 29.3287 33.4593 29.9691 33.7466C30.126 33.8119 30.2828 33.8902 30.4396 33.9555C30.4004 33.9816 30.3743 34.0208 30.3351 34.06C29.9953 34.5301 30.4658 35.0002 30.8056 35.3005C30.8448 35.3397 30.8187 35.418 30.7664 35.418C29.7992 35.3397 29.2895 36.3582 29.564 37.1939C29.564 37.22 29.577 37.2331 29.5901 37.2592C28.9366 37.2853 27.8779 37.3114 26.6755 37.3245C26.1789 36.2146 26.9892 34.961 28.1916 34.9088Z" fill="#87423A"/>
<path d="M23.8524 25.7683C24.2968 25.5202 24.7281 25.2721 25.1594 25.0109C25.3293 24.9064 25.5123 24.802 25.6822 24.6975C25.6299 25.037 25.6561 25.3896 25.7999 25.7291C26.1397 26.4864 27.133 26.8651 27.7734 26.2253C27.8257 26.1731 27.9172 26.2383 27.878 26.3036C27.5381 26.839 27.133 27.5441 27.5381 28.1709C27.6035 28.2754 27.695 28.3537 27.7995 28.406C27.4336 28.9413 27.0415 29.4637 26.6363 29.9729C25.6692 29.5812 25.1464 28.5365 25.3555 27.518C24.5974 27.6486 23.9831 27.0218 23.8655 26.3036C23.8394 26.1208 23.8394 25.938 23.8524 25.7683Z" fill="#87423A"/>
<path d="M4.19536 58.3081H17.4089V59.8228H4.19536V58.3081Z" fill="#734735"/>
<path d="M13.501 50.5779L14.4289 53.3331L17.7225 63.1918L20.4541 71.3922H20.5064L21.6042 71.4445L21.1599 69.7339L18.8073 60.7631L16.8468 53.3331L16.128 50.5779H13.501Z" fill="#734735"/>
<path d="M-1.23978e-05 70.7262L1.15014 70.674L6.99234 53.1894L7.61969 51.3091L8.10327 49.8596H5.47624L4.61364 53.1894L-1.23978e-05 70.7262Z" fill="#734735"/>
<path d="M16.1282 50.5779L16.8601 53.3331H14.4291L13.5142 50.5779H16.1282Z" fill="#2B1919"/>
<path d="M5.47607 49.8596H7.22743L7.60645 51.3091L6.9791 53.1763H4.60039L5.47607 49.8596Z" fill="#2B1919"/>
<path d="M2.95379 48.5671H18.6506V51.0743H2.95379V48.5671Z" fill="#734735"/>
<path d="M19.2388 63.5445C19.3042 63.44 19.3826 63.3486 19.461 63.2441L21.0686 69.3683L21.0555 69.3814C20.6896 69.5903 20.3498 69.8123 20.01 70.0604L18.2847 64.8764C18.6115 64.4455 18.9252 64.0015 19.2388 63.5445Z" fill="#2B1919"/>
<path d="M24.7281 46.9871H54.488V48.5018H24.7281V46.9871Z" fill="#734735"/>
<path d="M50.3973 39.3091L51.0769 41.4245L61.6243 74.3043L62.7744 74.3566L53.6125 41.4767L53.0113 39.3091H50.3973Z" fill="#734735"/>
<path d="M16.8077 74.1349L17.9578 74.0827L28.3745 41.5945L29.1195 39.2963L29.1848 39.0874H26.5709L26.5055 39.2963L25.8782 41.5554L16.8077 74.1349Z" fill="#87543E"/>
<path d="M53.0113 39.3091L53.6125 41.4767C52.763 41.4506 51.9135 41.4375 51.0639 41.4114L50.3843 39.3091H53.0113Z" fill="#2B1919"/>
<path d="M26.5058 39.2963C27.3031 39.2963 28.0872 39.2832 28.8714 39.2832C28.9499 39.2832 29.0283 39.2832 29.1067 39.2963L28.3617 41.6075C27.7866 41.5945 27.2116 41.5814 26.6496 41.5683C26.4012 41.5683 26.1268 41.5814 25.8654 41.5683L26.5058 39.2963Z" fill="#2B1919"/>
<path d="M19.1342 37.2461H60.3171V39.7532H19.1342V37.2461Z" fill="#734735"/>
</svg>
