<svg width="54" height="88" viewBox="0 0 54 88" fill="none" xmlns="http://www.w3.org/2000/svg">
<path d="M17.3309 48.2286C17.4899 46.4833 17.7549 44.7909 18.0729 43.0985C18.3909 41.459 18.7619 39.8195 18.7619 38.1271C18.7619 36.6462 18.5499 35.1125 18.2849 33.6316C17.9669 32.0979 17.6489 30.5113 17.5429 28.9775C17.4369 27.6553 17.7549 26.1745 17.3839 24.8523C17.0129 23.6359 15.9529 22.9484 14.6279 22.8955C13.0379 22.7897 11.8719 23.9003 10.5469 24.5879C8.37392 25.6985 8.05592 31.4104 8.21492 34.5836C8.32092 36.4347 7.15492 42.5696 6.78392 44.1563C6.46592 45.5313 6.25392 46.8535 5.98892 48.2286C5.61792 49.7623 5.35292 51.2961 5.51192 52.8827C5.72392 54.7867 6.73092 57.0079 8.74492 57.5368C10.7589 58.0128 13.0909 57.8012 14.8399 56.5848C17.4369 54.7338 17.0659 50.9788 17.3309 48.2286Z" fill="#F7E2D2"/>
<path d="M51.039 66.6863C49.979 60.4456 48.76 57.8012 47.064 51.6663C46.852 50.9258 46.64 50.1854 46.428 49.3921C46.322 49.1277 46.057 49.0748 45.898 49.1805C45.792 49.0748 45.633 48.969 45.474 49.0219C41.605 49.921 37.683 50.8729 33.814 51.772C29.998 52.6711 26.129 53.8346 22.154 53.8346C21.836 53.8346 21.73 54.0991 21.783 54.3106C21.624 54.3106 21.412 54.4693 21.412 54.6808C21.359 56.955 21.465 59.1763 21.677 61.4505C19.186 69.648 18.338 78.4274 17.649 86.9951C17.649 87.048 17.649 87.1009 17.702 87.1538C17.596 87.3125 17.596 87.5769 17.861 87.6827C18.974 88.2644 31.747 87.7356 34.821 87.7356C39.697 87.6827 44.573 87.9471 49.449 87.7356C50.721 87.6827 52.947 87.8942 53 87.1538C53.265 83.1872 51.834 71.3404 51.039 66.6863Z" fill="#D17A58"/>
<path d="M41.34 21.8375C39.485 19.246 37.047 17.2892 33.655 16.8661C31.164 16.5488 30.051 17.3421 28.09 18.77C27.772 18.9816 27.772 19.2989 27.878 19.5633C27.348 20.7798 26.871 22.0491 26.288 23.2655C25.705 24.429 24.963 25.6454 23.691 26.1743C22.525 26.7032 20.299 22.3135 20.14 20.9913C20.087 20.5153 13.462 22.7366 11.501 23.7415C9.752 24.5877 8.957 26.0685 8.533 27.9196C7.738 31.7804 8.215 40.2424 10.388 40.6655C12.19 41.2472 13.992 41.9348 15.688 42.8339C15.9 45.6898 16.695 48.4399 18.444 50.6083C18.868 51.1372 18.073 54.0989 17.967 54.7864C17.861 55.6855 17.437 57.1135 18.232 57.801C18.497 58.0655 18.868 58.1713 19.239 58.277C21.412 58.8059 23.638 59.0175 25.864 59.0175C29.097 59.0175 36.199 60.2868 39.379 59.8637C42.612 59.4406 42.877 58.9117 45.156 57.1664C47.541 55.3153 49.131 53.6229 49.608 51.0314C50.562 45.7427 48.389 40.2953 46.799 35.271C45.527 31.2515 44.096 25.8041 41.34 21.8375Z" fill="#F7E2D2"/>
<path d="M0.105965 35.2182C-0.371035 33.3142 0.900965 29.5592 1.11296 28.8188C1.74897 26.5446 2.70297 24.3233 2.91496 21.9434C3.07397 20.251 3.81596 18.6644 3.60397 17.0249C3.49797 16.2844 3.44496 15.544 3.44496 14.8036C3.44496 14.6449 3.44496 14.4863 3.44496 14.3276C3.44496 14.2747 3.44496 14.2218 3.44496 14.1689C3.44496 13.8516 3.49796 13.4814 3.49796 13.1641C3.55096 12.5294 3.65696 11.8948 3.76296 11.2601C3.92196 10.5197 3.92196 10.5197 4.18696 9.72639C4.34596 9.35618 4.45196 8.93308 4.61096 8.56286C5.24696 7.66378 6.04197 6.76469 7.04896 5.91849C7.31396 5.70694 5.93597 7.92821 6.14796 8.08688C6.99597 7.50511 7.94996 7.08201 9.00996 7.50511C9.80497 7.82244 10.388 8.19265 11.236 8.35131C11.978 8.45709 12.667 8.45709 13.409 8.56286C15.847 8.8273 17.967 10.1495 19.398 12.1592C20.776 14.0632 21.783 16.9191 21.465 19.299C21.306 20.5154 20.511 21.2559 19.875 22.2078C19.186 23.2656 19.08 24.5349 18.497 25.6455C17.914 26.8091 16.907 27.3908 15.953 28.237C14.946 29.1361 14.257 30.2996 13.886 31.5689C13.674 32.3623 13.727 33.3142 13.409 34.1075C13.144 34.7422 12.402 35.1653 11.766 35.324C10.547 35.5884 9.32796 35.0595 8.16196 35.324C7.63196 35.4297 7.15496 35.6413 6.67797 35.9057C6.57196 35.9586 6.41296 36.0115 6.25396 36.0115C5.82997 36.0115 5.72396 35.6413 5.72396 35.3768C5.67096 34.5306 6.20096 33.7373 6.62496 32.9969C7.10196 32.1507 7.41996 31.1987 7.68496 30.2468C7.68496 30.1939 7.63196 30.141 7.57896 30.1939C6.14796 31.5689 6.25396 33.7373 4.34596 35.0595C3.23296 35.8528 0.158965 35.4297 0.105965 35.2182Z" fill="#664348"/>
<path d="M26.1289 16.9192C25.2279 16.0201 23.5319 17.3952 22.3129 17.924C21.4649 18.2942 20.9349 19.1404 20.5109 19.9866C20.2989 20.0924 20.1399 20.2511 20.0869 20.5155C19.4509 22.7368 19.0269 26.5976 21.3589 28.0255C24.0089 29.6122 25.7579 24.9052 26.8179 23.2657C27.2419 22.5781 29.1499 19.4049 29.2029 18.8231C29.2559 18.5587 27.5069 18.2942 26.1289 16.9192Z" fill="#FFA582"/>
<path d="M15.2109 39.1846C15.4759 40.4539 15.7409 41.7232 16.1119 42.9925C16.3769 43.9974 16.8009 44.9494 17.5429 45.7427C17.5959 45.7956 17.7549 45.6898 17.6489 45.6369C16.8539 44.8436 16.4829 43.7858 16.1649 42.7281C15.8469 41.5646 15.5819 40.3481 15.3699 39.1846C15.3699 39.0259 15.2109 39.0788 15.2109 39.1846Z" fill="#331C1C"/>
<path d="M21.3061 25.3281C21.3061 25.857 21.8361 26.1743 22.3131 25.9628C23.4791 25.5397 25.0691 24.8521 25.7581 24.3761C27.1361 23.4242 27.4011 22.0491 27.6131 20.4096C27.6661 19.7749 27.7721 18.8758 27.5071 18.2412C27.3481 17.9238 27.2421 17.871 26.9241 17.6065C24.0621 15.1737 22.1011 10.2552 22.1541 8.3512C22.1541 7.71655 21.4651 7.55789 21.0411 7.87522C20.8291 7.9281 20.6701 8.03388 20.5641 8.29832C19.5571 11.4187 18.2851 14.4333 16.5361 17.2363C16.1121 17.871 16.7481 18.6114 17.3311 18.5056C17.3311 18.5585 17.3841 18.6114 17.4371 18.6643C18.3911 19.7749 19.2921 20.9913 20.0871 22.2077C20.5111 22.9482 21.2531 24.2175 21.3061 25.3281Z" fill="#FFA582"/>
<path d="M20.246 12.0535C21.306 10.3611 21.836 8.40425 20.988 6.5003C20.14 4.54346 18.285 3.22127 16.218 2.90395C13.939 2.58662 11.978 3.5386 10.441 5.17811C9.69904 5.97143 9.06304 6.9234 8.58604 7.92826C7.57904 10.3082 8.10904 12.6353 8.85104 14.9623C9.22204 16.1258 9.64604 17.3422 10.123 18.4529C10.547 19.5106 10.971 20.7799 11.819 21.6261C12.508 22.3666 13.621 22.7897 14.575 22.631C15.635 22.4723 16.96 21.6261 17.702 20.9386C18.55 20.1982 19.398 19.1933 19.981 18.2413C20.617 17.1836 20.829 15.9143 20.617 14.6979C20.617 14.5921 20.352 12.7939 20.246 12.0535Z" fill="#FFA582"/>
<path d="M27.7191 13.5343C26.8181 12.2121 26.1821 10.7312 25.7581 9.25037C25.1221 7.02909 24.5391 4.4376 22.6841 2.90387C20.9881 1.4759 18.7091 0.947027 16.5361 0.999915C13.9391 1.10569 11.1831 1.84612 9.22209 3.64429C7.73809 5.01937 6.25409 6.34156 5.03509 7.98107C3.97509 9.46192 2.54409 11.2601 2.65009 13.2169C2.70309 14.0102 3.02109 14.8036 3.23309 15.544C3.49809 16.4431 3.65709 17.3422 3.60409 18.2413C3.49809 20.1981 2.59709 21.9434 2.65009 23.9002C2.65009 25.0109 4.82309 23.9002 5.24709 23.6358C6.62509 22.7896 7.10209 21.203 7.57909 19.7221C8.10909 18.0297 8.48009 16.3373 8.85109 14.6449C9.22209 12.9525 8.90409 11.0485 10.2821 9.77925C11.5541 8.61572 13.1441 7.92818 14.4691 6.81754C14.9461 6.44733 15.6351 6.65888 15.7941 7.24064C16.3771 9.51481 18.0731 11.4188 20.3521 12.2121C20.5641 12.265 20.7231 12.4765 20.7231 12.6881C21.1471 15.2267 21.7301 17.7653 23.1081 19.8808C23.9031 21.0972 24.9101 21.4674 26.3411 21.203C27.4541 20.9914 28.5671 20.3568 29.3091 19.4048C29.8391 18.7172 32.1711 16.496 30.6871 16.3902C29.5741 16.2844 28.3551 14.4333 27.7191 13.5343Z" fill="#664348"/>
<path d="M21.094 10.6255C19.875 10.7842 19.345 12.3708 19.292 13.3228C19.292 14.0103 19.451 14.9094 20.299 15.068C21.571 15.3325 21.995 13.6401 22.154 12.7939C22.26 12.1063 22.313 10.4668 21.094 10.6255Z" fill="#FFA582"/>
<path d="M8.42688 15.7027C7.79088 17.8182 5.93588 19.4048 5.56488 21.5732C5.35288 22.8954 5.88288 24.2176 5.51188 25.5398C5.19388 26.7562 4.18688 27.7081 3.44488 28.6601C2.54388 29.7708 1.85488 30.9872 1.32488 32.3094C1.27188 32.4151 1.43088 32.468 1.48388 32.3623C2.01388 31.0401 2.70288 29.8237 3.60388 28.713C4.29288 27.8668 5.08788 27.0206 5.51188 26.0157C6.04188 24.7464 5.56488 23.4771 5.61788 22.155C5.67088 20.9914 6.25388 19.9337 6.83688 18.9817C7.47288 17.924 8.21488 16.9191 8.53288 15.7556C8.58588 15.6498 8.42688 15.5969 8.42688 15.7027Z" fill="#331C1C"/>
<path d="M10.3881 21.2029C10.6531 22.8953 10.8121 24.5877 9.64606 25.9099C9.16906 26.4388 8.69206 26.9148 8.32106 27.4966C7.95006 28.0783 7.73806 28.7659 7.68506 29.4534C7.68506 29.5592 7.84406 29.5592 7.84406 29.4534C7.95006 28.5543 8.26806 27.7081 8.85106 27.0206C9.32806 26.4388 9.91106 25.9628 10.2821 25.2753C11.0241 24.006 10.8121 22.4722 10.6001 21.0972C10.5471 21.0972 10.3881 21.0972 10.3881 21.2029Z" fill="#331C1C"/>
<path d="M11.9249 24.1645C11.7659 27.4965 9.11589 30.2995 9.64589 33.6843C9.64589 33.7901 9.80489 33.7372 9.80489 33.6314C9.27489 30.2466 11.8719 27.4436 12.0839 24.1645C12.1369 24.0588 11.9779 24.0588 11.9249 24.1645Z" fill="#331C1C"/>
<path d="M15.688 6.44722C15.741 5.75969 15.635 5.07215 14.893 4.91349C14.151 4.75482 13.515 5.2837 13.038 5.75969C11.66 7.08187 10.441 8.61561 9.43401 10.2022C9.38101 10.308 9.54001 10.3609 9.59301 10.308C10.441 9.03871 11.342 7.8223 12.349 6.71166C12.826 6.18279 13.356 5.54814 13.992 5.17792C14.363 5.01926 14.787 4.91349 15.158 5.12504C15.635 5.38947 15.635 5.91835 15.582 6.39434C15.529 6.553 15.688 6.553 15.688 6.44722Z" fill="#331C1C"/>
<path d="M16.6951 6.02426C17.2781 5.75982 17.9671 5.54827 18.4441 6.13003C18.8151 6.55313 18.9211 7.18778 19.0801 7.71666C19.2921 8.61575 19.5041 9.56772 20.0871 10.361C20.1401 10.4668 20.2991 10.361 20.2461 10.2553C19.5041 9.19751 19.4511 7.92821 19.0271 6.76468C18.8681 6.34158 18.6561 5.86559 18.1791 5.70693C17.7021 5.49538 17.1191 5.70693 16.6951 5.86559C16.5361 5.91848 16.5891 6.07714 16.6951 6.02426Z" fill="#331C1C"/>
<path d="M28.5141 17.3422C27.613 17.6595 26.4471 17.6066 25.5461 17.3422C24.3801 17.0249 23.3731 16.2315 22.7371 15.2267C22.6841 15.1209 22.525 15.2267 22.578 15.3325C23.214 16.3373 24.2211 17.1835 25.3871 17.5008C26.3411 17.7653 27.6131 17.8711 28.5671 17.5008C28.6731 17.448 28.62 17.2893 28.5141 17.3422Z" fill="#331C1C"/>
<path d="M23.9031 12.7409C24.2741 14.0102 24.9101 15.1737 25.7581 16.1786C25.8111 16.2844 25.9701 16.1257 25.8641 16.0728C25.0161 15.068 24.3801 13.9573 24.0091 12.688C24.0621 12.5823 23.9031 12.6351 23.9031 12.7409Z" fill="#331C1C"/>
<path d="M17.808 21.5733C17.596 22.3666 17.225 23.1599 16.695 23.7946C16.218 24.3234 15.688 24.7994 15.211 25.3812C14.363 26.4918 13.992 27.814 14.045 29.1891C14.045 29.2949 14.204 29.2949 14.204 29.1891C14.151 27.6553 14.681 26.1745 15.688 25.0639C16.165 24.535 16.642 24.1119 17.066 23.583C17.49 23.0012 17.808 22.3666 17.967 21.6262C17.967 21.5204 17.808 21.4675 17.808 21.5733Z" fill="#331C1C"/>
<path d="M21.253 11.3659C20.776 11.9476 20.4581 12.5823 20.3521 13.3756C20.3521 13.4814 20.5111 13.5343 20.5111 13.4285C20.6171 12.6881 20.9351 12.0534 21.4121 11.5245C21.4651 11.4188 21.359 11.313 21.253 11.3659Z" fill="#C75C4C"/>
<path d="M19.716 22.0493C20.034 22.5253 20.352 23.0012 20.617 23.5301C20.935 24.059 21.253 24.535 21.253 25.1696C21.253 25.2754 21.412 25.2754 21.412 25.1696C21.412 24.6408 21.2 24.1648 20.935 23.6888C20.564 23.107 20.193 22.5253 19.875 21.9964C19.769 21.8906 19.663 21.9435 19.716 22.0493Z" fill="#C75C4C"/>
<path d="M16.8539 45.9543C16.8009 45.9014 16.8009 45.8485 16.7479 45.8485C16.6419 45.161 16.6419 44.4734 16.6949 43.7859C16.7479 43.3628 16.7479 42.9397 16.6419 42.5166C16.4829 42.0406 16.1649 41.6704 15.7939 41.3002C15.3699 40.8771 14.9989 40.4011 14.7339 39.8722C14.4689 39.3434 14.2569 38.0212 13.4089 38.0741C12.6669 38.1269 12.7729 39.2376 12.7729 39.978C12.2429 39.7136 9.91091 38.55 9.32791 38.4972C8.53291 38.3914 7.57891 38.9203 7.04891 39.502C6.35991 40.1896 6.62491 40.6655 7.89691 40.5069C8.37391 40.454 8.53291 40.3482 9.06291 40.5598C9.27491 40.6655 9.48691 40.8242 9.59291 41.0358C10.0699 41.8291 8.42691 41.5646 8.05591 41.5646C7.31391 41.6704 6.73091 42.1464 6.20091 42.6224C6.14791 42.6753 6.09491 42.7282 6.04191 42.8339C5.93591 42.9926 5.98891 43.257 6.04191 43.4686C6.09491 43.5744 6.25391 43.733 6.25391 43.8388C6.25391 43.8917 6.25391 43.9446 6.30691 43.9975C6.04191 44.5263 6.14791 44.7379 6.57191 45.1081C6.51891 45.5312 6.73091 46.0072 7.10191 46.3774C7.47291 46.6947 8.00291 46.8534 8.42691 47.0649C8.69191 47.1707 8.95691 47.3294 9.16891 47.488C9.59291 47.7525 11.1299 48.9689 11.5009 49.2862C13.3559 51.1373 14.6809 51.6661 17.5959 51.7719C18.2849 51.7719 18.3379 51.0315 18.4969 50.4497C18.8149 49.3391 19.2389 48.2813 19.7689 47.2236C19.8749 46.9592 17.6489 46.3774 16.8539 45.9543Z" fill="#FFA582"/>
<path d="M19.504 42.305C19.345 40.7713 18.02 39.502 17.331 38.1798C16.695 36.9634 16.43 35.271 15.37 34.2661C14.734 33.6843 13.78 33.4728 13.038 33.8959C12.773 33.7372 12.508 34.9007 12.561 35.271C12.72 37.4922 13.833 37.2807 14.946 39.2375C15.529 40.2424 15.476 41.5117 15.741 42.6223C15.9 43.3627 16.218 44.1032 16.589 44.7378C16.96 45.3725 17.437 45.7956 17.914 46.3773C18.126 46.6418 18.073 46.5889 18.073 46.2187C18.126 44.7378 19.663 43.8387 19.504 42.305Z" fill="#F7E2D2"/>
<path d="M34.0791 74.4606C34.6621 78.5859 35.4571 82.764 36.5701 86.8363C36.6231 86.9421 36.7821 86.8892 36.7291 86.7834C35.6161 82.7111 34.8741 78.5859 34.2381 74.4078C34.2381 74.302 34.0791 74.3549 34.0791 74.4606Z" fill="#331C1C"/>
<path d="M6.83692 43.6274C7.89692 43.31 9.00992 43.1514 10.0699 43.6274C10.1759 43.6802 10.2289 43.5216 10.1759 43.4687C9.11592 42.9927 7.89692 43.0985 6.83692 43.4687C6.67792 43.4687 6.73092 43.6274 6.83692 43.6274Z" fill="#C75C4C"/>
<path d="M6.94287 45.2138C8.05587 44.8436 9.27487 44.9494 10.2819 45.5311C10.3879 45.584 10.4409 45.4253 10.3879 45.3725C9.32787 44.7378 8.05587 44.632 6.88987 45.0551C6.83687 45.0551 6.88987 45.2138 6.94287 45.2138Z" fill="#C75C4C"/>
<path d="M12.72 40.2424C13.303 40.6655 13.833 41.0886 14.363 41.5646C14.416 41.6175 14.575 41.5117 14.469 41.4588C13.939 40.9829 13.409 40.5598 12.826 40.1367C12.72 40.0309 12.667 40.1895 12.72 40.2424Z" fill="#C75C4C"/>
<path d="M40.1209 26.1743C39.4849 22.7895 41.2869 18.3999 33.4959 17.7123C33.3899 17.5537 33.1249 17.4479 32.9129 17.6066C28.8319 20.7269 29.6799 26.1215 29.7859 30.9342C29.8389 33.9488 30.1039 37.0163 29.6799 40.0309C29.5209 41.406 29.2559 42.781 29.0439 44.1561C28.8849 44.8965 28.2489 45.3725 27.5069 45.3725C26.7119 45.3196 25.8639 45.3725 25.1219 45.3196C23.7439 45.2667 22.3659 45.2667 20.9879 45.2667C20.1399 45.2667 18.0729 44.8965 17.5429 45.5312C16.7479 46.536 16.0589 47.6996 15.6879 48.9689C15.3169 50.0266 14.8929 51.4017 15.3699 52.4594C15.7939 53.5701 17.1719 53.7816 18.2319 54.0461C20.9879 54.7865 23.7969 55.4212 26.6589 55.95C28.6199 56.3202 30.6339 56.7433 32.5949 56.7962C33.9729 56.8491 35.4039 56.5847 36.5169 55.8442C38.4249 54.5221 39.4319 51.719 40.2269 49.6564C41.1809 47.1178 41.8169 44.4734 42.1879 41.8291C42.8239 36.5932 41.0749 31.3573 40.1209 26.1743Z" fill="#F7E2D2"/>
<path d="M28.302 51.5075C28.09 51.3488 27.613 51.6133 27.401 51.719C27.03 51.8777 26.712 52.0892 26.394 52.3008C26.341 52.2479 26.288 52.2479 26.235 52.3537C26.235 52.4066 26.182 52.4066 26.182 52.4595C26.129 52.5124 26.129 52.5123 26.182 52.5652C25.917 53.3057 25.546 54.4692 26.182 54.9981C26.924 55.5269 27.454 54.4163 27.719 53.8874C27.931 53.4114 28.09 52.9355 28.249 52.4595C28.302 52.3008 28.567 51.6661 28.302 51.5075Z" fill="#422626"/>
<path d="M30.846 23.6358C28.673 29.4534 30.475 35.747 30.104 41.7762C30.104 41.882 30.263 41.882 30.263 41.7762C30.634 35.747 28.779 29.5063 31.005 23.6887C31.058 23.5829 30.899 23.53 30.846 23.6358Z" fill="#331C1C"/>
<path d="M34.8739 38.2327C35.6689 37.3336 36.5169 36.5403 37.5239 35.9056C37.6299 35.8527 37.5239 35.6941 37.4179 35.747C36.4109 36.4345 35.5099 37.2278 34.7679 38.1269C34.7149 38.1798 34.8209 38.3385 34.8739 38.2327Z" fill="#331C1C"/>
<path d="M43.9901 34.7422C43.5661 38.7616 42.9301 42.834 41.9761 46.7476C41.4991 48.6516 41.0221 50.6084 40.2271 52.4595C39.9621 53.0942 39.6441 53.7288 39.2201 54.3106C38.7431 54.9452 38.0541 55.2625 37.3121 55.6328C36.4641 56.003 35.6161 56.3732 34.6621 56.5318C33.7081 56.6905 32.7541 56.7434 31.8001 56.7963C29.8921 56.8492 27.9841 56.6905 26.1291 56.2674C26.0231 56.2674 25.9701 56.4261 26.0761 56.4261C27.7191 56.7963 29.4151 56.9549 31.1111 56.9549C32.7011 56.9549 34.3971 56.8492 35.9341 56.3732C36.6761 56.1087 37.3651 55.7914 38.0541 55.4741C38.3721 55.3154 38.6371 55.1568 38.9021 54.9452C39.3261 54.5221 39.6971 53.9932 39.9621 53.4115C40.8101 51.7191 41.3401 49.868 41.8171 48.0698C42.4001 45.8486 42.8771 43.5744 43.2481 41.3002C43.6191 39.1318 43.9371 36.9635 44.1491 34.7951C44.2021 34.6364 44.0431 34.6364 43.9901 34.7422Z" fill="#331C1C"/>
<path d="M42.1349 41.0359C41.0749 40.0839 40.1209 39.1319 38.6369 38.9204C37.8949 38.8146 37.3119 38.7617 36.6229 38.9204C36.1459 39.0791 35.7219 39.2377 35.2449 39.3435C35.1919 39.3435 35.1919 39.3435 35.1919 39.2906C35.2979 38.7088 35.2979 37.9155 34.6089 37.9155C34.1319 37.9155 33.6549 38.3915 33.3369 38.6559C32.7539 39.1319 32.1709 39.555 31.6409 40.0839C30.5279 41.3003 29.6269 42.7812 29.3089 44.4207C29.2559 44.6322 29.2029 44.8967 29.0969 45.1082C28.7259 45.7958 27.5069 46.3246 26.8709 46.6949C25.9169 47.2237 24.9099 47.7526 23.8499 48.1228C23.4789 48.2286 23.4259 52.0365 23.9559 53.4645C24.0619 53.7818 28.4609 52.4067 28.9909 52.248C30.2629 51.825 31.4289 51.1374 32.4359 50.1854C33.1249 49.5508 33.8669 47.6997 34.6089 47.3295C35.2449 47.0122 36.5169 47.9113 36.8879 48.2286C37.3649 48.5988 38.0009 49.1277 38.6369 48.9161C38.9019 48.8104 39.0609 48.6517 39.1139 48.4401C39.1669 48.2815 39.3259 48.1757 39.4849 48.2286C39.5379 48.2286 39.5909 48.2815 39.6439 48.2815C40.8629 48.4401 41.0749 47.3295 40.5449 46.3246C40.4389 46.166 40.5449 46.0073 40.7039 45.9544C41.0749 45.8487 41.3399 45.5842 41.2339 45.0553C41.2339 45.0025 41.2339 44.9496 41.1809 44.8967C40.7569 43.786 40.3329 42.6225 39.4319 41.8292C38.8489 41.3532 38.1599 41.1417 37.4179 41.0359C37.9479 40.9301 38.4249 40.8772 38.9549 40.983C39.6439 41.1417 40.2799 41.6705 40.9689 41.8821C42.3999 42.411 42.6649 41.5119 42.1349 41.0359Z" fill="#FFA582"/>
<path d="M34.4499 39.5548C33.6019 39.8193 32.8069 40.2424 32.1709 40.8241C32.0649 40.877 32.2239 40.9828 32.2769 40.9299C32.9659 40.401 33.7079 39.9779 34.5029 39.7135C34.5559 39.6606 34.5029 39.5019 34.4499 39.5548Z" fill="#C75C4C"/>
<path d="M35.3509 42.5696C35.7749 42.4638 36.3049 42.4638 36.7289 42.5167C37.3119 42.6225 37.6299 42.9927 38.0009 43.3629C38.7959 44.2091 39.5909 45.0024 40.2799 45.9544C40.3329 46.0601 40.4919 45.9544 40.4389 45.8486C39.6969 44.7908 38.7959 43.8918 37.8949 42.9927C37.2059 42.2522 36.1989 42.0936 35.2449 42.358C35.1919 42.4638 35.2449 42.6225 35.3509 42.5696Z" fill="#C75C4C"/>
<path d="M34.1849 45.2667C34.6619 45.0552 35.1919 44.8965 35.6689 45.0023C36.1989 45.108 36.5699 45.4783 36.9409 45.8485C37.6299 46.5889 38.3719 47.2764 38.9549 48.0697C39.0079 48.1755 39.1669 48.0697 39.1139 47.964C38.7959 47.5409 38.4249 47.1178 38.0009 46.7476C37.5769 46.2716 37.0999 45.7427 36.6229 45.3196C35.8809 44.6321 34.9269 44.7378 34.0789 45.108C34.0259 45.1609 34.0789 45.3196 34.1849 45.2667Z" fill="#C75C4C"/>
<path d="M21.9419 46.4304C19.8749 46.6948 17.8079 46.589 15.7409 46.6419C12.6669 46.7477 8.26789 47.1179 6.73089 50.0267C6.67789 50.1325 7.63189 50.7142 7.63189 50.82C6.51889 52.0364 6.67789 53.7817 7.52589 55.051C8.00289 55.7386 8.32089 57.431 9.11589 57.5896C10.6529 57.907 17.1719 57.6425 25.4929 55.4741C25.8109 55.4212 25.8639 55.1039 25.8109 54.8924V54.8395C26.0229 52.248 27.0829 48.969 27.9839 46.4304C28.0369 46.2717 27.9309 46.113 27.7719 46.113C26.6589 46.1659 22.7899 46.3246 21.9419 46.4304Z" fill="#F7E2D2"/>
<path d="M22.5249 45.9014C21.4649 45.7427 20.4579 45.6369 19.3979 45.584C18.7089 45.5311 17.8609 45.4254 17.2249 45.9014C17.1189 45.9542 17.2779 46.1129 17.3309 46.0071C17.9139 45.4783 18.9739 45.6898 19.7159 45.7427C20.6169 45.7956 21.5709 45.9014 22.4719 46.06C22.5779 46.1129 22.6309 45.9542 22.5249 45.9014Z" fill="#331C1C"/>
<path d="M28.037 46.0072C27.348 45.7428 26.553 45.9015 25.811 45.9015C24.857 45.9543 23.903 46.0072 22.949 46.0601C21.094 46.1659 19.186 46.3246 17.331 46.5361C17.225 46.5361 17.225 46.6948 17.331 46.6948C19.08 46.5361 20.882 46.3774 22.631 46.2717C23.479 46.2188 24.38 46.1659 25.228 46.113C25.652 46.113 26.076 46.0601 26.553 46.0601C27.03 46.0601 27.507 45.9543 27.931 46.1659C28.037 46.1659 28.143 46.0601 28.037 46.0072Z" fill="#331C1C"/>
<path d="M18.603 28.1313C19.133 30.2468 21.2 31.5161 23.32 30.9872C23.426 30.9872 23.373 30.8286 23.267 30.8286C21.253 31.3045 19.239 30.0881 18.762 28.0784C18.762 27.9726 18.603 28.0255 18.603 28.1313Z" fill="#331C1C"/>
<path d="M27.9311 57.431C28.5141 57.8012 29.1501 58.0657 29.8391 58.2243C29.9451 58.2243 29.9981 58.0657 29.8921 58.0657C29.2031 57.907 28.5671 57.6426 27.9841 57.2724C27.9311 57.2195 27.8251 57.3781 27.9311 57.431Z" fill="#331C1C"/>
<path d="M12.2429 34.4778C12.4019 35.6942 12.8259 36.8577 13.5149 37.8626C13.5679 37.9683 13.7269 37.8626 13.6739 37.7568C12.9849 36.7519 12.5609 35.6413 12.4549 34.4778C12.4019 34.372 12.2429 34.372 12.2429 34.4778Z" fill="#331C1C"/>
<path d="M14.6809 37.9682C14.8929 39.3962 15.2109 40.7713 15.6879 42.0935C15.7409 42.1992 15.8999 42.1464 15.8469 42.0406C15.3699 40.7184 15.0519 39.3433 14.8399 37.9154C14.8399 37.8625 14.6809 37.8625 14.6809 37.9682Z" fill="#331C1C"/>
<path d="M45.103 38.4971C44.679 41.1944 43.831 43.8387 42.665 46.3245C42.612 46.4302 42.771 46.4831 42.824 46.4302C43.99 43.9445 44.785 41.3001 45.262 38.55C45.315 38.4442 45.156 38.3913 45.103 38.4971Z" fill="#331C1C"/>
<path d="M37.312 40.9301C36.411 40.7714 35.51 40.8772 34.662 41.1945C34.556 41.2474 34.609 41.4061 34.715 41.3532C35.563 41.0358 36.411 40.9301 37.259 41.0887C37.365 41.0887 37.418 40.9301 37.312 40.9301Z" fill="#C75C4C"/>
<path d="M34.8739 49.1804C36.0929 49.5506 37.1529 50.3439 37.8949 51.4017C37.9479 51.5074 38.1069 51.4017 38.0539 51.2959C37.3119 50.1853 36.1989 49.3919 34.9269 49.0217C34.8209 49.0217 34.7679 49.1804 34.8739 49.1804Z" fill="#331C1C"/>
<path d="M9.01002 48.1757C8.21502 48.8103 7.52602 49.5508 6.99602 50.397C6.94302 50.5027 7.10202 50.5556 7.15502 50.5027C7.68502 49.6565 8.32102 48.9161 9.11602 48.3344C9.16902 48.2286 9.11602 48.1228 9.01002 48.1757Z" fill="#331C1C"/>
<path d="M22.8431 62.561C29.2031 63.0899 35.8281 63.0899 41.9761 61.2388C43.5661 60.7628 45.1561 60.1281 46.5871 59.3348C46.6931 59.2819 46.5871 59.1233 46.4811 59.1762C40.9161 62.1908 34.2911 62.7725 28.0371 62.6667C26.2881 62.6139 24.4861 62.561 22.7371 62.4023C22.7371 62.4023 22.7371 62.561 22.8431 62.561Z" fill="#331C1C"/>
<path d="M11.9251 15.2796C11.8191 15.8085 11.7131 16.3902 12.0311 16.8133C12.3491 17.2364 12.8261 17.3951 13.3561 17.3951C13.4621 17.3951 13.4621 17.2364 13.3561 17.2364C12.9321 17.1835 12.4551 17.0778 12.1901 16.7075C11.9251 16.2844 12.0311 15.7556 12.0841 15.3325C12.1371 15.2267 11.9781 15.1738 11.9251 15.2796Z" fill="#C75C4C"/>
<path d="M13.5679 16.6547C13.6739 16.3903 13.9919 16.2316 14.2569 16.2316C14.3629 16.2316 14.3629 16.0729 14.2569 16.0729C13.8859 16.02 13.5149 16.2845 13.4089 16.6018C13.4089 16.7076 13.5679 16.7605 13.5679 16.6547Z" fill="#C75C4C"/>
<path d="M16.6419 11.6302C16.5359 11.26 16.2179 11.26 15.8999 11.3129C15.2109 11.3658 14.2569 11.2071 13.5679 11.3658C13.0909 11.4715 12.8259 11.9475 12.9319 12.4235C12.9849 13.0053 13.5149 13.2697 13.9919 13.2697C14.5749 13.2697 16.9599 12.688 16.6419 11.6302Z" fill="#664348"/>
<path d="M10.4939 14.5921C10.8119 14.2748 11.0239 13.693 10.7589 13.217C10.5469 12.7939 10.1759 12.5824 9.80491 12.7939C9.38091 13.0584 9.11591 13.4815 8.79791 13.7459C8.58591 13.9046 8.42691 14.1161 8.37391 14.3806C8.21491 15.6499 10.0169 15.121 10.4939 14.5921Z" fill="#664348"/>
<path d="M16.96 13.4285C16.165 13.4285 15.211 13.6929 14.681 14.3804C14.469 14.6449 14.734 14.9093 14.999 14.7507C15.582 14.3276 16.271 14.116 16.96 13.9573C17.331 13.9045 17.278 13.4285 16.96 13.4285Z" fill="#210A08"/>
<path d="M9.59292 15.7555C9.96392 15.5439 10.4409 15.3853 10.8649 15.5439C11.0239 15.5968 11.3419 15.7026 11.4479 15.9142C11.5009 16.1257 11.3949 16.2315 11.2359 16.1786C10.5999 16.0728 10.4409 16.1257 9.85792 16.2844C9.59292 16.2844 9.32792 15.8613 9.59292 15.7555Z" fill="#210A08"/>
<path d="M16.2181 17.5008C15.6351 17.0248 15.0521 17.3421 14.4691 17.6066C13.2501 18.1883 12.5611 18.347 12.4551 18.4528C12.2961 18.6114 12.4551 18.9817 12.5081 19.1403C12.7201 20.0394 13.6741 19.9865 14.3631 19.7221C15.2111 19.4048 16.0061 18.823 16.3241 17.9768C16.4831 17.8181 16.4301 17.6066 16.2181 17.5008Z" fill="#A34739"/>
<path d="M12.561 18.4528C12.773 18.347 13.409 18.1884 14.469 17.6595C14.999 17.3951 15.582 17.1306 16.112 17.5008C15.476 18.0297 13.038 19.5106 12.561 18.4528Z" fill="white"/>
<path d="M17.3839 16.2314C17.3309 15.967 17.3309 15.6497 17.3309 15.3852C17.3309 15.1208 17.3839 14.8564 17.3839 14.539C17.3309 14.1688 17.1189 13.7986 16.6949 13.8515C16.4829 13.8515 16.3239 13.9044 16.1119 14.0102C15.9529 14.1159 15.6349 14.3275 15.7409 14.539C15.8469 14.8035 16.0589 14.9093 16.3239 14.8564C16.5889 14.8035 16.7479 15.6497 16.8009 15.8083C16.9069 16.2314 16.9069 16.6545 16.9069 17.1305C16.9599 17.5536 16.9069 18.0296 16.9069 18.4527C16.9069 18.77 16.5889 19.5105 16.9069 19.722C17.0659 19.7749 17.2779 19.8278 17.2779 19.6162C17.4899 18.5585 17.4899 17.3421 17.3839 16.2314Z" fill="#E0EEFF"/>
<path d="M16.3769 21.4146C16.3239 21.2559 16.2709 21.203 16.2179 21.2559C16.1119 21.4146 16.0059 21.5732 15.8999 21.679C15.8469 21.7848 15.7409 21.8377 15.7409 21.9435C15.6879 22.155 15.8999 22.3666 16.1119 22.4194C16.4299 22.5252 16.5359 22.2079 16.5359 21.9435C16.4829 21.9435 16.4299 21.6261 16.3769 21.4146Z" fill="#E0EEFF"/>
<path d="M10.0699 16.7076C10.1229 16.6018 10.3349 16.6018 10.3879 16.4431C10.3879 16.3373 10.3349 16.2316 10.2819 16.1787C10.1229 16.02 9.8579 15.9142 9.6459 15.9671C9.4869 16.02 9.2749 16.1258 9.2749 16.2845C9.2749 16.4431 9.4339 16.496 9.4869 16.6547C9.5929 17.0778 9.5399 17.5538 9.6459 18.0297C9.6989 18.2413 9.8049 18.5057 9.9109 18.7173C10.0699 18.9817 10.3879 18.9817 10.3879 18.6644C10.3879 18.5586 10.3879 18.4528 10.3349 18.4C10.2819 18.1355 10.2289 17.8182 10.1759 17.5538C10.1759 17.3951 10.1229 17.2893 10.1229 17.1307C10.0699 16.972 10.0169 16.8133 10.0699 16.7076Z" fill="#E0EEFF"/>
<path d="M14.098 24.3762C14.045 24.3234 13.992 24.2705 13.886 24.2176C13.515 24.0589 13.568 24.5349 13.674 24.7465C13.727 24.8522 13.833 25.0109 13.939 25.0638C14.045 25.0638 14.151 24.958 14.151 24.8522C14.204 24.6407 14.204 24.482 14.098 24.3762Z" fill="#E0EEFF"/>
<path d="M20.034 16.2314C19.981 16.9719 20.034 17.8181 19.716 18.5056C19.451 19.1402 18.868 19.722 18.444 20.3038C18.391 20.4095 18.55 20.4624 18.603 20.4095C19.027 19.8278 19.663 19.1931 19.928 18.5056C20.193 17.8181 20.14 16.9719 20.193 16.2314C20.246 16.1257 20.087 16.1257 20.034 16.2314Z" fill="#C75C4C"/>
<path d="M4.66387 12.8467C4.29288 14.4333 4.08087 16.02 3.92188 17.6595C3.92188 17.7653 4.08087 17.7653 4.08087 17.6595C4.23987 16.0729 4.45188 14.4862 4.82288 12.8996C4.82288 12.7938 4.66387 12.7409 4.66387 12.8467Z" fill="#331C1C"/>
<path d="M32.7539 62.7724C32.9659 66.6861 33.3899 70.5998 34.0789 74.5135C34.0789 74.6193 34.2379 74.5664 34.2379 74.4606C33.5489 70.5998 33.1249 66.6861 32.9129 62.7724C32.9129 62.6667 32.7539 62.6667 32.7539 62.7724Z" fill="#331C1C"/>
<path d="M30.4751 62.8254C30.5811 64.6236 30.7401 66.4218 31.1111 68.1671C31.2701 68.9604 31.5351 69.7008 32.0121 70.3355C32.4891 70.9701 33.0721 71.499 33.6551 71.975C33.7611 72.0279 33.8671 71.9221 33.7611 71.8692C33.1781 71.3403 32.5951 70.8114 32.1181 70.1768C31.6411 69.4893 31.4291 68.7488 31.2171 67.9555C30.8461 66.2631 30.7401 64.5178 30.5811 62.8254C30.6341 62.7196 30.4751 62.7196 30.4751 62.8254Z" fill="#331C1C"/>
<path d="M44.361 62.2965C45.527 64.3591 47.17 66.1573 49.131 67.5852C49.237 67.6381 49.29 67.4794 49.237 67.4266C47.329 66.0515 45.739 64.2533 44.52 62.1907C44.467 62.1378 44.308 62.2436 44.361 62.2965Z" fill="#331C1C"/>
<path d="M24.3269 63.5658C23.0019 65.5755 21.8889 67.7439 21.0939 70.071C21.0409 70.1767 21.1999 70.2296 21.2529 70.1238C22.0479 67.8497 23.1079 65.6813 24.4859 63.6716C24.5389 63.5658 24.3799 63.46 24.3269 63.5658Z" fill="#331C1C"/>
<path d="M48.336 49.9739C48.23 51.6663 47.488 53.2 46.693 54.628C46.64 54.7337 46.799 54.7866 46.852 54.7337C47.647 53.2529 48.442 51.7192 48.548 49.9739C48.495 49.8681 48.336 49.8681 48.336 49.9739Z" fill="#331C1C"/>
<path d="M26.6589 55.1038C26.1819 55.3682 25.6519 55.5269 25.1219 55.6326C24.2739 55.8442 23.4789 56.0557 22.6309 56.2144C21.0939 56.5317 19.5569 56.8491 18.0199 56.9548C17.9139 56.9548 17.9139 57.1135 18.0199 57.1135C19.6099 57.0077 21.1469 56.6904 22.6839 56.3731C23.5319 56.2144 24.3799 56.0029 25.2279 55.7384C25.7049 55.5798 26.2879 55.474 26.7119 55.2095C26.8179 55.1567 26.7119 55.0509 26.6589 55.1038Z" fill="#331C1C"/>
<path d="M12.349 11.1543C12.137 11.6832 12.137 12.2121 12.296 12.741C12.349 12.8467 12.508 12.7938 12.455 12.6881C12.296 12.2121 12.296 11.6832 12.508 11.2072C12.508 11.1014 12.349 11.0486 12.349 11.1543Z" fill="#C75C4C"/>
</svg>
