<svg width="101" height="70" viewBox="0 0 101 70" fill="none" xmlns="http://www.w3.org/2000/svg">
<path d="M35.792 2.74638C35.0131 1.89565 33.9375 1.93264 32.899 1.93264C32.5281 1.93264 32.6394 1.37782 32.491 1.11891C32.3427 0.823003 32.083 0.601076 31.7863 0.453124C31.1929 0.120232 30.414 0.0462564 29.7093 0.0092685C28.0773 -0.0647074 26.4454 0.305172 25.036 1.08192C24.9247 1.11891 24.8505 1.15589 24.7393 1.19288C22.8106 1.37782 20.919 2.56144 20.1772 4.37385C20.1401 4.44782 20.103 4.5218 20.103 4.59577C19.7692 5.63144 19.9176 6.88903 20.8077 7.5918C20.9932 7.73975 21.2528 7.8877 21.5125 7.99866C21.5495 8.03565 21.5866 8.07264 21.6237 8.10963C22.551 9.77409 22.7364 11.5865 23.1444 12.5852C23.1444 12.6222 23.1444 12.6222 23.1815 12.6222C23.1815 12.6591 23.2186 12.6961 23.2186 12.7331C23.5153 13.3989 23.9975 13.5838 24.9989 12.9181C25.3698 12.6591 25.852 12.5482 26.297 12.4742H26.3341C27.0388 12.3632 27.7435 12.3263 28.3741 11.9934C28.4853 11.9194 28.5966 11.8454 28.7079 11.7714C29.5609 11.1796 30.1544 10.3659 30.5995 9.44119C30.6736 9.25625 30.7849 9.1083 30.8591 8.92336C31.1187 8.36854 31.3783 7.81372 31.7121 7.29589C31.8234 7.11095 31.9718 6.92601 32.1201 6.74107C32.1572 6.70409 32.1943 6.6671 32.2314 6.6671C32.3056 6.6671 32.3427 6.6671 32.4169 6.6671C32.4539 6.6671 32.5281 6.6671 32.5652 6.6671C32.6765 6.6671 32.7507 6.63011 32.8619 6.63011C32.9732 6.59312 33.1216 6.59312 33.2328 6.55613C34.0117 6.40818 34.7906 6.14927 35.384 5.70541C35.9033 5.33553 36.2371 4.85469 36.3113 4.29987C36.3855 3.81903 36.2371 3.22722 35.792 2.74638Z" fill="#9E4D27"/>
<path d="M34.5681 63.6286C34.3456 62.0751 34.0489 60.5586 33.715 59.0421C33.4554 57.9324 33.1958 56.8228 32.8991 55.7132C32.8249 55.4542 32.6394 55.3063 32.454 55.2693C32.6024 54.8994 32.3798 54.3816 31.8606 54.3446C31.3042 54.3076 30.785 54.2706 30.2286 54.2706C30.1173 54.2706 30.0061 54.2706 29.8948 54.2706C29.4126 54.2706 28.9305 54.2336 28.4483 54.2336C26.1858 54.2336 23.9233 54.3446 21.698 54.3816C21.1416 54.3816 20.5482 54.4186 19.9918 54.4186C18.8791 54.4556 17.7664 54.4556 16.6537 54.4926C15.0218 54.5295 13.3527 54.6775 11.7579 55.0474C11.5724 55.0844 11.4241 55.1953 11.3499 55.3433C11.2757 55.1583 11.1274 55.0474 10.979 54.9734C10.6452 54.8624 10.2372 54.9364 10.1259 55.3803C9.71795 56.8968 9.30996 58.4133 8.97615 59.9298C8.75361 60.8545 8.56816 61.7792 8.38271 62.7409C7.93764 65.0711 7.56674 67.4383 7.27002 69.8056H35.2357C35.0874 67.7342 34.9019 65.6999 34.5681 63.6286Z" fill="#633861"/>
<path d="M31.9351 20.3529C31.898 20.2049 31.861 20.057 31.861 19.909C31.8239 19.6501 31.7497 19.3912 31.6384 19.1323C31.5642 19.0213 31.4901 18.9103 31.4159 18.8733C31.2304 18.7254 30.9708 18.6884 30.7112 18.6144C30.5257 18.5774 30.3774 18.5405 30.1919 18.5035C29.9323 18.4295 29.6356 18.3555 29.3759 18.2815H29.3389C29.005 18.1706 28.5971 18.0226 28.5229 17.6527C28.4487 17.3938 28.56 17.0979 28.5971 16.839C28.6341 16.6911 28.6341 15.8403 28.8196 14.8787C28.8196 14.8047 28.8567 14.7677 28.8567 14.6937C28.8567 14.6567 28.8567 14.6567 28.8567 14.6197V14.5827C28.8938 14.3978 28.9309 14.2499 28.968 14.0649C28.968 14.0279 29.005 13.9909 29.005 13.917C29.005 13.88 29.0421 13.843 29.0421 13.806V13.769C29.0421 13.769 29.0421 13.769 29.0421 13.732C29.0421 13.695 29.0792 13.658 29.0792 13.6211C29.0792 13.5841 29.1163 13.5101 29.1163 13.4731C29.1163 13.4361 29.1534 13.4361 29.1534 13.3991C29.1905 13.3252 29.2276 13.2512 29.2647 13.1772C29.2647 13.1402 29.2647 13.1402 29.3018 13.1032C29.3389 13.0662 29.3389 12.9923 29.3759 12.9553C29.3759 12.9553 29.3759 12.9183 29.413 12.9183C29.413 12.8813 29.4501 12.8813 29.4501 12.8443C29.4872 12.7703 29.5243 12.7333 29.5614 12.6594C29.5614 12.6224 29.5985 12.6224 29.5985 12.6224L29.6356 12.5854L29.6727 12.5484C29.9694 12.2525 30.5999 12.9183 30.8966 12.6594C31.045 12.5114 31.045 12.3265 30.9337 12.1785V12.1415C31.0079 11.1059 30.9708 10.0702 30.8224 9.07154C30.637 7.96191 30.3403 6.85227 29.8952 5.8166C29.8952 5.77962 29.8581 5.77962 29.8581 5.74263C29.7839 5.55769 29.7098 5.37275 29.5985 5.18781C29.5614 5.15082 29.5614 5.07685 29.5243 5.03986C29.413 4.85492 29.3389 4.66998 29.2276 4.48504C28.4487 3.15347 27.336 2.00685 25.7411 2.19179C25.7041 2.19179 25.667 2.19179 25.6299 2.19179C25.5186 2.19179 25.4444 2.26576 25.4073 2.30275C25.3332 2.37673 25.3332 2.48769 25.3702 2.56167C24.7026 3.0795 24.1092 3.70829 23.7012 4.44805C23.6641 4.52203 23.627 4.596 23.5899 4.63299C23.2561 5.26179 23.2561 6.00154 23.3303 6.70432C23.3303 6.77829 23.3303 6.81528 23.3303 6.88925C23.3674 7.25913 23.4045 7.62901 23.4045 7.99889C23.4045 8.14684 23.4045 8.2948 23.4045 8.40576C23.3674 9.8113 23.2932 11.1799 23.1449 12.5854C23.1449 12.6224 23.1449 12.6964 23.1449 12.7334C23.1449 12.7703 23.1449 12.8073 23.1449 12.8073C23.0707 13.3252 23.0336 13.843 22.9223 14.3608C22.774 15.1006 22.5885 15.8403 22.3289 16.5431C22.0693 17.2829 21.55 17.9117 20.9566 18.5035C20.6969 18.7624 20.4002 19.0213 20.1035 19.2802C19.918 19.4282 19.7326 19.5761 19.5471 19.7241C19.5471 19.7241 19.5471 19.7241 19.5101 19.7241C19.3988 19.7611 19.3246 19.872 19.2875 20.02C19.2133 20.8337 19.1762 21.6474 19.1392 22.4612V22.4982C19.1392 22.7571 19.3617 22.868 19.5471 22.868L19.5842 22.905C19.6955 22.942 19.8068 23.016 19.918 23.053C20.0293 23.09 20.1406 23.127 20.2519 23.1639C23.219 24.3106 26.4829 24.3476 29.6356 23.9037C29.6727 23.9037 29.7098 23.9037 29.7468 23.9037C29.9323 23.8667 30.1548 23.8297 30.3403 23.8297C30.5628 23.7927 30.8224 23.7558 31.045 23.6818C31.4901 23.5708 31.898 23.3489 32.0464 22.8311C32.3802 21.9803 32.1206 21.0926 31.9351 20.3529Z" fill="#ED9261"/>
<path d="M28.2631 11.4755C28.0776 11.2536 27.7438 10.7728 27.41 10.9577C27.1504 11.1057 26.2231 11.3646 26.186 11.6235C26.0006 13.066 27.5583 14.6195 28.7823 14.8784C28.9307 14.0277 29.1903 13.103 29.6725 12.5482C29.1532 12.2153 28.6339 11.9194 28.2631 11.4755Z" fill="#BD664A"/>
<path d="M61.4954 6.44509C61.0874 6.18618 60.4568 6.44509 60.3456 6.37112C60.1601 6.29714 59.9747 5.70533 59.0103 6.03823C58.9733 6.03823 58.8991 6.03823 58.862 6.00124C58.7136 5.89027 58.3427 5.74232 57.9347 5.8163C57.4526 5.89027 57.5638 6.03823 57.3413 6.03823C57.0817 6.03823 56.822 5.89027 56.5624 5.85329C56.0061 5.77931 55.3755 6.14919 55.3014 6.70401C55.2643 6.92594 55.2643 7.18485 55.2272 7.40678C55.2272 7.48076 55.1901 8.03558 55.153 8.03558C55.0046 8.10955 54.8563 8.14654 54.745 8.22051C54.1887 8.51642 54.1145 8.99726 54.1516 9.55208C54.2258 10.6247 54.3741 11.6604 54.6708 12.6961C54.7079 13.3618 54.5967 14.0276 54.4112 14.6934C54.337 14.9153 54.337 15.1373 54.4483 15.3222C54.5967 15.5071 54.8934 15.5811 55.1159 15.6921C55.7835 15.988 56.3028 16.4688 56.822 16.9497C57.3042 17.3935 57.8606 17.7264 58.5653 17.7634C58.6394 17.7634 58.7136 17.7264 58.7507 17.6524C58.8249 17.6524 59.2329 17.6524 59.27 17.6155C60.4939 15.0633 60.8277 13.5838 61.1986 12.1412C61.4583 11.1795 61.6437 10.2179 61.755 9.25618C61.8292 8.73835 61.8663 8.22051 61.8663 7.73967C61.8663 7.59172 61.8663 7.44377 61.8292 7.25883C61.8663 6.96292 61.755 6.63003 61.4954 6.44509Z" fill="#ED9261"/>
<path d="M34.3086 8.77545C34.2344 9.33027 33.5297 9.36726 32.9733 9.29328C32.8992 9.29328 32.7879 9.33027 32.7879 9.44123C32.7508 9.5522 32.7508 9.66316 32.7137 9.77412C32.7137 9.8481 32.6766 9.88509 32.6766 9.95906C32.6766 10.107 32.6766 10.255 32.6395 10.3659C32.5653 10.6988 32.5283 11.0317 32.4912 11.3646C32.4912 11.4016 32.4912 11.4016 32.4912 11.4386C32.2686 12.6222 31.8977 13.5469 30.5996 13.7318C29.2644 13.9168 27.892 13.3989 26.7052 12.8441C25.815 12.4003 25.8521 11.4386 25.7408 10.4769C25.6666 9.92208 25.2216 9.44123 24.8507 8.96039C24.4798 8.51653 23.8863 8.29461 23.4042 7.92473C22.9591 7.55485 22.6995 7.074 22.5882 6.51919C22.4027 5.37256 22.9591 4.26292 23.7009 3.44919C26.0746 0.860029 30.4512 1.19292 32.9733 4.22593C33.5668 4.96569 33.233 5.96437 33.1588 6.88906C33.233 7.29593 33.4926 7.66581 33.7893 7.96171C34.0118 8.22063 34.3827 8.44256 34.3086 8.77545Z" fill="#ED9261"/>
<path d="M42.7652 21.9433C41.4299 20.5008 39.5013 19.687 37.6097 19.1322C37.5726 19.1322 37.5726 19.1322 37.5355 19.1322C37.2759 19.0582 37.0163 18.9843 36.7566 18.9473C35.2359 18.5774 33.7153 18.4664 32.1946 18.3925C32.0462 18.3925 31.8979 18.3925 31.7124 18.3555C31.527 18.3555 31.3415 18.3555 31.1561 18.3555C31.0448 18.3555 30.8964 18.3555 30.7852 18.3555H30.7481C30.711 18.3555 30.711 18.3555 30.6739 18.3555C30.6739 18.3555 30.6739 18.3555 30.6368 18.3555C30.5997 18.3555 30.5997 18.3555 30.5626 18.3555C30.5255 18.3555 30.5255 18.3555 30.4884 18.3555H30.4514C30.3772 18.3925 30.2659 18.4294 30.1917 18.4664C30.1546 18.5034 30.1175 18.5034 30.0434 18.5404C30.0063 18.5404 30.0063 18.5774 29.9692 18.5774C29.895 18.6144 29.8579 18.6514 29.7837 18.6884C29.7467 18.7253 29.6725 18.7623 29.6354 18.7993C29.5983 18.8363 29.5983 18.8363 29.5612 18.8733C29.5241 18.9103 29.5241 18.9103 29.487 18.9473C29.4499 18.9843 29.4499 18.9843 29.4128 19.0213L29.3758 19.0582C29.3387 19.0952 29.3387 19.0952 29.3016 19.1322C29.2645 19.1692 29.2274 19.2062 29.1903 19.2432L29.1532 19.2802C29.0419 19.3911 28.8936 19.5021 28.7823 19.5761C28.7452 19.6131 28.7452 19.6131 28.7081 19.65C28.5969 19.724 28.5227 19.798 28.4114 19.835C28.4114 19.835 28.3743 19.835 28.3743 19.872C28.3372 19.909 28.3001 19.909 28.2631 19.946C28.226 19.946 28.226 19.9829 28.1889 19.9829C27.1875 20.4268 26.0377 20.6117 24.9621 20.6117C24.8879 20.6117 24.8508 20.6117 24.7766 20.6117C24.7024 20.6117 24.6653 20.6117 24.5912 20.6117C24.5541 20.6117 24.4799 20.6117 24.4428 20.6117C24.4428 20.6117 24.4428 20.6117 24.4057 20.6117C24.3686 20.6117 24.2945 20.6117 24.2574 20.6117C24.2203 20.6117 24.1461 20.6117 24.109 20.6117C24.0719 20.6117 24.0348 20.6117 23.9977 20.6117C23.9606 20.6117 23.9236 20.6117 23.8494 20.6117C23.7752 20.6117 23.7381 20.6117 23.6639 20.5747C23.5897 20.5747 23.5527 20.5747 23.4785 20.5378C23.4414 20.5378 23.3672 20.5008 23.3301 20.5008H23.293C23.2188 20.5008 23.1818 20.4638 23.1076 20.4638C23.0334 20.4638 22.9963 20.4268 22.9592 20.4268C22.885 20.4268 22.8109 20.3898 22.7738 20.3898C22.6996 20.3898 22.6625 20.3528 22.5883 20.3528C22.5512 20.3528 22.5141 20.3158 22.44 20.3158H22.4029C22.3658 20.3158 22.3658 20.3158 22.3287 20.2788C22.2916 20.2788 22.2174 20.2419 22.1803 20.2419C22.1432 20.2419 22.1062 20.2049 22.0691 20.2049C21.8836 20.1309 21.6982 20.0939 21.5498 20.0199C21.5127 20.0199 21.4756 19.9829 21.4385 19.9829C21.3644 19.946 21.2531 19.909 21.1789 19.872C21.1418 19.835 21.1047 19.835 21.0676 19.798C20.9564 19.724 20.808 19.687 20.6967 19.6131C20.6597 19.5761 20.6226 19.5761 20.5855 19.5391C20.4742 19.4651 20.4 19.4281 20.2888 19.3541C20.2517 19.3541 20.2517 19.3172 20.2146 19.3172C20.1404 19.2802 20.1033 19.2432 20.0291 19.2062C19.9549 19.1692 19.9179 19.1322 19.8437 19.0952C19.8437 19.0952 19.8066 19.0952 19.8066 19.0582C19.7695 19.0213 19.7324 18.9843 19.6953 18.9843C19.6211 18.9473 19.547 18.8733 19.4728 18.8363C19.3615 18.7623 19.2132 18.7253 19.1019 18.7623C19.0648 18.7623 19.0648 18.7623 19.0277 18.7993C18.9906 18.7993 18.9535 18.7993 18.9164 18.7993H18.8793H18.8423C18.8052 18.7993 18.7681 18.8363 18.731 18.8363C18.4343 18.9473 18.1005 19.0952 17.8037 19.2062C17.6925 19.2432 17.6183 19.2802 17.507 19.3172C17.507 19.3172 17.4699 19.3172 17.4699 19.3541C17.4328 19.3541 17.3958 19.3911 17.3587 19.3911C17.2845 19.4281 17.1732 19.4651 17.099 19.5021C16.9507 19.5761 16.8023 19.6131 16.691 19.687C16.654 19.724 16.6169 19.724 16.5427 19.761C16.3943 19.835 16.246 19.872 16.1347 19.946C13.0192 21.1666 10.4229 22.72 8.82801 25.827C8.1233 27.1956 8.08621 28.86 7.60404 30.3396C7.38151 31.0423 7.0477 31.7821 6.93643 32.5219C6.82516 33.2616 7.23315 33.7055 7.90076 33.9644C8.93928 34.3713 9.97779 34.7411 11.0163 35.111C11.0534 35.148 11.1276 35.148 11.1647 35.185C11.4243 35.2959 11.721 35.3699 11.9806 35.4809C11.9806 35.5919 11.9806 35.7028 11.9806 35.8508C11.9806 35.8878 11.9806 35.9617 11.9806 35.9987C11.9806 36.0727 11.9806 36.1097 11.9806 36.1837C11.9436 38.8838 11.6839 42.3237 11.4614 45.8745C11.4614 45.9115 11.4614 45.9485 11.4614 45.9855V46.0225C11.2388 49.0555 11.0534 52.1994 10.9792 54.9735C10.9421 56.8969 10.9792 58.6723 11.1276 60.1518C11.1647 60.4108 15.1333 60.6697 19.9179 60.6327C22.44 60.5957 25.2217 60.4847 27.7067 60.2258C30.1175 59.9669 32.2688 59.597 33.7894 59.0792C33.9007 59.0422 34.0491 59.0052 34.1603 58.9312C34.7909 58.6723 35.3843 58.3394 35.681 57.7476C36.0148 57.0818 36.089 56.2681 36.2003 55.5284C36.4599 53.9009 36.5712 52.2734 36.6824 50.609C36.905 47.2431 37.1275 43.8771 37.2017 40.5112C37.2388 39.7715 37.2388 39.0317 37.2388 38.255C37.2388 36.3686 37.2017 34.4452 37.0904 32.5588C37.0904 32.2629 37.0533 31.967 37.0163 31.6711C37.313 31.4862 37.6468 31.3012 37.9435 31.1163C38.2773 30.9314 38.6111 30.7464 38.9449 30.5245C39.5013 30.1916 40.0205 29.8217 40.3914 29.3039C40.4656 29.2299 40.5027 29.119 40.5398 29.045C40.6511 28.8231 40.7252 28.6011 40.8365 28.3792C40.8736 28.2682 40.9107 28.1943 40.9478 28.0833C40.9478 28.0463 40.9478 28.0463 40.9849 28.0093C41.1703 27.4545 41.3558 26.9367 41.5412 26.3819C41.6896 25.901 41.875 25.4202 42.0234 24.9763C42.2459 24.3105 42.4685 23.6817 42.691 23.016C42.7281 22.905 42.7281 22.831 42.7281 22.72C42.9135 22.5721 43.0248 22.2022 42.7652 21.9433Z" fill="white"/>
<path d="M19.0277 22.3131C21.4757 23.6817 24.4799 24.1255 27.1875 23.3118C29.7467 22.572 31.6753 20.7596 32.6768 18.3924C32.0462 18.3554 31.4157 18.3554 30.7852 18.3184C29.895 18.2814 29.0049 19.539 28.1518 19.9459C27.1504 20.3898 26.0006 20.5747 24.925 20.5747C22.9222 20.5747 20.9935 19.9089 19.3986 18.7253C19.2503 18.6143 19.1019 18.6143 18.9535 18.6883C18.8794 18.6883 18.8423 18.6883 18.7681 18.7253C17.8409 19.0952 16.9136 19.4651 16.0605 19.8349C16.8394 20.8336 17.8779 21.6843 19.0277 22.3131Z" fill="white"/>
<path d="M30.7114 53.8266C28.4489 55.1212 25.9639 56.0828 23.4418 56.6747C22.7371 56.8596 21.9953 57.0075 21.2535 57.1185C21.1422 57.1185 21.1793 57.3034 21.2906 57.2665C23.8868 56.8596 26.4089 56.0828 28.7827 54.9732C29.4503 54.6403 30.1179 54.3074 30.7855 53.9375C30.8968 53.9006 30.8226 53.7526 30.7114 53.8266Z" fill="#2B2625"/>
<path d="M34.7907 2.52481C34.7165 2.41385 34.6424 2.33987 34.5311 2.33987C34.494 2.2659 34.3827 2.22891 34.2715 2.22891C33.27 2.19192 32.3799 2.08096 31.5639 1.52614C31.5268 1.48915 31.4897 1.45216 31.4526 1.45216C31.3043 1.3412 31.1559 1.26722 31.0076 1.19325C30.3029 0.823367 29.5982 0.638428 28.7451 0.638428C27.7066 0.675416 26.631 0.897343 25.6295 1.23023C25.5183 1.26722 25.407 1.30421 25.2957 1.3412C24.5169 1.6371 23.8121 2.04397 23.1445 2.52481C22.4398 3.04264 21.8464 3.63445 21.3642 4.37421C21.3271 4.4112 21.3271 4.44819 21.29 4.48517C20.845 5.18794 20.3628 6.11264 21.0675 6.8524C21.4013 7.18529 21.9947 7.25927 22.2173 7.70312C22.3286 7.96204 22.8478 9.88541 23.1445 12.6595C23.1445 12.6965 23.1445 12.7705 23.1445 12.8075C23.1445 12.8814 23.1816 12.8814 23.2187 12.8444C23.3671 12.6225 23.7751 11.4019 24.0347 11.217C24.4427 10.9211 24.8136 10.5512 25.1103 10.1813C25.2216 10.0334 25.3328 9.88541 25.407 9.73746C25.5554 9.51553 25.7037 9.25662 25.815 9.03469C25.9263 8.81276 26.0004 8.62782 26.0746 8.4059C26.3713 8.51686 26.7052 8.51686 27.039 8.47987C27.076 8.47987 27.1502 8.47987 27.1873 8.44288C27.3357 8.4059 27.4469 8.36891 27.5953 8.33192C27.6695 8.29493 27.7066 8.29493 27.7437 8.25794C28.8564 7.7771 29.3385 6.74144 29.8207 5.74276C29.8207 5.70578 29.8578 5.70578 29.8578 5.66879C30.1545 5.11397 30.5996 4.85505 31.2672 4.81807C31.9348 4.78108 32.6024 4.92903 33.27 4.81807H33.3071C33.4184 4.81807 33.5297 4.78108 33.6409 4.74409C33.7522 4.7071 33.8264 4.67011 33.9006 4.63313C34.0489 4.55915 34.1602 4.48517 34.2715 4.4112C34.8649 3.96734 35.1987 3.26457 34.7907 2.52481Z" fill="#9E4D27"/>
<path d="M27.8179 8.92344C27.8179 8.7385 27.7808 8.51657 27.7808 8.25765C27.6695 7.5179 27.4099 6.66717 26.631 6.48223C26.223 6.37127 25.7779 6.5932 25.5554 6.92609C25.2958 7.33296 25.3699 7.8138 25.5183 8.25765C25.5925 8.51657 25.7038 8.77549 25.815 8.99741C25.9263 9.25633 26.1117 9.47826 26.2601 9.6632C26.5197 9.9591 26.8535 10.0331 27.1873 9.81115C27.4099 9.6632 27.8179 9.29332 27.8179 8.99741C27.8179 8.96043 27.8179 8.92344 27.8179 8.92344Z" fill="#ED9261"/>
<path d="M60.42 16.6169C60.3458 16.5059 60.1604 16.321 59.9749 16.136C59.6782 15.8771 59.3444 15.6182 59.159 15.5072C58.7881 15.2483 58.4172 14.9894 58.0092 14.7675C57.527 14.4716 57.0078 14.2496 56.4514 14.0277C56.1918 13.9168 55.8951 13.8058 55.6354 13.6948C55.45 13.6209 55.2275 13.5099 55.0049 13.4729C54.8936 13.4359 54.7824 13.3989 54.7082 13.3989C54.634 13.3989 54.5598 13.4359 54.5227 13.4729C54.4486 13.5839 54.4115 13.7318 54.3744 13.8428C54.3373 13.9168 54.3373 13.9537 54.3002 14.0277C54.3002 14.0277 54.3002 14.0647 54.2631 14.0647C54.1889 14.2496 54.1148 14.3976 54.0406 14.5825C54.0035 14.6935 53.9664 14.7675 53.8922 14.8784C53.8551 14.9524 53.8551 14.9894 53.8922 15.0264C53.818 15.1004 53.781 15.2113 53.8551 15.3223C55.0049 17.2457 57.7496 17.2827 58.8993 19.169C58.9735 19.317 59.159 19.243 59.2332 19.1321C59.3444 19.1321 59.7524 19.428 59.7524 19.317C59.8266 19.0581 59.9379 18.7622 60.0491 18.5033C60.1233 18.2813 60.2346 18.0224 60.3088 17.8005C60.3829 17.4676 60.6426 16.9498 60.42 16.6169Z" fill="#FFE9DB"/>
<path d="M53.855 14.6192C53.8179 14.6192 53.8179 14.6562 53.8179 14.6562C52.2601 17.5413 50.8136 20.5373 49.5526 23.5703C49.5155 23.6073 49.4784 23.8292 49.4413 23.8292C49.3671 23.8662 49.33 23.9402 49.293 24.0141C48.7737 25.4937 48.2544 26.9362 47.8094 28.4527C47.4014 29.8582 46.8079 29.8212 46.7338 31.3008C46.6596 32.8912 45.2873 33.8899 46.4 34.0749C47.9948 34.3338 50.4798 34.5187 52.0005 34.0379C53.5212 33.557 54.5226 31.9665 55.3386 30.709C56.9335 28.2308 57.9349 25.4197 58.8992 22.6826C59.3443 21.425 59.7523 20.1674 60.1603 18.9098C60.1974 18.7619 60.1603 18.6139 60.0861 18.5399C59.233 17.6152 58.2316 16.8385 57.156 16.2097C56.5996 15.8768 56.0433 15.5809 55.487 15.285C55.1902 15.137 54.1146 14.4713 53.855 14.6192Z" fill="#CFCBCA"/>
<path d="M39.0561 41.8058C39.1303 46.5033 38.9819 51.2748 38.5368 55.8243C38.4997 57.3038 38.4256 58.7463 38.3885 60.2258C38.3885 60.5957 38.3885 61.0026 38.3514 61.4095C38.3143 61.7793 38.1288 62.1122 37.795 62.2972C36.534 63.0739 35.0875 63.5548 33.641 63.8507C31.7865 64.2205 29.8578 64.2205 28.0033 63.8137C27.5212 63.7027 27.1874 63.2219 27.2615 62.704C28.4484 54.9736 29.3015 46.8362 29.8207 38.9948C30.0433 35.333 30.3029 31.6711 30.1916 28.0093C30.0804 25.3092 29.7466 22.5721 28.9306 19.946C29.0789 19.5391 29.1531 19.0952 29.2273 18.6514C29.3757 18.1705 29.4869 17.6527 29.6353 17.1719C31.2672 17.7267 35.5697 18.0966 37.6467 18.7993C37.6096 19.3172 37.5725 19.872 37.5725 20.3898C38.9819 21.3145 39.9462 22.831 40.8364 24.2366C41.1331 24.6804 41.3557 25.1613 41.3928 25.7161C41.4298 26.3449 41.1702 26.9737 41.0219 27.6025C40.688 28.8971 40.2801 30.1546 40.0575 31.4492C39.427 35.074 39.1674 38.255 39.0561 41.8058Z" fill="#CFCBCA"/>
<path d="M19.7695 17.2825C16.8765 18.0592 11.7581 19.7607 9.42143 21.684C6.71388 23.9033 3.0049 32.7064 1.9293 36.3682C1.81803 36.7381 1.70676 37.108 1.5584 37.4779C0.853693 39.5492 0.0377171 41.6575 0.594064 43.6549C0.705333 44.0987 0.890782 44.5056 1.15041 44.9125C1.29877 45.1344 1.44713 45.3563 1.59549 45.5413C2.67109 46.8728 3.89506 46.9838 4.78521 46.7988C4.97066 46.7619 5.11902 46.7249 5.30447 46.6509C5.78663 46.466 6.08335 46.244 6.08335 46.244C6.08335 46.318 6.12044 46.466 6.12044 46.6139C6.12044 46.6509 6.12044 46.7249 6.12044 46.7619C6.12044 46.7989 6.12044 46.8358 6.12044 46.8728C6.2688 49.9058 6.52843 61.3351 8.01202 62.4817C8.12329 62.5557 8.23456 62.6667 8.38292 62.7407C11.1647 64.627 16.1718 65.0339 19.4357 64.775C19.6582 64.775 19.8066 64.59 19.8066 64.3681C19.8437 63.1105 19.8808 61.8529 19.9178 60.5954C19.9549 58.524 20.0291 56.4527 20.0662 54.3814C20.1033 51.7552 20.1404 49.0921 20.1404 46.466C20.1404 45.2084 20.1404 43.9138 20.1404 42.6192C20.1404 42.3973 20.1404 42.1384 20.1404 41.9164C20.1775 40.178 20.1775 38.3656 20.2146 36.5902C20.2146 35.7395 20.2146 34.8887 20.2146 34.038C20.2146 32.7434 20.1775 31.4489 20.1404 30.1913C20.1033 28.9337 20.0291 27.5281 19.992 26.1596C19.9549 25.0869 19.992 24.0143 20.0662 22.9786C20.0662 22.9046 20.0662 22.8676 20.0662 22.7937C20.1775 21.684 20.3258 20.5744 20.6596 19.5017C20.7709 19.1319 20.8822 18.799 21.0305 18.4661C21.2531 17.9113 21.5498 17.3934 21.8465 16.8756C21.8836 16.8016 21.0676 16.9496 19.7695 17.2825Z" fill="#CFCBCA"/>
<path d="M52.2231 25.3094C51.7039 24.1258 51.2217 24.3108 50.109 23.7559C49.9236 23.682 49.7381 23.571 49.5527 23.497C48.3287 22.9422 46.9193 22.4244 45.7324 21.9065C42.0976 20.427 39.5013 19.1325 37.6098 18.7626C37.3501 18.7256 37.1276 18.6886 36.868 18.6516C36.868 18.6516 36.7938 18.7256 36.7196 18.9105C36.2374 20.0202 34.7168 24.4587 34.7538 26.678C34.7538 27.3068 34.7909 27.9356 34.8651 28.5644C34.9022 28.9712 34.9022 29.3781 34.9764 29.785C35.0135 29.9329 35.0135 30.0809 35.0876 30.2288C35.1989 30.5987 35.4585 30.9686 35.9036 30.9316C36.052 30.9316 35.8665 32.1892 35.9778 32.1152C36.2745 32.2632 36.6083 32.4111 36.9421 32.5221C37.5356 32.744 38.129 32.929 38.8337 33.0769C39.0933 33.1509 39.3901 33.2249 39.6868 33.2618C42.1347 33.7797 45.1761 34.0756 48.6254 34.3345C48.7367 34.3345 48.848 34.3345 48.9221 34.3345C49.8494 34.2235 50.2203 33.1509 50.8879 32.2632C51.2217 31.8193 51.4442 31.2645 51.6668 30.7467C51.9264 30.0809 52.186 29.4151 52.3344 28.7123C52.6682 27.6027 52.7053 26.4191 52.2231 25.3094Z" fill="#CFCBCA"/>
<path d="M18.0261 43.729V43.692C17.989 43.4701 17.8777 43.2851 17.6923 43.1742C16.9876 42.8413 16.8021 44.1358 17.0618 44.6167C17.173 44.8016 17.3585 44.9866 17.581 44.9496C17.8036 44.9126 17.9148 44.6167 17.989 44.3578C18.0261 44.1728 18.0632 43.9509 18.0261 43.729Z" fill="#2B2625"/>
<path d="M18.0261 53.05V53.013C17.989 52.7911 17.8777 52.6062 17.6923 52.4952C16.9876 52.1623 16.8021 53.4569 17.0618 53.9377C17.173 54.1227 17.3585 54.3076 17.581 54.2706C17.8036 54.2336 17.9148 53.9377 17.989 53.6788C18.0261 53.4569 18.0632 53.2719 18.0261 53.05Z" fill="#2B2625"/>
<path d="M27.2244 35.5548C27.2244 35.2959 27.1874 35.074 27.0761 34.8521C26.9648 34.5931 26.8165 34.3342 26.7794 34.0753C26.7052 33.6315 26.5568 33.2246 26.1488 33.0027C25.9634 32.4109 25.6667 31.856 25.1474 31.5971C24.2944 31.2272 23.4413 31.819 23.1817 32.5958C22.0319 32.7437 20.845 33.0396 20.1403 34.0383C20.1403 34.0383 20.1403 34.0383 20.1403 34.0753C19.8065 34.5931 19.621 35.148 19.3243 35.6658C19.2501 35.7768 19.2131 35.8877 19.1389 35.9617C18.9905 36.1836 18.8051 36.3686 18.6196 36.5165C18.1745 36.8494 17.6553 37.0343 17.136 37.2193C17.0989 37.2193 17.0989 37.2563 17.0618 37.2563C16.9506 37.2193 16.8022 37.2933 16.8393 37.4412C17.0248 38.3659 17.2102 39.2536 17.2844 40.1783C17.3215 40.6222 17.3586 41.066 17.3957 41.5469C17.4327 41.9907 17.4698 42.5086 17.136 42.8415C17.0618 42.9154 17.0618 42.9524 17.0989 43.0264C17.0618 43.1004 17.0989 43.2113 17.136 43.2483C17.1731 43.2853 17.2473 43.2853 17.3215 43.2853C17.4327 43.2483 17.544 43.1743 17.6553 43.1374C18.3971 42.8045 19.1389 42.4346 19.8065 41.9907C19.8436 41.9907 19.8436 41.9907 19.8807 41.9907C19.9178 41.9537 19.9548 41.9537 19.9919 41.9168C20.029 41.9168 20.029 41.8798 20.0661 41.8798C20.5112 41.6578 20.9934 41.4359 21.4384 41.214C22.1802 40.8811 22.8849 40.5112 23.6267 40.1783C24.6653 39.6975 25.7779 39.2536 26.6681 38.5139C27.039 38.181 27.1503 37.5522 27.2244 37.1083C27.2615 36.6275 27.2615 36.0727 27.2244 35.5548Z" fill="#ED9261"/>
<path d="M21.4756 40.548C21.4385 39.1425 20.9564 37.7369 20.1404 36.5903C19.9178 36.2574 19.6211 35.9245 19.3244 35.6286C19.2131 35.5177 19.1019 35.5547 19.0277 35.6286C18.9906 35.5916 18.9164 35.5916 18.8422 35.6286C18.5455 35.7396 18.2488 35.8506 17.9521 35.9615C17.4699 36.1465 16.9507 36.3314 16.4685 36.5533C15.8009 36.8492 16.0605 37.663 16.1347 38.2178C16.246 39.0685 16.3572 39.9192 16.4685 40.7699C16.5798 41.6207 16.7652 42.5454 16.691 43.3961C16.691 43.5071 16.7281 43.581 16.8023 43.618C16.8394 43.655 16.8765 43.692 16.9136 43.692C16.9507 43.692 17.0248 43.692 17.0619 43.692C17.3216 43.581 17.6183 43.4701 17.8779 43.3961C18.5455 43.1372 19.2131 42.8783 19.8808 42.6193C19.9178 42.6193 19.9549 42.5824 20.0291 42.5824C20.1033 42.5454 20.2146 42.5084 20.2887 42.4714C20.6596 42.3234 21.0305 42.1385 21.216 41.8056C21.3273 41.6207 21.4014 41.4357 21.4014 41.2138C21.4756 41.0289 21.4756 40.8069 21.4756 40.548Z" fill="#FFE9DB"/>
<path d="M18.6194 36.5166C18.471 36.3317 18.3227 36.1837 18.1372 36.0728C18.1001 36.0358 18.026 35.9988 17.9518 35.9988C17.5067 35.8878 16.5795 36.0358 16.2457 36.0358C14.6508 36.0728 13.3897 36.1097 11.9803 36.1467C11.3498 36.1837 10.6822 36.1837 9.97748 36.2207C9.16151 36.2577 8.38262 36.2207 7.56665 36.2577C7.26993 36.2577 6.97321 36.2947 6.67649 36.2947C6.45395 36.2947 6.19432 36.3317 5.97179 36.3687C4.89618 36.4796 3.89476 36.7755 3.0046 37.4043C2.44826 37.7742 1.96609 38.2551 1.59519 38.8099C1.33556 39.1797 1.11302 39.5866 0.927574 40.0305C0.890484 40.1044 0.519586 42.4717 0.593766 43.6923C0.593766 43.9512 0.630855 44.1361 0.705035 44.2841C1.00175 44.8759 1.29847 45.3567 1.59519 45.6896C2.37408 46.7623 3.07878 46.9472 4.04312 47.0212C4.74782 47.0582 5.41544 47.0212 6.12014 46.9102C6.2685 46.8732 6.45395 46.8732 6.60231 46.8363C6.97321 46.7993 7.34411 46.7253 7.67792 46.6883C7.67792 46.6883 7.67792 46.6883 7.71501 46.6883C8.19717 46.6143 8.64225 46.5403 9.12442 46.4664C9.9033 46.3184 10.6822 46.1705 11.4611 45.9855C12.3141 45.8006 13.1301 45.6157 13.9832 45.3937C15.0217 45.1348 16.0231 44.8019 17.0245 44.506C17.3584 44.3951 17.7292 44.2841 18.0631 44.1731C18.5452 44.0252 19.0274 43.8402 19.5466 43.6923C19.5466 43.6923 19.5837 43.6923 19.5837 43.6553C19.7692 43.5443 19.8805 43.2114 19.9546 42.7306C19.9917 42.5087 20.0288 42.2497 20.0288 41.9908C20.103 40.2894 19.7321 37.7742 18.6194 36.5166Z" fill="#CFCBCA"/>
<path d="M22.5887 14.4715C21.5872 15.3222 20.6229 16.2469 19.7698 17.2826C19.7327 17.3195 19.6957 17.3565 19.6957 17.3935C19.436 17.7264 19.028 18.2072 18.6571 18.7621C18.1379 19.5388 17.6928 20.3895 17.8041 21.0183C17.8412 21.1293 17.8783 21.3142 17.9153 21.5732C18.175 22.6458 18.8055 24.8281 19.8069 26.3446C19.8811 26.4186 19.9182 26.2706 19.9182 26.1227C19.9553 25.9747 19.9553 25.7898 19.9553 25.7898C19.9924 24.8651 20.1407 23.9774 20.3262 23.0527C20.3262 23.0157 20.3633 22.9417 20.3633 22.9047C20.4374 22.5348 20.5116 22.2019 20.5858 21.8321C20.7342 21.1293 20.8825 20.3895 21.1051 19.7238C21.3276 18.873 21.6243 18.0593 22.0694 17.2826C22.5145 16.4318 22.9225 15.3222 22.9596 14.3235C22.9225 14.1386 22.8112 14.2865 22.5887 14.4715Z" fill="#2B2625"/>
<path d="M31.8607 20.1677C31.8607 20.0937 31.8236 20.0567 31.8236 19.9827C31.7123 19.6129 31.6011 19.206 31.4156 18.8731C31.3414 18.6882 31.2673 18.5402 31.1931 18.3553C31.0818 18.1334 30.9706 17.9114 30.8593 17.6525C30.8222 17.5785 30.7851 17.5046 30.748 17.4306C30.4513 16.8388 30.1175 16.247 29.7837 15.6921C29.7095 15.5812 28.9306 14.5455 28.8935 14.5825C28.8564 14.6565 28.8564 14.7305 28.8193 14.8414C28.5968 15.8401 28.4114 17.0607 28.3743 18.0594C28.3743 18.0964 28.5597 18.6512 28.7823 19.5759C28.9677 20.2787 29.2273 21.2403 29.4499 22.313C29.5611 22.7938 29.6724 23.3117 29.7466 23.8295C29.8949 24.5693 30.0062 25.309 30.1175 26.0858C30.1917 26.5296 30.7109 25.1611 31.1931 23.5706C31.564 22.165 31.9349 20.6115 31.8607 20.1677Z" fill="#2B2625"/>
<path d="M26.7423 65.2562C26.1489 65.922 25.5554 66.5877 24.9991 67.2905C24.5169 67.9193 24.0718 68.5851 23.7009 69.2879C23.6268 69.4728 23.5155 69.6577 23.4413 69.8427H23.2559C23.3671 69.5468 23.5155 69.2139 23.7009 68.955C24.4798 67.5494 25.5554 66.3658 26.631 65.1822C26.7052 65.0712 26.8165 65.1822 26.7423 65.2562Z" fill="#2B2625"/>
<path d="M32.2685 6.63001C32.083 6.51905 31.8976 6.59302 31.7863 6.85194C31.7121 7.07387 31.6379 7.40676 31.7121 7.62869C31.7492 7.77664 31.9718 7.96158 32.1572 7.77664C32.3426 7.55471 32.5652 7.14784 32.4168 6.85194C32.3797 6.70399 32.3056 6.667 32.2685 6.63001Z" fill="#40241B"/>
<path d="M33.0106 6.00149C32.9735 5.92752 32.9364 5.85354 32.8993 5.77956C32.6026 5.40968 32.0462 5.18776 31.6011 5.26173C31.3044 5.29872 30.8223 5.6686 31.2302 6.00149C31.4157 6.18643 31.7124 6.18643 31.935 6.33438C32.1204 6.48233 32.3059 6.70426 32.5284 6.74125C32.5655 6.74125 32.5655 6.74125 32.6026 6.74125C32.6768 6.74125 32.7509 6.74125 32.8251 6.70426C33.0476 6.5933 33.0847 6.26041 33.0106 6.00149Z" fill="#9E4D27"/>
<path d="M35.3844 3.70805C35.1618 4.37383 34.383 4.7807 33.6782 4.59576C33.567 4.55877 33.5299 4.70672 33.6412 4.74371C34.42 4.92865 35.2731 4.52178 35.5327 3.74504C35.5698 3.67106 35.4215 3.63407 35.3844 3.70805Z" fill="#783312"/>
<path d="M30.4142 4.6697C29.7094 4.96561 28.9306 5.07657 28.1888 5.0026C27.5211 4.89163 26.8535 4.63272 26.1859 4.70669C25.5554 4.78067 25.1474 5.18754 24.7394 5.5944C24.2572 6.11223 23.6638 6.5191 22.9962 6.77802C22.8849 6.81501 22.9591 6.96296 23.0333 6.92597C23.6267 6.70404 24.1831 6.33416 24.6652 5.89031C24.8878 5.66838 25.0732 5.40946 25.3328 5.22452C25.6296 4.96561 26.0005 4.85464 26.3714 4.85464C27.0761 4.85464 27.7437 5.11356 28.4855 5.18754C29.1902 5.22452 29.8578 5.11356 30.4883 4.81766C30.5996 4.78067 30.5254 4.63272 30.4142 4.6697Z" fill="#783312"/>
<path d="M31.8235 1.48892C30.8221 0.860126 29.6352 1.19302 28.6338 1.59988C28.3371 1.71085 28.0033 1.8588 27.6695 1.78482C27.4098 1.71085 27.1873 1.5629 26.9277 1.45193C26.4084 1.26699 25.8521 1.19302 25.3328 1.26699C25.2215 1.26699 25.2586 1.45193 25.3699 1.41494C25.9262 1.34097 26.5197 1.41494 27.0389 1.67386C27.2615 1.78482 27.4469 1.89579 27.6695 1.93278C27.9291 1.96976 28.1887 1.89579 28.4113 1.82181C29.4498 1.45193 30.6367 0.97109 31.6752 1.59988C31.8235 1.67386 31.8977 1.5629 31.8235 1.48892Z" fill="#783312"/>
<path d="M33.3817 8.77539C33.1221 8.77539 32.8625 8.81238 32.6028 8.88635C32.4916 8.92334 32.5286 9.07129 32.6399 9.03431C32.8625 8.96033 33.1221 8.92334 33.3817 8.92334C33.493 8.92334 33.493 8.77539 33.3817 8.77539Z" fill="#BD5A3B"/>
<path d="M26.0376 7.33302C26.3714 7.29604 26.5568 7.62893 26.7423 7.85086C26.8906 8.10977 27.039 8.36869 27.1503 8.66459C27.1874 8.77555 27.3357 8.70158 27.2986 8.6276C27.1874 8.25772 27.0019 7.92483 26.7794 7.59194C26.5939 7.37001 26.3714 7.1111 26.0747 7.14808C25.9263 7.18507 25.9263 7.33302 26.0376 7.33302Z" fill="#BD5A3B"/>
<path d="M55.4126 8.22074C55.7464 8.10977 56.0802 7.99881 56.414 7.88785C56.6737 7.81387 57.1558 7.51797 57.3784 7.73989C57.5638 7.96182 57.4897 8.29471 57.3413 8.47965C57.1558 8.70158 56.8962 8.84953 56.6737 9.03447C56.3028 9.33038 56.0431 9.81122 56.3028 10.2551C56.5995 10.7729 57.23 10.9209 57.6009 11.3277C58.046 11.8086 58.2685 12.5113 58.1573 13.1771C58.1573 13.2881 58.3056 13.3251 58.3056 13.2141C58.4169 12.6593 58.3056 12.1045 58.0089 11.6236C57.8606 11.3647 57.6751 11.1428 57.4526 10.9948C57.1929 10.7729 56.8591 10.625 56.5995 10.403C56.3399 10.1071 56.2657 9.73724 56.5253 9.40435C56.7108 9.14544 57.0075 8.99748 57.2671 8.81254C57.6009 8.51664 57.8606 7.96182 57.4526 7.62893C57.23 7.407 56.8962 7.55495 56.6366 7.62893C56.2286 7.77688 55.7835 7.92483 55.3755 8.07279C55.2643 8.10977 55.3014 8.25773 55.4126 8.22074Z" fill="#BD5A3B"/>
<path d="M57.2675 6.33419C57.045 6.70407 56.9708 7.14792 57.0079 7.55479C57.0079 7.66575 57.1933 7.66575 57.1562 7.55479C57.1192 7.14792 57.1933 6.77804 57.4159 6.40816C57.453 6.2972 57.3417 6.22322 57.2675 6.33419Z" fill="#BD5A3B"/>
<path d="M56.9703 8.81249C56.8961 9.25634 56.859 9.81116 57.3412 9.9961C57.7492 10.181 58.3055 9.9961 58.6393 9.77417C58.7135 9.73718 58.6393 9.58923 58.5652 9.62622C58.3055 9.77417 57.8604 9.92212 57.5637 9.88514C57.0445 9.81116 57.0445 9.21935 57.1186 8.81249C57.1557 8.7755 57.0074 8.73851 56.9703 8.81249Z" fill="#BD5A3B"/>
<path d="M56.9703 9.81131C56.7848 9.95926 56.5252 9.95926 56.3026 9.84829C56.2285 9.77432 56.1172 9.92227 56.2285 9.99625C56.4881 10.1812 56.8219 10.1442 57.0815 9.95926C57.1928 9.84829 57.0815 9.73733 56.9703 9.81131Z" fill="#BD5A3B"/>
<path d="M58.7136 6.85221C58.6394 7.25908 58.5653 7.66595 58.5282 8.07281C58.4911 8.47968 58.454 8.92354 58.5282 9.3304C58.5653 9.62631 58.7507 9.92221 59.0103 10.0702C59.27 10.1811 59.6409 10.1441 59.9376 10.1072C60.0489 10.1072 60.0489 9.92221 59.9376 9.9592C59.678 9.99619 59.3071 10.0702 59.0845 9.9592C58.7507 9.81125 58.6765 9.40438 58.6765 9.07149C58.6395 8.36872 58.7507 7.62896 58.8991 6.96318C58.862 6.77824 58.7136 6.74125 58.7136 6.85221Z" fill="#BD5A3B"/>
<path d="M60.0858 7.40665C59.9374 8.14641 59.8262 8.88617 59.7891 9.62593C59.7891 9.84785 59.8262 10.1068 60.0487 10.2177C60.3083 10.3657 60.6421 10.3657 60.9388 10.2917C61.0501 10.2547 61.013 10.1068 60.9018 10.1438C60.6421 10.1807 60.1229 10.2177 60.0116 9.92183C59.9374 9.6999 59.9745 9.404 60.0116 9.18207C60.0487 8.59026 60.1229 8.03545 60.2712 7.48063C60.2712 7.36966 60.1229 7.33267 60.0858 7.40665Z" fill="#BD5A3B"/>
<path d="M60.9762 10.2921C61.2358 10.1072 61.31 9.81129 61.3841 9.55237C61.4954 9.14551 61.5696 8.73864 61.6438 8.33177C61.6438 8.22081 61.4954 8.18382 61.4954 8.29478C61.4583 8.62767 61.3841 8.96057 61.31 9.29346C61.2358 9.58936 61.1987 9.99623 60.9391 10.1812C60.8278 10.2182 60.902 10.3291 60.9762 10.2921Z" fill="#BD5A3B"/>
<path d="M23.4413 32.5217C23.3672 32.9655 23.2188 33.3724 23.0704 33.8163C22.9963 34.0012 22.9221 34.2601 22.7366 34.3711C22.5512 34.482 21.8836 34.4081 21.9577 34.0752C21.9948 33.9642 21.8094 33.9272 21.8094 34.0382C21.7723 34.2601 21.9207 34.445 22.1432 34.519C22.4028 34.63 22.6995 34.667 22.9221 34.445C23.1446 34.2601 23.2188 33.9272 23.3301 33.6683C23.4043 33.2984 23.5155 32.9285 23.5897 32.5587C23.5897 32.4847 23.4413 32.4107 23.4413 32.5217Z" fill="#BD5A3B"/>
<path d="M22.5882 33.1131C22.4398 33.446 22.106 33.7419 22.2915 34.1118C22.3286 34.2227 22.4769 34.1118 22.4398 34.0378C22.2915 33.7419 22.6253 33.446 22.7366 33.1871C22.7737 33.1131 22.6253 33.0021 22.5882 33.1131Z" fill="#BD5A3B"/>
<path d="M26.0001 33.1504C25.9631 33.7052 25.7405 34.26 25.4438 34.7039C25.3696 34.7778 25.518 34.8888 25.5922 34.7778C25.926 34.297 26.1114 33.7052 26.1485 33.1504C26.1485 33.0394 26.0001 33.0394 26.0001 33.1504Z" fill="#BD5A3B"/>
<path d="M26.7049 34.5931C26.5566 35.1849 26.2969 35.8506 25.8519 36.2575C25.7777 36.3315 25.8889 36.4425 25.9631 36.3685C26.4082 35.9246 26.6678 35.2219 26.8533 34.63C26.8904 34.5561 26.742 34.5191 26.7049 34.5931Z" fill="#BD5A3B"/>
<path d="M26.9647 36.5167C26.7793 36.9236 26.5196 37.2565 26.1858 37.5524C26.1117 37.6264 26.2229 37.7373 26.2971 37.6634C26.668 37.3675 26.9276 36.9976 27.1131 36.5907C27.1502 36.5167 27.0018 36.4427 26.9647 36.5167Z" fill="#BD5A3B"/>
<path d="M17.6181 35.6287C14.0204 36.2205 10.2743 35.3697 6.71368 36.2944C5.78644 36.5164 4.93337 36.8863 4.1174 37.3671C4.04322 37.4041 4.1174 37.552 4.19158 37.515C7.27003 35.5917 11.0532 36.0355 14.5025 36.0355C15.5411 36.0355 16.5796 35.9616 17.6181 35.8136C17.7664 35.7766 17.7294 35.6287 17.6181 35.6287Z" fill="#2B2625"/>
<path d="M11.0905 31.4862C11.2017 32.9288 11.1276 34.3343 10.905 35.7399C10.905 35.8508 11.0534 35.8878 11.0534 35.7769C11.2759 34.3343 11.313 32.8918 11.2388 31.4493C11.2388 31.3753 11.0905 31.3753 11.0905 31.4862Z" fill="#2B2625"/>
<path d="M6.86231 35.8878C5.89797 35.7398 4.93364 35.8138 4.00639 36.0357C3.89512 36.0727 3.93221 36.2207 4.04348 36.1837C4.93364 35.9617 5.89797 35.8878 6.82522 36.0357C6.8994 36.0357 6.97358 35.8878 6.86231 35.8878Z" fill="#2B2625"/>
<path d="M19.4728 43.47C17.7296 44.1728 15.9122 44.7276 14.0948 45.2084C11.9807 45.7632 9.86658 46.2441 7.71537 46.503C6.67686 46.614 5.67543 46.6879 4.63692 46.651C4.52565 46.651 4.52565 46.7989 4.63692 46.7989C6.60268 46.9099 8.56844 46.577 10.4971 46.2071C12.6112 45.8002 14.6883 45.2454 16.7653 44.5796C17.6925 44.2837 18.6198 43.9508 19.547 43.618C19.6212 43.581 19.547 43.433 19.4728 43.47Z" fill="#2B2625"/>
<path d="M31.4899 10.2181C31.3415 10.514 31.3415 10.8469 31.7124 10.9579C31.9721 11.0318 32.2688 11.0688 32.5284 11.0688C32.5655 10.8469 32.6026 10.588 32.6397 10.3661C32.6768 10.2181 32.6768 10.0701 32.7139 9.92219C32.7139 9.84822 32.751 9.81123 32.751 9.73726C32.6768 9.73726 32.6397 9.70027 32.5655 9.70027C32.4171 9.66328 32.2317 9.5893 32.0463 9.62629C31.8237 9.70027 31.6012 9.95918 31.4899 10.2181Z" fill="#BD664A"/>
<path d="M32.6768 10.181C32.6768 10.107 32.7139 10.033 32.7139 9.95906C32.7139 9.88508 32.751 9.8481 32.751 9.77412C32.6768 9.77412 32.6397 9.73713 32.5655 9.73713C32.4172 9.70014 32.2317 9.62617 32.0463 9.66316C31.9721 9.66316 31.8979 9.70014 31.8237 9.77412C31.9721 10.07 32.3801 10.181 32.6768 10.181Z" fill="white"/>
<path d="M18.5825 30.7461V30.7091C18.5454 30.4871 18.4341 30.3022 18.2487 30.1912C17.544 29.8584 17.3585 31.1529 17.6182 31.6338C17.7294 31.8187 17.9149 32.0037 18.1374 31.9667C18.36 31.9297 18.4712 31.6338 18.5454 31.3749C18.5825 31.1899 18.5825 30.968 18.5825 30.7461Z" fill="#2B2625"/>
<path d="M27.8551 40.5481C26.6311 43.5811 25.2588 46.5401 23.7381 49.4252C23.293 50.2389 22.848 51.0527 22.4029 51.8294C22.3658 51.9034 22.4771 52.0143 22.5512 51.9034C24.1832 49.0553 25.6668 46.1333 27.002 43.1002C27.3729 42.2495 27.7067 41.3988 28.0405 40.5481C28.0776 40.5111 27.8922 40.4741 27.8551 40.5481Z" fill="#2B2625"/>
<path d="M41.8378 24.9021C40.9847 25.7898 40.8364 27.1214 40.6509 28.268C40.3913 29.7475 40.0946 31.227 39.835 32.7065C39.835 32.8175 39.9833 32.8545 39.9833 32.7435C40.2429 31.301 40.5026 29.8955 40.7622 28.4529C40.9847 27.3063 41.0589 25.9008 41.9491 25.013C42.0233 24.9391 41.912 24.8281 41.8378 24.9021Z" fill="#2B2625"/>
<path d="M49.3297 24.0514C48.4767 25.161 47.772 26.3816 47.2156 27.6392C47.1785 27.7502 47.3269 27.8242 47.364 27.7132C47.9203 26.4186 48.625 25.235 49.4781 24.1254C49.5152 24.0514 49.3668 23.9774 49.3297 24.0514Z" fill="#2B2625"/>
<path d="M38.9077 30.5244C38.648 30.2654 38.24 30.1545 37.6466 30.0805C36.7935 29.9695 35.9405 29.8586 35.0874 29.7846C34.6423 29.7476 34.1973 29.6736 33.7522 29.6367C33.1216 29.5627 32.1944 29.4887 31.9348 30.2285C31.8606 30.4504 31.8606 30.6723 31.8606 30.8942C31.8606 31.1532 31.8606 31.4491 31.8606 31.708C31.8606 32.2628 31.8606 32.8176 31.8606 33.4094C31.8606 35.1848 32.3428 36.0726 33.4555 37.4781C33.8264 37.922 34.1231 38.4028 34.5311 38.8097C35.1616 39.4754 36.0888 39.1795 36.7194 38.6987C36.9048 38.5877 37.0532 38.4398 37.2015 38.2548C38.3513 36.9973 38.6851 34.8889 38.9077 33.1135C38.9818 32.5587 39.0189 32.0779 39.0931 31.597C39.1673 31.0792 39.0931 30.7463 38.9077 30.5244Z" fill="#ADA6A5"/>
<path d="M86.1908 10.8099C86.1908 10.6989 86.1538 10.625 86.1538 10.514C85.9683 9.88521 85.412 9.47835 85.1152 8.92353C84.4847 7.81389 83.4833 7.14811 82.2964 7.99883C81.4804 8.55365 80.3677 7.96184 79.5518 8.81256C79.218 9.18244 79.0696 9.66329 78.9954 10.1441C78.9583 10.403 78.8842 10.662 78.8471 10.8839C78.7729 11.2538 78.6987 11.6236 78.6616 12.0305C78.6616 12.0675 78.6616 12.0675 78.6987 12.0675C78.6616 12.2524 78.7729 12.4744 78.9954 12.5483C79.1809 12.6223 79.3663 12.7333 79.5147 12.8812C79.663 12.9922 79.7743 13.1032 79.9227 13.2511C80.1452 13.473 80.3677 13.732 80.6274 13.9909C80.9983 14.3608 81.4434 14.6567 81.9626 14.6936C82.4077 14.7306 82.8528 14.5827 83.2608 14.3238C84.2622 13.621 86.3021 12.3264 86.1908 10.8099Z" fill="#522A1D"/>
<path d="M85.7826 28.7861C85.4488 28.4902 84.8183 28.3792 84.4103 28.2683L83.9282 28.1573L82.5558 27.8244C82.0737 27.7134 81.5544 27.6025 81.1093 27.3436C80.553 27.0477 80.3304 26.6038 80.145 26.012C79.9596 25.4202 79.7741 24.7914 79.6257 24.1996C79.4774 23.7187 79.3661 23.2749 79.2548 22.794C79.0323 21.8693 78.921 20.9446 78.9581 19.946C78.9952 19.2432 79.0694 18.5774 79.1065 17.8746C79.1065 17.8377 79.1065 17.7637 79.1065 17.7267C79.1436 17.2089 79.2178 16.654 79.2548 16.1362C79.2919 15.8773 79.2919 15.6554 79.2919 15.5074C79.2548 15.2485 79.1065 15.1375 78.6243 14.9896C78.1051 14.8786 77.5858 14.9156 77.1778 15.2485C76.5102 15.7293 76.0651 16.5431 75.62 17.1719C75.62 17.2089 75.583 17.2089 75.583 17.2458C75.5459 17.2828 75.5459 17.3198 75.5088 17.3568C75.4717 17.3938 75.4346 17.4308 75.3975 17.5048C74.9895 18.0596 74.5815 18.6144 74.1735 19.2062C74.0623 19.3542 73.951 19.5021 73.8397 19.6501C73.3576 20.3158 72.9496 21.0556 73.0979 21.9433C73.0979 22.0173 73.135 22.0543 73.1721 22.0543C73.3576 22.7201 73.5059 23.3858 73.6914 24.0516C73.7285 24.2736 73.8026 24.4585 73.8397 24.6804C73.8768 24.8654 73.951 25.0503 73.9881 25.2352C74.1735 25.938 74.3961 26.6778 74.2848 27.3805C74.1735 28.1203 73.6543 28.5642 73.0238 28.934C72.4674 29.2669 71.8369 29.5258 71.3547 29.8957H71.3176C70.8726 29.8217 71.2434 30.3026 71.5402 30.3396C72.6158 30.5615 73.5059 31.1533 74.4703 31.5972C75.5088 32.078 76.5844 32.4479 77.7342 32.6328C79.7741 32.9657 81.9253 32.7438 83.7427 31.6711C84.5216 31.2273 85.4117 30.5615 85.8568 29.7478C86.1165 29.3039 86.0423 28.971 85.7826 28.7861Z" fill="#A1553C"/>
<path d="M73.1722 22.0173C73.3948 22.905 73.6173 23.7557 73.8398 24.6434C73.8769 24.8284 73.9511 25.0133 73.9882 25.1983C75.3605 24.2366 75.4718 23.8297 75.7685 22.1283C75.9169 21.3145 76.1765 20.2049 76.1765 20.2419C76.2136 21.0926 76.3249 17.5418 75.5089 17.2458C74.9525 18.0226 74.3591 18.7993 73.8028 19.6131C73.3206 20.2789 72.9126 21.0186 73.061 21.9063C73.098 21.9803 73.1351 22.0173 73.1722 22.0173Z" fill="#7D3F2A"/>
<path d="M97.0581 69.8058H70.613C70.8356 65.922 71.2065 58.7464 71.9854 56.1572C72.0595 55.8983 72.0966 55.6394 72.0966 55.3435C72.0966 55.1955 72.0966 55.0846 72.0595 54.9366C71.9854 53.753 71.9112 52.6064 71.837 51.4228C71.7999 51.0529 72.0595 50.8309 72.3563 50.8309C72.3934 50.8309 72.3934 50.8309 72.4304 50.794C74.2478 50.3131 76.1394 49.8323 78.1052 49.3884C78.1423 49.3884 78.2164 49.3514 78.2535 49.3514C78.7728 49.2405 79.292 49.1295 79.8113 49.0185C79.8855 49.0185 79.9226 48.9815 79.9968 48.9815C82.9268 48.3528 85.8569 47.8349 88.6387 47.576C88.7129 47.502 88.787 47.465 88.8983 47.4281C89.195 47.3541 89.6401 47.539 89.6772 47.8719C89.6772 49.0185 89.7514 49.9802 89.9368 50.9789C90.011 51.3858 90.1223 51.7926 90.2335 52.2365C90.3819 52.7173 90.4561 53.2352 90.5303 53.716C90.5303 53.79 90.5674 53.9009 90.5674 53.9749C90.7157 54.8256 90.827 55.6394 91.1608 56.4531C91.1979 56.5641 91.235 56.675 91.3091 56.749C91.68 57.5628 92.1251 58.3765 92.5702 59.1902C92.9411 59.856 93.312 60.4848 93.6458 61.1506C95.0181 63.9247 96.3163 66.7728 97.0581 69.8058Z" fill="#FFE9DB"/>
<path d="M79.1808 13.362C79.0695 13.1401 78.8841 12.9552 78.6986 12.7702C78.6244 12.6962 78.5132 12.6223 78.4019 12.5483C77.9197 12.1784 77.3263 11.9565 76.7699 11.8085C75.8798 11.5866 74.8784 11.6236 74.0624 12.0674C73.9882 12.0305 73.8769 12.0305 73.7657 12.0674C72.2821 12.7702 70.9098 13.9168 70.2051 15.3964C69.9825 15.8772 69.8342 16.3581 69.7971 16.9129C69.76 17.3567 69.76 17.8006 69.7971 18.2814C69.7971 18.4294 69.76 18.5773 69.6858 18.7253C69.5374 18.9102 69.3891 19.0952 69.2407 19.2801C68.9811 19.576 68.4989 19.9089 68.5731 20.3527C68.6844 20.8706 69.2407 20.9076 69.8342 20.8336C69.9454 20.7966 70.0567 20.9076 70.0938 21.0185C70.0938 21.0555 70.0938 21.0925 70.0938 21.1295C70.0938 21.1665 70.0938 21.2035 70.0938 21.2405C70.0938 21.2774 70.0938 21.2774 70.0938 21.3144C70.0938 21.3514 70.0938 21.3514 70.0938 21.3884C70.0938 21.4254 70.0938 21.4624 70.0938 21.4994C70.0938 21.5733 70.0938 21.6103 70.0938 21.6843C70.0938 21.9432 70.1309 22.2021 70.168 22.4611C70.2792 23.1638 70.3534 24.0885 71.0581 24.3474C71.7257 24.6064 72.7272 24.4214 73.6173 24.0885C74.2107 23.8296 74.8042 23.4967 75.1751 23.1268C75.3605 22.9419 75.5089 22.757 75.6572 22.498C75.8798 22.0912 76.0281 21.6473 76.2136 21.2774C76.5845 20.5377 76.8812 19.7609 77.2892 19.0582C77.2892 19.0582 77.2892 19.0212 77.3263 19.0212C77.5117 18.6883 77.7343 18.3554 77.9197 18.0225C77.9568 17.9855 77.9939 17.9115 77.9939 17.8746C78.2906 17.3937 78.5873 16.9129 78.847 16.395C78.9953 16.1361 79.1437 15.8402 79.2179 15.5443C79.5146 14.8046 79.5517 14.0278 79.1808 13.362Z" fill="#A1553C"/>
<path d="M72.3932 16.0622C72.3561 15.9882 72.282 15.8772 72.1707 15.8402C72.1336 15.8402 72.0965 15.8402 72.0594 15.8402C72.0223 15.8033 71.9481 15.8033 71.874 15.8402C71.3547 15.9512 70.7613 16.1361 70.3533 16.469C70.0195 16.7649 69.9824 17.3198 70.4646 17.4677C70.8725 17.5787 71.3918 17.3198 71.7256 17.0978C71.9852 16.9129 72.5416 16.432 72.3932 16.0622Z" fill="#522A1D"/>
<path d="M81.9999 15.2115C81.9629 15.1375 81.9628 15.0266 81.9258 14.9526C81.8887 14.8786 81.8887 14.7676 81.8516 14.6937C81.8145 14.5827 81.8145 14.4717 81.7774 14.3608C81.7032 14.0649 81.629 13.732 81.592 13.4361C81.5549 13.0662 81.5178 12.6593 81.629 12.2525C81.6661 12.0675 81.4807 11.8086 81.2952 11.8456H81.2581C81.2211 11.8456 81.1469 11.8086 81.1098 11.8086C80.9985 11.7716 80.8131 11.6976 80.6647 11.6237C80.6276 11.5867 80.5534 11.5867 80.5163 11.5497C80.0713 11.3648 79.5891 11.1058 79.4037 11.0319C79.2182 10.9579 79.0328 10.9209 78.8473 10.8469C77.4379 10.477 75.843 10.3661 74.4336 10.625C72.7275 10.9209 70.6876 11.9566 70.057 13.695C69.7974 14.3608 69.9458 14.8786 70.2796 15.3225C70.465 15.5814 70.7617 15.8033 71.0585 15.9882C71.4294 16.2102 71.8373 16.3951 72.2453 16.5431C72.3566 16.5801 72.4679 16.617 72.5791 16.654C72.6904 16.691 72.7646 16.765 72.8017 16.876C72.95 17.5787 73.2097 18.4295 73.7289 18.8363C73.8773 18.9473 74.0256 19.0213 74.174 19.0952C74.4336 19.2062 74.6932 19.2802 74.99 19.2802C75.1754 19.2802 75.3609 19.2802 75.5463 19.2062C75.5834 19.2062 75.6576 19.1692 75.6947 19.1692C75.7689 19.1322 75.8801 19.1322 75.9543 19.0952C76.0656 19.0582 76.1027 18.9843 76.1768 18.9103C76.3252 18.6514 76.3623 18.2445 76.9186 18.5034C77.067 18.5774 77.2154 18.6884 77.3266 18.7993C77.3637 18.8363 77.4008 18.8733 77.4379 18.9103C77.8459 19.3911 78.0684 20.0569 78.2168 20.6487C78.328 21.1296 78.4022 22.942 79.1811 22.794C79.2182 22.794 79.2553 22.794 79.2553 22.757C79.2924 22.757 79.3295 22.7201 79.3666 22.6831C80.1454 22.0543 80.776 21.2405 81.3694 20.4638C81.9999 19.6501 82.445 18.6884 82.445 17.6527C82.4079 16.839 82.1854 16.0252 81.9999 15.2115Z" fill="#522A1D"/>
<path d="M73.2834 17.1349C74.6928 17.1718 76.0281 17.7637 77.4375 17.9486C78.6614 18.0965 79.8854 17.8746 80.8126 17.0239C81.2577 16.617 81.5915 16.0992 81.777 15.5074C81.8141 15.4334 81.6657 15.3594 81.6286 15.4704C81.2948 16.5061 80.4417 17.3568 79.4032 17.6897C78.1051 18.0965 76.7328 17.6897 75.4717 17.3568C74.767 17.1718 74.0252 17.0239 73.3205 16.9869C73.1721 16.9869 73.1721 17.1349 73.2834 17.1349Z" fill="#2E1912"/>
<path d="M76.0283 17.1347C75.8058 17.2456 75.6203 17.4306 75.4349 17.6525C75.101 18.1333 74.7672 18.8731 74.9898 19.4279C75.1752 19.9457 75.7687 20.3896 76.325 20.2047C76.9555 20.0197 77.2894 19.058 77.3635 18.4292C77.4748 17.6525 76.8814 16.7648 76.0283 17.1347Z" fill="#A1553C"/>
<path d="M71.0951 17.7634C70.9468 17.5415 70.6501 17.6154 70.5388 17.8374C70.4275 18.0593 70.3904 18.3182 70.4646 18.5771C70.5759 18.984 71.0581 19.1319 71.2064 18.6881C71.3177 18.4292 71.2435 17.9853 71.0951 17.7634Z" fill="#40241B"/>
<path d="M76.5476 17.6156C75.9171 18.0225 75.6574 18.7253 75.5091 19.4281C75.472 19.502 75.6203 19.539 75.6574 19.465C75.8058 18.7993 76.0283 18.0965 76.6218 17.7266C76.696 17.6896 76.6218 17.5417 76.5476 17.6156Z" fill="#7D3F2A"/>
<path d="M69.7229 20.5376C69.9455 20.4636 70.1309 20.4636 70.3535 20.4636C70.4647 20.4636 70.4647 20.3157 70.3535 20.3157C70.1309 20.3157 69.9084 20.3157 69.6858 20.3896C69.5746 20.3896 69.6117 20.5376 69.7229 20.5376Z" fill="#733024"/>
<path d="M69.0182 41.7316C68.8328 41.1768 68.4248 40.7329 67.9797 40.326C67.0154 39.4753 65.9027 38.8465 64.6787 38.4397C64.4933 38.4027 64.382 38.4397 64.3078 38.5506C64.1224 38.5136 63.9369 38.5876 63.8628 38.8095C62.8984 41.1768 61.897 43.581 61.1181 46.0592C60.7472 47.2428 60.4134 47.6866 60.1909 48.9442C59.9312 50.6087 60.3392 51.4224 61.7486 51.9402C64.0853 52.754 64.7158 51.6074 65.2722 50.7197C67.8685 46.651 68.3506 43.6919 68.6102 42.3974C68.6844 41.7686 69.2037 42.3234 69.0182 41.7316Z" fill="#A1553C"/>
<path d="M99.9509 42.1758C99.7655 41.584 97.6884 38.8099 95.6485 36.7386C94.2391 35.333 92.8297 34.2234 92.125 34.4453C91.8282 34.2234 90.2705 34.7782 89.1578 35.8509C89.0465 35.9618 89.1578 36.1468 89.269 36.1098C88.8981 37.0345 88.7127 39.3647 91.3832 42.1388C91.4944 42.2498 91.5686 42.3237 91.6799 42.4347C92.1991 42.9156 92.7555 43.3594 93.2376 43.8772C93.7569 44.506 93.9424 45.2088 93.794 46.0225C93.6456 46.7993 93.3118 47.576 93.0522 48.3158C92.7555 49.0556 92.4588 49.7953 92.125 50.5351C91.6428 51.6077 91.1235 52.6804 90.5672 53.716C90.493 53.827 90.4559 53.938 90.3817 54.0489C90.1963 54.3818 90.0108 54.7147 89.8254 55.0476C89.7883 55.1216 89.7512 55.1586 89.7141 55.2325C89.677 55.2695 89.6399 55.3435 89.6399 55.3805C89.5658 55.4915 89.5287 55.6394 89.5658 55.7874C89.6028 56.0833 89.8625 56.1942 90.1221 56.2682C90.1963 56.2682 90.2334 56.3052 90.3076 56.3052C90.6043 56.3792 90.901 56.4162 91.1977 56.4531C91.7541 56.5271 92.3104 56.6011 92.9038 56.6381C93.1264 56.6381 93.3489 56.6381 93.5344 56.5641C93.6827 56.4901 94.0165 56.0833 94.4616 55.4175C95.9081 53.2722 98.4673 48.7966 99.3575 46.5034C99.9138 45.0609 100.396 43.6183 99.9509 42.1758Z" fill="#A1553C"/>
<path d="M71.6886 21.5364C71.6886 21.4994 71.6886 21.4994 71.6515 21.4624C71.6144 21.3884 71.5773 21.3145 71.5032 21.2775L71.4661 21.2405L71.429 21.2035C71.429 21.2035 71.3919 21.2035 71.3919 21.1665H71.3548C71.3177 21.1665 71.2806 21.1295 71.2435 21.1295C71.2064 21.1295 71.2064 21.1295 71.1694 21.0925C71.1323 21.0925 71.1323 21.0925 71.1323 21.0925H71.0952C71.0581 21.0925 71.0581 21.0925 71.021 21.0925C71.021 21.0925 71.021 21.0925 70.9839 21.0925H70.9468C70.9097 21.0925 70.8726 21.0925 70.8355 21.0925C70.8355 21.0925 70.8355 21.0925 70.7985 21.0925C70.7985 21.0925 70.7985 21.0925 70.7614 21.0925H70.7243H70.6872C70.613 21.0925 70.4646 21.1295 70.3534 21.1295C70.3163 21.1295 70.3163 21.1295 70.2792 21.1295H70.2421C70.1679 21.1295 70.1308 21.1665 70.0938 21.1665C70.0938 21.2035 70.0938 21.2035 70.0938 21.2405C70.0938 21.2775 70.0938 21.2775 70.0938 21.3145C70.0938 21.3514 70.0938 21.3884 70.0938 21.4254C70.0938 21.4994 70.0938 21.5364 70.0938 21.6104C70.0938 21.8693 70.1308 22.1282 70.1679 22.3871C70.6501 22.3871 71.9482 22.2761 71.6886 21.5364Z" fill="#7D3F2A"/>
<path d="M71.2067 21.4994C71.318 21.4254 71.4292 21.3514 71.5405 21.2775C71.3551 21.1295 71.0954 21.0925 70.8729 21.0925C70.8358 21.0925 70.1311 21.1665 70.1311 21.2035C70.1311 21.3514 70.1682 21.4994 70.1682 21.6473C70.502 21.6473 70.8729 21.6473 71.2067 21.4994Z" fill="white"/>
<path d="M79.1807 11.2166C79.5145 11.3645 79.8112 11.5495 80.0708 11.8454C80.2934 12.1043 80.4417 12.4372 80.7013 12.6961C80.9239 12.955 81.2577 13.103 81.4431 13.3989C81.6286 13.6948 81.6657 14.0647 81.7399 14.3976C81.7399 14.5085 81.8882 14.4345 81.8882 14.3606C81.8511 14.0277 81.7769 13.6578 81.5915 13.3619C81.4061 13.029 81.0722 12.8811 80.8126 12.5852C80.553 12.3262 80.4046 11.9564 80.145 11.6974C79.8854 11.4385 79.5887 11.2536 79.2548 11.1056C79.1065 11.0317 79.0694 11.1796 79.1807 11.2166Z" fill="#2E1912"/>
<path d="M81.406 16.876C80.9609 18.0226 80.1449 18.9473 79.1064 19.5761C79.0322 19.6131 79.1064 19.7611 79.1806 19.7241C80.2562 19.0953 81.0722 18.0966 81.5543 16.913C81.5914 16.839 81.4431 16.802 81.406 16.876Z" fill="#2E1912"/>
<path d="M71.8744 57.1558C73.0983 57.4147 74.3965 57.4887 75.6575 57.4887C77.0299 57.4887 78.4022 57.4147 79.7374 57.2298C80.8872 57.0448 81.9999 56.7489 83.1126 56.416C84.3736 56.0461 85.6718 55.6393 86.8957 55.1584C88.0826 54.7146 89.3066 54.1967 90.3451 53.457C90.4193 53.383 90.308 53.309 90.2338 53.346C89.3437 54.0118 88.2681 54.4926 87.2296 54.8995C86.0056 55.3804 84.7816 55.7872 83.5206 56.1571C82.445 56.49 81.3694 56.8229 80.2567 57.0078C78.9214 57.2298 77.5862 57.3407 76.251 57.3407C74.8045 57.3777 73.358 57.3037 71.9486 57.0078C71.8373 56.9708 71.7631 57.1188 71.8744 57.1558Z" fill="#2B2625"/>
<path d="M74.9899 57.4514C74.9899 57.4514 74.9899 57.4884 74.9899 57.4514C74.8786 58.3391 74.8044 59.1898 74.7302 60.0775C74.5819 61.853 74.5077 63.6284 74.4706 65.4038C74.4335 66.8833 74.4335 68.3259 74.5077 69.8054H74.3593C74.3222 69.0656 74.2852 68.3259 74.2852 67.5861C74.2852 65.7737 74.3222 63.9983 74.3964 62.2228C74.4706 60.6324 74.5819 59.0049 74.8044 57.4514C74.8044 57.4514 74.8044 57.4514 74.8044 57.4144C74.8415 57.3034 74.9899 57.3404 74.9899 57.4514Z" fill="#2B2625"/>
<path d="M87.7485 69.8056H87.6001C87.5259 69.1028 87.4517 68.3631 87.3776 67.6603C87.155 65.552 86.9325 63.4437 86.6729 61.3724C86.5987 60.9285 86.5616 60.4847 86.4874 60.0408C86.4132 59.486 86.302 58.8942 86.2278 58.3394C86.1907 58.0435 86.1165 57.7476 86.0423 57.4517C85.9311 56.8968 85.8198 56.305 85.6714 55.7502C85.6343 55.6392 85.7827 55.5653 85.8198 55.6762C85.9311 56.1941 86.0794 56.7119 86.1536 57.2297C86.2278 57.5256 86.2649 57.8215 86.339 58.1544C86.3761 58.3394 86.4132 58.5243 86.4503 58.7092C86.5245 59.1161 86.5987 59.523 86.6358 59.9298C87.155 63.1848 87.4517 66.5137 87.7485 69.8056Z" fill="#2B2625"/>
<path d="M81.4059 69.8056H81.2576C81.2205 69.2878 81.2205 68.77 81.2205 68.2521C81.1092 64.4794 81.0721 60.7066 81.1834 56.9338V56.8969C81.1834 56.7489 81.3318 56.7489 81.3318 56.8969C81.2947 57.8585 81.2947 58.8202 81.2947 59.8189C81.2205 63.1108 81.2576 66.4767 81.4059 69.8056Z" fill="#2B2625"/>
<path d="M93.9426 69.2508C93.9797 69.4358 94.0168 69.6207 94.0539 69.8056H93.9056C93.8314 69.4727 93.7572 69.1029 93.683 68.77C93.0896 66.0329 92.3478 63.3697 91.5318 60.7436C91.4205 60.3367 91.2722 59.8929 91.1609 59.486C91.0496 59.0791 90.9013 58.7093 90.79 58.3024C90.79 58.2654 90.7529 58.1914 90.7529 58.1544C90.5304 57.4886 90.3449 56.8599 90.1224 56.2311C90.0111 55.8982 89.8628 55.5283 89.7515 55.1954C89.6773 55.0474 89.6402 54.8995 89.566 54.7146C89.4919 54.5296 89.4177 54.3447 89.3435 54.1227C89.3435 54.0858 89.3435 54.0488 89.3435 54.0118C89.3806 53.9748 89.3806 53.9378 89.4177 53.9748L89.4548 54.0118C89.529 54.2337 89.6031 54.4186 89.6773 54.6406C89.7144 54.7515 89.7515 54.8625 89.8257 55.0105C89.974 55.4173 90.1224 55.8612 90.2708 56.2681C90.382 56.6379 90.5304 57.0078 90.6416 57.3777C90.7158 57.6366 90.8271 57.8955 90.9013 58.1544C90.9013 58.1914 90.9013 58.1914 90.9384 58.2284C91.0496 58.5983 91.198 59.0052 91.3093 59.375C91.9398 61.3354 92.4961 63.3327 93.0525 65.3301C93.3492 66.6617 93.6459 67.9562 93.9426 69.2508Z" fill="#2B2625"/>
<path d="M80.9612 13.8429C79.218 12.4373 76.8071 11.9565 74.6559 12.6223C74.5817 12.6593 74.6188 12.8072 74.693 12.7702C76.77 12.1414 79.1438 12.5853 80.8499 13.9538C80.9241 13.9908 81.0354 13.8799 80.9612 13.8429Z" fill="#2E1912"/>
<path d="M80.6273 12.4001C80.5161 11.3275 80.887 9.92194 81.9626 9.44109C82.4447 9.21917 83.0753 9.25615 83.4833 9.62603C84.0025 10.0699 83.8912 10.8096 83.7058 11.4015C83.6687 11.5124 83.8171 11.5494 83.8542 11.4384C84.0025 10.9206 84.1138 10.3288 83.8542 9.84796C83.6316 9.47808 83.2236 9.21917 82.8156 9.14519C81.8513 8.99724 81.0353 9.737 80.7015 10.5877C80.479 11.1425 80.4048 11.7713 80.479 12.3631C80.479 12.5111 80.6273 12.5111 80.6273 12.4001Z" fill="#2E1912"/>
<path d="M80.998 12.1783C81.5172 11.5495 82.1848 10.7727 83.1121 10.8837C83.2234 10.8837 83.2234 10.7358 83.1121 10.7358C82.1477 10.6248 81.443 11.4015 80.9238 12.0673C80.8125 12.1413 80.9238 12.2523 80.998 12.1783Z" fill="#2E1912"/>
<path d="M92.533 31.1531C93.2748 31.8928 96.0936 35.6286 95.9823 35.9985C95.834 36.6273 93.9795 39.7713 92.3476 41.2878C92.125 41.5097 91.4574 42.3234 91.1236 42.2495C91.0865 42.2495 90.5672 42.5824 90.5672 42.6193C90.5672 42.8783 90.6785 45.9483 90.4931 47.0949C90.3818 47.6867 90.3076 48.2785 90.1963 48.8703C90.0851 49.4251 90.0851 50.6457 89.8996 51.1636C89.7513 51.6814 89.3433 51.8663 88.8611 52.0513C84.7071 53.4938 83.1122 53.9377 78.8098 54.8993C77.3633 55.2322 72.7641 56.2679 71.7998 54.6774C71.6514 54.4185 71.6144 54.0856 71.5402 53.7527C71.0951 51.0896 69.4632 48.4634 68.6472 45.8373C68.573 45.5414 67.7941 44.9866 67.4974 44.8016C65.4575 43.766 63.0466 40.8809 62.7128 39.9562C62.5274 39.5124 61.9339 38.4397 62.2677 37.9589C63.5659 36.0355 65.3091 32.3737 67.2378 31.0421C68.6101 30.0804 70.242 29.4147 71.7998 28.7859C73.0238 28.268 73.5059 29.5996 74.3961 30.1914C75.3604 30.8572 76.5473 31.1161 77.7342 31.0791C79.3661 31.0051 80.961 30.3024 82.2962 29.3407C83.4831 28.49 83.7798 27.6762 85.3376 28.0831C86.5245 28.379 88.416 28.8968 89.6029 29.2667C90.1963 29.4516 90.7527 29.6736 91.2349 30.0435C91.717 30.3763 92.125 30.7832 92.533 31.1531Z" fill="#ED9768"/>
<path d="M94.6474 54.0858C93.3492 53.9009 92.6445 54.0488 91.3464 54.1598C91.1609 54.1598 90.8271 54.0118 90.6046 53.9749C90.4933 53.9749 90.4191 53.9749 90.3821 54.0488C90.1966 54.3447 89.9741 54.5297 89.6773 54.6776C89.6403 54.7146 89.5661 54.7146 89.529 54.7516C89.121 54.9365 88.713 54.9735 88.3792 55.0475C87.897 55.1585 87.452 55.1955 86.9698 55.1585C86.9327 55.1585 86.8585 55.1585 86.8214 55.1585C86.7102 55.1585 86.5989 55.1215 86.4876 55.1215C86.2651 55.1215 86.0425 55.1215 85.8571 55.1955C85.7458 55.2324 85.6716 55.3434 85.5975 55.4174C85.5604 55.4914 85.4862 55.5653 85.4491 55.6393C85.412 55.6763 85.3749 55.7503 85.3749 55.7873C85.3008 55.8982 85.2266 56.0092 85.1524 56.1571C84.7073 56.9339 84.2993 57.7106 83.9655 58.5614C83.8172 58.9312 83.9284 59.2641 84.3735 59.1902C84.8557 59.1162 85.1895 58.7463 85.4862 58.3764C85.6716 58.1175 85.82 57.7846 86.0055 57.4517C86.0425 57.3777 86.0796 57.3038 86.1167 57.2668C86.228 57.0818 86.3393 56.9339 86.4876 56.8229C86.6731 56.675 87.5632 56.527 87.1923 56.9339C86.8585 57.3038 86.5618 57.7476 86.2651 58.1545C86.228 58.2285 86.1909 58.2655 86.1538 58.3394C85.9684 58.5983 85.82 58.8573 85.5975 59.0792C85.5233 59.1902 85.412 59.3011 85.3378 59.4491C85.2266 59.634 84.9669 59.8559 85.004 60.1149C85.0782 60.4477 85.4862 60.4847 85.7458 60.4108C85.9684 60.3368 86.1909 60.2258 86.4134 60.0779C86.4505 60.0409 86.4876 60.0039 86.5618 59.9669C86.636 59.8929 86.7102 59.8559 86.7843 59.782C87.2665 59.3381 87.6745 58.7463 88.2308 58.4134C88.2308 58.4504 88.1937 58.4504 88.1937 58.4874C87.897 58.8573 87.6374 59.2271 87.3407 59.597C87.1552 59.819 86.8956 60.1149 86.9327 60.4477C87.0811 61.1505 88.0454 60.5957 88.3421 60.2998C88.6759 60.0039 88.9356 59.634 89.2694 59.3751C89.3065 59.3381 89.3435 59.3381 89.3806 59.3011C89.3806 59.3011 89.3806 59.3381 89.3435 59.3381C89.1581 59.671 88.8614 60.0779 88.7872 60.4847C88.713 61.0396 89.3435 60.9656 89.6773 60.8176C90.0111 60.7067 90.3079 60.5217 90.5675 60.2628C90.6788 60.1518 90.8271 59.819 91.0868 59.56C91.1238 59.523 91.1609 59.4861 91.198 59.4491C91.3464 59.3381 91.5689 59.2641 91.8286 59.3011C92.0882 59.3381 92.3107 59.3011 92.4962 59.2271C93.0896 58.9682 93.4234 58.1545 93.7201 57.3408C94.1281 56.3421 94.2023 55.9352 94.3877 55.4174C94.4248 55.2694 94.499 55.1215 94.5732 54.9735C95.0183 54.2338 94.7216 54.1228 94.6474 54.0858Z" fill="#A1553C"/>
<path d="M87.6743 56.638C88.0452 56.2681 88.5645 56.2681 89.0837 56.2681C89.195 56.2681 89.195 56.1202 89.0837 56.1202C88.5645 56.0832 87.971 56.1202 87.563 56.5271C87.4889 56.601 87.6001 56.712 87.6743 56.638Z" fill="#733024"/>
<path d="M88.5276 58.1546C88.9727 57.7107 89.529 57.4518 90.1595 57.4148C90.2708 57.4148 90.2708 57.2668 90.1595 57.2668C89.4919 57.2668 88.8614 57.5627 88.4163 58.0436C88.3421 58.1176 88.4534 58.1915 88.5276 58.1546Z" fill="#733024"/>
<path d="M90.8271 58.1546C90.6045 58.2286 90.382 58.2656 90.1966 58.3765C89.974 58.4875 89.8257 58.6725 89.6773 58.8204C89.6031 58.8944 89.7144 59.0053 89.7886 58.9314C89.9369 58.7834 90.0853 58.5985 90.2707 58.4875C90.4562 58.3765 90.6787 58.3396 90.8642 58.2656C90.9384 58.2656 90.9013 58.1176 90.8271 58.1546Z" fill="#733024"/>
<path d="M95.3891 42.3606C94.8328 43.0264 94.4619 43.8031 94.2764 44.6538C94.2393 44.7648 94.3877 44.8018 94.4248 44.6908C94.6102 43.8771 94.9811 43.1373 95.5004 42.4715C95.5745 42.3976 95.4633 42.2866 95.3891 42.3606Z" fill="#733024"/>
<path d="M63.1949 52.1625C63.7141 51.8666 64.901 50.387 65.1235 49.6473C65.5686 48.3527 64.6785 47.6129 63.8625 46.6143C63.0465 45.5786 62.3418 45.0608 61.4146 44.0991C60.4502 43.1004 59.0037 42.1757 58.1136 41.1031C57.1122 39.8825 55.8882 38.6249 55.406 36.8864C55.3318 36.6645 55.1093 36.6645 54.9609 36.7015C54.7384 36.4796 54.2933 36.4796 54.145 36.8495C53.9224 37.3673 53.4774 37.7002 53.0694 38.0701C52.6243 38.4769 52.2534 38.8838 51.9938 39.4016C51.8825 39.6236 51.9567 39.8455 52.105 39.9564C53.5144 42.5456 56.222 46.6143 59.1521 50.2761C59.931 51.2378 61.4146 51.9775 62.824 52.1625C62.9352 52.1625 63.0465 52.1625 63.1949 52.1625Z" fill="#A1553C"/>
<path d="M67.7942 39.3277C67.8684 41.2511 68.0909 43.2114 68.4247 45.0978C68.4247 45.2088 68.5731 45.1348 68.5731 45.0608C68.2393 43.1744 68.0167 41.2511 67.9425 39.3277C67.9425 39.2537 67.7942 39.2537 67.7942 39.3277Z" fill="#2B2625"/>
<path d="M75.2864 43.8398C76.2878 46.281 77.5489 48.6483 79.0325 50.8675C79.4776 51.4963 79.9226 52.1251 80.3677 52.7169C80.4419 52.7909 80.5532 52.7169 80.5161 52.643C78.9212 50.5346 77.5118 48.3154 76.362 45.9112C76.0282 45.2084 75.7315 44.5056 75.4348 43.8028C75.3977 43.6919 75.2493 43.7289 75.2864 43.8398Z" fill="#2B2625"/>
<path d="M78.4761 47.4649C79.4775 48.7225 80.6273 49.8691 81.9626 50.7568C82.0367 50.8308 82.1109 50.6828 82.0367 50.6088C80.7386 49.6841 79.5517 48.5745 78.5874 47.3169C78.5132 47.2799 78.4019 47.3909 78.4761 47.4649Z" fill="#2B2625"/>
<path d="M87.7116 38.7728C88.5276 39.9564 89.4178 41.0661 90.3821 42.1017C90.4563 42.1757 90.5675 42.0648 90.4934 41.9908C89.529 40.9551 88.6389 39.8455 87.86 38.6989C87.7858 38.6249 87.6374 38.6989 87.7116 38.7728Z" fill="#2B2625"/>
<path d="M56.1851 38.4399C56.148 38.292 56.1109 38.144 56.0738 37.9591L55.9997 36.2576C55.9626 35.8138 55.8142 34.5932 55.5917 34.1863C55.332 33.6685 54.8499 33.2986 54.3306 33.0027C54.071 32.8547 53.8484 32.7068 53.5888 32.5588C53.5146 32.5218 53.3663 32.4479 53.255 32.4109C52.4019 31.1533 52.0681 29.6368 51.5118 28.2312C51.5118 28.1573 51.4747 28.1203 51.4747 28.0463C51.4005 27.8244 51.3634 27.6394 51.2522 27.4175C51.178 27.2326 51.1038 27.0846 50.9184 27.0106C50.3991 26.8257 50.2136 27.4915 50.1395 27.8244C50.0653 28.4162 50.1024 29.008 50.2507 29.5628C50.4362 30.4505 50.6587 31.1163 50.9554 31.967C50.5104 31.967 50.2507 31.893 49.7686 32.041C49.3977 32.152 49.138 32.4109 49.138 32.7808C49.138 32.9657 49.1751 33.1506 49.2493 33.2986C48.6559 33.6685 48.0254 34.1863 48.3221 34.9261C48.3592 34.963 48.3592 35.037 48.3962 35.074L48.1737 35.7398C48.0995 35.9987 47.9883 36.2576 47.9512 36.5165C47.9512 36.9234 48.285 37.2563 48.5817 37.4782C49.0268 37.8851 49.6573 38.144 50.2507 38.07C50.3249 38.07 50.362 38.107 50.3991 38.144C50.6216 38.6988 50.9925 39.3276 51.4005 39.8085C51.6602 40.1044 51.994 40.3263 52.3278 40.4373C52.5874 40.5112 52.8841 40.5482 53.2179 40.4742C53.3292 40.4373 53.3292 40.3633 53.3292 40.3263C54.1823 39.8455 55.1466 39.3646 55.8142 38.6618L55.8513 38.6249C55.9255 38.6618 56.0367 38.6618 56.1109 38.5879C56.1851 38.5509 56.2222 38.5139 56.1851 38.4399Z" fill="#A1553C"/>
<path d="M52.81 32.1888C52.4762 32.0778 52.1053 31.8929 51.7344 31.8189C51.5118 31.7819 51.3635 31.8559 51.2893 32.0778C51.141 32.5956 51.5489 33.1875 51.9198 33.4834C52.4391 33.8532 53.1438 34.0012 53.5147 34.593C53.9227 35.2218 53.3292 35.8506 53.1067 36.4424C52.8471 37.0712 52.8842 37.8109 53.2551 38.4028C53.2922 38.4767 53.4405 38.4028 53.4034 38.3288C53.0696 37.8109 53.0325 37.1452 53.2551 36.5903C53.4405 36.1095 53.8485 35.6656 53.8485 35.1108C53.8485 34.63 53.4776 34.2601 53.0696 34.0012C52.5504 33.7053 51.9569 33.5203 51.6602 32.9655C51.5489 32.7806 51.2522 31.9668 51.7344 32.0408C51.8827 32.0778 52.0682 32.1518 52.2166 32.2258C52.402 32.2997 52.5875 32.3737 52.81 32.4477C52.8471 32.3737 52.8842 32.2258 52.81 32.1888Z" fill="#733024"/>
<path d="M49.6946 33.7793C49.9913 34.0382 50.2881 34.2601 50.6219 34.4821C50.9186 34.667 51.2524 34.9629 51.5862 34.9999C52.2538 35.0739 52.6618 34.3711 52.7731 33.8163C52.8102 33.7053 52.6618 33.6683 52.6247 33.7793C52.5505 34.0752 52.4393 34.3711 52.2167 34.593C51.9571 34.815 51.6604 34.8889 51.3266 34.741C50.7702 34.4821 50.251 34.0382 49.7688 33.6313C49.7317 33.6313 49.6205 33.7423 49.6946 33.7793Z" fill="#733024"/>
<path d="M48.9156 35.4811C49.2494 35.814 49.5832 36.1099 49.9541 36.4058C50.2509 36.6277 50.5847 36.8496 50.9556 36.7756C51.6974 36.5907 51.8828 35.555 51.8086 34.9262C51.8086 34.8153 51.6603 34.8153 51.6603 34.9262C51.6974 35.4811 51.549 36.5537 50.8443 36.6277C50.4734 36.6647 50.1396 36.3688 49.8429 36.1468C49.5462 35.9249 49.2865 35.666 49.0269 35.4071C48.9527 35.2961 48.8785 35.4071 48.9156 35.4811Z" fill="#733024"/>
<path d="M50.659 37.9959C50.9928 37.626 51.067 37.1082 50.8445 36.7013C50.8074 36.6273 50.659 36.7013 50.6961 36.7753C50.8816 37.1452 50.8074 37.589 50.5477 37.8849C50.5107 37.9589 50.6219 38.0698 50.659 37.9959Z" fill="#733024"/>
<path d="M61.9337 44.3948C62.4529 44.7277 62.9722 45.0976 63.3802 45.5784C63.7882 46.0223 64.0849 46.5771 64.3074 47.1319C64.3445 47.2059 64.4929 47.1689 64.4558 47.0949C64.2332 46.5031 63.9365 45.9853 63.5285 45.5044C63.1205 45.0236 62.6013 44.6167 62.0449 44.2469C61.9337 44.2099 61.8595 44.3578 61.9337 44.3948Z" fill="#733024"/>
</svg>
