<svg width="152" height="100" viewBox="0 0 152 100" fill="none" xmlns="http://www.w3.org/2000/svg">
<mask id="mask0_385_13822" style="mask-type:alpha" maskUnits="userSpaceOnUse" x="0" y="0" width="152" height="100">
<rect width="152" height="100" fill="#D9D9D9"/>
</mask>
<g mask="url(#mask0_385_13822)">
<path d="M65.1089 95.8414C65.1016 95.8219 65.1016 95.8024 65.1089 95.7828C65.1358 95.6778 65.1309 95.5606 65.082 95.4287C63.5995 91.4549 61.8312 87.5203 59.4231 83.9886C58.0163 81.9248 56.4971 79.4776 54.0914 78.3321C51.5196 77.1085 48.9502 78.3223 49.1627 81.2971C49.2995 83.1973 50.4449 84.7531 51.7467 86.0939C53.2219 87.6155 55.1392 89.0932 56.4385 90.7882C56.5191 90.8932 56.3823 91.0251 56.2724 90.9494C55.3834 90.3241 54.4504 89.7746 53.4783 89.2715C52.1888 88.6047 49.9809 87.2687 48.7426 88.7366C47.6582 90.0188 48.596 91.7016 49.8075 92.4954C50.7063 93.084 51.7736 93.3429 52.7896 93.6677C53.9375 94.0341 55.0634 94.4981 56.0502 95.1844C57.6035 96.2688 59.1495 98.3204 61.2646 97.8979C61.3037 97.8906 61.3452 97.9028 61.3721 97.9297C62.1781 98.7649 63.1867 99.3633 64.2931 98.7014C65.4337 98.02 65.4679 96.8965 65.1113 95.839L65.1089 95.8414Z" fill="#DA9F7B"/>
<path d="M93.6553 85C90.2897 84.9707 87.1879 87.3276 84.9214 89.5355C83.4315 90.9863 82.1517 92.6324 81.082 94.3958C80.5227 95.319 80.0196 96.274 79.5726 97.2509C79.2111 98.0423 78.3661 99.2341 78.9522 100.101C79.3235 100.646 79.9341 100.756 80.5202 100.626C80.8255 100.809 81.2994 100.79 81.6315 100.805C82.247 100.834 82.8649 100.819 83.4438 100.597C84.5599 100.17 85.4831 99.239 86.4918 98.6187C87.5323 97.9812 88.6216 97.5929 89.7841 97.2338C90.6097 96.9774 91.4865 96.6697 92.0555 95.9956C92.4243 95.5584 92.7443 94.8061 92.1899 94.3812C91.23 93.6411 89.4886 94.0734 88.4311 94.3518C88.0159 94.4618 87.6178 94.6034 87.2343 94.7597C88.3627 93.7193 89.5252 92.6568 90.8515 91.9095C91.9505 91.2891 93.118 90.7787 94.1438 90.0411C95.1573 89.3108 96.3468 88.2191 96.3126 86.8758C96.2759 85.4616 94.8789 85.0147 93.6553 85.0025V85Z" fill="#DA9F7B"/>
<path d="M87.4958 48.1099C87.337 47.8511 87.1245 47.619 86.8193 47.4285C85.7006 46.7276 84.2963 46.7862 83.0336 46.5615C77.6482 45.5943 67.3585 46.3563 62.6936 46.9767C60.6786 47.2453 58.6783 47.6288 56.7293 48.1954C55.6278 48.5154 53.8033 48.7767 53.459 50.0541C53.0975 51.3974 53.5029 53.5344 54.0012 54.8069C54.4799 56.0257 55.8769 58.2042 57.3839 57.3958C57.6794 57.2371 58.0189 57.1809 58.3535 57.1272C64.9283 56.0598 71.5423 54.9779 78.2343 55.1977C79.8463 55.2099 81.4583 55.2758 83.0702 55.332C84.2255 55.3711 85.7275 55.63 86.8119 55.0902C88.5924 54.2036 88.3579 51.3827 88.0136 49.7512C87.889 49.1553 87.7864 48.5838 87.4982 48.1099H87.4958Z" fill="#59242E"/>
<path d="M61.7923 47.0501C61.5969 46.8816 61.3063 46.9305 61.0767 46.9818C60.8789 47.0282 60.4026 47.0819 60.6786 47.3212C62.5592 48.9479 63.0501 51.8274 63.1259 54.1183C63.1478 54.7924 64.2249 54.7949 64.2029 54.1183C64.1175 51.5514 63.8879 48.8599 61.7948 47.0477L61.7923 47.0501Z" fill="#856738"/>
<path d="M81.1627 46.1566C81.1139 46.1322 81.0553 46.1175 80.982 46.1175C80.8501 46.1175 80.1907 46.0296 80.3128 46.3153C80.3152 46.3227 80.3201 46.3275 80.3201 46.3349C81.0895 48.66 81.2067 50.8728 80.6132 53.6791C80.4398 54.5046 81.4387 54.8221 81.5975 54.1114C82.1739 51.5347 82.0933 48.9531 81.3435 46.4179C81.3068 46.2909 81.2556 46.2005 81.1627 46.1541V46.1566Z" fill="#856738"/>
<path d="M86.1574 71.0758C85.9718 68.3306 85.7837 65.5878 85.5981 62.8426C85.4296 60.3514 85.4515 57.7601 85.0363 55.2933C84.5283 52.2721 81.5902 51.4539 78.8132 51.2927C74.4365 51.0362 69.7838 50.4232 65.4632 51.427C65.3728 51.449 65.3045 51.4905 65.2581 51.5442C61.8241 52.2134 59.0422 54.0354 58.3779 57.6037C58.0067 59.5967 58.0555 61.6703 57.9285 63.6877C57.7746 66.1496 57.5744 68.609 57.3277 71.0636C57.0688 73.6525 56.7586 76.2366 56.4045 78.8157C56.1431 80.7036 55.8452 82.6698 56.4436 84.5284C57.6843 88.3653 61.9877 88.5632 65.4681 88.463C71.3176 88.2945 82.2301 89.9798 85.0363 85.9914C86.2697 84.2378 86.6459 83.2632 86.6752 81.2043C86.7142 78.5373 86.3381 73.7356 86.1574 71.0783V71.0758Z" fill="#856738"/>
<path d="M79.492 48.0173C79.4187 47.6925 79.2087 47.4947 78.962 47.3017C76.207 47.1356 73.4301 47.0428 70.6824 47.3726C68.2718 47.6608 65.38 48.203 63.4359 49.7246C63.0085 50.0592 61.841 50.5794 62.2709 51.2242C62.4516 51.4953 62.9816 51.8348 63.2796 51.8519C64.0392 51.9007 64.8061 51.8665 65.5656 51.803C68.4403 51.5637 71.3003 50.848 74.0993 50.1984C75.6404 49.8418 77.4062 49.556 78.8375 48.8795C79.1721 48.7232 79.4651 48.4057 79.5311 48.0857C79.514 48.0686 79.4969 48.0491 79.4896 48.0173H79.492Z" fill="#FAE1D2"/>
<path d="M77.9535 58.2238C77.6311 56.2064 77.487 54.233 77.3771 52.1985C77.233 49.5168 77.2891 47.0036 74.7686 45.4307C74.6221 45.3403 69.3661 45.0155 67.7224 45.9167C66.3205 46.6861 65.6952 48.2468 65.5145 49.7293C65.2385 51.9958 65.2312 54.2819 65.0333 56.5557C64.838 58.8076 64.3422 60.9984 64.7671 63.26C64.6084 63.2991 64.4814 63.4627 64.5937 63.6361C65.1359 64.4738 65.959 64.5227 66.914 64.4323C68.8434 64.2491 70.6581 64.2394 72.5509 64.7279C74.3021 65.1797 77.6531 66.2714 78.3491 63.768C78.3711 63.6923 78.3565 63.6288 78.3247 63.5751C78.354 63.536 77.5944 62.6934 77.6115 62.6347C78.1513 60.8543 78.2295 59.953 77.9535 58.2189V58.2238Z" fill="#913939"/>
<path d="M89.4498 67.6641C89.3375 67.1561 89.0004 66.123 88.3996 65.9618C87.8476 65.8128 87.4397 66.5821 87.2248 66.9363C86.7705 67.6836 86.4848 68.5141 86.2821 69.3567C86.072 70.2359 85.9108 71.1494 85.8669 72.0506C85.8449 72.4878 85.8595 72.9299 85.9377 73.3622C86.0403 73.9288 85.4858 73.7993 85.5249 74.3782C85.5298 74.4344 85.8009 74.6493 85.8424 74.6664C85.8791 74.7445 86.2821 75.299 86.3895 75.2745C87.0636 75.1109 87.8183 73.6968 88.3141 72.903C88.8246 72.0823 89.0981 71.1591 89.3204 70.2286C89.5206 69.3909 89.6403 68.5165 89.4522 67.6641H89.4498Z" fill="#FAE1D2"/>
<path d="M59.4452 75.6019C59.1033 74.9034 58.1923 74.686 57.4791 74.5688C56.7244 74.4467 56.3263 72.0531 55.3982 73.5137C54.4774 75.2551 52.8703 78.8796 52.5479 80.831C52.4234 81.5906 52.5357 82.5993 52.9876 83.2954C53.3393 83.8376 54.0598 83.8034 54.6801 83.7228C56.3385 83.5078 57.5182 81.952 58.2045 80.599C58.6221 79.7735 58.9396 78.8991 59.2132 78.0174C59.4379 77.2945 59.8115 76.3444 59.4476 75.6019H59.4452Z" fill="#E68B60"/>
<path d="M92.168 68.0668C91.8041 66.7138 89.628 65.6904 88.5533 64.9626C88.4214 64.8722 88.2798 64.9162 88.1943 65.0065C88.1772 64.9382 88.1332 64.8747 88.0502 64.8356C86.7191 64.2152 85.0925 64.1713 84.2743 65.5585C83.3999 67.0459 83.6735 69.0755 84.2181 70.6167C84.306 70.8658 84.6284 70.795 84.709 70.5996C86.5457 72.1676 89.7916 74.4805 91.4622 71.6327C92.0288 70.6655 92.4562 69.1512 92.1656 68.0644L92.168 68.0668Z" fill="#E68B60"/>
<path d="M86.2037 73.3425C86.1793 72.3289 86.1842 71.3373 86.3331 70.3311C86.6433 68.2306 87.3956 66.2132 88.4433 64.3595C87.0561 63.3996 84.113 61.9293 82.8088 61.6143C82.7722 61.6069 80.5423 70.2163 81.9491 74.1656C82.0053 74.3243 86.2183 75.5675 86.4846 75.2256C86.531 75.167 86.5676 75.1035 86.6018 75.0351C86.1841 74.5906 86.2183 73.9091 86.2037 73.3401V73.3425Z" fill="#E3B162"/>
<path d="M60.5784 64.0881C61.018 64.2005 60.3683 63.6729 60.2657 63.7682C58.7832 65.1457 57.5474 66.8797 56.5118 68.5894C55.9257 69.559 53.6078 74.6025 54.0279 75.0812C54.9707 76.1534 56.3384 76.7982 57.7159 77.1548C58.4169 77.3355 61.3184 77.7849 61.8191 77.4845C62.63 76.996 63.0696 74.7124 63.2845 73.8844C63.9024 71.5105 64.3567 69.1633 64.3616 66.699C64.3665 64.9429 60.5857 64.0783 60.5784 64.0881Z" fill="#E3B162"/>
<path d="M68.4062 60.5103C69.857 62.7182 73.1371 62.3397 74.8639 60.5543C74.2826 59.868 74.4169 57.7627 74.39 56.8614C74.3607 55.8381 74.3632 54.8147 74.351 53.7938C74.351 53.6912 74.246 53.6473 74.1678 53.6693C74.1776 53.6473 74.1849 53.6229 74.18 53.5935C73.9871 52.4578 72.7146 51.4247 71.723 50.9118C70.834 50.4527 69.6861 50.416 68.9802 51.1951C68.9216 51.2025 68.8703 51.2391 68.8752 51.3148L69.3099 55.7453C69.3099 58.4539 69.3099 59.4748 68.4087 60.5103H68.4062Z" fill="#E68B60"/>
<path d="M84.4966 98.8893C84.4966 98.8893 84.5015 98.8722 84.5015 98.8624C84.4356 96.7888 82.9848 89.2639 81.1921 84.3889C81.2116 84.3596 81.2263 84.323 81.2312 84.2815C81.3167 83.6196 81.3118 82.9626 81.2165 82.3007C81.1994 82.1835 81.114 82.1102 81.0138 82.0809C81.0138 82.0711 81.0138 82.0638 81.0114 82.054C80.3641 80.1465 76.8423 80.9818 75.3329 81.2016C73.5646 81.4581 71.8256 81.7463 70.0305 81.717C68.3941 81.6926 66.7992 81.5704 65.1824 81.8635C65.1629 81.866 65.1531 81.8757 65.136 81.8806C64.9943 81.8684 64.8331 81.9466 64.8185 82.1126C64.733 83.0505 64.6451 83.9884 64.5596 84.9262C61.8193 90.6438 60.239 100.35 60.8863 100.711C61.807 101.224 63.5289 101.046 64.5742 101.117C66.3156 101.239 68.0595 101.317 69.8033 101.354C73.1201 101.422 76.4393 101.339 79.7462 101.102C80.6157 101.039 81.4852 100.965 82.3547 100.882C82.8725 100.833 83.8787 100.921 84.3305 100.596C84.8288 100.235 84.5894 99.429 84.4966 98.8868V98.8893Z" fill="#E3B162"/>
<path d="M84.0252 64.7942C84.1741 64.6917 84.3256 62.6718 84.201 62.4716C83.5171 61.3676 78.6642 60.4786 75.0959 59.8778C74.8492 59.8362 74.6538 59.9364 74.5366 60.0878C74.434 60.0707 74.3241 60.0805 74.2117 60.1244C73.4302 60.4322 72.4483 60.862 71.5813 60.8449C70.6654 60.8278 69.8936 60.4151 69.2098 59.8875C69.0852 59.7581 68.9069 59.6921 68.6822 59.7556C66.677 60.332 64.7842 61.182 62.9256 62.0759C61.4797 62.7695 60.1559 63.5755 59.3182 64.8944C59.1032 65.2314 60.9399 68.1354 61.912 69.1343C61.9633 73.8774 62.1196 77.9537 64.6157 83.1144C64.6157 83.2195 64.6523 83.3245 64.7256 83.41C64.7402 83.449 64.7549 83.4906 64.7695 83.5296C64.9161 83.9131 65.3972 83.9424 65.6634 83.7568C68.5454 84.4895 71.4177 84.5164 74.3973 84.3185C75.9678 84.2135 77.0546 84.4235 78.6153 84.2184C79.4921 84.1036 79.8536 84.3185 80.3738 83.6762C80.5961 83.686 81.1578 83.4271 81.258 83.1779C82.738 79.5681 83.3535 74.107 83.141 69.8182C83.7467 68.2746 84.0642 64.8577 84.0227 64.7942H84.0252Z" fill="#E3B162"/>
<path d="M68.3988 59.9775C68.3304 59.4548 67.0848 59.9213 66.7746 59.9824C66.6965 59.997 63.3822 61.8337 63.3236 61.885C63.094 62.0877 64.6547 59.787 65.126 63.1794C65.3019 64.4446 65.1187 65.5021 64.8842 66.76C64.4178 69.2707 64.0612 71.9427 63.2405 74.3655C62.6153 76.2144 61.5626 78.5273 60.742 80.3029C60.2437 81.3824 62.8034 81.9661 63.3504 80.9208C66.9651 73.9942 68.3133 67.3999 68.6308 60.2217C68.6333 60.1631 68.4037 60.0288 68.3988 59.9775Z" fill="#856738"/>
<path d="M76.3391 50.6406C76.1486 48.7502 75.6992 47.0063 73.7697 46.1222C71.8183 45.2307 69.3002 45.3944 67.9154 47.1529C67.3048 47.9295 66.9775 48.926 67.0996 49.903C67.2095 50.7798 67.6491 51.5711 68.0277 52.3551C68.4331 53.1977 68.4576 54.1576 69.0315 54.9318C69.4882 55.5473 69.835 55.728 70.558 55.9991C72.0381 56.5535 74.5 56.3728 75.7309 55.3421C77.1011 54.1942 76.4978 52.2061 76.3415 50.6406H76.3391Z" fill="#E68B60"/>
<path d="M71.6496 47.5336C71.0048 47.4848 70.0792 47.8292 69.8154 48.4422C69.6982 48.7109 69.8594 49.0406 70.1647 49.1041C70.4211 49.1578 70.6751 49.021 70.9023 48.9258C71.21 48.7988 71.4958 48.7915 71.823 48.7719C72.0917 48.7573 72.3653 48.6889 72.4727 48.4227C72.6608 47.961 72.0551 47.5654 71.6496 47.5336Z" fill="#913939"/>
<path d="M75.726 60.4469C75.7308 60.3907 75.7308 60.3346 75.7284 60.2759C75.7211 60.0732 75.6747 59.873 75.6234 59.6751C75.4451 58.9888 75.0494 58.366 74.5951 57.7969C74.5512 57.7432 74.4974 57.6846 74.4242 57.6821C74.3167 57.6773 74.2557 57.7921 74.219 57.8849C73.8698 58.7959 73.4765 59.5799 72.7707 60.2979C72.5387 60.5324 72.27 60.7669 71.9305 60.823C71.5568 60.8865 71.1807 60.7229 70.8754 60.5153C69.9449 59.8852 69.5297 58.8472 69.3074 57.8092C69.283 57.7017 69.2048 57.5576 69.0925 57.5991C69.0241 57.6235 68.9972 57.709 68.9582 57.7481C68.7506 57.9459 67.566 59.934 67.8786 60.7571C68.2987 61.8635 69.2683 62.711 70.2257 63.4901C70.3332 63.578 70.4724 63.6708 70.6068 63.622C70.6825 63.5951 70.7313 63.5292 70.7728 63.4657C71.2149 62.8136 71.5959 62.1273 71.9061 61.4141C71.9452 61.3237 72.0771 61.3188 72.1259 61.4068C72.5704 62.2176 73.1541 62.965 73.8453 63.6122C73.8746 63.6391 73.9064 63.6684 73.9479 63.6733C74.0065 63.6806 74.0554 63.6391 74.0969 63.6024C74.8394 62.9064 75.3278 62.0076 75.6038 61.0697C75.6625 60.8646 75.7137 60.657 75.7284 60.4469H75.726Z" fill="#FAE1D2"/>
<path d="M69.6322 47.8564C69.6884 47.6048 69.5125 47.4265 69.3123 47.3777C69.2927 47.3459 69.2659 47.3166 69.2268 47.2922C68.5502 46.8477 67.649 46.9258 66.9456 47.2824C66.6745 47.4192 66.4498 47.6341 66.401 47.9394C66.3814 48.064 66.3912 48.1861 66.44 48.3033C66.4742 48.3839 66.5451 48.4474 66.6061 48.5134C65.9052 51.1218 65.9564 53.7986 66.1616 56.4779C66.2593 57.7724 66.4571 59.0644 66.4376 60.3662C66.4107 62.005 66.147 63.6511 66.0199 65.2851C65.9858 65.7418 65.8001 66.5453 66.3961 66.7652C66.6232 66.8482 66.8333 66.7188 67.0531 66.7065C67.5806 66.6772 67.9616 66.8335 68.4306 66.9947C68.5502 67.0363 68.6479 67.134 68.7725 67.1657C69.1413 67.2561 69.515 67.1486 69.769 66.8629C70.0987 66.4941 70.0718 65.8371 70.1256 65.3706C70.1964 64.7478 70.2306 64.1225 70.2379 63.4948C70.255 62.2443 70.1598 60.9938 70.0254 59.7482C69.7568 57.2546 69.322 54.7756 69.2536 52.2648C69.2146 50.7872 69.3074 49.2998 69.6298 47.8539L69.6322 47.8564Z" fill="#913939"/>
<path d="M61.1451 67.8984C61.658 69.0951 62.1074 70.3163 62.5006 71.557C62.5348 71.6694 62.7131 71.6205 62.6764 71.5082C62.2808 70.2504 61.8216 69.017 61.3038 67.8056C61.2574 67.6981 61.0987 67.7909 61.1451 67.8984Z" fill="#2B0303"/>
<path d="M76.3243 48.0029C76.1314 47.5779 75.4744 47.3092 75.0836 47.4704C74.727 47.617 74.5512 48.0981 74.7783 48.4327C74.9053 48.6208 75.1667 48.6012 75.362 48.5988C75.5867 48.5964 75.8334 48.6794 76.0459 48.6599C76.2071 48.6452 76.3268 48.5353 76.3634 48.3741C76.3927 48.2422 76.3756 48.1176 76.3219 48.0053L76.3243 48.0029Z" fill="#913939"/>
<path d="M83.3511 66.9803C83.2021 68.8975 82.9359 70.8001 82.55 72.6832C82.5255 72.798 82.7038 72.8468 82.7258 72.732C83.1141 70.8319 83.3853 68.9146 83.5342 66.9803C83.544 66.863 83.3608 66.863 83.3511 66.9803Z" fill="#2B0303"/>
<path d="M100.614 47.3702C99.9909 47.1699 98.738 47.6438 98.3887 47.7781C97.2555 48.2079 96.2272 48.8698 95.3333 49.6685C93.4796 51.3244 92.1851 53.5054 91.1373 55.7084C90.5341 56.9785 90.009 58.2803 89.5058 59.5894C88.8293 61.3552 87.3834 65.5805 86.9633 67.6858C86.5701 69.6617 88.3579 73.9871 90.6733 72.5437C91.7504 71.872 92.3487 69.4028 92.4757 68.4649C92.7298 66.5697 92.7908 64.4521 93.1034 62.5666C93.4038 60.7446 93.9314 59.0911 94.6617 57.3912C94.7276 57.2398 94.8644 57.1299 95.028 57.0884C95.4383 56.9858 95.8145 56.8564 96.1491 56.5559C96.4788 56.2604 96.7181 55.8916 96.9379 55.5131C97.4264 55.728 97.9466 55.7036 98.5548 55.3274C99.3828 54.8145 100.098 53.9451 99.71 52.9754C99.7149 52.9657 99.7222 52.9559 99.7296 52.9461C100.108 52.2232 99.8663 51.5906 99.3608 51.002C99.3486 50.9898 99.3364 50.9849 99.3241 50.9727C99.29 50.4451 98.8552 50.0495 98.3814 49.7466C98.3228 49.7076 98.3179 49.6245 98.3765 49.5854C98.8283 49.2777 99.3168 49.0237 99.8566 48.8454C100.228 48.7233 100.921 48.4009 100.968 47.9588C101.004 47.6218 100.858 47.4459 100.616 47.3678L100.614 47.3702Z" fill="#E68B60"/>
<path d="M74.6489 45.3455C73.7403 44.647 72.0356 44.581 70.7289 44.7862C69.3929 44.9963 67.9764 45.3455 67.0727 46.4055C66.4548 47.1284 66.0762 48.12 66.0371 49.0579C66.0054 49.7979 65.9443 51.7201 67.0067 51.6224C67.9006 51.5393 70.3748 49.0994 71.2906 47.5119C71.4787 47.1846 71.6423 46.8549 71.7083 46.5105C71.74 46.3493 71.8939 46.2394 72.06 46.2638C73.8161 46.5056 75.5721 47.6999 76.2682 49.3217C76.3341 49.478 76.3463 49.3534 76.3219 49.1849C76.1119 47.8099 75.8383 46.2614 74.6465 45.3455H74.6489Z" fill="#913939"/>
<path d="M68.6504 70.2922C68.6504 70.2922 68.6626 70.2776 68.67 70.2703C68.9215 69.9039 69.0852 69.3422 68.7384 69.0515C68.9899 68.5093 69.0876 67.7839 68.3427 67.613C67.9666 67.5275 67.4708 67.6374 67.0898 67.696C66.5695 67.7766 66.0664 67.9134 65.5779 68.0917C65.5755 68.0868 65.5706 68.0819 65.5682 68.077C65.8075 67.9231 66.0542 67.779 66.3033 67.6423C66.8284 67.3565 67.4634 66.9926 68.074 66.8729C68.2816 66.8314 68.5381 65.8007 67.7761 65.6713C67.0971 65.5565 66.3693 65.7372 65.8026 66.0157C64.2127 66.7972 62.84 68.0428 61.5725 69.242C61.3649 69.4374 61.1597 69.6377 60.957 69.8355C59.7187 71.0469 58.688 72.4122 57.6183 73.7653C56.1992 75.5604 54.6459 77.3238 53.4149 79.2386C52.6383 80.45 51.9569 82.5505 53.3783 83.6984C54.4725 84.5825 56.336 84.4897 57.2983 83.4859C58.0432 82.7117 58.4731 81.6224 58.9371 80.6674C59.3914 79.732 59.8481 78.799 60.3244 77.8733C60.8129 76.9282 61.316 75.983 61.8973 75.0866C62.2295 74.5737 62.6471 73.8215 63.243 73.5528C63.9416 73.2402 65.5364 72.5807 66.0615 72.0117C66.4035 71.6404 66.6794 71.6502 67.1826 71.6014C67.3999 71.5794 68.0056 71.5403 67.7126 71.9115C67.5514 72.1167 67.8713 72.4244 68.0814 72.2706C68.5405 71.9335 69.1194 70.9737 68.7579 70.4144C68.7286 70.368 68.692 70.3264 68.6529 70.2874L68.6504 70.2922Z" fill="#E68B60"/>
<path d="M84.797 79.3161C83.3682 72.8878 82.2251 65.9149 79.2992 60.3756C79.2626 60.3047 79.2039 60.2486 79.1258 60.2315C78.7228 60.1362 77.7288 59.9066 77.3184 59.8505C76.9228 59.7943 76.3854 59.6502 76.6736 60.1875C79.1527 64.806 80.9258 73.0514 82.3937 79.6458C82.6501 80.8011 85.0534 80.4714 84.797 79.3161Z" fill="#856738"/>
<path d="M65.0993 83.4416C67.7298 84.1621 70.4408 84.5553 73.1689 84.5968C75.6845 84.6335 78.5739 84.5797 80.8966 83.5124C81.004 83.4636 80.9112 83.3048 80.8037 83.3537C79.5557 83.9252 78.1904 84.1181 76.8373 84.2549C75.5429 84.3868 74.2387 84.4381 72.9393 84.4088C70.304 84.3501 67.6907 83.9594 65.1482 83.2657C65.0334 83.234 64.9845 83.4123 65.0993 83.4416Z" fill="#2B0303"/>
<path d="M64.987 85.1779C67.6248 86.0694 70.3944 86.5212 73.1812 86.5017C74.5196 86.4919 75.858 86.3747 77.1793 86.15C78.4518 85.9351 79.7756 85.6811 80.8966 85.0094C80.9968 84.9483 80.9064 84.7896 80.8038 84.8506C79.6999 85.5125 78.3859 85.7592 77.1305 85.9741C75.753 86.2086 74.356 86.321 72.9589 86.3185C70.2626 86.3136 67.5882 85.8618 65.0359 84.9996C64.9235 84.963 64.8747 85.1388 64.987 85.1755V85.1779Z" fill="#2B0303"/>
<path d="M72.0357 61.4312C73.6794 68.9586 73.7356 76.7693 73.4498 84.4334C73.445 84.5506 73.6281 84.5506 73.633 84.4334C73.9188 76.7497 73.8577 68.9244 72.2116 61.3824C72.1871 61.2676 72.0088 61.3164 72.0357 61.4312Z" fill="#2B0303"/>
<path d="M73.4279 97.3653C73.3595 98.5498 73.2936 99.7368 73.2252 100.921C73.2179 101.039 73.401 101.039 73.4084 100.921C73.4768 99.7368 73.5427 98.5498 73.6111 97.3653C73.6184 97.248 73.4352 97.248 73.4279 97.3653Z" fill="#2B0303"/>
<path d="M66.6355 86.1378C65.9663 88.0624 64.9136 89.8038 63.5313 91.301C63.4507 91.3865 63.5801 91.5184 63.6607 91.4305C65.0626 89.9113 66.1299 88.1406 66.8114 86.1867C66.8504 86.0743 66.6721 86.0279 66.6355 86.1378Z" fill="#2B0303"/>
<path d="M80.0368 85.9352C80.6474 87.6205 81.4045 89.2397 82.3106 90.7882C82.3693 90.8908 82.528 90.798 82.4694 90.6954C81.5706 89.1616 80.8184 87.557 80.2127 85.8864C80.1736 85.7765 79.9953 85.8229 80.0368 85.9352Z" fill="#2B0303"/>
<path d="M86.1257 72.4876C86.0671 73.1983 86.133 73.8895 86.3284 74.5734C86.3601 74.6857 86.5384 74.6393 86.5042 74.5245C86.3137 73.8553 86.2502 73.1788 86.3088 72.4876C86.3186 72.3703 86.1354 72.3703 86.1257 72.4876Z" fill="#2B0303"/>
<path d="M55.2811 76.5175C54.651 77.3968 54.0746 78.3078 53.5495 79.2554C53.4933 79.358 53.6496 79.4508 53.7082 79.3482C54.2333 78.403 54.8097 77.492 55.4399 76.6103C55.5082 76.5151 55.3495 76.4223 55.2811 76.5175Z" fill="#C45547"/>
<path d="M93.9485 51.9544C94.5615 51.2388 95.3382 50.6966 96.2419 50.4133C96.4519 50.3473 96.7108 50.2521 96.9355 50.2838C97.3531 50.3424 97.4826 50.8016 97.1993 51.1191C96.9428 51.4049 96.5862 51.5807 96.2638 51.7761C95.7509 52.0838 95.2063 52.4526 94.9889 53.0388C94.6885 53.8472 95.2112 54.7314 94.7789 55.508C94.7227 55.6106 94.879 55.7034 94.9376 55.6008C95.1697 55.1832 95.1599 54.7656 95.1159 54.2991C95.0402 53.5126 95.1013 52.8849 95.7558 52.3427C96.3029 51.8909 97.529 51.5294 97.6218 50.6941C97.6853 50.1153 96.9746 50.0542 96.5618 50.1348C95.4921 50.3424 94.5176 51.0092 93.819 51.8249C93.7433 51.9129 93.8728 52.0448 93.9485 51.9544Z" fill="#C45547"/>
<path d="M97.9296 49.7611C97.6902 49.893 97.4533 50.0273 97.214 50.1592C97.1114 50.2154 97.2042 50.3741 97.3068 50.318C97.5461 50.1861 97.783 50.0518 98.0224 49.9199C98.125 49.8637 98.0322 49.7049 97.9296 49.7611Z" fill="#C45547"/>
<path d="M98.6866 51.3658C98.0662 51.9031 96.7669 52.8654 95.978 52.1815C95.8901 52.1058 95.7582 52.2328 95.8486 52.311C96.7449 53.0876 98.1078 52.1082 98.8161 51.4952C98.9064 51.417 98.7745 51.29 98.6866 51.3658Z" fill="#C45547"/>
<path d="M99.2485 52.9752C98.8455 53.1364 98.445 53.3098 98.0346 53.4564C97.3996 53.6811 96.3885 53.5736 96.6596 52.6357C96.6914 52.5234 96.5155 52.4745 96.4837 52.5869C96.3494 53.0485 96.5473 53.5492 97.0113 53.7299C97.722 54.0059 98.6623 53.4051 99.2974 53.1535C99.4048 53.1096 99.3584 52.9337 99.2485 52.9777V52.9752Z" fill="#C45547"/>
<path d="M96.8622 53.6421C96.535 54.1354 96.4934 54.7265 96.7303 55.2663C96.7767 55.3737 96.9355 55.2809 96.8891 55.1735C96.6766 54.6923 96.7328 54.1696 97.021 53.7349C97.0869 53.6372 96.9282 53.5444 96.8622 53.6421Z" fill="#C45547"/>
<path d="M68.4038 68.9632C67.4781 68.8753 66.5915 68.995 65.722 69.3247C65.6121 69.3662 65.661 69.5445 65.7709 69.5005C66.6208 69.1781 67.4976 69.0585 68.4038 69.1439C68.521 69.1562 68.521 68.973 68.4038 68.9608V68.9632Z" fill="#C45547"/>
<path d="M68.2474 70.165C67.5904 70.0331 66.9456 70.0771 66.3131 70.3018C66.2032 70.3408 66.2496 70.5191 66.3619 70.4776C66.9603 70.2651 67.5733 70.2163 68.1986 70.3408C68.3134 70.3628 68.3622 70.187 68.2474 70.165Z" fill="#C45547"/>
<path d="M70.0596 55.689C71.4005 56.3045 72.7536 56.3606 74.1995 56.1774C74.3142 56.1628 74.3167 55.9796 74.1995 55.9943C72.7926 56.1726 71.4591 56.131 70.15 55.5302C70.0425 55.4814 69.9497 55.6401 70.0572 55.689H70.0596Z" fill="#C45547"/>
<path d="M60.6079 54.1625C59.7262 55.0417 59.7359 56.3362 59.692 57.5012C59.6285 59.2304 59.6211 60.962 59.6602 62.6937C59.6627 62.8109 59.8458 62.8109 59.8434 62.6937C59.8092 61.2038 59.8092 59.714 59.8507 58.2266C59.8874 56.9321 59.7433 55.2835 60.7349 54.2919C60.8179 54.2089 60.6885 54.0794 60.6054 54.1625H60.6079Z" fill="#2B0303"/>
<path d="M80.7035 52.1742C80.7475 52.5698 80.8891 52.7921 81.2921 52.88C81.446 52.9142 81.6243 52.9435 81.7611 52.8458C81.8148 52.8092 81.8563 52.7579 81.8783 52.6968C81.893 52.6529 81.8637 52.4941 81.8881 52.4697C81.9736 52.3891 81.8441 52.2597 81.7586 52.3402C81.7098 52.3867 81.6951 52.4282 81.6951 52.4941C81.6951 52.5308 81.7171 52.5796 81.7098 52.6138C81.6805 52.7384 81.512 52.7359 81.4167 52.7213C81.3044 52.7042 81.1578 52.6749 81.0626 52.6089C80.9258 52.5088 80.9038 52.3305 80.8867 52.1766C80.8745 52.0618 80.6913 52.0594 80.7035 52.1766V52.1742Z" fill="#2B0303"/>
<path d="M62.8867 52.6215C62.9405 52.834 62.8916 53.0782 62.9893 53.2809C63.087 53.4836 63.2946 53.5496 63.5095 53.5398C63.7074 53.53 63.9443 53.4861 64.0664 53.3151C64.2154 53.1099 64.103 52.8535 64.1421 52.6239C64.1616 52.5091 63.9858 52.4578 63.9662 52.5751C63.9443 52.7118 63.9638 52.8364 63.9662 52.9732C63.9711 53.2589 63.766 53.342 63.512 53.3566C63.021 53.381 63.1456 52.895 63.0675 52.5751C63.0381 52.4603 62.8623 52.5091 62.8916 52.6239L62.8867 52.6215Z" fill="#2B0303"/>
<path d="M66.0151 53.5127C65.9882 55.6107 66.5695 57.6721 66.3692 59.7725C66.357 59.8898 66.5402 59.8898 66.5524 59.7725C66.7527 57.6721 66.1714 55.6107 66.1982 53.5127C66.1982 53.3955 66.0175 53.3955 66.0151 53.5127Z" fill="#631F1F"/>
<path d="M67.9054 62.2152C68.0129 63.1482 68.0251 64.0763 67.9396 65.0117C67.9299 65.1289 68.113 65.1289 68.1228 65.0117C68.2083 64.0763 68.1961 63.1482 68.0886 62.2152C68.074 62.1004 67.8908 62.098 67.9054 62.2152Z" fill="#631F1F"/>
<path d="M76.1535 55.3932C76.0534 56.2675 76.0851 57.1272 76.239 57.9918C76.261 58.1066 76.4368 58.0578 76.4149 57.943C76.261 57.0931 76.2366 56.248 76.3343 55.3932C76.3465 55.2759 76.1633 55.2784 76.1511 55.3932H76.1535Z" fill="#631F1F"/>
<path d="M69.6689 47.3483C69.3929 47.9296 69.2366 48.5426 69.2048 49.1874C69.1999 49.3046 69.3831 49.3046 69.388 49.1874C69.4197 48.5743 69.5663 47.9955 69.8276 47.4411C69.8789 47.3361 69.7201 47.2408 69.6689 47.3483Z" fill="#631F1F"/>
<path d="M79.1697 47.3873C78.9792 47.2285 76.9472 46.4152 76.7518 46.3346C76.1387 46.0782 76.1632 46.1758 75.9678 45.5848C75.7015 44.7861 75.3034 43.9997 74.5243 43.5674C73.4204 42.9544 72.0282 43.0032 70.8095 43.162C69.6787 43.3085 67.8274 43.5674 66.9457 44.8496C66.2545 45.8559 66.0224 47.314 65.3435 47.7365C62.0267 49.7954 61.9242 50.6234 62.271 51.2193C62.4444 51.5197 62.8132 51.7567 63.16 51.8153C63.414 51.8592 64.0515 51.6394 63.541 51.361C61.7263 50.3718 66.5695 48.9357 67.1166 48.7916C68.372 48.4643 69.642 48.2006 70.9243 48.0003C73.501 47.5997 76.8739 47.1235 79.3553 48.1126C79.7412 48.2665 79.5214 47.6755 79.1721 47.3824L79.1697 47.3873Z" fill="#FAE1D2"/>
<path d="M75.5282 45.7313C72.546 45.3747 69.5321 45.7581 66.7356 46.8572C66.6282 46.8987 66.6746 47.077 66.7845 47.033C69.5663 45.9389 72.5582 45.5579 75.5282 45.912C75.6454 45.9267 75.6429 45.7435 75.5282 45.7288V45.7313Z" fill="#2B0303"/>
<path d="M65.2386 49.4245C64.4302 49.6688 62.9745 50.0938 62.7693 51.0536C62.7449 51.1684 62.9208 51.2172 62.9452 51.1025C63.1308 50.2379 64.5645 49.8202 65.2874 49.6028C65.3998 49.5687 65.3509 49.3928 65.2386 49.427V49.4245Z" fill="#2B0303"/>
<path d="M79.1063 48.323C79.0672 47.9689 78.8083 47.8223 78.4884 47.7271C77.9022 47.5537 77.2818 47.4584 76.6688 47.4902C76.5516 47.4975 76.5516 47.6807 76.6688 47.6734C77.1328 47.6489 78.8523 47.6734 78.9231 48.3206C78.9353 48.4354 79.1185 48.4378 79.1063 48.3206V48.323Z" fill="#2B0303"/>
<path d="M54.0305 49.8397C55.6644 49.3757 56.1871 51.8596 56.4264 52.9831C56.5705 53.6669 56.6634 54.3606 56.7317 55.0566C56.7635 55.3839 56.8172 55.7283 56.8172 56.058C56.8172 56.6808 56.253 56.29 56.0039 56.058C55.1931 55.296 54.812 54.192 54.4774 53.1589C54.392 52.8976 54.304 52.6363 54.2503 52.3652C54.2308 52.2723 54.094 51.6495 54.2259 51.5494C54.3968 51.5494 54.5654 51.5494 54.7363 51.5518C54.7803 51.652 54.8243 51.7546 54.8707 51.8547C55.1369 52.5141 55.2932 53.2102 55.3811 53.9136C55.3958 54.0284 55.5789 54.0308 55.5643 53.9136C55.5032 53.4056 55.408 52.9049 55.2614 52.4164C55.1589 52.0745 55.0538 51.5982 54.8047 51.3247C54.4628 50.951 54.1013 51.2197 54.0256 51.6447C53.8766 52.4824 54.3846 53.5424 54.6924 54.3044C54.9928 55.0493 55.3884 55.7771 56.0064 56.3047C56.3068 56.5611 56.8026 56.9202 56.9784 56.3609C57.1079 55.9481 56.9491 55.3644 56.9051 54.9467C56.8539 54.4558 56.7928 53.9673 56.7098 53.4838C56.4899 52.2064 55.938 49.1119 53.9865 49.6639C53.8742 49.6956 53.9206 49.8739 54.0354 49.8397H54.0305Z" fill="#2B0303"/>
<path d="M86.0963 48.4275C86.5555 49.9686 86.2575 51.5855 85.3025 52.8726C85.2317 52.9679 85.3904 53.0582 85.4613 52.9654C86.4431 51.6392 86.746 49.9613 86.2746 48.3786C86.2404 48.2663 86.0645 48.3151 86.0987 48.4275H86.0963Z" fill="#2B0303"/>
<path d="M59.8189 50.7554C60.0777 51.0802 60.2243 51.4636 60.2487 51.8788C60.256 51.9961 60.4392 51.9961 60.4319 51.8788C60.405 51.4124 60.2389 50.9923 59.9483 50.6259C59.875 50.5331 59.7456 50.665 59.8189 50.7554Z" fill="#2B0303"/>
<path d="M63.1478 81.2899C62.6447 82.5428 62.0708 83.764 61.4309 84.951C61.3747 85.0536 61.5334 85.1464 61.5896 85.0438C62.2368 83.8422 62.8157 82.6063 63.3237 81.3387C63.3677 81.2288 63.1894 81.1824 63.1478 81.2899Z" fill="#2B0303"/>
<path d="M61.2013 78.1856C60.7323 79.1234 60.1388 79.9758 59.4208 80.7427C59.3402 80.8282 59.4696 80.9577 59.5502 80.8722C60.2756 80.0955 60.8813 79.2309 61.3576 78.2784C61.4113 78.1734 61.2526 78.0805 61.1988 78.1856H61.2013Z" fill="#2B0303"/>
<path d="M83.9202 75.7555C84.438 77.177 84.8654 78.6253 85.2049 80.1005C85.2318 80.2153 85.4076 80.1665 85.3808 80.0517C85.0413 78.5765 84.6114 77.1281 84.0961 75.7067C84.057 75.5968 83.8787 75.6432 83.9202 75.7555Z" fill="#2B0303"/>
<path d="M82.6064 80.4229C82.8946 81.4902 83.0777 82.5722 83.1486 83.6761C83.1559 83.7934 83.3391 83.7934 83.3317 83.6761C83.2585 82.5575 83.0753 81.4585 82.7822 80.3741C82.7505 80.2593 82.5746 80.3081 82.6064 80.4229Z" fill="#2B0303"/>
<path d="M74.9761 70.2234C74.9566 70.2234 74.9395 70.2234 74.9175 70.2234C74.6757 70.2039 74.4828 70.0256 74.3851 69.7325C74.2801 69.4175 74.2972 68.9656 74.5389 68.7507C74.7246 68.5846 74.8931 68.5895 74.9981 68.6237C75.2546 68.7043 75.4133 69.012 75.4744 69.2709C75.5501 69.5909 75.5086 69.8839 75.3596 70.0573C75.2936 70.1355 75.1715 70.2234 74.9737 70.2234H74.9761ZM74.8784 68.7873C74.8076 68.7873 74.7368 68.8215 74.6611 68.8875C74.5072 69.0242 74.4608 69.3784 74.5585 69.6739C74.5927 69.7765 74.7001 70.0207 74.9322 70.0403C75.0567 70.05 75.1544 70.0158 75.2204 69.9401C75.3278 69.8156 75.3571 69.5713 75.2961 69.3173C75.2326 69.056 75.0909 68.8484 74.9419 68.802C74.92 68.7946 74.898 68.7922 74.876 68.7922L74.8784 68.7873Z" fill="#2B0303"/>
<path d="M75.2838 75.365C75.2423 75.365 75.1959 75.3601 75.1519 75.3503C74.9175 75.3015 74.7465 75.1012 74.6879 74.8033C74.6219 74.476 74.6977 74.029 74.9663 73.8434C75.1739 73.7017 75.3376 73.7286 75.4401 73.775C75.6844 73.8874 75.7992 74.2122 75.8285 74.476C75.8627 74.8008 75.7821 75.0866 75.6135 75.2404C75.5232 75.321 75.4133 75.3625 75.2863 75.3625L75.2838 75.365ZM75.2692 73.9216C75.2081 73.9216 75.1397 73.946 75.0689 73.9948C74.8955 74.1145 74.8051 74.4589 74.8662 74.7666C74.893 74.8985 74.9688 75.1256 75.1886 75.1696C75.3131 75.1965 75.4133 75.1745 75.489 75.1037C75.6135 74.9913 75.6722 74.7568 75.6453 74.4931C75.616 74.2268 75.5036 74.0022 75.362 73.9387C75.3327 73.924 75.3009 73.9191 75.2692 73.9191V73.9216Z" fill="#2B0303"/>
<path d="M75.2838 80.3323C75.2399 80.3323 75.1959 80.3274 75.1495 80.3176C74.915 80.2688 74.7441 80.0685 74.6854 79.7705C74.6195 79.4433 74.6952 78.9963 74.9639 78.8107C75.1715 78.669 75.3351 78.6959 75.4377 78.7423C75.6819 78.8546 75.7967 79.1795 75.826 79.4433C75.8602 79.7705 75.7796 80.0563 75.6111 80.2077C75.5207 80.2883 75.4108 80.3298 75.2838 80.3298V80.3323ZM75.2692 78.8888C75.2081 78.8888 75.1397 78.9133 75.0689 78.9621C74.8955 79.0818 74.8051 79.4262 74.8662 79.7339C74.893 79.8658 74.9688 80.0929 75.1886 80.1369C75.3131 80.1613 75.4133 80.1418 75.489 80.0709C75.6135 79.9586 75.6722 79.7241 75.6453 79.4604C75.616 79.1941 75.5036 78.9719 75.362 78.9059C75.3327 78.8913 75.3009 78.8864 75.2692 78.8864V78.8888Z" fill="#2B0303"/>
<path d="M73.2276 86.6043C73.6623 90.1775 73.6403 93.7776 73.4303 97.3654C73.423 97.4826 73.6061 97.4826 73.6135 97.3654C73.8235 93.7776 73.8479 90.1775 73.4108 86.6043C73.3961 86.4896 73.2129 86.4871 73.2276 86.6043Z" fill="#2B0303"/>
<path d="M74.6634 86.4112C74.8173 87.6324 74.7465 88.8609 74.705 90.087C74.6683 91.208 74.6561 92.8102 73.6157 93.5258C73.518 93.5918 73.6108 93.7505 73.7085 93.6846C74.5511 93.1058 74.8026 91.8675 74.8613 90.9149C74.9492 89.43 75.0322 87.8913 74.8466 86.4112C74.832 86.2964 74.6488 86.294 74.6634 86.4112Z" fill="#2B0303"/>
<path d="M75.3132 96.3542C74.1433 96.9501 73.0199 97.6267 71.9428 98.3814C71.8475 98.4498 71.9379 98.6085 72.0356 98.5401C73.1102 97.7854 74.2337 97.1089 75.406 96.513C75.5111 96.4592 75.4183 96.3005 75.3132 96.3542Z" fill="#2B0303"/>
<path d="M75.8751 49.7785C75.8311 49.5074 75.648 49.0726 75.2889 49.1459C74.7199 49.2631 75.0129 50.6431 75.5454 50.5722C75.9117 50.5234 75.9191 50.0447 75.8751 49.776V49.7785Z" fill="#170301"/>
<path d="M71.9894 49.7395C71.8868 49.4415 71.5571 49.1143 71.1907 49.378C70.7707 49.6809 71.0149 51.0071 71.6987 50.7922C72.153 50.6481 72.0969 50.0521 71.9894 49.7395Z" fill="#170301"/>
<path d="M74.2996 50.1207C74.4827 50.2672 74.7123 50.4797 74.7758 50.7166C74.8467 50.9828 74.6317 51.2246 74.4534 51.3883C74.3679 51.4689 74.4974 51.5983 74.5829 51.5177C74.7856 51.3272 74.9956 51.0659 74.9688 50.7679C74.9419 50.4602 74.6537 50.1695 74.429 49.9912C74.3386 49.918 74.2067 50.0474 74.2996 50.1207Z" fill="#C45547"/>
<path d="M73.9773 51.0824C73.7453 51.0921 73.5328 51.1825 73.3716 51.351C73.291 51.4365 73.4205 51.566 73.5011 51.4805C73.6281 51.3486 73.7917 51.2729 73.9773 51.2655C74.0946 51.2607 74.0946 51.0775 73.9773 51.0824Z" fill="#C45547"/>
<path d="M75.1203 52.1082C75.1374 52.0178 75.0665 51.9079 74.9468 51.9397C74.6171 52.0227 74.285 52.0838 73.9455 52.1082C73.6475 52.1302 72.8024 51.9348 72.9759 52.4868C73.1029 52.8898 73.7037 53.068 74.0847 53.0656C74.644 53.0632 75.1276 52.731 75.1398 52.1766C75.1398 52.1473 75.1325 52.1253 75.1203 52.1058V52.1082Z" fill="white"/>
<path d="M67.996 96.2272C67.7567 95.3724 67.3366 93.9509 66.2791 93.7629C65.3168 93.5895 64.8014 94.4883 64.8014 95.3016C64.8014 96.0001 65.0921 96.7474 65.2337 97.424L65.4316 98.357C65.4316 98.357 65.4193 98.3789 65.4096 98.3692C64.2861 97.5021 63.4801 96.2541 62.3542 95.3504C60.9571 94.2294 58.4757 92.2291 56.4998 92.8494C54.6729 93.4234 55.1052 95.4164 56.1994 96.4592C56.3044 96.5594 56.4143 96.6522 56.5267 96.7426C55.1883 96.4006 54.1674 96.5325 54.0428 97.6316C53.8645 99.2118 56.6415 100.538 57.7821 101.102C59.394 101.896 61.1965 102.14 62.9843 102.13C64.5279 102.121 67.51 102.761 68.4064 101.112C69.122 99.7955 68.3819 97.5974 67.996 96.2297V96.2272Z" fill="#DA9F7B"/>
<path d="M82.7624 99.3853C82.0151 99.4879 81.3507 99.8469 80.7353 100.267C80.7743 100.218 80.811 100.164 80.8525 100.116C81.1407 99.7932 81.4704 99.5075 81.7928 99.2217C82.4156 98.6722 83.0751 98.0982 83.3657 97.3069C83.6002 96.6719 83.4829 95.9733 82.7722 95.7096C81.9589 95.4092 81.0381 95.9367 80.4178 96.4081C79.5483 97.0675 76.2682 101.632 77.9705 102.38C78.4223 102.578 80.8672 102.551 81.6829 102.048C82.1274 101.774 82.5133 101.383 82.8943 101.031C83.185 100.765 83.5757 100.484 83.715 100.106C83.9568 99.4464 83.2753 99.3145 82.76 99.3853H82.7624Z" fill="#DA9F7B"/>
<path d="M60.9596 94.6492C59.9094 93.8628 58.5294 93.1472 57.2472 92.8272C56.3972 92.6147 55.3568 92.815 55.0662 93.7504C55.032 93.8628 55.2078 93.9116 55.242 93.7993C55.6767 92.3949 57.3986 93.0251 58.3145 93.4232C59.206 93.8115 60.0828 94.2218 60.8643 94.808C60.9596 94.8788 61.05 94.7201 60.9571 94.6492H60.9596Z" fill="#2B0303"/>
<path d="M86.741 95.1943C86.1328 95.419 85.5955 95.7585 85.1364 96.2176C85.0533 96.3007 85.1828 96.4301 85.2658 96.3471C85.7005 95.9123 86.211 95.5851 86.7898 95.3701C86.8997 95.3286 86.8509 95.1528 86.741 95.1943Z" fill="#2B0303"/>
<path d="M56.7489 97.2142C59.4599 97.6978 61.9242 99.0875 63.7096 101.188C63.7853 101.278 63.9148 101.149 63.8391 101.059C62.0341 98.9385 59.5356 97.5269 56.7977 97.0384C56.6829 97.0188 56.6341 97.1947 56.7489 97.2142Z" fill="#2B0303"/>
<path d="M56.7268 91.4669C57.2446 92.0384 57.7037 92.6539 58.1043 93.3133C58.1653 93.4135 58.3241 93.3206 58.263 93.2205C57.8527 92.5489 57.3838 91.9212 56.8562 91.3374C56.7781 91.2495 56.6486 91.379 56.7268 91.4669Z" fill="#2B0303"/>
<path d="M145.617 70.1234C141.399 66.7041 136.177 65.5367 130.987 64.7209C124.063 63.6316 113.898 64.379 107.611 68.3381C102.336 71.6597 100.482 77.2356 100.242 83.4978C100.091 87.4667 100.599 92.4833 104.47 94.425C106.49 95.4386 108.805 95.9466 110.982 96.4546C113.326 96.9992 115.698 97.3998 118.084 97.6978C123.181 98.3328 128.33 98.4549 133.459 98.3108C137.452 98.1984 141.775 97.8516 145.045 95.2041C148.445 92.4491 149.954 87.9478 149.998 83.5931C150.045 79.2896 149.073 72.9297 145.614 70.1234H145.617Z" fill="#FAE1D2"/>
<path d="M144.032 85.53C142.771 83.8667 140.595 83.6054 138.666 83.4198C138.61 83.4149 138.578 83.4515 138.573 83.4955C138.575 83.432 138.527 83.366 138.451 83.3954C136.499 84.1085 134.555 84.8608 132.589 85.53C131.615 85.8621 130.618 86.1479 129.59 86.2505C128.542 86.3579 127.485 86.2822 126.449 86.1235C124.505 85.8255 122.614 85.2442 120.668 84.9536C118.668 84.6556 116.65 84.7533 114.643 84.9072C112.308 85.0855 109.975 85.276 107.643 85.4616C107.711 85.4396 107.78 85.4127 107.85 85.3932C107.975 85.359 107.921 85.1661 107.797 85.1978C107.047 85.4005 106.373 85.806 105.872 86.4019C105.489 86.8611 105.132 87.5449 105.657 88.0359C106.238 88.5805 107.335 88.8296 108.087 88.9835C108.573 89.0836 109.189 89.0983 109.55 89.4866C109.853 89.8139 109.785 90.168 109.531 90.4904C109.445 90.6003 109.338 90.7078 109.296 90.847C109.101 91.5016 109.978 91.9021 110.469 92.0413C111.372 92.3002 112.369 92.332 113.299 92.4468C115.517 92.7252 117.735 93.0183 119.96 93.2552C122.163 93.4897 124.373 93.6631 126.591 93.6728C128.811 93.6826 131.019 93.4872 133.222 93.2308C136.668 92.8327 140.998 92.6251 143.548 89.9262C144.715 88.6904 145.116 86.9539 144.036 85.5275L144.032 85.53Z" fill="white"/>
<path d="M128.103 83.4904C125.057 79.1308 121.796 74.9299 118.328 70.8976C118.314 70.8805 118.299 70.8658 118.284 70.8536C118.265 70.6363 117.977 70.4506 117.767 70.6485C115.686 72.6048 107.027 85.6226 107.22 85.6568C107.25 85.7301 107.313 85.7887 107.413 85.8131C110.987 86.6411 118.326 88.1773 118.446 88.1676C118.599 88.2408 128.259 83.7151 128.103 83.4904Z" fill="white"/>
<path d="M136.436 86.643C138.043 86.2962 140.757 84.5157 141.638 84.186C141.936 84.0761 142.046 83.7097 141.858 83.4533C139.34 79.9973 136.688 76.6415 133.898 73.4005C133.884 73.3834 133.869 73.3688 133.854 73.3566C133.835 73.1392 133.547 72.9536 133.337 73.1514C131.949 74.4556 127.644 80.6714 124.979 84.6843C124.852 84.8748 124.945 85.1312 125.162 85.202C126.508 85.6417 135.549 86.8335 136.436 86.643Z" fill="white"/>
<path d="M117.923 71.7327C117.94 76.9056 117.957 82.0786 117.974 87.2515C117.974 87.3687 118.157 87.3687 118.157 87.2515C118.14 82.0786 118.123 76.9056 118.106 71.7327C118.106 71.6155 117.923 71.6155 117.923 71.7327Z" fill="#2B0303"/>
<path d="M133.574 74.2264C134.382 77.7483 135.19 81.2702 135.996 84.792C136.114 85.3001 136.231 85.8105 136.346 86.3185C136.373 86.4333 136.548 86.3845 136.522 86.2697C135.713 82.7478 134.905 79.2259 134.099 75.704C133.982 75.196 133.864 74.6855 133.75 74.1775C133.723 74.0627 133.547 74.1116 133.574 74.2264Z" fill="#2B0303"/>
<path d="M140.703 88.1798C140.622 87.8256 140.515 87.4861 140.456 87.2297C140.258 86.3651 140.107 85.4248 139.652 84.6359C139.064 83.6101 138.065 83.4391 136.976 83.2584C136.077 83.1094 135.168 83.0068 134.262 82.9189C133.256 82.8188 132.245 82.7406 131.241 82.6209C130.616 82.5477 128.703 82.4939 127.929 81.8443C127.66 81.6147 128.591 80.4033 128.44 80.0467C128.034 79.0893 127.648 78.1196 127.221 77.1696C126.977 76.6298 126.652 76.1389 126.034 76.134C125.987 76.0974 125.929 76.0754 125.856 76.0729C125.164 76.0558 124.471 76.0143 123.78 76.0436C123.416 76.0583 122.304 76.0436 122.067 76.3441C121.413 77.1793 120.734 78.1392 120.443 79.1748C120.167 80.1615 120.773 81.2898 121.147 82.1837C120.822 83.168 120.187 84.079 119.818 85.0535C119.591 85.6519 119.447 86.2747 119.347 86.9024C119.337 86.9683 119.286 87.0196 119.217 87.0294C117.867 87.2297 116.482 87.4373 115.195 87.8256C114.083 88.1627 113.727 89.0444 113.482 90.1117C113.456 90.2289 113.495 90.3266 113.563 90.3925C113.563 90.4854 113.607 90.5757 113.712 90.6343C114.433 91.0251 115.285 90.7565 116.052 90.7418C116.081 90.7418 116.108 90.7394 116.137 90.7369C116.062 91.1594 116.081 91.5844 116.399 91.8067C116.804 92.0875 117.613 92.1462 118.069 92.1022C118.763 92.0338 119.825 92.1144 120.517 92.046C124.029 91.6992 129.397 91.0886 132.89 90.5757C133.061 91.2523 133.739 91.1326 134.44 91.1277C136.104 91.113 135.564 91.1204 137.217 90.9909C137.786 90.947 138.356 90.8737 138.922 90.8004C139.455 90.7296 140.234 90.71 140.656 90.329C141.174 89.8625 140.927 88.9051 140.708 88.1773L140.703 88.1798Z" fill="#DEAD90"/>
<path d="M125.318 77.045C125.655 77.8852 125.963 78.7376 126.224 79.6046C126.415 80.2421 126.378 80.6573 126.075 81.2606C125.87 81.6684 125.616 82.0421 125.328 82.3938C125.255 82.4842 125.384 82.6161 125.457 82.5233C125.958 81.9078 126.64 81.009 126.556 80.1639C126.508 79.673 126.28 79.1577 126.124 78.6936C125.931 78.1221 125.719 77.5579 125.494 76.9962C125.45 76.8887 125.274 76.9351 125.318 77.045Z" fill="#2B0303"/>
<path d="M124.454 88.7512C122.79 89.0565 121.103 89.186 119.425 89.3911C118.885 89.4571 118.34 89.523 117.813 89.6549C117.349 89.7697 116.782 89.7966 116.508 90.2362C116.445 90.3363 116.604 90.4291 116.667 90.329C116.933 89.8991 117.876 89.8137 118.36 89.7282C118.997 89.6158 119.642 89.5474 120.284 89.4766C121.694 89.3203 123.108 89.1835 124.502 88.9295C124.617 88.9075 124.568 88.7317 124.454 88.7537V88.7512Z" fill="#2B0303"/>
<path d="M136.636 88.6952C135.679 88.7391 134.663 88.6024 133.715 88.7245C133.146 88.7978 132.635 89.1421 132.655 89.7649C132.66 89.8822 132.843 89.8822 132.838 89.7649C132.804 88.7147 134.169 88.8979 134.848 88.9077C135.444 88.9174 136.038 88.9052 136.634 88.8783C136.751 88.8735 136.751 88.6903 136.634 88.6952H136.636Z" fill="#2B0303"/>
<path d="M122.273 76.6005C121.584 77.553 121.254 78.7522 121.432 79.9075C121.52 80.479 121.581 81.3851 122.046 81.8052C122.497 82.2131 123.296 82.0641 123.838 82.0104C123.955 81.9981 123.955 81.815 123.838 81.8272C123.142 81.8931 122.192 82.047 121.904 81.2166C121.689 80.6011 121.547 79.8367 121.545 79.1894C121.54 78.3419 121.938 77.3699 122.429 76.6909C122.497 76.5956 122.339 76.5028 122.27 76.5981L122.273 76.6005Z" fill="#2B0303"/>
<path d="M125.069 78.4593C125.003 78.4129 124.712 78.4618 124.629 78.4666C124.475 78.474 124.319 78.4911 124.175 78.5497C123.87 78.6791 123.623 79.2946 124.143 79.2262C124.361 79.1969 124.551 79.0943 124.722 78.9624C124.815 78.8892 125.245 78.5863 125.069 78.4593Z" fill="#2B0303"/>
<path d="M122.558 79.0916C122.585 78.906 122.405 78.6129 122.302 78.5274C122.177 78.4273 121.938 78.3394 121.792 78.4493C121.64 78.5616 121.84 78.8278 121.914 78.9353C121.997 79.055 122.283 79.2968 122.449 79.2333C122.517 79.2064 122.551 79.1551 122.558 79.0916Z" fill="#2B0303"/>
<path d="M108.439 85.8376C110.698 86.3578 112.938 86.9586 115.158 87.6351C115.27 87.6693 115.319 87.4935 115.207 87.4593C112.989 86.7828 110.75 86.1819 108.488 85.6617C108.373 85.6349 108.324 85.8107 108.439 85.8376Z" fill="#2B0303"/>
<path d="M140.139 85.3392C140.661 85.1609 141.184 84.9801 141.707 84.8018C141.816 84.7628 141.77 84.5869 141.658 84.626C141.135 84.8043 140.612 84.985 140.09 85.1633C139.98 85.2024 140.026 85.3782 140.139 85.3392Z" fill="#2B0303"/>
<path d="M132.648 28.481C127.919 27.6872 122.466 28.0878 117.793 29.0208C112.816 30.0148 106.114 32.335 104.148 37.1538C103.535 38.6583 103.547 40.2092 103.564 41.787C103.586 43.631 103.452 45.4725 103.559 47.3165C103.691 49.6026 104.221 51.9521 105.691 53.7863C108.249 56.9785 112.55 57.4548 116.518 57.6844C121.43 57.9677 126.364 57.9286 131.27 57.5745C134.846 57.3156 139.103 57.1837 141.897 54.7975C144.767 52.3454 145.727 47.7732 145.788 44.3075C145.863 39.9455 144 35.5443 140.73 32.4108C138.37 30.1491 135.659 28.9866 132.648 28.481Z" fill="#FAE1D2"/>
<path d="M138.158 50.4159C138.123 50.4013 138.155 49.8029 138.172 49.5025C138.177 49.4146 138.114 49.3364 138.026 49.3242C137.779 49.29 137.347 49.185 137.247 49.1581C137.247 49.0726 137.242 48.992 137.242 48.9236C137.254 48.2349 137.251 47.5461 137.249 46.8574C137.249 46.2322 137.244 45.6069 137.234 44.9792C137.229 44.6104 137.381 43.7605 137.168 43.4283C136.836 42.9105 135.803 43.2574 135.327 43.3038C135.285 43.3086 135.254 43.3257 135.224 43.3477C135.134 43.3526 135.044 43.4112 135.041 43.5285C135.004 44.6251 134.968 45.7217 134.931 46.8159C134.909 47.5046 134.86 49.0555 134.851 49.3388C134.851 49.3657 134.831 49.3877 134.804 49.3901C134.509 49.4341 134.216 49.4805 133.92 49.5269C133.949 47.6414 133.979 45.7608 134.008 43.8802C134.015 43.355 134.176 42.7151 133.761 42.3097C133.375 41.9336 132.635 41.9018 132.137 41.897C132.1 41.897 132.074 41.9067 132.047 41.9189C131.944 41.8188 131.722 41.8628 131.719 42.0508C131.685 44.564 131.6 47.17 131.47 49.6808C131.465 49.7736 130.371 50.0569 130.371 50.0569C130.298 46.601 130.264 42.4465 130.191 39.0174C130.342 39.0027 130.479 38.9588 130.567 38.8538C130.667 38.7341 130.655 38.6169 130.659 38.4605C130.659 38.4386 130.659 38.4166 130.659 38.3946C130.909 38.5485 131.153 38.7072 131.397 38.8709C131.556 38.9783 131.778 38.8928 131.815 38.7048C131.915 38.209 131.807 37.8158 131.439 37.4665C131.37 37.403 131.294 37.381 131.224 37.3883L128.786 34.902C128.378 34.4868 127.99 34.1107 127.726 33.588C127.572 33.2852 127.497 33.0214 127.218 32.8065C126.693 32.3961 125.897 32.4499 125.274 32.4206C124.744 32.3961 124.109 32.2814 123.933 32.8968C123.777 33.0605 123.713 33.2339 123.687 33.5074C123.638 33.9861 123.928 34.057 123.13 34.3329C122.834 34.4355 122.343 34.4233 122.033 34.4526C120.443 34.5992 118.848 34.6358 117.253 34.6505C115.7 34.6651 113.998 34.4795 112.461 34.714C111.462 34.8654 111.609 35.7764 111.533 36.6337C111.521 36.7753 111.599 36.8608 111.702 36.8925C111.721 37.0171 111.812 37.1319 111.973 37.1368C112.801 37.171 113.626 37.1954 114.454 37.2149C114.454 37.2247 114.454 37.2369 114.459 37.2467C114.442 37.2736 114.432 37.3029 114.432 37.3444C114.437 37.7059 114.276 38.4312 114.652 38.6584C114.728 38.7048 114.833 38.7316 114.943 38.7512C114.757 42.5881 114.618 46.4251 114.528 50.2645C114.12 50.2669 113.712 50.2767 113.302 50.2816C113.255 48.2325 113.209 46.1858 113.162 44.1366C113.162 44.0804 113.157 44.0169 113.133 43.9681C113.123 43.9485 113.109 43.929 113.092 43.9168C113.043 43.8777 112.974 43.8777 112.911 43.8802C112.395 43.8973 111.883 43.9754 111.387 44.1146C110.119 44.4639 110.341 45.5507 110.302 46.6425C110.258 47.8856 110.222 49.1288 110.192 50.372C110.114 50.3427 110.019 50.3573 109.958 50.4428C109.794 50.6724 109.787 50.902 109.614 51.1364C109.428 51.388 109.203 51.4368 109.015 51.6762C108.676 52.1085 108.812 52.6751 108.944 53.1563C108.969 53.2466 109.042 53.2857 109.128 53.2955C115.407 54.1308 121.74 54.5093 128.075 54.397C129.529 54.3701 131.001 54.3726 132.445 54.1894C133.769 54.0209 135.034 53.6032 136.304 53.2124C137.068 52.978 138.927 52.1476 138.927 52.1476L138.837 50.7066C138.832 50.6162 138.766 50.5405 138.678 50.5234L138.162 50.4233L138.158 50.4159ZM130.906 37.8817C130.823 37.8304 130.74 37.7791 130.657 37.7278C130.657 37.6936 130.657 37.6619 130.657 37.6277C130.743 37.7132 130.826 37.7962 130.909 37.8817H130.906ZM126.434 38.8049C126.544 38.6852 126.529 38.5656 126.534 38.4093C126.547 38.038 126.527 37.6619 126.517 37.2882C126.859 37.2882 127.201 37.2882 127.543 37.2882C127.543 37.2955 127.543 37.3053 127.545 37.3126C127.531 37.3395 127.521 37.3688 127.521 37.4079C127.526 37.7669 127.379 38.485 127.721 38.7072C127.792 38.7536 127.885 38.7805 127.985 38.8C127.826 42.3732 127.665 46.6913 127.582 50.2792C127.348 50.284 127.111 50.2889 126.874 50.2865C126.678 50.2865 126.481 50.284 126.285 50.2816C126.197 46.5106 126.109 42.7396 126.021 38.9686C126.19 38.9539 126.339 38.9075 126.434 38.8025V38.8049ZM122.104 38.8049C122.214 38.6852 122.199 38.5656 122.204 38.4093C122.216 38.038 122.197 37.6643 122.187 37.2907C122.49 37.2907 122.79 37.2907 123.093 37.2907C123.088 37.3077 123.086 37.3248 123.086 37.3444C123.091 37.7059 122.929 38.4312 123.305 38.6584C123.381 38.7048 123.486 38.7316 123.596 38.7512C123.411 42.5857 123.271 46.4202 123.181 50.2572C122.773 50.2547 122.365 50.2547 121.957 50.2523C121.869 46.491 121.781 42.7298 121.694 38.971C121.862 38.9563 122.011 38.9099 122.106 38.8049H122.104ZM117.774 38.8049C117.883 38.6852 117.869 38.5656 117.874 38.4093C117.886 38.0331 117.866 37.6521 117.857 37.276C118.159 37.2784 118.462 37.2809 118.765 37.2809C118.758 37.3004 118.753 37.32 118.753 37.3444C118.758 37.7059 118.597 38.4312 118.973 38.6584C119.048 38.7048 119.153 38.7316 119.263 38.7512C119.078 42.5808 118.939 46.4129 118.848 50.245C118.44 50.245 118.032 50.2474 117.625 50.2498C117.537 46.491 117.449 42.7298 117.361 38.971C117.529 38.9563 117.678 38.9099 117.774 38.8049Z" fill="#DEAD90"/>
<path d="M123.34 37.1904C124.324 37.1342 125.306 37.144 126.288 37.2197C126.405 37.2295 126.405 37.0463 126.288 37.0366C125.303 36.9633 124.324 36.9535 123.34 37.0072C123.223 37.0146 123.223 37.1977 123.34 37.1904Z" fill="#2B0303"/>
<path d="M128.105 37.2537C128.872 37.5126 129.624 37.8105 130.362 38.1427C130.469 38.1915 130.562 38.0328 130.454 37.9839C129.702 37.6445 128.935 37.3416 128.154 37.0754C128.041 37.0363 127.995 37.2146 128.105 37.2512V37.2537Z" fill="#2B0303"/>
<path d="M121.755 37.0413C120.814 37.0315 119.872 37.0217 118.931 37.012C118.814 37.012 118.814 37.1951 118.931 37.1951C119.872 37.2049 120.814 37.2147 121.755 37.2244C121.872 37.2244 121.872 37.0413 121.755 37.0413Z" fill="#2B0303"/>
<path d="M114.777 37.2416C115.685 37.249 116.596 37.2368 117.505 37.205C117.622 37.2001 117.622 37.0169 117.505 37.0218C116.596 37.0536 115.688 37.0658 114.777 37.0585C114.659 37.0585 114.659 37.2416 114.777 37.2416Z" fill="#2B0303"/>
<path d="M124.07 34.2254C124.72 34.2718 125.372 34.3182 126.021 34.3646C126.608 34.4061 127.455 34.3255 127.856 34.8384C127.929 34.9312 128.056 34.8018 127.985 34.709C127.67 34.306 127.189 34.2669 126.713 34.2303C125.833 34.1643 124.952 34.1033 124.072 34.0398C123.955 34.0324 123.955 34.2156 124.072 34.2229L124.07 34.2254Z" fill="#2B0303"/>
<path d="M128 50.472C128.625 50.4964 129.243 50.4524 129.858 50.345C129.973 50.3254 129.924 50.1471 129.81 50.1691C129.209 50.2741 128.608 50.3132 128 50.2888C127.883 50.2839 127.883 50.4671 128 50.472Z" fill="#2B0303"/>
<path d="M123.499 50.316C124.285 50.3648 125.072 50.4137 125.858 50.4649C125.975 50.4723 125.975 50.2891 125.858 50.2818C125.072 50.2329 124.285 50.1841 123.499 50.1328C123.381 50.1255 123.381 50.3086 123.499 50.316Z" fill="#2B0303"/>
<path d="M119.258 50.4549C120.074 50.5062 120.89 50.5159 121.706 50.4842C121.823 50.4793 121.823 50.2961 121.706 50.301C120.89 50.3328 120.074 50.323 119.258 50.2717C119.141 50.2644 119.141 50.4475 119.258 50.4549Z" fill="#2B0303"/>
<path d="M114.757 50.4767C115.617 50.506 116.477 50.5353 117.337 50.5647C117.454 50.5695 117.454 50.3864 117.337 50.3815C116.477 50.3522 115.617 50.3229 114.757 50.2936C114.64 50.2887 114.64 50.4718 114.757 50.4767Z" fill="#2B0303"/>
<path d="M110.779 50.4454C111.433 50.4527 112.09 50.46 112.745 50.4698C112.862 50.4698 112.862 50.2891 112.745 50.2866C112.09 50.2793 111.433 50.272 110.779 50.2622C110.662 50.2622 110.662 50.4429 110.779 50.4454Z" fill="#2B0303"/>
<path d="M137.124 50.45C134.941 50.9336 132.757 51.4929 130.557 51.8935C129.411 52.1035 128.263 52.0644 127.103 52.0473C125.948 52.0302 124.793 52.0156 123.638 51.9985C121.408 51.9667 119.178 51.935 116.948 51.9057C114.725 51.8739 112.5 51.8397 110.293 51.5613C110.175 51.5466 110.178 51.7298 110.293 51.7445C112.539 52.0278 114.804 52.0595 117.068 52.0913C119.337 52.123 121.608 52.1548 123.877 52.1865C125.032 52.2036 126.187 52.2183 127.343 52.2354C128.359 52.25 129.375 52.2793 130.379 52.1108C132.657 51.7323 134.916 51.1266 137.171 50.6259C137.286 50.6014 137.237 50.4231 137.122 50.45H137.124Z" fill="#2B0303"/>
<path d="M94.874 25.0126C93.7164 21.8937 92.2827 19.041 91.5231 17.3925C90.3288 14.8011 88.6411 12.7544 86.1988 11.4209C77.5552 6.70465 65.2872 5.14398 55.7278 6.90004C51.0971 7.74999 46.652 9.29356 42.3021 11.1449C37.5102 13.1843 33.6805 16.2201 32.2225 21.6568C31.4751 24.4436 30.7302 27.2743 30.5812 30.1807C30.4664 32.4057 30.547 35.5539 32.3397 37.0999C33.1457 37.796 34.1959 38.0182 35.1924 38.2087C36.6822 38.4921 92.9641 39.0831 93.7579 38.6557C98.0076 36.3672 96.8353 30.3052 94.874 25.0175V25.0126Z" fill="#FAE1D2"/>
<path d="M89.342 32.7886C90.126 31.1791 90.7537 28.3875 89.5448 27.3568C88.1746 26.1893 86.9119 27.1394 86.04 28.3606C86.6945 25.5397 87.2343 21.2655 84.0934 21.7906C83.6416 21.8663 83.2215 22.0495 82.8331 22.3035C82.0589 20.9969 81.231 19.7195 80.3688 18.4666C79.2819 16.8864 78.1951 15.2671 76.9983 13.7675C76.0971 12.6366 75.0005 12.0969 73.5937 12.6782C73.5473 12.6977 73.5204 12.727 73.4984 12.7563C73.4764 12.7636 73.4545 12.7734 73.4325 12.7881C71.9695 13.7894 70.9095 15.2646 69.7665 16.5982C68.3157 18.2883 66.8356 19.9564 65.2139 21.4878C64.0831 20.247 62.9059 19.0601 61.565 18.0367C61.4795 17.9732 61.3965 17.9805 61.333 18.0245C61.2646 17.961 61.1645 17.9292 61.057 17.9732C59.4279 18.6571 58.3704 20.0419 56.9294 21.0042C55.4054 22.0202 53.5589 22.3768 52.0154 23.4099C51.7101 23.6151 51.4072 23.8227 51.1044 24.0352C50.9993 23.5687 50.8406 23.1486 50.6037 22.8457C50.0835 22.1863 49.1309 22.3231 48.4813 22.709C47.5751 23.2487 47.1526 24.2037 46.9108 25.1855C46.3515 25.0976 45.7336 25.271 45.1352 25.6178C45.7971 23.0924 46.6446 16.5811 42.7686 18.8842C39.6594 20.7306 39.2467 25.1293 39.1758 28.5413C38.3381 27.3348 36.6431 26.7047 35.5782 28.1457C34.9554 28.9858 35.0165 30.1264 35.1142 31.1107C35.2607 32.5957 35.3242 33.216 35.6564 34.5178C35.7126 34.7401 35.9128 34.8988 36.1424 34.9037C40.3897 34.9941 78.3954 35.7976 86.2915 35.4508C87.3491 35.4044 88.6069 35.5289 89.6425 35.2896C89.9868 35.2114 90.2408 35.0991 90.363 34.7523C90.6096 34.0513 90.0406 33.1134 89.3445 32.7837L89.342 32.7886Z" fill="#DEAD90"/>
<path d="M69.5222 17.0331C69.1485 18.269 68.809 21.1021 70.9437 20.6869C71.6593 20.5477 72.2747 20.1154 72.9781 19.9347C73.3372 19.8419 73.706 19.7661 74.0772 19.7491C74.3752 19.7344 74.4607 19.8297 74.7293 19.9029C75.5719 20.1252 75.9139 18.8014 76.4439 18.3471C76.8127 18.0296 77.2401 17.9222 77.7188 17.9979C78.3367 18.098 79.9609 19.2093 80.6398 18.8649C80.5495 18.7306 80.4591 18.5963 80.3687 18.4644C79.2819 16.8842 78.195 15.2649 76.9983 13.7653C76.097 12.6344 75.0004 12.0947 73.5936 12.676C73.5472 12.6955 73.5203 12.7248 73.4984 12.7541C73.4764 12.7614 73.4544 12.7712 73.4324 12.7859C71.9694 13.7872 70.9095 15.2624 69.7664 16.596C69.6761 16.7034 69.5832 16.8084 69.4904 16.9135C69.5197 16.9428 69.5344 16.9819 69.5197 17.0331H69.5222Z" fill="white"/>
<path d="M55.9427 23.0805C56.8439 22.9217 57.6865 22.5334 58.578 22.3307C59.4817 22.1231 60.1704 22.2232 61.0057 22.6091C61.9631 23.0512 62.6738 22.5114 63.3479 21.83C63.724 21.4514 64.0709 21.0436 64.4494 20.6674C63.5506 19.7271 62.6103 18.8308 61.5674 18.037C61.482 17.9735 61.3989 17.9808 61.3354 18.0248C61.267 17.9613 61.1669 17.9295 61.0594 17.9735C59.4304 18.6574 58.3728 20.0422 56.9318 21.0045C56.0208 21.6126 54.9926 21.9839 53.9839 22.4064C54.4211 22.973 55.0536 23.2368 55.9427 23.0805Z" fill="white"/>
<path d="M82.4204 22.8438C80.8598 24.8612 80.1979 27.4159 80.5862 29.9364C80.6448 29.9193 80.7035 29.9047 80.7621 29.8876C80.4519 28.8642 79.8413 27.77 78.6812 27.5917C77.7262 27.4476 76.9813 28.1291 76.6247 28.957C75.765 30.9622 76.864 33.3777 78.5884 34.5207C78.6861 34.5867 78.7789 34.4279 78.6812 34.362C77.1913 33.3728 76.2339 31.4727 76.5954 29.6726C76.7737 28.7836 77.3721 27.7725 78.3881 27.7505C79.6117 27.7236 80.2809 28.9253 80.5862 29.934C80.6204 30.0488 80.7816 29.9999 80.7621 29.8851C80.3859 27.4354 81.0332 24.9296 82.5499 22.9683C82.6207 22.8755 82.4913 22.7461 82.4204 22.8389V22.8438Z" fill="#2B0303"/>
<path d="M85.6762 29.0426C85.0143 30.7107 84.985 32.523 85.5907 34.2106C85.6298 34.3205 85.8081 34.2741 85.7665 34.1618C85.1706 32.501 85.2023 30.7303 85.852 29.089C85.896 28.9791 85.7177 28.9327 85.6762 29.0401V29.0426Z" fill="#2B0303"/>
<path d="M88.6996 32.8672C87.8277 33.1285 87.2977 34.0249 87.476 34.9139C87.5004 35.0287 87.6762 34.9798 87.6518 34.865C87.4931 34.0737 87.9766 33.2751 88.7484 33.043C88.8608 33.0088 88.8119 32.833 88.6996 32.8672Z" fill="#2B0303"/>
<path d="M47.1037 25.8989C48.7645 26.3531 49.485 28.053 49.3995 29.6577C49.3092 31.3673 48.4641 32.9549 47.7851 34.4911C47.7387 34.5986 47.8951 34.6914 47.9439 34.5839C48.7157 32.8376 49.7122 30.9863 49.5803 29.0153C49.4801 27.5352 48.64 26.1284 47.1526 25.7206C47.0378 25.6888 46.9889 25.8671 47.1037 25.8964V25.8989Z" fill="#2B0303"/>
<path d="M50.8137 24.8607C50.6721 26.055 50.528 27.2493 50.3863 28.4461C50.3765 28.5242 50.4938 28.5682 50.5426 28.512C51.3779 27.5155 52.9264 28.4314 52.3866 29.6428C52.3475 29.7283 52.4623 29.8431 52.5307 29.7528C53.4368 28.5804 54.6189 27.1394 56.2895 27.4447C57.1956 27.6108 57.7696 28.3484 57.7305 29.2692C57.6939 30.0825 57.2787 30.8518 56.883 31.5406C56.8513 31.5967 56.8903 31.6847 56.9612 31.6773C59.213 31.5064 61.377 32.9278 62.0999 35.0698C62.1365 35.1797 62.3148 35.1333 62.2758 35.0209C61.5284 32.8057 59.2936 31.3159 56.9587 31.4942C56.9856 31.5406 57.0125 31.587 57.0369 31.6309C57.7623 30.3707 58.6244 28.1896 56.7951 27.4056C54.9413 26.6094 53.4075 28.3166 52.3964 29.6233C52.4452 29.6599 52.4916 29.6966 52.5405 29.7332C53.1584 28.3435 51.395 27.2054 50.4083 28.3801L50.5646 28.4461C50.7063 27.2518 50.8504 26.0575 50.992 24.8607C51.0067 24.7435 50.8235 24.7459 50.8088 24.8607H50.8137Z" fill="#2B0303"/>
<path d="M56.5165 31.9781C55.8107 32.6057 55.4224 33.4728 55.4224 34.418C55.4224 34.5352 55.6055 34.5352 55.6055 34.418C55.6055 33.5167 55.9719 32.7083 56.646 32.1075C56.7339 32.0293 56.6045 31.8999 56.5165 31.9781Z" fill="#2B0303"/>
<path d="M44.7663 26.5928C42.6024 28.2829 42.8515 31.2284 43.1666 33.6561C43.1812 33.7709 43.3644 33.7734 43.3498 33.6561C43.0396 31.2748 42.7685 28.3855 44.8958 26.7223C44.9886 26.649 44.8591 26.522 44.7663 26.5928Z" fill="#2B0303"/>
<path d="M39.6179 29.8483C40.1479 31.0084 40.3188 32.254 40.121 33.5167C40.1039 33.6315 40.2798 33.6828 40.2968 33.5656C40.5044 32.2516 40.3286 30.9669 39.7766 29.7579C39.7278 29.6505 39.569 29.7433 39.6179 29.8508V29.8483Z" fill="#2B0303"/>
<path d="M64.0317 22.4114C62.8056 23.5862 61.9948 25.0883 60.8981 26.3705C59.8479 27.5966 58.4802 28.5076 57.5301 29.8265C57.4617 29.9217 57.6205 30.0145 57.6889 29.9193C58.6683 28.5613 60.097 27.6308 61.1595 26.3461C62.1926 25.098 62.9864 23.6693 64.1636 22.5409C64.2491 22.4603 64.1196 22.3308 64.0341 22.4114H64.0317Z" fill="#2B0303"/>
<path d="M75.8846 30.3614C74.7465 30.486 73.6327 30.7351 72.5581 31.1332C71.2636 31.6119 70.1084 32.0711 68.7089 32.1297C67.5219 32.1785 66.3545 32.2347 65.1797 32.435C63.8852 32.6548 62.6079 32.9772 61.3354 33.2996C61.2206 33.3289 61.2695 33.5048 61.3843 33.4754C62.5835 33.1726 63.7827 32.8697 65.0014 32.6499C66.313 32.4155 67.605 32.3739 68.9287 32.3007C70.0889 32.2372 71.1098 31.8903 72.1844 31.4703C73.3812 31.0013 74.6072 30.6838 75.887 30.5446C76.0018 30.5324 76.0043 30.3492 75.887 30.3614H75.8846Z" fill="#2B0303"/>
<path d="M44.9888 62.8767C44.9106 61.8363 44.8252 60.7958 44.7397 59.7554C44.3489 55.049 43.9288 50.5404 39.6742 47.6242C35.6077 44.8374 30.1001 44.7983 25.4157 45.7533C19.9887 46.8597 15.6267 50.1789 13.8804 55.5277C13.0085 58.1972 12.5468 60.9766 11.4087 63.5606C8.45833 70.2527 4.28188 76.8935 3.22189 84.2377C2.60153 88.5338 3.03139 95.9195 7.80377 97.4045C10.1338 98.1299 42.6246 99.7272 44.2414 95.1306C45.8803 90.4682 45.5774 82.1885 45.5994 77.2745C45.6214 72.4679 45.3527 67.6662 44.9888 62.8743V62.8767Z" fill="#FAE1D2"/>
<path d="M44.0655 91.7725C43.6747 91.1277 40.8978 90.6881 40.2676 90.5684C39.0489 90.3364 37.8082 90.2778 36.5699 90.2656C33.7905 90.2411 31.0086 90.2973 28.2292 90.3169C24.9515 90.3388 21.6739 90.3608 18.3938 90.3828C16.0247 90.3999 12.5834 90.4341 10.2363 90.7663C9.45472 90.8786 5.72034 91.7285 7.45198 93.4187C8.11631 94.0659 9.42541 94.0195 10.2802 94.1001C11.7408 94.2393 13.2038 94.3175 14.6692 94.3639C20.2622 94.5373 25.9138 94.5031 31.5069 94.3004C34.1226 94.2051 37.0315 94.0561 39.6399 93.8192C41.6134 93.6409 44.8519 93.0889 44.0606 91.7749L44.0655 91.7725Z" fill="white"/>
<path d="M41.8674 68.3866C41.7087 67.3706 40.5925 67.3559 39.7181 67.1288C39.7059 67.1264 39.6937 67.1264 39.6815 67.1239C38.9879 65.9784 37.9645 65.0015 36.5309 64.8501C34.8774 64.6742 33.6025 65.7318 32.5498 66.8308C31.5997 66.8577 30.8646 66.7576 30.7693 67.8469C30.6032 69.7397 30.5129 92.7199 30.5129 92.7199C30.2686 92.8542 40.7513 92.7199 41.0663 92.3707C41.3912 92.0092 41.4058 88.5581 41.44 87.6154C41.5108 85.6468 41.8699 68.3891 41.8699 68.3891L41.8674 68.3866Z" fill="#DEAD90"/>
<path d="M16.5571 66.8018C16.3935 74.9471 16.2567 83.0924 16.1443 91.2376C16.1419 91.499 16.3519 91.7139 16.6157 91.7139H30.547C30.7082 91.7139 30.8376 91.582 30.8352 91.4208C30.7448 83.339 30.7937 75.2572 30.9817 67.1755C31.0501 67.1657 31.4604 67.1266 31.734 67.1022C31.8756 67.09 31.9806 66.9752 31.9758 66.8384C31.966 66.4623 31.8854 65.2606 31.8072 64.5524C31.7901 64.3887 31.6045 64.3008 31.4482 64.2886L30.503 64.0956C30.4004 64.0737 30.3321 63.9833 30.3394 63.8831C30.4102 63.0308 30.4249 62.5887 30.1367 61.7485C29.9681 61.26 29.636 60.9206 29.338 60.5102C28.8911 59.8948 28.5906 59.7995 28.5296 59.1425C28.5638 58.4611 28.6908 57.7919 28.9179 57.13C28.9277 57.1031 28.9326 57.0787 28.935 57.0543C29.1939 56.9029 29.1255 56.4071 28.7323 56.3802C28.2805 56.3484 27.8311 56.3191 27.3792 56.2923C27.3573 56.2923 27.3426 56.2752 27.3377 56.2556C27.1179 54.8098 26.0042 53.6521 24.424 53.4665C22.6972 53.2637 21.1976 54.2895 20.5284 55.7818C20.4942 55.86 20.4869 55.9357 20.5015 56.0041C20.1669 55.9992 19.8299 55.9894 19.4953 55.9845C19.444 55.9845 19.4 55.9943 19.3585 56.0065C19.0996 55.9235 18.7577 56.1066 18.8774 56.4193C19.1973 57.2668 19.3902 58.2462 19.1973 59.145C19.085 59.6652 18.4353 60.0364 18.0836 60.3954C16.987 61.514 16.8184 62.5521 16.8746 64.0517C16.6084 64.0785 16.3397 64.1127 16.0735 64.1542C15.8293 64.1909 15.7853 64.1787 15.7609 64.4498C15.7365 64.7111 15.5875 66.3817 15.8342 66.5942C16.0296 66.7603 16.3055 66.7749 16.5571 66.8018Z" fill="#DEAD90"/>
<path d="M16.9969 64.242C17.8786 64.242 18.7603 64.2591 19.642 64.2787C19.8911 64.2835 20.1402 64.2909 20.3894 64.2982C20.5335 64.3031 20.956 64.2469 21.0879 64.3299C21.3785 64.5131 21.2369 65.5072 21.2295 65.7954C21.2198 66.0933 21.3028 66.5305 21.0024 66.6355C20.7728 66.7161 20.3943 66.6526 20.1525 66.66C19.686 66.6722 19.2195 66.6868 18.753 66.699C18.1668 66.7161 17.5831 66.7308 16.9969 66.7479C16.8797 66.7503 16.8797 66.9335 16.9969 66.9311C17.7834 66.9091 18.5698 66.8871 19.3562 66.8651C19.8276 66.8529 20.3014 66.8383 20.7728 66.826C20.9389 66.8212 21.1978 66.8602 21.3199 66.7137C21.5397 66.4548 21.42 65.639 21.42 65.3264C21.42 65.0382 21.4958 64.4105 21.232 64.1956C20.9804 63.988 20.2355 64.1101 19.9424 64.1028C18.9606 64.0784 17.9763 64.0613 16.9945 64.0588C16.8772 64.0588 16.8772 64.242 16.9945 64.242H16.9969Z" fill="#2B0303"/>
<path d="M30.066 64.181C29.2551 64.1541 28.4467 64.1395 27.6358 64.137C27.2719 64.137 26.9055 64.1248 26.5416 64.1419C26.4537 64.1468 26.2681 64.1224 26.1948 64.2152C25.9897 64.479 26.1777 65.324 26.1924 65.6342C26.2046 65.9151 26.1069 66.6063 26.3218 66.8139C26.4732 66.958 26.9422 66.9091 27.1351 66.9287C27.5259 66.9677 27.9142 66.9995 28.3075 67.019C29.0939 67.0606 29.8803 67.0532 30.6668 67.0166C30.784 67.0117 30.784 66.8285 30.6668 66.8334C29.4871 66.8896 28.3099 66.8652 27.1376 66.7455C26.991 66.7308 26.4977 66.7333 26.4317 66.6527C26.4 66.6136 26.4171 66.4329 26.4146 66.3865C26.4 66.1349 26.3878 65.8858 26.378 65.6342C26.3658 65.3655 26.3536 65.0969 26.3462 64.8282C26.3438 64.7232 26.3145 64.584 26.3389 64.4814C26.378 64.3056 26.312 64.4204 26.4244 64.3275C26.5245 64.2445 26.9959 64.3227 27.1547 64.3202C27.4795 64.3202 27.8019 64.3202 28.1267 64.3202C28.774 64.3251 29.4236 64.3398 30.0708 64.3617C30.1881 64.3666 30.1881 64.1834 30.0708 64.1786L30.066 64.181Z" fill="#2B0303"/>
<path d="M24.4877 56.2581C23.816 55.772 22.9978 56.1482 22.7658 56.9224C22.4776 57.8871 23.3886 58.7859 24.3265 58.3194C25.1031 57.9335 25.1837 56.7612 24.4877 56.2581Z" fill="white"/>
<path d="M25.5182 59.7506C25.4962 59.67 25.4327 59.6016 25.3179 59.6041C24.8441 59.6114 24.3702 59.6187 23.8964 59.626C23.4421 59.6334 22.9219 59.5699 22.475 59.648C22.177 59.6993 22.1037 59.8923 22.1184 60.1145C22.1159 60.6812 22.1135 61.2478 22.1111 61.8144C22.1111 62.0757 21.9889 62.5862 22.2478 62.7791C22.5189 62.9819 23.1417 62.8646 23.4592 62.8695C24.0918 62.8817 24.7244 62.8939 25.3545 62.9061C25.4522 62.9061 25.545 62.8426 25.5646 62.7547C25.6158 62.5422 25.611 59.7677 25.5206 59.7506H25.5182Z" fill="white"/>
<path d="M23.8819 59.4089C23.877 59.255 23.6376 59.255 23.6425 59.4089C23.6816 60.6716 23.6889 61.9318 23.667 63.1945C23.6645 63.3484 23.9039 63.3484 23.9063 63.1945C23.9307 61.9318 23.921 60.6716 23.8819 59.4089Z" fill="#DEAD90"/>
<path d="M34.24 73.809C34.2253 73.7528 34.1814 73.7064 34.1032 73.7088L33.1312 73.7235C32.8185 73.7284 32.4644 73.6844 32.1591 73.7381C31.9564 73.7748 31.9051 73.9042 31.9149 74.0581C31.9149 74.4464 31.91 74.8348 31.91 75.2207C31.91 75.399 31.8269 75.7482 32.0028 75.8801C32.1884 76.0193 32.6134 75.9387 32.8307 75.9412C33.263 75.9485 33.6953 75.9582 34.1276 75.9656C34.1936 75.9656 34.2571 75.9216 34.2717 75.863C34.3059 75.7165 34.3035 73.8187 34.2424 73.809H34.24Z" fill="white"/>
<path d="M37.3416 73.777C37.327 73.7208 37.283 73.6744 37.2048 73.6769C36.88 73.6817 36.5552 73.6866 36.2328 73.6915C35.9202 73.6964 35.566 73.6524 35.2607 73.7062C35.058 73.7428 35.0067 73.8722 35.0165 74.0261C35.0165 74.4144 35.0116 74.8028 35.0116 75.1887C35.0116 75.367 34.9286 75.7162 35.1044 75.8481C35.29 75.9873 35.715 75.9067 35.9324 75.9092C36.3647 75.9165 36.797 75.9263 37.2293 75.9336C37.2952 75.9336 37.3587 75.8896 37.3734 75.831C37.4076 75.6845 37.4051 73.7868 37.3441 73.777H37.3416Z" fill="white"/>
<path d="M40.2041 73.7479C40.1894 73.6918 40.1455 73.6454 40.0673 73.6478C39.7425 73.6527 39.4177 73.6576 39.0953 73.6625C38.7826 73.6673 38.4285 73.6234 38.1232 73.6771C37.9205 73.7137 37.8692 73.8432 37.879 73.9971C37.879 74.3854 37.8741 74.7737 37.8741 75.1596C37.8741 75.3379 37.791 75.6872 37.9669 75.8191C38.1525 75.9583 38.5775 75.8777 38.7949 75.8801C39.2272 75.8874 39.6595 75.8972 40.0918 75.9045C40.1577 75.9045 40.2212 75.8606 40.2359 75.802C40.27 75.6554 40.2676 73.7577 40.2065 73.7479H40.2041Z" fill="white"/>
<path d="M22.0842 68.4476C22.0622 68.367 21.9987 68.2986 21.8839 68.3011C21.4101 68.3084 20.9363 68.3157 20.4625 68.3231C20.0082 68.3304 19.488 68.2669 19.041 68.345C18.743 68.3963 18.6698 68.5893 18.6844 68.8115C18.682 69.3782 18.6795 69.9448 18.6771 70.5114C18.6771 70.7728 18.555 71.2832 18.8139 71.4762C19.085 71.6789 19.7078 71.5617 20.0253 71.5665C20.6579 71.5787 21.2904 71.591 21.9206 71.6032C22.0182 71.6032 22.1111 71.5397 22.1306 71.4517C22.1819 71.2393 22.177 68.4647 22.0866 68.4476H22.0842Z" fill="white"/>
<path d="M20.4455 68.1059C20.4406 67.952 20.2012 67.952 20.2061 68.1059C20.2452 69.3686 20.2525 70.6288 20.2306 71.8915C20.2281 72.0454 20.4675 72.0454 20.4699 71.8915C20.4943 70.6288 20.4846 69.3686 20.4455 68.1059Z" fill="#DEAD90"/>
<path d="M29.0352 68.4476C29.0132 68.367 28.9497 68.2986 28.8349 68.3011C28.3611 68.3084 27.8873 68.3157 27.4135 68.3231C26.9592 68.3304 26.4389 68.2669 25.992 68.345C25.694 68.3963 25.6208 68.5893 25.6354 68.8115C25.633 69.3782 25.6305 69.9448 25.6281 70.5114C25.6281 70.7728 25.506 71.2832 25.7649 71.4762C26.036 71.6789 26.6588 71.5617 26.9763 71.5665C27.6088 71.5787 28.2414 71.591 28.8715 71.6032C28.9692 71.6032 29.062 71.5397 29.0816 71.4517C29.1329 71.2393 29.128 68.4647 29.0376 68.4476H29.0352Z" fill="white"/>
<path d="M27.3964 68.1059C27.3915 67.952 27.1522 67.952 27.1571 68.1059C27.1961 69.3686 27.2035 70.6288 27.1815 71.8915C27.179 72.0454 27.4184 72.0454 27.4208 71.8915C27.4453 70.6288 27.4355 69.3686 27.3964 68.1059Z" fill="#DEAD90"/>
<path d="M22.0842 73.6063C22.0622 73.5062 21.9987 73.4207 21.8839 73.4231C21.4101 73.4329 20.9363 73.4402 20.4625 73.45C20.0082 73.4573 19.488 73.3792 19.041 73.4769C18.743 73.5428 18.6698 73.7797 18.6844 74.0557C18.682 74.7591 18.6795 75.465 18.6771 76.1684C18.6771 76.4932 18.555 77.1282 18.8139 77.3676C19.085 77.6216 19.7078 77.4726 20.0253 77.4799C20.6579 77.4946 21.2904 77.5092 21.9206 77.5239C22.0182 77.5239 22.1111 77.4457 22.1306 77.3358C22.1819 77.0696 22.177 73.6234 22.0866 73.6039L22.0842 73.6063Z" fill="white"/>
<path d="M20.4455 73.1785C20.4406 72.988 20.2012 72.988 20.2061 73.1785C20.2452 74.7465 20.2525 76.3145 20.2306 77.8825C20.2281 78.073 20.4675 78.073 20.4699 77.8825C20.4943 76.3145 20.4846 74.7465 20.4455 73.1785Z" fill="#DEAD90"/>
<path d="M29.0352 73.6063C29.0132 73.5062 28.9497 73.4207 28.8349 73.4231C28.3611 73.4329 27.8873 73.4402 27.4135 73.45C26.9592 73.4573 26.4389 73.3792 25.992 73.4769C25.694 73.5428 25.6208 73.7797 25.6354 74.0557C25.633 74.7591 25.6305 75.465 25.6281 76.1684C25.6281 76.4932 25.506 77.1282 25.7649 77.3676C26.036 77.6216 26.6588 77.4726 26.9763 77.4799C27.6088 77.4946 28.2414 77.5092 28.8715 77.5239C28.9692 77.5239 29.062 77.4457 29.0816 77.3358C29.1329 77.0696 29.128 73.6234 29.0376 73.6039L29.0352 73.6063Z" fill="white"/>
<path d="M27.3964 73.1785C27.3915 72.988 27.1522 72.988 27.1571 73.1785C27.1961 74.7465 27.2035 76.3145 27.1815 77.8825C27.179 78.073 27.4184 78.073 27.4208 77.8825C27.4453 76.3145 27.4355 74.7465 27.3964 73.1785Z" fill="#DEAD90"/>
<path d="M22.0842 79.629C22.0622 79.5289 21.9987 79.4434 21.8839 79.4459C21.4101 79.4556 20.9363 79.463 20.4625 79.4727C20.0082 79.48 19.488 79.4019 19.041 79.4996C18.743 79.5655 18.6698 79.8024 18.6844 80.0784C18.682 80.7818 18.6795 81.4877 18.6771 82.1911C18.6771 82.5159 18.555 83.1509 18.8139 83.3903C19.085 83.6443 19.7078 83.4953 20.0253 83.5026C20.6579 83.5173 21.2904 83.5319 21.9206 83.5466C22.0182 83.5466 22.1111 83.4684 22.1306 83.3585C22.1819 83.0923 22.177 79.6461 22.0866 79.6266L22.0842 79.629Z" fill="white"/>
<path d="M20.4455 79.2015C20.4406 79.011 20.2012 79.011 20.2061 79.2015C20.2452 80.7695 20.2525 82.3375 20.2306 83.9055C20.2281 84.096 20.4675 84.096 20.4699 83.9055C20.4943 82.3375 20.4846 80.7695 20.4455 79.2015Z" fill="#DEAD90"/>
<path d="M29.0352 79.629C29.0132 79.5289 28.9497 79.4434 28.8349 79.4459C28.3611 79.4556 27.8873 79.463 27.4135 79.4727C26.9592 79.48 26.4389 79.4019 25.992 79.4996C25.694 79.5655 25.6208 79.8024 25.6354 80.0784C25.633 80.7818 25.6305 81.4877 25.6281 82.1911C25.6281 82.5159 25.506 83.1509 25.7649 83.3903C26.036 83.6443 26.6588 83.4953 26.9763 83.5026C27.6088 83.5173 28.2414 83.5319 28.8715 83.5466C28.9692 83.5466 29.062 83.4684 29.0816 83.3585C29.1329 83.0923 29.128 79.6461 29.0376 79.6266L29.0352 79.629Z" fill="white"/>
<path d="M34.24 81.3317C34.2253 81.2608 34.1814 81.2022 34.1032 81.2047C33.7784 81.212 33.456 81.2169 33.1312 81.2242C32.8185 81.2291 32.4644 81.1754 32.1591 81.2437C31.9564 81.2877 31.9051 81.4538 31.9149 81.6467C31.9149 82.1352 31.91 82.6261 31.91 83.1146C31.91 83.3393 31.8269 83.7814 32.0028 83.9474C32.1884 84.1233 32.6134 84.0207 32.8307 84.0256C33.263 84.0354 33.6953 84.0451 34.1276 84.0573C34.1936 84.0573 34.2571 84.0012 34.2717 83.9279C34.3059 83.7447 34.3035 81.3488 34.2424 81.3341L34.24 81.3317Z" fill="white"/>
<path d="M27.3964 79.2015C27.3915 79.011 27.1522 79.011 27.1571 79.2015C27.1961 80.7695 27.2035 82.3375 27.1815 83.9055C27.179 84.096 27.4184 84.096 27.4208 83.9055C27.4453 82.3375 27.4355 80.7695 27.3964 79.2015Z" fill="#DEAD90"/>
<path d="M22.9833 83.4612C21.2248 81.263 19.3759 79.1211 17.4415 77.0402C17.3707 76.962 17.2901 76.9205 17.2071 76.8985C17.1191 76.5835 16.5256 76.4003 16.2228 76.7569C16.0421 76.9669 15.8662 77.1794 15.6855 77.3919C13.8586 79.2041 12.1025 81.0652 10.4222 82.9849C10.217 83.2218 10.3049 83.5051 10.4979 83.6663C10.4002 86.5508 10.3416 89.4352 10.3294 92.3196C10.3294 92.5859 10.5394 92.73 10.769 92.7568C10.8423 92.8399 20.2698 92.8765 22.5314 92.8838C22.8001 92.8838 23.0175 92.6958 23.0175 92.4589C23.0321 89.7332 23.0468 86.7804 23.059 84.0791C23.059 84.0058 23.0443 83.9399 23.015 83.8861C23.0932 83.7665 23.1029 83.6175 22.9784 83.4636L22.9833 83.4612Z" fill="white"/>
<path d="M33.0237 80.96V84.7823C33.0237 84.8995 33.2069 84.8995 33.2069 84.7823V80.96C33.2069 80.8428 33.0237 80.8428 33.0237 80.96Z" fill="#D6AF92"/>
<path d="M35.3316 83.5811C33.5731 81.3829 31.7242 79.241 29.7899 77.1601C29.719 77.0819 29.6384 77.0404 29.5554 77.0184C29.4675 76.7033 28.874 76.5202 28.5711 76.8768C28.3904 77.0868 28.2145 77.2993 28.0338 77.5118C26.2069 79.3216 24.4509 81.1851 22.7705 83.1048C22.5653 83.3417 22.6533 83.625 22.8462 83.7862C22.7485 86.6707 22.6899 89.5551 22.6777 92.4395C22.6777 92.7057 22.5971 92.8596 22.8267 92.884C22.8999 92.9671 32.6181 92.9939 34.8798 93.0037C35.1484 93.0037 35.3658 92.8156 35.3658 92.5787C35.3804 89.8531 35.3951 86.9002 35.4073 84.199C35.4073 84.1257 35.3927 84.0598 35.3633 84.006C35.4415 83.8864 35.4513 83.7374 35.3267 83.5835L35.3316 83.5811Z" fill="white"/>
<path d="M22.6045 84.0889C22.5727 86.6803 22.541 89.2692 22.5092 91.8605C22.5092 91.9777 22.69 91.9777 22.6924 91.8605C22.7241 89.2692 22.7559 86.6803 22.7876 84.0889C22.7876 83.9717 22.6069 83.9717 22.6045 84.0889Z" fill="#2B0303"/>
<path d="M23.9967 83.3586C24.8002 82.4451 25.6013 81.5341 26.4048 80.6207C26.8322 80.1346 27.2597 79.6486 27.6895 79.1601C27.9948 78.8133 28.5468 77.8925 29.0133 77.8437C29.343 77.8095 29.3992 78.0342 29.6019 78.2955C29.7973 78.5495 29.9951 78.8011 30.1905 79.0551C30.6033 79.5875 31.0136 80.12 31.4239 80.6549C32.181 81.6391 32.9357 82.6259 33.688 83.615C33.7588 83.7078 33.9176 83.615 33.8467 83.5222C32.9724 82.3743 32.098 81.2288 31.2163 80.0882C30.8206 79.5753 30.425 79.0624 30.0269 78.5495C29.8071 78.2662 29.4822 77.5604 29.0719 77.5335C28.7446 77.514 28.4613 78.0098 28.283 78.2125L26.8396 79.8538C25.8504 80.9797 24.8613 82.1056 23.8721 83.2291C23.7939 83.317 23.9234 83.4465 24.0015 83.3586H23.9967Z" fill="#2B0303"/>
<path d="M11.5552 83.3172C12.3856 82.4429 13.216 81.5661 14.0464 80.6917C14.4885 80.2252 14.933 79.7587 15.3751 79.2922C15.7585 78.8892 16.1591 78.2884 16.6207 77.9807C17.0677 77.6803 17.2508 77.9489 17.5073 78.2664C17.7076 78.5156 17.9078 78.7622 18.1057 79.0089C18.4793 79.473 18.8555 79.9395 19.2291 80.4035C20.0034 81.3634 20.7776 82.3256 21.5518 83.2855C21.6251 83.3783 21.7546 83.2464 21.6813 83.156C20.8069 82.0716 19.9325 80.9872 19.0582 79.9028C18.6088 79.346 18.1594 78.7867 17.71 78.2298C17.517 77.9904 17.2777 77.4946 16.9113 77.5459C16.5132 77.5997 16.164 78.1932 15.9075 78.4618C15.4093 78.9869 14.911 79.512 14.4128 80.0371C13.4163 81.0874 12.4198 82.1376 11.4233 83.1878C11.3427 83.2733 11.4722 83.4027 11.5528 83.3172H11.5552Z" fill="#2B0303"/>
<path d="M26.7883 83.515C26.7444 83.3563 26.593 83.2488 26.4269 83.2513C26.0288 83.2561 25.0982 83.2684 25.0787 83.2855C24.9834 83.3001 24.8979 83.366 24.8979 83.4906V86.0038C24.8979 86.1186 24.9981 86.2285 25.1178 86.2236C25.445 86.209 26.5783 86.2749 26.7102 86.1455C26.8201 86.0404 26.8787 83.8399 26.7883 83.515Z" fill="#DEAD90"/>
<path d="M29.5653 80.7059C29.5458 80.6375 29.4823 80.5935 29.4114 80.5935C29.2429 80.5935 28.8497 80.6008 28.8424 80.6082C28.8033 80.6155 28.7667 80.6423 28.7667 80.6961V81.7585C28.7667 81.8074 28.8082 81.8538 28.8595 81.8513C28.9987 81.8464 29.4774 81.8733 29.5336 81.8171C29.58 81.7732 29.6044 80.8402 29.5653 80.7034V80.7059Z" fill="#DEAD90"/>
<path d="M15.6073 80.7059C15.5878 80.6375 15.5243 80.5935 15.4534 80.5935C15.2849 80.5935 14.8917 80.6008 14.8844 80.6082C14.8453 80.6155 14.8087 80.6423 14.8087 80.6961C14.8087 81.0502 14.8087 81.4044 14.8087 81.7585C14.8087 81.8074 14.8502 81.8538 14.9015 81.8513C15.0407 81.8464 15.5194 81.8733 15.5756 81.8171C15.622 81.7732 15.6464 80.8402 15.6073 80.7034V80.7059Z" fill="#DEAD90"/>
<path d="M18.2376 80.7059C18.2181 80.6375 18.1546 80.5935 18.0837 80.5935C17.9152 80.5935 17.522 80.6008 17.5147 80.6082C17.4756 80.6155 17.439 80.6423 17.439 80.6961C17.439 81.0502 17.439 81.4044 17.439 81.7585C17.439 81.8074 17.4805 81.8538 17.5318 81.8513C17.671 81.8464 18.1497 81.8733 18.2059 81.8171C18.2523 81.7732 18.2767 80.8402 18.2376 80.7034V80.7059Z" fill="#DEAD90"/>
<path d="M30.276 83.515C30.232 83.3563 30.0806 83.2488 29.9145 83.2513C29.5164 83.2561 28.5858 83.2684 28.5663 83.2855C28.471 83.3001 28.3856 83.366 28.3856 83.4906C28.3856 84.3283 28.3856 85.1661 28.3856 86.0038C28.3856 86.1186 28.4857 86.2285 28.6054 86.2236C28.9326 86.209 30.0635 86.2749 30.1978 86.1455C30.3077 86.0404 30.3663 83.8399 30.276 83.515Z" fill="#DEAD90"/>
<path d="M32.5693 83.515C32.5254 83.3563 32.374 83.2488 32.2079 83.2513C31.8098 83.2561 30.8792 83.2684 30.8597 83.2855C30.7644 83.3001 30.679 83.366 30.679 83.4906V86.0038C30.679 86.1186 30.7791 86.2285 30.8988 86.2236C31.226 86.209 32.3593 86.2749 32.4912 86.1455C32.6011 86.0404 32.6597 83.8399 32.5693 83.515Z" fill="#DEAD90"/>
<path d="M26.7883 87.2296C26.7444 87.0709 26.593 86.9634 26.4269 86.9659C26.0288 86.9707 25.0982 86.983 25.0787 87.0001C24.9834 87.0147 24.8979 87.0807 24.8979 87.2052V89.7184C24.8979 89.8332 24.9981 89.9431 25.1178 89.9382C25.445 89.9236 26.5783 89.9895 26.7102 89.8601C26.8201 89.755 26.8787 87.5545 26.7883 87.2296Z" fill="#DEAD90"/>
<path d="M30.276 87.2296C30.232 87.0709 30.0806 86.9634 29.9145 86.9659C29.5164 86.9707 28.5858 86.983 28.5663 87.0001C28.471 87.0147 28.3856 87.0807 28.3856 87.2052C28.3856 88.0429 28.3856 88.8807 28.3856 89.7184C28.3856 89.8332 28.4857 89.9431 28.6054 89.9382C28.9326 89.9236 30.0635 89.9895 30.1978 89.8601C30.3077 89.755 30.3663 87.5545 30.276 87.2296Z" fill="#DEAD90"/>
<path d="M32.5693 87.2296C32.5254 87.0709 32.374 86.9634 32.2079 86.9659C31.8098 86.9707 30.8792 86.983 30.8597 87.0001C30.7644 87.0147 30.679 87.0807 30.679 87.2052V89.7184C30.679 89.8332 30.7791 89.9431 30.8988 89.9382C31.226 89.9236 32.3593 89.9895 32.4912 89.8601C32.6011 89.755 32.6597 87.5545 32.5693 87.2296Z" fill="#DEAD90"/>
<path d="M14.5838 83.515C14.5398 83.3563 14.3884 83.2488 14.2223 83.2513C13.8242 83.2561 12.8936 83.2684 12.8741 83.2855C12.7788 83.3001 12.6934 83.366 12.6934 83.4906C12.6934 84.3283 12.6934 85.1661 12.6934 86.0038C12.6934 86.1186 12.7935 86.2285 12.9132 86.2236C13.2404 86.209 14.3737 86.2749 14.5056 86.1455C14.6155 86.0404 14.6741 83.8399 14.5838 83.515Z" fill="#DEAD90"/>
<path d="M18.074 83.515C18.03 83.3563 17.8786 83.2488 17.7125 83.2513C17.3144 83.2561 16.3839 83.2684 16.3643 83.2855C16.2691 83.3001 16.1836 83.366 16.1836 83.4906C16.1836 84.3283 16.1836 85.1661 16.1836 86.0038C16.1836 86.1186 16.2837 86.2285 16.4034 86.2236C16.7307 86.209 17.8639 86.2749 17.9958 86.1455C18.1057 86.0404 18.1644 83.8399 18.074 83.515Z" fill="#DEAD90"/>
<path d="M20.3671 83.515C20.3232 83.3563 20.1717 83.2488 20.0057 83.2513C19.6076 83.2561 18.677 83.2684 18.6575 83.2855C18.5622 83.3001 18.4767 83.366 18.4767 83.4906V86.0038C18.4767 86.1186 18.5769 86.2285 18.6966 86.2236C19.0238 86.209 20.1571 86.2749 20.289 86.1455C20.3989 86.0404 20.4575 83.8399 20.3671 83.515Z" fill="#DEAD90"/>
<path d="M14.5838 87.2296C14.5398 87.0709 14.3884 86.9634 14.2223 86.9659C13.8242 86.9707 12.8936 86.983 12.8741 87.0001C12.7788 87.0147 12.6934 87.0807 12.6934 87.2052C12.6934 88.0429 12.6934 88.8807 12.6934 89.7184C12.6934 89.8332 12.7935 89.9431 12.9132 89.9382C13.2404 89.9236 14.3737 89.9895 14.5056 89.8601C14.6155 89.755 14.6741 87.5545 14.5838 87.2296Z" fill="#DEAD90"/>
<path d="M18.074 87.2296C18.03 87.0709 17.8786 86.9634 17.7125 86.9659C17.3144 86.9707 16.3839 86.983 16.3643 87.0001C16.2691 87.0147 16.1836 87.0807 16.1836 87.2052C16.1836 88.0429 16.1836 88.8807 16.1836 89.7184C16.1836 89.8332 16.2837 89.9431 16.4034 89.9382C16.7307 89.9236 17.8639 89.9895 17.9958 89.8601C18.1057 89.755 18.1644 87.5545 18.074 87.2296Z" fill="#DEAD90"/>
<path d="M20.3671 87.2296C20.3232 87.0709 20.1717 86.9634 20.0057 86.9659C19.6076 86.9707 18.677 86.983 18.6575 87.0001C18.5622 87.0147 18.4767 87.0807 18.4767 87.2052V89.7184C18.4767 89.8332 18.5769 89.9431 18.6966 89.9382C19.0238 89.9236 20.1571 89.9895 20.289 89.8601C20.3989 89.755 20.4575 87.5545 20.3671 87.2296Z" fill="#DEAD90"/>
<path d="M25.8211 82.9947C25.7821 84.1377 25.7405 85.2783 25.7015 86.4213C25.6966 86.5385 25.8797 86.5385 25.8846 86.4213C25.9237 85.2783 25.9652 84.1377 26.0043 82.9947C26.0092 82.8774 25.826 82.8774 25.8211 82.9947Z" fill="white"/>
<path d="M29.238 82.7945C29.2185 83.9888 29.2014 85.1856 29.1818 86.3799C29.1818 86.4971 29.3626 86.4971 29.365 86.3799C29.3845 85.1856 29.4016 83.9888 29.4212 82.7945C29.4212 82.6772 29.2404 82.6772 29.238 82.7945Z" fill="white"/>
<path d="M31.463 82.9139C31.4752 84.1106 31.4435 85.3049 31.3678 86.4992C31.3604 86.6165 31.5436 86.6165 31.5509 86.4992C31.6267 85.3049 31.6584 84.1106 31.6462 82.9139C31.6462 82.7966 31.463 82.7966 31.463 82.9139Z" fill="white"/>
<path d="M31.5338 86.8611C31.5558 87.9895 31.5558 89.1179 31.5387 90.2487C31.5387 90.3659 31.7195 90.3659 31.7219 90.2487C31.7414 89.1203 31.739 87.9919 31.717 86.8611C31.717 86.7439 31.5314 86.7439 31.5338 86.8611Z" fill="white"/>
<path d="M29.2724 86.939C29.2577 88.0283 29.2724 89.1176 29.3212 90.2069C29.3261 90.3241 29.5093 90.3241 29.5044 90.2069C29.4556 89.1176 29.4409 88.0283 29.4556 86.939C29.4556 86.8218 29.2748 86.8218 29.2724 86.939Z" fill="white"/>
<path d="M25.7917 86.8999C25.8284 87.9355 25.8455 88.9711 25.8479 90.0066C25.8479 90.1239 26.0311 90.1239 26.0311 90.0066C26.0311 88.9711 26.0115 87.9355 25.9749 86.8999C25.97 86.7827 25.7868 86.7827 25.7917 86.8999Z" fill="white"/>
<path d="M15.2016 82.2815C15.2016 83.4099 15.187 84.5407 15.1601 85.6691C15.1577 85.7863 15.3409 85.7863 15.3433 85.6691C15.3677 84.5407 15.3824 83.4123 15.3848 82.2815C15.3848 82.1643 15.2016 82.1643 15.2016 82.2815Z" fill="white"/>
<path d="M17.0434 83.1189C16.9774 84.3279 16.9799 85.5344 17.0434 86.7458C17.0507 86.8631 17.2339 86.8631 17.2265 86.7458C17.1606 85.5369 17.1581 84.3303 17.2265 83.1189C17.2339 83.0017 17.0507 83.0017 17.0434 83.1189Z" fill="white"/>
<path d="M19.2805 82.9287C19.2146 84.1377 19.217 85.3442 19.2805 86.5557C19.2879 86.6729 19.471 86.6729 19.4637 86.5557C19.3978 85.3467 19.3953 84.1402 19.4637 82.9287C19.471 82.8115 19.2879 82.8115 19.2805 82.9287Z" fill="white"/>
<path d="M17.0188 87.0613C17.0994 88.1775 17.1116 89.2912 17.0603 90.4074C17.0555 90.5246 17.2386 90.5246 17.2435 90.4074C17.2948 89.2912 17.2826 88.175 17.202 87.0613C17.1947 86.9441 17.0115 86.9441 17.0188 87.0613Z" fill="white"/>
<path d="M19.3122 86.8611L19.256 90.0484C19.256 90.1656 19.4368 90.1656 19.4392 90.0484L19.4954 86.8611C19.4954 86.7439 19.3147 86.7439 19.3122 86.8611Z" fill="white"/>
<path d="M13.5921 83.2776C13.6214 84.3791 13.6263 85.4831 13.6092 86.5846C13.6092 86.7018 13.79 86.7018 13.7924 86.5846C13.8095 85.4806 13.8022 84.3791 13.7753 83.2776C13.7729 83.1604 13.5897 83.1604 13.5921 83.2776Z" fill="white"/>
<path d="M13.6068 86.9854C13.6215 88.0478 13.6264 89.1102 13.6166 90.1727C13.6166 90.2899 13.7998 90.2899 13.7998 90.1727C13.8096 89.1102 13.8071 88.0478 13.79 86.9854C13.79 86.8682 13.6044 86.8682 13.6068 86.9854Z" fill="white"/>
<path d="M31.5606 72.0504C34.6502 72.0992 37.7374 72.1994 40.8245 72.3508C40.9418 72.3557 40.9418 72.1725 40.8245 72.1676C37.7374 72.0162 34.6502 71.916 31.5606 71.8672C31.4434 71.8672 31.4434 72.0479 31.5606 72.0504Z" fill="#2B0303"/>
<path d="M32.7917 72.0062C32.7868 70.9829 32.5915 69.8911 32.7795 68.8776C33.0262 67.5416 34.1961 66.7185 35.471 66.4498C36.8314 66.1641 38.3945 66.5866 39.115 67.8591C39.8038 69.0729 39.5498 70.8314 39.5693 72.1796C39.5693 72.2969 39.7549 72.2969 39.7525 72.1796C39.7403 71.2711 39.7598 70.3527 39.7061 69.4466C39.6646 68.7725 39.5351 68.1082 39.1346 67.5489C38.3701 66.4743 37.0219 66.0298 35.7446 66.2129C34.5527 66.3839 33.2362 67.0531 32.7746 68.2279C32.313 69.4027 32.6012 70.7777 32.6086 72.0038C32.6086 72.121 32.7917 72.121 32.7917 72.0038V72.0062Z" fill="#2B0303"/>
<path d="M39.6253 68.3014C40.3605 68.3967 41.0981 68.4431 41.8406 68.4431C41.9578 68.4431 41.9578 68.2599 41.8406 68.2599C41.0981 68.2599 40.3605 68.2135 39.6253 68.1183C39.5081 68.1036 39.5106 68.2868 39.6253 68.3014Z" fill="#2B0303"/>
<path d="M31.1161 68.3942C31.6192 68.5065 32.1224 68.5432 32.6377 68.4992C32.7549 68.4894 32.7549 68.3063 32.6377 68.316C32.1419 68.36 31.6534 68.3282 31.165 68.2183C31.0502 68.1915 31.0013 68.3698 31.1161 68.3942Z" fill="#2B0303"/>
<path d="M33.0237 73.5132V76.5418C33.0237 76.659 33.2069 76.659 33.2069 76.5418V73.5132C33.2069 73.396 33.0237 73.396 33.0237 73.5132Z" fill="#D6AF92"/>
<path d="M36.1841 73.5938C36.1719 74.5365 36.1597 75.4793 36.1475 76.422C36.1475 76.5393 36.3282 76.5393 36.3306 76.422C36.3429 75.4793 36.3551 74.5365 36.3673 73.5938C36.3673 73.4766 36.1865 73.4766 36.1841 73.5938Z" fill="#D6AF92"/>
<path d="M39.0784 73.5132C39.0515 74.5366 39.0246 75.5599 38.9978 76.5808C38.9953 76.6981 39.1785 76.6981 39.1809 76.5808C39.2078 75.5575 39.2347 74.5341 39.2615 73.5132C39.264 73.396 39.0808 73.396 39.0784 73.5132Z" fill="#D6AF92"/>
<path d="M34.24 77.3207C34.2253 77.2499 34.1814 77.1912 34.1032 77.1937C33.7784 77.201 33.456 77.2059 33.1312 77.2132C32.8185 77.2181 32.4644 77.1644 32.1591 77.2328C31.9564 77.2767 31.9051 77.4428 31.9149 77.6357C31.9149 78.1242 31.91 78.6151 31.91 79.1036C31.91 79.3283 31.8269 79.7704 32.0028 79.9365C32.1884 80.1123 32.6134 80.0097 32.8307 80.0146C33.263 80.0244 33.6953 80.0341 34.1276 80.0464C34.1936 80.0464 34.2571 79.9902 34.2717 79.9169C34.3059 79.7337 34.3035 77.3378 34.2424 77.3231L34.24 77.3207Z" fill="white"/>
<path d="M37.3416 77.2821C37.327 77.2113 37.283 77.1527 37.2048 77.1551C36.88 77.1624 36.5552 77.1673 36.2328 77.1746C35.9202 77.1795 35.566 77.1258 35.2607 77.1942C35.058 77.2381 35.0067 77.4042 35.0165 77.5972C35.0165 78.0856 35.0116 78.5766 35.0116 79.065C35.0116 79.2897 34.9286 79.7318 35.1044 79.8979C35.29 80.0737 35.715 79.9712 35.9324 79.976C36.3647 79.9858 36.797 79.9956 37.2293 80.0078C37.2952 80.0078 37.3587 79.9516 37.3734 79.8783C37.4076 79.6952 37.4051 77.2992 37.3441 77.2845L37.3416 77.2821Z" fill="white"/>
<path d="M40.2041 77.2406C40.1894 77.1698 40.1455 77.1112 40.0673 77.1136C39.7425 77.1209 39.4177 77.1258 39.0953 77.1331C38.7826 77.138 38.4285 77.0843 38.1232 77.1527C37.9205 77.1966 37.8692 77.3627 37.879 77.5557C37.879 78.0441 37.8741 78.5351 37.8741 79.0235C37.8741 79.2482 37.791 79.6903 37.9669 79.8564C38.1525 80.0322 38.5775 79.9296 38.7949 79.9345C39.2272 79.9443 39.6595 79.9541 40.0918 79.9663C40.1577 79.9663 40.2212 79.9101 40.2359 79.8368C40.27 79.6537 40.2676 77.2577 40.2065 77.243L40.2041 77.2406Z" fill="white"/>
<path d="M33.0237 76.9468V80.5957C33.0237 80.7129 33.2069 80.7129 33.2069 80.5957V76.9468C33.2069 76.8296 33.0237 76.8296 33.0237 76.9468Z" fill="#D6AF92"/>
<path d="M36.1841 77.0498C36.1719 78.2393 36.1597 79.4311 36.1475 80.6206C36.1475 80.7378 36.3306 80.7378 36.3306 80.6206C36.3429 79.4311 36.3551 78.2393 36.3673 77.0498C36.3673 76.9326 36.1841 76.9326 36.1841 77.0498Z" fill="#D6AF92"/>
<path d="M39.0783 76.9468C39.0515 78.2388 39.0246 79.5284 38.9977 80.8204C38.9977 80.9376 39.1785 80.9376 39.1809 80.8204C39.2078 79.5284 39.2347 78.2388 39.2615 76.9468C39.2615 76.8296 39.0808 76.8296 39.0783 76.9468Z" fill="#D6AF92"/>
<path d="M37.3416 81.2924C37.327 81.2215 37.283 81.1629 37.2048 81.1654C36.88 81.1727 36.5552 81.1776 36.2328 81.1849C35.9202 81.1898 35.566 81.136 35.2607 81.2044C35.058 81.2484 35.0067 81.4145 35.0165 81.6074C35.0165 82.0959 35.0116 82.5868 35.0116 83.0753C35.0116 83.3 34.9286 83.7421 35.1044 83.9081C35.29 84.084 35.715 83.9814 35.9324 83.9863C36.3647 83.9961 36.797 84.0058 37.2293 84.018C37.2952 84.018 37.3587 83.9619 37.3734 83.8886C37.4076 83.7054 37.4051 81.3095 37.3441 81.2948L37.3416 81.2924Z" fill="white"/>
<path d="M40.2041 81.2533C40.1894 81.1825 40.1455 81.1239 40.0673 81.1263C39.7425 81.1336 39.4177 81.1385 39.0953 81.1458C38.7826 81.1507 38.4285 81.097 38.1232 81.1654C37.9205 81.2093 37.8692 81.3754 37.879 81.5684C37.879 82.0568 37.8741 82.5478 37.8741 83.0362C37.8741 83.2609 37.791 83.703 37.9669 83.8691C38.1525 84.0449 38.5775 83.9423 38.7949 83.9472C39.2272 83.957 39.6595 83.9668 40.0918 83.979C40.1577 83.979 40.2212 83.9228 40.2359 83.8495C40.27 83.6664 40.2676 81.2704 40.2065 81.2557L40.2041 81.2533Z" fill="white"/>
<path d="M36.1841 81.0603C36.1719 82.2498 36.1597 83.4416 36.1475 84.6311C36.1475 84.7483 36.3306 84.7483 36.3306 84.6311C36.3429 83.4416 36.3551 82.2498 36.3673 81.0603C36.3673 80.9431 36.1841 80.9431 36.1841 81.0603Z" fill="#D6AF92"/>
<path d="M39.0783 80.96C39.0515 82.252 39.0246 83.5416 38.9977 84.8336C38.9977 84.9508 39.1785 84.9508 39.1809 84.8336C39.2078 83.5416 39.2347 82.252 39.2615 80.96C39.2615 80.8428 39.0808 80.8428 39.0783 80.96Z" fill="#D6AF92"/>
<path d="M36.9267 68.4334C36.255 67.9473 35.4368 68.3234 35.2048 69.0977C34.9166 70.0624 35.8276 70.9612 36.7655 70.4947C37.5422 70.1088 37.6228 68.9365 36.9267 68.4334Z" fill="white"/>
<path d="M30.8548 67.5782C30.7791 71.0585 30.7034 74.5365 30.6277 78.0168C30.6253 78.1341 30.8084 78.1341 30.8109 78.0168C30.8866 74.5365 30.9623 71.0585 31.038 67.5782C31.0405 67.4609 30.8573 67.4609 30.8548 67.5782Z" fill="#2B0303"/>
</g>
</svg>
