<svg width="101" height="84" viewBox="0 0 101 84" fill="none" xmlns="http://www.w3.org/2000/svg">
<path d="M32.29 68.2997C32.29 68.2997 11.29 68.1197 10.75 68.2997C10.21 68.4797 0 81.2697 0 82.0797C0 82.8897 99.87 83.5097 100 82.5797C100.13 81.6497 91.23 68.3197 90.47 68.2197C89.71 68.1197 32.29 68.2997 32.29 68.2997Z" fill="#ADB2C4"/>
<path d="M45.7499 25.1299C45.7499 25.1299 45.3999 28.8499 44.6599 32.4899C44.4358 33.624 44.1521 34.7456 43.8099 35.8499C43.3651 37.2845 42.8409 38.6933 42.2399 40.0699C41.9099 40.8099 41.5999 41.5199 41.2399 42.1999C41.1299 42.4399 41.0099 42.6799 40.8999 42.9299C38.8999 47.2899 37.2699 51.3299 34.2699 54.4499C30.8799 57.9999 24.1899 63.5399 24.1899 63.5399L22.4299 61.9999C22.4299 61.9999 27.6499 54.2199 29.3199 51.5799C30.9899 48.9399 32.9299 47.5199 33.4999 46.5799C33.9499 45.8699 36.4999 31.2199 40.1699 27.7599C40.9517 27.1625 41.8135 26.6778 42.7299 26.3199C43.1299 26.1399 43.5399 25.9599 43.9199 25.8099C44.9399 25.4299 45.7499 25.1299 45.7499 25.1299Z" fill="#F6A77C"/>
<path d="M24.4199 63.2301C23.6388 64.3316 22.7585 65.3593 21.7899 66.3001C20.7899 67.0601 20.1199 66.4001 19.5799 66.3001C19.0399 66.2001 18.3699 66.1901 18.1899 65.6501C18.0099 65.1101 20.5199 63.1201 20.4699 62.5701C20.4199 62.0201 19.0299 62.5701 18.8099 62.1901C18.5899 61.8101 19.1299 61.3001 20.1799 61.1001C21.3373 60.778 22.5449 60.6763 23.7399 60.8001C24.9199 61.0501 25.0199 61.3601 24.9199 61.6701C24.8199 61.9801 24.4199 63.2301 24.4199 63.2301Z" fill="#F6A77C"/>
<path d="M20.8001 63.1799C20.6651 63.2973 20.5028 63.3789 20.3281 63.4173C20.1534 63.4557 19.9719 63.4498 19.8001 63.3999L19.4301 63.3199C19.1901 63.2599 19.2101 62.8199 19.0901 62.6299C19.0683 62.5912 19.039 62.5573 19.0039 62.5302C18.9688 62.5031 18.9285 62.4833 18.8856 62.4721C18.8426 62.4609 18.7979 62.4585 18.754 62.465C18.7101 62.4715 18.6679 62.4868 18.6301 62.5099C17.9801 62.9499 18.2701 64.1899 18.8901 64.5099C19.5101 64.8299 20.8901 65.0999 21.1301 64.1899C21.2262 64.1357 21.3166 64.0721 21.4001 63.9999C21.7501 63.5499 21.3001 62.8599 20.8001 63.1799Z" fill="#F6A77C"/>
<path d="M79.47 62.0002L77.7 63.5402C77.7 63.5402 71 58.0002 67.59 54.4502C64.59 51.3402 63 47.3202 61 43.0002L60.64 42.2302L59.64 40.1002C59.0433 38.7219 58.5193 37.3134 58.07 35.8802C57.6518 34.4787 57.3573 33.0432 57.19 31.5902C56.9183 29.4005 56.7747 27.1967 56.76 24.9902L57.41 25.2902L58.41 25.7802C59.41 26.2302 60.41 26.7302 60.64 26.8502C65 29.3902 68 45.9102 68.39 46.6202C68.96 47.5202 70.91 48.9502 72.57 51.6202C74.23 54.2902 79.47 62.0002 79.47 62.0002Z" fill="#F6A77C"/>
<path d="M77.4699 63.2299C78.2542 64.3289 79.1343 65.3563 80.0999 66.2999C81.0999 67.0599 81.7699 66.3999 82.3099 66.2999C82.8499 66.1999 83.5199 66.1899 83.6999 65.6499C83.8799 65.1099 81.3699 63.1199 81.4199 62.5699C81.4699 62.0199 82.8599 62.5699 83.0899 62.1899C83.3199 61.8099 82.7699 61.2999 81.7099 61.0999C80.5526 60.7774 79.3449 60.6756 78.1499 60.7999C76.9799 61.0499 76.8799 61.3599 76.9699 61.6699C77.0599 61.9799 77.4699 63.2299 77.4699 63.2299Z" fill="#F6A77C"/>
<path d="M81.18 63.1799C81.3114 63.3033 81.4737 63.3889 81.6497 63.4276C81.8258 63.4664 82.009 63.4568 82.18 63.3999L82.55 63.3199C82.79 63.2599 82.77 62.8199 82.89 62.6299C82.9118 62.5912 82.9411 62.5573 82.9762 62.5302C83.0113 62.5031 83.0516 62.4833 83.0945 62.4721C83.1375 62.4609 83.1822 62.4585 83.2261 62.465C83.27 62.4715 83.3122 62.4868 83.35 62.5099C84.01 62.9499 83.71 64.1899 83.1 64.5099C82.49 64.8299 81.1 65.0999 80.86 64.1899C80.7574 64.1139 80.6635 64.0267 80.58 63.9299C80.22 63.5499 80.67 62.8599 81.18 63.1799Z" fill="#F6A77C"/>
<path d="M56.64 8.30007C56.3839 7.33603 55.8051 6.48892 55 5.90007C54.2316 5.33929 53.3109 5.0254 52.36 5.00007C51.73 5.00007 51.09 4.91007 50.4599 4.90007C50.0544 4.89721 49.6495 4.93067 49.25 5.00007C49.2172 4.99114 49.1827 4.99114 49.15 5.00007C48.571 5.01693 48.005 5.1752 47.5012 5.46106C46.9975 5.74692 46.5713 6.15169 46.2599 6.64007C45.8851 7.27184 45.58 7.94244 45.3499 8.64007C44.8456 9.90941 44.6935 11.2914 44.91 12.6401C44.9471 13.316 45.0544 13.9863 45.23 14.6401C45.523 15.2287 45.9449 15.7439 46.4642 16.1472C46.9836 16.5506 47.5871 16.8318 48.23 16.9701C48.2693 16.9802 48.3106 16.9802 48.3499 16.9701C48.9763 17.1535 49.6275 17.2379 50.2799 17.2201C51.4394 17.3031 52.6031 17.1325 53.6899 16.7201C54.6248 16.2544 55.4218 15.5528 56.0024 14.6847C56.5829 13.8165 56.9267 12.8119 57 11.7701C57.0653 10.6016 56.9438 9.43022 56.64 8.30007Z" fill="#79453C"/>
<path d="M58.7099 26.0001L52.8299 30.4701C52.7314 30.5677 52.6061 30.6338 52.4699 30.6601C52.3275 30.6697 52.1852 30.6385 52.0599 30.5701L43.1799 26.9101C43.1799 26.9101 44.4799 26.1501 44.7899 25.9101C45.4599 25.3701 46.1699 24.9101 46.8799 24.4001C47.4199 24.0401 48.1599 23.4601 48.1399 22.7301C48.1399 22.5701 48.1399 22.4101 48.1399 22.2601C48.135 21.5585 48.095 20.8576 48.0199 20.1601C48.0199 20.0901 48.0199 19.9901 48.0199 19.8901C47.9896 19.7211 48.0105 19.547 48.0799 19.3901C48.2099 19.2401 48.5899 19.2901 48.7699 19.2701L50.4699 19.0001C51.6399 18.8701 52.8199 18.7201 53.9999 18.5601C53.9099 18.5601 53.9999 21.3701 53.9999 21.6301C53.9247 22.2187 54.0112 22.8168 54.2499 23.3601C54.6199 23.9401 55.4099 24.1801 55.9699 24.5101C56.2899 24.7201 58.7099 26.0001 58.7099 26.0001Z" fill="#F6A77C"/>
<path d="M46.15 12.5903C46.15 13.9203 46.27 15.2203 46.36 16.4703C46.4487 17.6252 46.9211 18.7172 47.7021 19.5725C48.4832 20.4279 49.5279 20.9974 50.6699 21.1903C51.5874 21.185 52.4839 20.9152 53.2519 20.4133C54.0199 19.9113 54.6268 19.1985 55 18.3603C55.79 16.7503 55.83 11.0203 55.83 11.0203C55.6744 10.0366 55.171 9.14127 54.4112 8.49716C53.6515 7.85306 52.6859 7.50291 51.6899 7.51035C50.2566 7.44757 48.8218 7.5924 47.43 7.94035C45.77 8.64035 46.17 11.0803 46.15 12.5903Z" fill="#F6A77C"/>
<path d="M54.3899 13.7902C54.3899 13.7902 55.1599 12.0002 56.2199 12.7902C57.2799 13.5802 56.6199 15.7902 55.8799 16.3802C55.1399 16.9702 54.9999 17.0702 54.9999 17.0002C54.9999 16.9302 54.3899 13.7902 54.3899 13.7902Z" fill="#F6A77C"/>
<path d="M47.47 13.6102C47.47 13.6102 46.56 11.8902 45.57 12.7702C44.58 13.6502 45.42 15.8402 46.21 16.3202C47 16.8002 47.12 16.9302 47.14 16.8302C47.16 16.7302 47.47 13.6102 47.47 13.6102Z" fill="#F6A77C"/>
<path d="M54.6099 12.36C54.3494 12.1518 54.0324 12.0265 53.6999 12C53.4611 11.9871 53.2217 12.0107 52.9899 12.07C52.9054 12.086 52.8242 12.1165 52.7499 12.16C52.6799 12.22 52.6299 12.41 52.7499 12.47C52.9053 12.5172 53.0682 12.5342 53.2299 12.52C53.6299 12.52 54.0299 12.58 54.4299 12.63C54.8299 12.68 54.7899 12.5 54.6099 12.36Z" fill="#79453C"/>
<path d="M47.7499 12.67L48.6499 12.56C48.9127 12.585 49.1778 12.5578 49.4299 12.48C49.5399 12.42 49.4899 12.23 49.4299 12.17C49.355 12.1299 49.2739 12.1029 49.1899 12.09C48.9591 12.0257 48.7189 12.002 48.4799 12.02C48.1493 12.047 47.8334 12.1685 47.5699 12.37C47.3799 12.52 47.4999 12.71 47.7499 12.67Z" fill="#79453C"/>
<path d="M50.5101 16.15C50.523 16.1212 50.5399 16.0943 50.5601 16.07C50.6901 15.87 50.8501 15.68 50.9801 15.47C51.1182 15.2665 51.2072 15.0337 51.2401 14.79C51.2538 14.5852 51.2805 14.3814 51.3201 14.18C51.4901 13.95 51.6101 14.58 51.6201 14.69C51.6801 15.26 51.6201 16.79 50.7301 16.69C50.3601 16.69 50.3701 16.4 50.5101 16.15Z" fill="#E87E58"/>
<path d="M51.0001 18.57C49.7801 18.57 49.4901 18.02 49.4601 17.96C49.4502 17.937 49.4449 17.9123 49.4446 17.8873C49.4443 17.8623 49.4489 17.8375 49.4582 17.8142C49.4675 17.791 49.4812 17.7698 49.4987 17.752C49.5162 17.7341 49.5371 17.7198 49.5601 17.71C49.5817 17.7 49.6052 17.6944 49.629 17.6935C49.6528 17.6926 49.6766 17.6964 49.6989 17.7048C49.7212 17.7132 49.7417 17.7259 49.7591 17.7423C49.7764 17.7586 49.7904 17.7782 49.8001 17.8C49.8001 17.8 50.0401 18.21 51.0301 18.19C51.2601 18.207 51.491 18.1738 51.7068 18.0926C51.9227 18.0114 52.1183 17.8843 52.2801 17.72C52.3137 17.6933 52.3553 17.6787 52.3982 17.6787C52.4412 17.6787 52.4828 17.6932 52.5164 17.7198C52.5501 17.7465 52.5737 17.7838 52.5834 17.8256C52.5931 17.8674 52.5885 17.9112 52.5701 17.95C52.3728 18.1576 52.1332 18.3204 51.8675 18.4273C51.6018 18.5343 51.3162 18.583 51.0301 18.57H51.0001Z" fill="#EB9165"/>
<path d="M54.2701 14C54.1054 14.055 53.9336 14.0853 53.7601 14.09C53.6201 14.09 53.4801 14.09 53.3501 14.09C53.3196 14.0905 53.2902 14.1008 53.2662 14.1195C53.2422 14.1382 53.2249 14.1642 53.217 14.1936C53.2091 14.223 53.2109 14.2542 53.2223 14.2824C53.2337 14.3106 53.254 14.3344 53.2801 14.35C53.449 14.4294 53.6334 14.4705 53.8201 14.4705C54.0067 14.4705 54.1911 14.4294 54.3601 14.35C54.5601 14.22 54.4701 13.91 54.2701 14Z" fill="#45211A"/>
<path d="M48.0599 14.0602C48.2253 14.1137 48.3965 14.1473 48.5699 14.1602C48.6999 14.1602 48.8399 14.1102 48.9699 14.1602C49.0003 14.1607 49.0298 14.171 49.0538 14.1897C49.0778 14.2084 49.0951 14.2344 49.103 14.2638C49.1109 14.2932 49.109 14.3244 49.0976 14.3526C49.0862 14.3808 49.066 14.4046 49.0399 14.4202C48.7499 14.6502 48.2899 14.5202 47.9699 14.4202C47.9221 14.4083 47.8811 14.3779 47.8558 14.3357C47.8305 14.2935 47.823 14.243 47.8349 14.1952C47.8468 14.1475 47.8772 14.1064 47.9194 14.0811C47.9616 14.0558 48.0121 14.0483 48.0599 14.0602Z" fill="#45211A"/>
<path d="M55.7201 15.6101C55.6956 15.6102 55.6713 15.6052 55.6488 15.5955C55.6263 15.5859 55.606 15.5717 55.5891 15.5539C55.5723 15.5361 55.5592 15.5151 55.5508 15.4921C55.5424 15.4691 55.5387 15.4446 55.5401 15.4201L55.6001 13.5201C55.6 13.4956 55.605 13.4714 55.6147 13.4488C55.6243 13.4263 55.6385 13.406 55.6563 13.3892C55.6741 13.3723 55.6951 13.3593 55.7181 13.3508C55.7411 13.3424 55.7656 13.3388 55.7901 13.3401C55.8146 13.3401 55.8388 13.345 55.8613 13.3547C55.8839 13.3644 55.9042 13.3785 55.921 13.3963C55.9379 13.4141 55.9509 13.4352 55.9594 13.4582C55.9678 13.4812 55.9714 13.5057 55.9701 13.5301L55.9101 15.4301C55.9075 15.4788 55.8864 15.5246 55.851 15.5581C55.8156 15.5915 55.7688 15.6102 55.7201 15.6101Z" fill="#EB9165"/>
<path d="M46.2801 15.61C46.233 15.6103 46.1875 15.593 46.1524 15.5616C46.1172 15.5302 46.0951 15.4869 46.0901 15.44L45.9401 13.38C45.9373 13.3556 45.9396 13.3308 45.9468 13.3073C45.954 13.2838 45.9659 13.262 45.9818 13.2432C45.9977 13.2245 46.0174 13.2092 46.0394 13.1983C46.0615 13.1875 46.0855 13.1812 46.1101 13.18C46.1589 13.1772 46.2069 13.1933 46.2442 13.2249C46.2814 13.2566 46.305 13.3014 46.3101 13.35L46.4701 15.41C46.4704 15.4598 46.4521 15.5078 46.4188 15.5448C46.3855 15.5818 46.3396 15.605 46.2901 15.61H46.2801Z" fill="#EB9165"/>
<path d="M51.83 22.1001C51.1505 22.4601 50.3985 22.6618 49.63 22.6901C49.1344 22.7352 48.6357 22.7352 48.14 22.6901C48.14 22.5301 48.14 22.3701 48.14 22.2201C48.1351 21.5185 48.0951 20.8177 48.02 20.1201C48.02 20.0501 48.02 19.9501 48.02 19.8501C48.7958 20.5269 49.7509 20.9645 50.77 21.1101C52.14 21.1401 52.21 21.7401 51.83 22.1001Z" fill="#EB9165"/>
<path d="M55.0501 8.99992C55.1061 8.86789 55.1236 8.72271 55.1006 8.58114C55.0776 8.43958 55.015 8.30741 54.9201 8.19992C54.7316 7.98045 54.4858 7.81772 54.2101 7.72992C53.5138 7.48901 52.7862 7.35089 52.0501 7.31992C50.8852 7.1663 49.703 7.20346 48.5501 7.42992C47.687 7.5963 46.9129 8.06855 46.3701 8.75992C46.2601 8.89992 46.1701 9.12992 46.3101 9.24992C45.8685 10.0189 45.6829 10.9085 45.7801 11.7899C45.7898 11.8562 45.7898 11.9236 45.7801 11.9899C45.7801 11.9899 46.1201 12.0999 46.1101 12.1499C46.0401 12.4699 46.3301 12.9599 46.5301 12.6999C46.5801 12.6199 46.6801 12.1599 46.7601 11.9199C46.9501 11.3799 47.0301 10.9899 47.2301 10.4599C47.3927 10.0267 47.6534 9.63701 47.9917 9.32128C48.33 9.00555 48.7367 8.77235 49.1801 8.63992C49.836 8.49336 50.5102 8.44616 51.1801 8.49992C51.7126 8.49433 52.2445 8.53447 52.7701 8.61992C53.3017 8.70425 53.7923 8.95657 54.1701 9.33992C54.4931 9.76447 54.7247 10.2514 54.8501 10.7699L55.4601 12.7699C55.4601 12.7699 55.4601 12.7699 55.4601 12.8199C55.4601 12.8699 55.5701 12.8199 55.6201 12.8199C55.7415 12.734 55.8421 12.6221 55.9148 12.4924C55.9874 12.3626 56.0303 12.2183 56.0401 12.0699C56.1386 11.5163 56.0998 10.9469 55.9272 10.4117C55.7546 9.87648 55.4535 9.39174 55.0501 8.99992Z" fill="#79453C"/>
<path d="M57.74 12.8901C57.8498 12.6052 57.8985 12.3005 57.883 11.9956C57.8675 11.6906 57.7881 11.3924 57.65 11.1201C57.4152 10.8287 57.1429 10.5698 56.84 10.3501C56.4784 10.0089 56.1625 9.62234 55.9 9.20011C55.8 9.05011 55.68 8.91011 55.58 8.75011C55.48 8.59011 55.42 8.25011 55.3 8.07011C55.18 7.89011 55.3 7.95011 55.07 7.83011C55.0472 8.23545 55.1335 8.63948 55.32 9.00011C55.1646 8.90814 54.9901 8.85338 54.81 8.84011C54.7673 8.82991 54.7227 8.82991 54.68 8.84011C54.4803 8.62027 54.2433 8.43745 53.98 8.30011L53.68 8.17011C53.59 8.11011 53.51 8.04011 53.42 7.99011C53.3706 7.95904 53.3134 7.94255 53.255 7.94255C53.1966 7.94255 53.1394 7.95904 53.09 7.99011C52.7134 7.88884 52.313 7.92427 51.96 8.09011L51.79 7.77011C51.7734 7.74101 51.7494 7.71682 51.7204 7.7C51.6914 7.68318 51.6585 7.67432 51.625 7.67432C51.5915 7.67432 51.5586 7.68318 51.5296 7.7C51.5006 7.71682 51.4766 7.74101 51.46 7.77011L51.4 7.85011C51.3844 7.87126 51.3743 7.89592 51.3706 7.9219C51.3668 7.94788 51.3695 7.9744 51.3784 7.9991C51.3872 8.02381 51.4021 8.04594 51.4216 8.06356C51.441 8.08117 51.4645 8.09373 51.49 8.10011C51.5901 8.30881 51.6705 8.52643 51.73 8.75011C51.8062 8.96895 51.9033 9.17993 52.02 9.38011C52.2689 9.78837 52.6117 10.1312 53.02 10.3801C53.39 10.6201 53.61 10.7501 53.69 11.2001C53.6997 11.4257 53.7298 11.65 53.78 11.8701C53.99 12.5601 54.61 12.8701 54.65 13.6401C54.6198 14.0981 54.5529 14.5529 54.45 15.0001C54.4356 15.1983 54.4639 15.3972 54.5329 15.5835C54.6019 15.7698 54.71 15.9391 54.85 16.0801C55.17 16.5301 55.23 17.0801 55.85 17.2001C56.0104 17.268 56.1896 17.2771 56.356 17.2259C56.5225 17.1747 56.6655 17.0664 56.76 16.9201C56.8874 16.6937 56.9849 16.4517 57.05 16.2001C57.2589 15.855 57.4859 15.5212 57.73 15.2001C58.21 14.2701 57.58 13.8001 57.74 12.8901Z" fill="#79453C"/>
<path d="M53.6799 2.58003C52.9999 1.93003 53.2099 1.06003 52.1099 0.920034C51.7999 0.920034 51.5499 0.870034 51.2999 0.820033C51.2185 0.63941 51.098 0.479091 50.9472 0.350622C50.7963 0.222154 50.6189 0.128733 50.4276 0.0770868C50.2363 0.0254408 50.036 0.0168552 49.841 0.0519483C49.646 0.0870413 49.4612 0.16494 49.2999 0.280033C48.9681 0.553721 48.7088 0.904882 48.5449 1.30252C48.3809 1.70015 48.3174 2.13203 48.3599 2.56003C48.0706 2.82302 47.8771 3.17486 47.8099 3.56003C47.7318 3.85535 47.7531 4.16818 47.8706 4.45016C47.9881 4.73214 48.1952 4.96757 48.4599 5.12003C48.6392 5.36739 48.8856 5.55824 49.1699 5.67003C49.8879 5.94475 50.682 5.94475 51.3999 5.67003C51.462 5.63321 51.5295 5.60622 51.5999 5.59003C51.9375 5.5571 52.272 5.4969 52.5999 5.41003C53.0295 5.31529 53.4305 5.11993 53.7699 4.84003C53.932 4.69654 54.0602 4.5188 54.1451 4.31967C54.2301 4.12053 54.2697 3.905 54.2611 3.68868C54.2525 3.47236 54.1958 3.26066 54.0953 3.06891C53.9948 2.87717 53.8529 2.71018 53.6799 2.58003Z" fill="#79453C"/>
<path d="M43.18 26.8702C43.18 26.8702 39.47 35.0902 39.52 35.9402C39.57 36.7902 40.73 40.7502 41.34 44.1402C41.67 45.9202 42.25 48.5402 42.49 51.0202C42.73 53.5002 40.22 57.5802 40.22 57.5802L52.51 63.7102L63 58.0002C63 58.0002 59.32 52.5302 59.86 49.5802C60.47 46.2602 62.06 34.9902 62.06 34.9902L58.72 25.9902L43.18 26.8702Z" fill="#F6A77C"/>
<path d="M80.9099 66.5901C77.9099 64.1101 64.8099 57.9101 63.2699 57.1201C61.7299 56.3301 60.9299 52.3901 60.1099 52.0601C57.1517 51.8451 54.1842 51.7883 51.2199 51.8901C48.2557 51.7879 45.2881 51.8447 42.3299 52.0601C41.4999 52.3901 40.7799 56.3701 39.2299 57.1601C37.6799 57.9501 24.5099 64.1601 21.5199 66.5901C18.5299 69.0201 15.8199 74.3101 19.9999 77.0001C24.1799 79.6901 33.7399 79.1001 39.9999 78.3101C43.4099 77.8801 47.7999 77.3901 51.1399 77.0301C54.4699 77.3901 58.8699 77.8801 62.2699 78.3101C68.5799 79.1001 78.1199 79.7101 82.3299 77.0001C86.5399 74.2901 83.8999 69.0701 80.9099 66.5901Z" fill="#F5E8E1"/>
<path d="M61.7299 38.1803C61.592 39.8011 61.3481 41.4112 61 43.0003C60.84 43.8003 60.72 44.3603 60.72 44.3603L41.5 44.8503C41.5 44.8503 41.25 44.0303 40.97 42.9503C40.5683 41.5705 40.3103 40.153 40.2 38.7203C40.2 35.9503 42.45 33.4303 42.54 32.5003C42.63 31.5703 42.7299 27.6703 42.7599 26.3803C43.1599 26.2003 43.57 26.0203 43.95 25.8703C43.87 27.6703 43.7599 32.2503 44.6899 32.5103C48.8198 32.7511 52.9601 32.7511 57.09 32.5103C57.1844 32.2094 57.2316 31.8956 57.2299 31.5803C57.3599 29.8703 57.43 26.3203 57.45 25.2803L58.45 25.7703C58.5 27.2703 58.7 32.2003 59.13 32.9203C59.56 33.6403 61.7299 36.0003 61.7299 38.1803Z" fill="#DB633B"/>
<path d="M60.5401 34.4101C60.5162 34.4054 60.4934 34.3959 60.4733 34.3821C60.4531 34.3684 60.436 34.3507 60.4229 34.3301C60.4098 34.3095 60.401 34.2865 60.3971 34.2624C60.3932 34.2384 60.3942 34.2138 60.4001 34.1901L61.0001 31.6201C61.0059 31.5958 61.0166 31.5728 61.0313 31.5526C61.046 31.5324 61.0646 31.5153 61.086 31.5023C61.1074 31.4893 61.1311 31.4806 61.1558 31.4768C61.1805 31.473 61.2058 31.4741 61.2301 31.4801C61.2542 31.4858 61.2769 31.4964 61.2968 31.5113C61.3166 31.5262 61.3331 31.5451 61.3453 31.5667C61.3575 31.5883 61.3652 31.6122 61.3677 31.6368C61.3702 31.6615 61.3676 31.6865 61.3601 31.7101L60.7601 34.2701C60.7554 34.294 60.7459 34.3167 60.7321 34.3369C60.7184 34.357 60.7007 34.3742 60.6801 34.3873C60.6595 34.4003 60.6365 34.4091 60.6124 34.413C60.5884 34.417 60.5637 34.416 60.5401 34.4101Z" fill="#EB9165"/>
<path d="M41.3401 34.4102C41.2985 34.4113 41.2579 34.3979 41.2251 34.3724C41.1922 34.3469 41.1693 34.3108 41.1601 34.2702L40.5301 31.7002C40.5181 31.6512 40.5262 31.5994 40.5524 31.5562C40.5787 31.5131 40.621 31.4822 40.6701 31.4702C40.7191 31.4583 40.7709 31.4663 40.814 31.4926C40.8572 31.5189 40.8881 31.5612 40.9001 31.6102L41.5201 34.1802C41.5259 34.2039 41.5269 34.2285 41.523 34.2526C41.5191 34.2767 41.5103 34.2997 41.4972 34.3203C41.4841 34.3408 41.467 34.3585 41.4468 34.3723C41.4267 34.386 41.404 34.3955 41.3801 34.4002L41.3401 34.4102Z" fill="#EB9165"/>
<path d="M50.42 27.0801L47.61 26.6401C47.5849 26.6364 47.5608 26.6278 47.5391 26.6147C47.5174 26.6016 47.4985 26.5843 47.4836 26.5638C47.4687 26.5433 47.458 26.52 47.4523 26.4953C47.4465 26.4706 47.4457 26.4451 47.45 26.4201C47.4597 26.3732 47.4867 26.3318 47.5256 26.3039C47.5645 26.2761 47.6125 26.264 47.66 26.2701L50.48 26.7101C50.5284 26.7218 50.5711 26.7504 50.6004 26.7907C50.6297 26.831 50.6437 26.8804 50.64 26.9301C50.6281 26.9777 50.5991 27.0193 50.5586 27.047C50.518 27.0747 50.4687 27.0864 50.42 27.0801Z" fill="#EB9165"/>
<path d="M51.6299 27.0797C51.5879 27.0768 51.5479 27.0608 51.5156 27.0338C51.4833 27.0069 51.4603 26.9705 51.4499 26.9297C51.444 26.9061 51.443 26.8814 51.4469 26.8574C51.4509 26.8333 51.4596 26.8103 51.4727 26.7897C51.4858 26.7691 51.5029 26.7514 51.5231 26.7377C51.5432 26.7239 51.566 26.7144 51.5899 26.7097L54.2499 26.1397C54.2989 26.1309 54.3494 26.1417 54.3906 26.1697C54.4317 26.1978 54.4602 26.2409 54.4699 26.2897C54.4758 26.3134 54.4768 26.338 54.4728 26.3621C54.4689 26.3861 54.4601 26.4092 54.447 26.4297C54.434 26.4503 54.4168 26.468 54.3967 26.4818C54.3765 26.4955 54.3538 26.505 54.3299 26.5097L51.6699 27.0697L51.6299 27.0797Z" fill="#EB9165"/>
<path d="M53.75 70.2699C53.75 70.2699 58.99 69.7199 59.42 69.5899C59.85 69.4599 59.88 68.5899 60.42 67.9099C60.96 67.2299 61.26 66.4299 63.51 67.1699C65.76 67.9099 69.43 68.3299 70.25 68.7599C71.85 69.6199 69.71 70.1599 68.38 70.5799C67.05 70.9999 55.31 74.3399 55.05 74.1499C54.5255 72.8889 54.0911 71.5923 53.75 70.2699Z" fill="#F6A77C"/>
<path d="M49.6201 69.81C49.6201 69.81 44.1901 69.05 43.7401 68.9C43.2901 68.75 43.3001 67.9 42.7401 67.11C42.1801 66.32 41.9201 65.54 39.5501 66.23C37.1801 66.92 33.3401 67.23 32.4801 67.65C30.7801 68.49 32.9901 69.12 34.3601 69.65C35.7301 70.18 47.8201 74 48.1001 73.8C48.6971 72.5062 49.2049 71.1731 49.6201 69.81Z" fill="#F6A77C"/>
<path d="M30.9099 68.8203C30.9099 68.8203 38.4399 68.8203 43.7699 68.8203C48.0699 68.8403 53.9999 69.0003 53.9999 69.0003L55.6399 74.6703C55.6399 74.6703 39.3499 76.6103 39.2199 76.6103C39.0899 76.6103 30.9099 68.8203 30.9099 68.8203Z" fill="#F5E8E1"/>
<path d="M53.73 68.7598H47.6C47.5755 68.7598 47.5512 68.7548 47.5287 68.7452C47.5062 68.7355 47.4859 68.7214 47.469 68.7036C47.4522 68.6858 47.4391 68.6647 47.4307 68.6417C47.4222 68.6187 47.4186 68.5942 47.42 68.5698C47.42 68.522 47.4389 68.4762 47.4727 68.4425C47.5064 68.4087 47.5522 68.3898 47.6 68.3898H53.73C53.7578 68.3832 53.7868 68.3831 53.8148 68.3894C53.8427 68.3956 53.8689 68.4081 53.8913 68.4259C53.9137 68.4437 53.9319 68.4663 53.9443 68.4921C53.9568 68.5179 53.9633 68.5461 53.9633 68.5748C53.9633 68.6034 53.9568 68.6317 53.9443 68.6574C53.9319 68.6832 53.9137 68.7059 53.8913 68.7236C53.8689 68.7414 53.8427 68.7539 53.8148 68.7602C53.7868 68.7664 53.7578 68.7663 53.73 68.7598Z" fill="#E0C9BB"/>
<path d="M51.75 76.7698C51.7046 76.785 51.6555 76.785 51.61 76.7698C51.577 76.7345 51.5586 76.6881 51.5586 76.6398C51.5586 76.5915 51.577 76.545 51.61 76.5098C51.6362 76.4958 51.6654 76.4884 51.695 76.4884C51.7247 76.4884 51.7539 76.4958 51.78 76.5098C53.035 76.2483 54.2737 75.9144 55.49 75.5098C55.5353 75.2241 55.4935 74.9314 55.37 74.6698C55.3542 74.622 55.3579 74.57 55.3804 74.525C55.4029 74.48 55.4423 74.4457 55.49 74.4298C55.5129 74.4203 55.5375 74.4156 55.5623 74.416C55.5871 74.4165 55.6115 74.4221 55.634 74.4324C55.6566 74.4427 55.6767 74.4576 55.6932 74.4761C55.7098 74.4945 55.7223 74.5162 55.73 74.5398C55.83 74.8398 56.04 75.5398 55.73 75.8098C54.4301 76.2318 53.0995 76.5528 51.75 76.7698Z" fill="#E0C9BB"/>
<path d="M60.3699 54.4502H41.7599C41.732 54.4567 41.703 54.4569 41.6751 54.4506C41.6472 54.4443 41.621 54.4319 41.5986 54.4141C41.5761 54.3963 41.558 54.3736 41.5455 54.3479C41.5331 54.3221 41.5266 54.2938 41.5266 54.2652C41.5266 54.2366 41.5331 54.2083 41.5455 54.1825C41.558 54.1567 41.5761 54.1341 41.5986 54.1163C41.621 54.0985 41.6472 54.086 41.6751 54.0798C41.703 54.0735 41.732 54.0737 41.7599 54.0802H60.3699C60.3978 54.0737 60.4268 54.0735 60.4547 54.0798C60.4827 54.086 60.5088 54.0985 60.5313 54.1163C60.5537 54.1341 60.5718 54.1567 60.5843 54.1825C60.5967 54.2083 60.6032 54.2366 60.6032 54.2652C60.6032 54.2938 60.5967 54.3221 60.5843 54.3479C60.5718 54.3736 60.5537 54.3963 60.5313 54.4141C60.5088 54.4319 60.4827 54.4443 60.4547 54.4506C60.4268 54.4569 60.3978 54.4567 60.3699 54.4502Z" fill="#E0C9BB"/>
<path d="M50 52.9198C49.9701 52.8149 49.9073 52.7224 49.8209 52.6558C49.7345 52.5892 49.6291 52.552 49.52 52.5498C49.4388 52.5519 49.3593 52.5739 49.2884 52.6137C49.2176 52.6534 49.1575 52.7099 49.1133 52.7781C49.0692 52.8464 49.0424 52.9244 49.0352 53.0053C49.028 53.0863 49.0406 53.1677 49.072 53.2427C49.1034 53.3177 49.1525 53.3839 49.2153 53.4355C49.278 53.4872 49.3524 53.5228 49.4319 53.5393C49.5115 53.5557 49.5939 53.5525 49.672 53.53C49.7501 53.5074 49.8215 53.4662 49.88 53.4098C49.94 53.345 49.9824 53.2661 50.0034 53.1803C50.0244 53.0946 50.0232 53.005 50 52.9198Z" fill="#E0C9BB"/>
<path d="M52.56 52.5498C52.4195 52.5498 52.2847 52.6056 52.1853 52.705C52.0859 52.8044 52.03 52.9392 52.03 53.0798C52.03 53.2204 52.0859 53.3552 52.1853 53.4546C52.2847 53.554 52.4195 53.6098 52.56 53.6098C52.7006 53.6098 52.8354 53.554 52.9348 53.4546C53.0342 53.3552 53.09 53.2204 53.09 53.0798C53.09 52.9392 53.0342 52.8044 52.9348 52.705C52.8354 52.6056 52.7006 52.5498 52.56 52.5498Z" fill="#E0C9BB"/>
<path d="M52.4699 4.69006C52.0799 3.76006 50.7399 3.89006 49.9499 4.06006C49.6599 4.12006 49.3199 4.27006 49.2799 4.61006C49.2761 4.6925 49.2906 4.77477 49.3222 4.85097C49.3539 4.92717 49.4021 4.99542 49.4632 5.05084C49.5244 5.10626 49.597 5.14748 49.676 5.17155C49.7549 5.19562 49.8382 5.20194 49.9199 5.19006C50.0858 5.1712 50.2498 5.13774 50.4099 5.09006C50.7386 5.01184 51.0811 5.01184 51.4099 5.09006C51.6134 5.15878 51.8254 5.19916 52.0399 5.21006C52.2799 5.22006 52.5899 5.00006 52.4699 4.69006Z" fill="#F5E8E1"/>
</svg>
