<svg width="87" height="100" viewBox="0 0 87 100" fill="none" xmlns="http://www.w3.org/2000/svg">
<mask id="mask0_385_14132" style="mask-type:alpha" maskUnits="userSpaceOnUse" x="0" y="0" width="87" height="100">
<rect width="87" height="100" fill="#D9D9D9"/>
</mask>
<g mask="url(#mask0_385_14132)">
<path d="M60.7444 27.2419C60.147 27.7235 59.4525 28.0644 58.7362 28.3269C57.4385 28.7983 56.0653 29.013 54.7386 29.3872C54.7183 29.393 54.698 29.3974 54.6792 29.4047C54.7154 29.2915 54.7546 29.1813 54.7966 29.071C55.207 27.9904 55.8754 27.0214 56.7483 26.2527C57.7154 25.4012 59.5641 24.2393 60.8909 24.7876C61.1663 24.9022 61.3534 25.0516 61.4694 25.2228C61.481 25.2416 61.494 25.2605 61.5042 25.2794C61.5201 25.304 61.5317 25.3301 61.5433 25.3562C61.5622 25.3954 61.5752 25.436 61.5883 25.4781C61.7507 26.0713 61.2838 26.8068 60.7444 27.2419Z" fill="#616132"/>
<path d="M61.5446 25.3552C60.9835 25.7395 60.4064 26.1007 59.8133 26.4358C59.2667 26.7448 58.7085 27.0305 58.1401 27.2945C57.6036 27.544 57.0236 27.8573 56.4335 27.9313C56.3378 27.9429 56.3378 27.7906 56.4335 27.779C57.0787 27.6963 57.7239 27.3264 58.3068 27.0494C58.8317 26.797 59.3479 26.5272 59.8539 26.2385C60.4064 25.9223 60.9458 25.5843 61.4707 25.2246C61.4823 25.2435 61.4953 25.2623 61.5055 25.2812C61.5214 25.3058 61.533 25.3319 61.5446 25.3581V25.3552Z" fill="#4C4B22"/>
<path d="M39.3021 12.441C39.3746 12.4279 39.4457 12.4235 39.5182 12.4279C40.1301 12.4714 40.668 13.1575 40.9 13.8117C41.1552 14.5355 41.2451 15.3028 41.2538 16.0673C41.2668 17.4482 41.0116 18.8146 40.9217 20.1926C40.9217 20.2129 40.9188 20.2332 40.9174 20.2535C40.8231 20.1809 40.7318 20.1084 40.6433 20.033C39.7618 19.286 39.0687 18.333 38.6366 17.2523C38.1552 16.0586 37.6767 13.9263 38.6351 12.8573C38.8555 12.6107 39.0817 12.4816 39.3021 12.441Z" fill="#616132"/>
<path d="M33.0557 23.5215C32.6569 24.2715 32.1161 24.9677 31.6506 25.677C31.5448 25.838 31.4404 25.9961 31.3345 26.1571C29.8077 24.0292 29.0117 21.4009 29.1335 18.7798C29.1596 18.2286 29.2277 17.3249 29.757 17.1363C29.8034 17.1175 29.8512 17.1073 29.9049 17.1015C30.0194 17.0914 30.1514 17.1073 30.3036 17.1595C31.0286 17.409 31.5056 18.2286 31.813 18.8813C32.1451 19.5848 32.3814 20.3362 32.6439 21.0673C32.915 21.823 33.4704 22.7397 33.0557 23.5215Z" fill="#77773D"/>
<path d="M31.31 22.1523C30.7068 20.5074 30.1892 18.832 29.7571 17.1349C29.8035 17.1161 29.8513 17.1059 29.905 17.1001C30.3356 18.7958 30.8547 20.4668 31.4565 22.1117C31.4913 22.203 31.3434 22.2437 31.31 22.1508V22.1523Z" fill="#616132"/>
<path d="M61.7059 21.6611C61.7088 21.999 61.6029 22.3312 61.3593 22.5763C60.8504 23.0884 59.9732 23.0652 59.3091 23.1362C58.3796 23.2378 57.4473 23.3364 56.5193 23.4583C54.6909 23.6961 52.8726 24.0269 51.1196 24.6056C51.0587 24.6259 51.0196 24.5548 51.0326 24.507C51.2443 23.6671 51.05 22.7939 50.5237 22.1281C50.2322 22.3065 49.9437 22.4893 49.658 22.6677C49.5754 22.7199 49.5087 22.5821 49.5913 22.5299C49.8683 22.3559 50.1452 22.1818 50.4251 22.0092C50.3714 21.9497 50.3178 21.8917 50.2598 21.8351C50.1873 21.7684 50.3047 21.6683 50.3743 21.7365C50.4381 21.7974 50.4976 21.8627 50.5556 21.9294C51.9823 21.0489 53.4541 20.225 55.0679 19.7565C56.6252 19.3054 58.339 19.1894 59.8905 19.7217C60.5459 19.9465 61.2361 20.3164 61.5464 20.9677C61.6261 21.136 61.6783 21.3202 61.6972 21.5088C61.703 21.5595 61.7059 21.6117 61.7059 21.6611Z" fill="#97995F"/>
<path d="M61.7059 21.6605C59.0945 21.3211 56.444 21.3559 53.8369 21.7693C53.7412 21.7852 53.6992 21.6373 53.7978 21.6228C56.4164 21.2094 59.0771 21.1702 61.6972 21.5082C61.703 21.5589 61.7059 21.6112 61.7059 21.6605Z" fill="#77773D"/>
<path d="M83.7686 100.804H2.00018C3.24715 97.6274 4.45789 94.4377 5.63526 91.235C6.54005 88.7778 7.42308 86.3148 8.28291 83.846C9.09055 81.5339 9.84454 79.2 10.7624 76.9285C11.6367 74.7701 12.6836 72.6857 14.0669 70.8058C15.3457 69.0666 16.8595 67.5088 18.5023 66.1119C21.2094 63.8056 24.2355 61.9344 27.3254 60.1894C27.3472 60.1764 27.3733 60.1619 27.3979 60.1503C27.4211 60.1372 27.4414 60.1242 27.4646 60.1111C28.2157 59.6904 28.9697 59.2741 29.7222 58.8622C29.8933 58.7694 30.063 58.6765 30.2341 58.5822C32.5265 57.3348 34.8261 56.0873 37.0432 54.7108C37.0924 54.6789 37.1417 54.6499 37.191 54.6165C38.57 53.7549 39.917 52.8425 41.206 51.8446C41.206 51.7982 41.2017 51.7488 41.1988 51.7024C40.9958 51.8243 40.7942 51.9476 40.5956 52.0709C40.5115 52.1245 40.4361 51.9925 40.5187 51.9403C40.7391 51.8025 40.9624 51.6662 41.1872 51.5327C41.1727 51.3209 41.1495 51.1092 41.1248 50.9003C41.1248 50.8887 41.1248 50.88 41.1219 50.8684C41.1103 50.7784 41.2365 50.7726 41.2684 50.8466C41.2713 50.8524 41.2727 50.8597 41.2742 50.8684C41.2974 51.0598 41.3148 51.2513 41.3322 51.4442C41.6541 51.2528 41.9818 51.0685 42.3138 50.8959C43.4549 50.3099 44.7164 49.8588 46.0185 49.9574C47.3525 50.0561 48.5675 50.7088 49.7478 51.2905C51.2166 52.0157 52.6753 52.7627 54.1209 53.533C54.1673 53.5547 54.2137 53.5794 54.2572 53.6055C55.3955 54.2089 56.525 54.8283 57.6487 55.4593C59.8628 56.7038 62.0552 57.9991 64.2142 59.3438C64.9856 59.8253 65.7526 60.3127 66.5168 60.8045C66.5298 60.8132 66.54 60.8204 66.5516 60.8277C66.5791 60.8436 66.6067 60.8625 66.6342 60.8813C68.6091 62.1592 70.5535 63.485 72.4602 64.8572C74.5627 66.3687 76.6144 67.9976 78.2906 69.9877C79.974 71.988 81.1108 74.3175 81.8198 76.8284C82.5535 79.4248 82.871 82.1126 83.1929 84.7845C83.4655 87.027 83.5569 95.2094 83.77 100.798L83.7686 100.804Z" fill="#FFF0DE"/>
<path d="M36.8589 100.804H2.00012C3.2471 97.6272 4.45782 94.4375 5.6352 91.2347C6.53999 88.7775 7.42302 86.3146 8.28286 83.8458C9.09049 81.5336 9.84448 79.1997 10.7623 76.9282C11.5337 75.0237 12.4399 73.1772 13.5927 71.4772C13.6246 71.4293 13.6565 71.3829 13.6898 71.335C13.8116 71.158 13.9378 70.9796 14.0654 70.807C15.3442 69.0678 16.858 67.51 18.5008 66.1131C19.4419 65.3124 20.4191 64.564 21.4269 63.8547C21.4689 63.8227 21.5124 63.7937 21.5574 63.7618C23.4104 62.468 25.3534 61.3032 27.3254 60.1906C27.3471 60.1776 27.3732 60.1631 27.3979 60.1515C27.4211 60.1384 27.4414 60.1254 27.4646 60.1123C29.554 63.1599 31.1779 66.5149 32.4249 69.9947C34.1054 74.6828 35.1233 79.5885 35.7758 84.5188C36.4892 89.9104 36.8198 95.3629 36.8575 100.802L36.8589 100.804Z" fill="#8F8357"/>
<path d="M83.7686 100.803H55.2984C55.629 98.03 55.961 95.2551 56.2902 92.4832C56.6324 89.6126 56.9455 86.7333 57.4226 83.8801C57.9359 80.8166 58.7029 77.7908 59.6613 74.8245C59.6787 74.7737 59.6947 74.7201 59.7135 74.6664C60.4255 72.4819 61.2433 70.3308 62.1379 68.2275C63.2573 65.5963 64.6348 62.9708 66.5168 60.8081C66.5299 60.8168 66.54 60.8241 66.5516 60.8313C66.5792 60.8473 66.6067 60.8661 66.6343 60.885C68.3626 62.0048 70.0664 63.158 71.7454 64.3488C71.7831 64.3764 71.8223 64.404 71.8585 64.4301L72.4588 64.8609C73.6753 65.7341 74.8745 66.6494 75.9939 67.6488C76.0316 67.6836 76.0707 67.7169 76.107 67.7503C76.8812 68.4495 77.6164 69.1907 78.2892 69.9914C79.9726 71.9916 81.1094 74.3212 81.8184 76.832C82.5521 79.4285 82.8696 82.1163 83.1915 84.7882C83.4641 87.0307 83.5555 95.2131 83.7686 100.802V100.803Z" fill="#8F8357"/>
<path d="M52.6389 53.3801C52.5418 53.7747 52.0792 53.8574 51.7486 53.9719C50.5393 54.3926 49.3243 54.7987 48.1034 55.1875C45.7167 55.9519 43.3098 56.654 40.8883 57.3023C40.8332 57.3183 40.7926 57.2646 40.7796 57.2182C40.2416 55.1918 39.7037 53.1669 39.1658 51.1405C38.8337 49.8916 38.5017 48.6413 38.1696 47.3924C36.6573 41.7034 35.1479 36.0145 33.6355 30.3255C33.3543 30.2182 33.1585 30.018 33.0541 29.7119C33.0425 29.6757 33.0469 29.6206 33.0846 29.5973C33.9589 29.0665 34.9492 29.0171 35.9497 29.0012C37.0328 28.9838 38.116 28.9707 39.1991 28.9562L43.6824 28.8953L45.8907 28.8648C45.9299 28.8634 45.9806 28.8808 45.9937 28.9228C46.0792 29.2115 46.1648 29.5016 46.2503 29.7903C46.8651 31.8761 47.4683 33.9634 48.0628 36.0565C48.1077 36.2117 48.1512 36.3698 48.1962 36.5265C48.2658 36.7731 48.3368 37.0182 48.405 37.2648C48.7602 38.5282 49.1126 39.7916 49.4591 41.0565C50.4611 44.7002 51.4311 48.3526 52.3649 52.0123C52.4678 52.4083 52.7419 52.9667 52.6404 53.3801H52.6389Z" fill="#FFAA6E"/>
<path d="M53.8641 32.4598C53.0565 34.0263 52.0169 35.442 50.8583 36.762C50.4524 37.2262 50.0304 37.6802 49.5983 38.1226C49.52 38.2053 49.4388 38.2865 49.3605 38.3663C49.3547 38.549 49.2663 38.8087 48.9589 39.2569C48.6935 39.6442 48.4122 40.0518 48.1193 40.4681C46.1865 43.2197 43.6998 46.4384 40.9666 48.0949C40.7477 48.2284 40.5287 48.3502 40.3069 48.4619C36.2832 50.4869 33.0454 50.5202 30.885 48.9914C29.5133 48.021 28.4229 45.6842 28.001 43.5911C27.5268 41.247 27.0541 39.666 28.2765 29.3542C28.3605 28.6449 28.7912 26.2007 28.9362 25.5001C28.9362 25.5001 28.9362 25.4987 28.9376 25.4987C29.5191 22.6934 30.3702 19.8794 34.3083 17.2858C37.6607 15.0781 42.2832 15.3595 46.085 16.1312C47.7163 16.4605 49.0618 17.0581 49.8361 17.9125C49.8463 17.9241 49.8593 17.9386 49.8695 17.9516C50.593 18.4767 51.244 19.083 51.7863 19.6966C51.9168 19.8431 52.043 19.9925 52.1648 20.1477C52.2315 20.2304 52.2982 20.316 52.362 20.4015C53.5712 21.9971 55.1198 22.9487 55.3837 24.9344C55.7288 27.5367 55.0575 30.1505 53.8656 32.4583L53.8641 32.4598Z" fill="#FFAA6E"/>
<path d="M52.3302 75.9093C52.7493 76.5751 52.1258 77.2612 51.7952 77.8457C50.8585 79.5037 48.8895 81.9884 47.7991 83.5492C46.6942 85.1288 43.3767 90.3347 41.7991 91.1789C40.2114 92.0289 38.4931 92.6889 36.8054 93.3185C36.5473 93.5665 36.3066 93.8363 36.0804 94.1409C35.7643 94.5688 34.1838 98.1879 33.0514 100.806H24.5531C26.4613 98.0138 29.1785 94.0162 29.6497 93.2401C30.3689 92.058 31.0794 90.8656 31.6116 89.5863C32.6178 87.1668 33.0702 84.5718 33.7227 82.0464C34.0243 80.8817 34.2984 79.5791 34.9596 78.5565C35.5163 77.6949 36.4298 77.2075 37.2955 76.7114C37.7725 76.4358 38.2481 76.1486 38.6555 75.7744C39.0992 75.3668 39.4472 74.8664 39.9156 74.4849C40.613 73.9177 41.4946 73.7378 42.3718 73.6465C43.7333 72.2438 45.2573 70.9964 46.932 69.9853C47.6613 69.5444 48.685 68.8394 49.5869 69.1237C49.8725 69.2151 50.1248 69.4588 50.1321 69.7736C50.1364 69.9186 50.0857 70.055 50.0103 70.1841C50.2858 70.0622 50.5787 69.9839 50.8817 69.9534C51.2979 69.9128 51.8257 69.9679 52.0765 70.3538C52.3418 70.7643 52.1084 71.2647 51.8735 71.6288C51.7242 71.8594 51.5531 72.0755 51.3689 72.2801C51.7271 72.1452 52.0953 72.032 52.4752 72.1379C52.8798 72.2511 53.1074 72.6108 53.0958 73.0242C53.0828 73.5275 52.7406 73.9395 52.4404 74.3137C52.1243 74.7053 51.7923 75.0839 51.453 75.4538C51.8648 75.4248 52.0968 75.5394 52.3331 75.9122L52.3302 75.9093Z" fill="#FFAA6E"/>
<path d="M41.9597 73.8111C40.3241 75.3124 38.7205 76.8485 37.1487 78.4165C37.0791 78.4861 37.1864 78.5935 37.256 78.5238C38.8278 76.9558 40.4314 75.4197 42.067 73.9184C42.1395 73.8517 42.0308 73.7444 41.9597 73.8111Z" fill="#C77438"/>
<path d="M49.5738 70.1439C47.7483 71.3247 46.0547 72.707 44.5424 74.2707C44.1741 74.6522 43.829 75.0569 43.4607 75.4369C43.0591 75.8503 42.6227 76.094 42.1152 76.3507C41.2568 76.7844 40.8073 77.6054 40.3984 78.438C40.3549 78.5265 40.4868 78.6034 40.5303 78.5149C40.7522 78.0623 40.9798 77.604 41.2974 77.208C41.6236 76.8018 42.0195 76.5669 42.482 76.3464C43.3839 75.917 43.9726 75.0815 44.6512 74.3795C46.1548 72.8245 47.8353 71.4509 49.6507 70.2759C49.7333 70.2223 49.6565 70.0903 49.5738 70.1439Z" fill="#C77438"/>
<path d="M51.0035 72.1923C49.1447 73.0655 47.5135 74.3637 46.2549 75.9883C45.9605 76.3683 45.6821 76.7628 45.3559 77.1168C44.9456 77.5621 44.4816 77.813 43.9639 78.1075C43.1389 78.5775 42.643 79.3912 42.1776 80.1904C42.1283 80.276 42.2602 80.3529 42.3095 80.2673C42.5661 79.8278 42.8242 79.3839 43.1534 78.9923C43.5057 78.5731 43.9219 78.3048 44.4004 78.0524C45.2211 77.6172 45.7488 76.8977 46.3027 76.1754C47.5671 74.5247 49.2012 73.2076 51.0818 72.3242C51.1703 72.2822 51.0934 72.1502 51.005 72.1923H51.0035Z" fill="#C77438"/>
<path d="M51.121 75.4122C49.6304 76.2883 48.4705 77.5909 47.5091 79.0095C47.2626 79.3736 47.0422 79.7638 46.7595 80.1032C46.442 80.4847 46.0867 80.6834 45.6111 80.814C44.9151 81.0054 44.4047 81.4943 44.3047 82.2297C44.2916 82.3254 44.4381 82.3675 44.4526 82.2703C44.5164 81.8003 44.7643 81.3869 45.1776 81.1418C45.5183 80.9387 45.9345 80.9315 46.2796 80.7327C46.8697 80.3904 47.2061 79.7406 47.5715 79.1923C48.5328 77.7534 49.6942 76.429 51.1993 75.5442C51.2834 75.4949 51.2066 75.3629 51.1225 75.4122H51.121Z" fill="#C77438"/>
<path d="M53.3074 19.4105C53.0508 19.7166 52.7753 20.0052 52.4882 20.2779C52.4461 20.3229 52.4026 20.362 52.3606 20.4027C52.1648 20.584 51.9633 20.7624 51.7588 20.9364C51.608 21.0641 51.4543 21.1903 51.3006 21.3136C51.1861 21.4035 50.8729 21.6182 50.6206 21.669C50.696 21.7734 50.767 21.8822 50.8337 21.9953C50.8584 22.0374 50.883 22.0824 50.9077 22.1288C50.9236 22.0388 51.0643 22.0403 51.0585 22.1346C51.0512 22.226 51.0425 22.3173 51.0353 22.4102C51.0309 22.4769 50.9265 22.5248 50.8932 22.4479C50.8424 22.3333 50.7859 22.2216 50.7235 22.1143C50.6351 21.9576 50.5336 21.8082 50.4263 21.6661C50.3509 21.6414 50.2958 21.5834 50.2755 21.476C49.6651 20.7566 48.8415 20.2112 48.0846 19.6585C47.4683 19.2089 46.8521 18.7607 46.2373 18.311C46.0488 18.1746 45.8574 18.0209 45.6559 17.8773C45.6051 18.0427 45.5573 18.2066 45.5109 18.369C45.4833 18.4633 45.3369 18.4227 45.3644 18.3284C45.4152 18.1485 45.4688 17.9672 45.521 17.7859C45.1672 17.5524 45.5239 16.421 45.0962 16.4645C44.9976 16.4746 44.999 16.3209 45.0962 16.3122C45.5486 16.2672 45.2006 17.4015 45.5645 17.6409C45.7182 17.1332 45.8879 16.6255 46.0836 16.1309C46.5375 14.9937 47.1392 13.9261 48.0498 13.0848C49.1764 12.0447 50.8279 11.4732 52.3403 11.8881C53.7728 12.2826 54.6501 13.5576 54.827 14.9907C55.0285 16.6342 54.3441 18.1674 53.3059 19.4076L53.3074 19.4105Z" fill="#FFAA6E"/>
<path d="M55.6624 32.3662C54.7329 34.4811 52.8987 35.9664 50.992 37.2313C50.528 37.5402 50.0597 37.8347 49.6 38.1219C49.5696 38.1407 49.5406 38.1596 49.5101 38.1785C49.4579 38.2104 49.3999 38.1683 49.3956 38.1132C49.2404 36.3145 49.136 34.5159 49.0867 32.7114C49.0664 31.9775 49.049 31.2377 49.0476 30.495C49.0389 28.6035 49.1404 26.7034 49.6145 24.8772C49.9132 23.7269 49.6363 23.5615 50.3294 22.5911C50.4381 22.4403 50.5759 22.2807 50.7266 22.1139C50.7614 22.0747 50.7977 22.0341 50.8368 21.995C51.1442 21.6628 51.4908 21.3089 51.7605 20.9346C51.9417 20.6793 52.0896 20.4168 52.165 20.1484C52.1708 20.1325 52.1737 20.1165 52.1781 20.1006C52.0142 19.8757 51.846 19.6524 51.6706 19.4377C51.6097 19.3608 51.717 19.2535 51.7793 19.3289C51.9287 19.5131 52.0722 19.7017 52.2143 19.8932C52.2419 19.619 52.1868 19.342 52.0113 19.0606C51.9577 18.9764 52.0911 18.8995 52.1433 18.9822C52.3767 19.3579 52.4173 19.7191 52.3405 20.0658C52.3912 20.1354 52.442 20.2065 52.4898 20.2761C53.2844 21.4089 54.6807 21.6802 55.1824 22.9741C55.7508 24.4463 56.1119 25.997 56.2525 27.5693C56.3946 29.1852 56.3264 30.862 55.6624 32.3648V32.3662Z" fill="#FFAA6E"/>
<path d="M64.2128 59.3478C63.7343 59.68 63.2384 59.9802 62.7396 60.25C57.0528 63.3193 50.3206 64.107 43.9769 63.2555C40.6739 62.8116 37.4332 61.9341 34.3245 60.7388C32.9136 60.1978 31.4405 59.5306 30.2355 58.5848C32.5279 57.3374 34.8276 56.0885 37.0446 54.7119C37.0939 54.6815 37.1432 54.651 37.1925 54.6191C38.5714 53.7575 39.9185 52.8436 41.2075 51.8486C41.206 51.8007 41.2031 51.7528 41.2002 51.705C40.9972 51.8268 40.7957 51.9516 40.5971 52.0749C40.513 52.1285 40.4361 51.9951 40.5188 51.9429C40.7406 51.8051 40.9624 51.6687 41.1872 51.5353C41.1712 51.3249 41.1495 51.1117 41.1248 50.9028C41.1727 50.8854 41.2205 50.868 41.2684 50.8506C41.2713 50.8564 41.2727 50.8637 41.2742 50.8724C41.2974 51.0638 41.3148 51.2553 41.3322 51.4482C41.6541 51.2568 41.9818 51.0726 42.3138 50.8999C43.455 50.3139 44.7164 49.8628 46.0185 49.96C47.3525 50.0586 48.569 50.7114 49.7478 51.293C51.2167 52.0183 52.6753 52.7653 54.121 53.5355C54.1674 53.5573 54.2123 53.582 54.2573 53.6066C55.3955 54.21 56.525 54.8294 57.6487 55.4618C59.8629 56.7064 62.0538 58.0017 64.2142 59.3463L64.2128 59.3478Z" fill="#FFAA6E"/>
<path d="M32.061 34.9587C31.3998 35.4243 30.5937 35.1719 30.0064 34.7541C29.5497 34.5017 29.2553 33.981 29.5279 33.4414C29.9818 32.5479 31.0142 33.7707 31.468 33.9273C31.7609 34.0289 32.2568 33.8577 32.3815 34.2377C32.4728 34.5177 32.2785 34.8049 32.061 34.9572V34.9587Z" fill="#3D231C"/>
<path d="M39.798 37.8107C39.1368 38.2763 38.2799 38.0239 37.6926 37.6062C37.2359 37.3538 36.9923 36.8331 37.2663 36.2935C37.7202 35.3999 38.7526 36.6227 39.2064 36.7794C39.4993 36.8809 39.9952 36.7098 40.1199 37.0898C40.2112 37.3697 40.0169 37.657 39.7994 37.8093L39.798 37.8107Z" fill="#3D231C"/>
<path d="M35.3306 33.2312C34.855 34.0145 34.3185 34.7543 33.7183 35.4462C33.2282 36.0104 32.6946 36.5718 32.3843 37.2608C31.7361 38.6983 32.6699 39.8964 33.6414 40.89C33.7096 40.9611 33.8183 40.8523 33.7487 40.7827C33.234 40.2561 32.6844 39.6904 32.4336 38.9811C32.1653 38.2225 32.377 37.474 32.8019 36.8213C33.1963 36.2164 33.7139 35.7044 34.1677 35.1474C34.6419 34.5657 35.0711 33.9507 35.4611 33.3081C35.5119 33.224 35.3799 33.1471 35.3292 33.2312H35.3306Z" fill="#D37433"/>
<path d="M42.8996 34.5016C42.2225 35.3603 41.0335 34.4291 40.41 34.0041C40.1403 33.8199 39.8634 33.6502 39.5545 33.5385C39.2747 33.4369 38.9818 33.3804 38.7049 33.273C38.3235 33.1251 37.932 32.8538 37.8262 32.4332C37.5478 31.3351 39.0949 31.2786 39.7764 31.2829C40.7638 31.2902 41.6222 31.4874 42.3559 32.1953C42.8706 32.6914 43.4448 33.8112 42.8996 34.5002V34.5016Z" fill="#D3824A"/>
<path d="M34.8709 31.0514C34.1938 31.9101 33.0048 30.9789 32.3813 30.5539C32.1116 30.3697 31.8347 30.2 31.5259 30.0883C31.246 29.9867 30.9531 29.9302 30.6762 29.8228C30.2948 29.6749 29.9033 29.4036 29.7975 28.983C29.5191 27.8849 31.0662 27.8284 31.7477 27.8327C32.7351 27.84 33.5935 28.0372 34.3272 28.7451C34.8419 29.2412 35.4161 30.361 34.8709 31.05V31.0514Z" fill="#D3824A"/>
<path d="M56.8686 28.0281C56.8642 29.7194 55.871 32.6292 54.7444 34.145C52.4288 37.2505 50.0914 36.8313 49.7724 42.0373C49.4911 42.0111 48.305 40.8217 48.1209 40.4707C48.0556 40.3488 48.0078 40.2154 47.9846 40.0631C47.8773 39.39 48.3398 38.0251 48.3094 37.355C48.2949 37.0097 48.2079 36.6471 47.9266 36.4237C47.6859 36.2323 47.3539 36.2439 47.1016 36.0683C46.9 35.9291 46.7681 35.726 46.6912 35.4997C46.6216 35.2981 46.597 35.0805 46.61 34.8731C46.6492 34.1885 46.9319 33.5372 47.0827 32.8728C47.6047 30.5955 47.1857 29.3452 46.8652 28.7229C46.8275 28.6446 46.7884 28.5764 46.7536 28.5198C46.494 28.0818 46.2214 27.7075 45.9285 27.3812C45.8038 27.2419 45.6777 27.1114 45.5472 26.9881C44.8338 26.315 44.0233 25.8654 43.0953 25.4172C42.7893 25.2692 42.4674 25.1212 42.1325 24.9675C38.9266 23.4778 35.451 22.2855 32.5119 22.7525C30.6487 23.0484 30.0687 23.707 28.9363 25.5027C29.0363 22.0664 30.3544 18.8347 34.291 16.2397C35.7744 15.2635 37.4781 15.0561 39.0774 14.8864C41.09 14.6731 43.3186 15.0938 46.0837 16.1353C46.1692 15.9191 46.2606 15.7074 46.3577 15.4985C46.7768 14.6021 47.3104 13.7724 48.0498 13.0892C49.1765 12.0491 50.828 11.4776 52.3418 11.8925C53.7743 12.2856 54.6516 13.562 54.8285 14.9951C55.0286 16.6386 54.3456 18.1703 53.3075 19.4105C53.0508 19.7166 52.7753 20.0053 52.4882 20.278C56.6525 22.3043 56.7163 26.1294 56.8555 27.7017C56.8642 27.8047 56.8686 27.9135 56.8686 28.0266V28.0281Z" fill="#D3824A"/>
<path d="M55.1955 30.5699C55.0085 30.7062 54.8084 30.8165 54.6025 30.9137C54.2269 31.1791 53.8224 31.4097 53.3932 31.6317C52.9466 31.8623 52.4971 32.0973 52.0984 32.4077C51.733 32.6906 51.4154 33.03 51.0906 33.3578C50.7281 33.7204 50.3483 34.0584 49.8915 34.2992C49.4638 34.5255 48.9983 34.6734 48.5358 34.8141C47.9123 35.0027 47.2627 35.1811 46.6929 35.5017C46.7697 35.7279 46.9017 35.931 47.1032 36.0703C47.3555 36.2458 47.6875 36.2342 47.9282 36.4256C48.2095 36.6476 48.2965 37.0102 48.311 37.3569C48.34 38.027 47.8789 39.3905 47.9862 40.065C48.0094 40.2159 48.0573 40.3508 48.1225 40.4726C48.3067 40.8236 49.4928 42.0145 49.7741 42.0392C50.0931 36.8332 52.4304 37.2524 54.746 34.1469C55.6088 32.9879 56.3932 31.0108 56.7151 29.3892C56.1626 29.7373 55.7204 30.1928 55.197 30.5728L55.1955 30.5699Z" fill="#3D231C"/>
<path d="M49.6941 39.0456C49.3548 40.0726 48.3746 40.9501 47.3002 41.1373C46.8985 41.2069 46.436 41.1605 46.1518 40.837C45.8241 40.4613 45.8806 39.9188 45.9285 39.4604C45.9995 38.7874 46.0561 38.11 46.146 37.4399C46.1721 37.2426 46.2127 37.041 46.2939 36.8655C46.1605 36.9626 46.0372 37.0772 45.9328 37.2179C45.8748 37.2963 45.7429 37.2194 45.8009 37.1411C45.9981 36.8742 46.2504 36.6827 46.5331 36.5463C46.581 36.5072 46.6317 36.4709 46.6926 36.4405C46.7216 36.426 46.7492 36.4318 46.7695 36.4463C46.8927 36.4027 47.0203 36.3665 47.1508 36.3375C47.6917 36.22 48.3804 36.1242 48.8937 36.3781C49.8391 36.8452 49.9899 38.1477 49.6926 39.047L49.6941 39.0456Z" fill="#FFAA6E"/>
<path d="M48.208 37.4551C47.6889 37.3333 47.2162 37.635 46.9088 38.0281C46.8827 38.0614 46.8783 38.102 46.9088 38.1354C47.1364 38.3907 47.2568 38.7069 47.2423 39.0492C47.2249 39.4655 46.9552 40.0602 46.4405 39.9819C46.3448 39.9674 46.3027 40.1139 46.3999 40.1299C47.0973 40.2372 47.4554 39.4133 47.3858 38.8273C47.3684 38.6764 47.3293 38.5285 47.2655 38.3921C47.1799 38.2065 47.0277 38.1456 47.1582 37.9671C47.5917 37.3782 48.8851 37.4769 48.7039 38.4052C48.685 38.5009 48.8329 38.543 48.8518 38.4458C48.9417 37.986 48.6691 37.5624 48.2094 37.4537L48.208 37.4551Z" fill="#D37433"/>
<path d="M60.2427 16.3063C60.0991 16.6703 59.7859 16.9343 59.4945 17.178C59.1189 17.4899 58.739 17.7945 58.3562 18.0991C57.5892 18.7127 56.8149 19.3176 56.0348 19.9137C54.5921 21.0103 51.6168 23.1324 50.9686 23.5415C50.8831 23.5951 50.8381 23.6198 50.8425 23.6082C50.8671 23.5241 50.8918 23.4399 50.9193 23.3573C51.4993 21.5252 52.5723 19.9123 53.754 18.4139C54.814 17.0692 56.0131 15.7086 57.5979 14.9776C58.246 14.6788 59.058 14.4844 59.7033 14.8978C59.7091 14.9022 59.7163 14.9065 59.7236 14.9109C59.77 14.9399 59.812 14.9732 59.8541 15.0066C60.2311 15.3228 60.4341 15.8174 60.2456 16.3019L60.2427 16.3063Z" fill="#77773D"/>
<path d="M37.5172 19.8155C37.478 19.8286 37.4374 19.8402 37.3954 19.8489C36.8618 19.9504 36.1484 19.6313 35.6931 19.4224C35.1798 19.1845 34.7013 18.8727 34.2794 18.497C33.8835 18.1488 33.537 17.7442 33.2528 17.3003C32.9164 16.7738 32.5264 16.0659 32.6569 15.419C32.6931 15.2362 32.7627 15.0926 32.8555 14.9809C32.8874 14.9388 32.9251 14.9026 32.9642 14.8721C33.3441 14.5603 33.9647 14.6632 34.4012 15.0114C34.8956 15.4059 35.3016 15.9542 35.6771 16.459C36.4239 17.4627 37.0256 18.5637 37.4824 19.7256C37.4954 19.756 37.5085 19.7879 37.5186 19.8169L37.5172 19.8155Z" fill="#97995F"/>
<path d="M41.1031 17.2058C41.064 17.5046 40.9639 17.7962 40.8566 18.0776C40.6594 18.5983 40.4014 19.0988 40.0925 19.5629C39.7532 20.075 39.3487 20.5435 38.8934 20.9554C38.5207 21.2934 38.1002 21.5719 37.7493 21.9302C37.7464 21.8997 37.745 21.8693 37.7435 21.8388C37.7348 21.7329 37.7261 21.6299 37.7218 21.524C37.6638 20.4709 37.7421 19.4019 38.1365 18.417C38.3395 17.9108 38.6208 17.435 38.9818 17.0274C39.3211 16.6445 40.0287 15.9381 40.6058 16.0686C40.6406 16.0759 40.6739 16.0875 40.7044 16.102C40.7537 16.1223 40.7972 16.1498 40.8363 16.1817C41.1075 16.4109 41.1437 16.8911 41.1002 17.2073L41.1031 17.2058Z" fill="#97995F"/>
<path d="M38.319 25.059C37.7753 23.4127 37.639 21.6749 37.4563 19.959C37.362 19.0756 37.2663 18.1951 37.1721 17.3118C37.1692 17.2842 37.1663 17.2552 37.1634 17.2276C37.1315 17.2117 37.1068 17.1783 37.117 17.1363V17.1305C37.0952 17.1043 37.0749 17.0768 37.0546 17.0492C36.4065 16.2224 35.8975 15.2767 35.6757 14.2439C35.493 13.4026 35.4741 12.4003 35.8671 11.6098C36.0483 11.2428 36.4079 10.9164 36.8038 10.8134C36.8545 10.8004 36.9038 10.7902 36.956 10.7859C37.1837 10.7612 37.4171 10.8163 37.6288 10.986C38.3639 11.5692 38.3349 12.7296 38.1522 13.5448C37.8913 14.7153 37.5839 15.8758 37.2968 17.0405C37.3939 17.9544 37.4925 18.8682 37.5897 19.7806C37.7782 21.5284 37.9014 23.3111 38.4553 24.9908C38.4857 25.0822 38.348 25.1504 38.3175 25.0561L38.319 25.059Z" fill="#97995F"/>
<path d="M54.0571 26.8593C54.4892 26.3994 54.7705 25.5567 53.9397 25.3406C53.0798 25.1172 52.0431 25.986 51.5225 26.5895C51.0049 27.19 50.6598 27.9196 50.5206 28.6971C51.3138 28.3475 52.1504 28.0995 52.9174 27.6933C53.335 27.4728 53.7323 27.2059 54.0571 26.8593Z" fill="#8F9153"/>
<path d="M57.2732 29.9358C57.3152 30.1534 57.2877 30.3202 57.2137 30.4479C57.1876 30.4928 57.1557 30.532 57.118 30.5668C56.8556 30.8163 56.3452 30.8178 55.9537 30.6945C55.5027 30.5494 55.0909 30.3057 54.7125 30.0229C54.0325 29.5137 53.4568 28.8813 52.8174 28.3258C52.8043 28.3142 52.7913 28.3011 52.7768 28.2895C52.858 28.2663 52.9392 28.2474 53.0204 28.23C53.7091 28.0821 54.4269 28.1024 55.1098 28.2895C55.8768 28.5013 57.1079 29.0641 57.2746 29.9373L57.2732 29.9358Z" fill="#77773D"/>
<path d="M49.1492 32.0103C48.8403 32.4135 48.4488 32.7414 48.0269 33.0228C47.3164 33.4956 46.5291 33.8365 45.7823 34.2456C45.7316 34.2717 45.6837 34.2992 45.6344 34.3268C45.617 34.3355 45.5996 34.3456 45.5837 34.3558C45.5866 34.3224 45.588 34.2891 45.5909 34.2543C45.5967 34.1991 45.6025 34.1426 45.6098 34.0875C45.7084 33.339 45.9853 32.6224 46.4189 31.9987C46.9075 31.301 47.9181 30.2595 48.8592 30.406C48.9723 30.4234 49.068 30.4524 49.1477 30.4931C49.1999 30.5177 49.2434 30.5467 49.2826 30.5786C49.3087 30.6018 49.3333 30.6251 49.3551 30.6497C49.3899 30.6903 49.4189 30.7367 49.4406 30.7875C49.5972 31.1429 49.416 31.6578 49.1506 32.0103H49.1492Z" fill="#77773D"/>
<path d="M54.0398 31.2934C54.0152 31.3398 53.9862 31.3804 53.9514 31.4182C53.657 31.7358 53.0408 31.73 52.5782 31.5676C52.0664 31.3891 51.6039 31.099 51.179 30.7654C50.412 30.162 49.7725 29.4179 49.0533 28.7593C49.0432 28.7506 49.0316 28.739 49.0214 28.7303C49.1026 28.71 49.1838 28.6926 49.2636 28.6767C50.0654 28.5215 50.8963 28.5606 51.6822 28.7985C52.5521 29.061 53.9398 29.7399 54.1036 30.7408C54.1413 30.9714 54.1123 31.1527 54.0384 31.292L54.0398 31.2934Z" fill="#616132"/>
<path d="M76.1068 67.7519C74.2537 69.597 73.23 72.0875 72.5645 74.5897C71.8105 77.424 71.3885 80.3512 70.9666 83.2479C70.507 86.4057 70.072 89.5664 69.6268 92.727C69.2469 95.4192 68.867 98.1099 68.4886 100.802H68.3349C68.3378 100.783 68.3393 100.766 68.3422 100.747C69.2368 94.4024 70.0763 88.0462 71.042 81.7103C71.4741 78.8818 71.912 76.0083 72.7892 73.277C73.4562 71.1998 74.4436 69.1923 75.9951 67.6504C76.0328 67.6852 76.072 67.7186 76.1082 67.7519H76.1068Z" fill="#5C5C2F"/>
<path d="M26.1898 97.9622C25.5446 95.6922 24.8095 93.4467 23.983 91.2347C22.5098 87.2864 20.751 83.4425 18.7297 79.7436C17.7278 77.9116 16.6606 76.1159 15.5311 74.3593C14.9656 73.4817 14.3856 72.6129 13.7896 71.7556C13.7302 71.67 13.6649 71.5757 13.5924 71.4771C13.6243 71.4292 13.6562 71.3828 13.6896 71.335C14.3218 72.1632 14.8742 73.0683 15.4397 73.9386C20.2435 81.3305 23.9221 89.4433 26.3348 97.9231C26.3624 98.0173 26.2159 98.058 26.1884 97.9622H26.1898Z" fill="#5C5C2F"/>
<path d="M33.6444 74.5647C32.1002 74.2384 30.5647 73.8351 29.1162 73.1955C26.7266 72.1395 24.8692 70.3829 23.5048 68.1737C22.6638 66.8102 22.007 65.3481 21.4299 63.8541C21.4719 63.8236 21.5154 63.7932 21.5604 63.7627C21.7387 64.2254 21.9258 64.6867 22.1229 65.1421C23.0973 67.389 24.3501 69.5793 26.2177 71.2053C28.3158 73.0286 31.0171 73.8511 33.6879 74.4168C33.7836 74.4386 33.743 74.5851 33.6473 74.5647H33.6444Z" fill="#5C5C2F"/>
<path d="M71.8602 64.4323C71.4397 65.3679 70.9945 66.2918 70.5233 67.2028C69.8114 68.5808 69.0864 70.0008 68.1004 71.2062C67.2232 72.2753 66.098 73.0788 64.8336 73.6271C63.5852 74.1711 62.2468 74.4772 60.9027 74.6715C60.4909 74.7324 60.0762 74.7832 59.6615 74.8238C59.6789 74.7716 59.6949 74.7194 59.7137 74.6672C59.9443 74.6425 60.1748 74.6164 60.4039 74.5874C61.1159 74.4975 61.822 74.3785 62.5223 74.2161C63.72 73.9361 64.8959 73.5227 65.9486 72.8787C67.1333 72.1534 68.0467 71.1453 68.792 69.9791C69.9274 68.2036 70.8901 66.2933 71.7456 64.3481C71.7833 64.3757 71.8225 64.4033 71.8602 64.4294V64.4323Z" fill="#5C5C2F"/>
<path d="M40.8392 16.1809C39.6864 17.9969 38.6526 19.8884 37.7449 21.8393C37.7362 21.7335 37.7275 21.6305 37.7232 21.5246C38.6048 19.6563 39.5994 17.8461 40.7072 16.1011C40.7565 16.1214 40.8 16.1489 40.8392 16.1809Z" fill="#77773D"/>
<path d="M37.146 17.0611C37.1663 17.0611 37.1866 17.0611 37.2084 17.0611C36.9909 14.9796 36.7864 12.8764 36.9561 10.7891C36.9039 10.7934 36.8531 10.8021 36.8038 10.8166C36.64 12.8909 36.8386 14.9767 37.0547 17.0437C37.0866 17.0524 37.1185 17.0611 37.1475 17.0626L37.146 17.0611Z" fill="#77773D"/>
<path d="M37.5173 19.8154C37.4781 19.8285 37.4375 19.8401 37.3955 19.8488C36.946 19.5456 36.5646 19.1497 36.1746 18.774C35.7063 18.3214 35.2408 17.8645 34.7986 17.3844C34.0997 16.6257 33.4762 15.8033 32.8542 14.9794C32.8861 14.9373 32.9238 14.9011 32.9629 14.8706C33.5574 15.6582 34.1577 16.4502 34.8203 17.1842C35.2263 17.6324 35.6541 18.0603 36.0891 18.481C36.5327 18.9118 36.9663 19.3774 37.4796 19.7255C37.4926 19.756 37.5057 19.7879 37.5158 19.8169L37.5173 19.8154Z" fill="#77773D"/>
<path d="M38.0262 23.3933C37.9943 23.4194 37.9595 23.4427 37.9218 23.4659C37.4549 23.7429 36.6748 23.6878 36.176 23.6457C35.612 23.5979 35.0566 23.4673 34.5317 23.2584C34.0417 23.0655 33.5777 22.803 33.1586 22.4839C32.6627 22.1038 32.0552 21.5715 31.9566 20.9187C31.929 20.7345 31.9435 20.575 31.9943 20.4386C32.0102 20.3879 32.0334 20.3414 32.0595 20.2994C32.3104 19.8773 32.9295 19.7612 33.4573 19.9411C34.0562 20.1442 34.626 20.5198 35.1494 20.8665C36.1934 21.5555 37.1345 22.3852 37.9595 23.3223C37.9812 23.3469 38.0044 23.3716 38.0247 23.3962L38.0262 23.3933Z" fill="#97995F"/>
<path d="M38.0262 23.3938C37.9943 23.4199 37.9595 23.4431 37.9218 23.4663C37.3954 23.3357 36.9025 23.092 36.408 22.8716C35.8135 22.6061 35.219 22.3349 34.6419 22.0346C33.727 21.5603 32.8599 20.9989 31.9957 20.4376C32.0117 20.3868 32.0349 20.3404 32.061 20.2983C32.8889 20.8365 33.7227 21.3761 34.5955 21.8388C35.1291 22.1216 35.6787 22.3769 36.2297 22.625C36.7937 22.8788 37.3592 23.1689 37.9609 23.3198C37.9827 23.3444 38.0059 23.3691 38.0262 23.3938Z" fill="#77773D"/>
<path d="M45.4529 15.8103C43.1779 15.5478 41.1349 14.1117 40.1185 12.0622C40.0967 12.0172 40.075 11.9722 40.0532 11.9287C40.1069 11.9331 40.162 11.936 40.2142 11.9418C41.3495 12.0607 42.3253 12.6931 43.1924 13.4184C43.8609 13.9754 44.6076 14.5774 45.1339 15.3041C45.2209 15.423 45.3007 15.5449 45.3717 15.6696C45.4007 15.7175 45.4268 15.7653 45.4529 15.8118V15.8103Z" fill="#77773D"/>
<path d="M46.8669 20.0376C46.8002 20.0274 46.7349 20.0173 46.6682 20.0042C44.4701 19.6082 42.5503 18.1127 41.6412 16.0689C41.6267 16.0385 41.6136 16.008 41.6006 15.979C41.6716 15.9848 41.7412 15.995 41.8094 16.0051C42.9172 16.1719 43.8582 16.8276 44.6876 17.5702C45.4503 18.252 46.3188 18.9946 46.8045 19.9186C46.8277 19.9592 46.848 19.9984 46.8669 20.0376Z" fill="#77773D"/>
<path d="M44.9761 14.9893C44.1873 12.8382 44.5469 10.3665 45.9215 8.5345C45.949 8.49533 45.978 8.45762 46.0085 8.41846C46.0302 8.46923 46.0505 8.51854 46.0708 8.57076C46.4753 9.63835 46.3506 10.793 46.094 11.8925C45.8533 12.9296 45.6054 14.1045 44.9761 14.9893Z" fill="#77773D"/>
<path d="M47.6773 15.787C47.4367 16.7313 47.1873 17.7902 46.6479 18.63C46.5986 18.7083 46.5449 18.7838 46.4913 18.8577C46.4811 18.8287 46.4724 18.7997 46.4623 18.7707C45.7663 16.6442 46.1752 14.2436 47.5411 12.4711C47.5817 12.416 47.6237 12.3637 47.6672 12.3115C47.6788 12.3405 47.6904 12.371 47.702 12.4C48.1123 13.4937 47.963 14.6715 47.6788 15.787H47.6773Z" fill="#77773D"/>
<path d="M44.2221 12.9617C44.1917 12.9399 44.1598 12.9181 44.1293 12.8949C42.3125 11.5953 41.2221 9.42818 41.2671 7.19582C41.2685 7.13055 41.2714 7.06527 41.2743 7C41.3062 7.01886 41.3352 7.03916 41.3642 7.05947C42.34 7.6919 42.9157 8.72467 43.3492 9.78791C43.719 10.6974 44.1511 11.7026 44.212 12.7078C44.2178 12.7919 44.2207 12.8775 44.2207 12.9631L44.2221 12.9617Z" fill="#77773D"/>
<path d="M47.3713 22.5815C46.5753 19.2627 45.4892 16.0194 44.1292 12.8949C43.2795 10.9454 42.3254 9.04234 41.2669 7.19582C41.2684 7.13055 41.2713 7.06527 41.2742 7C41.3061 7.01886 41.3351 7.03916 41.3641 7.05947C42.4167 8.89003 43.365 10.7757 44.2118 12.7064C45.6009 15.8758 46.7072 19.1684 47.5163 22.538C47.5395 22.6337 47.3945 22.6773 47.3698 22.5815H47.3713Z" fill="#616132"/>
<path d="M45.0486 14.5542C45.0341 14.6514 44.8862 14.6151 44.9007 14.5179C45.05 13.43 45.2182 12.345 45.4053 11.2629C45.5648 10.3535 45.7736 9.44688 45.9229 8.5345C45.9505 8.49533 45.9795 8.45762 46.0099 8.41846C46.0317 8.46923 46.052 8.51854 46.0723 8.57076C45.9244 9.48314 45.7141 10.3897 45.5546 11.2992C45.3676 12.3813 45.1994 13.4663 45.05 14.5542H45.0486Z" fill="#616132"/>
<path d="M45.3719 15.6682C43.6668 14.399 41.9138 13.1965 40.1187 12.0622C40.0969 12.0172 40.0752 11.9722 40.0534 11.9287C40.1071 11.9331 40.1622 11.936 40.2144 11.9418C41.892 13.0035 43.5334 14.1248 45.1342 15.3026C45.2211 15.4216 45.3009 15.5434 45.3719 15.6682Z" fill="#616132"/>
<path d="M46.8669 20.0376C46.8002 20.0274 46.7349 20.0173 46.6682 20.0042C45.0414 18.6291 43.3652 17.3178 41.6412 16.0689C41.6267 16.0385 41.6136 16.008 41.6006 15.979C41.6716 15.9848 41.7412 15.995 41.8094 16.0051C43.5232 17.2468 45.1893 18.5508 46.8045 19.9186C46.8277 19.9592 46.848 19.9984 46.8669 20.0376Z" fill="#616132"/>
<path d="M46.6464 18.63C46.5971 18.7083 46.5434 18.7838 46.4898 18.8577C46.4796 18.8287 46.4709 18.7997 46.4608 18.7707C46.8987 16.6849 47.2597 14.5845 47.5396 12.4711C47.5802 12.416 47.6222 12.3637 47.6657 12.3115C47.6773 12.3405 47.6889 12.371 47.7005 12.4C47.4279 14.4902 47.0756 16.5674 46.6464 18.63Z" fill="#616132"/>
<path d="M51.2065 35.2485C52.5143 33.3672 54.7459 32.2488 57.0325 32.3228C57.0818 32.3242 57.1325 32.3257 57.1804 32.3286C57.1514 32.375 57.1224 32.42 57.0934 32.4635C56.451 33.4078 55.4317 33.9677 54.3834 34.3898C53.5757 34.7147 52.6927 35.0875 51.8039 35.2079C51.6574 35.2282 51.5124 35.2412 51.3703 35.2441C51.3138 35.247 51.2601 35.247 51.2065 35.2485Z" fill="#77773D"/>
<path d="M52.1548 35.2182C54.4225 35.5417 56.4293 37.03 57.3906 39.1071C57.4124 39.1492 57.4312 39.1941 57.4515 39.2376C57.3964 39.2333 57.3442 39.2275 57.2891 39.2202C56.1582 39.0723 55.1997 38.4138 54.3529 37.6682C53.554 36.9647 52.6376 36.1915 52.1562 35.2168L52.1548 35.2182Z" fill="#77773D"/>
<path d="M54.2978 35.5126C54.3312 35.4952 54.366 35.4792 54.4008 35.4633C56.4046 34.4784 58.8304 34.5436 60.7734 35.6402C60.83 35.6736 60.8865 35.7055 60.9431 35.7403C60.9112 35.7592 60.8793 35.7766 60.8474 35.7911C59.828 36.351 58.6463 36.3699 57.5066 36.248C56.5308 36.1436 55.4404 36.0478 54.5269 35.6257C54.4501 35.5909 54.3732 35.5532 54.2978 35.5126Z" fill="#77773D"/>
<path d="M60.7734 35.6405C58.6463 35.6971 56.5192 35.6362 54.4008 35.4636C52.4651 35.3026 50.538 35.0429 48.627 34.6904C48.6241 34.7412 48.6226 34.7934 48.6226 34.8442C50.5772 35.2039 52.5477 35.4679 54.5269 35.6275C56.6279 35.7957 58.7376 35.8523 60.8474 35.7928C60.8807 35.7769 60.9112 35.7609 60.9431 35.7421C60.888 35.7087 60.83 35.6753 60.7734 35.642V35.6405Z" fill="#616132"/>
<path d="M52.5042 35.4882C52.4259 35.4302 52.5274 35.3156 52.6072 35.375C53.4946 36.022 54.3703 36.6834 55.2345 37.3608C55.9595 37.9309 56.6584 38.5459 57.3906 39.1087C57.4124 39.1508 57.4312 39.1957 57.4515 39.2392C57.3964 39.2349 57.3442 39.2291 57.2891 39.2218C56.5569 38.659 55.858 38.0455 55.133 37.474C54.2688 36.7966 53.3931 36.1351 52.5057 35.4882H52.5042Z" fill="#616132"/>
<path d="M51.3703 35.2441C53.2959 34.3419 55.1837 33.3671 57.0325 32.3228C57.0818 32.3242 57.1325 32.3257 57.1804 32.3286C57.1514 32.375 57.1224 32.4199 57.0934 32.4635C55.3635 33.4397 53.5989 34.3549 51.8039 35.2078C51.6574 35.2282 51.5124 35.2412 51.3703 35.2441Z" fill="#616132"/>
<path d="M59.8528 15.0112C58.3521 16.0107 56.9905 17.2204 55.6972 18.4794C54.05 20.0866 52.3898 21.7257 50.9688 23.5432C50.8832 23.5969 50.8383 23.6216 50.8426 23.61C50.8673 23.5258 50.8919 23.4417 50.9195 23.359C52.3796 21.5023 54.0833 19.8255 55.7769 18.1908C57.0094 17.0028 58.3042 15.8671 59.7223 14.9141C59.7687 14.9431 59.8107 14.9764 59.8528 15.0098V15.0112Z" fill="#616132"/>
<path d="M48.2383 23.9114C47.2393 24.8542 46.2924 25.8116 45.5515 26.9778C45.55 26.9807 45.5486 26.9836 45.5457 26.9865C45.1948 26.6572 44.8222 26.3802 44.422 26.1307C44.3799 26.1031 44.3335 26.0756 44.2886 26.0509C43.9145 25.8217 43.5157 25.6201 43.0938 25.4156C43.4041 24.8992 43.7622 24.4118 44.1682 23.9535C44.6525 23.4095 45.1629 22.8844 45.6878 22.3811C46.217 21.8749 46.826 21.3527 47.5481 21.1554C48.015 21.0278 48.5268 21.08 48.856 21.357C48.8951 21.3904 48.9328 21.4252 48.9647 21.4658C49.0967 21.6181 49.1837 21.8198 49.204 22.075C49.2663 22.8293 48.7501 23.4269 48.2368 23.91L48.2383 23.9114Z" fill="#97995F"/>
<path d="M48.9664 21.4672C47.309 22.8771 45.7866 24.4393 44.4236 26.1306C44.3816 26.1031 44.3352 26.0755 44.2902 26.0508C45.6633 24.3494 47.1931 22.777 48.8576 21.3584C48.8968 21.3918 48.9345 21.4266 48.9664 21.4672Z" fill="#77773D"/>
<path d="M50.6527 26.2961C50.4381 26.7618 50.0118 27.0664 49.5768 27.3086C48.688 27.8047 47.7745 28.2616 46.8653 28.72C46.8276 28.6416 46.7885 28.5749 46.7537 28.5169C46.6594 28.3559 46.5623 28.205 46.4651 28.0614C46.4347 28.0208 46.4057 27.9773 46.3767 27.9381C46.2317 27.7365 46.0838 27.5508 45.9287 27.3797C46.4999 26.7182 47.1481 26.1279 47.8731 25.6347C48.3298 25.3243 48.8373 25.0516 49.3883 24.9588C49.7508 24.8993 50.2945 24.8833 50.5758 25.1691C50.5947 25.1894 50.6121 25.2083 50.6295 25.2286C50.6599 25.2692 50.686 25.3141 50.7078 25.3606C50.8412 25.6478 50.7817 26.0205 50.6541 26.2961H50.6527Z" fill="#77773D"/>
<path d="M50.7064 25.362C50.006 25.7072 49.3231 26.0887 48.6619 26.5065C47.9326 26.9663 47.1278 27.4609 46.4637 28.0629C46.4333 28.0223 46.4043 27.9787 46.3753 27.9396C47.0118 27.3666 47.7774 26.8923 48.4691 26.4484C49.165 26.0017 49.8871 25.5955 50.6281 25.2314C50.6585 25.2721 50.6846 25.317 50.7064 25.3634V25.362Z" fill="#616132"/>
<path d="M54.04 31.2935C54.0154 31.3399 53.9864 31.3805 53.9516 31.4182C52.477 30.2825 50.7747 29.3962 49.0536 28.7594C49.0434 28.7507 49.0318 28.7391 49.0217 28.7304C49.1029 28.7101 49.1841 28.6927 49.2638 28.6768C50.9458 29.3121 52.5973 30.1824 54.0386 31.2921L54.04 31.2935Z" fill="#77773D"/>
<path d="M58.3474 23.6695C58.098 23.9553 57.7007 24.0583 57.3455 24.1337C56.6944 24.2744 56.0231 24.3223 55.3576 24.3165C54.2715 24.3107 53.1957 24.154 52.1256 23.9684C51.9994 23.9466 51.8704 23.9234 51.7442 23.9016C51.6543 23.8857 51.5644 23.8697 51.4745 23.8523C52.3677 23.2228 53.3363 22.7137 54.373 22.3612C55.4982 21.9768 56.9685 21.6301 58.0386 22.3554C58.2387 22.4903 58.404 22.6774 58.4866 22.8848C58.5069 22.9327 58.5214 22.9806 58.5316 23.0299C58.5736 23.2402 58.5287 23.4636 58.3503 23.6681L58.3474 23.6695Z" fill="#77773D"/>
<path d="M58.5302 23.0298C57.5224 23.0414 56.5147 23.172 55.5186 23.3214C54.3789 23.494 53.2493 23.7101 52.1271 23.9668C52.0009 23.9451 51.8719 23.9219 51.7457 23.9001C53.0753 23.5839 54.4195 23.3257 55.7737 23.1299C56.709 22.995 57.6138 22.8978 58.4852 22.8833C58.5055 22.9312 58.52 22.979 58.5302 23.0284V23.0298Z" fill="#616132"/>
<path d="M57.214 30.4473C57.1879 30.4923 57.156 30.5315 57.1183 30.5663C55.8365 29.5669 54.3778 28.8039 52.8177 28.3238C52.8046 28.3122 52.7916 28.2991 52.7771 28.2875C52.8583 28.2643 52.9395 28.2454 53.0207 28.228C54.5431 28.7169 55.9612 29.4711 57.214 30.4473Z" fill="#616132"/>
<path d="M49.2823 30.5787C47.9542 31.6347 46.7782 32.8677 45.7821 34.2457C45.7314 34.2718 45.6835 34.2993 45.6342 34.3269C45.6168 34.3356 45.5994 34.3458 45.5835 34.3559C45.5864 34.3225 45.5878 34.2892 45.5907 34.2544C46.5984 32.8401 47.7947 31.5753 49.1475 30.4932C49.1997 30.5178 49.2432 30.5468 49.2823 30.5787Z" fill="#616132"/>
<path d="M53.5264 12.2679C53.5293 11.6007 52.565 11.7965 52.1895 11.943C51.798 12.0953 51.4587 12.3448 51.1557 12.632C50.7656 13.0019 50.3596 13.424 50.0392 13.8838C50.1276 13.8751 50.2146 13.8693 50.2799 13.8577C50.6482 13.7881 51.0165 13.7112 51.379 13.6126C51.7748 13.5052 52.1634 13.3718 52.5346 13.1992C52.9145 13.0208 53.5249 12.7539 53.5278 12.2694L53.5264 12.2679Z" fill="#616132"/>
<path d="M54.8343 15.2742C55.0924 14.6592 54.1282 14.4692 53.7236 14.4605C53.3031 14.4518 52.8942 14.5519 52.5042 14.7013C52.0011 14.8927 51.4646 15.1277 50.9933 15.428C51.0789 15.4541 51.1601 15.4817 51.2268 15.4962C51.5936 15.573 51.9634 15.6427 52.336 15.6905C52.742 15.7427 53.1523 15.7703 53.5612 15.7515C53.9803 15.734 54.6473 15.7195 54.8343 15.2742Z" fill="#77773D"/>
<path d="M44.087 20.0041C42.1498 20.3246 40.4244 21.4952 39.4021 23.1706C39.3572 23.2445 39.4732 23.3113 39.5181 23.2387C40.523 21.5895 42.2194 20.4494 44.1232 20.1332C44.2073 20.1187 44.1725 19.9896 44.087 20.0041Z" fill="#BC6A33"/>
<path d="M53.8252 18.06C52.8552 17.3405 51.9562 16.5282 51.1471 15.6318C50.3598 14.7586 49.4318 13.7359 49.1476 12.5639C49.1273 12.4798 48.9982 12.5161 49.0185 12.6002C49.3013 13.765 50.1959 14.7673 50.9746 15.6419C51.8112 16.5819 52.7464 17.4275 53.7571 18.1775C53.8267 18.2282 53.8934 18.1122 53.8252 18.0614V18.06Z" fill="#BC6A33"/>
<path d="M46.3635 21.3926C45.3225 21.5869 44.3437 21.9902 43.4679 22.5878C43.3969 22.6357 43.4636 22.7517 43.5361 22.7039C44.4032 22.1135 45.3689 21.7146 46.3998 21.5231C46.4839 21.5072 46.4491 21.3781 46.3635 21.394V21.3926Z" fill="#BC6A33"/>
<path d="M35.2451 44.0292C34.1185 44.1046 33.0209 43.7275 32.1828 42.9703C32.119 42.9123 32.0233 43.0066 32.0885 43.0646C32.9527 43.8436 34.0851 44.2395 35.2466 44.1627C35.3321 44.1569 35.3321 44.0234 35.2466 44.0292H35.2451Z" fill="#D37433"/>
<path d="M51.1325 19.1437C51.0948 19.4527 50.9063 19.7747 50.58 19.8428C50.3741 19.8864 50.1857 19.8066 50.0653 19.6557C49.8739 20.2229 49.2678 20.6972 48.6516 20.5159C48.4123 20.4463 48.1861 20.2678 48.1731 20.001C48.1629 19.7776 48.3065 19.6064 48.4761 19.4715C48.2543 19.4773 48.0368 19.4193 47.8831 19.2336C47.6859 18.9986 47.7178 18.7013 47.8932 18.4634C48.1354 18.1341 48.5849 17.9195 48.9952 17.9601C49.0474 17.6351 49.2606 17.3479 49.6173 17.2305C49.8217 17.1623 50.0929 17.1536 50.2234 17.3595C50.3277 17.5264 50.2872 17.712 50.2132 17.8803C50.828 17.6816 51.1948 18.6259 51.1339 19.1422L51.1325 19.1437Z" fill="#FFE8CC"/>
<path d="M38.4656 18.6219C38.1742 18.7307 37.8016 18.7119 37.5913 18.4537C37.4579 18.2898 37.442 18.0867 37.5203 17.9097C36.9287 18.0011 36.2298 17.6805 36.108 17.0496C36.0601 16.8059 36.1138 16.5216 36.3443 16.3881C36.5386 16.2764 36.7561 16.3257 36.9533 16.4142C36.846 16.2199 36.7982 15.9994 36.891 15.7774C37.0099 15.4946 37.2883 15.3858 37.5783 15.4322C37.9828 15.496 38.3786 15.7963 38.5323 16.1792C38.8455 16.0763 39.1979 16.1328 39.4661 16.3954C39.6198 16.5462 39.7532 16.7827 39.63 16.993C39.5299 17.1627 39.3472 17.212 39.1631 17.2236C39.6227 17.6776 38.9528 18.4392 38.4656 18.6205V18.6219Z" fill="#FFE8CC"/>
<path d="M50.2814 18.9305C50.1059 19.2075 49.668 19.2641 49.3737 19.2394C49.1518 19.2206 49.0489 19.0755 49.0155 18.8971C48.9445 18.6563 49.0126 18.3285 49.2577 18.2531C49.4882 18.182 49.5419 18.3633 49.5303 18.5591C49.6666 18.4489 49.8449 18.3836 50.0088 18.4097C50.2538 18.4489 50.4264 18.7056 50.2814 18.9319V18.9305Z" fill="#FDB455"/>
<path d="M38.705 16.8072C38.6455 17.1292 38.2628 17.3468 37.98 17.4353C37.7683 17.502 37.6175 17.4063 37.5189 17.2525C37.3623 17.0567 37.3014 16.726 37.5001 16.5635C37.6871 16.4112 37.8046 16.5577 37.8669 16.7448C37.951 16.5911 38.0931 16.4634 38.2541 16.4257C38.4947 16.3692 38.7514 16.5432 38.7035 16.8072H38.705Z" fill="#FDB455"/>
<path d="M51.9635 28.6527C52.0128 29.2285 51.3356 29.5201 50.8615 29.3155C50.9659 29.726 50.7353 30.1786 50.2583 30.2091C49.7581 30.241 49.4565 29.758 49.6087 29.3243C49.1346 29.3765 48.6967 29.0124 48.7503 28.4989C48.8011 27.9999 49.2709 27.7301 49.7233 27.8186C49.7581 27.3646 50.0669 26.8047 50.5758 26.8206C51.0746 26.8366 51.0659 27.3936 50.9151 27.7664C51.0804 27.7388 51.2791 27.7954 51.4139 27.8592C51.7228 28.0028 51.9374 28.3132 51.9664 28.6541L51.9635 28.6527Z" fill="#FFE8CC"/>
<path d="M49.8291 28.8608C49.8291 28.8608 49.8262 28.8593 49.8247 28.8579C49.5956 28.839 49.4724 28.5417 49.5869 28.3386C49.6986 28.1399 49.9277 28.1544 50.0639 28.2878C50.1625 28.1022 50.3119 27.9412 50.5366 27.9238C50.744 27.9078 50.9281 28.0296 50.9644 28.24C51.0615 28.8057 50.2394 29.0523 49.8291 28.8593V28.8608Z" fill="#FDB455"/>
</g>
</svg>
