<svg width="79" height="92" viewBox="0 0 79 92" fill="none" xmlns="http://www.w3.org/2000/svg">
<path d="M23.6981 25.1477C23.5421 23.9763 23.3861 22.8048 23.6201 21.5552C23.7761 20.5399 24.0881 19.6027 24.0881 18.5875C24.0101 17.1817 22.9961 15.6978 21.4361 16.0883C21.3581 15.854 21.0461 15.854 21.0461 16.0883C20.9681 17.4941 19.8761 18.4313 19.0181 19.5247C18.3941 20.3056 18.0821 21.1647 18.1601 22.18C18.2381 22.961 18.3941 23.742 18.0821 24.523C17.9261 25.0696 17.6141 25.4601 17.3021 26.0068C16.8341 26.8659 16.5221 27.8812 16.9901 28.8184C16.9901 28.8965 17.0681 28.8965 17.0681 28.8965C17.4581 29.4432 18.3161 29.3651 18.9401 29.3651C20.1101 29.3651 21.2021 29.1308 22.3721 28.8184C23.0741 28.6622 23.6981 28.4279 23.9321 27.6469C24.0881 26.8659 23.8541 25.9287 23.6981 25.1477Z" fill="#6E3030"/>
<path d="M21.2019 17.9627C20.3439 19.2123 19.4859 20.6181 19.3299 22.102C19.2519 22.8829 19.4079 23.6639 19.5639 24.4449C19.7199 25.2259 19.7979 26.085 19.2519 26.7098C19.0959 26.866 19.3299 27.1003 19.4859 26.9441C20.5779 25.6945 19.5639 24.0544 19.5639 22.5705C19.5639 20.9305 20.5779 19.4466 21.4359 18.0408C21.6699 17.8846 21.3579 17.7284 21.2019 17.9627Z" fill="#2B0808"/>
<path d="M21.7479 19.2123C21.3579 20.3057 20.8899 21.5553 21.0459 22.7268C21.2019 23.664 21.6699 24.6011 22.5279 24.9916C22.7619 25.0697 22.9179 24.7573 22.6839 24.6792C21.8259 24.2887 21.4359 23.4297 21.3579 22.4925C21.2799 21.3991 21.6699 20.3057 22.0599 19.2904C22.2159 19.1342 21.8259 19.0561 21.7479 19.2123Z" fill="#2B0808"/>
<path d="M42.4178 43.8133C42.0278 42.8761 41.6378 41.9389 41.3258 41.0017C41.0918 40.5331 40.9358 40.1426 40.7018 39.674C40.2338 38.7369 39.7658 37.7997 39.5318 36.7844C39.0638 34.7538 39.2978 32.5671 38.5958 30.5365C38.0498 28.9745 36.8018 28.0374 35.3978 27.3345C34.5398 26.944 33.6818 26.6316 32.8238 26.3973C32.6678 26.3192 31.7318 26.0068 31.5758 26.163C31.4198 26.2411 32.5118 26.8659 32.4338 27.1002C31.4978 30.3022 32.0438 32.1766 32.5898 35.4567C32.6678 36.0034 32.8238 36.7063 32.9798 37.5654C33.5258 38.9712 34.2278 40.3769 34.5398 41.9389C34.8518 43.7352 35.4758 45.4533 36.1778 47.0934C37.0358 49.2021 38.8298 52.6384 41.7158 51.8574C45.0698 50.9202 43.5878 46.6248 42.4178 43.8133Z" fill="#FF9673"/>
<path d="M20.1879 36.9407C22.7619 37.7217 29.2359 40.4551 31.8879 39.9084C33.9939 39.4398 32.9019 29.0527 34.3839 27.4127C33.3699 26.6317 31.8879 26.2412 30.8739 26.0069C30.1719 25.8507 29.6259 25.7726 29.0019 25.3821C28.2219 24.8354 28.2999 23.5858 28.2999 22.6487C28.2999 21.0867 28.6899 18.8999 28.4559 18.6656C26.4279 16.557 22.2939 18.0408 22.3719 18.0408C22.4499 19.2123 22.4499 20.4619 22.3719 21.6334C22.2939 22.8829 22.3719 24.1325 21.6699 25.1478C20.9679 26.1631 19.6419 25.6945 18.6279 26.1631C18.0819 26.3974 17.3799 27.3346 16.7559 27.5689C17.6919 28.8184 18.6279 36.4721 20.1879 36.9407Z" fill="#FF9673"/>
<path d="M24.7899 34.9881C25.1019 35.7691 25.2579 36.6282 25.4139 37.4873C25.4139 37.7216 25.8039 37.6435 25.7259 37.4092C25.5699 36.5501 25.4139 35.7691 25.1019 34.91C25.1019 34.6757 24.7119 34.7538 24.7899 34.9881Z" fill="#BF483D"/>
<path d="M36.1779 33.1918C36.0999 34.129 35.8659 34.9881 35.3979 35.8472C35.3199 36.0815 35.6319 36.2377 35.7099 36.0034C36.1779 35.1443 36.4899 34.2071 36.4899 33.1918C36.4899 32.9575 36.1779 32.9575 36.1779 33.1918Z" fill="#BF483D"/>
<path d="M22.3718 20.5399C22.2938 21.399 22.2938 22.3362 22.2158 23.2734C24.2438 24.2105 26.8178 23.5077 28.2218 21.7895C28.2218 21.7895 28.2218 21.4771 28.2218 21.399C28.3778 19.7589 28.6898 17.8846 28.5338 17.7284C26.5058 15.6197 22.2158 17.1036 22.2938 17.1036C22.4498 18.2751 22.4498 19.2903 22.3718 20.5399Z" fill="#BF483D"/>
<path d="M18.3159 26.0069C15.8199 26.4755 14.4939 26.5536 12.3099 27.9593C11.1399 28.7403 10.2039 29.8337 9.50193 31.0052C8.79993 32.1767 8.17593 33.8167 7.39593 34.9101C5.67993 37.3312 3.57393 39.9865 1.77993 43.8914C0.999931 45.5315 0.687931 47.562 1.31193 49.2802C2.79393 53.2632 11.2959 59.1987 11.6859 62.3227C11.7639 62.8694 15.5079 58.9644 15.1959 58.7301C12.0759 56.0748 10.2039 50.4517 7.70793 48.0306C7.00593 47.3278 7.70793 46.1563 8.17593 45.5315C9.65793 43.5009 10.9059 42.4076 12.4659 39.4398C13.2459 37.8778 15.6639 36.5502 16.4439 36.394C17.0679 36.2378 19.4079 25.8507 18.3159 26.0069Z" fill="#FF9673"/>
<path d="M36.9581 61.4636V61.6979C36.5681 58.652 36.1781 57.3244 35.7101 54.9033C35.4761 53.6537 34.8521 50.9203 34.8521 49.6707C34.8521 48.343 34.9301 47.484 34.9301 46.1563C34.9301 45.922 34.6961 46.0001 34.5401 45.922C34.4621 45.7658 34.3841 45.6096 34.1501 45.6096C31.4201 45.4534 28.6901 45.5315 25.9601 45.8439C24.6341 46.0001 23.3081 46.1563 21.9041 46.1563C20.6561 46.1563 19.4081 46.0782 18.1601 46.3906L18.0821 46.3125C17.8481 46.2344 17.6141 46.2344 17.4581 46.4687C17.4581 46.5468 17.3801 46.5468 17.3801 46.6249C17.1461 46.6249 16.9901 46.7811 17.0681 47.0154C17.2241 48.2649 17.1461 49.0459 17.1461 50.9203C17.2241 53.8099 16.2101 54.7471 15.4301 61.776C15.3521 62.0884 15.8201 62.4008 16.0541 62.4008C17.2241 63.416 18.7841 63.5722 20.2661 63.7284C22.2161 63.8846 23.5421 64.3532 25.5701 64.197C29.4701 63.8065 33.0581 63.416 36.6461 62.0103C36.9581 61.776 37.114 61.6979 36.9581 61.4636Z" fill="#FF9673"/>
<path d="M19.8759 27.6468C21.2799 28.1154 22.7619 28.3497 24.1659 28.4278C24.3999 28.4278 24.3999 28.1154 24.1659 28.0373C22.7619 27.9592 21.2799 27.6468 19.9539 27.2563C19.7199 27.2563 19.6419 27.6468 19.8759 27.6468Z" fill="#BF483D"/>
<path d="M26.74 28.506C28.222 28.4279 29.626 28.1155 31.03 27.725C31.264 27.6469 31.186 27.3345 30.952 27.4126C29.548 27.8812 28.144 28.1155 26.74 28.1936C26.506 28.1936 26.506 28.5841 26.74 28.506Z" fill="#BF483D"/>
<path d="M16.5999 43.3447C16.6779 43.579 16.7559 43.8914 16.7559 44.2819C16.7559 44.4381 16.7559 44.5162 16.7559 44.6724C18.2379 44.9848 19.6419 45.5315 21.1239 45.8439C22.6839 46.1562 24.3219 46.3124 25.9599 46.3124C29.2359 46.3124 32.4339 45.6877 35.3199 44.36C35.3199 44.1257 35.3979 43.8914 35.3979 43.579C35.3979 43.3447 35.5539 42.9542 35.6319 42.798C36.4899 40.6113 36.6459 37.8778 36.0999 35.613C36.0999 35.5349 36.0219 35.3787 36.0219 35.3006C35.1639 32.3328 33.7599 26.944 32.5119 26.0849C32.4339 26.0068 32.1999 25.9287 31.9659 25.9287C31.8099 25.8506 31.5759 25.8506 31.4199 25.8506C30.7959 25.7725 30.7179 25.6163 30.4839 25.6163C30.4059 25.6163 30.4059 25.6944 30.3279 25.7725V25.8506C30.5619 26.3973 31.8099 29.287 32.0439 33.7386C32.0439 33.8167 32.0439 33.9729 31.9659 34.051C31.4979 35.0663 29.1579 36.2377 26.4279 36.2377C22.6839 36.2377 21.3579 35.4568 20.8119 34.7539C20.8119 34.7539 20.6559 34.5196 20.5779 34.3634C20.4999 34.2853 20.4999 34.2072 20.4219 34.1291C20.1879 33.7386 20.0319 33.27 19.9539 32.7233C19.8759 31.3956 19.7979 27.8812 20.7339 25.6944C20.8119 25.5383 20.8119 25.304 20.4999 25.304C18.2379 25.4602 18.5499 25.8506 18.3939 25.8506C17.8479 25.9287 16.0539 32.5671 15.8199 35.0663C15.6639 36.5501 15.5079 37.9559 15.7419 39.4398C15.8979 40.9236 16.0539 42.0951 16.5999 43.3447Z" fill="#FFE5D1"/>
<path d="M12.388 91.922H25.57C25.726 90.2038 25.804 88.4856 25.882 86.8456C25.96 84.4245 26.116 82.2378 26.116 79.8167C26.116 79.5824 26.272 79.4262 26.506 79.3481C26.818 79.27 27.13 79.4262 27.13 79.7386C27.364 81.0663 27.364 83.8778 28.612 90.9067C28.69 91.141 28.69 91.5315 28.768 91.8439H41.404C41.482 89.1885 41.56 86.4551 41.404 84.1902C41.248 81.3787 41.014 78.6452 40.546 75.8337C40.234 73.8812 39.766 71.9288 39.376 69.8982C39.376 69.6639 39.298 69.5077 39.298 69.2734C38.908 67.1648 38.83 64.978 38.128 62.9474C37.972 62.4788 37.816 62.0103 37.66 61.5417C37.66 61.4636 37.582 61.4636 37.582 61.3855C37.504 61.2293 37.348 60.6045 37.192 59.9016C37.036 59.1987 36.88 58.4958 36.802 58.2615C36.724 58.0272 36.568 57.871 36.412 57.9491C36.646 57.871 36.022 58.0272 35.944 58.0272C28.456 59.9797 17.848 58.2615 15.82 57.7148C15.664 57.7148 15.43 58.652 15.196 59.6673C15.04 60.2921 14.884 60.9169 14.806 61.3074C14.806 61.3855 14.65 62.5569 14.494 63.0255C13.714 65.5247 12.856 68.5705 12.778 68.961C11.062 76.6147 11.296 82.4721 12.154 90.2819C12.232 90.9067 12.31 91.3753 12.388 91.922Z" fill="#2E343B"/>
<path d="M14.8059 66.2276C14.3379 67.7115 13.8699 69.1954 13.6359 70.6793C13.3239 72.1631 13.1679 73.7251 13.0119 75.2871C12.9339 76.849 12.8559 78.411 12.9339 79.8949C13.0119 81.4569 13.0899 83.0969 13.2459 84.6589C13.4019 86.299 13.6359 87.8609 13.9479 89.501C13.9479 89.7353 14.0259 89.8915 14.0259 90.1258C14.0259 90.3601 14.4159 90.282 14.3379 90.0477C14.1039 88.4857 13.7919 86.8456 13.6359 85.2056C13.4799 83.6436 13.3239 82.0816 13.2459 80.4416C13.1679 78.8796 13.1679 77.3957 13.3239 75.8338C13.4019 74.3499 13.5579 72.7879 13.8699 71.304C14.1039 69.8202 14.4939 68.3363 14.9619 66.8524C15.0399 66.6962 15.1179 66.4619 15.1179 66.3057C15.1959 66.0715 14.8839 65.9934 14.8059 66.2276Z" fill="#120202"/>
<path d="M27.13 54.747C26.506 54.9813 26.428 55.7623 26.272 56.309C26.194 56.5433 26.584 56.6214 26.584 56.3871C26.662 55.9966 26.74 55.2156 27.208 55.0594C27.442 54.9813 27.364 54.6689 27.13 54.747Z" fill="#BF483D"/>
<path d="M16.3659 59.9797C16.2879 59.9016 15.5079 58.8082 14.1819 57.7148C14.1039 57.6367 11.5299 62.3226 11.6859 62.3226C11.4519 63.0255 11.1399 64.0408 10.9839 64.7437C10.7499 65.6028 10.3599 66.4619 10.2819 67.3209C10.0479 68.7267 10.5939 70.2106 10.9839 71.6164C11.1399 72.163 11.6079 73.2564 12.3099 73.0221C12.3879 73.0221 12.3879 72.944 12.4659 72.944C12.5439 73.0221 12.6219 73.1002 12.6999 73.2564C13.0119 73.5688 13.4799 73.8031 13.7919 73.4126C14.0259 73.1002 14.0259 72.7097 14.0259 72.2411C14.8059 72.7097 14.9619 71.3821 14.8839 70.9135C14.8839 70.2106 14.6499 69.5858 14.6499 68.8829C14.6499 68.6486 14.6499 68.3362 14.6499 68.1019C14.7279 68.2581 14.8059 68.3362 14.9619 68.4143C16.2099 68.961 16.5999 66.2276 16.6779 65.5247C17.0679 63.6503 17.3799 61.6198 16.3659 59.9797Z" fill="#FF9673"/>
<path d="M13.4018 33.5042C13.7138 34.5195 14.0258 35.3786 14.7278 36.1596C14.8838 36.3158 15.1178 36.0815 14.9618 35.9253C14.2598 35.2224 14.0258 34.3633 13.7138 33.4261C13.6358 33.1918 13.3238 33.2699 13.4018 33.5042Z" fill="#BF483D"/>
<path d="M14.8059 64.1189C14.4159 65.1341 14.3379 66.2275 14.4159 67.399C14.4159 67.6333 14.8059 67.6333 14.8059 67.399C14.7279 66.3056 14.8059 65.2903 15.1179 64.2751C15.2739 64.0408 14.8839 63.9627 14.8059 64.1189Z" fill="#BF483D"/>
<path d="M12.4659 66.6181C12.2319 68.3363 12.7779 69.9763 13.4019 71.5383C13.4799 71.7726 13.8699 71.6945 13.7139 71.4602C13.0899 69.8982 12.5439 68.3363 12.7779 66.6181C12.8559 66.3838 12.4659 66.3838 12.4659 66.6181Z" fill="#BF483D"/>
<path d="M11.1399 67.8677C11.1399 69.3516 11.5299 70.8354 12.2319 72.1631C12.3099 72.3974 12.6219 72.1631 12.5439 72.0069C11.8419 70.7573 11.4519 69.3516 11.5299 67.9458C11.5299 67.6334 11.1399 67.6334 11.1399 67.8677Z" fill="#BF483D"/>
<path d="M42.1059 38.8149C41.4819 39.9864 40.8579 41.0798 40.1559 42.1732C39.4539 43.1885 38.7519 44.1256 38.2059 45.1409C37.7379 46 37.3479 47.0934 37.5039 48.1087C37.6599 49.0458 38.2059 49.8268 39.1419 49.9049C39.7659 49.983 40.3899 49.8268 40.9359 49.5925C41.5599 49.3582 42.1839 49.0458 42.8079 48.6553C42.9639 48.4991 42.8079 48.1868 42.6519 48.343C42.1839 48.6553 41.6379 48.8896 41.1699 49.1239C40.7019 49.3582 40.1559 49.5144 39.6099 49.5925C38.5179 49.6706 37.9719 48.8115 37.8939 47.7963C37.8159 46.781 38.2839 45.8438 38.7519 44.9847C39.2979 44.0475 39.9219 43.2666 40.5459 42.3294C41.2479 41.236 41.9499 40.1426 42.4959 38.9711C42.4959 38.8149 42.1839 38.5806 42.1059 38.8149Z" fill="#2B0808"/>
<path d="M47.7219 43.5789C47.7219 43.4227 47.7999 43.1884 47.7999 43.0322C47.9559 42.4856 48.0339 42.017 48.1119 41.4703C48.1899 40.7674 47.0979 40.7674 47.0199 41.4703C46.9419 42.017 46.8639 42.5637 46.7079 43.1103C46.5519 43.1103 46.3959 43.2665 46.3959 43.5008C46.2399 44.2818 46.1619 45.0628 46.1619 45.8438C46.2399 46.5467 47.3319 46.5467 47.2539 45.8438C47.2539 45.8438 47.2539 45.8438 47.2539 45.7657C47.2539 45.7657 47.3319 45.7657 47.3319 45.6876C47.7999 45.2971 48.1899 44.9066 48.5019 44.3599C48.7359 43.8913 48.1119 43.3446 47.7219 43.5789Z" fill="#FF9673"/>
<path d="M40.6239 46.781C40.4679 46.781 40.3899 46.781 40.2339 46.7029C39.6879 46.3905 39.4539 45.9219 39.4539 45.4533C39.4539 44.9847 39.8439 44.438 40.3899 44.3599C40.7799 44.2818 41.1699 44.5161 41.2479 44.9066C41.2479 44.9847 41.2479 45.0628 41.2479 45.219C41.3259 45.3752 41.4039 45.5314 41.4039 45.6876C41.4039 45.9219 41.4039 46.1562 41.2479 46.3905C41.1699 46.6248 40.9359 46.781 40.7799 46.8591C40.7019 46.7029 40.6239 46.781 40.6239 46.781ZM40.4679 44.5942C39.9999 44.6723 39.7659 45.0628 39.7659 45.3752C39.7659 45.7657 40.0779 46.1562 40.3899 46.3124C40.4679 46.3905 40.6239 46.3905 40.7019 46.3905C40.7799 46.3905 40.9359 46.2343 40.9359 46.1562C41.0139 46 41.0139 45.7657 41.0139 45.6095C41.0139 45.4533 40.9359 45.3752 40.8579 45.2971C40.7799 45.219 40.7799 45.1409 40.7799 45.1409C40.7799 45.0628 40.7799 44.9847 40.7799 44.9066C40.7799 44.6723 40.6239 44.5942 40.4679 44.5942Z" fill="#BF483D"/>
<path d="M35.398 43.6572C35.242 45.063 35.242 45.4535 35.242 46.1564C35.242 46.3907 35.086 46.5469 34.852 46.625C33.838 47.0155 32.668 47.1717 31.576 47.3279C29.626 47.5621 27.676 47.7183 25.726 47.7183C23.776 47.7183 21.904 47.5621 20.032 47.2498C19.174 47.0936 18.16 46.9374 17.224 46.625C16.99 46.5469 16.912 46.3126 16.834 46.1564C16.756 45.3754 16.756 44.4382 16.678 43.8915C17.146 44.4382 19.642 44.9849 21.124 45.1411C22.84 45.2192 24.634 45.2973 26.35 45.3754C29.47 45.3754 35.086 44.5163 35.398 43.6572Z" fill="#6E3030"/>
<path d="M46.3958 51.9356L47.4098 42.798C47.4098 42.6418 47.4098 42.5637 47.3318 42.4075C47.0978 41.7828 47.0978 41.0018 47.4878 40.5332C47.5658 40.377 47.6438 40.2208 47.6438 40.0646L47.8778 38.1902C47.9558 37.6435 47.4878 37.0968 46.8638 37.0188L42.4958 36.4721C41.8718 36.394 41.3258 36.7845 41.2478 37.4092L39.7658 51.1546C39.6878 51.7013 40.1558 52.248 40.7798 52.326L41.4038 52.4822C42.6518 52.7165 43.8998 52.8727 45.1478 52.8727C45.7718 52.8727 46.3958 52.4822 46.3958 51.9356Z" fill="#856BD1"/>
<path d="M40.5459 50.9203C40.7019 51.1546 41.0139 51.3108 41.3259 51.3889C41.7159 51.5451 42.1839 51.6232 42.6519 51.7013C43.5099 51.8575 44.2899 51.7794 45.1479 51.7013C45.3819 51.6232 45.3039 51.3108 45.0699 51.3889C44.3679 51.5451 43.6659 51.5451 42.8859 51.467C42.5739 51.3889 42.1839 51.3889 41.8719 51.2327C41.5599 51.1546 41.0919 51.0765 40.9359 50.8422C40.7019 50.5298 40.3899 50.686 40.5459 50.9203Z" fill="#2B0808"/>
<path d="M41.8718 37.5656C42.1838 37.878 42.5738 38.0342 43.0418 38.1123C43.5878 38.2685 44.0558 38.3466 44.6018 38.4247C44.8358 38.4247 44.8358 38.1123 44.6018 38.0342C44.1338 37.9561 43.6658 37.878 43.1978 37.7999C42.8078 37.7218 42.4178 37.5656 42.1058 37.3313C41.9498 37.1751 41.7158 37.4094 41.8718 37.5656Z" fill="#2B0808"/>
<path d="M47.4878 37.3312C47.4878 36.7845 47.6438 36.3159 47.5658 35.7692C47.5658 35.1444 46.0838 34.832 44.7578 34.6758C44.8358 34.2853 44.9138 34.051 44.6018 33.8948C44.3678 33.7386 43.4318 33.6605 43.0418 33.7386C42.8858 33.7386 42.7298 33.8948 42.7298 34.1291C42.7298 34.3634 42.7298 34.5196 42.7298 34.6758C42.6518 34.6758 42.6518 34.6758 42.5738 34.6758C41.8718 34.9101 41.7938 35.0663 41.7938 35.3787L41.7158 36.7064C41.7158 36.9407 41.8718 37.0969 42.0278 37.175C44.2898 38.3465 47.4878 37.7217 47.4878 37.3312Z" fill="#6E3030"/>
<path d="M42.1839 35.3007C42.6519 35.8474 43.5879 36.0036 44.2899 36.0817C45.2259 36.1598 46.2399 36.1598 47.1759 35.8474C47.4099 35.7693 47.3319 35.4569 47.0979 35.535C46.2399 35.8474 45.3819 35.8474 44.4459 35.7693C43.8219 35.6912 42.8859 35.6131 42.4959 35.0664C42.3399 34.8321 42.0279 35.1445 42.1839 35.3007Z" fill="#2B0808"/>
<path d="M48.658 43.8915C48.736 43.5792 48.58 43.1887 48.19 43.1887H48.112C48.502 42.7201 48.736 42.4077 48.658 41.7829C48.658 41.3924 48.58 40.6895 48.19 40.4552C47.8 40.2209 47.41 40.5333 47.332 40.9238C47.332 41.08 47.332 41.2362 47.332 41.4705C47.332 41.5486 47.41 42.1734 47.566 42.3296C47.566 42.4077 47.566 42.4858 47.644 42.5639C47.566 42.5639 47.566 42.5639 47.488 42.5639C47.488 42.642 47.488 42.7201 47.488 42.7982C47.41 43.3449 46.786 43.2668 46.474 43.6573C46.396 43.7354 46.318 43.8915 46.24 43.9696C46.24 44.1258 46.24 44.282 46.24 44.3601C46.396 44.8287 46.864 45.063 47.332 44.9849C47.722 44.9068 48.034 44.7506 48.268 44.4382C48.346 44.3601 48.424 44.282 48.424 44.2039C48.502 44.1258 48.502 44.1258 48.502 44.0477C48.58 43.9696 48.658 43.9696 48.658 43.8915Z" fill="#FF9673"/>
<path d="M47.9559 47.0154C47.8779 46.9373 47.7219 46.9373 47.5659 46.9373C48.0339 46.9373 48.4239 46.1563 48.3459 45.7658C48.2679 45.4534 48.0339 45.2972 47.6439 45.2191C47.0979 45.141 46.5519 45.5315 46.1619 45.8439C46.0059 45.922 45.8499 46.0001 45.7719 46.1563L45.6939 46.2344C45.4599 46.5468 45.5379 47.0154 45.9279 47.2496C46.1619 47.3277 46.3179 47.4058 46.5519 47.3277C46.2399 47.4839 45.9279 47.7182 45.6939 47.9525C45.6159 48.0306 45.6159 48.2649 45.6939 48.4211C46.1619 48.9678 46.8639 48.6554 47.3319 48.4211C47.8779 48.1868 48.6579 47.4058 47.9559 47.0154Z" fill="#FF9673"/>
<path d="M47.6439 45.3754C47.6439 45.2973 47.7219 45.2973 47.6439 45.3754C47.7999 45.2973 47.7999 45.1411 47.7999 45.063C47.7219 44.9849 47.6439 44.9849 47.5659 44.9849H47.4879C47.4099 45.063 47.4099 45.1411 47.4099 45.2192C47.4879 45.3754 47.5659 45.3754 47.6439 45.3754Z" fill="#BF483D"/>
<path d="M47.644 42.9543C47.644 43.0324 47.644 43.0324 47.644 43.1105C47.644 43.1886 47.8 43.2667 47.878 43.2667C47.956 43.2667 48.034 43.1105 48.034 43.0324C48.034 42.9543 48.034 42.9543 48.034 42.8762C48.034 42.7981 47.878 42.72 47.8 42.72C47.722 42.7981 47.644 42.8762 47.644 42.9543Z" fill="#BF483D"/>
<path d="M47.2539 47.1716C47.1759 47.1716 47.0979 47.1716 47.0979 47.2497C47.0199 47.2497 46.9419 47.4059 46.9419 47.484C46.9419 47.5621 47.0979 47.6402 47.1759 47.6402C47.2539 47.6402 47.3319 47.6402 47.3319 47.5621C47.4099 47.5621 47.4879 47.4059 47.4879 47.3278C47.4099 47.2497 47.3319 47.1716 47.2539 47.1716Z" fill="#BF483D"/>
<path d="M42.2619 36.5502C42.6519 36.8626 43.1979 36.8626 43.6659 36.7845C43.8999 36.7064 43.8219 36.394 43.5879 36.4721C43.2759 36.5502 42.8079 36.5502 42.5739 36.3159C42.3399 36.1597 42.1059 36.394 42.2619 36.5502Z" fill="#2B0808"/>
<path d="M31.1861 9.7624C30.7961 8.66902 30.2501 7.80994 29.0021 7.10705C26.6621 5.77938 22.9961 6.09177 21.2021 8.20043C19.6421 9.9967 18.1601 14.214 20.4221 16.0884C20.5001 16.1665 20.2661 14.6045 20.3441 14.6045C20.3441 14.6045 20.4221 14.6826 20.5001 14.6826C21.5141 14.9169 22.2161 15.776 22.9961 16.3227C23.7761 16.8694 24.5561 17.338 25.4921 17.6503C26.9741 18.197 28.7681 18.0408 29.4701 16.557C29.5481 16.557 29.9381 17.1037 30.0161 17.0256C32.3561 16.1665 31.8881 11.6368 31.1861 9.7624Z" fill="#6E3030"/>
<path d="M30.718 11.793C30.718 9.37191 29.392 7.18516 26.584 6.79466C23.776 6.32607 21.826 7.65375 20.89 9.9967C19.642 13.1206 20.344 15.6979 21.28 18.978C21.748 20.6181 23.854 21.8677 25.726 21.7115C27.754 21.5553 29.158 20.0714 29.626 18.2751C30.328 15.9322 30.796 13.6673 30.718 11.793Z" fill="#FF9673"/>
<path d="M31.1079 11.6368C31.1079 10.6215 30.7959 9.84056 30.1719 8.98148C29.6259 8.20049 28.6119 7.41951 27.7539 7.10712C26.8179 6.71662 25.6479 6.48233 24.6339 6.63853C22.6839 6.87282 20.8119 8.51289 20.4219 10.5434C20.2659 11.2463 20.2659 11.8711 20.1099 12.574C20.0319 12.9645 19.8759 13.9798 20.1879 14.2141C20.8119 14.8389 20.9679 13.2769 20.9679 12.9645C21.1239 11.7149 21.4359 10.2311 22.6059 9.52817C23.3079 9.13768 24.0099 9.05958 24.7899 9.05958C25.6479 9.13768 26.5059 9.13768 27.3639 9.29387C28.2999 9.45007 29.0799 10.0749 29.5479 10.8558C30.0939 11.8711 30.0159 12.9645 30.1719 14.0579C30.1719 14.2141 30.1719 14.6827 30.4059 14.7608C31.0299 14.917 31.1079 12.8864 31.1079 11.6368Z" fill="#6E3030"/>
<path d="M30.952 14.0578C30.64 13.7454 30.328 13.9797 30.094 14.214C30.016 14.214 29.47 16.635 29.626 16.9474C30.016 17.7284 30.484 16.7131 30.64 16.3226C30.952 15.8541 31.264 14.3702 30.952 14.0578Z" fill="#FF9673"/>
<path d="M20.1879 15.6199C20.3439 16.0104 20.8119 16.9476 21.2799 16.2447C21.4359 15.9323 21.4359 15.4637 21.3579 15.1513C21.3579 14.6827 21.0459 13.8236 20.9679 13.8236C20.7339 13.5112 20.3439 13.1988 20.0319 13.4331C19.4079 13.9017 19.9539 15.1513 20.1879 15.6199Z" fill="#FF9673"/>
<path d="M28.144 13.7455C28.066 13.6674 27.91 13.5893 27.754 13.6674C27.286 13.8236 27.208 14.4483 27.208 14.6826C27.286 14.995 27.52 15.3074 27.91 15.1512C28.378 14.995 28.534 14.0579 28.144 13.7455Z" fill="#2B0808"/>
<path d="M23.8538 13.5112C23.7758 13.4331 23.6198 13.4331 23.4638 13.4331C22.9958 13.5893 22.9178 14.2141 22.9958 14.5265C23.0738 14.8389 23.3858 15.1513 23.6978 14.917C24.1658 14.6827 24.1658 13.7455 23.8538 13.5112Z" fill="#2B0808"/>
<path d="M25.1018 14.3702C24.4778 14.8388 24.5558 15.6198 25.2578 15.9322C25.4918 16.0103 25.6478 15.6979 25.4138 15.6198C25.0238 15.4636 24.8678 14.995 25.2578 14.6826C25.4918 14.5264 25.2578 14.214 25.1018 14.3702Z" fill="#BF483D"/>
<path d="M26.0378 15.6978C26.1158 15.6978 26.1158 15.6978 26.1158 15.6978C26.1938 15.6978 26.1938 15.6978 26.1938 15.6978C26.2718 15.6978 26.4278 15.6197 26.4278 15.5416C26.4278 15.4635 26.4278 15.3855 26.2718 15.3074C26.1158 15.2293 25.9598 15.2293 25.8818 15.3074C25.8038 15.3074 25.7258 15.4635 25.7258 15.5416C25.8038 15.6978 25.9598 15.7759 26.0378 15.6978Z" fill="#BF483D"/>
<path d="M29.08 12.73C28.768 11.949 27.13 11.949 26.818 12.73C26.662 12.9643 26.74 13.3548 27.052 13.4329C27.364 13.511 27.676 13.3548 27.988 13.3548C28.3 13.3548 28.534 13.511 28.846 13.511C29.08 13.4329 29.158 13.2767 29.158 13.1205C29.158 12.8862 29.08 12.8081 29.08 12.73Z" fill="#6E3030"/>
<path d="M22.0598 12.652C22.0598 12.8863 22.2158 13.0425 22.4498 13.1206C22.7618 13.1987 23.0738 13.0425 23.3858 12.9644C23.6978 12.9644 24.0098 13.1987 24.3218 13.0425C24.6338 12.9644 24.7118 12.5739 24.5558 12.3396C24.1658 11.5587 22.5278 11.5587 22.1378 12.3396C22.1378 12.4958 22.0598 12.5739 22.0598 12.652Z" fill="#6E3030"/>
<path d="M26.7399 16.7912C26.5839 16.7912 26.4279 16.8693 26.2719 16.8693C26.0379 16.9474 25.8039 16.9474 25.4919 16.8693C25.2579 16.8693 25.0239 16.7912 24.7899 16.7131C24.6339 16.7131 24.4779 16.635 24.3219 16.635C24.1659 16.635 24.0879 16.7912 24.1659 16.9474C24.2439 17.2598 24.4779 17.416 24.7119 17.4941C25.1799 17.6503 25.8039 17.7284 26.2719 17.5722C26.5059 17.4941 26.8179 17.416 26.8959 17.1817C26.9739 16.9474 26.8959 16.8693 26.7399 16.7912Z" fill="#BF483D"/>
<path d="M30.3278 14.6825C30.2498 15.073 30.1718 15.4635 30.0938 15.854C30.0158 16.0883 30.4058 16.1664 30.4058 15.9321C30.4838 15.5416 30.5618 15.1511 30.6398 14.7606C30.7178 14.5263 30.3278 14.4482 30.3278 14.6825Z" fill="#BF483D"/>
<path d="M20.2659 14.0578C20.3439 14.4483 20.3439 14.8388 20.4219 15.1512C20.4999 15.3855 20.8119 15.3074 20.7339 15.0731C20.6559 14.7607 20.5779 14.3702 20.5779 14.0578C20.5779 13.8235 20.2659 13.8235 20.2659 14.0578Z" fill="#BF483D"/>
<path d="M30.5619 9.60614C30.5619 10.0747 30.4059 10.4652 30.0939 10.7776C29.9379 10.9338 30.1719 11.1681 30.3279 11.0119C30.7179 10.6214 30.8739 10.1528 30.8739 9.60614C30.9519 9.37185 30.5619 9.37185 30.5619 9.60614Z" fill="#2B0808"/>
<path d="M20.812 9.05957C20.734 9.45006 20.812 9.91865 21.046 10.3091C21.202 10.4653 21.514 10.3091 21.358 10.1529C21.202 9.84055 21.124 9.52816 21.202 9.21577C21.202 8.90337 20.89 8.82527 20.812 9.05957Z" fill="#2B0808"/>
<path d="M21.904 8.12244C21.826 8.27864 21.748 8.43484 21.748 8.66913C21.748 8.74723 21.826 8.82533 21.904 8.82533C21.982 8.82533 22.06 8.74723 22.06 8.66913C22.06 8.51294 22.138 8.43484 22.216 8.35674C22.294 8.12244 21.982 7.96625 21.904 8.12244Z" fill="#2B0808"/>
<path d="M39.922 91.922C40 91.0629 40.078 90.2819 40.156 89.4229C40.312 87.6266 40.39 85.8303 40.468 84.0341C40.468 83.0188 40.546 82.0035 40.546 80.9882C40.546 80.7539 40.156 80.7539 40.156 80.9882C40.156 82.7845 40.078 84.5808 40 86.377C39.922 88.1733 39.766 89.9695 39.532 91.7658C39.532 91.8439 39.532 91.8439 39.532 91.922H39.922Z" fill="#120202"/>
<path d="M10.906 35.3787C12.154 35.3006 13.246 34.832 14.182 34.1291C14.338 33.9729 14.182 33.6605 14.026 33.8167C13.09 34.5196 12.076 34.9101 10.906 34.9882C10.672 34.9882 10.672 35.3787 10.906 35.3787Z" fill="#BF483D"/>
<path d="M28.378 76.771C27.52 77.4739 26.74 78.1767 26.038 79.0358C25.96 79.1139 25.96 79.192 26.038 79.2701C26.116 79.3482 26.194 79.3482 26.272 79.2701C26.974 78.411 27.754 77.7082 28.612 77.0053C28.69 76.9272 28.69 76.8491 28.612 76.771C28.534 76.6929 28.456 76.6929 28.378 76.771Z" fill="#120202"/>
<path d="M22.1378 26.7879C22.2158 25.7726 22.5278 24.6011 22.0598 23.5859C21.9818 23.3516 21.7478 23.4297 21.6698 23.5859C21.5918 23.5859 21.5138 23.5078 21.4358 23.5859L18.3938 24.3668C17.6138 24.6011 16.8338 24.7573 16.0538 25.1478C14.3378 26.0069 14.0258 27.7251 13.7138 29.4432C13.1678 31.8643 12.8558 34.2853 12.6998 36.7064C12.6998 37.0969 12.6218 37.5655 12.5438 38.0341C12.5438 38.2684 12.4658 38.5808 12.4658 38.8151C12.3878 39.6741 12.3878 40.4551 12.6218 41.2361C13.4018 43.501 16.2098 41.7047 17.6138 41.0799C18.7058 40.6113 19.9538 40.6113 21.1238 40.4551C22.1378 40.2989 21.9818 39.3618 21.9818 38.5808C21.9818 37.956 21.9038 37.2531 21.9038 36.6283C21.9038 36.394 21.9038 36.1597 21.9038 35.9254C21.9038 34.2073 21.9038 32.4891 21.9818 30.7709C21.9818 29.3651 22.0598 28.0375 22.1378 26.7879Z" fill="#5A78D1"/>
<path d="M21.9038 36.5501C21.7478 36.6282 21.5138 36.7063 21.3578 36.7063C20.4218 36.7063 18.1598 37.4873 17.3018 37.6435C15.6638 38.034 14.1038 38.4245 12.4658 38.815C12.4658 38.5807 12.5438 38.2683 12.5438 38.034C14.3378 37.5654 16.1318 37.1749 18.0038 36.7063C18.7058 36.5501 19.4858 36.3158 20.1878 36.0815C20.2658 36.0815 21.8258 35.691 21.8258 35.7691C21.9038 36.0815 21.9038 36.3158 21.9038 36.5501Z" fill="white"/>
<path d="M18.5499 28.5061C17.6139 31.7862 17.8479 35.3007 19.2519 38.4246C19.3299 38.6589 19.6419 38.4246 19.5639 38.2684C18.2379 35.2226 18.0039 31.7862 18.9399 28.6623C18.9399 28.3499 18.5499 28.2718 18.5499 28.5061Z" fill="#2B0808"/>
<path d="M16.9118 32.8795C16.5998 33.6605 16.4438 34.4415 16.4438 35.3006C16.4438 35.5349 16.8338 35.5349 16.8338 35.3006C16.8338 34.5196 16.9898 33.8167 17.2238 33.1138C17.3798 32.8795 17.0678 32.6452 16.9118 32.8795Z" fill="#2B0808"/>
<path d="M18.394 61.0731C19.486 61.3074 20.578 61.5417 21.67 61.6198C22.762 61.776 23.854 61.8541 24.946 61.9322C26.038 62.0103 27.13 62.0103 28.222 61.9322C29.314 61.8541 30.406 61.776 31.498 61.6979C32.59 61.5417 33.682 61.3855 34.774 61.1512C34.93 61.1512 35.008 61.0731 35.164 61.0731C35.398 60.995 35.32 60.6826 35.086 60.7607C33.994 60.995 32.98 61.1512 31.888 61.3074C30.796 61.4636 29.704 61.5417 28.612 61.6198C27.52 61.6979 26.428 61.6979 25.336 61.6198C24.244 61.5417 23.152 61.4636 22.06 61.3855C20.968 61.2293 19.876 61.0731 18.862 60.8388C18.706 60.8388 18.628 60.7607 18.472 60.7607C18.238 60.6826 18.16 60.995 18.394 61.0731Z" fill="#120202"/>
<path d="M17.77 50.2956C17.848 50.6861 17.848 51.1547 17.926 51.5452C17.926 51.7795 18.316 51.7795 18.316 51.5452C18.238 51.1547 18.238 50.6861 18.16 50.2956C18.082 50.0613 17.77 50.0613 17.77 50.2956Z" fill="#BF483D"/>
<path d="M55.9899 6.48217C55.9119 6.09168 55.7559 5.70119 55.5999 5.3107C55.7559 4.84211 55.7559 4.29542 55.5219 3.82683C55.3659 3.20204 54.8198 2.49915 54.1959 2.34295C54.2739 1.71817 54.1179 1.09338 53.4159 0.702886C52.6358 0.234295 51.5439 0 50.8419 0.546689C50.6079 0.156197 50.0619 0 49.5939 0C48.9699 0 48.5019 0.234295 48.1119 0.624788C46.7079 0.937182 45.3819 1.48387 44.3679 2.57725C43.3539 3.59253 43.0419 4.21732 42.9639 5.62309C42.8079 7.65365 43.3539 10.7776 44.5239 11.4805C44.5239 11.5586 45.3819 14.8387 45.5379 14.8387H45.6159C46.4739 14.7606 47.2539 14.7606 48.1119 14.6825C48.8919 14.6044 49.7499 14.5263 50.5299 14.6044L50.6079 14.6825C51.5439 14.8387 52.0119 11.09 52.7919 10.5433C53.5719 9.9966 54.2739 12.4958 54.5079 11.2462C54.8199 9.9966 54.8979 8.90323 55.1319 7.41935C55.2879 6.87267 56.0679 7.02886 55.9899 6.48217Z" fill="#4A1616"/>
<path d="M45.6939 42.5637C45.3039 40.3769 44.2899 38.4244 43.5099 36.3939C43.1199 35.3786 42.7299 34.2852 42.4959 33.1918C42.3399 32.3328 42.1839 31.4737 41.7159 30.6927C40.7799 29.2088 37.6599 30.3022 37.5819 30.3803C36.4119 32.1766 35.5539 33.9728 35.4759 36.0815C35.3979 38.5025 36.0219 40.7674 37.0359 42.9541C37.6599 44.2818 37.4259 45.6095 37.5819 47.1715C37.9719 52.326 38.9859 53.966 38.9859 55.8404C38.9859 56.5433 39.0639 56.9338 38.7519 57.6367C36.4119 62.3226 35.5539 70.1324 33.6039 74.8964C33.4479 75.2088 33.8379 75.5212 34.1499 75.4431C35.4759 75.2088 36.8019 75.365 38.0499 75.8336C38.2839 75.9117 38.5959 75.8336 38.6739 75.5993C39.7659 73.2564 41.5599 70.2105 42.5739 67.9457C43.6659 65.5246 44.3679 63.4159 44.9919 60.7606C45.6159 58.1052 45.4599 55.8404 45.6159 53.185C45.6939 51.4669 45.6939 49.7487 45.6939 47.9524C45.6939 47.9524 45.6939 47.9524 45.6939 47.8743C45.8499 46.1562 46.0059 44.2818 45.6939 42.5637Z" fill="#FF9673"/>
<path d="M78.844 38.2682C78.688 36.8625 78.142 35.691 77.284 34.5976C75.88 32.6451 74.398 29.9117 71.356 27.9592C71.356 27.9592 68.392 24.1324 66.91 22.9609C66.91 22.8828 65.428 23.1171 65.194 23.6638C64.882 24.2886 65.272 25.2258 65.506 25.8506C65.818 26.944 66.13 27.9592 66.442 29.0526C66.754 30.0679 66.988 31.0832 67.378 32.0204C67.69 32.8013 68.314 33.4261 68.938 34.0509C69.64 34.7538 70.342 35.5348 71.044 36.3158C71.746 37.1749 72.37 38.0339 73.072 38.9711C73.54 39.674 74.086 40.3769 74.788 40.8455C75.958 41.7046 77.674 41.8608 78.532 40.6893C78.844 40.5331 79 40.7674 79 40.3769C79 39.674 78.922 38.893 78.844 38.2682Z" fill="#FF9673"/>
<path d="M69.0159 25.5382C69.0939 25.4601 70.9659 27.3345 70.8879 27.1783C68.5479 21.2428 65.6619 21.0085 62.7759 20.6961C61.0599 20.4618 58.4859 21.2428 56.7699 20.9304C55.2099 20.618 54.4299 20.6961 53.4939 18.1188C53.4159 17.8845 52.7139 17.8845 52.7139 18.1188C51.5439 18.0407 47.7219 19.2122 46.9419 19.5246C46.8639 19.5246 46.5519 19.6808 46.5519 19.7589C46.6299 21.7895 44.7579 23.6638 43.1199 24.8353C40.7799 26.5535 39.2199 27.9592 37.8939 29.9117C35.6319 33.2699 35.9439 37.7216 37.5819 41.236C37.6599 41.3922 39.9999 41.0017 40.5459 40.6893C40.8579 43.1103 41.4819 45.5314 42.3399 47.8744C42.6519 50.1392 43.1979 52.4041 43.9779 54.5908C44.0559 54.747 44.0559 54.9032 44.0559 55.1375C43.4319 59.0424 42.9639 62.9474 42.4959 66.8523C42.4959 67.0085 42.6519 67.0866 42.7299 67.0866C43.0419 68.7266 46.3179 69.1952 47.4879 69.3514C49.9839 69.7419 52.6359 69.5076 55.0539 68.9609C57.7839 68.3362 60.3579 67.399 63.0099 66.4618C64.2579 65.9932 65.4279 65.6027 66.5979 64.9779C66.7539 64.8998 66.9099 64.8217 66.9879 64.7436C66.9879 64.5093 66.9879 64.275 66.9879 64.0407C66.9099 63.8845 66.9099 63.6502 66.9099 63.3378C66.9099 63.1817 66.9099 63.1036 66.9099 62.9474C66.8319 62.0102 66.9099 62.1664 66.7539 61.4635C66.7539 61.2292 66.7539 61.073 66.8319 60.8387C67.0659 60.1358 66.9099 55.528 66.6759 54.3565C66.5979 53.8879 66.5979 53.4193 66.7539 52.9508C68.3919 45.5314 69.6399 38.5025 68.0799 30.7708C68.2359 29.9117 68.8599 29.2869 68.9379 28.4278C69.0159 27.9592 69.0159 27.5688 69.0159 27.1002C69.0939 26.6316 69.1719 26.163 69.0159 25.5382Z" fill="#FF9673"/>
<path d="M46.9419 26.4753C49.1258 26.6315 51.3099 26.4753 53.4939 26.0848C56.3019 25.6162 60.0459 24.9914 61.6839 22.3361H61.6058C60.3578 21.8675 59.1098 21.6332 57.7839 21.477C57.2379 21.3989 56.6918 21.3208 56.1458 21.2427C55.2098 20.7741 54.1958 20.4617 53.8058 19.4465C53.4938 18.7436 53.4158 17.8845 53.2598 17.1816C53.1038 16.3225 52.9479 15.3853 52.7919 14.5263C52.7919 14.3701 52.6358 14.292 52.5578 14.3701C51.3878 13.9015 50.2178 13.4329 48.9698 13.2767C47.7998 13.0424 46.7078 13.511 45.6158 13.9796C45.3818 14.0577 45.3818 14.4482 45.6158 14.5263C45.8498 16.0882 46.0838 17.6502 46.3178 19.2122C46.3178 19.4465 46.3958 19.6807 46.3958 19.915C46.4738 20.3836 46.3959 20.9303 46.1618 21.3989C45.6939 22.3361 44.9919 23.1171 44.2119 23.7419C43.6659 24.2886 43.0418 24.8352 42.4958 25.3819C43.8998 26.0848 45.4599 26.3972 46.9419 26.4753Z" fill="#FF9673"/>
<path d="M45.6158 14.37C45.6158 14.4481 45.6158 14.4481 45.6158 14.37C45.8498 15.932 46.0838 17.494 46.3178 19.0559C46.3178 19.2902 46.3958 19.5245 46.3958 19.7588C46.3958 19.915 46.3958 20.0712 46.3958 20.1493C47.5658 20.6179 48.8918 20.6179 50.0618 19.9931C51.3098 19.2902 52.3238 18.1969 53.1038 17.0254C52.9478 16.1663 52.7918 15.3072 52.6358 14.4481C52.6358 14.2919 52.4798 14.2138 52.4018 14.2919C51.2318 13.8233 50.0618 13.3547 48.8138 13.1985C47.6438 12.9643 46.5518 13.4328 45.4598 13.9014C45.3038 13.9795 45.3818 14.37 45.6158 14.37Z" fill="#BF483D"/>
<path d="M52.4019 3.20207C51.6219 2.65538 50.6079 2.34299 49.2819 2.26489C47.4099 2.18679 45.4599 2.88968 44.4459 4.37355C43.5099 5.77932 43.5879 12.0272 45.2259 15.3854C45.6159 16.1664 45.9279 16.635 47.1759 17.3379C48.1119 17.8846 49.3599 17.8065 50.4519 17.6503C53.1039 17.1817 54.3519 13.9016 54.4299 11.5586C54.5079 8.82516 55.0539 5.07644 52.4019 3.20207Z" fill="#FF9673"/>
<path d="M47.2539 1.95239C47.1759 1.95239 47.1759 2.03049 47.2539 1.95239C45.6939 2.18669 44.1339 3.20197 43.5879 4.60774C43.2759 5.38873 43.2759 6.32591 43.2759 7.18499C43.3539 7.65358 43.4319 9.05935 43.5099 9.52794C43.5099 9.52794 43.5879 9.29365 43.7439 9.52794C43.8999 9.91844 44.0559 10.1527 44.5239 10.0746C45.1479 9.84034 44.9919 8.82506 44.9919 8.27837C44.9919 7.49738 45.0699 7.26309 45.3039 6.4821C45.6159 5.70112 46.9419 4.92013 47.0199 4.84204C47.4099 4.52964 47.4879 3.20197 47.6439 2.73338C47.6439 2.34288 47.5659 1.95239 47.2539 1.95239Z" fill="#4A1616"/>
<path d="M54.8979 7.5756C54.8979 7.10701 54.8199 6.63842 54.5859 6.24793C54.5859 6.16983 54.4299 6.24793 54.5079 6.32602C54.5079 6.40412 54.5859 6.40412 54.5859 6.48222C54.4299 7.10701 54.3519 7.7318 54.1959 8.27849C54.1179 8.27849 54.1179 8.27849 54.1179 8.35658C54.1179 8.59088 54.1959 8.90327 54.1959 9.13757C54.1959 9.29377 54.1959 9.44996 54.3519 9.44996C54.6639 9.52806 54.8199 9.13757 54.8199 8.98137C54.9759 8.59088 54.9759 8.04419 54.8979 7.5756Z" fill="#4A1616"/>
<path d="M67.5338 64.4313C67.5338 64.4313 67.4558 62.9475 66.9878 61.6198C66.9098 61.4636 66.7538 61.3855 66.5978 61.5417C66.1298 61.9322 65.8958 62.4789 61.4498 63.2598C49.2818 65.3685 42.7298 62.7132 42.6518 62.7132C42.4958 62.6351 42.5738 62.7132 42.4958 62.9475C42.2618 63.9627 42.1058 65.6809 42.0278 66.6962C41.7938 69.1953 40.8578 70.0544 40.3118 74.1155C39.3758 80.7539 38.7518 87.3923 39.0638 91.6096C39.0638 91.922 48.2678 92.3125 53.2598 91.5315C53.4158 91.5315 53.4938 91.3753 53.4938 91.2191C53.5718 91.2191 53.5718 91.141 53.5718 91.0629C54.0398 89.0323 54.6638 86.6113 54.8978 84.5807C55.0538 85.2836 55.2098 85.9084 55.3658 86.6113C55.6778 87.8609 55.9898 89.1885 56.4578 90.4381C56.6918 91.141 56.8478 91.2972 56.9258 91.2972C59.4998 91.4534 70.4198 91.2191 70.4198 90.9067C70.4978 90.7505 70.5758 90.0476 70.4978 89.8133C70.9658 80.6758 69.3278 68.961 67.5338 64.4313Z" fill="#5A78D1"/>
<path d="M38.5959 36.55C38.8299 36.8624 39.1419 37.0967 39.3759 37.4091C39.3759 37.4872 39.4539 37.4872 39.4539 37.5653C39.4539 37.5653 39.4539 37.5653 39.5319 37.6434C39.6099 37.7215 39.6099 37.7996 39.6879 37.7996C39.6879 37.7996 39.6879 37.8777 39.7659 37.8777C39.7659 37.8777 39.7659 37.7996 39.7659 37.8777C39.8439 38.0339 39.8439 38.112 39.9219 38.2682C39.9999 38.6587 40.1559 39.0491 40.2339 39.4396C40.3899 40.2206 40.5459 41.0016 40.7019 41.7826C40.8579 42.4074 41.0139 43.0322 41.2479 43.5789C41.5599 44.2036 41.9499 44.7503 42.3399 45.297C42.4179 45.3751 42.4959 45.4532 42.5739 45.5313C42.6519 45.6094 42.7299 45.6094 42.8079 45.5313C42.8859 45.4532 42.8859 45.3751 42.8079 45.297C42.3399 44.7503 41.9499 44.2036 41.6379 43.5789C41.6379 43.5008 41.5599 43.4227 41.5599 43.3446C41.5599 43.3446 41.5599 43.3446 41.5599 43.2665C41.5599 43.2665 41.5599 43.1884 41.4819 43.1884C41.4039 43.0322 41.4039 42.876 41.3259 42.7979C41.2479 42.4855 41.1699 42.1731 41.0919 41.8607C40.9359 41.0797 40.7799 40.3768 40.6239 39.5958C40.5459 39.2053 40.4679 38.8149 40.3119 38.4244C40.2339 38.1901 40.1559 37.9558 40.0779 37.7215C39.9999 37.5653 39.9219 37.4091 39.7659 37.331C39.5319 37.0967 39.3759 36.8624 39.1419 36.6281C39.0639 36.55 38.9859 36.4719 38.9079 36.3938C38.6739 36.1595 38.4399 36.3938 38.5959 36.55Z" fill="#BF483D"/>
<path d="M42.106 45.2189C42.106 47.64 42.496 50.061 43.12 52.404C43.432 53.5755 43.9 54.6688 43.822 55.9184C43.822 57.0118 43.51 58.0271 43.198 59.0424C42.886 60.1357 42.73 61.3072 42.886 62.4787C42.964 62.713 43.276 62.6349 43.198 62.4006C42.808 60.2919 43.978 58.2614 44.056 56.1527C44.134 55.0593 43.822 53.966 43.51 52.8726C43.198 51.7011 42.886 50.5296 42.652 49.3582C42.418 47.9524 42.34 46.6247 42.34 45.2189C42.496 44.9846 42.106 44.9846 42.106 45.2189Z" fill="#BF483D"/>
<path d="M60.0458 21.7896C58.6418 22.4143 57.2378 23.0391 55.7558 23.6639C55.3658 23.8201 55.0538 23.9763 54.6638 24.1325C54.5858 24.1325 54.5858 24.2106 54.5078 24.2106C54.4298 24.2106 54.5078 24.2106 54.5078 24.2106C54.4298 24.2106 54.4298 24.2106 54.3518 24.2887C54.2738 24.2887 54.1958 24.3668 54.1178 24.3668C53.6498 24.523 53.1818 24.6011 52.7138 24.7573C52.2458 24.8354 51.7778 24.9916 51.3098 25.0697C51.2318 25.0697 51.1538 25.2259 51.1538 25.304C51.1538 25.3821 51.3098 25.4602 51.3878 25.4602C52.2458 25.304 53.1818 25.0697 54.0398 24.8354C54.5858 24.6792 55.0538 24.4449 55.5998 24.2106C56.3018 23.8982 57.0038 23.5858 57.7058 23.2734C58.4858 22.8829 59.3438 22.5705 60.1238 22.18C60.2018 22.18 60.2018 22.0238 60.2018 21.9457C60.2798 21.7896 60.2018 21.7896 60.0458 21.7896Z" fill="#BF483D"/>
<path d="M43.198 25.9286C43.822 26.0067 44.446 26.0848 45.148 26.1629C45.694 26.1629 46.318 26.1629 46.864 26.1629C47.254 26.1629 47.644 26.0848 48.034 26.0067C48.112 26.0067 48.19 25.8505 48.19 25.7724C48.19 25.6943 48.034 25.6162 47.956 25.6162C47.332 25.6943 46.708 25.7724 46.084 25.7724C45.538 25.7724 44.914 25.7724 44.368 25.6943C43.978 25.6943 43.588 25.6162 43.276 25.5381C43.198 25.5381 43.12 25.6162 43.12 25.6943C43.042 25.9286 43.12 25.9286 43.198 25.9286Z" fill="#BF483D"/>
<path d="M52.3238 56.7777C52.2458 56.7777 52.3238 56.7777 52.3238 56.7777C52.3238 56.6996 52.3238 56.6996 52.3238 56.7777C52.4018 56.6996 52.4018 56.6996 52.4018 56.6996C52.4018 56.6996 52.4798 56.6996 52.4018 56.6996C52.4018 56.6996 52.4798 56.6996 52.4798 56.6215C52.4798 56.6215 52.5578 56.6215 52.4798 56.6215H52.5578C52.6358 56.6215 52.5578 56.6215 52.5578 56.6215C52.5578 56.6215 52.5578 56.6215 52.6358 56.6215C52.6358 56.6215 52.6358 56.6215 52.7138 56.6215C52.6358 56.6215 52.7138 56.6215 52.7138 56.6215C52.7138 56.6215 52.7138 56.6215 52.7918 56.6215C52.7918 56.6215 52.8698 56.6215 52.7918 56.6215C52.7918 56.6215 52.8698 56.6215 52.8698 56.6996C52.8698 56.6996 52.9478 56.6996 52.8698 56.6996L52.9478 56.7777C52.9478 56.7777 52.9478 56.7777 52.9478 56.8558C52.9478 56.8558 52.9478 56.8558 52.9478 56.9339V57.012C52.9478 57.012 52.9478 57.012 52.9478 57.0901C52.9478 57.1682 53.0258 57.2463 53.1038 57.2463C53.1818 57.2463 53.2598 57.1682 53.2598 57.0901C53.2598 56.7777 53.0258 56.3872 52.6358 56.3091C52.2458 56.231 51.9338 56.4653 51.7778 56.7777C51.7778 56.8558 51.7778 57.012 51.9338 57.012C52.1678 56.9339 52.2458 56.8558 52.3238 56.7777Z" fill="#BF483D"/>
<path d="M43.276 65.9151C44.758 66.2275 46.2399 66.4617 47.8 66.6179C49.2819 66.7741 50.842 66.8522 52.324 66.8522C53.806 66.8522 55.3659 66.7741 56.8479 66.696C58.3299 66.5398 59.89 66.3836 61.372 66.0713C62.854 65.7589 64.3359 65.4465 65.8179 65.056C65.9739 64.9779 66.208 64.9779 66.364 64.8998C66.598 64.8217 66.5199 64.5093 66.2859 64.5874C64.8819 65.056 63.4 65.3684 61.9179 65.6808C60.4359 65.9932 58.954 66.2275 57.472 66.3056C55.99 66.4617 54.5079 66.5398 52.9479 66.5398C51.4659 66.5398 49.9839 66.4617 48.4239 66.3056C46.9419 66.1494 45.4599 65.9151 43.9779 65.6808C43.8219 65.6808 43.588 65.6027 43.432 65.6027C43.12 65.5246 43.042 65.9151 43.276 65.9151Z" fill="#2B0808"/>
<path d="M50.842 75.5992C51.7 76.4583 52.48 77.3955 53.338 78.2546C53.65 78.645 54.04 79.0355 54.196 79.5041C54.43 80.0508 54.43 80.6756 54.586 81.2223C54.664 81.9252 54.82 82.6281 54.898 83.2529C54.898 83.331 55.054 83.4091 55.132 83.4091C55.21 83.4091 55.288 83.2529 55.288 83.1748C55.21 82.55 55.132 81.9252 54.976 81.3004C54.898 80.988 54.898 80.6756 54.82 80.3632C54.742 80.0508 54.742 79.8165 54.664 79.5041C54.508 78.9574 54.196 78.4889 53.806 78.0984C53.416 77.6298 53.026 77.2393 52.558 76.7707C52.09 76.224 51.622 75.7554 51.154 75.2087C51.076 75.1306 50.998 75.1306 50.92 75.2087C50.764 75.443 50.764 75.5211 50.842 75.5992Z" fill="#2B0808"/>
<path d="M54.898 9.13747C54.586 8.90317 54.352 9.05937 54.196 9.37176C54.196 10.3089 54.118 11.168 54.04 12.0271C54.508 12.2614 54.898 11.3242 55.054 11.0118C55.21 10.5432 55.366 9.52796 54.898 9.13747Z" fill="#FF9673"/>
<path d="M40.234 56.3871C40.702 57.4805 41.092 58.652 41.248 59.9016C41.326 60.2139 41.326 60.6044 41.326 60.9168C41.326 60.9949 41.404 61.073 41.482 61.073C41.56 61.073 41.638 60.9949 41.638 60.9168C41.56 59.6673 41.326 58.4177 40.858 57.2462C40.702 56.9338 40.624 56.5433 40.468 56.2309C40.39 56.1528 40.312 56.1528 40.234 56.1528C40.156 56.1528 40.156 56.2309 40.234 56.3871Z" fill="#BF483D"/>
<path d="M67.3 31.3175C65.974 32.0985 65.428 33.5824 65.194 34.9881C65.038 35.7691 64.882 36.472 64.726 37.253C64.57 37.9559 64.336 38.6588 64.102 39.2835C63.79 39.9864 63.4 40.6893 62.932 41.3141C62.854 41.3922 62.854 41.4703 62.932 41.5484C63.01 41.6265 63.088 41.6265 63.166 41.5484C64.102 40.455 64.648 39.0493 65.038 37.7216C65.194 37.0187 65.35 36.3158 65.506 35.5348C65.662 34.7538 65.818 34.051 66.13 33.3481C66.442 32.6452 66.91 32.0985 67.534 31.708C67.69 31.5518 67.534 31.2394 67.3 31.3175Z" fill="#BF483D"/>
<path d="M44.446 9.84033C44.446 9.84033 44.446 9.76223 44.446 9.84033C44.446 9.76223 44.368 9.68414 44.368 9.60604C44.212 9.21555 43.978 8.82505 43.51 9.13745C42.73 9.60604 43.042 10.9337 43.276 11.5585C43.51 12.0271 44.134 13.1205 44.758 12.4176C44.836 12.3395 44.836 12.2614 44.914 12.2614C44.68 11.4023 44.524 10.6213 44.446 9.84033Z" fill="#FF9673"/>
<path d="M78.9999 39.6741C78.9999 38.8151 78.6879 37.2531 78.2199 36.394C77.7519 35.613 77.2059 34.9882 76.3479 34.5977C71.1219 32.411 66.6759 30.3023 65.6619 28.8185C65.5839 28.6623 65.3499 28.7404 65.2719 28.8185C64.6479 29.0527 64.4919 29.8337 64.2579 30.3804C63.9459 31.2395 63.7119 32.0986 63.5559 32.9577C63.4779 33.0358 63.3999 33.1139 63.5559 33.192C63.5559 33.2701 63.6339 33.2701 63.7119 33.3482C65.9739 35.613 68.1579 37.8779 70.4979 40.0646C71.5119 41.0018 72.5259 42.0171 73.9299 42.3295C76.0359 42.8762 78.9999 42.3295 78.9999 39.6741Z" fill="#FF9673"/>
<path d="M55.2098 19.1342L55.1318 31.6299C55.1318 31.7861 55.2878 31.9423 55.4438 31.9423L62.3078 32.2547C62.4638 32.2547 62.6198 32.0985 62.6198 31.9423C62.6198 30.068 62.6978 21.0866 62.6978 19.2123C62.6978 19.0561 62.5418 18.8999 62.3858 18.8999L55.5218 18.8218C55.3658 18.8218 55.2098 18.978 55.2098 19.1342Z" fill="#4A1616"/>
<path d="M66.2859 29.443C66.2859 29.443 66.2859 29.3649 66.2079 29.3649C65.8959 28.9744 64.7259 27.4124 64.4919 26.9439C64.1019 26.3191 63.7119 25.6162 63.3219 24.9914C63.3219 24.9133 63.2439 24.9914 63.1659 24.9914C63.1659 25.3038 63.0879 25.6162 63.0879 25.8505C62.6199 25.3819 62.1519 24.9914 61.5279 24.679L61.4499 24.6009C60.2799 23.9761 59.1099 23.2732 57.8619 22.8046C57.1599 22.4922 55.5219 21.9456 54.8979 22.6484C54.1959 23.5075 55.7559 23.898 56.2239 24.1323C57.4719 24.6009 58.6419 25.1476 59.8119 25.8505L59.7339 25.9286C58.7979 25.5381 57.7059 25.0695 56.6919 25.2257C55.9899 25.3038 54.9759 25.9286 54.6639 26.6315C54.4299 27.2563 55.1319 27.5686 55.5999 27.3344C55.8339 27.2563 56.0679 27.022 56.3799 26.9439C56.7699 26.8658 57.1599 27.022 57.5499 27.1001C57.9399 27.1782 58.4079 27.3344 58.7979 27.4124C58.7979 27.4905 58.7199 27.5686 58.7199 27.6467C58.2519 27.6467 57.8619 27.5686 57.3939 27.5686C57.0039 27.5686 56.4579 27.4905 55.9899 27.6467C55.6779 27.8029 55.4439 28.1153 55.2099 28.3496C55.0539 28.5058 54.8199 28.7401 54.7419 29.0525C54.6639 29.5992 55.3659 29.6773 55.7559 29.5211C56.3799 29.2868 56.6919 28.8963 57.3939 29.0525C57.7059 29.1306 58.0179 29.2087 58.2519 29.2868C58.2519 29.3649 58.2519 29.443 58.2519 29.5992C57.8619 29.6773 57.5499 29.9116 57.0819 30.224C56.6919 30.5364 55.8339 31.005 55.8339 31.5517C55.8339 32.0203 56.3019 32.1765 56.6919 32.0203C57.0819 31.8641 57.3939 31.5517 57.8619 31.4736C58.1739 31.3955 58.7199 31.3955 59.0319 31.3955C60.9819 33.1917 64.1019 33.8165 64.1799 33.7384C64.4919 33.5041 64.6479 33.0355 64.8039 32.645C65.1159 32.0984 65.4279 31.6298 65.7399 31.1612C66.3639 30.7707 66.8319 29.9897 66.2859 29.443Z" fill="#FF9673"/>
<path d="M62.7759 24.6791C63.3219 25.2258 63.7899 25.8506 64.2579 26.4754C64.6479 27.1002 65.0379 27.8031 65.3499 28.5059C65.5059 28.8183 65.6619 29.1307 65.8179 29.5212C65.8959 29.5993 65.9739 29.5993 66.0519 29.5993C66.1299 29.5212 66.1299 29.4431 66.1299 29.365C65.8179 28.7402 65.5059 28.1155 65.1939 27.4907C64.8039 26.7878 64.4139 26.0849 63.9459 25.4601C63.6339 25.0696 63.3999 24.7572 63.0879 24.4448C62.8539 24.2886 62.6199 24.5229 62.7759 24.6791Z" fill="#BF483D"/>
<path d="M65.8178 29.5212C67.2218 30.6926 68.9378 31.2393 70.6538 31.8641C71.3558 32.1765 72.0578 32.4108 72.7598 32.7232C73.4618 33.0356 74.1638 33.348 74.7878 33.7385C75.4898 34.2071 76.1138 34.91 76.5038 35.6909C76.5818 35.9252 76.8938 35.6909 76.8158 35.5347C76.1918 34.129 74.8658 33.2699 73.5398 32.6451C71.9798 32.0203 70.4198 31.4736 68.9378 30.8488C67.9238 30.4583 66.9098 29.9897 66.1298 29.2869C65.8958 29.1307 65.6618 29.365 65.8178 29.5212Z" fill="#BF483D"/>
<path d="M70.7319 27.8813C70.9659 28.2718 71.1219 28.7403 71.3559 29.1308C71.4339 29.2089 71.5119 29.2089 71.5899 29.2089C71.6679 29.1308 71.6679 29.0527 71.6679 28.9746C71.4339 28.5842 71.2779 28.1156 71.0439 27.7251C70.9659 27.647 70.8879 27.647 70.8099 27.647C70.6539 27.647 70.6539 27.8032 70.7319 27.8813Z" fill="#BF483D"/>
<path d="M60.1239 32.3329C60.6699 32.8015 61.2939 33.1139 61.9179 33.3482C62.2299 33.5044 62.5419 33.5825 62.8539 33.6606C63.1659 33.7387 63.4779 33.8168 63.7899 33.9729C64.1019 34.1291 64.3359 34.2853 64.5699 34.5196C64.8039 34.7539 65.0379 35.0663 65.2719 35.3006C65.7399 35.8473 66.2859 36.3159 66.7539 36.7845C67.3779 37.3312 68.0019 37.8779 68.6259 38.3465C68.7039 38.4246 68.8599 38.3465 68.8599 38.2684C68.9379 38.1903 68.8599 38.1122 68.7819 38.0341C67.6899 37.175 66.5979 36.2378 65.6619 35.1444C65.4279 34.9101 65.1939 34.5977 64.9599 34.3634C64.7259 34.1291 64.4919 33.8949 64.1799 33.7387C63.5559 33.4263 62.9319 33.3482 62.3079 33.1139C61.6059 32.8796 60.9039 32.4891 60.3579 32.0205C60.2799 31.9424 60.2019 31.9424 60.1239 32.0205C60.0459 32.0986 60.0459 32.2548 60.1239 32.3329Z" fill="#BF483D"/>
<path d="M55.2099 22.4143C54.8979 22.5705 54.7419 22.8048 54.7419 23.1172C54.7419 23.4296 54.8979 23.742 55.1319 23.8982C55.2099 23.9763 55.3659 23.8982 55.3659 23.8201C55.4439 23.742 55.3659 23.6639 55.2879 23.5858L55.2099 23.5077C55.2099 23.5077 55.2099 23.4296 55.1319 23.4296C55.1319 23.3515 55.1319 23.4296 55.1319 23.4296V23.3515C55.1319 23.2734 55.1319 23.3515 55.1319 23.3515C55.1319 23.3515 55.1319 23.3515 55.1319 23.2734V23.1953C55.1319 23.1953 55.1319 23.1953 55.1319 23.1172V23.0391C55.1319 23.0391 55.1319 22.961 55.2099 22.961L55.2879 22.8829C55.2879 22.8829 55.3659 22.8829 55.3659 22.8048C55.4439 22.7267 55.4439 22.6486 55.4439 22.5705C55.4439 22.4143 55.2879 22.4143 55.2099 22.4143Z" fill="#BF483D"/>
<path d="M54.8979 26.3192C54.7419 26.4754 54.5859 26.7097 54.5859 26.944C54.5859 27.1783 54.5859 27.4126 54.8199 27.4907C54.8979 27.5688 55.0539 27.6469 55.2099 27.6469C55.2879 27.6469 55.3659 27.5688 55.3659 27.4907C55.3659 27.4126 55.2879 27.3345 55.2099 27.3345C55.2099 27.3345 55.2099 27.3345 55.1319 27.3345H55.0539V27.2564V27.1783V27.1002V27.0221C55.0539 27.0221 55.0539 27.0221 55.0539 26.944C55.0539 26.944 55.0539 26.8659 55.1319 26.8659C55.1319 26.8659 55.1319 26.8659 55.1319 26.7878L55.2099 26.7097C55.2879 26.6316 55.2879 26.5535 55.2099 26.4754C55.0539 26.3192 54.9759 26.2411 54.8979 26.3192Z" fill="#BF483D"/>
<path d="M54.7418 29.2087C54.7418 29.2868 54.6638 29.3649 54.6638 29.3649V29.443C54.6638 29.443 54.6638 29.443 54.6638 29.5211C54.6638 29.5992 54.7418 29.5992 54.7418 29.6773C54.8198 29.7554 54.8198 29.7554 54.8978 29.7554C54.9758 29.7554 54.9758 29.7554 55.0538 29.7554L55.1318 29.6773C55.1318 29.5992 55.1318 29.5992 55.1318 29.5211L55.0538 29.443C55.0538 29.443 55.0538 29.443 55.1318 29.443C55.1318 29.443 55.1318 29.443 55.0538 29.443C55.0538 29.443 55.0538 29.443 55.0538 29.3649C55.0538 29.3649 55.0538 29.3649 55.0538 29.443V29.3649C55.0538 29.3649 55.0538 29.3649 55.0538 29.443C55.0538 29.443 55.0538 29.443 55.0538 29.3649C55.0538 29.3649 55.0538 29.3649 55.0538 29.443C55.0538 29.443 55.0538 29.443 55.0538 29.3649C55.0538 29.3649 55.0538 29.3649 55.0538 29.443C55.0538 29.443 55.0538 29.3649 55.0538 29.2868C55.0538 29.2087 54.9758 29.2087 54.9758 29.2087C54.8978 29.2087 54.8978 29.2087 54.8198 29.2087H54.7418Z" fill="#BF483D"/>
<path d="M56.146 32.1765C56.38 32.4889 56.848 32.6451 57.16 32.4108L57.238 32.3327C57.238 32.2546 57.238 32.2546 57.238 32.1765C57.16 32.0984 57.082 32.0203 57.004 32.0984C57.004 32.0984 57.004 32.0984 56.926 32.0984C56.926 32.0984 56.926 32.0984 56.848 32.0984C56.848 32.0984 56.926 32.0984 56.848 32.0984C56.848 32.0984 56.848 32.0984 56.77 32.0984C56.77 32.0984 56.77 32.0984 56.692 32.0984C56.692 32.0984 56.692 32.0984 56.614 32.0984C56.614 32.0984 56.536 32.0984 56.614 32.0984H56.536C56.536 32.0984 56.536 32.0984 56.458 32.0984C56.38 32.0203 56.302 32.0203 56.224 32.0203C56.146 31.9422 56.146 32.0984 56.146 32.1765Z" fill="#BF483D"/>
<path d="M63.79 66.2275C63.868 67.2427 64.102 68.258 64.414 69.1952C64.726 70.1324 65.116 71.0696 65.662 71.9286C65.974 72.3972 66.286 72.8658 66.676 73.3344C66.754 73.4125 66.832 73.4125 66.91 73.3344C66.988 73.2563 66.988 73.1782 66.91 73.1001C66.286 72.3191 65.818 71.4601 65.35 70.601C64.96 69.7419 64.648 68.8047 64.414 67.7894C64.258 67.2427 64.18 66.696 64.18 66.1494C64.18 66.0713 64.102 65.9932 64.024 65.9932C63.868 66.0713 63.79 66.1494 63.79 66.2275Z" fill="#2B0808"/>
<path d="M44.2899 66.8523C43.8999 67.8676 43.6659 68.961 43.3539 69.9762C43.1199 70.8353 42.7299 71.6944 42.1839 72.3973C41.8719 72.7878 41.4819 73.1002 41.0919 73.3345C41.0139 73.4126 41.0139 73.4907 41.0139 73.5688C41.0919 73.6469 41.1699 73.6469 41.2479 73.6469C42.1059 73.2564 42.6519 72.4754 43.1199 71.6944C43.5879 70.7572 43.8219 69.7419 44.0559 68.8048C44.2119 68.18 44.3679 67.6333 44.6019 67.0085C44.6019 66.9304 44.6019 66.7742 44.4459 66.7742C44.4459 66.6961 44.3679 66.6961 44.2899 66.8523Z" fill="#2B0808"/>
<path d="M46.6299 20.696C46.7859 21.1646 46.8639 21.6332 46.9419 22.1018C47.0199 22.5704 47.0979 23.0389 47.1759 23.5075C47.1759 23.7418 47.1759 24.0542 47.0979 24.2885C47.0199 24.5228 47.4099 24.6009 47.4099 24.3666C47.5659 23.898 47.4879 23.3513 47.4099 22.8828C47.3319 22.4142 47.2539 21.8675 47.0979 21.3989C47.0199 21.0865 46.9419 20.8522 46.8639 20.5398C46.9419 20.3836 46.6299 20.5398 46.6299 20.696Z" fill="#BF483D"/>
<path d="M51.8558 44.8285C52.4018 45.5314 52.7918 46.3905 53.2598 47.1715C53.6498 47.8744 54.1178 48.5773 54.7418 49.124C55.1318 49.4364 55.5218 49.6706 55.9118 49.7487C56.1458 49.8268 56.2238 49.4363 55.9898 49.4363C55.2098 49.2021 54.6638 48.6554 54.1958 48.1087C53.6498 47.4058 53.3378 46.6248 52.8698 45.9219C52.6358 45.4533 52.3238 45.0628 52.0118 44.6723C51.9338 44.5942 51.8558 44.5942 51.7778 44.6723C51.7778 44.6723 51.7778 44.7504 51.8558 44.8285Z" fill="#BF483D"/>
<path d="M52.324 10.5432C52.324 9.84029 51.544 9.76219 51.388 10.4651C51.232 11.0899 51.544 11.6366 52.012 11.3242C52.246 11.0899 52.324 10.7775 52.324 10.5432Z" fill="#2B0808"/>
<path d="M47.02 10.3872C47.02 9.68429 47.8 9.60619 47.956 10.3091C48.112 10.9339 47.722 11.4806 47.332 11.1682C47.098 11.012 47.02 10.6996 47.02 10.3872Z" fill="#2B0808"/>
<path d="M50.1399 11.09C50.2179 11.3243 50.3739 11.5586 50.3739 11.7929C50.3739 12.0271 50.2179 12.1052 50.0619 12.2614C49.8279 12.3395 50.0619 12.6519 50.2179 12.5738C50.4519 12.4176 50.6859 12.1833 50.7639 11.871C50.8419 11.5586 50.6859 11.1681 50.5299 10.9338C50.2959 10.6995 49.9839 10.8557 50.1399 11.09Z" fill="#BF483D"/>
<path d="M49.4378 12.0271C49.3598 11.949 49.2818 11.949 49.1258 11.949C49.0478 11.949 49.0478 11.949 48.9698 11.949C48.8918 11.949 48.8918 11.949 48.8138 12.0271L48.7358 12.1052C48.7358 12.1833 48.7358 12.1833 48.7358 12.2614L48.8138 12.3395C48.8138 12.3395 48.8138 12.3395 48.8918 12.3395H48.9698C48.9698 12.3395 48.9698 12.3395 48.8918 12.3395C48.8918 12.3395 48.9698 12.3395 49.0478 12.3395C49.0478 12.3395 49.0478 12.3395 48.9698 12.3395C49.0478 12.3395 49.0478 12.3395 49.1258 12.3395C49.1258 12.3395 49.1258 12.3395 49.0478 12.3395C49.1258 12.3395 49.1258 12.3395 49.2038 12.3395C49.2038 12.3395 49.2038 12.3395 49.1258 12.3395C49.1258 12.3395 49.1258 12.3395 49.2038 12.3395C49.2818 12.3395 49.2818 12.3395 49.3598 12.3395C49.4378 12.3395 49.4378 12.2614 49.4378 12.2614C49.5938 12.1833 49.5158 12.0271 49.4378 12.0271Z" fill="#BF483D"/>
<path d="M52.1678 8.51282C51.6998 8.43472 51.3098 8.59092 50.9978 8.90331C50.7638 9.21571 50.7638 9.6843 51.1538 9.7624C51.3098 9.7624 51.4658 9.6843 51.6218 9.6843C51.8558 9.6843 52.0118 9.6843 52.2458 9.7624C52.4798 9.7624 52.7918 9.91859 53.0258 9.7624C53.3378 9.6062 53.2598 9.13761 53.0258 8.98141C52.8698 8.66902 52.5578 8.59092 52.1678 8.51282Z" fill="#4A1616"/>
<path d="M46.3179 8.74706C46.0839 8.98136 45.9279 9.37185 46.3179 9.60615C46.5519 9.76234 46.8639 9.68425 47.1759 9.60615C47.4099 9.60615 47.6439 9.52805 47.7999 9.52805C47.9559 9.52805 48.1119 9.68425 48.3459 9.60615C48.8139 9.60615 48.8139 9.05946 48.5799 8.74706C48.3459 8.43467 47.8779 8.27847 47.4099 8.35657C46.8639 8.43467 46.5519 8.59087 46.3179 8.74706Z" fill="#4A1616"/>
<path d="M51.154 13.1987C51.154 13.1206 51.076 13.1206 50.998 13.1206C50.452 13.2768 49.906 13.3549 49.36 13.3549C48.97 13.3549 48.58 13.1987 48.268 13.2768C47.8 13.433 48.268 13.7454 48.892 13.9016C49.594 14.1359 50.452 13.9797 50.998 13.5111C51.154 13.433 51.31 13.2768 51.154 13.1987Z" fill="#BF483D"/>
<path d="M56.536 5.85741C56.614 5.38882 56.536 4.92023 56.302 4.52973C55.912 3.67065 54.976 2.81157 53.962 2.96776C54.118 2.26488 53.962 1.64009 53.182 1.2496C52.558 0.937203 51.856 0.781006 51.154 1.0153C49.594 -0.546668 47.332 0.624809 46.786 2.42107C46.24 3.43635 45.85 4.60783 46.474 5.70121C47.02 6.63839 47.956 6.71649 48.892 6.4041C48.814 6.95079 48.892 7.49748 49.282 7.88797C49.75 8.43466 50.53 8.59085 51.232 8.51275C51.7 8.43466 52.168 8.20036 52.636 8.20036C53.338 8.12226 53.494 8.66895 53.962 8.98135C54.43 9.29374 55.054 9.13754 55.444 8.74705C55.912 8.59085 56.302 8.35656 56.458 8.04416C57.004 7.26318 56.926 6.48219 56.536 5.85741Z" fill="#4A1616"/>
<path d="M46.8639 1.32764C46.3179 1.56193 46.0059 2.18672 46.1619 2.73341C46.1619 2.81151 46.1619 2.81151 46.1619 2.88961C46.1619 2.9677 46.0839 2.9677 46.0059 3.0458C45.8499 3.1239 45.7719 3.2801 45.6939 3.3582C45.4599 3.59249 45.3819 3.90489 45.4599 4.29538C45.5379 4.60777 45.8499 4.92017 46.0839 5.07636C46.1619 5.15446 46.2399 5.15446 46.3179 5.07636C46.3959 4.99827 46.3959 4.92017 46.3179 4.84207C46.0839 4.68587 45.8499 4.52967 45.7719 4.29538C45.6939 4.06108 45.7719 3.82679 45.9279 3.59249C46.0059 3.51439 46.0839 3.3582 46.2399 3.2801C46.3179 3.202 46.4739 3.0458 46.4739 2.9677C46.4739 2.88961 46.4739 2.81151 46.4739 2.73341V2.65531C46.4739 2.65531 46.4739 2.65531 46.4739 2.57721C46.4739 2.57721 46.4739 2.49911 46.4739 2.57721C46.4739 2.42102 46.4739 2.34292 46.4739 2.26482C46.5519 2.03052 46.7079 1.79623 46.9419 1.71813C47.0199 1.71813 47.0979 1.56193 47.0979 1.48383C47.0199 1.40574 46.9419 1.32764 46.8639 1.32764Z" fill="#2B0808"/>
<path d="M50.2959 2.88958C50.7639 2.73338 51.3879 2.73338 51.7779 3.04577C52.2459 3.35817 52.4799 3.90486 52.4799 4.37345C52.4799 4.52964 52.4799 4.60774 52.4799 4.76394C52.4799 4.84204 52.4799 4.92014 52.4799 4.99824C52.4799 5.07633 52.5579 5.15443 52.6359 5.15443C52.7919 5.23253 52.8699 5.15443 53.0259 5.23253C53.1819 5.23253 53.2599 5.23253 53.4159 5.31063C53.6499 5.38873 53.8839 5.46683 54.1179 5.62302C54.2739 5.77922 54.4299 5.93542 54.5079 6.16971C54.5079 6.24781 54.5079 6.32591 54.5859 6.32591C54.5859 6.32591 54.5859 6.32591 54.5859 6.40401C54.5859 6.40401 54.5859 6.48211 54.5859 6.40401V6.48211C54.5859 6.6383 54.5859 6.7164 54.5859 6.8726C54.5859 7.0288 54.5079 7.10689 54.4299 7.18499C54.3519 7.26309 54.2739 7.34119 54.1959 7.41929C53.9619 7.49739 54.1959 7.80978 54.3519 7.73168C54.8199 7.41929 54.9759 6.8726 54.8979 6.40401C54.8199 5.85732 54.4299 5.38873 53.8839 5.15443C53.5719 4.99824 53.3379 4.92014 53.0259 4.92014C52.9479 4.92014 52.8699 4.92014 52.7919 4.92014C52.7139 4.92014 52.7919 4.92014 52.7919 4.92014V4.76394C52.7919 4.68584 52.7919 4.60774 52.7919 4.52964C52.7919 3.90486 52.5579 3.35817 52.0899 2.96768C51.5439 2.49908 50.7639 2.42099 50.1399 2.65528C50.0619 2.65528 49.9839 2.81148 49.9839 2.88958C50.0619 2.88958 50.2179 2.96768 50.2959 2.88958Z" fill="#2B0808"/>
<path d="M53.494 4.99832C53.884 4.76402 54.352 4.84212 54.742 5.07642C54.82 5.15452 54.898 5.15452 54.976 5.07642C55.054 4.99832 55.054 4.92022 54.976 4.84212C54.508 4.45163 53.884 4.37353 53.338 4.68593C53.104 4.84212 53.338 5.15452 53.494 4.99832Z" fill="#2B0808"/>
<path d="M43.51 6.32607C43.822 6.48226 44.134 6.48226 44.446 6.40416C44.524 6.40416 44.602 6.24797 44.602 6.16987C44.602 6.09177 44.446 6.01367 44.368 6.01367C44.29 6.01367 44.212 6.01367 44.212 6.09177C44.212 6.09177 44.212 6.09177 44.134 6.09177H44.056C44.056 6.09177 44.056 6.09177 43.978 6.09177C43.978 6.09177 43.978 6.09177 43.9 6.09177C43.9 6.09177 43.9 6.09177 43.822 6.09177H43.744C43.666 6.09177 43.51 6.09177 43.51 6.16987C43.354 6.16987 43.432 6.24797 43.51 6.32607Z" fill="#2B0808"/>
<path d="M43.666 10.1529C43.822 10.6215 43.9 11.0901 44.056 11.4806C44.134 11.7149 44.446 11.6368 44.368 11.4025C44.212 10.9339 44.134 10.4653 43.978 10.0748C43.9 9.84052 43.588 9.91862 43.666 10.1529Z" fill="#BF483D"/>
<path d="M54.3518 9.99653C54.3518 10.387 54.2738 10.7775 54.1958 11.168C54.1958 11.2461 54.1958 11.3242 54.3518 11.4023C54.4298 11.4023 54.5858 11.4023 54.5858 11.2461C54.6638 10.8556 54.7418 10.387 54.7418 9.99653C54.7418 9.91843 54.6638 9.84033 54.5858 9.84033C54.4298 9.84033 54.3518 9.91843 54.3518 9.99653Z" fill="#BF483D"/>
<path d="M39.2199 73.3345C37.8939 72.4754 36.2559 72.3973 34.8519 73.1002C34.7739 72.944 34.5399 72.8659 34.3839 73.0221C32.9019 76.2241 31.8099 79.3481 31.4979 83.253C31.4199 84.1121 30.9519 89.0323 32.2779 89.3447C33.0579 89.5009 33.1359 87.7827 33.1359 87.0017C33.2139 87.3141 33.2919 87.6265 33.3699 87.8608C33.6039 88.5637 34.3059 89.7352 35.2419 89.2666C36.0219 88.8761 35.7879 87.8608 35.4759 87.236C35.2419 86.8455 35.0859 86.455 35.0079 86.0645C35.2419 86.455 35.5539 86.8455 36.0219 86.9236C36.5679 87.0798 36.9579 86.3769 37.1139 85.9083C37.2699 85.5178 37.3479 85.1273 37.2699 84.7369C37.9719 83.7997 38.4399 82.6282 37.8939 81.4567C37.8159 81.3005 37.7379 81.1443 37.6599 81.0662C38.5179 79.4262 38.5959 77.5518 38.6739 75.6774C38.6739 75.5993 38.6739 75.5993 38.6739 75.5212C38.9859 74.8183 39.2979 74.1936 39.6879 73.4907C39.7659 73.3345 39.3759 73.1002 39.2199 73.3345Z" fill="#FF9673"/>
<path d="M36.8018 76.849C36.7238 77.7081 36.7238 78.7233 36.0218 79.3481C35.8658 79.5043 35.6318 79.6605 35.4758 79.8167C35.3198 79.9729 35.1638 80.2072 35.0078 80.4415C34.7738 80.9101 34.6958 81.4568 34.6178 82.0035C34.5398 82.5502 34.4618 83.0188 34.3058 83.5654C34.2278 83.7997 34.1498 84.034 34.0718 84.2683C33.9938 84.5026 33.9158 84.6588 33.7598 84.815C33.6818 84.8931 33.6038 84.9712 33.5258 84.9712H33.4478H33.3698C33.2918 84.9712 33.2918 84.9712 33.2138 84.9712C33.1358 84.9712 33.1358 84.9712 33.1358 84.9712C33.1358 84.9712 33.0578 84.9712 33.1358 84.9712C33.1358 84.9712 33.1358 84.9712 33.0578 84.8931C33.0578 84.8931 32.9798 84.815 32.9798 84.7369V84.6588C32.9798 84.5807 32.9798 84.5807 32.9798 84.5026C32.9798 84.4245 32.9798 84.3464 32.9798 84.2683C32.9798 84.034 32.9798 83.7216 32.9798 83.4873C32.9798 82.394 33.1358 81.3006 33.4478 80.2072C33.4478 80.051 33.5258 79.9729 33.5258 79.8167C33.6038 79.5824 33.2138 79.5043 33.2138 79.7386C32.9018 80.832 32.6678 82.0035 32.5898 83.1749C32.5898 83.4873 32.5898 83.7216 32.5898 84.034C32.5898 84.2683 32.5898 84.5026 32.6678 84.6588C32.7458 84.815 32.8238 85.0493 32.9798 85.2055C33.1358 85.3617 33.3698 85.4398 33.6038 85.3617C33.8378 85.2836 33.9938 85.1274 34.1498 84.9712C34.3058 84.7369 34.4618 84.5026 34.5398 84.2683C34.7738 83.7997 34.8518 83.253 34.9298 82.7064C35.0078 82.1597 35.0858 81.613 35.2418 81.0663C35.3198 80.832 35.3978 80.5977 35.5538 80.3634C35.7098 80.1291 35.8658 79.9729 36.0998 79.8167C36.3338 79.6605 36.4898 79.5043 36.6458 79.27C36.8018 79.1138 36.8798 78.8795 36.9578 78.6452C37.1138 78.1766 37.1918 77.7081 37.1918 77.2395C37.1918 77.1614 37.1918 77.0052 37.1918 76.9271C37.1918 76.849 37.1138 76.7709 37.0358 76.7709C36.8798 76.6928 36.8798 76.7709 36.8018 76.849Z" fill="#BF483D"/>
<path d="M33.0579 85.0492C32.9019 85.674 32.8239 86.2988 32.9019 86.9235C32.9019 87.0016 32.9799 87.0797 33.0579 87.0797C33.1359 87.0797 33.2139 87.0016 33.2139 86.9235C33.1359 86.2988 33.1359 85.7521 33.2919 85.1273C33.4479 84.893 33.1359 84.8149 33.0579 85.0492Z" fill="#BF483D"/>
<path d="M35.008 82.6281C34.696 83.4872 34.462 84.4244 34.54 85.3616C34.54 85.5959 34.618 85.9083 34.774 86.1426C34.774 86.2207 34.93 86.2207 35.008 86.2207C35.086 86.1426 35.086 86.0645 35.086 85.9864C34.618 84.9711 35.008 83.7996 35.32 82.7062C35.32 82.6281 35.32 82.55 35.164 82.4719C35.086 82.4719 35.008 82.55 35.008 82.6281Z" fill="#BF483D"/>
<path d="M37.1138 83.8777C37.0358 83.5654 37.0358 83.253 36.8018 83.0187C36.6458 82.7844 36.3338 82.6282 36.0998 82.6282C35.4758 82.7063 35.1638 83.3311 35.1638 83.9558C35.1638 84.3463 35.2418 84.6587 35.3978 85.0492C35.4758 85.2835 35.7878 85.2054 35.7098 84.9711C35.5538 84.5025 35.3978 83.9558 35.6318 83.4873C35.7098 83.3311 35.8658 83.0968 36.0218 83.0968C36.2558 83.0187 36.4118 83.0968 36.4898 83.253C36.6458 83.4873 36.7238 83.7215 36.7238 84.0339C36.7238 84.112 36.8798 84.1901 36.9578 84.1901C37.1138 84.0339 37.1138 83.9558 37.1138 83.8777Z" fill="#BF483D"/>
<path d="M37.4259 80.988C37.2699 80.8318 36.9579 80.8318 36.7239 80.9099C36.4899 80.988 36.3339 81.2223 36.1779 81.4566C35.9439 81.9252 35.9439 82.55 36.0999 83.0186C36.1779 83.2529 36.4899 83.1748 36.4119 82.9405C36.2559 82.55 36.2559 82.0814 36.4119 81.6909C36.4899 81.5347 36.5679 81.3785 36.7239 81.3004C36.8799 81.2223 37.0359 81.2223 37.1139 81.3004C37.1919 81.3785 37.3479 81.3004 37.3479 81.2223C37.5039 81.1442 37.5039 81.0661 37.4259 80.988Z" fill="#BF483D"/>
<path d="M60.748 26.5535C60.826 26.6316 60.904 26.6316 60.982 26.7097C60.982 26.7097 60.982 26.7097 61.06 26.7097L61.138 26.7878C61.216 26.8659 61.294 26.9439 61.294 26.9439C61.294 26.9439 61.294 26.9439 61.294 27.022L61.372 27.1001C61.45 27.1782 61.528 27.2563 61.606 27.1782C61.684 27.1001 61.762 27.022 61.684 26.9439C61.45 26.6316 61.216 26.3192 60.826 26.163C60.748 26.0849 60.592 26.163 60.592 26.2411C60.67 26.3973 60.67 26.5535 60.748 26.5535Z" fill="#BF483D"/>
<path d="M65.974 54.3566C65.428 55.7623 64.96 57.09 64.414 58.4958C64.336 58.7301 64.648 58.8082 64.726 58.5739C65.272 57.1681 65.74 55.8404 66.286 54.4347C66.442 54.2004 66.052 54.1223 65.974 54.3566Z" fill="#BF483D"/>
</svg>
