<svg width="100" height="82" viewBox="0 0 100 82" fill="none" xmlns="http://www.w3.org/2000/svg">
<path d="M23.6199 76.0698C23.5566 76.0216 23.4856 75.9844 23.4099 75.9598C22.3082 73.6219 20.3815 71.7735 17.9999 70.7698C17.4316 70.4953 16.8037 70.3671 16.1733 70.3968C15.5429 70.4265 14.9299 70.6131 14.3899 70.9398C13.9119 71.2555 13.5723 71.7416 13.4404 72.2991C13.3084 72.8565 13.3941 73.4433 13.6799 73.9398C14.3999 75.2698 15.8999 75.5798 17.2399 75.9398C19.1397 76.4874 20.8858 77.47 22.3399 78.8098C22.9699 79.3198 23.9399 79.7398 24.6099 78.9998C25.4299 77.9998 24.3399 76.6698 23.6199 76.0698Z" fill="#DEAD90"/>
<path d="M25.0003 74.4702C24.7361 73.5557 24.3563 72.6787 23.8703 71.8602C22.8574 68.3526 21.5736 64.9289 20.0303 61.6202C19.3803 60.2302 18.7303 58.2102 17.2503 57.4902C15.9503 56.8402 14.8303 57.5802 14.2503 58.8002C13.7014 60.1793 13.4523 61.6594 13.5195 63.1422C13.5868 64.625 13.9688 66.0765 14.6403 67.4002C16.2203 70.6102 19.5603 72.0802 21.7303 74.7902C22.3403 75.5502 23.6803 78.0902 24.8703 76.6602C25.0685 76.3333 25.1839 75.9629 25.2065 75.5813C25.2292 75.1997 25.1584 74.8183 25.0003 74.4702Z" fill="#DEAD90"/>
<path d="M97.5998 55.9298C95.4798 55.3198 92.9898 56.1698 91.0498 57.0098C89.0377 57.9175 87.1546 59.0877 85.4498 60.4898C85.6698 60.2198 85.8798 59.9398 86.0898 59.6598C86.8154 58.7131 87.4641 57.7099 88.0298 56.6598C88.8498 55.0698 89.2998 53.2998 90.2098 51.7598C91.8298 49.0398 94.5498 47.3198 96.6898 45.0898C98.3498 43.3798 100.22 40.8598 99.9798 38.2698C99.7398 35.6798 96.7098 35.6998 94.8698 36.2098C91.9998 37.0098 89.4398 39.1298 87.2798 41.1498C85.0925 43.2109 83.1405 45.5083 81.4598 47.9998C77.2598 54.1398 74.4598 61.1498 71.8398 68.1098H71.6398C71.3998 67.8098 70.8198 67.9198 70.9098 68.3798C71.0413 69.2443 71.3646 70.0684 71.856 70.7917C72.3475 71.515 72.9945 72.1191 73.7498 72.5598C73.7626 72.5711 73.7728 72.5849 73.7798 72.6004C73.7868 72.616 73.7904 72.6328 73.7904 72.6498C73.7904 72.6668 73.7868 72.6837 73.7798 72.6992C73.7728 72.7147 73.7626 72.7286 73.7498 72.7398L73.2598 73.3898C73.2401 73.4061 73.2153 73.415 73.1898 73.415C73.1642 73.415 73.1395 73.4061 73.1198 73.3898L72.7098 73.1998C72.6112 73.171 72.5056 73.1784 72.412 73.2207C72.3184 73.2629 72.243 73.3373 72.1995 73.4304C72.156 73.5234 72.1472 73.629 72.1748 73.7279C72.2024 73.8269 72.2644 73.9127 72.3498 73.9698L72.6898 74.1298C72.5798 74.2598 72.4798 74.3998 72.3798 74.5398C72.0598 74.9798 72.6898 75.5398 73.0098 75.0998L73.4298 74.5298C73.4514 74.5184 73.4754 74.5125 73.4998 74.5125C73.5242 74.5125 73.5482 74.5184 73.5698 74.5298C74.8543 75.0467 76.1978 75.4028 77.5698 75.5898C77.589 75.5901 77.6076 75.596 77.6236 75.6066C77.6396 75.6172 77.6521 75.6322 77.6598 75.6498C77.6999 75.7149 77.7547 75.7697 77.8198 75.8098C77.8503 75.8313 77.8717 75.8634 77.8798 75.8998C77.9398 76.3698 78.0198 76.8298 78.0898 77.2998C78.1598 77.7698 78.1998 78.4098 78.7798 78.6498C79.5028 78.7763 80.2358 78.8366 80.9698 78.8298C82.0298 79.0098 83.0598 79.3598 84.1398 79.4398C85.7119 79.5507 87.2773 79.1471 88.5998 78.2898C90.2198 77.2398 91.1098 75.3798 92.7298 74.2898C93.6363 73.7547 94.6325 73.3888 95.6698 73.2098C96.1416 73.1689 96.5957 73.0101 96.9903 72.7482C97.3848 72.4862 97.7074 72.1294 97.9283 71.7104C98.1492 71.2915 98.2615 70.8238 98.2547 70.3502C98.248 69.8766 98.1225 69.4123 97.8898 68.9998C97.3498 67.6798 95.9498 67.4298 94.7098 67.3498C92.7766 67.2472 90.841 67.5015 88.9998 68.0998C87.9219 68.4536 86.8723 68.8882 85.8598 69.3998C85.7498 69.4598 85.6298 69.3098 85.7198 69.1998C86.3839 68.3936 87.1503 67.6776 87.9998 67.0698C89.9374 65.8207 91.9403 64.6758 93.9998 63.6398C95.8598 62.5698 97.9998 61.1998 99.0698 59.2398C99.2659 58.9381 99.3835 58.5923 99.4119 58.2336C99.4404 57.8749 99.3788 57.5148 99.2328 57.186C99.0867 56.8572 98.8609 56.5701 98.5757 56.3507C98.2905 56.1313 97.9551 55.9866 97.5998 55.9298Z" fill="#DEAD90"/>
<path d="M18.39 41.0001C18.11 39.8701 11.64 40.3301 11.97 40.5801C11.51 42.4501 10.97 44.3701 10.52 46.2401C10.24 47.3801 9.83999 48.7901 10.52 49.8401C10.8295 50.2641 11.2372 50.6068 11.7081 50.8389C12.179 51.071 12.6992 51.1856 13.224 51.1728C13.7489 51.16 14.2628 51.0203 14.7219 50.7655C15.1809 50.5108 15.5714 50.1487 15.86 49.7101C16.6065 48.2056 17.1931 46.627 17.61 45.0001C17.94 43.8801 18.7 42.1801 18.39 41.0001Z" fill="#BF6950"/>
<path d="M53.6901 12.5799C53.4088 10.7527 52.6265 9.03929 51.4301 7.62992C50.202 6.4026 48.58 5.64827 46.8501 5.49992H46.8001C45.6825 5.34425 44.5435 5.47865 43.4928 5.89019C42.442 6.30173 41.5148 6.97659 40.8001 7.84992C39.4401 9.69992 39.0001 13.3199 39.1301 15.9399C41.1708 18.4036 43.6115 20.5063 46.3501 22.1599C47.9301 22.9599 49.5201 23.7399 51.1601 24.3899C53.1443 25.0666 55.0678 25.9096 56.9101 26.9099C56.9739 26.9492 57.0471 26.9706 57.122 26.9721C57.1969 26.9735 57.2708 26.9549 57.3361 26.9182C57.4013 26.8815 57.4556 26.828 57.4933 26.7632C57.5309 26.6985 57.5505 26.6248 57.5501 26.5499C58.0001 21.5499 54.8401 17.2699 53.6901 12.5799Z" fill="#913939"/>
<path d="M49.6607 73.9002C48.393 67.4311 46.7773 61.0352 44.8207 54.7402C44.7956 54.676 44.7619 54.6154 44.7207 54.5602L44.1107 50.4902C44.1379 50.3188 44.0985 50.1435 44.0007 50.0002C43.9608 49.9144 43.8998 49.8401 43.8234 49.7842C43.747 49.7283 43.6577 49.6928 43.5638 49.6808C43.4699 49.6688 43.3745 49.6808 43.2866 49.7157C43.1986 49.7505 43.1209 49.8071 43.0607 49.8802C36.354 50.6268 29.644 51.6235 22.9307 52.8702C22.3707 52.9702 23.1707 57.0902 23.4207 58.4702C23.4655 58.745 23.4655 59.0253 23.4207 59.3002C23.2007 61.7902 21.5207 69.3002 22.2407 77.4502C22.4207 79.4502 21.7007 80.5902 23.9407 80.7402C25.6786 80.9083 27.4251 80.9718 29.1707 80.9302C30.3307 80.8602 31.4807 80.7502 32.6407 80.6202L34.3607 80.4302C34.6725 80.4499 34.982 80.3655 35.2407 80.1902C35.3717 80.0278 35.4486 79.8285 35.4607 79.6202C35.5507 79.0802 35.5907 78.5302 35.6507 77.9902C35.7907 76.8102 35.9307 75.6402 36.0607 74.4602L36.1507 73.7102C37.0295 75.8412 38.0727 77.9008 39.2707 79.8702C41.0807 82.8702 48.1707 79.6102 49.7007 77.1402C50.3207 76.1902 49.8507 74.9002 49.6607 73.9002Z" fill="#FAE1D2"/>
<path d="M20.6298 39.6899C20.7498 37.1499 20.9298 34.5899 20.9698 32.0399C20.9698 30.1799 16.2998 25.6999 16.2198 25.7799C14.7147 27.3222 13.6331 29.227 13.0798 31.3099C12.1598 33.9399 10.2198 41.3099 10.4598 41.7899C11.0335 42.5507 11.7999 43.1444 12.6798 43.5099C14.7966 44.5442 17.124 45.0747 19.4798 45.0599C19.5998 45.0599 19.5498 44.6899 19.6698 44.5899C20.9398 43.5299 20.5598 41.1499 20.6298 39.6899Z" fill="#36593F"/>
<path d="M43.6999 40.1801C43.6099 39.8501 43.5299 39.5101 43.4599 39.1801C45.4599 37.3901 48.0199 35.3801 46.9599 32.4101C45.8908 29.6779 44.4939 27.0856 42.7999 24.6901C42.4515 23.9135 41.9398 23.2212 41.2995 22.6603C40.6593 22.0995 39.9056 21.6833 39.0899 21.4401C35.4835 19.9498 31.5499 19.4292 27.6799 19.9301C24.9503 20.3331 22.3308 21.2857 19.9799 22.7301C17.6778 24.0603 15.7243 25.9179 14.2799 28.1501C13.6699 29.2401 12.2799 33.1501 12.4999 33.4901C13.2848 34.5149 14.317 35.3235 15.4999 35.8401C16.3499 36.3401 17.2099 36.8401 18.0899 37.2601C18.2499 38.2401 18.4299 39.2201 18.6299 40.2001C18.7399 42.8401 18.9499 45.4801 19.2799 48.1101C19.6899 51.4101 20.0599 54.8701 21.6399 57.8401C21.8399 58.2301 31.0399 57.9201 35.0399 57.0101C38.9537 56.1674 42.5634 54.2727 45.4799 51.5301C46.7499 50.2701 46.2799 48.8601 45.8099 47.3001C45.0899 44.9401 44.3199 42.5801 43.6999 40.1801Z" fill="#36593F"/>
<path d="M27.1504 20.0899C27.1729 18.9493 26.9081 17.8213 26.3804 16.8099C26.3446 16.7358 26.2928 16.6705 26.2289 16.6186C26.1649 16.5668 26.0903 16.5296 26.0104 16.5099C25.9274 16.4152 25.8134 16.3531 25.6888 16.3347C25.5642 16.3164 25.4371 16.3431 25.3304 16.4099C22.9658 17.6947 20.7972 19.311 18.8904 21.2099C17.7615 22.2933 16.7308 23.4746 15.8104 24.7399C14.3488 26.9889 13.2551 29.4566 12.5704 32.0499C12.2104 33.2299 12.6304 33.6399 13.5704 34.2199C14.2004 34.5899 15.0504 35.2199 15.8204 34.9999C15.9974 35.0297 16.1788 35.02 16.3517 34.9716C16.5245 34.9232 16.6846 34.8373 16.8204 34.7199C17.149 34.3669 17.4161 33.9613 17.6104 33.5199C17.824 33.4852 18.0224 33.3878 18.1804 33.2399C18.2085 33.2483 18.2386 33.2469 18.2658 33.236C18.2931 33.2251 18.3158 33.2054 18.3304 33.1799C18.932 32.4302 19.2819 31.5099 19.3304 30.5499C19.2919 30.2089 19.2148 29.8734 19.1004 29.5499C18.8404 28.7299 18.6704 27.4699 19.2604 26.8399C21.5037 24.5214 24.0224 22.4862 26.7604 20.7799C27.1504 20.5199 27.3604 20.3499 27.1504 20.0899Z" fill="#EB8B65"/>
<path d="M29.1099 14.4501C29.1197 14.3893 29.1106 14.3269 29.0838 14.2714C29.0569 14.216 29.0137 14.1701 28.9599 14.1401C28.8199 13.9901 28.5499 13.9601 28.1899 14.4401C27.6446 15.1308 26.8548 15.5855 25.9837 15.7102C25.1127 15.8349 24.227 15.6201 23.5099 15.1101C23.2199 14.9101 23.0499 14.9301 22.9299 15.0001C22.891 15.0084 22.8541 15.0243 22.8215 15.047C22.7888 15.0696 22.761 15.0985 22.7396 15.132C22.7182 15.1655 22.7036 15.2029 22.6968 15.2421C22.69 15.2812 22.691 15.3214 22.6999 15.3601L23.4499 18.7901C23.7699 20.2201 24.3299 21.9201 23.0599 23.0501C23.0121 23.087 22.9799 23.1406 22.9699 23.2001C22.9309 23.2482 22.9096 23.3082 22.9096 23.3701C22.9096 23.432 22.9309 23.492 22.9699 23.5401C24.5899 25.9201 27.5599 25.7201 29.9099 24.6001C30.8099 24.1701 32.1199 23.5201 32.1799 22.3501C32.1799 21.7401 31.0199 21.6801 30.2899 20.0301C29.7637 18.2007 29.3694 16.3359 29.1099 14.4501Z" fill="#BF6950"/>
<path d="M32.2305 21.3001C32.2305 21.2501 31.4405 20.9501 31.4505 21.0301C31.5057 21.4352 31.4555 21.8477 31.3048 22.2278C31.1542 22.6078 30.9082 22.9427 30.5905 23.2001C29.8552 23.7887 28.9977 24.2055 28.0805 24.4201C27.2637 24.6425 26.4136 24.717 25.5705 24.6401C24.9515 24.6217 24.3565 24.3963 23.8805 24.0001C23.5365 23.6551 23.3303 23.1964 23.3005 22.7101C22.7491 23.2226 22.2499 23.7887 21.8105 24.4001C22.0077 25.329 22.3449 26.2225 22.8105 27.0501C23.8105 28.8101 26.0405 28.8101 27.8105 28.4701C28.6614 28.332 29.4725 28.0122 30.1886 27.5325C30.9047 27.0528 31.5091 26.4244 31.9605 25.6901C32.6505 24.5201 33.3305 22.4601 32.2305 21.3001Z" fill="#36593F"/>
<path d="M66.93 75.9999C66.8 74.2099 66.59 72.4299 66.33 70.6599C66.3244 70.5699 66.2919 70.4836 66.2366 70.4122C66.1813 70.3409 66.1058 70.2878 66.02 70.2599C64.7604 62.7098 62.9217 55.2679 60.52 47.9999C60.5011 47.93 60.467 47.8651 60.42 47.8099C60.37 47.3699 60.32 46.9299 60.26 46.4799C60.2437 45.8823 60.1077 45.2941 59.86 44.7499C59.21 43.7499 57.52 44.4599 56.59 44.6599C56.4845 44.6829 56.3876 44.7349 56.31 44.8099C52.4483 45.6906 48.5094 46.1896 44.55 46.2999C44.446 46.3038 44.3447 46.3338 44.2554 46.387C44.166 46.4403 44.0915 46.5153 44.0387 46.6049C43.9859 46.6946 43.9565 46.796 43.9533 46.9C43.95 47.004 43.973 47.1072 44.02 47.1999C44.042 48.0805 44.1188 48.9589 44.25 49.8299C44.2663 49.9336 44.3113 50.0306 44.38 50.1099C44.6 50.3399 43.65 53.0299 43.55 53.4399C43.2833 54.6066 43.0434 55.7866 42.83 56.9799C41.5671 64.8301 41.0515 72.7824 41.29 80.7299C41.2691 80.9273 41.3187 81.1257 41.43 81.2899C41.69 81.5899 49.9 80.2199 51.61 79.9599C51.7362 79.9257 51.8481 79.8518 51.9291 79.7492C52.0101 79.6466 52.056 79.5206 52.06 79.3899C52.2074 77.0338 52.5418 74.6931 53.06 72.3899C53.26 73.1599 53.45 73.9299 53.67 74.6899C54.0732 76.3484 54.622 77.968 55.31 79.5299C55.83 80.5299 56.64 80.6599 57.74 80.7099C59.5927 80.78 61.448 80.7098 63.29 80.4999C64.29 80.3999 66.04 80.4999 66.75 79.7699C67.46 79.0399 67 76.9199 66.93 75.9999Z" fill="#59242E"/>
<path d="M55.8807 49.4698C55.7707 48.7298 55.3007 47.2598 54.3407 47.1598C53.3807 47.0598 53.2407 48.2398 53.2107 48.9598C53.2006 48.9855 53.2006 49.0141 53.2107 49.0398C53.206 49.0863 53.206 49.1332 53.2107 49.1798C53.2125 49.204 53.2198 49.2276 53.232 49.2486C53.2443 49.2696 53.2612 49.2876 53.2815 49.3011C53.3017 49.3146 53.3248 49.3233 53.3489 49.3265C53.373 49.3298 53.3976 49.3274 53.4207 49.3198C53.7309 49.6006 54.1011 49.8069 54.5032 49.923C54.9052 50.0392 55.3285 50.062 55.7407 49.9898C55.8707 49.9998 55.8807 49.4698 55.8807 49.4698Z" fill="#36593F"/>
<path d="M53.1 21.4298C53.1081 21.3756 53.1002 21.3201 53.077 21.2703C53.0539 21.2205 53.0167 21.1786 52.97 21.1498C51.7583 20.2476 50.3435 19.657 48.85 19.4298C47.2108 19.3145 45.5662 19.5567 44.03 20.1398C42.52 20.6198 42.83 21.6898 42.92 23.1398C42.9277 23.2066 42.9556 23.2694 43 23.3198C43.9 25.6398 45.31 26.6498 47.87 26.0698C49.0666 25.8864 50.1896 25.3769 51.1157 24.5972C52.0419 23.8175 52.7353 22.7977 53.12 21.6498C53.1345 21.6142 53.1403 21.5757 53.1368 21.5374C53.1333 21.4991 53.1207 21.4622 53.1 21.4298Z" fill="#EB8B65"/>
<path d="M55.47 40.21C55.1 37.64 54.92 35.04 54.75 32.44C54.6851 30.159 54.5049 27.8828 54.2099 25.62C53.9999 24.21 53.1599 23 51.5999 23.25H51.5099C51.4468 23.2111 51.3741 23.1904 51.2999 23.1904C51.2258 23.1904 51.1531 23.2111 51.09 23.25C48.7 24.66 45.5999 25.58 43.3699 23.34C43.2959 23.269 43.1997 23.2254 43.0975 23.2165C42.9952 23.2077 42.893 23.234 42.8078 23.2912C42.7225 23.3484 42.6594 23.433 42.6289 23.531C42.5984 23.629 42.6023 23.7345 42.6399 23.83C42.1824 24.7782 41.9823 25.83 42.06 26.88C41.94 28.7 41.86 30.52 41.86 32.34C41.8121 35.9155 42.1474 39.4859 42.86 42.99C43.0464 44.5378 43.4856 46.0444 44.16 47.45C44.76 48.37 45.96 48.25 46.95 48.33C49.87 48.54 52.9499 48.33 55.1399 46.25C55.2166 46.2551 55.293 46.2355 55.3578 46.1942C55.4225 46.1528 55.4724 46.0917 55.5 46.02C56.4399 44.18 55.76 42.17 55.47 40.21Z" fill="#FAE1D2"/>
<path d="M46.1507 46.75C45.2207 42.15 44.4407 37.4299 43.9407 32.7499C43.4907 28.5099 43.3307 23.7499 45.5507 19.9799C45.8307 19.5099 45.6907 19.3599 45.0907 19.3199C42.9713 19.0986 40.8415 18.9918 38.7107 18.9999C38.6381 18.9999 38.5684 19.028 38.5161 19.0784C38.4639 19.1288 38.4332 19.1974 38.4307 19.27C38.4008 19.308 38.3802 19.3525 38.3707 19.3999C37.6207 23.5399 37.1607 24.5799 37.6707 28.7399C37.5292 34.3842 37.8234 40.031 38.5507 45.63C38.7807 47.3 39.0607 48.97 39.4107 50.63C39.6707 51.8899 39.7907 53.6299 40.5507 54.7099C41.4592 55.7853 42.7425 56.4752 44.1407 56.6399C44.9345 56.7978 45.7413 56.8815 46.5507 56.8899C46.9107 56.8899 48.3807 57.0999 48.3007 56.7299C47.5907 53.3899 46.8307 50.08 46.1507 46.75Z" fill="#FFC04F"/>
<path d="M38.6506 34.5102C38.3106 34.1802 37.8506 33.8802 37.6506 34.3202C37.6028 34.757 37.6196 35.1984 37.7006 35.6302C37.7006 36.0702 37.7006 36.5102 37.7706 36.9502C37.8706 38.6902 37.9906 40.4402 38.1606 42.1802C38.8468 41.624 39.4826 41.0083 40.0606 40.3402C40.8306 39.4602 42.8206 37.1502 42.0606 36.0302C41.6006 35.3702 41.3506 35.9102 40.6306 35.9502C40.3985 35.9853 40.1626 35.9853 39.9306 35.9502C39.4206 35.8402 39.2506 35.3502 39.0106 34.9502C38.9121 34.7872 38.7909 34.639 38.6506 34.5102Z" fill="white"/>
<path d="M42.3008 48.8502C42.2351 49.2314 42.2976 49.6237 42.4786 49.9657C42.6595 50.3076 42.9486 50.58 43.3008 50.7402C43.5008 50.8402 43.7408 50.8702 43.9408 50.9702C44.1928 51.0761 44.4182 51.2367 44.6008 51.4402C44.8247 51.769 44.9685 52.1458 45.0208 52.5402C45.1148 52.926 45.3002 53.2836 45.5612 53.583C45.8222 53.8823 46.1513 54.1145 46.5208 54.2602C46.9304 54.429 47.3678 54.5205 47.8108 54.5302C47.3608 52.4702 46.9008 50.4102 46.4708 48.3502C46.0692 48.1558 45.6413 48.0211 45.2008 47.9502C44.4608 47.8302 42.5908 47.8602 42.3008 48.8502Z" fill="white"/>
<path d="M39.7099 19.1701C39.7087 19.1546 39.7044 19.1396 39.697 19.126C39.6897 19.1124 39.6795 19.1004 39.6672 19.091C39.655 19.0816 39.6409 19.0748 39.6258 19.0712C39.6107 19.0676 39.5951 19.0672 39.5799 19.0701C39.5799 19.0701 40.8799 18.2501 40.8499 18.2401C37.7699 17.1101 33.3899 16.8501 29.9899 16.8901C29.961 16.8875 29.9321 16.8939 29.9071 16.9084C29.882 16.9229 29.8621 16.9449 29.85 16.9712C29.8379 16.9975 29.8343 17.0269 29.8397 17.0554C29.845 17.0838 29.8591 17.1099 29.8799 17.1301C29.8567 17.1142 29.8297 17.1047 29.8017 17.1025C29.7737 17.1004 29.7455 17.1056 29.7202 17.1178C29.6949 17.13 29.6732 17.1486 29.6573 17.1718C29.6414 17.1951 29.632 17.222 29.6299 17.2501C29.6723 18.6838 30.049 20.0877 30.7299 21.3501C31.3637 22.275 32.1056 23.121 32.9399 23.8701C34.6899 25.3901 35.9399 27.2001 37.7699 30.7201L38.9099 30.1201C38.9484 30.0873 38.9792 30.0463 38.9999 30.0001C39.1299 30.0801 39.2499 29.9001 39.1699 29.7801C39.2801 29.3322 39.3239 28.8706 39.2999 28.4101C39.3899 27.3301 39.4699 26.2401 39.5499 25.1601C39.8346 23.1763 39.8883 21.1662 39.7099 19.1701Z" fill="#FFC04F"/>
<path d="M34.7102 25.7199C35.0577 25.2326 35.287 24.6711 35.3802 24.0799C35.4271 23.818 35.4185 23.5492 35.355 23.2908C35.2914 23.0324 35.1743 22.7903 35.0112 22.5801C34.8481 22.3699 34.6427 22.1962 34.4082 22.0705C34.1738 21.9447 33.9155 21.8695 33.6502 21.8499C33.1802 21.7399 32.2602 21.7599 32.2602 21.0799C32.2842 20.8598 32.3277 20.6423 32.3902 20.4299C32.5402 19.6299 31.6002 19.6099 31.0402 19.7199C30.7376 19.7836 30.4515 19.9096 30.2002 20.0899C30.3702 20.5199 30.5502 20.9499 30.7302 21.3499C31.364 22.2748 32.1059 23.1208 32.9402 23.8699C33.5872 24.4294 34.1799 25.0488 34.7102 25.7199Z" fill="white"/>
<path d="M51.1307 20.14C50.4507 19.86 50.2307 18.66 50.0407 18.02C49.8507 17.38 49.7107 16.75 49.5807 16.11C49.5807 15.95 49.3507 15.98 49.3007 16.11C49.2778 16.0922 49.2497 16.0825 49.2207 16.0825C49.1917 16.0825 49.1635 16.0922 49.1407 16.11C48.2607 16.68 47.3807 17.26 46.4907 17.81C46.2561 17.9705 46.0046 18.1046 45.7407 18.21C45.2707 18.36 45.1007 18.21 44.6807 18.21C44.4707 18.21 44.4507 18.21 44.3007 18.33C44.281 18.352 44.2701 18.3805 44.2701 18.41C44.2701 18.4395 44.281 18.468 44.3007 18.49V18.59C44.3007 18.59 43.8107 18.66 43.8307 18.71L44.6607 21.11C45.0081 21.89 45.1821 22.7362 45.1707 23.59C45.1707 23.69 45.6807 23.74 45.7607 23.74C46.3607 24.74 48.0507 24.18 48.8907 23.74C49.5224 23.4596 50.0672 23.0147 50.4683 22.4518C50.8694 21.8889 51.1119 21.2287 51.1707 20.54C51.1773 20.5242 51.1807 20.5072 51.1807 20.49C51.1807 20.4729 51.1773 20.4559 51.1707 20.44C51.2005 20.4251 51.2249 20.4013 51.2405 20.3718C51.2561 20.3424 51.2622 20.3088 51.2578 20.2757C51.2534 20.2427 51.2387 20.2119 51.216 20.1875C51.1932 20.1632 51.1634 20.1466 51.1307 20.14Z" fill="#EB8B65"/>
<path d="M44.6398 24.5101C44.5101 23.5513 44.3298 22.6 44.0998 21.6601C43.9798 21.1901 43.9198 20.5901 43.3598 20.5201C41.9198 19.1301 39.5798 18.1201 37.7698 19.4201C37.4111 19.652 37.1361 19.9926 36.9849 20.392C36.8337 20.7915 36.8144 21.2289 36.9298 21.6401C37.0904 22.0789 37.357 22.471 37.706 22.7816C38.055 23.0922 38.4754 23.3116 38.9298 23.4201C38.9626 23.4314 38.9925 23.4499 39.0171 23.4743C39.0417 23.4988 39.0605 23.5284 39.072 23.5611C39.0836 23.5938 39.0876 23.6287 39.0837 23.6632C39.0799 23.6976 39.0683 23.7308 39.0498 23.7601C38.8276 24.161 38.736 24.6212 38.788 25.0766C38.84 25.532 39.0329 25.9597 39.3398 26.3001C39.8365 26.7977 40.4575 27.153 41.1382 27.3289C41.8189 27.5048 42.5343 27.4948 43.2098 27.3001C44.6198 27.0001 44.8098 25.8301 44.6398 24.5101Z" fill="white"/>
<path d="M44.8506 20.3502C43.9306 17.3502 44.5106 15.1402 44.2306 12.5902C44.2306 12.5302 43.6006 12.8602 43.5406 12.8702C43.1706 12.9702 42.0506 13.3002 41.9206 13.3102C40.5006 13.5102 40.2006 11.7802 40.1106 10.7602C40.1214 10.7311 40.1214 10.6992 40.1106 10.6702C40.1106 10.5102 39.8806 10.4502 39.8406 10.6202C39.2069 13.08 38.9873 15.6282 39.1906 18.1602C39.5498 21.9471 40.6399 25.6283 42.4006 29.0002C42.4819 29.1693 42.6007 29.3176 42.748 29.4337C42.8953 29.5498 43.0673 29.6307 43.2506 29.6702C43.8106 29.7702 44.3206 29.3202 44.8706 29.6702C45.1133 29.8648 45.367 30.0451 45.6306 30.2102C45.7968 30.2962 45.9878 30.3213 46.1705 30.2811C46.3531 30.2409 46.516 30.138 46.6306 29.9902C47.0706 29.3902 45.8506 22.6002 44.8506 20.3502Z" fill="#913939"/>
<path d="M50.0698 10.4402C50.0698 10.3302 49.9998 10.2202 49.9498 10.1102C49.7273 9.50807 49.4063 8.94709 48.9998 8.45024C48.6798 8.06024 47.7198 7.50024 47.7198 6.96024C47.2608 6.60892 46.721 6.37854 46.1498 6.29024C45.8611 6.25026 45.5684 6.25026 45.2798 6.29024C45.0079 6.39881 44.7267 6.48248 44.4398 6.54024C44.3332 6.50124 44.2163 6.50124 44.1098 6.54024L43.8398 6.69024C43.7486 6.67721 43.6559 6.6986 43.5798 6.75024C42.8131 7.25949 42.1905 7.95757 41.7719 8.77725C41.3533 9.59694 41.1528 10.5106 41.1898 11.4302C41.1006 12.4477 41.0805 13.4701 41.1298 14.4902C41.2098 17.3202 41.7098 18.8002 44.1298 19.2802C45.8898 19.6202 48.1298 19.1602 49.2598 17.7702C50.0698 16.7702 50.0598 15.2002 50.2598 13.9102C50.4541 12.7538 50.3892 11.5686 50.0698 10.4402Z" fill="#EB8B65"/>
<path d="M49.8304 11.25C49.7409 11.0628 49.6228 10.8908 49.4804 10.74C49.2351 10.4663 48.9095 10.2773 48.5503 10.2C48.191 10.1228 47.8164 10.1613 47.4804 10.31C46.8204 10.61 46.6904 11.59 47.4804 11.79C47.8504 11.88 48.2504 11.71 48.6304 11.79C49.0104 11.87 49.2204 12.19 49.5604 12.06C49.9004 11.93 50.0004 11.58 49.8304 11.25Z" fill="#913939"/>
<path d="M41.5204 10.87C41.6097 10.6798 41.7278 10.5044 41.8704 10.35C42.1198 10.0823 42.4464 9.89889 42.8049 9.82541C43.1633 9.75192 43.5358 9.79199 43.8704 9.94003C44.5404 10.25 44.6604 11.23 43.8704 11.42C43.4904 11.51 43.1004 11.34 42.7204 11.42C42.3404 11.5 42.1304 11.81 41.7804 11.69C41.4304 11.57 41.3704 11.2 41.5204 10.87Z" fill="#913939"/>
<path d="M49.4906 17.1498C49.017 17.9107 48.3397 18.5239 47.5356 18.9197C46.7314 19.3156 45.8325 19.4784 44.9406 19.3898C44.8206 19.3898 44.8206 19.5698 44.9406 19.5898C45.8655 19.6758 46.7962 19.5024 47.6281 19.0891C48.46 18.6758 49.1604 18.0388 49.6506 17.2498C49.7106 17.1398 49.5506 17.0398 49.4906 17.1498Z" fill="#C45547"/>
<path d="M68.2702 51.5202C67.9002 50.1902 67.5002 48.8602 67.0702 47.5202C66.5602 46.0002 66.0002 44.4002 65.4302 42.8502C65.3045 42.5046 65.2043 42.1504 65.1302 41.7902C64.4802 38.5202 63.7802 35.2502 63.0002 32.0002C62.5002 30.0002 62.1502 26.9102 60.5102 25.4802C58.1702 23.3902 51.5102 19.0202 51.2302 20.0402C49.5802 25.6802 50.6202 32.5702 51.4402 38.3702C51.9102 41.7502 52.3502 45.1402 53.0902 48.4802C53.4702 50.1802 54.9002 57.1402 56.2602 57.7102C57.3962 57.8936 58.5542 57.8936 59.6902 57.7102C61.9435 57.7079 64.1666 57.1915 66.1902 56.2002C67.1615 55.86 68.0198 55.2578 68.6702 54.4602C69.0902 53.6002 68.5102 52.3502 68.2702 51.5202Z" fill="#FFC04F"/>
<path d="M52.0005 29.2699C51.7173 29.3396 51.4472 29.4544 51.2005 29.6099C50.9447 29.7487 50.7035 29.9129 50.4805 30.0999C50.6805 32.9399 51.0905 35.7799 51.4805 38.3899V38.6399C53.8905 37.1299 55.9805 33.9299 53.7405 31.6399C53.4905 31.3699 53.1405 31.1999 53.0005 30.8399C52.8605 30.4799 53.0005 30.0699 52.8205 29.6899C52.7529 29.5363 52.6344 29.4107 52.4851 29.3342C52.3357 29.2577 52.1646 29.235 52.0005 29.2699Z" fill="white"/>
<path d="M60.0002 50.0801C59.9555 50.025 59.9312 49.9561 59.9312 49.8851C59.9312 49.8142 59.9555 49.7453 60.0002 49.6901C59.0002 48.2001 57.7002 46.8401 56.0002 46.6901C54.0002 46.5001 53.6202 48.3701 54.3902 49.9201C54.8402 50.7901 55.6502 51.0901 56.2102 51.8401C56.4302 52.1301 56.6402 52.3901 56.5202 52.7701C56.2702 53.5801 54.5202 53.4401 56.6002 54.9901C57.2295 55.3619 57.9661 55.5099 58.6902 55.4101C60.1702 55.3201 61.6902 54.5601 61.3602 52.8601C61.0607 51.8658 60.6013 50.9269 60.0002 50.0801Z" fill="white"/>
<path d="M44.5202 6.11984C43.5525 6.44946 42.685 7.02086 42.0002 7.77984C40.6702 9.13984 41.0002 13.5698 41.0002 13.4998C41.3302 10.7998 43.8002 9.02984 46.0002 7.61984L45.8302 6.76984C45.8499 6.77265 45.87 6.7715 45.8893 6.76646C45.9085 6.76142 45.9266 6.7526 45.9424 6.74049C45.9583 6.72839 45.9715 6.71326 45.9814 6.69598C45.9913 6.6787 45.9977 6.65961 46.0002 6.63984C46.0702 5.83984 45.0002 5.99984 44.5202 6.11984Z" fill="#913939"/>
<path d="M51.0898 11.5799C50.9999 10.2884 50.5495 9.0481 49.7898 7.99985C49.0111 7.19736 48.0558 6.58784 46.9998 6.21985C46.4498 5.99985 44.9398 5.50985 45.0898 6.66985C44.9883 7.02539 44.9049 7.38586 44.8398 7.74985C45.8705 10.1629 47.7949 12.0837 50.2098 13.1099C52.3098 13.8099 50.3398 14.1999 50.9698 16.2299C50.9698 16.267 50.9846 16.3026 51.0108 16.3288C51.0371 16.3551 51.0727 16.3699 51.1098 16.3699C51.147 16.3699 51.1826 16.3551 51.2088 16.3288C51.2351 16.3026 51.2498 16.267 51.2498 16.2299C51.4204 14.6802 51.3665 13.1141 51.0898 11.5799Z" fill="#913939"/>
<path d="M51.5402 13.2402C51.5389 13.1522 51.5203 13.0653 51.4854 12.9845C51.4505 12.9037 51.4001 12.8306 51.3369 12.7693C51.2738 12.708 51.1992 12.6598 51.1174 12.6273C51.0356 12.5949 50.9482 12.5788 50.8602 12.5802C50.6521 12.6382 50.4617 12.7473 50.3063 12.8974C50.1509 13.0476 50.0354 13.2341 49.9702 13.4402C49.618 14.177 49.4894 15.001 49.6002 15.8102C49.621 15.8955 49.6659 15.9732 49.7295 16.0339C49.7931 16.0946 49.8727 16.1358 49.959 16.1526C50.0453 16.1694 50.1346 16.1612 50.2163 16.1289C50.298 16.0965 50.3688 16.0415 50.4202 15.9702C51.1154 15.2281 51.5139 14.2566 51.5402 13.2402Z" fill="#EB8B65"/>
<path d="M41.5707 18.37C41.676 19.9574 42.2698 21.4733 43.2707 22.71C43.3407 22.8 43.4807 22.71 43.4007 22.57C42.4322 21.3736 41.8591 19.906 41.7607 18.37C41.7607 18.24 41.5607 18.24 41.5707 18.37Z" fill="#631F1F"/>
<path d="M43.8701 25.5301C44.2502 26.5251 44.4303 27.5854 44.4001 28.6501C44.4067 28.6701 44.4194 28.6875 44.4365 28.6999C44.4535 28.7122 44.474 28.7189 44.4951 28.7189C44.5162 28.7189 44.5367 28.7122 44.5537 28.6999C44.5708 28.6875 44.5835 28.6701 44.5901 28.6501C44.6265 27.5678 44.4428 26.4893 44.0501 25.4801C44.0501 25.3701 43.8301 25.4201 43.8701 25.5301Z" fill="#631F1F"/>
<path d="M50.49 8.66989C50.9523 9.48317 51.078 10.4451 50.84 11.3499C50.8334 11.3738 50.8365 11.3993 50.8487 11.4208C50.8609 11.4424 50.8811 11.4583 50.905 11.4649C50.9289 11.4715 50.9544 11.4684 50.976 11.4562C50.9975 11.444 51.0134 11.4238 51.02 11.3999C51.2689 10.4454 51.1399 9.43166 50.66 8.56989C50.6448 8.55177 50.6237 8.53964 50.6004 8.53563C50.577 8.53162 50.5531 8.536 50.5327 8.54799C50.5123 8.55998 50.4968 8.5788 50.489 8.60112C50.4812 8.62343 50.4815 8.6478 50.49 8.66989Z" fill="#631F1F"/>
<path d="M51.9202 15.48C52.3702 16.27 52.8402 17.04 53.2502 17.85C53.667 18.733 53.934 19.6793 54.0402 20.65C54.0402 20.77 54.2402 20.72 54.2202 20.65C54.123 19.7426 53.8869 18.8556 53.5202 18.02C53.1002 17.13 52.5202 16.29 52.0902 15.44C52.0751 15.4243 52.0554 15.4139 52.0339 15.4105C52.0124 15.407 51.9904 15.4106 51.9712 15.4208C51.952 15.431 51.9366 15.4471 51.9274 15.4668C51.9182 15.4865 51.9156 15.5087 51.9202 15.53V15.48Z" fill="#631F1F"/>
<path d="M41.37 8.36024C40.58 9.91024 39.93 11.6202 40.57 13.3602C40.57 13.4702 40.8 13.4202 40.76 13.3102C40.13 11.6402 40.76 9.98024 41.54 8.48024C41.59 8.37024 41.43 8.27024 41.37 8.38024V8.36024Z" fill="#631F1F"/>
<path d="M48.7499 13.1598C48.7499 12.7298 48.3899 12.0798 47.9199 12.3598C47.6966 12.5275 47.5461 12.7745 47.4996 13.0499C47.4531 13.3253 47.5141 13.6081 47.6699 13.8398C48.1399 14.4698 48.7999 13.8398 48.7499 13.1598Z" fill="#170301"/>
<path d="M43.7599 12.7902C43.7599 12.3602 43.4099 11.7102 42.9299 11.9902C42.7082 12.1593 42.5597 12.4071 42.515 12.6824C42.4704 12.9577 42.533 13.2396 42.6899 13.4702C43.1499 14.1002 43.8199 13.4702 43.7599 12.7902Z" fill="#170301"/>
<path d="M50.9402 13.1798C50.6106 13.6224 50.3478 14.1109 50.1602 14.6298C50.1602 14.7498 50.3102 14.7998 50.3502 14.6898C50.5296 14.1825 50.7823 13.7041 51.1002 13.2698C51.1702 13.1698 51.0102 13.0798 50.9402 13.1798Z" fill="#C45547"/>
<path d="M44.5405 12.7302C44.4127 12.863 44.3196 13.0253 44.2696 13.2027C44.2196 13.3801 44.2141 13.5671 44.2536 13.7472C44.2932 13.9272 44.3766 14.0947 44.4964 14.2348C44.6162 14.3749 44.7688 14.4832 44.9405 14.5502C45.0605 14.5502 45.1105 14.4202 44.9905 14.3702C44.8499 14.3135 44.7256 14.2229 44.6284 14.1066C44.5313 13.9902 44.4644 13.8516 44.4338 13.7032C44.4031 13.5548 44.4096 13.4011 44.4526 13.2557C44.4957 13.1104 44.5739 12.978 44.6805 12.8702C44.7605 12.7802 44.6805 12.6402 44.5405 12.7302Z" fill="#C45547"/>
<path d="M45.4206 14.1201C45.6076 14.0503 45.8135 14.0503 46.0006 14.1201C46.1206 14.1201 46.1706 13.9801 46.0606 13.9301C45.8366 13.8553 45.5945 13.8553 45.3706 13.9301C45.2506 13.9301 45.3006 14.1601 45.4206 14.1201Z" fill="#C45547"/>
<path d="M46.58 14.9998C45.7343 15.2218 44.8456 15.2218 44 14.9998C43.9638 14.9894 43.9259 14.9866 43.8886 14.9918C43.8513 14.9969 43.8155 15.0098 43.7835 15.0295C43.7515 15.0493 43.724 15.0756 43.7027 15.1066C43.6814 15.1376 43.6669 15.1728 43.66 15.2098C43.6253 15.4199 43.6458 15.6354 43.7194 15.8352C43.793 16.0351 43.9173 16.2124 44.08 16.3498C44.4239 16.541 44.8186 16.6213 45.21 16.5798C45.4048 16.5995 45.6015 16.5779 45.7874 16.5163C45.9732 16.4547 46.144 16.3545 46.2884 16.2223C46.4329 16.0901 46.5478 15.9289 46.6256 15.7493C46.7034 15.5696 46.7424 15.3755 46.74 15.1798C46.7413 15.1574 46.7383 15.135 46.7309 15.1139C46.7236 15.0928 46.7122 15.0733 46.6973 15.0565C46.6825 15.0398 46.6645 15.0262 46.6443 15.0165C46.6242 15.0067 46.6023 15.001 46.58 14.9998Z" fill="#CF6446"/>
<path d="M44.6305 15.6498C44.8539 15.6983 45.082 15.7218 45.3105 15.7198C45.829 15.7119 46.3361 15.567 46.7805 15.2998V15.1398C46.7825 15.1139 46.7785 15.0879 46.7688 15.0637C46.7591 15.0396 46.7441 15.0181 46.7247 15.0007C46.7054 14.9833 46.6824 14.9706 46.6574 14.9635C46.6324 14.9564 46.6061 14.9551 46.5805 14.9598C45.7702 15.1663 44.9209 15.1663 44.1105 14.9598C44.0976 15.1185 44.1434 15.2765 44.2393 15.4037C44.3352 15.5309 44.4744 15.6185 44.6305 15.6498Z" fill="white"/>
<path d="M51.0002 15.8698C50.9402 15.5198 50.7202 15.3198 50.2902 15.6598C50.1932 15.7435 50.1166 15.8483 50.0664 15.9662C50.0161 16.0841 49.9935 16.2119 50.0002 16.3398C50.0018 16.5562 50.0797 16.7652 50.2202 16.9298C50.7202 17.5798 51.0902 16.4898 51.0002 15.8698Z" fill="#FAE1D2"/>
<path d="M82.7406 43.0702C83.0847 42.8531 83.4837 42.7386 83.8906 42.7402C84.0106 42.7402 84.0106 42.5402 83.8906 42.5502C83.4509 42.5464 83.0199 42.6716 82.6506 42.9102C82.5406 42.9702 82.6506 43.1402 82.7406 43.0702Z" fill="#2B0303"/>
<path d="M48.9997 64.06C49.3287 64.4473 49.7128 64.7843 50.1397 65.06C50.7965 65.6401 51.2518 66.414 51.4397 67.27C51.9597 68.78 52.4397 70.27 52.8297 71.85C52.8363 71.87 52.849 71.8874 52.8661 71.8998C52.8831 71.9121 52.9036 71.9188 52.9247 71.9188C52.9458 71.9188 52.9663 71.9121 52.9833 71.8998C53.0004 71.8874 53.0131 71.87 53.0197 71.85C52.5797 70.23 52.0864 68.6266 51.5397 67.04C51.3897 66.467 51.1392 65.9253 50.7997 65.44C50.3297 64.89 49.6097 64.64 49.1697 64.06C49.0897 63.96 48.9297 64.06 48.9997 64.16V64.06Z" fill="#2B0303"/>
<path d="M47.9302 51.19C48.7159 51.3447 49.5244 51.3447 50.3102 51.19C51.1802 51.1 52.0502 50.96 52.9002 50.79C53.0302 50.79 52.9702 50.58 52.9002 50.6C52.0602 50.77 51.2102 50.91 50.3602 51C49.581 51.1536 48.7793 51.1536 48.0002 51C47.9763 51 47.9534 51.0095 47.9365 51.0263C47.9196 51.0432 47.9102 51.0661 47.9102 51.09C47.9102 51.1138 47.9196 51.1367 47.9365 51.1536C47.9534 51.1705 47.9763 51.18 48.0002 51.18L47.9302 51.19Z" fill="#2B0303"/>
<path d="M31.1508 10.8101C31.1087 10.7181 31.0438 10.6385 30.9621 10.5789C30.8805 10.5192 30.7848 10.4816 30.6844 10.4695C30.584 10.4575 30.4822 10.4714 30.3888 10.5101C30.2953 10.5487 30.2134 10.6107 30.1508 10.6901C29.8729 11.0665 29.7544 11.537 29.8208 12.0001C29.8597 12.0869 29.8898 12.1773 29.9108 12.2701C29.9211 12.3263 29.9211 12.3839 29.9108 12.4401C29.8108 12.8501 29.7708 13.3601 30.3408 13.4401C30.4938 13.4546 30.6466 13.4097 30.7675 13.3148C30.8885 13.2199 30.9684 13.0822 30.9908 12.9301C31.2639 12.2574 31.3199 11.5162 31.1508 10.8101Z" fill="#BF6950"/>
<path d="M24.4 4.17014C24.6302 3.62576 24.7025 3.02761 24.6088 2.44405C24.5151 1.8605 24.2591 1.31508 23.87 0.870143C23.5255 0.466764 23.0575 0.188341 22.5385 0.078051C22.0196 -0.0322392 21.4788 0.0317667 21 0.260143C20.56 0.540143 20.47 1.07014 20.2 1.48014C19.93 1.89014 19.51 2.35014 19.58 3.00014C19.71 4.23014 20.89 4.81014 21.95 5.09014C21.9523 5.10963 21.9587 5.1284 21.9688 5.14526C21.9788 5.16212 21.9923 5.17667 22.0083 5.18799C22.0243 5.1993 22.0426 5.20712 22.0618 5.21094C22.0811 5.21476 22.1009 5.21448 22.12 5.21014C22.8901 5.04036 23.6358 4.77497 24.34 4.42014C24.367 4.41547 24.3919 4.40301 24.4119 4.38431C24.4318 4.3656 24.4458 4.34146 24.4522 4.31487C24.4586 4.28829 24.4571 4.26041 24.4478 4.23469C24.4385 4.20897 24.4219 4.18653 24.4 4.17014Z" fill="#4D140F"/>
<path d="M30.3503 8.85008C30.2066 7.40832 29.5543 6.0648 28.5103 5.06008C27.7839 4.57419 26.9613 4.25037 26.0985 4.1106C25.2358 3.97084 24.3531 4.01841 23.5103 4.25008C18.1303 5.52008 20.5103 13.4901 22.3403 16.7201C22.5489 17.1862 22.8753 17.5899 23.2874 17.8915C23.6995 18.1931 24.183 18.3822 24.6903 18.4401C25.7832 18.689 26.9208 18.6616 28.0003 18.3601C28.7058 18.151 29.3342 17.7389 29.8072 17.1752C30.2802 16.6115 30.5769 15.9212 30.6603 15.1901C30.7972 13.0718 30.6932 10.9449 30.3503 8.85008Z" fill="#BF6950"/>
<path d="M30.3403 5.73982C28.3403 2.19982 22.4703 2.57982 20.1903 5.40982C19.6914 6.10475 19.34 6.8944 19.1577 7.73021C18.9754 8.56601 18.9661 9.43028 19.1303 10.2698C19.2103 10.8098 19.6703 13.0098 20.9203 12.4998C21.3303 12.3298 21.1103 11.2998 21.2103 10.9098C21.3543 10.2081 21.6074 9.53324 21.9603 8.90982C22.0503 8.78328 22.1685 8.67944 22.3057 8.60654C22.4428 8.53364 22.595 8.49368 22.7503 8.48982C23.8332 8.58348 24.9232 8.55665 26.0003 8.40982C26.5982 8.25515 27.1832 8.05456 27.7503 7.80982C29.6203 6.90982 30.3303 10.8998 30.6603 10.5398C31.4603 9.66982 30.8603 6.67982 30.3403 5.73982Z" fill="#4D140F"/>
<path d="M21.9304 13.9998C21.9016 13.9707 21.8779 13.9369 21.8604 13.8998C21.7404 13.6998 21.9104 13.4798 21.8604 13.2698C21.8115 13.0251 21.7052 12.7955 21.5504 12.5998C21.2972 12.2388 20.9519 11.9523 20.5504 11.7698C20.1104 11.5998 19.4604 11.9498 19.5504 12.4898C19.776 13.477 20.2791 14.3791 21.0004 15.0898C21.5504 15.6398 22.3904 14.7598 22.0004 14.1698L21.9304 13.9998Z" fill="#BF6950"/>
<path d="M29.33 11.8802C29.33 11.5302 29.23 10.8802 28.81 10.8802C28.02 10.7802 28.05 12.2902 28.55 12.5902C28.6027 12.6242 28.6617 12.6471 28.7235 12.6575C28.7854 12.6679 28.8487 12.6655 28.9095 12.6505C28.9704 12.6355 29.0276 12.6082 29.0775 12.5704C29.1275 12.5325 29.1692 12.4848 29.2 12.4302C29.2953 12.2632 29.3405 12.0723 29.33 11.8802Z" fill="#170301"/>
<path d="M24.3606 12.5198C24.3606 12.1898 24.2506 11.5998 23.8406 11.5198C23.0806 11.4398 23.1406 12.8898 23.6206 13.1798C23.6723 13.21 23.7296 13.2295 23.7889 13.2373C23.8483 13.245 23.9086 13.2409 23.9663 13.2251C24.0241 13.2092 24.0781 13.182 24.1252 13.1451C24.1723 13.1081 24.2115 13.0621 24.2406 13.0098C24.3218 12.8594 24.3632 12.6907 24.3606 12.5198Z" fill="#170301"/>
<path d="M26.8403 12.2401C27.2703 12.6601 27.6903 13.1801 27.2803 13.7701C27.2203 13.8701 27.3803 13.9701 27.4503 13.8701C27.9103 13.1901 27.4503 12.6001 26.9803 12.1001C26.9611 12.0856 26.9372 12.0786 26.9132 12.0803C26.8892 12.082 26.8666 12.0923 26.8496 12.1094C26.8326 12.1264 26.8223 12.149 26.8206 12.173C26.8189 12.197 26.8259 12.2208 26.8403 12.2401Z" fill="#66281B"/>
<path d="M25.9105 13.9999C25.9846 13.9415 26.0761 13.9097 26.1705 13.9097C26.2648 13.9097 26.3564 13.9415 26.4305 13.9999C26.4526 14.0083 26.4769 14.0086 26.4992 14.0008C26.5216 13.993 26.5404 13.9775 26.5524 13.9572C26.5644 13.9368 26.5687 13.9128 26.5647 13.8895C26.5607 13.8662 26.5486 13.8451 26.5305 13.8299C26.4152 13.7554 26.2778 13.7227 26.1413 13.7373C26.0048 13.7518 25.8775 13.8127 25.7805 13.9099C25.6905 13.9899 25.7805 14.1199 25.9105 14.0399V13.9999Z" fill="#66281B"/>
<path d="M20.1006 12.61L20.9006 14C20.9125 14.0212 20.9324 14.0368 20.9559 14.0434C20.9793 14.0499 21.0044 14.0469 21.0256 14.035C21.0468 14.023 21.0624 14.0032 21.069 13.9797C21.0756 13.9563 21.0725 13.9312 21.0606 13.91L20.2606 12.56C20.2006 12.46 20.0306 12.56 20.1006 12.66V12.61Z" fill="#66281B"/>
<path d="M29.5502 9.39003C29.0002 9.00003 27.6002 8.81003 27.2802 9.61003C27.235 9.73029 27.227 9.86137 27.2573 9.98622C27.2877 10.1111 27.3548 10.2239 27.4502 10.31C27.5714 10.4026 27.7158 10.46 27.8675 10.4759C28.0192 10.4917 28.1724 10.4655 28.3102 10.4C28.6006 10.3251 28.9023 10.3047 29.2002 10.34C29.3132 10.3459 29.4251 10.3155 29.5195 10.2533C29.614 10.191 29.6861 10.1001 29.7252 9.99398C29.7643 9.88781 29.7684 9.77192 29.7369 9.66325C29.7054 9.55458 29.64 9.45884 29.5502 9.39003Z" fill="#4D1813"/>
<path d="M22.1908 10.4498C22.6308 9.87978 24.0708 9.09978 24.7008 9.78978C24.7919 9.89908 24.8459 10.0346 24.8549 10.1766C24.8639 10.3186 24.8274 10.4599 24.7508 10.5798C24.6521 10.7191 24.5194 10.8308 24.3654 10.9043C24.2114 10.9778 24.0411 11.0107 23.8708 10.9998C23.5244 11.0379 23.1866 11.1325 22.8708 11.2798C22.4108 11.4798 21.8108 10.9398 22.1908 10.4498Z" fill="#4D1813"/>
<path d="M28.1105 14.39C27.2765 14.6293 26.4173 14.7702 25.5505 14.81C25.5042 14.8111 25.4589 14.8242 25.4191 14.8479C25.3792 14.8716 25.3462 14.9051 25.323 14.9453C25.2999 14.9855 25.2876 15.031 25.2871 15.0773C25.2867 15.1237 25.2982 15.1693 25.3205 15.21C25.4955 15.5221 25.765 15.7707 26.0903 15.9199C26.4156 16.069 26.7798 16.1111 27.1305 16.04C27.4596 16.0059 27.7685 15.8655 28.0105 15.64C28.2498 15.3567 28.3995 15.0086 28.4405 14.64C28.4404 14.5999 28.4311 14.5604 28.4133 14.5245C28.3954 14.4886 28.3695 14.4573 28.3375 14.4331C28.3056 14.4089 28.2684 14.3924 28.2291 14.3849C28.1897 14.3775 28.1491 14.3792 28.1105 14.39Z" fill="#702D1A"/>
<path d="M25.4 15.1401C25.64 15.4701 26.34 15.3801 26.69 15.3601C26.9757 15.3426 27.2579 15.2888 27.53 15.2001C27.712 15.1637 27.8737 15.0602 27.983 14.9102C28.0923 14.7602 28.1412 14.5745 28.12 14.3901C27.2824 14.6286 26.42 14.7696 25.55 14.8101C25.481 14.815 25.4162 14.8454 25.3682 14.8952C25.3202 14.9451 25.2923 15.011 25.29 15.0801C25.3118 15.0809 25.333 15.0867 25.3521 15.0971C25.3712 15.1076 25.3876 15.1223 25.4 15.1401Z" fill="white"/>
<path d="M30.4503 10.1099C30.3303 10.1099 30.3703 11.3999 30.3603 11.5299C30.3103 12.5299 30.3603 13.5299 30.3603 14.5299C30.3603 15.3499 30.3603 16.4799 29.4703 16.8599C29.2997 16.9513 29.1004 16.9732 28.914 16.921C28.7276 16.8688 28.5686 16.7466 28.4703 16.5799C28.2904 16.4004 28.0604 16.2796 27.8105 16.2332C27.5607 16.1868 27.3027 16.217 27.0703 16.3199C26.3803 16.5099 26.1203 17.1399 25.4203 17.3199C25.1199 17.4151 24.8009 17.4358 24.4907 17.38C24.1806 17.3243 23.8887 17.1938 23.6403 16.9999C22.1603 15.3799 21.3903 11.6599 21.0403 11.4399C20.4303 11.0399 21.4403 14.5999 21.5403 14.9999C21.803 16.1439 22.2415 17.2403 22.8403 18.2499C23.0639 18.6783 23.3977 19.0394 23.8072 19.296C24.2167 19.5526 24.6872 19.6955 25.1703 19.7099C26.5211 19.7765 27.8735 19.6142 29.1703 19.2299C30.3103 18.9099 30.9003 18.6699 31.0403 17.5399C31.2103 15.9399 30.6403 9.99991 30.4503 10.1099Z" fill="#4D140F"/>
<path d="M28.5802 14.1101C27.7902 13.6001 26.5802 14.0301 25.7402 14.2601C25.4002 14.3601 24.1102 14.8401 24.7402 15.3301C25.0202 15.5601 25.6402 15.3301 25.9202 15.2201C26.2002 15.1101 26.5602 14.9601 26.9202 14.8801C27.3973 14.805 27.8831 14.805 28.3602 14.8801C29.0002 14.9101 29.0902 14.4401 28.5802 14.1101Z" fill="#4D140F"/>
<path d="M79.5304 51.3902C81.21 54.6662 82.4026 58.1698 83.0704 61.7902C83.1404 62.1102 83.6304 61.9802 83.5604 61.6602C82.8929 57.9988 81.6936 54.4546 80.0004 51.1402C79.9672 51.0819 79.9123 51.0391 79.8476 51.0213C79.7829 51.0035 79.7137 51.0121 79.6554 51.0452C79.597 51.0784 79.5542 51.1334 79.5364 51.1981C79.5186 51.2628 79.5272 51.3319 79.5604 51.3902H79.5304Z" fill="#FFE9D9"/>
<path d="M74.5105 15.7101C74.3205 15.3901 73.9305 15.1901 73.6605 14.9301C72.8205 14.1301 72.6605 12.9801 71.8505 12.1501C71.1283 11.4001 70.1796 10.9082 69.1505 10.7501C68.5205 10.6025 67.8615 10.6371 67.2505 10.8501C66.5405 11.1701 66.3105 12.1101 65.4705 12.2001C64.6305 12.2901 63.8505 11.6101 62.9905 11.5001C62.3352 11.4278 61.6737 11.5643 61.1005 11.8901C60.5126 12.1858 60.0126 12.6306 59.6505 13.1801C59.4654 13.4788 59.3846 13.8305 59.4205 14.1801C59.4205 14.5701 59.7605 15.0401 59.4205 15.4001C59.0805 15.7601 58.5805 15.7101 58.2705 16.0301C58.1643 16.1463 58.085 16.2845 58.0383 16.4349C57.9916 16.5853 57.9787 16.7441 58.0005 16.9001C58.0667 17.3065 58.2431 17.687 58.5105 18.0001C58.8205 18.3701 60.1105 18.8501 60.5105 18.5101C60.7405 18.3201 60.7205 17.9501 60.9305 17.7501C61.0249 17.686 61.1364 17.6518 61.2505 17.6518C61.3646 17.6518 61.4761 17.686 61.5705 17.7501C61.77 17.8596 61.9386 18.0179 62.0605 18.2101C61.9353 18.0398 61.8249 17.8591 61.7305 17.6701C61.9689 17.7488 62.2129 17.809 62.4605 17.8501C63.5905 17.9601 64.5105 17.3401 65.5605 17.1001C67.1405 16.7301 67.7905 18.1001 68.5605 19.1001C68.7478 19.4103 69.0252 19.6559 69.3558 19.8042C69.6864 19.9525 70.0543 19.9964 70.4105 19.9301C70.4905 19.9301 70.4105 23.2801 70.4105 23.2301C71.2805 22.0101 73.6505 19.3101 74.3105 17.8001C74.4934 17.487 74.606 17.138 74.6406 16.7771C74.6751 16.4162 74.6307 16.0521 74.5105 15.7101Z" fill="#C28053"/>
<path d="M55.7704 49.6801C55.5604 49.2601 55.7704 48.7401 55.5404 48.3001C55.343 47.866 55.0406 47.488 54.6604 47.2001C54.5281 47.0998 54.3769 47.027 54.2159 46.9862C54.055 46.9454 53.8874 46.9374 53.7233 46.9626C53.5591 46.9878 53.4017 47.0457 53.2603 47.1328C53.119 47.22 52.9966 47.3347 52.9004 47.4701C52.8078 47.615 52.7458 47.7774 52.7183 47.9472C52.6909 48.117 52.6984 48.2906 52.7406 48.4574C52.7827 48.6242 52.8586 48.7805 52.9635 48.9168C53.0684 49.0532 53.2 49.1666 53.3504 49.2501C53.6878 49.5132 54.0759 49.7038 54.4904 49.8101C54.8898 49.9567 55.317 50.0114 55.7404 49.9701C55.7737 49.9656 55.8046 49.95 55.828 49.9258C55.8514 49.9017 55.866 49.8704 55.8694 49.8369C55.8729 49.8034 55.865 49.7698 55.8471 49.7414C55.8291 49.7129 55.8021 49.6914 55.7704 49.6801Z" fill="#964939"/>
<path d="M84.1503 42.2698C84.1382 42.24 84.1175 42.2145 84.0907 42.1966C84.0639 42.1788 84.0324 42.1694 84.0003 42.1698H83.9303C83.6241 42.0553 83.294 42.02 82.9706 42.0672C82.6472 42.1144 82.3409 42.2426 82.0803 42.4398C81.6303 42.9398 82.0803 43.8498 82.2403 44.3798C82.2512 44.4081 82.2704 44.4324 82.2954 44.4496C82.3204 44.4667 82.35 44.4759 82.3803 44.4759C82.4106 44.4759 82.4402 44.4667 82.4652 44.4496C82.4902 44.4324 82.5094 44.4081 82.5203 44.3798C82.9937 44.102 83.4304 43.7661 83.8203 43.3798C83.9836 43.2519 84.1032 43.0763 84.1623 42.8774C84.2214 42.6785 84.2172 42.4662 84.1503 42.2698Z" fill="#964939"/>
<path d="M55.37 46.3598C55.37 46.2798 54.54 46.1698 54.48 46.0798C53.8924 45.2973 53.1222 44.6705 52.2368 44.254C51.3514 43.8374 50.3775 43.6437 49.4 43.6898C49.2578 43.6903 49.1201 43.7398 49.01 43.8298C48.8821 43.7778 48.7399 43.7723 48.6084 43.8143C48.4768 43.8564 48.3641 43.9432 48.29 44.0598C47.862 44.8588 47.3844 45.6304 46.86 46.3698C46.8054 46.4342 46.7648 46.5092 46.7407 46.5901C46.7166 46.671 46.7096 46.756 46.72 46.8398C46.7131 46.8996 46.7131 46.96 46.72 47.0198C46.55 48.8398 46.56 52.0198 49.32 52.0198C53.07 52.1398 55.47 46.5198 55.37 46.3598Z" fill="#EB8B65"/>
<path d="M58.8802 41.2602C58.4973 37.9157 57.7633 34.6209 56.6902 31.4302C55.6352 32.1904 54.6868 33.0883 53.8702 34.1002C51.3073 37.2404 49.2153 40.7371 47.6602 44.4802C50.6602 45.0002 54.3602 46.8202 55.5802 49.8602C55.5924 49.8855 55.6116 49.9069 55.6355 49.9219C55.6594 49.9369 55.687 49.9448 55.7152 49.9448C55.7433 49.9448 55.7709 49.9369 55.7948 49.9219C55.8187 49.9069 55.8379 49.8855 55.8502 49.8602C56.6702 48.3802 57.5102 46.8602 58.3202 45.4102C58.8981 44.1084 59.0924 42.6686 58.8802 41.2602Z" fill="#964939"/>
<path d="M55.9999 80.77C61.2999 82.56 84.0899 79.92 84.6899 79.44C83.1599 67.44 78.5899 59.32 75.5799 53.73C75.2199 53.06 74.9799 52.06 75.1299 52.26C75.2799 52.46 75.0499 52.09 74.9799 52.06C74.9491 51.9982 74.8998 51.9476 74.8388 51.9153C74.7778 51.883 74.7083 51.8707 74.6399 51.88C71.8799 52.35 61.4399 52 59.1699 52.59C58.9999 52.5 58.7199 52.84 58.6999 53.1C58.6642 53.5392 58.6642 53.9807 58.6999 54.42C58.7837 55.1189 58.7189 55.8277 58.5099 56.5C56.1721 64.3637 55.3209 72.5943 55.9999 80.77Z" fill="#D1D5E3"/>
<path d="M56.7702 26.9202C56.0495 29.1318 55.6193 31.4277 55.4902 33.7502C55.4902 33.8702 55.6702 33.8702 55.6802 33.7502C55.8307 31.4531 56.2743 29.1847 57.0002 27.0002C57.0002 26.8802 56.8602 26.8302 56.8202 27.0002L56.7702 26.9202Z" fill="#2B0303"/>
<path d="M72.9998 15.9998C72.8498 15.1998 72.4098 14.9998 71.8798 14.3398C71.2339 13.6281 70.4182 13.0916 69.5089 12.7803C68.5996 12.469 67.6263 12.3932 66.6798 12.5598C65.2773 12.6775 63.9701 13.3171 63.0165 14.3522C62.0629 15.3872 61.5324 16.7424 61.5298 18.1498C61.5298 18.6398 61.1098 18.9098 60.7198 19.1498C60.3298 19.3898 60.1598 19.4398 60.1198 19.7598C60.0798 20.0798 60.5098 20.4198 60.9498 20.5298C60.9814 20.539 61.0088 20.5591 61.0271 20.5865C61.0454 20.614 61.0534 20.647 61.0498 20.6798C61.0498 20.7998 61.0498 20.9898 60.9798 21.2098C60.9098 21.4298 60.9198 21.8498 60.9098 22.2098C60.9098 23.3798 61.0298 24.7998 61.9098 25.2598C62.6992 25.6004 63.55 25.7762 64.4098 25.7762C65.2696 25.7762 66.1203 25.6004 66.9098 25.2598C67.9098 24.8098 68.5898 23.7098 69.3398 22.8598C70.4698 21.5698 71.6298 20.9198 72.4698 19.4198C73.0234 18.371 73.21 17.167 72.9998 15.9998Z" fill="#EB8B65"/>
<path d="M82.9007 42.3999C82.9007 42.3299 82.1807 42.8199 82.1107 42.7799C81.1107 42.1699 77.1107 43.1899 76.4907 43.7199C75.6307 44.3899 76.6007 46.4599 78.9607 51.2399C78.9907 51.2974 79.0356 51.3458 79.0907 51.3799C79.9507 53.0699 81.5007 54.1399 83.2107 53.3799C86.5707 51.9099 84.0007 44.8699 82.9007 42.3999Z" fill="#EB8B65"/>
<path d="M67.63 38.93C66.7004 36.075 65.5503 33.2966 64.19 30.62C63.6331 29.3597 62.9317 28.1684 62.1 27.07C61.3083 26.1414 60.4009 25.318 59.4 24.62C59.14 24.4 58.59 24.62 58.57 24.82C56.63 26.18 56 31.28 56 33.15C56.0837 36.7102 56.7596 40.2317 58 43.57C58.12 43.92 58.64 43.79 58.58 43.46C60.8978 44.0842 63.3561 43.9332 65.58 43.03C66.31 42.73 67.76 42.21 68.14 41.47C68.52 40.73 67.84 39.56 67.63 38.93Z" fill="#FFC04F"/>
<path d="M61.3204 27.4301C60.7104 26.9601 59.7404 26.7801 59.6404 27.7501C59.6095 28.2892 59.7806 28.8205 60.1204 29.2401C60.2604 29.4301 58.5904 29.2401 58.4204 30.1701C58.3755 30.445 58.3755 30.7253 58.4204 31.0001C58.4979 31.4929 58.7414 31.9445 59.1104 32.2801C59.4757 32.5996 59.9227 32.811 60.4015 32.8905C60.8802 32.97 61.3716 32.9145 61.8204 32.7301C62.4509 32.0528 62.8923 31.2217 63.1004 30.3201V30.2701C62.7859 29.1749 62.169 28.1906 61.3204 27.4301Z" fill="white"/>
<path d="M74.0001 31.0499C72.9406 30.5334 71.9769 29.8401 71.1501 28.9999C70.1501 27.8299 70.4301 26.4499 70.4301 25.0499C70.3269 22.4308 71.0246 19.8424 72.4301 17.6299C72.6301 17.3099 72.1301 16.9099 71.8601 17.1799L71.8001 17.2599C71.7387 17.2378 71.6715 17.2378 71.6101 17.2599C70.1201 18.1599 68.6101 18.9999 67.1501 20.0299C65.9701 20.8899 65.1501 22.1099 64.0701 23.0299C63.8301 23.2199 64.2401 23.4899 64.4901 23.4899C64.6554 24.8806 64.6251 26.2876 64.4001 27.6699C63.9801 29.8199 61.2501 30.5099 59.4701 31.2199C59.1101 31.3599 59.2701 31.9399 59.6201 31.7899H59.6801C61.7609 33.31 64.3237 34.0209 66.8901 33.7899C69.2301 33.6399 72.1901 33.0499 74.0001 31.4799C74.0289 31.452 74.0517 31.4185 74.0673 31.3816C74.0829 31.3447 74.0909 31.305 74.0909 31.2649C74.0909 31.2248 74.0829 31.1852 74.0673 31.1482C74.0517 31.1113 74.0289 31.0779 74.0001 31.0499Z" fill="#EB8B65"/>
<path d="M79.4302 34.4301C78.9574 33.3298 78.2102 32.3692 77.2602 31.6401C76.3486 31.0849 75.357 30.6734 74.3202 30.4201C73.8302 30.2801 73.3202 30.1101 72.8202 30.0201C72.0102 29.8701 71.1102 30.8201 70.3502 31.0801C69.2557 31.4425 68.0969 31.5686 66.9502 31.4501C66.0633 31.3765 65.1914 31.1779 64.3602 30.8601C63.9105 30.677 63.4786 30.4527 63.0702 30.1901C62.8402 30.0401 62.6002 29.6301 62.3202 29.6501C60.5368 29.9575 58.7951 30.471 57.1302 31.1801C55.5902 31.8501 53.8202 34.9501 53.9102 34.9701C53.6102 36.4001 55.0502 37.5301 56.4202 38.2701C55.4202 43.9601 56.2502 48.1801 58.7502 53.1601C58.8001 53.2705 58.8733 53.3687 58.9648 53.4481C59.0563 53.5275 59.1639 53.5862 59.2802 53.6201C61.7151 54.1591 64.2074 54.3943 66.7002 54.3201C69.1102 54.0001 72.0002 54.0001 75.1002 52.4101C76.1002 51.8701 76.3402 46.0101 75.9002 43.7701C76.7202 42.3901 77.5335 41.0035 78.3402 39.6101C78.958 38.7059 79.4681 37.7326 79.8602 36.7101C79.9852 36.3245 80.0113 35.9136 79.9362 35.5152C79.8611 35.1168 79.6871 34.7437 79.4302 34.4301Z" fill="#964939"/>
<path d="M84.0003 42.7398C84.1303 42.8498 84.1603 42.4398 84.1103 42.2798C82.8003 37.6498 78.7003 31.9998 76.6803 31.2998C75.9966 32.6665 75.3857 34.0685 74.8503 35.4998C74.2476 36.738 73.8073 38.0488 73.5403 39.3998C73.3603 40.6898 73.9503 42.1298 74.2503 43.3998C74.5055 44.7645 74.8837 46.1033 75.3803 47.3998C75.3203 47.4698 76.2903 48.3998 76.3803 48.3098C77.4003 45.7798 83.1903 41.9998 84.0003 42.7398Z" fill="#964939"/>
<path d="M48.6704 45.9199C45.4496 45.5422 42.3081 44.6615 39.3604 43.3099C39.2564 43.258 39.1417 43.231 39.0254 43.231C38.9091 43.231 38.7944 43.258 38.6904 43.3099C38.072 43.6045 37.5258 44.0312 37.0904 44.5599C36.6304 45.2999 36.7804 45.6599 37.3704 46.1099C39.3704 47.6299 43.1704 50.9699 48.7804 52.1099C49.6304 52.2299 49.2204 45.9999 48.6704 45.9199Z" fill="#EB8B65"/>
<path d="M81.2405 47.55C79.1427 46.78 77.1503 45.7485 75.3105 44.48C75.2344 44.5006 75.1674 44.5465 75.1205 44.61C74.6205 45.42 74.1206 46.24 73.6606 47.07C73.6419 47.1059 73.6308 47.1453 73.6278 47.1856C73.6248 47.226 73.63 47.2666 73.643 47.3049C73.6561 47.3432 73.6768 47.3784 73.7039 47.4085C73.731 47.4386 73.7638 47.4629 73.8005 47.48C73.8005 47.48 74.0805 47.33 74.1105 47.37C75.1902 48.8376 76.4313 50.1794 77.8105 51.37C78.8105 52.15 80.9405 53.81 82.3705 53.59C85.4105 53.06 82.7205 48 81.2405 47.55Z" fill="#EB8B65"/>
<path d="M75.0006 34.6202C73.3606 38.5102 74.0006 42.7502 74.9406 46.7302C74.9472 46.7502 74.9599 46.7677 74.977 46.78C74.994 46.7924 75.0145 46.799 75.0356 46.799C75.0567 46.799 75.0772 46.7924 75.0942 46.78C75.1113 46.7677 75.124 46.7502 75.1306 46.7302C74.2206 42.8002 73.5506 38.6002 75.1306 34.7302C75.1306 34.6202 75.0106 34.5202 74.9606 34.6302L75.0006 34.6202Z" fill="#2B0303"/>
<path d="M63.2307 17.4902C62.6507 17.4902 62.3907 18.8302 62.9707 18.9902C63.5507 19.1502 64.0007 17.5002 63.2307 17.4902Z" fill="#170301"/>
<path d="M62.1003 21.0802C61.7136 21.1441 61.3224 21.1775 60.9304 21.1802C60.9304 21.4702 60.8704 21.8202 60.8604 22.1802C61.2804 22.1202 62.1504 21.8002 62.2504 21.2602C62.2604 21.1902 62.2103 21.0602 62.1003 21.0802Z" fill="white"/>
<path d="M65.2199 16.5002L65.1399 16.3702C64.9451 16.033 64.6386 15.7745 64.2734 15.6394C63.9082 15.5043 63.5072 15.501 63.1399 15.6302C62.9456 15.7034 62.7853 15.8459 62.6899 16.0302C62.1799 17.1102 64.4299 17.5902 64.9999 17.3502C65.3799 17.2102 65.3699 16.8202 65.2199 16.5002Z" fill="#C28053"/>
<path d="M68.2206 23.1699C68.0027 23.931 67.5305 24.5944 66.8826 25.0493C66.2347 25.5043 65.4504 25.7233 64.6606 25.6699C64.6406 25.6765 64.6231 25.6892 64.6108 25.7062C64.5984 25.7233 64.5918 25.7438 64.5918 25.7649C64.5918 25.7859 64.5984 25.8065 64.6108 25.8235C64.6231 25.8406 64.6406 25.8533 64.6606 25.8599C65.492 25.9143 66.3169 25.6819 66.9975 25.2014C67.6782 24.7209 68.1735 24.0215 68.4006 23.2199C68.4006 23.196 68.3911 23.1731 68.3742 23.1562C68.3573 23.1394 68.3344 23.1299 68.3106 23.1299C68.2867 23.1299 68.2638 23.1394 68.2469 23.1562C68.2301 23.1731 68.2206 23.196 68.2206 23.2199V23.1699Z" fill="#C45547"/>
<path d="M59.5204 55.9398C64.5204 56.8598 70.4504 57.5598 74.5204 53.7998C74.6104 53.7198 74.5204 53.5798 74.3804 53.6698C70.3804 57.3798 64.4904 56.6698 59.5304 55.7598C59.4104 55.7598 59.3604 55.9198 59.5304 55.9398H59.5204Z" fill="#2B0303"/>
<path d="M56.57 37.1202C55.606 41.0165 55.5615 45.0837 56.44 49.0002C56.44 49.1202 56.65 49.0602 56.63 48.9502C55.7592 45.0805 55.8003 41.0613 56.75 37.2102C56.7566 37.1863 56.7535 37.1608 56.7413 37.1392C56.7291 37.1177 56.7089 37.1018 56.685 37.0952C56.6611 37.0886 56.6356 37.0917 56.614 37.1039C56.5925 37.1161 56.5766 37.1363 56.57 37.1602V37.1202Z" fill="#2B0303"/>
<path d="M54.5406 48.3499C54.8316 48.5243 55.078 48.764 55.2606 49.0499C55.3306 49.1499 55.5006 49.0499 55.4306 48.9499C55.2244 48.6405 54.9552 48.3781 54.6406 48.1799C54.6185 48.1715 54.5941 48.1711 54.5718 48.179C54.5495 48.1868 54.5307 48.2023 54.5187 48.2226C54.5067 48.243 54.5023 48.267 54.5063 48.2903C54.5103 48.3136 54.5225 48.3347 54.5406 48.3499Z" fill="#2B0303"/>
<path d="M86.17 66.5301C85.7459 64.703 85.1637 62.9162 84.43 61.1901C83.99 60.2501 83.64 59.4101 82.5 59.5101C80.3333 59.8121 78.2026 60.3314 76.14 61.0601C76.0777 61.0761 76.024 61.1155 75.99 61.1701C74.99 61.3101 74.99 62.4901 75.16 63.4001C75.684 65.9458 76.3517 68.4598 77.16 70.9301C77.24 71.1901 77.34 71.6301 77.46 72.0901C77.5234 72.3175 77.6336 72.5292 77.7833 72.7117C77.9331 72.8942 78.1193 73.0435 78.33 73.1501L78.97 73.4801C79.1789 73.5893 79.4198 73.6212 79.65 73.5701H79.84C81.23 73.3501 82.63 73.1301 84 72.7901C84.6 72.6401 87.33 72.1201 87.24 71.4401C86.9905 69.7819 86.6331 68.1417 86.17 66.5301Z" fill="#FAE1D2"/>
<path d="M76.09 62.1699C76.9 62.6399 77 63.7699 77.2 64.6099L77.87 67.4399C78.31 69.3299 78.76 71.2299 79.21 73.1199C79.2166 73.1438 79.2325 73.1641 79.254 73.1763C79.2756 73.1884 79.3011 73.1916 79.325 73.1849C79.3489 73.1783 79.3691 73.1625 79.3813 73.1409C79.3935 73.1193 79.3966 73.0938 79.39 73.0699C78.89 70.9299 78.39 68.7899 77.88 66.6499C77.63 65.6499 77.41 64.5499 77.13 63.5199C77.0854 63.2146 76.978 62.9219 76.8145 62.6603C76.6509 62.3986 76.4349 62.1738 76.18 61.9999C76.08 61.9399 75.98 62.1099 76.09 62.1699Z" fill="#2B0303"/>
<path d="M78.25 46.2498C79.5911 46.7198 80.8398 47.4204 81.94 48.3198C82.04 48.3998 82.17 48.3198 82.08 48.1898C80.9546 47.2662 79.6749 46.5485 78.3 46.0698C78.18 46.0698 78.13 46.2098 78.3 46.2498H78.25Z" fill="#C45547"/>
<path d="M74.2199 30.1102C72.4899 30.7502 71.5499 33.1102 70.9599 34.7102C70.1119 37.0411 69.7843 39.5293 69.9999 42.0002C70.1299 43.3202 70.4099 44.6202 70.6499 45.9202C70.8599 47.0502 71.0199 48.1802 71.2699 49.3002C71.8164 51.6398 72.5044 53.944 73.3299 56.2002C74.1499 58.4269 75.0399 60.6269 75.9999 62.8002C76.1299 63.1002 76.5699 62.8002 76.4299 62.5502C74.6777 58.7199 73.2396 54.7535 72.1299 50.6902C71.5599 48.5402 71.2299 46.3302 70.8199 44.1402C70.328 41.6687 70.3518 39.1221 70.8899 36.6602C71.1682 35.4399 71.6017 34.2603 72.1799 33.1502C72.5778 32.0758 73.3382 31.174 74.3299 30.6002C74.6399 30.4902 74.4999 30.0002 74.1999 30.1102H74.2199Z" fill="#FFE9D9"/>
<path d="M69.2999 11.8C69.1399 11.75 65.2999 12.6 63.7699 12.87L63.8299 12.77C63.9299 12.61 63.6699 12.46 63.5699 12.62C63.4699 12.78 63.4799 12.76 63.4399 12.84L62.8799 12.78C62.1999 13.98 62.2099 15.67 64.0999 16.2C64.6299 16.35 65.3099 16.29 65.5899 16.87C65.8699 17.45 65.5899 18.27 65.6699 18.94C65.6937 19.1756 65.7877 19.3986 65.9399 19.58C66.2771 19.8676 66.6978 20.0393 67.1399 20.07C67.7799 20.2 68.4099 19.83 69.0299 20C69.3799 20.09 69.6799 20.72 69.8899 21C70.0874 21.5384 70.2477 22.0897 70.3699 22.65C70.3721 23.3181 70.4088 23.9856 70.4799 24.65C72.5399 22.56 74.3899 19.35 73.8799 16.3C73.4599 14 71.4699 12.52 69.2999 11.8Z" fill="#C28053"/>
<path d="M69.53 18.5801C68.05 17.9701 66.67 20.7401 67.72 21.5801C68.51 22.2001 69.21 20.9701 69.52 20.4901C69.83 20.0101 70.41 18.9401 69.53 18.5801Z" fill="#EB8B65"/>
<path d="M69.0806 19.0001C68.801 19.1247 68.5507 19.3066 68.3457 19.5339C68.1407 19.7613 67.9857 20.0291 67.8906 20.3201C67.8906 20.4301 68.0306 20.4801 68.0706 20.3201C68.1595 20.0513 68.3044 19.8045 68.4957 19.5959C68.6871 19.3873 68.9205 19.2217 69.1806 19.1101C69.2906 19.1101 69.1806 18.9001 69.0806 18.9501V19.0001Z" fill="#C45547"/>
<path d="M60.8798 20.16C61.0491 20.2153 61.2131 20.2856 61.3698 20.37C61.4798 20.42 61.5798 20.26 61.4698 20.2C61.2969 20.1104 61.1161 20.0368 60.9298 19.98C60.906 19.98 60.8831 19.9895 60.8662 20.0063C60.8493 20.0232 60.8398 20.0461 60.8398 20.07C60.8398 20.0939 60.8493 20.1167 60.8662 20.1336C60.8831 20.1505 60.906 20.16 60.9298 20.16H60.8798Z" fill="#C45547"/>
<path d="M63.2598 12.4601C62.9089 12.361 62.5341 12.3912 62.2037 12.5454C61.8732 12.6996 61.6092 12.9675 61.4598 13.3001C61.0898 13.9801 61.4598 14.4401 62.0898 14.7501C62.1998 14.8101 62.2998 14.6401 62.1898 14.5901C61.9869 14.4998 61.8035 14.3707 61.6498 14.2101C61.5546 14.0731 61.5079 13.9082 61.5169 13.7415C61.526 13.5749 61.5903 13.4161 61.6998 13.2901C61.8367 13.0231 62.0623 12.8121 62.3379 12.6934C62.6135 12.5748 62.9218 12.556 63.2098 12.6401C63.3298 12.6401 63.3798 12.5001 63.2098 12.4601H63.2598Z" fill="#8A5430"/>
<path d="M73.9098 17.2099C73.9171 17.5686 73.8108 17.9204 73.606 18.215C73.4013 18.5095 73.1086 18.7318 72.7698 18.8499C72.0898 19.0099 71.7698 18.5799 71.3398 18.2199C71.119 18.0711 70.8553 17.9992 70.5895 18.0155C70.3238 18.0318 70.0708 18.1352 69.8698 18.3099C69.7698 18.3699 69.8698 18.5399 69.9598 18.4699C70.1521 18.314 70.3922 18.2289 70.6398 18.2289C70.8874 18.2289 71.1275 18.314 71.3198 18.4699C71.4698 18.5899 71.5698 18.7699 71.7298 18.8799C72.027 19.0678 72.3857 19.1324 72.7298 19.0599C73.1292 18.9474 73.4802 18.7059 73.728 18.3731C73.9758 18.0402 74.1065 17.6348 74.0998 17.2199C74.0998 17.0999 73.9198 17.0999 73.9098 17.2199V17.2099Z" fill="#8A5430"/>
<path d="M65.7701 16.9002C65.957 17.1244 66.2209 17.2706 66.5101 17.3102C66.9001 17.4002 68.0901 17.3902 68.1001 18.0002C68.0951 18.0152 68.0938 18.0312 68.0963 18.0468C68.0987 18.0624 68.1048 18.0773 68.1141 18.0901C68.1233 18.1029 68.1355 18.1133 68.1496 18.1205C68.1637 18.1277 68.1793 18.1314 68.1951 18.1314C68.2109 18.1314 68.2265 18.1277 68.2406 18.1205C68.2546 18.1133 68.2668 18.1029 68.2761 18.0901C68.2853 18.0773 68.2915 18.0624 68.2939 18.0468C68.2963 18.0312 68.295 18.0152 68.2901 18.0002C68.2901 16.9102 66.4201 17.4302 65.9001 16.7702C65.8301 16.6702 65.6901 16.7702 65.7701 16.9002Z" fill="#8A5430"/>
<path d="M71.3699 14.7402C71.2399 14.3133 71.0262 13.9166 70.7411 13.5732C70.4561 13.2298 70.1056 12.9466 69.7099 12.7402C69.2856 12.568 68.8229 12.5127 68.3699 12.5802C67.9651 12.6877 67.5754 12.8456 67.2099 13.0502C66.5399 13.3302 66.0199 12.8602 65.3699 12.7802C64.9358 12.71 64.4906 12.7691 64.0899 12.9502C63.7596 13.1112 63.4921 13.3772 63.3292 13.7066C63.1664 14.0359 63.1174 14.41 63.1899 14.7702C63.1899 14.8902 63.3899 14.8402 63.3699 14.7202C63.1099 13.4502 64.4499 12.7702 65.5299 13.0002C66.0599 13.1102 66.5299 13.5102 67.0499 13.3402C67.3302 13.2142 67.6039 13.074 67.8699 12.9202C68.3186 12.7309 68.8158 12.6888 69.2899 12.8002C69.7435 12.9572 70.1528 13.2208 70.4834 13.5688C70.8141 13.9169 71.0563 14.3391 71.1899 14.8002C71.1899 14.9102 71.4199 14.8602 71.3699 14.8002V14.7402Z" fill="#8A5430"/>
<path d="M70.44 22.8702C70.38 22.1702 70.1 21.0502 69.44 20.7002C69.44 20.7802 69.34 20.8702 69.29 20.9502C69.77 21.1502 69.97 21.9502 70.08 22.4302C70.19 22.9102 70.23 24.0902 69.51 24.3702C68.51 24.7602 67.85 23.6702 67.79 22.7902C67.7759 22.472 67.8272 22.1544 67.9407 21.8568C68.0543 21.5593 68.2276 21.2881 68.45 21.0602C68.57 20.9202 68.36 20.7102 68.23 20.8502C67.8962 21.1921 67.6635 21.6196 67.5576 22.0856C67.4517 22.5515 67.4767 23.0376 67.63 23.4902C67.88 24.2102 68.49 24.9502 69.33 24.7502C69.7051 24.6153 70.0214 24.3537 70.2241 24.0104C70.4267 23.6671 70.5031 23.2638 70.44 22.8702Z" fill="white"/>
<path d="M69.0699 21.0999C69.0182 21.2238 68.9362 21.3328 68.8313 21.4167C68.7264 21.5005 68.6022 21.5567 68.4699 21.5799C68.3499 21.5799 68.3999 21.7899 68.4699 21.7699C68.6259 21.7369 68.7718 21.667 68.8953 21.5661C69.0188 21.4652 69.1164 21.3362 69.1799 21.1899C69.1799 21.0799 69.0699 20.9799 69.0199 21.0999H69.0699Z" fill="#C45547"/>
<path d="M62.6098 51.2998C63.584 52.501 64.7661 53.5171 66.0998 54.2998C66.1211 54.3118 66.1461 54.3148 66.1696 54.3082C66.193 54.3017 66.2129 54.2861 66.2248 54.2649C66.2368 54.2436 66.2398 54.2185 66.2332 54.1951C66.2267 54.1717 66.2111 54.1518 66.1898 54.1399C64.8752 53.3506 63.7106 52.3349 62.7498 51.1399C62.6698 51.0499 62.5398 51.1898 62.6098 51.2798V51.2998Z" fill="#2B0303"/>
<path d="M68.9203 50.3198L68.5503 51.7198C68.547 51.7316 68.5461 51.744 68.5476 51.7561C68.5491 51.7683 68.5529 51.7801 68.559 51.7907C68.565 51.8014 68.5731 51.8108 68.5827 51.8184C68.5924 51.8259 68.6035 51.8315 68.6153 51.8348C68.6271 51.8381 68.6394 51.839 68.6516 51.8375C68.6638 51.836 68.6756 51.8321 68.6862 51.8261C68.6969 51.8201 68.7063 51.812 68.7139 51.8023C68.7214 51.7927 68.727 51.7816 68.7303 51.7698C68.8503 51.2998 68.9803 50.8398 69.1003 50.3698C69.1003 50.3459 69.0908 50.323 69.0739 50.3061C69.057 50.2893 69.0342 50.2798 69.0103 50.2798C68.9864 50.2798 68.9635 50.2893 68.9466 50.3061C68.9298 50.323 68.9203 50.3459 68.9203 50.3698V50.3198Z" fill="#2B0303"/>
<path d="M63.74 57.4398C63.2706 58.4954 63.0189 59.6347 63 60.7898C63.0066 60.8098 63.0193 60.8272 63.0364 60.8396C63.0534 60.8519 63.0739 60.8586 63.095 60.8586C63.1161 60.8586 63.1366 60.8519 63.1536 60.8396C63.1707 60.8272 63.1834 60.8098 63.19 60.7898C63.2164 59.6667 63.4716 58.5609 63.94 57.5398C63.99 57.4298 63.82 57.3298 63.77 57.4398H63.74Z" fill="#2B0303"/>
<path d="M76.3002 45.1501C75.1018 43.9585 74.1145 42.5722 73.3802 41.0501C73.1984 40.673 72.9699 40.3203 72.7002 40.0001C72.521 39.6994 72.2948 39.4293 72.0302 39.2001C71.7508 39.0465 71.4408 38.9569 71.1226 38.9379C70.8043 38.9189 70.4859 38.9709 70.1902 39.0901C69.6502 39.2001 68.7902 39.3601 68.4902 39.8901C68.1902 40.4201 68.5502 41.4901 68.7802 42.0601C68.813 42.1466 68.8683 42.2228 68.9404 42.2808C69.0124 42.3388 69.0987 42.3765 69.1902 42.3901C69.1396 42.5855 69.1322 42.7897 69.1684 42.9883C69.2047 43.1869 69.2838 43.3752 69.4002 43.5401C69.4536 43.6295 69.5342 43.6996 69.6302 43.7401C69.5967 44.0415 69.6355 44.3466 69.7433 44.63C69.8511 44.9134 70.0249 45.1671 70.2502 45.3701C70.3057 45.4263 70.3745 45.4675 70.4502 45.4901C70.4457 45.5166 70.4457 45.5436 70.4502 45.5701C70.4896 45.7573 70.5666 45.9345 70.6766 46.0909C70.7867 46.2473 70.9274 46.3798 71.0902 46.4801C71.3837 46.6168 71.7074 46.6753 72.0302 46.6501C72.0992 46.6464 72.1681 46.6611 72.2296 46.6927C72.2911 46.7243 72.343 46.7718 72.3802 46.8301C72.9955 47.4116 73.7609 47.8098 74.5902 47.9801C75.9302 48.2901 76.5002 45.3401 76.3002 45.1501ZM69.8402 41.4001L69.7502 41.1901C69.7502 41.0401 70.2302 40.4001 70.4302 40.4401L71.0502 40.5501C70.6185 40.7908 70.213 41.0757 69.8402 41.4001Z" fill="#EB8B65"/>
<path d="M69.7308 41.4002C69.5207 41.5975 69.3715 41.8508 69.3008 42.1302C69.3008 42.2402 69.4508 42.3002 69.4808 42.1302C69.5429 41.8846 69.6749 41.6623 69.8608 41.4902C69.8714 41.4717 69.8759 41.4503 69.8735 41.429C69.871 41.4078 69.8619 41.3879 69.8474 41.3723C69.8329 41.3566 69.8137 41.3461 69.7927 41.3421C69.7717 41.3381 69.75 41.341 69.7308 41.3502V41.4002Z" fill="#C45547"/>
<path d="M72.5102 41.4702C71.5106 41.8383 70.6389 42.4878 70.0002 43.3402C69.9102 43.4302 70.0002 43.5602 70.1302 43.4702C70.7642 42.6372 71.6254 42.0051 72.6102 41.6502C72.7302 41.6502 72.6802 41.4402 72.6102 41.4702H72.5102Z" fill="#C45547"/>
<path d="M73.5102 43.2701C72.3202 43.0501 71.3702 44.3601 70.7202 45.1601C70.6502 45.2601 70.7802 45.3901 70.8602 45.3001C71.4502 44.5601 72.3602 43.3001 73.4602 43.4501C73.5802 43.4501 73.6302 43.2901 73.5102 43.2701Z" fill="#C45547"/>
<path d="M72.9102 45.3902C73.004 45.3921 73.0962 45.4157 73.1794 45.459C73.2627 45.5024 73.3348 45.5644 73.3902 45.6402C73.5202 45.8702 73.2902 46.0402 73.1102 46.1502C72.861 46.3107 72.5921 46.4384 72.3102 46.5302C72.2002 46.5302 72.2502 46.7602 72.3102 46.7202C72.5936 46.6242 72.8653 46.4968 73.1202 46.3402C73.2902 46.2402 73.4902 46.1302 73.5502 45.9302C73.7002 45.4802 73.2102 45.2402 72.8602 45.2002C72.7402 45.2002 72.7402 45.3702 72.8602 45.3902H72.9102Z" fill="#C45547"/>
<path d="M82.4404 60.2499C82.5805 61.1062 82.5601 61.9811 82.3804 62.8299C82.3404 63.2 82.2319 63.5595 82.0604 63.8899C81.6404 64.3699 81.0604 64.0499 80.5804 63.8899C79.3104 63.3199 78.1704 62.4899 76.9104 61.8899C76.8004 61.8899 76.7004 61.9999 76.8104 62.0499C77.7004 62.4599 78.5204 62.9799 79.3804 63.4599C79.7959 63.7043 80.2268 63.9214 80.6704 64.1099C80.9832 64.2765 81.3209 64.3913 81.6704 64.4499C82.3004 64.4499 82.4304 63.3899 82.5304 62.8999C82.7204 62.0185 82.7408 61.1089 82.5904 60.2199C82.5904 60.0999 82.3904 60.1499 82.4104 60.2199L82.4404 60.2499Z" fill="#2B0303"/>
<path d="M81.4601 62.0999C81.0501 61.7499 80.6201 62.0999 80.6201 62.5999C80.6201 63.2499 81.6901 63.5999 81.7301 62.7999C81.7344 62.5404 81.6376 62.2894 81.4601 62.0999Z" fill="#2B0303"/>
<path d="M66.7201 69.3198C66.2001 72.5798 65.7367 75.8498 65.3301 79.1298C65.3301 79.2498 65.5101 79.2498 65.5201 79.1298C65.9334 75.8698 66.3934 72.6164 66.9001 69.3698C66.9001 69.2498 66.7401 69.1998 66.7201 69.3198Z" fill="#2B0303"/>
<path d="M39.7903 43.5499C39.578 42.365 38.993 41.2789 38.1203 40.4499C37.6803 40.0299 37.2003 39.6799 36.7903 39.2399C36.3803 38.7999 35.9003 37.9999 35.4003 37.4499C35.0803 37.0799 34.5703 36.8699 34.2903 37.4499C34.2353 37.6536 34.2312 37.8678 34.2783 38.0735C34.3254 38.2792 34.4222 38.4703 34.5603 38.6299C34.7203 38.8799 34.9103 39.1099 35.0803 39.3599C35.2503 39.6099 35.2403 39.6099 35.3103 39.7399C35.3803 39.8699 35.5203 39.9899 35.3903 40.0899C35.3058 40.1597 35.1999 40.1985 35.0903 40.1999C34.9886 40.1773 34.8931 40.1329 34.8103 40.0699C34.5523 39.8924 34.3113 39.6916 34.0903 39.4699C33.5303 38.9299 33.0003 38.3499 32.3903 37.8599C32.1003 37.6299 31.5603 37.1899 31.1703 37.4499C31.1277 37.4706 31.0908 37.5016 31.0629 37.5399C31.035 37.5783 31.0169 37.6229 31.0103 37.6699C30.947 37.6093 30.8628 37.5756 30.7753 37.5756C30.6877 37.5756 30.6036 37.6093 30.5403 37.6699C30.2103 37.9899 30.4903 38.9399 30.6303 39.2999C30.6734 39.4145 30.727 39.525 30.7903 39.6299C30.6785 39.8556 30.6163 40.1027 30.6076 40.3545C30.599 40.6062 30.6442 40.857 30.7403 41.0899C30.9166 41.4015 31.1392 41.6848 31.4003 41.9299C31.3852 42.2264 31.4546 42.5211 31.6003 42.7799C31.9203 43.2199 32.4603 43.4099 32.8503 43.7799C34.1525 44.9828 35.7739 45.7848 37.5203 46.0899C38.2346 45.396 38.8565 44.6129 39.3703 43.7599C39.3703 43.7599 39.8003 43.6199 39.7903 43.5499Z" fill="#EB8B65"/>
<path d="M31.5799 41.8002C31.8399 41.4002 32.0399 41.3602 32.1899 41.6902C32.1899 41.7602 32.2799 41.8302 32.3199 41.9102C32.3599 41.9902 32.5599 42.3202 32.6999 42.5202C32.8915 42.805 33.1532 43.0358 33.4599 43.1902C34.4599 43.6602 35.5399 42.7602 36.3799 43.7402C36.4599 43.8302 36.5899 43.6902 36.5099 43.6002C36.3497 43.3912 36.139 43.2264 35.8976 43.1215C35.6561 43.0165 35.3919 42.9747 35.1299 43.0002C34.6653 43.1149 34.1825 43.1353 33.7099 43.0602C33.1884 42.8153 32.7704 42.3937 32.5299 41.8702C32.3799 41.6202 32.1799 41.1502 31.8199 41.1302C31.4599 41.1102 31.3899 41.4802 31.3799 41.7702C31.3799 41.8902 31.5699 41.8902 31.5799 41.7702V41.8002Z" fill="#C45547"/>
<path d="M30.9998 39.86C31.8698 39.86 32.1798 41.25 32.6798 41.77C32.8294 41.9212 33.0154 42.0314 33.2198 42.09C33.6613 42.1824 34.0796 42.3626 34.4498 42.62C34.5398 42.7 34.6798 42.56 34.5798 42.49C34.3343 42.2839 34.0529 42.1246 33.7498 42.02C33.4965 41.976 33.2485 41.9056 33.0098 41.81C32.7195 41.572 32.487 41.2711 32.3298 40.93C31.9998 40.37 31.7598 39.66 30.9998 39.67C30.8698 39.67 30.8698 39.87 30.9998 39.86Z" fill="#C45547"/>
<path d="M31.2902 38.0799C31.9602 38.7399 32.0702 39.6999 32.6102 40.4399C33.1442 41.0343 33.8388 41.4615 34.6102 41.6699C34.7302 41.6699 34.7802 41.5299 34.6102 41.4899C34.1387 41.3757 33.6961 41.1647 33.3105 40.8703C32.9249 40.5759 32.6047 40.2046 32.3702 39.7799C32.1506 39.1143 31.8117 38.4942 31.3702 37.9499C31.2802 37.8599 31.1402 37.9499 31.2302 38.0799H31.2902Z" fill="#C45547"/>
<path d="M47.5801 46.0001C48.6996 46.2188 49.7375 46.7412 50.5801 47.5101C50.6701 47.6001 50.8101 47.4601 50.7201 47.3801C49.8755 46.6021 48.8407 46.0605 47.7201 45.8101C47.6001 45.8101 47.5501 45.9701 47.6701 46.0001H47.5801Z" fill="#C45547"/>
<path d="M83.6906 42.7902C83.3498 42.7866 83.0111 42.8442 82.6906 42.9602C82.5706 42.9602 82.6206 43.1902 82.6906 43.1502C82.9812 43.0391 83.2895 42.9815 83.6006 42.9802C83.7206 42.9802 83.7206 42.8002 83.6006 42.7902H83.6906Z" fill="#2B0303"/>
<path d="M37.1504 23.8C37.3337 25.5184 37.6175 27.2247 38.0004 28.91C38.0004 29.03 38.2104 28.98 38.1904 28.86C37.8101 27.1915 37.5296 25.5018 37.3504 23.8C37.3504 23.68 37.1504 23.68 37.1604 23.8H37.1504Z" fill="#2B0303"/>
<path d="M30.1098 62.0602C30.9584 62.5586 31.7242 63.1861 32.3798 63.9202C32.9741 64.7887 33.3764 65.7739 33.5598 66.8102C34.1698 69.0602 34.8698 71.2702 35.6598 73.4602C35.6598 73.5702 35.8898 73.5202 35.8498 73.4602C34.9698 71.0535 34.2064 68.6069 33.5598 66.1202C33.3751 65.2295 32.9732 64.3982 32.3898 63.7002C31.7537 63.0122 31.019 62.4225 30.2098 61.9502C30.1098 61.8802 30.0098 62.0502 30.1098 62.1102V62.0602Z" fill="#2B0303"/>
<path d="M18.0003 31.0002C17.6259 31.6865 17.4364 32.4584 17.4503 33.2402C17.4454 33.2552 17.4441 33.2712 17.4465 33.2868C17.4489 33.3024 17.455 33.3172 17.4643 33.33C17.4736 33.3428 17.4858 33.3533 17.4998 33.3604C17.5139 33.3676 17.5295 33.3714 17.5453 33.3714C17.5611 33.3714 17.5767 33.3676 17.5908 33.3604C17.6049 33.3533 17.617 33.3428 17.6263 33.33C17.6356 33.3172 17.6417 33.3024 17.6441 33.2868C17.6466 33.2712 17.6452 33.2552 17.6403 33.2402C17.6244 32.4893 17.8072 31.7476 18.1703 31.0902C18.2203 30.9902 18.0603 30.8902 18.0003 31.0002Z" fill="#C45547"/>
<path d="M15.9397 32.5099C15.8723 33.1971 15.9969 33.8894 16.2997 34.5099C16.3497 34.6299 16.5097 34.5099 16.4597 34.4199C16.1767 33.8256 16.0625 33.1648 16.1297 32.5099C16.1297 32.3899 15.9497 32.3899 15.9397 32.5099Z" fill="#C45547"/>
<path d="M14.6605 32.75C14.7382 33.4338 14.8994 34.1054 15.1405 34.75C15.1405 34.86 15.3605 34.81 15.3205 34.75C15.0901 34.1269 14.9324 33.4793 14.8505 32.82C14.8505 32.7 14.6505 32.7 14.6605 32.82V32.75Z" fill="#C45547"/>
<path d="M13.2406 32.82C13.2679 33.0865 13.356 33.3433 13.4982 33.5704C13.6403 33.7975 13.8327 33.989 14.0606 34.13C14.1606 34.2 14.2606 34.03 14.1506 33.97C13.9541 33.8422 13.7879 33.6732 13.6635 33.4745C13.5392 33.2759 13.4597 33.0525 13.4306 32.82C13.4306 32.7 13.2306 32.7 13.2406 32.82Z" fill="#C45547"/>
<path d="M42.8702 35.0001C42.8002 34.6001 42.5702 34.2501 42.1602 34.2801C41.7502 34.3101 41.4302 34.8601 41.4102 35.2801C41.4102 35.9101 42.0802 36.7601 42.7002 36.0501C42.7992 35.8962 42.8654 35.7235 42.8947 35.5429C42.9239 35.3622 42.9156 35.1774 42.8702 35.0001Z" fill="#170301"/>
<path d="M43.6204 41.62C43.4604 41.24 43.1704 40.94 42.7704 41.06C42.3704 41.18 42.1804 41.78 42.2404 42.15C42.3404 42.78 43.2404 43.46 43.6704 42.64C43.7868 42.3064 43.7689 41.9406 43.6204 41.62Z" fill="#170301"/>
<path d="M17.3597 36.1298C17.535 38.6269 17.9639 41.0996 18.6397 43.5098C18.6397 43.5337 18.6492 43.5566 18.6661 43.5735C18.683 43.5904 18.7059 43.5998 18.7297 43.5998C18.7536 43.5998 18.7765 43.5904 18.7934 43.5735C18.8103 43.5566 18.8197 43.5337 18.8197 43.5098C18.1512 41.1154 17.7257 38.6596 17.5497 36.1798C17.5497 36.0598 17.3497 36.0598 17.3597 36.1798V36.1298Z" fill="#2B0303"/>
<path d="M32.1007 23.7699C31.712 24.6158 31.107 25.3442 30.3467 25.8815C29.5864 26.4188 28.6978 26.7459 27.7707 26.8299C27.6507 26.8299 27.6507 27.0299 27.7707 27.0199C28.7301 26.9366 29.6506 26.6014 30.439 26.0483C31.2274 25.4952 31.8558 24.7437 32.2607 23.8699C32.3107 23.7599 32.1507 23.6599 32.1007 23.7699Z" fill="#2B0303"/>
<path d="M14.2207 46.3699C13.699 45.9388 13.107 45.6006 12.4707 45.3699C10.7833 44.6518 9.20203 43.7064 7.77075 42.5599C7.23075 42.0699 7.00075 41.1299 6.35075 40.9999C5.73957 40.8315 5.09021 40.8666 4.50075 41.0999C4.10578 41.4213 3.81178 41.8497 3.65394 42.3339C3.49611 42.8181 3.48111 43.3374 3.61075 43.8299C4.86388 45.4202 6.23081 46.9175 7.70075 48.3099C9.00547 49.7016 10.6931 50.6759 12.5507 51.1099C13.2599 50.878 13.8857 50.4434 14.3507 49.8599C14.7407 48.9999 14.8907 47.1399 14.2207 46.3699Z" fill="#BF6950"/>
<path d="M7.62019 42.9001C7.37068 41.8582 6.86936 40.8933 6.16019 40.0901C5.38239 39.0526 4.89253 37.8279 4.74019 36.5401C4.74019 36.4101 4.08019 35.9001 4.06019 36.2101C4.11571 35.8746 4.08474 35.5304 3.97019 35.2101C3.93388 35.144 3.88457 35.0859 3.82524 35.0393C3.76591 34.9927 3.69778 34.9586 3.62493 34.939C3.55208 34.9194 3.47603 34.9147 3.40132 34.9252C3.32661 34.9357 3.2548 34.9612 3.19019 35.0001C3.28019 34.4901 3.48019 33.6501 2.96019 33.3601C2.28019 32.9801 1.85019 33.6701 1.60019 34.3601C1.33019 33.8701 0.680194 34.6101 0.600194 34.8601C0.220507 35.762 0.0341234 36.7335 0.0530702 37.7118C0.0720171 38.6901 0.295874 39.6537 0.710194 40.5401C1.59082 42.0459 2.78436 43.3452 4.21019 44.3501C4.24433 44.3792 4.28435 44.4005 4.32751 44.4126C4.37067 44.4247 4.41594 44.4272 4.46019 44.4201C4.94019 44.6301 7.64019 43.0001 7.62019 42.9001Z" fill="#BF6950"/>
<path d="M11.25 44.7498C12.2137 44.9778 13.1195 45.4034 13.91 45.9998C14.01 46.0698 14.1 45.9098 14 45.8298C13.199 45.2241 12.2788 44.7947 11.3 44.5698C11.2762 44.5632 11.2507 44.5663 11.2291 44.5785C11.2075 44.5907 11.1917 44.6109 11.185 44.6348C11.1784 44.6587 11.1815 44.6842 11.1937 44.7058C11.2059 44.7273 11.2262 44.7432 11.25 44.7498Z" fill="#66281B"/>
<path d="M3.88025 36.52C3.92071 37.3376 4.09993 38.1424 4.41025 38.9C4.41025 39.02 4.64025 38.97 4.59025 38.9C4.28792 38.1578 4.11215 37.3702 4.07025 36.57C4.07025 36.45 3.87025 36.45 3.88025 36.57V36.52Z" fill="#66281B"/>
<path d="M2.89049 35.3698C2.70435 36.3638 2.72819 37.3857 2.96049 38.3698C2.96049 38.4898 3.17049 38.4398 3.15049 38.3698C2.91234 37.4068 2.88844 36.4032 3.08049 35.4298C3.08049 35.3098 2.92049 35.2598 2.89049 35.3798V35.3698Z" fill="#66281B"/>
<path d="M1.59046 34.7C1.23901 35.8241 1.22164 37.0261 1.54046 38.16C1.54046 38.27 1.77046 38.23 1.72046 38.16C1.41023 37.0584 1.4311 35.8898 1.78046 34.8C1.78046 34.68 1.62046 34.63 1.59046 34.8V34.7Z" fill="#66281B"/>
<path d="M29 4.86994C29.2787 5.24617 29.4461 5.69311 29.4833 6.15985C29.5204 6.62659 29.4257 7.09438 29.21 7.50994C29.21 7.61994 29.32 7.71994 29.38 7.60994C29.6108 7.16339 29.7134 6.66159 29.6763 6.16026C29.6393 5.65894 29.464 5.17769 29.17 4.76994C29.1 4.67994 28.93 4.76994 29 4.86994Z" fill="#2B0303"/>
<path d="M27.35 5.11992C27.7578 5.69696 28.0936 6.32157 28.35 6.97992C28.35 7.08992 28.5801 7.03992 28.5301 6.92992C28.2764 6.24453 27.9334 5.5956 27.51 4.99992C27.44 4.89992 27.27 4.99992 27.35 5.09992V5.11992Z" fill="#2B0303"/>
<path d="M20.9999 5.38997C20.7576 5.91165 20.7132 6.50367 20.8751 7.05565C21.037 7.60763 21.3942 8.08188 21.8799 8.38997C21.9899 8.45997 22.0799 8.28997 21.9799 8.22997C21.5263 7.9476 21.1922 7.50847 21.041 6.99598C20.8899 6.48348 20.9322 5.93332 21.1599 5.44997C21.2099 5.33997 21.0499 5.23997 20.9999 5.34997V5.38997Z" fill="#2B0303"/>
<path d="M20.08 7.68006C20.1655 7.91195 20.3071 8.1191 20.492 8.28309C20.6769 8.44709 20.8995 8.56284 21.14 8.62006C21.1518 8.62334 21.1641 8.62427 21.1763 8.62278C21.1885 8.62129 21.2003 8.61741 21.2109 8.61138C21.2216 8.60534 21.231 8.59726 21.2386 8.5876C21.2461 8.57794 21.2517 8.56688 21.255 8.55506C21.2583 8.54324 21.2592 8.53089 21.2577 8.51872C21.2562 8.50654 21.2523 8.49478 21.2463 8.4841C21.2403 8.47342 21.2322 8.46404 21.2225 8.45648C21.2128 8.44892 21.2018 8.44334 21.19 8.44006C20.9818 8.39111 20.789 8.29159 20.6285 8.1503C20.468 8.00901 20.3449 7.83032 20.27 7.63006C20.22 7.51006 20.04 7.56006 20.08 7.63006V7.68006Z" fill="#2B0303"/>
<path d="M21.5804 4.39012C21.9545 4.10756 22.3832 3.90569 22.8393 3.79725C23.2955 3.68881 23.7691 3.67617 24.2304 3.76012C24.2422 3.7634 24.2546 3.76432 24.2667 3.76283C24.2789 3.76134 24.2907 3.75747 24.3014 3.75143C24.312 3.7454 24.3214 3.73732 24.329 3.72766C24.3365 3.71799 24.3421 3.70694 24.3454 3.69512C24.3487 3.6833 24.3496 3.67095 24.3481 3.65877C24.3466 3.6466 24.3427 3.63483 24.3367 3.62415C24.3307 3.61348 24.3226 3.60409 24.3129 3.59653C24.3033 3.58898 24.2922 3.5834 24.2804 3.58012C23.7942 3.48725 23.2939 3.4971 22.8117 3.60904C22.3295 3.72099 21.876 3.93254 21.4804 4.23012C21.3704 4.29012 21.4804 4.45012 21.5804 4.39012Z" fill="#2B0303"/>
<path d="M22.1501 3.87998C22.1101 3.50876 21.9392 3.16391 21.668 2.90733C21.3967 2.65076 21.0429 2.49924 20.6701 2.47998C20.5501 2.47998 20.5501 2.65998 20.6701 2.66998C20.9998 2.67944 21.3152 2.80667 21.5592 3.02864C21.8032 3.25061 21.9596 3.55263 22.0001 3.87998C22.0001 3.99998 22.2001 3.99998 22.1901 3.87998H22.1501Z" fill="#2B0303"/>
<path d="M22.9999 3.66023C23.3298 3.28778 23.539 2.82404 23.5999 2.33023C23.5999 2.21023 23.4199 2.21023 23.4099 2.33023C23.3498 2.77109 23.1621 3.18475 22.8699 3.52023C22.7899 3.61023 22.8699 3.75023 22.9999 3.66023Z" fill="#2B0303"/>
<path d="M17.9999 70.92C19.254 71.5804 20.3179 72.5513 21.0899 73.74C21.1499 73.84 21.3199 73.74 21.2499 73.64C20.4608 72.426 19.3771 71.4318 18.0999 70.75C17.9899 70.75 17.8899 70.86 17.9999 70.92Z" fill="#2B0303"/>
<path d="M50.5406 19.2302C50.3106 19.1802 50.3306 19.3702 50.4206 19.6402C50.6606 20.3402 50.9406 20.1702 50.6806 21.9802C50.3306 24.3602 50.1506 30.6802 50.5306 32.3402C50.5306 32.3402 52.8306 26.5102 53.5306 24.8302C53.7167 24.5037 53.8357 24.1433 53.8806 23.7702C53.5806 21.7402 52.2306 19.6802 50.5406 19.2302Z" fill="#D1A243"/>
<path d="M79.2404 32.12C79.2404 32.12 78.7604 31.81 78.7104 31.91C78.7322 31.8702 78.7437 31.8254 78.7437 31.78C78.7437 31.7345 78.7322 31.6898 78.7104 31.65C78.6273 31.4851 78.5001 31.3464 78.343 31.2493C78.1859 31.1522 78.005 31.1006 77.8204 31.1C77.8072 31.0987 77.7944 31.0949 77.7828 31.0887C77.7711 31.0825 77.7608 31.074 77.7524 31.0638C77.744 31.0535 77.7378 31.0418 77.734 31.0291C77.7302 31.0164 77.729 31.0031 77.7304 30.99C77.6996 30.8163 77.6116 30.6579 77.4804 30.54C77.3393 30.3743 77.1562 30.2497 76.9503 30.1793C76.7444 30.1089 76.5233 30.0953 76.3104 30.14C76.2931 30.0973 76.2657 30.0595 76.2304 30.03C75.9792 29.7992 75.663 29.6514 75.3248 29.6066C74.9867 29.5619 74.6429 29.6224 74.3404 29.78C74.1169 29.7336 73.8882 29.7167 73.6604 29.73C73.4904 29.73 73.3004 29.79 73.2304 29.97C73.1914 30.0662 73.1914 30.1738 73.2304 30.27C73.2304 30.36 73.4404 30.46 73.4504 30.54C73.4604 30.62 73.3504 30.81 73.3304 30.89C73.2504 31.21 73.2704 31.51 73.6104 31.64C73.9504 31.77 74.4704 31.42 74.9004 31.19C74.9004 31.28 74.8004 31.36 74.7604 31.45C74.5804 31.86 74.7604 32.45 75.2904 32.33C75.5904 32.26 75.8104 31.95 76.0704 31.8C76.1822 31.7366 76.2993 31.6831 76.4204 31.64C76.3246 31.7425 76.2376 31.8529 76.1604 31.97C75.9804 32.31 76.0604 32.83 76.5304 32.8C76.8104 32.8 77.5304 32.15 77.9104 32.21C77.7204 32.37 77.5504 32.56 77.3704 32.73C77.1904 32.9 77.0004 33.17 77.1304 33.46C77.1516 33.5137 77.187 33.5606 77.2328 33.5958C77.2786 33.6311 77.333 33.6532 77.3904 33.66C77.9504 33.66 78.4604 32.89 79.0204 33.18C79.3004 33.32 79.4204 33.02 79.4504 32.77C79.4553 32.7201 79.4553 32.6699 79.4504 32.62C79.4433 32.4334 79.3687 32.2557 79.2404 32.12Z" fill="#EB8B65"/>
<path d="M76.2003 30.1898C75.7579 30.3235 75.3626 30.5802 75.0603 30.9298C74.9803 31.0198 75.0603 31.1598 75.1903 31.0598C75.4749 30.7405 75.8415 30.5054 76.2503 30.3798C76.3603 30.3798 76.3103 30.1598 76.2503 30.1898H76.2003Z" fill="#C45547"/>
<path d="M74.3202 29.8198C74.1902 29.8198 74.0502 29.9398 73.9602 30.0198C73.8261 30.1173 73.7051 30.2316 73.6002 30.3598C73.5202 30.4498 73.6602 30.5898 73.7302 30.4898C73.8185 30.3948 73.912 30.3047 74.0102 30.2198L74.1602 30.0998C74.1602 30.0998 74.2702 30.0098 74.3202 30.0098C74.3702 30.0098 74.4402 29.8298 74.3202 29.8198Z" fill="#C45547"/>
<path d="M77.6399 31.1102C77.2243 31.1208 76.8224 31.2606 76.4899 31.5102C76.3899 31.5902 76.4899 31.7302 76.6199 31.6502C76.9103 31.4353 77.2589 31.3133 77.6199 31.3002C77.7399 31.3002 77.7399 31.0902 77.6199 31.1102H77.6399Z" fill="#C45547"/>
<path d="M78.59 31.9102C78.4133 31.9491 78.242 32.0095 78.08 32.0902C77.97 32.0902 78.08 32.3102 78.18 32.2602C78.3258 32.1848 78.4803 32.1277 78.64 32.0902C78.6639 32.0902 78.6868 32.0807 78.7036 32.0638C78.7205 32.0469 78.73 32.024 78.73 32.0002C78.73 31.9763 78.7205 31.9534 78.7036 31.9365C78.6868 31.9196 78.6639 31.9102 78.64 31.9102H78.59Z" fill="#C45547"/>
</svg>
