<svg width="102" height="78" viewBox="0 0 102 78" fill="none" xmlns="http://www.w3.org/2000/svg">
<path d="M23.2404 18.68C23.2404 21.88 22.0104 23.48 22.0104 25.39C22.0104 27.66 23.2404 31.25 23.2404 35.19V56.69C23.2404 58.99 18.6404 60.85 12.9704 60.85C7.30043 60.85 2.69043 59 2.69043 56.69V35.19C2.69043 31.25 3.93043 27.66 3.93043 25.39C3.93043 23.48 2.69043 21.88 2.69043 18.68V11.68C2.69043 9.38002 7.29043 7.52002 12.9704 7.52002C18.6504 7.52002 23.2404 9.38002 23.2404 11.68V18.68Z" fill="#F5E3D9"/>
<path d="M21.9098 3.54C21.7498 1.54 17.7698 0 12.9098 0C8.04976 0 3.99976 1.57 3.84976 3.54C3.63602 5.03574 3.63602 6.55426 3.84976 8.05C4.06976 9.99 8.02976 11.54 12.8498 11.54C17.6698 11.54 21.6598 9.99 21.8498 8.05C22.0834 6.55711 22.1036 5.03858 21.9098 3.54Z" fill="#6699FF"/>
<path d="M5.89991 14.4699C9.42966 15.4809 13.1426 15.6792 16.7599 15.0499C17.7744 14.8662 18.7764 14.6191 19.7599 14.3099C20.3299 14.1299 20.0899 13.2299 19.5099 13.4099C15.1531 14.7822 10.4882 14.8379 6.09991 13.5699C5.98583 13.5516 5.86902 13.5761 5.7718 13.6385C5.67457 13.7009 5.60373 13.7969 5.57281 13.9082C5.54189 14.0195 5.55305 14.1383 5.60416 14.2419C5.65528 14.3455 5.74276 14.4267 5.84991 14.4699H5.89991Z" fill="#2D2745"/>
<path d="M5.81007 5.31023C9.33906 6.32453 13.052 6.52625 16.6701 5.90023C17.6858 5.71781 18.688 5.46724 19.6701 5.15023C20.2401 4.97023 20.0001 4.08023 19.4201 4.26023C15.0617 5.62252 10.3997 5.67815 6.01007 4.42023C5.95164 4.40381 5.89054 4.39907 5.83027 4.40627C5.76999 4.41346 5.71173 4.43246 5.6588 4.46218C5.5519 4.52219 5.47323 4.62221 5.44007 4.74023C5.42366 4.79867 5.41892 4.85976 5.42611 4.92004C5.43331 4.98031 5.45231 5.03857 5.48202 5.0915C5.51174 5.14443 5.55159 5.19099 5.5993 5.22852C5.647 5.26605 5.70164 5.29381 5.76007 5.31023H5.81007Z" fill="#2D2745"/>
<path d="M16.3103 33.2001C16.3029 33.4496 16.2694 33.6976 16.2103 33.9401C16.046 34.6797 15.6306 35.3397 15.0348 35.8078C14.4391 36.2759 13.6996 36.5234 12.9421 36.5081C12.1845 36.4927 11.4556 36.2156 10.8793 35.7238C10.3029 35.232 9.91458 34.5558 9.78029 33.8101C9.27029 31.4401 11.4503 28.1301 12.4703 26.0701C12.5204 25.9713 12.597 25.8883 12.6914 25.8303C12.7858 25.7724 12.8945 25.7417 13.0053 25.7417C13.1161 25.7417 13.2247 25.7724 13.3192 25.8303C13.4136 25.8883 13.4901 25.9713 13.5403 26.0701C14.4703 28.0001 16.3803 30.8801 16.3103 33.2001Z" fill="white"/>
<path d="M33.4099 14.41C37.2168 10.0366 41.6279 6.22826 46.5099 3.10002C53.7199 -1.21998 58.8299 1.60002 58.4399 6.93002C58.0499 12.26 51.1599 20.58 51.1599 20.58L47.0599 18.58C47.0599 18.58 54.7199 10.45 55.7299 5.34002C55.7299 5.34002 48.9099 5.46002 40.0799 15.85C31.2499 26.24 33.4099 14.41 33.4099 14.41Z" fill="#F0D2C2"/>
<path d="M55.82 5.83977C56.2749 6.34107 56.616 6.93492 56.8197 7.58051C57.0233 8.22611 57.0849 8.90815 57 9.57977C56.9743 9.6988 56.9939 9.82311 57.0549 9.92848C57.1159 10.0339 57.214 10.1127 57.33 10.1498C57.3884 10.1665 57.4496 10.1715 57.51 10.1644C57.5703 10.1573 57.6287 10.1384 57.6817 10.1086C57.7347 10.0789 57.7813 10.0389 57.8187 9.99105C57.8562 9.94318 57.8838 9.88837 57.9 9.82977C58.0233 9.0017 57.9646 8.1567 57.728 7.35363C57.4914 6.55056 57.0825 5.80872 56.53 5.17977C56.442 5.09305 56.3235 5.04443 56.2 5.04443C56.0765 5.04443 55.9579 5.09305 55.87 5.17977C55.7878 5.27001 55.7422 5.38769 55.7422 5.50977C55.7422 5.63185 55.7878 5.74953 55.87 5.83977H55.82Z" fill="#2D2745"/>
<path d="M56.1504 14.9999C56.1504 14.9999 67.6604 1.44989 76.3004 1.28989C84.9404 1.12989 87.4504 7.91989 86.4804 12.2899C85.5104 16.6599 78.6804 18.1799 76.0804 27.4699C73.1904 37.7799 71.2704 22.7199 71.2704 22.7199C73.0587 19.6593 75.1528 16.788 77.5204 14.1499C80.6204 10.9999 83.7704 9.14989 83.9804 7.44989C84.1904 5.74989 78.9204 5.29989 75.2504 7.44989C71.5804 9.59989 68.4304 11.7199 63.4804 18.6399C58.5304 25.5599 56.1504 14.9999 56.1504 14.9999Z" fill="#F0D2C2"/>
<path d="M83.6508 7.69007C84.8456 9.42133 85.3552 11.5345 85.0808 13.6201C85.0833 13.7439 85.1337 13.862 85.2213 13.9496C85.3089 14.0372 85.4269 14.0875 85.5508 14.0901C85.6729 14.085 85.7884 14.0336 85.8739 13.9462C85.9594 13.8589 86.0083 13.7422 86.0108 13.6201C86.2919 11.3677 85.7368 9.09047 84.4508 7.22007C84.1108 6.73007 83.3108 7.22007 83.6508 7.69007Z" fill="#2D2745"/>
<path d="M82.72 13.5902L84.31 15.0002C84.3548 15.0465 84.4084 15.0832 84.4677 15.1084C84.5269 15.1335 84.5907 15.1465 84.655 15.1465C84.7194 15.1465 84.7831 15.1335 84.8424 15.1084C84.9017 15.0832 84.9553 15.0465 85 15.0002C85.0868 14.9122 85.1354 14.7937 85.1354 14.6702C85.1354 14.5467 85.0868 14.4281 85 14.3402L83.41 12.8902C83.3197 12.8191 83.2063 12.7836 83.0915 12.7904C82.9767 12.7972 82.8684 12.8459 82.7871 12.9272C82.7058 13.0085 82.6571 13.1169 82.6502 13.2317C82.6434 13.3465 82.6789 13.4598 82.75 13.5502L82.72 13.5902Z" fill="#2D2745"/>
<path d="M80 16.5298L81.55 17.9998C81.6404 18.071 81.7537 18.1065 81.8686 18.0996C81.9834 18.0928 82.0917 18.0441 82.173 17.9628C82.2543 17.8815 82.303 17.7732 82.3098 17.6584C82.3167 17.5435 82.2812 17.4302 82.21 17.3398L80.61 15.8898C80.5238 15.8037 80.4069 15.7554 80.285 15.7554C80.1632 15.7554 80.0463 15.8037 79.96 15.8898C79.9162 15.9318 79.8813 15.9823 79.8574 16.0381C79.8336 16.094 79.8213 16.1541 79.8213 16.2148C79.8213 16.2756 79.8336 16.3357 79.8574 16.3915C79.8813 16.4474 79.9162 16.4978 79.96 16.5398L80 16.5298Z" fill="#2D2745"/>
<path d="M77.1006 19.4598L78.7006 20.9099C78.791 20.981 78.9043 21.0165 79.0191 21.0097C79.134 21.0028 79.2423 20.9541 79.3236 20.8728C79.4049 20.7915 79.4536 20.6832 79.4604 20.5684C79.4673 20.4536 79.4317 20.3402 79.3606 20.2499L77.7606 18.7998C77.6702 18.7287 77.5569 18.6932 77.4421 18.7C77.3273 18.7069 77.219 18.7556 77.1377 18.8369C77.0563 18.9182 77.0077 19.0265 77.0008 19.1413C76.994 19.2561 77.0295 19.3695 77.1006 19.4598Z" fill="#2D2745"/>
<path d="M75.0006 5.37013L76.6006 6.82013C76.6881 6.90387 76.8045 6.95061 76.9256 6.95061C77.0467 6.95061 77.1631 6.90387 77.2506 6.82013C77.2948 6.77726 77.3299 6.72596 77.3538 6.66928C77.3778 6.61259 77.3902 6.55167 77.3902 6.49013C77.3902 6.42859 77.3778 6.36767 77.3538 6.31099C77.3299 6.25431 77.2948 6.20301 77.2506 6.16013L75.6206 4.71013C75.5796 4.65793 75.5279 4.61503 75.469 4.58426C75.4102 4.55348 75.3454 4.53553 75.2791 4.53159C75.2128 4.52765 75.1464 4.53781 75.0844 4.56139C75.0223 4.58498 74.9659 4.62146 74.9189 4.66842C74.8719 4.71539 74.8355 4.77178 74.8119 4.83387C74.7883 4.89596 74.7781 4.96235 74.7821 5.02865C74.786 5.09495 74.804 5.15967 74.8347 5.21853C74.8655 5.27739 74.9084 5.32906 74.9606 5.37013H75.0006Z" fill="#2D2745"/>
<path d="M70.91 7.39003L72.5 8.85003C72.541 8.90223 72.5927 8.94513 72.6516 8.9759C72.7104 9.00668 72.7751 9.02463 72.8414 9.02857C72.9077 9.03251 72.9741 9.02235 73.0362 8.99877C73.0983 8.97518 73.1547 8.9387 73.2017 8.89174C73.2486 8.84477 73.2851 8.78838 73.3087 8.72629C73.3323 8.6642 73.3424 8.59781 73.3385 8.53151C73.3345 8.4652 73.3166 8.40049 73.2858 8.34163C73.255 8.28277 73.2122 8.2311 73.16 8.19003L71.5599 6.74003C71.5179 6.69445 71.4672 6.65784 71.4106 6.63238C71.3541 6.60692 71.293 6.59315 71.2311 6.59189C71.1691 6.59063 71.1075 6.60191 71.05 6.62504C70.9925 6.64818 70.9403 6.6827 70.8964 6.72653C70.8526 6.77036 70.8181 6.82259 70.795 6.88009C70.7718 6.9376 70.7606 6.99918 70.7618 7.06115C70.7631 7.12312 70.7768 7.1842 70.8023 7.24071C70.8278 7.29723 70.8644 7.34802 70.91 7.39003Z" fill="#2D2745"/>
<path d="M67.3105 9.91987L68.9005 11.3699C68.9909 11.441 69.1042 11.4765 69.219 11.4697C69.3338 11.4629 69.4421 11.4142 69.5234 11.3328C69.6048 11.2515 69.6534 11.1432 69.6603 11.0284C69.6671 10.9136 69.6316 10.8003 69.5605 10.7099L68.0005 9.25987C67.913 9.17614 67.7966 9.12939 67.6755 9.12939C67.5544 9.12939 67.4379 9.17614 67.3505 9.25987C67.3063 9.30275 67.2712 9.35405 67.2473 9.41073C67.2233 9.46741 67.2109 9.52833 67.2109 9.58987C67.2109 9.65142 67.2233 9.71233 67.2473 9.76902C67.2712 9.8257 67.3063 9.877 67.3505 9.91987H67.3105Z" fill="#2D2745"/>
<path d="M50.3799 4.72987L51.9999 6.17987C52.0874 6.26361 52.2038 6.31035 52.3249 6.31035C52.446 6.31035 52.5624 6.26361 52.6499 6.17987C52.694 6.13699 52.7291 6.0857 52.7531 6.02901C52.7771 5.97233 52.7894 5.91141 52.7894 5.84987C52.7894 5.78833 52.7771 5.72741 52.7531 5.67073C52.7291 5.61404 52.694 5.56274 52.6499 5.51987L50.9999 4.06987C50.9095 3.99875 50.7962 3.96324 50.6814 3.97007C50.5666 3.97689 50.4582 4.02557 50.3769 4.1069C50.2956 4.18822 50.2469 4.29654 50.2401 4.41135C50.2333 4.52616 50.2688 4.63948 50.3399 4.72987H50.3799Z" fill="#2D2745"/>
<path d="M46.4004 6.84999L48.0004 8.29999C48.0415 8.35219 48.0932 8.39509 48.152 8.42586C48.2109 8.45664 48.2756 8.47459 48.3419 8.47853C48.4082 8.48247 48.4746 8.47231 48.5367 8.44873C48.5988 8.42514 48.6552 8.38866 48.7021 8.3417C48.7491 8.29473 48.7856 8.23834 48.8092 8.17625C48.8328 8.11416 48.8429 8.04777 48.839 7.98147C48.835 7.91516 48.8171 7.85045 48.7863 7.79159C48.7555 7.73273 48.7126 7.68106 48.6604 7.63999L47.0604 6.18999C46.9701 6.11887 46.8567 6.08336 46.7419 6.09018C46.6271 6.09701 46.5188 6.14569 46.4375 6.22702C46.3561 6.30834 46.3075 6.41666 46.3006 6.53147C46.2938 6.64628 46.3293 6.7596 46.4004 6.84999Z" fill="#2D2745"/>
<path d="M42.91 9.45991L44.5 10.9099C44.588 10.9966 44.7065 11.0452 44.83 11.0452C44.9535 11.0452 45.0721 10.9966 45.16 10.9099C45.2444 10.8208 45.2915 10.7027 45.2915 10.5799C45.2915 10.4572 45.2444 10.3391 45.16 10.2499L43.56 8.79991C43.4726 8.71618 43.3561 8.66943 43.235 8.66943C43.1139 8.66943 42.9975 8.71618 42.91 8.79991C42.8659 8.84279 42.8308 8.89409 42.8068 8.95077C42.7829 9.00745 42.7705 9.06837 42.7705 9.12991C42.7705 9.19145 42.7829 9.25237 42.8068 9.30906C42.8308 9.36574 42.8659 9.41704 42.91 9.45991Z" fill="#2D2745"/>
<path d="M38.8404 3.57008C38.9127 3.59832 38.9764 3.64477 39.0254 3.70492C39.0744 3.76506 39.1071 3.83686 39.1202 3.91334C39.1332 3.98983 39.1263 4.06839 39.1001 4.14141C39.0738 4.21443 39.0292 4.27942 38.9704 4.33008C35.2303 7.7391 32.521 12.1286 31.1504 17.0001C28.3604 26.1901 24.9004 17.6701 24.9004 17.6701C24.9004 17.6701 25.4504 9.10008 34.5404 2.27008C34.6399 2.19713 34.7564 2.15061 34.8788 2.13487C35.0012 2.11913 35.1256 2.13468 35.2404 2.18008L38.8404 3.57008Z" fill="#F0D2C2"/>
<path d="M98.3904 20.56C98.4555 20.6133 98.5052 20.6831 98.5341 20.7621C98.5631 20.8412 98.5703 20.9266 98.5549 21.0093C98.5396 21.0921 98.5023 21.1692 98.447 21.2327C98.3917 21.2961 98.3203 21.3435 98.2404 21.37C95.998 22.1366 93.9296 23.3399 92.1549 24.9104C90.3801 26.4809 88.9341 28.3875 87.9004 30.52C83.6304 39.12 81.6504 31.19 81.6504 31.19C81.6504 31.19 85.8604 20.13 95.4404 18.49C95.5352 18.475 95.632 18.4798 95.7249 18.5038C95.8178 18.5279 95.9048 18.5709 95.9804 18.63L98.3904 20.56Z" fill="#F0D2C2"/>
<path d="M33.5403 7.23976L35.5403 8.06976C35.6003 8.082 35.6622 8.08212 35.7223 8.07009C35.7824 8.05807 35.8395 8.03416 35.8903 7.99976C35.991 7.93861 36.0658 7.8425 36.1003 7.72976C36.1174 7.66958 36.1218 7.60648 36.1132 7.54449C36.1046 7.4825 36.0832 7.42299 36.0503 7.36976C35.9828 7.27062 35.8843 7.19674 35.7703 7.15976L33.7703 6.31976C33.6497 6.2888 33.5218 6.30592 33.4135 6.36749C33.3053 6.42906 33.2253 6.53028 33.1903 6.64976C33.1462 6.76227 33.1462 6.88726 33.1903 6.99976C33.2572 7.10161 33.3555 7.17885 33.4703 7.21976L33.5403 7.23976Z" fill="#2D2745"/>
<path d="M31.3003 10.4901L33.3003 11.3301C33.4223 11.3591 33.5508 11.3413 33.6603 11.2801C33.7594 11.2126 33.8333 11.1141 33.8703 11.0001C33.8948 10.945 33.9075 10.8854 33.9075 10.8251C33.9075 10.7648 33.8948 10.7051 33.8703 10.6501C33.8049 10.5508 33.7107 10.474 33.6003 10.4301L31.6003 9.60007C31.5435 9.57529 31.4822 9.5625 31.4203 9.5625C31.3583 9.5625 31.297 9.57529 31.2403 9.60007C31.1863 9.63012 31.1389 9.67074 31.1009 9.71952C31.0629 9.76829 31.0352 9.82422 31.0193 9.88396C31.0035 9.94369 30.9998 10.006 31.0085 10.0672C31.0173 10.1284 31.0383 10.1872 31.0703 10.2401C31.1377 10.3392 31.2362 10.4131 31.3503 10.4501L31.3003 10.4901Z" fill="#2D2745"/>
<path d="M90.8507 22.7698L92.4407 24.2298C92.5311 24.3009 92.6444 24.3364 92.7592 24.3296C92.874 24.3228 92.9823 24.2741 93.0636 24.1928C93.145 24.1115 93.1936 24.0031 93.2005 23.8883C93.2073 23.7735 93.1718 23.6602 93.1007 23.5698L91.5007 22.1198C91.4144 22.0337 91.2975 21.9854 91.1757 21.9854C91.0538 21.9854 90.9369 22.0337 90.8507 22.1198C90.8068 22.1618 90.7719 22.2123 90.748 22.2681C90.7242 22.324 90.7119 22.3841 90.7119 22.4448C90.7119 22.5055 90.7242 22.5656 90.748 22.6215C90.7719 22.6774 90.8068 22.7278 90.8507 22.7698Z" fill="#2D2745"/>
<path d="M87.8402 25.7198L89.4302 27.1798C89.5193 27.2642 89.6374 27.3112 89.7602 27.3112C89.883 27.3112 90.001 27.2642 90.0902 27.1798C90.1769 27.0919 90.2255 26.9733 90.2255 26.8498C90.2255 26.7263 90.1769 26.6078 90.0902 26.5198L88.5002 25.0698C88.414 24.9823 88.2966 24.9326 88.1737 24.9317C88.0509 24.9307 87.9327 24.9786 87.8452 25.0648C87.7577 25.151 87.708 25.2684 87.707 25.3913C87.7061 25.5141 87.754 25.6323 87.8402 25.7198Z" fill="#2D2745"/>
<path d="M38.9999 4.3201C38.4363 4.8151 37.8989 5.33914 37.3899 5.8901L32.4199 4.0501C33.0699 3.4601 33.7699 2.8701 34.5399 2.2901C34.6395 2.21715 34.7559 2.17063 34.8783 2.15489C35.0007 2.13915 35.1252 2.1547 35.2399 2.2001L38.8399 3.5701C38.9144 3.59335 38.9814 3.636 39.034 3.69368C39.0866 3.75136 39.1229 3.82199 39.1392 3.89833C39.1555 3.97466 39.1511 4.05396 39.1267 4.12808C39.1022 4.20219 39.0585 4.26847 38.9999 4.3201Z" fill="#2D2745"/>
<path d="M98.2408 21.37C97.59 21.5901 96.9523 21.8472 96.3308 22.14L93.0508 19.14C93.8276 18.861 94.6273 18.6502 95.4408 18.51C95.5356 18.4951 95.6324 18.4998 95.7253 18.5239C95.8182 18.548 95.9052 18.5909 95.9808 18.65L98.3908 20.58C98.4509 20.634 98.4961 20.7027 98.5219 20.7793C98.5478 20.8559 98.5535 20.9378 98.5384 21.0173C98.5233 21.0967 98.488 21.1709 98.4359 21.2327C98.3837 21.2945 98.3165 21.3417 98.2408 21.37Z" fill="#2D2745"/>
<path d="M67.0001 14.74C56.3901 9.82005 47.5601 18.47 47.5601 18.47C47.5601 18.47 38.7001 9.82005 28.0901 14.74C15.5901 20.55 18.5901 37.3401 29.6701 46.2401C35.8901 51.2401 42.6701 56.17 45.8101 58.39C46.3109 58.7513 46.9127 58.9457 47.5301 58.9457C48.1476 58.9457 48.7494 58.7513 49.2501 58.39C52.3601 56.17 59.1701 51.23 65.3901 46.2401C76.4801 37.3401 79.4701 20.55 67.0001 14.74Z" fill="#FF624A"/>
<path d="M22.5305 37.1102H36.8105C36.9221 37.0938 37.0241 37.0378 37.0979 36.9524C37.1716 36.867 37.2122 36.758 37.2122 36.6452C37.2122 36.5324 37.1716 36.4233 37.0979 36.338C37.0241 36.2526 36.9221 36.1966 36.8105 36.1802H22.5305C22.4189 36.1966 22.3169 36.2526 22.2432 36.338C22.1695 36.4233 22.1289 36.5324 22.1289 36.6452C22.1289 36.758 22.1695 36.867 22.2432 36.9524C22.3169 37.0378 22.4189 37.0938 22.5305 37.1102Z" fill="#F0D2C2"/>
<path d="M37.2106 36.8798C39.0527 34.0983 41.0561 31.427 43.2106 28.8798L44.0006 27.9998C44.2455 27.6878 44.5393 27.4177 44.8706 27.1998C45.4106 26.9098 45.8706 27.2998 46.0606 27.7898C46.1712 28.0739 46.232 28.375 46.2406 28.6798L46.3306 30.0498C46.3906 30.9598 46.4306 31.8698 46.4706 32.7898C46.6206 36.4298 46.6706 40.0698 46.8306 43.6998C46.8706 44.6198 46.9206 45.5398 46.9806 46.4598C46.9806 46.9198 47.0406 47.3798 47.0806 47.8398C47.0835 48.2536 47.1475 48.6647 47.2706 49.0598C47.3204 49.2429 47.4144 49.411 47.5443 49.5494C47.6743 49.6877 47.8362 49.7921 48.0159 49.8533C48.1955 49.9145 48.3875 49.9307 48.5748 49.9004C48.7622 49.8702 48.9393 49.7944 49.0906 49.6798C49.3307 49.4298 49.5178 49.1339 49.6406 48.8098L50.3006 47.4598C52.1006 43.7598 53.9206 40.0531 55.7606 36.3398C56.0206 35.8098 55.2206 35.3398 54.9606 35.8798L50.0506 45.8798L48.8306 48.3798C48.7506 48.5298 48.5906 49.0598 48.3906 49.0498C48.1906 49.0398 48.0506 48.5098 48.0306 48.3198C47.8506 46.4898 47.7906 44.6498 47.7106 42.8198C47.5706 39.1898 47.5206 35.5498 47.3506 31.9098C47.3506 30.9998 47.2506 30.0898 47.1906 29.1798C47.212 28.4523 47.0431 27.7319 46.7006 27.0898C46.538 26.7902 46.2886 26.5469 45.9852 26.3916C45.6819 26.2364 45.3386 26.1764 45.0006 26.2198C44.2746 26.4393 43.644 26.8973 43.2106 27.5198C40.7488 30.3261 38.4802 33.2962 36.4206 36.4098C36.0806 36.9098 36.8906 37.4098 37.2206 36.8798H37.2106Z" fill="#F0D2C2"/>
<path d="M55.3899 36.5501H72.8199C72.9315 36.5337 73.0335 36.4777 73.1072 36.3923C73.181 36.307 73.2215 36.1979 73.2215 36.0851C73.2215 35.9723 73.181 35.8633 73.1072 35.7779C73.0335 35.6925 72.9315 35.6365 72.8199 35.6201H55.3899C55.2783 35.6365 55.1763 35.6925 55.1026 35.7779C55.0289 35.8633 54.9883 35.9723 54.9883 36.0851C54.9883 36.1979 55.0289 36.307 55.1026 36.3923C55.1763 36.4777 55.2783 36.5337 55.3899 36.5501Z" fill="#F0D2C2"/>
<path d="M23.0803 27.1701C23.7761 23.5744 25.8139 20.3782 28.7803 18.2301C28.8328 18.1993 28.8788 18.1584 28.9155 18.1098C28.9522 18.0611 28.979 18.0058 28.9943 17.9468C29.0096 17.8878 29.0132 17.8264 29.0048 17.7661C28.9964 17.7058 28.9762 17.6477 28.9453 17.5951C28.9144 17.5426 28.8735 17.4967 28.8249 17.4599C28.7763 17.4232 28.7209 17.3964 28.662 17.3811C28.603 17.3658 28.5416 17.3622 28.4813 17.3707C28.4209 17.3791 28.3628 17.3993 28.3103 17.4301C25.1356 19.6999 22.9438 23.0929 22.1803 26.9201C22.0703 27.5001 22.9603 27.7501 23.0803 27.1701Z" fill="#F0D2C2"/>
<path d="M100.63 32.1199C100.533 31.9966 100.408 31.898 100.266 31.8319C100.123 31.7659 99.9671 31.7344 99.8101 31.7399C99.5196 31.7398 99.2363 31.8307 99.0001 31.9999C98.9215 32.0599 98.8595 32.1391 98.8201 32.2299C98.7904 32.3311 98.7904 32.4387 98.8201 32.5399L99.1001 33.5399V33.6799C99.0958 33.6996 99.0958 33.7201 99.1001 33.7399C99.1561 33.8245 99.238 33.8888 99.3335 33.923C99.4291 33.9573 99.5331 33.9597 99.6301 33.9299H99.7201C99.9437 33.8262 100.142 33.675 100.301 33.4867C100.46 33.2984 100.576 33.0776 100.64 32.8399C100.726 32.607 100.723 32.3503 100.63 32.1199Z" fill="#AEB3BF"/>
<path d="M89.15 37.0001C90.4486 39.8936 92.5611 42.3467 95.23 44.0601C95.3822 44.1711 95.5569 44.2474 95.7417 44.2837C95.9266 44.32 96.1172 44.3153 96.3 44.2701C97.17 44.4201 99.24 43.3301 100.13 41.2701C100.835 39.7965 101.125 38.159 100.97 36.533C100.815 34.907 100.22 33.3539 99.25 32.0401C97.53 29.8601 94.41 28.1401 91.58 29.0401C88.2 30.2501 87.92 34.2001 89.15 37.0001Z" fill="#2D2745"/>
<path d="M89.9403 31.2398C91.6021 31.4279 93.1417 32.2047 94.2803 33.4298C95.5279 34.7679 96.3796 36.4261 96.7403 38.2198C96.9722 39.3033 97.1193 40.4033 97.1803 41.5098C97.1803 42.0998 98.1803 42.0998 98.1103 41.5098C98.0441 39.3726 97.5688 37.268 96.7103 35.3098C95.9202 33.6099 94.6245 32.1954 93.0003 31.2598C92.0824 30.7176 91.0598 30.3767 90.0003 30.2598C89.8887 30.2762 89.7867 30.3322 89.7129 30.4175C89.6392 30.5029 89.5986 30.612 89.5986 30.7248C89.5986 30.8376 89.6392 30.9466 89.7129 31.032C89.7867 31.1174 89.8887 31.1734 90.0003 31.1898L89.9403 31.2398Z" fill="#645A8C"/>
<path d="M88.1299 57.4201C88.2199 57.9101 88.2999 58.4201 88.3899 58.9101C88.3899 59.1601 88.4799 59.4201 88.5299 59.6701C88.5719 59.9273 88.6986 60.1631 88.8899 60.3401C89.0261 60.4592 89.1976 60.5305 89.3781 60.5431C89.5587 60.5558 89.7384 60.5091 89.8899 60.4101C90.1016 60.251 90.2475 60.0197 90.2999 59.7601C90.4299 59.2901 90.5499 58.8101 90.6799 58.3301V58.2701C90.7343 57.9763 90.6984 57.6728 90.577 57.3997C90.4557 57.1266 90.2545 56.8967 89.9999 56.7401C89.7544 56.5985 89.4726 56.5324 89.1898 56.5502C88.907 56.568 88.6357 56.6688 88.4099 56.8401C88.3108 56.9142 88.2346 57.0147 88.1899 57.1301C88.1599 57.2244 88.1398 57.3216 88.1299 57.4201Z" fill="#2D2745"/>
<path d="M93.3306 34.1901L93.1806 34.1101L93.0906 34.0501C92.5806 33.7501 91.2706 33.0501 89.4206 32.1001C88.497 31.5975 87.5073 31.2272 86.4806 31.0001C79.8806 29.5901 72.4806 34.6201 70.9406 41.8401C70.2331 44.6033 70.522 47.5274 71.7564 50.0988C72.9909 52.6701 75.092 54.7242 77.6906 55.9001C78.4406 56.3001 82.3006 58.2901 84.6906 58.5201C91.0206 59.6101 97.2506 55.0301 98.6906 48.0901C99.312 45.503 99.1321 42.7881 98.1749 40.3056C97.2176 37.8231 95.5281 35.6903 93.3306 34.1901Z" fill="#6699FF"/>
<path d="M97.366 48.0445C98.6632 41.9626 95.3099 36.0927 89.8761 34.9337C84.4423 33.7748 78.9858 37.7656 77.6886 43.8476C76.3914 49.9295 79.7448 55.7994 85.1785 56.9583C90.6123 58.1173 96.0688 54.1264 97.366 48.0445Z" fill="#F5E3D9"/>
<path d="M87.7002 39.2C87.7002 41.79 87.7002 44.37 87.7802 46.96C87.7966 47.0716 87.8526 47.1735 87.938 47.2473C88.0234 47.321 88.1324 47.3616 88.2452 47.3616C88.358 47.3616 88.467 47.321 88.5524 47.2473C88.6378 47.1735 88.6938 47.0716 88.7102 46.96C88.6402 44.37 88.6102 41.79 88.6302 39.2C88.6138 39.0884 88.5578 38.9864 88.4724 38.9126C88.387 38.8389 88.278 38.7983 88.1652 38.7983C88.0524 38.7983 87.9433 38.8389 87.858 38.9126C87.7726 38.9864 87.7166 39.0884 87.7002 39.2Z" fill="#2D2745"/>
<path d="M84.4305 45.8699C85.6405 46.4199 86.8705 46.9299 88.1205 47.4099C88.2398 47.4405 88.3664 47.4231 88.473 47.3614C88.5796 47.2997 88.6577 47.1986 88.6905 47.0799C88.7186 46.9607 88.7001 46.8353 88.6387 46.7293C88.5774 46.6234 88.4779 46.5449 88.3605 46.5099C87.1905 46.0699 86.0405 45.5899 84.9005 45.0699C84.7924 45.0106 84.6657 44.9952 84.5465 45.0268C84.4274 45.0585 84.325 45.1348 84.2605 45.2399C84.2018 45.3465 84.1867 45.4717 84.2184 45.5892C84.2501 45.7067 84.3261 45.8073 84.4305 45.8699Z" fill="#2D2745"/>
<path d="M90.2905 36.5001C90.1705 37.0401 90.0605 37.5901 89.9405 38.1301C89.9222 38.2441 89.9466 38.361 90.009 38.4582C90.0714 38.5554 90.1675 38.6262 90.2788 38.6572C90.3901 38.6881 90.5089 38.6769 90.6125 38.6258C90.7161 38.5747 90.7973 38.4872 90.8405 38.3801L91.1905 36.7401C91.2185 36.6209 91.2 36.4955 91.1387 36.3895C91.0773 36.2836 90.9778 36.2051 90.8605 36.1701C90.7412 36.1394 90.6146 36.1568 90.508 36.2185C90.4014 36.2802 90.3233 36.3813 90.2905 36.5001Z" fill="#2D2745"/>
<path d="M86.52 54.1498L86.18 55.7898C86.1481 55.9078 86.1645 56.0336 86.2254 56.1396C86.2864 56.2455 86.3869 56.3229 86.505 56.3548C86.623 56.3866 86.7488 56.3702 86.8548 56.3093C86.9607 56.2483 87.0381 56.1478 87.07 56.0298C87.19 55.4898 87.3 54.9398 87.42 54.3998C87.451 54.2818 87.435 54.1564 87.3753 54.05C87.3156 53.9437 87.2168 53.8647 87.1 53.8298C86.9807 53.7984 86.8539 53.8141 86.7459 53.8737C86.6379 53.9333 86.557 54.0321 86.52 54.1498Z" fill="#2D2745"/>
<path d="M96.2698 47.72L94.8598 47.42C94.8029 47.3958 94.7417 47.3833 94.6798 47.3833C94.618 47.3833 94.5568 47.3958 94.4998 47.42C94.4472 47.4493 94.4012 47.4894 94.3651 47.5376C94.3289 47.5859 94.3033 47.6412 94.2898 47.7C94.2613 47.8178 94.2784 47.9421 94.3378 48.0479C94.3972 48.1536 94.4944 48.233 94.6098 48.27L96.0198 48.57C96.1357 48.6147 96.264 48.6147 96.3798 48.57C96.4819 48.5057 96.5567 48.406 96.5898 48.29C96.6209 48.172 96.6049 48.0466 96.5452 47.9402C96.4854 47.8339 96.3867 47.7549 96.2698 47.72Z" fill="#2D2745"/>
<path d="M81.0807 44.48L79.6807 44.18C79.5648 44.1353 79.4365 44.1353 79.3207 44.18C79.2161 44.2439 79.138 44.3433 79.1007 44.46C79.0726 44.5792 79.0911 44.7046 79.1525 44.8105C79.2138 44.9165 79.3133 44.995 79.4307 45.03L80.8407 45.33C80.9535 45.3443 81.0676 45.3171 81.1619 45.2537C81.2563 45.1902 81.3244 45.0947 81.3537 44.9848C81.383 44.875 81.3715 44.7582 81.3213 44.6562C81.2711 44.5542 81.1856 44.4738 81.0807 44.43V44.48Z" fill="#2D2745"/>
<path d="M78.7406 55.1198C78.7517 54.9945 78.7237 54.8687 78.6606 54.7598C78.5283 54.5069 78.3233 54.2993 78.072 54.1639C77.8207 54.0284 77.5346 53.9713 77.2506 53.9998C76.9507 54.0394 76.6701 54.1698 76.4466 54.3736C76.2231 54.5774 76.0675 54.8449 76.0006 55.1398C76.0006 55.1398 76.0006 55.1398 76.0006 55.2098C75.9206 55.6898 75.8306 56.2098 75.7606 56.6598C75.701 56.918 75.7402 57.1892 75.8706 57.4198C75.9676 57.5643 76.1081 57.6741 76.2717 57.7334C76.4353 57.7928 76.6135 57.7985 76.7806 57.7498C77.0311 57.672 77.2468 57.5093 77.3906 57.2898L77.8306 56.6498L78.6706 55.3998C78.7046 55.3095 78.7281 55.2156 78.7406 55.1198Z" fill="#2D2745"/>
<path d="M82.7103 28.1202C82.5219 27.7249 82.2607 27.3686 81.9403 27.0702C79.7503 25.0702 76.1903 25.3602 73.7303 26.6502C72.3078 27.4539 71.1309 28.6296 70.3258 30.0512C69.5207 31.4729 69.1178 33.0869 69.1603 34.7202C69.1552 36.0449 69.6355 37.3255 70.5103 38.3202C70.73 38.5706 70.9862 38.7863 71.2703 38.9602C71.2703 38.9602 75.3703 41.4902 80.5903 36.6802C84.5703 33.0002 83.3003 29.3202 82.7103 28.1202Z" fill="#2D2745"/>
<path d="M74.5002 28.7598V28.7098C74.4963 28.6934 74.4963 28.6763 74.5002 28.6598V28.5998C74.5095 28.5637 74.5095 28.5259 74.5002 28.4898C74.5056 28.4567 74.5056 28.4229 74.5002 28.3898C74.4359 28.2835 74.3622 28.1831 74.2802 28.0898L74.0702 27.8898C73.9631 27.8073 73.8494 27.7337 73.7302 27.6698C73.577 27.5961 73.4101 27.5552 73.2402 27.5498C73.0749 27.5515 72.913 27.5968 72.7707 27.6811C72.6285 27.7654 72.5111 27.8856 72.4302 28.0298C72.3546 28.1448 72.3035 28.2742 72.2802 28.4098C72.2452 28.5847 72.2452 28.7649 72.2802 28.9398C72.3559 29.2316 72.4922 29.5041 72.6802 29.7398C72.7255 29.8052 72.7877 29.857 72.8602 29.8898H72.9302H73.2702C73.5252 29.811 73.7619 29.6819 73.9663 29.5101C74.1707 29.3384 74.3386 29.1275 74.4602 28.8898C74.4783 28.8481 74.4917 28.8045 74.5002 28.7598Z" fill="#AEB3BF"/>
<path d="M25.3007 40.4102C20.7407 34.8302 12.7707 39.5102 10.9307 45.1502C10.8276 45.4553 10.7408 45.7658 10.6707 46.0802C9.80072 49.9402 11.0107 54.7202 15.0507 56.2102C23.4707 59.3302 30.5307 46.8102 25.3007 40.4102Z" fill="#AEB3BF"/>
<path d="M15.0001 51.89C14.5283 49.8752 14.8243 47.757 15.8301 45.9487C16.836 44.1403 18.4796 42.7717 20.4401 42.11C21.0001 41.91 20.7601 41.01 20.1901 41.21C18.4679 41.7956 16.9507 42.8649 15.8201 44.29C14.7588 45.6514 14.1006 47.2832 13.9201 49C13.8199 50.0384 13.8705 51.0859 14.0701 52.11C14.1801 52.7 15.0701 52.45 14.9701 51.86L15.0001 51.89Z" fill="#2D2745"/>
<path d="M39.5498 50.3302C38.3298 47.1202 35.5498 44.0102 31.8698 44.0602C30.5714 44.1379 29.313 44.539 28.2092 45.2271C27.1054 45.9153 26.1912 46.8685 25.5498 48.0002C24.5411 49.6994 24.0088 51.6391 24.0088 53.6152C24.0088 55.5913 24.5411 57.5309 25.5498 59.2302C27.9998 63.0002 33.4998 65.8502 37.3698 62.6202C40.6498 59.8802 41.1598 54.5802 39.5498 50.3302Z" fill="#8D97B0"/>
<path d="M31.5704 53.2302C28.3445 52.5595 25.0091 52.6219 21.8105 53.4129C18.6119 54.2039 15.6319 55.7032 13.0904 57.8002C12.9436 57.916 12.8278 58.0664 12.7534 58.238C12.679 58.4096 12.6484 58.5969 12.6642 58.7833C12.6801 58.9696 12.7419 59.1491 12.8442 59.3056C12.9465 59.4622 13.0861 59.5909 13.2504 59.6802C13.2095 60.3622 13.3187 61.045 13.5704 61.6802C13.5704 61.7402 13.5704 61.7902 13.6404 61.8402C13.5521 62.0272 13.5146 62.234 13.5314 62.4401C13.5483 62.6462 13.619 62.8442 13.7365 63.0143C13.854 63.1845 14.0141 63.3207 14.2008 63.4095C14.3875 63.4983 14.5943 63.5365 14.8004 63.5202C21.5624 62.9824 27.9264 60.108 32.8004 55.3902C32.9841 55.1856 33.0987 54.9283 33.1281 54.6549C33.1574 54.3815 33.1 54.1058 32.9639 53.8669C32.8278 53.6279 32.62 53.4378 32.3699 53.3236C32.1198 53.2093 31.8401 53.1766 31.5704 53.2302Z" fill="#8D97B0"/>
<path d="M16.0003 59.1001C15.5981 57.931 15.0289 56.8262 14.3103 55.8201C13.7673 55.0172 13.0615 54.3376 12.2387 53.8253C11.4159 53.313 10.4946 52.9796 9.53451 52.8466C8.57444 52.7136 7.59714 52.7841 6.66609 53.0535C5.73504 53.3228 4.87107 53.785 4.1303 54.4101C0.630304 57.1401 0.370304 62.2601 1.8503 66.3201C3.4303 70.6501 7.8503 74.5201 12.6703 72.2401C17.4903 69.9601 17.7103 63.7901 16.0003 59.1001Z" fill="#8D97B0"/>
<path d="M6.6906 56.4202C8.26916 57.4579 9.54363 58.8964 10.3835 60.5885C11.2234 62.2806 11.5986 64.1655 11.4706 66.0502C11.386 67.1995 11.1159 68.3274 10.6706 69.3902C10.6492 69.4519 10.6409 69.5173 10.6462 69.5823C10.6515 69.6473 10.6702 69.7105 10.7013 69.7679C10.7323 69.8253 10.7749 69.8756 10.8265 69.9156C10.878 69.9556 10.9373 69.9844 11.0006 70.0002C11.1209 70.0263 11.2467 70.007 11.3537 69.9462C11.4607 69.8853 11.5415 69.787 11.5806 69.6702C12.3752 67.7027 12.6155 65.5551 12.2752 63.4606C11.935 61.3662 11.0272 59.405 9.6506 57.7902C8.92974 56.9505 8.09103 56.2195 7.1606 55.6202C6.6606 55.2902 6.1606 56.0902 6.6906 56.4202Z" fill="#2D2745"/>
<path d="M15.0006 56.8799C16.0294 58.6784 16.6603 60.6767 16.8506 62.7399C16.9006 63.3299 17.8506 63.3399 17.7706 62.7399C17.5764 60.5119 16.8935 58.354 15.7706 56.4199C15.7096 56.3138 15.6089 56.2363 15.4908 56.2044C15.3727 56.1725 15.2467 56.1889 15.1406 56.2499C15.0345 56.3109 14.957 56.4115 14.9251 56.5297C14.8932 56.6478 14.9096 56.7738 14.9706 56.8799H15.0006Z" fill="#2D2745"/>
<path d="M27.3798 52.4601C26.359 51.2809 25.2271 50.2026 23.9998 49.2401C22.8398 48.3501 21.4598 47.3101 19.9298 47.2401C19.6267 47.2187 19.3225 47.2633 19.0383 47.3708C18.7541 47.4784 18.4966 47.6464 18.2836 47.8631C18.0707 48.0799 17.9073 48.3403 17.8048 48.6264C17.7022 48.9125 17.663 49.2174 17.6898 49.5201C17.7998 50.9701 19.2098 52.2901 20.1098 53.3301C22.3506 55.8888 24.9273 58.1325 27.7698 60.0001C27.8843 60.0848 28.0156 60.1441 28.1549 60.174C28.2941 60.2039 28.4382 60.2037 28.5774 60.1734C28.7166 60.1431 28.8477 60.0834 28.9619 59.9983C29.0762 59.9133 29.1709 59.8048 29.2398 59.6801C29.3547 59.655 29.4635 59.6074 29.5598 59.5401C32.3098 57.8501 28.6898 54.0001 27.3798 52.4601Z" fill="#AEB3BF"/>
<path d="M39.7499 54.7798C35.1899 49.1998 27.2199 53.8698 25.3699 59.5098C25.2699 59.8198 25.1899 60.1298 25.1199 60.4398C24.2399 64.3098 25.4599 69.0798 29.4999 70.5798C37.9199 73.6898 44.9999 61.1698 39.7499 54.7798Z" fill="#AEB3BF"/>
<path d="M18.3304 50.3998C18.3544 50.2371 18.3912 50.0766 18.4404 49.9198C18.4771 49.774 18.5308 49.633 18.6004 49.4998C18.7576 49.1867 18.9712 48.9054 19.2304 48.6698C19.7374 48.209 20.3954 47.9494 21.0804 47.9398C21.2033 47.9372 21.3203 47.8865 21.4063 47.7986C21.4923 47.7108 21.5404 47.5927 21.5404 47.4698C21.5378 47.3486 21.4886 47.233 21.4028 47.1473C21.3171 47.0616 21.2016 47.0123 21.0804 47.0098C20.1498 47.0262 19.2573 47.3818 18.5704 48.0098C17.9021 48.6372 17.486 49.4871 17.4004 50.3998C17.4004 50.5227 17.4485 50.6408 17.5345 50.7286C17.6205 50.8165 17.7375 50.8672 17.8604 50.8698C17.9842 50.8672 18.1023 50.8169 18.1899 50.7293C18.2775 50.6417 18.3278 50.5236 18.3304 50.3998Z" fill="#2D2745"/>
<path d="M17.4604 50.78C18.1289 51.9251 18.9058 53.0034 19.7804 54C19.8684 54.0867 19.9869 54.1354 20.1104 54.1354C20.2339 54.1354 20.3525 54.0867 20.4404 54C20.5265 53.9138 20.5749 53.7969 20.5749 53.675C20.5749 53.5532 20.5265 53.4363 20.4404 53.35C19.6231 52.4191 18.8934 51.4149 18.2604 50.35C18.1981 50.2439 18.0962 50.1669 17.9771 50.136C17.858 50.1051 17.7315 50.1227 17.6254 50.185C17.5193 50.2473 17.4423 50.3493 17.4114 50.4683C17.3805 50.5874 17.3981 50.7139 17.4604 50.82V50.78Z" fill="#2D2745"/>
<path d="M20.8506 47.8802C22.0507 48.3719 23.1673 49.0466 24.1606 49.8802C24.2509 49.9624 24.3685 50.008 24.4906 50.008C24.6127 50.008 24.7304 49.9624 24.8206 49.8802C24.9073 49.7923 24.956 49.6737 24.956 49.5502C24.956 49.4267 24.9073 49.3082 24.8206 49.2202C23.7693 48.3258 22.5851 47.6004 21.3106 47.0702C21.2035 47.0139 21.0791 47.0002 20.9623 47.0317C20.8455 47.0632 20.7449 47.1377 20.6806 47.2402C20.6486 47.2931 20.6276 47.3519 20.6189 47.4131C20.6101 47.4743 20.6138 47.5366 20.6297 47.5963C20.6455 47.6561 20.6733 47.712 20.7112 47.7608C20.7492 47.8096 20.7966 47.8502 20.8506 47.8802Z" fill="#2D2745"/>
<path d="M30.3898 47.39C31.3467 47.6867 32.214 48.2182 32.9127 48.9361C33.6114 49.654 34.1192 50.5354 34.3898 51.5C34.433 51.6071 34.5142 51.6946 34.6178 51.7457C34.7214 51.7968 34.8402 51.808 34.9515 51.7771C35.0628 51.7462 35.1589 51.6753 35.2213 51.5781C35.2837 51.4809 35.3081 51.3641 35.2898 51.25C34.9706 50.133 34.3784 49.1131 33.5666 48.2821C32.7548 47.4511 31.749 46.8352 30.6398 46.49C30.0698 46.31 29.8198 47.21 30.3898 47.39Z" fill="#2D2745"/>
<path d="M26.1102 58.2702C26.6852 56.9599 27.6044 55.8299 28.7702 55.0002C28.8746 54.9376 28.9507 54.837 28.9824 54.7195C29.0141 54.602 28.999 54.4767 28.9402 54.3702C28.9102 54.3161 28.8695 54.2687 28.8208 54.2308C28.772 54.1928 28.7161 54.1651 28.6563 54.1492C28.5966 54.1333 28.5343 54.1297 28.4731 54.1384C28.4119 54.1472 28.3531 54.1682 28.3002 54.2002C26.9873 55.1175 25.9499 56.3762 25.3002 57.8402C25.2439 57.9473 25.2302 58.0717 25.2617 58.1885C25.2932 58.3053 25.3677 58.4059 25.4702 58.4702C25.5765 58.5329 25.7032 58.5512 25.823 58.5213C25.9427 58.4914 26.0459 58.4155 26.1102 58.3102V58.2702Z" fill="#2D2745"/>
<path d="M29.3803 67.2701C28.8774 65.2208 29.0636 63.0629 29.9103 61.1301C30.7191 59.3135 32.0803 57.7982 33.8003 56.8001C34.7309 56.258 35.7445 55.8729 36.8003 55.6601C37.3903 55.5501 37.1403 54.6601 36.5503 54.7701C34.4611 55.1898 32.5495 56.2363 31.0703 57.7701C29.8373 59.0447 28.9497 60.6125 28.4913 62.3255C28.0328 64.0385 28.0187 65.8402 28.4503 67.5601C28.5903 68.1401 29.4503 67.8901 29.3403 67.3101L29.3803 67.2701Z" fill="#2D2745"/>
<path d="M61.9302 65.9001C61.8602 65.6601 61.3202 65.5901 61.3202 65.5901C60.2294 65.2451 59.2219 64.6777 58.3613 63.9239C57.5008 63.17 56.8058 62.246 56.3202 61.2101C56.3249 61.1324 56.311 61.0546 56.2797 60.9833C56.2484 60.912 56.2006 60.8492 56.1402 60.8001C56.032 60.5456 55.9385 60.2852 55.8602 60.0201C55.8283 59.9021 55.7509 59.8015 55.645 59.7406C55.539 59.6796 55.4132 59.6633 55.2952 59.6951C55.1771 59.7269 55.0766 59.8043 55.0156 59.9103C54.9547 60.0162 54.9383 60.1421 54.9702 60.2601C54.9702 60.4301 55.0702 60.5901 55.1202 60.7501C54.8398 60.8308 54.585 60.9824 54.3802 61.1901C54.0702 60.9201 53.4602 61.1901 53.6202 61.6401C53.9302 62.5457 54.3394 63.4143 54.8402 64.2301C55.1326 64.7467 55.4671 65.2383 55.8402 65.7001C55.8758 65.7393 55.906 65.783 55.9302 65.8301C55.9573 65.8826 55.9715 65.9409 55.9715 66.0001C55.9715 66.0593 55.9573 66.1175 55.9302 66.1701C55.6602 66.5201 55.0702 66.5101 54.6802 66.5201C53.5311 66.5565 52.3852 66.3802 51.3002 66.0001C50.8802 65.8601 48.9202 65.0001 49.0502 65.2801C48.5002 65.2801 49.6702 66.5601 49.1202 66.5601C48.9982 66.5601 48.8812 66.6086 48.7949 66.6948C48.7086 66.7811 48.6602 66.8981 48.6602 67.0201C48.6602 67.1421 48.7086 67.2591 48.7949 67.3454C48.8812 67.4316 48.9982 67.4801 49.1202 67.4801C52.2609 67.5198 55.3529 68.2613 58.1702 69.6501C58.3729 69.7682 58.5919 69.8558 58.8202 69.9101C59.3142 69.9265 59.805 69.8257 60.2526 69.6159C60.7001 69.4061 61.0916 69.0932 61.395 68.703C61.6984 68.3128 61.9051 67.8563 61.9981 67.3708C62.0911 66.8854 62.0678 66.3848 61.9302 65.9101V65.9001Z" fill="#F0D2C2"/>
<path d="M57.8706 57.0001C58.4139 56.2989 58.7087 55.4371 58.7087 54.5501C58.7087 53.6631 58.4139 52.8012 57.8706 52.1001C56.3006 49.8301 50.2406 49.1701 48.6906 52.8101C48.1796 52.7681 47.6654 52.8328 47.1806 53.0001L47.0206 53.0601C44.8006 51.6801 41.9106 53.2001 40.7706 55.6801C40.3751 56.43 40.156 57.2603 40.13 58.1077C40.104 58.9551 40.2718 59.7973 40.6206 60.5701C39.6295 60.9275 38.8195 61.6614 38.3664 62.6126C37.9133 63.5637 37.8537 64.6553 38.2006 65.6501C38.4681 66.407 38.9869 67.0493 39.6706 67.4701C39.6825 68.1748 39.9131 68.8584 40.3306 69.4263C40.748 69.9942 41.3316 70.4183 42.0006 70.6401C42.5752 70.8012 43.1793 70.8273 43.7657 70.7163C44.352 70.6052 44.9047 70.3601 45.3806 70.0001C46.1475 70.2174 46.9655 70.1681 47.7006 69.8601C48.3849 69.5443 48.9737 69.0534 49.4074 68.437C49.8411 67.8207 50.1044 67.1008 50.1706 66.3501C50.8006 65.8401 51.6706 65.9301 51.9506 65.2401C53.4893 65.2337 54.9829 64.7206 56.2006 63.7801C58.0006 62.3001 59.5206 58.7601 57.8706 57.0001Z" fill="#40856B"/>
<path d="M59.0797 57.6901C59.5791 56.927 59.885 56.0536 59.9708 55.1456C60.0565 54.2376 59.9196 53.3224 59.5719 52.4792C59.2242 51.6361 58.6762 50.8904 57.9753 50.3068C57.2745 49.7233 56.4419 49.3193 55.5497 49.1301C52.5997 48.3501 48.8497 49.1301 47.4497 52.1301L48.6597 51.4401C47.9794 51.3999 47.2983 51.5021 46.6597 51.7401L47.7397 51.8801C46.5939 51.2696 45.2731 51.0715 43.9986 51.3191C42.7241 51.5667 41.5735 52.245 40.7397 53.2401C39.7423 54.2991 39.0816 55.6304 38.8412 57.0652C38.6009 58.5 38.7918 59.9738 39.3897 61.3001L39.8897 59.3901C36.1697 61.2201 35.2797 66.2501 38.8897 68.6901L38.1997 67.4901C38.3697 71.5501 42.7597 73.3801 46.0397 71.2601L44.9997 71.3701C48.3197 72.1301 50.8697 69.9001 51.5097 66.7501L50.8697 67.5801C51.7097 67.0101 52.5797 66.9401 53.1497 65.9801L51.9997 66.6701C53.3031 66.6886 54.5904 66.3797 55.7434 65.7717C56.8965 65.1637 57.8786 64.276 58.5997 63.1901C60.0397 61.0401 60.6697 58.1901 58.9097 56.0001C57.7697 54.6201 55.7997 56.6001 56.9097 58.0001C57.8097 59.1001 56.6797 61.1701 55.9797 62.0701C55.4976 62.6617 54.8865 63.1351 54.1931 63.4541C53.4998 63.773 52.7426 63.929 51.9797 63.9101C51.7368 63.9102 51.4982 63.974 51.2877 64.0951C51.0772 64.2162 50.902 64.3903 50.7797 64.6001C50.7097 64.7201 50.1097 64.8601 49.9997 64.9101C49.6002 65.0767 49.2543 65.35 48.9997 65.7001C48.5697 66.4301 48.6697 67.3101 48.0797 68.0001C47.788 68.3413 47.4018 68.5884 46.9697 68.7101C46.3897 68.8801 45.9697 68.6401 45.4097 68.6601C44.4097 68.7101 43.8297 69.5801 42.7597 69.4101C42.3397 69.3476 41.9505 69.153 41.6485 68.8546C41.3465 68.5561 41.1473 68.1693 41.0797 67.7501C40.9697 67.2601 41.0797 66.9101 40.6597 66.5001C40.2397 66.0901 39.9697 66.0301 39.7197 65.6201C38.7197 64.0101 39.8797 62.5101 41.3197 61.8001C41.6345 61.6088 41.8627 61.3026 41.956 60.9462C42.0493 60.5898 42.0004 60.2111 41.8197 59.8901C41.4682 58.9306 41.4454 57.8816 41.7549 56.9077C42.0644 55.9339 42.6887 55.0905 43.5297 54.5101C43.8303 54.2826 44.1747 54.1199 44.5413 54.0321C44.9079 53.9444 45.2887 53.9334 45.6597 54.0001C46.1197 54.1101 46.4897 54.4601 46.9897 54.4601C47.4897 54.4601 48.0597 54.1901 48.6597 54.2101C48.903 54.212 49.1424 54.1491 49.3533 54.0278C49.5642 53.9065 49.739 53.7313 49.8597 53.5201C51.5897 49.7901 59.3897 51.9301 56.6697 56.2901C55.7197 57.8101 58.1297 59.2101 59.0797 57.6901Z" fill="#40856B"/>
<path d="M43.3401 62.1898C42.9914 62.4205 42.7054 62.7339 42.5075 63.1021C42.3096 63.4703 42.2061 63.8818 42.2061 64.2999C42.2061 64.7179 42.3096 65.1294 42.5075 65.4976C42.7054 65.8658 42.9914 66.1792 43.3401 66.4099L43.1701 65.7798C42.9631 66.214 42.8557 66.6889 42.8557 67.1698C42.8557 67.6508 42.9631 68.1257 43.1701 68.5598C43.3799 68.938 43.666 69.2684 44.0103 69.53C44.3546 69.7917 44.7496 69.9789 45.1701 70.0798C45.2829 70.0941 45.397 70.067 45.4913 70.0035C45.5857 69.94 45.6538 69.8445 45.6831 69.7346C45.7124 69.6248 45.7009 69.508 45.6507 69.406C45.6005 69.304 45.515 69.2237 45.4101 69.1798C45.1114 69.1006 44.8335 68.9576 44.5954 68.7608C44.3573 68.5639 44.1646 68.3178 44.0306 68.0394C43.8966 67.761 43.8245 67.4569 43.8193 67.148C43.814 66.8391 43.8757 66.5327 44.0001 66.2498C44.0569 66.1412 44.071 66.0153 44.0395 65.8968C44.0081 65.7783 43.9333 65.6759 43.8301 65.6098C43.6235 65.4595 43.4554 65.2625 43.3394 65.0349C43.2235 64.8072 43.1631 64.5553 43.1631 64.2999C43.1631 64.0444 43.2235 63.7925 43.3394 63.5648C43.4554 63.3372 43.6235 63.1401 43.8301 62.9898C44.3201 62.6498 43.8301 61.8498 43.3601 62.1898H43.3401Z" fill="#2D2745"/>
<path d="M49.5299 59.24C49.2729 59.167 49.0416 59.0231 48.8627 58.8246C48.6839 58.6262 48.5646 58.3813 48.5186 58.1181C48.4727 57.8549 48.5019 57.5841 48.603 57.3368C48.704 57.0895 48.8728 56.8757 49.0899 56.72C49.3799 56.52 49.6499 56.34 49.7099 55.97C49.717 55.627 49.5998 55.2931 49.3799 55.0299C49.2063 54.7805 49.0972 54.492 49.0623 54.1901C49.0274 53.8882 49.0678 53.5824 49.1799 53.2999C49.2386 53.1934 49.2537 53.0681 49.222 52.9506C49.1903 52.8331 49.1143 52.7325 49.0099 52.6699C48.9051 52.6077 48.7799 52.5896 48.6618 52.6196C48.5437 52.6496 48.4423 52.7253 48.3799 52.83C48.2218 53.1892 48.1401 53.5774 48.1401 53.97C48.1401 54.3625 48.2218 54.7507 48.3799 55.11C48.4506 55.2749 48.5377 55.4324 48.6399 55.58C48.6816 55.6617 48.7319 55.7388 48.7899 55.81C48.7899 55.89 48.7899 55.88 48.7899 55.81C48.7709 55.832 48.7469 55.8492 48.7199 55.86C48.3897 56.0366 48.1133 56.2992 47.9199 56.6199C47.724 56.93 47.6034 57.2816 47.5678 57.6466C47.5321 58.0116 47.5824 58.3799 47.7146 58.722C47.8467 59.0641 48.0571 59.3705 48.329 59.6167C48.6008 59.863 48.9264 60.0421 49.2799 60.1399C49.3979 60.1718 49.5237 60.1554 49.6297 60.0945C49.7357 60.0335 49.8131 59.933 49.8449 59.8149C49.8767 59.6969 49.8604 59.5711 49.7994 59.4651C49.7385 59.3592 49.6379 59.2818 49.5199 59.2499L49.5299 59.24Z" fill="#2D2745"/>
<path d="M89.6298 54.7698C89.3247 53.8615 88.883 53.005 88.3198 52.2298C87.8409 51.6291 87.2625 51.115 86.6098 50.7098C85.5452 50.034 84.3308 49.6304 83.0735 49.5345C81.8162 49.4386 80.5546 49.6533 79.3998 50.1598C77.4239 50.9838 75.8182 52.5029 74.886 54.4301C73.9537 56.3573 73.7594 58.5591 74.3398 60.6198C74.7348 62.1336 75.6255 63.4714 76.8698 64.4198C78.1446 65.4466 79.6951 66.0725 81.3255 66.2185C82.9559 66.3644 84.5929 66.0238 86.0298 65.2398C89.8498 63.0898 90.9998 58.6098 89.6298 54.7698Z" fill="#FFBB5C"/>
<path d="M66.8603 56.9998C66.5552 56.0915 66.1135 55.235 65.5503 54.4598C65.069 53.8613 64.491 53.3476 63.8403 52.9398C62.7757 52.264 61.5613 51.8604 60.304 51.7645C59.0467 51.6686 57.7851 51.8833 56.6303 52.3898C54.6544 53.2138 53.0487 54.7329 52.1164 56.6601C51.1841 58.5873 50.9899 60.7891 51.5703 62.8498C51.9653 64.3636 52.856 65.7014 54.1003 66.6498C55.3751 67.6766 56.9256 68.3025 58.556 68.4484C60.1863 68.5944 61.8234 68.2538 63.2603 67.4698C67.0803 65.2798 68.1903 60.7998 66.8603 56.9998Z" fill="#FFBB5C"/>
<path d="M56.6599 50.5199C57.2096 51.1811 57.6826 51.9024 58.0699 52.6699C58.2049 52.9945 58.3152 53.3288 58.3999 53.6699C58.5299 54.1399 58.6299 54.6699 58.7199 55.1099C58.7361 55.1685 58.7637 55.2234 58.8011 55.2712C58.8386 55.3191 58.8852 55.359 58.9382 55.3888C58.9912 55.4186 59.0496 55.4375 59.1099 55.4446C59.1703 55.4516 59.2315 55.4467 59.2899 55.4299C59.4072 55.3949 59.5068 55.3164 59.5681 55.2105C59.6294 55.1045 59.648 54.9791 59.6199 54.8599C59.4766 53.9715 59.2316 53.1025 58.8899 52.2699C58.5021 51.4826 58.022 50.744 57.4599 50.0699C57.3955 49.9648 57.2931 49.8886 57.1739 49.8569C57.0548 49.8253 56.928 49.8407 56.8199 49.8999C56.7145 49.9642 56.6387 50.0674 56.6088 50.1872C56.5788 50.3069 56.5972 50.4336 56.6599 50.5399V50.5199Z" fill="#2D2745"/>
<path d="M56.4502 55.3899C56.8277 55.6798 57.2645 55.8829 57.7294 55.9849C58.1943 56.0869 58.676 56.0851 59.1402 55.9799C59.7602 55.8114 60.3504 55.5483 60.8902 55.1999C60.9963 55.1375 61.0733 55.0356 61.1042 54.9165C61.1352 54.7974 61.1175 54.6709 61.0552 54.5649C60.9929 54.4588 60.891 54.3818 60.7719 54.3508C60.6528 54.3199 60.5263 54.3375 60.4202 54.3999L59.8202 54.7399C59.5607 54.879 59.2854 54.9864 59.0002 55.0599C58.6971 55.1402 58.3812 55.1606 58.0702 55.1199C57.6494 55.0395 57.2547 54.8576 56.9202 54.5899C56.8148 54.5302 56.6905 54.5136 56.5731 54.5434C56.4557 54.5732 56.3544 54.6472 56.2902 54.7499C56.23 54.8568 56.2131 54.9827 56.2428 55.1017C56.2726 55.2207 56.3468 55.3238 56.4502 55.3899Z" fill="#2D2745"/>
<path d="M62.1004 44.6802H61.7904C61.3034 44.7898 60.8477 45.0089 60.4579 45.3208C60.068 45.6326 59.7543 46.0291 59.5404 46.4802C58.7804 47.7002 56.3904 51.9602 59.2404 52.3402C61.1404 52.6002 62.6004 50.1202 63.1704 48.6602C63.5682 47.809 63.7007 46.8577 63.5504 45.9302C63.4687 45.5969 63.2851 45.2974 63.0252 45.0734C62.7653 44.8493 62.4421 44.7119 62.1004 44.6802Z" fill="#40856B"/>
<path d="M68.4498 66.5701C74.2298 68.7801 82.0098 65.2001 82.8198 58.7701C83.3398 54.6401 80.4798 49.4701 76.1398 48.6601C75.3288 48.4899 74.489 48.5144 73.6894 48.7317C72.8898 48.949 72.1531 49.3528 71.5398 49.9101C68.9398 48.5101 65.4098 48.6501 63.6498 51.4501C60.2898 56.7901 62.4198 64.2701 68.4498 66.5701Z" fill="#FFBB5C"/>
<path d="M62.3604 52.66C61.7186 54.4386 61.5095 56.3445 61.7504 58.22C61.8738 60.3433 62.5645 62.3945 63.7504 64.16C64.4162 65.0719 65.3188 65.7842 66.3604 66.22C66.423 66.2466 66.4907 66.2593 66.5587 66.2572C66.6267 66.2551 66.6934 66.2382 66.7543 66.2078C66.8151 66.1774 66.8686 66.1341 66.9111 66.0809C66.9536 66.0278 66.9841 65.9661 67.0004 65.9C67.0285 65.7808 67.0099 65.6554 66.9486 65.5495C66.8872 65.4435 66.7877 65.365 66.6704 65.33C65.8732 64.9313 65.1691 64.369 64.6039 63.6797C64.0387 62.9905 63.6252 62.1899 63.3904 61.33C62.7647 59.4543 62.5365 57.4688 62.7204 55.5C62.7888 54.6156 62.9877 53.7462 63.3104 52.92C63.3271 52.8616 63.3321 52.8004 63.325 52.74C63.318 52.6797 63.299 52.6213 63.2692 52.5683C63.2395 52.5153 63.1995 52.4687 63.1517 52.4312C63.1038 52.3938 63.049 52.3662 62.9904 52.35C62.8699 52.3216 62.7431 52.3398 62.6355 52.401C62.5279 52.4622 62.4475 52.5619 62.4104 52.68L62.3604 52.66Z" fill="#2D2745"/>
<path d="M79.3897 50.87C80.768 51.9549 81.7461 53.4678 82.1697 55.17C82.6644 57.7238 82.1287 60.3697 80.6797 62.53C80.3397 63.03 81.1497 63.53 81.4797 63C82.5653 61.3814 83.1877 59.4968 83.2797 57.55C83.3871 55.8472 83.0018 54.1495 82.1697 52.66C81.6248 51.7163 80.9054 50.8848 80.0497 50.21C79.9593 50.1389 79.846 50.1034 79.7312 50.1102C79.6164 50.117 79.508 50.1657 79.4267 50.247C79.3454 50.3284 79.2967 50.4367 79.2899 50.5515C79.2831 50.6663 79.3186 50.7796 79.3897 50.87Z" fill="#2D2745"/>
<path d="M72.7702 46.3802C72.1135 48.0375 71.6375 49.7608 71.3502 51.5202C71.3171 51.6382 71.3322 51.7646 71.3922 51.8715C71.4522 51.9784 71.5522 52.057 71.6702 52.0902C71.7883 52.1233 71.9146 52.1082 72.0215 52.0482C72.1284 51.9882 72.2071 51.8882 72.2402 51.7702C72.5309 50.0105 73.0103 48.2872 73.6702 46.6302C73.6885 46.5161 73.6641 46.3993 73.6017 46.3021C73.5393 46.2048 73.4432 46.134 73.3319 46.1031C73.2206 46.0722 73.1018 46.0833 72.9982 46.1344C72.8946 46.1856 72.8134 46.273 72.7702 46.3802Z" fill="#2D2745"/>
<path d="M74.5204 50.9298C73.8708 51.2066 73.1692 51.3401 72.4634 51.3211C71.7575 51.3021 71.0641 51.1311 70.4304 50.8198C70.3778 50.7889 70.3197 50.7687 70.2594 50.7603C70.1991 50.7519 70.1377 50.7554 70.0787 50.7708C70.0197 50.7861 69.9644 50.8129 69.9157 50.8496C69.8671 50.8863 69.8262 50.9323 69.7954 50.9848C69.7645 51.0373 69.7443 51.0954 69.7359 51.1557C69.7275 51.2161 69.731 51.2775 69.7464 51.3365C69.7617 51.3954 69.7885 51.4508 69.8252 51.4994C69.8619 51.548 69.9078 51.5889 69.9604 51.6198C70.7006 51.9968 71.5135 52.2099 72.3436 52.2444C73.1736 52.2789 74.0013 52.1341 74.7704 51.8198C74.8877 51.7848 74.9872 51.7063 75.0486 51.6003C75.1099 51.4944 75.1284 51.369 75.1004 51.2498C75.0655 51.1307 74.985 51.0302 74.8763 50.9702C74.7677 50.9103 74.6397 50.8957 74.5204 50.9298Z" fill="#2D2745"/>
<path d="M67.3901 41.6098C68.3135 41.9677 69.1491 42.5203 69.8401 43.2298C70.6324 44.063 71.3054 45.0019 71.8401 46.0198C72.469 46.8578 72.8188 47.8723 72.8401 48.9198C72.8254 49.1697 72.7519 49.4126 72.6256 49.6288C72.4993 49.8449 72.3238 50.0282 72.1132 50.1636C71.9027 50.2991 71.6632 50.3829 71.4142 50.4084C71.1651 50.4338 70.9136 50.4 70.6801 50.3098C69.1852 49.5471 67.9163 48.4059 67.0001 46.9998C66.0801 45.7898 65.0001 44.3898 65.2101 42.8898C65.2468 42.6505 65.3364 42.4225 65.4724 42.2221C65.6083 42.0218 65.7871 41.8543 65.9959 41.7317C66.2046 41.6091 66.4381 41.5346 66.6792 41.5135C66.9204 41.4924 67.1632 41.5253 67.3901 41.6098Z" fill="#40856B"/>
<path d="M94.7403 52.1798C94.5499 51.916 94.3062 51.6951 94.0249 51.5316C93.7437 51.3681 93.4312 51.2656 93.1077 51.2307C92.7843 51.1958 92.4571 51.2293 92.1474 51.3291C91.8378 51.4288 91.5525 51.5926 91.3103 51.8098C90.8573 52.2627 90.5433 52.8355 90.4051 53.461C90.2669 54.0864 90.3103 54.7383 90.5303 55.3398L90.3303 55.5298C85.5803 60.8098 78.7303 63.5998 71.8503 64.8298C67.8814 65.485 63.8717 65.8625 59.8503 65.9598C57.0203 66.0698 52.8503 66.1198 50.7203 67.0598L50.2103 66.8998C49.2103 66.5698 48.2803 67.8098 48.6203 68.7298C50.0103 72.4898 53.6203 74.2898 57.1903 75.3898C60.9718 76.535 64.9099 77.0783 68.8603 76.9998C72.8871 76.9172 76.8758 76.2018 80.6803 74.8798C84.1803 73.6498 87.7903 71.9598 90.4103 69.2798C93.2703 66.3598 94.4103 61.9998 92.4703 58.2798C92.9603 57.6598 93.4703 57.0298 93.8903 56.3698C94.7303 55.1198 95.7303 53.6298 94.7403 52.1798Z" fill="#F28E61"/>
<path d="M95 52.5298C94.49 51.2298 94 51.0698 93.59 50.9598C92.8412 50.823 92.0683 50.9407 91.3941 51.2941C90.72 51.6475 90.1835 52.2162 89.87 52.9098C89.7166 53.3335 89.6977 53.7943 89.8158 54.2291C89.9339 54.664 90.1833 55.0519 90.53 55.3398C91.1597 54.8489 91.8864 54.497 92.6621 54.3074C93.4377 54.1178 94.2448 54.0947 95.03 54.2398C95.2371 53.6866 95.2264 53.0754 95 52.5298Z" fill="#2D2745"/>
<path d="M58.5303 69.6399C61.9951 70.0999 65.5055 70.0999 68.9703 69.6399C72.594 69.2169 76.1593 68.3918 79.6003 67.1799C81.4063 66.5402 83.1585 65.7577 84.8403 64.8399C85.3603 64.5499 84.8403 63.7499 84.3703 64.0399C81.3745 65.6474 78.1806 66.8544 74.8703 67.6299C71.4121 68.5019 67.8661 68.9782 64.3003 69.0499C62.4519 69.0999 60.6025 68.9995 58.7703 68.7499C58.6524 68.7188 58.527 68.7348 58.4206 68.7945C58.3142 68.8543 58.2353 68.953 58.2003 69.0699C58.1697 69.1892 58.1871 69.3157 58.2488 69.4223C58.3105 69.5289 58.4116 69.607 58.5303 69.6399Z" fill="#2D2745"/>
<path d="M50.6905 67.0598C50.2248 67.3204 49.8283 67.6889 49.5342 68.1343C49.2402 68.5797 49.0572 69.0891 49.0005 69.6198C48.6877 69.1747 48.5201 68.6438 48.5205 68.0998C48.5301 67.7632 48.6661 67.4425 48.9014 67.2016C49.1368 66.9607 49.4542 66.8173 49.7905 66.7998C50.1086 66.8026 50.4199 66.8925 50.6905 67.0598Z" fill="#2D2745"/>
</svg>
