<svg width="74" height="74" viewBox="0 0 74 74" fill="none" xmlns="http://www.w3.org/2000/svg">
<path d="M31.058 49.3365C33.7145 49.3365 35.868 47.201 35.868 44.5667C35.868 41.9324 33.7145 39.7969 31.058 39.7969C28.4016 39.7969 26.248 41.9324 26.248 44.5667C26.248 47.201 28.4016 49.3365 31.058 49.3365Z" fill="#6699FF"/>
<path d="M40.9074 40.4866C43.3735 46.1079 45.0708 52.0309 45.9542 58.0982C46.2942 60.4452 46.3835 62.8212 46.2206 65.1868C46.1392 66.9186 45.7195 68.6183 44.9848 70.1915C44.6885 70.7999 44.2793 71.3476 43.7786 71.8059C43.5747 72.0042 43.3429 72.1723 43.0904 72.3049C42.9635 72.3782 42.8326 72.4443 42.6982 72.503C42.5946 72.5544 42.6982 72.503 42.6982 72.503L42.5798 72.5544L42.3652 72.6277L41.9508 72.7305L41.7214 72.7745C41.7214 72.7745 41.6104 72.7745 41.7214 72.7745H41.5882C41.2829 72.8002 40.9759 72.8002 40.6706 72.7745H40.456H40.345C40.1748 72.7745 40.0046 72.7158 39.8418 72.6718C39.5111 72.5971 39.187 72.4965 38.8724 72.3709C38.1668 72.0946 37.4902 71.7505 36.8522 71.3436C36.1284 70.8833 35.4362 70.3758 34.7802 69.8246C33.1563 68.4072 31.6698 66.8423 30.3402 65.1501C26.9172 60.8167 24.0534 56.0763 21.8154 51.0389C19.1712 45.3854 17.2663 39.4201 16.147 33.2879C15.7062 30.8225 15.503 28.3211 15.5402 25.8176C15.5209 23.9087 15.8184 22.0097 16.4208 20.1966C16.6686 19.5077 17.015 18.8578 17.4494 18.2667C17.7963 17.8169 18.2256 17.436 18.7148 17.1439C18.8554 17.0705 18.996 16.9972 19.1366 16.9384C19.2772 16.8797 19.0108 16.9825 19.1366 16.9384H19.2254L19.44 16.8724L19.8544 16.7623L20.0542 16.7256C20.1726 16.7256 20.0542 16.7256 20.0542 16.7256H20.2096C20.7881 16.6697 21.3721 16.7169 21.9338 16.8651C23.4215 17.2744 24.8091 17.9811 26.0112 18.9418C27.6248 20.1406 29.1057 21.5058 30.429 23.0144C33.8837 27.0996 36.7868 31.6139 39.0648 36.4433C39.716 37.7739 40.3302 39.1217 40.9074 40.4866C40.9553 40.6353 41.0584 40.7604 41.1957 40.8367C41.3331 40.9129 41.4945 40.9347 41.6474 40.8975C41.7239 40.8772 41.7955 40.8419 41.8582 40.7939C41.9209 40.7459 41.9734 40.6861 42.0126 40.6178C42.0518 40.5496 42.077 40.4743 42.0867 40.3964C42.0964 40.3185 42.0905 40.2394 42.0692 40.1637C39.8306 34.7206 36.9279 29.57 33.426 24.827C32.0308 22.9475 30.4734 21.192 28.7714 19.5802C27.4329 18.2836 25.9064 17.1928 24.2426 16.3441C22.9676 15.6599 21.5226 15.3494 20.0764 15.4488C19.3852 15.5334 18.7178 15.7534 18.1131 16.0961C17.5084 16.4387 16.9784 16.8972 16.554 17.4448C15.5209 18.8751 14.86 20.5362 14.63 22.2806C14.28 24.5434 14.2104 26.8402 14.4228 29.1198C15.0104 35.2512 16.4859 41.2667 18.8036 46.9809C20.9555 52.6612 23.7931 58.0622 27.2544 63.0661C28.6579 65.0982 30.2244 67.0148 31.9386 68.7972C33.2936 70.2303 34.828 71.4855 36.5044 72.5323C38.9834 74 42.2098 74.8365 44.5852 72.7231C45.7348 71.5907 46.5312 70.1538 46.8792 68.5844C47.3916 66.4941 47.596 64.3413 47.486 62.1929C47.3232 56.3223 45.8506 50.4518 43.9044 44.9188C43.342 43.3191 42.7303 41.7365 42.0692 40.1711C42.0227 40.021 41.9203 39.8942 41.7828 39.8165C41.6453 39.7387 41.483 39.716 41.3292 39.7528C41.1758 39.7957 41.0456 39.8967 40.9666 40.034C40.8877 40.1713 40.8664 40.3339 40.9074 40.4866Z" fill="#2D2745"/>
<path d="M38.8128 52.125C34.7825 56.4242 30.2228 60.2037 25.2412 63.3744C23.3016 64.6118 21.2504 65.6682 19.114 66.5298C17.4658 67.2166 15.7167 67.6354 13.934 67.7699C13.2559 67.8128 12.5751 67.7559 11.9138 67.6012C11.7732 67.6012 11.6252 67.5278 11.4846 67.4837L11.2552 67.403H11.159C11.0924 67.403 11.233 67.403 11.159 67.403C10.8709 67.2725 10.5959 67.1152 10.3376 66.9334L10.2562 66.8747L10.1008 66.7353C9.98254 66.6326 9.87129 66.5223 9.76781 66.405C9.71706 66.3547 9.67007 66.3007 9.62721 66.2436C9.52361 66.1189 9.67161 66.3023 9.62721 66.2436C9.60509 66.2185 9.58527 66.1915 9.56801 66.1629C9.47479 66.0328 9.38834 65.8981 9.30901 65.7593C9.23501 65.6272 9.16841 65.4951 9.10181 65.3557C9.10181 65.3557 9.05741 65.2456 9.10181 65.3557L9.05741 65.2529L8.96121 64.9888C8.85706 64.6675 8.77789 64.3387 8.72441 64.0055C8.67832 63.6746 8.65115 63.3414 8.64301 63.0075C8.62073 62.6213 8.62073 62.2342 8.64301 61.848C8.7214 60.981 8.87238 60.1219 9.09441 59.2797C9.65815 57.1409 10.4546 55.0691 11.4698 53.101C14.1331 48.0124 17.4623 43.2948 21.371 39.0704C25.3919 34.5433 29.9543 30.5192 34.9574 27.0872C36.973 25.7132 39.099 24.5057 41.314 23.4768C43.0523 22.6526 44.8978 22.0722 46.7974 21.7523C47.532 21.6429 48.2767 21.6159 49.0174 21.6716C49.3145 21.6966 49.609 21.7457 49.898 21.8184L50.3494 21.9431L50.5788 22.0312C50.6257 22.0412 50.6706 22.0585 50.712 22.0826C50.9894 22.2099 51.2544 22.3622 51.5038 22.5375L51.5852 22.5962C51.4964 22.5302 51.5852 22.5962 51.5852 22.5962L51.7628 22.743C51.8812 22.8531 51.9848 22.9631 52.0958 23.0806L52.229 23.242C52.2882 23.3154 52.1476 23.1246 52.229 23.242L52.2882 23.3227C52.3796 23.4601 52.4636 23.6022 52.5398 23.7483C52.6764 23.9797 52.7856 24.226 52.8654 24.4821C53.2728 25.9168 53.3185 27.4287 52.9986 28.885C52.6066 30.9128 51.9628 32.8847 51.082 34.7556C48.7123 39.7731 45.6488 44.4386 41.98 48.6173C40.9588 49.8208 39.9031 50.99 38.8128 52.125C38.28 52.6827 39.131 53.5266 39.6638 52.9689C43.9569 48.5679 47.658 43.6349 50.675 38.2926C51.8489 36.1892 52.813 33.9773 53.5536 31.6882C54.158 29.9245 54.4436 28.0688 54.3972 26.2066C54.3784 24.7451 53.8562 23.334 52.9172 22.2073C51.9375 21.2061 50.6204 20.5975 49.2172 20.4975C47.4843 20.3792 45.7451 20.6088 44.1038 21.1726C41.9326 21.8636 39.8434 22.7863 37.873 23.9244C32.7304 26.8954 28.0138 30.5384 23.85 34.7556C19.32 39.1617 15.3692 44.1174 12.0914 49.5053C10.7782 51.6667 9.66373 53.9409 8.76141 56.3004C8.01792 58.1468 7.55891 60.0936 7.39981 62.0755C7.2556 63.5835 7.56457 65.1002 8.28781 66.4344C8.64819 67.0159 9.12057 67.5213 9.67798 67.9217C10.2354 68.3221 10.8669 68.6096 11.5364 68.7679C13.1495 69.1046 14.8196 69.0619 16.413 68.6432C18.4945 68.1296 20.505 67.3656 22.3996 66.3683C27.4741 63.6963 32.1407 60.3238 36.2598 56.3518C37.4389 55.2559 38.5809 54.1283 39.686 52.9689C40.1966 52.4112 39.3456 51.5673 38.8128 52.125Z" fill="#2D2745"/>
<path d="M28.4383 55.2288C22.7343 53.9515 17.2115 51.9797 11.9955 49.3582C9.94812 48.3335 7.99669 47.1302 6.16434 45.7625C4.7268 44.7195 3.46328 43.4591 2.41994 42.0274C2.03237 41.4745 1.71662 40.8754 1.48014 40.2442C1.3762 39.9529 1.29699 39.6534 1.24334 39.349V39.2462C1.24334 39.0775 1.24334 39.327 1.24334 39.2462V39.0408C1.24334 38.8867 1.24334 38.7326 1.24334 38.5785C1.24334 38.4244 1.24334 38.2923 1.24334 38.1529C1.24334 38.2849 1.24334 38.0942 1.24334 38.0575C1.24334 38.0208 1.24334 37.8887 1.29514 37.808C1.33172 37.6638 1.37619 37.5217 1.42834 37.3824C1.42834 37.3824 1.52454 37.1402 1.48014 37.2503C1.48014 37.1769 1.54674 37.1108 1.57634 37.0375C1.85558 36.4749 2.24853 35.9754 2.73074 35.5698C3.28463 35.0916 3.89909 34.687 4.55854 34.3664C5.34165 33.9755 6.15902 33.6562 7.00054 33.4124C9.11369 32.8103 11.2879 32.4436 13.4829 32.319C19.3583 31.9932 25.251 32.4622 30.9987 33.7133C36.9022 34.8643 42.6441 36.7171 48.1001 39.2316C50.3121 40.2561 52.4356 41.4587 54.4493 42.8273C56.0305 43.877 57.4639 45.1306 58.7117 46.5551C59.6465 47.5724 60.2903 48.8188 60.5765 50.1654C60.5765 50.1654 60.5765 50.2315 60.5765 50.2682C60.5765 50.3048 60.5765 50.1214 60.5765 50.2682V50.4736C60.5765 50.6277 60.5765 50.7818 60.5765 50.9359C60.5802 51.0019 60.5802 51.0681 60.5765 51.1341C60.5765 51.1341 60.5765 51.3689 60.5765 51.3102C60.5765 51.2515 60.5765 51.4276 60.5765 51.4496C60.5765 51.4716 60.5765 51.6184 60.5247 51.7064C60.3769 52.2388 60.1256 52.7374 59.7847 53.1741C58.8098 54.2778 57.5594 55.1079 56.1587 55.581C54.2147 56.3012 52.1852 56.7698 50.1203 56.9752C44.4624 57.512 38.7562 57.2451 33.1743 56.1827C31.5981 55.9039 30.0219 55.581 28.4605 55.2214C27.7205 55.0453 27.3875 56.1901 28.1423 56.3662C34.2487 57.8684 40.5302 58.5544 46.8199 58.4062C49.2446 58.3479 51.6571 58.0455 54.0201 57.5036C55.8368 57.1177 57.5655 56.4011 59.1187 55.3902C60.3655 54.5929 61.2799 53.3759 61.6939 51.9633C61.9652 50.5999 61.7479 49.1855 61.0797 47.964C60.2551 46.4373 59.1451 45.08 57.8089 43.9647C56.1103 42.4856 54.26 41.187 52.2885 40.0901C47.1675 37.2602 41.6941 35.1089 36.0085 33.6913C29.8315 32.0088 23.4625 31.1185 17.0571 31.0422C14.4932 31.0136 11.932 31.2175 9.40554 31.6513C7.41991 31.952 5.49448 32.5612 3.70014 33.4564C2.32993 34.1206 1.20602 35.1966 0.488543 36.5311C-0.0925612 37.7799 -0.158942 39.2044 0.303543 40.5011C0.87367 42.0286 1.7814 43.4101 2.96014 44.5444C4.47361 46.0515 6.16286 47.3744 7.99214 48.485C12.8363 51.4136 18.0659 53.6633 23.5321 55.17C25.0491 55.6177 26.5809 56.0139 28.1201 56.3735C28.8601 56.5496 29.1931 55.4049 28.4383 55.2288Z" fill="#2D2745"/>
<path d="M16.258 26.9892C17.3504 25.906 17.3504 24.1497 16.258 23.0664C15.1656 21.9832 13.3945 21.9832 12.3021 23.0664C11.2098 24.1497 11.2098 25.906 12.3021 26.9892C13.3945 28.0725 15.1656 28.0725 16.258 26.9892Z" fill="#F28E61"/>
<path d="M57.9965 43.21C58.3514 41.719 57.4202 40.225 55.9167 39.8731C54.4131 39.5212 52.9066 40.4446 52.5517 41.9356C52.1969 43.4266 53.128 44.9205 54.6316 45.2724C56.1351 45.6243 57.6417 44.7009 57.9965 43.21Z" fill="#F28E61"/>
<path d="M26.1498 65.9477C26.5047 64.4568 25.5735 62.9628 24.07 62.6109C22.5664 62.259 21.0599 63.1824 20.705 64.6734C20.3502 66.1644 21.2814 67.6583 22.7849 68.0102C24.2884 68.3621 25.795 67.4387 26.1498 65.9477Z" fill="#F28E61"/>
<path d="M71.0398 2.79068C66.2224 1.235 56.743 0.824058 51.9108 1.05888C47.4042 1.28636 40.4704 1.11758 36.9184 4.36105C34.3654 6.68725 34.21 10.9654 36.1266 13.7392C36.2162 13.8736 36.3125 14.0034 36.4152 14.1281L34.8908 17.8779C34.8292 18.027 34.8118 18.1904 34.8408 18.3488C34.8698 18.5073 34.9439 18.6543 35.0544 18.7723C35.1649 18.8904 35.3071 18.9746 35.4644 19.0151C35.6216 19.0555 35.7872 19.0505 35.9416 19.0007L42.72 16.8433C51.156 17.3716 60.2506 17.3936 68.5016 15.9113C69.9657 15.7315 71.3538 15.1637 72.5198 14.2676C74.688 12.3743 74.688 3.97947 71.0398 2.79068Z" fill="#F0D2C2"/>
<path d="M48.2854 8.16943C47.9578 8.19397 47.6518 8.34029 47.4285 8.57911C47.2051 8.81792 47.0811 9.13159 47.0811 9.45728C47.0811 9.78297 47.2051 10.0966 47.4285 10.3355C47.6518 10.5743 47.9578 10.7206 48.2854 10.7451C48.6129 10.7206 48.9189 10.5743 49.1422 10.3355C49.3656 10.0966 49.4896 9.78297 49.4896 9.45728C49.4896 9.13159 49.3656 8.81792 49.1422 8.57911C48.9189 8.34029 48.6129 8.19397 48.2854 8.16943Z" fill="#2D2745"/>
<path d="M54.0197 8.16943C53.6922 8.19397 53.3862 8.34029 53.1628 8.57911C52.9395 8.81792 52.8154 9.13159 52.8154 9.45728C52.8154 9.78297 52.9395 10.0966 53.1628 10.3355C53.3862 10.5743 53.6922 10.7206 54.0197 10.7451C54.3472 10.7206 54.6533 10.5743 54.8766 10.3355C55.0999 10.0966 55.224 9.78297 55.224 9.45728C55.224 9.13159 55.0999 8.81792 54.8766 8.57911C54.6533 8.34029 54.3472 8.19397 54.0197 8.16943Z" fill="#2D2745"/>
<path d="M59.8 8.16943C59.4725 8.19397 59.1664 8.34029 58.9431 8.57911C58.7198 8.81792 58.5957 9.13159 58.5957 9.45728C58.5957 9.78297 58.7198 10.0966 58.9431 10.3355C59.1664 10.5743 59.4725 10.7206 59.8 10.7451C60.1275 10.7206 60.4336 10.5743 60.6569 10.3355C60.8802 10.0966 61.0043 9.78297 61.0043 9.45728C61.0043 9.13159 60.8802 8.81792 60.6569 8.57911C60.4336 8.34029 60.1275 8.19397 59.8 8.16943Z" fill="#2D2745"/>
</svg>
