<svg width="82" height="77" viewBox="0 0 82 77" fill="none" xmlns="http://www.w3.org/2000/svg">
<path d="M64.5784 59.0265H77.792V60.5412H64.5784V59.0265Z" fill="#734735"/>
<path d="M73.8967 51.2963L80.8368 72.1106L82 72.1628L77.1511 53.712L76.5107 51.2963H73.8967Z" fill="#734735"/>
<path d="M61.5453 71.3924L60.3821 71.4447L65.8714 50.5781H68.4854L61.5453 71.3924Z" fill="#734735"/>
<path d="M76.5109 51.2963L77.1514 53.725H74.7073L73.897 51.2963H76.5109Z" fill="#2B1919"/>
<path d="M63.3491 49.2854H79.0459V51.7925H63.3491V49.2854Z" fill="#734735"/>
<path d="M37.5891 37.5072C38.0073 36.9327 38.0073 36.3581 38.5432 35.875C38.9222 35.5355 39.7979 35.3527 40.2814 35.4049C41.0134 35.4833 42.8301 35.7314 43.575 35.653C44.2285 35.5747 44.8689 35.418 45.5224 35.2743L45.5094 35.2352C45.4702 35.1176 45.6401 35.0523 45.6793 35.1699C45.6923 35.196 45.6923 35.2221 45.7054 35.2482C45.7446 35.2352 45.7838 35.2352 45.823 35.2221C45.9407 35.196 45.9668 35.3788 45.8492 35.4049C45.823 35.4049 45.7969 35.418 45.7708 35.418C45.823 35.5747 45.8753 35.7183 45.9276 35.875C45.993 36.0578 46.1236 36.2928 46.1367 36.4887C46.1367 36.6062 46.1367 36.6846 46.0191 36.7499C45.9537 36.789 45.8492 36.776 45.7708 36.789C45.4832 36.8021 45.1826 36.776 44.8951 36.776C44.3854 36.776 44.2416 36.9719 43.7319 37.011C43.2483 37.0502 43.2744 37.2722 42.7908 37.3505C42.5164 37.4028 40.3468 37.2852 40.1246 37.455C40.007 37.5464 39.9024 37.6248 39.7586 37.677C39.1444 37.9251 38.2426 37.8467 37.6283 37.6378C37.5629 37.6378 37.5499 37.5464 37.5891 37.5072Z" fill="#C66B47"/>
<path d="M43.4441 34.6214C44.3982 33.9032 45.3785 33.1981 46.3718 32.5321C48.3715 31.1741 50.4496 29.9205 52.5669 28.7714C53.5602 28.236 54.5796 27.7137 55.5991 27.2175L55.5598 27.1653C55.5076 27.0869 55.6383 27.0086 55.6905 27.0869C55.7036 27.1131 55.7167 27.1261 55.7298 27.1522C55.8866 27.0739 56.0434 26.9955 56.2003 26.9303C56.2918 26.8911 56.3702 27.0217 56.2787 27.0608C56.1219 27.1392 55.9781 27.2045 55.8212 27.2828C57.468 29.6724 59.1148 32.062 60.7616 34.4516C60.7878 34.4908 60.7616 34.53 60.7355 34.5561C58.8796 35.7444 56.7231 36.2536 54.5665 36.567C52.1617 36.9065 49.7438 37.0763 47.3259 37.2199C45.8751 37.2983 44.4113 37.3635 42.9605 37.4288C42.9213 37.4288 42.8821 37.3897 42.8821 37.3505C42.8299 36.7498 42.7384 36.1492 42.7384 35.5485C42.7253 35.0784 43.1174 34.8695 43.4441 34.6214Z" fill="#EBD1C3"/>
<path d="M37.2756 16.5622C37.2756 16.5231 37.3017 16.4839 37.354 16.4839C37.9944 16.4578 38.6218 16.6536 39.223 16.7973C39.8895 16.954 40.5692 17.1107 41.2488 17.2151C41.3142 17.2282 41.3926 17.2413 41.4579 17.2674C41.4579 17.2543 41.471 17.2413 41.4841 17.2413L41.4971 17.2282C41.5363 17.2021 41.5756 17.2151 41.6017 17.2543C41.6017 17.2674 41.6148 17.2674 41.6148 17.2804C41.7063 17.2804 41.7847 17.2413 41.85 17.1498C41.9023 17.0715 41.9284 16.954 41.9807 16.8626C42.0461 16.7581 42.1245 16.6667 42.216 16.5884C42.6603 15.9616 43.1701 15.4001 43.4707 14.6819C43.4968 14.6166 43.5622 14.6036 43.6144 14.6688C43.7974 14.9039 43.9804 15.152 44.1503 15.387C44.1764 15.4131 44.1503 15.4784 44.1242 15.4915C43.6667 15.7265 43.2354 15.9877 42.8303 16.288C42.6603 16.4055 42.4904 16.5361 42.3336 16.6798C42.229 16.8365 42.1114 17.0062 42.0199 17.176C42.0069 17.2151 41.9938 17.2543 41.9676 17.2935C41.9415 17.3327 41.9284 17.3718 41.8892 17.3979C41.7847 17.4632 41.5756 17.4502 41.3664 17.411C41.1965 17.3979 40.9874 17.3327 40.8567 17.3196C40.4385 17.2935 40.0072 17.3065 39.5889 17.3196C38.8048 17.3457 38.0336 17.3849 37.2494 17.2674C37.2233 17.2674 37.1972 17.2282 37.1972 17.189C37.2364 16.9932 37.2625 16.7712 37.2756 16.5622Z" fill="#F7E9E1"/>
<path d="M39.2879 17.5024L39.314 17.8942L39.3924 19.2391L39.4709 20.4535L39.5231 21.2501C39.5362 21.472 39.7192 21.6418 39.9414 21.6418H43.6009C43.6271 21.6418 43.6532 21.6418 43.6793 21.6287C43.8492 21.5896 43.9799 21.4329 43.9669 21.2501L43.9146 20.4796L43.8362 19.2522L43.7316 17.5024C43.7185 17.2804 43.5356 17.1107 43.3134 17.1107H39.6538C39.6408 17.1107 39.6408 17.1107 39.6277 17.1107C39.4316 17.1237 39.2748 17.2935 39.2879 17.5024Z" fill="#D46744"/>
<path d="M41.9154 17.1107C42.5558 17.8289 43.1962 18.5471 43.8366 19.2522L43.915 20.4796C42.9087 19.3567 41.9154 18.2337 40.8959 17.1107H41.9154Z" fill="#F7E9E1"/>
<path d="M39.6274 17.1107C40.9867 18.6123 42.3329 20.114 43.666 21.6287C43.6399 21.6287 43.6137 21.6418 43.5876 21.6418H42.6727C41.5618 20.3882 40.4378 19.1477 39.3268 17.8942L39.3007 17.5024C39.2746 17.2935 39.4314 17.1237 39.6274 17.1107Z" fill="#F7E9E1"/>
<path d="M41.5488 21.6418H40.5294C40.1765 21.2501 39.8236 20.8453 39.4707 20.4535L39.3923 19.2391C40.1242 20.0357 40.83 20.8322 41.5488 21.6418Z" fill="#F7E9E1"/>
<path d="M44.5946 69.7472C44.4247 70.2173 44.2679 70.7005 44.0979 71.1706C44.0065 71.4317 43.8758 71.5884 44.111 71.7843C44.3071 71.954 44.5554 72.0846 44.7776 72.2282C46.5028 69.0682 48.3195 65.9474 50.1885 62.8788C49.1429 62.3434 48.1104 61.795 47.0648 61.2596C46.6073 63.1791 46.0846 65.0856 45.4964 66.9659C45.2219 67.893 44.9083 68.8201 44.5946 69.7472Z" fill="#E68B60"/>
<path d="M44.6603 68.7548C44.6995 68.4284 44.9347 68.0497 45.0393 67.7363C45.2876 66.9789 45.3137 66.2738 45.1438 65.5034C45.0001 64.8244 44.7909 64.1715 44.7909 63.4664C44.7909 62.1214 45.3399 60.8417 45.7058 59.5751C45.9672 58.7002 48.1499 52.9156 49.0125 51.1919C49.6399 49.9253 50.8946 46.9872 52.5021 46.7914C54.2535 46.5694 54.5802 49.9383 54.8416 51.3094C55.0638 52.4977 55.2468 53.699 55.4559 54.9004C55.5735 55.5533 55.7042 56.2714 56.0702 56.8329C56.1878 56.5065 56.3055 56.18 56.4231 55.8536C56.4492 55.7622 56.593 55.8275 56.5669 55.9189C56.4362 56.2714 56.3055 56.6371 56.1878 56.9896C56.3316 57.1855 56.5146 57.3552 56.7498 57.4858C56.8282 57.5381 56.776 57.6686 56.6845 57.6295C56.4623 57.4989 56.2924 57.3422 56.1355 57.1594C56.1355 57.1594 55.2337 59.4053 54.4888 61.2726C54.0313 62.4217 53.6131 63.4272 53.5085 63.6753C53.4693 63.7536 53.4301 63.845 53.3909 63.9234C52.9857 64.7722 52.4237 65.5948 51.6003 66.078C50.7116 66.6133 49.6268 66.548 48.7119 66.9789C47.6532 67.4751 47.1958 68.5981 46.8037 69.6297C46.7906 69.6689 46.7384 69.6819 46.6991 69.6689C46.3332 69.5514 45.9542 69.4208 45.5882 69.3033C45.353 69.2249 44.9216 69.1727 44.7387 69.0029C44.6603 68.9246 44.6472 68.8593 44.6603 68.7548Z" fill="#7D6B6E"/>
<path d="M38.4255 73.2859C38.8568 72.9726 42.8823 71.8496 43.5096 71.6537C43.7579 71.5754 43.9409 71.3925 44.2023 71.3664C44.4898 71.3403 44.7774 71.4056 45.0518 71.4709C45.0911 71.484 45.078 71.7321 45.078 71.7321C45.0518 72.1107 44.9734 72.6069 44.6467 72.8028C44.1892 73.064 38.9221 73.978 38.6346 73.9911C38.4777 73.9911 38.2555 74.0302 38.1248 73.9127C37.8634 73.6777 38.2294 73.4296 38.4255 73.2859Z" fill="#2B1919"/>
<path d="M52.7631 58.9222C52.75 58.8308 52.9068 58.8308 52.9199 58.9222C52.933 59.0136 52.946 59.105 52.946 59.1964C53.3512 59.7448 53.7564 60.2932 54.1746 60.8547C54.2792 60.9853 54.3837 61.129 54.4883 61.2595C54.0308 62.4086 53.6126 63.4141 53.508 63.6622C53.4688 63.7405 53.4296 63.8319 53.3904 63.9103C53.1682 62.3564 52.9722 60.8025 52.8023 59.2486L52.7892 59.2356C52.7631 59.2094 52.7761 59.1833 52.7892 59.1572C52.7761 59.0789 52.7631 59.0005 52.7631 58.9222Z" fill="#2B1919"/>
<path d="M56.7106 14.7864C56.7106 14.7864 58.6972 13.7679 59.4291 13.128C59.4422 13.115 59.4553 13.115 59.4683 13.115C59.4683 13.115 59.4683 13.115 59.4814 13.115C59.4814 13.115 59.4814 13.115 59.4945 13.115C59.5075 13.115 59.5206 13.128 59.5337 13.1411C60.6446 14.7472 62.9841 18.534 62.8403 18.743C62.6312 19.0433 60.2002 20.0096 60.2002 20.0096L56.7106 14.7864Z" fill="#E68B60"/>
<path d="M60.5654 69.7211C60.7745 70.1781 60.9836 70.6351 61.1927 71.0922C61.3103 71.3403 61.3234 71.5492 61.624 71.5231C61.8854 71.497 62.1599 71.4317 62.4082 71.3664C61.4672 67.893 60.6046 64.3934 59.8204 60.8809C58.6964 61.2073 57.5724 61.5468 56.4484 61.8733C57.4547 63.5708 58.3958 65.3075 59.2845 67.0703C59.7289 67.9452 60.1602 68.8331 60.5654 69.7211Z" fill="#E68B60"/>
<path d="M57.2064 75.3231C57.4417 74.8399 60.4739 71.9672 60.9444 71.5101C61.1274 71.3273 61.2058 71.0792 61.428 70.9356C61.6632 70.7789 61.9508 70.7005 62.2252 70.6353C62.2644 70.6222 62.369 70.8572 62.369 70.8572C62.5258 71.2098 62.6827 71.6799 62.4866 72.0063C62.1991 72.4503 57.9776 75.7148 57.7292 75.8584C57.5985 75.9368 57.4156 76.0674 57.2456 76.0282C56.8797 75.9368 57.0888 75.545 57.2064 75.3231Z" fill="#2B1919"/>
<path d="M53.9002 6.86025C54.6713 6.22042 60.3175 6.24653 60.6965 7.97018C60.9056 8.92341 60.8142 9.92887 60.6704 10.8952C60.5136 11.9267 60.409 12.9975 60.1345 14.0029C59.9908 14.5253 59.6379 15.0868 59.102 15.3218C59.1674 15.3349 59.2066 15.4263 59.1282 15.4524C57.8212 15.7658 56.3835 16.053 55.0242 16.0139C54.5145 16.0008 54.0309 15.8572 53.7695 15.4524C53.4951 15.0084 53.5473 14.4469 53.5343 13.9507C53.5343 13.9246 53.5343 13.8985 53.5343 13.8854C53.5212 13.6112 53.5212 13.3239 53.5081 13.0497C53.482 11.979 53.4428 10.9082 53.4166 9.83746C53.3905 8.76671 53.3121 7.3434 53.9002 6.86025Z" fill="#E68B60"/>
<path d="M43.0914 23.3132C43.2744 23.1304 43.4574 22.9214 43.6665 22.7647C43.7319 22.7125 43.7841 22.6603 43.8756 22.6603C43.9933 22.6603 49.1166 28.3013 50.5674 29.5679C50.5674 29.6202 50.5543 29.6724 50.5543 29.7246C50.5805 31.4483 50.2798 33.2111 49.744 34.8956C47.2869 31.2002 45.065 27.3481 43.0784 23.3915C43.0653 23.3785 43.0653 23.3393 43.0914 23.3132Z" fill="#E68B60"/>
<path d="M44.032 24.9847C44.411 24.5016 44.8554 24.0968 45.3651 23.7703C45.3913 23.7573 45.4174 23.7573 45.4435 23.7703C47.9529 25.1414 48.9593 26.2383 51.5079 28.432C52.5012 26.7345 53.5076 25.3895 54.4748 23.5744C55.0368 22.5037 55.8471 20.989 56.5921 20.0357C57.3109 19.0956 58.4219 18.4818 59.4152 17.8551C60.4085 17.2152 61.7154 16.5623 61.8069 16.6015C63.1139 17.163 63.7413 17.4503 64.8261 18.3904C65.937 19.3437 66.9564 20.6625 67.819 21.8247C69.5835 24.2143 71.2695 27.4788 72.1452 30.3254C72.4458 31.3047 72.8248 32.8195 73.2822 34.4517C72.6941 34.7129 72.3804 34.8173 71.7923 35.0654C71.1257 35.3527 70.5245 35.7314 69.8579 36.0056C69.0476 36.3451 68.2373 36.6977 67.4531 37.1025C66.9434 37.3636 66.4729 37.6901 65.9631 37.9121C65.4142 37.5073 63.5714 35.9403 63.0747 35.4572C61.9507 34.3734 59.5851 33.7205 59.5851 33.7205C59.5851 33.7205 56.4352 35.6791 54.3441 36.097C53.1809 36.332 51.9654 36.5671 50.2663 35.5877C49.835 35.3396 48.2013 33.6813 45.8356 30.4037C45.4827 29.9206 44.215 27.7922 43.7575 25.8465C43.6268 25.4417 43.8098 25.272 44.032 24.9847Z" fill="#F7E9E1"/>
<path d="M51.9659 46.9611C53.0638 46.2691 54.2793 45.7337 55.4294 45.1591C56.6188 44.5585 64.147 41.3462 66.4081 40.6933C66.4081 40.158 65.2579 37.4419 65.2579 37.4419C65.2579 37.4419 72.956 33.5768 73.0083 33.5768C74.4721 34.9609 75.7268 36.554 76.7202 38.2907C77.7657 40.1188 78.7329 42.2472 78.8767 44.3757C78.942 45.3942 78.7852 46.4258 78.2493 47.3137C77.7527 48.1363 76.9946 48.7892 76.1582 49.2593C75.1648 49.8078 74.0408 50.082 72.9299 50.317C71.074 50.7088 65.1534 52.5108 61.7552 52.9156C62.1342 54.0516 62.7616 57.9298 62.8269 58.6741C62.9054 59.8493 62.9446 61.0115 62.9576 62.1867C62.9576 62.709 62.9707 63.2313 62.8662 63.7406C62.7616 64.2107 62.5525 64.6285 62.3172 65.0333C62.0428 65.5295 61.7029 66.0388 61.5984 66.6133C61.4546 67.3446 61.7029 68.0497 61.9382 68.7287C61.9513 68.7679 61.9251 68.8071 61.8859 68.8201C61.7029 68.8854 61.533 68.9507 61.3501 69.016C61.2978 69.029 61.2455 69.0552 61.2063 69.0682C61.0625 69.1205 60.9057 69.1727 60.7619 69.2249C60.4221 69.3424 59.9908 69.5905 59.6379 69.6167C59.1674 69.6558 59.0236 68.8462 58.8929 68.5198C58.6054 67.7624 58.2917 67.0834 57.7166 66.5089C57.2592 66.0518 56.7103 65.6732 56.2136 65.2422C54.1617 63.5055 50.6067 53.6468 50.4629 52.6675C50.1754 50.6565 49.9924 48.1886 51.9659 46.9611Z" fill="#968084"/>
<path d="M57.1548 53.8427C57.5469 55.9842 58.1089 58.0996 58.6709 60.2019C59.4682 63.1661 60.3177 66.1041 61.1803 69.0552C61.2326 69.0421 61.2849 69.016 61.3241 69.003C61.0235 67.9975 60.736 66.992 60.4484 65.9866C59.2852 61.9909 58.0697 57.9821 57.3117 53.8819C56.9457 51.871 57.0372 49.6903 58.8278 48.3845C59.5858 47.823 60.4746 47.4443 61.311 47.0134C62.2651 46.5303 63.2323 46.0471 64.1995 45.564C64.2909 45.5248 64.2125 45.3942 64.121 45.4334C63.0101 45.9949 61.8861 46.5564 60.7752 47.1309C59.8733 47.588 58.9062 48.0189 58.1873 48.7501C56.8281 50.082 56.8411 52.0929 57.1548 53.8427Z" fill="#7D6B6E"/>
<path d="M54.4752 22.1381C55.1156 20.754 56.2527 19.5657 57.442 18.5733C57.5204 18.508 57.6119 18.4297 57.7165 18.3644C57.7688 18.3252 57.8341 18.286 57.8864 18.2469C59.311 17.2545 61.6113 16.2621 61.6113 16.2621C66.4732 17.8943 80.4187 32.2972 80.6932 45.6685C80.7324 47.7056 79.7522 49.3509 77.9355 50.2388C77.2428 50.5783 76.4717 50.8134 75.7005 50.957C75.2823 53.3727 74.9294 55.7884 74.6419 58.2172C74.485 59.5099 74.4197 60.8288 74.1975 62.1085C74.1452 62.3957 74.0799 62.683 74.0015 62.9703C73.9361 63.1923 73.8577 63.5579 73.6878 63.7277C73.4264 63.9888 72.786 63.7538 72.4854 63.7015C69.9629 63.2837 67.5058 62.5133 65.1924 61.4164C64.2252 60.9594 63.2189 60.424 62.7353 59.4185C62.5131 58.9484 61.9511 54.3521 61.8073 53.1507C61.7812 52.9679 61.7681 52.8634 61.7681 52.8634C61.7681 52.8634 64.735 52.1191 65.9112 51.7666C65.8067 51.5707 65.7021 51.3879 65.6106 51.192C65.5976 51.1659 65.5714 51.1267 65.5584 51.0876C65.2447 50.4347 64.7872 49.3117 64.2906 47.9406C64.2775 47.9014 64.2514 47.8492 64.2383 47.797C63.3888 45.4857 62.3693 42.5085 61.4937 39.8316C61.4806 39.7794 61.4675 39.7402 61.4414 39.688C61.0623 38.5389 60.7095 37.442 60.3958 36.4888C60.069 35.4703 59.7946 34.6085 59.6116 33.9947C59.5985 33.9425 59.5724 33.8772 59.5593 33.825C59.5593 33.8119 59.5462 33.7858 59.5462 33.7727C59.5462 33.7597 59.5332 33.7466 59.5332 33.7336C58.4222 34.1906 57.3375 34.6868 56.2657 35.2222C56.2265 35.2483 56.1873 35.2222 56.1612 35.1961C55.0372 33.6944 53.9132 32.2058 52.7892 30.7041C52.3579 30.1296 51.5214 28.4321 51.5214 28.4321C51.5214 28.4321 53.4949 24.2796 54.4752 22.1381Z" fill="#F7E9E1"/>
<path d="M53.8873 10.7253C53.9134 11.0256 54.0441 11.2737 54.1879 11.2607C54.3316 11.2476 54.4362 10.9995 54.41 10.6861C54.3839 10.3858 54.2532 10.1377 54.1094 10.1508C53.9657 10.1638 53.8611 10.425 53.8873 10.7253Z" fill="#2B1919"/>
<path d="M65.9115 51.7795C65.807 51.5837 66.8264 53.5424 66.8003 53.5815C65.0751 53.3857 61.7684 52.8764 61.7684 52.8764C61.7684 52.8764 64.7222 52.1321 65.9115 51.7795Z" fill="#2B1919"/>
<path d="M53.7037 6.91249C55.3898 5.41083 58.6441 5.18884 60.3824 6.88638C61.3235 7.81349 61.6502 9.28904 61.9639 10.5165C62.1338 11.1955 63.2316 13.0628 62.4867 14.4992C62.2122 15.0084 61.5587 15.2173 61.0228 15.4132C60.3955 15.6221 57.2718 16.3011 56.5922 16.3795C56.2132 16.4187 55.5858 16.484 55.4812 16.0269C55.4551 16.0008 55.442 15.9616 55.4682 15.9225C56.1478 15.1782 56.749 14.4469 57.0758 13.4806C57.2195 13.0628 57.311 12.6319 57.4025 12.201C57.4417 11.992 57.4809 11.77 57.5201 11.5481C57.5855 11.1433 57.5201 10.8429 57.1803 10.5818C55.8341 9.52408 54.3442 8.84507 53.6384 7.18671C53.6253 7.18671 53.5731 7.01696 53.7037 6.91249Z" fill="#2B1919"/>
<path d="M59.219 8.94957C59.1798 8.07469 59.0491 7.19981 59.3759 6.3641C59.3759 6.35104 59.389 6.35104 59.389 6.33798C59.3759 6.28575 59.4151 6.22046 59.4804 6.24658C60.1601 6.52079 60.6567 7.14757 61.1403 7.66989C61.6631 8.23138 62.1467 8.83205 62.5911 9.45883C63.3752 10.5557 64.3816 11.9268 64.0549 13.3501C63.9242 13.9377 63.5844 14.447 63.0354 14.7081C62.4473 14.9954 61.6762 15.2435 61.0096 15.2696C60.3823 15.2957 59.9771 14.9823 59.7288 14.4208C59.402 13.6504 59.2452 12.8278 59.206 12.0051C59.1668 10.9997 59.2713 9.96809 59.219 8.94957Z" fill="#2B1919"/>
<path d="M56.8015 11.091C56.7493 11.0779 56.7101 11.0388 56.7362 10.9735C56.9453 10.5687 57.5073 10.3859 57.8471 10.7254C58.1608 11.0388 58.2262 11.5872 57.8733 11.9136C57.5857 12.1617 56.9976 12.2532 56.7754 11.8875C56.6708 11.6786 56.697 11.3391 56.8015 11.091Z" fill="#E68B60"/>
<path d="M52.7626 11.757C52.7888 11.548 52.9587 11.3522 53.0632 11.1824C53.2462 10.8821 53.4161 10.5817 53.5599 10.2683C53.586 10.2031 53.6906 10.2553 53.6644 10.3206C53.6514 10.3467 53.6383 10.3728 53.6252 10.3989C53.6383 10.3989 53.6383 10.412 53.6514 10.412C53.8082 10.634 53.7821 10.9343 53.7951 11.1955C53.8082 11.5872 53.8082 11.9659 53.7821 12.3576C53.7821 12.3968 53.7428 12.4229 53.7036 12.4098C53.3769 12.3054 52.7103 12.2401 52.7626 11.757Z" fill="#E68B60"/>
<path d="M53.4556 9.49802C53.4425 9.30215 53.5601 9.1324 53.8869 9.08017C54.2397 9.02793 54.7495 9.04099 54.9324 9.41967C54.9847 9.52413 54.9847 9.68083 54.8932 9.77224C54.7495 9.91587 54.4619 9.83753 54.292 9.85058C54.0045 9.83753 53.4817 9.99422 53.4556 9.49802Z" fill="#2B1919"/>
<path d="M54.0439 13.0235C54.1615 13.0105 54.3837 12.9321 54.4883 12.9974C54.5144 13.0235 54.5275 13.0496 54.5144 13.0888C54.4491 13.4283 53.9785 13.7286 53.6779 13.8331C53.6387 13.8462 53.5864 13.8723 53.5342 13.8853C53.5211 13.6111 53.5211 13.3238 53.508 13.0496C53.691 13.0496 53.9132 13.0366 54.0439 13.0235Z" fill="white"/>
<path d="M57.8733 15.4654C58.6313 14.7342 58.6052 13.6504 58.5529 12.671C58.5529 12.5796 58.6966 12.5796 58.7097 12.671C58.762 13.6896 58.7751 14.8125 57.9909 15.5699C57.9125 15.6352 57.8079 15.5307 57.8733 15.4654Z" fill="#87423A"/>
<path d="M60.0432 14.9824C60.4614 14.4078 60.6052 13.7157 60.4091 13.0367C60.383 12.9453 60.5267 12.9061 60.5529 12.9976C60.7489 13.7157 60.6052 14.46 60.1608 15.0607C60.1085 15.1391 59.9778 15.0607 60.0432 14.9824Z" fill="#87423A"/>
<path d="M55.9786 7.39563C56.3053 8.00935 56.6844 8.57084 57.1287 9.10622C57.1941 9.18456 57.0895 9.28903 57.0242 9.21068C56.5798 8.66225 56.1877 8.0877 55.861 7.46092C55.8087 7.38257 55.9394 7.30422 55.9786 7.39563Z" fill="#87423A"/>
<path d="M57.521 10.9996C57.6125 10.9604 57.6648 11.091 57.5733 11.1432C57.2727 11.2999 57.0636 11.5611 56.9982 11.8875C56.9721 11.9789 56.8283 11.9659 56.8544 11.8745C56.9459 11.4827 57.1812 11.1824 57.521 10.9996Z" fill="#C66B47"/>
<path d="M38.1381 19.3958C38.3472 19.3305 38.5302 19.5917 38.6739 19.8267C38.7262 19.7614 38.8308 19.7484 38.9876 19.8267C39.1706 19.9312 39.2882 20.1401 39.3928 20.3099C39.5758 20.5972 40.0463 21.1064 40.3077 21.3153C40.7651 21.2501 41.2225 21.1848 41.6931 21.1456C42.1505 21.1064 42.7386 20.9889 43.183 21.1717C43.5359 21.3153 43.6797 21.681 43.8757 22.0074C44.111 22.4122 44.2025 22.6342 44.3724 23.0651C44.3985 23.0782 44.4246 23.1304 44.4116 23.1696C44.4246 23.1957 44.4377 23.2349 44.4508 23.261C44.49 23.3654 44.3332 23.4046 44.294 23.3002C44.294 23.2871 44.2809 23.274 44.2809 23.274C43.8757 23.5091 40.6867 23.7441 40.4906 23.6397C40.3338 23.5613 39.3405 22.2033 38.9876 21.694C38.7916 21.4851 37.5107 19.6048 38.1381 19.3958Z" fill="#E68B60"/>
<path d="M66.1206 52.093C67.8719 55.8667 70.0023 59.4577 72.4986 62.8005C72.5509 62.8788 72.4202 62.9572 72.3679 62.8788C69.8716 59.536 67.7412 55.9581 65.9899 52.1713C65.9507 52.0799 66.0683 52.0016 66.1206 52.093Z" fill="#A57665"/>
<path d="M67.9765 39.5443C68.4209 40.9284 68.9044 42.3517 68.9044 43.8142C68.9044 44.5063 68.813 45.2375 68.4993 45.8513C68.1595 46.5303 67.5713 46.909 66.8786 47.144C66.016 47.4443 65.1273 47.6533 64.2255 47.7969C64.2385 47.8491 64.2647 47.8883 64.2777 47.9405C64.6306 47.8883 64.9835 47.81 65.3364 47.7316C66.1075 47.5619 66.944 47.379 67.6367 46.9742C68.813 46.2952 69.0874 44.8458 69.0482 43.5922C68.9959 41.9861 68.4339 40.4583 67.9373 38.9436C67.8589 38.7216 67.7935 38.4866 67.7151 38.2646C67.6628 38.1079 67.6367 37.912 67.5452 37.7684C67.4798 37.677 67.4145 37.6378 67.3099 37.6378C66.957 37.6378 66.5257 37.8598 66.199 37.9773C65.8461 38.1079 65.4802 38.2385 65.1273 38.3821C63.9118 38.8653 62.6963 39.3876 61.4154 39.6749C61.4285 39.7271 61.4547 39.7663 61.4677 39.8185C62.7224 39.5312 63.9118 39.022 65.1011 38.5519C65.7285 38.3038 66.3558 38.0687 66.9963 37.8729C67.2446 37.7945 67.3622 37.7945 67.4798 38.0296C67.5583 38.1993 67.5975 38.3952 67.6628 38.578C67.7674 38.9175 67.8719 39.2309 67.9765 39.5443Z" fill="#A57665"/>
<path d="M59.7818 33.4592C60.0955 33.0152 60.4223 32.5843 60.7621 32.1534C60.8013 32.1012 60.8536 32.1142 60.8928 32.1534C60.9451 32.1403 61.0104 32.1795 60.9973 32.2448C60.7621 33.6551 60.566 35.0784 60.3961 36.5017C60.0694 35.4832 59.7949 34.6214 59.6119 34.0076C59.5989 33.9554 59.5727 33.8901 59.5597 33.8379C59.5597 33.8248 59.5466 33.7987 59.5466 33.7856C59.6119 33.6681 59.7034 33.5637 59.7818 33.4592Z" fill="#2B1919"/>
<path d="M64.0427 23.5091C64.1995 25.1544 63.6898 26.7735 62.9971 28.2491C62.0691 30.2208 60.8536 32.0751 59.5466 33.8379C59.5597 33.8901 59.5858 33.9423 59.5989 34.0076C60.1217 33.3156 60.6184 32.5974 61.0889 31.8661C62.8272 29.2284 64.8138 25.9509 64.0557 22.6603C63.7551 21.3545 63.0232 20.127 61.8469 19.4219C61.1019 18.9779 60.2393 18.756 59.4029 18.5601C58.8931 18.4426 58.3965 18.3381 57.8868 18.2467C57.8214 18.2859 57.7691 18.3251 57.7169 18.3642C58.3181 18.4687 58.9193 18.5862 59.5074 18.7298C60.3962 18.9388 61.3111 19.1999 62.0691 19.7353C63.2715 20.6102 63.912 22.0727 64.0427 23.5091Z" fill="#A57665"/>
<path d="M38.6474 20.3361C38.9611 20.6887 39.2748 21.0282 39.6015 21.3677C39.9413 21.7202 40.3465 22.3209 40.8823 22.112C40.9738 22.0728 41.0131 22.2164 40.9216 22.2556C40.4118 22.4645 40.2289 22.2295 39.876 21.8769C39.4185 21.4068 38.9742 20.9368 38.5298 20.4406C38.4775 20.3622 38.5821 20.2578 38.6474 20.3361Z" fill="#C66B47"/>
<path d="M39.6279 15.4654C39.9677 15.1781 40.5297 15.6351 40.7911 15.8571C41.0656 16.0791 41.2878 16.3533 41.4708 16.6536C41.3923 16.1705 41.3793 15.6743 41.4969 15.2173C41.6015 14.7994 42.0066 14.4077 42.4249 14.7341C42.8431 15.0606 42.7647 15.7135 42.634 16.1574C42.4902 16.6798 42.2027 17.1629 41.706 17.4371C41.6537 17.4632 41.6015 17.4241 41.5884 17.3718C41.3139 17.3457 41.1048 17.189 40.8695 17.0584C40.5428 16.8756 40.2161 16.7059 39.9024 16.4969C39.6148 16.288 39.2358 15.7788 39.6279 15.4654Z" fill="#F7E9E1"/>
<path d="M37.942 37.5987C38.3603 37.22 38.7785 36.8413 39.1967 36.4888C39.5757 36.1754 39.7326 36.1754 40.2292 36.1884C40.3207 36.1884 40.3207 36.3451 40.2292 36.3451C40.0201 36.3451 39.7718 36.2929 39.5757 36.3843C39.3797 36.4757 39.1706 36.7108 39.0137 36.8544C38.687 37.1417 38.3733 37.4289 38.0466 37.7162C37.9682 37.7684 37.8636 37.664 37.942 37.5987Z" fill="#C66B47"/>
<path d="M37.3933 37.3636C37.707 36.8936 38.0598 36.4626 38.4781 36.0709C38.8571 35.7183 39.1185 35.5094 39.6413 35.6139C39.7328 35.6269 39.6936 35.7836 39.6021 35.7575C39.0401 35.64 38.6611 36.084 38.3082 36.4626C38.0206 36.763 37.7723 37.0894 37.537 37.442C37.4586 37.5203 37.3279 37.442 37.3933 37.3636Z" fill="#C66B47"/>
<path d="M30.9233 35.0261C31.0409 35.0653 34.8834 35.8227 35.2363 35.7312C35.5238 35.6529 35.7983 35.5354 36.0728 35.4309C36.3734 35.3134 36.6871 35.1828 36.9877 35.1045C37.5627 34.9217 38.1639 34.9217 38.7652 34.9869C39.4709 35.0653 40.0721 35.2481 40.6472 35.679C40.7518 35.7574 40.987 35.8879 40.9609 36.0577C40.9347 36.2536 40.6733 36.2536 40.5426 36.2405C40.1375 36.2274 39.7454 36.136 39.3402 36.1099C39.0135 36.0969 38.6737 36.0969 38.3469 36.123C38.2946 36.2666 38.3208 36.3711 38.4515 36.4233C38.6345 36.5931 38.9481 36.6192 39.1834 36.6453C39.3794 36.6714 39.8369 36.6453 39.9414 36.8673C39.9937 36.9718 39.9545 37.0632 39.8499 37.1154C39.7585 37.1676 39.6278 37.1546 39.5232 37.1546C39.2879 37.1546 39.0527 37.1676 38.8174 37.1676C38.3731 37.1807 36.5694 37.2068 36.125 37.2199C35.6153 37.2329 35.2755 37.0893 34.988 37.0762C34.6743 37.0632 31.4722 36.802 30.871 36.6714C30.8318 36.6584 31.0278 36.3711 31.0278 36.3319C31.1585 35.9532 29.6294 34.6344 30.9233 35.0261Z" fill="#E68B60"/>
<path d="M17.0827 33.0153C17.148 32.6236 17.4094 32.3885 17.7754 32.2579C18.3374 32.049 18.9517 31.9315 19.5529 31.827C20.4024 31.6834 21.5395 31.7487 22.1146 31.0174C24.1273 31.5267 26.1139 32.1535 28.0483 32.9108C28.7017 33.1589 29.3552 33.4331 29.9957 33.7204C30.1525 33.7857 30.3093 33.8641 30.4662 33.9293C30.9105 34.1252 31.3418 34.3341 31.7732 34.5561C32.0607 34.6998 32.3613 34.8434 32.6488 35.0001C32.7795 35.0654 32.9233 35.1176 33.0017 35.2351C33.0801 35.3657 33.0278 35.6008 33.0278 35.7575C33.0148 36.097 33.0017 36.4495 32.9364 36.789C32.9233 36.8935 32.9233 36.9457 32.8579 37.0502C32.7665 37.1938 32.7534 37.1677 32.5835 37.1677C32.4397 37.1677 32.2829 37.1677 32.1391 37.1808C31.4725 37.1938 30.806 37.2069 30.1394 37.233C30.0218 37.233 29.8388 37.2461 29.6166 37.2461C28.9631 37.2722 27.9045 37.2983 26.7021 37.3113C23.6307 37.3636 19.6052 37.3505 18.9386 36.8935C17.8669 36.1623 17.2003 35.1046 17.1219 33.8771C17.0565 33.5898 17.0304 33.3026 17.0827 33.0153Z" fill="#2B1919"/>
<path d="M29.9954 11.7308C30.1654 11.6785 30.3353 11.6132 30.5182 11.561C30.5574 11.5479 30.5836 11.5741 30.6097 11.6002C30.9626 12.1094 31.2763 12.6448 31.5246 13.2194C31.7468 13.7156 31.9167 14.2379 32.1912 14.708C32.8577 13.9637 33.5766 13.2585 34.3216 12.6056C34.3608 12.5665 34.413 12.5795 34.4392 12.6187C34.5307 12.7362 34.7921 12.9974 34.7529 13.1671C34.7136 13.3369 34.3216 13.4805 34.1909 13.5719C33.5243 14.0028 32.8839 14.4599 32.2565 14.943C32.2173 14.9691 32.165 14.9691 32.1389 14.9299C32.1258 14.9038 32.0997 14.8647 32.0866 14.8385C32.0605 14.8385 32.0474 14.8255 32.0343 14.8124C31.3024 13.8592 30.5705 12.8929 29.9562 11.8483C29.917 11.796 29.9432 11.7438 29.9954 11.7308Z" fill="#F7E9E1"/>
<path d="M30.4398 13.1934C30.7012 12.9061 31.1848 13.1411 31.42 13.337C31.6161 13.4937 31.7598 13.6896 31.8775 13.8985C31.8644 13.7157 31.8905 13.5329 31.982 13.3501C32.0997 13.102 32.3611 12.88 32.6355 13.0628C33.2759 13.4807 32.6094 14.5383 32.2042 14.8517C32.2042 14.8648 32.2042 14.8648 32.2042 14.8779C32.1911 14.917 32.1519 14.9431 32.1127 14.9301C31.603 14.8126 31.0671 14.5906 30.7012 14.1988C30.4659 13.9769 30.1784 13.4937 30.4398 13.1934Z" fill="#F7E9E1"/>
<path d="M29.7343 15.0607L29.9696 18.8083C29.9826 19.0303 30.1656 19.2 30.3878 19.2H34.0473C34.2695 19.2 34.4264 19.0303 34.4133 18.8083L34.178 15.0607C34.165 14.8387 33.982 14.6689 33.7598 14.6689H30.1003C29.8781 14.682 29.7212 14.8517 29.7343 15.0607Z" fill="#D46744"/>
<path d="M33.3545 14.6819V19.213H32.3743V14.6819H33.3545Z" fill="#F7E9E1"/>
<path d="M31.498 14.6819V19.213H30.5178V14.6819H31.498Z" fill="#F7E9E1"/>
<path d="M32.9356 66.0127C32.7526 64.0409 32.635 62.0692 32.5827 60.0974C31.4587 60.4108 30.3216 60.7242 29.1976 61.0376C30.4 64.4326 31.524 67.8538 32.5696 71.3011C32.8179 71.2097 33.0924 71.1314 33.3146 71.0139C33.576 70.8702 33.4845 70.6874 33.4453 70.4132C33.3799 69.917 33.3146 69.4208 33.2492 68.9246C33.1316 67.9583 33.0271 66.9789 32.9356 66.0127Z" fill="#E68B60"/>
<path d="M38.7129 74.3436C38.5691 74.435 38.3469 74.3567 38.2031 74.3175C37.9287 74.2522 32.9621 72.2674 32.57 71.9149C32.2825 71.6668 32.3086 71.1575 32.3609 70.7788C32.3609 70.7788 32.4001 70.5307 32.4393 70.5307C32.7138 70.5177 33.0144 70.5307 33.2889 70.6091C33.5372 70.6874 33.681 70.8963 33.9032 71.0269C34.4782 71.3534 38.177 73.2729 38.5429 73.6777C38.7129 73.8474 39.0265 74.1739 38.7129 74.3436Z" fill="#2B1919"/>
<path d="M14.4157 61.5599C15.8795 60.228 17.3826 58.9484 18.9248 57.7209C17.9968 57.0158 17.0558 56.2976 16.1279 55.5925C14.1413 58.5958 12.0893 61.5599 9.95891 64.4588C10.1811 64.6024 10.4033 64.7722 10.6385 64.8767C10.913 65.0072 11.0045 64.8244 11.2005 64.6286C11.5534 64.276 11.9063 63.9234 12.2723 63.5709C12.978 62.8919 13.6969 62.2128 14.4157 61.5599Z" fill="#E68B60"/>
<path d="M11.2402 71.1967C11.0834 71.1314 11.018 70.9094 10.9527 70.7788C10.8351 70.5177 9.43658 65.3598 9.47579 64.8375C9.50193 64.4588 9.92017 64.1715 10.26 63.9887C10.26 63.9887 10.4822 63.8712 10.5083 63.8973C10.6782 64.1193 10.8612 64.3543 10.9658 64.6155C11.0572 64.8636 10.9658 65.0986 11.005 65.3598C11.0965 66.0127 11.7892 70.1259 11.6846 70.6482C11.6323 70.8963 11.567 71.3272 11.2402 71.1967Z" fill="#2B1919"/>
<path d="M14.429 40.0795C14.7688 39.505 15.1348 38.9304 15.4877 38.3559C15.4746 38.3167 15.5007 38.2775 15.5399 38.2645C15.5791 38.1992 15.6314 38.1208 15.6706 38.0556C15.7229 37.9772 15.8536 38.0425 15.8013 38.1339C15.7621 38.1992 15.7229 38.2645 15.6706 38.3298C16.6378 39.1524 17.8925 39.505 19.0426 40.0012C20.2712 40.5235 21.4475 41.1372 22.5846 41.8162C23.7086 42.4953 24.7934 43.2265 25.852 43.9969C26.9107 44.7673 27.9824 45.5378 28.9234 46.4388C30.7532 48.1885 31.7465 50.5389 32.4915 52.9024C32.9228 54.2866 33.2757 55.6838 33.6155 57.094C33.9553 58.4912 34.3082 59.8884 34.5827 61.2856C34.8179 62.487 35.1708 63.8972 34.6219 65.0724C34.465 65.4119 34.2167 65.6861 34.0337 66.0126C33.8377 66.3652 33.7331 66.7569 33.7331 67.1617C33.72 67.9191 33.9814 68.6634 34.2298 69.3815C34.2428 69.4207 34.2167 69.4599 34.1775 69.4729C33.4194 69.7602 32.6222 69.8647 31.8249 69.7994C31.7988 69.7994 31.7596 69.7733 31.7465 69.7472C31.6289 69.1204 31.4851 68.4936 31.1453 67.9321C30.8055 67.3706 30.2565 67.0181 29.8122 66.548C29.0411 65.7123 28.6097 64.6415 28.2177 63.5969C27.4073 61.4293 26.6231 59.2225 25.3684 57.2638C25.2639 57.094 25.1462 56.9243 25.0286 56.7545C24.6104 56.1539 24.1399 55.6185 23.6301 55.1092C22.3101 53.7904 20.7679 52.6804 19.4478 51.3355C17.7879 49.6249 16.4156 47.6401 15.4092 45.4725C14.8603 44.2972 14.3637 43.0567 14.0892 41.7901C13.9846 41.1372 14.1023 40.628 14.429 40.0795Z" fill="#9697B0"/>
<path d="M25.6432 52.5238C25.6432 52.4194 25.6563 52.328 25.6693 52.2235C25.6693 52.1321 25.8262 52.1321 25.8262 52.2235C25.8262 52.328 25.8131 52.4324 25.8 52.5369C25.8 52.5499 25.8 52.5761 25.8 52.5891C25.6955 54.143 25.5648 55.6969 25.4079 57.2508C25.3034 57.081 25.1857 56.9113 25.0681 56.7415C24.6499 56.1409 24.1794 55.6055 23.6697 55.0962C23.931 54.0385 24.8982 53.2551 25.6432 52.5238Z" fill="#2B1919"/>
<path d="M3.84248 39.6617C4.16922 38.7607 4.67895 37.9119 5.33244 37.2068C5.65919 36.8542 5.89444 36.7628 6.36495 36.9326C6.94002 37.1415 7.5151 37.3765 8.09017 37.5724C9.38408 38.0033 10.7172 38.369 12.0503 38.6432C13.2005 38.8782 14.6381 39.1133 15.6184 38.369C15.6053 38.3559 15.5922 38.3559 15.5922 38.3428C15.5138 38.2775 15.6184 38.1731 15.6968 38.2384C15.7099 38.2514 15.7229 38.2645 15.736 38.2775C15.8536 38.1731 15.9713 38.0556 16.0758 37.9119C16.1281 37.8336 16.2588 37.9119 16.2065 37.9903C16.102 38.1339 15.9843 38.2645 15.8667 38.369C19.2779 41.0197 22.5715 43.9839 24.728 47.7707C25.2508 48.6978 25.8651 49.7555 26.022 50.8262C26.1919 51.91 25.7475 52.9547 25.1724 53.8426C23.9308 55.7752 20.781 58.674 19.0035 60.0712L17.1737 61.4946C16.664 61.8994 16.1542 62.3172 15.6053 62.6437C15.0564 62.9701 14.4682 63.1137 13.867 63.2966C13.2135 63.5055 12.5339 63.8319 12.2986 64.5371C12.2856 64.5893 12.2072 64.6154 12.168 64.5762C11.7236 64.0278 11.2531 63.4794 10.8348 62.9048C10.5734 62.5522 10.6911 62.3433 11.057 62.1475C11.6321 61.8471 11.6321 61.2073 11.5798 60.6197C11.5406 60.0843 11.5014 59.562 11.5798 59.0135C11.8935 56.5717 14.7688 53.0461 15.3962 50.6956C14.1546 50.4998 12.9129 50.2908 11.6713 50.0558C10.5342 49.8469 9.38408 49.5988 8.29928 49.1809C6.45644 48.4627 4.94035 47.1178 4.09081 45.3158C3.24127 43.566 3.16285 41.5029 3.84248 39.6617Z" fill="#C1C2D4"/>
<path d="M19.2651 51.3355C18.4809 50.4868 17.7098 49.625 16.9256 48.7762C15.4618 47.1701 13.9849 45.577 12.5603 43.9448C11.0181 42.1819 9.52812 40.3538 8.22114 38.3951C8.16886 38.3168 8.29956 38.2384 8.35184 38.3168C10.8743 42.0644 14.0111 45.342 17.0433 48.6717L19.3828 51.2311C19.5788 51.44 19.984 51.7403 19.997 52.0537C20.0101 52.2104 19.8925 52.3671 19.8141 52.4977C19.6572 52.7458 19.5004 52.9939 19.3174 53.229C18.1673 54.822 16.6904 56.1278 15.3703 57.5772C13.7758 59.327 12.4688 61.2988 11.5017 63.4533C11.4625 63.5447 11.3318 63.4664 11.371 63.375C12.1944 61.573 13.24 59.8754 14.4947 58.3477C15.7363 56.846 17.2001 55.5663 18.4417 54.0777C18.7554 53.7121 19.0429 53.3334 19.3174 52.9417C19.4481 52.7458 19.6442 52.5238 19.7356 52.3018C19.9186 51.8709 19.5265 51.6098 19.2651 51.3355Z" fill="#9697B0"/>
<path d="M22.1407 15.9224C22.1407 15.9224 19.5136 14.7733 19.3045 14.4469C19.1607 14.2119 21.8401 10.1639 23.1078 8.4533C23.1209 8.44024 23.134 8.42719 23.147 8.42719C23.147 8.42719 23.147 8.42719 23.1601 8.42719C23.1601 8.42719 23.1601 8.42719 23.1732 8.42719C23.1862 8.42719 23.1993 8.42718 23.2124 8.44024C23.9966 9.17149 26.127 10.3467 26.127 10.3467L22.1407 15.9224Z" fill="#E68B60"/>
<path d="M22.5851 5.92011C22.5851 4.84936 22.6244 3.75249 23.0034 2.76009C23.683 0.958091 29.7735 1.78074 30.5185 2.59033C30.9629 3.07348 30.8714 4.11811 30.7146 5.09746C30.6754 5.34556 30.6362 5.59366 30.5969 5.8287C30.5969 5.84176 30.5969 5.85482 30.5969 5.86788C30.4009 7.01697 30.2049 8.17913 30.0088 9.32823C29.9565 9.62856 29.9042 9.92889 29.852 10.2292C29.852 10.2553 29.8389 10.2815 29.8389 10.3076C29.7474 10.8299 29.7213 11.4567 29.3553 11.8876C29.0155 12.2924 28.4666 12.3707 27.9176 12.3054C26.4538 12.1357 24.9377 11.6134 23.5654 11.078C23.487 11.0388 23.5262 10.9474 23.6046 10.9474C23.0687 10.6079 22.7681 9.95501 22.6897 9.3674C22.5459 8.23136 22.5982 7.04309 22.5851 5.92011Z" fill="#E68B60"/>
<path d="M29.9563 6.76889C29.8909 7.09534 29.708 7.33038 29.5511 7.30427C29.3943 7.27815 29.3289 6.97782 29.3943 6.65137C29.4596 6.32492 29.6426 6.08988 29.7995 6.11599C29.9563 6.14211 30.0216 6.44244 29.9563 6.76889Z" fill="#2B1919"/>
<path d="M21.7348 10.0724C21.7478 10.0463 21.7609 10.0332 21.774 10.0071C22.1922 9.31506 22.2837 8.53158 22.1791 7.73505C22.0615 6.88628 21.6825 6.08975 21.5649 5.22792C21.5257 4.99288 21.5387 4.75784 21.591 4.53585C21.6956 3.17783 22.1922 2.27683 23.1332 1.58476C25.2636 0.0178083 29.1584 0.775169 30.7399 2.65551C30.8575 2.78609 30.7791 2.95584 30.766 2.98196C29.7596 4.65338 28.0475 5.17569 26.4268 6.11587C26.1524 6.27256 26.0086 6.46843 25.9563 6.70347C25.3943 7.05604 24.9892 7.59141 24.584 8.19208C24.022 9.01473 23.3946 9.78515 22.7673 10.5556C22.4144 10.425 22.0746 10.2422 21.7348 10.0724Z" fill="#754632"/>
<path d="M26.6362 7.56528C26.3487 7.94396 25.7214 7.74809 25.4469 7.4347C25.1071 7.04296 25.2639 6.45535 25.656 6.15502C26.0742 5.84163 26.6493 6.1289 26.8192 6.58593C26.8454 6.65122 26.7931 6.70345 26.7408 6.70345C26.8323 7.00379 26.7931 7.36941 26.6362 7.56528Z" fill="#E68B60"/>
<path d="M29.865 8.81883C29.8127 8.83189 29.7866 8.77966 29.7866 8.74048C29.8258 8.25734 29.8911 7.78725 29.9826 7.30411C30.0349 6.99072 30.061 6.61204 30.2963 6.36394C30.3094 6.35088 30.3094 6.35088 30.3224 6.35088C30.3094 6.31171 30.2963 6.28559 30.2832 6.24642C30.2571 6.15501 30.3878 6.10278 30.4139 6.19419C30.5446 6.61204 30.7014 7.01684 30.8714 7.40857C30.9759 7.64362 31.1589 7.90478 31.1458 8.17899C31.1328 8.77966 30.2832 8.75354 29.865 8.81883Z" fill="#E68B60"/>
<path d="M29.0279 5.18885C29.3285 4.81017 29.982 4.87546 30.4394 4.97992C30.557 5.00604 30.6485 5.04521 30.7139 5.08438C30.6747 5.33248 30.6354 5.58059 30.5962 5.81563C30.3479 5.86786 30.0081 5.7634 29.7859 5.72422C29.5507 5.69811 29.1716 5.73728 29.0148 5.55447C28.9102 5.46306 28.9494 5.29331 29.0279 5.18885Z" fill="#754632"/>
<path d="M29.9951 9.31508C29.9428 9.61542 29.8906 9.91575 29.8383 10.2161C29.786 10.19 29.7337 10.1638 29.6945 10.1377C29.3939 9.98104 28.9234 9.5893 28.9103 9.21062C28.9103 9.17144 28.9234 9.14533 28.9626 9.11921C29.0933 9.05392 29.3155 9.1845 29.4331 9.21062C29.5769 9.24979 29.7991 9.31508 29.9951 9.31508Z" fill="white"/>
<path d="M27.4724 23.8877C27.4854 23.8747 29.3806 22.5036 29.3936 22.5036C29.4328 22.2032 29.459 21.8899 29.4982 21.5895C29.5243 21.3284 29.5374 21.0411 29.642 20.793C29.8772 20.2446 30.4523 19.8136 30.8705 19.4088C31.1188 19.1607 31.7854 18.5862 32.0337 18.3381C32.2298 18.1422 32.4258 17.8941 32.6611 17.7505C32.831 17.646 32.9225 17.6852 32.9617 17.7897C33.1055 17.4502 33.2492 17.1107 33.4061 16.7842C33.5106 16.5622 33.6675 16.3402 33.9419 16.4708C34.1249 16.5492 34.1903 16.7059 34.2164 16.8887C34.3079 16.7059 34.4778 16.4316 34.713 16.5883C35.0137 16.7842 34.713 17.6852 34.6869 17.6852C34.4909 18.2989 34.2817 18.9126 34.0726 19.5133C33.8896 20.0487 33.6283 20.5057 33.21 20.8975C32.7264 21.3545 32.1906 21.7723 31.6809 22.2032C31.1711 22.6342 28.7401 24.9062 28.2304 25.3372C28.2696 25.3763 27.3286 23.953 27.4724 23.8877Z" fill="#E68B60"/>
<path d="M25.9828 6.50775C25.8913 6.44246 25.8129 6.58609 25.9044 6.65138C26.205 6.86031 26.3879 7.18676 26.4141 7.53932C26.4271 7.64379 26.584 7.64379 26.584 7.53932C26.5317 7.12147 26.3226 6.7689 25.9828 6.50775Z" fill="#9E583E"/>
<path d="M4.09071 38.4866C4.03843 38.4866 3.99921 38.4474 4.01228 38.3952C5.43689 33.9816 7.16211 29.6725 9.18793 25.494C10.2074 23.4047 11.2922 21.3416 12.4554 19.3306C12.6776 18.952 12.8998 18.5733 13.1219 18.1815C13.501 17.5548 13.88 16.928 14.2721 16.3012C14.7818 15.4785 15.3046 14.6559 15.9842 13.9508C16.0234 13.8985 16.0757 13.8594 16.1149 13.8202C16.8207 13.1412 17.631 12.7103 18.5721 12.4099C19.6046 12.0835 20.5456 11.6395 21.2906 10.7907C21.3036 10.7646 21.3559 10.7646 21.3821 10.7777L23.1203 12.0312C23.3817 12.2141 23.6431 12.3969 23.9045 12.5666C24.0222 12.645 24.2182 12.7494 24.2705 12.9061C24.3097 13.0236 24.2574 13.1281 24.2051 13.2326C24.0483 13.5329 23.9045 13.8071 23.813 14.1336C23.6562 14.7081 23.6301 15.2957 23.6693 15.8833C23.6824 16.027 23.7869 16.8888 23.813 17.9987C23.8261 18.9128 23.7869 19.9966 23.5909 20.9498C23.5255 21.2763 23.4471 21.6288 23.3556 21.9814C21.9179 28.0925 18.8596 37.1286 17.9578 38.5911C17.7356 38.9437 17.4873 39.257 17.0952 39.4268C16.6377 39.6227 16.1019 39.6357 15.6183 39.6749C14.3636 39.7794 13.1219 39.8185 11.8672 39.8185C10.4426 39.8055 9.01802 39.7271 7.60648 39.5835C6.39099 39.4529 5.13629 39.3223 4.07763 38.6694C4.05149 38.6564 4.02535 38.6041 4.05149 38.565C4.05149 38.5389 4.07764 38.5127 4.09071 38.4866Z" fill="#2B1919"/>
<path d="M15.5006 27.8836C15.6183 25.7029 15.9058 23.5222 16.1672 21.3546C17.631 21.1065 19.0948 20.9106 20.5848 20.7801C20.9508 20.754 21.3298 20.7278 21.6957 20.7017C21.8264 20.6887 22.0486 20.6234 22.1401 20.7409C22.1924 20.8062 22.1401 21.0935 22.1401 21.1849C22.1401 21.89 22.127 22.5951 22.0878 23.3002C22.0617 23.9793 22.0225 24.6583 21.9833 25.3503C21.9571 25.6898 21.8395 26.1991 22.2577 26.3427C22.6368 26.4733 23.0681 26.1991 23.3817 26.0294C23.5386 25.938 23.7085 25.8465 23.8653 25.7682C24.3097 25.5201 24.741 25.272 25.1723 25.0108C25.3422 24.9064 25.5252 24.8019 25.6951 24.6974C26.6361 24.1229 27.551 23.5222 28.4398 22.8955C28.7926 23.4831 29.1717 24.0707 29.4853 24.6844C29.7337 25.1545 29.4853 25.5723 29.2632 26.0032C29.1063 26.3036 28.9495 26.5908 28.7796 26.8781C28.479 27.4004 28.1522 27.9228 27.7993 28.419C27.4334 28.9543 27.0413 29.4767 26.6361 29.9859C26.5577 30.0904 26.4793 30.1948 26.3878 30.2993C25.6428 31.2264 24.8717 32.1144 24.0744 32.9892C23.3295 33.8119 22.5975 34.6737 21.748 35.405C20.8985 36.1493 19.9052 36.776 18.7681 36.9197C18.0623 37.0111 17.5787 36.6977 17.1213 36.1884C16.7553 35.7967 16.4678 35.3397 16.2456 34.8565C15.2785 32.7411 15.3699 30.1687 15.5006 27.8836Z" fill="#2B1919"/>
<path d="M31.0014 21.002C31.8378 20.1794 32.439 19.1739 32.7789 18.0509C32.805 17.9595 32.9488 17.9987 32.9226 18.0901C32.5697 19.2392 31.9555 20.2577 31.1059 21.1065C31.0406 21.1848 30.936 21.0673 31.0014 21.002Z" fill="#9E583E"/>
<path d="M33.1717 19.5134C33.4723 18.73 33.7729 17.9596 34.0605 17.1761C34.0997 17.0847 34.2434 17.1238 34.2042 17.2153C33.9036 17.9987 33.603 18.7691 33.3155 19.5526C33.2893 19.644 33.1456 19.6049 33.1717 19.5134Z" fill="#9E583E"/>
<path d="M14.2203 27.8574C14.2596 26.3557 14.3249 24.8671 14.4295 23.3654C14.5471 21.7463 14.717 20.1271 14.9523 18.5079C14.9653 18.4165 15.1091 18.4557 15.096 18.5471C14.7039 21.2109 14.5079 23.9008 14.4164 26.6038C14.3641 27.8966 14.338 29.1893 14.338 30.482C14.351 31.6964 14.4295 32.95 14.8608 34.0991C15.3574 35.444 16.4945 36.9065 18.1021 36.554C18.1936 36.5278 18.2328 36.6845 18.1413 36.6976C15.5404 37.2591 14.4425 33.9685 14.2596 31.9967C14.1158 30.6387 14.1811 29.2415 14.2203 27.8574Z" fill="#87423A"/>
<path d="M21.4347 4.39227C21.4085 4.07888 21.3301 3.76549 21.3432 3.4521C21.3563 3.1126 21.487 2.83838 21.6699 2.55111C21.9313 2.13325 21.8398 1.63705 22.1535 1.23225C22.3365 1.01027 22.5848 0.840515 22.8724 0.775226C23.0815 0.722994 23.3037 0.74911 23.5258 0.74911C23.8918 0.736052 24.114 0.631589 24.4015 0.43572C25.1726 -0.0865979 26.0614 -0.0996559 26.9371 0.187619C27.3553 0.331256 27.7605 0.527125 28.1526 0.736052C28.4401 0.892747 28.7146 1.01027 29.0413 1.03638C29.2896 1.0625 29.538 1.04944 29.7732 1.12779C30.1261 1.25837 30.4136 1.51953 30.6228 1.83292C30.7273 1.98961 30.8057 2.15937 30.8842 2.32912C30.9887 2.57722 31.2632 2.64251 31.3677 2.87755C31.4723 3.1126 31.3808 3.51739 31.2109 3.7002C31.0802 3.84384 30.9234 3.81772 30.7404 3.83078C30.4267 3.83078 30.113 3.83078 29.7994 3.81772C28.6623 3.9483 27.5514 3.54351 26.4012 3.71326C25.9046 3.79161 25.421 3.92219 24.9505 4.09194C24.3885 4.28781 23.8134 4.48368 23.3298 4.82319C23.0945 4.99294 22.9116 5.18881 22.7417 5.41079C22.5979 5.60666 22.4803 5.85476 22.3104 6.02452C22.1535 6.18121 22.0751 6.14204 21.9052 6.01146C21.6046 5.77641 21.4216 5.47608 21.4216 5.08434C21.4085 4.83624 21.4477 4.61426 21.4347 4.39227Z" fill="#754632"/>
<path d="M22.5714 6.79492C23.0288 7.02997 23.5255 6.88633 23.9829 6.74269C24.0744 6.71658 24.1136 6.86021 24.0221 6.88633C23.5124 7.04302 22.9896 7.1736 22.493 6.9255C22.4146 6.87327 22.493 6.74269 22.5714 6.79492Z" fill="#5E3828"/>
<path d="M26.6883 4.09192C27.3941 4.15721 28.126 4.19639 28.7534 3.81771C28.8318 3.76547 28.9102 3.89605 28.8318 3.94828C28.1783 4.34002 27.4202 4.31391 26.6883 4.24862C26.5968 4.2225 26.5838 4.07886 26.6883 4.09192Z" fill="#5E3828"/>
<path d="M22.6498 4.73183C23.1856 4.87546 23.7084 4.88852 24.2574 4.79712C24.3488 4.78406 24.388 4.9277 24.2966 4.94075C23.7346 5.04522 23.1726 5.03216 22.6106 4.87546C22.5191 4.84935 22.5583 4.70571 22.6498 4.73183Z" fill="#5E3828"/>
<path d="M19.1864 34.3994C20.4411 31.9446 21.369 29.346 21.9703 26.6692C21.9964 26.5777 22.1402 26.6169 22.114 26.7083C21.5128 29.4113 20.5718 32.0229 19.3171 34.4778C19.2779 34.5692 19.1472 34.4909 19.1864 34.3994Z" fill="#87423A"/>
<path d="M37.9288 35.3395C38.7784 35.209 39.6018 35.3265 40.386 35.679C40.4775 35.7182 40.399 35.8488 40.3076 35.8096C39.5626 35.4701 38.7653 35.3656 37.9681 35.4962C37.8766 35.4962 37.8374 35.3526 37.9288 35.3395Z" fill="#9E583E"/>
<path d="M14.2726 16.3011C14.7823 15.4785 15.3051 14.6558 15.9847 13.9507C16.0239 13.8984 16.0762 13.8593 16.1154 13.8201C16.1938 14.2771 16.5467 14.6036 16.8996 14.8778C17.3048 15.1912 17.723 15.4262 18.2327 15.2173C18.2981 15.1912 18.3242 15.2695 18.3111 15.3087C18.0628 15.8571 17.8014 16.4578 17.8668 17.0846C17.9321 17.6852 18.2981 18.1814 18.8993 18.3251C19.9841 18.5732 21.1081 17.8289 21.5917 16.9018C21.6178 16.8495 21.7224 16.8757 21.7093 16.9409C21.6178 17.7244 22.5196 18.534 23.3038 18.3251C23.5129 18.2729 23.6698 18.1684 23.8005 18.0378C23.8135 18.9519 23.7743 20.0357 23.5783 20.9889C23.5129 21.3154 23.4345 21.6679 23.343 22.0205C22.8202 22.2294 22.1667 22.2555 21.6701 22.138C21.1211 22.0074 20.6245 21.5504 20.6376 20.9758C19.788 21.9683 18.2066 22.595 16.9649 22.0074C16.3245 21.7071 16.0501 20.9758 15.9716 20.323C15.9063 19.8006 15.9847 19.2653 16.1677 18.7691C15.1613 19.3567 13.8805 19.0694 13.1355 18.2206C13.5014 17.5547 13.8805 16.9279 14.2726 16.3011Z" fill="#87423A"/>
<path d="M28.1914 34.9087C27.8124 34.53 27.4595 34.0468 27.6294 33.4984C27.7078 33.2634 27.8385 33.0806 28.0215 32.9369C28.675 33.185 29.3285 33.4592 29.9689 33.7465C30.1257 33.8118 30.2825 33.8901 30.4394 33.9554C30.4002 33.9816 30.374 34.0207 30.3348 34.0599C29.995 34.53 30.4655 35.0001 30.8053 35.3004C30.8445 35.3396 30.8184 35.4179 30.7661 35.4179C29.799 35.3396 29.2892 36.3581 29.5637 37.1938C29.5637 37.2199 29.5768 37.233 29.5898 37.2591C28.9364 37.2852 27.8777 37.3113 26.6753 37.3244C26.1786 36.2145 26.989 34.9609 28.1914 34.9087Z" fill="#87423A"/>
<path d="M23.8527 25.7682C24.2971 25.5201 24.7284 25.272 25.1597 25.0108C25.3296 24.9063 25.5126 24.8019 25.6825 24.6974C25.6302 25.0369 25.6563 25.3895 25.8001 25.729C26.1399 26.4864 27.1332 26.865 27.7736 26.2252C27.8259 26.173 27.9174 26.2383 27.8782 26.3035C27.5384 26.8389 27.1332 27.544 27.5384 28.1708C27.6037 28.2753 27.6952 28.3536 27.7998 28.4059C27.4338 28.9412 27.0417 29.4636 26.6366 29.9728C25.6694 29.5811 25.1466 28.5365 25.3557 27.5179C24.5977 27.6485 23.9834 27.0217 23.8658 26.3035C23.8396 26.1207 23.8396 25.9379 23.8527 25.7682Z" fill="#87423A"/>
<path d="M4.1956 58.3082H17.4092V59.8229H4.1956V58.3082Z" fill="#734735"/>
<path d="M13.5012 50.5779L14.4292 53.3332L17.7228 63.1919L20.4544 71.3923H20.5066L21.6045 71.4445L21.1601 69.7339L18.8076 60.7631L16.8471 53.3332L16.1282 50.5779H13.5012Z" fill="#734735"/>
<path d="M0.000231743 70.7264L1.15038 70.6742L6.99258 53.1896L7.61994 51.3092L8.10352 49.8598H5.47649L4.61388 53.1896L0.000231743 70.7264Z" fill="#734735"/>
<path d="M16.1284 50.5779L16.8604 53.3332H14.4294L13.5145 50.5779H16.1284Z" fill="#2B1919"/>
<path d="M5.47607 49.8598H7.22743L7.60645 51.3092L6.9791 53.1765H4.60039L5.47607 49.8598Z" fill="#2B1919"/>
<path d="M2.95355 48.5671H18.6504V51.0742H2.95355V48.5671Z" fill="#734735"/>
<path d="M19.2386 63.5445C19.3039 63.44 19.3824 63.3486 19.4608 63.2441L21.0684 69.3683L21.0553 69.3814C20.6893 69.5903 20.3495 69.8123 20.0097 70.0604L18.2845 64.8764C18.6112 64.4455 18.9249 64.0015 19.2386 63.5445Z" fill="#2B1919"/>
<path d="M24.7283 46.9871H54.4883V48.5018H24.7283V46.9871Z" fill="#734735"/>
<path d="M50.3973 39.309L51.0769 41.4244L61.6243 74.3043L62.7744 74.3565L53.6125 41.4766L53.0113 39.309H50.3973Z" fill="#734735"/>
<path d="M16.8075 74.1347L17.9576 74.0824L28.3742 41.5943L29.1192 39.2961L29.1846 39.0872H26.5706L26.5053 39.2961L25.8779 41.5551L16.8075 74.1347Z" fill="#87543E"/>
<path d="M53.0111 39.309L53.6123 41.4766C52.7628 41.4505 51.9132 41.4375 51.0637 41.4113L50.3841 39.309H53.0111Z" fill="#2B1919"/>
<path d="M26.5056 39.296C27.3028 39.296 28.087 39.283 28.8712 39.283C28.9496 39.283 29.028 39.283 29.1064 39.296L28.3615 41.6073C27.7864 41.5942 27.2113 41.5812 26.6493 41.5681C26.401 41.5681 26.1265 41.5812 25.8651 41.5681L26.5056 39.296Z" fill="#2B1919"/>
<path d="M19.1344 37.2459H60.3174V39.753H19.1344V37.2459Z" fill="#734735"/>
</svg>
