<svg width="101" height="81" viewBox="0 0 101 81" fill="none" xmlns="http://www.w3.org/2000/svg">
<path d="M94.3395 62.5702C94.035 62.0547 93.5932 61.6339 93.0635 61.3549C92.5337 61.0759 91.9368 60.9496 91.3395 60.9902C87.4495 60.8702 83.5395 60.9402 79.6395 60.9202L56.2395 60.7802C47.3695 60.7302 20.9295 60.4102 16.5895 60.5602C14.3195 60.6402 13.9695 61.5602 12.8195 63.6402C10.9495 66.9802 6.16948 76.8402 5.81948 78.2702C5.58948 79.2702 6.30948 79.9202 7.26948 80.1302C8.59948 80.4202 90.1195 81.1302 98.0495 80.5302C98.8895 80.4702 100.329 80.6402 100.929 79.8802C101.039 79.7502 100.989 79.3102 100.829 78.6502C99.9095 74.8502 95.1095 63.7402 94.3395 62.5702Z" fill="#DEAD90"/>
<path d="M69.16 62.0001C69.1067 61.9359 69.0424 61.8817 68.97 61.8401C68.7183 61.8001 68.4618 61.8001 68.21 61.8401H63.45L47.73 61.7801H36.37H36C35.9082 61.7769 35.8173 61.7995 35.7377 61.8455C35.6581 61.8915 35.5931 61.9589 35.55 62.0401C35.509 62.0769 35.4751 62.121 35.45 62.1701C34.45 64.1101 33.45 66.0801 32.45 68.0601C32.4136 68.1415 32.3964 68.2302 32.3998 68.3193C32.4033 68.4084 32.4272 68.4955 32.4698 68.5739C32.5123 68.6522 32.5724 68.7197 32.6453 68.7711C32.7182 68.8225 32.8019 68.8563 32.89 68.8701C32.9349 68.9138 32.9881 68.9478 33.0466 68.9701C33.1051 68.9925 33.1675 69.0027 33.23 69.0001L70.68 69.1401C71.14 69.1401 71.32 68.4001 71.2 68.0701C70.85 67.1901 69.59 62.5501 69.16 62.0001Z" fill="white"/>
<path d="M70.2401 68.58L32.9301 68.44C32.9036 68.44 32.8781 68.4295 32.8594 68.4107C32.8406 68.392 32.8301 68.3665 32.8301 68.34C32.8326 68.3152 32.8442 68.2923 32.8627 68.2757C32.8812 68.259 32.9052 68.2499 32.9301 68.25L70.2401 68.39C70.2536 68.3884 70.2673 68.3899 70.2802 68.3943C70.293 68.3988 70.3047 68.4061 70.3143 68.4157C70.324 68.4254 70.3313 68.437 70.3357 68.4499C70.3402 68.4628 70.3417 68.4765 70.3401 68.49C70.3402 68.5027 70.3375 68.5153 70.3324 68.5269C70.3273 68.5385 70.3197 68.549 70.3103 68.5575C70.3008 68.566 70.2897 68.5724 70.2776 68.5762C70.2655 68.5801 70.2527 68.5814 70.2401 68.58Z" fill="#2B0303"/>
<path d="M44.7498 61.9L43.0898 68C43.0898 68.0238 43.0993 68.0467 43.1162 68.0636C43.1331 68.0805 43.156 68.09 43.1798 68.09C43.2037 68.09 43.2266 68.0805 43.2435 68.0636C43.2604 68.0467 43.2698 68.0238 43.2698 68L44.9398 62C44.9414 61.9768 44.9349 61.9537 44.9213 61.9348C44.9078 61.9159 44.888 61.9023 44.8655 61.8964C44.843 61.8904 44.8192 61.8925 44.798 61.9023C44.7769 61.9121 44.7599 61.929 44.7498 61.95V61.9Z" fill="#2B0303"/>
<path d="M41.3703 58.2801C42.1002 58.6708 42.6752 59.2987 43.0003 60.0601C43.4503 60.8401 43.9203 61.6201 44.4003 62.4001C44.4703 62.5001 44.6403 62.4001 44.5703 62.3001C43.9903 61.3701 43.4603 60.4101 42.8803 59.4801C42.5514 58.8668 42.027 58.3811 41.3903 58.1001C41.2703 58.0501 41.2203 58.2401 41.3403 58.2801H41.3703Z" fill="#C45547"/>
<path d="M39.3495 58.9099C39.7427 59.2073 40.0732 59.5795 40.3221 60.0051C40.5709 60.4307 40.7332 60.9013 40.7995 61.3899C40.8061 61.4099 40.8188 61.4273 40.8358 61.4396C40.8529 61.452 40.8734 61.4586 40.8945 61.4586C40.9155 61.4586 40.9361 61.452 40.9531 61.4396C40.9702 61.4273 40.9829 61.4099 40.9895 61.3899C40.9203 60.8753 40.7483 60.38 40.4837 59.9333C40.2192 59.4867 39.8674 59.0978 39.4495 58.7899C39.3395 58.7399 39.2395 58.9099 39.3495 58.9599V58.9099Z" fill="#C45547"/>
<path d="M90.79 66.9999C90.7079 66.851 90.6071 66.7132 90.49 66.5899C88.75 64.5199 82.49 64.6699 80.49 66.0399C79.86 66.4799 79.9 67.4499 79.93 68.0399C80.14 72.8299 81.51 75.0399 82.07 75.3499C83.1136 75.9301 84.2848 76.242 85.4787 76.2577C86.6725 76.2734 87.8516 75.9924 88.91 75.4399C89.0429 75.3439 89.1579 75.2254 89.25 75.0899C90.2348 73.0129 90.786 70.757 90.87 68.4599C90.9371 67.9726 90.91 67.4769 90.79 66.9999Z" fill="#FAE1D2"/>
<path d="M85.5896 67.9998C86.3196 67.9998 87.0396 67.9998 87.7596 67.9998C88.2458 67.9437 88.723 67.8261 89.1796 67.6499C89.6096 67.5099 90.2496 67.0798 89.9196 66.5598C89.5896 66.0398 88.5396 65.8199 87.9196 65.6499C87.2249 65.4768 86.5148 65.373 85.7996 65.3398C84.7927 65.2679 83.7807 65.3522 82.7996 65.5898C82.3253 65.6641 81.864 65.8056 81.4296 66.0099C80.9896 66.2599 80.6396 66.8299 81.1296 67.2199C81.4872 67.4722 81.8976 67.6398 82.3296 67.7098C83.2896 67.9178 84.2675 68.0317 85.2496 68.0499L85.5896 67.9998Z" fill="#964939"/>
<path d="M100.15 53.9999C100.138 53.5594 99.9928 53.1328 99.7341 52.776C99.4754 52.4191 99.115 52.1487 98.7002 51.9999C96.4102 51.0899 94.3102 52.6099 92.7002 54.2299C94.4135 51.715 95.928 49.0703 97.2302 46.3199C97.8202 44.8999 98.5702 43.1199 98.3502 41.5499C98.3355 41.2613 98.2621 40.9787 98.1343 40.7195C98.0064 40.4603 97.827 40.23 97.6069 40.0426C97.3868 39.8553 97.1307 39.715 96.8544 39.6303C96.5781 39.5455 96.2874 39.5182 96.0002 39.5499C94.6817 39.8036 93.4395 40.358 92.3702 41.1699C91.0604 42.0898 89.8973 43.2024 88.9202 44.4699C86.2595 47.8841 84.5608 51.9479 84.0002 56.2399C83.9402 56.7099 83.8502 57.6999 83.8102 58.8799C83.8014 58.8991 83.7873 58.9153 83.7696 58.9267C83.7518 58.938 83.7312 58.9441 83.7102 58.9441C83.6891 58.9441 83.6685 58.938 83.6507 58.9267C83.633 58.9153 83.6189 58.8991 83.6102 58.8799C83.4302 58.4099 83.2302 57.9399 83.0102 57.4899C82.6402 56.7399 82.0102 55.6999 81.1502 55.4899C80.7924 55.4397 80.4285 55.5202 80.1254 55.7168C79.8222 55.9134 79.6002 56.2128 79.5002 56.5599C78.7902 58.2899 79.9602 60.5599 80.8302 62.0599C82.3202 64.5899 86.0202 68.8199 88.8302 65.6099C90.1901 64.1514 91.6944 62.8347 93.3202 61.6799C95.3325 60.3129 97.1695 58.7042 98.7902 56.8899C99.5756 56.121 100.058 55.0952 100.15 53.9999Z" fill="#FAE1D2"/>
<path d="M92.2099 54.9099C90.0268 57.528 88.4614 60.6041 87.6299 63.9099C87.6299 63.9338 87.6394 63.9567 87.6562 63.9735C87.6731 63.9904 87.696 63.9999 87.7199 63.9999C87.7438 63.9999 87.7666 63.9904 87.7835 63.9735C87.8004 63.9567 87.8099 63.9338 87.8099 63.9099C88.6441 60.6572 90.1915 57.6307 92.3399 55.0499C92.4199 54.9499 92.3399 54.8099 92.2099 54.9099Z" fill="#2B0303"/>
<path d="M31.0701 69.8802C31.1701 69.5802 31.0201 68.9302 30.6401 68.8802C28.0101 68.7002 19.2001 68.1402 17.7901 68.0302C17.5825 68.016 17.3777 68.0842 17.2201 68.2202C17.2201 68.2202 15.0001 71.5802 14.4801 72.5802C14.3801 72.7802 14.5501 73.0102 14.8201 73.0302C17.2601 73.2202 26.8201 73.9502 28.9001 74.0902C29.0117 74.1023 29.1243 74.0813 29.2239 74.0297C29.3235 73.9781 29.4057 73.8983 29.4601 73.8002C29.8801 72.8802 30.7201 71.0002 31.0701 69.8802Z" fill="#59242E"/>
<path d="M43.6999 65.0001C31.0999 64.2601 18.6999 63.0001 6.06994 62.2201C5.79719 62.1882 5.54318 62.0652 5.34901 61.8711C5.15483 61.6769 5.03184 61.4229 4.99994 61.1501C3.89994 54.0001 2.09994 47.3801 0.999938 40.2401C0.962398 40.0762 0.962259 39.9059 0.999531 39.7419C1.0368 39.5779 1.11053 39.4244 1.21524 39.2928C1.31995 39.1612 1.45295 39.0549 1.60437 38.9817C1.7558 38.9085 1.92176 38.8704 2.08994 38.8701L40.4399 41.1201C40.7165 41.1517 40.9743 41.2754 41.1721 41.4713C41.3698 41.6672 41.4958 41.9239 41.5299 42.2001C42.1899 46.5801 44.7899 63.8601 44.7799 63.6201C44.8171 63.7838 44.8173 63.9536 44.7807 64.1174C44.744 64.2811 44.6713 64.4346 44.5679 64.5668C44.4645 64.6989 44.3329 64.8064 44.1828 64.8813C44.0326 64.9563 43.8677 64.9969 43.6999 65.0001Z" fill="#59242E"/>
<path d="M27 52.2902C27.2975 53.4127 27.5312 54.5512 27.7 55.7002C27.79 56.2902 27.88 56.8802 27.95 57.4702C27.95 57.6102 27.95 57.7602 28 57.9002C28.0398 58.0237 28.0398 58.1566 28 58.2802C27.92 58.4602 27.75 58.4802 27.57 58.4802C26.34 58.4802 25.12 58.3902 23.89 58.3202C22.33 58.2302 20.76 58.1302 19.2 58.0002C18.56 58.0002 17.92 57.9002 17.29 57.8302L16.57 57.7502H16.31C16.2023 57.7327 16.1028 57.6818 16.0256 57.6046C15.9484 57.5274 15.8975 57.4279 15.88 57.3202C15.68 56.4302 15.5 55.5302 15.3 54.6302C15.08 53.5802 14.84 52.5402 14.64 51.4802V51.3402C14.6585 51.271 14.701 51.2107 14.76 51.1702C14.91 51.0602 15.16 51.1202 15.34 51.1202L16.7 51.2102L20.6 51.5002L24.6 51.8302C25.35 51.8902 26.15 51.9402 26.88 52.0602H26.97C26.92 52.0602 26.97 52.0602 26.97 52.0602C27.0069 52.1258 27.0339 52.1966 27.05 52.2702C27.05 52.3902 27.28 52.3402 27.24 52.2702C27.2 52.2002 27.13 51.9002 26.95 51.8702C26.77 51.8402 26.75 51.8702 26.65 51.8202L25.48 51.7102C24.21 51.5902 22.93 51.4802 21.65 51.3802C20.37 51.2802 18.84 51.1602 17.43 51.0602L15.79 50.9502H15.19C14.94 50.9502 14.69 50.9502 14.53 51.1602C14.4905 51.2143 14.4653 51.2774 14.4565 51.3438C14.4478 51.4102 14.4559 51.4777 14.48 51.5402C14.48 51.7102 14.54 51.8802 14.58 52.0502L14.94 53.7602C15.18 54.9002 15.43 56.0302 15.67 57.1702C15.6887 57.3251 15.7291 57.4766 15.79 57.6202C15.8732 57.7444 15.9866 57.8454 16.1195 57.9136C16.2525 57.9818 16.4006 58.0151 16.55 58.0102C17.09 58.0802 17.64 58.1302 18.19 58.1802C19.76 58.3202 21.33 58.4202 22.91 58.5202C24.32 58.6102 25.73 58.6902 27.14 58.7302C27.3821 58.7652 27.6279 58.7652 27.87 58.7302C28.39 58.5902 28.25 57.9702 28.2 57.5802C28.05 56.4102 27.88 55.2402 27.64 54.0902C27.52 53.5002 27.4 52.9002 27.24 52.3202C27.244 52.2884 27.2352 52.2563 27.2155 52.2309C27.1958 52.2056 27.1668 52.1892 27.135 52.1852C27.1032 52.1812 27.0711 52.19 27.0458 52.2097C27.0205 52.2294 27.004 52.2584 27 52.2902Z" fill="#2B0303"/>
<path d="M25.8398 70.7902C25.3798 66.6402 24.3498 58.9302 23.6598 54.8602C23.6179 54.6565 23.5135 54.4709 23.3611 54.3293C23.2088 54.1877 23.016 54.0971 22.8098 54.0702L18.8098 53.6902C18.7177 53.6763 18.6237 53.6844 18.5354 53.7138C18.447 53.7433 18.3669 53.7932 18.3016 53.8595C18.2362 53.9258 18.1875 54.0067 18.1594 54.0954C18.1313 54.1842 18.1246 54.2783 18.1398 54.3702C18.9198 60.4402 19.4398 64.9402 20.2198 71.0102C20.2566 71.2209 20.36 71.4142 20.5148 71.5618C20.6696 71.7094 20.8676 71.8034 21.0798 71.8302L24.7298 71.9002C24.8494 71.9138 24.9704 71.8991 25.0833 71.8574C25.1962 71.8158 25.2977 71.7482 25.3798 71.6602L25.6398 71.3602C25.7124 71.2853 25.7679 71.1956 25.8025 71.0972C25.837 70.9988 25.8497 70.894 25.8398 70.7902Z" fill="#59242E"/>
<path d="M39.6194 42.1L37.8894 42L34.9994 41.79L31.2094 41.55L26.7894 41.28L21.9994 41L17.1694 40.7L12.5494 40.41L8.39937 40.14L4.99938 39.9L2.65937 39.73H2.26937C2.13938 39.73 2.13938 39.91 2.26937 39.92C2.99937 40 3.64937 40 4.33938 40L7.49937 40.22L11.4994 40.47L15.9994 40.8L20.8094 41.1L25.6094 41.4L30.1394 41.68L34.1394 41.93L37.2994 42.13L39.2994 42.27H39.6094C39.7294 42.27 39.7294 42.08 39.6094 42.07L39.6194 42.1Z" fill="#2B0303"/>
<path d="M18.5395 54.44L21.5395 54.73L22.1395 54.8C22.278 54.7959 22.4133 54.8423 22.52 54.9307C22.6268 55.019 22.6977 55.1432 22.7195 55.28C22.8595 56.09 22.9495 56.9 23.0695 57.71C23.2295 58.83 23.3895 59.94 23.5695 61.05C23.8295 62.65 24.0895 64.24 24.3395 65.84C24.5895 67.44 24.8295 69.04 24.9795 70.64C24.9795 70.79 24.9795 70.93 24.9795 71.08C24.9795 71.23 25.1795 71.2 25.1695 71.08C25.0495 69.52 24.8095 67.97 24.5795 66.42C24.3495 64.87 24.0595 63.07 23.7795 61.42C23.5995 60.31 23.4295 59.21 23.2695 58.1L22.9995 55.5C22.9898 55.3124 22.9422 55.1287 22.8595 54.96C22.8 54.8671 22.7208 54.7885 22.6275 54.7297C22.5341 54.671 22.429 54.6335 22.3195 54.62H21.9895L18.6595 54.29H18.5695C18.4495 54.29 18.4495 54.47 18.5695 54.49L18.5395 54.44Z" fill="#2B0303"/>
<path d="M24.7701 63C24.7468 63.0004 24.7239 62.9927 24.7057 62.9781C24.6874 62.9634 24.6748 62.9429 24.6701 62.92L23.5801 55C23.5698 54.9139 23.539 54.8316 23.4901 54.76L23.3101 54.52C23.2548 54.4417 23.1834 54.3761 23.1005 54.3278C23.0177 54.2795 22.9255 54.2496 22.8301 54.24L19.0001 53.81C18.8751 53.7981 18.7501 53.8338 18.6501 53.91L18.3701 54.11C18.3215 54.1492 18.2832 54.1998 18.2588 54.2574C18.2344 54.315 18.2245 54.3777 18.2301 54.44L19.2301 62.54C19.2331 62.565 19.2266 62.5902 19.2117 62.6106C19.1969 62.631 19.1749 62.6451 19.1501 62.65C19.1368 62.653 19.1229 62.653 19.1095 62.6498C19.0962 62.6467 19.0837 62.6405 19.0731 62.6319C19.0625 62.6232 19.054 62.6122 19.0483 62.5997C19.0426 62.5873 19.0398 62.5737 19.0401 62.56L18.0401 54.46C18.0301 54.3647 18.0451 54.2684 18.0837 54.1807C18.1223 54.093 18.1831 54.0169 18.2601 53.96L18.5401 53.75C18.6784 53.6485 18.8496 53.6021 19.0201 53.62L22.8201 54.06C22.9434 54.0755 23.0622 54.1164 23.1689 54.1801C23.2756 54.2437 23.3679 54.3288 23.4401 54.43L23.6101 54.67C23.6837 54.7655 23.7288 54.8799 23.7401 55L24.8301 62.84C24.8331 62.865 24.8266 62.8902 24.8117 62.9106C24.7969 62.931 24.7749 62.9451 24.7501 62.95L24.7701 63Z" fill="#2B0303"/>
<path d="M30.2597 69.51C29.9497 70.42 29.5697 71.3 29.1897 72.18L28.9097 72.82L28.7897 73.12C28.7635 73.1754 28.7334 73.2289 28.6997 73.28C28.669 73.3044 28.6336 73.3222 28.5958 73.3325C28.558 73.3429 28.5185 73.3454 28.4797 73.34H28.0897C27.2097 73.34 26.3297 73.22 25.4497 73.15L21.7197 72.86L17.9997 72.53C17.0997 72.45 16.1897 72.38 15.2897 72.32H15.0897C14.9597 72.32 14.9597 72.5 15.0897 72.51L17.6497 72.71L21.4197 73.01L25.2697 73.31C26.1897 73.39 27.1197 73.46 28.0497 73.52H28.4497C28.596 73.5419 28.7452 73.5099 28.8697 73.43C28.9949 73.2662 29.0867 73.0793 29.1397 72.88C29.5197 72 29.9097 71.11 30.2597 70.21L30.4997 69.56C30.4997 69.44 30.3497 69.39 30.3097 69.5L30.2597 69.51Z" fill="#2B0303"/>
<path d="M19.8199 68.2599L20.0199 69.8499L20.1399 70.7499C20.1399 70.9999 20.2199 71.2499 20.4899 71.3599C20.8156 71.4715 21.1501 71.5551 21.4899 71.6099C22.0299 71.6999 22.5699 71.7699 23.1099 71.8299L24.1099 71.8999H24.6299C24.7695 71.9147 24.9103 71.9147 25.0499 71.8999C25.1891 71.8388 25.3097 71.7422 25.3999 71.6199C25.531 71.4869 25.6545 71.3467 25.7699 71.1999C25.8399 71.1099 25.9199 71.0499 25.8999 70.9299C25.8799 70.8099 25.8399 70.5499 25.8099 70.3599C25.7199 69.7399 25.6199 69.1199 25.5599 68.4899C25.5599 68.3699 25.3499 68.3699 25.3699 68.4899C25.4199 69.0099 25.4899 69.4899 25.5699 70.0299C25.5699 70.2499 25.6399 70.4699 25.6699 70.6999V70.9099C25.6699 70.9099 25.6699 70.9099 25.6699 70.9699C25.6699 71.0299 25.7299 70.9699 25.6699 70.9699C25.6377 71.0022 25.6107 71.0393 25.5899 71.0799L25.4299 71.2599C25.3198 71.4018 25.1958 71.5325 25.0599 71.6499C25.0271 71.6885 24.9861 71.7192 24.9399 71.7399C24.8669 71.7499 24.7929 71.7499 24.7199 71.7399H24.4399H23.4399C22.5133 71.6757 21.5935 71.5352 20.6899 71.3199C20.4999 71.3199 20.3199 71.2099 20.2799 70.9999C20.2751 70.95 20.2751 70.8998 20.2799 70.8499L20.2299 69.9999L19.9999 68.2599C19.9999 68.1399 19.7899 68.1399 19.8099 68.2599H19.8199Z" fill="#2B0303"/>
<path d="M40.2396 42.42C40.6396 45.25 41.0396 48.09 41.4296 50.92C41.8196 53.75 42.2196 56.59 42.6196 59.43C42.8396 61.02 43.0696 62.61 43.2896 64.21C43.2896 64.33 43.4896 64.28 43.4696 64.15C43.0796 61.32 42.6796 58.48 42.2896 55.65C41.8996 52.82 41.4896 49.98 41.0996 47.14L40.4296 42.37C40.4296 42.24 40.2296 42.3 40.2396 42.42Z" fill="#2B0303"/>
<path d="M80.3498 22.8501C80.3498 22.5584 80.2339 22.2786 80.0276 22.0723C79.8213 21.866 79.5415 21.7501 79.2498 21.7501C75.4998 21.7501 62.8398 21.5101 59.7798 21.9101C59.4798 21.9101 59.3398 22.1401 59.3798 22.3801C59.3353 22.4494 59.3079 22.5282 59.2998 22.6101C59.2098 24.9001 59.2998 43.3301 59.2998 45.4801C59.2997 45.6442 59.355 45.8035 59.4566 45.9323C59.5582 46.0611 59.7002 46.1519 59.8598 46.1901C60.5762 46.3158 61.3025 46.376 62.0298 46.3701C67.4398 46.6401 71.8298 46.7001 77.2398 46.5301C77.9898 46.5301 79.3498 46.7601 79.9898 46.2101C80.3798 45.8801 80.3498 45.3001 80.3898 44.8301C80.6998 40.6501 80.3598 27.0001 80.3498 22.8501Z" fill="#FAE1D2"/>
<path d="M72.4699 25.8899C74.0499 25.8899 75.6199 25.8899 77.1999 25.8899C77.3199 25.8899 77.3199 25.6899 77.1999 25.6899C75.6199 25.6899 74.0499 25.6899 72.4699 25.6899C72.3499 25.6899 72.3499 25.8899 72.4699 25.8899Z" fill="#2B0303"/>
<path d="M72.4594 27.91C74.0394 27.91 75.6094 27.91 77.1894 27.91C77.2159 27.91 77.2414 27.8994 77.2601 27.8807C77.2789 27.8619 77.2894 27.8365 77.2894 27.81C77.2894 27.7834 77.2789 27.758 77.2601 27.7393C77.2414 27.7205 77.2159 27.71 77.1894 27.71C75.6094 27.71 74.0394 27.71 72.4594 27.71C72.4394 27.7165 72.422 27.7293 72.4096 27.7463C72.3973 27.7634 72.3906 27.7839 72.3906 27.805C72.3906 27.826 72.3973 27.8465 72.4096 27.8636C72.422 27.8807 72.4394 27.8934 72.4594 27.9V27.91Z" fill="#2B0303"/>
<path d="M62.0799 31.0001C64.6099 31.1801 67.1699 31.0001 69.6999 31.0001L77.1799 30.9101C77.2999 30.9101 77.2999 30.7101 77.1799 30.7201L69.6999 30.8001C67.1699 30.8001 64.6099 30.9601 62.0799 30.8001C61.9499 30.8001 61.9499 30.9801 62.0799 30.9901V31.0001Z" fill="#2B0303"/>
<path d="M62.0702 33.6602C64.6002 33.8402 67.1602 33.7102 69.6902 33.6602L77.1702 33.5702C77.2902 33.5702 77.2902 33.3702 77.1702 33.3802L69.6902 33.4602C67.1602 33.4602 64.6002 33.6202 62.0702 33.4602C61.9402 33.4602 61.9402 33.6402 62.0702 33.6502V33.6602Z" fill="#2B0303"/>
<path d="M62.0604 36.4702C64.5904 36.6402 67.1504 36.5202 69.6804 36.4702L77.1604 36.3802C77.1869 36.3802 77.2123 36.3696 77.2311 36.3509C77.2499 36.3321 77.2604 36.3067 77.2604 36.2802C77.2604 36.2537 77.2499 36.2282 77.2311 36.2095C77.2123 36.1907 77.1869 36.1802 77.1604 36.1802C74.6704 36.1802 72.1604 36.2402 69.6804 36.2702C67.2004 36.3002 64.5904 36.4302 62.0604 36.2702C61.9304 36.2702 61.9304 36.4502 62.0604 36.4602V36.4702Z" fill="#2B0303"/>
<path d="M62.0002 39.2802C64.5402 39.4502 67.1002 39.2802 69.6302 39.2802L77.1102 39.1902C77.1367 39.1902 77.1621 39.1797 77.1809 39.1609C77.1996 39.1422 77.2102 39.1168 77.2102 39.0902C77.2102 39.0637 77.1996 39.0383 77.1809 39.0195C77.1621 39.0008 77.1367 38.9902 77.1102 38.9902L69.6302 39.0802C67.1002 39.0802 64.5402 39.2402 62.0002 39.0802C61.8802 39.0802 61.8802 39.2702 62.0002 39.2802Z" fill="#2B0303"/>
<path d="M61.9998 41.6599C64.5298 41.8399 67.0898 41.7099 69.6198 41.6599C72.1498 41.6099 74.6198 41.6599 77.0998 41.5699C77.1198 41.5633 77.1373 41.5506 77.1496 41.5335C77.162 41.5165 77.1686 41.4959 77.1686 41.4749C77.1686 41.4538 77.162 41.4333 77.1496 41.4162C77.1373 41.3992 77.1198 41.3865 77.0998 41.3799L69.6198 41.4699C67.0898 41.4699 64.5298 41.6299 61.9998 41.4699C61.8698 41.4699 61.8698 41.6599 61.9998 41.6599Z" fill="#2B0303"/>
<path d="M66.9201 36.6898C66.9283 36.5631 66.9106 36.436 66.8683 36.3163C66.826 36.1966 66.7598 36.0867 66.6738 35.9932C66.5879 35.8998 66.4838 35.8247 66.368 35.7725C66.2522 35.7204 66.1271 35.6923 66.0001 35.6898C62.8701 35.6898 51.4201 35.5298 48.8601 35.8798C48.8098 35.8802 48.7601 35.8918 48.7148 35.9137C48.6694 35.9357 48.6296 35.9674 48.598 36.0066C48.5664 36.0459 48.5439 36.0916 48.5322 36.1406C48.5205 36.1896 48.5198 36.2405 48.5301 36.2898C48.4883 36.3479 48.4672 36.4183 48.4701 36.4898C48.3901 38.4898 48.3701 40.9698 48.3701 42.8498C48.3695 42.9904 48.4151 43.1274 48.5001 43.2394C48.5851 43.3515 48.7046 43.4325 48.8401 43.4698C49.4404 43.5801 50.0498 43.6336 50.6601 43.6298C55.1801 43.8598 59.7101 43.8698 64.2401 43.7198C64.8701 43.7198 66.0001 43.9198 66.5301 43.4398C66.8601 43.1498 66.8301 42.6398 66.8701 42.2298C67.1601 38.6098 66.9301 40.3498 66.9201 36.6898Z" fill="#D1D5E3"/>
<path d="M49.5104 36.6901C50.5049 37.5398 51.6037 38.2589 52.7804 38.8301C53.9283 39.4717 55.1176 40.0363 56.3404 40.5201C56.6206 40.6539 56.9308 40.7125 57.2404 40.6901C57.6595 40.5921 58.0632 40.4373 58.4404 40.2301L60.0804 39.4801C62.2104 38.4801 64.3104 37.4801 66.3804 36.3701C66.4904 36.3101 66.3804 36.1401 66.2804 36.2001C64.3871 37.2001 62.4671 38.1535 60.5204 39.0601C59.5204 39.5101 58.5204 40.0601 57.5204 40.4101C57.3158 40.4793 57.099 40.5053 56.8839 40.4864C56.6687 40.4674 56.4598 40.404 56.2704 40.3001C55.0944 39.8246 53.9489 39.2769 52.8404 38.6601C51.6783 38.1013 50.5927 37.3955 49.6104 36.5601C49.5204 36.4701 49.3804 36.5601 49.4704 36.6901H49.5104Z" fill="#2B0303"/>
<path d="M87.7204 20.5101C87.7231 20.3633 87.668 20.2212 87.567 20.1146C87.466 20.008 87.3272 19.9453 87.1804 19.9401C85.3304 19.9401 78.5704 19.8501 77.0704 20.0501C77.0394 20.0491 77.0085 20.0554 76.9803 20.0684C76.9521 20.0814 76.9273 20.1008 76.9079 20.1251C76.8885 20.1493 76.875 20.1778 76.8685 20.2082C76.862 20.2386 76.8626 20.27 76.8704 20.3001C76.8606 20.3361 76.8606 20.3741 76.8704 20.4101C76.8704 21.6001 76.8104 23.0601 76.8704 24.1701C76.8696 24.2515 76.8956 24.3308 76.9444 24.3959C76.9932 24.461 77.0621 24.5081 77.1404 24.5301C77.4932 24.5954 77.8516 24.6255 78.2104 24.6201C80.8804 24.7601 83.5604 24.7701 86.2104 24.6801C86.5804 24.6801 87.2104 24.8001 87.5604 24.5101C87.9104 24.2201 87.7404 24.0401 87.7604 23.8001C87.8422 22.7044 87.8289 21.6036 87.7204 20.5101Z" fill="#DEAD90"/>
<path d="M77.4199 20.5402C78.6051 21.5323 79.9604 22.3014 81.4199 22.8102C82.1399 23.0802 82.7699 22.6002 83.4199 22.3002C84.7499 21.6902 86.0699 21.0402 87.4199 20.3602C87.4356 20.3451 87.446 20.3254 87.4494 20.3039C87.4529 20.2824 87.4493 20.2604 87.4391 20.2412C87.4289 20.222 87.4127 20.2066 87.393 20.1974C87.3733 20.1882 87.3512 20.1857 87.3299 20.1902C86.1999 20.7802 85.0599 21.3502 83.9099 21.8902C83.1599 22.2402 82.2499 22.8902 81.4299 22.5902C80.023 22.0938 78.7135 21.3561 77.5599 20.4102C77.4599 20.3202 77.3299 20.4602 77.4199 20.5402Z" fill="#2B0303"/>
<path d="M12.0002 26.8402C12.0002 29.7302 12.0002 32.6202 12.0002 35.5102C12.0002 36.2202 12.4802 36.5102 13.0602 36.5802C13.646 36.6254 14.2344 36.6254 14.8202 36.5802C16.3102 36.5802 21.9202 36.7102 23.4102 36.7202L38.5802 36.7802H38.6302C38.7702 36.7802 40.8502 37.9102 41.2502 38.0102C41.3102 38.0102 41.3502 38.0102 41.3302 37.9102C40.9643 37.2774 40.6306 36.6266 40.3302 35.9602C40.2935 35.8751 40.2764 35.7828 40.2802 35.6902C40.2802 35.1702 40.2802 33.3202 40.2802 32.7602C40.2802 30.1702 40.2802 27.5802 40.2802 24.9902C40.2802 24.7082 40.1688 24.4375 39.9703 24.2371C39.7718 24.0367 39.5022 23.9229 39.2202 23.9202L12.6202 23.7202C11.5502 23.7202 12.0002 26.2102 12.0002 26.8402Z" fill="#CF5F4C"/>
<path d="M36.8902 27.1802L15.2602 27.1002C15.2336 27.1002 15.2082 27.0896 15.1894 27.0709C15.1707 27.0521 15.1602 27.0267 15.1602 27.0002C15.1626 26.9754 15.1743 26.9525 15.1928 26.9358C15.2112 26.9192 15.2353 26.91 15.2602 26.9102L36.8902 27.0002C36.9167 27.0002 36.9421 27.0107 36.9609 27.0294C36.9796 27.0482 36.9902 27.0736 36.9902 27.1002C36.9855 27.1231 36.9729 27.1436 36.9546 27.1583C36.9364 27.1729 36.9136 27.1806 36.8902 27.1802Z" fill="#2B0303"/>
<path d="M36.8804 30.2102L15.2504 30.1202C15.2378 30.1216 15.225 30.1203 15.2129 30.1164C15.2008 30.1125 15.1896 30.1061 15.1802 30.0976C15.1707 30.0891 15.1632 30.0787 15.1581 30.0671C15.1529 30.0555 15.1503 30.0429 15.1504 30.0302C15.1504 30.0037 15.1609 29.9782 15.1797 29.9595C15.1984 29.9407 15.2239 29.9302 15.2504 29.9302L36.8804 30.0002C36.9069 30.0002 36.9324 30.0107 36.9511 30.0295C36.9699 30.0482 36.9804 30.0737 36.9804 30.1002C36.9804 30.1267 36.9699 30.1521 36.9511 30.1709C36.9324 30.1896 36.9069 30.2002 36.8804 30.2002V30.2102Z" fill="#2B0303"/>
<path d="M36.8696 33.2302L15.2396 33.1502C15.2131 33.1502 15.1877 33.1397 15.1689 33.1209C15.1502 33.1022 15.1396 33.0767 15.1396 33.0502C15.1396 33.0237 15.1502 32.9982 15.1689 32.9795C15.1877 32.9607 15.2131 32.9502 15.2396 32.9502L36.8696 33.0002C36.8824 33.0001 36.8949 33.0027 36.9066 33.0079C36.9182 33.013 36.9286 33.0205 36.9371 33.03C36.9456 33.0394 36.952 33.0506 36.9559 33.0627C36.9598 33.0748 36.9611 33.0876 36.9596 33.1002C36.9669 33.1146 36.9702 33.1308 36.9691 33.1469C36.968 33.1631 36.9625 33.1786 36.9533 33.1919C36.9441 33.2052 36.9314 33.2158 36.9167 33.2226C36.902 33.2293 36.8857 33.2319 36.8696 33.2302Z" fill="#2B0303"/>
<path d="M80.1904 67.1398C80.4504 68.3398 82.1904 68.4698 83.1304 68.6298C84.6622 68.8775 86.2218 68.9011 87.7604 68.6998C87.8804 68.6998 87.8804 68.4998 87.7604 68.5098C86.5463 68.6646 85.3189 68.6848 84.1004 68.5698C83.4275 68.5012 82.7596 68.391 82.1004 68.2398C81.4004 68.0798 80.5204 67.9098 80.3404 67.0898C80.3338 67.0698 80.3211 67.0523 80.304 67.04C80.287 67.0276 80.2665 67.021 80.2454 67.021C80.2243 67.021 80.2038 67.0276 80.1867 67.04C80.1697 67.0523 80.157 67.0698 80.1504 67.0898L80.1904 67.1398Z" fill="#2B0303"/>
<path d="M99.6195 79.44C87.7495 79.44 75.8795 79.56 64.0095 79.6C52.0095 79.6 39.9095 79.6 27.8595 79.39C21.0128 79.2634 14.1662 79.0634 7.31949 78.79C7.19949 78.79 7.19949 78.98 7.31949 78.98C19.4395 79.48 31.5695 79.7 43.6995 79.77C55.6995 79.85 67.6995 79.77 79.6295 79.77C86.2962 79.73 92.9628 79.7 99.6295 79.68C99.6495 79.6735 99.6669 79.6607 99.6793 79.6437C99.6916 79.6266 99.6983 79.6061 99.6983 79.585C99.6983 79.564 99.6916 79.5435 99.6793 79.5264C99.6669 79.5093 99.6495 79.4966 99.6295 79.49L99.6195 79.44Z" fill="#2B0303"/>
<path d="M83.6497 59.9099C84.2514 61.3752 84.681 62.9055 84.9297 64.4699C84.9297 64.5899 85.1297 64.5399 85.1097 64.4699C84.8691 62.9005 84.4393 61.366 83.8297 59.8999C83.8297 59.7899 83.5997 59.8399 83.6497 59.9599V59.9099Z" fill="#2B0303"/>
<path d="M79.2103 71.6699C77.7773 71.186 76.2413 71.0928 74.7603 71.3999C74.508 71.4742 74.2951 71.645 74.1678 71.8753C74.0405 72.1055 74.0091 72.3766 74.0803 72.6299C74.2503 73.8099 74.4903 75.3799 75.4203 75.6299C76.3503 75.8799 77.8503 76.0099 78.4203 75.4299C78.9903 74.8499 79.7903 71.8899 79.2103 71.6699Z" fill="#FAE1D2"/>
<path d="M78.5895 71.7201C77.7645 71.406 76.8734 71.3062 75.9995 71.4301C75.57 71.4315 75.144 71.5059 74.7395 71.6501C74.4795 71.8101 74.5695 72.1301 74.8195 72.2601C75.3401 72.4378 75.8903 72.5125 76.4395 72.4801C77.1911 72.5931 77.9591 72.5105 78.6695 72.2401C78.713 72.2192 78.751 72.1884 78.7805 72.1502C78.81 72.112 78.8302 72.0674 78.8395 72.0201C78.8795 71.8501 78.7095 71.7801 78.5895 71.7201Z" fill="#964939"/>
<path d="M79.8797 68.1799C79.5223 68.0628 79.1372 68.0606 78.7785 68.1736C78.4198 68.2866 78.1054 68.5091 77.8797 68.8099C77.5119 69.2684 77.2552 69.8057 77.1297 70.3799H77.0697C76.9452 69.4546 76.7309 68.5436 76.4297 67.6599C76.2697 67.1999 75.5397 65.5499 74.7897 66.0199C74.6819 66.1219 74.5981 66.2466 74.5445 66.385C74.4909 66.5233 74.4688 66.6719 74.4797 66.8199C74.4358 67.3739 74.4831 67.9313 74.6197 68.4699C74.7634 69.0223 74.9715 69.556 75.2397 70.0599L74.9997 69.9999C74.6297 69.8199 73.8897 69.6199 73.6997 70.1499C73.6525 70.4232 73.6785 70.7041 73.7751 70.9641C73.8717 71.224 74.0355 71.4538 74.2497 71.6299C74.588 71.8504 74.9769 71.9812 75.3797 72.0099C75.7697 72.0599 76.1397 72.1299 76.5297 72.1599C76.7097 72.1851 76.8931 72.1694 77.0662 72.114C77.2393 72.0586 77.3977 71.9649 77.5297 71.8399C77.6997 71.6999 77.8497 71.5399 78.0197 71.3899C78.5097 70.9599 79.0197 70.5199 79.4597 70.0499C79.8997 69.5799 80.8197 68.6299 79.8797 68.1799Z" fill="#36593F"/>
<path d="M58.1793 8.55989C57.1929 9.14898 56.4754 10.0998 56.1793 11.2099C55.9873 11.8773 55.9702 12.5829 56.1295 13.2589C56.2889 13.9349 56.6194 14.5585 57.0893 15.0699C57.8809 15.9055 58.9691 16.3967 60.1193 16.4379C61.2696 16.479 62.3901 16.0668 63.2393 15.2899C64.0065 14.4894 64.4496 13.4328 64.4828 12.3245C64.5161 11.2162 64.1371 10.135 63.4193 9.28989C62.758 8.59223 61.8793 8.14 60.9272 8.00736C59.9751 7.87472 59.0062 8.06955 58.1793 8.55989Z" fill="#FFC04F"/>
<path d="M62.9197 9.72987C63.4019 10.455 63.6473 11.3117 63.6222 12.1821C63.5972 13.0525 63.3028 13.8937 62.7797 14.5899C62.6997 14.6799 62.8697 14.7799 62.9397 14.6799C63.4761 13.9627 63.7774 13.0972 63.8025 12.2021C63.8276 11.3069 63.5751 10.4259 63.0797 9.67987C63.0097 9.56987 62.8497 9.67987 62.9197 9.76987V9.72987Z" fill="#2B0303"/>
<path d="M61.0599 10.59C60.4399 10.29 59.0599 10.38 59.1999 11.37C59.1999 11.78 59.6299 12 59.9799 12.14C60.3299 12.28 60.9799 12.38 61.1499 12.96C61.3999 14.03 59.8599 14.06 59.2999 13.57C59.2099 13.49 59.0699 13.57 59.1599 13.71C59.8299 14.3 61.5699 14.22 61.3799 13C61.3388 12.7957 61.2425 12.6066 61.1014 12.4532C60.9604 12.2998 60.78 12.188 60.5799 12.13C60.1399 11.96 59.2799 11.84 59.4099 11.13C59.5399 10.42 60.5099 10.49 60.9699 10.71C61.0799 10.76 61.1799 10.6 61.0599 10.54V10.59Z" fill="#2B0303"/>
<path d="M60.09 9.80017C60.09 11.4602 60.15 13.1302 60.25 14.8002C60.25 14.9202 60.45 14.9202 60.44 14.8002C60.34 13.1302 60.29 11.4602 60.28 9.80017C60.2849 9.78515 60.2862 9.76918 60.2838 9.75355C60.2813 9.73793 60.2752 9.72311 60.266 9.71031C60.2567 9.6975 60.2445 9.68707 60.2304 9.67988C60.2164 9.67269 60.2008 9.66895 60.185 9.66895C60.1692 9.66895 60.1536 9.67269 60.1395 9.67988C60.1254 9.68707 60.1132 9.6975 60.104 9.71031C60.0947 9.72311 60.0886 9.73793 60.0862 9.75355C60.0837 9.76918 60.085 9.78515 60.09 9.80017Z" fill="#2B0303"/>
<path d="M41.8196 1.76015C40.5564 2.51728 39.6381 3.73693 39.2596 5.16015C39.0101 6.01527 38.9859 6.92033 39.1891 7.7876C39.3923 8.65486 39.8162 9.4549 40.4196 10.1102C41.4352 11.1814 42.8303 11.8118 44.3054 11.866C45.7805 11.9202 47.2181 11.3939 48.3096 10.4002C49.2988 9.36711 49.8698 8.004 49.9123 6.57436C49.9548 5.14473 49.4657 3.75012 48.5396 2.66015C47.6858 1.77318 46.5568 1.20141 45.3366 1.03799C44.1163 0.874559 42.8767 1.1291 41.8196 1.76015Z" fill="#FFC04F"/>
<path d="M44.1795 1.87995C43.3266 1.79648 42.4711 2.01084 41.7584 2.48662C41.0456 2.9624 40.5195 3.67026 40.2695 4.48995C39.9408 5.32712 39.8671 6.24278 40.0574 7.12177C40.2478 8.00077 40.6939 8.80383 41.3395 9.42995C41.3588 9.4444 41.3826 9.45141 41.4066 9.4497C41.4306 9.448 41.4532 9.43769 41.4702 9.42066C41.4873 9.40364 41.4976 9.38105 41.4993 9.35704C41.501 9.33303 41.494 9.30921 41.4795 9.28995C40.9021 8.74157 40.4886 8.04327 40.2855 7.27323C40.0824 6.50319 40.0977 5.69182 40.3295 4.92995C40.5069 4.07273 40.9906 3.30951 41.69 2.7831C42.3894 2.25669 43.2567 2.00316 44.1295 2.06995C44.2495 2.06995 44.2995 1.89995 44.1295 1.87995H44.1795Z" fill="#2B0303"/>
<path d="M45.5596 4.2302C44.8496 3.8702 43.2596 4.0002 43.4296 5.1602C43.5196 5.7902 44.2396 5.9602 44.7396 6.1602C45.0615 6.22962 45.3505 6.40583 45.5596 6.6602C45.6912 6.82101 45.7631 7.02241 45.7631 7.2302C45.7631 7.438 45.6912 7.63939 45.5596 7.8002C45.2607 8.00015 44.906 8.10013 44.5466 8.08575C44.1872 8.07137 43.8417 7.94339 43.5596 7.7202C43.4696 7.6302 43.3296 7.7202 43.4196 7.8502C44.1996 8.5602 46.2496 8.4202 45.9596 7.0002C45.8196 6.2902 45.2296 6.1302 44.6296 5.9102C44.0296 5.6902 43.3096 5.2702 43.8596 4.6102C44.076 4.39836 44.3574 4.26543 44.6585 4.23278C44.9595 4.20014 45.2629 4.26967 45.5196 4.4302C45.6296 4.4802 45.7196 4.3102 45.6096 4.2602L45.5596 4.2302Z" fill="#2B0303"/>
<path d="M44.4502 3.28994C44.4502 5.22994 44.5302 7.15994 44.6402 9.09994C44.6402 9.21994 44.8402 9.21994 44.8302 9.09994C44.7202 7.15994 44.6602 5.22994 44.6502 3.28994C44.6502 3.26342 44.6397 3.23798 44.6209 3.21923C44.6022 3.20048 44.5767 3.18994 44.5502 3.18994C44.5237 3.18994 44.4982 3.20048 44.4795 3.21923C44.4607 3.23798 44.4502 3.26342 44.4502 3.28994Z" fill="#2B0303"/>
<path d="M56.89 22.9999C56.3203 21.3728 55.1356 20.0337 53.59 19.2699C49.47 17.3599 44.43 19.2699 43.25 23.6899C42.49 26.5099 43.25 30.1999 46.05 31.6899C47.1481 32.2972 48.3602 32.6703 49.6098 32.7856C50.8594 32.9009 52.1193 32.756 53.31 32.3599C56.87 30.9999 58.2 26.3299 56.89 22.9999Z" fill="#FFC04F"/>
<path d="M47.7196 19.5198C46.3892 20.0341 45.2679 20.9767 44.5328 22.199C43.7976 23.4213 43.4904 24.8535 43.6596 26.2698C43.6596 26.3998 43.8596 26.3998 43.8496 26.2698C43.6696 23.4898 44.9896 20.6298 47.7696 19.7098C47.8896 19.7098 47.8396 19.4798 47.7196 19.5198Z" fill="#2B0303"/>
<path d="M51.67 22.0902C51.1764 21.9036 50.6445 21.8416 50.1212 21.9096C49.5979 21.9776 49.0995 22.1736 48.67 22.4802C47.98 23.0402 48.26 23.8402 48.87 24.3402C49.81 25.1002 51.31 25.0702 52.05 26.0702C52.79 27.0702 51.62 27.8402 50.71 28.0702C49.8895 28.2919 49.0157 28.1991 48.26 27.8102C48.15 27.7502 48.05 27.9202 48.16 27.9802C48.653 28.2269 49.194 28.3628 49.7451 28.3783C50.2961 28.3939 50.8439 28.2887 51.35 28.0702C52.21 27.7202 52.88 26.9502 52.27 26.0702C51.66 25.1902 50.35 25.0002 49.42 24.4702C49.0575 24.2999 48.7544 24.0247 48.55 23.6802C48.26 23.0802 48.73 22.6002 49.25 22.3602C49.9956 22.0243 50.8434 21.9955 51.61 22.2802C51.73 22.2802 51.78 22.1302 51.67 22.0902Z" fill="#2B0303"/>
<path d="M50.2404 21.1098L50.1504 28.9998C50.1504 29.1298 50.3404 29.1298 50.3404 28.9998L50.4304 21.0998C50.4304 20.9798 50.2404 20.9798 50.2404 21.0998V21.1098Z" fill="#2B0303"/>
<path d="M56.1495 23.4499C56.6262 25.0672 56.5736 26.7945 55.9995 28.3799C55.4695 29.6199 54.3795 31.0099 52.9995 31.2099C52.8695 31.2099 52.9295 31.4099 52.9995 31.3899C53.7055 31.2026 54.3563 30.8488 54.8974 30.3581C55.4386 29.8674 55.8542 29.2542 56.1095 28.5699C56.7437 26.9151 56.8105 25.0967 56.2995 23.3999C56.2995 23.2799 56.0895 23.3299 56.1095 23.4499H56.1495Z" fill="#2B0303"/>
</svg>
