<svg width="120" height="120" viewBox="0 0 120 120" fill="none" xmlns="http://www.w3.org/2000/svg">
<g filter="url(#filter0_d_248_2)">
<rect x="10" y="6" width="100" height="100" rx="15" fill="white"/>
</g>
<path d="M84.938 82.3234C84.938 86.0834 87.9858 89.1286 91.749 89.1286C95.5123 89.1286 98.56 86.0834 98.56 82.3234C98.56 78.5634 95.5123 75.5182 91.749 75.5182C87.9858 75.5182 84.938 78.5634 84.938 82.3234Z" fill="#ED5267"/>
<path d="M91.6006 88.98C91.6006 91.0318 89.9373 92.6936 87.8838 92.6936V93C93.7842 93 98.5603 88.2188 98.5603 82.3327" fill="#ED5267"/>
<path d="M34.622 30.6673C34.622 26.9073 31.5743 23.8622 27.811 23.8622C24.0478 23.8622 21 26.9073 21 30.6673C21 34.4273 24.0478 37.4725 27.811 37.4725C31.5743 37.4818 34.622 34.4273 34.622 30.6673Z" fill="#00C2CB"/>
<path d="M27.969 24.0107C27.969 21.9589 29.6323 20.2971 31.6858 20.2971V20C25.7854 20 21 24.7813 21 30.6673" fill="#00C2CB"/>
<path d="M68.6494 74.2928V91.7652L86.1462 74.2928H68.6494Z" fill="#ED5267"/>
<g style="mix-blend-mode:multiply">
<path d="M72.3383 88.0795L86.1462 74.2928H68.6494V88.0795H72.3383Z" fill="url(#paint0_linear_248_2)"/>
</g>
<path d="M52.8437 68.3324C59.6361 79.0462 73.8343 82.2306 84.5665 75.444C95.2895 68.6574 98.4766 54.4715 91.6842 43.7484C84.8918 33.0254 70.6843 29.8503 59.9614 36.6369C49.2384 43.4235 46.0513 57.6187 52.8437 68.3324Z" fill="#ED5267"/>
<path d="M50.9109 37.4818V20L33.4233 37.4818H50.9109Z" fill="#00C2CB"/>
<g style="mix-blend-mode:multiply">
<path d="M47.2219 23.6857L33.4233 37.4817H50.9109V23.6857H47.2219Z" fill="url(#paint1_linear_248_2)"/>
</g>
<path d="M66.7164 43.5256C59.924 32.8119 45.7258 29.6275 34.9936 36.4141C24.2706 43.1914 21.0835 57.3866 27.8759 68.1003C34.6684 78.8141 48.8758 82.0078 59.5988 75.2119C70.3217 68.4346 73.5089 54.2393 66.7164 43.5256Z" fill="#00C2CB"/>
<path d="M52.8437 68.3324C54.6463 71.1733 56.9601 73.4758 59.599 75.2119C70.3219 68.4253 73.5091 54.2393 66.7166 43.5256C64.914 40.6847 62.6003 38.3823 59.9614 36.6462C49.2384 43.4328 46.0513 57.6187 52.8437 68.3324Z" fill="#44417C"/>
<path d="M32.6244 46.6729V52.2062L33.4607 52.5218V52.6796H31.4722V52.5218L32.3084 52.2062V45.6795L31.6766 45.5217V45.3639H32.9868C33.3491 45.3639 33.6372 45.4381 33.8509 45.5867C34.0646 45.7352 34.2505 45.958 34.3991 46.2458L36.6757 50.6L38.4226 46.2458C38.5434 45.9395 38.7013 45.7167 38.9058 45.5681C39.1102 45.4289 39.4168 45.3546 39.835 45.3546H40.9314V45.5124L40.2996 45.6702V52.3547L40.9314 52.5125V52.6704H37.9487V52.5125L38.5805 52.3547V46.6636L36.1275 52.7725H35.8115L32.6244 46.6729Z" fill="white"/>
<path d="M42.2976 54.6757C42.121 54.5086 42.0374 54.2765 42.0374 53.9887C42.0374 53.7195 42.1117 53.5152 42.2511 53.3759C42.3905 53.2274 42.5856 53.1531 42.8179 53.1531C42.8737 53.1531 42.9294 53.1624 42.9852 53.1717C43.0409 53.181 43.0781 53.1903 43.0967 53.1903L43.2361 53.2088V54.62C43.4405 54.5829 43.617 54.4715 43.7657 54.2858C43.9144 54.1001 44.0909 53.7752 44.2768 53.311L44.4812 52.7911L41.7586 47.7777L41.2383 47.6199V47.462H42.5577C42.9201 47.462 43.2082 47.5363 43.4219 47.6849C43.6356 47.8334 43.8215 48.0562 43.9701 48.344L45.2803 50.7579L46.3767 47.9262L45.5962 47.6106V47.4528H47.529V47.6106L46.6927 47.9262L44.602 53.3017C44.379 53.868 44.1374 54.2858 43.8865 54.5364C43.6356 54.7871 43.3476 54.9171 43.0316 54.9171C42.7157 54.9264 42.4648 54.8428 42.2976 54.6757Z" fill="white"/>
<path d="M32.9774 56.0497V61.583L33.8137 61.8987V62.0565H31.8252V61.8987L32.6615 61.583V55.0564L32.0296 54.8985V54.7407H33.3398C33.7022 54.7407 33.9902 54.815 34.2039 54.9635C34.4177 55.1121 34.6035 55.3349 34.7522 55.6227L37.0287 59.9769L38.7756 55.6227C38.8964 55.3163 39.0544 55.0935 39.2588 54.9449C39.4632 54.8057 39.7698 54.7314 40.188 54.7314H41.2844V54.8892L40.6526 55.0471V61.7315L41.2844 61.8894V62.0472H38.3017V61.8894L38.9336 61.7315V56.0405L36.4805 62.1493H36.1646L32.9774 56.0497Z" fill="white"/>
<path d="M42.9665 61.4716C42.474 60.9795 42.2324 60.3018 42.2324 59.4384C42.2324 58.575 42.474 57.8972 42.9665 57.4052C43.459 56.9131 44.1373 56.6718 45.0014 56.6718C45.8656 56.6718 46.5439 56.9131 47.0364 57.4052C47.5289 57.8972 47.7704 58.575 47.7704 59.4384C47.7704 60.3018 47.5289 60.9795 47.0364 61.4716C46.5439 61.9636 45.8656 62.205 45.0014 62.205C44.1373 62.2143 43.459 61.9636 42.9665 61.4716ZM45.7076 61.4159C45.9028 61.0259 45.9957 60.3668 45.9957 59.4384C45.9957 58.51 45.9028 57.8508 45.7076 57.4609C45.5125 57.071 45.2802 56.876 45.0014 56.876C44.7227 56.876 44.4904 57.071 44.2952 57.4609C44.1001 57.8508 44.0072 58.51 44.0072 59.4384C44.0072 60.3668 44.1001 61.0259 44.2952 61.4159C44.4904 61.8058 44.7227 62.0008 45.0014 62.0008C45.2802 62.0008 45.5125 61.8058 45.7076 61.4159Z" fill="white"/>
<path d="M50.1303 61.9636C49.7957 61.7965 49.5356 61.5644 49.3497 61.2766C49.1639 60.9888 49.0803 60.6546 49.0803 60.2832V57.0988H48.3462V56.8389H49.0803V56.319C49.0803 55.6877 49.3962 55.3813 50.0187 55.3813H50.7528V56.8482H52.2209V57.1081H50.7528V60.2925C50.7528 60.9331 50.8179 61.3695 50.9479 61.6108C51.078 61.8522 51.2732 61.9636 51.5333 61.9636C51.7842 61.9636 52.0072 61.8429 52.1931 61.6016C52.3789 61.3602 52.4718 61.026 52.4718 60.6082H52.732C52.732 61.1281 52.6019 61.518 52.3417 61.8058C52.0816 62.0843 51.7378 62.2329 51.3196 62.2329C50.8643 62.2143 50.4648 62.1307 50.1303 61.9636Z" fill="white"/>
<path d="M53.3081 61.8986L53.94 61.7408V57.1452L53.3081 56.9874V56.8296H54.6647C55.2966 56.8296 55.6032 57.1452 55.6032 57.7673V61.7408L56.2351 61.8986V62.0565H53.3081V61.8986V61.8986ZM54.1444 55.994C54.005 55.8548 53.9307 55.6784 53.9307 55.4741C53.9307 55.2606 53.9957 55.0935 54.1444 54.9542C54.2838 54.815 54.4603 54.75 54.6647 54.75C54.8784 54.75 55.0457 54.8242 55.1851 54.9542C55.3245 55.0935 55.3895 55.2699 55.3895 55.4741C55.3895 55.6784 55.3152 55.8548 55.1851 55.994C55.0457 56.1333 54.8692 56.1983 54.6647 56.1983C54.4603 56.2076 54.2838 56.1333 54.1444 55.994Z" fill="white"/>
<path d="M56.6537 57.1453L56.1333 56.9874V56.8296H57.4435C57.8059 56.8296 58.0939 56.9039 58.3076 57.0524C58.5213 57.201 58.7072 57.4238 58.8559 57.7116L60.101 60.1254L61.2625 57.2938L60.4819 56.9781V56.8203H62.4147V56.9781L61.5784 57.2938L59.5899 62.1493H59.274L56.6537 57.1453Z" fill="white"/>
<path d="M62.8045 61.8151C62.47 61.5552 62.3027 61.2116 62.3027 60.8032C62.3027 60.5339 62.3585 60.2647 62.4793 59.9954C62.5257 59.8748 62.5908 59.7541 62.6651 59.6519C62.9532 59.5869 63.2598 59.522 63.5943 59.4663C64.347 59.3456 65.016 59.262 65.5921 59.2342V58.9185C65.5921 58.1479 65.4992 57.6095 65.3133 57.3217C65.1275 57.0246 64.8394 56.8853 64.4492 56.8853C64.3005 56.8853 64.1797 56.9039 64.0682 56.941L63.9195 56.9967V58.5657L63.7802 58.5936C63.6687 58.6121 63.5757 58.6121 63.5014 58.6121C63.2598 58.6121 63.074 58.5379 62.9346 58.3986C62.7952 58.2593 62.7209 58.0644 62.7209 57.8323C62.7209 57.5166 62.8788 57.2381 63.2041 57.0153C63.5293 56.7925 64.0125 56.6811 64.6536 56.6811C65.2018 56.6811 65.6664 56.7739 66.0567 56.9689C66.447 57.1638 66.7536 57.4238 66.958 57.7673C67.1624 58.1015 67.2647 58.4914 67.2647 58.9278V61.7501L67.8965 61.9079V62.0658H66.958C66.5399 62.0658 66.2147 61.9358 65.9824 61.6758C65.8801 61.5737 65.8058 61.4437 65.7501 61.2766C65.6478 61.453 65.5363 61.6109 65.4063 61.7501C65.0903 62.0658 64.7001 62.2236 64.2355 62.2236C63.6129 62.2143 63.139 62.0751 62.8045 61.8151ZM65.3505 61.4252C65.4248 61.3231 65.5085 61.1838 65.5921 61.0074V59.4941C65.2669 59.4941 64.9602 59.5127 64.6722 59.5498C64.4585 59.5777 64.3098 59.5962 64.2355 59.6055C64.1983 59.6798 64.1611 59.7912 64.1333 59.9212C64.0589 60.1904 64.031 60.4504 64.031 60.701C64.031 61.091 64.0868 61.3788 64.2076 61.5644C64.3284 61.7501 64.4771 61.843 64.6536 61.843C64.9138 61.843 65.1461 61.7037 65.3505 61.4252Z" fill="white"/>
<path d="M70.0433 61.9636C69.7088 61.7965 69.4487 61.5644 69.2628 61.2766C69.077 60.9888 68.9933 60.6546 68.9933 60.2832V57.0988H68.2593V56.8389H68.9933V56.319C68.9933 55.6877 69.3093 55.3813 69.9318 55.3813H70.6659V56.8482H72.134V57.1081H70.6659V60.2925C70.6659 60.9331 70.7309 61.3695 70.861 61.6108C70.9911 61.8522 71.1863 61.9636 71.4464 61.9636C71.6973 61.9636 71.9203 61.8429 72.1062 61.6016C72.292 61.3602 72.3849 61.026 72.3849 60.6082H72.6451C72.6451 61.1281 72.515 61.518 72.2548 61.8058C71.9947 62.0843 71.6508 62.2329 71.2327 62.2329C70.7774 62.2143 70.3778 62.1307 70.0433 61.9636Z" fill="white"/>
<path d="M73.2212 61.8986L73.853 61.7408V57.1452L73.2212 56.9874V56.8296H74.5778C75.2097 56.8296 75.5163 57.1452 75.5163 57.7673V61.7408L76.1482 61.8986V62.0565H73.2212V61.8986ZM74.0575 55.994C73.9181 55.8548 73.853 55.6784 73.853 55.4741C73.853 55.2606 73.9181 55.0935 74.0575 54.9542C74.1968 54.815 74.3734 54.75 74.5778 54.75C74.7822 54.75 74.9588 54.8242 75.0982 54.9542C75.2376 55.0935 75.3119 55.2699 75.3119 55.4741C75.3119 55.6784 75.2376 55.8548 75.0982 55.994C74.9588 56.1333 74.7822 56.1983 74.5778 56.1983C74.3734 56.1983 74.1968 56.1333 74.0575 55.994Z" fill="white"/>
<path d="M77.5139 61.4716C77.0214 60.9795 76.7798 60.3018 76.7798 59.4384C76.7798 58.575 77.0214 57.8972 77.5139 57.4052C78.0063 56.9131 78.6846 56.6718 79.5488 56.6718C80.4129 56.6718 81.0913 56.9131 81.5837 57.4052C82.0762 57.8972 82.3178 58.575 82.3178 59.4384C82.3178 60.3018 82.0762 60.9795 81.5837 61.4716C81.0913 61.9636 80.4129 62.205 79.5488 62.205C78.6846 62.2143 78.0063 61.9636 77.5139 61.4716ZM80.255 61.4159C80.4501 61.0259 80.543 60.3668 80.543 59.4384C80.543 58.51 80.4501 57.8508 80.255 57.4609C80.0599 57.071 79.8276 56.876 79.5488 56.876C79.27 56.876 79.0377 57.071 78.8426 57.4609C78.6475 57.8508 78.5546 58.51 78.5546 59.4384C78.5546 60.3668 78.6475 61.0259 78.8426 61.4159C79.0377 61.8058 79.27 62.0008 79.5488 62.0008C79.8276 62.0008 80.0599 61.8058 80.255 61.4159Z" fill="white"/>
<path d="M83.1543 61.8986L83.7862 61.7408V57.1452L83.1543 56.9874V56.8296H84.0928C84.5016 56.8296 84.8269 56.9596 85.0684 57.2288C85.1614 57.3309 85.2357 57.4609 85.3007 57.6187C85.3937 57.4423 85.5145 57.2845 85.6445 57.1452C85.9605 56.8296 86.3507 56.6718 86.8153 56.6718C87.2056 56.6718 87.5587 56.7553 87.8653 56.9131C88.172 57.0802 88.4136 57.2938 88.5901 57.5537C88.7667 57.823 88.8503 58.1015 88.8503 58.3893V61.7315L89.4821 61.8894V62.0472H88.1255C87.4937 62.0472 87.187 61.7315 87.187 61.1095V58.3893C87.187 57.9529 87.1127 57.6187 86.9547 57.3773C86.7968 57.1452 86.6109 57.0245 86.4065 57.0245C86.137 57.0245 85.9047 57.1638 85.691 57.4423C85.5981 57.563 85.5238 57.7023 85.4587 57.8601V61.7222L86.0906 61.8801V62.0379H83.1636V61.8986H83.1543Z" fill="white"/>
<defs>
<filter id="filter0_d_248_2" x="0" y="0" width="120" height="120" filterUnits="userSpaceOnUse" color-interpolation-filters="sRGB">
<feFlood flood-opacity="0" result="BackgroundImageFix"/>
<feColorMatrix in="SourceAlpha" type="matrix" values="0 0 0 0 0 0 0 0 0 0 0 0 0 0 0 0 0 0 127 0" result="hardAlpha"/>
<feOffset dy="4"/>
<feGaussianBlur stdDeviation="5"/>
<feComposite in2="hardAlpha" operator="out"/>
<feColorMatrix type="matrix" values="0 0 0 0 0 0 0 0 0 0 0 0 0 0 0 0 0 0 0.25 0"/>
<feBlend mode="normal" in2="BackgroundImageFix" result="effect1_dropShadow_248_2"/>
<feBlend mode="normal" in="SourceGraphic" in2="effect1_dropShadow_248_2" result="shape"/>
</filter>
<linearGradient id="paint0_linear_248_2" x1="77.3999" y1="88.0833" x2="77.3999" y2="74.2893" gradientUnits="userSpaceOnUse">
<stop stop-color="white" stop-opacity="0"/>
<stop offset="1" stop-color="#ED5267"/>
</linearGradient>
<linearGradient id="paint1_linear_248_2" x1="42.2777" y1="23.7707" x2="42.1663" y2="37.4792" gradientUnits="userSpaceOnUse">
<stop stop-color="white" stop-opacity="0"/>
<stop offset="1" stop-color="#00878D"/>
</linearGradient>
</defs>
</svg>
